<?xml version="1.0" encoding="utf-8"?><svg version="1.1" xmlns="http://www.w3.org/2000/svg" xmlns:xlink="http://www.w3.org/1999/xlink" xmlns:xml="http://www.w3.org/XML/1998/namespace" width="70" height="70" viewBox="0, 0, 18, 18" id="a0cb9122-7e8e-4987-8cad-9cab772115a7"><defs><linearGradient x1="9" y1="13.14" x2="9" y2="0.39" gradientUnits="userSpaceOnUse" id="f1b81213-b7d5-465b-a5f3-d99014b0e364"><stop offset="0%" stop-color="#006CBC" /><stop offset="82%" stop-color="#29A4FF" /></linearGradient></defs><title>Icon-storage-94</title><g><path d="M18 9.15 a4.05 4.05 0 0 0 -3.51 -3.89 A5.1 5.1 0 0 0 9.24 0.39 a5.23 5.23 0 0 0 -5 3.4 A4.84 4.84 0 0 0 0 8.44 a4.89 4.89 0 0 0 5.07 4.7 a3.17 3.17 0 0 0 0.44 0 h8.21 a0.78 0.78 0 0 0 0.22 0 A4.09 4.09 0 0 0 18 9.15 Z" style="fill:url(#f1b81213-b7d5-465b-a5f3-d99014b0e364);" /><path d="M9.47 8.32 a4.74 4.74 0 1 0 -4.73 4.82 H9.47 V8.32 Z" style="fill:#77C5FF;" /></g><path d="M11.8 15.34 L9.55 17.58 a0.1 0.1 0 0 1 -0.16 0 L7.15 15.34 a0.12 0.12 0 0 1 0.08 -0.2 H8.55 A0.11 0.11 0 0 0 8.66 15 v-2.9 A0.11 0.11 0 0 1 8.78 12 h1.39 a0.11 0.11 0 0 1 0.11 0.11 V15 a0.11 0.11 0 0 0 0.12 0.11 h1.32 A0.12 0.12 0 0 1 11.8 15.34 Z" style="fill:#006CBC;" /><path d="M7.15 9.82 L9.47 7.5 L11.8 9.82 a0.11 0.11 0 0 1 -0.08 0.19 H10.4 a0.12 0.12 0 0 0 -0.12 0.12 v3 H8.66 v-3 A0.12 0.12 0 0 0 8.55 10 H7.23 A0.11 0.11 0 0 1 7.15 9.82 Z" style="fill:white;" /></svg>