<?xml version="1.0" encoding="UTF-8"?>
<svg xmlns="http://www.w3.org/2000/svg" xmlns:xlink="http://www.w3.org/1999/xlink" width="70pt" height="70pt" viewBox="0 0 70 70" version="1.1">
<defs>
<linearGradient id="linear0" gradientUnits="userSpaceOnUse" x1="5.51" y1="802.5" x2="12.94" y2="810.58" gradientTransform="matrix(3.888889,0,0,6.183333,0,-4972.955556)">
<stop offset="0" style="stop-color:rgb(0%,47.058824%,83.137255%);stop-opacity:1;"/>
<stop offset="0.02" style="stop-color:rgb(5.098039%,49.411765%,84.705882%);stop-opacity:1;"/>
<stop offset="0.08" style="stop-color:rgb(16.862745%,54.117647%,87.843137%);stop-opacity:1;"/>
<stop offset="0.15" style="stop-color:rgb(25.490196%,58.039216%,90.588235%);stop-opacity:1;"/>
<stop offset="0.22" style="stop-color:rgb(31.764706%,60.784314%,92.156863%);stop-opacity:1;"/>
<stop offset="0.29" style="stop-color:rgb(35.686275%,62.352941%,93.333333%);stop-opacity:1;"/>
<stop offset="0.4" style="stop-color:rgb(36.862745%,62.745098%,93.72549%);stop-opacity:1;"/>
<stop offset="0.55" style="stop-color:rgb(35.686275%,62.352941%,93.333333%);stop-opacity:1;"/>
<stop offset="0.68" style="stop-color:rgb(31.372549%,60.392157%,92.156863%);stop-opacity:1;"/>
<stop offset="0.8" style="stop-color:rgb(24.705882%,57.254902%,90.196078%);stop-opacity:1;"/>
<stop offset="0.91" style="stop-color:rgb(14.901961%,53.333333%,87.45098%);stop-opacity:1;"/>
<stop offset="0.99" style="stop-color:rgb(7.058824%,49.803922%,85.098039%);stop-opacity:1;"/>
</linearGradient>
</defs>
<g id="surface1">
<path style=" stroke:none;fill-rule:nonzero;fill:rgb(46.27451%,73.72549%,17.647059%);fill-opacity:1;" d="M 64.011719 45.964844 C 64.011719 39.351563 50.953125 33.988281 34.84375 33.988281 C 18.734375 33.988281 5.679688 39.351563 5.679688 45.964844 C 5.679688 52.582031 18.734375 57.945313 34.84375 57.945313 C 50.953125 57.945313 64.011719 52.582031 64.011719 45.964844 Z M 64.011719 45.964844 "/>
<path style=" stroke:none;fill-rule:nonzero;fill:rgb(36.862745%,58.823529%,14.117647%);fill-opacity:1;" d="M 45.265625 45.851563 C 45.265625 44.390625 40.929688 43.207031 35.582031 43.207031 C 30.234375 43.207031 25.898438 44.390625 25.898438 45.851563 C 25.898438 47.308594 30.234375 48.496094 35.582031 48.496094 C 40.929688 48.496094 45.265625 47.308594 45.265625 45.851563 Z M 45.265625 45.851563 "/>
<path style=" stroke:none;fill-rule:nonzero;fill:url(#linear0);" d="M 64.011719 19.40625 C 64.011719 12.789063 50.953125 7.429688 34.84375 7.429688 C 18.734375 7.429688 5.679688 12.789063 5.679688 19.40625 C 5.679688 26.019531 18.734375 31.382813 34.84375 31.382813 C 50.953125 31.382813 64.011719 26.019531 64.011719 19.40625 Z M 64.011719 19.40625 "/>
<path style=" stroke:none;fill-rule:nonzero;fill:rgb(0%,35.686275%,63.137255%);fill-opacity:1;" d="M 45.265625 19.25 C 45.265625 17.789063 40.929688 16.605469 35.582031 16.605469 C 30.234375 16.605469 25.898438 17.789063 25.898438 19.25 C 25.898438 20.710938 30.234375 21.894531 35.582031 21.894531 C 40.929688 21.894531 45.265625 20.710938 45.265625 19.25 Z M 45.265625 19.25 "/>
<path style=" stroke:none;fill-rule:nonzero;fill:rgb(36.862745%,58.823529%,14.117647%);fill-opacity:1;" d="M 35 57.710938 C 51.140625 57.710938 64.167969 52.34375 64.167969 45.734375 L 64.167969 52.8125 C 63.621094 59.226563 50.789063 64.476563 35 64.476563 C 19.210938 64.476563 5.832031 59.109375 5.832031 52.5 L 5.832031 45.734375 C 5.679688 52.34375 18.746094 57.710938 35 57.710938 Z M 35 57.710938 "/>
<path style=" stroke:none;fill-rule:nonzero;fill:rgb(0%,47.058824%,83.137255%);fill-opacity:1;" d="M 35 31.109375 C 51.140625 31.109375 64.167969 25.746094 64.167969 19.132813 L 64.167969 26.210938 C 63.621094 32.628906 50.789063 37.878906 35 37.878906 C 19.210938 37.878906 5.832031 32.511719 5.832031 25.898438 L 5.832031 19.132813 C 5.679688 25.746094 18.746094 31.109375 35 31.109375 Z M 35 31.109375 "/>
</g>
</svg>
