<?xml version="1.0" encoding="UTF-8"?>
<svg xmlns="http://www.w3.org/2000/svg" xmlns:xlink="http://www.w3.org/1999/xlink" width="70pt" height="70pt" viewBox="0 0 70 70" version="1.1">
<g id="surface1">
<path style=" stroke:none;fill-rule:nonzero;fill:rgb(34.901961%,70.588235%,85.098039%);fill-opacity:1;" d="M 37.101563 55.441406 L 53.621094 55.441406 L 53.621094 58.941406 L 37.101563 58.941406 Z M 37.101563 62.859375 L 53.621094 62.859375 L 53.621094 66.359375 L 37.101563 66.359375 Z M 62.160156 31.640625 L 61.039063 31.640625 C 61.460938 29.679688 61.878906 27.71875 61.878906 25.761719 C 61.878906 13.441406 53.058594 3.640625 40.878906 3.640625 C 31.21875 3.640625 22.820313 9.941406 20.019531 18.761719 C 18.480469 18.339844 16.660156 17.921875 14.980469 17.921875 C 6.859375 17.921875 0 24.921875 0 33.320313 C 0 42.140625 6.160156 48.019531 14.421875 48.019531 L 20.300781 48.019531 L 20.300781 44.238281 L 36.960938 44.238281 L 36.960938 51.660156 L 53.480469 51.660156 L 53.480469 47.878906 L 62.019531 47.878906 C 66.640625 47.878906 69.859375 44.519531 69.859375 40.039063 C 70.28125 35.421875 66.5 31.640625 62.160156 31.640625 Z M 36.820313 40.460938 L 20.441406 40.460938 L 20.441406 36.960938 L 36.960938 36.960938 L 36.960938 40.460938 Z M 36.820313 33.179688 L 20.441406 33.179688 L 20.441406 29.679688 L 36.960938 29.679688 L 36.960938 33.179688 Z M 36.820313 33.179688 "/>
</g>
</svg>
