<?xml version="1.0" encoding="UTF-8"?>
<svg xmlns="http://www.w3.org/2000/svg" xmlns:xlink="http://www.w3.org/1999/xlink" width="70pt" height="70pt" viewBox="0 0 70 70" version="1.1">
<defs>
<filter id="alpha" filterUnits="objectBoundingBox" x="0%" y="0%" width="100%" height="100%">
  <feColorMatrix type="matrix" in="SourceGraphic" values="0 0 0 0 1 0 0 0 0 1 0 0 0 0 1 0 0 0 1 0"/>
</filter>
<mask id="mask0">
  <g filter="url(#alpha)">
<rect x="0" y="0" width="70" height="70" style="fill:rgb(0,0,0);fill-opacity:0.101961;stroke:none;"/>
  </g>
</mask>
<clipPath id="clip1">
  <rect x="0" y="0" width="70" height="70"/>
</clipPath>
<g id="surface5" clip-path="url(#clip1)">
<path style=" stroke:none;fill-rule:nonzero;fill:rgb(255,255,255);fill-opacity:1;" d="M 1.398438 1.398438 L 26.601563 1.398438 L 26.601563 15.398438 L 1.398438 15.398438 Z M 1.398438 1.398438 "/>
</g>
<mask id="mask1">
  <g filter="url(#alpha)">
<rect x="0" y="0" width="70" height="70" style="fill:rgb(0,0,0);fill-opacity:0.101961;stroke:none;"/>
  </g>
</mask>
<clipPath id="clip2">
  <rect x="0" y="0" width="70" height="70"/>
</clipPath>
<g id="surface8" clip-path="url(#clip2)">
<path style=" stroke:none;fill-rule:nonzero;fill:rgb(255,255,255);fill-opacity:1;" d="M 51.800781 26.601563 L 51.800781 12.601563 L 65.800781 12.601563 Z M 37.800781 40.601563 L 46.199219 32.199219 L 37.800781 32.199219 Z M 23.800781 43.398438 L 23.800781 54.601563 L 35 43.398438 Z M 9.800781 54.601563 L 9.800781 68.601563 L 23.800781 54.601563 Z M 46.199219 26.601563 L 26.601563 26.601563 L 26.601563 15.398438 L 46.199219 15.398438 Z M 26.601563 15.398438 L 1.398438 15.398438 L 1.398438 1.398438 L 26.601563 1.398438 Z M 26.601563 37.800781 L 9.800781 37.800781 L 9.800781 26.601563 L 26.601563 26.601563 Z M 15.398438 49 L 4.199219 49 L 4.199219 40.601563 L 15.398438 40.601563 Z M 15.398438 49 "/>
</g>
</defs>
<g id="surface1">
<path style=" stroke:none;fill-rule:nonzero;fill:rgb(0,102,178);fill-opacity:1;" d="M 65.800781 46.199219 L 65.800781 65.800781 L 12.601563 65.800781 L 12.601563 57.398438 L 40.601563 57.398438 L 40.601563 46.199219 Z M 46.199219 15.398438 L 26.601563 15.398438 L 26.601563 26.601563 L 46.199219 26.601563 Z M 26.601563 1.398438 L 1.398438 1.398438 L 1.398438 15.398438 L 26.601563 15.398438 Z M 26.601563 26.601563 L 9.800781 26.601563 L 9.800781 37.800781 L 26.601563 37.800781 Z M 15.398438 40.601563 L 4.199219 40.601563 L 4.199219 49 L 15.398438 49 Z M 15.398438 40.601563 "/>
<path style=" stroke:none;fill-rule:nonzero;fill:rgb(255,255,255);fill-opacity:1;" d="M 65.800781 23.800781 L 65.800781 43.398438 L 40.601563 43.398438 L 40.601563 35 L 54.601563 35 L 54.601563 23.800781 Z M 37.800781 46.199219 L 26.601563 46.199219 L 26.601563 54.601563 L 37.800781 54.601563 Z M 37.800781 46.199219 "/>
<path style=" stroke:none;fill-rule:nonzero;fill:rgb(65,174,255);fill-opacity:1;" d="M 51.800781 21 L 51.800781 32.199219 L 37.800781 32.199219 L 37.800781 43.398438 L 23.800781 43.398438 L 23.800781 54.601563 L 9.800781 54.601563 L 9.800781 66.5 C 9.800781 67.660156 10.738281 68.601563 11.898438 68.601563 L 66.5 68.601563 C 67.660156 68.601563 68.601563 67.660156 68.601563 66.5 L 68.601563 21 Z M 40.601563 35 L 51.800781 35 L 51.800781 43.398438 L 40.601563 43.398438 Z M 51.800781 54.601563 L 40.601563 54.601563 L 40.601563 46.199219 L 51.800781 46.199219 Z M 26.601563 46.199219 L 37.800781 46.199219 L 37.800781 54.601563 L 26.601563 54.601563 Z M 23.800781 65.800781 L 12.601563 65.800781 L 12.601563 57.398438 L 23.800781 57.398438 Z M 37.800781 65.800781 L 26.601563 65.800781 L 26.601563 57.398438 L 37.800781 57.398438 Z M 51.800781 65.800781 L 40.601563 65.800781 L 40.601563 57.398438 L 51.800781 57.398438 Z M 65.800781 65.800781 L 54.601563 65.800781 L 54.601563 57.398438 L 65.800781 57.398438 Z M 65.800781 54.601563 L 54.601563 54.601563 L 54.601563 46.199219 L 65.800781 46.199219 Z M 65.800781 43.398438 L 54.601563 43.398438 L 54.601563 35 L 65.800781 35 Z M 54.601563 32.199219 L 54.601563 23.800781 L 65.800781 23.800781 L 65.800781 32.199219 Z M 54.601563 32.199219 "/>
<path style=" stroke:none;fill-rule:nonzero;fill:rgb(0,140,244);fill-opacity:1;" d="M 68.601563 21 L 51.800781 21 L 51.800781 12.601563 L 66.5 12.601563 C 67.660156 12.601563 68.601563 13.539063 68.601563 14.699219 Z M 68.601563 21 "/>
<use xlink:href="#surface5" mask="url(#mask0)"/>
<use xlink:href="#surface8" mask="url(#mask1)"/>
</g>
</svg>
