<?xml version="1.0" encoding="utf-8"?><svg version="1.1" xmlns="http://www.w3.org/2000/svg" xmlns:xlink="http://www.w3.org/1999/xlink" xmlns:xml="http://www.w3.org/XML/1998/namespace" width="70" height="70" viewBox="0, 0, 18, 18"><defs><linearGradient x1="9" y1="15.799" x2="9" y2="5.316" gradientUnits="userSpaceOnUse" id="aa32ebca-eeba-4b3a-9ee4-7e15a794a5d5"><stop offset="0%" stop-color="#32BEDD" /><stop offset="77.5%" stop-color="#32D4F5" /></linearGradient></defs><title>MsPortalFx.base.images-2</title><g id="a9342976-9512-4674-89f1-52a588cf420b"><g><path d="M0.544 5.316 H17.456 a0 0 0 0 1 0 0 v9.918 a0.565 0.565 0 0 1 -0.565 0.565 H1.109 a0.565 0.565 0 0 1 -0.565 -0.565 V5.316 A0 0 0 0 1 0.544 5.316 Z" style="fill:url(#aa32ebca-eeba-4b3a-9ee4-7e15a794a5d5);" /><path d="M1.112 2.2 H16.888 a0.565 0.565 0 0 1 0.565 0.565 v2.55 a0 0 0 0 1 0 0 H0.547 a0 0 0 0 1 0 0 V2.766 A0.565 0.565 0 0 1 1.112 2.2 Z" style="fill:#0078D4;" /><path d="M13.528 7.347 H9.384 A0.228 0.228 0 0 1 9.26 7.31 L8.077 6.523 a0.218 0.218 0 0 0 -0.123 -0.038 H4.472 a0.222 0.222 0 0 0 -0.222 0.222 v7.315 a0.221 0.221 0 0 0 0.222 0.222 h9.056 a0.221 0.221 0 0 0 0.222 -0.222 V7.569 A0.222 0.222 0 0 0 13.528 7.347 Z" style="fill:#F78D1E;" /><rect x="5.114" y="6.91" width="2.159" height="0.432" rx="0.091" style="fill:white;" /><rect x="5.114" y="6.91" width="0.432" height="0.432" rx="0.062" style="fill:#D15900;" /><path d="M13.528 7.337 H8.977 A0.219 0.219 0 0 0 8.82 7.4 l-0.732 0.731 a0.22 0.22 0 0 1 -0.157 0.066 H4.472 a0.221 0.221 0 0 0 -0.222 0.221 v5.591 a0.221 0.221 0 0 0 0.222 0.222 h9.056 a0.221 0.221 0 0 0 0.222 -0.222 V7.558 A0.221 0.221 0 0 0 13.528 7.337 Z" style="fill:white;" /></g></g></svg>