<?xml version="1.0" encoding="UTF-8"?>
<svg xmlns="http://www.w3.org/2000/svg" xmlns:xlink="http://www.w3.org/1999/xlink" width="62pt" height="70pt" viewBox="0 0 62 70" version="1.1">
<g id="surface1">
<path style=" stroke:none;fill-rule:nonzero;fill:rgb(97,187,255);fill-opacity:1;" d="M 20.761719 68.949219 L 20.761719 69.164063 L 20.976563 69.164063 Z M 20.761719 68.949219 "/>
<path style=" stroke:none;fill-rule:nonzero;fill:rgb(1,147,255);fill-opacity:1;" d="M 6.113281 10.84375 L 6.113281 59.585938 C 6.113281 64.628906 17.136719 68.730469 30.574219 68.875 L 30.574219 19.84375 C 17.277344 19.84375 6.398438 15.882813 6.113281 10.84375 Z M 6.113281 10.84375 "/>
<path style=" stroke:none;fill-rule:nonzero;fill:rgb(57,171,255);fill-opacity:1;" d="M 31.140625 19.988281 L 30.574219 19.988281 L 30.574219 68.875 L 31.140625 68.875 C 45.148438 68.875 56.167969 64.773438 56.167969 59.585938 L 56.167969 10.628906 C 56.167969 15.957031 44.863281 19.988281 31.140625 19.988281 Z M 31.140625 19.988281 "/>
<path style=" stroke:none;fill-rule:nonzero;fill:rgb(255,255,255);fill-opacity:1;" d="M 6.113281 10.773438 L 6.113281 11.058594 C 6.542969 15.957031 17.417969 19.988281 30.644531 19.988281 L 31.214844 19.988281 C 44.863281 19.988281 56.167969 15.957031 56.167969 10.773438 C 56.167969 6.8125 49.414063 3.429688 40.03125 2.203125 C 37.1875 1.773438 34.269531 1.554688 31.140625 1.554688 C 17.417969 1.484375 6.113281 5.730469 6.113281 10.773438 Z M 51.050781 10.339844 C 51.050781 11.5625 49.839844 12.644531 47.921875 13.507813 C 44.296875 15.308594 38.109375 16.386719 31.070313 16.386719 C 20.976563 16.386719 12.371094 14.085938 11.164063 10.917969 L 11.164063 10.195313 C 11.164063 6.8125 20.050781 4.078125 31.070313 4.078125 C 41.878906 4.21875 51.050781 6.957031 51.050781 10.339844 Z M 51.050781 10.339844 "/>
<path style=" stroke:none;fill-rule:nonzero;fill:rgb(55,170,255);fill-opacity:1;" d="M 51.050781 10.339844 C 51.050781 6.957031 41.878906 4.21875 31.140625 4.21875 C 41.878906 4.21875 51.050781 7.171875 51.050781 10.339844 Z M 31.285156 11.5625 C 24.8125 11.5625 19.054688 12.5 15.429688 14.011719 C 13.152344 13.21875 11.660156 12.210938 11.234375 10.988281 C 12.300781 14.15625 20.902344 16.460938 31.140625 16.460938 C 38.109375 16.460938 44.296875 15.234375 47.992188 13.582031 C 47.566406 13.722656 47.210938 13.867188 46.785156 14.15625 C 42.875 12.5 37.328125 11.5625 31.285156 11.5625 Z M 31.285156 11.5625 "/>
<path style=" stroke:none;fill-rule:nonzero;fill:rgb(115,195,255);fill-opacity:1;" d="M 31.140625 4.21875 C 20.121094 4.21875 11.234375 6.957031 11.234375 10.339844 L 11.234375 11.058594 C 11.660156 12.285156 13.226563 13.21875 15.429688 14.085938 C 19.054688 12.570313 24.8125 11.636719 31.285156 11.636719 C 37.328125 11.636719 42.875 12.570313 46.640625 14.085938 C 47.070313 13.941406 47.425781 13.796875 47.851563 13.507813 C 49.699219 12.714844 50.980469 11.636719 50.980469 10.339844 C 51.050781 7.171875 41.878906 4.21875 31.140625 4.21875 Z M 31.140625 4.21875 "/>
<path style=" stroke:none;fill-rule:nonzero;fill:rgb(53,169,255);fill-opacity:1;" d="M 7.820313 37.484375 C 7.964844 37.699219 7.890625 37.914063 7.820313 38.132813 Z M 7.820313 37.484375 "/>
<path style="fill-rule:nonzero;fill:rgb(0,141,246);fill-opacity:1;stroke-width:2;stroke-linecap:butt;stroke-linejoin:miter;stroke:rgb(255,255,255);stroke-opacity:1;stroke-miterlimit:10;" d="M 63.999042 58.497822 C 63.999042 57.998686 63.80126 57.901029 63.400202 57.70029 L 58.598488 56.197457 C 58.301815 56.0998 58.098538 56.002143 57.999647 55.698321 C 57.69748 54.900789 57.301915 54.000174 56.999748 53.202642 C 56.900857 52.89882 56.900857 52.600423 56.999748 52.302027 C 57.69748 50.799194 58.400706 49.301786 59.197329 47.798953 C 59.400605 47.397474 59.400605 47.099078 58.999546 46.800681 C 58.197429 45.997724 57.400806 45.297848 56.59869 44.402659 C 56.197631 43.898098 55.802067 43.898098 55.302117 44.299577 L 55.197732 44.402659 C 53.802268 45.102534 52.40131 45.80241 51.099244 46.502285 C 50.802571 46.599942 50.599294 46.697599 50.302621 46.502285 C 49.500504 46.100806 48.698387 45.80241 47.901764 45.498588 C 47.599597 45.400931 47.401815 45.200191 47.297429 44.798713 C 46.698589 43.198222 46.099748 41.597732 45.599798 40.002668 C 45.500907 39.698846 45.297631 39.498107 45.000958 39.498107 L 41.100252 39.498107 C 40.699194 39.498107 40.600302 39.601189 40.40252 40.002668 C 39.902571 41.597732 39.402621 43.198222 38.798286 44.798713 C 38.699395 45.102534 38.600504 45.297848 38.298337 45.400931 C 37.501714 45.699327 36.600706 46.100806 35.798589 46.399203 C 35.501915 46.502285 35.199748 46.502285 34.897581 46.399203 C 33.298841 45.60167 31.700101 44.901795 30.200252 44.098837 C 29.898085 44.00118 29.799194 44.00118 29.50252 44.20192 C 28.601512 45.102534 27.700504 46.100806 26.700605 47.001421 C 26.398438 47.299817 26.398438 47.500557 26.601714 47.798953 C 27.398337 49.301786 28.101563 50.799194 28.898185 52.302027 C 29.101462 52.600423 29.101462 52.89882 29.002571 53.202642 C 28.700403 54.000174 28.299345 54.700049 28.002671 55.497582 C 27.898286 55.89906 27.700504 56.0998 27.299446 56.197457 C 25.700706 56.799675 24.101966 57.401893 22.497732 57.901029 C 22.102167 57.998686 21.997782 58.199426 21.997782 58.497822 L 21.997782 62.398678 C 21.997782 62.800157 22.102167 63.000896 22.497732 63.098553 C 24.101966 63.597689 25.700706 64.199907 27.299446 64.699043 C 27.601613 64.802125 27.799395 64.899782 27.898286 65.301261 C 28.200454 66.098794 28.601512 66.901751 28.898185 67.699284 C 29.002571 67.99768 29.002571 68.301502 28.898185 68.599898 C 28.101563 70.200388 27.398337 71.800878 26.601714 73.401369 C 26.497329 73.602108 26.497329 73.797422 26.700605 73.998161 L 29.601411 76.900745 C 29.700302 76.998402 29.799194 77.199142 30.101361 76.998402 C 31.002369 76.499266 32.002268 76.00013 32.897782 75.500994 C 33.601008 75.202598 34.199849 74.801119 34.897581 74.497297 C 35.199748 74.39964 35.39753 74.301983 35.699698 74.497297 C 36.501815 74.898776 37.397329 75.202598 38.199446 75.500994 C 38.501613 75.598651 38.600504 75.799391 38.699395 76.097787 C 39.298236 77.698277 39.902571 79.40185 40.40252 81.00234 C 40.501411 81.300736 40.699194 81.501476 41.001361 81.501476 L 44.902067 81.501476 C 45.297631 81.501476 45.402016 81.300736 45.599798 81.00234 C 46.099748 79.40185 46.698589 77.80136 47.198538 76.20087 C 47.297429 75.902473 47.401815 75.701734 47.698488 75.598651 C 48.500605 75.300255 49.401613 74.898776 50.198236 74.60038 C 50.500403 74.497297 50.802571 74.497297 51.000353 74.60038 C 52.599093 75.397912 54.197833 76.097787 55.697681 76.900745 C 55.999849 76.998402 56.09874 76.998402 56.400907 76.797663 C 57.301915 75.902473 58.197429 74.898776 59.197329 73.998161 C 59.499496 73.699765 59.499496 73.602108 59.301714 73.200629 C 58.499597 71.697796 57.69748 70.097306 56.999748 68.599898 C 56.801966 68.301502 56.801966 67.99768 56.999748 67.699284 C 57.400806 66.901751 57.69748 66.098794 57.999647 65.301261 C 58.098538 64.997439 58.301815 64.802125 58.598488 64.699043 C 60.202722 64.10225 61.801462 63.500032 63.400202 63.000896 C 63.80126 62.897814 63.900151 62.702499 63.900151 62.301021 C 63.900151 60.90127 63.900151 59.702259 63.999042 58.497822 Z M 63.999042 58.497822 " transform="matrix(0.711009,0,0,0.719994,0,0.116275)"/>
<path style=" stroke:none;fill-rule:nonzero;fill:rgb(255,255,255);fill-opacity:1;" d="M 34.058594 38.421875 C 34.625 37.914063 34.625 37.914063 35.054688 38.347656 C 37.898438 41.082031 37.824219 45.835938 34.910156 48.429688 C 32.847656 50.300781 29.507813 50.515625 27.089844 48.933594 C 26.945313 48.859375 26.804688 48.714844 26.664063 48.644531 C 25.242188 47.492188 24.316406 46.125 24.03125 44.324219 C 23.605469 42.019531 24.316406 40.003906 25.953125 38.347656 C 26.164063 38.132813 26.164063 38.058594 25.953125 37.84375 C 25.738281 37.628906 25.597656 37.410156 25.382813 37.195313 L 28.652344 37.195313 C 28.796875 37.195313 28.867188 37.269531 28.867188 37.410156 L 28.867188 40.652344 C 28.511719 40.292969 28.226563 40.074219 27.941406 39.789063 C 27.800781 39.644531 27.730469 39.570313 27.515625 39.789063 C 25.3125 41.660156 25.453125 45.332031 27.800781 47.058594 C 28.015625 47.058594 28.15625 47.203125 28.296875 47.277344 C 29.007813 47.78125 29.863281 47.996094 30.644531 47.996094 C 32.351563 47.925781 33.703125 47.277344 34.554688 45.691406 C 35.550781 43.820313 35.265625 41.660156 33.773438 40.074219 C 33.628906 39.933594 33.347656 39.789063 33.273438 39.5 C 33.203125 39.429688 33.203125 39.355469 33.273438 39.210938 C 33.558594 38.925781 33.84375 38.707031 34.058594 38.421875 Z M 34.058594 38.421875 "/>
</g>
</svg>
