<?xml version="1.0" encoding="UTF-8"?>
<svg xmlns="http://www.w3.org/2000/svg" xmlns:xlink="http://www.w3.org/1999/xlink" width="70pt" height="63pt" viewBox="0 0 70 63" version="1.1">
<defs>
<filter id="alpha" filterUnits="objectBoundingBox" x="0%" y="0%" width="100%" height="100%">
  <feColorMatrix type="matrix" in="SourceGraphic" values="0 0 0 0 1 0 0 0 0 1 0 0 0 0 1 0 0 0 1 0"/>
</filter>
<mask id="mask0">
  <g filter="url(#alpha)">
<rect x="0" y="0" width="70" height="63" style="fill:rgb(0%,0%,0%);fill-opacity:0.2;stroke:none;"/>
  </g>
</mask>
<clipPath id="clip1">
  <rect x="0" y="0" width="70" height="63"/>
</clipPath>
<g id="surface5" clip-path="url(#clip1)">
<path style=" stroke:none;fill-rule:nonzero;fill:rgb(100%,100%,100%);fill-opacity:1;" d="M 27.429688 19.324219 C 29.113281 18.902344 30.792969 18.902344 32.332031 19.042969 C 33.03125 11.492188 38.984375 3.933594 45.695313 0.570313 C 44.140625 0.207031 42.511719 0 40.808594 0 C 31.15625 0 22.820313 6.363281 19.96875 15.140625 C 18.429688 14.703125 16.675781 14.261719 14.921875 14.261719 C 6.800781 14.261719 0 21.28125 0 29.621094 C 0 38.394531 6.144531 44.320313 14.480469 44.320313 L 20.378906 44.320313 C 18.449219 42.371094 17.066406 40.011719 16.371094 37.101563 C 14.550781 29.121094 19.453125 21.144531 27.429688 19.324219 Z M 27.429688 19.324219 "/>
</g>
<mask id="mask1">
  <g filter="url(#alpha)">
<rect x="0" y="0" width="70" height="63" style="fill:rgb(0%,0%,0%);fill-opacity:0.2;stroke:none;"/>
  </g>
</mask>
<clipPath id="clip2">
  <rect x="0" y="0" width="70" height="63"/>
</clipPath>
<g id="surface8" clip-path="url(#clip2)">
<path style=" stroke:none;fill-rule:nonzero;fill:rgb(100%,100%,100%);fill-opacity:1;" d="M 45.71875 0.554688 C 45.710938 0.558594 45.703125 0.5625 45.695313 0.566406 C 45.699219 0.570313 45.703125 0.570313 45.707031 0.570313 Z M 45.71875 0.554688 "/>
</g>
</defs>
<g id="surface1">
<path style=" stroke:none;fill-rule:nonzero;fill:rgb(34.901961%,70.588235%,85.098039%);fill-opacity:1;" d="M 62.09375 28.085938 C 61.65625 28.085938 61.433594 28.085938 60.996094 28.085938 C 61.433594 26.109375 61.871094 24.132813 61.871094 22.160156 C 61.871094 9.875 53.097656 0 40.808594 0 C 31.15625 0 22.820313 6.363281 19.96875 15.140625 C 18.429688 14.703125 16.675781 14.261719 14.921875 14.261719 C 6.800781 14.261719 0 21.28125 0 29.621094 C 0 38.394531 6.144531 44.320313 14.480469 44.320313 L 20.402344 44.320313 L 20.402344 40.589844 L 37.078125 40.589844 L 37.078125 48.050781 L 53.535156 48.050781 L 53.535156 44.320313 L 62.09375 44.320313 C 66.699219 44.320313 69.992188 41.027344 69.992188 36.421875 C 70.210938 31.8125 66.480469 28.085938 62.09375 28.085938 Z M 36.859375 36.859375 L 20.40625 36.859375 L 20.40625 33.347656 L 36.859375 33.347656 Z M 36.859375 29.621094 L 20.40625 29.621094 L 20.40625 26.109375 L 36.859375 26.109375 Z M 36.859375 29.621094 "/>
<path style=" stroke:none;fill-rule:nonzero;fill:rgb(34.901961%,70.588235%,85.098039%);fill-opacity:1;" d="M 37.082031 51.78125 L 53.535156 51.78125 L 53.535156 55.292969 L 37.082031 55.292969 Z M 37.082031 51.78125 "/>
<path style=" stroke:none;fill-rule:nonzero;fill:rgb(34.901961%,70.588235%,85.098039%);fill-opacity:1;" d="M 37.082031 59.238281 L 53.535156 59.238281 L 53.535156 62.75 L 37.082031 62.75 Z M 37.082031 59.238281 "/>
<use xlink:href="#surface5" mask="url(#mask0)"/>
<use xlink:href="#surface8" mask="url(#mask1)"/>
</g>
</svg>
