<?xml version="1.0" encoding="UTF-8"?>
<svg xmlns="http://www.w3.org/2000/svg" xmlns:xlink="http://www.w3.org/1999/xlink" width="70pt" height="67pt" viewBox="0 0 70 67" version="1.1">
<g id="surface1">
<path style=" stroke:none;fill-rule:nonzero;fill:rgb(35,161,255);fill-opacity:1;" d="M 34.125 40.359375 L 34.125 33.796875 C 34.125 33.132813 33.566406 32.589844 32.882813 32.589844 L 27.617188 32.589844 C 27.355469 32.589844 27.144531 32.503906 26.988281 32.34375 C 26.828125 32.1875 26.742188 31.976563 26.742188 31.714844 C 26.742188 31.488281 26.828125 31.277344 27.023438 31.050781 L 35.773438 22.320313 C 35.929688 22.164063 36.121094 22.09375 36.367188 22.078125 C 34.441406 14.273438 27.652344 8.328125 19.304688 7.941406 C 8.472656 7.453125 -0.472656 16.410156 0.0195313 27.21875 C 0.472656 37.105469 8.769531 44.816406 18.675781 44.816406 L 34.144531 44.816406 L 34.144531 40.359375 Z M 34.125 40.359375 "/>
<path style=" stroke:none;fill-rule:nonzero;fill:rgb(0,111,194);fill-opacity:1;" d="M 44.609375 48.683594 L 44.609375 44.816406 L 51.730469 44.816406 C 61.757813 44.816406 69.933594 36.980469 69.933594 27.359375 C 69.933594 18.125 62.320313 10.566406 52.800781 10.199219 C 49.230469 3.902344 42.371094 0 34.757813 0 C 29.714844 0 25.078125 1.730469 21.527344 4.6875 C 26.078125 5.40625 30.292969 7.523438 33.621094 10.863281 C 37.523438 14.765625 39.777344 19.871094 40.042969 25.3125 L 45.816406 31.070313 C 45.972656 31.226563 46.0625 31.4375 46.0625 31.699219 C 46.0625 31.941406 45.972656 32.136719 45.800781 32.308594 C 45.625 32.484375 45.414063 32.574219 45.1875 32.574219 L 40.078125 32.574219 L 40.078125 55.210938 C 40.078125 55.890625 39.515625 56.453125 38.816406 56.453125 L 38.851563 56.453125 L 33.585938 56.453125 C 33.339844 56.453125 33.148438 56.539063 32.972656 56.714844 C 32.796875 56.890625 32.710938 57.097656 32.710938 57.324219 C 32.710938 57.589844 32.796875 57.796875 32.953125 57.957031 L 41.738281 66.703125 C 41.898438 66.859375 42.105469 66.949219 42.371094 66.949219 C 42.632813 66.949219 42.839844 66.859375 43 66.703125 L 51.75 57.972656 C 51.925781 57.746094 52.027344 57.535156 52.027344 57.308594 C 52.027344 57.046875 51.941406 56.835938 51.785156 56.679688 C 51.625 56.519531 51.417969 56.433594 51.152344 56.433594 L 45.886719 56.433594 C 45.203125 56.433594 44.644531 55.890625 44.644531 55.226563 L 44.644531 48.683594 Z M 44.609375 48.683594 "/>
</g>
</svg>
