<?xml version="1.0" encoding="UTF-8"?>
<svg xmlns="http://www.w3.org/2000/svg" xmlns:xlink="http://www.w3.org/1999/xlink" width="70pt" height="70pt" viewBox="0 0 70 70" version="1.1">
<defs>
<linearGradient id="linear0" gradientUnits="userSpaceOnUse" x1="9" y1="15.83" x2="9" y2="5.79" gradientTransform="matrix(3.888889,0,0,3.888889,0,0)">
<stop offset="0" style="stop-color:rgb(19.607843%,74.509804%,86.666667%);stop-opacity:1;"/>
<stop offset="0.18" style="stop-color:rgb(19.607843%,79.215686%,91.764706%);stop-opacity:1;"/>
<stop offset="0.41" style="stop-color:rgb(19.607843%,82.352941%,94.901961%);stop-opacity:1;"/>
<stop offset="0.78" style="stop-color:rgb(19.607843%,83.137255%,96.078431%);stop-opacity:1;"/>
</linearGradient>
</defs>
<g id="surface1">
<path style=" stroke:none;fill-rule:nonzero;fill:url(#linear0);" d="M 1.945313 22.515625 L 68.054688 22.515625 L 68.054688 59.382813 C 68.054688 60.609375 67.0625 61.601563 65.839844 61.601563 L 4.160156 61.601563 C 2.9375 61.601563 1.945313 60.609375 1.945313 59.382813 Z M 1.945313 22.515625 "/>
<path style=" stroke:none;fill-rule:nonzero;fill:rgb(9.803922%,54.117647%,70.196078%);fill-opacity:1;" d="M 4.160156 8.4375 L 65.839844 8.4375 C 67.0625 8.4375 68.054688 9.429688 68.054688 10.65625 L 68.054688 22.515625 L 1.945313 22.515625 L 1.945313 10.617188 C 1.964844 9.40625 2.953125 8.4375 4.160156 8.4375 Z M 4.160156 8.4375 "/>
<path style=" stroke:none;fill-rule:nonzero;fill:rgb(100%,100%,100%);fill-opacity:1;" d="M 10.929688 26.792969 L 59.035156 26.792969 C 59.597656 26.816406 60.042969 27.28125 60.042969 27.84375 L 60.042969 33.289063 C 60.042969 33.855469 59.597656 34.316406 59.035156 34.339844 L 10.929688 34.339844 C 10.363281 34.316406 9.917969 33.855469 9.917969 33.289063 L 9.917969 27.84375 C 9.917969 27.28125 10.363281 26.816406 10.929688 26.792969 Z M 10.929688 26.792969 "/>
<path style=" stroke:none;fill-rule:nonzero;fill:rgb(61.176471%,92.156863%,100%);fill-opacity:1;" d="M 10.964844 37.644531 L 59.070313 37.644531 C 59.636719 37.664063 60.082031 38.128906 60.082031 38.695313 L 60.082031 44.179688 C 60.082031 44.742188 59.636719 45.207031 59.070313 45.226563 L 10.964844 45.226563 C 10.402344 45.207031 9.957031 44.742188 9.957031 44.179688 L 9.957031 38.890625 C 9.898438 38.585938 9.976563 38.273438 10.171875 38.03125 C 10.367188 37.792969 10.65625 37.652344 10.964844 37.644531 Z M 10.964844 37.644531 "/>
<path style=" stroke:none;fill-rule:nonzero;fill:rgb(31.372549%,90.196078%,100%);fill-opacity:1;" d="M 10.964844 48.609375 L 59.070313 48.609375 C 59.636719 48.632813 60.082031 49.097656 60.082031 49.660156 L 60.082031 55.144531 C 60.082031 55.710938 59.636719 56.171875 59.070313 56.195313 L 10.964844 56.195313 C 10.402344 56.171875 9.957031 55.710938 9.957031 55.144531 L 9.957031 49.660156 C 9.957031 49.097656 10.402344 48.632813 10.964844 48.609375 Z M 10.964844 48.609375 "/>
</g>
</svg>
