<?xml version="1.0" encoding="UTF-8"?>
<svg xmlns="http://www.w3.org/2000/svg" xmlns:xlink="http://www.w3.org/1999/xlink" width="70pt" height="59pt" viewBox="0 0 70 59" version="1.1">
<g id="surface1">
<path style=" stroke:none;fill-rule:nonzero;fill:rgb(0,108,188);fill-opacity:1;" d="M 51.871094 0 L 17.230469 0 L 0 29.859375 L 17.230469 59.714844 L 51.871094 59.714844 L 69.101563 29.859375 Z M 52.050781 43.265625 C 52.050781 45.769531 49.898438 47.914063 47.382813 47.914063 L 21.898438 47.914063 C 19.382813 47.914063 17.230469 45.769531 17.230469 43.265625 L 17.230469 16.628906 C 17.230469 14.125 19.382813 11.980469 21.898438 11.980469 L 40.742188 11.980469 C 42.539063 11.980469 44.332031 11.980469 44.332031 11.980469 L 44.871094 11.980469 L 52.050781 19.128906 Z M 52.050781 43.265625 "/>
<path style=" stroke:none;fill-rule:nonzero;fill:rgb(0,108,188);fill-opacity:1;" d="M 31.949219 34.683594 C 31.949219 34.328125 31.769531 34.148438 31.769531 33.96875 C 31.769531 33.789063 31.589844 33.613281 31.410156 33.433594 C 31.230469 33.253906 31.230469 33.253906 31.050781 33.253906 C 30.871094 33.253906 30.691406 33.253906 30.511719 33.253906 C 30.152344 33.253906 29.972656 33.253906 29.792969 33.433594 C 29.617188 33.613281 29.4375 33.789063 29.257813 34.148438 C 29.078125 34.507813 29.078125 34.863281 29.078125 35.222656 C 29.078125 35.578125 29.078125 36.113281 29.078125 36.832031 C 29.078125 37.546875 29.078125 38.082031 29.078125 38.617188 C 29.078125 39.15625 29.257813 39.511719 29.4375 39.691406 C 29.617188 40.046875 29.792969 40.226563 29.972656 40.226563 C 30.152344 40.40625 30.332031 40.40625 30.691406 40.40625 C 30.871094 40.40625 31.050781 40.40625 31.230469 40.226563 C 31.410156 40.226563 31.589844 40.046875 31.589844 39.871094 C 31.769531 39.691406 31.769531 39.511719 31.949219 39.332031 C 31.949219 39.15625 32.128906 38.976563 32.128906 38.617188 C 32.128906 38.4375 32.128906 38.082031 32.308594 37.722656 C 32.308594 37.367188 32.308594 37.007813 32.308594 36.652344 C 32.308594 36.113281 32.308594 35.757813 32.308594 35.398438 C 31.949219 35.222656 31.949219 35.042969 31.949219 34.683594 Z M 31.949219 34.683594 "/>
<path style=" stroke:none;fill-rule:nonzero;fill:rgb(0,108,188);fill-opacity:1;" d="M 40.027344 20.738281 C 40.027344 20.382813 39.847656 20.203125 39.847656 20.023438 C 39.847656 19.84375 39.667969 19.667969 39.488281 19.488281 C 39.308594 19.308594 39.308594 19.308594 39.128906 19.308594 C 38.949219 19.308594 38.769531 19.308594 38.589844 19.308594 C 38.230469 19.308594 38.050781 19.308594 37.871094 19.488281 C 37.691406 19.667969 37.511719 19.84375 37.332031 20.203125 C 37.152344 20.5625 37.152344 20.917969 37.152344 21.277344 C 37.152344 21.632813 37.152344 22.167969 37.152344 22.886719 C 37.152344 23.601563 37.152344 24.136719 37.152344 24.671875 C 37.152344 25.210938 37.332031 25.566406 37.511719 25.746094 C 37.691406 26.101563 37.871094 26.28125 38.050781 26.28125 C 38.230469 26.460938 38.410156 26.460938 38.769531 26.460938 C 38.949219 26.460938 39.128906 26.460938 39.308594 26.28125 C 39.488281 26.28125 39.667969 26.101563 39.667969 25.925781 C 39.847656 25.746094 39.847656 25.566406 40.027344 25.386719 C 40.027344 25.210938 40.207031 25.03125 40.207031 24.671875 C 40.207031 24.492188 40.207031 24.136719 40.382813 23.777344 C 40.382813 23.421875 40.382813 23.0625 40.382813 22.707031 C 40.382813 22.167969 40.382813 21.8125 40.382813 21.453125 C 40.207031 21.453125 40.207031 21.097656 40.027344 20.738281 Z M 40.027344 20.738281 "/>
<path style=" stroke:none;fill-rule:nonzero;fill:rgb(0,108,188);fill-opacity:1;" d="M 43.617188 14.480469 C 42.898438 14.480469 41.820313 14.480469 40.742188 14.480469 L 21.898438 14.480469 C 20.640625 14.480469 19.742188 15.375 19.742188 16.628906 L 19.742188 43.265625 C 19.742188 44.519531 20.640625 45.414063 21.898438 45.414063 L 47.382813 45.414063 C 48.460938 45.414063 49.539063 44.519531 49.539063 43.265625 L 49.539063 20.382813 L 43.792969 20.382813 L 43.792969 14.480469 Z M 27.640625 19.84375 C 27.640625 19.84375 27.640625 19.667969 27.640625 19.667969 C 27.640625 19.667969 27.640625 19.488281 27.640625 19.488281 C 27.640625 19.488281 27.640625 19.488281 27.820313 19.308594 L 29.972656 17.878906 C 29.972656 17.878906 29.972656 17.878906 30.152344 17.878906 C 30.152344 17.878906 30.332031 17.878906 30.332031 17.878906 C 30.332031 17.878906 30.511719 17.878906 30.511719 17.878906 C 30.691406 17.878906 30.691406 17.878906 30.871094 17.878906 C 31.050781 17.878906 31.230469 17.878906 31.410156 17.878906 C 31.589844 17.878906 31.589844 17.878906 31.769531 17.878906 C 31.769531 17.878906 31.949219 17.878906 31.949219 17.878906 C 31.949219 17.878906 31.949219 17.878906 31.949219 18.058594 L 31.949219 26.460938 L 33.5625 26.460938 C 33.5625 26.460938 33.742188 26.460938 33.742188 26.460938 C 33.742188 26.460938 33.742188 26.460938 33.921875 26.640625 C 34.101563 26.816406 33.921875 26.816406 33.921875 26.816406 C 33.921875 26.996094 33.921875 26.996094 33.921875 27.175781 C 33.921875 27.355469 33.921875 27.535156 33.921875 27.535156 C 33.921875 27.710938 33.921875 27.710938 33.921875 27.710938 C 33.921875 27.710938 33.921875 27.890625 33.742188 27.890625 C 33.742188 27.890625 33.742188 27.890625 33.5625 27.890625 L 28 27.890625 C 28 27.890625 28 27.890625 27.820313 27.890625 C 27.820313 27.890625 27.820313 27.890625 27.640625 27.710938 C 27.640625 27.710938 27.640625 27.535156 27.640625 27.535156 C 27.640625 27.355469 27.640625 27.355469 27.640625 27.175781 C 27.640625 26.996094 27.640625 26.816406 27.640625 26.816406 C 27.640625 26.640625 27.640625 26.640625 27.640625 26.640625 C 27.640625 26.640625 27.640625 26.460938 27.820313 26.460938 C 27.820313 26.460938 27.820313 26.460938 28 26.460938 L 29.972656 26.460938 L 29.972656 19.84375 L 28.359375 20.738281 C 28.179688 20.738281 28.179688 20.917969 28 20.917969 C 28 20.917969 27.820313 20.917969 27.820313 20.917969 C 27.820313 20.917969 27.820313 20.738281 27.640625 20.738281 C 27.640625 20.5625 27.640625 20.5625 27.640625 20.203125 C 27.640625 20.023438 27.640625 19.84375 27.640625 19.84375 Z M 33.921875 38.976563 C 33.742188 39.691406 33.5625 40.226563 33.207031 40.585938 C 32.847656 41.121094 32.488281 41.480469 32.128906 41.65625 C 31.589844 41.835938 31.050781 42.015625 30.332031 42.015625 C 29.617188 42.015625 29.078125 41.835938 28.539063 41.65625 C 28 41.480469 27.640625 41.121094 27.460938 40.585938 C 27.28125 40.046875 26.921875 39.511719 26.921875 38.976563 C 26.742188 38.261719 26.742188 37.546875 26.742188 36.832031 C 26.742188 35.9375 26.742188 35.222656 26.921875 34.683594 C 27.101563 33.96875 27.28125 33.433594 27.640625 33.074219 C 28 32.71875 28.359375 32.183594 28.71875 32.003906 C 29.257813 31.824219 29.792969 31.644531 30.511719 31.644531 C 31.230469 31.644531 31.769531 31.824219 32.308594 32.003906 C 32.847656 32.183594 33.207031 32.539063 33.382813 33.074219 C 33.5625 33.613281 33.921875 34.148438 33.921875 34.683594 C 34.101563 35.398438 34.101563 36.113281 34.101563 36.832031 C 34.101563 37.722656 34.101563 38.4375 33.921875 38.976563 Z M 42 41.480469 C 42 41.65625 42 41.65625 42 41.65625 C 42 41.65625 42 41.835938 41.820313 41.835938 C 41.820313 41.835938 41.820313 41.835938 41.640625 41.835938 L 36.078125 41.835938 C 36.078125 41.835938 36.078125 41.835938 35.898438 41.835938 C 35.898438 41.835938 35.898438 41.835938 35.71875 41.65625 C 35.71875 41.65625 35.71875 41.480469 35.71875 41.480469 C 35.71875 41.300781 35.71875 41.300781 35.71875 41.121094 C 35.71875 40.941406 35.71875 40.761719 35.71875 40.761719 C 35.71875 40.585938 35.71875 40.585938 35.71875 40.585938 C 35.71875 40.585938 35.71875 40.40625 35.898438 40.40625 C 35.898438 40.40625 35.898438 40.40625 36.078125 40.40625 L 38.050781 40.40625 L 38.050781 33.789063 L 36.4375 34.683594 C 36.257813 34.683594 36.257813 34.863281 36.078125 34.863281 C 36.078125 34.863281 35.898438 34.863281 35.898438 34.863281 C 35.898438 34.863281 35.898438 34.683594 35.71875 34.683594 C 35.71875 34.507813 35.71875 34.507813 35.71875 34.148438 C 35.71875 33.96875 35.71875 33.96875 35.71875 33.789063 C 35.71875 33.789063 35.71875 33.613281 35.71875 33.613281 C 35.71875 33.613281 35.71875 33.433594 35.71875 33.433594 C 35.71875 33.433594 35.71875 33.433594 35.898438 33.253906 L 38.050781 31.824219 C 38.050781 31.824219 38.050781 31.824219 38.230469 31.824219 C 38.230469 31.824219 38.410156 31.824219 38.410156 31.824219 C 38.410156 31.824219 38.589844 31.824219 38.589844 31.824219 C 38.769531 31.824219 38.769531 31.824219 38.949219 31.824219 C 39.128906 31.824219 39.308594 31.824219 39.488281 31.824219 C 39.667969 31.824219 39.667969 31.824219 39.847656 31.824219 C 39.847656 31.824219 40.027344 31.824219 40.027344 31.824219 C 40.027344 31.824219 40.027344 31.824219 40.027344 32.003906 L 40.027344 40.40625 L 41.640625 40.40625 C 41.640625 40.40625 41.820313 40.40625 41.820313 40.40625 C 41.820313 40.40625 41.820313 40.40625 42 40.585938 C 42 40.585938 42 40.761719 42 40.761719 C 42 40.941406 42 40.941406 42 41.121094 C 42 41.300781 42 41.480469 42 41.480469 Z M 42.179688 25.03125 C 42 25.746094 41.820313 26.28125 41.460938 26.640625 C 41.101563 27.175781 40.742188 27.535156 40.382813 27.710938 C 39.847656 27.890625 39.308594 28.070313 38.589844 28.070313 C 37.871094 28.070313 37.332031 27.890625 36.792969 27.710938 C 36.257813 27.535156 35.898438 27.175781 35.71875 26.640625 C 35.539063 26.28125 35.179688 25.566406 35.179688 25.03125 C 35.179688 24.492188 35 23.601563 35 22.886719 C 35 21.992188 35 21.277344 35.179688 20.738281 C 35.359375 20.023438 35.539063 19.488281 35.898438 19.128906 C 36.257813 18.59375 36.617188 18.238281 36.972656 18.058594 C 37.511719 17.878906 38.050781 17.699219 38.769531 17.699219 C 39.488281 17.699219 40.027344 17.878906 40.5625 18.058594 C 41.101563 18.238281 41.460938 18.59375 41.640625 19.128906 C 41.820313 19.667969 42.179688 20.203125 42.179688 20.738281 C 42.359375 21.453125 42.359375 22.167969 42.359375 22.886719 C 42.359375 23.777344 42.179688 24.492188 42.179688 25.03125 Z M 42.179688 25.03125 "/>
</g>
</svg>
