<?xml version="1.0" encoding="utf-8"?><svg version="1.1" xmlns="http://www.w3.org/2000/svg" xmlns:xlink="http://www.w3.org/1999/xlink" xmlns:xml="http://www.w3.org/XML/1998/namespace" width="70" height="70" viewBox="0, 0, 18, 18" id="ea317b31-b31a-44fd-a7c4-260774575363"><defs><linearGradient x1="15.35" y1="13.41" x2="15.37" y2="13.41" gradientUnits="userSpaceOnUse" id="a3aecb5c-11f5-4ece-99f7-9672f3236156"><stop offset="0%" stop-color="#006CBC" /><stop offset="14%" stop-color="#007BD6" /><stop offset="37%" stop-color="#008FFA" /><stop offset="59%" stop-color="#159BFF" /><stop offset="80%" stop-color="#25A2FF" /><stop offset="99%" stop-color="#29A4FF" /></linearGradient><linearGradient x1="5.51" y1="802.5" x2="12.94" y2="810.58" gradientUnits="userSpaceOnUse" gradientTransform="translate(0, -1278.76) scale(1, 1.59)" id="b4dfb3ab-25fe-416c-a6fa-f33fcfbf22dc"><stop offset="0%" stop-color="#006CBC" /><stop offset="2%" stop-color="#0075CC" /><stop offset="8%" stop-color="#0087EC" /><stop offset="15%" stop-color="#0996FF" /><stop offset="22%" stop-color="#1B9EFF" /><stop offset="29%" stop-color="#27A3FF" /><stop offset="40%" stop-color="#29A4FF" /><stop offset="55%" stop-color="#27A3FF" /><stop offset="68%" stop-color="#199DFF" /><stop offset="80%" stop-color="#0594FF" /><stop offset="91%" stop-color="#0085E8" /><stop offset="99%" stop-color="#0077D0" /></linearGradient></defs><title>Icon-compute-32</title><ellipse cx="8.96" cy="11.82" rx="7.5" ry="3.08" style="fill:#2FA6FF;" /><ellipse cx="9.15" cy="11.79" rx="2.49" ry="0.68" style="fill:#008AF0;" /><path d="M15.35 13.4 l0 0 Z" style="fill:url(#a3aecb5c-11f5-4ece-99f7-9672f3236156);" /><ellipse cx="8.96" cy="4.99" rx="7.5" ry="3.08" style="fill:url(#b4dfb3ab-25fe-416c-a6fa-f33fcfbf22dc);" /><ellipse cx="9.15" cy="4.95" rx="2.49" ry="0.68" style="fill:#00518E;" /><path d="M9 14.84 c4.15 0 7.5 -1.38 7.5 -3.08 h0 v1.82 h0 c-0.14 1.65 -3.44 3 -7.5 3 s-7.5 -1.38 -7.5 -3.08 V11.76 C1.46 13.46 4.82 14.84 9 14.84 Z" style="fill:#008AF0;" /><path d="M15.35 13.4 l0 0 Z" style="fill:url(#a3aecb5c-11f5-4ece-99f7-9672f3236156);" /><path d="M9 8 c4.15 0 7.5 -1.38 7.5 -3.08 h0 V6.74 h0 c-0.14 1.65 -3.44 3 -7.5 3 s-7.5 -1.38 -7.5 -3.08 V4.92 C1.46 6.62 4.82 8 9 8 Z" style="fill:#006CBC;" /></svg>