<?xml version="1.0" encoding="UTF-8"?>
<svg xmlns="http://www.w3.org/2000/svg" xmlns:xlink="http://www.w3.org/1999/xlink" width="70pt" height="70pt" viewBox="0 0 70 70" version="1.1">
<defs>
<filter id="alpha" filterUnits="objectBoundingBox" x="0%" y="0%" width="100%" height="100%">
  <feColorMatrix type="matrix" in="SourceGraphic" values="0 0 0 0 1 0 0 0 0 1 0 0 0 0 1 0 0 0 1 0"/>
</filter>
<mask id="mask0">
  <g filter="url(#alpha)">
<rect x="0" y="0" width="70" height="70" style="fill:rgb(0,0,0);fill-opacity:0.2;stroke:none;"/>
  </g>
</mask>
<clipPath id="clip1">
  <rect x="0" y="0" width="70" height="70"/>
</clipPath>
<g id="surface5" clip-path="url(#clip1)">
<path style=" stroke:none;fill-rule:nonzero;fill:rgb(255,255,255);fill-opacity:1;" d="M 11.828125 27.945313 C 11.503906 26.914063 11.320313 25.84375 11.320313 24.695313 C 11.320313 18.121094 17.28125 12.804688 24.597656 12.804688 C 28.589844 12.804688 32.167969 14.390625 34.59375 16.871094 C 37.277344 10.378906 44.273438 5.734375 52.511719 5.734375 C 54.632813 5.734375 56.667969 6.054688 58.574219 6.625 C 55.558594 2.710938 50.5 0.140625 44.761719 0.140625 C 37.546875 0.140625 31.417969 4.207031 29.066406 9.894531 C 26.941406 7.722656 23.808594 6.332031 20.3125 6.332031 C 13.902344 6.332031 8.679688 10.992188 8.679688 16.75 C 8.679688 17.757813 8.839844 18.695313 9.125 19.597656 C 3.890625 21.324219 0.140625 25.835938 0.140625 31.121094 C 0.140625 33.441406 0.871094 35.601563 2.121094 37.453125 C 3.449219 33.054688 7.105469 29.503906 11.828125 27.945313 Z M 11.828125 27.945313 "/>
</g>
<mask id="mask1">
  <g filter="url(#alpha)">
<rect x="0" y="0" width="70" height="70" style="fill:rgb(0,0,0);fill-opacity:0.8;stroke:none;"/>
  </g>
</mask>
<clipPath id="clip2">
  <rect x="0" y="0" width="70" height="70"/>
</clipPath>
<g id="surface8" clip-path="url(#clip2)">
<path style=" stroke:none;fill-rule:nonzero;fill:rgb(255,255,255);fill-opacity:1;" d="M 53.199219 21.699219 L 22.398438 21 L 22.398438 17.414063 C 22.398438 16.503906 21.324219 16.023438 20.648438 16.632813 L 11.207031 24.5 L 20.648438 32.367188 C 21.324219 32.972656 22.398438 32.492188 22.398438 31.585938 L 22.398438 28 L 29.398438 28 L 29.398438 65.972656 C 29.398438 67.421875 30.589844 68.601563 32.0625 68.601563 L 53.199219 68.601563 C 54.667969 68.601563 55.859375 67.421875 55.859375 65.972656 L 55.859375 24.328125 C 55.859375 22.878906 54.667969 21.699219 53.199219 21.699219 Z M 29.398438 22.398438 L 29.722656 22.398438 C 29.523438 22.769531 29.398438 23.183594 29.398438 23.628906 Z M 29.398438 22.398438 "/>
</g>
<mask id="mask2">
  <g filter="url(#alpha)">
<rect x="0" y="0" width="70" height="70" style="fill:rgb(0,0,0);fill-opacity:0.901961;stroke:none;"/>
  </g>
</mask>
<clipPath id="clip3">
  <rect x="0" y="0" width="70" height="70"/>
</clipPath>
<g id="surface11" clip-path="url(#clip3)">
<path style=" stroke:none;fill-rule:nonzero;fill:rgb(255,255,255);fill-opacity:1;" d="M 40.601563 44.800781 L 29.328125 44.800781 L 29.328125 39.199219 L 28 39.199219 L 29.398438 37.800781 L 40.601563 37.800781 L 40.601563 34.214844 C 40.601563 33.304688 41.675781 32.824219 42.351563 33.433594 L 51.792969 41.300781 L 42.351563 49.167969 C 41.675781 49.773438 40.601563 49.292969 40.601563 48.386719 Z M 40.601563 44.800781 "/>
</g>
</defs>
<g id="surface1">
<path style=" stroke:none;fill-rule:nonzero;fill:rgb(57,171,255);fill-opacity:1;" d="M 60.6875 19.574219 C 61.207031 18.136719 61.492188 16.605469 61.492188 15.011719 C 61.492188 6.796875 54.003906 0.140625 44.761719 0.140625 C 37.546875 0.140625 31.414063 4.207031 29.066406 9.894531 C 26.941406 7.722656 23.808594 6.332031 20.308594 6.332031 C 13.898438 6.332031 8.675781 10.992188 8.675781 16.75 C 8.675781 17.757813 8.839844 18.695313 9.125 19.597656 C 3.890625 21.324219 0.140625 25.835938 0.140625 31.121094 C 0.140625 37.894531 6.273438 43.398438 13.847656 43.398438 L 56.148438 43.398438 C 63.742188 43.398438 69.859375 37.902344 69.859375 31.121094 C 69.878906 25.773438 66.042969 21.242188 60.6875 19.574219 Z M 60.6875 19.574219 "/>
<use xlink:href="#surface5" mask="url(#mask0)"/>
<use xlink:href="#surface8" mask="url(#mask1)"/>
<path style=" stroke:none;fill-rule:nonzero;fill:rgb(0,140,244);fill-opacity:1;" d="M 56 67.371094 C 56 68.824219 54.808594 70 53.339844 70 L 32.0625 70 C 30.589844 70 29.398438 68.824219 29.398438 67.371094 L 29.398438 25.027344 C 29.398438 23.578125 30.589844 22.398438 32.0625 22.398438 L 53.339844 22.398438 C 54.808594 22.398438 56 23.578125 56 25.027344 Z M 56 67.371094 "/>
<path style=" stroke:none;fill-rule:nonzero;fill:rgb(0,33,58);fill-opacity:1;" d="M 32.269531 62.148438 C 32.269531 60.300781 33.773438 58.800781 35.632813 58.800781 L 49.628906 58.800781 C 51.484375 58.800781 52.988281 60.300781 52.988281 62.148438 C 52.988281 64 51.484375 65.5 49.628906 65.5 L 35.632813 65.5 C 33.773438 65.5 32.269531 64 32.269531 62.148438 Z M 32.269531 62.148438 "/>
<path style=" stroke:none;fill-rule:nonzero;fill:rgb(115,195,255);fill-opacity:1;" d="M 38.203125 62.148438 C 38.203125 63.394531 37.199219 64.398438 35.953125 64.398438 C 34.710938 64.398438 33.703125 63.394531 33.703125 62.148438 C 33.703125 60.90625 34.710938 59.902344 35.953125 59.902344 C 37.199219 59.902344 38.203125 60.90625 38.203125 62.148438 Z M 38.203125 62.148438 "/>
<path style=" stroke:none;fill-rule:nonzero;fill:rgb(0,33,58);fill-opacity:1;" d="M 32.269531 52.351563 C 32.269531 50.5 33.773438 49 35.632813 49 L 49.628906 49 C 51.484375 49 52.988281 50.5 52.988281 52.351563 C 52.988281 54.199219 51.484375 55.699219 49.628906 55.699219 L 35.632813 55.699219 C 33.773438 55.699219 32.269531 54.199219 32.269531 52.351563 Z M 32.269531 52.351563 "/>
<path style=" stroke:none;fill-rule:nonzero;fill:rgb(115,195,255);fill-opacity:1;" d="M 38.203125 52.351563 C 38.203125 53.59375 37.199219 54.601563 35.953125 54.601563 C 34.710938 54.601563 33.703125 53.59375 33.703125 52.351563 C 33.703125 51.109375 34.710938 50.101563 35.953125 50.101563 C 37.199219 50.101563 38.203125 51.109375 38.203125 52.351563 Z M 38.203125 52.351563 "/>
<path style=" stroke:none;fill-rule:nonzero;fill:rgb(0,33,58);fill-opacity:1;" d="M 32.269531 30.101563 C 32.269531 28.25 33.773438 26.75 35.632813 26.75 L 49.628906 26.75 C 51.484375 26.75 52.988281 28.25 52.988281 30.101563 C 52.988281 31.949219 51.484375 33.449219 49.628906 33.449219 L 35.632813 33.449219 C 33.773438 33.453125 32.269531 31.949219 32.269531 30.101563 Z M 32.269531 30.101563 "/>
<path style=" stroke:none;fill-rule:nonzero;fill:rgb(115,195,255);fill-opacity:1;" d="M 38.203125 30.101563 C 38.203125 31.34375 37.199219 32.351563 35.953125 32.351563 C 34.710938 32.351563 33.703125 31.34375 33.703125 30.101563 C 33.703125 28.859375 34.710938 27.851563 35.953125 27.851563 C 37.199219 27.851563 38.203125 28.859375 38.203125 30.101563 Z M 38.203125 30.101563 "/>
<use xlink:href="#surface11" mask="url(#mask2)"/>
<path style=" stroke:none;fill-rule:nonzero;fill:rgb(57,171,255);fill-opacity:1;" d="M 26.53125 43.398438 L 41.929688 43.398438 L 41.929688 47.601563 L 49.628906 41.300781 L 41.929688 35 L 41.929688 39.199219 L 26.53125 39.199219 Z M 26.53125 43.398438 "/>
<path style=" stroke:none;fill-rule:nonzero;fill:rgb(0,140,244);fill-opacity:1;" d="M 36.398438 22.398438 L 21 22.398438 L 21 18.199219 L 13.300781 24.5 L 21 30.800781 L 21 26.601563 L 36.398438 26.601563 Z M 36.398438 22.398438 "/>
</g>
</svg>
