<?xml version="1.0" encoding="UTF-8"?>
<svg xmlns="http://www.w3.org/2000/svg" xmlns:xlink="http://www.w3.org/1999/xlink" width="70pt" height="70pt" viewBox="0 0 70 70" version="1.1">
<defs>
<linearGradient id="linear0" gradientUnits="userSpaceOnUse" x1="9" y1="15.83" x2="9" y2="5.79" gradientTransform="matrix(3.888889,0,0,3.888889,0,0)">
<stop offset="0" style="stop-color:rgb(19.607843%,74.509804%,86.666667%);stop-opacity:1;"/>
<stop offset="0.18" style="stop-color:rgb(19.607843%,79.215686%,91.764706%);stop-opacity:1;"/>
<stop offset="0.41" style="stop-color:rgb(19.607843%,82.352941%,94.901961%);stop-opacity:1;"/>
<stop offset="0.78" style="stop-color:rgb(19.607843%,83.137255%,96.078431%);stop-opacity:1;"/>
</linearGradient>
</defs>
<g id="surface1">
<path style=" stroke:none;fill-rule:nonzero;fill:url(#linear0);" d="M 1.945313 22.515625 L 68.054688 22.515625 L 68.054688 59.382813 C 68.054688 60.609375 67.0625 61.601563 65.839844 61.601563 L 4.160156 61.601563 C 2.9375 61.601563 1.945313 60.609375 1.945313 59.382813 Z M 1.945313 22.515625 "/>
<path style=" stroke:none;fill-rule:nonzero;fill:rgb(9.803922%,54.117647%,70.196078%);fill-opacity:1;" d="M 4.160156 8.4375 L 65.839844 8.4375 C 67.0625 8.4375 68.054688 9.429688 68.054688 10.65625 L 68.054688 22.515625 L 1.945313 22.515625 L 1.945313 10.617188 C 1.964844 9.40625 2.953125 8.4375 4.160156 8.4375 Z M 4.160156 8.4375 "/>
<path style=" stroke:none;fill-rule:nonzero;fill:rgb(100%,100%,100%);fill-opacity:1;" d="M 10.929688 26.792969 L 58.996094 26.792969 C 59.574219 26.792969 60.042969 27.265625 60.042969 27.84375 L 60.042969 33.289063 C 60.042969 33.867188 59.574219 34.339844 58.996094 34.339844 L 10.929688 34.339844 C 10.363281 34.316406 9.917969 33.855469 9.917969 33.289063 L 9.917969 27.84375 C 9.917969 27.28125 10.363281 26.816406 10.929688 26.792969 Z M 10.929688 26.792969 "/>
<path style=" stroke:none;fill-rule:nonzero;fill:rgb(61.176471%,92.156863%,100%);fill-opacity:1;" d="M 10.964844 37.644531 L 59.035156 37.644531 C 59.613281 37.644531 60.082031 38.113281 60.082031 38.695313 L 60.082031 44.179688 C 60.082031 44.757813 59.613281 45.226563 59.035156 45.226563 L 10.964844 45.226563 C 10.691406 45.226563 10.429688 45.117188 10.238281 44.917969 C 10.046875 44.71875 9.945313 44.453125 9.957031 44.179688 L 9.957031 38.890625 C 9.882813 38.582031 9.957031 38.261719 10.15625 38.019531 C 10.351563 37.773438 10.652344 37.636719 10.964844 37.644531 Z M 10.964844 37.644531 "/>
<path style=" stroke:none;fill-rule:nonzero;fill:rgb(61.176471%,92.156863%,100%);fill-opacity:1;" d="M 10.964844 48.609375 L 59.035156 48.609375 C 59.613281 48.609375 60.082031 49.082031 60.082031 49.660156 L 60.082031 55.144531 C 60.082031 55.722656 59.613281 56.195313 59.035156 56.195313 L 10.964844 56.195313 C 10.691406 56.195313 10.429688 56.082031 10.238281 55.882813 C 10.046875 55.6875 9.945313 55.417969 9.957031 55.144531 L 9.957031 49.660156 C 9.945313 49.386719 10.046875 49.117188 10.238281 48.921875 C 10.429688 48.722656 10.691406 48.609375 10.964844 48.609375 Z M 10.964844 48.609375 "/>
<path style=" stroke:none;fill-rule:nonzero;fill:rgb(0%,47.058824%,83.137255%);fill-opacity:1;" d="M 19.871094 30.566406 L 19.871094 52.304688 C 19.871094 52.90625 20.359375 53.394531 20.960938 53.394531 L 30.101563 53.394531 C 30.671875 53.355469 31.113281 52.878906 31.109375 52.304688 L 31.109375 39.394531 C 31.101563 39.101563 31.210938 38.820313 31.417969 38.613281 C 31.625 38.40625 31.90625 38.292969 32.199219 38.304688 L 37.683594 38.304688 C 37.976563 38.292969 38.257813 38.40625 38.464844 38.613281 C 38.671875 38.820313 38.785156 39.101563 38.773438 39.394531 L 38.773438 52.304688 C 38.773438 52.601563 38.890625 52.882813 39.105469 53.089844 C 39.316406 53.296875 39.605469 53.40625 39.898438 53.394531 L 49.039063 53.394531 C 49.640625 53.394531 50.128906 52.90625 50.128906 52.304688 L 50.128906 30.566406 C 50.128906 29.964844 49.640625 29.476563 49.039063 29.476563 L 20.960938 29.476563 C 20.359375 29.476563 19.871094 29.964844 19.871094 30.566406 Z M 19.871094 30.566406 "/>
</g>
</svg>
