<?xml version="1.0" encoding="utf-8"?><svg version="1.1" xmlns="http://www.w3.org/2000/svg" xmlns:xlink="http://www.w3.org/1999/xlink" xmlns:xml="http://www.w3.org/XML/1998/namespace" xmlns:dc="http://purl.org/dc/elements/1.1/" xmlns:cc="http://creativecommons.org/ns#" xmlns:rdf="http://www.w3.org/1999/02/22-rdf-syntax-ns#" xmlns:sodipodi="http://sodipodi.sourceforge.net/DTD/sodipodi-0.dtd" xmlns:inkscape="http://www.inkscape.org/namespaces/inkscape" x="0" y="0" width="70" height="70" viewBox="0, 0, 38.5, 33.4" id="svg70" xml:space="preserve" sodipodi:docname="Azure Storage - Blob.svg" inkscape:version="0.92.2 (5c3e80d, 2017-08-06)" style="enable-background:new 0 0 152 117.5;">
  <metadata id="metadata76" />
  <defs id="defs74" />
  <sodipodi:namedview id="namedview72" pagecolor="#ffffff" bordercolor="#666666" borderopacity="1" objecttolerance="10" gridtolerance="10" guidetolerance="10" inkscape:pageopacity="0" inkscape:pageshadow="2" inkscape:window-width="640" inkscape:window-height="480" showgrid="false" inkscape:zoom="1.8684211" inkscape:cx="19.2" inkscape:cy="14.35" inkscape:window-x="0" inkscape:window-y="0" inkscape:window-maximized="0" inkscape:current-layer="svg70" />
  <g transform="translate(-56.8, -39.7)" id="Layer_1">
    <g id="Azure" />
    <g transform="translate(37.3575, -2500.2)" id="BizTalk_Services" />
    <g id="Key_Vault" />
    <g id="Mobile_Engagement" />
    <g id="Office_subscription">
      <g id="Office_subscription_1_" />
    </g>
  </g>
  <g transform="translate(-56.8, -39.7)" id="paths">
    <g id="Access_control" />
    <g id="Azure_active_directory" />
    <g id="API_Management" />
    <g id="Azure_automation" />
    <g id="Azure_SQL_database" />
    <g id="Azure_subscription" />
    <g id="Backup_service" />
    <g id="Bitbucket_code_source" />
    <g id="Azure_cache" />
    <g id="Content_delivery_network__x28_CDN_x29_" />
    <g id="Cloud_service" />
    <g id="CodePlex" />
    <g id="Dropbox_code_source" />
    <g id="Express_route" />
    <g id="Git_repository" />
    <g id="GitHub_code" />
    <g id="HD_Insight" />
    <g id="Health_monitoring" />
    <g id="Healthy" />
    <g id="BizTalk_hybrid_connection" />
    <g id="Hybrid_connection_manager_for_BizTalk_hybrid_connection" />
    <g id="Hyper-V_recovery_manager" />
    <g id="Machine_learning" />
    <g id="Media_services" />
    <g id="Microsoft_account" />
    <g id="Mobile_services" />
    <g id="Multi-factor_authentication" />
    <g id="MySQL_database" />
    <g id="Notification_hub" />
    <g id="Notification_topic" />
    <g id="Cloud_Office_365" />
    <g id="Office_365" />
    <g id="OS_image" />
    <g id="Remote_app" />
    <g id="Task_scheduler" />
    <g id="Azure_SDK" />
    <g id="Service_bus" />
    <g id="Service_bus_queue" />
    <g id="Service_bus_relay" />
    <g id="Service_bus_topic" />
    <g id="Service_endpoint" />
    <g id="Custom_create" />
    <g id="SQL_data_sync" />
    <g id="SQL_reporting" />
    <g id="Startup_task" />
    <g id="Windows_Azure_storage" />
    <g id="Storage_blob">
      <g id="g63">
        <path d="M85.7 39.7 H66.4 l-9.6 16.7 l9.6 16.7 h19.3 l9.6 -16.7 z m0.1 24.2 c0 1.4 -1.2 2.6 -2.6 2.6 H69 c-1.4 0 -2.6 -1.2 -2.6 -2.6 V49 c0 -1.4 1.2 -2.6 2.6 -2.6 h10.5 c1 0 2 0 2 0 h0.3 l4 4 v2.1 z" id="path55" inkscape:connector-curvature="0" style="fill:highlight;" />
        <path d="m74.6 59.1 c0 -0.2 -0.1 -0.3 -0.1 -0.4 c0 -0.1 -0.1 -0.2 -0.2 -0.3 c-0.1 -0.1 -0.1 -0.1 -0.2 -0.1 c-0.1 0 -0.2 0 -0.3 0 c-0.2 0 -0.3 0 -0.4 0.1 c-0.1 0.1 -0.2 0.2 -0.3 0.4 C73 59 73 59.2 73 59.4 c0 0.2 0 0.5 0 0.9 c0 0.4 0 0.7 0 1 c0 0.3 0.1 0.5 0.2 0.6 c0.1 0.2 0.2 0.3 0.3 0.3 c0.1 0.1 0.2 0.1 0.4 0.1 c0.1 0 0.2 0 0.3 -0.1 c0.1 0 0.2 -0.1 0.2 -0.2 c0.1 -0.1 0.1 -0.2 0.2 -0.3 c0 -0.1 0.1 -0.2 0.1 -0.4 c0 -0.1 0 -0.3 0.1 -0.5 c0 -0.2 0 -0.4 0 -0.6 c0 -0.3 0 -0.5 0 -0.7 c-0.2 -0.1 -0.2 -0.2 -0.2 -0.4 z" id="path57" inkscape:connector-curvature="0" style="fill:highlight;" />
        <path d="M79.1 51.3 C79.1 51.1 79 51 79 50.9 c0 -0.1 -0.1 -0.2 -0.2 -0.3 c-0.1 -0.1 -0.1 -0.1 -0.2 -0.1 c-0.1 0 -0.2 0 -0.3 0 c-0.2 0 -0.3 0 -0.4 0.1 c-0.1 0.1 -0.2 0.2 -0.3 0.4 c-0.1 0.2 -0.1 0.4 -0.1 0.6 c0 0.2 0 0.5 0 0.9 c0 0.4 0 0.7 0 1 c0 0.3 0.1 0.5 0.2 0.6 c0.1 0.2 0.2 0.3 0.3 0.3 c0.1 0.1 0.2 0.1 0.4 0.1 c0.1 0 0.2 0 0.3 -0.1 c0.1 0 0.2 -0.1 0.2 -0.2 c0.1 -0.1 0.1 -0.2 0.2 -0.3 c0 -0.1 0.1 -0.2 0.1 -0.4 c0 -0.1 0 -0.3 0.1 -0.5 c0 -0.2 0 -0.4 0 -0.6 c0 -0.3 0 -0.5 0 -0.7 c-0.1 0 -0.1 -0.2 -0.2 -0.4 z" id="path59" inkscape:connector-curvature="0" style="fill:highlight;" />
        <path d="m81.1 47.8 c-0.4 0 -1 0 -1.6 0 H69 c-0.7 0 -1.2 0.5 -1.2 1.2 v14.9 c0 0.7 0.5 1.2 1.2 1.2 h14.2 c0.6 0 1.2 -0.5 1.2 -1.2 V51.1 h-3.2 v-3.3 z m-8.9 3 c0 0 0 -0.1 0 -0.1 c0 0 0 -0.1 0 -0.1 c0 0 0 0 0.1 -0.1 l1.2 -0.8 c0 0 0 0 0.1 0 c0 0 0.1 0 0.1 0 c0 0 0.1 0 0.1 0 c0.1 0 0.1 0 0.2 0 c0.1 0 0.2 0 0.3 0 c0.1 0 0.1 0 0.2 0 c0 0 0.1 0 0.1 0 c0 0 0 0 0 0.1 v4.7 h0.9 c0 0 0.1 0 0.1 0 c0 0 0 0 0.1 0.1 c0.1 0.1 0 0.1 0 0.1 c0 0.1 0 0.1 0 0.2 c0 0.1 0 0.2 0 0.2 c0 0.1 0 0.1 0 0.1 c0 0 0 0.1 -0.1 0.1 c0 0 0 0 -0.1 0 h-3.1 c0 0 0 0 -0.1 0 c0 0 0 0 -0.1 -0.1 c0 0 0 -0.1 0 -0.1 c0 -0.1 0 -0.1 0 -0.2 c0 -0.1 0 -0.2 0 -0.2 c0 -0.1 0 -0.1 0 -0.1 c0 0 0 -0.1 0.1 -0.1 c0 0 0 0 0.1 0 h1.1 v-3.7 l-0.9 0.5 c-0.1 0 -0.1 0.1 -0.2 0.1 c0 0 -0.1 0 -0.1 0 c0 0 0 -0.1 -0.1 -0.1 c0 -0.1 0 -0.1 0 -0.3 c0 -0.1 0 -0.2 0 -0.2 z m3.5 10.7 c-0.1 0.4 -0.2 0.7 -0.4 0.9 c-0.2 0.3 -0.4 0.5 -0.6 0.6 c-0.3 0.1 -0.6 0.2 -1 0.2 c-0.4 0 -0.7 -0.1 -1 -0.2 c-0.3 -0.1 -0.5 -0.3 -0.6 -0.6 c-0.1 -0.3 -0.3 -0.6 -0.3 -0.9 c-0.1 -0.4 -0.1 -0.8 -0.1 -1.2 c0 -0.5 0 -0.9 0.1 -1.2 c0.1 -0.4 0.2 -0.7 0.4 -0.9 c0.2 -0.2 0.4 -0.5 0.6 -0.6 c0.3 -0.1 0.6 -0.2 1 -0.2 c0.4 0 0.7 0.1 1 0.2 c0.3 0.1 0.5 0.3 0.6 0.6 c0.1 0.3 0.3 0.6 0.3 0.9 c0.1 0.4 0.1 0.8 0.1 1.2 c0 0.5 0 0.9 -0.1 1.2 z m4.5 1.4 c0 0.1 0 0.1 0 0.1 c0 0 0 0.1 -0.1 0.1 c0 0 0 0 -0.1 0 h-3.1 c0 0 0 0 -0.1 0 c0 0 0 0 -0.1 -0.1 c0 0 0 -0.1 0 -0.1 c0 -0.1 0 -0.1 0 -0.2 c0 -0.1 0 -0.2 0 -0.2 c0 -0.1 0 -0.1 0 -0.1 c0 0 0 -0.1 0.1 -0.1 c0 0 0 0 0.1 0 H78 v-3.7 l-0.9 0.5 c-0.1 0 -0.1 0.1 -0.2 0.1 c0 0 -0.1 0 -0.1 0 c0 0 0 -0.1 -0.1 -0.1 c0 -0.1 0 -0.1 0 -0.3 c0 -0.1 0 -0.1 0 -0.2 c0 0 0 -0.1 0 -0.1 c0 0 0 -0.1 0 -0.1 c0 0 0 0 0.1 -0.1 L78 57.5 c0 0 0 0 0.1 0 c0 0 0.1 0 0.1 0 c0 0 0.1 0 0.1 0 c0.1 0 0.1 0 0.2 0 c0.1 0 0.2 0 0.3 0 c0.1 0 0.1 0 0.2 0 c0 0 0.1 0 0.1 0 c0 0 0 0 0 0.1 v4.7 H80 c0 0 0.1 0 0.1 0 c0 0 0 0 0.1 0.1 c0 0 0 0.1 0 0.1 c0 0.1 0 0.1 0 0.2 c0 0.1 0 0.2 0 0.2 z m0.1 -9.2 c-0.1 0.4 -0.2 0.7 -0.4 0.9 c-0.2 0.3 -0.4 0.5 -0.6 0.6 c-0.3 0.1 -0.6 0.2 -1 0.2 c-0.4 0 -0.7 -0.1 -1 -0.2 c-0.3 -0.1 -0.5 -0.3 -0.6 -0.6 c-0.1 -0.2 -0.3 -0.6 -0.3 -0.9 c0 -0.3 -0.1 -0.8 -0.1 -1.2 c0 -0.5 0 -0.9 0.1 -1.2 c0.1 -0.4 0.2 -0.7 0.4 -0.9 c0.2 -0.3 0.4 -0.5 0.6 -0.6 c0.3 -0.1 0.6 -0.2 1 -0.2 c0.4 0 0.7 0.1 1 0.2 c0.3 0.1 0.5 0.3 0.6 0.6 c0.1 0.3 0.3 0.6 0.3 0.9 c0.1 0.4 0.1 0.8 0.1 1.2 c0 0.5 -0.1 0.9 -0.1 1.2 z" id="path61" inkscape:connector-curvature="0" style="fill:highlight;" />
      </g>
    </g>
  </g>
  <g transform="translate(-56.8, -39.7)" id="Layer_57" />
  <g transform="translate(-56.8, -39.7)" id="Ibiza_Symbols">
    <g id="SQL_Database_Premium" />
  </g>
</svg>