<?xml version="1.0" encoding="utf-8"?><svg version="1.1" xmlns="http://www.w3.org/2000/svg" xmlns:xlink="http://www.w3.org/1999/xlink" xmlns:xml="http://www.w3.org/XML/1998/namespace" xmlns:dc="http://purl.org/dc/elements/1.1/" xmlns:cc="http://creativecommons.org/ns#" xmlns:rdf="http://www.w3.org/1999/02/22-rdf-syntax-ns#" xmlns:sodipodi="http://sodipodi.sourceforge.net/DTD/sodipodi-0.dtd" xmlns:inkscape="http://www.inkscape.org/namespaces/inkscape" width="70" height="70" viewBox="0, 0, 70, 70" id="svg23" aria-hidden="true" role="presentation" sodipodi:docname="managed-disks_COLOR.svg" inkscape:version="0.92.2 (5c3e80d, 2017-08-06)"><metadata id="metadata29" /><defs id="defs27" /><sodipodi:namedview id="namedview25" pagecolor="#ffffff" bordercolor="#0075CC" borderopacity="1" objecttolerance="10" gridtolerance="10" guidetolerance="10" inkscape:pageopacity="0" inkscape:pageshadow="2" inkscape:window-width="640" inkscape:window-height="480" showgrid="false" inkscape:zoom="2.36" inkscape:cx="50" inkscape:cy="75.685" inkscape:window-x="0" inkscape:window-y="0" inkscape:window-maximized="0" inkscape:current-layer="svg23" /><svg width="100%" height="100%" id="svg-managed-disks"><path d="m147.846 98.912 c0 14.788 -33.1 26.773 -73.925 26.773 C33.096 125.685 0 113.7 0 98.912 v-14.43 h147.846 z" id="path2" inkscape:connector-curvature="0" style="fill:#0066B2;" /><path d="m147.846 84.482 c0 14.788 -33.1 26.773 -73.925 26.773 C33.096 111.255 0 99.267 0 84.482 C0 69.697 33.1 57.709 73.925 57.709 c40.825 0 73.925 11.985 73.925 26.773" id="path4" inkscape:connector-curvature="0" style="fill:#39ABFF;" /><path d="m97.615 82.941 c0 3.933 -10.61 7.118 -23.7 7.118 c-13.09 0 -23.7 -3.185 -23.7 -7.118 c0 -3.933 10.613 -7.118 23.7 -7.118 c13.087 0 23.7 3.185 23.7 7.118" id="path6" inkscape:connector-curvature="0" style="fill:#0066B2;" /><path d="M127.357 65.992 C117 62.068 103.393 59.282 88.091 58.206 L78.5 75.96 a54.679 54.679 0 0 1 12.2 1.958 z" id="path8" opacity="0.25" inkscape:connector-curvature="0" style="isolation:isolate;fill:white;" /><path d="m17.447 101.751 c10.648 4.563 25.424 7.815 42.25 9 L70.913 90 A60.208 60.208 0 0 1 58.588 88.368 Z" id="path10" opacity="0.25" inkscape:connector-curvature="0" style="isolation:isolate;fill:white;" /><path d="m147.846 41.2 c0 14.788 -33.1 26.773 -73.925 26.773 C33.096 67.973 0 55.991 0 41.2 V26.773 h147.846 z" id="path12" inkscape:connector-curvature="0" style="fill:#004980;" /><path d="m147.846 26.773 c0 14.788 -33.1 26.773 -73.925 26.773 C33.096 53.546 0 41.561 0 26.773 C0 11.985 33.093 0 73.921 0 c40.828 0 73.925 11.988 73.925 26.773" id="path14" inkscape:connector-curvature="0" style="fill:#007DDA;" /><path d="m97.615 25.232 c0 3.933 -10.61 7.118 -23.7 7.118 c-13.09 0 -23.7 -3.185 -23.7 -7.118 c0 -3.933 10.613 -7.118 23.7 -7.118 c13.087 0 23.7 3.188 23.7 7.118" id="path16" inkscape:connector-curvature="0" style="fill:#004980;" /><path d="M127.357 8.43 C117 4.506 103.393 1.721 88.091 0.645 L78.5 18.4 a54.679 54.679 0 0 1 12.2 1.958 z" id="path18" opacity="0.25" inkscape:connector-curvature="0" style="isolation:isolate;fill:white;" /><path d="m17.447 44.19 c10.648 4.563 25.424 7.815 42.25 9 L70.913 32.436 A60.208 60.208 0 0 1 58.588 30.8 Z" id="path20" opacity="0.25" inkscape:connector-curvature="0" style="isolation:isolate;fill:white;" /></svg></svg>