<?xml version="1.0" encoding="UTF-8"?>
<svg xmlns="http://www.w3.org/2000/svg" xmlns:xlink="http://www.w3.org/1999/xlink" width="70pt" height="45pt" viewBox="0 0 70 45" version="1.1">
<g id="surface1">
<path style=" stroke:none;fill-rule:nonzero;fill:rgb(0,111,194);fill-opacity:1;" d="M 51.992188 10.863281 C 48.578125 4.867188 42.046875 1.152344 34.800781 1.152344 C 30.003906 1.152344 25.585938 2.800781 22.207031 5.617188 C 26.539063 6.300781 30.550781 8.316406 33.71875 11.496094 C 37.664063 15.445313 39.847656 20.691406 39.847656 26.257813 L 39.847656 43.832031 L 50.960938 43.832031 C 60.503906 43.832031 68.285156 36.367188 68.285156 27.207031 C 68.285156 18.425781 61.039063 11.230469 51.992188 10.863281 Z M 51.992188 10.863281 "/>
<path style=" stroke:none;fill-rule:nonzero;fill:rgb(35,161,255);fill-opacity:1;" d="M 20.089844 8.730469 C 9.777344 8.265625 1.265625 16.792969 1.734375 27.089844 C 2.164063 36.5 10.0625 43.847656 19.492188 43.847656 L 36.867188 43.847656 L 36.867188 26.472656 C 36.847656 17.042969 29.503906 9.148438 20.089844 8.730469 Z M 20.089844 8.730469 "/>
<path style=" stroke:none;fill-rule:nonzero;fill:rgb(255,255,255);fill-opacity:1;" d="M 33.050781 27.789063 L 33.050781 25.65625 C 33.050781 25.390625 32.882813 25.15625 32.617188 25.074219 L 29.652344 24.109375 C 29.484375 24.058594 29.335938 23.925781 29.269531 23.757813 L 28.621094 22.191406 C 28.554688 22.023438 28.554688 21.84375 28.636719 21.691406 L 29.984375 18.828125 C 30.101563 18.59375 30.050781 18.308594 29.867188 18.128906 L 28.351563 16.609375 C 28.167969 16.429688 27.871094 16.378906 27.636719 16.496094 L 24.855469 17.910156 C 24.6875 17.992188 24.503906 17.992188 24.339844 17.925781 L 22.773438 17.277344 C 22.605469 17.210938 22.488281 17.078125 22.421875 16.910156 L 21.355469 13.929688 C 21.273438 13.679688 21.039063 13.511719 20.773438 13.511719 L 18.65625 13.511719 C 18.390625 13.511719 18.15625 13.679688 18.074219 13.945313 L 17.109375 16.910156 C 17.058594 17.078125 16.925781 17.226563 16.757813 17.292969 L 15.191406 17.945313 C 15.027344 18.011719 14.84375 18.011719 14.691406 17.925781 L 11.828125 16.578125 C 11.59375 16.460938 11.3125 16.511719 11.128906 16.695313 L 9.613281 18.210938 C 9.429688 18.394531 9.378906 18.695313 9.496094 18.925781 L 10.910156 21.707031 C 10.996094 21.875 10.996094 22.058594 10.929688 22.226563 L 10.277344 23.792969 C 10.210938 23.957031 10.078125 24.074219 9.910156 24.140625 L 6.929688 25.207031 C 6.679688 25.289063 6.511719 25.523438 6.511719 25.789063 L 6.511719 27.921875 C 6.511719 28.1875 6.679688 28.421875 6.929688 28.503906 L 9.894531 29.472656 C 10.0625 29.523438 10.210938 29.65625 10.277344 29.820313 L 10.929688 31.386719 C 10.996094 31.554688 10.996094 31.738281 10.910156 31.886719 L 9.5625 34.753906 C 9.445313 34.984375 9.496094 35.269531 9.679688 35.453125 L 11.195313 36.96875 C 11.378906 37.152344 11.679688 37.203125 11.910156 37.085938 L 14.691406 35.667969 C 14.859375 35.585938 15.042969 35.585938 15.210938 35.652344 L 16.773438 36.300781 C 16.941406 36.367188 17.058594 36.5 17.125 36.667969 L 18.191406 39.648438 C 18.273438 39.898438 18.507813 40.066406 18.773438 40.066406 L 20.90625 40.066406 C 21.171875 40.066406 21.40625 39.898438 21.488281 39.632813 L 22.457031 36.667969 C 22.507813 36.5 22.640625 36.351563 22.804688 36.285156 L 24.371094 35.636719 C 24.539063 35.570313 24.722656 35.570313 24.871094 35.652344 L 27.738281 37 C 27.96875 37.117188 28.253906 37.066406 28.4375 36.886719 L 29.953125 35.367188 C 30.136719 35.1875 30.1875 34.886719 30.070313 34.652344 L 28.652344 31.871094 C 28.570313 31.703125 28.570313 31.519531 28.636719 31.355469 L 29.285156 29.789063 C 29.351563 29.621094 29.484375 29.503906 29.652344 29.4375 L 32.632813 28.371094 C 32.882813 28.273438 33.050781 28.039063 33.050781 27.789063 Z M 20.40625 33.253906 C 18.675781 33.417969 16.976563 32.902344 15.640625 31.789063 C 14.292969 30.6875 13.460938 29.121094 13.292969 27.390625 C 13.128906 25.65625 13.644531 23.957031 14.757813 22.625 C 15.859375 21.277344 17.425781 20.441406 19.15625 20.277344 C 21.554688 20.027344 23.804688 21.160156 25.121094 23.007813 C 25.753906 23.90625 26.136719 24.972656 26.269531 26.140625 C 26.621094 29.722656 24.003906 32.921875 20.40625 33.253906 Z M 20.40625 33.253906 "/>
</g>
</svg>
