<?xml version="1.0" encoding="UTF-8"?>
<svg xmlns="http://www.w3.org/2000/svg" xmlns:xlink="http://www.w3.org/1999/xlink" width="70pt" height="70pt" viewBox="0 0 70 70" version="1.1">
<defs>
<linearGradient id="linear0" gradientUnits="userSpaceOnUse" x1="2.55" y1="10.17" x2="15.3" y2="10.17" gradientTransform="matrix(3.888876,0.0101811,-0.0101811,3.888876,0.388889,-0.116667)">
<stop offset="0" style="stop-color:rgb(0%,35.686275%,63.137255%);stop-opacity:1;"/>
<stop offset="0.07" style="stop-color:rgb(0%,37.647059%,66.27451%);stop-opacity:1;"/>
<stop offset="0.36" style="stop-color:rgb(0%,44.313725%,78.431373%);stop-opacity:1;"/>
<stop offset="0.52" style="stop-color:rgb(0%,47.058824%,83.137255%);stop-opacity:1;"/>
<stop offset="0.64" style="stop-color:rgb(0%,45.490196%,80.392157%);stop-opacity:1;"/>
<stop offset="0.82" style="stop-color:rgb(0%,41.568627%,73.333333%);stop-opacity:1;"/>
<stop offset="1" style="stop-color:rgb(0%,35.686275%,63.137255%);stop-opacity:1;"/>
</linearGradient>
</defs>
<g id="surface1">
<path style=" stroke:none;fill-rule:nonzero;fill:url(#linear0);" d="M 35 19.988281 C 21.3125 19.988281 10.226563 16.101563 10.226563 10.929688 L 10.226563 58.957031 C 10.226563 63.894531 21.117188 67.9375 34.648438 68.054688 L 35 68.054688 C 48.6875 68.054688 59.8125 64.167969 59.8125 59.070313 L 59.8125 11.042969 C 59.851563 16.023438 48.726563 20.027344 35 19.988281 Z M 35 19.988281 "/>
<path style=" stroke:none;fill-rule:nonzero;fill:rgb(94.901961%,94.901961%,94.901961%);fill-opacity:1;" d="M 59.851563 11.042969 C 59.851563 16.023438 48.726563 20.027344 35.039063 19.988281 C 21.351563 19.949219 10.265625 16.101563 10.265625 10.929688 C 10.265625 5.753906 21.390625 1.90625 35 1.945313 C 48.609375 1.984375 59.773438 6.066406 59.773438 11.042969 "/>
<path style=" stroke:none;fill-rule:nonzero;fill:rgb(31.372549%,90.196078%,100%);fill-opacity:1;" d="M 54.054688 10.304688 C 54.054688 13.457031 45.539063 16.023438 35.039063 15.984375 C 24.539063 15.945313 16.0625 13.378906 16.0625 10.1875 C 16.0625 7 24.578125 4.472656 35 4.511719 C 45.421875 4.550781 54.015625 7.117188 53.976563 10.304688 "/>
<path style=" stroke:none;fill-rule:nonzero;fill:rgb(9.803922%,54.117647%,70.196078%);fill-opacity:1;" d="M 35 11.667969 C 29.882813 11.550781 24.785156 12.285156 19.910156 13.84375 C 24.78125 15.421875 29.882813 16.148438 35 15.984375 C 40.121094 16.117188 45.222656 15.367188 50.089844 13.765625 C 45.207031 12.25 40.109375 11.542969 35 11.667969 Z M 35 11.667969 "/>
<path style=" stroke:none;fill-rule:nonzero;fill:rgb(100%,100%,100%);fill-opacity:1;" d="M 48.496094 39.589844 L 45.304688 38.578125 C 45.109375 38.578125 44.996094 38.578125 44.917969 38.226563 L 44.253906 36.59375 C 44.21875 36.402344 44.21875 36.203125 44.253906 36.011719 C 44.722656 35 45.1875 33.988281 45.734375 33.015625 C 45.820313 32.9375 45.867188 32.824219 45.867188 32.707031 C 45.867188 32.585938 45.820313 32.476563 45.734375 32.394531 C 45.1875 31.851563 44.644531 31.382813 44.140625 30.800781 C 44.046875 30.652344 43.886719 30.5625 43.710938 30.5625 C 43.539063 30.5625 43.375 30.652344 43.285156 30.800781 L 40.5625 32.160156 C 40.367188 32.160156 40.25 32.160156 40.054688 32.160156 L 38.460938 31.5 C 38.183594 31.550781 37.914063 31.382813 37.839844 31.109375 C 37.449219 30.0625 37.0625 29.011719 36.75 27.960938 C 36.714844 27.769531 36.554688 27.625 36.359375 27.609375 L 33.753906 27.609375 C 33.484375 27.609375 33.445313 27.609375 33.289063 27.921875 C 32.976563 29.011719 32.628906 30.0625 32.238281 31.109375 C 32.238281 31.109375 32.238281 31.460938 31.890625 31.5 L 30.253906 32.160156 C 30.054688 32.238281 29.832031 32.238281 29.632813 32.160156 L 26.523438 30.644531 C 26.378906 30.550781 26.199219 30.550781 26.054688 30.644531 C 25.472656 31.265625 24.890625 31.929688 24.226563 32.511719 C 24.160156 32.570313 24.121094 32.65625 24.121094 32.746094 C 24.121094 32.832031 24.160156 32.917969 24.226563 32.976563 C 24.734375 33.949219 25.199219 34.960938 25.746094 35.933594 C 25.839844 36.128906 25.839844 36.359375 25.746094 36.554688 L 25.042969 38.070313 C 25.011719 38.316406 24.820313 38.507813 24.578125 38.539063 C 23.527344 38.929688 22.476563 39.316406 21.429688 39.628906 C 21.15625 39.628906 21.078125 39.820313 21.078125 40.054688 L 21.078125 42.777344 C 21.078125 43.050781 21.078125 43.167969 21.390625 43.246094 C 22.476563 43.554688 23.527344 43.984375 24.578125 44.292969 C 24.785156 44.339844 24.9375 44.511719 24.964844 44.722656 C 24.964844 45.226563 25.433594 45.773438 25.628906 46.316406 C 25.707031 46.503906 25.707031 46.714844 25.628906 46.898438 C 25.082031 47.949219 24.617188 49 24.109375 50.050781 C 24.015625 50.175781 24.015625 50.351563 24.109375 50.476563 L 26.054688 52.382813 C 26.054688 52.382813 26.054688 52.578125 26.367188 52.382813 L 28.234375 51.410156 L 29.59375 50.554688 C 29.59375 50.554688 29.945313 50.554688 30.140625 50.554688 L 31.773438 51.214844 C 31.964844 51.214844 32.042969 51.410156 32.121094 51.605469 C 32.511719 52.65625 32.898438 53.785156 33.210938 54.832031 C 33.261719 55.03125 33.433594 55.171875 33.640625 55.183594 L 36.207031 55.183594 C 36.476563 55.183594 36.554688 55.183594 36.671875 54.871094 C 37.023438 53.820313 37.410156 52.734375 37.722656 51.683594 C 37.769531 51.503906 37.902344 51.363281 38.070313 51.292969 L 39.746094 50.632813 C 39.902344 50.554688 40.089844 50.554688 40.25 50.632813 L 43.359375 52.148438 C 43.5 52.253906 43.691406 52.253906 43.828125 52.148438 C 44.410156 51.527344 45.035156 50.867188 45.695313 50.285156 C 46.355469 49.699219 45.890625 50.011719 45.695313 49.738281 C 45.136719 48.753906 44.628906 47.742188 44.179688 46.707031 C 44.023438 46.542969 44.023438 46.285156 44.179688 46.121094 C 44.410156 45.578125 44.644531 45.070313 44.839844 44.527344 C 44.878906 44.332031 45.03125 44.179688 45.226563 44.140625 C 46.277344 43.75 47.367188 43.320313 48.417969 43.011719 C 48.6875 43.011719 48.726563 42.816406 48.726563 42.542969 C 48.726563 41.609375 48.726563 40.832031 48.726563 40.015625 C 48.726563 39.199219 48.765625 39.707031 48.496094 39.589844 Z M 39.316406 45.5 L 39.003906 45.773438 C 36.945313 47.503906 33.996094 47.691406 31.734375 46.238281 L 31.34375 45.964844 C 30.0625 45.027344 29.1875 43.636719 28.894531 42.078125 C 28.503906 40.0625 29.183594 37.992188 30.683594 36.59375 C 30.878906 36.398438 30.878906 36.320313 30.683594 36.128906 L 30.179688 35.542969 L 33.210938 35.542969 C 33.210938 35.542969 33.40625 35.542969 33.40625 35.542969 L 33.40625 38.539063 L 32.550781 37.722656 C 32.550781 37.722656 32.550781 37.527344 32.160156 37.722656 C 30.371094 39.296875 30.179688 42.019531 31.734375 43.828125 C 31.925781 44.050781 32.148438 44.25 32.394531 44.410156 L 32.859375 44.644531 C 33.503906 45.078125 34.261719 45.308594 35.039063 45.304688 C 36.574219 45.375 38.003906 44.539063 38.695313 43.167969 C 39.605469 41.503906 39.304688 39.441406 37.957031 38.109375 C 37.957031 38.109375 37.566406 37.839844 37.527344 37.566406 C 37.488281 37.292969 37.527344 37.566406 37.527344 37.292969 C 37.78125 37.066406 38.015625 36.820313 38.226563 36.554688 C 38.773438 36.128906 38.773438 36.128906 39.160156 36.554688 C 41.667969 38.984375 41.734375 42.984375 39.316406 45.5 Z M 39.316406 45.5 "/>
</g>
</svg>
