<?xml version="1.0" encoding="UTF-8"?>
<svg xmlns="http://www.w3.org/2000/svg" xmlns:xlink="http://www.w3.org/1999/xlink" width="70pt" height="70pt" viewBox="0 0 70 70" version="1.1">
<defs>
<linearGradient id="linear0" gradientUnits="userSpaceOnUse" x1="9" y1="15.799" x2="9" y2="5.316" gradientTransform="matrix(3.888889,0,0,3.888889,0,0)">
<stop offset="0" style="stop-color:rgb(47,166,255);stop-opacity:1;"/>
<stop offset="0.775" style="stop-color:rgb(79,180,255);stop-opacity:1;"/>
</linearGradient>
<filter id="alpha" filterUnits="objectBoundingBox" x="0%" y="0%" width="100%" height="100%">
  <feColorMatrix type="matrix" in="SourceGraphic" values="0 0 0 0 1 0 0 0 0 1 0 0 0 0 1 0 0 0 1 0"/>
</filter>
<mask id="mask0">
  <g filter="url(#alpha)">
<rect x="0" y="0" width="70" height="70" style="fill:rgb(0,0,0);fill-opacity:0.901961;stroke:none;"/>
  </g>
</mask>
<clipPath id="clip1">
  <rect x="0" y="0" width="70" height="70"/>
</clipPath>
<g id="surface5" clip-path="url(#clip1)">
<path style=" stroke:none;fill-rule:nonzero;fill:rgb(255,255,255);fill-opacity:1;" d="M 54.054688 28.425781 L 36.167969 28.425781 C 35.933594 28.425781 35.710938 28.515625 35.546875 28.679688 L 32.675781 31.554688 C 32.511719 31.71875 32.289063 31.8125 32.054688 31.8125 L 18.480469 31.8125 C 18 31.8125 17.609375 32.199219 17.609375 32.683594 L 17.609375 54.65625 C 17.609375 54.886719 17.699219 55.105469 17.863281 55.269531 C 18.027344 55.433594 18.25 55.523438 18.480469 55.523438 L 54.054688 55.523438 C 54.535156 55.523438 54.925781 55.132813 54.925781 54.65625 L 54.925781 29.296875 C 54.925781 28.8125 54.535156 28.425781 54.054688 28.425781 Z M 54.054688 28.425781 "/>
</g>
</defs>
<g id="surface1">
<path style=" stroke:none;fill-rule:nonzero;fill:url(#linear0);" d="M 2.117188 20.671875 L 67.882813 20.671875 L 67.882813 59.242188 C 67.882813 60.457031 66.902344 61.441406 65.6875 61.441406 L 4.3125 61.441406 C 3.097656 61.441406 2.117188 60.457031 2.117188 59.242188 Z M 2.117188 20.671875 "/>
<path style=" stroke:none;fill-rule:nonzero;fill:rgb(0,108,188);fill-opacity:1;" d="M 4.324219 8.554688 L 65.675781 8.554688 C 66.890625 8.554688 67.871094 9.539063 67.871094 10.753906 L 67.871094 20.667969 L 2.128906 20.667969 L 2.128906 10.757813 C 2.125 10.171875 2.355469 9.613281 2.769531 9.199219 C 3.179688 8.789063 3.742188 8.554688 4.324219 8.554688 Z M 4.324219 8.554688 "/>
<path style=" stroke:none;fill-rule:nonzero;fill:rgb(41,164,255);fill-opacity:1;" d="M 54.054688 28.464844 L 37.78125 28.464844 C 37.609375 28.46875 37.4375 28.414063 37.292969 28.320313 L 32.628906 25.226563 C 32.484375 25.128906 32.316406 25.078125 32.144531 25.078125 L 18.480469 25.078125 C 18 25.078125 17.609375 25.46875 17.609375 25.949219 L 17.609375 54.695313 C 17.609375 54.929688 17.699219 55.148438 17.863281 55.3125 C 18.027344 55.472656 18.25 55.566406 18.480469 55.5625 L 54.054688 55.5625 C 54.535156 55.5625 54.925781 55.175781 54.925781 54.695313 L 54.925781 29.335938 C 54.925781 28.855469 54.535156 28.464844 54.054688 28.464844 Z M 54.054688 28.464844 "/>
<path style=" stroke:none;fill-rule:nonzero;fill:rgb(255,255,255);fill-opacity:1;" d="M 20.425781 26.851563 L 28.675781 26.851563 C 28.886719 26.851563 29.058594 27.023438 29.058594 27.234375 L 29.058594 28.277344 C 29.058594 28.488281 28.886719 28.65625 28.675781 28.65625 L 20.425781 28.65625 C 20.214844 28.65625 20.042969 28.488281 20.042969 28.277344 L 20.042969 27.234375 C 20.042969 27.023438 20.214844 26.851563 20.425781 26.851563 Z M 20.425781 26.851563 "/>
<path style=" stroke:none;fill-rule:nonzero;fill:rgb(0,108,188);fill-opacity:1;" d="M 20.304688 26.851563 L 21.585938 26.851563 C 21.730469 26.851563 21.847656 26.96875 21.847656 27.113281 L 21.847656 28.398438 C 21.847656 28.539063 21.730469 28.65625 21.585938 28.65625 L 20.304688 28.65625 C 20.160156 28.65625 20.042969 28.539063 20.042969 28.398438 L 20.042969 27.113281 C 20.042969 26.96875 20.160156 26.851563 20.304688 26.851563 Z M 20.304688 26.851563 "/>
<use xlink:href="#surface5" mask="url(#mask0)"/>
</g>
</svg>
