<?xml version="1.0" encoding="UTF-8"?>
<svg xmlns="http://www.w3.org/2000/svg" xmlns:xlink="http://www.w3.org/1999/xlink" width="70pt" height="67pt" viewBox="0 0 70 67" version="1.1">
<g id="surface1">
<path style=" stroke:none;fill-rule:nonzero;fill:rgb(27.058824%,67.843137%,82.352941%);fill-opacity:1;" d="M 34.199219 39.945313 L 34.199219 33.699219 C 34.199219 33.066406 33.667969 32.550781 33.019531 32.550781 L 28.003906 32.550781 C 27.753906 32.550781 27.554688 32.46875 27.402344 32.316406 C 27.253906 32.167969 27.171875 31.96875 27.171875 31.71875 C 27.171875 31.5 27.253906 31.300781 27.4375 31.085938 L 35.765625 22.773438 C 35.917969 22.621094 36.097656 22.554688 36.332031 22.539063 C 34.5 15.109375 28.035156 9.445313 20.089844 9.078125 C 9.777344 8.613281 1.265625 17.140625 1.734375 27.4375 C 2.164063 36.847656 10.0625 44.195313 19.492188 44.195313 L 34.21875 44.195313 L 34.21875 39.945313 Z M 34.199219 39.945313 "/>
<path style=" stroke:none;fill-rule:nonzero;fill:rgb(13.333333%,44.705882%,72.54902%);fill-opacity:1;" d="M 44.179688 47.875 L 44.179688 44.195313 L 50.960938 44.195313 C 60.503906 44.195313 68.285156 36.730469 68.285156 27.570313 C 68.285156 18.773438 61.039063 11.578125 51.976563 11.226563 C 48.578125 5.230469 42.046875 1.515625 34.800781 1.515625 C 30.003906 1.515625 25.585938 3.164063 22.207031 5.980469 C 26.539063 6.664063 30.550781 8.679688 33.71875 11.859375 C 37.433594 15.574219 39.582031 20.441406 39.832031 25.621094 L 45.328125 31.101563 C 45.476563 31.25 45.5625 31.449219 45.5625 31.699219 C 45.5625 31.933594 45.476563 32.117188 45.3125 32.285156 C 45.144531 32.449219 44.945313 32.535156 44.730469 32.535156 L 39.863281 32.535156 L 39.863281 54.089844 C 39.863281 54.738281 39.332031 55.273438 38.664063 55.273438 L 38.699219 55.273438 L 33.683594 55.273438 C 33.449219 55.273438 33.265625 55.355469 33.101563 55.523438 C 32.933594 55.6875 32.851563 55.890625 32.851563 56.105469 C 32.851563 56.355469 32.933594 56.554688 33.085938 56.707031 L 41.445313 65.035156 C 41.597656 65.183594 41.796875 65.269531 42.046875 65.269531 C 42.296875 65.269531 42.496094 65.183594 42.644531 65.035156 L 50.976563 56.722656 C 51.140625 56.503906 51.242188 56.304688 51.242188 56.089844 C 51.242188 55.839844 51.160156 55.640625 51.007813 55.488281 C 50.859375 55.339844 50.660156 55.257813 50.410156 55.257813 L 45.394531 55.257813 C 44.746094 55.257813 44.210938 54.738281 44.210938 54.105469 L 44.210938 47.875 Z M 44.179688 47.875 "/>
</g>
</svg>
