<?xml version="1.0" encoding="UTF-8"?>
<svg xmlns="http://www.w3.org/2000/svg" xmlns:xlink="http://www.w3.org/1999/xlink" width="70pt" height="70pt" viewBox="0 0 70 70" version="1.1">
<defs>
<linearGradient id="linear0" gradientUnits="userSpaceOnUse" x1="9" y1="13.14" x2="9" y2="0.39" gradientTransform="matrix(3.888889,0,0,3.888889,0,0)">
<stop offset="0" style="stop-color:rgb(0,108,188);stop-opacity:1;"/>
<stop offset="0.82" style="stop-color:rgb(41,164,255);stop-opacity:1;"/>
</linearGradient>
</defs>
<g id="surface1">
<path style=" stroke:none;fill-rule:nonzero;fill:url(#linear0);" d="M 70 35.582031 C 69.765625 27.878906 63.988281 21.480469 56.351563 20.457031 C 55.867188 9.621094 46.773438 1.1875 35.933594 1.515625 C 27.300781 1.351563 19.507813 6.652344 16.488281 14.738281 C 7.289063 15.882813 0.292969 23.554688 0 32.820313 C 0.402344 43.3125 9.226563 51.492188 19.714844 51.101563 C 20.285156 51.140625 20.859375 51.140625 21.429688 51.101563 L 53.355469 51.101563 C 53.640625 51.140625 53.925781 51.140625 54.210938 51.101563 C 62.800781 51.039063 69.789063 44.171875 70 35.582031 Z M 70 35.582031 "/>
<path style=" stroke:none;fill-rule:nonzero;fill:rgb(119,197,255);fill-opacity:1;" d="M 36.828125 32.355469 C 36.65625 22.210938 28.320313 14.113281 18.175781 14.234375 C 8.035156 14.355469 -0.105469 22.648438 -0.0351563 32.792969 C 0.0351563 42.9375 8.289063 51.121094 18.433594 51.101563 L 36.828125 51.101563 Z M 36.828125 32.355469 "/>
<path style=" stroke:none;fill-rule:nonzero;fill:rgb(0,108,188);fill-opacity:1;" d="M 45.890625 59.65625 L 37.140625 68.367188 C 37.066406 68.464844 36.949219 68.523438 36.828125 68.523438 C 36.707031 68.523438 36.589844 68.464844 36.515625 68.367188 L 27.804688 59.65625 C 27.6875 59.523438 27.652344 59.335938 27.71875 59.167969 C 27.785156 59.003906 27.9375 58.890625 28.117188 58.878906 L 33.25 58.878906 C 33.386719 58.882813 33.519531 58.824219 33.601563 58.714844 C 33.6875 58.605469 33.714844 58.464844 33.679688 58.332031 L 33.679688 47.054688 C 33.6875 46.941406 33.742188 46.835938 33.832031 46.765625 C 33.917969 46.691406 34.03125 46.65625 34.144531 46.667969 L 39.550781 46.667969 C 39.785156 46.667969 39.976563 46.859375 39.976563 47.09375 L 39.976563 58.332031 C 39.976563 58.453125 40.027344 58.570313 40.117188 58.652344 C 40.207031 58.730469 40.324219 58.773438 40.445313 58.761719 L 45.578125 58.761719 C 45.824219 58.675781 46.09375 58.804688 46.179688 59.054688 C 46.265625 59.300781 46.136719 59.570313 45.890625 59.65625 Z M 45.890625 59.65625 "/>
<path style=" stroke:none;fill-rule:nonzero;fill:rgb(255,255,255);fill-opacity:1;" d="M 27.804688 38.1875 L 36.828125 29.167969 L 45.890625 38.1875 C 46.019531 38.3125 46.058594 38.5 45.988281 38.667969 C 45.921875 38.832031 45.757813 38.933594 45.578125 38.929688 L 40.445313 38.929688 C 40.1875 38.929688 39.976563 39.136719 39.976563 39.394531 L 39.976563 51.0625 L 33.679688 51.0625 L 33.679688 39.394531 C 33.6875 39.269531 33.648438 39.148438 33.570313 39.050781 C 33.488281 38.957031 33.375 38.898438 33.25 38.890625 L 28.117188 38.890625 C 27.953125 38.882813 27.808594 38.785156 27.746094 38.636719 C 27.679688 38.488281 27.703125 38.3125 27.804688 38.1875 Z M 27.804688 38.1875 "/>
</g>
</svg>
