<?xml version="1.0" encoding="utf-8"?><svg version="1.1" xmlns="http://www.w3.org/2000/svg" xmlns:xlink="http://www.w3.org/1999/xlink" xmlns:xml="http://www.w3.org/XML/1998/namespace" width="70" height="70" viewBox="0, 0, 18, 18" id="fcdf2200-0558-41f8-8840-46e299a8553d"><defs><linearGradient x1="2.55" y1="10.17" x2="15.3" y2="10.17" gradientUnits="userSpaceOnUse" gradientTransform="translate(0.1, -0.03) rotate(0.15, 0, 0)" id="b53f55b6-5b8c-4246-8553-f63a4c06f010"><stop offset="0%" stop-color="#005BA1" /><stop offset="7%" stop-color="#0060A9" /><stop offset="36%" stop-color="#0071C8" /><stop offset="52%" stop-color="#0078D4" /><stop offset="64%" stop-color="#0074CD" /><stop offset="82%" stop-color="#006ABB" /><stop offset="100%" stop-color="#005BA1" /></linearGradient></defs><title>Icon-storage-92</title><path d="M9 5.14 c-3.52 0 -6.37 -1 -6.37 -2.33 l0 12.35 c0 1.27 2.8 2.31 6.28 2.34 H9 c3.52 0 6.38 -1 6.38 -2.31 l0 -12.35 C15.39 4.12 12.53 5.15 9 5.14 Z" style="fill:url(#b53f55b6-5b8c-4246-8553-f63a4c06f010);" /><path d="M15.39 2.84 c0 1.28 -2.86 2.31 -6.38 2.3 s-6.37 -1 -6.37 -2.33 S5.5 0.49 9 0.5 s6.37 1.06 6.37 2.34" style="fill:#F2F2F2;" /><path d="M13.9 2.65 c0 0.81 -2.19 1.47 -4.89 1.46 S4.13 3.44 4.13 2.62 S6.32 1.15 9 1.16 s4.89 0.67 4.88 1.49" style="fill:#50E6FF;" /><path d="M9 3 a11.86 11.86 0 0 0 -3.88 0.56 A11.39 11.39 0 0 0 9 4.11 a11.44 11.44 0 0 0 3.88 -0.57 A12.08 12.08 0 0 0 9 3 Z" style="fill:#198AB3;" /><path d="M12.47 10.18 l-0.82 -0.26 c-0.05 0 -0.08 0 -0.1 -0.09 l-0.17 -0.42 a0.38 0.38 0 0 1 0 -0.15 c0.12 -0.26 0.24 -0.52 0.38 -0.77 a0.11 0.11 0 0 0 0 -0.16 h0 c-0.14 -0.14 -0.28 -0.26 -0.41 -0.41 a0.13 0.13 0 0 0 -0.22 0 l0 0 l-0.7 0.35 c-0.05 0 -0.08 0 -0.13 0 l-0.41 -0.17 A0.14 0.14 0 0 1 9.73 8 c-0.1 -0.27 -0.2 -0.54 -0.28 -0.81 a0.11 0.11 0 0 0 -0.1 -0.09 H8.68 c-0.07 0 -0.08 0 -0.12 0.08 c-0.08 0.28 -0.17 0.55 -0.27 0.82 c0 0 0 0.09 -0.09 0.1 l-0.42 0.17 a0.22 0.22 0 0 1 -0.16 0 l-0.8 -0.39 a0.11 0.11 0 0 0 -0.12 0 c-0.15 0.16 -0.3 0.33 -0.47 0.48 a0.08 0.08 0 0 0 0 0.12 v0 c0.13 0.25 0.25 0.51 0.39 0.76 a0.18 0.18 0 0 1 0 0.16 l-0.18 0.39 a0.14 0.14 0 0 1 -0.12 0.12 c-0.27 0.1 -0.54 0.2 -0.81 0.28 c-0.07 0 -0.09 0.05 -0.09 0.11 V11 c0 0.07 0 0.1 0.08 0.12 c0.28 0.08 0.55 0.19 0.82 0.27 a0.13 0.13 0 0 1 0.1 0.11 c0 0.13 0.12 0.27 0.17 0.41 a0.19 0.19 0 0 1 0 0.15 c-0.14 0.27 -0.26 0.54 -0.39 0.81 a0.09 0.09 0 0 0 0 0.11 l0.5 0.49 s0 0.05 0.08 0 l0.48 -0.25 L7.61 13 s0.09 0 0.14 0 l0.42 0.17 c0.05 0 0.07 0.05 0.09 0.1 c0.1 0.27 0.2 0.56 0.28 0.83 a0.12 0.12 0 0 0 0.11 0.09 h0.66 c0.07 0 0.09 0 0.12 -0.08 c0.09 -0.27 0.19 -0.55 0.27 -0.82 a0.15 0.15 0 0 1 0.09 -0.1 l0.43 -0.17 a0.15 0.15 0 0 1 0.13 0 l0.8 0.39 a0.1 0.1 0 0 0 0.12 0 c0.15 -0.16 0.31 -0.33 0.48 -0.48 s0.05 -0.07 0 -0.14 a8.1 8.1 0 0 1 -0.39 -0.78 a0.11 0.11 0 0 1 0 -0.15 c0.06 -0.14 0.12 -0.27 0.17 -0.41 a0.13 0.13 0 0 1 0.1 -0.1 c0.27 -0.1 0.55 -0.21 0.82 -0.29 c0.07 0 0.08 -0.05 0.08 -0.12 c0 -0.24 0 -0.44 0 -0.65 S12.54 10.21 12.47 10.18 Z M10.11 11.7 l-0.08 0.07 a1.58 1.58 0 0 1 -1.87 0.12 l-0.1 -0.07 a1.61 1.61 0 0 1 -0.63 -1 a1.53 1.53 0 0 1 0.46 -1.41 c0.05 -0.05 0.05 -0.07 0 -0.12 l-0.13 -0.15 h0.78 s0.05 0 0.05 0 h0 v0.77 l-0.22 -0.21 s0 -0.05 -0.1 0 a1.12 1.12 0 0 0 -0.11 1.57 a0.8 0.8 0 0 0 0.17 0.15 l0.12 0.06 a1 1 0 0 0 0.56 0.17 a1 1 0 0 0 0.94 -0.55 A1.09 1.09 0 0 0 9.76 9.8 s-0.1 -0.07 -0.11 -0.14 s0 0 0 -0.07 a1.62 1.62 0 0 0 0.18 -0.19 c0.14 -0.11 0.14 -0.11 0.24 0 A1.63 1.63 0 0 1 10.11 11.7 Z" style="fill:white;" /></svg>