<?xml version="1.0" encoding="utf-8"?><svg version="1.1" xmlns="http://www.w3.org/2000/svg" xmlns:xlink="http://www.w3.org/1999/xlink" xmlns:xml="http://www.w3.org/XML/1998/namespace" width="70" height="70" viewBox="0, 0, 18, 18" id="FxSymbol0-029" class="" role="presentation" focusable="false" data-type="63"><g><path d="M0.5 5.79 h17 v9.48 a0.57 0.57 0 0 1 -0.57 0.57 H1.07 a0.57 0.57 0 0 1 -0.57 -0.57 V5.79 z" style="fill:url(#9d253744-4b8f-4914-b50f-fe0e54de002b);" /><path d="M1.07 2.17 h15.86 a0.57 0.57 0 0 1 0.57 0.57 v3.05 H0.5 V2.73 a0.57 0.57 0 0 1 0.57 -0.56 z" style="fill:#2DA5FF;" /><path d="M2.81 6.89 h12.37 a0.27 0.27 0 0 1 0.26 0.27 v1.4 a0.27 0.27 0 0 1 -0.26 0.27 H2.81 a0.27 0.27 0 0 1 -0.26 -0.27 v-1.4 a0.27 0.27 0 0 1 0.26 -0.27 z" class="msportalfx-svg-c01" style="fill:white;" /><path d="M2.82 9.68 h12.37 a0.27 0.27 0 0 1 0.26 0.27 v1.41 a0.27 0.27 0 0 1 -0.26 0.27 H2.82 a0.27 0.27 0 0 1 -0.26 -0.27 V10 a0.27 0.27 0 0 1 0.26 -0.32 z" style="fill:#2DA5FF;" /><path d="M2.82 12.5 h12.37 a0.27 0.27 0 0 1 0.26 0.27 v1.41 a0.27 0.27 0 0 1 -0.26 0.27 H2.82 a0.27 0.27 0 0 1 -0.26 -0.27 v-1.41 a0.27 0.27 0 0 1 0.26 -0.27 z" style="fill:#0073C8;" /></g><defs><linearGradient x1="9" y1="15.83" x2="9" y2="5.79" gradientUnits="userSpaceOnUse" id="9d253744-4b8f-4914-b50f-fe0e54de002b"><stop offset="0%" stop-color="#67BEFF" /><stop offset="26%" stop-color="#81C9FF" /><stop offset="100%" stop-color="#CDE9FF" /></linearGradient></defs></svg>