<?xml version="1.0" encoding="UTF-8"?>
<svg xmlns="http://www.w3.org/2000/svg" xmlns:xlink="http://www.w3.org/1999/xlink" width="70pt" height="60pt" viewBox="0 0 70 60" version="1.1">
<g id="surface1">
<path style=" stroke:none;fill-rule:nonzero;fill:rgb(0%,47.058824%,84.313725%);fill-opacity:1;" d="M 46.789063 31.636719 L 54.34375 25.816406 L 39.238281 25.816406 Z M 46.789063 31.636719 "/>
<path style=" stroke:none;fill-rule:nonzero;fill:rgb(0%,47.058824%,84.313725%);fill-opacity:1;" d="M 23.761719 33.636719 C 23.578125 33.636719 23.394531 33.636719 23.210938 33.453125 L 16.210938 28 L 16.210938 36.910156 L 32.238281 36.910156 L 32.238281 27.816406 L 24.683594 33.453125 C 24.316406 33.636719 23.949219 33.636719 23.761719 33.636719 Z M 23.761719 33.636719 "/>
<path style=" stroke:none;fill-rule:nonzero;fill:rgb(0%,47.058824%,84.313725%);fill-opacity:1;" d="M 46.789063 33.636719 C 46.605469 33.636719 46.238281 33.636719 46.238281 33.453125 L 39.050781 28 L 39.050781 36.910156 L 55.078125 36.910156 L 55.078125 27.816406 L 47.527344 33.453125 C 47.15625 33.636719 46.972656 33.636719 46.789063 33.636719 Z M 46.789063 33.636719 "/>
<path style=" stroke:none;fill-rule:nonzero;fill:rgb(0%,47.058824%,84.313725%);fill-opacity:1;" d="M 52.5 0 L 17.5 0 L 0 29.816406 L 17.5 59.636719 L 52.316406 59.636719 L 69.816406 29.816406 Z M 58.578125 42.546875 L 10.867188 42.546875 C 9.394531 42.546875 8.289063 41.273438 8.289063 39.816406 L 8.289063 21.816406 C 8.289063 20.363281 9.394531 19.089844 10.867188 19.089844 L 58.578125 19.089844 C 59.132813 19.089844 60.050781 19.089844 66.316406 30.726563 L 66.5 31.273438 L 66.316406 31.816406 C 60.050781 42.546875 59.132813 42.546875 58.578125 42.546875 Z M 58.578125 42.546875 "/>
<path style=" stroke:none;fill-rule:nonzero;fill:rgb(0%,47.058824%,84.313725%);fill-opacity:1;" d="M 23.578125 31.636719 L 31.316406 25.816406 L 16.027344 25.816406 Z M 23.578125 31.636719 "/>
<path style=" stroke:none;fill-rule:nonzero;fill:rgb(0%,47.058824%,84.313725%);fill-opacity:1;" d="M 10.867188 21.089844 C 10.5 21.089844 10.132813 21.453125 10.132813 21.816406 L 10.132813 39.816406 C 10.132813 40.183594 10.5 40.726563 10.867188 40.726563 L 58.210938 40.726563 C 59.132813 39.816406 61.894531 35.453125 64.289063 31.273438 C 61.894531 26.726563 58.949219 22 58.210938 21.089844 Z M 34.078125 37.816406 C 34.078125 38.363281 33.527344 38.910156 32.789063 38.910156 L 14.738281 38.910156 C 14.183594 38.910156 14 38.363281 14 37.816406 L 14 24.546875 C 14 24 14.183594 23.816406 14.738281 23.816406 L 32.789063 23.816406 C 33.34375 23.816406 34.078125 24 34.078125 24.546875 Z M 56.738281 37.816406 C 56.738281 38.363281 56.367188 38.910156 55.816406 38.910156 L 37.949219 38.910156 C 37.394531 38.910156 37.027344 38.363281 37.027344 37.816406 L 37.027344 24.546875 C 37.027344 24 37.394531 23.816406 37.949219 23.816406 L 55.816406 23.816406 C 56.367188 23.816406 56.738281 24 56.738281 24.546875 Z M 56.738281 37.816406 "/>
</g>
</svg>
