<?xml version="1.0" encoding="UTF-8"?>
<svg xmlns="http://www.w3.org/2000/svg" xmlns:xlink="http://www.w3.org/1999/xlink" width="70pt" height="61pt" viewBox="0 0 70 61" version="1.1">
<g id="surface1">
<path style=" stroke:none;fill-rule:nonzero;fill:rgb(0%,47.058824%,84.313725%);fill-opacity:1;" d="M 36.140625 60.839844 L 51.929688 60.839844 L 51.929688 56.503906 L 36.140625 56.503906 Z M 36.140625 60.839844 "/>
<path style=" stroke:none;fill-rule:nonzero;fill:rgb(0%,47.058824%,84.313725%);fill-opacity:1;" d="M 36.140625 53.9375 L 51.929688 53.9375 L 51.929688 49.601563 L 36.140625 49.601563 Z M 36.140625 53.9375 "/>
<path style=" stroke:none;fill-rule:nonzero;fill:rgb(0%,47.058824%,84.313725%);fill-opacity:1;" d="M 14.976563 43.34375 L 13.835938 43.34375 L 20.675781 43.34375 L 20.675781 39.488281 L 35.8125 39.488281 L 35.8125 47.195313 L 51.605469 47.195313 L 51.605469 43.34375 L 61.859375 43.34375 C 66.582031 43.34375 69.835938 39.488281 69.835938 35.316406 C 69.835938 30.820313 66.09375 27.128906 61.699219 27.128906 C 61.371094 27.128906 61.046875 27.128906 60.722656 27.128906 C 61.210938 25.363281 61.535156 23.4375 61.535156 21.351563 C 61.699219 9.632813 52.90625 0 40.699219 0 C 31.09375 0 22.789063 6.101563 19.859375 14.769531 C 18.394531 14.285156 16.765625 13.964844 14.976563 13.964844 C 6.675781 13.964844 0 20.867188 0 28.734375 C 0.164063 37.082031 6.675781 43.34375 14.976563 43.34375 Z M 20.835938 25.84375 L 36.140625 25.84375 L 36.140625 30.179688 L 20.835938 30.179688 Z M 20.835938 37.082031 L 20.835938 32.746094 L 35.976563 32.746094 L 35.976563 37.082031 Z M 20.835938 37.082031 "/>
</g>
</svg>
