<?xml version="1.0" encoding="UTF-8"?>
<svg xmlns="http://www.w3.org/2000/svg" xmlns:xlink="http://www.w3.org/1999/xlink" width="70pt" height="70pt" viewBox="0 0 70 70" version="1.1">
<defs>
<linearGradient id="linear0" gradientUnits="userSpaceOnUse" x1="9" y1="15.799" x2="9" y2="5.316" gradientTransform="matrix(3.888889,0,0,3.888889,0,0)">
<stop offset="0" style="stop-color:rgb(19.607843%,74.509804%,86.666667%);stop-opacity:1;"/>
<stop offset="0.775" style="stop-color:rgb(19.607843%,83.137255%,96.078431%);stop-opacity:1;"/>
</linearGradient>
</defs>
<g id="surface1">
<path style=" stroke:none;fill-rule:nonzero;fill:url(#linear0);" d="M 2.117188 20.671875 L 67.882813 20.671875 L 67.882813 59.242188 C 67.882813 60.457031 66.902344 61.441406 65.6875 61.441406 L 4.3125 61.441406 C 3.097656 61.441406 2.117188 60.457031 2.117188 59.242188 Z M 2.117188 20.671875 "/>
<path style=" stroke:none;fill-rule:nonzero;fill:rgb(0%,47.058824%,83.137255%);fill-opacity:1;" d="M 4.324219 8.554688 L 65.675781 8.554688 C 66.890625 8.554688 67.871094 9.539063 67.871094 10.753906 L 67.871094 20.667969 L 2.128906 20.667969 L 2.128906 10.757813 C 2.125 10.171875 2.355469 9.613281 2.769531 9.199219 C 3.179688 8.789063 3.742188 8.554688 4.324219 8.554688 Z M 4.324219 8.554688 "/>
<path style=" stroke:none;fill-rule:nonzero;fill:rgb(96.862745%,55.294118%,11.764706%);fill-opacity:1;" d="M 52.609375 28.570313 L 36.492188 28.570313 C 36.320313 28.570313 36.15625 28.519531 36.011719 28.429688 L 31.410156 25.367188 C 31.269531 25.269531 31.101563 25.21875 30.933594 25.21875 L 17.390625 25.21875 C 16.914063 25.21875 16.527344 25.605469 16.527344 26.082031 L 16.527344 54.53125 C 16.527344 54.757813 16.617188 54.980469 16.78125 55.140625 C 16.941406 55.304688 17.160156 55.394531 17.390625 55.394531 L 52.609375 55.394531 C 52.839844 55.394531 53.058594 55.304688 53.21875 55.140625 C 53.382813 54.980469 53.472656 54.757813 53.472656 54.53125 L 53.472656 29.433594 C 53.472656 28.957031 53.085938 28.570313 52.609375 28.570313 Z M 52.609375 28.570313 "/>
<path style=" stroke:none;fill-rule:nonzero;fill:rgb(100%,100%,100%);fill-opacity:1;" d="M 20.242188 26.871094 L 27.929688 26.871094 C 28.125 26.871094 28.285156 27.03125 28.285156 27.226563 L 28.285156 28.199219 C 28.285156 28.394531 28.125 28.550781 27.929688 28.550781 L 20.242188 28.550781 C 20.046875 28.550781 19.886719 28.394531 19.886719 28.199219 L 19.886719 27.226563 C 19.886719 27.03125 20.046875 26.871094 20.242188 26.871094 Z M 20.242188 26.871094 "/>
<path style=" stroke:none;fill-rule:nonzero;fill:rgb(81.960784%,34.901961%,0%);fill-opacity:1;" d="M 20.128906 26.871094 L 21.328125 26.871094 C 21.460938 26.871094 21.566406 26.980469 21.566406 27.113281 L 21.566406 28.3125 C 21.566406 28.445313 21.460938 28.550781 21.328125 28.550781 L 20.128906 28.550781 C 19.996094 28.550781 19.886719 28.445313 19.886719 28.3125 L 19.886719 27.113281 C 19.886719 26.980469 19.996094 26.871094 20.128906 26.871094 Z M 20.128906 26.871094 "/>
<path style=" stroke:none;fill-rule:nonzero;fill:rgb(100%,100%,100%);fill-opacity:1;" d="M 52.609375 28.53125 L 34.910156 28.53125 C 34.683594 28.53125 34.460938 28.617188 34.300781 28.777344 L 31.453125 31.621094 C 31.292969 31.785156 31.074219 31.878906 30.84375 31.878906 L 17.390625 31.878906 C 17.164063 31.875 16.941406 31.964844 16.78125 32.128906 C 16.617188 32.289063 16.527344 32.507813 16.527344 32.738281 L 16.527344 54.480469 C 16.527344 54.707031 16.617188 54.929688 16.78125 55.089844 C 16.941406 55.253906 17.160156 55.34375 17.390625 55.34375 L 52.609375 55.34375 C 52.839844 55.34375 53.058594 55.253906 53.21875 55.089844 C 53.382813 54.929688 53.472656 54.707031 53.472656 54.480469 L 53.472656 29.390625 C 53.472656 29.164063 53.382813 28.945313 53.21875 28.78125 C 53.058594 28.621094 52.835938 28.53125 52.609375 28.53125 Z M 52.609375 28.53125 "/>
</g>
</svg>
