<?xml version="1.0" encoding="UTF-8"?>
<svg xmlns="http://www.w3.org/2000/svg" xmlns:xlink="http://www.w3.org/1999/xlink" width="70pt" height="54pt" viewBox="0 0 70 54" version="1.1">
<g id="surface1">
<path style=" stroke:none;fill-rule:evenodd;fill:rgb(0%,47.058824%,84.313725%);fill-opacity:1;" d="M 41.242188 5.566406 L 39.222656 2.132813 C 38.453125 0.824219 36.988281 0 35.453125 0 L 4.328125 0 C 1.957031 0 0 1.925781 0 4.257813 L 0 6.457031 L 42.011719 6.457031 C 41.664063 6.25 41.453125 5.90625 41.242188 5.566406 Z M 43.753906 29.253906 L 31.402344 46.628906 C 31.269531 46.765625 31.128906 46.90625 30.917969 46.90625 C 30.847656 46.90625 30.707031 46.90625 30.636719 46.835938 C 30.359375 46.695313 30.21875 46.425781 30.359375 46.148438 L 33.570313 35.78125 L 26.378906 35.78125 C 26.167969 35.78125 25.964844 35.640625 25.824219 35.433594 C 25.753906 35.226563 25.753906 35.027344 25.894531 34.816406 L 37.894531 17.652344 C 38.035156 17.511719 38.175781 17.375 38.386719 17.375 C 38.453125 17.375 38.523438 17.375 38.660156 17.445313 C 38.941406 17.582031 39.082031 17.851563 38.941406 18.128906 L 35.871094 28.292969 L 43.269531 28.292969 C 43.621094 28.292969 43.894531 28.566406 43.894531 28.914063 C 43.894531 29.050781 43.824219 29.121094 43.753906 29.253906 Z M 67.066406 8.652344 L 0 8.652344 L 0 49.652344 C 0 51.984375 1.957031 53.910156 4.328125 53.910156 L 65.460938 53.910156 C 67.832031 53.910156 69.789063 51.984375 69.789063 49.652344 L 69.789063 12.570313 C 69.789063 10.851563 68.671875 9.339844 67.066406 8.652344 Z M 67.066406 8.652344 "/>
</g>
</svg>
