<?xml version="1.0" encoding="UTF-8"?>
<svg xmlns="http://www.w3.org/2000/svg" xmlns:xlink="http://www.w3.org/1999/xlink" width="70pt" height="70pt" viewBox="0 0 70 70" version="1.1">
<defs>
<filter id="alpha" filterUnits="objectBoundingBox" x="0%" y="0%" width="100%" height="100%">
  <feColorMatrix type="matrix" in="SourceGraphic" values="0 0 0 0 1 0 0 0 0 1 0 0 0 0 1 0 0 0 1 0"/>
</filter>
<mask id="mask0">
  <g filter="url(#alpha)">
<rect x="0" y="0" width="70" height="70" style="fill:rgb(0%,0%,0%);fill-opacity:0.2;stroke:none;"/>
  </g>
</mask>
<clipPath id="clip1">
  <rect x="0" y="0" width="70" height="70"/>
</clipPath>
<g id="surface5" clip-path="url(#clip1)">
<path style=" stroke:none;fill-rule:nonzero;fill:rgb(100%,100%,100%);fill-opacity:1;" d="M 2.800781 5.601563 C 1.261719 5.601563 0 6.859375 0 8.398438 L 0 62.441406 C 0 63.980469 1.261719 65.238281 2.800781 65.238281 L 5.878906 65.238281 L 61.039063 5.601563 Z M 2.800781 5.601563 "/>
</g>
</defs>
<g id="surface1">
<path style=" stroke:none;fill-rule:nonzero;fill:rgb(62.745098%,63.137255%,63.529412%);fill-opacity:1;" d="M 0 62.71875 C 0 64.121094 1.121094 65.378906 2.519531 65.378906 L 67.339844 65.378906 C 68.738281 65.378906 70 64.261719 70 62.71875 L 70 16.378906 L 0 16.378906 Z M 0 62.71875 "/>
<path style=" stroke:none;fill-rule:nonzero;fill:rgb(47.843137%,47.843137%,47.843137%);fill-opacity:1;" d="M 67.339844 5.601563 L 2.519531 5.601563 C 1.121094 5.601563 0 6.859375 0 8.261719 L 0 16.238281 L 70 16.238281 L 70 8.261719 C 70 6.859375 68.878906 5.601563 67.339844 5.601563 "/>
<path style=" stroke:none;fill-rule:nonzero;fill:rgb(0%,44.705882%,77.647059%);fill-opacity:1;" d="M 5.179688 21.140625 L 33.738281 21.140625 L 33.738281 39.339844 L 5.179688 39.339844 Z M 5.179688 21.140625 "/>
<path style=" stroke:none;fill-rule:nonzero;fill:rgb(0%,44.705882%,77.647059%);fill-opacity:1;" d="M 5.179688 41.859375 L 33.738281 41.859375 L 33.738281 60.058594 L 5.179688 60.058594 Z M 5.179688 41.859375 "/>
<path style=" stroke:none;fill-rule:nonzero;fill:rgb(100%,100%,100%);fill-opacity:1;" d="M 36.261719 21.140625 L 64.679688 21.140625 L 64.679688 39.339844 L 36.261719 39.339844 Z M 36.261719 21.140625 "/>
<path style=" stroke:none;fill-rule:nonzero;fill:rgb(0%,44.705882%,77.647059%);fill-opacity:1;" d="M 36.261719 41.859375 L 64.679688 41.859375 L 64.679688 60.058594 L 36.261719 60.058594 Z M 36.261719 41.859375 "/>
<use xlink:href="#surface5" mask="url(#mask0)"/>
</g>
</svg>
