<?xml version="1.0" encoding="utf-8"?><svg version="1.1" xmlns="http://www.w3.org/2000/svg" xmlns:xlink="http://www.w3.org/1999/xlink" xmlns:xml="http://www.w3.org/XML/1998/namespace" width="70" height="70" viewBox="0, 0, 18, 18" id="a71b9b98-7497-4914-8ffd-4426ed6ff3dc"><defs><linearGradient x1="9" y1="15.83" x2="9" y2="5.79" gradientUnits="userSpaceOnUse" id="bf742bd2-510c-4ed0-8c96-14df7349dd34"><stop offset="0%" stop-color="#2FA6FF" /><stop offset="18%" stop-color="#3FADFF" /><stop offset="41%" stop-color="#4BB2FF" /><stop offset="78%" stop-color="#4FB4FF" /></linearGradient></defs><title>Icon-storage-87</title><path d="M0.5 5.79 h17 a0 0 0 0 1 0 0 v9.48 a0.57 0.57 0 0 1 -0.57 0.57 H1.07 a0.57 0.57 0 0 1 -0.57 -0.57 V5.79 A0 0 0 0 1 0.5 5.79 Z" style="fill:url(#bf742bd2-510c-4ed0-8c96-14df7349dd34);" /><path d="M1.07 2.17 H16.93 a0.57 0.57 0 0 1 0.57 0.57 V5.79 a0 0 0 0 1 0 0 H0.5 a0 0 0 0 1 0 0 V2.73 A0.57 0.57 0 0 1 1.07 2.17 Z" style="fill:#007CD8;" /><path d="M2.81 6.89 H15.18 a0.27 0.27 0 0 1 0.26 0.27 v1.4 a0.27 0.27 0 0 1 -0.26 0.27 H2.81 a0.27 0.27 0 0 1 -0.26 -0.27 V7.16 A0.27 0.27 0 0 1 2.81 6.89 Z" style="fill:white;" /><path d="M2.82 9.68 H15.19 a0.27 0.27 0 0 1 0.26 0.27 v1.41 a0.27 0.27 0 0 1 -0.26 0.27 H2.82 a0.27 0.27 0 0 1 -0.26 -0.27 V10 A0.27 0.27 0 0 1 2.82 9.68 Z" style="fill:#ABDBFF;" /><path d="M2.82 12.5 H15.19 a0.27 0.27 0 0 1 0.26 0.27 v1.41 a0.27 0.27 0 0 1 -0.26 0.27 H2.82 a0.27 0.27 0 0 1 -0.26 -0.27 V12.77 A0.27 0.27 0 0 1 2.82 12.5 Z" style="fill:#77C5FF;" /></svg>