<?xml version="1.0" encoding="utf-8"?><svg version="1.1" xmlns="http://www.w3.org/2000/svg" xmlns:xlink="http://www.w3.org/1999/xlink" xmlns:xml="http://www.w3.org/XML/1998/namespace" width="70" height="70" viewBox="0, 0, 18, 18"><defs><linearGradient x1="9" y1="15.799" x2="9" y2="5.316" gradientUnits="userSpaceOnUse" id="f6607f9a-6e3a-4339-acc9-d6f3ae1a2c0d"><stop offset="0%" stop-color="#29A4FF" /><stop offset="77.5%" stop-color="#55B6FF" /></linearGradient></defs><title>MsPortalFx.base.images-3</title><g id="f3784f80-3379-4e66-8e32-fca3fab0f4d7"><g><path d="M0.544 5.316 H17.456 a0 0 0 0 1 0 0 v9.918 a0.565 0.565 0 0 1 -0.565 0.565 H1.109 a0.565 0.565 0 0 1 -0.565 -0.565 V5.316 A0 0 0 0 1 0.544 5.316 Z" style="fill:url(#f6607f9a-6e3a-4339-acc9-d6f3ae1a2c0d);" /><path d="M1.112 2.2 H16.888 a0.565 0.565 0 0 1 0.565 0.565 v2.55 a0 0 0 0 1 0 0 H0.547 a0 0 0 0 1 0 0 V2.766 A0.565 0.565 0 0 1 1.112 2.2 Z" style="fill:#006CBC;" /><g><rect x="2.625" y="6.435" width="3.683" height="7.933" rx="0.274" style="fill:white;" /><rect x="7.158" y="6.435" width="3.683" height="7.933" rx="0.274" opacity="0.75" style="fill:white;" /><rect x="11.692" y="6.435" width="3.683" height="7.933" rx="0.274" opacity="0.5" style="fill:white;" /></g></g></g></svg>