<?xml version="1.0" encoding="UTF-8"?>
<svg xmlns="http://www.w3.org/2000/svg" xmlns:xlink="http://www.w3.org/1999/xlink" width="70pt" height="60pt" viewBox="0 0 70 60" version="1.1">
<g id="surface1">
<path style=" stroke:none;fill-rule:nonzero;fill:rgb(0,108,188);fill-opacity:1;" d="M 43.984375 14.605469 L 22.09375 14.605469 C 20.984375 14.605469 20.25 15.53125 20.25 16.421875 L 20.25 43.234375 C 20.25 44.332031 21.191406 45.257813 22.09375 45.257813 L 47.886719 45.257813 C 49.003906 45.257813 49.734375 44.332031 49.734375 43.234375 L 49.734375 20.605469 L 43.808594 20.605469 L 43.808594 14.570313 Z M 43.25 37.78125 L 26.730469 37.78125 L 26.730469 34.695313 L 43.25 34.695313 Z M 43.25 32.125 L 26.730469 32.125 L 26.730469 29.039063 L 43.25 29.039063 Z M 43.25 26.296875 L 26.730469 26.296875 L 26.730469 23.210938 L 43.25 23.210938 Z M 43.25 26.296875 "/>
<path style=" stroke:none;fill-rule:nonzero;fill:rgb(0,108,188);fill-opacity:1;" d="M 52.695313 0 L 17.636719 0 L 0 29.929688 L 17.636719 59.863281 L 52.695313 59.863281 L 70.332031 29.929688 Z M 48.0625 48.171875 L 22.273438 48.171875 C 19.484375 48.171875 17.25 45.976563 17.25 43.234375 L 17.25 16.421875 C 17.25 13.679688 19.484375 11.484375 22.273438 11.484375 L 45.65625 11.484375 L 53.082031 18.789063 L 53.082031 43.234375 C 53.082031 45.976563 50.847656 48.171875 48.0625 48.171875 Z M 48.0625 48.171875 "/>
</g>
</svg>
