<?xml version="1.0" encoding="utf-8" standalone="no"?><svg xmlns:dc="http://purl.org/dc/elements/1.1/" xmlns:cc="http://creativecommons.org/ns#" xmlns:rdf="http://www.w3.org/1999/02/22-rdf-syntax-ns#" xmlns:svg="http://www.w3.org/2000/svg" xmlns="http://www.w3.org/2000/svg" xmlns:sodipodi="http://sodipodi.sourceforge.net/DTD/sodipodi-0.dtd" xmlns:inkscape="http://www.inkscape.org/namespaces/inkscape" aria-hidden="true" role="presentation" version="1.1" id="svg23" sodipodi:docname="managed-disks_COLOR.svg" width="100%" height="70" inkscape:version="0.92.2 (5c3e80d, 2017-08-06)" preserveAspectRatio="xMidYMid meet"><metadata id="metadata29"><rdf:RDF><cc:Work rdf:about=""><dc:format>image/svg+xml</dc:format><dc:type rdf:resource="http://purl.org/dc/dcmitype/StillImage" /></cc:Work></rdf:RDF></metadata><defs id="defs27" /><sodipodi:namedview pagecolor="#FFFFFF" bordercolor="#0075CC" borderopacity="1" objecttolerance="10" gridtolerance="10" guidetolerance="10" inkscape:pageopacity="0" inkscape:pageshadow="2" inkscape:window-width="640" inkscape:window-height="480" id="namedview25" showgrid="false" inkscape:zoom="2.36" inkscape:cx="50" inkscape:cy="75.685" inkscape:window-x="0" inkscape:window-y="0" inkscape:window-maximized="0" inkscape:current-layer="svg23" /><svg id="svg-managed-disks" version="1.1" width="100%" height="100%"><path d="m 147.846,98.912 c 0,14.788 -33.1,26.773 -73.925,26.773 C 33.096,125.685 0,113.7 0,98.912 v -14.43 h 147.846 z" id="path2" inkscape:connector-curvature="0" style="fill:#0066B2" /><path d="m 147.846,84.482 c 0,14.788 -33.1,26.773 -73.925,26.773 C 33.096,111.255 0,99.267 0,84.482 0,69.697 33.1,57.709 73.925,57.709 c 40.825,0 73.925,11.985 73.925,26.773" id="path4" inkscape:connector-curvature="0" style="fill:#39ABFF" /><path d="m 97.615,82.941 c 0,3.933 -10.61,7.118 -23.7,7.118 -13.09,0 -23.7,-3.185 -23.7,-7.118 0,-3.933 10.613,-7.118 23.7,-7.118 13.087,0 23.7,3.185 23.7,7.118" id="path6" inkscape:connector-curvature="0" style="fill:#0066B2" /><path d="M 127.357,65.992 C 117,62.068 103.393,59.282 88.091,58.206 L 78.5,75.96 a 54.679,54.679 0 0 1 12.2,1.958 z" style="opacity:0.25;isolation:isolate;fill:#FFFFFF" id="path8" inkscape:connector-curvature="0" /><path d="m 17.447,101.751 c 10.648,4.563 25.424,7.815 42.25,9 L 70.913,90 A 60.208,60.208 0 0 1 58.588,88.368 Z" style="opacity:0.25;isolation:isolate;fill:#FFFFFF" id="path10" inkscape:connector-curvature="0" /><path d="m 147.846,41.2 c 0,14.788 -33.1,26.773 -73.925,26.773 C 33.096,67.973 0,55.991 0,41.2 V 26.773 h 147.846 z" id="path12" inkscape:connector-curvature="0" style="fill:#004980" /><path d="m 147.846,26.773 c 0,14.788 -33.1,26.773 -73.925,26.773 C 33.096,53.546 0,41.561 0,26.773 0,11.985 33.093,0 73.921,0 c 40.828,0 73.925,11.988 73.925,26.773" id="path14" inkscape:connector-curvature="0" style="fill:#007DDA" /><path d="m 97.615,25.232 c 0,3.933 -10.61,7.118 -23.7,7.118 -13.09,0 -23.7,-3.185 -23.7,-7.118 0,-3.933 10.613,-7.118 23.7,-7.118 13.087,0 23.7,3.188 23.7,7.118" id="path16" inkscape:connector-curvature="0" style="fill:#004980" /><path d="M 127.357,8.43 C 117,4.506 103.393,1.721 88.091,0.645 L 78.5,18.4 a 54.679,54.679 0 0 1 12.2,1.958 z" style="opacity:0.25;isolation:isolate;fill:#FFFFFF" id="path18" inkscape:connector-curvature="0" /><path d="m 17.447,44.19 c 10.648,4.563 25.424,7.815 42.25,9 L 70.913,32.436 A 60.208,60.208 0 0 1 58.588,30.8 Z" style="opacity:0.25;isolation:isolate;fill:#FFFFFF" id="path20" inkscape:connector-curvature="0" /></svg></svg>