<?xml version="1.0" encoding="UTF-8"?>
<svg xmlns="http://www.w3.org/2000/svg" xmlns:xlink="http://www.w3.org/1999/xlink" width="70pt" height="70pt" viewBox="0 0 70 70" version="1.1">
<defs>
<linearGradient id="linear0" gradientUnits="userSpaceOnUse" x1="9" y1="15.799" x2="9" y2="5.316" gradientTransform="matrix(3.888889,0,0,3.888889,0,0)">
<stop offset="0" style="stop-color:rgb(65.098039%,47.843137%,95.686275%);stop-opacity:1;"/>
<stop offset="0.775" style="stop-color:rgb(71.764706%,58.823529%,97.647059%);stop-opacity:1;"/>
</linearGradient>
<filter id="alpha" filterUnits="objectBoundingBox" x="0%" y="0%" width="100%" height="100%">
  <feColorMatrix type="matrix" in="SourceGraphic" values="0 0 0 0 1 0 0 0 0 1 0 0 0 0 1 0 0 0 1 0"/>
</filter>
<mask id="mask0">
  <g filter="url(#alpha)">
<rect x="0" y="0" width="70" height="70" style="fill:rgb(0%,0%,0%);fill-opacity:0.74902;stroke:none;"/>
  </g>
</mask>
<clipPath id="clip1">
  <rect x="0" y="0" width="70" height="70"/>
</clipPath>
<g id="surface5" clip-path="url(#clip1)">
<path style=" stroke:none;fill-rule:nonzero;fill:rgb(100%,100%,100%);fill-opacity:1;" d="M 28.902344 25.023438 L 41.09375 25.023438 C 41.683594 25.023438 42.160156 25.503906 42.160156 26.089844 L 42.160156 54.808594 C 42.160156 55.398438 41.683594 55.875 41.09375 55.875 L 28.902344 55.875 C 28.3125 55.875 27.835938 55.398438 27.835938 54.808594 L 27.835938 26.089844 C 27.835938 25.503906 28.3125 25.023438 28.902344 25.023438 Z M 28.902344 25.023438 "/>
</g>
<mask id="mask1">
  <g filter="url(#alpha)">
<rect x="0" y="0" width="70" height="70" style="fill:rgb(0%,0%,0%);fill-opacity:0.501961;stroke:none;"/>
  </g>
</mask>
<clipPath id="clip2">
  <rect x="0" y="0" width="70" height="70"/>
</clipPath>
<g id="surface8" clip-path="url(#clip2)">
<path style=" stroke:none;fill-rule:nonzero;fill:rgb(100%,100%,100%);fill-opacity:1;" d="M 46.535156 25.023438 L 58.726563 25.023438 C 59.316406 25.023438 59.792969 25.503906 59.792969 26.089844 L 59.792969 54.808594 C 59.792969 55.398438 59.316406 55.875 58.726563 55.875 L 46.535156 55.875 C 45.945313 55.875 45.46875 55.398438 45.46875 54.808594 L 45.46875 26.089844 C 45.46875 25.503906 45.945313 25.023438 46.535156 25.023438 Z M 46.535156 25.023438 "/>
</g>
</defs>
<g id="surface1">
<path style=" stroke:none;fill-rule:nonzero;fill:url(#linear0);" d="M 2.117188 20.671875 L 67.882813 20.671875 L 67.882813 59.242188 C 67.882813 60.457031 66.902344 61.441406 65.6875 61.441406 L 4.3125 61.441406 C 3.097656 61.441406 2.117188 60.457031 2.117188 59.242188 Z M 2.117188 20.671875 "/>
<path style=" stroke:none;fill-rule:nonzero;fill:rgb(46.666667%,22.745098%,86.27451%);fill-opacity:1;" d="M 4.324219 8.554688 L 65.675781 8.554688 C 66.890625 8.554688 67.871094 9.539063 67.871094 10.753906 L 67.871094 20.667969 L 2.128906 20.667969 L 2.128906 10.757813 C 2.125 10.171875 2.355469 9.613281 2.769531 9.199219 C 3.179688 8.789063 3.742188 8.554688 4.324219 8.554688 Z M 4.324219 8.554688 "/>
<path style=" stroke:none;fill-rule:nonzero;fill:rgb(100%,100%,100%);fill-opacity:1;" d="M 11.273438 25.023438 L 23.464844 25.023438 C 24.054688 25.023438 24.53125 25.503906 24.53125 26.089844 L 24.53125 54.808594 C 24.53125 55.398438 24.054688 55.875 23.464844 55.875 L 11.273438 55.875 C 10.683594 55.875 10.207031 55.398438 10.207031 54.808594 L 10.207031 26.089844 C 10.207031 25.503906 10.683594 25.023438 11.273438 25.023438 Z M 11.273438 25.023438 "/>
<use xlink:href="#surface5" mask="url(#mask0)"/>
<use xlink:href="#surface8" mask="url(#mask1)"/>
</g>
</svg>
