<?xml version="1.0" encoding="UTF-8"?>
<svg xmlns="http://www.w3.org/2000/svg" xmlns:xlink="http://www.w3.org/1999/xlink" width="70pt" height="55pt" viewBox="0 0 70 55" version="1.1">
<g id="surface1">
<path style=" stroke:none;fill-rule:nonzero;fill:rgb(22.352941%,60%,77.647059%);fill-opacity:1;" d="M 41.371094 5.640625 L 39.339844 2.160156 C 38.570313 0.835938 37.101563 0 35.558594 0 L 4.339844 0 C 1.960938 0 0 1.949219 0 4.316406 L 0 6.542969 L 42.140625 6.542969 C 41.789063 6.335938 41.578125 5.988281 41.371094 5.640625 Z M 41.371094 5.640625 "/>
<path style=" stroke:none;fill-rule:nonzero;fill:rgb(34.901961%,70.588235%,85.098039%);fill-opacity:1;" d="M 67.269531 8.773438 L 0 8.773438 L 0 50.335938 C 0 52.703125 1.960938 54.652344 4.339844 54.652344 L 65.660156 54.652344 C 68.039063 54.652344 70 52.703125 70 50.335938 L 70 12.742188 C 70 11 68.878906 9.46875 67.269531 8.773438 Z M 43.890625 29.660156 L 31.5 47.273438 C 31.359375 47.410156 31.21875 47.550781 31.011719 47.550781 C 30.941406 47.550781 30.800781 47.550781 30.730469 47.480469 C 30.449219 47.339844 30.308594 47.0625 30.449219 46.785156 L 33.671875 36.273438 L 26.460938 36.273438 C 26.25 36.273438 26.039063 36.132813 25.898438 35.925781 C 25.828125 35.714844 25.828125 35.507813 25.96875 35.296875 L 38.011719 17.890625 C 38.148438 17.753906 38.289063 17.613281 38.5 17.613281 C 38.570313 17.613281 38.640625 17.613281 38.78125 17.683594 C 39.058594 17.824219 39.199219 18.101563 39.058594 18.378906 L 35.980469 28.683594 L 43.398438 28.683594 C 43.75 28.683594 44.03125 28.960938 44.03125 29.308594 C 44.03125 29.449219 43.960938 29.519531 43.890625 29.660156 Z M 43.890625 29.660156 "/>
</g>
</svg>
