<?xml version="1.0" encoding="UTF-8"?>
<svg xmlns="http://www.w3.org/2000/svg" xmlns:xlink="http://www.w3.org/1999/xlink" width="70pt" height="70pt" viewBox="0 0 70 70" version="1.1">
<defs>
<filter id="alpha" filterUnits="objectBoundingBox" x="0%" y="0%" width="100%" height="100%">
  <feColorMatrix type="matrix" in="SourceGraphic" values="0 0 0 0 1 0 0 0 0 1 0 0 0 0 1 0 0 0 1 0"/>
</filter>
<mask id="mask0">
  <g filter="url(#alpha)">
<rect x="0" y="0" width="70" height="70" style="fill:rgb(0,0,0);fill-opacity:0.2;stroke:none;"/>
  </g>
</mask>
<clipPath id="clip1">
  <rect x="0" y="0" width="70" height="70"/>
</clipPath>
<g id="surface5" clip-path="url(#clip1)">
<path style=" stroke:none;fill-rule:nonzero;fill:rgb(0,33,58);fill-opacity:1;" d="M 7 47.601563 C 7 49.144531 5.746094 50.398438 4.199219 50.398438 C 2.652344 50.398438 1.398438 49.144531 1.398438 47.601563 L 1.398438 1.398438 L 21.070313 1.398438 L 28 8.398438 L 58.800781 8.398438 L 58.800781 12.601563 L 7 12.601563 Z M 7 47.601563 "/>
</g>
<mask id="mask1">
  <g filter="url(#alpha)">
<rect x="0" y="0" width="70" height="70" style="fill:rgb(0,0,0);fill-opacity:0.4;stroke:none;"/>
  </g>
</mask>
<clipPath id="clip2">
  <rect x="0" y="0" width="70" height="70"/>
</clipPath>
<g id="surface8" clip-path="url(#clip2)">
<path style=" stroke:none;fill-rule:nonzero;fill:rgb(255,255,255);fill-opacity:1;" d="M 14 22.398438 L 61.601563 22.398438 L 61.601563 50.398438 L 12.601563 50.398438 L 12.601563 23.800781 C 12.601563 23.027344 13.226563 22.398438 14 22.398438 Z M 14 22.398438 "/>
</g>
</defs>
<g id="surface1">
<path style=" stroke:none;fill-rule:nonzero;fill:rgb(191,227,255);fill-opacity:1;" d="M 4.199219 50.398438 C 2.652344 50.398438 1.398438 49.144531 1.398438 47.601563 L 1.398438 1.398438 L 21.070313 1.398438 L 28 8.398438 L 58.800781 8.398438 L 58.800781 12.601563 L 61.601563 12.601563 L 61.601563 47.472656 C 61.601563 49.089844 60.292969 50.398438 58.679688 50.398438 Z M 4.199219 50.398438 "/>
<use xlink:href="#surface5" mask="url(#mask0)"/>
<use xlink:href="#surface8" mask="url(#mask1)"/>
<path style=" stroke:none;fill-rule:nonzero;fill:rgb(63,173,255);fill-opacity:1;" d="M 67.199219 23.800781 L 15.398438 23.800781 C 14.625 23.800781 14 24.425781 14 25.199219 L 14 36.398438 C 14 37.171875 14.625 37.800781 15.398438 37.800781 L 67.199219 37.800781 C 67.972656 37.800781 68.601563 37.171875 68.601563 36.398438 L 68.601563 25.199219 C 68.601563 24.425781 67.972656 23.800781 67.199219 23.800781 Z M 67.199219 23.800781 "/>
<path style=" stroke:none;fill-rule:nonzero;fill:rgb(0,102,178);fill-opacity:1;" d="M 63.699219 26.601563 L 65.101563 26.601563 C 65.488281 26.601563 65.800781 26.914063 65.800781 27.300781 L 65.800781 28.699219 C 65.800781 29.085938 65.488281 29.398438 65.101563 29.398438 L 63.699219 29.398438 C 63.3125 29.398438 63 29.085938 63 28.699219 L 63 27.300781 C 63 26.914063 63.3125 26.601563 63.699219 26.601563 Z M 63.699219 26.601563 "/>
<path style=" stroke:none;fill-rule:nonzero;fill:rgb(0,102,178);fill-opacity:1;" d="M 63.699219 32.199219 L 65.101563 32.199219 C 65.488281 32.199219 65.800781 32.511719 65.800781 32.898438 L 65.800781 34.300781 C 65.800781 34.6875 65.488281 35 65.101563 35 L 63.699219 35 C 63.3125 35 63 34.6875 63 34.300781 L 63 32.898438 C 63 32.511719 63.3125 32.199219 63.699219 32.199219 Z M 63.699219 32.199219 "/>
<path style=" stroke:none;fill-rule:nonzero;fill:rgb(63,173,255);fill-opacity:1;" d="M 67.199219 39.199219 L 15.398438 39.199219 C 14.625 39.199219 14 39.828125 14 40.601563 L 14 51.800781 C 14 52.574219 14.625 53.199219 15.398438 53.199219 L 67.199219 53.199219 C 67.972656 53.199219 68.601563 52.574219 68.601563 51.800781 L 68.601563 40.601563 C 68.601563 39.828125 67.972656 39.199219 67.199219 39.199219 Z M 67.199219 39.199219 "/>
<path style=" stroke:none;fill-rule:nonzero;fill:rgb(0,102,178);fill-opacity:1;" d="M 63.699219 42 L 65.101563 42 C 65.488281 42 65.800781 42.3125 65.800781 42.699219 L 65.800781 44.101563 C 65.800781 44.488281 65.488281 44.800781 65.101563 44.800781 L 63.699219 44.800781 C 63.3125 44.800781 63 44.488281 63 44.101563 L 63 42.699219 C 63 42.3125 63.3125 42 63.699219 42 Z M 63.699219 42 "/>
<path style=" stroke:none;fill-rule:nonzero;fill:rgb(0,102,178);fill-opacity:1;" d="M 63.699219 47.601563 L 65.101563 47.601563 C 65.488281 47.601563 65.800781 47.914063 65.800781 48.300781 L 65.800781 49.699219 C 65.800781 50.085938 65.488281 50.398438 65.101563 50.398438 L 63.699219 50.398438 C 63.3125 50.398438 63 50.085938 63 49.699219 L 63 48.300781 C 63 47.914063 63.3125 47.601563 63.699219 47.601563 Z M 63.699219 47.601563 "/>
<path style=" stroke:none;fill-rule:nonzero;fill:rgb(63,173,255);fill-opacity:1;" d="M 67.199219 54.601563 L 15.398438 54.601563 C 14.625 54.601563 14 55.226563 14 56 L 14 67.199219 C 14 67.972656 14.625 68.601563 15.398438 68.601563 L 67.199219 68.601563 C 67.972656 68.601563 68.601563 67.972656 68.601563 67.199219 L 68.601563 56 C 68.601563 55.226563 67.972656 54.601563 67.199219 54.601563 Z M 67.199219 54.601563 "/>
<path style=" stroke:none;fill-rule:nonzero;fill:rgb(0,102,178);fill-opacity:1;" d="M 63.699219 57.398438 L 65.101563 57.398438 C 65.488281 57.398438 65.800781 57.714844 65.800781 58.101563 L 65.800781 59.5 C 65.800781 59.886719 65.488281 60.199219 65.101563 60.199219 L 63.699219 60.199219 C 63.3125 60.199219 63 59.886719 63 59.5 L 63 58.101563 C 63 57.714844 63.3125 57.398438 63.699219 57.398438 Z M 63.699219 57.398438 "/>
<path style=" stroke:none;fill-rule:nonzero;fill:rgb(0,102,178);fill-opacity:1;" d="M 63.699219 63 L 65.101563 63 C 65.488281 63 65.800781 63.3125 65.800781 63.699219 L 65.800781 65.101563 C 65.800781 65.488281 65.488281 65.800781 65.101563 65.800781 L 63.699219 65.800781 C 63.3125 65.800781 63 65.488281 63 65.101563 L 63 63.699219 C 63 63.3125 63.3125 63 63.699219 63 Z M 63.699219 63 "/>
</g>
</svg>
