<?xml version="1.0" encoding="UTF-8"?>
<svg xmlns="http://www.w3.org/2000/svg" xmlns:xlink="http://www.w3.org/1999/xlink" width="70pt" height="59pt" viewBox="0 0 70 59" version="1.1">
<defs>
<clipPath id="clip1">
  <path d="M 0 39 L 69.929688 39 L 69.929688 58.851563 L 0 58.851563 Z M 0 39 "/>
</clipPath>
<clipPath id="clip2">
  <path d="M 0 27 L 69.929688 27 L 69.929688 53 L 0 53 Z M 0 27 "/>
</clipPath>
<clipPath id="clip3">
  <path d="M 0 0 L 69.929688 0 L 69.929688 58.851563 L 0 58.851563 Z M 0 0 "/>
</clipPath>
<filter id="alpha" filterUnits="objectBoundingBox" x="0%" y="0%" width="100%" height="100%">
  <feColorMatrix type="matrix" in="SourceGraphic" values="0 0 0 0 1 0 0 0 0 1 0 0 0 0 1 0 0 0 1 0"/>
</filter>
<mask id="mask0">
  <g filter="url(#alpha)">
<rect x="0" y="0" width="70" height="59" style="fill:rgb(0,0,0);fill-opacity:0.25098;stroke:none;"/>
  </g>
</mask>
<clipPath id="clip4">
  <rect x="0" y="0" width="70" height="59"/>
</clipPath>
<g id="surface5" clip-path="url(#clip4)">
<path style=" stroke:none;fill-rule:nonzero;fill:rgb(255,255,255);fill-opacity:1;" d="M 60.238281 30.902344 C 55.335938 29.0625 48.902344 27.757813 41.664063 27.253906 L 37.128906 35.570313 C 39.082031 35.65625 41.015625 35.964844 42.898438 36.484375 Z M 60.238281 30.902344 "/>
</g>
<mask id="mask1">
  <g filter="url(#alpha)">
<rect x="0" y="0" width="70" height="59" style="fill:rgb(0,0,0);fill-opacity:0.25098;stroke:none;"/>
  </g>
</mask>
<clipPath id="clip5">
  <rect x="0" y="0" width="70" height="59"/>
</clipPath>
<g id="surface8" clip-path="url(#clip5)">
<path style=" stroke:none;fill-rule:nonzero;fill:rgb(255,255,255);fill-opacity:1;" d="M 8.253906 47.644531 C 13.289063 49.78125 20.277344 51.304688 28.234375 51.859375 L 33.539063 42.144531 C 31.574219 42.089844 29.621094 41.832031 27.710938 41.378906 Z M 8.253906 47.644531 "/>
</g>
<clipPath id="clip6">
  <path d="M 0 12 L 69.929688 12 L 69.929688 32 L 0 32 Z M 0 12 "/>
</clipPath>
<clipPath id="clip7">
  <path d="M 0 0 L 69.929688 0 L 69.929688 26 L 0 26 Z M 0 0 "/>
</clipPath>
<clipPath id="clip8">
  <path d="M 0 0 L 69.929688 0 L 69.929688 58.851563 L 0 58.851563 Z M 0 0 "/>
</clipPath>
<mask id="mask2">
  <g filter="url(#alpha)">
<rect x="0" y="0" width="70" height="59" style="fill:rgb(0,0,0);fill-opacity:0.25098;stroke:none;"/>
  </g>
</mask>
<clipPath id="clip9">
  <rect x="0" y="0" width="70" height="59"/>
</clipPath>
<g id="surface11" clip-path="url(#clip9)">
<path style=" stroke:none;fill-rule:nonzero;fill:rgb(255,255,255);fill-opacity:1;" d="M 60.238281 3.949219 C 55.335938 2.109375 48.902344 0.804688 41.664063 0.300781 L 37.128906 8.617188 C 39.082031 8.703125 41.015625 9.011719 42.898438 9.53125 Z M 60.238281 3.949219 "/>
</g>
<mask id="mask3">
  <g filter="url(#alpha)">
<rect x="0" y="0" width="70" height="59" style="fill:rgb(0,0,0);fill-opacity:0.25098;stroke:none;"/>
  </g>
</mask>
<clipPath id="clip10">
  <rect x="0" y="0" width="70" height="59"/>
</clipPath>
<g id="surface14" clip-path="url(#clip10)">
<path style=" stroke:none;fill-rule:nonzero;fill:rgb(255,255,255);fill-opacity:1;" d="M 8.253906 20.691406 C 13.289063 22.828125 20.277344 24.351563 28.234375 24.90625 L 33.539063 15.1875 C 31.574219 15.132813 29.621094 14.875 27.710938 14.421875 Z M 8.253906 20.691406 "/>
</g>
</defs>
<g id="surface1">
<g clip-path="url(#clip1)" clip-rule="nonzero">
<path style=" stroke:none;fill-rule:nonzero;fill:rgb(0,102,178);fill-opacity:1;" d="M 69.925781 46.316406 C 69.925781 53.242188 54.273438 58.851563 34.960938 58.851563 C 15.652344 58.851563 0 53.242188 0 46.316406 L 0 39.558594 L 69.925781 39.558594 Z M 69.925781 46.316406 "/>
</g>
<g clip-path="url(#clip2)" clip-rule="nonzero">
<path style=" stroke:none;fill-rule:nonzero;fill:rgb(57,171,255);fill-opacity:1;" d="M 69.925781 39.558594 C 69.925781 46.484375 54.273438 52.09375 34.960938 52.09375 C 15.652344 52.09375 0 46.480469 0 39.558594 C 0 32.636719 15.65625 27.023438 34.964844 27.023438 C 54.273438 27.023438 69.929688 32.632813 69.929688 39.558594 "/>
</g>
<path style=" stroke:none;fill-rule:nonzero;fill:rgb(0,102,178);fill-opacity:1;" d="M 46.167969 38.835938 C 46.167969 40.679688 41.152344 42.171875 34.960938 42.171875 C 28.769531 42.171875 23.75 40.679688 23.75 38.835938 C 23.75 36.996094 28.769531 35.503906 34.960938 35.503906 C 41.148438 35.503906 46.167969 36.996094 46.167969 38.835938 "/>
<g clip-path="url(#clip3)" clip-rule="nonzero">
<use xlink:href="#surface5" mask="url(#mask0)"/>
<use xlink:href="#surface8" mask="url(#mask1)"/>
</g>
<g clip-path="url(#clip6)" clip-rule="nonzero">
<path style=" stroke:none;fill-rule:nonzero;fill:rgb(0,73,128);fill-opacity:1;" d="M 69.925781 19.292969 C 69.925781 26.214844 54.273438 31.828125 34.960938 31.828125 C 15.652344 31.828125 0 26.21875 0 19.292969 L 0 12.535156 L 69.925781 12.535156 Z M 69.925781 19.292969 "/>
</g>
<g clip-path="url(#clip7)" clip-rule="nonzero">
<path style=" stroke:none;fill-rule:nonzero;fill:rgb(0,125,218);fill-opacity:1;" d="M 69.925781 12.535156 C 69.925781 19.460938 54.273438 25.074219 34.960938 25.074219 C 15.652344 25.074219 0 19.460938 0 12.535156 C 0 5.613281 15.652344 0 34.960938 0 C 54.273438 0 69.925781 5.613281 69.925781 12.535156 "/>
</g>
<path style=" stroke:none;fill-rule:nonzero;fill:rgb(0,73,128);fill-opacity:1;" d="M 46.167969 11.816406 C 46.167969 13.65625 41.152344 15.148438 34.960938 15.148438 C 28.769531 15.148438 23.75 13.65625 23.75 11.816406 C 23.75 9.972656 28.769531 8.480469 34.960938 8.480469 C 41.148438 8.480469 46.167969 9.976563 46.167969 11.816406 "/>
<g clip-path="url(#clip8)" clip-rule="nonzero">
<use xlink:href="#surface11" mask="url(#mask2)"/>
<use xlink:href="#surface14" mask="url(#mask3)"/>
</g>
</g>
</svg>
