<?xml version="1.0" encoding="UTF-8"?>
<svg xmlns="http://www.w3.org/2000/svg" xmlns:xlink="http://www.w3.org/1999/xlink" width="70pt" height="70pt" viewBox="0 0 70 70" version="1.1">
<defs>
<filter id="alpha" filterUnits="objectBoundingBox" x="0%" y="0%" width="100%" height="100%">
  <feColorMatrix type="matrix" in="SourceGraphic" values="0 0 0 0 1 0 0 0 0 1 0 0 0 0 1 0 0 0 1 0"/>
</filter>
<mask id="mask0">
  <g filter="url(#alpha)">
<rect x="0" y="0" width="70" height="70" style="fill:rgb(0,0,0);fill-opacity:0.101961;stroke:none;"/>
  </g>
</mask>
<clipPath id="clip1">
  <rect x="0" y="0" width="70" height="70"/>
</clipPath>
<g id="surface5" clip-path="url(#clip1)">
<path style=" stroke:none;fill-rule:nonzero;fill:rgb(255,255,255);fill-opacity:1;" d="M 58.03125 51.800781 C 54.902344 51.800781 52.207031 50.464844 50.976563 48.542969 C 50.703125 48.117188 50.09375 48.113281 49.820313 48.539063 C 48.578125 50.464844 45.859375 51.800781 42.699219 51.800781 C 39.539063 51.800781 36.816406 50.460938 35.578125 48.535156 C 35.304688 48.109375 34.695313 48.109375 34.421875 48.535156 C 33.183594 50.460938 30.460938 51.800781 27.300781 51.800781 C 24.144531 51.800781 21.425781 50.46875 20.183594 48.546875 C 19.910156 48.121094 19.300781 48.121094 19.027344 48.550781 C 17.804688 50.46875 15.136719 51.800781 12.039063 51.800781 C 9.953125 51.800781 8.0625 51.195313 6.675781 50.214844 C 6.222656 49.894531 5.601563 50.25 5.601563 50.804688 L 5.601563 64.398438 L 64.398438 64.398438 L 64.398438 49.402344 C 62.996094 50.851563 60.667969 51.800781 58.03125 51.800781 Z M 58.03125 51.800781 "/>
</g>
<mask id="mask1">
  <g filter="url(#alpha)">
<rect x="0" y="0" width="70" height="70" style="fill:rgb(0,0,0);fill-opacity:0.2;stroke:none;"/>
  </g>
</mask>
<clipPath id="clip2">
  <rect x="0" y="0" width="70" height="70"/>
</clipPath>
<g id="surface8" clip-path="url(#clip2)">
<path style=" stroke:none;fill-rule:nonzero;fill:rgb(255,255,255);fill-opacity:1;" d="M 58.03125 51.800781 C 54.902344 51.800781 52.207031 50.464844 50.976563 48.542969 C 50.703125 48.117188 50.09375 48.113281 49.820313 48.539063 C 48.578125 50.464844 45.859375 51.800781 42.699219 51.800781 C 39.539063 51.800781 36.816406 50.460938 35.578125 48.535156 C 35.304688 48.109375 34.695313 48.109375 34.421875 48.535156 C 33.183594 50.460938 30.460938 51.800781 27.300781 51.800781 C 24.144531 51.800781 21.425781 50.46875 20.183594 48.546875 C 19.910156 48.121094 19.300781 48.121094 19.027344 48.550781 C 17.804688 50.46875 15.136719 51.800781 12.039063 51.800781 C 9.953125 51.800781 8.0625 51.195313 6.675781 50.214844 C 6.222656 49.894531 5.601563 50.25 5.601563 50.804688 L 5.601563 53.464844 C 6.976563 54.992188 9.34375 56 12.039063 56 C 15.800781 56 18.929688 54.039063 19.601563 51.445313 C 20.285156 54.039063 23.46875 56 27.300781 56 C 31.132813 56 34.316406 54.035156 35 51.4375 C 35.683594 54.035156 38.867188 56 42.699219 56 C 46.53125 56 49.714844 54.035156 50.398438 51.441406 C 51.078125 54.035156 54.234375 56 58.03125 56 C 60.667969 56 62.996094 55.050781 64.398438 53.601563 L 64.398438 49.402344 C 62.996094 50.851563 60.667969 51.800781 58.03125 51.800781 Z M 58.03125 51.800781 "/>
</g>
<mask id="mask2">
  <g filter="url(#alpha)">
<rect x="0" y="0" width="70" height="70" style="fill:rgb(0,0,0);fill-opacity:0.2;stroke:none;"/>
  </g>
</mask>
<clipPath id="clip3">
  <rect x="0" y="0" width="70" height="70"/>
</clipPath>
<g id="surface11" clip-path="url(#clip3)">
<path style=" stroke:none;fill-rule:nonzero;fill:rgb(255,255,255);fill-opacity:1;" d="M 58.03125 30.800781 C 54.902344 30.800781 52.207031 29.464844 50.976563 27.542969 C 50.703125 27.117188 50.09375 27.113281 49.820313 27.539063 C 48.578125 29.464844 45.859375 30.800781 42.699219 30.800781 C 39.539063 30.800781 36.816406 29.460938 35.578125 27.535156 C 35.304688 27.109375 34.695313 27.109375 34.421875 27.535156 C 33.183594 29.460938 30.460938 30.800781 27.300781 30.800781 C 24.144531 30.800781 21.425781 29.46875 20.183594 27.546875 C 19.910156 27.121094 19.300781 27.121094 19.027344 27.550781 C 17.804688 29.46875 15.136719 30.800781 12.039063 30.800781 C 9.953125 30.800781 8.0625 30.195313 6.675781 29.214844 C 6.222656 28.894531 5.601563 29.25 5.601563 29.804688 L 5.601563 32.464844 C 6.976563 33.992188 9.34375 35 12.039063 35 C 15.800781 35 18.929688 33.039063 19.601563 30.445313 C 20.285156 33.039063 23.46875 35 27.300781 35 C 31.132813 35 34.316406 33.035156 35 30.4375 C 35.683594 33.035156 38.867188 35 42.699219 35 C 46.53125 35 49.714844 33.035156 50.398438 30.441406 C 51.078125 33.035156 54.234375 35 58.03125 35 C 60.667969 35 62.996094 34.050781 64.398438 32.601563 L 64.398438 28.402344 C 62.996094 29.851563 60.667969 30.800781 58.03125 30.800781 Z M 58.03125 30.800781 "/>
</g>
</defs>
<g id="surface1">
<path style=" stroke:none;fill-rule:nonzero;fill:rgb(0,71,124);fill-opacity:1;" d="M 61.601563 70 L 8.398438 70 C 3.761719 70 0 66.238281 0 61.601563 L 0 11.199219 L 70 11.199219 L 70 61.601563 C 70 66.238281 66.238281 70 61.601563 70 Z M 61.601563 70 "/>
<path style=" stroke:none;fill-rule:nonzero;fill:rgb(0,112,196);fill-opacity:1;" d="M 58.03125 51.800781 C 54.902344 51.800781 52.207031 50.464844 50.976563 48.542969 C 50.703125 48.117188 50.09375 48.113281 49.820313 48.539063 C 48.578125 50.464844 45.859375 51.800781 42.699219 51.800781 C 39.539063 51.800781 36.816406 50.460938 35.578125 48.535156 C 35.304688 48.109375 34.695313 48.109375 34.421875 48.535156 C 33.183594 50.460938 30.460938 51.800781 27.300781 51.800781 C 24.144531 51.800781 21.425781 50.46875 20.183594 48.546875 C 19.910156 48.121094 19.300781 48.121094 19.027344 48.550781 C 17.804688 50.46875 15.136719 51.800781 12.039063 51.800781 C 9.953125 51.800781 8.0625 51.195313 6.675781 50.214844 C 6.222656 49.894531 5.601563 50.25 5.601563 50.804688 L 5.601563 64.398438 L 64.398438 64.398438 L 64.398438 49.402344 C 62.996094 50.851563 60.667969 51.800781 58.03125 51.800781 Z M 58.03125 51.800781 "/>
<use xlink:href="#surface5" mask="url(#mask0)"/>
<use xlink:href="#surface8" mask="url(#mask1)"/>
<path style=" stroke:none;fill-rule:nonzero;fill:rgb(57,171,255);fill-opacity:1;" d="M 58.03125 9.800781 C 54.902344 9.800781 52.207031 8.464844 50.976563 6.542969 C 50.703125 6.117188 50.09375 6.113281 49.820313 6.539063 C 48.578125 8.464844 45.859375 9.800781 42.699219 9.800781 C 39.539063 9.800781 36.816406 8.460938 35.578125 6.535156 C 35.304688 6.109375 34.695313 6.109375 34.421875 6.535156 C 33.183594 8.460938 30.460938 9.800781 27.300781 9.800781 C 24.144531 9.800781 21.425781 8.46875 20.183594 6.546875 C 19.910156 6.121094 19.300781 6.121094 19.027344 6.550781 C 17.804688 8.46875 15.136719 9.800781 12.039063 9.800781 C 9.953125 9.800781 8.0625 9.195313 6.675781 8.214844 C 6.222656 7.894531 5.601563 8.25 5.601563 8.804688 L 5.601563 22.398438 L 64.398438 22.398438 L 64.398438 8.886719 C 64.398438 8.339844 63.785156 7.984375 63.332031 8.289063 C 61.945313 9.226563 60.082031 9.800781 58.03125 9.800781 Z M 58.03125 9.800781 "/>
<path style=" stroke:none;fill-rule:nonzero;fill:rgb(115,195,255);fill-opacity:1;" d="M 58.03125 30.800781 C 54.902344 30.800781 52.207031 29.464844 50.976563 27.542969 C 50.703125 27.117188 50.09375 27.113281 49.820313 27.539063 C 48.578125 29.464844 45.859375 30.800781 42.699219 30.800781 C 39.539063 30.800781 36.816406 29.460938 35.578125 27.535156 C 35.304688 27.109375 34.695313 27.109375 34.421875 27.535156 C 33.183594 29.460938 30.460938 30.800781 27.300781 30.800781 C 24.144531 30.800781 21.425781 29.46875 20.183594 27.546875 C 19.910156 27.121094 19.300781 27.121094 19.027344 27.550781 C 17.804688 29.46875 15.136719 30.800781 12.039063 30.800781 C 9.953125 30.800781 8.0625 30.195313 6.675781 29.214844 C 6.222656 28.894531 5.601563 29.25 5.601563 29.804688 L 5.601563 43.398438 L 64.398438 43.398438 L 64.398438 28.402344 C 62.996094 29.851563 60.667969 30.800781 58.03125 30.800781 Z M 58.03125 30.800781 "/>
<use xlink:href="#surface11" mask="url(#mask2)"/>
</g>
</svg>
