<?xml version="1.0" encoding="utf-8"?><svg version="1.1" xmlns="http://www.w3.org/2000/svg" xmlns:xlink="http://www.w3.org/1999/xlink" xmlns:xml="http://www.w3.org/XML/1998/namespace" width="70" height="70" viewBox="0, 0, 18, 18"><defs><linearGradient x1="9" y1="15.799" x2="9" y2="5.316" gradientUnits="userSpaceOnUse" id="b761c5df-7d35-45ec-bc23-be885bc53266"><stop offset="0%" stop-color="#2FA6FF" /><stop offset="77.5%" stop-color="#4FB4FF" /></linearGradient></defs><title>MsPortalFx.base.images-1</title><g id="f7bf1580-21b3-4768-930f-6670371e2655"><g><path d="M0.544 5.316 H17.456 a0 0 0 0 1 0 0 v9.918 a0.565 0.565 0 0 1 -0.565 0.565 H1.109 a0.565 0.565 0 0 1 -0.565 -0.565 V5.316 A0 0 0 0 1 0.544 5.316 Z" style="fill:url(#b761c5df-7d35-45ec-bc23-be885bc53266);" /><path d="M1.112 2.2 H16.888 a0.565 0.565 0 0 1 0.565 0.565 v2.55 a0 0 0 0 1 0 0 H0.547 a0 0 0 0 1 0 0 V2.766 A0.565 0.565 0 0 1 1.112 2.2 Z" style="fill:#006CBC;" /><path d="M13.9 7.32 H9.715 a0.224 0.224 0 0 1 -0.125 -0.038 l-1.2 -0.795 a0.219 0.219 0 0 0 -0.124 -0.038 H4.752 a0.224 0.224 0 0 0 -0.224 0.224 v7.392 a0.223 0.223 0 0 0 0.224 0.223 H13.9 a0.224 0.224 0 0 0 0.224 -0.223 V7.544 A0.224 0.224 0 0 0 13.9 7.32 Z" style="fill:#29A4FF;" /><rect x="5.154" y="6.905" width="2.318" height="0.464" rx="0.098" style="fill:white;" /><rect x="5.154" y="6.905" width="0.464" height="0.464" rx="0.067" style="fill:#006CBC;" /><path d="M13.9 7.309 H9.3 a0.225 0.225 0 0 0 -0.159 0.066 l-0.739 0.739 a0.225 0.225 0 0 1 -0.159 0.066 H4.752 a0.224 0.224 0 0 0 -0.224 0.224 v5.65 a0.223 0.223 0 0 0 0.224 0.223 H13.9 a0.224 0.224 0 0 0 0.224 -0.223 V7.533 A0.224 0.224 0 0 0 13.9 7.309 Z" opacity="0.9" style="fill:white;" /></g></g></svg>