<?xml version="1.0" encoding="UTF-8"?>
<svg xmlns="http://www.w3.org/2000/svg" xmlns:xlink="http://www.w3.org/1999/xlink" width="70pt" height="60pt" viewBox="0 0 70 60" version="1.1">
<g id="surface1">
<path style=" stroke:none;fill-rule:nonzero;fill:rgb(0%,44.705882%,77.647059%);fill-opacity:1;" d="M 24.890625 20 L 24.890625 36.921875 L 35.777344 32.308594 L 35.777344 13.847656 Z M 34.222656 18.140625 L 34.222656 29.890625 L 31.890625 30.933594 L 31.890625 20.929688 L 28.777344 22.597656 L 28.777344 32.363281 L 26.445313 33.296875 L 26.445313 22.308594 L 31.890625 19.390625 L 31.890625 19.375 Z M 34.222656 18.140625 "/>
<path style=" stroke:none;fill-rule:nonzero;fill:rgb(0%,44.705882%,77.647059%);fill-opacity:1;" d="M 35.777344 13.847656 L 35.777344 32.308594 L 70 39.617188 L 70 26.152344 Z M 66.890625 29.230469 L 66.890625 36.921875 L 64.625 36.304688 L 64.625 28.304688 L 60.667969 27.078125 L 60.667969 35.382813 L 58.402344 34.769531 L 58.402344 26.152344 L 54.445313 24.921875 L 54.445313 33.847656 L 52.179688 33.230469 L 52.179688 24 L 48.222656 22.769531 L 48.222656 32.308594 L 45.957031 31.691406 L 45.957031 21.84375 L 41.605469 20.472656 L 41.613281 30.679688 L 38.890625 30 L 38.890625 18 L 45.109375 20.152344 L 48.222656 21.230469 L 51.332031 22.308594 L 52.890625 22.847656 L 58.886719 24.921875 L 60.667969 25.539063 L 63.777344 26.617188 L 66.890625 27.691406 Z M 66.890625 29.230469 "/>
<path style=" stroke:none;fill-rule:nonzero;fill:rgb(0%,44.705882%,77.647059%);fill-opacity:1;" d="M 35.777344 35.382813 L 35.777344 60 L 70 52.308594 L 70 41.921875 Z M 66.890625 50.628906 L 64.628906 51.003906 L 64.628906 44.324219 L 60.667969 43.8125 L 60.667969 51.890625 L 58.40625 52.265625 L 58.40625 43.523438 L 54.445313 43.003906 L 54.445313 53.144531 L 52.183594 53.523438 L 52.183594 42.714844 L 48.222656 42.199219 L 48.222656 54.40625 L 45.960938 54.78125 L 45.960938 41.914063 L 41.609375 41.414063 L 41.601563 55.828125 L 38.890625 56.292969 L 38.890625 39.261719 L 66.890625 43.460938 Z M 66.890625 50.628906 "/>
<path style=" stroke:none;fill-rule:nonzero;fill:rgb(0%,44.705882%,77.647059%);fill-opacity:1;" d="M 21.777344 18.214844 L 35.488281 10.464844 L 62.125 20.046875 C 61.359375 12.265625 54.730469 6.152344 46.667969 6.152344 C 44.785156 6.152344 42.949219 6.488281 41.191406 7.148438 C 37.664063 2.648438 32.242188 0 26.445313 0 C 16.152344 0 7.777344 8.28125 7.777344 18.460938 C 7.777344 18.640625 7.78125 18.816406 7.789063 18.992188 C 2.957031 21.738281 0 26.75 0 32.308594 C 0 40.789063 6.976563 47.691406 15.554688 47.691406 L 21.777344 47.691406 Z M 21.777344 18.214844 "/>
<path style=" stroke:none;fill-rule:nonzero;fill:rgb(0%,44.705882%,77.647059%);fill-opacity:1;" d="M 24.890625 39.617188 L 24.890625 53.847656 L 35.777344 60 L 35.777344 35.382813 Z M 34.222656 41.273438 L 34.222656 56.152344 L 31.890625 55 L 31.890625 42.035156 L 28.777344 43.046875 L 28.777344 53.457031 L 26.445313 52.308594 L 26.445313 42.269531 L 31.890625 40.496094 L 34.222656 39.738281 Z M 34.222656 41.273438 "/>
</g>
</svg>
