<?xml version="1.0" encoding="UTF-8"?>
<svg xmlns="http://www.w3.org/2000/svg" xmlns:xlink="http://www.w3.org/1999/xlink" width="70pt" height="70pt" viewBox="0 0 70 70" version="1.1">
<g id="surface1">
<path style=" stroke:none;fill-rule:nonzero;fill:rgb(0,112,196);fill-opacity:1;" d="M 32.046875 22.328125 L 21.339844 26.417969 L 21.339844 9.152344 L 32.046875 12.941406 Z M 32.046875 22.328125 "/>
<path style=" stroke:none;fill-rule:nonzero;fill:rgb(0,73,128);fill-opacity:1;" d="M 11.605469 11.992188 L 11.605469 23.332031 L 19.625 26.382813 L 19.625 9.152344 Z M 12.484375 22.507813 L 12.046875 22.375 L 12.046875 12.984375 L 12.484375 12.859375 L 12.941406 12.730469 L 13.429688 12.59375 L 13.429688 22.804688 L 12.941406 22.652344 Z M 14.496094 23.132813 L 13.945313 22.960938 L 13.945313 12.449219 L 14.496094 12.292969 L 15.074219 12.132813 L 15.695313 11.957031 L 15.695313 23.503906 L 15.074219 23.3125 Z M 17.070313 23.929688 L 16.359375 23.710938 L 16.359375 11.769531 L 17.070313 11.570313 L 17.828125 11.355469 L 18.648438 11.125 L 18.648438 24.417969 L 17.828125 24.164063 Z M 17.070313 23.929688 "/>
<path style=" stroke:none;fill-rule:nonzero;fill:rgb(0,112,196);fill-opacity:1;" d="M 57.105469 22.328125 L 46.398438 26.417969 L 46.398438 9.152344 L 57.105469 12.941406 Z M 57.105469 22.328125 "/>
<path style=" stroke:none;fill-rule:nonzero;fill:rgb(0,73,128);fill-opacity:1;" d="M 36.664063 11.992188 L 36.664063 23.332031 L 44.683594 26.382813 L 44.683594 9.152344 Z M 37.542969 22.507813 L 37.105469 22.375 L 37.105469 12.984375 L 37.542969 12.859375 L 38 12.730469 L 38.488281 12.59375 L 38.488281 22.804688 L 38 22.652344 Z M 39.554688 23.132813 L 39.003906 22.960938 L 39.003906 12.449219 L 39.554688 12.292969 L 40.132813 12.132813 L 40.753906 11.957031 L 40.753906 23.503906 L 40.132813 23.3125 Z M 42.128906 23.929688 L 41.417969 23.710938 L 41.417969 11.769531 L 42.128906 11.570313 L 42.886719 11.355469 L 43.707031 11.125 L 43.707031 24.417969 L 42.886719 24.164063 Z M 42.128906 23.929688 "/>
<path style=" stroke:none;fill-rule:nonzero;fill:rgb(0,112,196);fill-opacity:1;" d="M 32.046875 56.761719 L 21.339844 60.847656 L 21.339844 43.582031 L 32.046875 47.375 Z M 32.046875 56.761719 "/>
<path style=" stroke:none;fill-rule:nonzero;fill:rgb(0,73,128);fill-opacity:1;" d="M 11.605469 46.421875 L 11.605469 57.761719 L 19.625 60.8125 L 19.625 43.582031 Z M 12.484375 56.941406 L 12.046875 56.804688 L 12.046875 47.414063 L 12.484375 47.292969 L 12.941406 47.164063 L 13.429688 47.027344 L 13.429688 57.234375 L 12.941406 57.082031 Z M 14.496094 57.5625 L 13.945313 57.394531 L 13.945313 46.878906 L 14.496094 46.726563 L 15.074219 46.5625 L 15.695313 46.386719 L 15.695313 57.933594 L 15.074219 57.742188 Z M 17.070313 58.359375 L 16.359375 58.140625 L 16.359375 46.199219 L 17.070313 46 L 17.828125 45.785156 L 18.648438 45.554688 L 18.648438 58.847656 L 17.828125 58.59375 Z M 17.070313 58.359375 "/>
<path style=" stroke:none;fill-rule:nonzero;fill:rgb(0,112,196);fill-opacity:1;" d="M 57.105469 56.761719 L 46.398438 60.847656 L 46.398438 43.582031 L 57.105469 47.375 Z M 57.105469 56.761719 "/>
<path style=" stroke:none;fill-rule:nonzero;fill:rgb(0,73,128);fill-opacity:1;" d="M 36.664063 46.421875 L 36.664063 57.761719 L 44.683594 60.8125 L 44.683594 43.582031 Z M 37.542969 56.941406 L 37.105469 56.804688 L 37.105469 47.414063 L 37.542969 47.292969 L 38 47.164063 L 38.488281 47.027344 L 38.488281 57.234375 L 38 57.082031 Z M 39.554688 57.5625 L 39.003906 57.394531 L 39.003906 46.878906 L 39.554688 46.726563 L 40.132813 46.5625 L 40.753906 46.386719 L 40.753906 57.933594 L 40.132813 57.742188 Z M 42.128906 58.359375 L 41.417969 58.140625 L 41.417969 46.199219 L 42.128906 46 L 42.886719 45.785156 L 43.707031 45.554688 L 43.707031 58.847656 L 42.886719 58.59375 Z M 42.128906 58.359375 "/>
<path style=" stroke:none;fill-rule:nonzero;fill:rgb(0,112,196);fill-opacity:1;" d="M 45.382813 39.492188 L 34.675781 43.582031 L 34.675781 26.316406 L 45.382813 30.109375 Z M 45.382813 39.492188 "/>
<path style=" stroke:none;fill-rule:nonzero;fill:rgb(0,73,128);fill-opacity:1;" d="M 24.941406 29.15625 L 24.941406 40.496094 L 32.960938 43.546875 L 32.960938 26.316406 Z M 25.820313 39.675781 L 25.382813 39.539063 L 25.382813 30.148438 L 25.820313 30.027344 L 26.277344 29.898438 L 26.765625 29.761719 L 26.765625 39.96875 L 26.277344 39.816406 Z M 27.828125 40.296875 L 27.28125 40.128906 L 27.28125 29.617188 L 27.828125 29.460938 L 28.410156 29.296875 L 29.03125 29.121094 L 29.03125 40.671875 L 28.410156 40.476563 Z M 30.40625 41.09375 L 29.695313 40.875 L 29.695313 28.933594 L 30.40625 28.734375 L 31.164063 28.519531 L 31.984375 28.289063 L 31.984375 41.585938 L 31.164063 41.332031 Z M 30.40625 41.09375 "/>
<path style=" stroke:none;fill-rule:nonzero;fill:rgb(0,112,196);fill-opacity:1;" d="M 20.453125 39.492188 L 9.746094 43.582031 L 9.746094 26.316406 L 20.453125 30.109375 Z M 20.453125 39.492188 "/>
<path style=" stroke:none;fill-rule:nonzero;fill:rgb(0,73,128);fill-opacity:1;" d="M 0.0117188 29.15625 L 0.0117188 40.496094 L 8.03125 43.546875 L 8.03125 26.316406 Z M 0.890625 39.675781 L 0.453125 39.539063 L 0.453125 30.148438 L 0.890625 30.027344 L 1.347656 29.898438 L 1.835938 29.761719 L 1.835938 39.96875 L 1.347656 39.816406 Z M 2.898438 40.296875 L 2.351563 40.128906 L 2.351563 29.617188 L 2.898438 29.460938 L 3.480469 29.296875 L 4.101563 29.121094 L 4.101563 40.667969 L 3.480469 40.476563 Z M 5.476563 41.09375 L 4.765625 40.875 L 4.765625 28.933594 L 5.476563 28.734375 L 6.234375 28.519531 L 7.054688 28.289063 L 7.054688 41.585938 L 6.234375 41.332031 Z M 5.476563 41.09375 "/>
<path style=" stroke:none;fill-rule:nonzero;fill:rgb(0,112,196);fill-opacity:1;" d="M 70 39.492188 L 59.292969 43.582031 L 59.292969 26.316406 L 70 30.109375 Z M 70 39.492188 "/>
<path style=" stroke:none;fill-rule:nonzero;fill:rgb(0,73,128);fill-opacity:1;" d="M 49.558594 29.15625 L 49.558594 40.496094 L 57.578125 43.546875 L 57.578125 26.316406 Z M 50.433594 39.675781 L 50 39.539063 L 50 30.148438 L 50.433594 30.027344 L 50.894531 29.898438 L 51.382813 29.761719 L 51.382813 39.96875 L 50.894531 39.816406 Z M 52.445313 40.296875 L 51.898438 40.128906 L 51.898438 29.617188 L 52.445313 29.460938 L 53.027344 29.296875 L 53.648438 29.121094 L 53.648438 40.671875 L 53.027344 40.476563 Z M 55.019531 41.09375 L 54.308594 40.875 L 54.308594 28.933594 L 55.019531 28.734375 L 55.78125 28.519531 L 56.601563 28.289063 L 56.601563 41.585938 L 55.78125 41.332031 Z M 55.019531 41.09375 "/>
</g>
</svg>
