<?xml version="1.0" encoding="UTF-8"?>
<svg xmlns="http://www.w3.org/2000/svg" xmlns:xlink="http://www.w3.org/1999/xlink" width="70pt" height="70pt" viewBox="0 0 70 70" version="1.1">
<defs>
<filter id="alpha" filterUnits="objectBoundingBox" x="0%" y="0%" width="100%" height="100%">
  <feColorMatrix type="matrix" in="SourceGraphic" values="0 0 0 0 1 0 0 0 0 1 0 0 0 0 1 0 0 0 1 0"/>
</filter>
<mask id="mask0">
  <g filter="url(#alpha)">
<rect x="0" y="0" width="70" height="70" style="fill:rgb(0%,0%,0%);fill-opacity:0.2;stroke:none;"/>
  </g>
</mask>
<clipPath id="clip1">
  <rect x="0" y="0" width="70" height="70"/>
</clipPath>
<g id="surface5" clip-path="url(#clip1)">
<path style=" stroke:none;fill-rule:nonzero;fill:rgb(100%,100%,100%);fill-opacity:1;" d="M 68.445313 32.191406 L 68.445313 58.230469 L 34.222656 64.789063 L 60.152344 29.054688 Z M 68.445313 32.191406 "/>
</g>
</defs>
<g id="surface1">
<path style=" stroke:none;fill-rule:nonzero;fill:rgb(34.901961%,70.588235%,85.098039%);fill-opacity:1;" d="M 21.777344 51.332031 L 12.445313 51.332031 C 6.222656 49.777344 1.421875 44.875 1.421875 38.375 C 1.421875 32.996094 4.894531 28.082031 9.609375 26.210938 C 9.554688 25.648438 9.523438 25.082031 9.523438 24.515625 C 9.523438 15.273438 17.019531 7.789063 26.257813 7.789063 C 31.324219 7.789063 36.117188 10.085938 39.289063 14.039063 C 41.179688 13.085938 43.269531 12.589844 45.390625 12.597656 C 52.707031 12.597656 59.046875 19.089844 59.304688 26.347656 L 34.316406 16.039063 L 21.777344 23.59375 Z M 21.777344 51.332031 "/>
<path style=" stroke:none;fill-rule:nonzero;fill:rgb(58.431373%,58.431373%,58.431373%);fill-opacity:1;" d="M 68.445313 58.230469 L 34.015625 64.792969 L 34.175781 40.589844 L 68.445313 46.945313 Z M 34.136719 19.207031 L 68.445313 32.121094 L 68.445313 45.050781 L 34.195313 37.75 "/>
<path style=" stroke:none;fill-rule:nonzero;fill:rgb(70.196078%,70.588235%,70.980392%);fill-opacity:1;" d="M 34.195313 37.75 L 24.863281 42.089844 L 24.863281 24.851563 L 34.136719 19.207031 M 66.890625 43.554688 L 35.777344 36.457031 L 35.777344 21 L 66.890625 32.472656 Z M 49.777344 38.011719 L 52.890625 38.867188 L 52.890625 28.789063 L 49.777344 27.699219 Z M 46.667969 26.707031 L 43.554688 25.585938 L 43.554688 36.359375 L 46.667969 37.234375 Z M 56 39.714844 L 59.066406 40.523438 L 59.121094 30.917969 L 56 29.878906 Z M 37.332031 34.757813 L 40.445313 35.558594 L 40.445313 24.5625 L 37.332031 23.539063 Z M 65.332031 33.046875 L 62.222656 31.957031 L 62.222656 41.34375 L 65.332031 42.195313 Z M 35.777344 43.167969 L 35.777344 63.128906 L 66.890625 57.425781 L 66.890625 47.960938 Z M 37.332031 60.796875 L 37.332031 45.433594 L 40.445313 45.824219 L 40.445313 60.277344 Z M 46.667969 59.226563 L 43.554688 59.792969 L 43.554688 46.210938 L 46.667969 46.667969 Z M 49.777344 58.777344 L 49.777344 46.988281 L 52.890625 47.378906 L 52.890625 58.203125 Z M 59.109375 57.140625 L 56 57.667969 L 56 47.769531 L 59.109375 48.222656 Z M 65.4375 56.132813 L 62.222656 56.691406 L 62.222656 48.546875 L 65.226563 48.921875 Z M 65.4375 56.132813 "/>
<path style=" stroke:none;fill-rule:nonzero;fill:rgb(58.431373%,58.431373%,58.431373%);fill-opacity:1;" d="M 28.015625 37.453125 L 26.457031 38.363281 L 26.457031 26.105469 L 28.015625 25.269531 Z M 31.109375 23.484375 L 29.558594 24.554688 L 29.554688 36.460938 L 31.109375 35.613281 Z M 31.109375 23.484375 "/>
<path style=" stroke:none;fill-rule:nonzero;fill:rgb(70.196078%,70.588235%,70.980392%);fill-opacity:1;" d="M 24.863281 59.265625 L 24.804688 45.121094 L 34.171875 40.589844 L 34.222656 64.851563 "/>
<path style=" stroke:none;fill-rule:nonzero;fill:rgb(58.431373%,58.431373%,58.431373%);fill-opacity:1;" d="M 27.824219 59.214844 L 26.410156 58.492188 L 26.410156 46.546875 L 27.824219 45.910156 Z M 31.164063 44.40625 L 29.621094 45.085938 L 29.558594 60.15625 L 31.164063 60.988281 Z M 31.164063 44.40625 "/>
<path style=" stroke:none;fill-rule:nonzero;fill:rgb(47.843137%,47.843137%,47.843137%);fill-opacity:1;" d="M 65.304688 34.054688 L 37.339844 24.671875 L 37.382813 23.460938 L 65.304688 33.066406 Z M 65.226563 48.917969 L 37.382813 45.425781 L 37.382813 46.632813 L 65.253906 49.929688 Z M 31.109375 25.089844 L 31.109375 23.5625 L 26.59375 26.066406 L 26.53125 27.351563 Z M 26.414063 47.441406 L 31.15625 45.722656 L 31.167969 44.40625 L 26.40625 46.542969 Z M 26.414063 47.441406 "/>
<use xlink:href="#surface5" mask="url(#mask0)"/>
</g>
</svg>
