<?xml version="1.0" encoding="UTF-8"?>
<svg xmlns="http://www.w3.org/2000/svg" xmlns:xlink="http://www.w3.org/1999/xlink" width="70pt" height="70pt" viewBox="0 0 70 70" version="1.1">
<defs>
<linearGradient id="linear0" gradientUnits="userSpaceOnUse" x1="9" y1="11.95" x2="9" y2="0" gradientTransform="matrix(3.888889,0,0,3.888889,0,0)">
<stop offset="0" style="stop-color:rgb(0%,47.058824%,83.137255%);stop-opacity:1;"/>
<stop offset="0.16" style="stop-color:rgb(7.45098%,50.196078%,85.490196%);stop-opacity:1;"/>
<stop offset="0.53" style="stop-color:rgb(23.529412%,56.862745%,89.803922%);stop-opacity:1;"/>
<stop offset="0.82" style="stop-color:rgb(33.333333%,61.176471%,92.54902%);stop-opacity:1;"/>
<stop offset="1" style="stop-color:rgb(36.862745%,62.745098%,93.72549%);stop-opacity:1;"/>
</linearGradient>
<filter id="alpha" filterUnits="objectBoundingBox" x="0%" y="0%" width="100%" height="100%">
  <feColorMatrix type="matrix" in="SourceGraphic" values="0 0 0 0 1 0 0 0 0 1 0 0 0 0 1 0 0 0 1 0"/>
</filter>
<mask id="mask0">
  <g filter="url(#alpha)">
<rect x="0" y="0" width="70" height="70" style="fill:rgb(0%,0%,0%);fill-opacity:0.74902;stroke:none;"/>
  </g>
</mask>
<clipPath id="clip1">
  <rect x="0" y="0" width="70" height="70"/>
</clipPath>
<g id="surface5" clip-path="url(#clip1)">
<path style=" stroke:none;fill-rule:nonzero;fill:rgb(71.764706%,47.843137%,95.686275%);fill-opacity:1;" d="M 26.910156 42.464844 L 26.910156 65.0625 L 33.015625 66.035156 L 33.015625 41.417969 Z M 26.910156 42.464844 "/>
</g>
<mask id="mask1">
  <g filter="url(#alpha)">
<rect x="0" y="0" width="70" height="70" style="fill:rgb(0%,0%,0%);fill-opacity:0.74902;stroke:none;"/>
  </g>
</mask>
<clipPath id="clip2">
  <rect x="0" y="0" width="70" height="70"/>
</clipPath>
<g id="surface8" clip-path="url(#clip2)">
<path style=" stroke:none;fill-rule:nonzero;fill:rgb(71.764706%,47.843137%,95.686275%);fill-opacity:1;" d="M 19.367188 43.710938 L 19.367188 63.464844 L 24.695313 64.554688 L 24.695313 42.816406 Z M 19.367188 43.710938 "/>
</g>
</defs>
<g id="surface1">
<path style=" stroke:none;fill-rule:nonzero;fill:url(#linear0);" d="M 67.785156 31.929688 C 67.578125 24.707031 62.152344 18.707031 54.988281 17.773438 C 54.566406 7.601563 46.027344 -0.328125 35.855469 0 C 27.773438 -0.132813 20.484375 4.835938 17.65625 12.40625 C 8.992188 13.40625 2.371094 20.605469 2.101563 29.320313 C 2.242188 34.09375 4.285156 38.613281 7.777344 41.871094 C 11.269531 45.128906 15.917969 46.855469 20.6875 46.667969 L 53.003906 46.667969 C 61.117188 46.582031 67.679688 40.039063 67.785156 31.929688 Z M 67.785156 31.929688 "/>
<path style=" stroke:none;fill-rule:nonzero;fill:rgb(94.901961%,94.901961%,94.901961%);fill-opacity:1;" d="M 24.734375 25.121094 L 35 15.050781 C 35.21875 14.824219 35.519531 14.695313 35.835938 14.695313 C 36.152344 14.695313 36.453125 14.824219 36.671875 15.050781 L 46.667969 25.121094 C 46.84375 25.265625 46.90625 25.507813 46.8125 25.71875 C 46.722656 25.925781 46.503906 26.050781 46.277344 26.015625 L 39.976563 26.015625 C 39.683594 26.035156 39.453125 26.269531 39.433594 26.5625 L 39.433594 39.160156 C 39.433594 39.398438 39.242188 39.589844 39.003906 39.589844 L 32.238281 39.589844 C 32.003906 39.589844 31.8125 39.398438 31.8125 39.160156 L 31.8125 26.5625 C 31.8125 26.273438 31.589844 26.035156 31.304688 26.015625 L 25.082031 26.015625 C 24.867188 26.027344 24.664063 25.898438 24.585938 25.695313 C 24.503906 25.492188 24.566406 25.261719 24.734375 25.121094 Z M 24.734375 25.121094 "/>
<path style=" stroke:none;fill-rule:nonzero;fill:rgb(65.098039%,47.843137%,95.686275%);fill-opacity:1;" d="M 54.445313 44.214844 C 54.457031 43.988281 54.3125 43.78125 54.09375 43.710938 L 35.621094 37.527344 L 35 37.527344 L 35 70 L 35.503906 70 L 53.820313 62.6875 C 53.96875 62.722656 54.121094 62.691406 54.242188 62.601563 C 54.363281 62.511719 54.4375 62.371094 54.445313 62.222656 Z M 54.445313 44.214844 "/>
<path style=" stroke:none;fill-rule:nonzero;fill:rgb(33.333333%,18.431373%,60%);fill-opacity:1;" d="M 35 37.644531 L 17.460938 40.871094 C 17.207031 40.910156 17.011719 41.121094 16.996094 41.378906 L 16.996094 65.605469 C 17.003906 65.859375 17.175781 66.082031 17.421875 66.148438 L 35 70 C 35.152344 70.035156 35.3125 70 35.4375 69.902344 C 35.558594 69.800781 35.625 69.652344 35.621094 69.496094 L 35.621094 38.382813 C 35.699219 38.195313 35.667969 37.980469 35.535156 37.824219 C 35.40625 37.667969 35.199219 37.601563 35 37.644531 Z M 35 37.644531 "/>
<use xlink:href="#surface5" mask="url(#mask0)"/>
<use xlink:href="#surface8" mask="url(#mask1)"/>
</g>
</svg>
