<?xml version="1.0" encoding="UTF-8"?>
<svg xmlns="http://www.w3.org/2000/svg" xmlns:xlink="http://www.w3.org/1999/xlink" width="70pt" height="51pt" viewBox="0 0 70 51" version="1.1">
<defs>
<filter id="alpha" filterUnits="objectBoundingBox" x="0%" y="0%" width="100%" height="100%">
  <feColorMatrix type="matrix" in="SourceGraphic" values="0 0 0 0 1 0 0 0 0 1 0 0 0 0 1 0 0 0 1 0"/>
</filter>
<mask id="mask0">
  <g filter="url(#alpha)">
<rect x="0" y="0" width="70" height="51" style="fill:rgb(0,0,0);fill-opacity:0.2;stroke:none;"/>
  </g>
</mask>
<clipPath id="clip1">
  <rect x="0" y="0" width="70" height="51"/>
</clipPath>
<g id="surface5" clip-path="url(#clip1)">
<path style=" stroke:none;fill-rule:nonzero;fill:rgb(255,255,255);fill-opacity:1;" d="M 30.136719 0.0429688 L 60.605469 10.011719 L 60.601563 34.746094 L 30.136719 45.71875 Z M 30.136719 0.0429688 "/>
</g>
<mask id="mask1">
  <g filter="url(#alpha)">
<rect x="0" y="0" width="70" height="51" style="fill:rgb(0,0,0);fill-opacity:0.501961;stroke:none;"/>
  </g>
</mask>
<clipPath id="clip2">
  <rect x="0" y="0" width="70" height="51"/>
</clipPath>
<g id="surface8" clip-path="url(#clip2)">
<path style=" stroke:none;fill-rule:nonzero;fill:rgb(0,0,0);fill-opacity:1;" d="M 3.214844 12.289063 L 4.460938 11.757813 L 4.460938 10.773438 L 2.492188 11.578125 L 2.496094 33.546875 L 3 33.769531 L 3.230469 33.875 Z M 3.214844 12.289063 "/>
</g>
<mask id="mask2">
  <g filter="url(#alpha)">
<rect x="0" y="0" width="70" height="51" style="fill:rgb(0,0,0);fill-opacity:0.501961;stroke:none;"/>
  </g>
</mask>
<clipPath id="clip3">
  <rect x="0" y="0" width="70" height="51"/>
</clipPath>
<g id="surface11" clip-path="url(#clip3)">
<path style=" stroke:none;fill-rule:nonzero;fill:rgb(0,0,0);fill-opacity:1;" d="M 10.976563 8.984375 L 10.976563 36.515625 L 11.910156 37.027344 L 11.910156 9.664063 L 14.765625 8.464844 L 14.765625 7.367188 Z M 10.976563 8.984375 "/>
</g>
<mask id="mask3">
  <g filter="url(#alpha)">
<rect x="0" y="0" width="70" height="51" style="fill:rgb(0,0,0);fill-opacity:0.501961;stroke:none;"/>
  </g>
</mask>
<clipPath id="clip4">
  <rect x="0" y="0" width="70" height="51"/>
</clipPath>
<g id="surface14" clip-path="url(#clip4)">
<path style=" stroke:none;fill-rule:nonzero;fill:rgb(0,0,0);fill-opacity:1;" d="M 20.5 6.492188 L 20.96875 6.351563 L 20.96875 5.390625 L 19.539063 5.820313 L 18.113281 6.242188 L 16.800781 6.632813 L 16.800781 38.589844 L 17.761719 38.875 L 17.761719 7.308594 L 19.074219 6.917969 Z M 20.5 6.492188 "/>
</g>
<mask id="mask4">
  <g filter="url(#alpha)">
<rect x="0" y="0" width="70" height="51" style="fill:rgb(0,0,0);fill-opacity:0.501961;stroke:none;"/>
  </g>
</mask>
<clipPath id="clip5">
  <rect x="0" y="0" width="70" height="51"/>
</clipPath>
<g id="surface17" clip-path="url(#clip5)">
<path style=" stroke:none;fill-rule:nonzero;fill:rgb(0,0,0);fill-opacity:1;" d="M 27.953125 2.972656 L 22.75 4.867188 L 22.75 41.007813 L 23.71875 41.46875 L 23.71875 5.546875 L 27.953125 4.023438 Z M 27.953125 2.972656 "/>
</g>
<mask id="mask5">
  <g filter="url(#alpha)">
<rect x="0" y="0" width="70" height="51" style="fill:rgb(0,0,0);fill-opacity:0.501961;stroke:none;"/>
  </g>
</mask>
<clipPath id="clip6">
  <rect x="0" y="0" width="70" height="51"/>
</clipPath>
<g id="surface20" clip-path="url(#clip6)">
<path style=" stroke:none;fill-rule:nonzero;fill:rgb(0,0,0);fill-opacity:1;" d="M 9.292969 10.410156 L 9.292969 9.417969 L 7.339844 10.066406 L 6.367188 10.390625 L 6.367188 34.679688 L 7.328125 35 L 7.328125 11.0625 L 8.300781 10.738281 L 9.277344 10.417969 Z M 9.292969 10.410156 "/>
</g>
<mask id="mask6">
  <g filter="url(#alpha)">
<rect x="0" y="0" width="70" height="51" style="fill:rgb(0,0,0);fill-opacity:0.2;stroke:none;"/>
  </g>
</mask>
<clipPath id="clip7">
  <rect x="0" y="0" width="70" height="51"/>
</clipPath>
<g id="surface23" clip-path="url(#clip7)">
<path style=" stroke:none;fill-rule:nonzero;fill:rgb(255,255,255);fill-opacity:1;" d="M 36.945313 51 C 34.371094 48.410156 33.40625 44.640625 34.425781 41.144531 C 35.445313 37.648438 38.285156 34.972656 41.855469 34.152344 C 42.921875 33.886719 44.035156 33.835938 45.121094 34.003906 C 45.589844 28.914063 48.6875 24.4375 53.300781 22.179688 C 51.867188 21.695313 50.359375 21.449219 48.839844 21.441406 C 42.519531 21.453125 36.929688 25.515625 35 31.496094 C 33.945313 31.140625 32.84375 30.941406 31.734375 30.902344 C 26.230469 31.019531 21.832031 35.484375 21.832031 40.949219 C 21.832031 46.417969 26.230469 50.882813 31.734375 51 Z M 36.945313 51 "/>
</g>
<mask id="mask7">
  <g filter="url(#alpha)">
<rect x="0" y="0" width="70" height="51" style="fill:rgb(0,0,0);fill-opacity:0.4;stroke:none;"/>
  </g>
</mask>
<clipPath id="clip8">
  <rect x="0" y="0" width="70" height="51"/>
</clipPath>
<g id="surface26" clip-path="url(#clip8)">
<path style=" stroke:none;fill-rule:nonzero;fill:rgb(0,0,0);fill-opacity:1;" d="M 33.085938 3.019531 C 33.085938 3.460938 32.726563 3.820313 32.28125 3.820313 C 31.832031 3.820313 31.472656 3.460938 31.472656 3.019531 C 31.472656 2.574219 31.832031 2.214844 32.28125 2.214844 C 32.726563 2.214844 33.085938 2.574219 33.085938 3.019531 Z M 33.085938 3.019531 "/>
</g>
<mask id="mask8">
  <g filter="url(#alpha)">
<rect x="0" y="0" width="70" height="51" style="fill:rgb(0,0,0);fill-opacity:0.4;stroke:none;"/>
  </g>
</mask>
<clipPath id="clip9">
  <rect x="0" y="0" width="70" height="51"/>
</clipPath>
<g id="surface29" clip-path="url(#clip9)">
<path style=" stroke:none;fill-rule:nonzero;fill:rgb(0,0,0);fill-opacity:1;" d="M 59.167969 11.34375 C 59.167969 11.789063 58.808594 12.148438 58.363281 12.148438 C 57.914063 12.148438 57.554688 11.789063 57.554688 11.34375 C 57.554688 10.902344 57.914063 10.542969 58.363281 10.542969 C 58.808594 10.542969 59.167969 10.902344 59.167969 11.34375 Z M 59.167969 11.34375 "/>
</g>
</defs>
<g id="surface1">
<path style=" stroke:none;fill-rule:nonzero;fill:rgb(0,112,196);fill-opacity:1;" d="M 0 34.660156 L 27.914063 44.90625 L 30.105469 45.71875 L 30.105469 45.710938 L 60.605469 34.710938 L 60.605469 9.957031 L 30.132813 0 L 0 9.953125 Z M 0 34.660156 "/>
<use xlink:href="#surface5" mask="url(#mask0)"/>
<use xlink:href="#surface8" mask="url(#mask1)"/>
<use xlink:href="#surface11" mask="url(#mask2)"/>
<use xlink:href="#surface14" mask="url(#mask3)"/>
<use xlink:href="#surface17" mask="url(#mask4)"/>
<use xlink:href="#surface20" mask="url(#mask5)"/>
<path style=" stroke:none;fill-rule:nonzero;fill:rgb(57,171,255);fill-opacity:1;" d="M 69.300781 45.386719 C 69.304688 43.933594 68.726563 42.539063 67.691406 41.511719 C 66.65625 40.484375 65.253906 39.910156 63.792969 39.914063 L 63.050781 39.914063 C 63.40625 38.660156 63.605469 37.371094 63.648438 36.070313 C 63.695313 28.898438 58.472656 22.761719 51.34375 21.617188 C 44.214844 20.472656 37.3125 24.664063 35.085938 31.488281 C 34.03125 31.136719 32.929688 30.9375 31.816406 30.898438 C 26.230469 30.898438 21.699219 35.398438 21.699219 40.949219 C 21.699219 46.5 26.230469 51 31.816406 51 L 64.25 51 C 67.132813 50.691406 69.3125 48.265625 69.300781 45.386719 "/>
<path style=" stroke:none;fill-rule:nonzero;fill:rgb(255,255,255);fill-opacity:1;" d="M 31.8125 51.699219 C 25.839844 51.699219 20.996094 46.886719 20.996094 40.953125 C 20.996094 35.015625 25.839844 30.207031 31.8125 30.207031 C 32.769531 30.226563 33.722656 30.371094 34.640625 30.644531 C 36.84375 24.699219 42.542969 20.746094 48.921875 20.742188 C 57.441406 20.75 64.34375 27.609375 64.351563 36.074219 C 64.332031 37.136719 64.195313 38.195313 63.941406 39.226563 C 67.308594 39.3125 69.992188 42.042969 70 45.386719 C 70.011719 48.625 67.554688 51.351563 64.3125 51.691406 Z M 31.8125 31.601563 C 26.613281 31.601563 22.398438 35.789063 22.398438 40.953125 C 22.398438 46.117188 26.613281 50.304688 31.8125 50.304688 L 64.242188 50.304688 C 66.746094 50.007813 68.621094 47.890625 68.601563 45.386719 C 68.59375 42.75 66.445313 40.617188 63.792969 40.613281 L 62.152344 40.613281 L 62.371094 39.746094 C 62.707031 38.550781 62.902344 37.316406 62.945313 36.070313 C 62.933594 28.378906 56.660156 22.144531 48.914063 22.132813 C 42.898438 22.140625 37.578125 26.011719 35.746094 31.703125 L 35.535156 32.34375 L 34.886719 32.164063 C 33.894531 31.828125 32.859375 31.640625 31.8125 31.601563 Z M 31.8125 31.601563 "/>
<use xlink:href="#surface23" mask="url(#mask6)"/>
<use xlink:href="#surface26" mask="url(#mask7)"/>
<use xlink:href="#surface29" mask="url(#mask8)"/>
</g>
</svg>
