<?xml version="1.0" encoding="UTF-8"?>
<svg xmlns="http://www.w3.org/2000/svg" xmlns:xlink="http://www.w3.org/1999/xlink" width="70pt" height="70pt" viewBox="0 0 70 70" version="1.1">
<defs>
<linearGradient id="linear0" gradientUnits="userSpaceOnUse" x1="9" y1="3.72" x2="9" y2="15.02" gradientTransform="matrix(3.888889,0,0,3.888889,0,0)">
<stop offset="0.18" style="stop-color:rgb(41,164,255);stop-opacity:1;"/>
<stop offset="1" style="stop-color:rgb(0,108,188);stop-opacity:1;"/>
</linearGradient>
</defs>
<g id="surface1">
<path style=" stroke:none;fill-rule:nonzero;fill:rgb(41,164,255);fill-opacity:1;" d="M 33.328125 33.792969 L 3.890625 33.792969 L 3.890625 8.476563 C 3.890625 6.128906 5.78125 4.222656 8.128906 4.199219 L 33.328125 4.199219 Z M 7.542969 30.140625 L 29.671875 30.140625 L 29.671875 7.777344 L 8.128906 7.777344 C 7.804688 7.777344 7.542969 8.039063 7.542969 8.359375 Z M 7.542969 30.140625 "/>
<path style=" stroke:none;fill-rule:nonzero;fill:rgb(41,164,255);fill-opacity:1;" d="M 66.109375 33.792969 L 36.671875 33.792969 L 36.671875 4.199219 L 61.871094 4.199219 C 64.21875 4.222656 66.109375 6.128906 66.109375 8.476563 Z M 40.328125 30.140625 L 62.457031 30.140625 L 62.457031 8.476563 C 62.492188 8.304688 62.445313 8.125 62.332031 7.988281 C 62.21875 7.851563 62.050781 7.773438 61.871094 7.777344 L 40.328125 7.777344 Z M 40.328125 30.140625 "/>
<path style=" stroke:none;fill-rule:nonzero;fill:rgb(41,164,255);fill-opacity:1;" d="M 33.328125 66.421875 L 8.128906 66.421875 C 5.800781 66.421875 3.910156 64.546875 3.890625 62.222656 L 3.890625 36.867188 L 33.328125 36.867188 Z M 7.542969 40.523438 L 7.542969 62.222656 C 7.542969 62.542969 7.804688 62.804688 8.128906 62.804688 L 29.671875 62.804688 L 29.671875 40.523438 Z M 7.542969 40.523438 "/>
<path style=" stroke:none;fill-rule:nonzero;fill:rgb(41,164,255);fill-opacity:1;" d="M 61.871094 66.421875 L 36.671875 66.421875 L 36.671875 36.867188 L 66.109375 36.867188 L 66.109375 62.222656 C 66.089844 64.546875 64.199219 66.421875 61.871094 66.421875 Z M 40.328125 62.765625 L 61.871094 62.765625 C 62.195313 62.765625 62.457031 62.503906 62.457031 62.183594 L 62.457031 40.523438 L 40.328125 40.523438 Z M 40.328125 62.765625 "/>
<path style=" stroke:none;fill-rule:nonzero;fill:url(#linear0);" d="M 57.050781 41.300781 C 56.933594 36.398438 53.304688 32.296875 48.457031 31.578125 C 48.203125 24.695313 42.46875 19.289063 35.582031 19.445313 C 30.128906 19.386719 25.222656 22.765625 23.332031 27.882813 C 17.480469 28.6875 13.085938 33.640625 12.988281 39.550781 C 13.222656 46.183594 18.757813 51.390625 25.394531 51.214844 L 47.210938 51.214844 C 52.605469 51.050781 56.929688 46.695313 57.050781 41.300781 Z M 57.050781 41.300781 "/>
</g>
</svg>
