<?xml version="1.0" encoding="UTF-8"?>
<svg xmlns="http://www.w3.org/2000/svg" xmlns:xlink="http://www.w3.org/1999/xlink" width="70pt" height="70pt" viewBox="0 0 70 70" version="1.1">
<defs>
<clipPath id="clip1">
  <path d="M 0 0 L 69.996094 0 L 69.996094 45 L 0 45 Z M 0 0 "/>
</clipPath>
<clipPath id="clip2">
  <path d="M 0 0 L 69.996094 0 L 69.996094 70 L 0 70 Z M 0 0 "/>
</clipPath>
<filter id="alpha" filterUnits="objectBoundingBox" x="0%" y="0%" width="100%" height="100%">
  <feColorMatrix type="matrix" in="SourceGraphic" values="0 0 0 0 1 0 0 0 0 1 0 0 0 0 1 0 0 0 1 0"/>
</filter>
<mask id="mask0">
  <g filter="url(#alpha)">
<rect x="0" y="0" width="70" height="70" style="fill:rgb(0,0,0);fill-opacity:0.6;stroke:none;"/>
  </g>
</mask>
<clipPath id="clip3">
  <rect x="0" y="0" width="70" height="70"/>
</clipPath>
<g id="surface5" clip-path="url(#clip3)">
<path style=" stroke:none;fill-rule:nonzero;fill:rgb(13,152,255);fill-opacity:1;" d="M 58.75 15.839844 C 58.355469 8.742188 53.53125 2.664063 46.710938 0.671875 C 39.886719 -1.320313 32.550781 1.203125 28.398438 6.972656 C 23.917969 3.503906 17.730469 3.261719 12.992188 6.371094 C 8.253906 9.480469 6.011719 15.253906 7.410156 20.746094 C 2 23.191406 -0.96875 29.082031 0.28125 34.886719 C 1.53125 40.691406 6.664063 44.835938 12.601563 44.839844 L 55.300781 44.839844 C 62.746094 44.832031 69.011719 39.261719 69.890625 31.867188 C 70.773438 24.476563 65.984375 17.589844 58.75 15.839844 Z M 58.75 15.839844 "/>
</g>
<clipPath id="clip4">
  <path d="M 0 0 L 69.996094 0 L 69.996094 70 L 0 70 Z M 0 0 "/>
</clipPath>
<mask id="mask1">
  <g filter="url(#alpha)">
<rect x="0" y="0" width="70" height="70" style="fill:rgb(0,0,0);fill-opacity:0.14902;stroke:none;"/>
  </g>
</mask>
<clipPath id="clip5">
  <rect x="0" y="0" width="70" height="70"/>
</clipPath>
<g id="surface8" clip-path="url(#clip5)">
<path style=" stroke:none;fill-rule:nonzero;fill:rgb(255,255,255);fill-opacity:1;" d="M 18.132813 30.78125 C 17.355469 30.785156 16.726563 31.414063 16.726563 32.1875 L 16.726563 68.734375 C 16.726563 69.507813 17.355469 70.136719 18.132813 70.136719 L 22.347656 70.136719 L 47.652344 30.78125 Z M 18.132813 30.78125 "/>
</g>
<clipPath id="clip6">
  <path d="M 0 0 L 69.996094 0 L 69.996094 70 L 0 70 Z M 0 0 "/>
</clipPath>
<mask id="mask2">
  <g filter="url(#alpha)">
<rect x="0" y="0" width="70" height="70" style="fill:rgb(0,0,0);fill-opacity:0.301961;stroke:none;"/>
  </g>
</mask>
<clipPath id="clip7">
  <rect x="0" y="0" width="70" height="70"/>
</clipPath>
<g id="surface11" clip-path="url(#clip7)">
<path style=" stroke:none;fill-rule:nonzero;fill:rgb(0,89,156);fill-opacity:1;" d="M 46.246094 35 L 20.945313 35 L 20.945313 65.921875 L 49.054688 65.921875 L 49.054688 35 Z M 29.378906 63.113281 L 23.753906 63.113281 L 23.753906 37.8125 L 29.378906 37.8125 Z M 37.8125 63.113281 L 32.1875 63.113281 L 32.1875 37.8125 L 37.8125 37.8125 Z M 46.246094 63.113281 L 40.621094 63.113281 L 40.621094 37.8125 L 46.246094 37.8125 Z M 46.246094 63.113281 "/>
</g>
</defs>
<g id="surface1">
<g clip-path="url(#clip1)" clip-rule="nonzero">
<path style=" stroke:none;fill-rule:nonzero;fill:rgb(255,255,255);fill-opacity:1;" d="M 58.75 15.839844 C 58.355469 8.742188 53.53125 2.664063 46.710938 0.671875 C 39.886719 -1.320313 32.550781 1.203125 28.398438 6.972656 C 23.917969 3.503906 17.730469 3.261719 12.992188 6.371094 C 8.253906 9.480469 6.011719 15.253906 7.410156 20.746094 C 2 23.191406 -0.96875 29.082031 0.28125 34.886719 C 1.53125 40.691406 6.664063 44.835938 12.601563 44.839844 L 55.300781 44.839844 C 62.746094 44.832031 69.011719 39.261719 69.890625 31.867188 C 70.773438 24.476563 65.984375 17.589844 58.75 15.839844 Z M 58.75 15.839844 "/>
</g>
<g clip-path="url(#clip2)" clip-rule="nonzero">
<use xlink:href="#surface5" mask="url(#mask0)"/>
</g>
<path style=" stroke:none;fill-rule:nonzero;fill:rgb(0,79,138);fill-opacity:1;" d="M 18.132813 30.78125 C 17.355469 30.785156 16.726563 31.414063 16.726563 32.1875 L 16.726563 68.734375 C 16.726563 69.507813 17.355469 70.136719 18.132813 70.136719 L 51.863281 70.136719 C 52.640625 70.136719 53.269531 69.507813 53.269531 68.734375 L 53.269531 32.1875 C 53.269531 31.414063 52.640625 30.785156 51.863281 30.78125 Z M 18.132813 30.78125 "/>
<g clip-path="url(#clip4)" clip-rule="nonzero">
<use xlink:href="#surface8" mask="url(#mask1)"/>
</g>
<path style=" stroke:none;fill-rule:nonzero;fill:rgb(255,255,255);fill-opacity:1;" d="M 27.972656 20.945313 L 35 11.105469 L 42.027344 20.945313 L 37.8125 20.945313 L 37.8125 30.78125 L 32.1875 30.78125 L 32.1875 20.945313 Z M 27.972656 20.945313 "/>
<g clip-path="url(#clip6)" clip-rule="nonzero">
<use xlink:href="#surface11" mask="url(#mask2)"/>
</g>
<path style=" stroke:none;fill-rule:nonzero;fill:rgb(255,255,255);fill-opacity:1;" d="M 46.246094 35 L 20.945313 35 L 20.945313 65.921875 L 49.054688 65.921875 L 49.054688 35 Z M 29.378906 63.113281 L 23.753906 63.113281 L 23.753906 37.8125 L 29.378906 37.8125 Z M 37.8125 63.113281 L 32.1875 63.113281 L 32.1875 37.8125 L 37.8125 37.8125 Z M 46.246094 63.113281 L 40.621094 63.113281 L 40.621094 37.8125 L 46.246094 37.8125 Z M 46.246094 63.113281 "/>
</g>
</svg>
