<?xml version="1.0" encoding="UTF-8"?>
<svg xmlns="http://www.w3.org/2000/svg" xmlns:xlink="http://www.w3.org/1999/xlink" width="70pt" height="70pt" viewBox="0 0 70 70" version="1.1">
<defs>
<filter id="alpha" filterUnits="objectBoundingBox" x="0%" y="0%" width="100%" height="100%">
  <feColorMatrix type="matrix" in="SourceGraphic" values="0 0 0 0 1 0 0 0 0 1 0 0 0 0 1 0 0 0 1 0"/>
</filter>
<mask id="mask0">
  <g filter="url(#alpha)">
<rect x="0" y="0" width="70" height="70" style="fill:rgb(0,0,0);fill-opacity:0.2;stroke:none;"/>
  </g>
</mask>
<clipPath id="clip1">
  <rect x="0" y="0" width="70" height="70"/>
</clipPath>
<g id="surface5" clip-path="url(#clip1)">
<path style=" stroke:none;fill-rule:nonzero;fill:rgb(255,255,255);fill-opacity:1;" d="M 63 30.378906 L 63 53.761719 L 32.199219 59.640625 L 55.578125 27.441406 Z M 63 30.378906 "/>
</g>
</defs>
<g id="surface1">
<path style=" stroke:none;fill-rule:nonzero;fill:rgb(57,171,255);fill-opacity:1;" d="M 21 47.601563 L 12.601563 47.601563 C 7 46.199219 2.660156 41.71875 2.660156 35.980469 C 2.660156 31.078125 5.738281 26.738281 10.078125 25.058594 C 10.078125 24.5 9.941406 24.078125 9.941406 23.519531 C 9.941406 15.121094 16.660156 8.398438 25.058594 8.398438 C 29.679688 8.398438 33.878906 10.5 36.820313 14 C 38.5 13.160156 40.460938 12.738281 42.28125 12.738281 C 48.859375 12.738281 54.601563 18.621094 54.738281 25.058594 L 32.199219 15.820313 L 21 22.679688 Z M 21 47.601563 "/>
<path style=" stroke:none;fill-rule:nonzero;fill:rgb(43,165,255);fill-opacity:1;" d="M 63 53.761719 L 32.058594 59.640625 L 32.199219 37.941406 L 63 43.679688 Z M 32.058594 18.621094 L 63 30.238281 L 63 42 L 32.199219 35.421875 "/>
<path style=" stroke:none;fill-rule:nonzero;fill:rgb(103,190,255);fill-opacity:1;" d="M 32.199219 35.421875 L 23.800781 39.339844 L 23.800781 23.800781 L 32.199219 18.761719 M 61.601563 40.601563 L 33.601563 34.160156 L 33.601563 20.300781 L 61.601563 30.660156 Z M 46.199219 35.558594 L 49 36.261719 L 49 27.160156 L 46.199219 26.179688 Z M 43.398438 25.480469 L 40.601563 24.5 L 40.601563 34.160156 L 43.398438 35 Z M 51.800781 37.101563 L 54.601563 37.800781 L 54.601563 29.121094 L 51.800781 28.140625 Z M 35 32.621094 L 37.800781 33.320313 L 37.800781 23.378906 L 35 22.398438 C 35 22.539063 35 32.621094 35 32.621094 Z M 60.199219 31.078125 L 57.398438 30.101563 L 57.398438 38.5 L 60.199219 39.199219 Z M 33.601563 40.320313 L 33.601563 58.238281 L 61.601563 53.058594 L 61.601563 44.519531 Z M 35 56.140625 L 35 42.28125 L 37.800781 42.558594 L 37.800781 55.578125 Z M 43.398438 54.738281 L 40.601563 55.300781 L 40.601563 43.121094 L 43.398438 43.539063 C 43.398438 43.398438 43.398438 54.738281 43.398438 54.738281 Z M 46.199219 54.320313 L 46.199219 43.679688 L 49 43.960938 L 49 53.761719 Z M 54.601563 52.78125 L 51.800781 53.199219 L 51.800781 44.238281 L 54.601563 44.660156 Z M 60.339844 51.941406 L 57.398438 52.359375 L 57.398438 45.078125 L 60.058594 45.359375 Z M 60.339844 51.941406 "/>
<path style=" stroke:none;fill-rule:nonzero;fill:rgb(43,165,255);fill-opacity:1;" d="M 26.601563 35.140625 L 25.199219 35.980469 L 25.199219 24.921875 L 26.601563 24.21875 C 26.601563 24.078125 26.601563 35.140625 26.601563 35.140625 Z M 29.398438 22.539063 L 28 23.519531 L 28 34.300781 L 29.398438 33.601563 Z M 29.398438 22.539063 "/>
<path style=" stroke:none;fill-rule:nonzero;fill:rgb(103,190,255);fill-opacity:1;" d="M 23.800781 54.738281 L 23.800781 42 L 32.199219 37.941406 L 32.199219 59.78125 "/>
<path style=" stroke:none;fill-rule:nonzero;fill:rgb(43,165,255);fill-opacity:1;" d="M 26.460938 54.738281 L 25.199219 54.039063 L 25.199219 43.261719 L 26.460938 42.699219 Z M 29.398438 41.300781 L 28 42 L 28 55.578125 L 29.398438 56.28125 Z M 29.398438 41.300781 "/>
<path style=" stroke:none;fill-rule:nonzero;fill:rgb(0,140,244);fill-opacity:1;" d="M 60.199219 32.058594 L 35 23.660156 L 35 22.539063 L 60.199219 31.21875 Z M 60.058594 45.359375 L 35 42.28125 L 35 43.398438 L 60.058594 46.339844 Z M 29.398438 23.941406 L 29.398438 22.539063 L 25.339844 24.78125 L 25.339844 25.898438 Z M 25.199219 44.101563 L 29.398438 42.558594 L 29.398438 41.441406 L 25.199219 43.261719 Z M 25.199219 44.101563 "/>
<use xlink:href="#surface5" mask="url(#mask0)"/>
</g>
</svg>
