<?xml version="1.0" encoding="UTF-8"?>
<svg xmlns="http://www.w3.org/2000/svg" xmlns:xlink="http://www.w3.org/1999/xlink" width="70pt" height="70pt" viewBox="0 0 70 70" version="1.1">
<g id="surface1">
<path style=" stroke:none;fill-rule:nonzero;fill:rgb(86.666667%,34.901961%,0%);fill-opacity:1;" d="M 68.003906 29.972656 C 66.027344 27.996094 63.1875 27.441406 60.699219 28.25 L 55.125 22.679688 C 56.058594 20.476563 55.5625 17.929688 53.871094 16.238281 C 52.179688 14.546875 49.632813 14.054688 47.429688 14.984375 L 41.855469 9.414063 C 42.667969 6.921875 42.117188 4.082031 40.136719 2.105469 C 37.332031 -0.703125 32.78125 -0.703125 29.972656 2.105469 C 27.996094 4.082031 27.441406 6.921875 28.25 9.414063 L 22.679688 14.984375 C 20.476563 14.054688 17.929688 14.546875 16.238281 16.238281 C 14.546875 17.929688 14.054688 20.476563 14.984375 22.679688 L 9.414063 28.25 C 6.921875 27.441406 4.082031 27.996094 2.105469 29.972656 C -0.703125 32.78125 -0.703125 37.332031 2.105469 40.136719 C 4.082031 42.117188 6.921875 42.667969 9.414063 41.855469 L 14.984375 47.429688 C 14.054688 49.632813 14.546875 52.179688 16.238281 53.871094 C 17.929688 55.5625 20.476563 56.058594 22.679688 55.125 L 28.25 60.699219 C 27.441406 63.1875 27.996094 66.027344 29.972656 68.003906 C 32.78125 70.8125 37.332031 70.8125 40.136719 68.003906 C 42.117188 66.027344 42.667969 63.1875 41.855469 60.699219 L 47.429688 55.125 C 49.632813 56.058594 52.179688 55.5625 53.871094 53.871094 C 55.5625 52.179688 56.058594 49.632813 55.125 47.429688 L 60.699219 41.855469 C 63.1875 42.667969 66.027344 42.117188 68.003906 40.136719 C 70.8125 37.332031 70.8125 32.78125 68.003906 29.972656 Z M 30.878906 57.101563 L 25.789063 52.011719 C 26.089844 51.308594 26.253906 50.535156 26.253906 49.722656 C 26.253906 48.910156 26.089844 48.132813 25.789063 47.429688 L 35.054688 38.167969 L 44.320313 47.429688 C 44.019531 48.132813 43.855469 48.910156 43.855469 49.722656 C 43.855469 50.535156 44.019531 51.308594 44.320313 52.011719 L 39.230469 57.101563 C 36.738281 55.308594 33.375 55.308594 30.878906 57.101563 Z M 13.007813 30.878906 L 18.09375 25.789063 C 18.804688 26.089844 19.578125 26.253906 20.386719 26.253906 C 21.199219 26.253906 21.972656 26.089844 22.679688 25.789063 L 31.945313 35.054688 L 22.679688 44.320313 C 21.972656 44.019531 21.199219 43.855469 20.386719 43.855469 C 19.578125 43.855469 18.804688 44.019531 18.09375 44.320313 L 13.007813 39.230469 C 14.800781 36.738281 14.800781 33.375 13.007813 30.878906 Z M 39.230469 13.007813 L 44.320313 18.09375 C 44.019531 18.804688 43.855469 19.578125 43.855469 20.386719 C 43.855469 21.199219 44.019531 21.972656 44.320313 22.679688 L 35.054688 31.945313 L 25.789063 22.679688 C 26.089844 21.972656 26.253906 21.199219 26.253906 20.386719 C 26.253906 19.578125 26.089844 18.804688 25.789063 18.09375 L 30.878906 13.007813 C 33.375 14.800781 36.738281 14.800781 39.230469 13.007813 Z M 49.722656 43.855469 C 48.910156 43.855469 48.132813 44.019531 47.429688 44.320313 L 38.167969 35.054688 L 47.429688 25.789063 C 48.132813 26.089844 48.910156 26.253906 49.722656 26.253906 C 50.535156 26.253906 51.308594 26.089844 52.011719 25.789063 L 57.101563 30.878906 C 55.308594 33.375 55.308594 36.738281 57.101563 39.230469 L 52.011719 44.320313 C 51.289063 44.011719 50.511719 43.855469 49.722656 43.855469 Z M 49.722656 43.855469 "/>
</g>
</svg>
