<?xml version="1.0" encoding="utf-8"?><svg version="1.1" xmlns="http://www.w3.org/2000/svg" xmlns:xlink="http://www.w3.org/1999/xlink" xmlns:xml="http://www.w3.org/XML/1998/namespace" width="70" height="70" viewBox="0, 0, 18, 18" id="FxSymbol0-05a" class="" role="presentation" focusable="false" data-type="1"><g><path d="M16.932 11.578 a8.448 8.448 0 0 1 -7.95 5.59 a8.15 8.15 0 0 1 -2.33 -0.33 a2.133 2.133 0 0 0 0.18 -0.83 c0.01 0 0.03 0.01 0.04 0.01 a7.422 7.422 0 0 0 2.11 0.3 a7.646 7.646 0 0 0 6.85 -4.28 l0.01 -0.01 Z m-13.35 2.49 a2.025 2.025 0 0 0 -0.64 0.56 a8.6 8.6 0 0 1 -1.67 -2.44 l1.04 0.23 v0.26 a0.6 0.6 0 0 0 0.47 0.59 l0.14 0.03 a6.136 6.136 0 0 0 0.62 0.73 Z m8.77 -13.11 a2.28 2.28 0 0 0 -0.27 0.81 c-0.02 -0.01 -0.05 -0.02 -0.07 -0.03 a7.479 7.479 0 0 0 -3.03 -0.63 a7.643 7.643 0 0 0 -5.9 2.8 l-0.29 0.06 a0.6 0.6 0 0 0 -0.48 0.58 v0.46 l-1.02 0.19 a8.454 8.454 0 0 1 7.69 -4.93 a8.6 8.6 0 0 1 3.37 0.69 Z m4.52 4.742 l-1.09 -0.38 a6.6 6.6 0 0 0 -0.72 -1.16 c-0.02 -0.03 -0.04 -0.05 -0.05 -0.07 a2.083 2.083 0 0 0 0.72 -0.45 a7.81 7.81 0 0 1 1.14 2.06 Z" style="fill:#32BEDD;" /><path d="m10.072 11.908 l2.54 0.56 l-3.94 1.632 c-0.02 0 -0.03 0.01 -0.05 0.01 a0.154 0.154 0 0 1 -0.15 -0.15 V3.448 a0.154 0.154 0 0 1 0.15 -0.15 a0.09 0.09 0 0 1 0.05 0.01 l4.46 1.56 l-3.05 0.57 a0.565 0.565 0 0 0 -0.44 0.54 v5.4 a0.537 0.537 0 0 0 0.43 0.53 Z" class="msportalfx-svg-c01" style="fill:white;" /><path d="m1.1 5.668 l1.21 -0.23 v6.55 l-1.23 -0.27 l-0.99 -0.22 a0.111 0.111 0 0 1 -0.09 -0.12 v-5.4 a0.12 0.12 0 0 1 0.09 -0.12 Z" style="fill:#A67AF4;" /><path d="m10.072 11.908 l2.54 0.56 l-3.94 1.632 c-0.02 0 -0.03 0.01 -0.05 0.01 a0.154 0.154 0 0 1 -0.15 -0.15 V3.448 a0.154 0.154 0 0 1 0.15 -0.15 a0.09 0.09 0 0 1 0.05 0.01 l4.46 1.56 l-3.05 0.57 a0.565 0.565 0 0 0 -0.44 0.54 v5.4 a0.537 0.537 0 0 0 0.43 0.53 Z" style="fill:url(#41c7f875-9414-4e1b-8a85-066e12e0e071);" /><path d="M8.586 3.3 L2.878 4.378 a0.177 0.177 0 0 0 -0.14 0.175 v8.127 a0.177 0.177 0 0 0 0.137 0.174 L8.581 14.1 a0.176 0.176 0 0 0 0.21 -0.174 V3.478 a0.175 0.175 0 0 0 -0.172 -0.178 Z" style="fill:url(#41c7f875-9414-4e1b-8a85-066e12e0e072);" /><path d="M5.948 4.921 v7.562 l1.986 0.331 v-8.25 l-1.986 0.357 z m-2.439 0.408 v6.625 l1.729 0.363 V5.031 l-1.729 0.298 z" opacity="0.5" style="fill:#B796F9;" /><path d="M16 2.048 a1.755 1.755 0 1 1 -1.76 -1.76 A1.756 1.756 0 0 1 16 2.048 Z" style="fill:#32BEDD;" /><circle cx="4.65" cy="15.973" r="1.759" style="fill:#32BEDD;" /><path d="M18 6.689 v3.844 a0.222 0.222 0 0 1 -0.133 0.2 l-0.766 0.316 l-3.07 1.268 h-0.011 a0.126 0.126 0 0 1 -0.038 0 a0.1 0.1 0 0 1 -0.1 -0.1 V5.234 a0.1 0.1 0 0 1 0.054 -0.088 h0.019 a0.031 0.031 0 0 1 0.019 0 a0.055 0.055 0 0 1 0.034 0.008 h0.023 L17.05 6.2 l0.8 0.282 a0.213 0.213 0 0 1 0.15 0.207 Z" style="fill:#773ADC;" /><path d="m13.959 5.14 l-3.8 0.715 a0.118 0.118 0 0 0 -0.093 0.117 v5.409 a0.118 0.118 0 0 0 0.091 0.116 l3.8 0.831 a0.115 0.115 0 0 0 0.137 -0.09 a0.109 0.109 0 0 0 0 -0.026 V5.256 a0.117 0.117 0 0 0 -0.115 -0.118 a0.082 0.082 0 0 0 -0.02 0.002 Z" style="fill:#A67AF4;" /></g><defs><linearGradient x1="8.798" y1="8.703" x2="14.683" y2="8.703" gradientUnits="userSpaceOnUse" id="41c7f875-9414-4e1b-8a85-066e12e0e071"><stop offset="0.1%" stop-color="#773ADC" /><stop offset="100%" stop-color="#552F99" /></linearGradient><linearGradient x1="5.764" y1="3.777" x2="5.764" y2="13.78" gradientUnits="userSpaceOnUse" id="41c7f875-9414-4e1b-8a85-066e12e0e072"><stop offset="0%" stop-color="#A67AF4" /><stop offset="99.9%" stop-color="#773ADC" /></linearGradient></defs></svg>