<?xml version="1.0" encoding="utf-8"?><svg version="1.1" xmlns="http://www.w3.org/2000/svg" xmlns:xlink="http://www.w3.org/1999/xlink" xmlns:xml="http://www.w3.org/XML/1998/namespace" width="70" height="70" viewBox="0, 0, 18, 18" id="fd3d8d4a-46e1-4408-ba1e-9135a7e34c49"><defs><linearGradient x1="9" y1="3.72" x2="9" y2="15.02" gradientUnits="userSpaceOnUse" id="b25a6eef-63a1-4028-981f-ae9a6e561a3b"><stop offset="18%" stop-color="#5EA0EF" /><stop offset="100%" stop-color="#0078D4" /></linearGradient></defs><title>Icon-web-47</title><path d="M8.57 8.69 H1 V2.18 a1.1 1.1 0 0 1 1.09 -1.1 H8.57 Z M1.94 7.75 H7.63 V2 H2.09 a0.15 0.15 0 0 0 -0.15 0.15 Z" style="fill:#949494;" /><path d="M17 8.69 H9.43 V1.08 h6.48 A1.1 1.1 0 0 1 17 2.18 Z m-6.63 -0.94 h5.69 V2.18 A0.15 0.15 0 0 0 15.91 2 H10.37 Z" style="fill:#949494;" /><path d="M8.57 17.08 H2.09 A1.09 1.09 0 0 1 1 16 V9.48 H8.57 Z M1.94 10.42 V16 a0.15 0.15 0 0 0 0.15 0.15 H7.63 V10.42 Z" style="fill:#949494;" /><path d="M15.91 17.08 H9.43 V9.48 H17 V16 A1.09 1.09 0 0 1 15.91 17.08 Z m-5.54 -0.94 h5.54 a0.15 0.15 0 0 0 0.15 -0.15 V10.42 H10.37 Z" style="fill:#949494;" /><path d="M14.67 10.62 a2.59 2.59 0 0 0 -2.21 -2.5 A3.24 3.24 0 0 0 9.15 5 A3.32 3.32 0 0 0 6 7.17 a3.08 3.08 0 0 0 -2.66 3 a3.11 3.11 0 0 0 3.19 3 H12 l0.14 0 A2.61 2.61 0 0 0 14.67 10.62 Z" style="fill:url(#b25a6eef-63a1-4028-981f-ae9a6e561a3b);" /></svg>