<?xml version="1.0" encoding="utf-8"?><svg version="1.1" xmlns="http://www.w3.org/2000/svg" xmlns:xlink="http://www.w3.org/1999/xlink" xmlns:xml="http://www.w3.org/XML/1998/namespace" width="70" height="70" viewBox="0, 0, 18, 18" id="beb440f5-d017-4dda-989a-ddd425fce02e"><defs><linearGradient x1="9" y1="11.95" x2="9" gradientUnits="userSpaceOnUse" id="f7543904-4a89-435e-96cd-11521c829faa"><stop offset="0%" stop-color="#0078D4" /><stop offset="16%" stop-color="#1380DA" /><stop offset="53%" stop-color="#3C91E5" /><stop offset="82%" stop-color="#559CEC" /><stop offset="100%" stop-color="#5EA0EF" /></linearGradient></defs><title>Icon-containers-104</title><path d="M17.43 8.21 a3.78 3.78 0 0 0 -3.29 -3.64 A4.77 4.77 0 0 0 9.22 0 A4.91 4.91 0 0 0 4.54 3.19 a4.52 4.52 0 0 0 -4 4.35 A4.6 4.6 0 0 0 5.32 12 l0.42 0 h7.68 l0.21 0 A3.84 3.84 0 0 0 17.43 8.21 Z" style="fill:url(#f7543904-4a89-435e-96cd-11521c829faa);" /><path d="M6.36 6.46 L9 3.87 a0.3 0.3 0 0 1 0.43 0 L12 6.46 a0.13 0.13 0 0 1 -0.1 0.23 H10.28 a0.15 0.15 0 0 0 -0.14 0.14 v3.24 a0.11 0.11 0 0 1 -0.11 0.11 H8.29 a0.11 0.11 0 0 1 -0.11 -0.11 V6.83 a0.14 0.14 0 0 0 -0.13 -0.14 H6.45 A0.13 0.13 0 0 1 6.36 6.46 Z" style="fill:#F2F2F2;" /><path d="M14 11.37 a0.13 0.13 0 0 0 -0.09 -0.13 L9.16 9.65 H9 V18 h0.13 l4.71 -1.88 A0.13 0.13 0 0 0 14 16 Z" style="fill:#A67AF4;" /><path d="M9 9.68 l-4.51 0.83 a0.14 0.14 0 0 0 -0.12 0.13 v6.23 a0.15 0.15 0 0 0 0.11 0.14 L9 18 a0.13 0.13 0 0 0 0.16 -0.13 v-8 A0.14 0.14 0 0 0 9 9.68 Z" style="fill:#552F99;" /><polygon points="6.92,10.92 6.92,16.73 8.49,16.98 8.49,10.65 6.92,10.92" opacity="0.75" style="fill:#B77AF4;" /><polygon points="4.98,11.24 4.98,16.32 6.35,16.6 6.35,11.01 4.98,11.24" opacity="0.75" style="fill:#B77AF4;" /></svg>