<?xml version="1.0" encoding="UTF-8"?>
<svg xmlns="http://www.w3.org/2000/svg" xmlns:xlink="http://www.w3.org/1999/xlink" width="70pt" height="70pt" viewBox="0 0 70 70" version="1.1">
<g id="surface1">
<path style=" stroke:none;fill-rule:nonzero;fill:rgb(34.901961%,70.588235%,85.098039%);fill-opacity:1;" d="M 58.800781 15.84375 C 58.296875 6.636719 50.421875 -0.421875 41.210938 0.0820313 C 36.164063 0.359375 31.507813 2.90625 28.558594 7.015625 C 24.097656 3.5625 17.933594 3.320313 13.214844 6.417969 C 8.492188 9.515625 6.261719 15.265625 7.65625 20.734375 C 2.273438 23.175781 -0.679688 29.042969 0.566406 34.820313 C 1.8125 40.597656 6.917969 44.722656 12.828125 44.730469 L 55.359375 44.730469 C 63.449219 44.726563 70.003906 38.164063 70 30.074219 C 69.996094 23.316406 65.371094 17.4375 58.800781 15.84375 Z M 58.800781 15.84375 "/>
<path style=" stroke:none;fill-rule:nonzero;fill:rgb(50.196078%,28.627451%,59.607843%);fill-opacity:1;" d="M 18.339844 30.730469 C 17.566406 30.730469 16.941406 31.355469 16.941406 32.128906 L 16.941406 68.53125 C 16.941406 69.304688 17.566406 69.929688 18.339844 69.929688 L 51.941406 69.929688 C 52.714844 69.929688 53.339844 69.304688 53.339844 68.53125 L 53.339844 32.128906 C 53.339844 31.355469 52.714844 30.730469 51.941406 30.730469 Z M 18.339844 30.730469 "/>
<path style=" stroke:none;fill-rule:nonzero;fill:rgb(100%,100%,100%);fill-opacity:1;" d="M 32.339844 30.730469 L 32.339844 20.929688 L 28.140625 20.929688 L 35.140625 11.128906 L 42.140625 20.929688 L 37.941406 20.929688 L 37.941406 30.730469 Z M 46.339844 34.929688 L 21.140625 34.929688 L 21.140625 65.730469 L 49.140625 65.730469 L 49.140625 34.929688 Z M 46.339844 34.929688 "/>
<path style=" stroke:none;fill-rule:nonzero;fill:rgb(50.196078%,28.627451%,59.607843%);fill-opacity:1;" d="M 23.894531 37.730469 L 29.492188 37.730469 L 29.492188 62.929688 L 23.894531 62.929688 Z M 32.292969 37.730469 L 37.894531 37.730469 L 37.894531 62.929688 L 32.292969 62.929688 Z M 40.695313 37.730469 L 46.292969 37.730469 L 46.292969 62.929688 L 40.695313 62.929688 Z M 40.695313 37.730469 "/>
</g>
</svg>
