<?xml version="1.0" encoding="utf-8"?><svg version="1.1" xmlns="http://www.w3.org/2000/svg" xmlns:xlink="http://www.w3.org/1999/xlink" xmlns:xml="http://www.w3.org/XML/1998/namespace" width="70" height="70" viewBox="0, 0, 18, 18" id="e9f7ba73-56b8-4864-96ff-dce80bef729a"><defs><linearGradient x1="8.637" y1="-1.991" x2="8.637" y2="16.739" gradientUnits="userSpaceOnUse" id="bdf27dc6-025c-4805-8bfd-3a05defd3fbd"><stop offset="0%" stop-color="#5EA0EF" /><stop offset="100%" stop-color="#0078D4" /></linearGradient><linearGradient x1="12.96" y1="8.561" x2="12.96" y2="6.141" gradientUnits="userSpaceOnUse" gradientTransform="matrix(1, 0, 0, -1, 0, 20)" id="fcd6c6c7-e2eb-4a32-b914-3a8485585a1b"><stop offset="0%" stop-color="#333132" /><stop offset="100%" stop-color="#5B5A5C" /></linearGradient></defs><path d="M7.43 8.178 l2.589 -1.573 l7.255 2.731 A3.664 3.664 0 0 0 16.23 7.49 l-0.01 -0.05 A4.194 4.194 0 0 0 14 6.32 a4.91 4.91 0 0 0 -5.1 -4.7 A5.071 5.071 0 0 0 4.06 4.91 A4.621 4.621 0 0 0 0 9.39 a4.73 4.73 0 0 0 4.89 4.54 H7.43 Z" style="fill:url(#bdf27dc6-025c-4805-8bfd-3a05defd3fbd);" /><polygon points="10.07,7.159 10.08,11.439 17.99,13.119 17.99,10.139 10.07,7.159" style="fill:#767676;" /><polyline points="10.07,7.159 7.93,8.459 7.93,12.439 10.08,11.439" style="fill:#999999;" /><polygon points="13.68,11.499 14.4,11.699 14.4,9.369 13.68,9.119 13.68,11.499" style="fill:#A3A3A3;" /><polygon points="12.96,8.889 12.24,8.629 12.24,11.119 12.96,11.319 12.96,8.889" style="fill:#A3A3A3;" /><polygon points="15.12,11.889 15.82,12.079 15.84,9.859 15.12,9.619 15.12,11.889" style="fill:#A3A3A3;" /><polygon points="10.81,10.749 11.53,10.929 11.53,8.399 10.81,8.159 10.81,10.749" style="fill:#A3A3A3;" /><polygon points="17.27,10.349 16.55,10.099 16.55,12.269 17.27,12.469 17.27,10.349" style="fill:#A3A3A3;" /><path d="M8.66 11.369 l-0.36 0.21 V8.749 l0.36 -0.19 Z m0.71 -3.22 L9 8.389 v2.75 l0.37 -0.2 Z" id="ef0d1b54-a1e7-4cb9-a4e5-8a8518e7c127" style="fill:#B3B3B3;" /><polygon points="17.99,13.119 15.83,13.859 7.93,12.439 10.08,11.439 17.99,13.119" style="fill:url(#fcd6c6c7-e2eb-4a32-b914-3a8485585a1b);" /><polygon points="17.99,16.169 10.04,17.679 10.08,12.089 17.99,13.559 17.99,16.169" style="fill:#767676;" /><polygon points="10.81,16.759 10.81,13.209 11.53,13.299 11.53,16.639 10.81,16.759" style="fill:#A3A3A3;" /><polygon points="12.96,16.399 12.24,16.529 12.24,13.389 12.96,13.499 12.96,16.399 12.96,16.399" style="fill:#A3A3A3;" /><polygon points="13.68,16.289 13.68,13.569 14.4,13.659 14.4,16.159 13.68,16.289" style="fill:#A3A3A3;" /><polygon points="15.83,15.909 15.12,16.039 15.12,13.749 15.83,13.859 15.83,15.909" style="fill:#A3A3A3;" /><polygon points="17.29,15.679 16.55,15.809 16.55,13.929 17.24,14.019 17.29,15.679" style="fill:#A3A3A3;" /><path d="M7.93 16.4 v-3.26 l2.16 -1 v5.6 Z" id="b9f25eb4-4c88-45c2-bc4d-f992757d7e0e" style="fill:#999999;" /><path d="M8.61 16.389 l-0.32 -0.16 v-2.76 l0.32 -0.15 Z m0.77 -3.45 l-0.38 0.19 v3.48 l0.37 0.19 v-3.86 Z" id="eb9200a7-4693-4427-bdae-b33ce90ff7f2" style="fill:#B3B3B3;" /></svg>