<?xml version="1.0" encoding="UTF-8"?>
<svg xmlns="http://www.w3.org/2000/svg" xmlns:xlink="http://www.w3.org/1999/xlink" width="70pt" height="70pt" viewBox="0 0 70 70" version="1.1">
<g id="surface1">
<path style=" stroke:none;fill-rule:nonzero;fill:rgb(0%,0%,0%);fill-opacity:1;" d="M 66.449219 14.066406 L 62.449219 14.066406 C 60.492188 14.066406 58.898438 15.660156 58.898438 17.617188 L 58.898438 18.96875 L 11.171875 18.96875 L 11.171875 17.617188 C 11.171875 15.660156 9.582031 14.066406 7.621094 14.066406 L 3.550781 14.066406 C 1.59375 14.066406 0 15.660156 0 17.617188 L 0 52.382813 C 0 54.339844 1.59375 55.933594 3.550781 55.933594 L 7.621094 55.933594 C 9.582031 55.933594 11.171875 54.339844 11.171875 52.382813 L 11.171875 51.03125 L 58.898438 51.03125 L 58.898438 52.382813 C 58.898438 54.339844 60.492188 55.933594 62.449219 55.933594 L 66.449219 55.933594 C 68.40625 55.933594 70 54.339844 70 52.382813 L 70 17.617188 C 70 15.660156 68.40625 14.066406 66.449219 14.066406 Z M 8.382813 52.382813 C 8.382813 52.800781 8.042969 53.144531 7.621094 53.144531 L 3.550781 53.144531 C 3.128906 53.144531 2.789063 52.800781 2.789063 52.382813 L 2.789063 17.617188 C 2.789063 17.199219 3.128906 16.855469 3.550781 16.855469 L 7.621094 16.855469 C 8.042969 16.855469 8.382813 17.199219 8.382813 17.617188 Z M 58.898438 48.242188 L 11.171875 48.242188 L 11.171875 21.757813 L 58.898438 21.757813 Z M 67.210938 52.382813 C 67.210938 52.800781 66.871094 53.144531 66.449219 53.144531 L 62.449219 53.144531 C 62.027344 53.144531 61.6875 52.800781 61.6875 52.382813 L 61.6875 17.617188 C 61.6875 17.199219 62.027344 16.855469 62.449219 16.855469 L 66.449219 16.855469 C 66.871094 16.855469 67.210938 17.199219 67.210938 17.617188 Z M 67.210938 52.382813 "/>
<path style=" stroke:none;fill-rule:nonzero;fill:rgb(0%,0%,0%);fill-opacity:1;" d="M 37.914063 43.695313 L 37.203125 43.695313 C 36.433594 43.695313 35.808594 44.320313 35.808594 45.089844 C 35.808594 45.859375 36.433594 46.484375 37.203125 46.484375 L 37.914063 46.484375 C 38.683594 46.484375 39.308594 45.859375 39.308594 45.089844 C 39.308594 44.320313 38.683594 43.695313 37.914063 43.695313 Z M 37.914063 43.695313 "/>
<path style=" stroke:none;fill-rule:nonzero;fill:rgb(0%,0%,0%);fill-opacity:1;" d="M 31.804688 43.695313 L 14.894531 43.695313 C 14.125 43.695313 13.5 44.320313 13.5 45.089844 C 13.5 45.859375 14.125 46.484375 14.894531 46.484375 L 31.804688 46.484375 C 32.574219 46.484375 33.199219 45.859375 33.199219 45.089844 C 33.199219 44.320313 32.574219 43.695313 31.804688 43.695313 Z M 31.804688 43.695313 "/>
</g>
</svg>
