<?xml version="1.0" encoding="utf-8"?><svg version="1.1" xmlns="http://www.w3.org/2000/svg" xmlns:xlink="http://www.w3.org/1999/xlink" xmlns:xml="http://www.w3.org/XML/1998/namespace" width="70" height="70" viewBox="0, 0, 18, 18"><defs><linearGradient x1="6.41" y1="1.78" x2="6.41" y2="14.13" gradientUnits="userSpaceOnUse" id="a790cec7-07c9-4638-b5c5-ab9fbd5ca908"><stop offset="0%" stop-color="#65BDFF" /><stop offset="38%" stop-color="#5DBAFF" /><stop offset="76%" stop-color="#45B0FF" /><stop offset="100%" stop-color="#2FA6FF" /></linearGradient><linearGradient x1="7.85" y1="13.09" x2="16.6" y2="13.09" gradientUnits="userSpaceOnUse" id="b9e6ae88-e13e-4cbb-9678-9c3623cbd024"><stop offset="0%" stop-color="#00518E" /><stop offset="7%" stop-color="#005696" /><stop offset="36%" stop-color="#0065B0" /><stop offset="52%" stop-color="#006CBC" /><stop offset="64%" stop-color="#0067B4" /><stop offset="82%" stop-color="#005FA6" /><stop offset="100%" stop-color="#00518E" /></linearGradient></defs><title>Icon-integration-216</title><g><g id="e324a405-82e2-4fb6-93ca-106df2178669"><g><path d="M1.42 1.79 l1 -1.13 A0.48 0.48 0 0 1 2.75 0.5 h9.31 a0.66 0.66 0 0 1 0.71 0.67 V12.79 a0.48 0.48 0 0 1 -0.16 0.35 l-1 0.95 Z" style="fill:#33A8FF;" /><path d="M1.42 1.79 l1 -1.13 A0.48 0.48 0 0 1 2.75 0.5 h9.31 a0.66 0.66 0 0 1 0.71 0.67 V12.79 a0.48 0.48 0 0 1 -0.16 0.35 l-1 0.95 Z" opacity="0.5" style="fill:#33A8FF;" /><path d="M2.2 1.79 l0.59 -0.68 A0.44 0.44 0 0 1 3.11 1 H11.8 a0.42 0.42 0 0 1 0.42 0.42 V12.43 a0.44 0.44 0 0 1 -0.13 0.31 l-0.93 0.85" style="fill:white;" /><path d="M11.1 1.78 H1.45 a0 0 0 0 0 -0.05 0 v12 a0.31 0.31 0 0 0 0.31 0.31 H11.1 a0.31 0.31 0 0 0 0.31 -0.31 V2.09 A0.31 0.31 0 0 0 11.1 1.78 Z" style="fill:url(#a790cec7-07c9-4638-b5c5-ab9fbd5ca908);" /><g><path d="M12.22 10.08 c-2.41 0 -4.37 -0.62 -4.37 -1.39 v7.42 c0 0.76 1.92 1.38 4.31 1.39 h0.06 c2.42 0 4.38 -0.62 4.38 -1.39 V8.69 C16.6 9.46 14.64 10.08 12.22 10.08 Z" style="fill:url(#b9e6ae88-e13e-4cbb-9678-9c3623cbd024);" /><path d="M16.6 8.69 c0 0.77 -2 1.39 -4.38 1.39 S7.85 9.46 7.85 8.69 s2 -1.4 4.37 -1.4 s4.38 0.63 4.38 1.4" style="fill:#D1EBFF;" /><path d="M15.58 8.58 c0 0.49 -1.51 0.88 -3.36 0.88 s-3.35 -0.39 -3.35 -0.88 s1.5 -0.89 3.35 -0.89 s3.36 0.4 3.36 0.89" style="fill:#77C5FF;" /><path d="M12.22 8.78 a8.89 8.89 0 0 0 -2.65 0.34 a8.79 8.79 0 0 0 2.65 0.34 a8.86 8.86 0 0 0 2.66 -0.34 A9 9 0 0 0 12.22 8.78 Z" style="fill:#007CD8;" /></g></g></g></g></svg>