<?xml version="1.0" encoding="UTF-8"?>
<svg xmlns="http://www.w3.org/2000/svg" xmlns:xlink="http://www.w3.org/1999/xlink" width="70pt" height="70pt" viewBox="0 0 70 70" version="1.1">
<defs>
<filter id="alpha" filterUnits="objectBoundingBox" x="0%" y="0%" width="100%" height="100%">
  <feColorMatrix type="matrix" in="SourceGraphic" values="0 0 0 0 1 0 0 0 0 1 0 0 0 0 1 0 0 0 1 0"/>
</filter>
<mask id="mask0">
  <g filter="url(#alpha)">
<rect x="0" y="0" width="70" height="70" style="fill:rgb(0%,0%,0%);fill-opacity:0.2;stroke:none;"/>
  </g>
</mask>
<clipPath id="clip1">
  <rect x="0" y="0" width="70" height="70"/>
</clipPath>
<g id="surface5" clip-path="url(#clip1)">
<path style=" stroke:none;fill-rule:nonzero;fill:rgb(94.509804%,94.509804%,94.509804%);fill-opacity:1;" d="M 34.859375 42.839844 C 34.578125 42.839844 34.441406 42.558594 34.019531 42.558594 C 33.179688 42.558594 32.339844 42.980469 31.640625 43.679688 L 31.359375 43.960938 C 28.699219 46.621094 25.761719 48.578125 22.398438 49.558594 L 21.140625 52.21875 L 23.378906 54.460938 Z M 34.859375 42.839844 "/>
<path style=" stroke:none;fill-rule:nonzero;fill:rgb(94.509804%,94.509804%,94.509804%);fill-opacity:1;" d="M 22.960938 22.820313 C 26.460938 20.859375 30.101563 20.019531 34.019531 20.019531 C 39.480469 20.300781 44.519531 22.261719 48.441406 25.898438 C 49.140625 26.460938 49.699219 26.878906 50.398438 27.441406 L 62.019531 15.820313 L 59.640625 13.441406 L 58.800781 13.859375 L 52.5 17.078125 L 48.160156 15.398438 L 45.359375 7.980469 L 39.058594 7.980469 L 38.78125 8.820313 L 36.679688 15.398438 L 32.339844 17.078125 L 24.921875 13.859375 L 20.441406 18.199219 L 20.859375 19.039063 Z M 22.960938 22.820313 "/>
</g>
</defs>
<g id="surface1">
<path style=" stroke:none;fill-rule:nonzero;fill:rgb(47.843137%,47.843137%,47.843137%);fill-opacity:1;" d="M 60.621094 44.800781 L 62.300781 40.460938 L 70 37.800781 L 70 31.640625 L 69.160156 31.359375 L 62.300781 29.398438 L 60.621094 25.058594 L 64.121094 17.921875 L 59.78125 13.578125 L 58.941406 14 L 52.640625 17.21875 L 48.160156 15.398438 L 45.359375 7.980469 L 39.058594 7.980469 L 38.78125 8.820313 L 36.679688 15.398438 L 32.339844 17.078125 L 24.921875 13.859375 L 20.441406 18.199219 L 20.859375 19.039063 L 22.820313 22.679688 C 26.320313 20.71875 29.960938 19.878906 33.878906 19.878906 C 39.339844 20.160156 44.378906 22.121094 48.300781 25.761719 C 49.140625 26.460938 49.980469 27.019531 50.960938 28 C 51.378906 28.421875 51.800781 29.121094 52.078125 29.539063 C 54.738281 34.160156 53.621094 40.039063 49.28125 43.539063 C 46.058594 46.199219 41.578125 46.621094 38.21875 45.078125 C 37.800781 44.800781 37.519531 44.800781 37.378906 44.660156 C 36.539063 44.238281 35.699219 43.539063 35 42.980469 C 34.71875 42.980469 34.578125 42.699219 34.160156 42.699219 C 33.320313 42.699219 32.480469 43.121094 31.78125 43.820313 L 31.5 44.101563 C 28.839844 46.761719 25.898438 48.71875 22.539063 49.699219 L 21.28125 52.359375 L 25.761719 56.839844 L 26.601563 56.421875 L 32.898438 53.199219 L 37.238281 54.878906 L 39.621094 62.300781 L 45.921875 62.300781 L 46.199219 61.460938 L 48.441406 54.878906 L 52.78125 53.199219 L 60.199219 56.421875 L 64.398438 51.800781 L 63.980469 50.960938 Z M 60.621094 44.800781 "/>
<path style=" stroke:none;fill-rule:nonzero;fill:rgb(28.235294%,78.431373%,93.72549%);fill-opacity:1;" d="M 23.101563 33.878906 C 18.339844 38.921875 10.640625 38.921875 6.160156 33.601563 C 5.738281 32.898438 4.621094 32.898438 4.199219 33.601563 C 3.921875 33.878906 3.78125 34.300781 3.78125 34.71875 C 3.78125 35.140625 4.058594 35.558594 4.199219 35.839844 C 9.800781 42.140625 19.179688 42.28125 25.199219 36.121094 C 29.960938 31.359375 37.378906 31.21875 42 36.539063 C 42.699219 37.238281 43.539063 37.238281 43.960938 36.539063 C 44.238281 36.261719 44.378906 35.839844 44.378906 35.421875 C 44.378906 35 44.101563 34.578125 43.960938 34.300781 C 38.359375 28 28.980469 27.859375 23.101563 33.878906 Z M 23.101563 33.878906 "/>
<path style=" stroke:none;fill-rule:nonzero;fill:rgb(0%,67.058824%,92.54902%);fill-opacity:1;" d="M 33.601563 36.539063 C 30.941406 36.539063 28.839844 37.378906 26.878906 39.339844 L 26.601563 39.621094 L 26.320313 39.898438 C 23.101563 43.398438 18.621094 45.078125 14.140625 44.941406 C 9.519531 44.941406 5.460938 42.699219 2.101563 39.339844 C 1.398438 38.640625 0.558594 38.640625 0.140625 39.339844 C 0 39.339844 0 39.621094 0 40.039063 C 0 40.460938 0.421875 41.160156 0.699219 41.300781 C 4.339844 45.5 9.378906 47.878906 14.699219 47.878906 C 19.878906 48.160156 24.921875 45.921875 28.839844 41.71875 L 29.121094 41.441406 L 29.398438 41.160156 C 30.660156 39.898438 32.199219 39.199219 34.019531 39.199219 C 35.699219 39.199219 37.238281 40.039063 38.640625 41.441406 C 39.339844 42.140625 40.179688 42.140625 40.601563 41.441406 C 40.878906 41.160156 41.019531 40.738281 41.019531 40.320313 C 41.019531 39.898438 40.738281 39.480469 40.601563 39.199219 C 38.640625 37.660156 36.261719 36.539063 33.601563 36.539063 Z M 33.601563 36.539063 "/>
<path style=" stroke:none;fill-rule:nonzero;fill:rgb(51.764706%,83.921569%,93.72549%);fill-opacity:1;" d="M 21.839844 30.800781 C 25.058594 27.300781 29.539063 25.621094 34.019531 25.621094 C 38.5 25.621094 42.699219 27.859375 45.78125 31.21875 C 46.480469 31.921875 47.320313 31.921875 47.738281 31.21875 C 48.019531 30.941406 48.160156 30.519531 48.160156 30.101563 C 48.160156 29.679688 47.878906 29.261719 47.738281 28.980469 C 44.101563 24.78125 39.058594 22.398438 33.738281 22.398438 C 28.421875 22.398438 23.519531 24.359375 19.601563 28.558594 L 19.039063 29.121094 C 17.78125 30.378906 16.238281 31.078125 14.421875 31.078125 C 12.601563 31.078125 11.199219 30.238281 9.800781 28.839844 C 9.101563 28.140625 8.261719 28.140625 7.839844 28.839844 C 7.558594 29.121094 7.421875 29.539063 7.421875 29.960938 C 7.421875 30.378906 7.699219 30.800781 7.839844 31.078125 C 9.519531 33.039063 12.039063 34.160156 14.421875 34.160156 C 17.078125 34.160156 19.179688 33.320313 21.140625 31.359375 L 21.421875 31.078125 Z M 21.839844 30.800781 "/>
<use xlink:href="#surface5" mask="url(#mask0)"/>
</g>
</svg>
