<?xml version="1.0" encoding="UTF-8"?>
<svg xmlns="http://www.w3.org/2000/svg" xmlns:xlink="http://www.w3.org/1999/xlink" width="70pt" height="70pt" viewBox="0 0 70 70" version="1.1">
<defs>
<filter id="alpha" filterUnits="objectBoundingBox" x="0%" y="0%" width="100%" height="100%">
  <feColorMatrix type="matrix" in="SourceGraphic" values="0 0 0 0 1 0 0 0 0 1 0 0 0 0 1 0 0 0 1 0"/>
</filter>
<mask id="mask0">
  <g filter="url(#alpha)">
<rect x="0" y="0" width="70" height="70" style="fill:rgb(0%,0%,0%);fill-opacity:0.2;stroke:none;"/>
  </g>
</mask>
<clipPath id="clip1">
  <rect x="0" y="0" width="70" height="70"/>
</clipPath>
<g id="surface5" clip-path="url(#clip1)">
<path style=" stroke:none;fill-rule:nonzero;fill:rgb(100%,100%,100%);fill-opacity:1;" d="M 70 70 L 70 0 L 35 35 Z M 70 70 "/>
</g>
</defs>
<g id="surface1">
<path style=" stroke:none;fill-rule:nonzero;fill:rgb(0%,47.058824%,83.137255%);fill-opacity:1;" d="M 70 0 L 0 0 L 70 70 Z M 70 0 "/>
<path style=" stroke:none;fill-rule:nonzero;fill:rgb(72.156863%,83.137255%,19.607843%);fill-opacity:1;" d="M 0.328125 64.738281 L 26.058594 39.007813 C 26.488281 38.578125 27.183594 38.578125 27.613281 39.007813 L 31.003906 42.398438 C 31.429688 42.828125 31.429688 43.523438 31.003906 43.949219 L 5.273438 69.679688 C 4.84375 70.109375 4.148438 70.109375 3.71875 69.679688 L 0.328125 66.289063 C -0.0976563 65.863281 -0.0976563 65.167969 0.328125 64.738281 Z M 0.328125 64.738281 "/>
<path style=" stroke:none;fill-rule:nonzero;fill:rgb(72.156863%,83.137255%,19.607843%);fill-opacity:1;" d="M 0.34375 44.917969 L 16.21875 29.042969 C 16.648438 28.613281 17.34375 28.613281 17.773438 29.042969 L 21.160156 32.429688 C 21.589844 32.859375 21.589844 33.554688 21.160156 33.984375 L 5.285156 49.859375 C 4.855469 50.289063 4.160156 50.289063 3.734375 49.859375 L 0.34375 46.46875 C -0.0859375 46.039063 -0.0859375 45.34375 0.34375 44.917969 Z M 0.34375 44.917969 "/>
<path style=" stroke:none;fill-rule:nonzero;fill:rgb(34.901961%,70.588235%,85.098039%);fill-opacity:1;" d="M 20.703125 20.703125 L 49.296875 49.296875 L 70 28.589844 L 70 0 L 41.410156 0 Z M 20.703125 20.703125 "/>
<path style=" stroke:none;fill-rule:nonzero;fill:rgb(72.156863%,83.137255%,19.607843%);fill-opacity:1;" d="M 19.996094 64.714844 L 35.871094 48.839844 C 36.300781 48.410156 36.996094 48.410156 37.421875 48.839844 L 40.8125 52.230469 C 41.242188 52.660156 41.242188 53.355469 40.8125 53.78125 L 24.9375 69.660156 C 24.507813 70.085938 23.8125 70.085938 23.386719 69.660156 L 19.996094 66.269531 C 19.566406 65.839844 19.566406 65.144531 19.996094 64.714844 Z M 19.996094 64.714844 "/>
<use xlink:href="#surface5" mask="url(#mask0)"/>
<path style=" stroke:none;fill-rule:nonzero;fill:rgb(100%,100%,100%);fill-opacity:1;" d="M 35.214844 19.898438 L 37.960938 17.15625 C 38.566406 16.550781 39.550781 16.550781 40.160156 17.15625 L 42.902344 19.898438 C 43.507813 20.507813 43.507813 21.492188 42.902344 22.097656 L 40.160156 24.84375 C 39.550781 25.449219 38.566406 25.449219 37.960938 24.84375 L 35.214844 22.097656 C 34.609375 21.492188 34.609375 20.507813 35.214844 19.898438 Z M 35.214844 19.898438 "/>
<path style=" stroke:none;fill-rule:nonzero;fill:rgb(100%,100%,100%);fill-opacity:1;" d="M 45.101563 10.015625 L 47.84375 7.273438 C 48.453125 6.664063 49.4375 6.664063 50.042969 7.273438 L 52.789063 10.015625 C 53.394531 10.621094 53.394531 11.605469 52.789063 12.214844 L 50.042969 14.957031 C 49.4375 15.566406 48.453125 15.566406 47.84375 14.957031 L 45.101563 12.214844 C 44.496094 11.605469 44.496094 10.621094 45.101563 10.015625 Z M 45.101563 10.015625 "/>
<path style=" stroke:none;fill-rule:nonzero;fill:rgb(100%,100%,100%);fill-opacity:1;" d="M 45.101563 29.785156 L 47.84375 27.042969 C 48.453125 26.433594 49.4375 26.433594 50.042969 27.042969 L 52.785156 29.785156 C 53.394531 30.390625 53.394531 31.375 52.785156 31.984375 L 50.042969 34.726563 C 49.4375 35.335938 48.453125 35.335938 47.84375 34.726563 L 45.101563 31.984375 C 44.492188 31.375 44.492188 30.390625 45.101563 29.785156 Z M 45.101563 29.785156 "/>
<path style=" stroke:none;fill-rule:nonzero;fill:rgb(100%,100%,100%);fill-opacity:1;" d="M 54.984375 19.898438 L 57.730469 17.15625 C 58.335938 16.550781 59.320313 16.550781 59.929688 17.15625 L 62.671875 19.898438 C 63.277344 20.507813 63.277344 21.492188 62.671875 22.101563 L 59.929688 24.84375 C 59.320313 25.449219 58.335938 25.449219 57.730469 24.84375 L 54.984375 22.101563 C 54.378906 21.492188 54.378906 20.507813 54.984375 19.898438 Z M 54.984375 19.898438 "/>
</g>
</svg>
