<?xml version="1.0" encoding="UTF-8"?>
<svg xmlns="http://www.w3.org/2000/svg" xmlns:xlink="http://www.w3.org/1999/xlink" width="70pt" height="67pt" viewBox="0 0 70 67" version="1.1">
<defs>
<filter id="alpha" filterUnits="objectBoundingBox" x="0%" y="0%" width="100%" height="100%">
  <feColorMatrix type="matrix" in="SourceGraphic" values="0 0 0 0 1 0 0 0 0 1 0 0 0 0 1 0 0 0 1 0"/>
</filter>
<mask id="mask0">
  <g filter="url(#alpha)">
<rect x="0" y="0" width="70" height="67" style="fill:rgb(0,0,0);fill-opacity:0.2;stroke:none;"/>
  </g>
</mask>
<clipPath id="clip1">
  <rect x="0" y="0" width="70" height="67"/>
</clipPath>
<g id="surface5" clip-path="url(#clip1)">
<path style=" stroke:none;fill-rule:nonzero;fill:rgb(255,255,255);fill-opacity:1;" d="M 43.1875 52.300781 L 33.609375 52.300781 C 34.773438 58.726563 38.464844 64.421875 43.859375 68.113281 L 46.035156 68.113281 L 50.132813 61.027344 C 46.792969 59.101563 44.3125 55.984375 43.191406 52.300781 Z M 57.691406 23.46875 C 55.253906 23.46875 52.828125 23.832031 50.5 24.546875 L 51.722656 26.65625 L 55.382813 32.988281 C 58.792969 32.429688 62.292969 33.085938 65.269531 34.84375 L 69.9375 26.765625 C 66.21875 24.605469 61.992188 23.46875 57.691406 23.46875 Z M 49.199219 35.40625 L 44.527344 27.324219 C 38.128906 31.394531 33.984375 38.199219 33.308594 45.746094 L 42.714844 45.746094 C 43.328125 41.542969 45.679688 37.792969 49.199219 35.40625 Z M 49.199219 35.40625 "/>
</g>
</defs>
<g id="surface1">
<path style=" stroke:none;fill-rule:nonzero;fill:rgb(57,171,255);fill-opacity:1;" d="M 58.964844 7.566406 L 50.113281 7.566406 C 50.113281 11.203125 48.796875 14.71875 46.402344 17.460938 L 51.722656 26.65625 L 55.382813 32.988281 C 58.792969 32.429688 62.292969 33.085938 65.269531 34.84375 L 70 26.65625 Z M 43.1875 52.300781 L 26.730469 52.300781 C 25.613281 55.960938 23.15625 59.066406 19.847656 60.992188 L 23.964844 68.113281 L 46.035156 68.113281 L 50.128906 61.027344 C 46.792969 59.101563 44.308594 55.984375 43.1875 52.300781 Z M 27.203125 45.746094 L 42.714844 45.746094 C 43.328125 41.542969 45.679688 37.792969 49.199219 35.40625 L 41.097656 21.394531 C 37.214844 23.128906 32.777344 23.140625 28.882813 21.421875 L 20.777344 35.445313 C 24.261719 37.832031 26.59375 41.566406 27.207031 45.746094 Z M 19.804688 7.566406 L 11.035156 7.566406 L 0 26.65625 L 4.710938 34.804688 C 7.695313 33.0625 11.203125 32.421875 14.613281 33 L 18.277344 26.65625 L 23.5625 17.511719 C 21.140625 14.765625 19.804688 11.230469 19.804688 7.566406 Z M 19.804688 7.566406 "/>
<path style=" stroke:none;fill-rule:nonzero;fill:rgb(0,71,124);fill-opacity:1;" d="M 42.535156 7.566406 C 42.535156 11.746094 39.144531 15.136719 34.960938 15.136719 C 30.773438 15.136719 27.382813 11.746094 27.382813 7.566406 C 27.382813 3.386719 30.773438 0 34.960938 0 C 39.144531 0 42.535156 3.386719 42.535156 7.566406 Z M 42.535156 7.566406 "/>
<path style=" stroke:none;fill-rule:nonzero;fill:rgb(0,71,124);fill-opacity:1;" d="M 65.269531 47.929688 C 65.269531 52.109375 61.875 55.5 57.691406 55.5 C 53.507813 55.5 50.113281 52.109375 50.113281 47.929688 C 50.113281 43.75 53.507813 40.363281 57.691406 40.363281 C 61.875 40.363281 65.269531 43.75 65.269531 47.929688 Z M 65.269531 47.929688 "/>
<path style=" stroke:none;fill-rule:nonzero;fill:rgb(0,71,124);fill-opacity:1;" d="M 19.804688 47.929688 C 19.804688 52.109375 16.410156 55.5 12.226563 55.5 C 8.042969 55.5 4.648438 52.109375 4.648438 47.929688 C 4.648438 43.75 8.042969 40.363281 12.226563 40.363281 C 16.410156 40.363281 19.804688 43.75 19.804688 47.929688 Z M 19.804688 47.929688 "/>
<use xlink:href="#surface5" mask="url(#mask0)"/>
</g>
</svg>
