<?xml version="1.0" encoding="utf-8"?><svg version="1.1" xmlns="http://www.w3.org/2000/svg" xmlns:xlink="http://www.w3.org/1999/xlink" xmlns:xml="http://www.w3.org/XML/1998/namespace" width="70" height="70" viewBox="0, 0, 18, 18" id="b388e944-5509-49c9-84d7-f38bffa995b2"><defs><linearGradient x1="5.23" y1="17.45" x2="5.23" y2="8.09" gradientUnits="userSpaceOnUse" id="a997e203-1d7d-4cb9-b131-5dc44e029b46"><stop offset="0%" stop-color="#1988D9" /><stop offset="90%" stop-color="#54AEF0" /></linearGradient><linearGradient x1="11.5" y1="12.45" x2="11.5" y2="0.55" gradientUnits="userSpaceOnUse" id="e122e9d8-aee5-4f1a-a60e-b1eae355daa5"><stop offset="0%" stop-color="#198AB3" /><stop offset="1%" stop-color="#198BB4" /><stop offset="44%" stop-color="#27B2D7" /><stop offset="79%" stop-color="#2FCBED" /><stop offset="100%" stop-color="#32D4F5" /></linearGradient></defs><title>Icon-manage-307</title><path d="M5.59 13.13 H9.91 v4.32 H5.59 Z M1.15 17.45 H4.87 V13.13 H0.55 v3.72 A0.6 0.6 0 0 0 1.15 17.45 Z m-0.6 -5 H4.87 V8.09 H0.55 Z" style="fill:url(#a997e203-1d7d-4cb9-b131-5dc44e029b46);" /><path d="M11.5 0.55 a5.89 5.89 0 0 1 5.95 6 a5.89 5.89 0 0 1 -5.95 5.95 H5.55 V6.5 A5.89 5.89 0 0 1 11.5 0.55 Z" fill-rule="evenodd" style="fill:url(#e122e9d8-aee5-4f1a-a60e-b1eae355daa5);" /><rect x="7.59" y="5.65" width="1.36" height="4.08" style="fill:white;" /><rect x="10.31" y="7.01" width="1.36" height="2.72" style="fill:white;" /><rect x="13.03" y="4.29" width="1.36" height="5.44" style="fill:white;" /></svg>