<?xml version="1.0" encoding="UTF-8"?>
<svg xmlns="http://www.w3.org/2000/svg" xmlns:xlink="http://www.w3.org/1999/xlink" width="70pt" height="70pt" viewBox="0 0 70 70" version="1.1">
<g id="surface1">
<path style=" stroke:none;fill-rule:nonzero;fill:rgb(34.901961%,70.588235%,85.098039%);fill-opacity:1;" d="M 69.859375 41.300781 L 69.859375 24.359375 L 50.679688 41.019531 L 50.261719 41.019531 L 50.261719 24.359375 L 31.078125 41.019531 L 31.078125 6.160156 C 31.078125 3.21875 24.5 0.28125 15.820313 0.28125 C 7.140625 0.28125 0 3.078125 0 6.160156 L 0 70 L 70 70 Z M 15.820313 8.960938 C 9.519531 8.960938 4.480469 7.421875 4.480469 5.738281 C 4.480469 4.058594 9.519531 2.519531 15.820313 2.519531 C 22.121094 2.519531 27.160156 3.921875 27.160156 5.738281 C 27.019531 7.421875 21.980469 8.960938 15.820313 8.960938 Z M 48.859375 58.660156 L 41.160156 58.660156 L 41.160156 50.960938 L 48.859375 50.960938 Z M 35.28125 58.660156 L 27.578125 58.660156 L 27.578125 50.960938 L 35.28125 50.960938 Z M 54.878906 58.660156 L 54.878906 50.960938 L 62.578125 50.960938 L 62.578125 58.660156 Z M 54.878906 58.660156 "/>
<path style=" stroke:none;fill-rule:nonzero;fill:rgb(22.352941%,60%,77.647059%);fill-opacity:1;" d="M 0 5.738281 L 15.539063 5.738281 L 15.539063 70 L 0 70 Z M 0 5.738281 "/>
<path style=" stroke:none;fill-rule:nonzero;fill:rgb(100%,100%,100%);fill-opacity:1;" d="M 30.941406 5.738281 C 30.941406 8.820313 23.941406 11.339844 15.398438 11.339844 C 6.859375 11.339844 0 8.820313 0 5.738281 C 0 2.660156 7 0.140625 15.539063 0.140625 C 24.078125 0.140625 30.941406 2.519531 30.941406 5.738281 "/>
<path style=" stroke:none;fill-rule:nonzero;fill:rgb(49.803922%,72.941176%,0%);fill-opacity:1;" d="M 27.859375 5.320313 C 27.859375 7.421875 22.398438 8.960938 15.539063 8.960938 C 8.679688 8.960938 3.21875 7.421875 3.21875 5.320313 C 3.21875 3.21875 8.679688 1.679688 15.539063 1.679688 C 22.398438 1.679688 27.859375 3.359375 27.859375 5.320313 "/>
<path style=" stroke:none;fill-rule:nonzero;fill:rgb(72.156863%,83.137255%,19.607843%);fill-opacity:1;" d="M 25.199219 7.558594 C 26.878906 7 27.71875 6.160156 27.71875 5.320313 C 27.71875 3.21875 22.261719 1.679688 15.398438 1.679688 C 8.539063 1.679688 3.078125 3.359375 3.078125 5.320313 C 3.21875 6.160156 4.199219 7 5.738281 7.558594 C 7.980469 6.71875 11.480469 6.160156 15.539063 6.160156 C 19.460938 6.160156 22.960938 6.71875 25.199219 7.558594 "/>
</g>
</svg>
