<?xml version="1.0" encoding="utf-8"?><svg version="1.1" xmlns="http://www.w3.org/2000/svg" xmlns:xlink="http://www.w3.org/1999/xlink" xmlns:xml="http://www.w3.org/XML/1998/namespace" width="70" height="70" viewBox="0, 0, 18, 18" id="FxSymbol0-057" class="" role="presentation" focusable="false" data-type="1"><g><title>Purview_18x</title><path d="M10.577 8.8 a1.622 1.622 0 0 1 -1.622 -1.62 a1.979 1.979 0 1 0 1.961 1.583 a1.638 1.638 0 0 1 -0.339 0.037 Z" style="fill:url(#86d812fa-1267-4cea-b2d9-9d1d8ac5d067);" /><path d="M12.862 11.231 a5.051 5.051 0 0 0 -0.656 -2.024 A3.218 3.218 0 0 1 9 12.227 c-0.077 0 -0.149 -0.017 -0.224 -0.023 a6.735 6.735 0 0 1 -4.559 -1.86 a8.724 8.724 0 0 1 -2.281 -3.683 A20.447 20.447 0 0 0 0.294 8.335 a0.909 0.909 0 0 0 0 1.336 a16.887 16.887 0 0 0 3.866 3.408 a8.8 8.8 0 0 0 4.971 1.541 a7.2 7.2 0 0 0 3.318 -0.789 c0.065 -0.03 0.121 -0.07 0.185 -0.1 a6.926 6.926 0 0 0 0.228 -2.5 Z" style="fill:url(#86d812fa-1267-4cea-b2d9-9d1d8ac5d068);" /><path d="M6.158 10.5 a3.177 3.177 0 0 1 0.591 -3.807 a6.414 6.414 0 0 1 3.245 -2.3 a7.915 7.915 0 0 1 2.182 -0.344 a8.377 8.377 0 0 0 -1.857 -0.56 a7.978 7.978 0 0 0 -5.107 0.843 a14.276 14.276 0 0 0 -2.46 1.618 a7.836 7.836 0 0 0 2.1 3.615 a5.977 5.977 0 0 0 1.306 0.935 Z" style="fill:url(#86d812fa-1267-4cea-b2d9-9d1d8ac5d069);" /><path d="M17.73 8.379 A17.2 17.2 0 0 0 14.374 5.3 a7.439 7.439 0 0 0 -3.991 0.02 a5.724 5.724 0 0 0 -1.127 0.48 a3.209 3.209 0 0 1 1.562 0.536 a0.453 0.453 0 0 1 0.118 0.053 a6.712 6.712 0 0 1 2.891 4.544 a7.629 7.629 0 0 1 -0.033 2.161 a16.951 16.951 0 0 0 3.932 -3.457 a0.862 0.862 0 0 0 0.004 -1.258 Z" style="fill:url(#86d812fa-1267-4cea-b2d9-9d1d8ac5d06a);" /><path d="M-2.9 -3.738 h24.279 v27.771 H-2.9 z" stroke-miterlimit="10" style="fill:none;stroke:#005290;" /></g><defs><linearGradient x1="8.977" y1="11.134" x2="8.977" y2="7.178" gradientUnits="userSpaceOnUse" id="86d812fa-1267-4cea-b2d9-9d1d8ac5d067"><stop offset="0%" stop-color="#25A2FF" /><stop offset="100%" stop-color="#77C5FF" /></linearGradient><linearGradient x1="6.446" y1="14.626" x2="6.446" y2="3.374" gradientUnits="userSpaceOnUse" id="86d812fa-1267-4cea-b2d9-9d1d8ac5d068"><stop offset="4.1%" stop-color="#2FA6FF" /><stop offset="49.5%" stop-color="#77C5FF" /><stop offset="92%" stop-color="#C9E8FF" /></linearGradient><linearGradient x1="7.464" y1="10.047" x2="7.464" y2="0.254" gradientUnits="userSpaceOnUse" id="86d812fa-1267-4cea-b2d9-9d1d8ac5d069"><stop offset="24.4%" stop-color="#006CBC" /><stop offset="60%" stop-color="#008BF2" /><stop offset="93.3%" stop-color="#23A1FF" /></linearGradient><linearGradient x1="13.628" y1="14.626" x2="13.628" y2="4.193" gradientUnits="userSpaceOnUse" id="86d812fa-1267-4cea-b2d9-9d1d8ac5d06a"><stop offset="0%" stop-color="#00518E" /><stop offset="39.9%" stop-color="#006CBC" /><stop offset="85.7%" stop-color="#29A4FF" /></linearGradient></defs></svg>