<?xml version="1.0" encoding="UTF-8"?>
<svg xmlns="http://www.w3.org/2000/svg" xmlns:xlink="http://www.w3.org/1999/xlink" width="70pt" height="70pt" viewBox="0 0 70 70" version="1.1">
<g id="surface1">
<path style=" stroke:none;fill-rule:nonzero;fill:rgb(65,174,255);fill-opacity:1;" d="M 57.890625 64.261719 L 12.039063 64.261719 C 8.539063 64.261719 5.671875 61.390625 5.671875 57.890625 L 5.671875 12.039063 C 5.671875 8.539063 8.539063 5.671875 12.039063 5.671875 L 57.890625 5.671875 C 61.390625 5.671875 64.261719 8.539063 64.261719 12.039063 L 64.261719 57.890625 C 64.261719 61.390625 61.390625 64.261719 57.890625 64.261719 Z M 12.039063 9.871094 C 10.851563 9.871094 9.941406 10.851563 9.941406 11.96875 L 9.941406 57.820313 C 9.941406 59.011719 10.921875 59.921875 12.039063 59.921875 L 57.890625 59.921875 C 59.078125 59.921875 59.988281 58.941406 59.988281 57.820313 L 59.988281 11.96875 C 59.988281 10.78125 59.011719 9.871094 57.890625 9.871094 Z M 12.039063 9.871094 "/>
<path style=" stroke:none;fill-rule:nonzero;fill:rgb(0,140,244);fill-opacity:1;" d="M 28.769531 0.628906 C 27.230469 -0.0703125 25.410156 -0.210938 23.800781 0.421875 C 22.191406 0.980469 20.859375 2.171875 20.160156 3.78125 L 19.179688 5.808594 L 39.828125 5.808594 Z M 28.769531 0.628906 "/>
<path style=" stroke:none;fill-rule:nonzero;fill:rgb(0,140,244);fill-opacity:1;" d="M 69.578125 23.800781 C 69.019531 22.191406 67.828125 20.859375 66.21875 20.160156 L 64.191406 19.179688 L 64.191406 39.898438 L 69.371094 28.839844 C 70.140625 27.230469 70.210938 25.480469 69.578125 23.800781 Z M 69.578125 23.800781 "/>
<path style=" stroke:none;fill-rule:nonzero;fill:rgb(0,140,244);fill-opacity:1;" d="M 0.628906 45.988281 C -0.0703125 47.53125 -0.210938 49.351563 0.421875 50.960938 C 0.980469 52.570313 2.171875 53.898438 3.78125 54.601563 L 5.808594 55.578125 L 5.808594 34.929688 Z M 0.628906 45.988281 "/>
<path style=" stroke:none;fill-rule:nonzero;fill:rgb(0,140,244);fill-opacity:1;" d="M 45.988281 69.371094 C 46.828125 69.789063 47.808594 70 48.71875 70 C 49.488281 70 50.191406 69.859375 50.960938 69.578125 C 52.570313 69.019531 53.898438 67.828125 54.601563 66.21875 L 55.578125 64.191406 L 34.929688 64.191406 Z M 45.988281 69.371094 "/>
<path style=" stroke:none;fill-rule:nonzero;fill:rgb(255,255,255);fill-opacity:1;" d="M 12.039063 9.871094 C 10.851563 9.871094 9.941406 10.851563 9.941406 11.96875 L 9.941406 57.820313 C 9.941406 59.011719 10.921875 59.921875 12.039063 59.921875 L 57.890625 59.921875 C 59.078125 59.921875 59.988281 58.941406 59.988281 57.820313 L 59.988281 11.96875 C 59.988281 10.78125 59.011719 9.871094 57.890625 9.871094 Z M 12.039063 9.871094 "/>
<path style=" stroke:none;fill-rule:nonzero;fill:rgb(57,171,255);fill-opacity:1;" d="M 45.078125 30.589844 L 36.191406 30.589844 L 39.898438 18.199219 C 39.96875 17.851563 39.828125 17.5 39.550781 17.359375 C 39.480469 17.289063 39.339844 17.289063 39.269531 17.289063 C 39.058594 17.289063 38.851563 17.429688 38.710938 17.570313 L 24.359375 38.5 C 24.21875 38.710938 24.21875 38.988281 24.289063 39.199219 C 24.429688 39.410156 24.640625 39.550781 24.921875 39.550781 L 33.53125 39.550781 L 29.679688 52.148438 C 29.609375 52.5 29.75 52.851563 30.03125 52.988281 C 30.101563 53.058594 30.238281 53.058594 30.308594 53.058594 C 30.519531 53.058594 30.730469 52.921875 30.871094 52.78125 L 45.640625 31.640625 C 45.710938 31.5 45.78125 31.359375 45.78125 31.21875 C 45.78125 30.871094 45.429688 30.589844 45.078125 30.589844 Z M 45.078125 30.589844 "/>
</g>
</svg>
