<?xml version="1.0" encoding="utf-8"?><svg version="1.1" xmlns="http://www.w3.org/2000/svg" xmlns:xlink="http://www.w3.org/1999/xlink" xmlns:xml="http://www.w3.org/XML/1998/namespace" width="70" height="70" viewBox="0, 0, 18, 18" id="a40478a6-e066-4f71-855a-ccee2b8d8292"><defs><linearGradient x1="3.44" y1="14.22" x2="3.44" y2="10.54" gradientUnits="userSpaceOnUse" id="f772da2f-25c0-485f-b825-95254810574a"><stop offset="9%" stop-color="#32BEDD" /><stop offset="100%" stop-color="#50E6FF" /></linearGradient><linearGradient x1="14.51" y1="14.22" x2="14.51" y2="10.54" gradientUnits="userSpaceOnUse" id="e209b8d8-d6ba-4c1a-b87f-a54077b834d3"><stop offset="9%" stop-color="#32BEDD" /><stop offset="100%" stop-color="#50E6FF" /></linearGradient><linearGradient x1="8.98" y1="4.4" x2="8.98" y2="0.71" gradientUnits="userSpaceOnUse" id="b6f64a2b-eee9-4c63-9dbc-7bc71d82c212"><stop offset="9%" stop-color="#32BEDD" /><stop offset="100%" stop-color="#50E6FF" /></linearGradient></defs><title>Icon-analytics-142</title><path d="M7.32 11.84 h3.31 a0.28 0.28 0 0 0 0.27 -0.22 a3.7 3.7 0 0 1 1.34 -2.15 a0.27 0.27 0 0 0 0.07 -0.36 l-1.72 -3 A0.27 0.27 0 0 0 10.25 6 A3.87 3.87 0 0 1 9 6.23 A3.56 3.56 0 0 1 7.71 6 a0.28 0.28 0 0 0 -0.34 0.13 l-1.72 3 a0.28 0.28 0 0 0 0.07 0.36 a3.7 3.7 0 0 1 1.33 2.14 A0.27 0.27 0 0 0 7.32 11.84 Z m-2 -9.29 h-2 a0.27 0.27 0 0 0 -0.24 0.14 L0.54 7.06 a0.28 0.28 0 0 0 0 0.28 l0.93 1.6 a0.29 0.29 0 0 0 0.37 0.12 a3.62 3.62 0 0 1 1.6 -0.37 a2.69 2.69 0 0 1 0.4 0 a0.31 0.31 0 0 0 0.28 -0.14 L4.91 7.2 L6.1 5.14 a0.27 0.27 0 0 0 0 -0.31 A3.65 3.65 0 0 1 5.28 2.55 Z m9.62 0.14 a0.27 0.27 0 0 0 -0.24 -0.14 h-2 a3.67 3.67 0 0 1 -0.78 2.27 a0.27 0.27 0 0 0 0 0.31 l1.2 2.07 l0.79 1.37 a0.28 0.28 0 0 0 0.28 0.14 l0.38 0 a3.77 3.77 0 0 1 1.61 0.37 A0.27 0.27 0 0 0 16.49 9 l0.93 -1.61 a0.28 0.28 0 0 0 0 -0.28 Z M10.77 13.44 H7.18 a0.28 0.28 0 0 0 -0.27 0.18 a3.64 3.64 0 0 1 -1.39 1.79 a0.29 0.29 0 0 0 -0.09 0.38 l0.79 1.36 a0.29 0.29 0 0 0 0.24 0.14 h5.05 a0.29 0.29 0 0 0 0.24 -0.14 l0.78 -1.35 a0.28 0.28 0 0 0 -0.09 -0.38 a3.68 3.68 0 0 1 -1.4 -1.8 A0.28 0.28 0 0 0 10.77 13.44 Z" style="fill:#0078D4;" /><circle cx="3.44" cy="12.38" r="1.85" style="fill:url(#f772da2f-25c0-485f-b825-95254810574a);" /><circle cx="14.51" cy="12.38" r="1.85" style="fill:url(#e209b8d8-d6ba-4c1a-b87f-a54077b834d3);" /><circle cx="8.98" cy="2.55" r="1.85" style="fill:url(#b6f64a2b-eee9-4c63-9dbc-7bc71d82c212);" /><path d="M14.51 6.42 a5.93 5.93 0 0 0 -1.75 0.26 l0.3 0.52 l0.79 1.37 a0.28 0.28 0 0 0 0.28 0.14 l0.38 0 a3.77 3.77 0 0 1 1.61 0.37 A0.27 0.27 0 0 0 16.49 9 l0.79 -1.36 l0.21 -0.37 A5.88 5.88 0 0 0 14.51 6.42 Z m-3.61 5.2 a3.7 3.7 0 0 1 1.34 -2.15 a0.27 0.27 0 0 0 0.07 -0.36 l-1 -1.76 a6 6 0 0 0 -2.73 4.49 h2.06 A0.28 0.28 0 0 0 10.9 11.62 Z m0.14 2 a0.28 0.28 0 0 0 -0.27 -0.18 H8.64 a6 6 0 0 0 2.5 3.85 h0.37 a0.29 0.29 0 0 0 0.24 -0.14 l0.78 -1.35 a0.28 0.28 0 0 0 -0.09 -0.38 A3.68 3.68 0 0 1 11 13.62 Z" style="fill:#5EA0EF;" /></svg>