<?xml version="1.0" encoding="utf-8"?><svg version="1.1" xmlns="http://www.w3.org/2000/svg" xmlns:xlink="http://www.w3.org/1999/xlink" xmlns:xml="http://www.w3.org/XML/1998/namespace" xmlns:dc="http://purl.org/dc/elements/1.1/" xmlns:cc="http://creativecommons.org/ns#" xmlns:rdf="http://www.w3.org/1999/02/22-rdf-syntax-ns#" xmlns:sodipodi="http://sodipodi.sourceforge.net/DTD/sodipodi-0.dtd" xmlns:inkscape="http://www.inkscape.org/namespaces/inkscape" width="70" height="70" viewBox="0, 0, 60, 60.00229" id="FxSymbol0-084" class="" role="presentation" focusable="false" sodipodi:docname="Azure Data Explorer_COLOR.svg" inkscape:version="0.92.2 (5c3e80d, 2017-08-06)"><metadata id="metadata33" /><defs id="defs31" /><sodipodi:namedview id="namedview29" pagecolor="#ffffff" bordercolor="#0075CC" borderopacity="1" objecttolerance="10" gridtolerance="10" guidetolerance="10" inkscape:pageopacity="0" inkscape:pageshadow="2" inkscape:window-width="640" inkscape:window-height="480" showgrid="false" inkscape:zoom="3.9333333" inkscape:cx="30" inkscape:cy="30.00229" inkscape:window-x="0" inkscape:window-y="0" inkscape:window-maximized="0" inkscape:current-layer="FxSymbol0-084" /><g id="g26"><title id="title2" /><title id="title4">1- Icon - Query 60x60 Color</title><path d="M60 0 H0 l60 60 z" id="path6" inkscape:connector-curvature="0" style="fill:#006CBC;" /><rect x="-3.108" y="43.585" width="33.071" height="5.991" rx="0.941" transform="rotate(-45, 13.428, 46.58)" id="rect8" class="msportalfx-svg-c13" style="fill:#73C3FF;" /><rect x="-1.347" y="30.819" width="21.126" height="5.991" rx="0.941" transform="rotate(-45, 9.216, 33.814)" id="rect10" class="msportalfx-svg-c13" style="fill:#73C3FF;" /><path d="M17.747 17.747 L42.253 42.253 L60 24.506 V0 H35.494 Z" id="path12" class="msportalfx-svg-c15" inkscape:connector-curvature="0" style="fill:#39ABFF;" /><rect x="15.498" y="47.789" width="21.126" height="5.991" rx="0.941" transform="rotate(-45, 26.062, 50.785)" id="rect14" class="msportalfx-svg-c13" style="fill:#73C3FF;" /><path d="M60 60 V0 L30 30 Z" id="path16" opacity="0.2" class="msportalfx-svg-c01" inkscape:connector-curvature="0" style="fill:white;" /><rect x="30.484" y="15.004" width="5.991" height="5.991" rx="1.333" transform="rotate(-45, 33.479, 18)" id="rect18" class="msportalfx-svg-c01" style="fill:white;" /><rect x="38.957" y="6.532" width="5.991" height="5.991" rx="1.333" transform="rotate(-45, 41.952, 9.527)" id="rect20" class="msportalfx-svg-c01" style="fill:white;" /><rect x="38.957" y="23.477" width="5.991" height="5.991" rx="1.333" transform="rotate(-45, 41.952, 26.473)" id="rect22" class="msportalfx-svg-c01" style="fill:white;" /><rect x="47.429" y="15.004" width="5.991" height="5.991" rx="1.333" transform="rotate(-45, 50.425, 18)" id="rect24" class="msportalfx-svg-c01" style="fill:white;" /></g></svg>