<?xml version="1.0" encoding="UTF-8"?>
<svg xmlns="http://www.w3.org/2000/svg" xmlns:xlink="http://www.w3.org/1999/xlink" width="70pt" height="70pt" viewBox="0 0 70 70" version="1.1">
<g id="surface1">
<path style=" stroke:none;fill-rule:nonzero;fill:rgb(62.745098%,63.137255%,63.529412%);fill-opacity:1;" d="M 57.871094 64.242188 L 12.023438 64.242188 C 8.523438 64.242188 5.652344 61.371094 5.652344 57.871094 L 5.652344 12.023438 C 5.652344 8.523438 8.523438 5.652344 12.023438 5.652344 L 57.871094 5.652344 C 61.371094 5.652344 64.242188 8.523438 64.242188 12.023438 L 64.242188 57.871094 C 64.242188 61.371094 61.371094 64.242188 57.871094 64.242188 Z M 12.023438 9.851563 C 10.832031 9.851563 9.921875 10.832031 9.921875 11.953125 L 9.921875 57.800781 C 9.921875 58.992188 10.902344 59.902344 12.023438 59.902344 L 57.871094 59.902344 C 59.0625 59.902344 59.972656 58.921875 59.972656 57.800781 L 59.972656 11.953125 C 59.972656 10.761719 58.992188 9.851563 57.871094 9.851563 Z M 12.023438 9.851563 "/>
<path style=" stroke:none;fill-rule:nonzero;fill:rgb(47.843137%,47.843137%,47.843137%);fill-opacity:1;" d="M 28.753906 0.613281 C 27.210938 -0.0859375 25.390625 -0.226563 23.78125 0.402344 C 22.171875 0.960938 20.84375 2.152344 20.140625 3.761719 L 19.164063 5.792969 L 39.8125 5.792969 Z M 28.753906 0.613281 "/>
<path style=" stroke:none;fill-rule:nonzero;fill:rgb(47.843137%,47.843137%,47.843137%);fill-opacity:1;" d="M 69.5625 23.78125 C 69.003906 22.171875 67.8125 20.84375 66.203125 20.140625 L 64.171875 19.164063 L 64.171875 39.882813 L 69.351563 28.824219 C 70.121094 27.210938 70.191406 25.460938 69.5625 23.78125 Z M 69.5625 23.78125 "/>
<path style=" stroke:none;fill-rule:nonzero;fill:rgb(47.843137%,47.843137%,47.843137%);fill-opacity:1;" d="M 0.613281 45.972656 C -0.0859375 47.511719 -0.226563 49.332031 0.402344 50.941406 C 0.960938 52.550781 2.152344 53.882813 3.761719 54.582031 L 5.792969 55.5625 L 5.792969 34.914063 Z M 0.613281 45.972656 "/>
<path style=" stroke:none;fill-rule:nonzero;fill:rgb(47.843137%,47.843137%,47.843137%);fill-opacity:1;" d="M 45.972656 69.351563 C 46.8125 69.773438 47.792969 69.980469 48.703125 69.980469 C 49.472656 69.980469 50.171875 69.84375 50.941406 69.5625 C 52.550781 69.003906 53.882813 67.8125 54.582031 66.203125 L 55.5625 64.171875 L 34.914063 64.171875 Z M 45.972656 69.351563 "/>
<path style=" stroke:none;fill-rule:nonzero;fill:rgb(100%,100%,100%);fill-opacity:1;" d="M 12.023438 9.851563 C 10.832031 9.851563 9.921875 10.832031 9.921875 11.953125 L 9.921875 57.800781 C 9.921875 58.992188 10.902344 59.902344 12.023438 59.902344 L 57.871094 59.902344 C 59.0625 59.902344 59.972656 58.921875 59.972656 57.800781 L 59.972656 11.953125 C 59.972656 10.761719 58.992188 9.851563 57.871094 9.851563 Z M 12.023438 9.851563 "/>
<path style=" stroke:none;fill-rule:nonzero;fill:rgb(34.901961%,70.588235%,85.098039%);fill-opacity:1;" d="M 45.0625 30.574219 L 36.171875 30.574219 L 39.882813 18.183594 C 39.953125 17.832031 39.8125 17.480469 39.53125 17.34375 C 39.460938 17.273438 39.324219 17.273438 39.253906 17.273438 C 39.042969 17.273438 38.832031 17.414063 38.691406 17.550781 L 24.34375 38.480469 C 24.203125 38.691406 24.203125 38.972656 24.273438 39.183594 C 24.414063 39.390625 24.621094 39.53125 24.902344 39.53125 L 33.511719 39.53125 L 29.664063 52.132813 C 29.59375 52.480469 29.730469 52.832031 30.011719 52.972656 C 30.082031 53.042969 30.222656 53.042969 30.292969 53.042969 C 30.503906 53.042969 30.710938 52.902344 30.851563 52.761719 L 45.621094 31.621094 C 45.691406 31.480469 45.761719 31.34375 45.761719 31.203125 C 45.761719 30.851563 45.414063 30.574219 45.0625 30.574219 Z M 45.0625 30.574219 "/>
</g>
</svg>
