<?xml version="1.0" encoding="UTF-8"?>
<svg xmlns="http://www.w3.org/2000/svg" xmlns:xlink="http://www.w3.org/1999/xlink" width="68pt" height="70pt" viewBox="0 0 68 70" version="1.1">
<g id="surface1">
<path style=" stroke:none;fill-rule:nonzero;fill:rgb(0%,43.529412%,83.137255%);fill-opacity:1;" d="M 41.648438 31.242188 C 41.648438 31.925781 41.140625 32.4375 40.460938 32.4375 L 31.449219 32.4375 C 30.769531 32.4375 30.261719 31.925781 30.261719 31.242188 L 30.261719 24.585938 C 30.261719 23.902344 30.769531 23.390625 31.449219 23.390625 L 40.460938 23.390625 C 41.140625 23.390625 41.648438 23.902344 41.648438 24.585938 Z M 41.648438 31.242188 "/>
<path style=" stroke:none;fill-rule:nonzero;fill:rgb(0%,43.529412%,83.137255%);fill-opacity:1;" d="M 57.800781 38.242188 C 57.800781 38.925781 57.289063 39.4375 56.609375 39.4375 L 47.601563 39.4375 C 46.921875 39.4375 46.410156 38.925781 46.410156 38.242188 L 46.410156 31.585938 C 46.410156 30.902344 46.921875 30.390625 47.601563 30.390625 L 56.609375 30.390625 C 57.289063 30.390625 57.800781 30.902344 57.800781 31.585938 Z M 57.800781 38.242188 "/>
<path style=" stroke:none;fill-rule:nonzero;fill:rgb(0%,43.529412%,83.137255%);fill-opacity:1;" d="M 41.648438 45.074219 C 41.648438 45.757813 41.140625 46.269531 40.460938 46.269531 L 31.449219 46.269531 C 30.769531 46.269531 30.261719 45.757813 30.261719 45.074219 L 30.261719 38.414063 C 30.261719 37.730469 30.769531 37.21875 31.449219 37.21875 L 40.460938 37.21875 C 41.140625 37.21875 41.648438 37.730469 41.648438 38.414063 Z M 41.648438 45.074219 "/>
<path style=" stroke:none;fill-rule:nonzero;fill:rgb(0%,43.529412%,83.137255%);fill-opacity:1;" d="M 25.5 24.242188 C 25.5 24.925781 24.988281 25.4375 24.308594 25.4375 L 15.128906 25.4375 C 14.449219 25.4375 13.941406 24.925781 13.941406 24.242188 L 13.941406 17.242188 C 13.941406 16.5625 14.449219 16.046875 15.128906 16.046875 L 24.140625 16.046875 C 24.988281 16.046875 25.5 16.5625 25.5 17.242188 Z M 25.5 24.242188 "/>
<path style=" stroke:none;fill-rule:nonzero;fill:rgb(0%,43.529412%,83.137255%);fill-opacity:1;" d="M 65.789063 0 L 1.191406 0 C 0.511719 0 0 0.511719 0 1.195313 L 0 15.023438 C 0 15.707031 0.511719 16.21875 1.191406 16.21875 L 8.160156 16.21875 C 8.839844 16.21875 9.351563 15.707031 9.351563 15.023438 L 9.351563 9.21875 L 57.800781 9.21875 L 57.800781 15.023438 C 57.800781 15.707031 58.308594 16.21875 59.160156 16.21875 L 65.789063 16.21875 C 66.46875 16.21875 66.980469 15.707031 66.980469 15.023438 L 66.980469 1.023438 C 66.980469 0.339844 66.46875 0 65.789063 0 Z M 65.789063 0 "/>
<path style=" stroke:none;fill-rule:nonzero;fill:rgb(0%,43.529412%,83.137255%);fill-opacity:1;" d="M 65.789063 53.4375 L 59.160156 53.4375 C 58.480469 53.4375 57.96875 53.953125 57.96875 54.632813 L 57.96875 60.269531 L 9.351563 60.269531 L 9.351563 54.464844 C 9.351563 53.78125 8.839844 53.269531 7.988281 53.269531 L 1.359375 53.269531 C 0.679688 53.269531 0.171875 53.78125 0.171875 54.632813 L 0.171875 68.292969 C 0.171875 68.976563 0.679688 69.488281 1.359375 69.488281 L 65.960938 69.488281 C 66.640625 69.488281 67.148438 68.976563 67.148438 68.292969 L 67.148438 54.632813 C 66.980469 53.953125 66.46875 53.4375 65.789063 53.4375 Z M 65.789063 53.4375 "/>
<path style=" stroke:none;fill-rule:nonzero;fill:rgb(0%,43.529412%,83.137255%);fill-opacity:1;" d="M 25.328125 38.074219 C 25.328125 38.757813 24.820313 39.269531 24.140625 39.269531 L 15.128906 39.269531 C 14.449219 39.269531 13.941406 38.757813 13.941406 38.074219 L 13.941406 31.414063 C 13.941406 30.730469 14.449219 30.21875 15.128906 30.21875 L 24.140625 30.21875 C 24.820313 30.21875 25.328125 30.730469 25.328125 31.414063 Z M 25.328125 38.074219 "/>
<path style=" stroke:none;fill-rule:nonzero;fill:rgb(0%,43.529412%,83.137255%);fill-opacity:1;" d="M 25.328125 51.902344 C 25.328125 52.585938 24.820313 53.097656 24.140625 53.097656 L 15.128906 53.097656 C 14.449219 53.097656 13.941406 52.585938 13.941406 51.902344 L 13.941406 45.242188 C 13.941406 44.5625 14.449219 44.046875 15.128906 44.046875 L 24.140625 44.046875 C 24.820313 44.046875 25.328125 44.5625 25.328125 45.242188 Z M 25.328125 51.902344 "/>
</g>
</svg>
