<?xml version="1.0" encoding="UTF-8"?>
<svg xmlns="http://www.w3.org/2000/svg" xmlns:xlink="http://www.w3.org/1999/xlink" width="70pt" height="70pt" viewBox="0 0 70 70" version="1.1">
<g id="surface1">
<path style=" stroke:none;fill-rule:evenodd;fill:rgb(0%,47.058824%,84.313725%);fill-opacity:1;" d="M 28.679688 0.605469 C 27.144531 -0.0859375 25.332031 -0.226563 23.722656 0.398438 C 22.113281 0.960938 20.785156 2.148438 20.09375 3.75 L 19.183594 5.640625 L 11.988281 5.640625 C 8.5 5.640625 5.636719 8.5 5.636719 11.992188 L 5.636719 35.117188 L 0.613281 45.855469 C -0.0859375 47.390625 -0.226563 49.207031 0.398438 50.804688 C 0.960938 52.414063 2.148438 53.742188 3.746094 54.433594 L 5.636719 55.351563 L 5.636719 57.71875 C 5.636719 61.207031 8.5 64.070313 11.988281 64.070313 L 34.96875 64.070313 L 45.855469 69.167969 C 46.6875 69.589844 47.671875 69.796875 48.578125 69.796875 C 49.34375 69.796875 50.046875 69.65625 50.8125 69.382813 C 52.414063 68.824219 53.742188 67.632813 54.445313 66.023438 L 55.382813 64.070313 L 57.71875 64.070313 C 61.21875 64.070313 64.078125 61.207031 64.078125 57.71875 L 64.078125 39.625 L 69.167969 28.746094 C 69.945313 27.136719 70.011719 25.398438 69.382813 23.722656 C 68.820313 22.113281 67.632813 20.785156 66.035156 20.09375 L 64.078125 19.140625 L 64.078125 11.992188 C 64.078125 8.5 61.21875 5.640625 57.71875 5.640625 L 39.40625 5.640625 Z M 44.949219 30.496094 L 36.078125 30.496094 L 39.773438 18.136719 C 39.851563 17.78125 39.710938 17.433594 39.429688 17.296875 C 39.363281 17.230469 39.222656 17.230469 39.148438 17.230469 C 38.941406 17.230469 38.726563 17.359375 38.597656 17.5 L 24.285156 38.382813 C 24.144531 38.585938 24.144531 38.867188 24.207031 39.082031 C 24.347656 39.289063 24.554688 39.429688 24.835938 39.429688 L 33.421875 39.429688 L 29.585938 51.992188 C 29.511719 52.347656 29.652344 52.695313 29.933594 52.835938 C 30.007813 52.898438 30.148438 52.898438 30.214844 52.898438 C 30.417969 52.898438 30.636719 52.757813 30.777344 52.617188 L 45.5 31.542969 C 45.574219 31.402344 45.640625 31.261719 45.640625 31.121094 C 45.640625 30.765625 45.292969 30.496094 44.949219 30.496094 Z M 11.988281 9.820313 L 57.71875 9.820313 C 58.839844 9.820313 59.8125 10.726563 59.8125 11.914063 L 59.8125 57.652344 C 59.8125 58.765625 58.90625 59.75 57.71875 59.75 L 11.988281 59.75 C 10.878906 59.75 9.894531 58.839844 9.894531 57.652344 L 9.894531 11.914063 C 9.894531 10.804688 10.800781 9.820313 11.988281 9.820313 Z M 11.988281 9.820313 "/>
</g>
</svg>
