<?xml version="1.0" encoding="utf-8"?><svg version="1.1" xmlns="http://www.w3.org/2000/svg" xmlns:xlink="http://www.w3.org/1999/xlink" xmlns:xml="http://www.w3.org/XML/1998/namespace" width="70" height="70" viewBox="0, 0, 18, 18"><title>Icon-analytics-144</title><g><g id="a53a4de8-371c-49da-a662-c4631299fc03"><path d="M10.83 8.42 a0.26 0.26 0 0 1 -0.24 0.27 H8.5 a0.26 0.26 0 0 1 -0.27 -0.24 V6.89 a0.26 0.26 0 0 1 0.24 -0.27 h2.09 a0.26 0.26 0 0 1 0.27 0.24 V8.42 Z" style="fill:#2FA6FF;" /><path d="M14.54 10 a0.26 0.26 0 0 1 -0.24 0.27 H12.21 a0.26 0.26 0 0 1 -0.27 -0.24 V8.48 a0.26 0.26 0 0 1 0.24 -0.27 h2.09 a0.26 0.26 0 0 1 0.27 0.24 V10 Z" style="fill:#2FA6FF;" /><path d="M10.83 11.6 a0.26 0.26 0 0 1 -0.24 0.27 H8.5 a0.26 0.26 0 0 1 -0.27 -0.24 V10.07 a0.26 0.26 0 0 1 0.24 -0.27 h2.09 a0.26 0.26 0 0 1 0.27 0.24 V11.6 Z" style="fill:#2FA6FF;" /><path d="M7.12 6.84 a0.25 0.25 0 0 1 -0.23 0.26 H4.74 a0.26 0.26 0 0 1 -0.27 -0.23 V5.25 A0.26 0.26 0 0 1 4.71 5 H6.8 c0.22 0 0.32 0.11 0.32 0.27 Z" style="fill:#59B8FF;" /><path d="M7.12 10 a0.25 0.25 0 0 1 -0.23 0.27 H4.74 A0.26 0.26 0 0 1 4.47 10 V8.42 a0.26 0.26 0 0 1 0.24 -0.26 H6.8 c0.22 0 0.32 0.11 0.32 0.26 Z" style="fill:#2FA6FF;" /><path d="M7.12 13.19 a0.25 0.25 0 0 1 -0.23 0.27 H4.74 a0.26 0.26 0 0 1 -0.27 -0.24 V11.6 a0.25 0.25 0 0 1 0.24 -0.26 H6.8 c0.22 0 0.32 0.1 0.32 0.26 Z" style="fill:#2FA6FF;" /><g><path d="M1.07 1.51 H2.36 a0 0 0 0 1 0 0 v3.6 a0.29 0.29 0 0 1 -0.29 0.29 H0.79 A0.29 0.29 0 0 1 0.5 5.11 v-3 A0.57 0.57 0 0 1 1.07 1.51 Z" style="fill:#33A8FF;" /><path d="M1.07 1.51 H2.36 a0 0 0 0 1 0 0 v3.6 a0.29 0.29 0 0 1 -0.29 0.29 H0.79 A0.29 0.29 0 0 1 0.5 5.11 v-3 A0.57 0.57 0 0 1 1.07 1.51 Z" opacity="0.5" style="fill:#33A8FF;" /></g><g><path d="M15.64 1.51 h1.29 a0.57 0.57 0 0 1 0.57 0.57 v3 a0.29 0.29 0 0 1 -0.29 0.29 H15.92 a0.29 0.29 0 0 1 -0.29 -0.29 V1.51 A0 0 0 0 1 15.64 1.51 Z" style="fill:#33A8FF;" /><path d="M15.64 1.51 h1.29 a0.57 0.57 0 0 1 0.57 0.57 v3 a0.29 0.29 0 0 1 -0.29 0.29 H15.92 a0.29 0.29 0 0 1 -0.29 -0.29 V1.51 A0 0 0 0 1 15.64 1.51 Z" opacity="0.5" style="fill:#33A8FF;" /></g><path d="M8.66 -6.08 H9.91 a0 0 0 0 1 0 0 v17 a0 0 0 0 1 0 0 H8.66 a0.57 0.57 0 0 1 -0.57 -0.57 V-5.52 A0.57 0.57 0 0 1 8.66 -6.08 Z" transform="translate(11.42, -6.58) rotate(90, 0, 0)" style="fill:#29A4FF;" /><g><path d="M0.79 12.76 H2.08 a0.29 0.29 0 0 1 0.29 0.29 v3.6 a0 0 0 0 1 0 0 H1.07 a0.57 0.57 0 0 1 -0.57 -0.57 V13 A0.29 0.29 0 0 1 0.79 12.76 Z" style="fill:#33A8FF;" /><path d="M0.79 12.76 H2.08 a0.29 0.29 0 0 1 0.29 0.29 v3.6 a0 0 0 0 1 0 0 H1.07 a0.57 0.57 0 0 1 -0.57 -0.57 V13 A0.29 0.29 0 0 1 0.79 12.76 Z" opacity="0.5" style="fill:#33A8FF;" /></g><g><path d="M15.92 12.76 h1.29 a0.29 0.29 0 0 1 0.29 0.29 v3 a0.57 0.57 0 0 1 -0.57 0.57 H15.64 a0 0 0 0 1 0 0 V13 A0.29 0.29 0 0 1 15.92 12.76 Z" style="fill:#33A8FF;" /><path d="M15.92 12.76 h1.29 a0.29 0.29 0 0 1 0.29 0.29 v3 a0.57 0.57 0 0 1 -0.57 0.57 H15.64 a0 0 0 0 1 0 0 V13 A0.29 0.29 0 0 1 15.92 12.76 Z" opacity="0.5" style="fill:#33A8FF;" /></g><path d="M8.66 7.24 H9.91 a0 0 0 0 1 0 0 v17 a0 0 0 0 1 0 0 H8.66 a0.57 0.57 0 0 1 -0.57 -0.57 V7.81 A0.57 0.57 0 0 1 8.66 7.24 Z" transform="translate(-6.74, 24.74) rotate(-90, 0, 0)" style="fill:#29A4FF;" /></g></g></svg>