<?xml version="1.0" encoding="UTF-8"?>
<svg xmlns="http://www.w3.org/2000/svg" xmlns:xlink="http://www.w3.org/1999/xlink" width="70pt" height="56pt" viewBox="0 0 70 56" version="1.1">
<g id="surface1">
<path style=" stroke:none;fill-rule:nonzero;fill:rgb(0%,44.705882%,77.647059%);fill-opacity:1;" d="M 55.589844 30.414063 C 57.609375 30.414063 59.246094 28.777344 59.246094 26.753906 C 59.246094 24.734375 57.609375 23.097656 55.589844 23.097656 C 54.269531 23.097656 53.121094 23.800781 52.476563 24.847656 L 18.054688 14.332031 C 18.058594 14.277344 18.070313 14.226563 18.070313 14.171875 C 18.070313 12.152344 16.433594 10.515625 14.410156 10.515625 C 12.390625 10.515625 10.753906 12.152344 10.753906 14.171875 C 10.753906 16.074219 12.207031 17.617188 14.058594 17.796875 L 17.988281 42.617188 C 16.691406 43.179688 15.785156 44.46875 15.785156 45.96875 C 15.785156 47.992188 17.421875 49.628906 19.445313 49.628906 C 21.464844 49.628906 23.105469 47.992188 23.105469 45.96875 C 23.105469 45.675781 23.0625 45.394531 22.996094 45.121094 L 52.898438 29.222656 C 53.566406 29.949219 54.519531 30.414063 55.589844 30.414063 Z M 22.132813 43.503906 C 21.539063 42.859375 20.722656 42.433594 19.796875 42.347656 L 15.867188 17.527344 C 16.558594 17.226563 17.132813 16.714844 17.523438 16.082031 L 51.945313 26.597656 C 51.941406 26.652344 51.929688 26.703125 51.929688 26.753906 C 51.929688 27.050781 51.972656 27.332031 52.039063 27.605469 Z M 20.496094 37.800781 L 29.882813 37.800781 L 33.601563 35.824219 L 33.601563 32.21875 L 19.609375 32.210938 Z M 30.800781 53.199219 L 7 53.199219 L 7 37.800781 L 15.808594 37.800781 L 14.921875 32.207031 L 4.199219 32.199219 L 4.199219 56 L 33.601563 56 L 33.601563 41.066406 L 30.800781 42.554688 Z M 40.601563 32.101563 L 43.398438 30.613281 L 43.398438 25.453125 L 40.601563 24.597656 Z M 40.601563 12.601563 L 40.601563 19.753906 L 43.398438 20.609375 L 43.398438 18.199219 L 67.199219 18.199219 L 67.199219 33.601563 L 47.644531 33.601563 L 42.378906 36.398438 L 70 36.398438 L 70 12.617188 Z M 29.398438 21.171875 L 26.601563 20.316406 L 26.601563 21 L 17.835938 21 L 18.28125 23.800781 L 29.398438 23.800781 Z M 13.148438 21 L 2.800781 21 L 2.800781 5.601563 L 26.601563 5.601563 L 26.601563 15.476563 L 29.398438 16.332031 L 29.398438 0.0195313 L 0 0 L 0 23.800781 L 13.589844 23.800781 Z M 13.148438 21 "/>
</g>
</svg>
