<?xml version="1.0" encoding="UTF-8"?>
<svg xmlns="http://www.w3.org/2000/svg" xmlns:xlink="http://www.w3.org/1999/xlink" width="70pt" height="70pt" viewBox="0 0 70 70" version="1.1">
<defs>
<linearGradient id="linear0" gradientUnits="userSpaceOnUse" x1="3.44" y1="14.22" x2="3.44" y2="10.54" gradientTransform="matrix(3.888889,0,0,3.888889,0,0)">
<stop offset="0.09" style="stop-color:rgb(47,166,255);stop-opacity:1;"/>
<stop offset="1" style="stop-color:rgb(119,197,255);stop-opacity:1;"/>
</linearGradient>
<linearGradient id="linear1" gradientUnits="userSpaceOnUse" x1="14.51" y1="14.22" x2="14.51" y2="10.54" gradientTransform="matrix(3.888889,0,0,3.888889,0,0)">
<stop offset="0.09" style="stop-color:rgb(47,166,255);stop-opacity:1;"/>
<stop offset="1" style="stop-color:rgb(119,197,255);stop-opacity:1;"/>
</linearGradient>
<linearGradient id="linear2" gradientUnits="userSpaceOnUse" x1="8.98" y1="4.4" x2="8.98" y2="0.71" gradientTransform="matrix(3.888889,0,0,3.888889,0,0)">
<stop offset="0.09" style="stop-color:rgb(47,166,255);stop-opacity:1;"/>
<stop offset="1" style="stop-color:rgb(119,197,255);stop-opacity:1;"/>
</linearGradient>
</defs>
<g id="surface1">
<path style=" stroke:none;fill-rule:nonzero;fill:rgb(0,108,188);fill-opacity:1;" d="M 28.464844 46.042969 L 41.339844 46.042969 C 41.84375 46.039063 42.28125 45.683594 42.390625 45.1875 C 43.089844 41.875 44.933594 38.914063 47.601563 36.828125 C 48.042969 36.503906 48.160156 35.894531 47.871094 35.429688 L 41.183594 23.761719 C 40.914063 23.304688 40.347656 23.121094 39.859375 23.332031 C 38.300781 23.898438 36.660156 24.199219 35 24.226563 C 33.285156 24.242188 31.585938 23.9375 29.984375 23.332031 C 29.476563 23.152344 28.917969 23.367188 28.660156 23.839844 L 21.972656 35.503906 C 21.703125 35.976563 21.816406 36.570313 22.246094 36.90625 C 24.890625 38.988281 26.71875 41.933594 27.417969 45.226563 C 27.527344 45.714844 27.96875 46.058594 28.464844 46.042969 Z M 20.6875 9.917969 L 12.910156 9.917969 C 12.523438 9.910156 12.164063 10.121094 11.976563 10.460938 L 2.101563 27.457031 C 1.90625 27.792969 1.90625 28.207031 2.101563 28.542969 L 5.714844 34.765625 C 6.003906 35.269531 6.628906 35.46875 7.15625 35.234375 C 9.09375 34.285156 11.222656 33.792969 13.378906 33.792969 C 13.894531 33.753906 14.414063 33.753906 14.933594 33.792969 C 15.367188 33.824219 15.785156 33.613281 16.023438 33.25 L 19.09375 28 L 23.722656 19.988281 C 23.976563 19.628906 23.976563 19.144531 23.722656 18.785156 C 21.679688 16.277344 20.554688 13.148438 20.535156 9.917969 Z M 58.101563 10.460938 C 57.914063 10.121094 57.554688 9.910156 57.167969 9.917969 L 49.390625 9.917969 C 49.394531 13.117188 48.328125 16.226563 46.355469 18.746094 C 46.101563 19.105469 46.101563 19.589844 46.355469 19.949219 L 51.023438 28 L 54.09375 33.328125 C 54.3125 33.714844 54.742188 33.929688 55.183594 33.871094 L 56.660156 33.871094 C 58.828125 33.882813 60.96875 34.375 62.921875 35.3125 C 63.347656 35.484375 63.835938 35.355469 64.128906 35 L 67.746094 28.738281 C 67.9375 28.402344 67.9375 27.988281 67.746094 27.648438 Z M 41.882813 52.265625 L 27.921875 52.265625 C 27.457031 52.253906 27.039063 52.535156 26.871094 52.964844 C 25.855469 55.804688 23.964844 58.242188 21.464844 59.929688 C 20.984375 60.257813 20.835938 60.894531 21.117188 61.40625 L 24.1875 66.695313 C 24.386719 67.023438 24.738281 67.226563 25.121094 67.238281 L 44.761719 67.238281 C 45.144531 67.226563 45.496094 67.023438 45.695313 66.695313 L 48.726563 61.445313 C 49.03125 60.9375 48.875 60.28125 48.378906 59.964844 C 45.867188 58.269531 43.960938 55.816406 42.933594 52.964844 C 42.769531 52.535156 42.347656 52.253906 41.882813 52.265625 Z M 41.882813 52.265625 "/>
<path style=" stroke:none;fill-rule:nonzero;fill:url(#linear0);" d="M 20.570313 48.144531 C 20.570313 52.117188 17.351563 55.339844 13.378906 55.339844 C 9.40625 55.339844 6.183594 52.117188 6.183594 48.144531 C 6.183594 44.171875 9.40625 40.949219 13.378906 40.949219 C 17.351563 40.949219 20.570313 44.171875 20.570313 48.144531 Z M 20.570313 48.144531 "/>
<path style=" stroke:none;fill-rule:nonzero;fill:url(#linear1);" d="M 63.621094 48.144531 C 63.621094 52.117188 60.402344 55.339844 56.429688 55.339844 C 52.453125 55.339844 49.234375 52.117188 49.234375 48.144531 C 49.234375 44.171875 52.453125 40.949219 56.429688 40.949219 C 60.402344 40.949219 63.621094 44.171875 63.621094 48.144531 Z M 63.621094 48.144531 "/>
<path style=" stroke:none;fill-rule:nonzero;fill:url(#linear2);" d="M 42.117188 9.917969 C 42.117188 13.890625 38.894531 17.109375 34.921875 17.109375 C 30.949219 17.109375 27.726563 13.890625 27.726563 9.917969 C 27.726563 5.941406 30.949219 2.722656 34.921875 2.722656 C 38.894531 2.722656 42.117188 5.941406 42.117188 9.917969 Z M 42.117188 9.917969 "/>
<path style=" stroke:none;fill-rule:nonzero;fill:rgb(41,164,255);fill-opacity:1;" d="M 56.429688 24.964844 C 54.121094 24.960938 51.828125 25.300781 49.621094 25.976563 L 50.789063 28 L 53.859375 33.328125 C 54.078125 33.714844 54.511719 33.929688 54.949219 33.871094 L 56.429688 33.871094 C 58.59375 33.882813 60.734375 34.375 62.6875 35.3125 C 63.171875 35.617188 63.8125 35.480469 64.128906 35 L 67.199219 29.710938 L 68.015625 28.273438 C 64.519531 26.152344 60.515625 25.011719 56.429688 24.964844 Z M 42.390625 45.1875 C 43.089844 41.875 44.933594 38.914063 47.601563 36.828125 C 48.042969 36.503906 48.160156 35.894531 47.871094 35.429688 L 43.984375 28.582031 C 37.949219 32.460938 34.03125 38.902344 33.367188 46.042969 L 41.378906 46.042969 C 41.871094 46.019531 42.285156 45.667969 42.390625 45.1875 Z M 42.933594 52.964844 C 42.769531 52.535156 42.347656 52.253906 41.882813 52.265625 L 33.601563 52.265625 C 34.726563 58.347656 38.226563 63.734375 43.320313 67.238281 L 44.761719 67.238281 C 45.144531 67.226563 45.496094 67.023438 45.695313 66.695313 L 48.726563 61.445313 C 49.03125 60.9375 48.875 60.28125 48.378906 59.964844 C 45.808594 58.292969 43.847656 55.839844 42.777344 52.964844 Z M 42.933594 52.964844 "/>
</g>
</svg>
