<?xml version="1.0" encoding="UTF-8"?>
<svg xmlns="http://www.w3.org/2000/svg" xmlns:xlink="http://www.w3.org/1999/xlink" width="70pt" height="70pt" viewBox="0 0 70 70" version="1.1">
<defs>
<filter id="alpha" filterUnits="objectBoundingBox" x="0%" y="0%" width="100%" height="100%">
  <feColorMatrix type="matrix" in="SourceGraphic" values="0 0 0 0 1 0 0 0 0 1 0 0 0 0 1 0 0 0 1 0"/>
</filter>
<mask id="mask0">
  <g filter="url(#alpha)">
<rect x="0" y="0" width="70" height="70" style="fill:rgb(0%,0%,0%);fill-opacity:0.501961;stroke:none;"/>
  </g>
</mask>
<clipPath id="clip1">
  <rect x="0" y="0" width="70" height="70"/>
</clipPath>
<g id="surface5" clip-path="url(#clip1)">
<path style=" stroke:none;fill-rule:nonzero;fill:rgb(60%,60%,60%);fill-opacity:1;" d="M 5.523438 6.960938 L 9.410156 2.566406 C 9.738281 2.199219 10.203125 1.972656 10.695313 1.945313 L 46.898438 1.945313 C 47.621094 1.890625 48.332031 2.140625 48.855469 2.636719 C 49.382813 3.132813 49.675781 3.828125 49.660156 4.550781 L 49.660156 49.738281 C 49.652344 50.257813 49.425781 50.753906 49.039063 51.101563 L 45.148438 54.792969 Z M 5.523438 6.960938 "/>
</g>
<linearGradient id="linear0" gradientUnits="userSpaceOnUse" x1="6.41" y1="1.78" x2="6.41" y2="14.13" gradientTransform="matrix(3.888889,0,0,3.888889,0,0)">
<stop offset="0" style="stop-color:rgb(70.196078%,69.803922%,70.196078%);stop-opacity:1;"/>
<stop offset="0.38" style="stop-color:rgb(68.627451%,68.235294%,68.627451%);stop-opacity:1;"/>
<stop offset="0.76" style="stop-color:rgb(63.529412%,63.529412%,63.529412%);stop-opacity:1;"/>
<stop offset="1" style="stop-color:rgb(59.215686%,59.215686%,59.215686%);stop-opacity:1;"/>
</linearGradient>
<linearGradient id="linear1" gradientUnits="userSpaceOnUse" x1="7.85" y1="13.09" x2="16.6" y2="13.09" gradientTransform="matrix(3.888889,0,0,3.888889,0,0)">
<stop offset="0" style="stop-color:rgb(0%,35.686275%,63.137255%);stop-opacity:1;"/>
<stop offset="0.07" style="stop-color:rgb(0%,37.647059%,66.27451%);stop-opacity:1;"/>
<stop offset="0.36" style="stop-color:rgb(0%,44.313725%,78.431373%);stop-opacity:1;"/>
<stop offset="0.52" style="stop-color:rgb(0%,47.058824%,83.137255%);stop-opacity:1;"/>
<stop offset="0.64" style="stop-color:rgb(0%,45.490196%,80.392157%);stop-opacity:1;"/>
<stop offset="0.82" style="stop-color:rgb(0%,41.568627%,73.333333%);stop-opacity:1;"/>
<stop offset="1" style="stop-color:rgb(0%,35.686275%,63.137255%);stop-opacity:1;"/>
</linearGradient>
</defs>
<g id="surface1">
<path style=" stroke:none;fill-rule:nonzero;fill:rgb(60%,60%,60%);fill-opacity:1;" d="M 5.523438 6.960938 L 9.410156 2.566406 C 9.738281 2.199219 10.203125 1.972656 10.695313 1.945313 L 46.898438 1.945313 C 47.621094 1.890625 48.332031 2.140625 48.855469 2.636719 C 49.382813 3.132813 49.675781 3.828125 49.660156 4.550781 L 49.660156 49.738281 C 49.652344 50.257813 49.425781 50.753906 49.039063 51.101563 L 45.148438 54.792969 Z M 5.523438 6.960938 "/>
<use xlink:href="#surface5" mask="url(#mask0)"/>
<path style=" stroke:none;fill-rule:nonzero;fill:rgb(100%,100%,100%);fill-opacity:1;" d="M 8.554688 6.960938 L 10.851563 4.316406 C 11.191406 4.015625 11.640625 3.859375 12.09375 3.890625 L 45.890625 3.890625 C 46.789063 3.890625 47.523438 4.621094 47.523438 5.523438 L 47.523438 48.339844 C 47.519531 48.792969 47.339844 49.226563 47.015625 49.542969 L 43.398438 52.851563 "/>
<path style=" stroke:none;fill-rule:nonzero;fill:url(#linear0);" d="M 43.167969 6.921875 L 5.445313 6.921875 L 5.445313 53.589844 C 5.445313 54.253906 5.984375 54.792969 6.648438 54.792969 L 43.167969 54.792969 C 43.832031 54.792969 44.371094 54.253906 44.371094 53.589844 L 44.371094 8.128906 C 44.371094 7.460938 43.832031 6.921875 43.167969 6.921875 Z M 43.167969 6.921875 "/>
<path style=" stroke:none;fill-rule:nonzero;fill:url(#linear1);" d="M 47.523438 39.199219 C 38.148438 39.199219 30.527344 36.789063 30.527344 33.792969 L 30.527344 62.648438 C 30.527344 65.605469 37.996094 68.015625 47.289063 68.054688 L 47.523438 68.054688 C 56.933594 68.054688 64.554688 65.644531 64.554688 62.648438 L 64.554688 33.792969 C 64.554688 36.789063 56.933594 39.199219 47.523438 39.199219 Z M 47.523438 39.199219 "/>
<path style=" stroke:none;fill-rule:nonzero;fill:rgb(90.980392%,90.980392%,90.980392%);fill-opacity:1;" d="M 64.554688 33.792969 C 64.554688 36.789063 56.777344 39.199219 47.523438 39.199219 C 38.265625 39.199219 30.527344 36.789063 30.527344 33.792969 C 30.527344 30.800781 38.304688 28.351563 47.523438 28.351563 C 56.738281 28.351563 64.554688 30.800781 64.554688 33.792969 "/>
<path style=" stroke:none;fill-rule:nonzero;fill:rgb(31.372549%,90.196078%,100%);fill-opacity:1;" d="M 60.589844 33.367188 C 60.589844 35.273438 54.714844 36.789063 47.523438 36.789063 C 40.328125 36.789063 34.496094 35.273438 34.496094 33.367188 C 34.496094 31.460938 40.328125 29.90625 47.523438 29.90625 C 54.714844 29.90625 60.589844 31.460938 60.589844 33.367188 "/>
<path style=" stroke:none;fill-rule:nonzero;fill:rgb(9.803922%,54.117647%,70.196078%);fill-opacity:1;" d="M 47.523438 34.144531 C 44.039063 34.0625 40.566406 34.507813 37.214844 35.464844 C 40.5625 36.429688 44.039063 36.875 47.523438 36.789063 C 51.015625 36.875 54.503906 36.429688 57.867188 35.464844 C 54.503906 34.511719 51.015625 34.066406 47.523438 34.144531 Z M 47.523438 34.144531 "/>
</g>
</svg>
