<?xml version="1.0" encoding="UTF-8"?>
<svg xmlns="http://www.w3.org/2000/svg" xmlns:xlink="http://www.w3.org/1999/xlink" width="70pt" height="70pt" viewBox="0 0 70 70" version="1.1">
<g id="surface1">
<path style=" stroke:none;fill-rule:nonzero;fill:rgb(3,148,255);fill-opacity:1;" d="M 41.371094 13.160156 L 39.339844 9.660156 C 38.570313 8.328125 37.101563 7.488281 35.558594 7.488281 L 4.339844 7.488281 C 1.960938 7.488281 0 9.449219 0 11.828125 L 0 14.070313 L 42.140625 14.070313 C 41.789063 13.859375 41.578125 13.511719 41.371094 13.160156 Z M 41.371094 13.160156 "/>
<path style=" stroke:none;fill-rule:nonzero;fill:rgb(57,171,255);fill-opacity:1;" d="M 67.269531 16.308594 L 0 16.308594 L 0 58.101563 C 0 60.480469 1.960938 62.441406 4.339844 62.441406 L 65.660156 62.441406 C 68.039063 62.441406 70 60.480469 70 58.101563 L 70 20.300781 C 70 18.550781 68.878906 17.011719 67.269531 16.308594 Z M 43.890625 37.308594 L 31.5 55.019531 C 31.359375 55.160156 31.21875 55.300781 31.011719 55.300781 C 30.941406 55.300781 30.800781 55.300781 30.730469 55.230469 C 30.449219 55.089844 30.308594 54.808594 30.449219 54.53125 L 33.671875 43.960938 L 26.460938 43.960938 C 26.25 43.960938 26.039063 43.820313 25.898438 43.609375 C 25.828125 43.398438 25.828125 43.191406 25.96875 42.980469 L 38.011719 25.480469 C 38.148438 25.339844 38.289063 25.199219 38.5 25.199219 C 38.570313 25.199219 38.640625 25.199219 38.78125 25.269531 C 39.058594 25.410156 39.199219 25.691406 39.058594 25.96875 L 35.980469 36.328125 L 43.398438 36.328125 C 43.75 36.328125 44.03125 36.609375 44.03125 36.960938 C 44.03125 37.101563 43.960938 37.171875 43.890625 37.308594 Z M 43.890625 37.308594 "/>
</g>
</svg>
