<?xml version="1.0" encoding="utf-8"?><svg version="1.1" xmlns="http://www.w3.org/2000/svg" xmlns:xlink="http://www.w3.org/1999/xlink" xmlns:xml="http://www.w3.org/XML/1998/namespace" width="70" height="70" viewBox="0, 0, 18, 18" id="be02e92a-f1ac-436b-85cd-c7fa6d71a7ab"><defs><linearGradient x1="9.24" y1="0.96" x2="8.85" y2="16.52" gradientUnits="userSpaceOnUse" id="a2f5a399-e513-4b5d-9b50-e5cb6806323d"><stop offset="0%" stop-color="#4FB4FF" /><stop offset="23%" stop-color="#47B0FF" /><stop offset="46%" stop-color="#33A8FF" /><stop offset="70%" stop-color="#139AFF" /><stop offset="94%" stop-color="#0084E6" /><stop offset="100%" stop-color="#007CD8" /></linearGradient></defs><title>Icon-analytics-150</title><path d="M17.1 3.6 H9.69 a0.34 0.34 0 0 1 -0.22 -0.07 L7.35 2.12 a0.43 0.43 0 0 0 -0.22 -0.06 H0.9 a0.4 0.4 0 0 0 -0.4 0.39 v13.1 a0.4 0.4 0 0 0 0.4 0.39 H17.1 a0.4 0.4 0 0 0 0.4 -0.39 V4 A0.4 0.4 0 0 0 17.1 3.6 Z" style="fill:#00518E;" /><rect x="2.05" y="2.82" width="3.86" height="0.77" rx="0.16" style="fill:white;" /><rect x="2.05" y="2.82" width="0.77" height="0.77" rx="0.11" style="fill:#2BA5FF;" /><path d="M17.1 3.58 H9 a0.36 0.36 0 0 0 -0.28 0.12 L7.37 5 a0.43 0.43 0 0 1 -0.28 0.11 H0.9 a0.4 0.4 0 0 0 -0.4 0.4 v10 a0.4 0.4 0 0 0 0.4 0.39 H17.1 a0.4 0.4 0 0 0 0.4 -0.39 V4 A0.4 0.4 0 0 0 17.1 3.58 Z" style="fill:url(#a2f5a399-e513-4b5d-9b50-e5cb6806323d);" /><path d="M10.18 5.7 a0.15 0.15 0 0 0 -0.08 0 s-0.09 0 -0.13 0.07 L6.81 10.36 a0.16 0.16 0 0 0 0 0.16 a0.19 0.19 0 0 0 0.15 0.1 H8.83 L8 13.4 a0.13 0.13 0 0 0 0.07 0.18 a0.1 0.1 0 0 0 0.07 0 c0.06 0 0.09 0 0.13 -0.07 l3.26 -4.66 s0 -0.06 0 -0.1 a0.17 0.17 0 0 0 -0.17 -0.16 h-2 l0.81 -2.73 A0.13 0.13 0 0 0 10.18 5.7 Z" style="fill:white;" /></svg>