<?xml version="1.0" encoding="UTF-8"?>
<svg xmlns="http://www.w3.org/2000/svg" xmlns:xlink="http://www.w3.org/1999/xlink" width="70pt" height="70pt" viewBox="0 0 70 70" version="1.1">
<defs>
<filter id="alpha" filterUnits="objectBoundingBox" x="0%" y="0%" width="100%" height="100%">
  <feColorMatrix type="matrix" in="SourceGraphic" values="0 0 0 0 1 0 0 0 0 1 0 0 0 0 1 0 0 0 1 0"/>
</filter>
<mask id="mask0">
  <g filter="url(#alpha)">
<rect x="0" y="0" width="70" height="70" style="fill:rgb(0%,0%,0%);fill-opacity:0.501961;stroke:none;"/>
  </g>
</mask>
<clipPath id="clip1">
  <rect x="0" y="0" width="70" height="70"/>
</clipPath>
<g id="surface5" clip-path="url(#clip1)">
<path style=" stroke:none;fill-rule:nonzero;fill:rgb(62.745098%,63.137255%,63.529412%);fill-opacity:1;" d="M 48.019531 54.179688 L 51.378906 49.980469 L 51.378906 2.238281 L 48.019531 5.460938 Z M 48.019531 54.179688 "/>
</g>
</defs>
<g id="surface1">
<path style=" stroke:none;fill-rule:nonzero;fill:rgb(0%,44.705882%,77.647059%);fill-opacity:1;" d="M 51.378906 49.980469 L 53.621094 49.980469 L 53.621094 0 L 9.800781 0 C 8.398438 0.140625 5.460938 3.640625 5.460938 4.058594 C 5.460938 4.199219 5.460938 52.359375 5.460938 52.359375 C 5.460938 53.761719 6.578125 55.019531 8.121094 55.019531 L 48.019531 55.019531 L 48.019531 54.179688 Z M 51.378906 49.980469 "/>
<path style=" stroke:none;fill-rule:nonzero;fill:rgb(89.803922%,89.803922%,89.803922%);fill-opacity:1;" d="M 11.761719 2.238281 C 10.5 2.238281 10.078125 2.378906 8.960938 3.359375 C 6.578125 5.460938 9.519531 5.460938 10.640625 5.460938 L 48.019531 5.460938 L 48.019531 54.179688 L 51.378906 49.839844 L 51.378906 2.238281 Z M 11.761719 2.238281 "/>
<use xlink:href="#surface5" mask="url(#mask0)"/>
<path style=" stroke:none;fill-rule:nonzero;fill:rgb(62.745098%,63.137255%,63.529412%);fill-opacity:1;" d="M 11.761719 29.679688 C 11.761719 30.800781 10.921875 31.640625 9.800781 31.640625 L 3.359375 31.640625 C 2.238281 31.640625 1.398438 30.800781 1.398438 29.679688 C 1.398438 28.558594 2.238281 27.71875 3.359375 27.71875 L 9.800781 27.71875 C 10.921875 27.578125 11.761719 28.558594 11.761719 29.679688 Z M 11.761719 29.679688 "/>
<path style=" stroke:none;fill-rule:nonzero;fill:rgb(62.745098%,63.137255%,63.529412%);fill-opacity:1;" d="M 11.761719 15.261719 C 11.761719 16.378906 10.921875 17.21875 9.800781 17.21875 L 3.359375 17.21875 C 2.238281 17.21875 1.398438 16.378906 1.398438 15.261719 C 1.398438 14.140625 2.238281 13.300781 3.359375 13.300781 L 9.800781 13.300781 C 10.921875 13.300781 11.761719 14.28125 11.761719 15.261719 Z M 11.761719 15.261719 "/>
<path style=" stroke:none;fill-rule:nonzero;fill:rgb(62.745098%,63.137255%,63.529412%);fill-opacity:1;" d="M 11.761719 43.960938 C 11.761719 45.078125 10.921875 45.921875 9.800781 45.921875 L 3.359375 45.921875 C 2.238281 45.921875 1.398438 45.078125 1.398438 43.960938 C 1.398438 42.839844 2.238281 42 3.359375 42 L 9.800781 42 C 10.921875 42 11.761719 42.839844 11.761719 43.960938 Z M 11.761719 43.960938 "/>
<path style=" stroke:none;fill-rule:nonzero;fill:rgb(22.352941%,60%,77.647059%);fill-opacity:1;" d="M 33.039063 31.078125 L 33.039063 63.980469 C 33.039063 67.339844 40.738281 70.140625 50.121094 70.140625 L 50.121094 30.941406 L 33.039063 30.941406 Z M 33.039063 31.078125 "/>
<path style=" stroke:none;fill-rule:nonzero;fill:rgb(34.901961%,70.588235%,85.098039%);fill-opacity:1;" d="M 49.839844 70.28125 L 50.121094 70.28125 C 59.5 70.28125 67.199219 67.480469 67.199219 64.121094 L 67.199219 31.078125 L 49.839844 31.078125 Z M 49.839844 70.28125 "/>
<path style=" stroke:none;fill-rule:nonzero;fill:rgb(100%,100%,100%);fill-opacity:1;" d="M 67.199219 31.078125 C 67.199219 34.441406 59.5 37.238281 50.121094 37.238281 C 40.738281 37.238281 33.039063 34.441406 33.039063 31.078125 C 33.039063 27.71875 40.738281 24.921875 50.121094 24.921875 C 59.5 24.921875 67.199219 27.71875 67.199219 31.078125 "/>
<path style=" stroke:none;fill-rule:nonzero;fill:rgb(49.803922%,72.941176%,0%);fill-opacity:1;" d="M 63.699219 30.660156 C 63.699219 32.898438 57.539063 34.71875 50.121094 34.71875 C 42.699219 34.71875 36.539063 32.898438 36.539063 30.660156 C 36.539063 28.421875 42.699219 26.601563 50.121094 26.601563 C 57.539063 26.601563 63.699219 28.421875 63.699219 30.660156 "/>
<path style=" stroke:none;fill-rule:nonzero;fill:rgb(72.156863%,83.137255%,19.607843%);fill-opacity:1;" d="M 60.898438 33.179688 C 62.71875 32.480469 63.699219 31.640625 63.699219 30.660156 C 63.699219 28.421875 57.539063 26.601563 50.121094 26.601563 C 42.558594 26.601563 36.539063 28.421875 36.539063 30.660156 C 36.539063 31.640625 37.660156 32.480469 39.339844 33.179688 C 41.859375 32.199219 45.78125 31.640625 50.121094 31.640625 C 54.460938 31.640625 58.378906 32.199219 60.898438 33.179688 "/>
</g>
</svg>
