<?xml version="1.0" encoding="utf-8"?><svg version="1.1" xmlns="http://www.w3.org/2000/svg" xmlns:xlink="http://www.w3.org/1999/xlink" xmlns:xml="http://www.w3.org/XML/1998/namespace" width="70" height="70" viewBox="0, 0, 18, 18" id="a6df9393-2bd7-4ac4-ba06-ab5f16ff5923"><defs><linearGradient x1="3.96" y1="2.52" x2="3.96" y2="7.82" gradientUnits="userSpaceOnUse" id="fd591b35-0e01-4610-a025-8e017443b6ca"><stop offset="0%" stop-color="#4FB4FF" /><stop offset="100%" stop-color="#007CD8" /></linearGradient><linearGradient x1="14.04" y1="5.58" x2="14.04" y2="10.89" gradientUnits="userSpaceOnUse" id="bded69e0-afb1-4c25-aa81-a799bd12553b"><stop offset="0%" stop-color="#4FB4FF" /><stop offset="100%" stop-color="#007CD8" /></linearGradient><linearGradient x1="5.29" y1="10.18" x2="5.29" y2="15.48" gradientUnits="userSpaceOnUse" id="f25b6c72-365d-4ac2-a15c-1cace994f1e6"><stop offset="0%" stop-color="#4FB4FF" /><stop offset="100%" stop-color="#007CD8" /></linearGradient></defs><title>Icon-analytics-148</title><rect x="0.5" y="2.52" width="6.92" height="5.31" rx="0.28" style="fill:url(#fd591b35-0e01-4610-a025-8e017443b6ca);" /><rect x="10.58" y="5.58" width="6.92" height="5.31" rx="0.28" style="fill:url(#bded69e0-afb1-4c25-aa81-a799bd12553b);" /><rect x="1.82" y="10.18" width="6.92" height="5.31" rx="0.42" style="fill:url(#f25b6c72-365d-4ac2-a15c-1cace994f1e6);" /><path d="M13.15 8.92 l0.23 -0.64 L4.82 5.13 l-0.23 0.63 Z m0.53 -0.09 l-0.32 -0.6 L5.29 12.48 l0.31 0.6 Z M5 13.37 l0.67 -0.12 L4.31 5.54 l-0.67 0.12 Z" style="fill:#006CBC;" /><circle cx="14.04" cy="8.23" r="1.08" transform="translate(-2.23, 8.81) rotate(-32.41, 0, 0)" style="fill:white;" /><circle cx="3.96" cy="5.17" r="1.08" transform="translate(-2.15, 2.93) rotate(-32.41, 0, 0)" style="fill:white;" /><circle cx="5.29" cy="12.83" r="1.08" transform="translate(-6.05, 4.83) rotate(-32.41, 0, 0)" style="fill:white;" /></svg>