<?xml version="1.0" encoding="UTF-8"?>
<svg xmlns="http://www.w3.org/2000/svg" xmlns:xlink="http://www.w3.org/1999/xlink" width="59pt" height="70pt" viewBox="0 0 59 70" version="1.1">
<g id="surface1">
<path style=" stroke:none;fill-rule:evenodd;fill:rgb(0%,47.058824%,84.313725%);fill-opacity:1;" d="M 47.984375 0.835938 C 47.429688 0.148438 46.472656 0 46.472656 0 L 9.542969 0 C 4.011719 0 4.011719 4.597656 4.011719 4.597656 L 4.011719 11.171875 L 8.304688 11.171875 C 10.519531 11.171875 12.453125 12.976563 12.453125 15.359375 C 12.453125 17.59375 10.648438 19.546875 8.304688 19.546875 L 4.011719 19.546875 L 4.011719 25.5625 L 8.304688 25.5625 C 10.519531 25.5625 12.453125 27.367188 12.453125 29.730469 C 12.453125 31.964844 10.648438 33.9375 8.304688 33.9375 L 4.011719 33.9375 L 4.011719 39.933594 L 8.304688 39.933594 C 10.519531 39.933594 12.453125 41.738281 12.453125 44.121094 C 12.453125 46.355469 10.648438 48.3125 8.304688 48.3125 L 4.011719 48.3125 L 4.011719 53.058594 C 4.011719 54.175781 4.839844 55.011719 5.945313 55.011719 L 22.964844 55.011719 L 22.964844 31.554688 C 22.964844 25.5625 31.113281 21.355469 42.730469 21.355469 L 42.730469 6.703125 C 42.730469 5.585938 42.730469 5.4375 41.621094 5.4375 L 7.882813 5.4375 C 7.753906 3.203125 9.964844 2.644531 9.964844 2.644531 L 43.707031 2.644531 C 45.769531 2.644531 45.769531 4.46875 45.769531 4.46875 L 45.769531 21.355469 C 46.601563 21.355469 47.300781 21.503906 47.984375 21.503906 C 48.132813 21.503906 48.261719 21.503906 48.261719 21.503906 L 48.261719 1.804688 C 48.261719 1.527344 48.132813 1.117188 47.984375 0.835938 Z M 47.984375 0.835938 "/>
<path style=" stroke:none;fill-rule:evenodd;fill:rgb(0%,47.058824%,84.313725%);fill-opacity:1;" d="M 43.144531 24.855469 C 33.316406 24.855469 26.550781 28.054688 26.550781 31.554688 L 26.550781 62.125 C 26.550781 62.125 26.550781 62.273438 26.550781 62.402344 L 26.550781 62.832031 C 26.550781 62.960938 26.550781 63.113281 26.550781 63.242188 C 27.101563 66.59375 34.015625 69.8125 43.421875 69.8125 C 53.101563 69.8125 59.332031 66.742188 59.460938 63.242188 L 59.460938 31.835938 C 59.460938 28.335938 52.953125 24.855469 43.144531 24.855469 Z M 43.421875 34.628906 C 36.359375 34.628906 30.699219 32.953125 30.699219 30.996094 C 30.699219 28.894531 36.359375 27.367188 43.421875 27.367188 C 50.480469 27.367188 55.164063 29.042969 55.164063 31.128906 C 55.164063 33.082031 50.335938 34.628906 43.421875 34.628906 Z M 43.421875 34.628906 "/>
<path style=" stroke:none;fill-rule:evenodd;fill:rgb(0%,47.058824%,84.313725%);fill-opacity:1;" d="M 10.234375 29.601563 C 10.234375 30.71875 9.402344 31.554688 8.296875 31.554688 L 1.9375 31.554688 C 0.828125 31.554688 0 30.71875 0 29.601563 C 0 28.484375 0.828125 27.644531 1.9375 27.644531 L 8.296875 27.644531 C 9.402344 27.515625 10.234375 28.484375 10.234375 29.601563 Z M 10.234375 29.601563 "/>
<path style=" stroke:none;fill-rule:evenodd;fill:rgb(0%,47.058824%,84.313725%);fill-opacity:1;" d="M 10.234375 15.21875 C 10.234375 16.335938 9.402344 17.175781 8.296875 17.175781 L 1.9375 17.175781 C 0.828125 17.175781 0 16.335938 0 15.21875 C 0 14.101563 0.828125 13.265625 1.9375 13.265625 L 8.296875 13.265625 C 9.402344 13.265625 10.234375 14.234375 10.234375 15.21875 Z M 10.234375 15.21875 "/>
<path style=" stroke:none;fill-rule:evenodd;fill:rgb(0%,47.058824%,84.313725%);fill-opacity:1;" d="M 10.234375 43.84375 C 10.234375 44.960938 9.402344 45.796875 8.296875 45.796875 L 1.9375 45.796875 C 0.828125 45.796875 0 44.960938 0 43.84375 C 0 42.726563 0.828125 41.886719 1.9375 41.886719 L 8.296875 41.886719 C 9.402344 41.886719 10.234375 42.726563 10.234375 43.84375 Z M 10.234375 43.84375 "/>
</g>
</svg>
