<?xml version="1.0" encoding="UTF-8"?>
<svg xmlns="http://www.w3.org/2000/svg" xmlns:xlink="http://www.w3.org/1999/xlink" width="70pt" height="70pt" viewBox="0 0 70 70" version="1.1">
<defs>
<filter id="alpha" filterUnits="objectBoundingBox" x="0%" y="0%" width="100%" height="100%">
  <feColorMatrix type="matrix" in="SourceGraphic" values="0 0 0 0 1 0 0 0 0 1 0 0 0 0 1 0 0 0 1 0"/>
</filter>
<mask id="mask0">
  <g filter="url(#alpha)">
<rect x="0" y="0" width="70" height="70" style="fill:rgb(0,0,0);fill-opacity:0.501961;stroke:none;"/>
  </g>
</mask>
<clipPath id="clip1">
  <rect x="0" y="0" width="70" height="70"/>
</clipPath>
<g id="surface5" clip-path="url(#clip1)">
<path style=" stroke:none;fill-rule:nonzero;fill:rgb(103,190,255);fill-opacity:1;" d="M 35.699219 32.042969 L 38.226563 32.042969 L 38.226563 39.082031 C 38.226563 39.382813 37.984375 39.628906 37.683594 39.628906 L 35 39.628906 C 34.699219 39.628906 34.457031 39.382813 34.457031 39.082031 L 34.457031 33.171875 C 34.453125 32.851563 34.589844 32.546875 34.824219 32.332031 C 35.0625 32.117188 35.382813 32.011719 35.699219 32.042969 Z M 35.699219 32.042969 "/>
</g>
<mask id="mask1">
  <g filter="url(#alpha)">
<rect x="0" y="0" width="70" height="70" style="fill:rgb(0,0,0);fill-opacity:0.501961;stroke:none;"/>
  </g>
</mask>
<clipPath id="clip2">
  <rect x="0" y="0" width="70" height="70"/>
</clipPath>
<g id="surface8" clip-path="url(#clip2)">
<path style=" stroke:none;fill-rule:nonzero;fill:rgb(103,190,255);fill-opacity:1;" d="M 64.398438 32.042969 L 66.929688 32.042969 C 67.550781 32.042969 68.054688 32.550781 68.054688 33.171875 L 68.054688 39.121094 C 68.054688 39.421875 67.8125 39.667969 67.511719 39.667969 L 64.945313 39.667969 C 64.644531 39.667969 64.398438 39.421875 64.398438 39.121094 Z M 64.398438 32.042969 "/>
</g>
<mask id="mask2">
  <g filter="url(#alpha)">
<rect x="0" y="0" width="70" height="70" style="fill:rgb(0,0,0);fill-opacity:0.501961;stroke:none;"/>
  </g>
</mask>
<clipPath id="clip3">
  <rect x="0" y="0" width="70" height="70"/>
</clipPath>
<g id="surface11" clip-path="url(#clip3)">
<path style=" stroke:none;fill-rule:nonzero;fill:rgb(103,190,255);fill-opacity:1;" d="M 35 54.445313 L 37.527344 54.445313 C 37.828125 54.445313 38.070313 54.6875 38.070313 54.988281 L 38.070313 62.027344 L 35.699219 62.027344 C 35.078125 62.027344 34.570313 61.523438 34.570313 60.898438 L 34.570313 54.871094 C 34.613281 54.65625 34.785156 54.488281 35 54.445313 Z M 35 54.445313 "/>
</g>
<mask id="mask3">
  <g filter="url(#alpha)">
<rect x="0" y="0" width="70" height="70" style="fill:rgb(0,0,0);fill-opacity:0.501961;stroke:none;"/>
  </g>
</mask>
<clipPath id="clip4">
  <rect x="0" y="0" width="70" height="70"/>
</clipPath>
<g id="surface14" clip-path="url(#clip4)">
<path style=" stroke:none;fill-rule:nonzero;fill:rgb(103,190,255);fill-opacity:1;" d="M 64.945313 54.445313 L 67.472656 54.445313 C 67.773438 54.445313 68.015625 54.6875 68.015625 54.988281 L 68.015625 60.9375 C 68.015625 61.5625 67.511719 62.066406 66.890625 62.066406 L 64.359375 62.066406 L 64.359375 54.871094 C 64.417969 54.601563 64.667969 54.417969 64.945313 54.445313 Z M 64.945313 54.445313 "/>
</g>
</defs>
<g id="surface1">
<path style=" stroke:none;fill-rule:nonzero;fill:rgb(103,190,255);fill-opacity:1;" d="M 35.699219 32.042969 L 38.226563 32.042969 L 38.226563 39.082031 C 38.226563 39.382813 37.984375 39.628906 37.683594 39.628906 L 35 39.628906 C 34.699219 39.628906 34.457031 39.382813 34.457031 39.082031 L 34.457031 33.171875 C 34.453125 32.851563 34.589844 32.546875 34.824219 32.332031 C 35.0625 32.117188 35.382813 32.011719 35.699219 32.042969 Z M 35.699219 32.042969 "/>
<use xlink:href="#surface5" mask="url(#mask0)"/>
<path style=" stroke:none;fill-rule:nonzero;fill:rgb(103,190,255);fill-opacity:1;" d="M 64.398438 32.042969 L 66.929688 32.042969 C 67.550781 32.042969 68.054688 32.550781 68.054688 33.171875 L 68.054688 39.121094 C 68.054688 39.421875 67.8125 39.667969 67.511719 39.667969 L 64.945313 39.667969 C 64.644531 39.667969 64.398438 39.421875 64.398438 39.121094 Z M 64.398438 32.042969 "/>
<use xlink:href="#surface8" mask="url(#mask1)"/>
<path style=" stroke:none;fill-rule:nonzero;fill:rgb(103,190,255);fill-opacity:1;" d="M 68.054688 33.054688 L 68.054688 35.503906 L 34.609375 35.503906 L 34.609375 33.054688 C 34.609375 32.433594 35.117188 31.929688 35.738281 31.929688 L 66.851563 31.929688 C 67.164063 31.90625 67.46875 32.015625 67.699219 32.230469 C 67.925781 32.441406 68.054688 32.742188 68.054688 33.054688 Z M 68.054688 33.054688 "/>
<path style=" stroke:none;fill-rule:nonzero;fill:rgb(103,190,255);fill-opacity:1;" d="M 35 54.445313 L 37.527344 54.445313 C 37.828125 54.445313 38.070313 54.6875 38.070313 54.988281 L 38.070313 62.027344 L 35.699219 62.027344 C 35.078125 62.027344 34.570313 61.523438 34.570313 60.898438 L 34.570313 54.871094 C 34.613281 54.65625 34.785156 54.488281 35 54.445313 Z M 35 54.445313 "/>
<use xlink:href="#surface11" mask="url(#mask2)"/>
<path style=" stroke:none;fill-rule:nonzero;fill:rgb(103,190,255);fill-opacity:1;" d="M 64.945313 54.445313 L 67.472656 54.445313 C 67.773438 54.445313 68.015625 54.6875 68.015625 54.988281 L 68.015625 60.9375 C 68.015625 61.5625 67.511719 62.066406 66.890625 62.066406 L 64.359375 62.066406 L 64.359375 54.871094 C 64.417969 54.601563 64.667969 54.417969 64.945313 54.445313 Z M 64.945313 54.445313 "/>
<use xlink:href="#surface14" mask="url(#mask3)"/>
<path style=" stroke:none;fill-rule:nonzero;fill:rgb(103,190,255);fill-opacity:1;" d="M 34.609375 60.9375 L 34.609375 58.488281 L 68.09375 58.488281 L 68.09375 60.9375 C 68.09375 61.5625 67.589844 62.066406 66.964844 62.066406 L 35.855469 62.066406 C 35.535156 62.101563 35.21875 61.996094 34.980469 61.78125 C 34.742188 61.566406 34.609375 61.257813 34.609375 60.9375 Z M 34.609375 60.9375 "/>
<path style=" stroke:none;fill-rule:nonzero;fill:rgb(47,166,255);fill-opacity:1;" d="M 54.792969 45.65625 C 54.796875 45.90625 54.613281 46.121094 54.367188 46.160156 L 50.554688 46.160156 C 50.425781 46.171875 50.296875 46.128906 50.199219 46.039063 C 50.105469 45.949219 50.050781 45.824219 50.050781 45.695313 L 50.050781 42.777344 C 50.0625 42.53125 50.238281 42.324219 50.476563 42.273438 L 54.367188 42.273438 C 54.496094 42.261719 54.625 42.304688 54.722656 42.394531 C 54.816406 42.484375 54.871094 42.609375 54.871094 42.738281 Z M 54.792969 45.65625 "/>
<path style=" stroke:none;fill-rule:nonzero;fill:rgb(0,138,240);fill-opacity:1;" d="M 61.753906 48.609375 C 61.757813 48.863281 61.578125 49.078125 61.328125 49.117188 L 57.4375 49.117188 C 57.308594 49.128906 57.179688 49.082031 57.082031 48.996094 C 56.988281 48.90625 56.933594 48.78125 56.933594 48.648438 L 56.933594 45.773438 C 56.921875 45.652344 56.960938 45.53125 57.042969 45.445313 C 57.125 45.355469 57.242188 45.304688 57.359375 45.304688 L 61.25 45.304688 C 61.375 45.28125 61.507813 45.316406 61.605469 45.398438 C 61.703125 45.484375 61.757813 45.605469 61.753906 45.734375 Z M 61.753906 48.609375 "/>
<path style=" stroke:none;fill-rule:nonzero;fill:rgb(0,138,240);fill-opacity:1;" d="M 54.792969 51.566406 C 54.804688 51.691406 54.765625 51.8125 54.6875 51.910156 C 54.605469 52.003906 54.492188 52.0625 54.367188 52.070313 L 50.554688 52.070313 C 50.433594 52.082031 50.308594 52.042969 50.214844 51.964844 C 50.117188 51.882813 50.058594 51.769531 50.050781 51.644531 L 50.050781 48.726563 C 50.039063 48.589844 50.085938 48.453125 50.183594 48.355469 C 50.28125 48.257813 50.417969 48.210938 50.554688 48.222656 L 54.445313 48.222656 C 54.570313 48.199219 54.699219 48.234375 54.796875 48.316406 C 54.898438 48.398438 54.953125 48.523438 54.949219 48.648438 L 54.949219 51.566406 Z M 54.792969 51.566406 "/>
<path style=" stroke:none;fill-rule:nonzero;fill:rgb(89,184,255);fill-opacity:1;" d="M 47.832031 42.777344 C 47.84375 42.898438 47.804688 43.015625 47.722656 43.105469 C 47.640625 43.195313 47.527344 43.246094 47.40625 43.246094 L 43.515625 43.246094 C 43.386719 43.449219 43.117188 43.507813 42.914063 43.378906 C 42.710938 43.25 42.648438 42.980469 42.777344 42.777344 L 42.777344 39.785156 C 42.765625 39.664063 42.808594 39.542969 42.886719 39.457031 C 42.96875 39.367188 43.085938 39.316406 43.207031 39.316406 L 47.09375 39.316406 C 47.484375 39.316406 47.679688 39.511719 47.679688 39.785156 Z M 47.832031 42.777344 "/>
<path style=" stroke:none;fill-rule:nonzero;fill:rgb(47,166,255);fill-opacity:1;" d="M 47.832031 48.609375 C 47.84375 48.734375 47.804688 48.859375 47.726563 48.953125 C 47.644531 49.046875 47.53125 49.105469 47.40625 49.117188 L 43.515625 49.117188 C 43.257813 49.117188 43.050781 48.90625 43.050781 48.648438 L 43.050781 45.695313 C 43.039063 45.570313 43.078125 45.449219 43.160156 45.351563 C 43.238281 45.257813 43.355469 45.199219 43.476563 45.1875 L 47.367188 45.1875 C 47.753906 45.1875 47.949219 45.382813 47.949219 45.695313 Z M 47.832031 48.609375 "/>
<path style=" stroke:none;fill-rule:nonzero;fill:rgb(0,138,240);fill-opacity:1;" d="M 47.832031 54.445313 C 47.855469 54.570313 47.820313 54.699219 47.738281 54.796875 C 47.65625 54.898438 47.535156 54.953125 47.40625 54.949219 L 43.515625 54.949219 C 43.355469 55.082031 43.128906 55.089844 42.957031 54.972656 C 42.789063 54.855469 42.714844 54.640625 42.777344 54.445313 L 42.777344 51.410156 C 42.765625 51.289063 42.804688 51.164063 42.886719 51.070313 C 42.964844 50.972656 43.082031 50.914063 43.207031 50.90625 L 47.09375 50.90625 C 47.242188 50.882813 47.390625 50.925781 47.503906 51.023438 C 47.617188 51.121094 47.679688 51.261719 47.679688 51.410156 Z M 47.832031 54.445313 "/>
<path style=" stroke:none;fill-rule:nonzero;fill:rgb(41,164,255);fill-opacity:1;" d="M 51.761719 22.554688 C 51.761719 22.246094 51.632813 21.949219 51.402344 21.742188 C 51.171875 21.535156 50.863281 21.433594 50.554688 21.464844 L 19.445313 21.464844 C 19.148438 21.457031 18.863281 21.566406 18.648438 21.773438 C 18.4375 21.976563 18.316406 22.261719 18.316406 22.554688 L 18.316406 28.503906 C 18.335938 28.8125 18.59375 29.050781 18.898438 29.050781 L 21.390625 29.050781 C 21.691406 29.050781 21.933594 28.804688 21.933594 28.503906 L 21.933594 25.003906 L 48.066406 25.003906 L 48.066406 28.503906 C 48.085938 28.8125 48.34375 29.050781 48.648438 29.050781 L 51.179688 29.050781 C 51.484375 29.050781 51.742188 28.8125 51.761719 28.503906 Z M 51.761719 22.554688 "/>
<path style=" stroke:none;fill-rule:nonzero;fill:rgb(41,164,255);fill-opacity:1;" d="M 21.933594 44.023438 C 21.933594 43.722656 21.691406 43.476563 21.390625 43.476563 L 18.859375 43.476563 C 18.554688 43.476563 18.296875 43.714844 18.277344 44.023438 L 18.277344 49.972656 C 18.207031 50.496094 18.570313 50.980469 19.09375 51.0625 L 32.628906 51.0625 L 32.628906 47.523438 L 21.933594 47.523438 Z M 21.933594 44.023438 "/>
<path style=" stroke:none;fill-rule:nonzero;fill:rgb(41,164,255);fill-opacity:1;" d="M 35.429688 9.179688 C 35.429688 8.554688 34.921875 8.050781 34.300781 8.050781 L 3.1875 8.050781 C 2.566406 8.050781 2.0625 8.554688 2.0625 9.179688 L 2.0625 15.128906 C 2.105469 15.34375 2.273438 15.511719 2.488281 15.554688 L 5.054688 15.554688 C 5.355469 15.554688 5.601563 15.3125 5.601563 15.011719 L 5.601563 11.667969 L 31.734375 11.667969 L 31.734375 15.207031 C 31.832031 15.433594 32.066406 15.574219 32.316406 15.554688 L 35 15.554688 C 35.308594 15.554688 35.5625 15.316406 35.582031 15.011719 L 35.582031 9.179688 Z M 35.429688 9.179688 "/>
<path style=" stroke:none;fill-rule:nonzero;fill:rgb(41,164,255);fill-opacity:1;" d="M 5.601563 30.644531 C 5.601563 30.335938 5.363281 30.082031 5.054688 30.0625 L 2.488281 30.0625 C 2.183594 30.082031 1.945313 30.335938 1.945313 30.644531 L 1.945313 36.554688 C 1.945313 37.140625 2.332031 37.644531 2.761719 37.644531 L 16.292969 37.644531 L 16.292969 34.144531 L 5.601563 34.144531 Z M 5.601563 30.644531 "/>
<path style=" stroke:none;fill-rule:nonzero;fill:rgb(47,166,255);fill-opacity:1;" d="M 30.410156 32.355469 C 30.421875 32.476563 30.382813 32.59375 30.300781 32.683594 C 30.21875 32.773438 30.105469 32.824219 29.984375 32.820313 L 26.09375 32.820313 C 25.96875 32.84375 25.839844 32.8125 25.742188 32.726563 C 25.640625 32.644531 25.585938 32.523438 25.589844 32.394531 L 25.589844 29.398438 C 25.566406 29.273438 25.601563 29.144531 25.683594 29.046875 C 25.765625 28.949219 25.886719 28.890625 26.015625 28.894531 L 29.90625 28.894531 C 30.292969 28.894531 30.488281 29.089844 30.488281 29.398438 Z M 30.410156 35.3125 C 30.410156 35 30.214844 35 29.828125 35 L 25.9375 35 C 25.816406 35.011719 25.699219 35.070313 25.621094 35.164063 C 25.539063 35.257813 25.5 35.382813 25.511719 35.503906 L 25.511719 38.539063 C 25.519531 38.664063 25.578125 38.777344 25.675781 38.859375 C 25.769531 38.9375 25.894531 38.976563 26.015625 38.964844 L 29.90625 38.964844 C 30.03125 38.957031 30.144531 38.898438 30.226563 38.804688 C 30.304688 38.707031 30.34375 38.585938 30.332031 38.460938 Z M 30.410156 41.222656 C 30.410156 40.949219 30.214844 40.753906 29.828125 40.753906 L 25.9375 40.753906 C 25.820313 40.753906 25.703125 40.804688 25.621094 40.894531 C 25.539063 40.984375 25.5 41.101563 25.511719 41.222656 L 25.511719 44.253906 C 25.507813 44.382813 25.566406 44.507813 25.664063 44.589844 C 25.761719 44.671875 25.890625 44.707031 26.015625 44.683594 L 29.90625 44.683594 C 30.035156 44.683594 30.15625 44.628906 30.238281 44.53125 C 30.320313 44.433594 30.355469 44.304688 30.332031 44.179688 Z M 14.078125 15.984375 C 14.058594 15.847656 13.984375 15.726563 13.875 15.648438 C 13.765625 15.566406 13.628906 15.535156 13.496094 15.554688 L 9.605469 15.554688 C 9.480469 15.566406 9.367188 15.625 9.285156 15.71875 C 9.207031 15.8125 9.167969 15.9375 9.179688 16.0625 L 9.179688 19.09375 C 9.226563 19.292969 9.402344 19.433594 9.605469 19.445313 L 13.496094 19.445313 C 13.621094 19.445313 13.746094 19.390625 13.828125 19.292969 C 13.910156 19.195313 13.945313 19.066406 13.921875 18.9375 Z M 14.078125 21.894531 C 14.078125 21.621094 13.882813 21.429688 13.496094 21.429688 L 9.605469 21.429688 C 9.484375 21.425781 9.371094 21.476563 9.289063 21.566406 C 9.207031 21.65625 9.167969 21.773438 9.179688 21.894531 L 9.179688 24.890625 C 9.175781 25.007813 9.226563 25.125 9.316406 25.207031 C 9.40625 25.289063 9.523438 25.328125 9.644531 25.316406 L 13.535156 25.316406 C 13.652344 25.316406 13.769531 25.265625 13.851563 25.179688 C 13.933594 25.089844 13.972656 24.96875 13.960938 24.851563 Z M 14.078125 27.84375 C 14.078125 27.535156 13.882813 27.339844 13.496094 27.339844 L 9.605469 27.339844 C 9.480469 27.347656 9.367188 27.40625 9.285156 27.503906 C 9.207031 27.597656 9.167969 27.71875 9.179688 27.84375 L 9.179688 30.800781 C 9.179688 31.058594 9.386719 31.265625 9.644531 31.265625 L 13.535156 31.265625 C 13.65625 31.257813 13.773438 31.199219 13.851563 31.101563 C 13.933594 31.007813 13.972656 30.886719 13.960938 30.761719 Z M 14.078125 27.84375 "/>
</g>
</svg>
