<?xml version="1.0" encoding="utf-8"?><svg version="1.1" xmlns="http://www.w3.org/2000/svg" xmlns:xlink="http://www.w3.org/1999/xlink" xmlns:xml="http://www.w3.org/XML/1998/namespace" width="70" height="70" viewBox="0, 0, 18, 18" id="f2f5701e-cb3b-4d6f-b407-5866ec5b7784"><defs><linearGradient x1="9" y1="5.38" x2="9" gradientUnits="userSpaceOnUse" id="a891901b-79ae-490a-8568-9c4334417d35"><stop offset="19.9%" stop-color="#00518E" /><stop offset="100%" stop-color="#006CBC" /></linearGradient><linearGradient x1="9" y1="12.713" x2="9" y2="5.287" gradientUnits="userSpaceOnUse" id="bbdaa009-2281-4da8-9e89-6f41689e91a7"><stop offset="0%" stop-color="#007CD8" /><stop offset="17.2%" stop-color="#2FA6FF" /><stop offset="50%" stop-color="#77C5FF" /><stop offset="50%" stop-color="#75C4FF" /><stop offset="50%" stop-color="#69BFFF" /><stop offset="50%" stop-color="#55B6FF" /><stop offset="50%" stop-color="#37AAFF" /><stop offset="50%" stop-color="#139AFF" /><stop offset="50%" stop-color="#0082E2" /><stop offset="50%" stop-color="#007CD8" /><stop offset="66.2%" stop-color="#2FA6FF" /><stop offset="97.5%" stop-color="#77C5FF" /></linearGradient></defs><path d="M9 0 L1.15 4.49 v8.97 L9 18 l7.85 -4.49 v-9 Z m6.4 12.57 L9 16.27 L2.6 12.609 V5.38 L9 1.68 l6.4 3.71 Z" style="fill:#006CBC;" /><polygon points="9,0 9,0 1.15,4.49 2.6,5.38 9,1.68 9,1.68 15.4,5.38 16.85,4.49 9,0" style="fill:url(#a891901b-79ae-490a-8568-9c4334417d35);" /><path d="M12.74 10.475 a0.73 0.73 0 0 0 -0.323 -0.286 A5.835 5.835 0 0 0 7.939 6.843 L14.416 3.1 L12.91 2.236 L5.534 6.5 A0.75 0.75 0 0 0 5.91 7.9 A0.684 0.684 0 0 0 6 7.877 l0.125 0.523 a4.319 4.319 0 0 1 4.837 2.238 L3.613 14.885 l1.5 0.866 L12.466 11.5 a0.729 0.729 0 0 0 0.242 -0.236 l0.075 -0.018 c-0.007 -0.029 -0.018 -0.055 -0.025 -0.084 A0.735 0.735 0 0 0 12.74 10.475 Z" style="fill:#77C5FF;" /><path d="M12.091 9.013 a1.85 1.85 0 1 0 1.85 1.85 A1.85 1.85 0 0 0 12.091 9.013 Z M5.909 5.267 a1.85 1.85 0 1 0 1.85 1.85 A1.85 1.85 0 0 0 5.909 5.267 Z" style="fill:url(#bbdaa009-2281-4da8-9e89-6f41689e91a7);" /></svg>