<?xml version="1.0" encoding="UTF-8"?>
<svg xmlns="http://www.w3.org/2000/svg" xmlns:xlink="http://www.w3.org/1999/xlink" width="70pt" height="56pt" viewBox="0 0 70 56" version="1.1">
<g id="surface1">
<path style=" stroke:none;fill-rule:nonzero;fill:rgb(39,163,255);fill-opacity:1;" d="M 60.023438 37.273438 L 61.773438 32.898438 L 69.300781 30.101563 L 69.125 23.800781 L 68.25 23.449219 L 61.601563 21.351563 L 59.5 17.148438 L 62.824219 9.800781 L 62.648438 9.625 L 58.273438 5.425781 L 57.398438 5.949219 L 51.273438 9.273438 L 46.898438 7.523438 L 44.101563 0 L 37.800781 0.175781 L 37.449219 1.050781 L 35.351563 7.699219 L 31.148438 9.625 L 23.976563 6.648438 L 19.601563 11.199219 L 20.125 12.074219 L 22.226563 15.925781 C 25.550781 13.824219 29.398438 12.773438 33.425781 12.773438 C 39.550781 12.773438 45.5 15.398438 49.875 20.300781 C 49.875 20.300781 49.875 20.476563 50.050781 20.476563 L 50.226563 20.648438 C 54.074219 25.375 53.550781 32.375 48.824219 36.226563 C 44.449219 39.898438 37.976563 39.550781 33.949219 35.699219 L 33.601563 35.699219 C 32.726563 35.699219 31.851563 36.050781 31.148438 36.925781 L 30.976563 37.101563 C 28.351563 39.898438 25.375 42 21.875 43.226563 L 20.824219 45.675781 L 25.023438 49.699219 L 25.375 50.050781 L 26.25 49.699219 L 32.375 46.375 L 36.75 48.125 L 39.550781 55.648438 L 45.851563 55.476563 L 46.199219 54.601563 L 48.300781 47.949219 L 52.5 46.023438 L 59.851563 49.351563 L 64.226563 44.800781 L 63.351563 43.398438 Z M 60.023438 37.273438 "/>
<path style=" stroke:none;fill-rule:nonzero;fill:rgb(39,163,255);fill-opacity:1;" d="M 22.925781 26.601563 C 22.925781 26.773438 22.925781 26.773438 22.925781 26.601563 L 22.75 26.773438 C 18.023438 31.851563 10.5 31.851563 5.773438 26.773438 C 5.25 26.074219 4.199219 26.074219 3.675781 26.773438 C 3.324219 27.125 3.324219 27.476563 3.324219 28 C 3.324219 28.523438 3.5 28.875 3.675781 29.226563 C 9.449219 35.699219 18.898438 35.699219 24.851563 29.226563 C 24.851563 29.226563 24.851563 29.050781 25.023438 29.050781 C 29.75 23.976563 37.273438 23.976563 42 29.050781 C 42.523438 29.75 43.574219 29.75 44.101563 29.050781 C 44.449219 28.699219 44.449219 28.351563 44.449219 27.824219 C 44.449219 27.476563 44.273438 26.949219 44.101563 26.601563 C 38.148438 20.300781 28.699219 20.300781 22.925781 26.601563 "/>
<path style=" stroke:none;fill-rule:nonzero;fill:rgb(39,163,255);fill-opacity:1;" d="M 33.601563 28.699219 C 30.976563 28.699219 28.699219 29.75 26.949219 31.851563 C 26.949219 31.851563 26.949219 32.023438 26.773438 32.023438 L 26.601563 32.199219 C 23.273438 35.699219 19.074219 37.800781 14.523438 37.800781 C 9.976563 37.800781 5.601563 35.875 2.449219 32.199219 C 1.925781 31.5 0.875 31.5 0.351563 32.199219 C 0 32.550781 0 32.898438 0 33.425781 C 0 33.773438 0.175781 34.300781 0.351563 34.648438 C 4.199219 38.851563 9.273438 41.125 14.523438 41.125 C 19.949219 41.125 25.023438 38.851563 28.699219 34.648438 C 28.699219 34.648438 28.699219 34.476563 28.875 34.476563 L 29.050781 34.300781 C 30.273438 32.898438 32.023438 32.199219 33.773438 32.199219 C 35.523438 32.199219 37.101563 32.898438 38.5 34.300781 C 39.023438 35 40.074219 35 40.601563 34.300781 C 40.949219 33.949219 40.949219 33.601563 40.949219 33.074219 C 40.949219 32.550781 40.773438 32.199219 40.601563 31.851563 C 38.5 29.75 36.050781 28.699219 33.601563 28.699219 M 47.601563 21.523438 C 43.75 17.324219 38.675781 15.050781 33.425781 15.050781 C 28 15.050781 22.925781 17.324219 19.25 21.523438 C 19.25 21.523438 19.25 21.699219 19.074219 21.699219 L 18.898438 21.875 C 17.675781 23.273438 15.925781 23.976563 14.175781 23.976563 C 12.425781 23.976563 10.675781 23.273438 9.449219 21.875 C 8.925781 21.175781 7.875 21.175781 7.351563 21.875 C 7 22.226563 7 22.574219 7 23.101563 C 7 23.449219 7.175781 23.976563 7.351563 24.324219 C 9.101563 26.25 11.550781 27.476563 14.175781 27.476563 C 16.800781 27.476563 19.074219 26.425781 20.824219 24.324219 C 20.824219 24.324219 20.824219 24.148438 21 24.148438 L 21.175781 23.976563 C 24.5 20.476563 28.699219 18.375 33.25 18.375 C 37.800781 18.375 42.175781 20.300781 45.324219 23.976563 C 45.851563 24.675781 46.898438 24.675781 47.425781 23.976563 C 47.773438 23.625 47.773438 23.273438 47.773438 22.75 C 48.125 22.226563 47.949219 21.875 47.601563 21.523438 "/>
</g>
</svg>
