<?xml version="1.0" encoding="UTF-8"?>
<svg xmlns="http://www.w3.org/2000/svg" xmlns:xlink="http://www.w3.org/1999/xlink" width="70pt" height="54pt" viewBox="0 0 70 54" version="1.1">
<g id="surface1">
<path style=" stroke:none;fill-rule:nonzero;fill:rgb(34.901961%,70.588235%,85.098039%);fill-opacity:1;" d="M 41.195313 12.753906 L 41.195313 19.199219 L 28.804688 15.253906 L 28.804688 0.0078125 L 0 0.0078125 L 0 22.039063 L 14.257813 22.039063 L 15.800781 31.957031 L 4.976563 31.957031 L 4.976563 53.992188 L 33.785156 53.992188 L 33.785156 38.683594 L 41.195313 34.726563 L 41.195313 34.785156 L 70 34.785156 L 70 12.753906 Z M 59.210938 26.101563 C 58.835938 27.398438 57.777344 28.378906 56.457031 28.660156 C 55.132813 28.941406 53.765625 28.472656 52.894531 27.441406 L 43.113281 32.667969 L 41.195313 33.691406 L 33.785156 37.648438 L 31.863281 38.675781 L 22.894531 43.46875 C 23.453125 45.375 22.375 47.378906 20.476563 47.972656 C 18.574219 48.566406 16.546875 47.535156 15.910156 45.652344 C 15.273438 43.769531 16.265625 41.726563 18.136719 41.050781 L 17.46875 36.75 L 16.726563 31.957031 L 15.183594 22.039063 L 14.886719 20.125 L 14.257813 16.066406 C 12.238281 15.984375 10.667969 14.285156 10.75 12.269531 C 10.832031 10.253906 12.535156 8.6875 14.554688 8.769531 C 16.574219 8.851563 18.144531 10.550781 18.0625 12.566406 C 18.058594 12.636719 18.054688 12.710938 18.046875 12.78125 L 26.886719 15.597656 L 28.804688 16.207031 L 41.195313 20.15625 L 43.113281 20.765625 L 52.308594 23.695313 C 53.050781 21.902344 55.066406 21 56.902344 21.640625 C 58.738281 22.277344 59.75 24.238281 59.210938 26.101563 Z M 59.210938 26.101563 "/>
<path style=" stroke:none;fill-rule:nonzero;fill:rgb(34.901961%,70.588235%,85.098039%);fill-opacity:1;" d="M 52.035156 25.203125 L 43.113281 22.359375 L 41.195313 21.75 L 28.804688 17.804688 L 26.886719 17.191406 L 17.582031 14.226563 C 17.238281 14.828125 16.734375 15.320313 16.121094 15.644531 C 16.003906 15.707031 15.882813 15.761719 15.757813 15.8125 L 16.425781 20.125 L 16.726563 22.042969 L 18.265625 31.957031 L 19.007813 36.75 L 19.644531 40.839844 C 19.902344 40.859375 20.152344 40.902344 20.398438 40.972656 C 21.09375 41.171875 21.714844 41.574219 22.179688 42.125 L 31.863281 36.953125 L 33.785156 35.925781 L 41.195313 31.96875 L 43.113281 30.945313 L 52.179688 26.101563 C 52.09375 25.808594 52.042969 25.507813 52.035156 25.203125 Z M 41.195313 30.9375 L 33.785156 34.894531 L 33.785156 31.957031 L 19.191406 31.957031 L 17.648438 22.039063 L 28.804688 22.039063 L 28.804688 18.761719 L 41.195313 22.707031 Z M 41.195313 30.9375 "/>
</g>
</svg>
