<?xml version="1.0" encoding="UTF-8"?>
<svg xmlns="http://www.w3.org/2000/svg" xmlns:xlink="http://www.w3.org/1999/xlink" width="70pt" height="70pt" viewBox="0 0 70 70" version="1.1">
<g id="surface1">
<path style=" stroke:none;fill-rule:nonzero;fill:rgb(34.901961%,70.196078%,84.705882%);fill-opacity:1;" d="M 55.195313 25.980469 C 59.164063 25.980469 62.789063 27 66.078125 28.929688 L 66.078125 28.816406 L 56.328125 11.8125 L 48.621094 11.8125 C 48.621094 14.988281 47.488281 18.160156 45.335938 20.542969 L 48.960938 26.773438 C 50.890625 26.207031 53.042969 25.980469 55.195313 25.980469 Z M 55.195313 25.980469 "/>
<path style=" stroke:none;fill-rule:nonzero;fill:rgb(34.901961%,70.196078%,84.705882%);fill-opacity:1;" d="M 14.839844 34.148438 C 15.519531 34.035156 16.316406 34.035156 16.996094 34.148438 L 20.28125 28.480469 L 24.929688 20.320313 C 22.777344 17.9375 21.640625 14.878906 21.640625 11.703125 L 13.820313 11.703125 L 4.074219 28.707031 L 8.265625 35.960938 C 10.308594 34.828125 12.574219 34.148438 14.839844 34.148438 Z M 14.839844 34.148438 "/>
<path style=" stroke:none;fill-rule:nonzero;fill:rgb(34.901961%,70.196078%,84.705882%);fill-opacity:1;" d="M 29.691406 24.054688 L 22.550781 36.523438 C 25.609375 38.675781 27.765625 41.960938 28.21875 45.703125 L 33.542969 45.703125 C 34.109375 38.789063 37.964844 32.894531 43.519531 29.382813 L 40.457031 24.054688 C 37.058594 25.640625 33.089844 25.640625 29.691406 24.054688 Z M 29.691406 24.054688 "/>
<path style=" stroke:none;fill-rule:nonzero;fill:rgb(34.901961%,70.196078%,84.705882%);fill-opacity:1;" d="M 33.886719 51.488281 L 27.765625 51.488281 C 26.746094 54.773438 24.59375 57.496094 21.644531 59.195313 L 25.273438 65.542969 L 42.953125 65.542969 C 38.308594 62.367188 34.90625 57.382813 33.886719 51.488281 Z M 33.886719 51.488281 "/>
<path style=" stroke:none;fill-rule:nonzero;fill:rgb(25.490196%,25.490196%,25.490196%);fill-opacity:1;" d="M 39.742188 16.554688 C 42.355469 13.941406 42.355469 9.707031 39.742188 7.097656 C 37.132813 4.484375 32.898438 4.484375 30.285156 7.097656 C 27.675781 9.707031 27.675781 13.941406 30.285156 16.554688 C 32.898438 19.164063 37.132813 19.164063 39.742188 16.554688 Z M 39.742188 16.554688 "/>
<path style=" stroke:none;fill-rule:nonzero;fill:rgb(25.490196%,25.490196%,25.490196%);fill-opacity:1;" d="M 56.734375 54.128906 C 60.328125 53.28125 62.554688 49.679688 61.707031 46.085938 C 60.859375 42.492188 57.257813 40.265625 53.664063 41.113281 C 50.066406 41.960938 47.84375 45.5625 48.691406 49.160156 C 49.539063 52.753906 53.140625 54.980469 56.734375 54.128906 Z M 56.734375 54.128906 "/>
<path style=" stroke:none;fill-rule:nonzero;fill:rgb(25.490196%,25.490196%,25.490196%);fill-opacity:1;" d="M 19.59375 52.386719 C 22.203125 49.773438 22.203125 45.539063 19.59375 42.925781 C 16.980469 40.316406 12.746094 40.316406 10.136719 42.925781 C 7.523438 45.539063 7.523438 49.773438 10.136719 52.386719 C 12.746094 54.996094 16.980469 54.996094 19.59375 52.386719 Z M 19.59375 52.386719 "/>
<path style=" stroke:none;fill-rule:nonzero;fill:rgb(34.901961%,70.196078%,84.705882%);fill-opacity:1;" d="M 48.84375 26.890625 L 49.976563 28.820313 L 53.265625 34.484375 C 53.945313 34.371094 54.625 34.371094 55.304688 34.484375 C 57.6875 34.484375 59.953125 35.164063 61.992188 36.300781 L 65.960938 28.933594 C 62.785156 27.117188 59.046875 25.984375 55.078125 25.984375 C 53.039063 25.984375 50.886719 26.210938 48.84375 26.890625 Z M 48.84375 26.890625 "/>
<path style=" stroke:none;fill-rule:nonzero;fill:rgb(54.509804%,78.823529%,87.843137%);fill-opacity:1;" d="M 48.84375 26.890625 L 49.976563 28.820313 L 53.265625 34.484375 C 53.945313 34.371094 54.625 34.371094 55.304688 34.484375 C 57.6875 34.484375 59.953125 35.164063 61.992188 36.300781 L 65.960938 28.933594 C 62.785156 27.117188 59.046875 25.984375 55.078125 25.984375 C 53.039063 25.984375 50.886719 26.210938 48.84375 26.890625 Z M 48.84375 26.890625 "/>
<path style=" stroke:none;fill-rule:nonzero;fill:rgb(34.901961%,70.196078%,84.705882%);fill-opacity:1;" d="M 42.953125 65.542969 L 44.652344 65.542969 L 48.28125 59.308594 C 45.332031 57.609375 43.179688 54.773438 42.273438 51.488281 L 33.773438 51.488281 C 34.90625 57.382813 38.304688 62.367188 42.953125 65.542969 Z M 42.953125 65.542969 "/>
<path style=" stroke:none;fill-rule:nonzero;fill:rgb(54.509804%,78.823529%,87.843137%);fill-opacity:1;" d="M 42.953125 65.542969 L 44.652344 65.542969 L 48.28125 59.308594 C 45.332031 57.609375 43.179688 54.773438 42.273438 51.488281 L 33.773438 51.488281 C 34.90625 57.382813 38.304688 62.367188 42.953125 65.542969 Z M 42.953125 65.542969 "/>
<path style=" stroke:none;fill-rule:nonzero;fill:rgb(34.901961%,70.196078%,84.705882%);fill-opacity:1;" d="M 33.550781 45.703125 L 41.824219 45.703125 C 42.390625 41.964844 44.429688 38.675781 47.605469 36.523438 L 43.410156 29.382813 C 37.96875 32.898438 34.230469 38.789063 33.550781 45.703125 Z M 33.550781 45.703125 "/>
<path style=" stroke:none;fill-rule:nonzero;fill:rgb(54.509804%,78.823529%,87.843137%);fill-opacity:1;" d="M 33.550781 45.703125 L 41.824219 45.703125 C 42.390625 41.964844 44.429688 38.675781 47.605469 36.523438 L 43.410156 29.382813 C 37.96875 32.898438 34.230469 38.789063 33.550781 45.703125 Z M 33.550781 45.703125 "/>
</g>
</svg>
