<?xml version="1.0" encoding="UTF-8"?>
<svg xmlns="http://www.w3.org/2000/svg" xmlns:xlink="http://www.w3.org/1999/xlink" width="67pt" height="70pt" viewBox="0 0 67 70" version="1.1">
<g id="surface1">
<path style=" stroke:none;fill-rule:nonzero;fill:rgb(72.156863%,83.137255%,19.607843%);fill-opacity:1;" d="M 41.585938 31.5 C 41.585938 32.199219 41.125 32.667969 40.429688 32.667969 L 31.421875 32.667969 C 30.726563 32.667969 30.265625 32.199219 30.265625 31.5 L 30.265625 24.734375 C 30.265625 24.035156 30.726563 23.566406 31.421875 23.566406 L 40.429688 23.566406 C 41.125 23.566406 41.585938 24.035156 41.585938 24.734375 Z M 41.585938 31.5 "/>
<path style=" stroke:none;fill-rule:nonzero;fill:rgb(72.156863%,83.137255%,19.607843%);fill-opacity:1;" d="M 57.757813 38.5 C 57.757813 39.199219 57.296875 39.667969 56.601563 39.667969 L 47.59375 39.667969 C 46.898438 39.667969 46.4375 39.199219 46.4375 38.5 L 46.4375 31.734375 C 46.4375 31.035156 46.898438 30.566406 47.59375 30.566406 L 56.601563 30.566406 C 57.296875 30.566406 57.757813 31.035156 57.757813 31.734375 Z M 57.757813 38.5 "/>
<path style=" stroke:none;fill-rule:nonzero;fill:rgb(72.156863%,83.137255%,19.607843%);fill-opacity:1;" d="M 41.585938 45.5 C 41.585938 46.199219 41.125 46.667969 40.429688 46.667969 L 31.421875 46.667969 C 30.726563 46.667969 30.265625 46.199219 30.265625 45.5 L 30.265625 38.734375 C 30.265625 38.035156 30.726563 37.566406 31.421875 37.566406 L 40.429688 37.566406 C 41.125 37.566406 41.585938 38.035156 41.585938 38.734375 Z M 41.585938 45.5 "/>
<path style=" stroke:none;fill-rule:nonzero;fill:rgb(72.156863%,83.137255%,19.607843%);fill-opacity:1;" d="M 25.414063 24.5 C 25.414063 25.199219 24.953125 25.667969 24.257813 25.667969 L 15.015625 25.667969 C 14.324219 25.667969 13.863281 25.199219 13.863281 24.5 L 13.863281 17.5 C 13.863281 16.800781 14.324219 16.332031 15.015625 16.332031 L 24.027344 16.332031 C 24.953125 16.332031 25.414063 16.800781 25.414063 17.5 Z M 25.414063 24.5 "/>
<path style=" stroke:none;fill-rule:nonzero;fill:rgb(0%,44.705882%,77.647059%);fill-opacity:1;" d="M 65.84375 0 L 1.15625 0 C 0.460938 0 0 0.464844 0 1.167969 L 0 15.167969 C 0 15.867188 0.460938 16.332031 1.15625 16.332031 L 8.085938 16.332031 C 8.78125 16.332031 9.242188 15.867188 9.242188 15.167969 L 9.242188 9.332031 L 57.757813 9.332031 L 57.757813 15.167969 C 57.757813 15.867188 58.21875 16.332031 59.144531 16.332031 L 65.84375 16.332031 C 66.539063 16.332031 67 15.867188 67 15.167969 L 67 1.167969 C 67 0.464844 66.539063 0 65.84375 0 Z M 65.84375 0 "/>
<path style=" stroke:none;fill-rule:nonzero;fill:rgb(0%,44.705882%,77.647059%);fill-opacity:1;" d="M 65.84375 53.898438 L 59.144531 53.898438 C 58.453125 53.898438 57.988281 54.367188 57.988281 55.066406 L 57.988281 60.667969 L 9.242188 60.667969 L 9.242188 54.832031 C 9.242188 54.132813 8.78125 53.667969 7.855469 53.667969 L 1.15625 53.667969 C 0.460938 53.667969 0 54.132813 0 55.066406 L 0 68.832031 C 0 69.535156 0.460938 70 1.15625 70 L 65.84375 70 C 66.539063 70 67 69.535156 67 68.832031 L 67 55.066406 C 67 54.367188 66.539063 53.898438 65.84375 53.898438 Z M 65.84375 53.898438 "/>
<path style=" stroke:none;fill-rule:nonzero;fill:rgb(72.156863%,83.137255%,19.607843%);fill-opacity:1;" d="M 25.414063 38.5 C 25.414063 39.199219 24.953125 39.667969 24.257813 39.667969 L 15.015625 39.667969 C 14.324219 39.667969 13.863281 39.199219 13.863281 38.5 L 13.863281 31.5 C 13.863281 30.800781 14.324219 30.332031 15.015625 30.332031 L 24.027344 30.332031 C 24.953125 30.332031 25.414063 30.800781 25.414063 31.5 Z M 25.414063 38.5 "/>
<path style=" stroke:none;fill-rule:nonzero;fill:rgb(72.156863%,83.137255%,19.607843%);fill-opacity:1;" d="M 25.414063 52.5 C 25.414063 53.199219 24.953125 53.667969 24.257813 53.667969 L 15.015625 53.667969 C 14.324219 53.667969 13.863281 53.199219 13.863281 52.5 L 13.863281 45.5 C 13.863281 44.800781 14.324219 44.332031 15.015625 44.332031 L 24.027344 44.332031 C 24.953125 44.332031 25.414063 44.800781 25.414063 45.5 Z M 25.414063 52.5 "/>
</g>
</svg>
