<?xml version="1.0" encoding="UTF-8"?>
<svg xmlns="http://www.w3.org/2000/svg" xmlns:xlink="http://www.w3.org/1999/xlink" width="70pt" height="70pt" viewBox="0 0 70 70" version="1.1">
<defs>
<filter id="alpha" filterUnits="objectBoundingBox" x="0%" y="0%" width="100%" height="100%">
  <feColorMatrix type="matrix" in="SourceGraphic" values="0 0 0 0 1 0 0 0 0 1 0 0 0 0 1 0 0 0 1 0"/>
</filter>
<mask id="mask0">
  <g filter="url(#alpha)">
<rect x="0" y="0" width="70" height="70" style="fill:rgb(0%,0%,0%);fill-opacity:0.501961;stroke:none;"/>
  </g>
</mask>
<clipPath id="clip1">
  <rect x="0" y="0" width="70" height="70"/>
</clipPath>
<g id="surface5" clip-path="url(#clip1)">
<path style=" stroke:none;fill-rule:nonzero;fill:rgb(60%,60%,60%);fill-opacity:1;" d="M 4.160156 5.871094 L 9.179688 5.871094 L 9.179688 19.871094 C 9.179688 20.496094 8.671875 21 8.050781 21 L 3.070313 21 C 2.449219 21 1.945313 20.496094 1.945313 19.871094 L 1.945313 8.207031 C 1.914063 7.597656 2.132813 7.003906 2.550781 6.5625 C 2.96875 6.121094 3.550781 5.871094 4.160156 5.871094 Z M 4.160156 5.871094 "/>
</g>
<mask id="mask1">
  <g filter="url(#alpha)">
<rect x="0" y="0" width="70" height="70" style="fill:rgb(0%,0%,0%);fill-opacity:0.501961;stroke:none;"/>
  </g>
</mask>
<clipPath id="clip2">
  <rect x="0" y="0" width="70" height="70"/>
</clipPath>
<g id="surface8" clip-path="url(#clip2)">
<path style=" stroke:none;fill-rule:nonzero;fill:rgb(60%,60%,60%);fill-opacity:1;" d="M 60.820313 5.871094 L 65.839844 5.871094 C 67.0625 5.871094 68.054688 6.863281 68.054688 8.089844 L 68.054688 19.753906 C 68.054688 20.378906 67.550781 20.882813 66.929688 20.882813 L 61.910156 20.882813 C 61.289063 20.882813 60.785156 20.378906 60.785156 19.753906 L 60.785156 5.871094 Z M 60.820313 5.871094 "/>
</g>
<mask id="mask2">
  <g filter="url(#alpha)">
<rect x="0" y="0" width="70" height="70" style="fill:rgb(0%,0%,0%);fill-opacity:0.501961;stroke:none;"/>
  </g>
</mask>
<clipPath id="clip3">
  <rect x="0" y="0" width="70" height="70"/>
</clipPath>
<g id="surface11" clip-path="url(#clip3)">
<path style=" stroke:none;fill-rule:nonzero;fill:rgb(60%,60%,60%);fill-opacity:1;" d="M 3.070313 49.621094 L 8.089844 49.621094 C 8.710938 49.621094 9.214844 50.128906 9.214844 50.75 L 9.214844 64.75 L 4.160156 64.75 C 2.9375 64.75 1.945313 63.757813 1.945313 62.535156 L 1.945313 50.554688 C 2.039063 50.007813 2.519531 49.613281 3.070313 49.621094 Z M 3.070313 49.621094 "/>
</g>
<mask id="mask3">
  <g filter="url(#alpha)">
<rect x="0" y="0" width="70" height="70" style="fill:rgb(0%,0%,0%);fill-opacity:0.501961;stroke:none;"/>
  </g>
</mask>
<clipPath id="clip4">
  <rect x="0" y="0" width="70" height="70"/>
</clipPath>
<g id="surface14" clip-path="url(#clip4)">
<path style=" stroke:none;fill-rule:nonzero;fill:rgb(60%,60%,60%);fill-opacity:1;" d="M 61.910156 49.621094 L 66.929688 49.621094 C 67.550781 49.621094 68.054688 50.128906 68.054688 50.75 L 68.054688 62.417969 C 68.054688 63.640625 67.0625 64.632813 65.839844 64.632813 L 60.820313 64.632813 L 60.820313 50.554688 C 60.914063 50.023438 61.371094 49.632813 61.910156 49.621094 Z M 61.910156 49.621094 "/>
</g>
</defs>
<g id="surface1">
<path style=" stroke:none;fill-rule:nonzero;fill:rgb(46.27451%,73.72549%,17.647059%);fill-opacity:1;" d="M 42.117188 32.746094 C 42.140625 33.289063 41.726563 33.753906 41.183594 33.792969 L 33.054688 33.792969 C 32.511719 33.816406 32.046875 33.402344 32.003906 32.859375 L 32.003906 26.792969 C 31.984375 26.25 32.394531 25.785156 32.9375 25.746094 L 41.066406 25.746094 C 41.609375 25.722656 42.074219 26.132813 42.117188 26.679688 Z M 42.117188 32.746094 "/>
<path style=" stroke:none;fill-rule:nonzero;fill:rgb(46.27451%,73.72549%,17.647059%);fill-opacity:1;" d="M 56.542969 38.890625 C 56.566406 39.433594 56.152344 39.898438 55.609375 39.9375 L 47.484375 39.9375 C 46.9375 39.960938 46.476563 39.546875 46.433594 39.003906 L 46.433594 32.976563 C 46.410156 32.433594 46.824219 31.96875 47.367188 31.929688 L 55.496094 31.929688 C 56.039063 31.90625 56.503906 32.316406 56.542969 32.859375 Z M 56.542969 38.890625 "/>
<path style=" stroke:none;fill-rule:nonzero;fill:rgb(46.27451%,73.72549%,17.647059%);fill-opacity:1;" d="M 42.117188 45.109375 C 42.140625 45.65625 41.726563 46.121094 41.183594 46.160156 L 33.054688 46.160156 C 32.511719 46.183594 32.046875 45.769531 32.003906 45.226563 L 32.003906 39.160156 C 31.984375 38.617188 32.394531 38.152344 32.9375 38.109375 L 41.066406 38.109375 C 41.609375 38.089844 42.074219 38.5 42.117188 39.042969 Z M 42.117188 45.109375 "/>
<path style=" stroke:none;fill-rule:nonzero;fill:rgb(52.54902%,83.921569%,20%);fill-opacity:1;" d="M 27.6875 26.601563 C 27.710938 27.121094 27.316406 27.570313 26.792969 27.609375 L 18.433594 27.609375 C 17.902344 27.636719 17.445313 27.246094 17.382813 26.714844 L 17.382813 20.417969 C 17.402344 19.902344 17.804688 19.484375 18.316406 19.445313 L 26.445313 19.445313 C 27.300781 19.445313 27.6875 19.871094 27.6875 20.496094 Z M 27.6875 26.601563 "/>
<path style=" stroke:none;fill-rule:nonzero;fill:rgb(46.27451%,73.72549%,17.647059%);fill-opacity:1;" d="M 27.6875 38.890625 C 27.710938 39.148438 27.628906 39.402344 27.460938 39.601563 C 27.292969 39.796875 27.050781 39.917969 26.792969 39.9375 L 18.433594 39.9375 C 18.152344 39.949219 17.878906 39.84375 17.679688 39.644531 C 17.480469 39.445313 17.371094 39.171875 17.382813 38.890625 L 17.382813 32.746094 C 17.382813 32.214844 17.789063 31.773438 18.316406 31.734375 L 26.445313 31.734375 C 27.300781 31.734375 27.6875 32.160156 27.6875 32.746094 Z M 27.6875 38.890625 "/>
<path style=" stroke:none;fill-rule:nonzero;fill:rgb(46.27451%,73.72549%,17.647059%);fill-opacity:1;" d="M 27.6875 51.292969 C 27.710938 51.550781 27.628906 51.808594 27.460938 52.003906 C 27.292969 52.203125 27.050781 52.324219 26.792969 52.34375 L 18.433594 52.34375 C 17.890625 52.367188 17.425781 51.953125 17.382813 51.410156 L 17.382813 45.109375 C 17.371094 44.851563 17.464844 44.601563 17.640625 44.410156 C 17.816406 44.222656 18.058594 44.109375 18.316406 44.101563 L 26.445313 44.101563 C 27.300781 44.101563 27.6875 44.488281 27.6875 45.109375 Z M 27.6875 51.292969 "/>
<path style=" stroke:none;fill-rule:nonzero;fill:rgb(60%,60%,60%);fill-opacity:1;" d="M 4.160156 5.871094 L 9.179688 5.871094 L 9.179688 19.871094 C 9.179688 20.496094 8.671875 21 8.050781 21 L 3.070313 21 C 2.449219 21 1.945313 20.496094 1.945313 19.871094 L 1.945313 8.207031 C 1.914063 7.597656 2.132813 7.003906 2.550781 6.5625 C 2.96875 6.121094 3.550781 5.871094 4.160156 5.871094 Z M 4.160156 5.871094 "/>
<use xlink:href="#surface5" mask="url(#mask0)"/>
<path style=" stroke:none;fill-rule:nonzero;fill:rgb(60%,60%,60%);fill-opacity:1;" d="M 60.820313 5.871094 L 65.839844 5.871094 C 67.0625 5.871094 68.054688 6.863281 68.054688 8.089844 L 68.054688 19.753906 C 68.054688 20.378906 67.550781 20.882813 66.929688 20.882813 L 61.910156 20.882813 C 61.289063 20.882813 60.785156 20.378906 60.785156 19.753906 L 60.785156 5.871094 Z M 60.820313 5.871094 "/>
<use xlink:href="#surface8" mask="url(#mask1)"/>
<path style=" stroke:none;fill-rule:nonzero;fill:rgb(58.039216%,58.039216%,58.039216%);fill-opacity:1;" d="M 68.054688 8.089844 L 68.054688 12.949219 L 1.945313 12.949219 L 1.945313 8.089844 C 1.945313 6.863281 2.9375 5.871094 4.160156 5.871094 L 65.878906 5.871094 C 67.085938 5.894531 68.054688 6.878906 68.054688 8.089844 Z M 68.054688 8.089844 "/>
<path style=" stroke:none;fill-rule:nonzero;fill:rgb(60%,60%,60%);fill-opacity:1;" d="M 3.070313 49.621094 L 8.089844 49.621094 C 8.710938 49.621094 9.214844 50.128906 9.214844 50.75 L 9.214844 64.75 L 4.160156 64.75 C 2.9375 64.75 1.945313 63.757813 1.945313 62.535156 L 1.945313 50.554688 C 2.039063 50.007813 2.519531 49.613281 3.070313 49.621094 Z M 3.070313 49.621094 "/>
<use xlink:href="#surface11" mask="url(#mask2)"/>
<path style=" stroke:none;fill-rule:nonzero;fill:rgb(60%,60%,60%);fill-opacity:1;" d="M 61.910156 49.621094 L 66.929688 49.621094 C 67.550781 49.621094 68.054688 50.128906 68.054688 50.75 L 68.054688 62.417969 C 68.054688 63.640625 67.0625 64.632813 65.839844 64.632813 L 60.820313 64.632813 L 60.820313 50.554688 C 60.914063 50.023438 61.371094 49.632813 61.910156 49.621094 Z M 61.910156 49.621094 "/>
<use xlink:href="#surface14" mask="url(#mask3)"/>
<path style=" stroke:none;fill-rule:nonzero;fill:rgb(58.039216%,58.039216%,58.039216%);fill-opacity:1;" d="M 1.945313 62.535156 L 1.945313 57.671875 L 68.054688 57.671875 L 68.054688 62.535156 C 68.054688 63.757813 67.0625 64.75 65.839844 64.75 L 4.160156 64.75 C 2.9375 64.75 1.945313 63.757813 1.945313 62.535156 Z M 1.945313 62.535156 "/>
</g>
</svg>
