<?xml version="1.0" encoding="UTF-8"?>
<svg xmlns="http://www.w3.org/2000/svg" xmlns:xlink="http://www.w3.org/1999/xlink" width="70pt" height="70pt" viewBox="0 0 70 70" version="1.1">
<g id="surface1">
<path style=" stroke:none;fill-rule:nonzero;fill:rgb(72.156863%,83.137255%,19.607843%);fill-opacity:1;" d="M 41.5625 31.71875 C 41.5625 32.375 41.125 32.8125 40.46875 32.8125 L 31.9375 32.8125 C 31.28125 32.8125 30.84375 32.375 30.84375 31.71875 L 30.84375 25.375 C 30.84375 24.71875 31.28125 24.28125 31.9375 24.28125 L 40.46875 24.28125 C 41.125 24.28125 41.5625 24.71875 41.5625 25.375 Z M 41.5625 31.71875 "/>
<path style=" stroke:none;fill-rule:nonzero;fill:rgb(72.156863%,83.137255%,19.607843%);fill-opacity:1;" d="M 56.875 38.28125 C 56.875 38.9375 56.4375 39.375 55.78125 39.375 L 47.25 39.375 C 46.59375 39.375 46.15625 38.9375 46.15625 38.28125 L 46.15625 31.9375 C 46.15625 31.28125 46.59375 30.84375 47.25 30.84375 L 55.78125 30.84375 C 56.4375 30.84375 56.875 31.28125 56.875 31.9375 Z M 56.875 38.28125 "/>
<path style=" stroke:none;fill-rule:nonzero;fill:rgb(72.156863%,83.137255%,19.607843%);fill-opacity:1;" d="M 41.5625 44.84375 C 41.5625 45.5 41.125 45.9375 40.46875 45.9375 L 31.9375 45.9375 C 31.28125 45.9375 30.84375 45.5 30.84375 44.84375 L 30.84375 38.5 C 30.84375 37.84375 31.28125 37.40625 31.9375 37.40625 L 40.46875 37.40625 C 41.125 37.40625 41.5625 37.84375 41.5625 38.5 Z M 41.5625 44.84375 "/>
<path style=" stroke:none;fill-rule:nonzero;fill:rgb(72.156863%,83.137255%,19.607843%);fill-opacity:1;" d="M 26.25 25.15625 C 26.25 25.8125 25.8125 26.25 25.15625 26.25 L 16.40625 26.25 C 15.75 26.25 15.3125 25.8125 15.3125 25.15625 L 15.3125 18.59375 C 15.3125 17.9375 15.75 17.5 16.40625 17.5 L 24.9375 17.5 C 25.8125 17.5 26.25 17.9375 26.25 18.59375 Z M 26.25 25.15625 "/>
<path style=" stroke:none;fill-rule:nonzero;fill:rgb(0%,44.705882%,77.647059%);fill-opacity:1;" d="M 64.53125 2.1875 L 3.28125 2.1875 C 2.625 2.1875 2.1875 2.625 2.1875 3.28125 L 2.1875 16.40625 C 2.1875 17.0625 2.625 17.5 3.28125 17.5 L 9.84375 17.5 C 10.5 17.5 10.9375 17.0625 10.9375 16.40625 L 10.9375 10.9375 L 56.875 10.9375 L 56.875 16.40625 C 56.875 17.0625 57.3125 17.5 58.1875 17.5 L 64.53125 17.5 C 65.1875 17.5 65.625 17.0625 65.625 16.40625 L 65.625 3.28125 C 65.625 2.625 65.1875 2.1875 64.53125 2.1875 Z M 64.53125 2.1875 "/>
<path style=" stroke:none;fill-rule:nonzero;fill:rgb(0%,44.705882%,77.647059%);fill-opacity:1;" d="M 64.53125 52.71875 L 58.1875 52.71875 C 57.53125 52.71875 57.09375 53.15625 57.09375 53.8125 L 57.09375 59.0625 L 10.9375 59.0625 L 10.9375 53.59375 C 10.9375 52.9375 10.5 52.5 9.625 52.5 L 3.28125 52.5 C 2.625 52.5 2.1875 52.9375 2.1875 53.8125 L 2.1875 66.71875 C 2.1875 67.375 2.625 67.8125 3.28125 67.8125 L 64.53125 67.8125 C 65.1875 67.8125 65.625 67.375 65.625 66.71875 L 65.625 53.8125 C 65.625 53.15625 65.1875 52.71875 64.53125 52.71875 Z M 64.53125 52.71875 "/>
<path style=" stroke:none;fill-rule:nonzero;fill:rgb(72.156863%,83.137255%,19.607843%);fill-opacity:1;" d="M 26.25 38.28125 C 26.25 38.9375 25.8125 39.375 25.15625 39.375 L 16.40625 39.375 C 15.75 39.375 15.3125 38.9375 15.3125 38.28125 L 15.3125 31.71875 C 15.3125 31.0625 15.75 30.625 16.40625 30.625 L 24.9375 30.625 C 25.8125 30.625 26.25 31.0625 26.25 31.71875 Z M 26.25 38.28125 "/>
<path style=" stroke:none;fill-rule:nonzero;fill:rgb(72.156863%,83.137255%,19.607843%);fill-opacity:1;" d="M 26.25 51.40625 C 26.25 52.0625 25.8125 52.5 25.15625 52.5 L 16.40625 52.5 C 15.75 52.5 15.3125 52.0625 15.3125 51.40625 L 15.3125 44.84375 C 15.3125 44.1875 15.75 43.75 16.40625 43.75 L 24.9375 43.75 C 25.8125 43.75 26.25 44.1875 26.25 44.84375 Z M 26.25 51.40625 "/>
</g>
</svg>
