<?xml version="1.0" encoding="UTF-8"?>
<svg xmlns="http://www.w3.org/2000/svg" xmlns:xlink="http://www.w3.org/1999/xlink" width="70pt" height="70pt" viewBox="0 0 70 70" version="1.1">
<defs>
<linearGradient id="linear0" gradientUnits="userSpaceOnUse" x1="11.08" y1="31.2" x2="11.08" y2="15.71" gradientTransform="matrix(3.888889,0,0,3.85,0,-55.688889)">
<stop offset="0" style="stop-color:rgb(58.039216%,58.039216%,58.039216%);stop-opacity:1;"/>
<stop offset="0.33" style="stop-color:rgb(60.784314%,60.784314%,60.784314%);stop-opacity:1;"/>
<stop offset="0.82" style="stop-color:rgb(68.235294%,68.627451%,69.019608%);stop-opacity:1;"/>
<stop offset="1" style="stop-color:rgb(71.372549%,72.156863%,72.54902%);stop-opacity:1;"/>
</linearGradient>
</defs>
<g id="surface1">
<path style=" stroke:none;fill-rule:nonzero;fill:url(#linear0);" d="M 70 37.683594 L 70 30.722656 L 69.609375 30.371094 L 62.457031 27.960938 L 60.628906 23.332031 L 64.167969 16.023438 L 64.554688 15.207031 L 62.222656 12.832031 L 59.5 10.148438 L 58.566406 10.617188 L 51.566406 14.15625 L 46.859375 12.832031 L 43.828125 5.054688 L 36.867188 5.054688 L 36.515625 5.40625 L 34.105469 12.523438 L 29.207031 14.351563 L 21.117188 10.460938 L 16.140625 15.320313 L 16.605469 16.253906 L 20.339844 23.332031 C 24.089844 21.074219 28.402344 19.914063 32.785156 19.988281 C 37.753906 20.015625 42.601563 21.5625 46.667969 24.421875 C 47.15625 24.726563 47.625 25.066406 48.066406 25.433594 C 49.699219 26.84375 50.945313 28.652344 51.683594 30.683594 C 52.226563 32.058594 52.503906 33.523438 52.5 35 C 52.5 38.34375 51.164063 41.550781 48.792969 43.910156 C 46.421875 46.265625 43.207031 47.582031 39.859375 47.5625 C 37.257813 47.558594 34.722656 46.757813 32.589844 45.265625 C 28.378906 49.3125 22.863281 51.726563 17.035156 52.070313 L 16.292969 53.589844 L 21.273438 58.605469 L 22.285156 58.332031 L 29.285156 54.445313 L 34.105469 56.429688 L 37.179688 64.828125 L 44.179688 64.828125 L 44.449219 63.855469 L 46.9375 56.429688 L 51.683594 54.445313 L 59.890625 58.332031 L 64.828125 53.433594 L 64.359375 52.5 L 60.746094 45.539063 L 62.222656 40.679688 Z M 70 37.683594 "/>
<path style=" stroke:none;fill-rule:nonzero;fill:rgb(31.372549%,90.196078%,100%);fill-opacity:1;" d="M 15.554688 41.417969 C 11.824219 41.4375 8.242188 39.964844 5.601563 37.332031 C 4.953125 36.9375 4.621094 36.175781 4.78125 35.433594 C 4.9375 34.691406 5.546875 34.128906 6.300781 34.03125 C 7.054688 33.933594 7.785156 34.320313 8.128906 35 C 10.125 36.902344 12.800781 37.925781 15.554688 37.839844 C 18.273438 37.90625 20.90625 36.882813 22.867188 35 C 25.519531 32.429688 29.089844 31.027344 32.785156 31.109375 C 36.496094 31.046875 40.085938 32.441406 42.777344 35 C 43.261719 35.445313 43.460938 36.117188 43.300781 36.753906 C 43.136719 37.390625 42.640625 37.886719 42.003906 38.050781 C 41.367188 38.210938 40.695313 38.011719 40.25 37.527344 C 38.292969 35.589844 35.652344 34.5 32.898438 34.496094 C 30.152344 34.472656 27.515625 35.570313 25.589844 37.527344 C 22.894531 40.105469 19.285156 41.503906 15.554688 41.417969 Z M 15.554688 41.417969 "/>
<path style=" stroke:none;fill-rule:nonzero;fill:rgb(31.372549%,90.196078%,100%);fill-opacity:1;" d="M 15.554688 34.300781 C 13.71875 34.296875 11.957031 33.570313 10.65625 32.277344 C 10.003906 31.570313 10.027344 30.480469 10.707031 29.800781 C 11.382813 29.121094 12.476563 29.097656 13.183594 29.75 C 13.808594 30.382813 14.664063 30.734375 15.554688 30.722656 C 16.414063 30.644531 17.230469 30.304688 17.890625 29.75 C 26.15625 21.589844 39.449219 21.589844 47.714844 29.75 C 48.367188 30.457031 48.34375 31.546875 47.667969 32.226563 C 46.988281 32.90625 45.894531 32.929688 45.1875 32.277344 C 38.289063 25.429688 27.160156 25.429688 20.261719 32.277344 C 18.976563 33.480469 17.3125 34.195313 15.554688 34.300781 Z M 15.554688 34.300781 "/>
<path style=" stroke:none;fill-rule:nonzero;fill:rgb(19.607843%,74.509804%,86.666667%);fill-opacity:1;" d="M 15.554688 48.535156 C 9.914063 48.574219 4.488281 46.347656 0.503906 42.351563 C -0.148438 41.648438 -0.148438 40.5625 0.503906 39.859375 C 1.21875 39.160156 2.359375 39.160156 3.070313 39.859375 C 6.371094 43.183594 10.871094 45.035156 15.554688 44.996094 C 20.226563 45 24.707031 43.136719 28 39.820313 C 29.300781 38.664063 30.964844 37.988281 32.707031 37.917969 C 34.523438 37.945313 36.265625 38.667969 37.566406 39.9375 C 38.265625 40.636719 38.265625 41.769531 37.566406 42.464844 C 36.855469 43.167969 35.710938 43.167969 35 42.464844 C 34.394531 41.847656 33.570313 41.5 32.707031 41.496094 C 31.835938 41.558594 31.015625 41.917969 30.371094 42.503906 C 26.417969 46.386719 21.09375 48.554688 15.554688 48.535156 Z M 15.554688 48.535156 "/>
</g>
</svg>
