<?xml version="1.0" encoding="utf-8"?><svg version="1.1" xmlns="http://www.w3.org/2000/svg" xmlns:xlink="http://www.w3.org/1999/xlink" xmlns:xml="http://www.w3.org/XML/1998/namespace" width="70" height="70" viewBox="0, 0, 18, 18"><title>Icon-analytics-149</title><g><g id="b4faf691-c548-4dca-a19b-147ca62db43a"><g><g><path d="M9.18 8.24 h0.65 a0 0 0 0 1 0 0 v1.81 a0.14 0.14 0 0 1 -0.14 0.14 H9 a0.14 0.14 0 0 1 -0.14 -0.14 V8.53 A0.29 0.29 0 0 1 9.18 8.24 Z" style="fill:#67BEFF;" /><path d="M9.18 8.24 h0.65 a0 0 0 0 1 0 0 v1.81 a0.14 0.14 0 0 1 -0.14 0.14 H9 a0.14 0.14 0 0 1 -0.14 -0.14 V8.53 A0.29 0.29 0 0 1 9.18 8.24 Z" opacity="0.5" style="fill:#67BEFF;" /></g><g><path d="M16.56 8.24 h0.65 a0.29 0.29 0 0 1 0.29 0.29 v1.53 a0.14 0.14 0 0 1 -0.14 0.14 H16.7 a0.14 0.14 0 0 1 -0.14 -0.14 V8.24 A0 0 0 0 1 16.56 8.24 Z" style="fill:#67BEFF;" /><path d="M16.56 8.24 h0.65 a0.29 0.29 0 0 1 0.29 0.29 v1.53 a0.14 0.14 0 0 1 -0.14 0.14 H16.7 a0.14 0.14 0 0 1 -0.14 -0.14 V8.24 A0 0 0 0 1 16.56 8.24 Z" opacity="0.5" style="fill:#67BEFF;" /></g><path d="M13 4.4 h0.63 a0 0 0 0 1 0 0 V13 a0 0 0 0 1 0 0 H13 a0.29 0.29 0 0 1 -0.29 -0.29 v-8 A0.29 0.29 0 0 1 13 4.4 Z" transform="translate(21.9, -4.5) rotate(90, 0, 0)" style="fill:#67BEFF;" /></g><g><g><path d="M9 14 h0.65 a0.14 0.14 0 0 1 0.14 0.14 v1.81 a0 0 0 0 1 0 0 H9.18 a0.29 0.29 0 0 1 -0.29 -0.29 V14.11 A0.14 0.14 0 0 1 9 14 Z" style="fill:#67BEFF;" /><path d="M9 14 h0.65 a0.14 0.14 0 0 1 0.14 0.14 v1.81 a0 0 0 0 1 0 0 H9.18 a0.29 0.29 0 0 1 -0.29 -0.29 V14.11 A0.14 0.14 0 0 1 9 14 Z" opacity="0.5" style="fill:#67BEFF;" /></g><g><path d="M16.7 14 h0.65 a0.14 0.14 0 0 1 0.14 0.14 v1.53 a0.29 0.29 0 0 1 -0.29 0.29 h-0.65 a0 0 0 0 1 0 0 V14.11 A0.14 0.14 0 0 1 16.7 14 Z" style="fill:#67BEFF;" /><path d="M16.7 14 h0.65 a0.14 0.14 0 0 1 0.14 0.14 v1.53 a0.29 0.29 0 0 1 -0.29 0.29 h-0.65 a0 0 0 0 1 0 0 V14.11 A0.14 0.14 0 0 1 16.7 14 Z" opacity="0.5" style="fill:#67BEFF;" /></g><path d="M13 11.17 h0.63 a0 0 0 0 1 0 0 v8.61 a0 0 0 0 1 0 0 H13 a0.29 0.29 0 0 1 -0.29 -0.29 v-8 A0.29 0.29 0 0 1 13 11.17 Z" transform="translate(-2.27, 28.67) rotate(-90, 0, 0)" style="fill:#67BEFF;" /></g><path d="M14.09 11.74 a0.13 0.13 0 0 1 -0.11 0.13 H13 a0.12 0.12 0 0 1 -0.13 -0.12 h0 V11 a0.14 0.14 0 0 1 0.11 -0.13 h1 a0.12 0.12 0 0 1 0.13 0.12 h0 Z" style="fill:#2FA6FF;" /><path d="M15.88 12.5 a0.13 0.13 0 0 1 -0.11 0.13 h-1 a0.12 0.12 0 0 1 -0.13 -0.12 h0 v-0.74 a0.11 0.11 0 0 1 0.11 -0.12 h1 a0.11 0.11 0 0 1 0.13 0.11 h0 Z" style="fill:#008AF0;" /><path d="M14.09 13.26 a0.12 0.12 0 0 1 -0.11 0.13 H13 a0.12 0.12 0 0 1 -0.13 -0.11 v-0.75 A0.12 0.12 0 0 1 13 12.4 h1 a0.11 0.11 0 0 1 0.13 0.11 v0.75 Z" style="fill:#008AF0;" /><path d="M12.3 11 a0.11 0.11 0 0 1 -0.11 0.12 h-1 A0.11 0.11 0 0 1 11 11 h0 v-0.77 a0.11 0.11 0 0 1 0.11 -0.12 h1 c0.1 0 0.15 0.05 0.15 0.12 Z" style="fill:#59B8FF;" /><path d="M12.3 12.5 a0.12 0.12 0 0 1 -0.11 0.13 h-1 a0.12 0.12 0 0 1 -0.12 -0.12 h0 v-0.76 a0.12 0.12 0 0 1 0.11 -0.13 h1 c0.1 0 0.15 0.05 0.15 0.13 Z" style="fill:#2FA6FF;" /><path d="M12.3 14 a0.11 0.11 0 0 1 -0.11 0.13 h-1 A0.12 0.12 0 0 1 11 14 v-0.78 a0.12 0.12 0 0 1 0.11 -0.13 h1 a0.13 0.13 0 0 1 0.15 0.13 Z" style="fill:#008AF0;" /><g><path d="M13.31 5.8 h0 A0.28 0.28 0 0 0 13 5.52 H5 a0.28 0.28 0 0 0 -0.29 0.28 h0 V7.33 a0.15 0.15 0 0 0 0.15 0.14 H5.5 a0.14 0.14 0 0 0 0.14 -0.14 v-0.9 h6.72 v0.9 a0.15 0.15 0 0 0 0.15 0.14 h0.65 a0.15 0.15 0 0 0 0.15 -0.14 V5.8 Z" style="fill:#29A4FF;" /><path d="M5.64 11.32 a0.14 0.14 0 0 0 -0.14 -0.14 H4.85 a0.15 0.15 0 0 0 -0.15 0.14 v1.53 h0 a0.25 0.25 0 0 0 0.21 0.28 H8.39 v-0.91 H5.64 Z" style="fill:#29A4FF;" /></g><g><path d="M9.11 2.36 h0 a0.29 0.29 0 0 0 -0.29 -0.29 h-8 a0.29 0.29 0 0 0 -0.29 0.29 h0 V3.89 A0.14 0.14 0 0 0 0.64 4 H1.3 a0.14 0.14 0 0 0 0.14 -0.14 V3 H8.16 v0.91 A0.15 0.15 0 0 0 8.31 4 H9 a0.15 0.15 0 0 0 0.15 -0.14 V2.36 Z" style="fill:#29A4FF;" /><path d="M1.44 7.88 a0.15 0.15 0 0 0 -0.14 -0.15 H0.64 a0.15 0.15 0 0 0 -0.14 0.15 V9.4 h0 c0 0.15 0.1 0.28 0.21 0.28 H4.19 V8.78 H1.44 Z" style="fill:#29A4FF;" /></g><path d="M7.82 8.32 a0.11 0.11 0 0 1 -0.11 0.12 h-1 a0.11 0.11 0 0 1 -0.13 -0.11 h0 V7.56 a0.11 0.11 0 0 1 0.11 -0.13 h1 c0.1 0 0.15 0.05 0.15 0.13 Z m0 0.76 C7.82 9 7.77 9 7.67 9 h-1 a0.12 0.12 0 0 0 -0.11 0.13 v0.78 a0.12 0.12 0 0 0 0.13 0.11 h1 a0.12 0.12 0 0 0 0.11 -0.13 Z m0 1.52 c0 -0.07 -0.05 -0.12 -0.15 -0.12 h-1 a0.11 0.11 0 0 0 -0.11 0.12 v0.78 a0.11 0.11 0 0 0 0.13 0.11 h1 a0.11 0.11 0 0 0 0.11 -0.13 Z M3.62 4.11 A0.13 0.13 0 0 0 3.47 4 h-1 a0.12 0.12 0 0 0 -0.11 0.13 v0.78 A0.12 0.12 0 0 0 2.47 5 h1 a0.11 0.11 0 0 0 0.11 -0.13 Z m0 1.52 c0 -0.07 -0.05 -0.12 -0.15 -0.12 h-1 a0.11 0.11 0 0 0 -0.11 0.12 V6.4 h0 a0.11 0.11 0 0 0 0.12 0.11 h1 a0.11 0.11 0 0 0 0.11 -0.12 Z m0 1.53 c0 -0.08 -0.05 -0.13 -0.15 -0.13 h-1 a0.12 0.12 0 0 0 -0.11 0.13 v0.76 h0 a0.12 0.12 0 0 0 0.12 0.12 h1 a0.12 0.12 0 0 0 0.11 -0.13 Z" style="fill:#2FA6FF;" /></g></g></svg>