<?xml version="1.0" encoding="UTF-8"?>
<svg xmlns="http://www.w3.org/2000/svg" xmlns:xlink="http://www.w3.org/1999/xlink" width="70pt" height="70pt" viewBox="0 0 70 70" version="1.1">
<defs>
<linearGradient id="linear0" gradientUnits="userSpaceOnUse" x1="3.96" y1="2.52" x2="3.96" y2="7.82" gradientTransform="matrix(3.888889,0,0,3.888889,0,0)">
<stop offset="0" style="stop-color:rgb(19.607843%,83.137255%,96.078431%);stop-opacity:1;"/>
<stop offset="1" style="stop-color:rgb(9.803922%,54.117647%,70.196078%);stop-opacity:1;"/>
</linearGradient>
<linearGradient id="linear1" gradientUnits="userSpaceOnUse" x1="14.04" y1="5.58" x2="14.04" y2="10.89" gradientTransform="matrix(3.888889,0,0,3.888889,0,0)">
<stop offset="0" style="stop-color:rgb(19.607843%,83.137255%,96.078431%);stop-opacity:1;"/>
<stop offset="1" style="stop-color:rgb(9.803922%,54.117647%,70.196078%);stop-opacity:1;"/>
</linearGradient>
<linearGradient id="linear2" gradientUnits="userSpaceOnUse" x1="5.29" y1="10.18" x2="5.29" y2="15.48" gradientTransform="matrix(3.888889,0,0,3.888889,0,0)">
<stop offset="0" style="stop-color:rgb(19.607843%,83.137255%,96.078431%);stop-opacity:1;"/>
<stop offset="1" style="stop-color:rgb(9.803922%,54.117647%,70.196078%);stop-opacity:1;"/>
</linearGradient>
</defs>
<g id="surface1">
<path style=" stroke:none;fill-rule:nonzero;fill:url(#linear0);" d="M 3.035156 9.800781 L 27.765625 9.800781 C 28.367188 9.800781 28.855469 10.289063 28.855469 10.890625 L 28.855469 29.359375 C 28.855469 29.960938 28.367188 30.449219 27.765625 30.449219 L 3.035156 30.449219 C 2.433594 30.449219 1.945313 29.960938 1.945313 29.359375 L 1.945313 10.890625 C 1.945313 10.289063 2.433594 9.800781 3.035156 9.800781 Z M 3.035156 9.800781 "/>
<path style=" stroke:none;fill-rule:nonzero;fill:url(#linear1);" d="M 42.234375 21.699219 L 66.964844 21.699219 C 67.566406 21.699219 68.054688 22.1875 68.054688 22.789063 L 68.054688 41.261719 C 68.054688 41.863281 67.566406 42.351563 66.964844 42.351563 L 42.234375 42.351563 C 41.632813 42.351563 41.144531 41.863281 41.144531 41.261719 L 41.144531 22.789063 C 41.144531 22.1875 41.632813 21.699219 42.234375 21.699219 Z M 42.234375 21.699219 "/>
<path style=" stroke:none;fill-rule:nonzero;fill:url(#linear2);" d="M 8.710938 39.589844 L 32.355469 39.589844 C 33.257813 39.589844 33.988281 40.320313 33.988281 41.222656 L 33.988281 58.605469 C 33.988281 59.507813 33.257813 60.238281 32.355469 60.238281 L 8.710938 60.238281 C 7.808594 60.238281 7.078125 59.507813 7.078125 58.605469 L 7.078125 41.222656 C 7.078125 40.320313 7.808594 39.589844 8.710938 39.589844 Z M 8.710938 39.589844 "/>
<path style=" stroke:none;fill-rule:nonzero;fill:rgb(46.666667%,22.745098%,86.27451%);fill-opacity:1;" d="M 51.140625 34.6875 L 52.035156 32.199219 L 18.746094 19.949219 L 17.851563 22.398438 Z M 53.199219 34.339844 L 51.957031 32.003906 L 20.570313 48.535156 L 21.777344 50.867188 Z M 19.445313 51.996094 L 22.050781 51.527344 L 16.761719 21.542969 L 14.15625 22.011719 Z M 19.445313 51.996094 "/>
<path style=" stroke:none;fill-rule:nonzero;fill:rgb(100%,100%,100%);fill-opacity:1;" d="M 58.121094 29.765625 C 59.367188 31.722656 58.785156 34.320313 56.828125 35.5625 C 54.871094 36.804688 52.273438 36.226563 51.03125 34.269531 C 49.789063 32.308594 50.367188 29.714844 52.324219 28.472656 C 54.285156 27.226563 56.878906 27.808594 58.121094 29.765625 Z M 58.121094 29.765625 "/>
<path style=" stroke:none;fill-rule:nonzero;fill:rgb(100%,100%,100%);fill-opacity:1;" d="M 18.960938 17.863281 C 20.207031 19.820313 19.625 22.417969 17.667969 23.660156 C 15.707031 24.902344 13.113281 24.324219 11.871094 22.367188 C 10.628906 20.40625 11.207031 17.8125 13.164063 16.570313 C 15.125 15.324219 17.71875 15.90625 18.960938 17.863281 Z M 18.960938 17.863281 "/>
<path style=" stroke:none;fill-rule:nonzero;fill:rgb(100%,100%,100%);fill-opacity:1;" d="M 24.128906 47.628906 C 25.371094 49.585938 24.792969 52.183594 22.832031 53.425781 C 20.875 54.667969 18.28125 54.089844 17.035156 52.128906 C 15.792969 50.171875 16.371094 47.578125 18.332031 46.332031 C 20.289063 45.089844 22.882813 45.671875 24.128906 47.628906 Z M 24.128906 47.628906 "/>
</g>
</svg>
