<?xml version="1.0" encoding="utf-8"?><svg version="1.1" xmlns="http://www.w3.org/2000/svg" xmlns:xlink="http://www.w3.org/1999/xlink" xmlns:xml="http://www.w3.org/XML/1998/namespace" width="70" height="70" viewBox="0, 0, 18, 18" id="bcf59632-8add-4163-98ab-f4b84940e447"><defs><linearGradient x1="11.08" y1="31.2" x2="11.08" y2="15.71" gradientUnits="userSpaceOnUse" gradientTransform="translate(0, -14.32) scale(1, 0.99)" id="bf1f93aa-5175-40a2-82a6-8b8653d30d7a"><stop offset="0%" stop-color="#949494" /><stop offset="33%" stop-color="#9B9B9B" /><stop offset="82%" stop-color="#AEAFB0" /><stop offset="100%" stop-color="#B6B8B9" /></linearGradient></defs><title>Icon-analytics-147</title><g><path d="M18 9.69 V7.9 l-0.1 -0.09 l-1.84 -0.62 L15.59 6 l0.91 -1.88 l0.1 -0.21 L16 3.3 l-0.7 -0.69 l-0.24 0.12 l-1.8 0.91 L12.05 3.3 l-0.78 -2 H9.48 l-0.09 0.09 L8.77 3.22 l-1.26 0.47 l-2.08 -1 L4.15 3.94 l0.12 0.24 L5.23 6 a6 6 0 0 1 3.2 -0.86 A6.26 6.26 0 0 1 12 6.28 a3.32 3.32 0 0 1 0.36 0.26 l0 0 a3.25 3.25 0 0 1 0.93 1.35 h0 A3 3 0 0 1 13.5 9 a3.23 3.23 0 0 1 -3.25 3.23 a3.27 3.27 0 0 1 -1.87 -0.59 a6.31 6.31 0 0 1 -4 1.75 l-0.19 0.39 l1.28 1.29 L5.73 15 L7.53 14 l1.24 0.51 l0.79 2.16 h1.8 l0.07 -0.25 l0.64 -1.91 L13.29 14 l2.11 1 l1.27 -1.26 l-0.12 -0.24 l-0.93 -1.79 L16 10.46 Z" style="fill:url(#bf1f93aa-5175-40a2-82a6-8b8653d30d7a);" /><path d="M4 10.65 H4 A3.6 3.6 0 0 1 1.44 9.6 A0.46 0.46 0 1 1 2.09 9 A2.65 2.65 0 0 0 4 9.73 H4 A2.62 2.62 0 0 0 5.88 9 a3.55 3.55 0 0 1 2.55 -1 A3.64 3.64 0 0 1 11 9 a0.46 0.46 0 1 1 -0.65 0.65 a2.69 2.69 0 0 0 -1.89 -0.78 h0 a2.61 2.61 0 0 0 -1.88 0.78 A3.61 3.61 0 0 1 4 10.65 Z" style="fill:#50E6FF;" /><path d="M4 8.82 H4 A1.79 1.79 0 0 1 2.74 8.3 a0.46 0.46 0 0 1 0.65 -0.65 A0.84 0.84 0 0 0 4 7.9 H4 a1.08 1.08 0 0 0 0.6 -0.25 a5.46 5.46 0 0 1 7.67 0 a0.46 0.46 0 0 1 -0.65 0.65 a4.55 4.55 0 0 0 -6.41 0 A1.94 1.94 0 0 1 4 8.82 Z" style="fill:#50E6FF;" /><path d="M4 12.48 A5.41 5.41 0 0 1 0.13 10.89 a0.47 0.47 0 0 1 0 -0.64 a0.47 0.47 0 0 1 0.66 0 A4.47 4.47 0 0 0 4 11.57 A4.5 4.5 0 0 0 7.2 10.24 a1.94 1.94 0 0 1 1.21 -0.49 a1.83 1.83 0 0 1 1.25 0.52 a0.46 0.46 0 0 1 0 0.65 a0.47 0.47 0 0 1 -0.66 0 a0.83 0.83 0 0 0 -0.59 -0.25 h0 a1 1 0 0 0 -0.6 0.26 A5.41 5.41 0 0 1 4 12.48 Z" style="fill:#32BEDD;" /></g></svg>