<?xml version="1.0" encoding="UTF-8"?>
<svg xmlns="http://www.w3.org/2000/svg" xmlns:xlink="http://www.w3.org/1999/xlink" width="70pt" height="70pt" viewBox="0 0 70 70" version="1.1">
<defs>
<linearGradient id="linear0" gradientUnits="userSpaceOnUse" x1="9.24" y1="0.96" x2="8.85" y2="16.52" gradientTransform="matrix(3.888889,0,0,3.888889,0,0)">
<stop offset="0" style="stop-color:rgb(79,180,255);stop-opacity:1;"/>
<stop offset="0.23" style="stop-color:rgb(71,176,255);stop-opacity:1;"/>
<stop offset="0.46" style="stop-color:rgb(51,168,255);stop-opacity:1;"/>
<stop offset="0.7" style="stop-color:rgb(19,154,255);stop-opacity:1;"/>
<stop offset="0.94" style="stop-color:rgb(0,132,230);stop-opacity:1;"/>
<stop offset="1" style="stop-color:rgb(0,124,216);stop-opacity:1;"/>
</linearGradient>
</defs>
<g id="surface1">
<path style=" stroke:none;fill-rule:nonzero;fill:rgb(0,81,142);fill-opacity:1;" d="M 66.5 14 L 37.683594 14 C 37.375 14.011719 37.074219 13.914063 36.828125 13.726563 L 28.582031 8.246094 C 28.324219 8.089844 28.027344 8.011719 27.726563 8.011719 L 3.5 8.011719 C 2.65625 8.011719 1.964844 8.683594 1.945313 9.527344 L 1.945313 60.472656 C 1.964844 61.316406 2.65625 61.988281 3.5 61.988281 L 66.5 61.988281 C 67.34375 61.988281 68.035156 61.316406 68.054688 60.472656 L 68.054688 15.554688 C 68.054688 14.695313 67.359375 14 66.5 14 Z M 66.5 14 "/>
<path style=" stroke:none;fill-rule:nonzero;fill:rgb(255,255,255);fill-opacity:1;" d="M 8.59375 10.964844 L 22.359375 10.964844 C 22.703125 10.964844 22.984375 11.246094 22.984375 11.589844 L 22.984375 13.339844 C 22.984375 13.683594 22.703125 13.960938 22.359375 13.960938 L 8.59375 13.960938 C 8.25 13.960938 7.972656 13.683594 7.972656 13.339844 L 7.972656 11.589844 C 7.972656 11.246094 8.25 10.964844 8.59375 10.964844 Z M 8.59375 10.964844 "/>
<path style=" stroke:none;fill-rule:nonzero;fill:rgb(43,165,255);fill-opacity:1;" d="M 8.398438 10.964844 L 10.539063 10.964844 C 10.773438 10.964844 10.964844 11.15625 10.964844 11.394531 L 10.964844 13.535156 C 10.964844 13.769531 10.773438 13.960938 10.539063 13.960938 L 8.398438 13.960938 C 8.164063 13.960938 7.972656 13.769531 7.972656 13.535156 L 7.972656 11.394531 C 7.972656 11.15625 8.164063 10.964844 8.398438 10.964844 Z M 8.398438 10.964844 "/>
<path style=" stroke:none;fill-rule:nonzero;fill:url(#linear0);" d="M 66.5 13.921875 L 35 13.921875 C 34.585938 13.910156 34.1875 14.078125 33.910156 14.390625 L 28.660156 19.445313 C 28.363281 19.714844 27.976563 19.867188 27.570313 19.871094 L 3.5 19.871094 C 2.640625 19.871094 1.945313 20.570313 1.945313 21.429688 L 1.945313 60.316406 C 1.964844 61.160156 2.65625 61.832031 3.5 61.832031 L 66.5 61.832031 C 67.34375 61.832031 68.035156 61.160156 68.054688 60.316406 L 68.054688 15.554688 C 68.078125 15.128906 67.921875 14.714844 67.628906 14.40625 C 67.335938 14.097656 66.925781 13.921875 66.5 13.921875 Z M 66.5 13.921875 "/>
<path style=" stroke:none;fill-rule:nonzero;fill:rgb(255,255,255);fill-opacity:1;" d="M 39.589844 22.167969 C 39.488281 22.136719 39.378906 22.136719 39.277344 22.167969 C 39.277344 22.167969 38.929688 22.167969 38.773438 22.4375 L 26.484375 40.289063 C 26.371094 40.480469 26.371094 40.71875 26.484375 40.910156 C 26.601563 41.128906 26.820313 41.277344 27.066406 41.300781 L 34.339844 41.300781 L 31.109375 52.109375 C 31.046875 52.238281 31.039063 52.386719 31.089844 52.523438 C 31.144531 52.65625 31.25 52.761719 31.382813 52.8125 C 31.472656 52.84375 31.566406 52.84375 31.65625 52.8125 C 31.890625 52.8125 32.003906 52.8125 32.160156 52.539063 L 44.839844 34.417969 C 44.839844 34.417969 44.839844 34.183594 44.839844 34.027344 C 44.816406 33.679688 44.527344 33.40625 44.179688 33.40625 L 36.398438 33.40625 L 39.550781 22.789063 C 39.703125 22.613281 39.71875 22.359375 39.589844 22.167969 Z M 39.589844 22.167969 "/>
</g>
</svg>
