<?xml version="1.0" encoding="UTF-8"?>
<svg xmlns="http://www.w3.org/2000/svg" xmlns:xlink="http://www.w3.org/1999/xlink" width="65pt" height="70pt" viewBox="0 0 65 70" version="1.1">
<defs>
<filter id="alpha" filterUnits="objectBoundingBox" x="0%" y="0%" width="100%" height="100%">
  <feColorMatrix type="matrix" in="SourceGraphic" values="0 0 0 0 1 0 0 0 0 1 0 0 0 0 1 0 0 0 1 0"/>
</filter>
<mask id="mask0">
  <g filter="url(#alpha)">
<rect x="0" y="0" width="65" height="70" style="fill:rgb(0%,0%,0%);fill-opacity:0.501961;stroke:none;"/>
  </g>
</mask>
<clipPath id="clip1">
  <rect x="0" y="0" width="65" height="70"/>
</clipPath>
<g id="surface5" clip-path="url(#clip1)">
<path style=" stroke:none;fill-rule:nonzero;fill:rgb(62.745098%,63.137255%,63.529412%);fill-opacity:1;" d="M 49.371094 2.238281 L 46.054688 5.460938 L 46.054688 54.179688 L 49.371094 49.980469 Z M 49.371094 2.238281 "/>
</g>
</defs>
<g id="surface1">
<path style=" stroke:none;fill-rule:nonzero;fill:rgb(0%,44.705882%,77.647059%);fill-opacity:1;" d="M 49.371094 49.980469 L 51.585938 49.980469 L 51.585938 0 L 8.296875 0 C 6.914063 0.140625 4.011719 3.640625 4.011719 4.058594 C 4.011719 4.199219 4.011719 52.359375 4.011719 52.359375 C 4.011719 53.761719 5.117188 55.019531 6.636719 55.019531 L 46.054688 55.019531 L 46.054688 54.179688 Z M 49.371094 49.980469 "/>
<path style=" stroke:none;fill-rule:nonzero;fill:rgb(89.803922%,89.803922%,89.803922%);fill-opacity:1;" d="M 10.234375 2.238281 C 8.988281 2.238281 8.574219 2.378906 7.46875 3.359375 C 5.117188 5.460938 8.019531 5.460938 9.128906 5.460938 L 46.054688 5.460938 L 46.054688 54.179688 L 49.371094 49.839844 L 49.371094 2.238281 Z M 10.234375 2.238281 "/>
<use xlink:href="#surface5" mask="url(#mask0)"/>
<path style=" stroke:none;fill-rule:nonzero;fill:rgb(62.745098%,63.137255%,63.529412%);fill-opacity:1;" d="M 10.234375 29.679688 C 10.234375 30.800781 9.402344 31.640625 8.296875 31.640625 L 1.9375 31.640625 C 0.828125 31.640625 0 30.800781 0 29.679688 C 0 28.558594 0.828125 27.71875 1.9375 27.71875 L 8.296875 27.71875 C 9.402344 27.578125 10.234375 28.558594 10.234375 29.679688 Z M 10.234375 29.679688 "/>
<path style=" stroke:none;fill-rule:nonzero;fill:rgb(62.745098%,63.137255%,63.529412%);fill-opacity:1;" d="M 10.234375 15.261719 C 10.234375 16.378906 9.402344 17.21875 8.296875 17.21875 L 1.9375 17.21875 C 0.828125 17.21875 0 16.378906 0 15.261719 C 0 14.140625 0.828125 13.300781 1.9375 13.300781 L 8.296875 13.300781 C 9.402344 13.300781 10.234375 14.28125 10.234375 15.261719 Z M 10.234375 15.261719 "/>
<path style=" stroke:none;fill-rule:nonzero;fill:rgb(62.745098%,63.137255%,63.529412%);fill-opacity:1;" d="M 10.234375 43.960938 C 10.234375 45.078125 9.402344 45.921875 8.296875 45.921875 L 1.9375 45.921875 C 0.828125 45.921875 0 45.078125 0 43.960938 C 0 42.839844 0.828125 42 1.9375 42 L 8.296875 42 C 9.402344 42 10.234375 42.839844 10.234375 43.960938 Z M 10.234375 43.960938 "/>
<path style=" stroke:none;fill-rule:nonzero;fill:rgb(22.352941%,60%,77.647059%);fill-opacity:1;" d="M 31.253906 31.078125 L 31.253906 63.980469 C 31.253906 67.339844 38.863281 70.140625 48.128906 70.140625 L 48.128906 30.941406 L 31.253906 30.941406 Z M 31.253906 31.078125 "/>
<path style=" stroke:none;fill-rule:nonzero;fill:rgb(34.901961%,70.588235%,85.098039%);fill-opacity:1;" d="M 47.851563 70.28125 L 48.128906 70.28125 C 57.394531 70.28125 65 67.480469 65 64.121094 L 65 31.078125 L 47.851563 31.078125 Z M 47.851563 70.28125 "/>
<path style=" stroke:none;fill-rule:nonzero;fill:rgb(100%,100%,100%);fill-opacity:1;" d="M 65 31.078125 C 65 34.441406 57.394531 37.238281 48.128906 37.238281 C 38.863281 37.238281 31.253906 34.441406 31.253906 31.078125 C 31.253906 27.71875 38.863281 24.921875 48.128906 24.921875 C 57.394531 24.921875 65 27.71875 65 31.078125 "/>
<path style=" stroke:none;fill-rule:nonzero;fill:rgb(49.803922%,72.941176%,0%);fill-opacity:1;" d="M 61.542969 30.660156 C 61.542969 32.898438 55.457031 34.71875 48.128906 34.71875 C 40.796875 34.71875 34.710938 32.898438 34.710938 30.660156 C 34.710938 28.421875 40.796875 26.601563 48.128906 26.601563 C 55.457031 26.601563 61.542969 28.421875 61.542969 30.660156 "/>
<path style=" stroke:none;fill-rule:nonzero;fill:rgb(72.156863%,83.137255%,19.607843%);fill-opacity:1;" d="M 58.777344 33.179688 C 60.574219 32.480469 61.542969 31.640625 61.542969 30.660156 C 61.542969 28.421875 55.457031 26.601563 48.128906 26.601563 C 40.660156 26.601563 34.710938 28.421875 34.710938 30.660156 C 34.710938 31.640625 35.820313 32.480469 37.480469 33.179688 C 39.96875 32.199219 43.839844 31.640625 48.128906 31.640625 C 52.414063 31.640625 56.289063 32.199219 58.777344 33.179688 "/>
</g>
</svg>
