<?xml version="1.0" encoding="utf-8"?><svg viewBox="0 0 96 96" class="" role="presentation" focusable="false" xmlns="http://www.w3.org/2000/svg" xmlns:xlink="http://www.w3.org/1999/xlink" id="FxSymbol0-023" data-type="1" width="100%" height="70" preserveAspectRatio="xMidYMid meet"><g><g clip-path="url(#40fd3475-21aa-4a8a-956c-13a617e35022)"><path fill="url(#40fd3475-21aa-4a8a-956c-13a617e3501f)" d="M84 0v96H52V0z"></path><path fill="url(#40fd3475-21aa-4a8a-956c-13a617e35020)" d="M64 28v68H32V24h28a4 4 0 014 4z"></path><path fill="url(#40fd3475-21aa-4a8a-956c-13a617e35021)" d="M12 48v48h32V52a4 4 0 00-4-4z"></path></g></g><defs><linearGradient id="40fd3475-21aa-4a8a-956c-13a617e3501f" x1="45.593" x2="87.792" y1="95.494" y2="6.047" gradientTransform="matrix(1 0 0 -1 0 96)" gradientUnits="userSpaceOnUse"><stop offset="0" stop-color="#59B8FF"></stop><stop offset="1" stop-color="#0F99FF"></stop></linearGradient><linearGradient id="40fd3475-21aa-4a8a-956c-13a617e35020" x1="29.359" x2="64.848" y1="70.638" y2="1.812" gradientTransform="matrix(1 0 0 -1 0 96)" gradientUnits="userSpaceOnUse"><stop offset="0" stop-color="#A3D7FF"></stop><stop offset="1" stop-color="#59B8FF"></stop></linearGradient><linearGradient id="40fd3475-21aa-4a8a-956c-13a617e35021" x1="16.415" x2="36.025" y1="49.863" y2="3.385" gradientTransform="matrix(1 0 0 -1 0 96)" gradientUnits="userSpaceOnUse"><stop offset="0" stop-color="#C1E4FF"></stop><stop offset="1" stop-color="#A3D7FF"></stop></linearGradient><clipPath id="40fd3475-21aa-4a8a-956c-13a617e35022"><path d="M52 4a4 4 0 014-4h24a4 4 0 014 4v88a4 4 0 01-4 4H16a4 4 0 01-4-4V52a4 4 0 014-4h16V28a4 4 0 014-4h16z"></path></clipPath></defs></svg>