<?xml version="1.0" encoding="utf-8"?><svg version="1.1" xmlns="http://www.w3.org/2000/svg" xmlns:xlink="http://www.w3.org/1999/xlink" xmlns:xml="http://www.w3.org/XML/1998/namespace" width="70" height="70" viewBox="0, 0, 96, 96" id="FxSymbol0-023" class="" role="presentation" focusable="false" data-type="1"><g><g clip-path="url(#40fd3475-21aa-4a8a-956c-13a617e35022)"><path d="M84 0 v96 H52 V0 z" style="fill:url(#40fd3475-21aa-4a8a-956c-13a617e3501f);" /><path d="M64 28 v68 H32 V24 h28 a4 4 0 0 1 4 4 z" style="fill:url(#40fd3475-21aa-4a8a-956c-13a617e35020);" /><path d="M12 48 v48 h32 V52 a4 4 0 0 0 -4 -4 z" style="fill:url(#40fd3475-21aa-4a8a-956c-13a617e35021);" /></g></g><defs><linearGradient x1="45.593" y1="95.494" x2="87.792" y2="6.047" gradientUnits="userSpaceOnUse" gradientTransform="matrix(1, 0, 0, -1, 0, 96)" id="40fd3475-21aa-4a8a-956c-13a617e3501f"><stop offset="0%" stop-color="#59B8FF" /><stop offset="100%" stop-color="#0F99FF" /></linearGradient><linearGradient x1="29.359" y1="70.638" x2="64.848" y2="1.812" gradientUnits="userSpaceOnUse" gradientTransform="matrix(1, 0, 0, -1, 0, 96)" id="40fd3475-21aa-4a8a-956c-13a617e35020"><stop offset="0%" stop-color="#A3D7FF" /><stop offset="100%" stop-color="#59B8FF" /></linearGradient><linearGradient x1="16.415" y1="49.863" x2="36.025" y2="3.385" gradientUnits="userSpaceOnUse" gradientTransform="matrix(1, 0, 0, -1, 0, 96)" id="40fd3475-21aa-4a8a-956c-13a617e35021"><stop offset="0%" stop-color="#C1E4FF" /><stop offset="100%" stop-color="#A3D7FF" /></linearGradient><clipPath id="40fd3475-21aa-4a8a-956c-13a617e35022"><path d="M52 4 a4 4 0 0 1 4 -4 h24 a4 4 0 0 1 4 4 v88 a4 4 0 0 1 -4 4 H16 a4 4 0 0 1 -4 -4 V52 a4 4 0 0 1 4 -4 h16 V28 a4 4 0 0 1 4 -4 h16 z" /></clipPath></defs></svg>