<?xml version="1.0" encoding="utf-8"?><svg viewBox="0 0 18 18" class="" role="presentation" focusable="false" xmlns="http://www.w3.org/2000/svg" xmlns:xlink="http://www.w3.org/1999/xlink" id="FxSymbol0-069" data-type="1" width="100%" height="70" preserveAspectRatio="xMidYMid meet"><g><path fill="url(#40fd3475-21aa-4a8a-956c-13a617e350c6)" d="M9.031 7.7A1.305 1.305 0 1010.338 9a1.305 1.305 0 00-1.307-1.3z"></path><path fill="#50e6ff" d="M6.34 13.375l-.626.629a.284.284 0 01-.402 0L.673 9.38a.568.568 0 010-.804l.626-.629 5.04 5.027a.284.284 0 01.002.402z"></path><path fill="#1490df" d="M5.62 3.996l.627.626a.284.284 0 010 .402L1.295 9.99l-.626-.624a.568.568 0 010-.803L5.22 3.999a.284.284 0 01.401 0z"></path><path fill="#50e6ff" d="M16.702 7.947l.627.629a.568.568 0 01-.001.803l-4.639 4.626a.284.284 0 01-.402 0l-.627-.63a.284.284 0 01.001-.401l5.041-5.027z"></path><path fill="#1490df" d="M17.333 9.364l-.629.627-4.953-4.967a.284.284 0 010-.402l.628-.626a.284.284 0 01.402 0l4.552 4.566a.568.568 0 010 .803z"></path></g><defs><linearGradient id="40fd3475-21aa-4a8a-956c-13a617e350c6" x1="9.033" x2="9.033" y1="10.305" y2="7.695" gradientUnits="userSpaceOnUse"><stop offset="0" stop-color="#5e9624"></stop><stop offset=".241" stop-color="#6fb02a"></stop><stop offset=".501" stop-color="#7cc52f"></stop><stop offset=".756" stop-color="#83d232"></stop><stop offset="1" stop-color="#86d633"></stop></linearGradient></defs></svg>