<?xml version="1.0" encoding="UTF-8"?>
<svg xmlns="http://www.w3.org/2000/svg" xmlns:xlink="http://www.w3.org/1999/xlink" width="70pt" height="70pt" viewBox="0 0 70 70" version="1.1">
<defs>
<filter id="alpha" filterUnits="objectBoundingBox" x="0%" y="0%" width="100%" height="100%">
  <feColorMatrix type="matrix" in="SourceGraphic" values="0 0 0 0 1 0 0 0 0 1 0 0 0 0 1 0 0 0 1 0"/>
</filter>
<mask id="mask0">
  <g filter="url(#alpha)">
<rect x="0" y="0" width="70" height="70" style="fill:rgb(0%,0%,0%);fill-opacity:0.14902;stroke:none;"/>
  </g>
</mask>
<clipPath id="clip1">
  <rect x="0" y="0" width="70" height="70"/>
</clipPath>
<g id="surface5" clip-path="url(#clip1)">
<path style=" stroke:none;fill-rule:nonzero;fill:rgb(100%,100%,100%);fill-opacity:1;" d="M 51.363281 69.488281 L 51.644531 69.488281 C 61.464844 69.488281 69.429688 66.644531 69.429688 63.085938 L 69.429688 28.800781 L 51.363281 28.800781 Z M 51.363281 69.488281 "/>
</g>
</defs>
<g id="surface1">
<path style=" stroke:none;fill-rule:nonzero;fill:rgb(22.352941%,60%,77.647059%);fill-opacity:1;" d="M 0 8.453125 L 0 59.816406 C 0 65.222656 11.953125 69.488281 26.605469 69.488281 L 26.605469 8.453125 Z M 0 8.453125 "/>
<path style=" stroke:none;fill-rule:nonzero;fill:rgb(34.901961%,70.588235%,85.098039%);fill-opacity:1;" d="M 26.320313 69.488281 L 26.746094 69.488281 C 41.542969 69.488281 53.355469 65.222656 53.355469 59.816406 L 53.355469 8.453125 L 26.320313 8.453125 Z M 26.320313 69.488281 "/>
<path style=" stroke:none;fill-rule:nonzero;fill:rgb(100%,100%,100%);fill-opacity:1;" d="M 53.355469 8.453125 C 53.355469 13.71875 41.402344 18.128906 26.746094 18.128906 C 12.09375 18.128906 0 13.71875 0 8.453125 C 0 3.1875 11.953125 -1.222656 26.605469 -1.222656 C 41.261719 -1.222656 53.355469 3.1875 53.355469 8.453125 "/>
<path style=" stroke:none;fill-rule:nonzero;fill:rgb(49.803922%,72.941176%,0%);fill-opacity:1;" d="M 47.945313 7.882813 C 47.945313 11.441406 38.414063 14.285156 26.746094 14.285156 C 15.082031 14.285156 5.40625 11.441406 5.40625 7.882813 C 5.40625 4.328125 14.9375 1.480469 26.605469 1.480469 C 38.273438 1.480469 47.945313 4.328125 47.945313 7.882813 "/>
<path style=" stroke:none;fill-rule:nonzero;fill:rgb(72.156863%,83.137255%,19.607843%);fill-opacity:1;" d="M 43.394531 11.726563 C 46.238281 10.585938 47.804688 9.308594 47.804688 7.882813 C 47.804688 4.328125 38.273438 1.480469 26.605469 1.480469 C 14.9375 1.480469 5.40625 4.328125 5.40625 7.882813 C 5.40625 9.308594 7.113281 10.730469 9.816406 11.726563 C 13.660156 10.160156 19.777344 9.308594 26.605469 9.308594 C 33.433594 9.308594 39.554688 10.304688 43.394531 11.726563 "/>
<path style=" stroke:none;fill-rule:nonzero;fill:rgb(0%,44.705882%,77.647059%);fill-opacity:1;" d="M 33.863281 28.800781 L 33.863281 63.085938 C 33.863281 66.644531 41.828125 69.488281 51.644531 69.488281 L 51.644531 28.800781 Z M 33.863281 28.800781 "/>
<path style=" stroke:none;fill-rule:nonzero;fill:rgb(0%,44.705882%,77.647059%);fill-opacity:1;" d="M 51.363281 69.488281 L 51.644531 69.488281 C 61.464844 69.488281 69.429688 66.644531 69.429688 63.085938 L 69.429688 28.800781 L 51.363281 28.800781 Z M 51.363281 69.488281 "/>
<use xlink:href="#surface5" mask="url(#mask0)"/>
<path style=" stroke:none;fill-rule:nonzero;fill:rgb(100%,100%,100%);fill-opacity:1;" d="M 69.429688 28.800781 C 69.429688 32.355469 61.464844 35.203125 51.644531 35.203125 C 41.828125 35.203125 33.863281 32.355469 33.863281 28.800781 C 33.863281 25.242188 41.828125 22.398438 51.644531 22.398438 C 61.464844 22.398438 69.429688 25.242188 69.429688 28.800781 "/>
<path style=" stroke:none;fill-rule:nonzero;fill:rgb(49.803922%,72.941176%,0%);fill-opacity:1;" d="M 65.730469 28.371094 C 65.730469 30.648438 59.328125 32.640625 51.644531 32.640625 C 43.964844 32.640625 37.5625 30.789063 37.5625 28.371094 C 37.5625 26.097656 43.964844 24.105469 51.644531 24.105469 C 59.328125 24.105469 65.730469 26.097656 65.730469 28.371094 "/>
<path style=" stroke:none;fill-rule:nonzero;fill:rgb(72.156863%,83.137255%,19.607843%);fill-opacity:1;" d="M 62.742188 30.933594 C 64.59375 30.222656 65.730469 29.367188 65.730469 28.371094 C 65.730469 26.097656 59.328125 24.105469 51.644531 24.105469 C 43.820313 24.105469 37.5625 25.953125 37.5625 28.371094 C 37.5625 29.367188 38.699219 30.222656 40.546875 30.933594 C 43.109375 29.9375 47.234375 29.226563 51.789063 29.226563 C 56.058594 29.226563 60.039063 29.9375 62.742188 30.933594 "/>
<path style=" stroke:none;fill-rule:nonzero;fill:rgb(100%,100%,100%);fill-opacity:1;" d="M 49.226563 53.269531 L 42.539063 53.269531 L 62.316406 37.050781 L 54.632813 49.570313 L 61.320313 49.570313 L 41.542969 65.933594 Z M 49.226563 53.269531 "/>
</g>
</svg>
