<?xml version="1.0" encoding="UTF-8"?>
<svg xmlns="http://www.w3.org/2000/svg" xmlns:xlink="http://www.w3.org/1999/xlink" width="70pt" height="70pt" viewBox="0 0 70 70" version="1.1">
<defs>
<linearGradient id="linear0" gradientUnits="userSpaceOnUse" x1="7.37" y1="0.5" x2="7.37" y2="13.23" gradientTransform="matrix(3.888889,0,0,3.888889,0,0)">
<stop offset="0" style="stop-color:rgb(101,189,255);stop-opacity:1;"/>
<stop offset="0.38" style="stop-color:rgb(93,186,255);stop-opacity:1;"/>
<stop offset="0.76" style="stop-color:rgb(69,176,255);stop-opacity:1;"/>
<stop offset="1" style="stop-color:rgb(47,166,255);stop-opacity:1;"/>
</linearGradient>
<linearGradient id="linear1" gradientUnits="userSpaceOnUse" x1="8.96" y1="13.29" x2="17.32" y2="13.29" gradientTransform="matrix(3.888889,0,0,3.888889,0,0)">
<stop offset="0" style="stop-color:rgb(0,81,142);stop-opacity:1;"/>
<stop offset="0.07" style="stop-color:rgb(0,86,150);stop-opacity:1;"/>
<stop offset="0.36" style="stop-color:rgb(0,101,176);stop-opacity:1;"/>
<stop offset="0.52" style="stop-color:rgb(0,108,188);stop-opacity:1;"/>
<stop offset="0.64" style="stop-color:rgb(0,103,180);stop-opacity:1;"/>
<stop offset="0.82" style="stop-color:rgb(0,95,166);stop-opacity:1;"/>
<stop offset="1" style="stop-color:rgb(0,81,142);stop-opacity:1;"/>
</linearGradient>
</defs>
<g id="surface1">
<path style=" stroke:none;fill-rule:nonzero;fill:url(#linear0);" d="M 28.660156 1.945313 L 2.644531 17.035156 L 2.644531 20.765625 L 7.429688 20.765625 L 7.429688 49.078125 L 12.132813 49.078125 L 12.132813 20.765625 L 45.1875 20.765625 L 45.1875 51.449219 L 49.894531 51.449219 L 49.894531 20.765625 L 54.679688 20.765625 L 54.679688 17.035156 Z M 28.660156 1.945313 "/>
<path style=" stroke:none;fill-rule:nonzero;fill:rgb(119,197,255);fill-opacity:1;" d="M 16.839844 49.078125 L 26.289063 49.078125 L 26.289063 39.667969 L 16.839844 39.667969 Z M 30.996094 49.078125 L 40.445313 49.078125 L 40.445313 39.667969 L 31.109375 39.667969 Z M 16.839844 35 L 26.289063 35 L 26.289063 25.472656 L 16.839844 25.472656 Z M 31.109375 25.472656 L 31.109375 35 L 40.445313 35 L 40.445313 25.472656 Z M 31.109375 25.472656 "/>
<path style=" stroke:none;fill-rule:nonzero;fill:url(#linear1);" d="M 51.101563 40.484375 C 42.117188 40.484375 35 38.148438 35 35.3125 L 35 62.882813 C 35 65.722656 42.15625 68.015625 51.023438 68.054688 L 51.253906 68.054688 C 60.238281 68.054688 67.511719 65.722656 67.511719 62.882813 L 67.511719 35.3125 C 67.355469 38.148438 60.082031 40.484375 51.101563 40.484375 Z M 51.101563 40.484375 "/>
<path style=" stroke:none;fill-rule:nonzero;fill:rgb(209,235,255);fill-opacity:1;" d="M 67.355469 35.3125 C 67.355469 38.148438 60.082031 40.484375 51.101563 40.484375 C 42.117188 40.484375 35 38.148438 35 35.3125 C 35 32.472656 42.273438 30.140625 51.253906 30.140625 C 60.238281 30.140625 67.511719 32.433594 67.511719 35.3125 "/>
<path style=" stroke:none;fill-rule:nonzero;fill:rgb(119,197,255);fill-opacity:1;" d="M 63.582031 35 C 63.582031 36.828125 57.984375 38.304688 51.101563 38.304688 C 44.214844 38.304688 38.65625 36.710938 38.65625 35 C 38.65625 33.289063 44.214844 31.695313 51.101563 31.695313 C 57.984375 31.695313 63.582031 33.171875 63.582031 35 "/>
<path style=" stroke:none;fill-rule:nonzero;fill:rgb(47,166,255);fill-opacity:1;" d="M 51.101563 35.660156 C 47.765625 35.582031 44.433594 36 41.222656 36.90625 C 44.429688 37.828125 47.761719 38.261719 51.101563 38.1875 C 54.4375 38.261719 57.769531 37.828125 60.976563 36.90625 C 57.765625 36 54.4375 35.582031 51.101563 35.660156 Z M 51.101563 35.660156 "/>
</g>
</svg>
