<?xml version="1.0" encoding="utf-8"?><svg version="1.1" xmlns="http://www.w3.org/2000/svg" xmlns:xlink="http://www.w3.org/1999/xlink" xmlns:xml="http://www.w3.org/XML/1998/namespace" width="70" height="70" viewBox="0, 0, 18, 18" id="e628f514-cf24-48e8-9bd9-b0847bc224d0"><defs><linearGradient x1="9" y1="11.84" x2="9" gradientUnits="userSpaceOnUse" id="b01f2302-385e-4b49-a7e9-dac023c15293"><stop offset="0%" stop-color="#006CBC" /><stop offset="16%" stop-color="#0078D2" /><stop offset="53%" stop-color="#0193FF" /><stop offset="82%" stop-color="#1F9FFF" /><stop offset="100%" stop-color="#29A4FF" /></linearGradient><linearGradient x1="4.62" y1="13.54" x2="13.47" y2="13.54" gradientUnits="userSpaceOnUse" id="f7246c3f-62d1-41c6-a3d3-d69183d80ba0"><stop offset="0%" stop-color="#2FA6FF" /><stop offset="6%" stop-color="#3BABFF" /><stop offset="30%" stop-color="#67BEFF" /><stop offset="45%" stop-color="#77C5FF" /><stop offset="55%" stop-color="#77C5FF" /><stop offset="70%" stop-color="#67BEFF" /><stop offset="94%" stop-color="#3BABFF" /><stop offset="100%" stop-color="#2FA6FF" /></linearGradient></defs><title>Icon-databases-133</title><path d="M17.35 8.13 a3.74 3.74 0 0 0 -3.25 -3.6 A4.74 4.74 0 0 0 9.22 0 A4.87 4.87 0 0 0 4.58 3.16 A4.48 4.48 0 0 0 0.65 7.47 a4.54 4.54 0 0 0 4.7 4.37 h8 a1.2 1.2 0 0 0 0.2 0 A3.81 3.81 0 0 0 17.35 8.13 Z" style="fill:url(#b01f2302-385e-4b49-a7e9-dac023c15293);" /><path d="M9.05 10.49 c-2.45 0 -4.43 -0.63 -4.43 -1.41 v7.51 c0 0.77 2 1.4 4.37 1.41 h0.06 c2.44 0 4.42 -0.63 4.42 -1.41 V9.08 C13.47 9.86 11.49 10.49 9.05 10.49 Z" style="fill:url(#f7246c3f-62d1-41c6-a3d3-d69183d80ba0);" /><path d="M13.47 9.08 c0 0.78 -2 1.41 -4.42 1.41 S4.62 9.86 4.62 9.08 s2 -1.41 4.43 -1.41 s4.42 0.63 4.42 1.41" style="fill:#D1EBFF;" /><path d="M12.44 9 c0 0.49 -1.52 0.9 -3.39 0.9 s-3.4 -0.41 -3.4 -0.9 s1.52 -0.9 3.4 -0.9 s3.39 0.4 3.39 0.9" style="fill:#77C5FF;" /><path d="M9.05 9.18 a9.13 9.13 0 0 0 -2.69 0.34 a9 9 0 0 0 2.69 0.35 a9.09 9.09 0 0 0 2.69 -0.35 A9.23 9.23 0 0 0 9.05 9.18 Z" style="fill:#2FA6FF;" /><path d="M6.29 5 L8.88 2.38 a0.3 0.3 0 0 1 0.43 0 L11.9 5 a0.13 0.13 0 0 1 -0.1 0.23 H10.21 a0.14 0.14 0 0 0 -0.14 0.14 V8.58 a0.1 0.1 0 0 1 -0.11 0.11 H8.22 a0.11 0.11 0 0 1 -0.11 -0.11 V5.34 A0.13 0.13 0 0 0 8 5.2 H6.38 A0.13 0.13 0 0 1 6.29 5 Z" style="fill:#E5F3FF;" /></svg>