<?xml version="1.0" encoding="UTF-8"?>
<svg xmlns="http://www.w3.org/2000/svg" xmlns:xlink="http://www.w3.org/1999/xlink" width="70pt" height="70pt" viewBox="0 0 70 70" version="1.1">
<defs>
<linearGradient id="linear0" gradientUnits="userSpaceOnUse" x1="0.5" y1="10.04" x2="13.18" y2="10.04" gradientTransform="matrix(3.888889,0,0,3.888889,0,0)">
<stop offset="0" style="stop-color:rgb(0,81,142);stop-opacity:1;"/>
<stop offset="0.07" style="stop-color:rgb(0,86,150);stop-opacity:1;"/>
<stop offset="0.36" style="stop-color:rgb(0,101,176);stop-opacity:1;"/>
<stop offset="0.52" style="stop-color:rgb(0,108,188);stop-opacity:1;"/>
<stop offset="0.64" style="stop-color:rgb(0,103,180);stop-opacity:1;"/>
<stop offset="0.82" style="stop-color:rgb(0,95,166);stop-opacity:1;"/>
<stop offset="1" style="stop-color:rgb(0,81,142);stop-opacity:1;"/>
</linearGradient>
</defs>
<g id="surface1">
<path style=" stroke:none;fill-rule:nonzero;fill:url(#linear0);" d="M 26.601563 19.792969 C 12.988281 19.792969 1.945313 15.90625 1.945313 10.851563 L 1.945313 58.332031 C 1.945313 63.234375 12.792969 67.199219 26.25 67.277344 L 26.601563 67.277344 C 40.210938 67.277344 51.253906 63.390625 51.253906 58.332031 L 51.253906 10.851563 C 51.253906 15.789063 40.210938 19.792969 26.601563 19.792969 Z M 26.601563 19.792969 "/>
<path style=" stroke:none;fill-rule:nonzero;fill:rgb(209,235,255);fill-opacity:1;" d="M 51.253906 10.851563 C 51.253906 15.789063 40.210938 19.792969 26.601563 19.792969 C 12.988281 19.792969 1.945313 15.789063 1.945313 10.851563 C 1.945313 5.910156 12.988281 1.90625 26.601563 1.90625 C 40.210938 1.90625 51.253906 5.792969 51.253906 10.851563 "/>
<path style=" stroke:none;fill-rule:nonzero;fill:rgb(119,197,255);fill-opacity:1;" d="M 45.5 10.109375 C 45.5 13.261719 37.023438 15.789063 26.601563 15.789063 C 16.179688 15.789063 7.777344 13.261719 7.777344 10.109375 C 7.777344 6.960938 16.179688 4.433594 26.601563 4.433594 C 37.023438 4.433594 45.5 7 45.5 10.109375 "/>
<path style=" stroke:none;fill-rule:nonzero;fill:rgb(0,124,216);fill-opacity:1;" d="M 26.601563 11.433594 C 21.539063 11.332031 16.496094 12.054688 11.667969 13.570313 C 16.492188 15.175781 21.558594 15.925781 26.640625 15.789063 C 31.71875 15.925781 36.785156 15.175781 41.609375 13.570313 C 36.757813 12.046875 31.6875 11.324219 26.601563 11.433594 Z M 26.601563 11.433594 "/>
<path style=" stroke:none;fill-rule:nonzero;fill:rgb(229,243,255);fill-opacity:1;" d="M 41.765625 43.167969 L 41.765625 30.023438 L 38.148438 30.023438 L 38.148438 46.121094 L 47.714844 46.121094 L 47.714844 43.167969 Z M 13.960938 36.671875 C 13.242188 36.375 12.570313 35.96875 11.976563 35.464844 C 11.714844 35.109375 11.605469 34.660156 11.667969 34.222656 C 11.667969 33.742188 11.898438 33.292969 12.289063 33.015625 C 12.777344 32.710938 13.347656 32.558594 13.921875 32.589844 C 15.304688 32.539063 16.667969 32.9375 17.8125 33.714844 L 17.8125 30.371094 C 16.566406 29.917969 15.246094 29.707031 13.921875 29.75 C 12.25 29.609375 10.589844 30.09375 9.253906 31.109375 C 8.214844 31.972656 7.625 33.261719 7.660156 34.609375 C 7.660156 36.59375 8.90625 38.148438 11.550781 39.316406 C 12.394531 39.683594 13.191406 40.15625 13.921875 40.714844 C 14.3125 41.011719 14.542969 41.472656 14.542969 41.960938 C 14.542969 42.441406 14.3125 42.890625 13.921875 43.167969 C 13.402344 43.503906 12.789063 43.667969 12.171875 43.632813 C 10.535156 43.652344 8.957031 43.023438 7.777344 41.882813 L 7.777344 45.5 C 9.070313 46.128906 10.5 46.4375 11.9375 46.394531 C 13.5625 46.46875 15.164063 46.035156 16.527344 45.148438 C 17.636719 44.300781 18.257813 42.964844 18.199219 41.570313 C 18.238281 40.574219 17.890625 39.597656 17.226563 38.851563 C 16.304688 37.902344 15.191406 37.160156 13.960938 36.671875 Z M 34.183594 42.777344 C 35.0625 41.28125 35.507813 39.574219 35.464844 37.839844 C 35.5 36.355469 35.164063 34.886719 34.496094 33.5625 C 33.886719 32.347656 32.941406 31.332031 31.773438 30.644531 C 30.585938 29.972656 29.246094 29.625 27.882813 29.632813 C 26.402344 29.605469 24.941406 29.96875 23.644531 30.683594 C 22.429688 31.386719 21.441406 32.425781 20.804688 33.679688 C 20.101563 35.0625 19.757813 36.597656 19.792969 38.148438 C 19.773438 39.566406 20.09375 40.96875 20.726563 42.234375 C 21.316406 43.433594 22.234375 44.445313 23.371094 45.148438 C 24.546875 45.863281 25.886719 46.25 27.261719 46.277344 L 30.566406 50.167969 L 35.195313 50.167969 L 30.527344 45.851563 C 32.066406 45.28125 33.359375 44.195313 34.183594 42.777344 Z M 30.566406 41.765625 C 29.828125 42.644531 28.738281 43.152344 27.589844 43.152344 C 26.445313 43.152344 25.355469 42.644531 24.617188 41.765625 C 23.804688 40.640625 23.417969 39.261719 23.527344 37.878906 C 23.421875 36.488281 23.820313 35.105469 24.65625 33.988281 C 25.363281 33.035156 26.5 32.496094 27.6875 32.550781 C 28.839844 32.515625 29.933594 33.054688 30.605469 33.988281 C 31.371094 35.136719 31.742188 36.5 31.65625 37.878906 C 31.8125 39.300781 31.421875 40.734375 30.566406 41.882813 Z M 30.566406 41.765625 "/>
<path style=" stroke:none;fill-rule:nonzero;fill:rgb(41,164,255);fill-opacity:1;" d="M 57.59375 68.015625 L 58.527344 64.945313 L 60.355469 63.894531 L 63.503906 65.292969 L 65.527344 63.234375 L 65.527344 63 L 64.089844 60.238281 L 64.945313 58.292969 L 68.09375 57.167969 L 68.445313 57.167969 L 68.445313 54.328125 L 68.054688 54.328125 L 64.945313 53.394531 L 63.933594 51.605469 L 65.292969 48.417969 L 63.234375 46.433594 L 63 46.433594 L 60.238281 47.832031 L 58.332031 46.667969 L 57.089844 43.207031 L 54.210938 43.207031 L 54.210938 43.632813 L 53.277344 46.707031 L 51.292969 47.5625 L 47.910156 46.003906 L 45.929688 48.066406 L 46.121094 48.457031 L 47.601563 51.332031 L 46.820313 53.316406 L 43.167969 54.445313 L 43.167969 57.320313 L 43.59375 57.320313 L 46.667969 58.253906 L 47.523438 60.238281 L 46.003906 63.582031 L 48.066406 65.605469 L 48.417969 65.410156 L 51.292969 63.933594 L 53.277344 64.710938 L 54.601563 68.171875 L 57.4375 68.171875 Z M 52.929688 58.839844 C 51.296875 57.238281 51.269531 54.617188 52.871094 52.984375 C 54.46875 51.355469 57.089844 51.328125 58.722656 52.929688 C 60.355469 54.527344 60.378906 57.148438 58.78125 58.78125 C 57.179688 60.414063 54.558594 60.4375 52.929688 58.839844 Z M 52.929688 58.839844 "/>
</g>
</svg>
