<?xml version="1.0" encoding="utf-8"?><svg version="1.1" xmlns="http://www.w3.org/2000/svg" xmlns:xlink="http://www.w3.org/1999/xlink" xmlns:xml="http://www.w3.org/XML/1998/namespace" width="70" height="70" viewBox="0, 0, 18, 18" id="e05c9575-4c38-4bcd-90eb-276caf26e3d0"><defs><linearGradient x1="2.59" y1="10.16" x2="15.41" y2="10.16" gradientUnits="userSpaceOnUse" id="e291aba6-8038-4db1-a04d-c7be74f5a3e6"><stop offset="0%" stop-color="#005BA1" /><stop offset="7%" stop-color="#0060A9" /><stop offset="36%" stop-color="#0071C8" /><stop offset="52%" stop-color="#0078D4" /><stop offset="64%" stop-color="#0074CD" /><stop offset="82%" stop-color="#006ABB" /><stop offset="100%" stop-color="#005BA1" /></linearGradient></defs><title>Icon-databases-122</title><path d="M9 5.14 c-3.54 0 -6.41 -1 -6.41 -2.32 V15.18 c0 1.27 2.82 2.3 6.32 2.32 H9 c3.54 0 6.41 -1 6.41 -2.32 V2.82 C15.41 4.11 12.54 5.14 9 5.14 Z" style="fill:url(#e291aba6-8038-4db1-a04d-c7be74f5a3e6);" /><path d="M15.41 2.82 c0 1.29 -2.87 2.32 -6.41 2.32 s-6.41 -1 -6.41 -2.32 S5.46 0.5 9 0.5 s6.41 1 6.41 2.32" style="fill:#E8E8E8;" /><path d="M13.92 2.63 c0 0.82 -2.21 1.48 -4.92 1.48 S4.08 3.45 4.08 2.63 S6.29 1.16 9 1.16 s4.92 0.66 4.92 1.47" style="fill:#50E6FF;" /><path d="M9 3 a11.55 11.55 0 0 0 -3.89 0.57 A11.42 11.42 0 0 0 9 4.11 a11.15 11.15 0 0 0 3.89 -0.58 A11.84 11.84 0 0 0 9 3 Z" style="fill:#198AB3;" /><path d="M12.64 9 v1.63 h-1 a0.39 0.39 0 0 1 -0.29 -0.14 V9 H10 v1.78 a0.92 0.92 0 0 0 1 0.89 h1.49 l0.26 -0.13 s-0.11 0.41 -0.26 0.43 H10.11 v1 h2.66 A1.21 1.21 0 0 0 14 11.7 V9 Z" style="fill:#F2F2F2;" /><path d="M9.53 9 s0 0 0 0 V8.51 a0.7 0.7 0 0 0 -0.48 -0.77 a1.74 1.74 0 0 0 -0.5 -0.08 a0.94 0.94 0 0 0 -0.91 0.58 l-0.78 1.9 l-1 -1.9 A0.93 0.93 0 0 0 5 7.66 a1.44 1.44 0 0 0 -0.51 0.09 c-0.35 0.11 -0.43 0.34 -0.43 0.73 v3.31 H5.23 V9.56 l0.63 1.57 a1.08 1.08 0 0 0 1 0.66 c0.44 0 0.62 -0.26 0.8 -0.66 l0.67 -1.51 v2.15 H9.51 V9 h0 Z" style="fill:#F2F2F2;" /></svg>