<?xml version="1.0" encoding="UTF-8"?>
<svg xmlns="http://www.w3.org/2000/svg" xmlns:xlink="http://www.w3.org/1999/xlink" width="52pt" height="70pt" viewBox="0 0 52 70" version="1.1">
<g id="surface1">
<path style=" stroke:none;fill-rule:nonzero;fill:rgb(10.588235%,21.176471%,38.431373%);fill-opacity:1;" d="M 0 9.585938 L 0 60.605469 C 0 65.964844 11.636719 70.1875 25.9375 70.1875 L 25.9375 9.585938 Z M 0 9.585938 "/>
<path style=" stroke:none;fill-rule:nonzero;fill:rgb(18.431373%,29.803922%,46.666667%);fill-opacity:1;" d="M 25.691406 70.253906 L 26.125 70.253906 C 40.546875 70.253906 52.0625 66.027344 52.0625 60.667969 L 52.0625 9.585938 L 25.691406 9.585938 Z M 25.691406 70.253906 "/>
<path style=" stroke:none;fill-rule:nonzero;fill:rgb(100%,100%,100%);fill-opacity:1;" d="M 52.0625 9.585938 C 52.0625 14.820313 40.421875 19.171875 26.125 19.171875 C 11.824219 19.171875 0 14.820313 0 9.585938 C 0 4.351563 11.636719 0 25.9375 0 C 40.238281 0 52.0625 4.414063 52.0625 9.585938 "/>
<path style=" stroke:none;fill-rule:nonzero;fill:rgb(49.803922%,72.54902%,0%);fill-opacity:1;" d="M 46.800781 9.019531 C 46.800781 12.550781 37.515625 15.386719 26.125 15.386719 C 14.734375 15.386719 5.261719 12.613281 5.261719 9.019531 C 5.261719 5.421875 14.546875 2.648438 25.9375 2.648438 C 37.328125 2.648438 46.800781 5.488281 46.800781 9.019531 "/>
<path style=" stroke:none;fill-rule:nonzero;fill:rgb(71.764706%,82.745098%,19.607843%);fill-opacity:1;" d="M 42.34375 12.863281 C 45.128906 11.730469 46.675781 10.46875 46.675781 9.019531 C 46.675781 5.488281 37.390625 2.648438 26 2.648438 C 14.609375 2.648438 5.261719 5.488281 5.261719 9.019531 C 5.261719 10.40625 6.933594 11.855469 9.59375 12.863281 C 13.371094 11.289063 19.3125 10.46875 26 10.46875 C 32.6875 10.46875 38.566406 11.476563 42.34375 12.863281 "/>
<path style=" stroke:none;fill-rule:nonzero;fill:rgb(100%,100%,100%);fill-opacity:1;" d="M 4.023438 52.160156 C 4.023438 52.160156 6.195313 51.164063 6.851563 51.164063 C 6.851563 51.164063 9.242188 50.828125 10.332031 50.828125 C 11.421875 50.828125 12.382813 49.945313 13.160156 48.722656 C 13.941406 47.5 17.074219 43.847656 20.664063 43.046875 C 24.253906 42.246094 29.800781 41.382813 32.847656 37.28125 C 35.890625 33.183594 37.519531 28.308594 42.199219 28.089844 C 46.878906 27.867188 45.351563 26.871094 46.65625 26.871094 C 47.964844 26.871094 47.203125 29.394531 47.203125 29.394531 C 47.203125 29.394531 46.769531 29.726563 46.769531 29.835938 C 46.769531 29.941406 46.429688 31.328125 44.046875 32.792969 C 41.660156 34.253906 41.570313 37.667969 41.328125 39.097656 C 41.085938 40.53125 38.9375 47.519531 36.757813 49.402344 L 36.214844 49.625 C 36.214844 49.625 35.996094 50.179688 35.78125 50.285156 C 35.5625 50.394531 35.019531 49.84375 34.90625 49.625 C 34.796875 49.402344 33.820313 51.515625 33.496094 51.953125 C 32.0625 54.328125 29.59375 55.855469 26.859375 56.050781 C 26.859375 56.050781 30.449219 49.957031 30.121094 47.738281 C 29.71875 48.515625 29.394531 49.332031 29.144531 50.171875 C 29.144531 50.613281 28.382813 51.503906 27.1875 51.609375 C 25.992188 51.71875 18.378906 49.839844 15.230469 51.609375 C 12.078125 53.382813 10.769531 54.933594 9.039063 55.046875 C 7.304688 55.160156 5.558594 55.160156 4.902344 54.828125 C 4.902344 54.828125 6.3125 53.277344 6.425781 53.054688 C 6.414063 53.046875 4.332031 53.488281 4.023438 52.160156 Z M 4.023438 52.160156 "/>
<path style=" stroke:none;fill-rule:nonzero;fill:rgb(10.588235%,21.176471%,38.431373%);fill-opacity:1;" d="M 46.875 29.777344 L 47.203125 29.445313 C 47.203125 29.445313 45.679688 29.003906 45.246094 27.894531 C 45.183594 28.03125 45.183594 28.195313 45.246094 28.335938 C 45.707031 28.902344 46.257813 29.390625 46.875 29.777344 Z M 40.125 30.902344 C 40.125 30.902344 40.777344 29.347656 42.195313 29.683594 C 42.320313 30.007813 42.292969 30.371094 42.121094 30.671875 C 41.953125 30.972656 41.660156 31.179688 41.320313 31.234375 C 40.894531 31.296875 40.464844 31.175781 40.125 30.902344 Z M 40.125 30.902344 "/>
<path style="fill-rule:nonzero;fill:rgb(100%,100%,100%);fill-opacity:1;stroke-width:0.5;stroke-linecap:butt;stroke-linejoin:miter;stroke:rgb(10.588235%,21.176471%,38.431373%);stroke-opacity:1;stroke-miterlimit:10;" d="M 72.73017 45.998102 C 72.73017 45.998102 70.799281 48.643024 70.622598 49.689844 M 73.077225 46.518415 C 72.528247 47.596205 72.05499 48.711161 71.670074 49.857087 M 73.260218 46.518415 C 72.906853 47.596205 72.73017 48.723549 72.73017 49.857087 " transform="matrix(0.619048,0,0,0.630631,0,0.000000835342)"/>
<path style=" stroke:none;fill-rule:nonzero;fill:rgb(100%,100%,100%);fill-opacity:1;" d="M 38.5 48.058594 C 38.5 48.058594 36.542969 49.953125 36.429688 50.582031 C 36.320313 51.214844 38.605469 52.246094 40.019531 51.914063 C 40.019531 51.9375 38.5 48.5 38.5 48.058594 Z M 38.5 48.058594 "/>
</g>
</svg>
