<?xml version="1.0" encoding="UTF-8"?>
<svg xmlns="http://www.w3.org/2000/svg" xmlns:xlink="http://www.w3.org/1999/xlink" width="70pt" height="70pt" viewBox="0 0 70 70" version="1.1">
<defs>
<filter id="alpha" filterUnits="objectBoundingBox" x="0%" y="0%" width="100%" height="100%">
  <feColorMatrix type="matrix" in="SourceGraphic" values="0 0 0 0 1 0 0 0 0 1 0 0 0 0 1 0 0 0 1 0"/>
</filter>
<mask id="mask0">
  <g filter="url(#alpha)">
<rect x="0" y="0" width="70" height="70" style="fill:rgb(0,0,0);fill-opacity:0.14902;stroke:none;"/>
  </g>
</mask>
<clipPath id="clip1">
  <rect x="0" y="0" width="70" height="70"/>
</clipPath>
<g id="surface5" clip-path="url(#clip1)">
<path style=" stroke:none;fill-rule:nonzero;fill:rgb(255,255,255);fill-opacity:1;" d="M 25.878906 69.5625 L 26.238281 69.5625 C 40.730469 69.5625 52.480469 65.308594 52.480469 60.058594 L 52.480469 9.503906 L 25.878906 9.503906 Z M 25.878906 69.5625 "/>
</g>
</defs>
<g id="surface1">
<path style=" stroke:none;fill-rule:nonzero;fill:rgb(0,102,178);fill-opacity:1;" d="M 0 9.503906 L 0 60.058594 C 0 65.308594 11.75 69.5625 26.238281 69.5625 L 26.238281 9.503906 Z M 0 9.503906 "/>
<path style=" stroke:none;fill-rule:nonzero;fill:rgb(0,102,178);fill-opacity:1;" d="M 25.878906 69.5625 L 26.238281 69.5625 C 40.730469 69.5625 52.480469 65.308594 52.480469 60.058594 L 52.480469 9.503906 L 25.878906 9.503906 Z M 25.878906 69.5625 "/>
<use xlink:href="#surface5" mask="url(#mask0)"/>
<path style=" stroke:none;fill-rule:nonzero;fill:rgb(255,255,255);fill-opacity:1;" d="M 52.480469 9.503906 C 52.480469 14.75 40.730469 19.007813 26.238281 19.007813 C 11.75 19.007813 0 14.75 0 9.503906 C 0 4.253906 11.75 0 26.238281 0 C 40.730469 0 52.480469 4.253906 52.480469 9.503906 "/>
<path style=" stroke:none;fill-rule:nonzero;fill:rgb(39,163,255);fill-opacity:1;" d="M 47.117188 8.957031 C 47.117188 12.421875 37.769531 15.226563 26.238281 15.226563 C 14.710938 15.226563 5.363281 12.421875 5.363281 8.957031 C 5.363281 5.492188 14.710938 2.683594 26.238281 2.683594 C 37.769531 2.683594 47.117188 5.492188 47.117188 8.957031 "/>
<path style=" stroke:none;fill-rule:nonzero;fill:rgb(115,195,255);fill-opacity:1;" d="M 42.742188 12.789063 C 45.476563 11.726563 47.117188 10.402344 47.117188 8.957031 C 47.117188 5.492188 37.769531 2.6875 26.238281 2.6875 C 14.710938 2.6875 5.363281 5.492188 5.363281 8.957031 C 5.363281 10.402344 7.007813 11.726563 9.738281 12.789063 C 13.554688 11.304688 19.519531 10.351563 26.238281 10.351563 C 32.960938 10.351563 38.921875 11.304688 42.742188 12.789063 "/>
<path style=" stroke:none;fill-rule:nonzero;fill:rgb(255,255,255);fill-opacity:1;" d="M 17.90625 43.195313 C 17.90625 44.765625 17.335938 45.984375 16.195313 46.84375 C 15.058594 47.707031 13.484375 48.140625 11.472656 48.140625 C 9.765625 48.140625 8.335938 47.832031 7.1875 47.214844 L 7.1875 43.519531 C 8.511719 44.644531 9.972656 45.207031 11.566406 45.207031 C 12.335938 45.207031 12.929688 45.050781 13.351563 44.742188 C 13.769531 44.4375 13.980469 44.027344 13.980469 43.519531 C 13.980469 43.019531 13.777344 42.582031 13.375 42.214844 C 12.96875 41.84375 12.148438 41.367188 10.910156 40.78125 C 8.382813 39.597656 7.121094 37.980469 7.121094 35.933594 C 7.121094 34.445313 7.671875 33.253906 8.773438 32.359375 C 9.871094 31.460938 11.335938 31.011719 13.160156 31.011719 C 14.777344 31.011719 16.117188 31.226563 17.179688 31.648438 L 17.179688 35.101563 C 16.0625 34.332031 14.792969 33.945313 13.367188 33.945313 C 12.652344 33.945313 12.085938 34.097656 11.671875 34.402344 C 11.273438 34.675781 11.039063 35.132813 11.046875 35.617188 C 11.046875 36.140625 11.214844 36.570313 11.550781 36.90625 C 11.886719 37.242188 12.574219 37.65625 13.613281 38.148438 C 15.160156 38.878906 16.261719 39.621094 16.921875 40.378906 C 17.578125 41.132813 17.90625 42.074219 17.90625 43.195313 Z M 35.722656 39.453125 C 35.722656 41.402344 35.28125 43.09375 34.394531 44.523438 C 33.507813 45.957031 32.261719 46.960938 30.65625 47.539063 L 35.457031 51.984375 L 30.609375 51.984375 L 27.179688 48.140625 C 25.707031 48.085938 24.382813 47.695313 23.199219 46.972656 C 22.019531 46.25 21.105469 45.257813 20.460938 44 C 19.820313 42.742188 19.496094 41.335938 19.496094 39.789063 C 19.496094 38.074219 19.847656 36.542969 20.542969 35.199219 C 21.238281 33.855469 22.21875 32.820313 23.480469 32.097656 C 24.742188 31.375 26.191406 31.011719 27.824219 31.011719 C 29.347656 31.011719 30.710938 31.363281 31.917969 32.0625 C 33.121094 32.765625 34.054688 33.761719 34.722656 35.054688 C 35.390625 36.347656 35.722656 37.816406 35.722656 39.453125 Z M 31.796875 39.664063 C 31.796875 37.984375 31.433594 36.660156 30.699219 35.683594 C 29.96875 34.710938 28.96875 34.222656 27.699219 34.222656 C 26.402344 34.222656 25.371094 34.710938 24.589844 35.6875 C 23.8125 36.667969 23.425781 37.96875 23.425781 39.59375 C 23.425781 41.210938 23.804688 42.5 24.566406 43.464844 C 25.332031 44.433594 26.339844 44.914063 27.605469 44.914063 C 28.890625 44.914063 29.910156 44.445313 30.664063 43.511719 C 31.421875 42.578125 31.796875 41.292969 31.796875 39.664063 Z M 48.324219 47.851563 L 38.460938 47.851563 L 38.460938 31.292969 L 42.191406 31.292969 L 42.191406 44.824219 L 48.324219 44.824219 Z M 48.324219 47.851563 "/>
<path style=" stroke:none;fill-rule:nonzero;fill:rgb(65,174,255);fill-opacity:1;" d="M 49.355469 68.71875 L 52.328125 70 L 52.644531 69.628906 L 55.023438 66.832031 L 57.429688 66.84375 L 60.191406 70 L 63.179688 68.757813 L 63.148438 68.273438 L 62.890625 64.570313 L 64.605469 62.84375 L 68.746094 63.078125 L 70 60.046875 L 69.640625 59.726563 L 66.894531 57.292969 L 66.910156 54.832031 L 70 52.011719 L 68.785156 48.960938 L 68.308594 48.996094 L 64.683594 49.257813 L 62.996094 47.507813 L 63.226563 43.28125 L 60.25 42 L 59.9375 42.371094 L 57.554688 45.171875 L 55.148438 45.15625 L 52.382813 42.003906 L 49.394531 43.242188 L 49.429688 43.730469 L 49.683594 47.429688 L 47.972656 49.15625 L 43.835938 48.921875 L 42.578125 51.953125 L 42.941406 52.273438 L 45.683594 54.703125 L 45.667969 57.164063 L 42.578125 59.984375 L 43.792969 63.035156 L 44.273438 63 L 47.894531 62.742188 L 49.585938 64.492188 Z M 50.207031 53.378906 C 51.625 49.945313 55.496094 48.339844 58.855469 49.789063 C 62.21875 51.238281 63.789063 55.1875 62.375 58.621094 C 60.957031 62.050781 57.082031 63.65625 53.722656 62.210938 C 50.363281 60.761719 48.789063 56.8125 50.207031 53.378906 "/>
</g>
</svg>
