<?xml version="1.0" encoding="utf-8"?><svg version="1.1" xmlns="http://www.w3.org/2000/svg" xmlns:xlink="http://www.w3.org/1999/xlink" xmlns:xml="http://www.w3.org/XML/1998/namespace" width="70" height="70" viewBox="0, 0, 18, 18" id="b1cfe86c-f00b-4507-bce2-50d07e45fe96"><defs><linearGradient x1="0.5" y1="10.04" x2="13.18" y2="10.04" gradientUnits="userSpaceOnUse" id="b39dcf83-187e-4c64-98df-431bb60809d2"><stop offset="0%" stop-color="#005BA1" /><stop offset="7%" stop-color="#0060A9" /><stop offset="36%" stop-color="#0071C8" /><stop offset="52%" stop-color="#0078D4" /><stop offset="64%" stop-color="#0074CD" /><stop offset="82%" stop-color="#006ABB" /><stop offset="100%" stop-color="#005BA1" /></linearGradient></defs><title>Icon-databases-132</title><path d="M6.84 5.09 c-3.5 0 -6.34 -1 -6.34 -2.3 V15 c0 1.26 2.79 2.28 6.25 2.3 h0.09 c3.5 0 6.34 -1 6.34 -2.3 V2.79 C13.18 4.06 10.34 5.09 6.84 5.09 Z" style="fill:url(#b39dcf83-187e-4c64-98df-431bb60809d2);" /><path d="M13.18 2.79 c0 1.27 -2.84 2.3 -6.34 2.3 S0.5 4.06 0.5 2.79 S3.34 0.49 6.84 0.49 s6.34 1 6.34 2.3" style="fill:#E8E8E8;" /><path d="M11.7 2.6 c0 0.81 -2.18 1.46 -4.86 1.46 S2 3.41 2 2.6 S4.16 1.14 6.84 1.14 S11.7 1.8 11.7 2.6" style="fill:#50E6FF;" /><path d="M6.84 2.94 A12 12 0 0 0 3 3.49 a11.25 11.25 0 0 0 3.85 0.57 a11.25 11.25 0 0 0 3.85 -0.57 A12 12 0 0 0 6.84 2.94 Z" style="fill:#198AB3;" /><path d="M10.74 11.1 V7.72 H9.81 v4.14 h2.46 V11.1 Z M3.59 9.43 a1.92 1.92 0 0 1 -0.51 -0.31 A0.44 0.44 0 0 1 3 8.8 a0.38 0.38 0 0 1 0.16 -0.31 a0.72 0.72 0 0 1 0.42 -0.11 a1.67 1.67 0 0 1 1 0.29 V7.81 a2.67 2.67 0 0 0 -1 -0.16 A1.74 1.74 0 0 0 2.38 8 a1.13 1.13 0 0 0 -0.41 0.9 c0 0.51 0.32 0.91 1 1.21 a2.9 2.9 0 0 1 0.61 0.36 a0.4 0.4 0 0 1 0.16 0.32 a0.38 0.38 0 0 1 -0.16 0.31 a0.75 0.75 0 0 1 -0.45 0.12 A1.6 1.6 0 0 1 2 10.77 v0.93 a2.29 2.29 0 0 0 1.07 0.23 a2 2 0 0 0 1.18 -0.32 a1.1 1.1 0 0 0 0.43 -0.92 a1 1 0 0 0 -0.25 -0.7 A2.42 2.42 0 0 0 3.59 9.43 Z M8.79 11 a2.4 2.4 0 0 0 0.33 -1.27 a2.32 2.32 0 0 0 -0.25 -1.1 a1.81 1.81 0 0 0 -0.7 -0.75 a2 2 0 0 0 -1 -0.26 a2.18 2.18 0 0 0 -1.09 0.27 a1.87 1.87 0 0 0 -0.73 0.77 a2.41 2.41 0 0 0 -0.26 1.15 a2.26 2.26 0 0 0 0.24 1.05 a1.83 1.83 0 0 0 0.68 0.75 a2 2 0 0 0 1 0.29 l0.85 1 H9.05 l-1.2 -1.11 A1.81 1.81 0 0 0 8.79 11 Z m-0.93 -0.26 a1 1 0 0 1 -1.53 0 a1.51 1.51 0 0 1 -0.28 -1 a1.48 1.48 0 0 1 0.29 -1 a0.92 0.92 0 0 1 0.78 -0.37 a0.89 0.89 0 0 1 0.75 0.37 a1.62 1.62 0 0 1 0.27 1 A1.46 1.46 0 0 1 7.86 10.77 Z" style="fill:#F2F2F2;" /><path d="M14.81 17.49 l0.24 -0.79 l0.47 -0.27 l0.81 0.36 l0.52 -0.53 V16.2 l-0.37 -0.71 l0.22 -0.5 l0.81 -0.29 l0.09 0 v-0.73 l-0.1 0 l-0.8 -0.24 l-0.26 -0.46 l0.35 -0.82 l-0.53 -0.51 H16.2 l-0.71 0.36 L15 12 l-0.32 -0.89 h-0.74 l0 0.11 l-0.24 0.79 l-0.51 0.22 l-0.87 -0.4 l-0.51 0.53 l0.05 0.1 l0.38 0.74 l-0.2 0.51 L11.1 14 v0.74 l0.11 0 l0.79 0.24 l0.22 0.51 l-0.39 0.86 l0.53 0.52 l0.09 -0.05 l0.74 -0.38 l0.51 0.2 l0.34 0.89 h0.73 Z m-1.2 -2.36 a1.06 1.06 0 1 1 1.49 -1.52 a1.06 1.06 0 0 1 -1.49 1.52 Z" style="fill:#949494;" /></svg>