<?xml version="1.0" encoding="UTF-8"?>
<svg xmlns="http://www.w3.org/2000/svg" xmlns:xlink="http://www.w3.org/1999/xlink" width="51pt" height="70pt" viewBox="0 0 51 70" version="1.1">
<defs>
<filter id="alpha" filterUnits="objectBoundingBox" x="0%" y="0%" width="100%" height="100%">
  <feColorMatrix type="matrix" in="SourceGraphic" values="0 0 0 0 1 0 0 0 0 1 0 0 0 0 1 0 0 0 1 0"/>
</filter>
<mask id="mask0">
  <g filter="url(#alpha)">
<rect x="0" y="0" width="51" height="70" style="fill:rgb(0%,0%,0%);fill-opacity:0.14902;stroke:none;"/>
  </g>
</mask>
<clipPath id="clip1">
  <rect x="0" y="0" width="51" height="70"/>
</clipPath>
<g id="surface5" clip-path="url(#clip1)">
<path style=" stroke:none;fill-rule:nonzero;fill:rgb(100%,100%,100%);fill-opacity:1;" d="M 25.480469 69.5625 L 25.835938 69.5625 C 40.101563 69.5625 51.667969 65.308594 51.667969 60.058594 L 51.667969 9.503906 L 25.480469 9.503906 Z M 25.480469 69.5625 "/>
</g>
</defs>
<g id="surface1">
<path style=" stroke:none;fill-rule:nonzero;fill:rgb(0%,44.705882%,77.647059%);fill-opacity:1;" d="M 0 9.503906 L 0 60.058594 C 0 65.308594 11.566406 69.5625 25.835938 69.5625 L 25.835938 9.503906 C 25.835938 9.503906 0 9.503906 0 9.503906 Z M 0 9.503906 "/>
<path style=" stroke:none;fill-rule:nonzero;fill:rgb(0%,44.705882%,77.647059%);fill-opacity:1;" d="M 25.480469 69.5625 L 25.835938 69.5625 C 40.101563 69.5625 51.667969 65.308594 51.667969 60.058594 L 51.667969 9.503906 L 25.480469 9.503906 Z M 25.480469 69.5625 "/>
<use xlink:href="#surface5" mask="url(#mask0)"/>
<path style=" stroke:none;fill-rule:nonzero;fill:rgb(100%,100%,100%);fill-opacity:1;" d="M 51.667969 9.503906 C 51.667969 14.75 40.101563 19.007813 25.835938 19.007813 C 11.566406 19.007813 0 14.75 0 9.503906 C 0 4.253906 11.566406 0 25.835938 0 C 40.101563 0 51.667969 4.253906 51.667969 9.503906 "/>
<path style=" stroke:none;fill-rule:nonzero;fill:rgb(49.803922%,72.941176%,0%);fill-opacity:1;" d="M 46.386719 8.957031 C 46.386719 12.421875 37.1875 15.226563 25.835938 15.226563 C 14.484375 15.226563 5.28125 12.421875 5.28125 8.957031 C 5.28125 5.492188 14.484375 2.683594 25.835938 2.683594 C 37.1875 2.683594 46.386719 5.492188 46.386719 8.957031 "/>
<path style=" stroke:none;fill-rule:nonzero;fill:rgb(72.156863%,83.137255%,19.607843%);fill-opacity:1;" d="M 42.082031 12.789063 C 44.773438 11.726563 46.390625 10.402344 46.390625 8.957031 C 46.390625 5.492188 37.1875 2.6875 25.835938 2.6875 C 14.484375 2.6875 5.28125 5.492188 5.28125 8.957031 C 5.28125 10.402344 6.898438 11.726563 9.589844 12.789063 C 13.347656 11.304688 19.21875 10.351563 25.835938 10.351563 C 32.453125 10.351563 38.320313 11.304688 42.082031 12.789063 "/>
<path style=" stroke:none;fill-rule:nonzero;fill:rgb(100%,100%,100%);fill-opacity:1;" d="M 17.628906 44.59375 C 17.628906 46.167969 17.070313 47.382813 15.945313 48.246094 C 14.824219 49.109375 13.273438 49.539063 11.296875 49.539063 C 9.613281 49.539063 8.207031 49.230469 7.078125 48.613281 L 7.078125 44.917969 C 8.382813 46.042969 9.816406 46.605469 11.386719 46.605469 C 12.144531 46.605469 12.730469 46.453125 13.144531 46.144531 C 13.558594 45.835938 13.765625 45.429688 13.765625 44.917969 C 13.765625 44.417969 13.566406 43.984375 13.167969 43.613281 C 12.769531 43.246094 11.960938 42.765625 10.742188 42.183594 C 8.253906 40.996094 7.011719 39.378906 7.011719 37.332031 C 7.011719 35.847656 7.550781 34.65625 8.636719 33.757813 C 9.71875 32.863281 11.160156 32.414063 12.957031 32.414063 C 14.546875 32.414063 15.867188 32.625 16.914063 33.046875 L 16.914063 36.5 C 15.816406 35.730469 14.5625 35.347656 13.164063 35.347656 C 12.457031 35.347656 11.902344 35.496094 11.492188 35.800781 C 11.082031 36.105469 10.878906 36.511719 10.878906 37.019531 C 10.878906 37.542969 11.042969 37.972656 11.371094 38.308594 C 11.703125 38.640625 12.378906 39.054688 13.402344 39.546875 C 14.925781 40.28125 16.011719 41.023438 16.660156 41.777344 C 17.304688 42.535156 17.628906 43.472656 17.628906 44.59375 Z M 17.628906 44.59375 "/>
<path style=" stroke:none;fill-rule:nonzero;fill:rgb(100%,100%,100%);fill-opacity:1;" d="M 35.171875 40.855469 C 35.171875 42.800781 34.734375 44.492188 33.863281 45.925781 C 32.992188 47.355469 31.765625 48.359375 30.179688 48.9375 L 34.910156 53.386719 L 30.136719 53.386719 L 26.757813 49.539063 C 25.3125 49.484375 24.003906 49.097656 22.839844 48.371094 C 21.679688 47.652344 20.777344 46.65625 20.144531 45.398438 C 19.515625 44.140625 19.195313 42.738281 19.195313 41.1875 C 19.195313 39.472656 19.539063 37.941406 20.226563 36.597656 C 20.910156 35.253906 21.875 34.222656 23.117188 33.496094 C 24.363281 32.777344 25.785156 32.414063 27.394531 32.414063 C 28.894531 32.414063 30.238281 32.761719 31.425781 33.464844 C 32.609375 34.164063 33.53125 35.160156 34.1875 36.453125 C 34.84375 37.75 35.171875 39.214844 35.171875 40.855469 Z M 31.308594 41.0625 C 31.308594 39.386719 30.949219 38.058594 30.226563 37.085938 C 29.503906 36.109375 28.519531 35.621094 27.269531 35.621094 C 25.996094 35.621094 24.976563 36.113281 24.210938 37.089844 C 23.445313 38.066406 23.0625 39.367188 23.0625 40.992188 C 23.0625 42.609375 23.4375 43.898438 24.1875 44.867188 C 24.9375 45.832031 25.933594 46.316406 27.175781 46.316406 C 28.445313 46.316406 29.449219 45.847656 30.191406 44.910156 C 30.933594 43.976563 31.308594 42.695313 31.308594 41.0625 Z M 31.308594 41.0625 "/>
<path style=" stroke:none;fill-rule:nonzero;fill:rgb(100%,100%,100%);fill-opacity:1;" d="M 37.867188 32.691406 L 41.539063 32.691406 L 41.539063 46.226563 L 47.574219 46.226563 L 47.574219 49.25 L 37.867188 49.25 Z M 37.867188 32.691406 "/>
</g>
</svg>
