<?xml version="1.0" encoding="utf-8"?><svg version="1.1" xmlns="http://www.w3.org/2000/svg" xmlns:xlink="http://www.w3.org/1999/xlink" xmlns:xml="http://www.w3.org/XML/1998/namespace" width="70" height="70" viewBox="0, 0, 18, 18" id="a4c0a6df-707e-4ae7-9b86-742e4f9651e0"><defs><linearGradient x1="9.5" y1="7.37" x2="17.5" y2="7.37" gradientUnits="userSpaceOnUse" id="ac420e47-f190-46df-ab14-7e1f8fa3a93d"><stop offset="0%" stop-color="#005BA1" /><stop offset="7%" stop-color="#0060A9" /><stop offset="36%" stop-color="#0071C8" /><stop offset="52%" stop-color="#0078D4" /><stop offset="100%" stop-color="#005BA1" /></linearGradient><linearGradient x1="0.5" y1="7.37" x2="8.5" y2="7.37" gradientUnits="userSpaceOnUse" id="a51ffd84-af0a-457a-abee-1f70656da56f"><stop offset="0%" stop-color="#005BA1" /><stop offset="7%" stop-color="#0060A9" /><stop offset="36%" stop-color="#0071C8" /><stop offset="52%" stop-color="#0078D4" /><stop offset="100%" stop-color="#005BA1" /></linearGradient><linearGradient x1="5" y1="11.9" x2="13" y2="11.9" gradientUnits="userSpaceOnUse" id="bbb4b87e-b1f0-4042-b6d6-9b91b5dac799"><stop offset="0%" stop-color="#005BA1" /><stop offset="7%" stop-color="#0060A9" /><stop offset="36%" stop-color="#0071C8" /><stop offset="52%" stop-color="#0078D4" /><stop offset="100%" stop-color="#005BA1" /></linearGradient></defs><title>Icon-databases-137</title><path d="M13.5 4.62 c-2.21 0 -4 -0.57 -4 -1.28 v6.79 c0 0.69 1.76 1.26 3.95 1.27 h0.05 c2.21 0 4 -0.57 4 -1.27 V3.34 C17.5 4.05 15.71 4.62 13.5 4.62 Z" style="fill:url(#ac420e47-f190-46df-ab14-7e1f8fa3a93d);" /><path d="M17.5 3.34 c0 0.71 -1.79 1.28 -4 1.28 s-4 -0.57 -4 -1.28 s1.79 -1.27 4 -1.27 s4 0.57 4 1.27" style="fill:#E8E8E8;" /><path d="M16.57 3.24 c0 0.45 -1.38 0.81 -3.07 0.81 s-3.07 -0.36 -3.07 -0.81 s1.38 -0.81 3.07 -0.81 s3.07 0.36 3.07 0.81" style="fill:#50E6FF;" /><path d="M13.5 3.43 a8.65 8.65 0 0 0 -2.43 0.3 a7.8 7.8 0 0 0 2.43 0.32 a7.8 7.8 0 0 0 2.43 -0.32 A8.65 8.65 0 0 0 13.5 3.43 Z" style="fill:#32BEDD;" /><path d="M4.5 4.62 c-2.21 0 -4 -0.57 -4 -1.28 v6.79 c0 0.69 1.76 1.26 4 1.27 h0 c2.21 0 4 -0.57 4 -1.27 V3.34 C8.5 4.05 6.71 4.62 4.5 4.62 Z" style="fill:url(#a51ffd84-af0a-457a-abee-1f70656da56f);" /><path d="M8.5 3.34 c0 0.71 -1.79 1.28 -4 1.28 s-4 -0.57 -4 -1.28 s1.79 -1.27 4 -1.27 s4 0.57 4 1.27" style="fill:#E8E8E8;" /><path d="M7.57 3.24 c0 0.45 -1.38 0.81 -3.07 0.81 s-3.07 -0.36 -3.07 -0.81 s1.38 -0.81 3.07 -0.81 s3.07 0.36 3.07 0.81" style="fill:#50E6FF;" /><path d="M4.5 3.43 a8.65 8.65 0 0 0 -2.43 0.3 a7.8 7.8 0 0 0 2.43 0.32 a7.8 7.8 0 0 0 2.43 -0.32 A8.65 8.65 0 0 0 4.5 3.43 Z" style="fill:#32BEDD;" /><g><path d="M9 9.15 c-2.21 0 -4 -0.57 -4 -1.28 v6.79 c0 0.7 1.76 1.26 3.95 1.27 H9 c2.21 0 4 -0.57 4 -1.27 V7.87 C13 8.58 11.21 9.15 9 9.15 Z" style="fill:url(#bbb4b87e-b1f0-4042-b6d6-9b91b5dac799);" /><path d="M13 7.87 c0 0.71 -1.79 1.28 -4 1.28 S5 8.58 5 7.87 S6.79 6.6 9 6.6 s4 0.57 4 1.27" style="fill:#E8E8E8;" /><path d="M12.07 7.77 c0 0.45 -1.38 0.81 -3.07 0.81 s-3.07 -0.36 -3.07 -0.81 S7.31 7 9 7 s3.07 0.36 3.07 0.81" style="fill:#50E6FF;" /><path d="M9 8 a8.65 8.65 0 0 0 -2.43 0.3 A7.8 7.8 0 0 0 9 8.58 a7.8 7.8 0 0 0 2.43 -0.32 A8.65 8.65 0 0 0 9 8 Z" style="fill:#32BEDD;" /></g></svg>