<?xml version="1.0" encoding="utf-8"?><svg version="1.1" xmlns="http://www.w3.org/2000/svg" xmlns:xlink="http://www.w3.org/1999/xlink" xmlns:xml="http://www.w3.org/XML/1998/namespace" width="70" height="70" viewBox="0, 0, 18, 18" id="fab23b23-e919-4dd4-b247-de15da1c5ef9" data-name="azure-fluent-icons"><defs><linearGradient x1="5.41" y1="17.33" x2="5.41" y2="4.61" gradientUnits="userSpaceOnUse" id="a30745b0-ad63-49cb-b0a6-bfff2ae873e7"><stop offset="0%" stop-color="#949494" /><stop offset="53%" stop-color="#A2A2A2" /><stop offset="100%" stop-color="#B3B3B3" /></linearGradient><linearGradient x1="10.04" y1="-1347.39" x2="10.04" y2="-1336.82" gradientUnits="userSpaceOnUse" gradientTransform="matrix(1, 0, 0, -1, 0, -1330)" id="a9d4c02a-89a8-4dd3-9cb4-7cc2e8933fb4"><stop offset="0%" stop-color="#0078D4" /><stop offset="16%" stop-color="#1380DA" /><stop offset="53%" stop-color="#3C91E5" /><stop offset="82%" stop-color="#559CEC" /><stop offset="100%" stop-color="#5EA0EF" /></linearGradient></defs><title>Icon-databases-138</title><g><path d="M14.32 12.76 a0.59 0.59 0 0 1 -0.57 0.57 H5.07 a0.57 0.57 0 0 1 -0.57 -0.57 V1.18 A0.55 0.55 0 0 1 5.05 0.61 h8.7 a0.57 0.57 0 0 1 0.57 0.57 Z" style="fill:#777777;" /><path d="M12.32 14.76 a0.59 0.59 0 0 1 -0.57 0.57 H3.07 a0.57 0.57 0 0 1 -0.57 -0.57 V3.18 a0.55 0.55 0 0 1 0.55 -0.57 h8.7 a0.57 0.57 0 0 1 0.57 0.57 Z" style="fill:#999999;" /><path d="M10.32 16.76 a0.59 0.59 0 0 1 -0.57 0.57 H1.07 a0.58 0.58 0 0 1 -0.57 -0.57 V5.18 a0.55 0.55 0 0 1 0.55 -0.57 h8.7 a0.57 0.57 0 0 1 0.57 0.57 Z" style="fill:url(#a30745b0-ad63-49cb-b0a6-bfff2ae873e7);" /><path d="M1.94 7.31 A1.06 1.06 0 0 1 3 6.24 H7.9 a1.07 1.07 0 0 1 1.1 1 v0 H9 A1.08 1.08 0 0 1 7.92 8.37 H3 A1.08 1.08 0 0 1 1.94 7.31 Z" style="fill:#003067;" /><circle cx="3.06" cy="7.31" r="0.72" style="fill:#50E6FF;" /><path d="M17.5 14.08 a3.35 3.35 0 0 0 -2.91 -3.22 a4.21 4.21 0 0 0 -4.35 -4 A4.31 4.31 0 0 0 6.1 9.64 a4 4 0 0 0 -3.52 3.85 a4.06 4.06 0 0 0 4.2 3.9 h7.39 A3.38 3.38 0 0 0 17.5 14.08 Z" style="fill:url(#a9d4c02a-89a8-4dd3-9cb4-7cc2e8933fb4);" /><path d="M13.61 14.45 V11.09 h-0.93 v4.12 h2.45 v-0.76 Z M6.51 12.8 A2.67 2.67 0 0 1 6 12.49 a0.47 0.47 0 0 1 -0.12 -0.32 a0.32 0.32 0 0 1 0.15 -0.3 a0.63 0.63 0 0 1 0.42 -0.12 a1.68 1.68 0 0 1 1 0.29 v-0.86 a2.82 2.82 0 0 0 -1 -0.15 a1.7 1.7 0 0 0 -1.09 0.33 a1.08 1.08 0 0 0 -0.41 0.89 a1.35 1.35 0 0 0 0.94 1.2 a2.51 2.51 0 0 1 0.61 0.36 a0.42 0.42 0 0 1 0.15 0.32 a0.33 0.33 0 0 1 -0.15 0.3 a0.78 0.78 0 0 1 -0.45 0.12 A1.61 1.61 0 0 1 5 14.13 v0.92 a2.28 2.28 0 0 0 1 0.23 A1.93 1.93 0 0 0 7.15 15 a1.06 1.06 0 0 0 0.43 -0.91 a1 1 0 0 0 -0.25 -0.7 A2.26 2.26 0 0 0 6.51 12.8 Z m5.16 1.58 A2.33 2.33 0 0 0 12 13.12 A2.27 2.27 0 0 0 11.75 12 a1.7 1.7 0 0 0 -0.69 -0.74 A1.88 1.88 0 0 0 10 11 a2.1 2.1 0 0 0 -1 0.29 a1.87 1.87 0 0 0 -0.73 0.77 A2.49 2.49 0 0 0 8 13.2 a2.28 2.28 0 0 0 0.24 1.05 a1.86 1.86 0 0 0 0.68 0.74 a2.07 2.07 0 0 0 1 0.29 l0.85 1 H12 l-1.19 -1.1 A1.82 1.82 0 0 0 11.67 14.38 Z m-0.93 -0.25 a0.93 0.93 0 0 1 -0.76 0.35 a0.92 0.92 0 0 1 -0.75 -0.36 a1.5 1.5 0 0 1 -0.28 -1 a1.43 1.43 0 0 1 0.29 -1 a0.93 0.93 0 0 1 0.77 -0.37 a0.87 0.87 0 0 1 0.74 0.37 a1.48 1.48 0 0 1 0.28 1 A1.47 1.47 0 0 1 10.74 14.13 Z" style="fill:#F2F2F2;" /></g></svg>