<?xml version="1.0" encoding="UTF-8"?>
<svg xmlns="http://www.w3.org/2000/svg" xmlns:xlink="http://www.w3.org/1999/xlink" width="70pt" height="68pt" viewBox="0 0 70 68" version="1.1">
<g id="surface1">
<path style=" stroke:none;fill-rule:nonzero;fill:rgb(0%,43.529412%,83.137255%);fill-opacity:1;" d="M 69.167969 40.46875 L 69.167969 23.882813 L 50.167969 40.300781 L 49.667969 40.300781 L 49.667969 23.882813 L 30.667969 40.300781 L 30.667969 5.804688 C 30.667969 2.984375 24.167969 0 15.667969 0 C 7.167969 0 0 2.820313 0 5.804688 L 0 68.496094 L 69.167969 68.496094 Z M 15.667969 8.625 C 9.5 8.625 4.5 7.132813 4.5 5.472656 C 4.5 3.816406 9.5 2.320313 15.667969 2.320313 C 21.832031 2.320313 26.832031 3.648438 26.832031 5.472656 C 26.832031 7.132813 21.832031 8.625 15.667969 8.625 Z M 48.332031 57.550781 L 40.667969 57.550781 L 40.667969 49.921875 L 48.332031 49.921875 Z M 35 57.550781 L 27.332031 57.550781 L 27.332031 49.921875 L 35 49.921875 Z M 54.332031 57.550781 L 54.332031 49.921875 L 62 49.921875 L 62 57.550781 Z M 54.332031 57.550781 "/>
</g>
</svg>
