<?xml version="1.0" encoding="UTF-8"?>
<svg xmlns="http://www.w3.org/2000/svg" xmlns:xlink="http://www.w3.org/1999/xlink" width="53pt" height="70pt" viewBox="0 0 53 70" version="1.1">
<g id="surface1">
<path style=" stroke:none;fill-rule:nonzero;fill:rgb(0,137,238);fill-opacity:1;" d="M 16.226563 0 L 48.675781 0 C 51.0625 0 53 1.957031 53 4.375 L 53 65.625 C 53 68.042969 51.0625 70 48.675781 70 L 16.226563 70 C 13.835938 70 11.898438 68.042969 11.898438 65.625 L 11.898438 4.375 C 11.898438 1.957031 13.835938 0 16.226563 0 Z M 16.226563 0 "/>
<path style=" stroke:none;fill-rule:nonzero;fill:rgb(0,0,0);fill-opacity:1;" d="M 20.550781 6.5625 C 18.164063 6.5625 16.226563 8.523438 16.226563 10.9375 C 16.226563 13.355469 18.164063 15.3125 20.550781 15.3125 L 44.347656 15.3125 C 46.738281 15.3125 48.675781 13.355469 48.675781 10.9375 C 48.675781 8.523438 46.738281 6.5625 44.347656 6.5625 Z M 20.550781 6.5625 "/>
<path style=" stroke:none;fill-rule:nonzero;fill:rgb(115,195,255);fill-opacity:1;" d="M 22.714844 10.9375 C 22.714844 12.144531 21.746094 13.125 20.550781 13.125 C 19.355469 13.125 18.390625 12.144531 18.390625 10.9375 C 18.390625 9.730469 19.355469 8.75 20.550781 8.75 C 21.746094 8.75 22.714844 9.730469 22.714844 10.9375 Z M 22.714844 10.9375 "/>
<path style=" stroke:none;fill-rule:nonzero;fill:rgb(0,0,0);fill-opacity:1;" d="M 20.550781 19.6875 C 18.164063 19.6875 16.226563 21.648438 16.226563 24.0625 C 16.226563 26.480469 18.164063 28.4375 20.550781 28.4375 L 44.347656 28.4375 C 46.738281 28.4375 48.675781 26.480469 48.675781 24.0625 C 48.675781 21.648438 46.738281 19.6875 44.347656 19.6875 Z M 20.550781 19.6875 "/>
<path style=" stroke:none;fill-rule:nonzero;fill:rgb(115,195,255);fill-opacity:1;" d="M 22.714844 24.0625 C 22.714844 25.269531 21.746094 26.25 20.550781 26.25 C 19.355469 26.25 18.390625 25.269531 18.390625 24.0625 C 18.390625 22.855469 19.355469 21.875 20.550781 21.875 C 21.746094 21.875 22.714844 22.855469 22.714844 24.0625 Z M 22.714844 24.0625 "/>
<path style=" stroke:none;fill-rule:nonzero;fill:rgb(0,0,0);fill-opacity:1;" d="M 20.550781 32.8125 C 18.164063 32.8125 16.226563 34.773438 16.226563 37.1875 C 16.226563 39.605469 18.164063 41.5625 20.550781 41.5625 L 44.347656 41.5625 C 46.738281 41.5625 48.675781 39.605469 48.675781 37.1875 C 48.675781 34.773438 46.738281 32.8125 44.347656 32.8125 Z M 20.550781 32.8125 "/>
<path style=" stroke:none;fill-rule:nonzero;fill:rgb(115,195,255);fill-opacity:1;" d="M 22.714844 37.1875 C 22.714844 38.398438 21.746094 39.375 20.550781 39.375 C 19.355469 39.375 18.390625 38.398438 18.390625 37.1875 C 18.390625 35.980469 19.355469 35 20.550781 35 C 21.746094 35 22.714844 35.980469 22.714844 37.1875 Z M 22.714844 37.1875 "/>
<path style=" stroke:none;fill-rule:nonzero;fill:rgb(255,255,255);fill-opacity:1;" d="M 45.429688 67.816406 C 49.011719 67.816406 51.917969 64.878906 51.917969 61.253906 C 51.917969 57.34375 48.574219 54.324219 44.746094 54.726563 C 46.804688 44.605469 39.175781 35.003906 28.851563 35.003906 C 22.09375 35.003906 16.296875 39.183594 13.859375 45.128906 C 6.804688 43.519531 0 48.929688 0 56.332031 C 0 62.671875 5.085938 67.816406 11.355469 67.816406 Z M 45.429688 67.816406 "/>
<path style=" stroke:none;fill-rule:nonzero;fill:rgb(193,228,255);fill-opacity:1;" d="M 44.746094 48.097656 C 43.230469 40.625 36.691406 35.003906 28.851563 35.003906 C 22.09375 35.003906 16.296875 39.183594 13.859375 45.128906 C 13.054688 44.945313 12.21875 44.847656 11.355469 44.847656 C 5.085938 44.847656 0 49.988281 0 56.332031 C 0 62.671875 5.085938 67.816406 11.355469 67.816406 L 18.992188 67.816406 C 13.902344 67.816406 9.773438 63.640625 9.773438 58.492188 C 9.773438 53.34375 13.902344 49.171875 18.992188 49.171875 C 19.691406 49.171875 20.371094 49.25 21.027344 49.398438 C 23.003906 44.574219 27.707031 41.179688 33.195313 41.179688 C 38.171875 41.179688 42.507813 43.976563 44.746094 48.097656 Z M 44.746094 48.097656 "/>
<path style=" stroke:none;fill-rule:nonzero;fill:rgb(21,155,255);fill-opacity:1;" d="M 31.367188 63.4375 C 32 63.4375 32.605469 63.300781 33.148438 63.050781 L 33.53125 63.4375 L 35.691406 63.4375 L 35.691406 61.25 L 35.3125 60.863281 C 35.558594 60.3125 35.691406 59.703125 35.691406 59.0625 L 35.691406 56.875 C 35.691406 54.460938 33.757813 52.5 31.367188 52.5 C 28.976563 52.5 27.039063 54.460938 27.039063 56.875 L 27.039063 59.0625 C 27.039063 61.480469 28.976563 63.4375 31.367188 63.4375 Z M 19.46875 52.5 C 17.679688 52.5 16.222656 53.96875 16.222656 55.78125 C 16.222656 57.59375 17.679688 59.0625 19.46875 59.0625 L 21.632813 59.0625 C 22.230469 59.0625 22.714844 59.550781 22.714844 60.15625 C 22.714844 60.761719 22.230469 61.25 21.632813 61.25 L 16.222656 61.25 L 16.222656 63.4375 L 21.632813 63.4375 C 23.425781 63.4375 24.878906 61.96875 24.878906 60.15625 C 24.878906 58.34375 23.425781 56.875 21.632813 56.875 L 19.46875 56.875 C 18.871094 56.875 18.386719 56.386719 18.386719 55.78125 C 18.386719 55.179688 18.871094 54.6875 19.46875 54.6875 L 24.878906 54.6875 L 24.878906 52.5 Z M 37.859375 52.5 L 40.019531 52.5 L 40.019531 61.25 L 44.347656 61.25 L 44.347656 63.4375 L 37.859375 63.4375 Z M 33.53125 59.0625 L 31.367188 59.0625 L 31.367188 61.25 C 30.171875 61.25 29.203125 60.269531 29.203125 59.0625 L 29.203125 56.875 C 29.203125 55.667969 30.171875 54.6875 31.367188 54.6875 C 32.5625 54.6875 33.53125 55.667969 33.53125 56.875 Z M 33.53125 59.0625 "/>
</g>
</svg>
