<?xml version="1.0" encoding="UTF-8"?>
<svg xmlns="http://www.w3.org/2000/svg" xmlns:xlink="http://www.w3.org/1999/xlink" width="70pt" height="70pt" viewBox="0 0 70 70" version="1.1">
<g id="surface1">
<path style=" stroke:none;fill-rule:nonzero;fill:rgb(34.901961%,70.588235%,85.098039%);fill-opacity:1;" d="M 69.859375 41.160156 L 69.859375 24.21875 L 50.679688 40.878906 L 50.261719 40.878906 L 50.261719 24.21875 L 31.078125 40.878906 L 31.078125 6.019531 C 31.078125 3.078125 24.5 0.140625 15.820313 0.140625 C 7.140625 0.140625 0 2.941406 0 6.019531 L 0 69.859375 L 70 69.859375 Z M 15.820313 8.820313 C 9.519531 8.820313 4.480469 7.28125 4.480469 5.601563 C 4.480469 3.921875 9.519531 2.378906 15.820313 2.378906 C 22.121094 2.378906 27.160156 3.78125 27.160156 5.601563 C 27.019531 7.28125 21.980469 8.820313 15.820313 8.820313 Z M 48.859375 58.519531 L 41.160156 58.519531 L 41.160156 50.820313 L 48.859375 50.820313 Z M 35.28125 58.519531 L 27.578125 58.519531 L 27.578125 50.820313 L 35.28125 50.820313 Z M 54.878906 58.519531 L 54.878906 50.820313 L 62.578125 50.820313 L 62.578125 58.519531 Z M 54.878906 58.519531 "/>
<path style=" stroke:none;fill-rule:nonzero;fill:rgb(22.352941%,60%,77.647059%);fill-opacity:1;" d="M 0 5.601563 L 15.539063 5.601563 L 15.539063 69.859375 L 0 69.859375 Z M 0 5.601563 "/>
<path style=" stroke:none;fill-rule:nonzero;fill:rgb(100%,100%,100%);fill-opacity:1;" d="M 30.941406 5.601563 C 30.941406 8.679688 23.941406 11.199219 15.398438 11.199219 C 6.859375 11.199219 0 8.679688 0 5.601563 C 0 2.519531 7 0 15.539063 0 C 24.078125 0 30.941406 2.378906 30.941406 5.601563 "/>
<path style=" stroke:none;fill-rule:nonzero;fill:rgb(49.803922%,72.941176%,0%);fill-opacity:1;" d="M 27.859375 5.179688 C 27.859375 7.28125 22.398438 8.820313 15.539063 8.820313 C 8.679688 8.820313 3.21875 7.28125 3.21875 5.179688 C 3.21875 3.078125 8.679688 1.539063 15.539063 1.539063 C 22.398438 1.539063 27.859375 3.21875 27.859375 5.179688 "/>
<path style=" stroke:none;fill-rule:nonzero;fill:rgb(72.156863%,83.137255%,19.607843%);fill-opacity:1;" d="M 25.199219 7.421875 C 26.878906 6.859375 27.71875 6.019531 27.71875 5.179688 C 27.71875 3.078125 22.261719 1.539063 15.398438 1.539063 C 8.539063 1.539063 3.078125 3.21875 3.078125 5.179688 C 3.21875 6.019531 4.199219 6.859375 5.738281 7.421875 C 7.980469 6.578125 11.480469 6.019531 15.539063 6.019531 C 19.460938 6.019531 22.960938 6.578125 25.199219 7.421875 "/>
</g>
</svg>
