<?xml version="1.0" encoding="UTF-8"?>
<svg xmlns="http://www.w3.org/2000/svg" xmlns:xlink="http://www.w3.org/1999/xlink" width="52pt" height="70pt" viewBox="0 0 52 70" version="1.1">
<g id="surface1">
<path style=" stroke:none;fill-rule:nonzero;fill:rgb(0,57,100);fill-opacity:1;" d="M 0.0625 9.550781 L 0.0625 60.386719 C 0.0625 65.726563 11.660156 69.9375 25.90625 69.9375 L 25.90625 9.550781 Z M 0.0625 9.550781 "/>
<path style=" stroke:none;fill-rule:nonzero;fill:rgb(0,82,144);fill-opacity:1;" d="M 25.660156 70 L 26.09375 70 C 40.464844 70 51.9375 65.789063 51.9375 60.449219 L 51.9375 9.550781 L 25.660156 9.550781 Z M 25.660156 70 "/>
<path style=" stroke:none;fill-rule:nonzero;fill:rgb(255,255,255);fill-opacity:1;" d="M 51.9375 9.550781 C 51.9375 14.765625 40.339844 19.101563 26.09375 19.101563 C 11.84375 19.101563 0.0625 14.765625 0.0625 9.550781 C 0.0625 4.335938 11.660156 0 25.90625 0 C 40.15625 0 51.9375 4.398438 51.9375 9.550781 "/>
<path style=" stroke:none;fill-rule:nonzero;fill:rgb(39,163,255);fill-opacity:1;" d="M 46.695313 8.984375 C 46.695313 12.503906 37.441406 15.332031 26.09375 15.332031 C 14.742188 15.332031 5.304688 12.566406 5.304688 8.984375 C 5.304688 5.402344 14.558594 2.640625 25.90625 2.640625 C 37.257813 2.640625 46.695313 5.464844 46.695313 8.984375 "/>
<path style=" stroke:none;fill-rule:nonzero;fill:rgb(113,194,255);fill-opacity:1;" d="M 42.253906 12.820313 C 45.027344 11.6875 46.570313 10.429688 46.570313 8.984375 C 46.570313 5.464844 37.320313 2.640625 25.96875 2.640625 C 14.621094 2.640625 5.304688 5.464844 5.304688 8.984375 C 5.304688 10.367188 6.972656 11.8125 9.625 12.820313 C 13.386719 11.246094 19.308594 10.429688 25.96875 10.429688 C 32.632813 10.429688 38.492188 11.4375 42.253906 12.820313 "/>
<path style=" stroke:none;fill-rule:nonzero;fill:rgb(255,255,255);fill-opacity:1;" d="M 4.070313 51.972656 C 4.070313 51.972656 6.238281 50.980469 6.890625 50.980469 C 6.890625 50.980469 9.273438 50.644531 10.355469 50.644531 C 11.441406 50.644531 12.398438 49.765625 13.175781 48.546875 C 13.953125 47.328125 17.074219 43.691406 20.652344 42.890625 C 24.230469 42.09375 29.757813 41.234375 32.792969 37.148438 C 35.824219 33.066406 37.449219 28.207031 42.113281 27.988281 C 46.773438 27.765625 45.25 26.773438 46.550781 26.773438 C 47.855469 26.773438 47.09375 29.289063 47.09375 29.289063 C 47.09375 29.289063 46.664063 29.621094 46.664063 29.726563 C 46.664063 29.835938 46.324219 31.21875 43.949219 32.675781 C 41.574219 34.132813 41.480469 37.53125 41.242188 38.957031 C 41 40.386719 38.859375 47.347656 36.691406 49.226563 L 36.148438 49.445313 C 36.148438 49.445313 35.929688 50 35.714844 50.105469 C 35.5 50.210938 34.957031 49.667969 34.84375 49.445313 C 34.734375 49.226563 33.757813 51.332031 33.4375 51.765625 C 32.011719 54.132813 29.546875 55.65625 26.828125 55.847656 C 26.828125 55.847656 30.402344 49.777344 30.078125 47.566406 C 29.675781 48.34375 29.351563 49.152344 29.101563 49.992188 C 29.101563 50.433594 28.34375 51.320313 27.152344 51.425781 C 25.964844 51.53125 18.375 49.660156 15.238281 51.425781 C 12.097656 53.191406 10.796875 54.738281 9.066406 54.851563 C 7.339844 54.964844 5.601563 54.964844 4.949219 54.628906 C 4.949219 54.628906 6.355469 53.085938 6.464844 52.863281 C 6.453125 52.859375 4.378906 53.296875 4.070313 51.972656 Z M 4.070313 51.972656 "/>
<path style=" stroke:none;fill-rule:nonzero;fill:rgb(0,57,100);fill-opacity:1;" d="M 46.769531 29.671875 L 47.09375 29.339844 C 47.09375 29.339844 45.578125 28.898438 45.144531 27.792969 C 45.085938 27.933594 45.085938 28.09375 45.144531 28.234375 C 45.605469 28.800781 46.152344 29.285156 46.769531 29.671875 Z M 40.046875 30.789063 C 40.046875 30.789063 40.691406 29.246094 42.105469 29.578125 C 42.230469 29.898438 42.203125 30.261719 42.035156 30.5625 C 41.863281 30.863281 41.570313 31.070313 41.234375 31.121094 C 40.8125 31.183594 40.378906 31.0625 40.046875 30.789063 Z M 40.046875 30.789063 "/>
<path style="fill-rule:nonzero;fill:rgb(255,255,255);fill-opacity:1;stroke-width:0.5;stroke-linecap:butt;stroke-linejoin:miter;stroke:rgb(0,57,100);stroke-opacity:1;stroke-miterlimit:10;" d="M 72.732587 46.002232 C 72.732587 46.002232 70.801072 48.638036 70.61742 49.688627 M 73.080893 46.518203 C 72.523603 47.593661 72.054973 48.712634 71.66867 49.86269 M 73.258212 46.518203 C 72.909906 47.599877 72.732587 48.725067 72.732587 49.86269 " transform="matrix(0.616825,0,0,0.628366,0.062516,0)"/>
<path style=" stroke:none;fill-rule:nonzero;fill:rgb(255,255,255);fill-opacity:1;" d="M 38.421875 47.886719 C 38.421875 47.886719 36.472656 49.773438 36.363281 50.402344 C 36.25 51.03125 38.527344 52.058594 39.941406 51.726563 C 39.941406 51.753906 38.421875 48.328125 38.421875 47.886719 Z M 38.421875 47.886719 "/>
</g>
</svg>
