<?xml version="1.0" encoding="utf-8"?><svg version="1.1" xmlns="http://www.w3.org/2000/svg" xmlns:xlink="http://www.w3.org/1999/xlink" xmlns:xml="http://www.w3.org/XML/1998/namespace" width="70" height="70" viewBox="0, 0, 18, 18" id="a0bfe492-1579-433c-8ece-4b967fa03537"><defs><linearGradient x1="0.5" y1="9.96" x2="12.43" y2="9.96" gradientUnits="userSpaceOnUse" id="a277b8e4-bda7-42ff-a227-3f8bf005decb"><stop offset="0%" stop-color="#00518E" /><stop offset="7%" stop-color="#005696" /><stop offset="36%" stop-color="#0065B0" /><stop offset="52%" stop-color="#006CBC" /><stop offset="64%" stop-color="#0067B4" /><stop offset="82%" stop-color="#005FA6" /><stop offset="100%" stop-color="#00518E" /></linearGradient><linearGradient x1="11.77" y1="17.03" x2="11.77" y2="8.9" gradientUnits="userSpaceOnUse" id="ab2c3ec1-3cb9-4ca3-b673-1a1d1ffb5675"><stop offset="0%" stop-color="#007CD8" /><stop offset="0%" stop-color="#007CD8" /><stop offset="11%" stop-color="#0394FF" /><stop offset="23%" stop-color="#25A2FF" /><stop offset="37%" stop-color="#3DACFF" /><stop offset="53%" stop-color="#49B1FF" /><stop offset="78%" stop-color="#4FB4FF" /></linearGradient></defs><title>Icon-databases-135</title><path d="M6.47 5.3 c-3.3 0 -6 -1 -6 -2.16 V14.63 c0 1.18 2.63 2.15 5.88 2.16 h0.09 c3.29 0 6 -1 6 -2.16 V3.14 C12.43 4.33 9.76 5.3 6.47 5.3 Z" style="fill:url(#a277b8e4-bda7-42ff-a227-3f8bf005decb);" /><path d="M12.43 3.14 c0 1.19 -2.67 2.16 -6 2.16 s-6 -1 -6 -2.16 S3.17 1 6.47 1 s6 1 6 2.17" style="fill:#D5EDFF;" /><path d="M11 3 c0 0.76 -2 1.37 -4.57 1.37 S1.89 3.72 1.89 3 S3.94 1.59 6.47 1.59 S11 2.2 11 3" style="fill:#77C5FF;" /><path d="M6.47 3.28 a11 11 0 0 0 -3.63 0.52 a10.89 10.89 0 0 0 3.63 0.53 a10.86 10.86 0 0 0 3.62 -0.53 A11 11 0 0 0 6.47 3.28 Z" style="fill:#007CD8;" /><path d="M16.75 12.74 A2.89 2.89 0 0 0 15.26 12 a3.24 3.24 0 0 0 -3.34 -3.1 a3.35 3.35 0 0 0 -3.2 2.17 A3.06 3.06 0 0 0 6 14 a3.12 3.12 0 0 0 3.22 3 l0.29 0 h5.23 l0.13 0 a2.61 2.61 0 0 0 2.59 -2.51 a2.46 2.46 0 0 0 -0.75 -1.74" style="fill:url(#ab2c3ec1-3cb9-4ca3-b673-1a1d1ffb5675);" /><path d="M14.3 15.8 h-0.94 V13.27 q0 -0.4 0 -0.9 h0 c0 0.25 -0.1 0.44 -0.13 0.56 l-1 2.87 h-0.78 l-1 -2.85 a4.61 4.61 0 0 1 -0.13 -0.58 h0 c0 0.41 0 0.78 0 1.09 V15.8 H9.48 V11.57 h1.4 l0.86 2.51 a3.29 3.29 0 0 1 0.15 0.6 h0 c0.05 -0.23 0.11 -0.44 0.16 -0.61 l0.87 -2.5 H14.3 Z" style="fill:white;" /></svg>