<?xml version="1.0" encoding="UTF-8"?>
<svg xmlns="http://www.w3.org/2000/svg" xmlns:xlink="http://www.w3.org/1999/xlink" width="70pt" height="70pt" viewBox="0 0 70 70" version="1.1">
<defs>
<linearGradient id="linear0" gradientUnits="userSpaceOnUse" x1="5.35" y1="7.02" x2="5.35" y2="17.19" gradientTransform="matrix(3.888889,0,0,3.888889,0,0)">
<stop offset="0" style="stop-color:rgb(101,189,255);stop-opacity:1;"/>
<stop offset="0.38" style="stop-color:rgb(93,186,255);stop-opacity:1;"/>
<stop offset="0.76" style="stop-color:rgb(69,176,255);stop-opacity:1;"/>
<stop offset="1" style="stop-color:rgb(47,166,255);stop-opacity:1;"/>
</linearGradient>
<linearGradient id="linear1" gradientUnits="userSpaceOnUse" x1="11.33" y1="15.74" x2="11.33" y2="6.99" gradientTransform="matrix(3.888889,0,0,3.888889,0,0)">
<stop offset="0" style="stop-color:rgb(0,108,188);stop-opacity:1;"/>
<stop offset="0.16" style="stop-color:rgb(0,120,210);stop-opacity:1;"/>
<stop offset="0.53" style="stop-color:rgb(1,147,255);stop-opacity:1;"/>
<stop offset="0.82" style="stop-color:rgb(31,159,255);stop-opacity:1;"/>
<stop offset="1" style="stop-color:rgb(41,164,255);stop-opacity:1;"/>
</linearGradient>
</defs>
<g id="surface1">
<path style=" stroke:none;fill-rule:nonzero;fill:rgb(41,164,255);fill-opacity:1;" d="M 30.214844 41.535156 C 30.117188 42.339844 29.394531 42.925781 28.582031 42.855469 L 3.578125 42.855469 C 2.765625 42.925781 2.046875 42.339844 1.945313 41.535156 L 1.945313 4.667969 C 2.046875 3.859375 2.765625 3.277344 3.578125 3.34375 L 28.582031 3.34375 C 29.394531 3.277344 30.117188 3.859375 30.214844 4.667969 Z M 30.214844 41.535156 "/>
<path style=" stroke:none;fill-rule:nonzero;fill:rgb(0,44,78);fill-opacity:1;" d="M 6.105469 20.222656 C 6.105469 18.527344 7.480469 17.148438 9.179688 17.148438 L 23.332031 17.148438 C 25.03125 17.148438 26.40625 18.527344 26.40625 20.222656 C 26.414063 21.042969 26.097656 21.835938 25.519531 22.417969 C 24.941406 23.003906 24.15625 23.332031 23.332031 23.332031 L 9.179688 23.332031 C 7.480469 23.332031 6.105469 21.957031 6.105469 20.261719 Z M 6.105469 20.222656 "/>
<path style=" stroke:none;fill-rule:nonzero;fill:rgb(0,44,78);fill-opacity:1;" d="M 6.105469 11.121094 C 6.09375 10.300781 6.414063 9.507813 6.992188 8.925781 C 7.570313 8.339844 8.355469 8.011719 9.179688 8.011719 L 23.332031 8.011719 C 24.15625 8.011719 24.941406 8.339844 25.519531 8.925781 C 26.097656 9.507813 26.414063 10.300781 26.40625 11.121094 C 26.40625 12.820313 25.03125 14.195313 23.332031 14.195313 L 9.179688 14.195313 C 7.480469 14.195313 6.105469 12.820313 6.105469 11.121094 Z M 6.105469 11.121094 "/>
<path style=" stroke:none;fill-rule:nonzero;fill:rgb(119,197,255);fill-opacity:1;" d="M 11.355469 11.121094 C 11.355469 12.261719 10.433594 13.183594 9.292969 13.183594 C 8.15625 13.183594 7.234375 12.261719 7.234375 11.121094 C 7.234375 9.984375 8.15625 9.0625 9.292969 9.0625 C 10.433594 9.0625 11.355469 9.984375 11.355469 11.121094 Z M 11.355469 11.121094 "/>
<path style=" stroke:none;fill-rule:nonzero;fill:rgb(119,197,255);fill-opacity:1;" d="M 11.355469 20.222656 C 11.355469 21.359375 10.433594 22.285156 9.292969 22.285156 C 8.15625 22.285156 7.234375 21.359375 7.234375 20.222656 C 7.234375 19.082031 8.15625 18.160156 9.292969 18.160156 C 10.433594 18.160156 11.355469 19.082031 11.355469 20.222656 Z M 11.355469 20.222656 "/>
<path style=" stroke:none;fill-rule:nonzero;fill:rgb(41,164,255);fill-opacity:1;" d="M 61.40625 41.339844 C 61.324219 42.164063 60.597656 42.769531 59.773438 42.699219 L 34.765625 42.699219 C 33.941406 42.769531 33.214844 42.164063 33.132813 41.339844 L 33.132813 4.511719 C 33.214844 3.6875 33.941406 3.082031 34.765625 3.148438 L 59.773438 3.148438 C 60.597656 3.082031 61.324219 3.6875 61.40625 4.511719 Z M 61.40625 41.339844 "/>
<path style=" stroke:none;fill-rule:nonzero;fill:rgb(0,44,78);fill-opacity:1;" d="M 37.292969 20.066406 C 37.292969 18.371094 38.671875 16.996094 40.367188 16.996094 L 54.445313 16.996094 C 56.140625 16.996094 57.515625 18.371094 57.515625 20.066406 C 57.570313 20.914063 57.269531 21.746094 56.6875 22.367188 C 56.105469 22.984375 55.292969 23.335938 54.445313 23.332031 L 40.367188 23.332031 C 38.671875 23.332031 37.292969 21.957031 37.292969 20.261719 Z M 37.292969 20.066406 "/>
<path style=" stroke:none;fill-rule:nonzero;fill:rgb(0,44,78);fill-opacity:1;" d="M 37.292969 10.929688 C 37.273438 10.097656 37.585938 9.296875 38.167969 8.703125 C 38.746094 8.113281 39.539063 7.777344 40.367188 7.777344 L 54.445313 7.777344 C 56.132813 7.796875 57.496094 9.160156 57.515625 10.851563 C 57.539063 11.679688 57.222656 12.480469 56.644531 13.074219 C 56.066406 13.664063 55.273438 14 54.445313 14 L 40.367188 14 C 38.671875 14 37.292969 12.625 37.292969 10.929688 Z M 37.292969 10.929688 "/>
<path style=" stroke:none;fill-rule:nonzero;fill:rgb(119,197,255);fill-opacity:1;" d="M 42.542969 10.929688 C 42.542969 12.066406 41.621094 12.988281 40.484375 12.988281 C 39.34375 12.988281 38.421875 12.066406 38.421875 10.929688 C 38.421875 9.789063 39.34375 8.867188 40.484375 8.867188 C 41.621094 8.867188 42.542969 9.789063 42.542969 10.929688 Z M 42.542969 10.929688 "/>
<path style=" stroke:none;fill-rule:nonzero;fill:rgb(119,197,255);fill-opacity:1;" d="M 42.542969 20.066406 C 42.542969 21.203125 41.621094 22.128906 40.484375 22.128906 C 39.34375 22.128906 38.421875 21.203125 38.421875 20.066406 C 38.421875 18.929688 39.34375 18.003906 40.484375 18.003906 C 41.621094 18.003906 42.542969 18.929688 42.542969 20.066406 Z M 42.542969 20.066406 "/>
<path style=" stroke:none;fill-rule:nonzero;fill:url(#linear0);" d="M 35 65.488281 C 34.917969 66.3125 34.191406 66.917969 33.367188 66.851563 L 8.320313 66.851563 C 7.496094 66.917969 6.769531 66.3125 6.6875 65.488281 L 6.6875 28.660156 C 6.707031 28.25 6.894531 27.867188 7.203125 27.597656 C 7.507813 27.324219 7.914063 27.191406 8.320313 27.222656 L 33.328125 27.222656 C 33.742188 27.179688 34.15625 27.308594 34.472656 27.582031 C 34.789063 27.851563 34.980469 28.242188 35 28.660156 Z M 35 65.488281 "/>
<path style=" stroke:none;fill-rule:nonzero;fill:rgb(0,44,78);fill-opacity:1;" d="M 10.851563 44.214844 C 10.851563 42.519531 12.226563 41.144531 13.921875 41.144531 L 28 41.144531 C 29.695313 41.144531 31.070313 42.519531 31.070313 44.214844 L 31.109375 44.214844 C 31.089844 45.90625 29.726563 47.269531 28.039063 47.289063 L 13.921875 47.289063 C 12.226563 47.289063 10.851563 45.914063 10.851563 44.214844 Z M 10.851563 44.214844 "/>
<path style=" stroke:none;fill-rule:nonzero;fill:rgb(0,44,78);fill-opacity:1;" d="M 10.851563 35 C 10.851563 33.304688 12.226563 31.929688 13.921875 31.929688 L 28 31.929688 C 28.820313 31.917969 29.613281 32.238281 30.199219 32.8125 C 30.78125 33.390625 31.109375 34.179688 31.109375 35 C 31.089844 36.6875 29.726563 38.050781 28.039063 38.070313 L 13.921875 38.070313 C 12.226563 38.070313 10.851563 36.695313 10.851563 35 Z M 10.851563 35 "/>
<path style=" stroke:none;fill-rule:nonzero;fill:rgb(119,197,255);fill-opacity:1;" d="M 16.101563 35.078125 C 16.101563 36.214844 15.175781 37.140625 14.039063 37.140625 C 12.902344 37.140625 11.976563 36.214844 11.976563 35.078125 C 11.976563 33.941406 12.902344 33.015625 14.039063 33.015625 C 15.175781 33.015625 16.101563 33.941406 16.101563 35.078125 Z M 16.101563 35.078125 "/>
<path style=" stroke:none;fill-rule:nonzero;fill:rgb(119,197,255);fill-opacity:1;" d="M 16.101563 44.214844 C 16.101563 45.355469 15.175781 46.277344 14.039063 46.277344 C 12.902344 46.277344 11.976563 45.355469 11.976563 44.214844 C 11.976563 43.078125 12.902344 42.15625 14.039063 42.15625 C 15.175781 42.15625 16.101563 43.078125 16.101563 44.214844 Z M 16.101563 44.214844 "/>
<path style=" stroke:none;fill-rule:nonzero;fill:url(#linear1);" d="M 68.054688 50.554688 C 67.890625 45.277344 63.921875 40.894531 58.683594 40.210938 C 58.367188 32.789063 52.144531 27.003906 44.722656 27.222656 C 38.800781 27.097656 33.449219 30.734375 31.382813 36.285156 C 25.074219 37.046875 20.269531 42.300781 20.066406 48.648438 C 20.363281 55.84375 26.40625 61.453125 33.601563 61.210938 L 56.660156 61.210938 C 56.855469 61.246094 57.050781 61.246094 57.246094 61.210938 C 63.136719 61.171875 67.929688 56.449219 68.054688 50.554688 Z M 68.054688 50.554688 "/>
</g>
</svg>
