<?xml version="1.0" encoding="UTF-8"?>
<svg xmlns="http://www.w3.org/2000/svg" xmlns:xlink="http://www.w3.org/1999/xlink" width="63pt" height="70pt" viewBox="0 0 63 70" version="1.1">
<g id="surface1">
<path style=" stroke:none;fill-rule:nonzero;fill:rgb(0%,47.058824%,84.313725%);fill-opacity:1;" d="M 8.34375 8.023438 C 8.34375 5.632813 16.003906 3.757813 25.539063 3.757813 C 35.074219 3.757813 42.738281 5.632813 42.738281 8.023438 C 42.738281 10.414063 35.074219 12.292969 25.539063 12.292969 C 16.003906 12.292969 8.34375 10.414063 8.34375 8.023438 Z M 23.667969 65.5625 L 23.667969 24.242188 C 23.667969 19.121094 31.671875 16.730469 43.417969 16.730469 C 46.144531 16.730469 48.699219 16.902344 51.082031 17.242188 L 51.082031 8.023438 C 51.082031 3.585938 39.671875 0 25.539063 0 C 11.40625 0 0 3.585938 0 8.023438 L 0 61.292969 C 0 65.730469 11.40625 69.316406 25.539063 69.316406 L 27.242188 69.316406 C 25.03125 68.121094 23.667969 66.925781 23.667969 65.5625 Z M 23.667969 65.5625 "/>
<path style=" stroke:none;fill-rule:nonzero;fill:rgb(0%,47.058824%,84.313725%);fill-opacity:1;" d="M 44.175781 29.847656 C 37.363281 29.847656 31.746094 28.480469 31.746094 26.773438 C 31.746094 25.066406 37.363281 23.699219 44.175781 23.699219 C 50.984375 23.699219 56.605469 25.066406 56.605469 26.773438 C 56.605469 28.480469 51.15625 29.847656 44.175781 29.847656 Z M 55.074219 47.089844 L 32.425781 65.871094 L 41.109375 51.359375 L 33.449219 51.359375 L 56.09375 32.578125 L 47.410156 47.089844 Z M 44.175781 19.945313 C 34.128906 19.945313 26.46875 22.503906 26.46875 25.578125 L 26.46875 63.824219 C 26.46875 67.066406 33.960938 69.796875 44.175781 69.796875 C 54.222656 69.796875 62.5625 67.238281 62.5625 63.992188 L 62.5625 25.75 C 62.5625 22.503906 54.390625 19.945313 44.175781 19.945313 Z M 44.175781 19.945313 "/>
</g>
</svg>
