<?xml version="1.0" encoding="UTF-8"?>
<svg xmlns="http://www.w3.org/2000/svg" xmlns:xlink="http://www.w3.org/1999/xlink" width="70pt" height="70pt" viewBox="0 0 70 70" version="1.1">
<defs>
<filter id="alpha" filterUnits="objectBoundingBox" x="0%" y="0%" width="100%" height="100%">
  <feColorMatrix type="matrix" in="SourceGraphic" values="0 0 0 0 1 0 0 0 0 1 0 0 0 0 1 0 0 0 1 0"/>
</filter>
<mask id="mask0">
  <g filter="url(#alpha)">
<rect x="0" y="0" width="70" height="70" style="fill:rgb(0%,0%,0%);fill-opacity:0.14902;stroke:none;"/>
  </g>
</mask>
<clipPath id="clip1">
  <rect x="0" y="0" width="70" height="70"/>
</clipPath>
<g id="surface5" clip-path="url(#clip1)">
<path style=" stroke:none;fill-rule:nonzero;fill:rgb(100%,100%,100%);fill-opacity:1;" d="M 47.949219 64.167969 L 48.183594 64.167969 C 56.234375 64.167969 62.765625 61.832031 62.765625 58.917969 L 62.765625 30.800781 L 47.949219 30.800781 Z M 47.949219 64.167969 "/>
</g>
</defs>
<g id="surface1">
<path style=" stroke:none;fill-rule:nonzero;fill:rgb(22.352941%,60%,77.647059%);fill-opacity:1;" d="M 5.832031 14.117188 L 5.832031 56.234375 C 5.832031 60.667969 15.632813 64.167969 27.648438 64.167969 L 27.648438 14.117188 Z M 5.832031 14.117188 "/>
<path style=" stroke:none;fill-rule:nonzero;fill:rgb(34.901961%,70.588235%,85.098039%);fill-opacity:1;" d="M 27.417969 64.167969 L 27.765625 64.167969 C 39.898438 64.167969 49.582031 60.667969 49.582031 56.234375 L 49.582031 14.117188 L 27.417969 14.117188 Z M 27.417969 64.167969 "/>
<path style=" stroke:none;fill-rule:nonzero;fill:rgb(100%,100%,100%);fill-opacity:1;" d="M 49.582031 14.117188 C 49.582031 18.433594 39.785156 22.050781 27.765625 22.050781 C 15.75 22.050781 5.832031 18.433594 5.832031 14.117188 C 5.832031 9.800781 15.632813 6.183594 27.648438 6.183594 C 39.667969 6.183594 49.582031 9.800781 49.582031 14.117188 "/>
<path style=" stroke:none;fill-rule:nonzero;fill:rgb(49.803922%,72.941176%,0%);fill-opacity:1;" d="M 45.148438 13.648438 C 45.148438 16.566406 37.332031 18.898438 27.765625 18.898438 C 18.199219 18.898438 10.265625 16.566406 10.265625 13.648438 C 10.265625 10.734375 18.082031 8.398438 27.648438 8.398438 C 37.214844 8.398438 45.148438 10.734375 45.148438 13.648438 "/>
<path style=" stroke:none;fill-rule:nonzero;fill:rgb(72.156863%,83.137255%,19.607843%);fill-opacity:1;" d="M 41.417969 16.800781 C 43.75 15.867188 45.035156 14.816406 45.035156 13.648438 C 45.035156 10.734375 37.214844 8.398438 27.648438 8.398438 C 18.082031 8.398438 10.265625 10.734375 10.265625 13.648438 C 10.265625 14.816406 11.667969 15.984375 13.882813 16.800781 C 17.035156 15.515625 22.050781 14.816406 27.648438 14.816406 C 33.25 14.816406 38.265625 15.632813 41.417969 16.800781 "/>
<path style=" stroke:none;fill-rule:nonzero;fill:rgb(0%,44.705882%,77.647059%);fill-opacity:1;" d="M 33.601563 30.800781 L 33.601563 58.917969 C 33.601563 61.832031 40.132813 64.167969 48.183594 64.167969 L 48.183594 30.800781 Z M 33.601563 30.800781 "/>
<path style=" stroke:none;fill-rule:nonzero;fill:rgb(0%,44.705882%,77.647059%);fill-opacity:1;" d="M 47.949219 64.167969 L 48.183594 64.167969 C 56.234375 64.167969 62.765625 61.832031 62.765625 58.917969 L 62.765625 30.800781 L 47.949219 30.800781 Z M 47.949219 64.167969 "/>
<use xlink:href="#surface5" mask="url(#mask0)"/>
<path style=" stroke:none;fill-rule:nonzero;fill:rgb(100%,100%,100%);fill-opacity:1;" d="M 62.765625 30.800781 C 62.765625 33.714844 56.234375 36.050781 48.183594 36.050781 C 40.132813 36.050781 33.601563 33.714844 33.601563 30.800781 C 33.601563 27.882813 40.132813 25.550781 48.183594 25.550781 C 56.234375 25.550781 62.765625 27.882813 62.765625 30.800781 "/>
<path style=" stroke:none;fill-rule:nonzero;fill:rgb(49.803922%,72.941176%,0%);fill-opacity:1;" d="M 59.734375 30.449219 C 59.734375 32.316406 54.484375 33.949219 48.183594 33.949219 C 41.882813 33.949219 36.632813 32.433594 36.632813 30.449219 C 36.632813 28.582031 41.882813 26.949219 48.183594 26.949219 C 54.484375 26.949219 59.734375 28.582031 59.734375 30.449219 "/>
<path style=" stroke:none;fill-rule:nonzero;fill:rgb(72.156863%,83.137255%,19.607843%);fill-opacity:1;" d="M 57.285156 32.550781 C 58.800781 31.964844 59.734375 31.265625 59.734375 30.449219 C 59.734375 28.582031 54.484375 26.949219 48.183594 26.949219 C 41.765625 26.949219 36.632813 28.464844 36.632813 30.449219 C 36.632813 31.265625 37.566406 31.964844 39.082031 32.550781 C 41.183594 31.734375 44.566406 31.148438 48.300781 31.148438 C 51.800781 31.148438 55.066406 31.734375 57.285156 32.550781 "/>
<path style=" stroke:none;fill-rule:nonzero;fill:rgb(100%,100%,100%);fill-opacity:1;" d="M 56.117188 47.832031 L 39.898438 61.25 L 46.199219 50.867188 L 40.714844 50.867188 L 56.933594 37.566406 L 50.632813 47.832031 Z M 56.117188 47.832031 "/>
</g>
</svg>
