<?xml version="1.0" encoding="utf-8"?><svg version="1.1" xmlns="http://www.w3.org/2000/svg" xmlns:xlink="http://www.w3.org/1999/xlink" xmlns:xml="http://www.w3.org/XML/1998/namespace" width="70" height="70" viewBox="0, 0, 18, 18" id="f9ed9690-6753-43a7-8b32-d66ac7b8a99a"><defs><linearGradient x1="0.5" y1="9.77" x2="9" y2="9.77" gradientUnits="userSpaceOnUse" id="f710a364-083f-494c-9d96-89b92ee2d5a8"><stop offset="0%" stop-color="#005BA1" /><stop offset="7%" stop-color="#0060A9" /><stop offset="36%" stop-color="#0071C8" /><stop offset="52%" stop-color="#0078D4" /><stop offset="64%" stop-color="#0074CD" /><stop offset="81%" stop-color="#006ABB" /><stop offset="99%" stop-color="#005BA1" /></linearGradient></defs><title>Icon-databases-126</title><g><path d="M13.25 10.48 V6.57 a0.14 0.14 0 0 0 -0.24 -0.1 l-4 4 L4.85 14.63 V17.5 H16.93 a0.56 0.56 0 0 0 0.57 -0.57 V6.57 a0.14 0.14 0 0 0 -0.24 -0.1 Z" style="fill:#005BA1;" /><path d="M4.75 3.58 C2.4 3.58 0.5 2.89 0.5 2 V7.67 h0 v9.26 a0.56 0.56 0 0 0 0.57 0.57 H9 V2 C9 2.89 7.1 3.58 4.75 3.58 Z" style="fill:url(#f710a364-083f-494c-9d96-89b92ee2d5a8);" /><rect x="12.91" y="12.97" width="2.27" height="2.27" rx="0.28" style="fill:white;" /><rect x="8.97" y="12.97" width="2.27" height="2.27" rx="0.28" style="fill:white;" /><rect x="5.03" y="12.97" width="2.27" height="2.27" rx="0.28" style="fill:white;" /><path d="M9 2 c0 0.85 -1.9 1.54 -4.25 1.54 S0.5 2.89 0.5 2 S2.4 0.5 4.75 0.5 S9 1.19 9 2" style="fill:#EAEAEA;" /><path d="M8 1.91 c0 0.55 -1.46 1 -3.26 1 s-3.26 -0.43 -3.26 -1 S3 0.94 4.75 0.94 S8 1.37 8 1.91" style="fill:#50E6FF;" /><path d="M4.75 2.14 a8.07 8.07 0 0 0 -2.58 0.37 a7.64 7.64 0 0 0 2.58 0.38 a7.64 7.64 0 0 0 2.58 -0.38 A8.07 8.07 0 0 0 4.75 2.14 Z" style="fill:#198AB3;" /></g></svg>