<?xml version="1.0" encoding="utf-8"?><svg version="1.1" xmlns="http://www.w3.org/2000/svg" xmlns:xlink="http://www.w3.org/1999/xlink" xmlns:xml="http://www.w3.org/XML/1998/namespace" width="70" height="70" viewBox="0, 0, 18, 18" id="eaa44e3d-16b6-4034-8ab3-28e7277dbd71"><defs><linearGradient x1="9" y1="12.46" x2="9" y2="1.18" gradientUnits="userSpaceOnUse" id="bf00b8fe-272d-44e3-922e-e394f4035f83"><stop offset="0%" stop-color="#0078D4" /><stop offset="82%" stop-color="#5EA0EF" /></linearGradient><linearGradient x1="9" y1="16.82" x2="9" y2="12.46" gradientUnits="userSpaceOnUse" id="b2b35db0-3208-44e0-aaf4-68cf95a2719b"><stop offset="15%" stop-color="#CCCCCC" /><stop offset="100%" stop-color="#707070" /></linearGradient><radialGradient cx="9.43" cy="7.03" r="7.27" gradientUnits="userSpaceOnUse" id="f2829e12-820e-4175-930d-324517daee42"><stop offset="0%" stop-color="#F2F2F2" /><stop offset="58%" stop-color="#EEEEEE" /><stop offset="100%" stop-color="#E6E6E6" /></radialGradient></defs><title>Icon-databases-124</title><g><g><rect x="0.54" y="1.18" width="16.91" height="11.27" rx="0.56" style="fill:url(#bf00b8fe-272d-44e3-922e-e394f4035f83);" /><path d="M12.39 15.87 c-1.67 -0.26 -1.74 -1.47 -1.73 -3.41 H7.34 c0 1.94 -0.06 3.15 -1.73 3.41 a1 1 0 0 0 -0.84 1 h8.46 A1 1 0 0 0 12.39 15.87 Z" style="fill:url(#b2b35db0-3208-44e0-aaf4-68cf95a2719b);" /></g><path d="M13.07 7.89 V4.41 h-1 V8.66 h2.53 V7.89 Z M5.73 6.17 a2 2 0 0 1 -0.52 -0.31 a0.45 0.45 0 0 1 -0.13 -0.34 a0.36 0.36 0 0 1 0.16 -0.31 a0.69 0.69 0 0 1 0.43 -0.11 a1.66 1.66 0 0 1 1 0.29 V4.51 a2.77 2.77 0 0 0 -1 -0.17 a1.73 1.73 0 0 0 -1.13 0.35 a1.12 1.12 0 0 0 -0.42 0.92 A1.38 1.38 0 0 0 5 6.85 a2.49 2.49 0 0 1 0.63 0.37 a0.41 0.41 0 0 1 0.16 0.33 a0.4 0.4 0 0 1 -0.16 0.32 A0.76 0.76 0 0 1 5.21 8 a1.69 1.69 0 0 1 -1.12 -0.44 v1 a2.27 2.27 0 0 0 1.1 0.24 A2 2 0 0 0 6.4 8.41 a1.12 1.12 0 0 0 0.44 -0.94 a1 1 0 0 0 -0.26 -0.72 A2.54 2.54 0 0 0 5.73 6.17 Z m5.34 1.64 a2.4 2.4 0 0 0 0.34 -1.3 a2.44 2.44 0 0 0 -0.26 -1.13 a1.85 1.85 0 0 0 -0.72 -0.77 a2.05 2.05 0 0 0 -1 -0.27 a2.23 2.23 0 0 0 -1.11 0.28 a1.89 1.89 0 0 0 -0.76 0.8 A2.47 2.47 0 0 0 7.25 6.6 a2.44 2.44 0 0 0 0.24 1.08 a1.92 1.92 0 0 0 0.71 0.76 a2.06 2.06 0 0 0 1 0.3 l0.88 1 h1.24 L10.11 8.58 A1.78 1.78 0 0 0 11.07 7.81 Z m-1 -0.26 a0.94 0.94 0 0 1 -0.78 0.36 a0.92 0.92 0 0 1 -0.78 -0.37 a1.55 1.55 0 0 1 -0.3 -1 a1.57 1.57 0 0 1 0.3 -1 a1 1 0 0 1 0.8 -0.37 a0.9 0.9 0 0 1 0.77 0.37 a1.65 1.65 0 0 1 0.28 1 A1.5 1.5 0 0 1 10.11 7.55 Z" style="fill:url(#f2829e12-820e-4175-930d-324517daee42);" /></g></svg>