<?xml version="1.0" encoding="UTF-8"?>
<svg xmlns="http://www.w3.org/2000/svg" xmlns:xlink="http://www.w3.org/1999/xlink" width="70pt" height="70pt" viewBox="0 0 70 70" version="1.1">
<defs>
<linearGradient id="linear0" gradientUnits="userSpaceOnUse" x1="9.5" y1="7.37" x2="17.5" y2="7.37" gradientTransform="matrix(3.888889,0,0,3.888889,0,0)">
<stop offset="0" style="stop-color:rgb(0,81,142);stop-opacity:1;"/>
<stop offset="0.07" style="stop-color:rgb(0,86,150);stop-opacity:1;"/>
<stop offset="0.36" style="stop-color:rgb(0,101,176);stop-opacity:1;"/>
<stop offset="0.52" style="stop-color:rgb(0,108,188);stop-opacity:1;"/>
<stop offset="1" style="stop-color:rgb(0,81,142);stop-opacity:1;"/>
</linearGradient>
<linearGradient id="linear1" gradientUnits="userSpaceOnUse" x1="0.5" y1="7.37" x2="8.5" y2="7.37" gradientTransform="matrix(3.888889,0,0,3.888889,0,0)">
<stop offset="0" style="stop-color:rgb(0,81,142);stop-opacity:1;"/>
<stop offset="0.07" style="stop-color:rgb(0,86,150);stop-opacity:1;"/>
<stop offset="0.36" style="stop-color:rgb(0,101,176);stop-opacity:1;"/>
<stop offset="0.52" style="stop-color:rgb(0,108,188);stop-opacity:1;"/>
<stop offset="1" style="stop-color:rgb(0,81,142);stop-opacity:1;"/>
</linearGradient>
<linearGradient id="linear2" gradientUnits="userSpaceOnUse" x1="5" y1="11.9" x2="13" y2="11.9" gradientTransform="matrix(3.888889,0,0,3.888889,0,0)">
<stop offset="0" style="stop-color:rgb(0,81,142);stop-opacity:1;"/>
<stop offset="0.07" style="stop-color:rgb(0,86,150);stop-opacity:1;"/>
<stop offset="0.36" style="stop-color:rgb(0,101,176);stop-opacity:1;"/>
<stop offset="0.52" style="stop-color:rgb(0,108,188);stop-opacity:1;"/>
<stop offset="1" style="stop-color:rgb(0,81,142);stop-opacity:1;"/>
</linearGradient>
</defs>
<g id="surface1">
<path style=" stroke:none;fill-rule:nonzero;fill:url(#linear0);" d="M 52.5 17.964844 C 43.90625 17.964844 36.945313 15.75 36.945313 12.988281 L 36.945313 39.394531 C 36.945313 42.078125 43.789063 44.292969 52.304688 44.332031 L 52.5 44.332031 C 61.09375 44.332031 68.054688 42.117188 68.054688 39.394531 L 68.054688 12.988281 C 68.054688 15.75 61.09375 17.964844 52.5 17.964844 Z M 52.5 17.964844 "/>
<path style=" stroke:none;fill-rule:nonzero;fill:rgb(209,235,255);fill-opacity:1;" d="M 68.054688 12.988281 C 68.054688 15.75 61.09375 17.964844 52.5 17.964844 C 43.90625 17.964844 36.945313 15.75 36.945313 12.988281 C 36.945313 10.226563 43.90625 8.050781 52.5 8.050781 C 61.09375 8.050781 68.054688 10.265625 68.054688 12.988281 "/>
<path style=" stroke:none;fill-rule:nonzero;fill:rgb(119,197,255);fill-opacity:1;" d="M 64.4375 12.601563 C 64.4375 14.351563 59.070313 15.75 52.5 15.75 C 45.929688 15.75 40.5625 14.351563 40.5625 12.601563 C 40.5625 10.851563 45.929688 9.449219 52.5 9.449219 C 59.070313 9.449219 64.4375 10.851563 64.4375 12.601563 "/>
<path style=" stroke:none;fill-rule:nonzero;fill:rgb(47,166,255);fill-opacity:1;" d="M 52.5 13.339844 C 49.3125 13.277344 46.128906 13.671875 43.050781 14.503906 C 46.113281 15.414063 49.304688 15.835938 52.5 15.75 C 55.695313 15.835938 58.886719 15.414063 61.949219 14.503906 C 58.871094 13.671875 55.6875 13.277344 52.5 13.339844 Z M 52.5 13.339844 "/>
<path style=" stroke:none;fill-rule:nonzero;fill:url(#linear1);" d="M 17.5 17.964844 C 8.90625 17.964844 1.945313 15.75 1.945313 12.988281 L 1.945313 39.394531 C 1.945313 42.078125 8.789063 44.292969 17.5 44.332031 C 26.09375 44.332031 33.054688 42.117188 33.054688 39.394531 L 33.054688 12.988281 C 33.054688 15.75 26.09375 17.964844 17.5 17.964844 Z M 17.5 17.964844 "/>
<path style=" stroke:none;fill-rule:nonzero;fill:rgb(209,235,255);fill-opacity:1;" d="M 33.054688 12.988281 C 33.054688 15.75 26.09375 17.964844 17.5 17.964844 C 8.90625 17.964844 1.945313 15.75 1.945313 12.988281 C 1.945313 10.226563 8.90625 8.050781 17.5 8.050781 C 26.09375 8.050781 33.054688 10.265625 33.054688 12.988281 "/>
<path style=" stroke:none;fill-rule:nonzero;fill:rgb(119,197,255);fill-opacity:1;" d="M 29.4375 12.601563 C 29.4375 14.351563 24.070313 15.75 17.5 15.75 C 10.929688 15.75 5.5625 14.351563 5.5625 12.601563 C 5.5625 10.851563 10.929688 9.449219 17.5 9.449219 C 24.070313 9.449219 29.4375 10.851563 29.4375 12.601563 "/>
<path style=" stroke:none;fill-rule:nonzero;fill:rgb(47,166,255);fill-opacity:1;" d="M 17.5 13.339844 C 14.3125 13.277344 11.128906 13.671875 8.050781 14.503906 C 11.113281 15.414063 14.304688 15.835938 17.5 15.75 C 20.695313 15.835938 23.886719 15.414063 26.949219 14.503906 C 23.871094 13.671875 20.6875 13.277344 17.5 13.339844 Z M 17.5 13.339844 "/>
<path style=" stroke:none;fill-rule:nonzero;fill:url(#linear2);" d="M 35 35.582031 C 26.40625 35.582031 19.445313 33.367188 19.445313 30.605469 L 19.445313 57.011719 C 19.445313 59.734375 26.289063 61.910156 34.804688 61.949219 L 35 61.949219 C 43.59375 61.949219 50.554688 59.734375 50.554688 57.011719 L 50.554688 30.605469 C 50.554688 33.367188 43.59375 35.582031 35 35.582031 Z M 35 35.582031 "/>
<path style=" stroke:none;fill-rule:nonzero;fill:rgb(209,235,255);fill-opacity:1;" d="M 50.554688 30.605469 C 50.554688 33.367188 43.59375 35.582031 35 35.582031 C 26.40625 35.582031 19.445313 33.367188 19.445313 30.605469 C 19.445313 27.84375 26.40625 25.667969 35 25.667969 C 43.59375 25.667969 50.554688 27.882813 50.554688 30.605469 "/>
<path style=" stroke:none;fill-rule:nonzero;fill:rgb(119,197,255);fill-opacity:1;" d="M 46.9375 30.214844 C 46.9375 31.964844 41.570313 33.367188 35 33.367188 C 28.429688 33.367188 23.0625 31.964844 23.0625 30.214844 C 23.0625 28.464844 28.429688 27.222656 35 27.222656 C 41.570313 27.222656 46.9375 28.621094 46.9375 30.371094 "/>
<path style=" stroke:none;fill-rule:nonzero;fill:rgb(47,166,255);fill-opacity:1;" d="M 35 31.109375 C 31.8125 31.050781 28.628906 31.441406 25.550781 32.277344 C 28.625 33.136719 31.8125 33.503906 35 33.367188 C 38.195313 33.453125 41.386719 33.03125 44.449219 32.121094 C 41.363281 31.339844 38.183594 31 35 31.109375 Z M 35 31.109375 "/>
</g>
</svg>
