<?xml version="1.0" encoding="UTF-8"?>
<svg xmlns="http://www.w3.org/2000/svg" xmlns:xlink="http://www.w3.org/1999/xlink" width="70pt" height="70pt" viewBox="0 0 70 70" version="1.1">
<g id="surface1">
<path style=" stroke:none;fill-rule:nonzero;fill:rgb(0,127,222);fill-opacity:1;" d="M 4.492188 19.171875 L 4.492188 21.164063 L 35 38.375 L 62.246094 22.988281 L 62.246094 29.210938 L 35 44.6875 L 6.027344 28.226563 L 4.492188 29.082031 L 4.492188 40.988281 L 35 58.160156 L 62.246094 42.828125 L 62.246094 48.996094 L 35 64.480469 L 6.027344 48.015625 L 4.492188 48.871094 L 4.492188 50.890625 L 35 68.054688 L 65.507813 50.890625 L 65.507813 38.96875 L 63.953125 38.121094 L 35 54.585938 L 7.746094 39.097656 L 7.746094 32.960938 L 35 48.277344 L 65.507813 31.109375 L 65.507813 19.359375 L 63.953125 18.507813 L 35 34.972656 L 9.148438 20.28125 L 35 5.679688 L 56.296875 17.710938 L 58.160156 16.664063 L 58.160156 15.023438 L 35 1.945313 Z M 4.492188 19.171875 "/>
</g>
</svg>
