<?xml version="1.0" encoding="utf-8"?><svg version="1.1" xmlns="http://www.w3.org/2000/svg" xmlns:xlink="http://www.w3.org/1999/xlink" xmlns:xml="http://www.w3.org/XML/1998/namespace" width="70" height="70" viewBox="0, 0, 18, 18" id="b089cfca-0de1-451c-a1ca-6680ea50cb4f"><defs><radialGradient cx="-105.006" cy="-10.409" r="5.954" gradientUnits="userSpaceOnUse" gradientTransform="translate(117.739, 19.644) scale(1.036, 1.027)" id="b25d0836-964a-4c84-8c20-855f66e8345e"><stop offset="18.3%" stop-color="#29A4FF" /><stop offset="100%" stop-color="#006CBC" /></radialGradient><clipPath id="b36c7f5d-2ef1-4760-8a25-eeb9661f4e47"><path d="M14.969 7.53 A6.137 6.137 0 1 1 7.574 2.987 A6.137 6.137 0 0 1 14.969 7.53 Z" style="fill:none;" /></clipPath></defs><title>Icon-databases-121</title><path d="M2.954 5.266 a0.175 0.175 0 0 1 -0.176 -0.176 h0 A2.012 2.012 0 0 0 0.769 3.081 a0.176 0.176 0 0 1 -0.176 -0.175 h0 a0.176 0.176 0 0 1 0.176 -0.176 A2.012 2.012 0 0 0 2.778 0.72 A0.175 0.175 0 0 1 2.954 0.544 h0 A0.175 0.175 0 0 1 3.13 0.72 h0 A2.012 2.012 0 0 0 5.139 2.729 a0.175 0.175 0 0 1 0.176 0.176 h0 a0.175 0.175 0 0 1 -0.176 0.176 h0 A2.011 2.011 0 0 0 3.13 5.09 A0.177 0.177 0 0 1 2.954 5.266 Z" style="fill:#77C5FF;" /><path d="M15.611 17.456 a0.141 0.141 0 0 1 -0.141 -0.141 h0 a1.609 1.609 0 0 0 -1.607 -1.607 a0.141 0.141 0 0 1 -0.141 -0.14 h0 a0.141 0.141 0 0 1 0.141 -0.141 h0 a1.608 1.608 0 0 0 1.607 -1.607 a0.141 0.141 0 0 1 0.141 -0.141 h0 a0.141 0.141 0 0 1 0.141 0.141 h0 a1.608 1.608 0 0 0 1.607 1.607 a0.141 0.141 0 1 1 0 0.282 h0 a1.609 1.609 0 0 0 -1.607 1.607 A0.141 0.141 0 0 1 15.611 17.456 Z" style="fill:#77C5FF;" /><g><path d="M14.969 7.53 A6.137 6.137 0 1 1 7.574 2.987 A6.137 6.137 0 0 1 14.969 7.53 Z" style="fill:url(#b25d0836-964a-4c84-8c20-855f66e8345e);" /><g clip-path="url(#b36c7f5d-2ef1-4760-8a25-eeb9661f4e47)"><path d="M5.709 13.115 A1.638 1.638 0 1 0 5.714 9.84 A1.307 1.307 0 0 0 5.721 9.7 A1.651 1.651 0 0 0 4.06 8.064 H2.832 a6.251 6.251 0 0 0 1.595 5.051 Z" style="fill:#E5F3FF;" /><path d="M15.045 7.815 c0 -0.015 0 -0.03 -0.007 -0.044 a5.978 5.978 0 0 0 -1.406 -2.88 a1.825 1.825 0 0 0 -0.289 -0.09 a1.806 1.806 0 0 0 -2.3 1.663 a2 2 0 0 0 -0.2 -0.013 a1.737 1.737 0 0 0 -0.581 3.374 a1.451 1.451 0 0 0 0.541 0.1 h2.03 A13.453 13.453 0 0 0 15.045 7.815 Z" style="fill:#E5F3FF;" /></g></g><path d="M17.191 3.832 c-0.629 -1.047 -2.1 -1.455 -4.155 -1.149 a14.606 14.606 0 0 0 -2.082 0.452 a6.456 6.456 0 0 1 1.528 0.767 c0.241 -0.053 0.483 -0.116 0.715 -0.151 A7.49 7.49 0 0 1 14.3 3.662 a2.188 2.188 0 0 1 1.959 0.725 h0 c0.383 0.638 0.06 1.729 -0.886 3 a16.723 16.723 0 0 1 -4.749 4.051 A16.758 16.758 0 0 1 4.8 13.7 c-1.564 0.234 -2.682 0 -3.065 -0.636 s-0.06 -1.73 0.886 -2.995 c0.117 -0.157 0.146 -0.234 0.279 -0.392 a6.252 6.252 0 0 1 0.026 -1.63 A11.552 11.552 0 0 0 1.756 9.419 C0.517 11.076 0.181 12.566 0.809 13.613 a3.165 3.165 0 0 0 2.9 1.249 a8.434 8.434 0 0 0 1.251 -0.1 a17.855 17.855 0 0 0 6.219 -2.4 a17.808 17.808 0 0 0 5.061 -4.332 C17.483 6.369 17.819 4.88 17.191 3.832 Z" style="fill:#77C5FF;" /></svg>