<?xml version="1.0" encoding="utf-8"?><svg version="1.1" xmlns="http://www.w3.org/2000/svg" xmlns:xlink="http://www.w3.org/1999/xlink" xmlns:xml="http://www.w3.org/XML/1998/namespace" width="70" height="70" viewBox="0, 0, 18, 18" id="a5c93a83-9fd9-4ccb-ba77-53d6c609a7d3"><defs><linearGradient x1="5.41" y1="17.33" x2="5.41" y2="0.61" gradientUnits="userSpaceOnUse" id="acf2da4b-8aca-4b58-b995-ca6956cf663e"><stop offset="0%" stop-color="#29A4FF" /><stop offset="53%" stop-color="#45B0FF" /><stop offset="100%" stop-color="#67BEFF" /></linearGradient><linearGradient x1="10.04" y1="17.39" x2="10.04" y2="6.82" gradientUnits="userSpaceOnUse" id="b152b416-25c2-4a4a-9d7f-a0bb2a13f84a"><stop offset="0%" stop-color="#006CBC" /><stop offset="16%" stop-color="#0078D2" /><stop offset="53%" stop-color="#0193FF" /><stop offset="82%" stop-color="#1F9FFF" /><stop offset="100%" stop-color="#29A4FF" /></linearGradient></defs><title>Icon-databases-136</title><path d="M10.32 16.76 a0.58 0.58 0 0 1 -0.57 0.57 H1.07 a0.57 0.57 0 0 1 -0.57 -0.57 V1.18 A0.56 0.56 0 0 1 1.07 0.61 H9.75 a0.57 0.57 0 0 1 0.57 0.57 Z" style="fill:url(#acf2da4b-8aca-4b58-b995-ca6956cf663e);" /><path d="M1.94 6.47 A1.07 1.07 0 0 1 3 5.41 H7.9 A1.07 1.07 0 0 1 9 6.47 H9 A1.07 1.07 0 0 1 7.9 7.54 H3 A1.07 1.07 0 0 1 1.94 6.47 Z" style="fill:#002C4E;" /><path d="M1.94 3.31 A1.07 1.07 0 0 1 3 2.24 H7.9 A1.07 1.07 0 0 1 9 3.31 H9 A1.07 1.07 0 0 1 7.9 4.37 H3 A1.07 1.07 0 0 1 1.94 3.31 Z" style="fill:#002C4E;" /><circle cx="3.06" cy="3.31" r="0.72" style="fill:#77C5FF;" /><circle cx="3.06" cy="6.47" r="0.72" style="fill:#77C5FF;" /><path d="M17.5 14.08 a3.36 3.36 0 0 0 -2.91 -3.22 a4.22 4.22 0 0 0 -4.35 -4 A4.32 4.32 0 0 0 6.1 9.64 a4 4 0 0 0 -3.52 3.85 a4.06 4.06 0 0 0 4.2 3.9 l0.37 0 H14 l0.17 0 A3.39 3.39 0 0 0 17.5 14.08 Z" style="fill:url(#b152b416-25c2-4a4a-9d7f-a0bb2a13f84a);" /><path d="M13.61 14.45 V11.09 h-0.93 v4.12 h2.45 v-0.76 Z M6.51 12.8 A2.23 2.23 0 0 1 6 12.49 a0.44 0.44 0 0 1 -0.12 -0.32 a0.34 0.34 0 0 1 0.15 -0.3 a0.66 0.66 0 0 1 0.42 -0.12 a1.66 1.66 0 0 1 1 0.29 v-0.86 a2.89 2.89 0 0 0 -1 -0.15 a1.69 1.69 0 0 0 -1.09 0.33 a1.1 1.1 0 0 0 -0.41 0.89 a1.34 1.34 0 0 0 0.94 1.2 a2.51 2.51 0 0 1 0.61 0.36 a0.42 0.42 0 0 1 0.15 0.32 a0.34 0.34 0 0 1 -0.15 0.3 a0.75 0.75 0 0 1 -0.45 0.12 a1.63 1.63 0 0 1 -1.08 -0.42 v0.92 A2.25 2.25 0 0 0 6 15.28 A1.91 1.91 0 0 0 7.15 15 a1.07 1.07 0 0 0 0.43 -0.91 a1 1 0 0 0 -0.25 -0.7 A2.36 2.36 0 0 0 6.51 12.8 Z m5.16 1.58 A2.37 2.37 0 0 0 12 13.12 A2.28 2.28 0 0 0 11.75 12 a1.77 1.77 0 0 0 -0.69 -0.74 A1.94 1.94 0 0 0 10 11 A2.21 2.21 0 0 0 9 11.29 a1.87 1.87 0 0 0 -0.73 0.77 A2.52 2.52 0 0 0 8 13.2 a2.26 2.26 0 0 0 0.24 1.05 a1.87 1.87 0 0 0 0.68 0.74 a2 2 0 0 0 1 0.29 l0.85 1 h1.2 l-1.19 -1.1 A1.82 1.82 0 0 0 11.67 14.38 Z m-0.93 -0.25 a0.92 0.92 0 0 1 -0.76 0.35 a0.91 0.91 0 0 1 -0.75 -0.36 a1.5 1.5 0 0 1 -0.28 -1 a1.46 1.46 0 0 1 0.29 -1 a0.92 0.92 0 0 1 0.77 -0.37 a0.86 0.86 0 0 1 0.74 0.37 a1.54 1.54 0 0 1 0.28 1 A1.47 1.47 0 0 1 10.74 14.13 Z" style="fill:#E5F3FF;" /></svg>