<?xml version="1.0" encoding="UTF-8"?>
<svg xmlns="http://www.w3.org/2000/svg" xmlns:xlink="http://www.w3.org/1999/xlink" width="65pt" height="70pt" viewBox="0 0 65 70" version="1.1">
<g id="surface1">
<path style=" stroke:none;fill-rule:nonzero;fill:rgb(255,255,255);fill-opacity:1;" d="M 48.75 14.410156 L 48.75 10.289063 C 48.75 4.609375 37.839844 0 24.375 0 C 10.910156 0 0 4.609375 0 10.289063 L 0 14.410156 C 0 20.089844 10.910156 24.699219 24.375 24.699219 C 37.839844 24.699219 48.75 20.089844 48.75 14.410156 Z M 48.75 14.410156 "/>
<path style=" stroke:none;fill-rule:nonzero;fill:rgb(0,130,226);fill-opacity:1;" d="M 24.375 70 C 11.046875 70 0.164063 65.6875 0 59.707031 L 0 14.410156 C 0.167969 20.394531 11.050781 24.703125 24.375 24.703125 C 37.699219 24.703125 48.585938 20.394531 48.753906 14.410156 L 48.753906 59.707031 C 48.582031 65.6875 37.699219 70 24.375 70 Z M 24.375 70 "/>
<path style=" stroke:none;fill-rule:nonzero;fill:rgb(169,218,255);fill-opacity:1;" d="M 42.65625 11.320313 C 42.65625 7.339844 34.472656 4.113281 24.375 4.113281 C 14.277344 4.113281 6.09375 7.339844 6.09375 11.320313 C 6.09375 15.300781 14.277344 18.527344 24.375 18.527344 C 34.472656 18.527344 42.65625 15.300781 42.65625 11.320313 Z M 42.65625 11.320313 "/>
<path style=" stroke:none;fill-rule:nonzero;fill:rgb(113,194,255);fill-opacity:1;" d="M 9.839844 15.6875 C 13.179688 13.96875 18.449219 12.855469 24.375 12.855469 C 30.300781 12.855469 35.570313 13.96875 38.910156 15.6875 C 35.570313 17.414063 30.300781 18.527344 24.375 18.527344 C 18.449219 18.527344 13.179688 17.414063 9.839844 15.6875 Z M 9.839844 15.6875 "/>
<path style=" stroke:none;fill-rule:nonzero;fill:rgb(0,102,178);fill-opacity:1;" d="M 24.375 24.703125 L 24.375 70 C 10.910156 70 0 65.765625 0 59.707031 L 0 14.410156 C 0 20.472656 10.910156 24.703125 24.375 24.703125 Z M 24.375 24.703125 "/>
<path style=" stroke:none;fill-rule:nonzero;fill:rgb(193,228,255);fill-opacity:1;" d="M 56.875 70 C 61.363281 70 65 66.316406 65 61.765625 C 65 56.855469 60.8125 53.066406 56.019531 53.574219 C 58.601563 40.871094 49.046875 28.820313 36.125 28.820313 C 27.660156 28.820313 20.40625 34.066406 17.355469 41.523438 C 8.519531 39.511719 0 46.300781 0 55.585938 C 0 63.546875 6.367188 70 14.21875 70 Z M 56.875 70 "/>
<path style=" stroke:none;fill-rule:nonzero;fill:rgb(113,194,255);fill-opacity:1;" d="M 56.023438 45.25 C 54.125 35.875 45.933594 28.820313 36.125 28.820313 C 27.660156 28.820313 20.40625 34.066406 17.355469 41.523438 C 16.347656 41.292969 15.296875 41.175781 14.21875 41.175781 C 6.367188 41.175781 0 47.628906 0 55.585938 C 0 63.546875 6.367188 70 14.21875 70 L 23.777344 70 C 17.402344 70 12.234375 64.761719 12.234375 58.300781 C 12.234375 51.839844 17.402344 46.597656 23.777344 46.597656 C 24.65625 46.597656 25.503906 46.695313 26.324219 46.886719 C 28.804688 40.832031 34.691406 36.570313 41.558594 36.570313 C 47.792969 36.570313 53.21875 40.078125 56.023438 45.25 Z M 56.023438 45.25 "/>
<path style=" stroke:none;fill-rule:nonzero;fill:rgb(0,78,136);fill-opacity:1;" d="M 24.375 65.882813 L 28.4375 65.882813 L 28.4375 53.527344 L 34.53125 59.707031 L 40.625 53.527344 L 40.625 65.882813 L 44.6875 65.882813 L 44.6875 45.292969 L 40.625 45.292969 L 40.625 47.351563 L 34.53125 53.527344 L 28.4375 47.351563 L 28.4375 45.292969 L 24.375 45.292969 Z M 24.375 65.882813 "/>
</g>
</svg>
