<?xml version="1.0" encoding="UTF-8"?>
<svg xmlns="http://www.w3.org/2000/svg" xmlns:xlink="http://www.w3.org/1999/xlink" width="70pt" height="70pt" viewBox="0 0 70 70" version="1.1">
<g id="surface1">
<path style=" stroke:none;fill-rule:nonzero;fill:rgb(72.156863%,83.137255%,19.607843%);fill-opacity:1;" d="M 23.761719 55.445313 C 28.808594 51.890625 34.601563 47.101563 40.851563 40.851563 C 47.269531 34.429688 51.988281 28.695313 55.457031 23.78125 C 51.492188 16.5625 43.820313 11.667969 35 11.667969 C 22.113281 11.667969 11.667969 22.113281 11.667969 35 C 11.667969 43.8125 16.550781 51.476563 23.761719 55.445313 Z M 23.761719 55.445313 "/>
<path style=" stroke:none;fill-rule:nonzero;fill:rgb(72.156863%,83.137255%,19.607843%);fill-opacity:1;" d="M 47.035156 47.035156 C 42.867188 51.203125 38.613281 54.984375 34.441406 58.304688 C 34.628906 58.308594 34.8125 58.332031 35 58.332031 C 47.886719 58.332031 58.332031 47.886719 58.332031 35 C 58.332031 34.808594 58.308594 34.628906 58.304688 34.441406 C 54.890625 38.722656 51.078125 42.996094 47.035156 47.035156 Z M 47.035156 47.035156 "/>
<path style=" stroke:none;fill-rule:nonzero;fill:rgb(0%,47.058824%,84.313725%);fill-opacity:1;" d="M 68.300781 1.699219 C 67.300781 0.703125 65.851563 0.230469 64.039063 0.230469 C 59.070313 0.230469 51.355469 3.804688 42.710938 9.9375 C 43.847656 10.289063 44.953125 10.703125 46.015625 11.199219 C 53.839844 5.890625 60.320313 3.148438 64.042969 3.148438 C 64.761719 3.148438 65.730469 3.253906 66.242188 3.761719 C 69.003906 6.523438 63.421875 22.402344 42.914063 42.910156 C 27.199219 58.628906 12.429688 66.851563 5.96875 66.851563 C 5.246094 66.851563 4.277344 66.742188 3.769531 66.234375 C 1.941406 64.410156 3.800781 56.820313 11.183594 45.964844 C 10.695313 44.917969 10.289063 43.824219 9.941406 42.707031 C 1.566406 54.507813 -2.015625 64.570313 1.707031 68.296875 C 2.703125 69.292969 4.152344 69.765625 5.96875 69.765625 C 14.191406 69.765625 29.914063 60.035156 44.976563 44.972656 C 63.363281 26.582031 73.804688 7.210938 68.300781 1.699219 Z M 68.300781 1.699219 "/>
<path style=" stroke:none;fill-rule:nonzero;fill:rgb(0%,47.058824%,84.313725%);fill-opacity:1;" d="M 11.667969 0 C 11.667969 6.441406 6.441406 11.667969 0 11.667969 C 6.441406 11.667969 11.667969 16.890625 11.667969 23.332031 C 11.667969 16.890625 16.890625 11.667969 23.332031 11.667969 C 16.890625 11.667969 11.667969 6.441406 11.667969 0 Z M 11.667969 0 "/>
<path style=" stroke:none;fill-rule:nonzero;fill:rgb(0%,47.058824%,84.313725%);fill-opacity:1;" d="M 61.25 52.5 C 61.25 57.332031 57.332031 61.25 52.5 61.25 C 57.332031 61.25 61.25 65.167969 61.25 70 C 61.25 65.167969 65.167969 61.25 70 61.25 C 65.167969 61.25 61.25 57.332031 61.25 52.5 Z M 61.25 52.5 "/>
<path style=" stroke:none;fill-rule:nonzero;fill:rgb(34.901961%,70.588235%,85.098039%);fill-opacity:1;" d="M 25.195313 38.484375 L 24.242188 38.484375 C 24.363281 38.007813 24.421875 37.527344 24.421875 36.996094 C 24.421875 33.480469 21.5625 30.625 18.050781 30.625 L 12.09375 30.625 C 11.820313 32.042969 11.667969 33.503906 11.667969 35 C 11.667969 41.3125 14.183594 47.027344 18.253906 51.226563 L 25.195313 51.226563 C 28.710938 51.226563 31.566406 48.367188 31.566406 44.855469 C 31.566406 41.339844 28.707031 38.484375 25.195313 38.484375 Z M 25.195313 38.484375 "/>
<path style=" stroke:none;fill-rule:nonzero;fill:rgb(34.901961%,70.588235%,85.098039%);fill-opacity:1;" d="M 40.835938 40.867188 C 40.84375 40.859375 40.84375 40.855469 40.851563 40.851563 C 41.714844 39.988281 42.519531 39.148438 43.320313 38.308594 C 42.234375 38.859375 41.351563 39.757813 40.835938 40.867188 Z M 40.835938 40.867188 "/>
<path style=" stroke:none;fill-rule:nonzero;fill:rgb(34.901961%,70.588235%,85.098039%);fill-opacity:1;" d="M 47.035156 47.035156 C 44.308594 49.765625 41.539063 52.332031 38.78125 54.714844 C 39.761719 55.683594 41.105469 56.289063 42.582031 56.289063 L 44.523438 56.289063 C 51.871094 52.996094 57.199219 46.023438 58.160156 37.710938 L 55.621094 37.710938 C 52.929688 40.882813 50.046875 44.023438 47.035156 47.035156 Z M 47.035156 47.035156 "/>
<path style=" stroke:none;fill-rule:nonzero;fill:rgb(34.901961%,70.588235%,85.098039%);fill-opacity:1;" d="M 36.929688 32.765625 L 48.378906 32.765625 C 51.171875 29.535156 53.507813 26.542969 55.441406 23.804688 C 53.113281 19.566406 49.515625 16.125 45.144531 14.007813 L 43.835938 14.007813 C 41.453125 14.007813 39.546875 15.914063 39.546875 18.296875 C 39.546875 18.652344 39.605469 19.070313 39.726563 19.429688 L 36.984375 19.429688 C 33.234375 19.429688 30.257813 22.40625 30.257813 26.09375 C 30.257813 29.785156 33.234375 32.765625 36.929688 32.765625 Z M 36.929688 32.765625 "/>
</g>
</svg>
