<?xml version="1.0" encoding="UTF-8"?>
<svg xmlns="http://www.w3.org/2000/svg" xmlns:xlink="http://www.w3.org/1999/xlink" width="70pt" height="70pt" viewBox="0 0 70 70" version="1.1">
<defs>
<linearGradient id="linear0" gradientUnits="userSpaceOnUse" x1="9" y1="12.46" x2="9" y2="1.18" gradientTransform="matrix(3.888889,0,0,3.888889,0,0)">
<stop offset="0" style="stop-color:rgb(0%,47.058824%,83.137255%);stop-opacity:1;"/>
<stop offset="0.82" style="stop-color:rgb(36.862745%,62.745098%,93.72549%);stop-opacity:1;"/>
</linearGradient>
<linearGradient id="linear1" gradientUnits="userSpaceOnUse" x1="9" y1="16.82" x2="9" y2="12.46" gradientTransform="matrix(3.888889,0,0,3.888889,0,0)">
<stop offset="0.15" style="stop-color:rgb(80%,80%,80%);stop-opacity:1;"/>
<stop offset="1" style="stop-color:rgb(43.921569%,43.921569%,43.921569%);stop-opacity:1;"/>
</linearGradient>
<radialGradient id="radial0" gradientUnits="userSpaceOnUse" cx="9.43" cy="7.03" fx="9.43" fy="7.03" r="7.27" gradientTransform="matrix(3.888889,0,0,3.888889,0,0)">
<stop offset="0" style="stop-color:rgb(94.901961%,94.901961%,94.901961%);stop-opacity:1;"/>
<stop offset="0.58" style="stop-color:rgb(93.333333%,93.333333%,93.333333%);stop-opacity:1;"/>
<stop offset="1" style="stop-color:rgb(90.196078%,90.196078%,90.196078%);stop-opacity:1;"/>
</radialGradient>
</defs>
<g id="surface1">
<path style=" stroke:none;fill-rule:nonzero;fill:url(#linear0);" d="M 4.277344 4.589844 L 65.683594 4.589844 C 66.886719 4.589844 67.859375 5.5625 67.859375 6.765625 L 67.859375 46.238281 C 67.859375 47.441406 66.886719 48.417969 65.683594 48.417969 L 4.277344 48.417969 C 3.074219 48.417969 2.101563 47.441406 2.101563 46.238281 L 2.101563 6.765625 C 2.101563 5.5625 3.074219 4.589844 4.277344 4.589844 Z M 4.277344 4.589844 "/>
<path style=" stroke:none;fill-rule:nonzero;fill:url(#linear1);" d="M 48.183594 61.714844 C 41.6875 60.707031 41.417969 56 41.457031 48.457031 L 28.542969 48.457031 C 28.542969 56 28.3125 60.707031 21.816406 61.714844 C 19.914063 62.023438 18.523438 63.679688 18.550781 65.605469 L 51.449219 65.605469 C 51.476563 63.679688 50.085938 62.023438 48.183594 61.714844 Z M 48.183594 61.714844 "/>
<path style=" stroke:none;fill-rule:nonzero;fill:url(#radial0);" d="M 50.828125 30.683594 L 50.828125 17.148438 L 46.9375 17.148438 L 46.9375 33.679688 L 56.777344 33.679688 L 56.777344 30.683594 Z M 22.285156 23.996094 C 21.550781 23.699219 20.871094 23.292969 20.261719 22.789063 C 19.914063 22.4375 19.730469 21.957031 19.753906 21.464844 C 19.742188 20.984375 19.976563 20.527344 20.378906 20.261719 C 20.871094 19.9375 21.460938 19.789063 22.050781 19.832031 C 23.433594 19.78125 24.796875 20.179688 25.9375 20.960938 L 25.9375 17.539063 C 24.695313 17.082031 23.375 16.855469 22.050781 16.878906 C 20.472656 16.800781 18.914063 17.28125 17.65625 18.238281 C 16.574219 19.105469 15.964844 20.433594 16.023438 21.816406 C 16.09375 23.964844 17.441406 25.863281 19.445313 26.640625 C 20.328125 26.996094 21.152344 27.480469 21.894531 28.078125 C 22.292969 28.382813 22.523438 28.859375 22.515625 29.359375 C 22.515625 29.851563 22.285156 30.3125 21.894531 30.605469 C 21.410156 30.929688 20.84375 31.105469 20.261719 31.109375 C 18.648438 31.09375 17.097656 30.484375 15.90625 29.398438 L 15.90625 33.289063 C 17.230469 33.953125 18.703125 34.273438 20.183594 34.222656 C 21.875 34.242188 23.527344 33.710938 24.890625 32.707031 C 26.023438 31.839844 26.664063 30.476563 26.601563 29.050781 C 26.648438 28.019531 26.285156 27.011719 25.589844 26.25 C 24.652344 25.28125 23.527344 24.511719 22.285156 23.996094 Z M 43.050781 30.371094 C 43.964844 28.847656 44.421875 27.09375 44.371094 25.316406 C 44.394531 23.792969 44.046875 22.285156 43.359375 20.921875 C 42.738281 19.671875 41.765625 18.632813 40.5625 17.929688 C 39.375 17.25 38.035156 16.890625 36.671875 16.878906 C 35.164063 16.859375 33.675781 17.234375 32.355469 17.964844 C 31.082031 18.6875 30.054688 19.769531 29.398438 21.078125 C 28.621094 22.484375 28.207031 24.058594 28.195313 25.667969 C 28.179688 27.121094 28.5 28.554688 29.128906 29.867188 C 29.757813 31.085938 30.714844 32.109375 31.890625 32.820313 C 33.0625 33.539063 34.402344 33.941406 35.777344 33.988281 L 39.199219 37.878906 L 44.023438 37.878906 L 39.316406 33.367188 C 40.878906 32.84375 42.199219 31.78125 43.050781 30.371094 Z M 39.160156 29.359375 C 38.433594 30.289063 37.304688 30.8125 36.128906 30.761719 C 34.941406 30.816406 33.804688 30.277344 33.09375 29.320313 C 32.265625 28.199219 31.855469 26.824219 31.929688 25.433594 C 31.863281 24.042969 32.273438 22.667969 33.09375 21.542969 C 33.851563 20.609375 35 20.078125 36.207031 20.105469 C 37.382813 20.050781 38.507813 20.589844 39.199219 21.542969 C 39.972656 22.691406 40.355469 24.054688 40.289063 25.433594 C 40.445313 26.816406 40.097656 28.210938 39.316406 29.359375 Z M 39.160156 29.359375 "/>
</g>
</svg>
