<?xml version="1.0" encoding="UTF-8"?>
<svg xmlns="http://www.w3.org/2000/svg" xmlns:xlink="http://www.w3.org/1999/xlink" width="70pt" height="48pt" viewBox="0 0 70 48" version="1.1">
<g id="surface1">
<path style=" stroke:none;fill-rule:evenodd;fill:rgb(0%,47.058824%,84.313725%);fill-opacity:1;" d="M 65.214844 33.234375 C 65.214844 33.234375 71.121094 26.152344 66.609375 18.789063 C 61.167969 9.898438 51.816406 14.796875 51.816406 14.796875 C 51.816406 14.796875 49.839844 -3.785156 28.308594 0.699219 C 22.785156 1.851563 19.269531 4.523438 17.054688 7.660156 C 20.324219 7.832031 23.359375 8.371094 25.777344 9.242188 C 28.910156 10.378906 30.480469 11.742188 30.953125 12.941406 L 30.953125 24.523438 L 40.332031 24.523438 L 40.332031 17.679688 L 42.246094 19.160156 L 53.621094 27.953125 L 54.816406 28.871094 L 53.640625 29.824219 L 42.265625 38.90625 L 40.332031 40.460938 L 40.332031 33.261719 L 30.953125 33.261719 L 30.953125 42.734375 C 30.953125 43.359375 30.78125 44.089844 30.214844 44.84375 L 61.214844 44.84375 C 61.214844 44.84375 68.816406 44.734375 69.597656 39.898438 C 70.601563 33.769531 65.214844 33.234375 65.214844 33.234375 Z M 24.863281 10.179688 C 24.636719 10.105469 24.398438 10.035156 24.152344 9.960938 C 24.042969 9.933594 23.945313 9.898438 23.84375 9.871094 L 24.007813 9.925781 C 21.492188 9.214844 18.339844 8.796875 14.910156 8.789063 C 6.753906 8.789063 0.0625 11.160156 0 14.117188 L 0 42.714844 C 0 45.660156 6.542969 48.0625 14.730469 48.089844 L 14.730469 48.125 L 14.765625 48.125 C 14.792969 48.125 14.882813 48.089844 14.882813 48.089844 L 14.882813 48.125 L 14.910156 48.125 C 23.113281 48.125 29.769531 45.6875 29.769531 42.734375 L 29.769531 32.078125 L 41.515625 32.078125 L 41.515625 37.988281 L 52.890625 28.871094 L 41.515625 20.078125 L 41.515625 25.699219 L 29.769531 25.699219 L 29.769531 14.117188 C 29.742188 12.941406 28.675781 11.859375 26.878906 10.980469 C 26.285156 10.6875 25.613281 10.425781 24.863281 10.179688 Z M 3.097656 13.851563 C 3.097656 11.886719 8.394531 10.296875 14.910156 10.296875 C 21.429688 10.316406 26.722656 11.90625 26.722656 13.851563 C 26.722656 13.933594 26.714844 14.023438 26.695313 14.117188 C 26.488281 14.980469 25.265625 15.734375 23.398438 16.324219 C 23.378906 16.324219 23.359375 16.34375 23.351563 16.34375 C 23.242188 16.371094 23.140625 16.398438 23.023438 16.433594 C 22.996094 16.441406 22.960938 16.441406 22.949219 16.460938 L 22.632813 16.550781 C 22.59375 16.5625 22.558594 16.5625 22.511719 16.578125 C 22.414063 16.605469 22.320313 16.625 22.222656 16.652344 C 22.175781 16.671875 22.128906 16.671875 22.085938 16.6875 C 21.992188 16.699219 21.894531 16.726563 21.785156 16.742188 C 21.730469 16.761719 21.683594 16.769531 21.621094 16.769531 C 21.539063 16.789063 21.429688 16.816406 21.335938 16.832031 C 21.28125 16.84375 21.21875 16.859375 21.164063 16.859375 C 21.074219 16.878906 20.972656 16.886719 20.882813 16.90625 C 20.808594 16.925781 20.746094 16.933594 20.671875 16.933594 C 20.582031 16.953125 20.488281 16.96875 20.390625 16.980469 C 20.316406 16.996094 20.242188 17.007813 20.160156 17.007813 L 19.898438 17.050781 C 19.824219 17.070313 19.734375 17.070313 19.660156 17.089844 C 19.570313 17.097656 19.476563 17.117188 19.394531 17.117188 C 19.304688 17.125 19.230469 17.125 19.140625 17.144531 C 19.050781 17.160156 18.957031 17.160156 18.867188 17.171875 C 18.785156 17.1875 18.695313 17.1875 18.601563 17.207031 C 18.511719 17.214844 18.421875 17.214844 18.339844 17.234375 C 18.246094 17.253906 18.136719 17.253906 18.054688 17.261719 C 17.964844 17.261719 17.875 17.28125 17.78125 17.28125 C 17.683594 17.28125 17.589844 17.289063 17.492188 17.289063 C 17.398438 17.289063 17.308594 17.304688 17.21875 17.304688 C 17.117188 17.304688 17.007813 17.324219 16.90625 17.324219 C 16.816406 17.324219 16.742188 17.332031 16.652344 17.332031 C 16.535156 17.332031 16.433594 17.351563 16.316406 17.351563 C 16.234375 17.351563 16.160156 17.351563 16.070313 17.371094 C 15.941406 17.371094 15.824219 17.371094 15.6875 17.378906 L 13.71875 17.378906 C 13.617188 17.378906 13.527344 17.378906 13.425781 17.371094 C 13.335938 17.371094 13.234375 17.371094 13.144531 17.351563 C 13.035156 17.351563 12.953125 17.332031 12.84375 17.332031 C 12.75 17.332031 12.660156 17.324219 12.578125 17.324219 C 12.46875 17.324219 12.378906 17.304688 12.277344 17.304688 C 12.1875 17.304688 12.09375 17.289063 12.011719 17.289063 C 11.902344 17.289063 11.8125 17.28125 11.710938 17.261719 C 11.621094 17.261719 11.546875 17.253906 11.457031 17.253906 C 11.355469 17.234375 11.265625 17.234375 11.175781 17.214844 C 11.082031 17.207031 11.011719 17.207031 10.917969 17.1875 C 10.835938 17.171875 10.746094 17.171875 10.65625 17.160156 L 10.636719 17.160156 C 10.5625 17.144531 10.492188 17.144531 10.398438 17.125 C 10.328125 17.117188 10.234375 17.117188 10.164063 17.097656 L 10.109375 17.097656 C 10.027344 17.089844 9.953125 17.089844 9.878906 17.070313 C 9.808594 17.050781 9.742188 17.050781 9.671875 17.042969 C 9.644531 17.042969 9.617188 17.023438 9.589844 17.023438 C 9.523438 17.007813 9.453125 17.007813 9.386719 16.996094 C 9.332031 16.980469 9.269531 16.980469 9.214844 16.96875 C 9.167969 16.96875 9.125 16.953125 9.097656 16.953125 C 9.03125 16.933594 8.976563 16.933594 8.914063 16.925781 C 8.867188 16.90625 8.8125 16.90625 8.769531 16.886719 C 8.722656 16.878906 8.660156 16.878906 8.613281 16.859375 C 8.558594 16.84375 8.511719 16.84375 8.449219 16.832031 C 8.414063 16.816406 8.367188 16.816406 8.320313 16.804688 C 8.257813 16.789063 8.203125 16.769531 8.140625 16.769531 C 8.09375 16.761719 8.046875 16.761719 8.003906 16.742188 C 7.964844 16.726563 7.929688 16.726563 7.882813 16.714844 C 7.828125 16.699219 7.757813 16.6875 7.691406 16.671875 C 7.664063 16.652344 7.621094 16.652344 7.59375 16.644531 C 7.546875 16.625 7.519531 16.625 7.472656 16.605469 C 7.390625 16.597656 7.320313 16.578125 7.265625 16.5625 C 7.246094 16.5625 7.21875 16.550781 7.199219 16.550781 C 7.15625 16.535156 7.109375 16.523438 7.074219 16.523438 C 6.992188 16.507813 6.917969 16.480469 6.84375 16.460938 C 6.789063 16.441406 6.746094 16.433594 6.679688 16.414063 C 6.609375 16.398438 6.535156 16.371094 6.460938 16.359375 C 6.417969 16.34375 6.351563 16.324219 6.308594 16.316406 C 6.234375 16.28125 6.160156 16.269531 6.089844 16.242188 L 5.953125 16.199219 C 5.878906 16.160156 5.804688 16.152344 5.742188 16.117188 L 5.613281 16.078125 C 5.53125 16.042969 5.476563 16.015625 5.40625 15.996094 C 5.359375 15.988281 5.332031 15.96875 5.285156 15.960938 C 5.222656 15.925781 5.148438 15.898438 5.085938 15.871094 C 5.058594 15.851563 5.011719 15.832031 4.984375 15.824219 L 4.804688 15.734375 C 4.777344 15.714844 4.75 15.707031 4.703125 15.6875 L 4.4375 15.550781 C 4.375 15.523438 4.328125 15.496094 4.273438 15.46875 C 4.238281 15.453125 4.210938 15.433594 4.191406 15.425781 C 4.15625 15.386719 4.09375 15.359375 4.046875 15.316406 C 4.019531 15.304688 4 15.289063 3.972656 15.261719 C 3.929688 15.234375 3.882813 15.199219 3.835938 15.152344 C 3.808594 15.144531 3.792969 15.125 3.78125 15.097656 C 3.738281 15.070313 3.710938 15.023438 3.664063 14.988281 L 3.5 14.824219 C 3.480469 14.816406 3.464844 14.796875 3.453125 14.769531 C 3.425781 14.742188 3.390625 14.699219 3.363281 14.660156 C 3.34375 14.652344 3.335938 14.625 3.316406 14.605469 C 3.289063 14.578125 3.273438 14.535156 3.246094 14.496094 C 3.226563 14.488281 3.226563 14.460938 3.21875 14.441406 C 3.199219 14.414063 3.171875 14.371094 3.152344 14.34375 C 3.144531 14.324219 3.144531 14.296875 3.144531 14.28125 L 3.097656 14.144531 C 3.109375 14.023438 3.097656 13.933594 3.097656 13.851563 Z M 3.097656 13.851563 "/>
</g>
</svg>
