<?xml version="1.0" encoding="UTF-8"?>
<svg xmlns="http://www.w3.org/2000/svg" xmlns:xlink="http://www.w3.org/1999/xlink" width="70pt" height="70pt" viewBox="0 0 70 70" version="1.1">
<defs>
<filter id="alpha" filterUnits="objectBoundingBox" x="0%" y="0%" width="100%" height="100%">
  <feColorMatrix type="matrix" in="SourceGraphic" values="0 0 0 0 1 0 0 0 0 1 0 0 0 0 1 0 0 0 1 0"/>
</filter>
<mask id="mask0">
  <g filter="url(#alpha)">
<rect x="0" y="0" width="70" height="70" style="fill:rgb(0,0,0);fill-opacity:0.2;stroke:none;"/>
  </g>
</mask>
<clipPath id="clip1">
  <rect x="0" y="0" width="70" height="70"/>
</clipPath>
<g id="surface5" clip-path="url(#clip1)">
<path style=" stroke:none;fill-rule:nonzero;fill:rgb(255,255,255);fill-opacity:1;" d="M 56.304688 17.617188 C 56.285156 17.617188 56.273438 17.617188 56.253906 17.617188 C 55.75 7.882813 47.738281 0.140625 37.90625 0.140625 C 30.71875 0.140625 24.507813 4.28125 21.480469 10.308594 C 20.222656 10.015625 18.917969 9.847656 17.570313 9.847656 C 7.945313 9.847656 0.140625 17.671875 0.140625 27.324219 C 0.140625 36.976563 7.945313 44.800781 17.570313 44.800781 L 56.304688 44.800781 C 63.789063 44.800781 69.859375 38.714844 69.859375 31.207031 C 69.859375 23.699219 63.789063 17.617188 56.304688 17.617188 Z M 56.304688 17.617188 "/>
</g>
<mask id="mask1">
  <g filter="url(#alpha)">
<rect x="0" y="0" width="70" height="70" style="fill:rgb(0,0,0);fill-opacity:0.4;stroke:none;"/>
  </g>
</mask>
<clipPath id="clip2">
  <rect x="0" y="0" width="70" height="70"/>
</clipPath>
<g id="surface8" clip-path="url(#clip2)">
<path style=" stroke:none;fill-rule:nonzero;fill:rgb(255,255,255);fill-opacity:1;" d="M 17.570313 44.800781 L 39.199219 44.800781 L 39.199219 24.53125 C 39.199219 22.585938 37.59375 21 35.621094 21 L 16.179688 21 C 14.203125 21 12.601563 22.585938 12.601563 24.53125 L 12.601563 44.070313 C 14.175781 44.539063 15.84375 44.800781 17.570313 44.800781 Z M 17.570313 44.800781 "/>
</g>
</defs>
<g id="surface1">
<path style=" stroke:none;fill-rule:nonzero;fill:rgb(57,171,255);fill-opacity:1;" d="M 56.304688 17.617188 C 56.285156 17.617188 56.273438 17.617188 56.253906 17.617188 C 55.75 7.882813 47.738281 0.140625 37.90625 0.140625 C 30.71875 0.140625 24.507813 4.28125 21.480469 10.308594 C 20.222656 10.015625 18.917969 9.847656 17.570313 9.847656 C 7.945313 9.847656 0.140625 17.671875 0.140625 27.324219 C 0.140625 36.976563 7.945313 44.800781 17.570313 44.800781 L 56.304688 44.800781 C 63.789063 44.800781 69.859375 38.714844 69.859375 31.207031 C 69.859375 23.699219 63.789063 17.617188 56.304688 17.617188 Z M 56.304688 17.617188 "/>
<use xlink:href="#surface5" mask="url(#mask0)"/>
<use xlink:href="#surface8" mask="url(#mask1)"/>
<path style=" stroke:none;fill-rule:nonzero;fill:rgb(0,140,244);fill-opacity:1;" d="M 37.800781 63.667969 C 37.800781 64.84375 36.824219 65.800781 35.621094 65.800781 L 16.179688 65.800781 C 14.972656 65.800781 14 64.84375 14 63.667969 L 14 24.53125 C 14 23.355469 14.972656 22.398438 16.179688 22.398438 L 35.621094 22.398438 C 36.824219 22.398438 37.800781 23.355469 37.800781 24.53125 Z M 37.800781 63.667969 "/>
<path style=" stroke:none;fill-rule:nonzero;fill:rgb(0,33,58);fill-opacity:1;" d="M 17.082031 46.199219 C 17.082031 44.71875 18.28125 43.519531 19.761719 43.519531 L 32.039063 43.519531 C 33.515625 43.519531 34.71875 44.71875 34.71875 46.199219 C 34.71875 47.679688 33.519531 48.882813 32.039063 48.882813 L 19.761719 48.882813 C 18.28125 48.882813 17.082031 47.679688 17.082031 46.199219 Z M 17.082031 46.199219 "/>
<path style=" stroke:none;fill-rule:nonzero;fill:rgb(115,195,255);fill-opacity:1;" d="M 22.097656 46.199219 C 22.097656 47.195313 21.292969 48 20.300781 48 C 19.304688 48 18.5 47.195313 18.5 46.199219 C 18.5 45.207031 19.304688 44.402344 20.300781 44.402344 C 21.292969 44.402344 22.097656 45.207031 22.097656 46.199219 Z M 22.097656 46.199219 "/>
<path style=" stroke:none;fill-rule:nonzero;fill:rgb(0,33,58);fill-opacity:1;" d="M 17.082031 37.800781 C 17.082031 36.320313 18.28125 35.117188 19.761719 35.117188 L 32.039063 35.117188 C 33.515625 35.117188 34.71875 36.320313 34.71875 37.800781 C 34.71875 39.28125 33.519531 40.480469 32.039063 40.480469 L 19.761719 40.480469 C 18.28125 40.480469 17.082031 39.28125 17.082031 37.800781 Z M 17.082031 37.800781 "/>
<path style=" stroke:none;fill-rule:nonzero;fill:rgb(115,195,255);fill-opacity:1;" d="M 22.097656 37.800781 C 22.097656 38.792969 21.292969 39.597656 20.300781 39.597656 C 19.304688 39.597656 18.5 38.792969 18.5 37.800781 C 18.5 36.804688 19.304688 36 20.300781 36 C 21.292969 36 22.097656 36.804688 22.097656 37.800781 Z M 22.097656 37.800781 "/>
<path style=" stroke:none;fill-rule:nonzero;fill:rgb(0,33,58);fill-opacity:1;" d="M 17.082031 29.398438 C 17.082031 27.921875 18.28125 26.71875 19.761719 26.71875 L 32.039063 26.71875 C 33.515625 26.71875 34.71875 27.917969 34.71875 29.398438 C 34.71875 30.878906 33.519531 32.082031 32.039063 32.082031 L 19.761719 32.082031 C 18.28125 32.082031 17.082031 30.882813 17.082031 29.398438 Z M 17.082031 29.398438 "/>
<path style=" stroke:none;fill-rule:nonzero;fill:rgb(115,195,255);fill-opacity:1;" d="M 22.097656 29.398438 C 22.097656 30.394531 21.292969 31.199219 20.300781 31.199219 C 19.304688 31.199219 18.5 30.394531 18.5 29.398438 C 18.5 28.40625 19.304688 27.601563 20.300781 27.601563 C 21.292969 27.601563 22.097656 28.40625 22.097656 29.398438 Z M 22.097656 29.398438 "/>
<path style=" stroke:none;fill-rule:nonzero;fill:rgb(57,171,255);fill-opacity:1;" d="M 46.898438 38.929688 L 33.601563 38.929688 L 33.601563 64.671875 C 33.601563 67.320313 39.457031 69.472656 46.71875 69.507813 L 46.71875 69.511719 L 46.875 69.511719 C 46.882813 69.511719 46.890625 69.511719 46.898438 69.511719 C 54.246094 69.511719 60.199219 67.34375 60.199219 64.671875 L 60.199219 38.929688 Z M 46.898438 38.929688 "/>
<path style=" stroke:none;fill-rule:nonzero;fill:rgb(3,148,255);fill-opacity:1;" d="M 46.71875 69.511719 C 54.0625 69.511719 60.199219 67.34375 60.199219 64.671875 L 60.199219 38.929688 L 46.714844 39.28125 Z M 46.71875 69.511719 "/>
<path style=" stroke:none;fill-rule:nonzero;fill:rgb(255,255,255);fill-opacity:1;" d="M 60.199219 38.929688 C 60.199219 41.605469 54.246094 44.121094 46.898438 44.121094 C 39.554688 44.121094 33.601563 41.601563 33.601563 38.929688 C 33.601563 36.257813 39.554688 34.09375 46.898438 34.09375 C 54.246094 34.09375 60.199219 36.257813 60.199219 38.929688 "/>
<path style=" stroke:none;fill-rule:nonzero;fill:rgb(57,171,255);fill-opacity:1;" d="M 57.480469 38.871094 C 57.480469 40.511719 52.742188 41.84375 46.898438 41.84375 C 41.054688 41.84375 36.320313 40.511719 36.320313 38.871094 C 36.320313 37.226563 41.054688 35.894531 46.898438 35.894531 C 52.742188 35.894531 57.480469 37.226563 57.480469 38.871094 "/>
</g>
</svg>
