<?xml version="1.0" encoding="UTF-8"?>
<svg xmlns="http://www.w3.org/2000/svg" xmlns:xlink="http://www.w3.org/1999/xlink" width="70pt" height="70pt" viewBox="0 0 70 70" version="1.1">
<defs>
<radialGradient id="radial0" gradientUnits="userSpaceOnUse" cx="-105.006" cy="-10.409" fx="-105.006" fy="-10.409" r="5.954" gradientTransform="matrix(4.028889,0,0,3.993889,457.873889,76.393333)">
<stop offset="0.183" style="stop-color:rgb(36.862745%,62.745098%,93.72549%);stop-opacity:1;"/>
<stop offset="1" style="stop-color:rgb(0%,47.058824%,83.137255%);stop-opacity:1;"/>
</radialGradient>
<clipPath id="clip1">
  <path d="M 11 31 L 29 31 L 29 52 L 11 52 Z M 11 31 "/>
</clipPath>
<clipPath id="clip2">
  <path d="M 58.210938 29.285156 C 61.277344 42.101563 53.367188 54.980469 40.546875 58.042969 C 27.726563 61.105469 14.851563 53.195313 11.785156 40.375 C 8.722656 27.554688 16.632813 14.679688 29.453125 11.617188 C 42.273438 8.554688 55.148438 16.464844 58.210938 29.285156 Z M 58.210938 29.285156 "/>
</clipPath>
<clipPath id="clip3">
  <path d="M 35 18 L 59 18 L 59 39 L 35 39 Z M 35 18 "/>
</clipPath>
<clipPath id="clip4">
  <path d="M 58.210938 29.285156 C 61.277344 42.101563 53.367188 54.980469 40.546875 58.042969 C 27.726563 61.105469 14.851563 53.195313 11.785156 40.375 C 8.722656 27.554688 16.632813 14.679688 29.453125 11.617188 C 42.273438 8.554688 55.148438 16.464844 58.210938 29.285156 Z M 58.210938 29.285156 "/>
</clipPath>
</defs>
<g id="surface1">
<path style=" stroke:none;fill-rule:nonzero;fill:rgb(31.372549%,90.196078%,100%);fill-opacity:1;" d="M 11.488281 20.480469 C 11.304688 20.480469 11.132813 20.40625 11.003906 20.28125 C 10.875 20.152344 10.800781 19.976563 10.804688 19.792969 C 10.796875 15.480469 7.304688 11.988281 2.992188 11.980469 C 2.613281 11.980469 2.308594 11.675781 2.304688 11.300781 C 2.304688 10.921875 2.613281 10.617188 2.992188 10.617188 C 7.304688 10.609375 10.800781 7.113281 10.804688 2.800781 C 10.800781 2.617188 10.875 2.445313 11.003906 2.316406 C 11.132813 2.1875 11.304688 2.113281 11.488281 2.117188 C 11.667969 2.113281 11.84375 2.1875 11.972656 2.316406 C 12.101563 2.445313 12.171875 2.617188 12.171875 2.800781 C 12.179688 7.113281 15.671875 10.605469 19.984375 10.613281 C 20.167969 10.613281 20.339844 10.683594 20.46875 10.8125 C 20.597656 10.941406 20.671875 11.117188 20.667969 11.296875 C 20.671875 11.480469 20.597656 11.652344 20.46875 11.78125 C 20.339844 11.910156 20.167969 11.984375 19.984375 11.980469 C 15.671875 11.984375 12.175781 15.480469 12.171875 19.792969 C 12.171875 20.171875 11.863281 20.476563 11.488281 20.480469 Z M 11.488281 20.480469 "/>
<path style=" stroke:none;fill-rule:nonzero;fill:rgb(31.372549%,90.196078%,100%);fill-opacity:1;" d="M 60.710938 67.882813 C 60.40625 67.882813 60.160156 67.640625 60.160156 67.335938 C 60.15625 63.886719 57.363281 61.089844 53.910156 61.085938 C 53.609375 61.085938 53.367188 60.84375 53.363281 60.542969 C 53.363281 60.238281 53.609375 59.992188 53.910156 59.992188 C 57.363281 59.992188 60.160156 57.195313 60.160156 53.746094 C 60.160156 53.441406 60.40625 53.195313 60.710938 53.195313 C 61.011719 53.195313 61.257813 53.441406 61.257813 53.746094 C 61.261719 57.195313 64.054688 59.992188 67.507813 59.992188 C 67.808594 59.992188 68.054688 60.238281 68.054688 60.542969 C 68.054688 60.84375 67.808594 61.089844 67.507813 61.089844 C 64.058594 61.09375 61.261719 63.890625 61.257813 67.339844 C 61.253906 67.640625 61.011719 67.882813 60.710938 67.882813 Z M 60.710938 67.882813 "/>
<path style=" stroke:none;fill-rule:nonzero;fill:url(#radial0);" d="M 58.210938 29.285156 C 61.277344 42.101563 53.367188 54.980469 40.546875 58.042969 C 27.726563 61.105469 14.851563 53.195313 11.785156 40.375 C 8.722656 27.554688 16.632813 14.679688 29.453125 11.617188 C 42.273438 8.554688 55.148438 16.464844 58.210938 29.285156 Z M 58.210938 29.285156 "/>
<g clip-path="url(#clip1)" clip-rule="nonzero">
<g clip-path="url(#clip2)" clip-rule="nonzero">
<path style=" stroke:none;fill-rule:nonzero;fill:rgb(94.901961%,94.901961%,94.901961%);fill-opacity:1;" d="M 22.203125 51.003906 C 24.515625 51.0625 26.675781 49.867188 27.855469 47.875 C 29.03125 45.882813 29.035156 43.410156 27.863281 41.414063 C 26.695313 39.417969 24.535156 38.214844 22.222656 38.265625 C 22.238281 38.085938 22.25 37.902344 22.25 37.722656 C 22.214844 34.183594 19.328125 31.339844 15.789063 31.359375 L 11.011719 31.359375 C 10.066406 38.503906 12.339844 45.699219 17.214844 51.003906 Z M 22.203125 51.003906 "/>
</g>
</g>
<g clip-path="url(#clip3)" clip-rule="nonzero">
<g clip-path="url(#clip4)" clip-rule="nonzero">
<path style=" stroke:none;fill-rule:nonzero;fill:rgb(94.901961%,94.901961%,94.901961%);fill-opacity:1;" d="M 58.507813 30.390625 C 58.507813 30.332031 58.507813 30.273438 58.480469 30.21875 C 57.710938 26.058594 55.820313 22.1875 53.011719 19.019531 C 52.648438 18.871094 52.273438 18.757813 51.890625 18.671875 C 49.820313 18.078125 47.59375 18.472656 45.847656 19.734375 C 44.101563 20.996094 43.03125 22.988281 42.945313 25.136719 C 42.6875 25.109375 42.425781 25.089844 42.167969 25.085938 C 38.878906 25.085938 36.066406 27.453125 35.507813 30.695313 C 34.953125 33.9375 36.808594 37.109375 39.90625 38.207031 C 40.578125 38.472656 41.292969 38.601563 42.011719 38.597656 L 49.90625 38.597656 C 53.074219 36.199219 55.960938 33.445313 58.507813 30.390625 Z M 58.507813 30.390625 "/>
</g>
</g>
<path style=" stroke:none;fill-rule:nonzero;fill:rgb(31.372549%,90.196078%,100%);fill-opacity:1;" d="M 66.855469 14.902344 C 64.40625 10.832031 58.6875 9.242188 50.695313 10.433594 C 47.957031 10.820313 45.25 11.410156 42.597656 12.191406 C 44.703125 12.917969 46.703125 13.921875 48.542969 15.175781 C 49.476563 14.96875 50.417969 14.722656 51.320313 14.585938 C 52.742188 14.367188 54.175781 14.25 55.609375 14.242188 C 58.464844 13.828125 61.332031 14.890625 63.230469 17.0625 C 64.71875 19.542969 63.460938 23.785156 59.785156 28.726563 C 54.671875 35.089844 48.40625 40.433594 41.316406 44.480469 C 34.382813 48.808594 26.699219 51.792969 18.667969 53.277344 C 12.585938 54.1875 8.238281 53.277344 6.746094 50.804688 C 5.257813 48.332031 6.515625 44.078125 10.191406 39.15625 C 10.648438 38.546875 10.761719 38.246094 11.277344 37.632813 C 11.035156 35.523438 11.070313 33.394531 11.378906 31.292969 C 9.726563 32.949219 8.203125 34.734375 6.828125 36.628906 C 2.011719 43.074219 0.703125 48.867188 3.144531 52.9375 C 5.773438 56.453125 10.066406 58.300781 14.425781 57.796875 C 16.054688 57.789063 17.679688 57.65625 19.289063 57.40625 C 27.863281 55.84375 36.070313 52.675781 43.472656 48.074219 C 51.035156 43.746094 57.714844 38.03125 63.15625 31.226563 C 67.988281 24.769531 69.296875 18.976563 66.855469 14.902344 Z M 66.855469 14.902344 "/>
</g>
</svg>
