<?xml version="1.0" encoding="UTF-8"?>
<svg xmlns="http://www.w3.org/2000/svg" xmlns:xlink="http://www.w3.org/1999/xlink" width="70pt" height="70pt" viewBox="0 0 70 70" version="1.1">
<defs>
<filter id="alpha" filterUnits="objectBoundingBox" x="0%" y="0%" width="100%" height="100%">
  <feColorMatrix type="matrix" in="SourceGraphic" values="0 0 0 0 1 0 0 0 0 1 0 0 0 0 1 0 0 0 1 0"/>
</filter>
<mask id="mask0">
  <g filter="url(#alpha)">
<rect x="0" y="0" width="70" height="70" style="fill:rgb(0,0,0);fill-opacity:0.2;stroke:none;"/>
  </g>
</mask>
<clipPath id="clip1">
  <rect x="0" y="0" width="70" height="70"/>
</clipPath>
<g id="surface5" clip-path="url(#clip1)">
<path style=" stroke:none;fill-rule:nonzero;fill:rgb(255,255,255);fill-opacity:1;" d="M 46.898438 9.238281 L 39.621094 1.960938 C 38.359375 0.699219 36.679688 0 35 0 C 33.320313 0 31.640625 0.699219 30.378906 1.960938 L 1.960938 30.378906 C 0.699219 31.640625 0 33.320313 0 35 C 0 36.679688 0.699219 38.359375 1.960938 39.621094 L 13.578125 51.238281 Z M 46.898438 9.238281 "/>
</g>
</defs>
<g id="surface1">
<path style=" stroke:none;fill-rule:nonzero;fill:rgb(0,102,178);fill-opacity:1;" d="M 35 70 C 33.320313 70 31.640625 69.300781 30.378906 68.039063 L 1.960938 39.621094 C 0.699219 38.359375 0 36.679688 0 35 C 0 33.320313 0.699219 31.640625 1.960938 30.378906 L 30.378906 1.960938 C 31.640625 0.699219 33.320313 0 35 0 C 36.679688 0 38.359375 0.699219 39.621094 1.960938 L 68.179688 30.519531 C 69.441406 31.78125 70.140625 33.320313 70.140625 35.140625 C 70.140625 36.960938 69.441406 38.5 68.179688 39.761719 L 39.621094 68.039063 C 38.359375 69.300781 36.679688 70 35 70 "/>
<use xlink:href="#surface5" mask="url(#mask0)"/>
<path style=" stroke:none;fill-rule:nonzero;fill:rgb(39,163,255);fill-opacity:1;" d="M 16.800781 28.558594 L 9.800781 28.558594 L 9.800781 42.140625 C 9.800781 43.539063 12.878906 44.660156 16.660156 44.660156 L 16.800781 44.660156 C 20.71875 44.660156 23.800781 43.539063 23.800781 42.140625 L 23.800781 28.558594 Z M 16.800781 28.558594 "/>
<path style=" stroke:none;fill-rule:nonzero;fill:rgb(115,195,255);fill-opacity:1;" d="M 16.800781 28.558594 L 16.800781 44.660156 C 20.71875 44.660156 23.800781 43.539063 23.800781 42.140625 L 23.800781 28.558594 Z M 16.800781 28.558594 "/>
<path style=" stroke:none;fill-rule:nonzero;fill:rgb(255,255,255);fill-opacity:1;" d="M 23.800781 28.558594 C 23.800781 30.378906 20.71875 31.78125 16.800781 31.78125 C 12.878906 31.78125 9.800781 30.378906 9.800781 28.558594 C 9.800781 26.738281 12.878906 25.339844 16.800781 25.339844 C 20.71875 25.339844 23.800781 26.738281 23.800781 28.558594 "/>
<path style=" stroke:none;fill-rule:nonzero;fill:rgb(39,163,255);fill-opacity:1;" d="M 21.980469 28.558594 C 21.980469 29.539063 19.738281 30.378906 16.800781 30.378906 C 13.859375 30.378906 11.621094 29.539063 11.621094 28.558594 C 11.621094 27.578125 13.859375 26.738281 16.800781 26.738281 C 19.738281 26.738281 21.980469 27.578125 21.980469 28.558594 "/>
<path style=" stroke:none;fill-rule:nonzero;fill:rgb(39,163,255);fill-opacity:1;" d="M 53.199219 28.558594 L 46.199219 28.558594 L 46.199219 42.140625 C 46.199219 43.539063 49.28125 44.660156 53.058594 44.660156 L 53.199219 44.660156 C 57.121094 44.660156 60.199219 43.539063 60.199219 42.140625 L 60.199219 28.558594 Z M 53.199219 28.558594 "/>
<path style=" stroke:none;fill-rule:nonzero;fill:rgb(115,195,255);fill-opacity:1;" d="M 53.199219 28.558594 L 53.199219 44.660156 C 57.121094 44.660156 60.199219 43.539063 60.199219 42.140625 L 60.199219 28.558594 Z M 53.199219 28.558594 "/>
<path style=" stroke:none;fill-rule:nonzero;fill:rgb(255,255,255);fill-opacity:1;" d="M 60.199219 28.558594 C 60.199219 30.378906 57.121094 31.78125 53.199219 31.78125 C 49.28125 31.78125 46.199219 30.378906 46.199219 28.558594 C 46.199219 26.738281 49.28125 25.339844 53.199219 25.339844 C 57.121094 25.339844 60.199219 26.738281 60.199219 28.558594 "/>
<path style=" stroke:none;fill-rule:nonzero;fill:rgb(39,163,255);fill-opacity:1;" d="M 58.378906 28.558594 C 58.378906 29.539063 56.140625 30.378906 53.199219 30.378906 C 50.261719 30.378906 48.019531 29.539063 48.019531 28.558594 C 48.019531 27.578125 50.261719 26.738281 53.199219 26.738281 C 56.140625 26.738281 58.378906 27.578125 58.378906 28.558594 "/>
<path style=" stroke:none;fill-rule:nonzero;fill:rgb(39,163,255);fill-opacity:1;" d="M 35 10.359375 L 28 10.359375 L 28 23.941406 C 28 25.339844 31.078125 26.460938 34.859375 26.460938 L 35 26.460938 C 38.921875 26.460938 42 25.339844 42 23.941406 L 42 10.359375 Z M 35 10.359375 "/>
<path style=" stroke:none;fill-rule:nonzero;fill:rgb(115,195,255);fill-opacity:1;" d="M 35 10.359375 L 35 26.460938 C 38.921875 26.460938 42 25.339844 42 23.941406 L 42 10.359375 Z M 35 10.359375 "/>
<path style=" stroke:none;fill-rule:nonzero;fill:rgb(255,255,255);fill-opacity:1;" d="M 42 10.359375 C 42 12.179688 38.921875 13.578125 35 13.578125 C 31.078125 13.578125 28 12.179688 28 10.359375 C 28 8.539063 31.078125 7.140625 35 7.140625 C 38.921875 7.140625 42 8.539063 42 10.359375 "/>
<path style=" stroke:none;fill-rule:nonzero;fill:rgb(39,163,255);fill-opacity:1;" d="M 40.179688 10.359375 C 40.179688 11.339844 37.941406 12.179688 35 12.179688 C 32.058594 12.179688 29.820313 11.339844 29.820313 10.359375 C 29.820313 9.378906 32.199219 8.539063 35 8.539063 C 37.800781 8.539063 40.179688 9.378906 40.179688 10.359375 "/>
<path style=" stroke:none;fill-rule:nonzero;fill:rgb(39,163,255);fill-opacity:1;" d="M 35 46.761719 L 28 46.761719 L 28 60.339844 C 28 61.738281 31.078125 62.859375 34.859375 62.859375 L 35 62.859375 C 38.921875 62.859375 42 61.738281 42 60.339844 L 42 46.761719 Z M 35 46.761719 "/>
<path style=" stroke:none;fill-rule:nonzero;fill:rgb(115,195,255);fill-opacity:1;" d="M 35 46.761719 L 35 62.859375 C 38.921875 62.859375 42 61.738281 42 60.339844 L 42 46.761719 Z M 35 46.761719 "/>
<path style=" stroke:none;fill-rule:nonzero;fill:rgb(255,255,255);fill-opacity:1;" d="M 42 46.761719 C 42 48.578125 38.921875 49.980469 35 49.980469 C 31.078125 49.980469 28 48.578125 28 46.761719 C 28 44.941406 31.078125 43.539063 35 43.539063 C 38.921875 43.539063 42 44.941406 42 46.761719 "/>
<path style=" stroke:none;fill-rule:nonzero;fill:rgb(39,163,255);fill-opacity:1;" d="M 40.179688 46.761719 C 40.179688 47.738281 37.941406 48.578125 35 48.578125 C 32.058594 48.578125 29.820313 47.738281 29.820313 46.761719 C 29.820313 45.78125 32.058594 44.941406 35 44.941406 C 37.941406 44.941406 40.179688 45.78125 40.179688 46.761719 "/>
</g>
</svg>
