<?xml version="1.0" encoding="utf-8"?><svg version="1.1" xmlns="http://www.w3.org/2000/svg" xmlns:xlink="http://www.w3.org/1999/xlink" xmlns:xml="http://www.w3.org/XML/1998/namespace" width="70" height="70" viewBox="0, 0, 18, 18" id="bfe7cacd-ee25-481f-8f5e-25c9c27c3227"><defs><linearGradient x1="-3071.86" y1="6711.69" x2="-3071.86" y2="6747.69" gradientUnits="userSpaceOnUse" gradientTransform="matrix(0.35, 0.35, 0.35, -0.35, -1284.32, 3474.58)" id="a3e5dfd8-a5f0-49b4-8cf9-1d0f89138e2c"><stop offset="0%" stop-color="#005BA1" /><stop offset="10%" stop-color="#0060A9" /><stop offset="52%" stop-color="#0071C8" /><stop offset="75%" stop-color="#0078D4" /></linearGradient></defs><title>Icon-databases-134</title><rect x="2.46" y="2.46" width="13.08" height="13.08" rx="0.61" transform="translate(-3.73, 9) rotate(-45, 0, 0)" style="fill:url(#a3e5dfd8-a5f0-49b4-8cf9-1d0f89138e2c);" /><path d="M9 3.41 c-0.95 0 -1.71 -0.24 -1.71 -0.55 V5.77 c0 0.29 0.75 0.54 1.68 0.54 H9 c0.94 0 1.71 -0.24 1.71 -0.54 V2.86 C10.72 3.17 10 3.41 9 3.41 Z" style="fill:#50E6FF;" /><path d="M10.72 2.86 c0 0.31 -0.77 0.55 -1.71 0.55 S7.3 3.17 7.3 2.86 S8.06 2.32 9 2.32 s1.71 0.24 1.71 0.54" style="fill:#EAEAEA;" /><path d="M10.32 2.82 c0 0.19 -0.59 0.35 -1.31 0.35 S7.7 3 7.7 2.82 S8.28 2.47 9 2.47 s1.31 0.16 1.31 0.35" style="fill:#50E6FF;" /><path d="M9 2.9 A3.57 3.57 0 0 0 8 3 a3.52 3.52 0 0 0 1 0.14 a3.52 3.52 0 0 0 1 -0.14 A3.62 3.62 0 0 0 9 2.9 Z" style="fill:#32BEDD;" /><path d="M9 12.82 c-0.95 0 -1.71 -0.24 -1.71 -0.55 v2.91 c0 0.29 0.75 0.54 1.68 0.54 H9 c0.94 0 1.71 -0.24 1.71 -0.54 V12.27 C10.72 12.58 10 12.82 9 12.82 Z" style="fill:#50E6FF;" /><path d="M10.72 12.27 c0 0.31 -0.77 0.55 -1.71 0.55 s-1.71 -0.24 -1.71 -0.55 s0.76 -0.54 1.71 -0.54 s1.71 0.24 1.71 0.54" style="fill:#EAEAEA;" /><path d="M10.32 12.23 c0 0.19 -0.59 0.35 -1.31 0.35 s-1.31 -0.16 -1.31 -0.35 s0.58 -0.35 1.31 -0.35 s1.31 0.16 1.31 0.35" style="fill:#50E6FF;" /><path d="M9 12.31 a3.57 3.57 0 0 0 -1 0.13 a3.52 3.52 0 0 0 1 0.14 a3.52 3.52 0 0 0 1 -0.14 A3.62 3.62 0 0 0 9 12.31 Z" style="fill:#32BEDD;" /><path d="M13.22 8.09 c-1 0 -1.71 -0.24 -1.71 -0.54 v2.9 c0 0.3 0.75 0.54 1.69 0.55 h0 c0.94 0 1.71 -0.25 1.71 -0.55 V7.55 C14.93 7.85 14.16 8.09 13.22 8.09 Z" style="fill:#50E6FF;" /><path d="M14.93 7.55 c0 0.3 -0.77 0.54 -1.71 0.54 s-1.71 -0.24 -1.71 -0.54 S12.27 7 13.22 7 s1.71 0.25 1.71 0.55" style="fill:#EAEAEA;" /><path d="M14.53 7.5 c0 0.2 -0.59 0.35 -1.31 0.35 s-1.31 -0.15 -1.31 -0.35 s0.58 -0.34 1.31 -0.34 s1.31 0.15 1.31 0.34" style="fill:#50E6FF;" /><path d="M13.22 7.58 a3.52 3.52 0 0 0 -1 0.14 a3.57 3.57 0 0 0 1 0.13 a3.57 3.57 0 0 0 1 -0.13 A3.57 3.57 0 0 0 13.22 7.58 Z" style="fill:#32BEDD;" /><path d="M4.92 8.09 c-0.95 0 -1.71 -0.24 -1.71 -0.54 v2.9 c0 0.3 0.75 0.54 1.68 0.55 h0 c0.94 0 1.71 -0.25 1.71 -0.55 V7.55 C6.63 7.85 5.86 8.09 4.92 8.09 Z" style="fill:#50E6FF;" /><path d="M6.63 7.55 c0 0.3 -0.77 0.54 -1.71 0.54 s-1.71 -0.24 -1.71 -0.54 S4 7 4.92 7 s1.71 0.25 1.71 0.55" style="fill:#EAEAEA;" /><path d="M6.23 7.5 c0 0.2 -0.59 0.35 -1.31 0.35 S3.61 7.7 3.61 7.5 s0.58 -0.34 1.31 -0.34 s1.31 0.15 1.31 0.34" style="fill:#50E6FF;" /><path d="M4.92 7.58 a3.52 3.52 0 0 0 -1 0.14 a3.57 3.57 0 0 0 1 0.13 a3.57 3.57 0 0 0 1 -0.13 A3.57 3.57 0 0 0 4.92 7.58 Z" style="fill:#32BEDD;" /></svg>