<?xml version="1.0" encoding="utf-8"?><svg version="1.1" xmlns="http://www.w3.org/2000/svg" xmlns:xlink="http://www.w3.org/1999/xlink" xmlns:xml="http://www.w3.org/XML/1998/namespace" width="70" height="70" viewBox="0, 0, 18, 18"><defs><linearGradient x1="9.908" y1="15.943" x2="7.516" y2="2.383" gradientUnits="userSpaceOnUse" id="f67d1585-6164-4ad0-b2dd-f9cc59b2969f"><stop offset="15%" stop-color="#006CBC" /><stop offset="80%" stop-color="#29A4FF" /><stop offset="100%" stop-color="#5FBBFF" /></linearGradient></defs><g id="a4fd1868-54fe-4ca6-8ff6-3b01866dc27b"><path d="M14.49 7.15 A5.147 5.147 0 0 0 9.24 2.164 A5.272 5.272 0 0 0 4.216 5.653 A4.869 4.869 0 0 0 0 10.4 a4.946 4.946 0 0 0 5.068 4.814 H13.82 A4.292 4.292 0 0 0 18 11.127 A4.105 4.105 0 0 0 14.49 7.15 Z" style="fill:url(#f67d1585-6164-4ad0-b2dd-f9cc59b2969f);" /><path d="M12.9 11.4 V8 H12 v4.13 h2.46 V11.4 Z M5.76 9.73 a1.825 1.825 0 0 1 -0.51 -0.31 a0.441 0.441 0 0 1 -0.12 -0.32 a0.342 0.342 0 0 1 0.15 -0.3 a0.683 0.683 0 0 1 0.42 -0.12 a1.62 1.62 0 0 1 1 0.29 V8.11 a2.58 2.58 0 0 0 -1 -0.16 a1.641 1.641 0 0 0 -1.09 0.34 a1.08 1.08 0 0 0 -0.42 0.89 c0 0.51 0.32 0.91 1 1.21 a2.907 2.907 0 0 1 0.62 0.36 a0.419 0.419 0 0 1 0.15 0.32 a0.381 0.381 0 0 1 -0.16 0.31 a0.806 0.806 0 0 1 -0.45 0.11 a1.66 1.66 0 0 1 -1.09 -0.42 V12 a2.173 2.173 0 0 0 1.07 0.24 a1.877 1.877 0 0 0 1.18 -0.33 A1.08 1.08 0 0 0 6.84 11 a1.048 1.048 0 0 0 -0.25 -0.7 A2.425 2.425 0 0 0 5.76 9.73 Z M11 11.32 A2.191 2.191 0 0 0 11 9 a1.808 1.808 0 0 0 -0.7 -0.75 a2 2 0 0 0 -1 -0.26 a2.112 2.112 0 0 0 -1.08 0.27 A1.856 1.856 0 0 0 7.49 9 a2.465 2.465 0 0 0 -0.26 1.14 a2.256 2.256 0 0 0 0.24 1 a1.766 1.766 0 0 0 0.69 0.74 a2.056 2.056 0 0 0 1 0.3 l0.86 1 h1.21 L10 12.08 A1.79 1.79 0 0 0 11 11.32 Z m-1 -0.25 a0.941 0.941 0 0 1 -0.76 0.35 a0.916 0.916 0 0 1 -0.76 -0.36 a1.523 1.523 0 0 1 -0.29 -1 a1.529 1.529 0 0 1 0.29 -1 a1 1 0 0 1 0.78 -0.37 a0.869 0.869 0 0 1 0.75 0.37 a1.619 1.619 0 0 1 0.27 1 A1.459 1.459 0 0 1 10 11.07 Z" style="fill:#E5F3FF;" /></g>​
</svg>