<?xml version="1.0" encoding="UTF-8"?>
<svg xmlns="http://www.w3.org/2000/svg" xmlns:xlink="http://www.w3.org/1999/xlink" width="67pt" height="70pt" viewBox="0 0 67 70" version="1.1">
<g id="surface1">
<path style=" stroke:none;fill-rule:nonzero;fill:rgb(46.666667%,46.666667%,46.666667%);fill-opacity:1;" d="M 21.609375 69.996094 L 45.382813 69.996094 C 47.761719 69.996094 49.707031 68.03125 49.707031 65.625 L 49.707031 21.875 C 49.707031 19.46875 47.75 17.5 45.382813 17.5 L 21.609375 17.5 C 19.246094 17.5 17.289063 19.480469 17.289063 21.875 L 17.289063 65.621094 C 17.289063 68.015625 19.234375 69.996094 21.609375 69.996094 Z M 21.609375 69.996094 "/>
<path style=" stroke:none;fill-rule:nonzero;fill:rgb(0%,0%,0%);fill-opacity:1;" d="M 25.933594 21.875 C 23.546875 21.875 21.609375 23.832031 21.609375 26.25 C 21.609375 28.664063 23.546875 30.621094 25.933594 30.621094 L 41.0625 30.621094 C 43.449219 30.621094 45.382813 28.664063 45.382813 26.25 C 45.382813 23.832031 43.449219 21.875 41.0625 21.875 Z M 25.933594 21.875 "/>
<path style=" stroke:none;fill-rule:nonzero;fill:rgb(72.156863%,83.137255%,19.607843%);fill-opacity:1;" d="M 25.933594 28.4375 C 27.128906 28.4375 28.097656 27.457031 28.097656 26.25 C 28.097656 25.042969 27.128906 24.0625 25.933594 24.0625 C 24.742188 24.0625 23.773438 25.042969 23.773438 26.25 C 23.773438 27.457031 24.742188 28.4375 25.933594 28.4375 Z M 25.933594 28.4375 "/>
<path style=" stroke:none;fill-rule:nonzero;fill:rgb(0%,0%,0%);fill-opacity:1;" d="M 25.933594 35 C 23.546875 35 21.609375 36.957031 21.609375 39.375 C 21.609375 41.789063 23.546875 43.75 25.933594 43.75 L 41.0625 43.75 C 43.449219 43.75 45.382813 41.789063 45.382813 39.375 C 45.382813 36.957031 43.449219 35 41.0625 35 Z M 25.933594 35 "/>
<path style=" stroke:none;fill-rule:nonzero;fill:rgb(72.156863%,83.137255%,19.607843%);fill-opacity:1;" d="M 25.933594 41.5625 C 27.128906 41.5625 28.097656 40.582031 28.097656 39.375 C 28.097656 38.167969 27.128906 37.1875 25.933594 37.1875 C 24.742188 37.1875 23.773438 38.167969 23.773438 39.375 C 23.773438 40.582031 24.742188 41.5625 25.933594 41.5625 Z M 25.933594 41.5625 "/>
<path style=" stroke:none;fill-rule:nonzero;fill:rgb(46.666667%,46.666667%,46.666667%);fill-opacity:1;" d="M 51.871094 52.5 L 62.675781 52.5 C 65.054688 52.5 67 50.53125 67 48.125 L 67 4.375 C 67 1.96875 65.042969 0 62.675781 0 L 38.902344 0 C 36.535156 0 34.578125 1.980469 34.578125 4.375 L 34.578125 15.3125 L 45.386719 15.3125 C 48.953125 15.3125 51.871094 18.265625 51.871094 21.875 Z M 51.871094 52.5 "/>
<path style=" stroke:none;fill-rule:nonzero;fill:rgb(0%,0%,0%);fill-opacity:1;" d="M 43.226563 4.375 C 40.835938 4.375 38.902344 6.332031 38.902344 8.75 C 38.902344 11.164063 40.835938 13.125 43.226563 13.125 L 58.355469 13.125 C 60.742188 13.125 62.675781 11.164063 62.675781 8.75 C 62.675781 6.332031 60.742188 4.375 58.355469 4.375 Z M 43.226563 4.375 "/>
<path style=" stroke:none;fill-rule:nonzero;fill:rgb(72.156863%,83.137255%,19.607843%);fill-opacity:1;" d="M 43.226563 10.933594 C 44.417969 10.933594 45.386719 9.957031 45.386719 8.75 C 45.386719 7.542969 44.417969 6.5625 43.226563 6.5625 C 42.03125 6.5625 41.0625 7.542969 41.0625 8.75 C 41.0625 9.957031 42.03125 10.933594 43.226563 10.933594 Z M 43.226563 10.933594 "/>
<path style=" stroke:none;fill-rule:nonzero;fill:rgb(0%,0%,0%);fill-opacity:1;" d="M 51.871094 26.25 L 58.355469 26.25 C 60.742188 26.25 62.675781 24.289063 62.675781 21.875 C 62.675781 19.460938 60.742188 17.5 58.355469 17.5 L 50.207031 17.5 C 51.242188 18.664063 51.871094 20.199219 51.871094 21.875 Z M 51.871094 26.25 "/>
<path style=" stroke:none;fill-rule:nonzero;fill:rgb(46.666667%,46.666667%,46.666667%);fill-opacity:1;" d="M 4.324219 52.5 L 15.128906 52.5 L 15.128906 21.875 C 15.128906 18.265625 18.046875 15.3125 21.609375 15.3125 L 32.421875 15.3125 L 32.421875 4.375 C 32.421875 1.96875 30.464844 0 28.097656 0 L 4.324219 0 C 1.957031 0 0 1.980469 0 4.375 L 0 48.121094 C 0 50.519531 1.945313 52.5 4.324219 52.5 Z M 4.324219 52.5 "/>
<path style=" stroke:none;fill-rule:nonzero;fill:rgb(0%,0%,0%);fill-opacity:1;" d="M 8.644531 4.375 C 6.257813 4.375 4.324219 6.332031 4.324219 8.75 C 4.324219 11.164063 6.257813 13.125 8.644531 13.125 L 23.773438 13.125 C 26.164063 13.125 28.097656 11.164063 28.097656 8.75 C 28.097656 6.332031 26.164063 4.375 23.773438 4.375 Z M 8.644531 4.375 "/>
<path style=" stroke:none;fill-rule:nonzero;fill:rgb(72.156863%,83.137255%,19.607843%);fill-opacity:1;" d="M 8.644531 10.933594 C 9.839844 10.933594 10.808594 9.957031 10.808594 8.75 C 10.808594 7.542969 9.839844 6.5625 8.644531 6.5625 C 7.453125 6.5625 6.484375 7.542969 6.484375 8.75 C 6.484375 9.957031 7.453125 10.933594 8.644531 10.933594 Z M 8.644531 10.933594 "/>
<path style=" stroke:none;fill-rule:nonzero;fill:rgb(0%,0%,0%);fill-opacity:1;" d="M 8.644531 17.5 C 6.257813 17.5 4.324219 19.460938 4.324219 21.875 C 4.324219 24.292969 6.257813 26.25 8.644531 26.25 L 15.128906 26.25 L 15.128906 21.875 C 15.128906 20.199219 15.757813 18.664063 16.789063 17.5 Z M 8.644531 17.5 "/>
<path style=" stroke:none;fill-rule:nonzero;fill:rgb(72.156863%,83.137255%,19.607843%);fill-opacity:1;" d="M 8.644531 24.0625 C 9.839844 24.0625 10.808594 23.082031 10.808594 21.875 C 10.808594 20.667969 9.839844 19.6875 8.644531 19.6875 C 7.453125 19.6875 6.484375 20.667969 6.484375 21.875 C 6.484375 23.082031 7.453125 24.0625 8.644531 24.0625 Z M 8.644531 24.0625 "/>
<path style=" stroke:none;fill-rule:nonzero;fill:rgb(75.294118%,92.54902%,98.823529%);fill-opacity:1;" d="M 56.191406 70 C 59.773438 70 62.675781 67.0625 62.675781 63.4375 C 62.675781 59.527344 59.335938 56.507813 55.507813 56.910156 C 57.570313 46.789063 49.945313 37.1875 39.632813 37.1875 C 32.878906 37.1875 27.089844 41.367188 24.652344 47.3125 C 17.601563 45.703125 10.808594 51.113281 10.808594 58.515625 C 10.808594 64.855469 15.886719 69.996094 22.152344 69.996094 Z M 56.191406 70 "/>
<path style=" stroke:none;fill-rule:nonzero;fill:rgb(40%,84.313725%,96.862745%);fill-opacity:1;" d="M 55.511719 50.28125 C 53.996094 42.808594 47.464844 37.1875 39.632813 37.1875 C 32.878906 37.1875 27.089844 41.367188 24.652344 47.3125 C 23.847656 47.128906 23.011719 47.03125 22.152344 47.03125 C 15.886719 47.03125 10.808594 52.171875 10.808594 58.515625 C 10.808594 64.855469 15.886719 69.996094 22.152344 69.996094 L 29.78125 69.996094 C 24.695313 69.996094 20.570313 65.824219 20.570313 60.675781 C 20.570313 55.527344 24.695313 51.351563 29.78125 51.351563 C 30.480469 51.351563 31.160156 51.433594 31.8125 51.582031 C 33.789063 46.757813 38.488281 43.363281 43.96875 43.363281 C 48.945313 43.363281 53.273438 46.15625 55.511719 50.28125 Z M 55.511719 50.28125 "/>
</g>
</svg>
