<?xml version="1.0" encoding="UTF-8"?>
<svg xmlns="http://www.w3.org/2000/svg" xmlns:xlink="http://www.w3.org/1999/xlink" width="70pt" height="70pt" viewBox="0 0 70 70" version="1.1">
<defs>
<linearGradient id="linear0" gradientUnits="userSpaceOnUse" x1="2.59" y1="10.16" x2="15.41" y2="10.16" gradientTransform="matrix(3.888889,0,0,3.888889,0,0)">
<stop offset="0" style="stop-color:rgb(0,81,142);stop-opacity:1;"/>
<stop offset="0.07" style="stop-color:rgb(0,86,150);stop-opacity:1;"/>
<stop offset="0.36" style="stop-color:rgb(0,101,176);stop-opacity:1;"/>
<stop offset="0.52" style="stop-color:rgb(0,108,188);stop-opacity:1;"/>
<stop offset="0.64" style="stop-color:rgb(0,103,180);stop-opacity:1;"/>
<stop offset="0.82" style="stop-color:rgb(0,95,166);stop-opacity:1;"/>
<stop offset="1" style="stop-color:rgb(0,81,142);stop-opacity:1;"/>
</linearGradient>
</defs>
<g id="surface1">
<path style=" stroke:none;fill-rule:nonzero;fill:url(#linear0);" d="M 35 19.988281 C 21.234375 19.988281 10.070313 16.101563 10.070313 10.964844 L 10.070313 59.035156 C 10.070313 63.972656 21.039063 67.976563 34.648438 68.054688 L 35 68.054688 C 48.765625 68.054688 59.929688 64.167969 59.929688 59.035156 L 59.929688 10.964844 C 59.929688 15.984375 48.765625 19.988281 35 19.988281 Z M 35 19.988281 "/>
<path style=" stroke:none;fill-rule:nonzero;fill:rgb(209,235,255);fill-opacity:1;" d="M 59.929688 10.964844 C 59.929688 15.984375 48.765625 19.988281 35 19.988281 C 21.234375 19.988281 10.070313 16.101563 10.070313 10.964844 C 10.070313 5.832031 21.234375 1.945313 35 1.945313 C 48.765625 1.945313 59.929688 5.832031 59.929688 10.964844 "/>
<path style=" stroke:none;fill-rule:nonzero;fill:rgb(119,197,255);fill-opacity:1;" d="M 54.132813 10.226563 C 54.132813 13.417969 45.539063 15.984375 35 15.984375 C 24.460938 15.984375 15.867188 13.417969 15.867188 10.226563 C 15.867188 7.039063 24.460938 4.511719 35 4.511719 C 45.539063 4.511719 54.132813 7.078125 54.132813 10.226563 "/>
<path style=" stroke:none;fill-rule:nonzero;fill:rgb(0,124,216);fill-opacity:1;" d="M 35 11.667969 C 29.867188 11.535156 24.75 12.285156 19.871094 13.882813 C 24.753906 15.453125 29.875 16.164063 35 15.984375 C 40.136719 16.132813 45.257813 15.371094 50.128906 13.726563 C 45.234375 12.203125 40.121094 11.507813 35 11.667969 Z M 35 11.667969 "/>
<path style=" stroke:none;fill-rule:nonzero;fill:rgb(229,243,255);fill-opacity:1;" d="M 49.15625 35 L 49.15625 41.339844 L 45.265625 41.339844 C 44.828125 41.328125 44.417969 41.128906 44.140625 40.792969 L 44.140625 35 L 38.890625 35 L 38.890625 41.921875 C 38.917969 42.90625 39.351563 43.835938 40.085938 44.492188 C 40.824219 45.148438 41.796875 45.46875 42.777344 45.382813 L 48.570313 45.382813 L 49.582031 44.878906 C 49.582031 44.878906 49.15625 46.472656 48.570313 46.550781 L 39.316406 46.550781 L 39.316406 50.4375 L 49.660156 50.4375 C 50.964844 50.460938 52.21875 49.945313 53.125 49.007813 C 54.03125 48.070313 54.507813 46.800781 54.445313 45.5 L 54.445313 35 Z M 49.15625 35 "/>
<path style=" stroke:none;fill-rule:nonzero;fill:rgb(229,243,255);fill-opacity:1;" d="M 37.0625 35 L 37.0625 33.09375 C 37.257813 31.773438 36.46875 30.503906 35.195313 30.101563 C 34.566406 29.902344 33.910156 29.796875 33.25 29.789063 C 31.714844 29.722656 30.296875 30.621094 29.710938 32.042969 L 26.679688 39.433594 L 22.789063 32.042969 C 22.234375 30.683594 20.914063 29.792969 19.445313 29.789063 C 18.769531 29.785156 18.09375 29.902344 17.460938 30.140625 C 16.101563 30.566406 15.789063 31.460938 15.789063 32.976563 L 15.789063 45.851563 L 20.339844 45.851563 L 20.339844 37.179688 L 22.789063 43.285156 C 23.449219 44.84375 24.980469 45.859375 26.679688 45.851563 C 28.390625 45.851563 29.089844 44.839844 29.789063 43.285156 L 32.394531 37.410156 L 32.394531 45.773438 L 36.984375 45.773438 L 36.984375 35 Z M 37.0625 35 "/>
</g>
</svg>
