<?xml version="1.0" encoding="UTF-8"?>
<svg xmlns="http://www.w3.org/2000/svg" xmlns:xlink="http://www.w3.org/1999/xlink" width="70pt" height="70pt" viewBox="0 0 70 70" version="1.1">
<defs>
<linearGradient id="linear0" gradientUnits="userSpaceOnUse" x1="2.59" y1="10.16" x2="15.41" y2="10.16" gradientTransform="matrix(3.888889,0,0,3.888889,0,0)">
<stop offset="0" style="stop-color:rgb(0,81,142);stop-opacity:1;"/>
<stop offset="0.07" style="stop-color:rgb(0,86,150);stop-opacity:1;"/>
<stop offset="0.36" style="stop-color:rgb(0,101,176);stop-opacity:1;"/>
<stop offset="0.52" style="stop-color:rgb(0,108,188);stop-opacity:1;"/>
<stop offset="0.64" style="stop-color:rgb(0,103,180);stop-opacity:1;"/>
<stop offset="0.82" style="stop-color:rgb(0,95,166);stop-opacity:1;"/>
<stop offset="1" style="stop-color:rgb(0,81,142);stop-opacity:1;"/>
</linearGradient>
</defs>
<g id="surface1">
<path style=" stroke:none;fill-rule:nonzero;fill:url(#linear0);" d="M 35 19.988281 C 21.234375 19.988281 10.070313 16.101563 10.070313 10.964844 L 10.070313 59.035156 C 10.070313 63.972656 21.039063 67.976563 34.648438 68.054688 L 35 68.054688 C 48.765625 68.054688 59.929688 64.167969 59.929688 59.035156 L 59.929688 10.964844 C 59.929688 15.984375 48.765625 19.988281 35 19.988281 Z M 35 19.988281 "/>
<path style=" stroke:none;fill-rule:nonzero;fill:rgb(209,235,255);fill-opacity:1;" d="M 59.929688 10.964844 C 59.929688 15.984375 48.765625 19.988281 35 19.988281 C 21.234375 19.988281 10.070313 16.101563 10.070313 10.964844 C 10.070313 5.832031 21.234375 1.945313 35 1.945313 C 48.765625 1.945313 59.929688 5.832031 59.929688 10.964844 "/>
<path style=" stroke:none;fill-rule:nonzero;fill:rgb(119,197,255);fill-opacity:1;" d="M 54.132813 10.226563 C 54.132813 13.417969 45.539063 15.984375 35 15.984375 C 24.460938 15.984375 15.867188 13.417969 15.867188 10.226563 C 15.867188 7.039063 24.460938 4.511719 35 4.511719 C 45.539063 4.511719 54.132813 7.078125 54.132813 10.226563 "/>
<path style=" stroke:none;fill-rule:nonzero;fill:rgb(0,124,216);fill-opacity:1;" d="M 35 11.667969 C 29.867188 11.535156 24.75 12.285156 19.871094 13.882813 C 24.753906 15.453125 29.875 16.164063 35 15.984375 C 40.136719 16.132813 45.257813 15.371094 50.128906 13.726563 C 45.234375 12.203125 40.121094 11.507813 35 11.667969 Z M 35 11.667969 "/>
<path style=" stroke:none;fill-rule:nonzero;fill:rgb(229,243,255);fill-opacity:1;" d="M 55.417969 24.578125 C 54.132813 24.578125 55.648438 25.550781 51.101563 25.746094 C 46.550781 25.9375 44.957031 30.605469 42 34.535156 C 38.859375 37.652344 34.738281 39.589844 30.332031 40.015625 C 27.371094 40.972656 24.804688 42.871094 23.023438 45.421875 C 22.503906 46.519531 21.464844 47.28125 20.261719 47.445313 C 19.210938 47.445313 16.917969 47.753906 16.917969 47.753906 C 15.964844 47.960938 15.039063 48.277344 14.15625 48.6875 C 14.464844 49.972656 17.035156 49.429688 17.035156 49.429688 C 16.402344 50.082031 15.726563 50.691406 15.011719 51.253906 C 16.285156 51.554688 17.601563 51.621094 18.898438 51.449219 C 20.570313 51.449219 21.855469 49.855469 24.929688 48.183594 C 28 46.511719 35.078125 48.183594 36.207031 48.183594 C 37.332031 48.183594 39.003906 45.226563 39.394531 44.292969 C 39.707031 46.394531 36.207031 52.070313 36.207031 52.070313 C 38.859375 51.898438 41.265625 50.449219 42.660156 48.183594 C 42.972656 47.792969 43.945313 45.773438 44.0625 45.964844 C 44.179688 46.160156 44.683594 46.707031 44.878906 46.628906 C 45.234375 46.308594 45.5625 45.957031 45.851563 45.578125 C 47.898438 42.65625 49.402344 39.390625 50.285156 35.933594 C 50.554688 35 50.554688 31.617188 52.890625 30.214844 C 55.222656 28.816406 55.535156 27.535156 55.535156 27.417969 L 55.535156 27.222656 C 54.957031 26.851563 54.445313 26.394531 54.015625 25.859375 C 53.941406 25.730469 53.941406 25.566406 54.015625 25.433594 C 54.40625 26.164063 55.082031 26.699219 55.882813 26.910156 C 55.882813 26.910156 56.699219 24.578125 55.417969 24.578125 Z M 50.554688 28.699219 L 50.320313 28.699219 C 49.90625 28.777344 49.476563 28.664063 49.15625 28.390625 C 49.472656 27.574219 50.3125 27.089844 51.179688 27.222656 C 51.394531 27.800781 51.121094 28.449219 50.554688 28.699219 Z M 52.734375 28.699219 C 53.070313 27.898438 53.5 27.144531 54.015625 26.445313 C 53.472656 27.195313 53.015625 28.003906 52.65625 28.855469 Z M 54.132813 26.714844 C 53.933594 27.359375 53.832031 28.027344 53.820313 28.699219 C 53.765625 28.207031 53.765625 27.714844 53.820313 27.222656 C 53.539063 27.695313 53.328125 28.203125 53.199219 28.738281 C 53.359375 28.066406 53.648438 27.429688 54.054688 26.871094 Z M 54.132813 26.714844 "/>
<path style=" stroke:none;fill-rule:nonzero;fill:rgb(229,243,255);fill-opacity:1;" d="M 47.484375 44.800781 C 47.484375 44.800781 45.578125 46.589844 45.5 47.210938 C 45.421875 47.832031 47.601563 48.804688 48.960938 48.457031 C 48.386719 47.269531 47.894531 46.050781 47.484375 44.800781 Z M 47.484375 44.800781 "/>
</g>
</svg>
