<?xml version="1.0" encoding="UTF-8"?>
<svg xmlns="http://www.w3.org/2000/svg" xmlns:xlink="http://www.w3.org/1999/xlink" width="70pt" height="70pt" viewBox="0 0 70 70" version="1.1">
<defs>
<linearGradient id="linear0" gradientUnits="userSpaceOnUse" x1="2.44" y1="10.67" x2="15.27" y2="10.67" gradientTransform="matrix(3.888889,-0.000678739,0.000678739,3.888889,0.544444,-1.944444)">
<stop offset="0" style="stop-color:rgb(0%,35.686275%,63.137255%);stop-opacity:1;"/>
<stop offset="0.07" style="stop-color:rgb(0%,37.647059%,66.27451%);stop-opacity:1;"/>
<stop offset="0.36" style="stop-color:rgb(0%,44.313725%,78.431373%);stop-opacity:1;"/>
<stop offset="0.52" style="stop-color:rgb(0%,47.058824%,83.137255%);stop-opacity:1;"/>
<stop offset="0.64" style="stop-color:rgb(0%,45.490196%,80.392157%);stop-opacity:1;"/>
<stop offset="0.82" style="stop-color:rgb(0%,41.568627%,73.333333%);stop-opacity:1;"/>
<stop offset="1" style="stop-color:rgb(0%,35.686275%,63.137255%);stop-opacity:1;"/>
</linearGradient>
</defs>
<g id="surface1">
<path style=" stroke:none;fill-rule:nonzero;fill:url(#linear0);" d="M 35 19.988281 C 21.234375 19.988281 10.070313 16.101563 10.070313 10.964844 L 10.070313 59.035156 C 10.070313 63.972656 21.039063 67.976563 34.648438 68.054688 L 35 68.054688 C 48.765625 68.054688 59.929688 64.167969 59.929688 59.035156 L 59.929688 10.964844 C 59.929688 15.945313 48.765625 19.988281 35 19.988281 Z M 35 19.988281 "/>
<path style=" stroke:none;fill-rule:nonzero;fill:rgb(90.980392%,90.980392%,90.980392%);fill-opacity:1;" d="M 59.929688 10.964844 C 59.929688 15.945313 48.765625 19.988281 35 19.988281 C 21.234375 19.988281 10.070313 16.101563 10.070313 10.964844 C 10.070313 5.832031 21.234375 1.945313 35 1.945313 C 48.765625 1.945313 59.929688 5.832031 59.929688 10.964844 "/>
<path style=" stroke:none;fill-rule:nonzero;fill:rgb(31.372549%,90.196078%,100%);fill-opacity:1;" d="M 54.09375 10.226563 C 54.09375 13.417969 45.539063 15.984375 35 15.984375 C 24.460938 15.984375 15.867188 13.417969 15.867188 10.265625 C 15.867188 7.117188 24.421875 4.511719 35 4.511719 C 45.578125 4.511719 54.09375 7.078125 54.09375 10.226563 "/>
<path style=" stroke:none;fill-rule:nonzero;fill:rgb(9.803922%,54.117647%,70.196078%);fill-opacity:1;" d="M 35 11.667969 C 29.855469 11.539063 24.726563 12.289063 19.832031 13.882813 C 24.730469 15.449219 29.863281 16.15625 35 15.984375 C 40.136719 16.109375 45.253906 15.34375 50.128906 13.726563 C 45.234375 12.210938 40.121094 11.511719 35 11.667969 Z M 35 11.667969 "/>
<path style=" stroke:none;fill-rule:nonzero;fill:rgb(94.901961%,94.901961%,94.901961%);fill-opacity:1;" d="M 46.667969 35 C 46.667969 35.3125 46.667969 35.933594 46.667969 36.632813 C 46.511719 37.441406 46.410156 38.261719 46.355469 39.082031 C 46.355469 39.550781 46.355469 40.25 46.550781 40.871094 C 46.746094 41.496094 46.550781 41.921875 46.550781 42.273438 C 46.535156 43.453125 46.199219 44.609375 45.578125 45.617188 C 45.570313 45.707031 45.570313 45.796875 45.578125 45.890625 L 45.964844 46.355469 C 47.71875 43.453125 49.101563 40.34375 50.089844 37.101563 C 51.179688 33.40625 51.292969 30.761719 50.4375 29.632813 C 47.933594 26.554688 43.847656 25.242188 40.015625 26.289063 C 41.335938 26.945313 42.535156 27.828125 43.554688 28.894531 C 45.367188 30.429688 46.488281 32.628906 46.667969 35 Z M 45.460938 35.3125 C 44.429688 35.058594 43.339844 35.183594 42.390625 35.660156 C 41.261719 36.359375 41.609375 37.800781 42.390625 39.550781 C 42.777344 40.679688 43.230469 41.78125 43.75 42.855469 L 44.101563 43.476563 C 44.292969 43.789063 44.410156 44.0625 44.527344 44.253906 L 44.839844 44.761719 C 45.292969 43.996094 45.535156 43.125 45.539063 42.234375 C 45.5625 41.804688 45.5625 41.378906 45.539063 40.949219 C 45.539063 40.289063 45.539063 39.550781 45.34375 39.042969 C 45.398438 38.144531 45.5 37.25 45.65625 36.359375 C 45.539063 35.933594 45.578125 35.503906 45.617188 35.195313 Z M 44.292969 36.90625 C 44.097656 37.09375 43.859375 37.226563 43.59375 37.292969 C 43.414063 37.332031 43.230469 37.332031 43.050781 37.292969 C 42.851563 37.101563 42.75 36.832031 42.777344 36.554688 C 42.777344 36.285156 43.207031 36.050781 43.710938 35.972656 L 44.449219 35.972656 C 44.449219 35.972656 44.800781 35.972656 44.800781 36.285156 C 44.757813 36.492188 44.632813 36.675781 44.449219 36.789063 Z M 26.054688 40.367188 C 26.054688 40.09375 26.054688 39.859375 26.054688 39.707031 C 26.074219 39.484375 26.074219 39.265625 26.054688 39.042969 C 25.9375 37.75 25.9375 36.449219 26.054688 35.15625 C 26.285156 33.691406 26.679688 32.257813 27.222656 30.878906 C 27.679688 29.5 28.453125 28.25 29.476563 27.222656 C 27.773438 26.714844 26.007813 26.453125 24.226563 26.445313 C 22.714844 26.378906 21.21875 26.785156 19.949219 27.609375 C 17.976563 29.394531 17.050781 32.066406 17.5 34.6875 C 17.875 37.648438 18.527344 40.5625 19.445313 43.398438 C 20.765625 47.832031 22.285156 50.554688 23.605469 50.984375 C 24.1875 51.179688 24.8125 50.984375 25.433594 50.167969 C 26.523438 48.84375 27.535156 47.714844 28.117188 47.054688 C 26.355469 45.265625 25.636719 42.695313 26.210938 40.25 Z M 27.066406 41.921875 C 27.050781 42.65625 27.128906 43.386719 27.300781 44.101563 C 27.535156 44.722656 27.878906 45.304688 28.3125 45.8125 C 28.695313 46.222656 29.15625 46.554688 29.671875 46.785156 C 30.15625 46.980469 30.667969 47.085938 31.1875 47.09375 C 31.1875 46.433594 31.734375 45.617188 32.082031 44.761719 C 32.410156 44.015625 32.683594 43.25 32.898438 42.464844 C 33.019531 41.03125 33.019531 39.585938 32.898438 38.148438 C 32.898438 37.800781 32.898438 37.410156 32.667969 36.984375 C 32.632813 36.589844 32.46875 36.222656 32.199219 35.933594 C 31.894531 35.640625 31.519531 35.425781 31.109375 35.3125 L 30.332031 35.3125 C 29.6875 35.390625 29.054688 35.574219 28.464844 35.855469 C 28.03125 36.0625 27.613281 36.308594 27.222656 36.59375 L 27.222656 37.023438 C 27.222656 37.800781 27.222656 38.617188 27.222656 39.394531 C 27.238281 39.589844 27.238281 39.785156 27.222656 39.976563 L 27.222656 41.496094 Z M 29.632813 36.710938 C 29.988281 36.597656 30.367188 36.597656 30.722656 36.710938 C 30.980469 36.746094 31.230469 36.824219 31.460938 36.945313 C 31.8125 36.945313 31.851563 37.371094 31.8125 37.488281 C 31.699219 37.691406 31.539063 37.867188 31.34375 37.996094 C 31.261719 37.953125 31.183594 37.898438 31.109375 37.839844 C 30.550781 37.746094 30.113281 37.308594 30.023438 36.75 Z M 32.511719 48.378906 C 32.320313 48.398438 32.144531 48.480469 32.003906 48.609375 L 31.460938 49.273438 C 30.800781 50.089844 30.527344 50.359375 28.621094 50.75 C 28.257813 50.785156 27.90625 50.917969 27.609375 51.140625 C 27.886719 51.351563 28.203125 51.496094 28.542969 51.566406 C 29.453125 51.859375 30.433594 51.859375 31.34375 51.566406 C 31.894531 51.300781 32.40625 50.960938 32.859375 50.554688 C 33.238281 50.242188 33.511719 49.824219 33.640625 49.351563 C 33.671875 48.949219 33.53125 48.550781 33.25 48.261719 C 33.082031 48.132813 32.859375 48.101563 32.667969 48.183594 Z M 50.4375 48.378906 C 49.019531 48.902344 47.460938 48.902344 46.042969 48.378906 C 45.867188 48.320313 45.675781 48.320313 45.5 48.378906 C 45.21875 48.46875 44.980469 48.664063 44.839844 48.921875 C 44.78125 49.320313 44.78125 49.726563 44.839844 50.128906 C 46.269531 50.449219 47.765625 50.3125 49.117188 49.738281 C 49.828125 49.441406 50.464844 48.988281 50.984375 48.417969 Z M 41.105469 40.054688 C 40.5625 38.460938 39.785156 36.167969 41.804688 34.765625 C 42.859375 34.179688 44.082031 33.976563 45.265625 34.183594 C 44.757813 32.535156 43.910156 31.011719 42.777344 29.710938 L 42.390625 29.320313 L 42.15625 29.089844 C 42.085938 29 42.007813 28.921875 41.921875 28.855469 C 41.152344 28.167969 40.273438 27.613281 39.316406 27.222656 C 37.957031 26.628906 36.484375 26.335938 35 26.367188 C 34.070313 26.292969 33.140625 26.4375 32.277344 26.792969 C 31.875 26.902344 31.484375 27.042969 31.109375 27.222656 C 29.78125 28.199219 28.777344 29.554688 28.234375 31.109375 C 27.847656 32.382813 27.574219 33.683594 27.417969 35 C 28.585938 34.296875 29.949219 33.984375 31.304688 34.105469 C 32.171875 34.175781 32.976563 34.585938 33.539063 35.25 C 34.101563 35.917969 34.375 36.777344 34.300781 37.644531 C 34.445313 39.289063 34.445313 40.941406 34.300781 42.582031 C 34.074219 43.425781 33.773438 44.242188 33.40625 45.035156 C 33.171875 45.695313 32.859375 46.394531 32.707031 46.9375 C 33.253906 46.902344 33.789063 47.101563 34.183594 47.484375 C 34.726563 48.027344 34.996094 48.78125 34.921875 49.542969 L 35 49.542969 C 35 49.855469 35 50.167969 35 50.476563 C 34.710938 53.671875 35.027344 56.890625 35.933594 59.964844 C 36.15625 60.328125 36.480469 60.609375 36.867188 60.785156 C 37.226563 61.023438 37.640625 61.15625 38.070313 61.171875 C 39.496094 61.300781 40.910156 60.820313 41.960938 59.851563 C 42.628906 59.15625 43.027344 58.246094 43.089844 57.285156 C 43.359375 55.535156 43.945313 50.671875 44.023438 49.503906 C 43.953125 48.914063 44.074219 48.3125 44.371094 47.792969 C 44.625 47.386719 44.988281 47.0625 45.421875 46.859375 C 43.585938 44.8125 42.167969 42.421875 41.261719 39.820313 Z M 41.105469 40.054688 "/>
</g>
</svg>
