<?xml version="1.0" encoding="UTF-8"?>
<svg xmlns="http://www.w3.org/2000/svg" xmlns:xlink="http://www.w3.org/1999/xlink" width="70pt" height="70pt" viewBox="0 0 70 70" version="1.1">
<defs>
<clipPath id="clip1">
  <path d="M 37 0 L 38 0 L 38 65 L 37 65 Z M 37 0 "/>
</clipPath>
<clipPath id="clip2">
  <path d="M 37.917969 2.917969 C 37.109375 13.386719 27.96875 21.222656 17.5 20.417969 C 7.03125 19.609375 -0.804688 10.46875 0 0 L 17.5 0 C 17.5 4.832031 13.582031 8.75 8.75 8.75 C 3.917969 8.75 0 4.832031 0 0 L 0 64.167969 C -17.71875 63.359375 -31.429688 48.34375 -30.625 30.625 C -29.820313 12.90625 -14.800781 -0.804688 2.917969 0 L 11.667969 0 C 12.808594 0.660156 13.367188 2.003906 13.027344 3.28125 C 12.683594 4.554688 11.527344 5.441406 10.207031 5.441406 C 8.886719 5.441406 7.734375 4.554688 7.390625 3.28125 C 7.050781 2.003906 7.605469 0.660156 8.75 0 L 8.75 37.917969 C -1.71875 37.917969 -10.207031 29.429688 -10.207031 18.957031 C -10.207031 8.488281 -1.71875 0 8.75 0 L 20.417969 0 L 20.417969 20.417969 C 14.777344 23.636719 7.597656 21.679688 4.375 16.042969 C 1.152344 10.402344 3.113281 3.222656 8.75 0 L 20.417969 0 Z M 37.917969 2.917969 "/>
</clipPath>
<linearGradient id="linear0" gradientUnits="userSpaceOnUse" x1="45.593" y1="95.494" x2="87.792" y2="6.047" gradientTransform="matrix(0.729167,0,0,-0.729167,0,70)">
<stop offset="0" style="stop-color:rgb(89,184,255);stop-opacity:1;"/>
<stop offset="1" style="stop-color:rgb(15,153,255);stop-opacity:1;"/>
</linearGradient>
<clipPath id="clip3">
  <path d="M 0 0 L 38 0 L 38 65 L 0 65 Z M 0 0 "/>
</clipPath>
<clipPath id="clip4">
  <path d="M 37.917969 2.917969 C 37.109375 13.386719 27.96875 21.222656 17.5 20.417969 C 7.03125 19.609375 -0.804688 10.46875 0 0 L 17.5 0 C 17.5 4.832031 13.582031 8.75 8.75 8.75 C 3.917969 8.75 0 4.832031 0 0 L 0 64.167969 C -17.71875 63.359375 -31.429688 48.34375 -30.625 30.625 C -29.820313 12.90625 -14.800781 -0.804688 2.917969 0 L 11.667969 0 C 12.808594 0.660156 13.367188 2.003906 13.027344 3.28125 C 12.683594 4.554688 11.527344 5.441406 10.207031 5.441406 C 8.886719 5.441406 7.734375 4.554688 7.390625 3.28125 C 7.050781 2.003906 7.605469 0.660156 8.75 0 L 8.75 37.917969 C -1.71875 37.917969 -10.207031 29.429688 -10.207031 18.957031 C -10.207031 8.488281 -1.71875 0 8.75 0 L 20.417969 0 L 20.417969 20.417969 C 14.777344 23.636719 7.597656 21.679688 4.375 16.042969 C 1.152344 10.402344 3.113281 3.222656 8.75 0 L 20.417969 0 Z M 37.917969 2.917969 "/>
</clipPath>
<linearGradient id="linear1" gradientUnits="userSpaceOnUse" x1="29.359" y1="70.638" x2="64.848" y2="1.812" gradientTransform="matrix(0.729167,0,0,-0.729167,0,70)">
<stop offset="0" style="stop-color:rgb(163,215,255);stop-opacity:1;"/>
<stop offset="1" style="stop-color:rgb(89,184,255);stop-opacity:1;"/>
</linearGradient>
<clipPath id="clip5">
  <path d="M 8 0 L 33 0 L 33 65 L 8 65 Z M 8 0 "/>
</clipPath>
<clipPath id="clip6">
  <path d="M 37.917969 2.917969 C 37.109375 13.386719 27.96875 21.222656 17.5 20.417969 C 7.03125 19.609375 -0.804688 10.46875 0 0 L 17.5 0 C 17.5 4.832031 13.582031 8.75 8.75 8.75 C 3.917969 8.75 0 4.832031 0 0 L 0 64.167969 C -17.71875 63.359375 -31.429688 48.34375 -30.625 30.625 C -29.820313 12.90625 -14.800781 -0.804688 2.917969 0 L 11.667969 0 C 12.808594 0.660156 13.367188 2.003906 13.027344 3.28125 C 12.683594 4.554688 11.527344 5.441406 10.207031 5.441406 C 8.886719 5.441406 7.734375 4.554688 7.390625 3.28125 C 7.050781 2.003906 7.605469 0.660156 8.75 0 L 8.75 37.917969 C -1.71875 37.917969 -10.207031 29.429688 -10.207031 18.957031 C -10.207031 8.488281 -1.71875 0 8.75 0 L 20.417969 0 L 20.417969 20.417969 C 14.777344 23.636719 7.597656 21.679688 4.375 16.042969 C 1.152344 10.402344 3.113281 3.222656 8.75 0 L 20.417969 0 Z M 37.917969 2.917969 "/>
</clipPath>
<linearGradient id="linear2" gradientUnits="userSpaceOnUse" x1="16.415" y1="49.863" x2="36.025" y2="3.385" gradientTransform="matrix(0.729167,0,0,-0.729167,0,70)">
<stop offset="0" style="stop-color:rgb(193,228,255);stop-opacity:1;"/>
<stop offset="1" style="stop-color:rgb(163,215,255);stop-opacity:1;"/>
</linearGradient>
</defs>
<g id="surface1">
<g clip-path="url(#clip1)" clip-rule="nonzero">
<g clip-path="url(#clip2)" clip-rule="nonzero">
<path style=" stroke:none;fill-rule:nonzero;fill:url(#linear0);" d="M 61.25 0 L 61.25 70 L 37.917969 70 L 37.917969 0 Z M 61.25 0 "/>
</g>
</g>
<g clip-path="url(#clip3)" clip-rule="nonzero">
<g clip-path="url(#clip4)" clip-rule="nonzero">
<path style=" stroke:none;fill-rule:nonzero;fill:url(#linear1);" d="M 46.667969 20.417969 L 46.667969 70 L 23.332031 70 L 23.332031 17.5 L 43.75 17.5 C 38.917969 29.582031 25.207031 35.457031 13.125 30.625 C 1.042969 25.792969 -4.832031 12.082031 0 0 Z M 46.667969 20.417969 "/>
</g>
</g>
<g clip-path="url(#clip5)" clip-rule="nonzero">
<g clip-path="url(#clip6)" clip-rule="nonzero">
<path style=" stroke:none;fill-rule:nonzero;fill:url(#linear2);" d="M 8.75 35 L 8.75 70 L 32.082031 70 L 32.082031 37.917969 C 21.613281 38.722656 12.472656 30.886719 11.667969 20.417969 C 10.859375 9.945313 18.695313 0.804688 29.167969 0 Z M 8.75 35 "/>
</g>
</g>
</g>
</svg>
