<?xml version="1.0" encoding="UTF-8"?>
<svg xmlns="http://www.w3.org/2000/svg" xmlns:xlink="http://www.w3.org/1999/xlink" width="52pt" height="70pt" viewBox="0 0 52 70" version="1.1">
<g id="surface1">
<path style=" stroke:none;fill-rule:nonzero;fill:rgb(0%,37.254902%,52.941176%);fill-opacity:1;" d="M 0 9.617188 L 0 60.660156 C 0 66.035156 11.65625 70.277344 25.957031 70.277344 L 25.957031 9.617188 Z M 0 9.617188 "/>
<path style=" stroke:none;fill-rule:nonzero;fill:rgb(5.882353%,50.196078%,69.019608%);fill-opacity:1;" d="M 25.679688 70.269531 L 26.09375 70.269531 C 40.527344 70.269531 52 65.914063 52 60.539063 L 52 9.460938 L 25.679688 9.617188 Z M 25.679688 70.269531 "/>
<path style=" stroke:none;fill-rule:nonzero;fill:rgb(100%,100%,100%);fill-opacity:1;" d="M 52.050781 9.617188 C 52.050781 14.851563 40.394531 19.234375 26.09375 19.234375 C 11.792969 19.234375 0 14.84375 0 9.617188 C 0 4.390625 11.65625 0 25.957031 0 C 40.257813 0 52.050781 4.414063 52.050781 9.617188 "/>
<path style=" stroke:none;fill-rule:nonzero;fill:rgb(49.803922%,72.54902%,0%);fill-opacity:1;" d="M 46.773438 9.050781 C 46.773438 12.585938 37.488281 15.414063 26.09375 15.414063 C 14.695313 15.414063 5.273438 12.613281 5.273438 9.050781 C 5.273438 5.488281 14.558594 2.6875 25.957031 2.6875 C 37.351563 2.6875 46.773438 5.511719 46.773438 9.050781 "/>
<path style=" stroke:none;fill-rule:nonzero;fill:rgb(71.764706%,82.745098%,19.607843%);fill-opacity:1;" d="M 42.332031 12.863281 C 45.105469 11.734375 46.664063 10.460938 46.664063 9.050781 C 46.640625 5.511719 37.382813 2.523438 26 2.523438 C 14.617188 2.523438 5.273438 5.511719 5.273438 9.050781 C 5.273438 10.460938 6.941406 11.875 9.609375 12.863281 C 13.328125 11.3125 19.339844 10.722656 26 10.722656 C 32.660156 10.722656 38.585938 11.453125 42.335938 12.863281 "/>
<path style=" stroke:none;fill-rule:nonzero;fill:rgb(100%,100%,100%);fill-opacity:1;" d="M 46.429688 46.066406 C 46.429688 49.082031 44.410156 51.660156 41.476563 51.710938 L 30.332031 51.710938 L 30.332031 47.296875 L 40.238281 47.296875 C 40.855469 47.246094 41.371094 45.46875 41.371094 45.46875 L 40.238281 46.035156 L 34.046875 46.035156 C 31.570313 46.035156 29.714844 44.554688 29.714844 42.253906 L 29.714844 41.621094 C 29.714844 37.75 29.714844 35.988281 29.714844 35.316406 L 27.855469 34.683594 L 27.855469 46.667969 L 22.90625 46.667969 L 22.90625 37.511719 L 20.070313 43.898438 C 19.351563 45.59375 18.609375 46.667969 16.714844 46.667969 C 14.898438 46.703125 13.246094 45.605469 12.542969 43.898438 L 9.90625 37.207031 L 9.90625 46.667969 L 4.953125 46.667969 L 4.953125 32.640625 C 4.953125 31.015625 5.261719 30.019531 6.722656 29.550781 C 7.402344 29.324219 8.113281 29.199219 8.828125 29.1875 C 10.472656 29.113281 11.988281 30.097656 12.609375 31.652344 L 16.714844 39.730469 L 20.019531 31.652344 C 20.644531 30.101563 22.152344 29.117188 23.796875 29.1875 C 24.5 29.203125 25.199219 29.316406 25.875 29.527344 C 27.34375 30 27.855469 31.164063 27.855469 32.792969 L 27.855469 34.539063 C 27.855469 34.621094 27.777344 34.683594 27.855469 34.683594 L 35.285156 34.683594 L 35.285156 40.992188 C 35.601563 41.355469 36.046875 41.582031 36.523438 41.621094 L 40.855469 41.621094 L 40.855469 34.683594 L 46.429688 34.683594 Z M 46.429688 46.066406 "/>
</g>
</svg>
