<?xml version="1.0" encoding="utf-8"?><svg version="1.1" xmlns="http://www.w3.org/2000/svg" xmlns:xlink="http://www.w3.org/1999/xlink" xmlns:xml="http://www.w3.org/XML/1998/namespace" width="70" height="70" viewBox="0, 0, 18, 18" id="b1e71479-2138-44e0-adf0-02fe9fed5c1e"><path d="M1.155 4.93 v0.512 L9 9.868 l7.006 -3.957 l0 1.6 L9 11.491 L1.55 7.258 l-0.395 0.22 V10.54 L9 14.955 l7.006 -3.942 l0 1.586 L9 16.581 L1.55 12.347 l-0.395 0.22 v0.519 L9 17.5 l7.845 -4.414 V10.021 l-0.4 -0.218 L9 14.036 L1.992 10.054 V8.476 L9 12.414 L16.845 8 V4.978 l-0.4 -0.219 L9 8.993 L2.352 5.215 L9 1.46 l5.476 3.094 l0.479 -0.269 V3.863 L9 0.5 Z" style="fill:#FF3621;" /></svg>