<?xml version="1.0" encoding="UTF-8"?>
<svg xmlns="http://www.w3.org/2000/svg" xmlns:xlink="http://www.w3.org/1999/xlink" width="70pt" height="70pt" viewBox="0 0 70 70" version="1.1">
<g id="surface1">
<path style=" stroke:none;fill-rule:nonzero;fill:rgb(0,71,124);fill-opacity:1;" d="M 8.539063 9.519531 L 8.539063 60.339844 C 8.539063 65.660156 20.300781 69.859375 35 69.859375 L 35 9.519531 Z M 8.539063 9.519531 "/>
<path style=" stroke:none;fill-rule:nonzero;fill:rgb(65,174,255);fill-opacity:1;" d="M 34.578125 70 L 35 70 C 49.558594 70 61.460938 65.660156 61.460938 60.480469 L 61.460938 9.519531 L 34.578125 9.519531 Z M 34.578125 70 "/>
<path style=" stroke:none;fill-rule:nonzero;fill:rgb(255,255,255);fill-opacity:1;" d="M 61.460938 9.519531 C 61.460938 14.839844 49.699219 19.039063 35 19.039063 C 20.300781 19.039063 8.539063 14.839844 8.539063 9.519531 C 8.539063 4.339844 20.441406 0 35 0 C 49.558594 0 61.460938 4.339844 61.460938 9.519531 "/>
<path style=" stroke:none;fill-rule:nonzero;fill:rgb(39,163,255);fill-opacity:1;" d="M 56 8.960938 C 56 12.460938 46.621094 15.261719 35 15.261719 C 23.378906 15.261719 14 12.460938 14 8.960938 C 14 5.460938 23.378906 2.660156 35 2.660156 C 46.621094 2.660156 56 5.460938 56 8.960938 "/>
<path style=" stroke:none;fill-rule:nonzero;fill:rgb(115,195,255);fill-opacity:1;" d="M 51.660156 12.878906 C 54.460938 11.761719 56 10.5 56 8.960938 C 56 5.460938 46.621094 2.660156 35 2.660156 C 23.378906 2.660156 14 5.460938 14 8.960938 C 14 10.359375 15.679688 11.761719 18.339844 12.878906 C 22.121094 11.339844 28.140625 10.359375 35 10.359375 C 41.71875 10.359375 47.738281 11.339844 51.660156 12.878906 "/>
<path style=" stroke:none;fill-rule:nonzero;fill:rgb(3,148,255);fill-opacity:1;" d="M 34.578125 70 L 34.578125 44.800781 C 30.660156 44.800781 27.300781 42.699219 25.339844 39.621094 C 23.378906 42.699219 20.160156 44.800781 16.238281 44.800781 C 13.160156 44.800781 10.5 43.539063 8.539063 41.441406 L 8.539063 60.480469 C 8.539063 65.660156 20.160156 69.859375 34.578125 70 Z M 34.578125 70 "/>
<path style=" stroke:none;fill-rule:nonzero;fill:rgb(57,171,255);fill-opacity:1;" d="M 53.339844 44.800781 C 49.421875 44.800781 45.921875 42.699219 43.960938 39.621094 C 42.140625 42.699219 38.78125 44.660156 34.859375 44.800781 L 34.859375 70 C 49.421875 70 61.320313 65.660156 61.320313 60.480469 L 61.320313 41.300781 C 59.359375 43.398438 56.558594 44.800781 53.339844 44.800781 Z M 53.339844 44.800781 "/>
<path style=" stroke:none;fill-rule:nonzero;fill:rgb(57,171,255);fill-opacity:1;" d="M 34.71875 44.800781 L 34.578125 70 C 34.71875 70 34.71875 70 34.859375 70 L 34.859375 44.800781 C 34.859375 44.800781 34.859375 44.800781 34.71875 44.800781 Z M 34.71875 44.800781 "/>
</g>
</svg>
