<?xml version="1.0" encoding="UTF-8"?>
<svg xmlns="http://www.w3.org/2000/svg" xmlns:xlink="http://www.w3.org/1999/xlink" width="70pt" height="70pt" viewBox="0 0 70 70" version="1.1">
<defs>
<linearGradient id="linear0" gradientUnits="userSpaceOnUse" x1="5.41" y1="17.33" x2="5.41" y2="4.61" gradientTransform="matrix(3.888889,0,0,3.888889,0,0)">
<stop offset="0" style="stop-color:rgb(41,164,255);stop-opacity:1;"/>
<stop offset="0.53" style="stop-color:rgb(69,176,255);stop-opacity:1;"/>
<stop offset="1" style="stop-color:rgb(103,190,255);stop-opacity:1;"/>
</linearGradient>
<linearGradient id="linear1" gradientUnits="userSpaceOnUse" x1="10.04" y1="-1347.39" x2="10.04" y2="-1336.82" gradientTransform="matrix(3.888889,0,0,-3.888889,0,-5172.222222)">
<stop offset="0" style="stop-color:rgb(0,108,188);stop-opacity:1;"/>
<stop offset="0.16" style="stop-color:rgb(0,120,210);stop-opacity:1;"/>
<stop offset="0.53" style="stop-color:rgb(1,147,255);stop-opacity:1;"/>
<stop offset="0.82" style="stop-color:rgb(31,159,255);stop-opacity:1;"/>
<stop offset="1" style="stop-color:rgb(41,164,255);stop-opacity:1;"/>
</linearGradient>
</defs>
<g id="surface1">
<path style=" stroke:none;fill-rule:nonzero;fill:rgb(0,137,238);fill-opacity:1;" d="M 55.6875 49.621094 C 55.648438 50.828125 54.679688 51.796875 53.472656 51.839844 L 19.714844 51.839844 C 18.492188 51.839844 17.5 50.847656 17.5 49.621094 L 17.5 4.589844 C 17.480469 4.007813 17.695313 3.445313 18.097656 3.027344 C 18.5 2.609375 19.058594 2.371094 19.640625 2.371094 L 53.472656 2.371094 C 54.695313 2.371094 55.6875 3.363281 55.6875 4.589844 Z M 55.6875 49.621094 "/>
<path style=" stroke:none;fill-rule:nonzero;fill:rgb(51,168,255);fill-opacity:1;" d="M 47.910156 57.398438 C 47.871094 58.605469 46.902344 59.578125 45.695313 59.617188 L 11.9375 59.617188 C 10.714844 59.617188 9.722656 58.625 9.722656 57.398438 L 9.722656 12.367188 C 9.699219 11.785156 9.917969 11.222656 10.320313 10.804688 C 10.722656 10.386719 11.28125 10.148438 11.859375 10.148438 L 45.695313 10.148438 C 46.917969 10.148438 47.910156 11.140625 47.910156 12.367188 Z M 47.910156 57.398438 "/>
<path style=" stroke:none;fill-rule:nonzero;fill:url(#linear0);" d="M 40.132813 65.179688 C 40.09375 66.386719 39.125 67.355469 37.917969 67.394531 L 4.160156 67.394531 C 2.945313 67.375 1.964844 66.394531 1.945313 65.179688 L 1.945313 20.144531 C 1.921875 19.5625 2.140625 19 2.542969 18.582031 C 2.945313 18.164063 3.503906 17.925781 4.082031 17.929688 L 37.917969 17.929688 C 39.140625 17.929688 40.132813 18.921875 40.132813 20.144531 Z M 40.132813 65.179688 "/>
<path style=" stroke:none;fill-rule:nonzero;fill:rgb(0,44,78);fill-opacity:1;" d="M 7.542969 28.429688 C 7.535156 27.328125 7.964844 26.269531 8.738281 25.488281 C 9.511719 24.707031 10.566406 24.265625 11.667969 24.265625 L 30.722656 24.265625 C 32.960938 24.199219 34.855469 25.917969 35 28.15625 C 35.054688 29.304688 34.632813 30.421875 33.839844 31.25 C 33.046875 32.082031 31.949219 32.550781 30.800781 32.550781 L 11.667969 32.550781 C 9.40625 32.507813 7.585938 30.6875 7.542969 28.429688 Z M 7.542969 28.429688 "/>
<path style=" stroke:none;fill-rule:nonzero;fill:rgb(119,197,255);fill-opacity:1;" d="M 14.699219 28.429688 C 14.699219 29.972656 13.445313 31.226563 11.898438 31.226563 C 10.355469 31.226563 9.101563 29.972656 9.101563 28.429688 C 9.101563 26.882813 10.355469 25.628906 11.898438 25.628906 C 13.445313 25.628906 14.699219 26.882813 14.699219 28.429688 Z M 14.699219 28.429688 "/>
<path style=" stroke:none;fill-rule:nonzero;fill:url(#linear1);" d="M 68.054688 54.753906 C 67.863281 48.371094 63.070313 43.070313 56.738281 42.234375 C 56.296875 33.296875 48.765625 26.371094 39.820313 26.679688 C 32.703125 26.496094 26.246094 30.832031 23.722656 37.488281 C 16.085938 38.410156 10.265625 44.773438 10.035156 52.460938 C 10.371094 61.152344 17.675781 67.933594 26.367188 67.628906 L 55.105469 67.628906 C 62.183594 67.523438 67.910156 61.832031 68.054688 54.753906 Z M 68.054688 54.753906 "/>
<path style=" stroke:none;fill-rule:nonzero;fill:rgb(229,243,255);fill-opacity:1;" d="M 52.929688 56.195313 L 52.929688 43.128906 L 49.3125 43.128906 L 49.3125 59.148438 L 58.839844 59.148438 L 58.839844 56.195313 Z M 25.316406 49.777344 C 24.613281 49.453125 23.949219 49.046875 23.332031 48.570313 C 23.027344 48.230469 22.859375 47.785156 22.867188 47.328125 C 22.824219 46.859375 23.050781 46.410156 23.449219 46.160156 C 23.921875 45.816406 24.5 45.648438 25.082031 45.695313 C 26.464844 45.648438 27.828125 46.042969 28.972656 46.820313 L 28.972656 43.476563 C 27.722656 43.050781 26.402344 42.851563 25.082031 42.894531 C 23.566406 42.820313 22.066406 43.273438 20.84375 44.179688 C 19.789063 45.011719 19.199219 46.296875 19.25 47.640625 C 19.390625 49.800781 20.839844 51.652344 22.90625 52.304688 C 23.757813 52.65625 24.558594 53.128906 25.277344 53.707031 C 25.644531 54.015625 25.859375 54.46875 25.859375 54.949219 C 25.894531 55.417969 25.671875 55.863281 25.277344 56.117188 C 24.753906 56.445313 24.144531 56.609375 23.527344 56.582031 C 22.015625 56.550781 20.5625 55.96875 19.445313 54.949219 L 19.445313 58.527344 C 20.65625 59.117188 21.984375 59.421875 23.332031 59.421875 C 24.902344 59.535156 26.464844 59.15625 27.804688 58.332031 C 28.921875 57.511719 29.550781 56.179688 29.476563 54.792969 C 29.515625 53.796875 29.167969 52.820313 28.503906 52.070313 C 27.628906 51.078125 26.539063 50.292969 25.316406 49.777344 Z M 45.382813 55.921875 C 46.269531 54.445313 46.714844 52.746094 46.667969 51.023438 C 46.722656 49.511719 46.386719 48.011719 45.695313 46.667969 C 45.113281 45.457031 44.175781 44.453125 43.011719 43.789063 C 41.765625 43.050781 40.332031 42.699219 38.890625 42.777344 C 37.519531 42.820313 36.179688 43.210938 35 43.90625 C 33.785156 44.609375 32.796875 45.648438 32.160156 46.898438 C 31.464844 48.273438 31.105469 49.792969 31.109375 51.332031 C 31.089844 52.75 31.410156 54.148438 32.042969 55.417969 C 32.644531 56.601563 33.558594 57.597656 34.6875 58.292969 C 35.867188 58.996094 37.207031 59.382813 38.578125 59.421875 L 41.882813 63.3125 L 46.667969 63.3125 L 42.039063 59.035156 C 43.46875 58.394531 44.644531 57.300781 45.382813 55.921875 Z M 41.765625 54.949219 C 41.054688 55.847656 39.957031 56.351563 38.8125 56.3125 C 37.671875 56.335938 36.589844 55.816406 35.894531 54.910156 C 35.078125 53.785156 34.695313 52.40625 34.804688 51.023438 C 34.679688 49.628906 35.082031 48.242188 35.933594 47.132813 C 36.640625 46.195313 37.753906 45.660156 38.929688 45.695313 C 40.066406 45.65625 41.148438 46.199219 41.804688 47.132813 C 42.625 48.253906 43.011719 49.636719 42.894531 51.023438 C 43.015625 52.425781 42.613281 53.824219 41.765625 54.949219 Z M 41.765625 54.949219 "/>
</g>
</svg>
