<?xml version="1.0" encoding="UTF-8"?>
<svg xmlns="http://www.w3.org/2000/svg" xmlns:xlink="http://www.w3.org/1999/xlink" width="70pt" height="70pt" viewBox="0 0 70 70" version="1.1">
<g id="surface1">
<path style=" stroke:none;fill-rule:nonzero;fill:rgb(22.352941%,60%,77.647059%);fill-opacity:1;" d="M 8.398438 9.503906 L 8.398438 60.058594 C 8.398438 65.308594 20.148438 69.5625 34.640625 69.5625 L 34.640625 9.503906 C 34.640625 9.503906 8.398438 9.503906 8.398438 9.503906 Z M 8.398438 9.503906 "/>
<path style=" stroke:none;fill-rule:nonzero;fill:rgb(34.901961%,70.588235%,85.098039%);fill-opacity:1;" d="M 34.28125 69.5625 L 34.640625 69.5625 C 49.132813 69.5625 60.878906 65.308594 60.878906 60.058594 L 60.878906 9.503906 L 34.28125 9.503906 Z M 34.28125 69.5625 "/>
<path style=" stroke:none;fill-rule:nonzero;fill:rgb(100%,100%,100%);fill-opacity:1;" d="M 60.878906 9.503906 C 60.878906 14.75 49.132813 19.007813 34.640625 19.007813 C 20.148438 19.007813 8.398438 14.75 8.398438 9.503906 C 8.398438 4.253906 20.148438 0 34.640625 0 C 49.132813 0 60.878906 4.253906 60.878906 9.503906 "/>
<path style=" stroke:none;fill-rule:nonzero;fill:rgb(49.803922%,72.941176%,0%);fill-opacity:1;" d="M 55.515625 8.957031 C 55.515625 12.421875 46.167969 15.226563 34.640625 15.226563 C 23.109375 15.226563 13.761719 12.421875 13.761719 8.957031 C 13.761719 5.492188 23.109375 2.683594 34.640625 2.683594 C 46.167969 2.683594 55.515625 5.492188 55.515625 8.957031 "/>
<path style=" stroke:none;fill-rule:nonzero;fill:rgb(72.156863%,83.137255%,19.607843%);fill-opacity:1;" d="M 51.140625 12.789063 C 53.875 11.726563 55.515625 10.402344 55.515625 8.957031 C 55.515625 5.492188 46.171875 2.6875 34.640625 2.6875 C 23.109375 2.6875 13.765625 5.492188 13.765625 8.957031 C 13.765625 10.402344 15.40625 11.726563 18.140625 12.789063 C 21.957031 11.304688 27.921875 10.351563 34.640625 10.351563 C 41.363281 10.351563 47.324219 11.304688 51.140625 12.789063 "/>
<path style=" stroke:none;fill-rule:nonzero;fill:rgb(100%,100%,100%);fill-opacity:1;" d="M 51.601563 50.496094 C 50.195313 51.664063 48.292969 52.253906 45.820313 52.253906 L 37.574219 52.253906 L 37.574219 30.746094 L 45.394531 30.746094 C 47.859375 30.746094 49.746094 31.195313 51.042969 32.125 C 52.257813 33 52.867188 34.222656 52.867188 35.78125 C 52.867188 37.027344 52.425781 38.085938 51.519531 39.015625 C 50.746094 39.785156 49.820313 40.320313 48.679688 40.628906 L 48.679688 40.679688 C 50.210938 40.871094 51.460938 41.453125 52.394531 42.433594 C 53.265625 43.367188 53.714844 44.507813 53.714844 45.828125 C 53.722656 47.796875 53.003906 49.335938 51.601563 50.496094 M 31.503906 49.226563 C 29.4375 51.246094 26.652344 52.253906 23.175781 52.253906 L 15.5625 52.253906 L 15.5625 30.746094 L 23.175781 30.746094 C 30.8125 30.746094 34.632813 34.222656 34.632813 41.21875 C 34.632813 44.5625 33.601563 47.238281 31.503906 49.226563 "/>
<path style=" stroke:none;fill-rule:nonzero;fill:rgb(22.352941%,60%,77.647059%);fill-opacity:1;" d="M 22.78125 34.671875 L 20.394531 34.671875 L 20.394531 48.328125 L 22.808594 48.328125 C 24.929688 48.328125 26.570313 47.664063 27.789063 46.390625 C 28.953125 45.117188 29.542969 43.421875 29.542969 41.273438 C 29.542969 39.261719 28.953125 37.671875 27.816406 36.496094 C 26.621094 35.28125 24.949219 34.671875 22.78125 34.671875 "/>
<path style=" stroke:none;fill-rule:nonzero;fill:rgb(34.901961%,70.588235%,85.098039%);fill-opacity:1;" d="M 46.878906 38.679688 C 47.460938 38.171875 47.753906 37.507813 47.753906 36.6875 C 47.753906 35.089844 46.585938 34.296875 44.222656 34.296875 L 42.402344 34.296875 L 42.402344 39.394531 L 44.546875 39.394531 C 45.53125 39.394531 46.324219 39.148438 46.878906 38.679688 "/>
<path style=" stroke:none;fill-rule:nonzero;fill:rgb(34.901961%,70.588235%,85.098039%);fill-opacity:1;" d="M 47.675781 43.738281 C 47.039063 43.261719 46.167969 42.996094 45.046875 42.996094 L 42.398438 42.996094 L 42.398438 48.667969 L 45.023438 48.667969 C 46.136719 48.667969 47.039063 48.402344 47.699219 47.871094 C 48.308594 47.339844 48.625 46.65625 48.625 45.753906 C 48.632813 44.902344 48.3125 44.214844 47.675781 43.738281 "/>
</g>
</svg>
