<?xml version="1.0" encoding="UTF-8"?>
<svg xmlns="http://www.w3.org/2000/svg" xmlns:xlink="http://www.w3.org/1999/xlink" width="70pt" height="68pt" viewBox="0 0 70 68" version="1.1">
<g id="surface1">
<path style=" stroke:none;fill-rule:evenodd;fill:rgb(0%,47.058824%,84.313725%);fill-opacity:1;" d="M 55.210938 46.808594 C 54.492188 46.808594 53.910156 47.070313 53.460938 47.609375 C 53.015625 48.152344 52.820313 48.863281 52.820313 49.753906 C 52.820313 50.652344 53.042969 51.355469 53.460938 51.898438 C 53.910156 52.4375 54.453125 52.699219 55.132813 52.699219 C 55.84375 52.699219 56.390625 52.4375 56.84375 51.9375 C 57.253906 51.394531 57.476563 50.691406 57.476563 49.792969 C 57.476563 48.863281 57.253906 48.101563 56.84375 47.5625 C 56.464844 47.070313 55.921875 46.808594 55.210938 46.808594 Z M 66.851563 33.179688 L 66.792969 33.34375 C 66.773438 33.402344 66.734375 33.457031 66.714844 33.496094 L 66.714844 33.515625 C 66.675781 33.566406 66.636719 33.605469 66.605469 33.660156 C 66.605469 33.660156 66.605469 33.679688 66.585938 33.679688 C 66.546875 33.738281 66.507813 33.777344 66.453125 33.824219 L 66.433594 33.84375 C 66.394531 33.902344 66.335938 33.941406 66.285156 34 L 66.265625 34.019531 C 66.207031 34.058594 66.148438 34.105469 66.089844 34.144531 L 66.070313 34.164063 C 66.023438 34.203125 65.964844 34.261719 65.886719 34.300781 L 65.867188 34.320313 C 65.789063 34.355469 65.742188 34.40625 65.664063 34.445313 L 65.644531 34.464844 C 65.566406 34.503906 65.5 34.558594 65.421875 34.597656 C 65.421875 34.597656 65.402344 34.597656 65.402344 34.617188 C 65.304688 34.648438 65.234375 34.703125 65.140625 34.742188 C 64.574219 35.023438 63.882813 35.265625 63.085938 35.488281 C 63.078125 35.488281 63.058594 35.488281 63.058594 35.507813 C 62.960938 35.546875 62.84375 35.566406 62.738281 35.582031 C 62.699219 35.601563 62.660156 35.601563 62.621094 35.621094 C 62.53125 35.640625 62.4375 35.679688 62.339844 35.699219 C 62.28125 35.71875 62.25 35.71875 62.191406 35.730469 L 61.910156 35.785156 C 61.851563 35.804688 61.792969 35.804688 61.726563 35.824219 C 61.628906 35.84375 61.53125 35.863281 61.453125 35.882813 C 61.386719 35.902344 61.328125 35.902344 61.25 35.921875 C 61.164063 35.941406 61.085938 35.960938 60.988281 35.980469 C 60.910156 35.988281 60.839844 35.988281 60.765625 36.007813 C 60.667969 36.027344 60.597656 36.046875 60.5 36.046875 C 60.421875 36.066406 60.355469 36.066406 60.257813 36.085938 C 60.160156 36.105469 60.09375 36.105469 59.996094 36.125 C 59.917969 36.144531 59.820313 36.144531 59.734375 36.164063 C 59.636719 36.183594 59.558594 36.183594 59.46875 36.203125 C 59.375 36.222656 59.285156 36.222656 59.207031 36.242188 C 59.109375 36.25 59.03125 36.25 58.945313 36.269531 C 58.847656 36.289063 58.75 36.289063 58.664063 36.308594 C 58.566406 36.308594 58.488281 36.328125 58.402344 36.328125 C 58.304688 36.328125 58.195313 36.347656 58.101563 36.347656 C 58.003906 36.347656 57.925781 36.367188 57.835938 36.367188 C 57.738281 36.367188 57.632813 36.386719 57.515625 36.386719 C 57.417969 36.386719 57.351563 36.40625 57.253906 36.40625 C 57.136719 36.40625 57.03125 36.425781 56.933594 36.425781 C 56.855469 36.425781 56.769531 36.425781 56.691406 36.445313 C 56.574219 36.445313 56.464844 36.464844 56.332031 36.464844 L 56.085938 36.464844 C 55.960938 36.464844 55.824219 36.464844 55.699219 36.480469 L 53.480469 36.480469 C 53.363281 36.480469 53.238281 36.480469 53.121094 36.464844 C 53.035156 36.464844 52.957031 36.464844 52.878906 36.445313 C 52.773438 36.445313 52.65625 36.425781 52.558594 36.425781 C 52.46875 36.425781 52.394531 36.40625 52.296875 36.40625 C 52.207031 36.40625 52.089844 36.386719 51.996094 36.386719 C 51.90625 36.386719 51.828125 36.367188 51.730469 36.367188 C 51.644531 36.367188 51.546875 36.347656 51.429688 36.347656 C 51.34375 36.347656 51.265625 36.328125 51.167969 36.328125 C 51.082031 36.328125 50.984375 36.308594 50.886719 36.289063 C 50.796875 36.269531 50.703125 36.269531 50.625 36.25 C 50.535156 36.242188 50.457031 36.242188 50.359375 36.222656 C 50.273438 36.203125 50.175781 36.203125 50.097656 36.183594 C 50.03125 36.164063 49.933594 36.164063 49.855469 36.144531 C 49.769531 36.125 49.671875 36.125 49.59375 36.105469 C 49.515625 36.085938 49.445313 36.085938 49.371094 36.066406 C 49.273438 36.046875 49.183594 36.027344 49.085938 36.027344 C 49.007813 36.007813 48.941406 36.007813 48.882813 35.988281 L 48.601563 35.941406 C 48.523438 35.921875 48.464844 35.921875 48.417969 35.902344 L 48.132813 35.84375 C 48.078125 35.824219 48.019531 35.824219 47.960938 35.804688 L 47.675781 35.75 C 47.621094 35.730469 47.589844 35.730469 47.53125 35.71875 C 47.433594 35.699219 47.328125 35.660156 47.230469 35.640625 C 47.191406 35.640625 47.152344 35.621094 47.113281 35.621094 C 47.007813 35.601563 46.890625 35.566406 46.800781 35.527344 C 46.78125 35.527344 46.765625 35.527344 46.765625 35.507813 C 45.714844 35.207031 44.828125 34.859375 44.167969 34.464844 C 44.089844 34.40625 44.023438 34.367188 43.945313 34.320313 L 43.925781 34.320313 C 43.847656 34.261719 43.796875 34.222656 43.71875 34.164063 L 43.703125 34.144531 C 43.644531 34.097656 43.585938 34.058594 43.535156 34 L 43.515625 33.980469 C 43.457031 33.921875 43.398438 33.882813 43.359375 33.824219 L 43.339844 33.816406 C 43.28125 33.757813 43.253906 33.71875 43.214844 33.660156 L 43.214844 33.640625 C 43.175781 33.585938 43.136719 33.535156 43.097656 33.496094 L 43.097656 33.476563 C 43.058594 33.421875 43.039063 33.363281 43 33.304688 L 42.953125 33.140625 C 42.914063 33.023438 42.894531 32.9375 42.894531 32.820313 C 42.894531 30.859375 48.28125 29.210938 54.941406 29.210938 C 61.609375 29.210938 66.996094 30.832031 66.996094 32.820313 C 66.898438 32.976563 66.878906 33.0625 66.851563 33.179688 Z M 66.675781 54.3125 L 61.191406 54.3125 L 61.191406 45.144531 L 63.261719 45.144531 L 63.261719 52.613281 L 66.675781 52.613281 Z M 57.59375 55.617188 L 56.371094 54.359375 C 56.066406 54.4375 55.621094 54.496094 55.113281 54.496094 C 53.820313 54.496094 52.734375 54.042969 51.886719 53.210938 C 51.082031 52.351563 50.625 51.25 50.625 49.851563 C 50.625 48.410156 51.042969 47.261719 51.886719 46.363281 C 52.753906 45.464844 53.820313 45.019531 55.210938 45.019531 C 56.503906 45.019531 57.59375 45.464844 58.402344 46.304688 C 59.207031 47.144531 59.617188 48.265625 59.617188 49.707031 C 59.617188 51.136719 59.207031 52.292969 58.363281 53.191406 L 58.175781 53.375 L 60.519531 55.617188 Z M 49.464844 52.96875 C 49.273438 53.316406 49.007813 53.597656 48.660156 53.820313 C 48.339844 54.042969 47.941406 54.175781 47.492188 54.273438 C 47.046875 54.359375 46.589844 54.398438 46.101563 54.398438 C 45.617188 54.398438 45.109375 54.359375 44.652344 54.273438 C 44.1875 54.273438 43.796875 54.121094 43.476563 53.957031 L 43.476563 51.898438 C 43.828125 52.21875 44.246094 52.4375 44.691406 52.613281 C 45.148438 52.738281 45.597656 52.835938 45.984375 52.835938 C 46.257813 52.835938 46.480469 52.796875 46.667969 52.738281 C 46.851563 52.699219 47.027344 52.652344 47.152344 52.554688 C 47.289063 52.457031 47.375 52.371094 47.414063 52.234375 C 47.453125 52.109375 47.511719 52.015625 47.511719 51.886719 C 47.511719 51.695313 47.472656 51.53125 47.375 51.394531 C 47.289063 51.269531 47.152344 51.136719 46.96875 50.988281 C 46.78125 50.855469 46.550781 50.769531 46.328125 50.632813 C 46.101563 50.546875 45.839844 50.410156 45.519531 50.277344 C 44.808594 49.964844 44.265625 49.609375 43.90625 49.214844 C 43.546875 48.769531 43.359375 48.285156 43.359375 47.648438 C 43.359375 47.164063 43.457031 46.757813 43.625 46.441406 C 43.816406 46.082031 44.082031 45.804688 44.390625 45.582031 C 44.710938 45.359375 45.109375 45.164063 45.558594 45.097656 C 46.003906 45 46.460938 44.964844 46.949219 44.964844 C 47.433594 44.964844 47.851563 45 48.203125 45.058594 C 48.5625 45.097656 48.921875 45.183594 49.242188 45.320313 L 49.242188 47.242188 C 49.105469 47.144531 48.921875 47.050781 48.746094 46.980469 C 48.582031 46.90625 48.398438 46.847656 48.203125 46.789063 C 48.019531 46.757813 47.792969 46.703125 47.621094 46.664063 C 47.433594 46.625 47.269531 46.625 47.074219 46.625 C 46.851563 46.625 46.628906 46.625 46.441406 46.664063 C 46.257813 46.703125 46.082031 46.757813 45.957031 46.847656 C 45.820313 46.941406 45.722656 47.039063 45.636719 47.105469 C 45.539063 47.242188 45.539063 47.328125 45.539063 47.464844 C 45.539063 47.589844 45.578125 47.726563 45.675781 47.871094 C 45.761719 48.003906 45.859375 48.101563 46.023438 48.226563 C 46.160156 48.324219 46.34375 48.449219 46.570313 48.546875 C 46.800781 48.644531 47.027344 48.769531 47.289063 48.863281 C 47.640625 48.992188 48 49.183594 48.28125 49.347656 C 48.601563 49.53125 48.824219 49.707031 49.046875 49.925781 C 49.273438 50.148438 49.40625 50.371094 49.535156 50.691406 C 49.632813 50.953125 49.730469 51.269531 49.730469 51.675781 C 49.730469 52.160156 49.632813 52.613281 49.464844 52.96875 Z M 54.851563 27.730469 C 46.5 27.730469 39.707031 30.175781 39.707031 33.179688 L 39.707031 62.15625 C 39.707031 65.121094 46.382813 67.566406 54.628906 67.605469 L 54.628906 67.625 L 54.851563 67.625 C 63.222656 67.625 70 65.160156 70 62.175781 L 70 33.179688 C 70 30.136719 63.203125 27.730469 54.851563 27.730469 Z M 30.527344 45.917969 L 37.226563 45.917969 L 37.226563 39.253906 L 30.527344 39.253906 Z M 21.078125 36.886719 L 27.785156 36.886719 L 27.785156 30.234375 L 21.078125 30.234375 Z M 21.078125 45.917969 L 27.785156 45.917969 L 27.785156 39.253906 L 21.078125 39.253906 Z M 16.859375 27.867188 L 23.558594 27.867188 L 23.558594 21.203125 L 16.859375 21.203125 Z M 11.539063 36.886719 L 18.25 36.886719 L 18.25 30.234375 L 11.539063 30.234375 Z M 11.539063 45.917969 L 18.25 45.917969 L 18.25 39.253906 L 11.539063 39.253906 Z M 42.710938 28.292969 C 44.128906 27.671875 45.820313 27.210938 47.65625 26.871094 L 47.65625 17.996094 L 52.597656 17.996094 L 52.597656 13.929688 L 26.394531 0 L 0 13.929688 L 0 17.996094 L 5.386719 17.996094 L 5.386719 46.140625 L 9.898438 46.140625 L 9.898438 17.996094 L 42.710938 17.996094 Z M 42.710938 28.292969 "/>
</g>
</svg>
