<?xml version="1.0" encoding="UTF-8"?>
<svg xmlns="http://www.w3.org/2000/svg" xmlns:xlink="http://www.w3.org/1999/xlink" width="70pt" height="70pt" viewBox="0 0 70 70" version="1.1">
<defs>
<filter id="alpha" filterUnits="objectBoundingBox" x="0%" y="0%" width="100%" height="100%">
  <feColorMatrix type="matrix" in="SourceGraphic" values="0 0 0 0 1 0 0 0 0 1 0 0 0 0 1 0 0 0 1 0"/>
</filter>
<mask id="mask0">
  <g filter="url(#alpha)">
<rect x="0" y="0" width="70" height="70" style="fill:rgb(0%,0%,0%);fill-opacity:0.14902;stroke:none;"/>
  </g>
</mask>
<clipPath id="clip1">
  <rect x="0" y="0" width="70" height="70"/>
</clipPath>
<g id="surface5" clip-path="url(#clip1)">
<path style=" stroke:none;fill-rule:nonzero;fill:rgb(100%,100%,100%);fill-opacity:1;" d="M 63.421875 36.324219 C 63.421875 26.410156 65.910156 17.371094 70 10.523438 L 70 9.5625 L 34.519531 9.5625 L 34.519531 70 L 35 70 C 52.851563 70 67.5625 66.347656 69.714844 61.628906 C 65.796875 54.839844 63.421875 46 63.421875 36.324219 Z M 63.421875 36.324219 "/>
</g>
</defs>
<g id="surface1">
<path style=" stroke:none;fill-rule:nonzero;fill:rgb(0%,44.705882%,77.647059%);fill-opacity:1;" d="M 63.421875 36.324219 C 63.421875 26.410156 65.910156 17.371094 70 10.523438 L 70 9.5625 L 34.519531 9.5625 L 34.519531 70 L 35 70 C 35.597656 70 36.191406 69.996094 36.78125 69.984375 C 36.960938 69.984375 37.144531 69.976563 37.328125 69.976563 C 37.734375 69.96875 38.140625 69.960938 38.539063 69.949219 C 38.757813 69.945313 38.972656 69.933594 39.191406 69.925781 C 39.550781 69.914063 39.914063 69.90625 40.269531 69.890625 C 40.515625 69.878906 40.757813 69.867188 41.003906 69.855469 C 41.328125 69.839844 41.652344 69.824219 41.96875 69.808594 C 42.234375 69.792969 42.496094 69.773438 42.761719 69.757813 C 43.054688 69.738281 43.347656 69.722656 43.636719 69.703125 C 43.914063 69.683594 44.183594 69.664063 44.453125 69.640625 C 44.730469 69.621094 45.007813 69.597656 45.28125 69.578125 C 45.550781 69.554688 45.816406 69.53125 46.078125 69.503906 C 46.351563 69.480469 46.621094 69.457031 46.890625 69.429688 C 47.164063 69.402344 47.433594 69.375 47.703125 69.34375 C 47.953125 69.316406 48.203125 69.292969 48.453125 69.261719 C 48.730469 69.234375 49 69.199219 49.273438 69.164063 C 49.511719 69.136719 49.75 69.109375 49.988281 69.078125 C 50.261719 69.042969 50.53125 69.003906 50.804688 68.96875 C 51.027344 68.9375 51.253906 68.90625 51.476563 68.871094 C 51.75 68.832031 52.019531 68.789063 52.292969 68.75 C 52.503906 68.714844 52.714844 68.683594 52.921875 68.648438 C 53.203125 68.605469 53.472656 68.554688 53.746094 68.507813 C 53.9375 68.476563 54.132813 68.441406 54.320313 68.410156 C 54.597656 68.359375 54.871094 68.308594 55.144531 68.253906 C 55.320313 68.21875 55.5 68.1875 55.675781 68.152344 C 55.949219 68.097656 56.21875 68.039063 56.484375 67.984375 C 56.652344 67.949219 56.820313 67.914063 56.984375 67.875 C 57.25 67.816406 57.515625 67.753906 57.777344 67.695313 C 57.933594 67.65625 58.085938 67.621094 58.238281 67.585938 C 58.503906 67.519531 58.765625 67.453125 59.023438 67.386719 C 59.164063 67.351563 59.300781 67.316406 59.4375 67.28125 C 59.703125 67.210938 59.960938 67.136719 60.21875 67.0625 C 60.339844 67.027344 60.460938 66.996094 60.578125 66.960938 C 60.84375 66.882813 61.097656 66.804688 61.351563 66.726563 C 61.457031 66.695313 61.5625 66.660156 61.664063 66.628906 C 61.921875 66.546875 62.171875 66.460938 62.417969 66.378906 C 62.511719 66.347656 62.605469 66.3125 62.699219 66.28125 C 62.945313 66.195313 63.1875 66.105469 63.425781 66.015625 C 63.507813 65.984375 63.589844 65.953125 63.667969 65.921875 C 63.910156 65.828125 64.140625 65.734375 64.371094 65.640625 C 64.441406 65.609375 64.511719 65.582031 64.578125 65.550781 C 64.808594 65.453125 65.03125 65.351563 65.246094 65.25 C 65.308594 65.222656 65.367188 65.195313 65.425781 65.167969 C 65.640625 65.0625 65.851563 64.957031 66.054688 64.851563 C 66.105469 64.824219 66.15625 64.796875 66.203125 64.769531 C 66.410156 64.660156 66.605469 64.550781 66.796875 64.4375 C 66.835938 64.414063 66.875 64.390625 66.914063 64.367188 C 67.105469 64.25 67.289063 64.136719 67.464844 64.015625 C 67.496094 63.992188 67.527344 63.972656 67.558594 63.949219 C 67.734375 63.828125 67.902344 63.707031 68.058594 63.582031 C 68.082031 63.5625 68.105469 63.542969 68.132813 63.523438 C 68.289063 63.398438 68.4375 63.273438 68.578125 63.144531 C 68.59375 63.125 68.609375 63.109375 68.628906 63.089844 C 68.769531 62.960938 68.898438 62.828125 69.015625 62.691406 C 69.03125 62.679688 69.039063 62.664063 69.054688 62.648438 C 69.171875 62.511719 69.28125 62.375 69.378906 62.234375 C 69.386719 62.222656 69.394531 62.210938 69.402344 62.199219 C 69.5 62.054688 69.585938 61.914063 69.660156 61.769531 C 69.664063 61.761719 69.667969 61.75 69.671875 61.742188 C 69.691406 61.703125 69.703125 61.667969 69.71875 61.628906 C 65.796875 54.839844 63.421875 46 63.421875 36.324219 Z M 63.421875 36.324219 "/>
<use xlink:href="#surface5" mask="url(#mask0)"/>
<path style=" stroke:none;fill-rule:nonzero;fill:rgb(0%,44.705882%,77.647059%);fill-opacity:1;" d="M 0 9.5625 L 0 10.25 C 0.132813 10.621094 0.253906 11.019531 0.382813 11.398438 C 4.167969 18.136719 6.453125 26.828125 6.453125 36.324219 C 6.453125 45.945313 4.105469 54.738281 0.230469 61.511719 C 2.191406 66.289063 17.003906 70 35 70 L 35 9.5625 Z M 0 9.5625 "/>
<path style=" stroke:none;fill-rule:nonzero;fill:rgb(100%,100%,100%);fill-opacity:1;" d="M 70 9.5625 C 70 14.84375 54.328125 19.125 35 19.125 C 15.671875 19.125 0 14.84375 0 9.5625 C 0 4.28125 15.671875 0 35 0 C 54.328125 0 70 4.28125 70 9.5625 "/>
<path style=" stroke:none;fill-rule:nonzero;fill:rgb(49.803922%,72.941176%,0%);fill-opacity:1;" d="M 62.84375 9.011719 C 62.84375 12.5 50.378906 15.320313 35 15.320313 C 19.621094 15.320313 7.152344 12.5 7.152344 9.011719 C 7.152344 5.527344 19.621094 2.703125 35 2.703125 C 50.378906 2.703125 62.84375 5.527344 62.84375 9.011719 "/>
<path style=" stroke:none;fill-rule:nonzero;fill:rgb(72.156863%,83.137255%,19.607843%);fill-opacity:1;" d="M 57.011719 12.867188 C 60.65625 11.800781 62.847656 10.464844 62.847656 9.015625 C 62.847656 5.527344 50.378906 2.703125 35 2.703125 C 19.621094 2.703125 7.15625 5.527344 7.15625 9.015625 C 7.15625 10.464844 9.347656 11.800781 12.992188 12.867188 C 18.082031 11.378906 26.039063 10.414063 35 10.414063 C 43.964844 10.414063 51.917969 11.378906 57.011719 12.867188 "/>
<path style=" stroke:none;fill-rule:nonzero;fill:rgb(100%,100%,100%);fill-opacity:1;" d="M 25.964844 45.296875 C 25.964844 46.867188 25.394531 48.082031 24.257813 48.945313 C 23.117188 49.808594 21.542969 50.238281 19.535156 50.238281 C 17.824219 50.238281 16.398438 49.929688 15.25 49.316406 L 15.25 45.617188 C 16.574219 46.742188 18.03125 47.304688 19.625 47.304688 C 20.394531 47.304688 20.988281 47.152344 21.410156 46.84375 C 21.832031 46.535156 22.039063 46.128906 22.039063 45.617188 C 22.039063 45.121094 21.839844 44.683594 21.433594 44.3125 C 21.03125 43.945313 20.207031 43.46875 18.96875 42.882813 C 16.441406 41.699219 15.179688 40.078125 15.179688 38.03125 C 15.179688 36.546875 15.730469 35.355469 16.832031 34.457031 C 17.933594 33.5625 19.394531 33.113281 21.21875 33.113281 C 22.835938 33.113281 24.175781 33.324219 25.238281 33.75 L 25.238281 37.199219 C 24.125 36.429688 22.851563 36.046875 21.429688 36.046875 C 20.714844 36.046875 20.148438 36.195313 19.730469 36.5 C 19.316406 36.804688 19.109375 37.210938 19.109375 37.71875 C 19.109375 38.242188 19.273438 38.671875 19.609375 39.007813 C 19.945313 39.339844 20.632813 39.753906 21.671875 40.25 C 23.21875 40.980469 24.320313 41.722656 24.980469 42.476563 C 25.636719 43.234375 25.964844 44.171875 25.964844 45.296875 Z M 25.964844 45.296875 "/>
<path style=" stroke:none;fill-rule:nonzero;fill:rgb(100%,100%,100%);fill-opacity:1;" d="M 43.785156 41.554688 C 43.785156 43.503906 43.339844 45.195313 42.453125 46.625 C 41.570313 48.054688 40.324219 49.058594 38.714844 49.636719 L 43.519531 54.085938 L 38.667969 54.085938 L 35.238281 50.238281 C 33.769531 50.1875 32.441406 49.796875 31.257813 49.074219 C 30.078125 48.351563 29.164063 47.359375 28.523438 46.097656 C 27.878906 44.839844 27.558594 43.4375 27.558594 41.890625 C 27.558594 40.171875 27.90625 38.644531 28.601563 37.296875 C 29.300781 35.953125 30.277344 34.921875 31.539063 34.199219 C 32.804688 33.476563 34.25 33.113281 35.882813 33.113281 C 37.40625 33.113281 38.773438 33.460938 39.976563 34.164063 C 41.179688 34.863281 42.117188 35.859375 42.78125 37.15625 C 43.449219 38.449219 43.785156 39.914063 43.785156 41.554688 Z M 39.859375 41.761719 C 39.859375 40.085938 39.492188 38.757813 38.761719 37.785156 C 38.027344 36.808594 37.027344 36.324219 35.757813 36.324219 C 34.464844 36.324219 33.429688 36.8125 32.652344 37.789063 C 31.875 38.765625 31.484375 40.066406 31.484375 41.691406 C 31.484375 43.308594 31.867188 44.601563 32.628906 45.566406 C 33.390625 46.53125 34.402344 47.015625 35.664063 47.015625 C 36.949219 47.015625 37.96875 46.546875 38.722656 45.613281 C 39.480469 44.679688 39.859375 43.394531 39.859375 41.761719 Z M 39.859375 41.761719 "/>
<path style=" stroke:none;fill-rule:nonzero;fill:rgb(100%,100%,100%);fill-opacity:1;" d="M 56.382813 49.949219 L 46.519531 49.949219 L 46.519531 33.390625 L 50.25 33.390625 L 50.25 46.925781 L 56.382813 46.925781 Z M 56.382813 49.949219 "/>
</g>
</svg>
