<?xml version="1.0" encoding="UTF-8"?>
<svg xmlns="http://www.w3.org/2000/svg" xmlns:xlink="http://www.w3.org/1999/xlink" width="70pt" height="70pt" viewBox="0 0 70 70" version="1.1">
<defs>
<filter id="alpha" filterUnits="objectBoundingBox" x="0%" y="0%" width="100%" height="100%">
  <feColorMatrix type="matrix" in="SourceGraphic" values="0 0 0 0 1 0 0 0 0 1 0 0 0 0 1 0 0 0 1 0"/>
</filter>
<mask id="mask0">
  <g filter="url(#alpha)">
<rect x="0" y="0" width="70" height="70" style="fill:rgb(0%,0%,0%);fill-opacity:0.8;stroke:none;"/>
  </g>
</mask>
<clipPath id="clip1">
  <rect x="0" y="0" width="70" height="70"/>
</clipPath>
<g id="surface5" clip-path="url(#clip1)">
<path style=" stroke:none;fill-rule:nonzero;fill:rgb(72.156863%,83.137255%,20%);fill-opacity:1;" d="M 25.023438 28.753906 L 24.308594 28.753906 L 24.308594 23.308594 L 18.777344 23.308594 L 18.777344 22.503906 L 25.023438 22.503906 Z M 25.023438 28.753906 "/>
</g>
<mask id="mask1">
  <g filter="url(#alpha)">
<rect x="0" y="0" width="70" height="70" style="fill:rgb(0%,0%,0%);fill-opacity:0.501961;stroke:none;"/>
  </g>
</mask>
<clipPath id="clip2">
  <rect x="0" y="0" width="70" height="70"/>
</clipPath>
<g id="surface8" clip-path="url(#clip2)">
<path style=" stroke:none;fill-rule:nonzero;fill:rgb(72.156863%,83.137255%,20%);fill-opacity:1;" d="M 18.777344 22.503906 L 19.496094 22.503906 L 19.496094 27.964844 L 25.023438 27.964844 L 25.023438 28.753906 L 18.777344 28.753906 Z M 18.777344 22.503906 "/>
</g>
<mask id="mask2">
  <g filter="url(#alpha)">
<rect x="0" y="0" width="70" height="70" style="fill:rgb(0%,0%,0%);fill-opacity:0.8;stroke:none;"/>
  </g>
</mask>
<clipPath id="clip3">
  <rect x="0" y="0" width="70" height="70"/>
</clipPath>
<g id="surface11" clip-path="url(#clip3)">
<path style=" stroke:none;fill-rule:nonzero;fill:rgb(72.156863%,83.137255%,20%);fill-opacity:1;" d="M 20.074219 37.222656 L 19.371094 37.222656 L 19.371094 31.78125 L 13.824219 31.78125 L 13.824219 30.976563 L 20.074219 30.976563 Z M 20.074219 37.222656 "/>
</g>
<mask id="mask3">
  <g filter="url(#alpha)">
<rect x="0" y="0" width="70" height="70" style="fill:rgb(0%,0%,0%);fill-opacity:0.501961;stroke:none;"/>
  </g>
</mask>
<clipPath id="clip4">
  <rect x="0" y="0" width="70" height="70"/>
</clipPath>
<g id="surface14" clip-path="url(#clip4)">
<path style=" stroke:none;fill-rule:nonzero;fill:rgb(72.156863%,83.137255%,20%);fill-opacity:1;" d="M 13.824219 30.976563 L 14.542969 30.976563 L 14.542969 36.417969 L 20.074219 36.417969 L 20.074219 37.222656 L 13.824219 37.222656 Z M 13.824219 30.976563 "/>
</g>
<mask id="mask4">
  <g filter="url(#alpha)">
<rect x="0" y="0" width="70" height="70" style="fill:rgb(0%,0%,0%);fill-opacity:0.8;stroke:none;"/>
  </g>
</mask>
<clipPath id="clip5">
  <rect x="0" y="0" width="70" height="70"/>
</clipPath>
<g id="surface17" clip-path="url(#clip5)">
<path style=" stroke:none;fill-rule:nonzero;fill:rgb(72.156863%,83.137255%,20%);fill-opacity:1;" d="M 28.996094 37.222656 L 28.246094 37.222656 L 28.246094 31.78125 L 22.714844 31.78125 L 22.714844 30.976563 L 28.996094 30.976563 Z M 28.996094 37.222656 "/>
</g>
<mask id="mask5">
  <g filter="url(#alpha)">
<rect x="0" y="0" width="70" height="70" style="fill:rgb(0%,0%,0%);fill-opacity:0.501961;stroke:none;"/>
  </g>
</mask>
<clipPath id="clip6">
  <rect x="0" y="0" width="70" height="70"/>
</clipPath>
<g id="surface20" clip-path="url(#clip6)">
<path style=" stroke:none;fill-rule:nonzero;fill:rgb(72.156863%,83.137255%,20%);fill-opacity:1;" d="M 22.714844 30.976563 L 23.46875 30.976563 L 23.46875 36.417969 L 28.996094 36.417969 L 28.996094 37.222656 L 22.714844 37.222656 Z M 22.714844 30.976563 "/>
</g>
<mask id="mask6">
  <g filter="url(#alpha)">
<rect x="0" y="0" width="70" height="70" style="fill:rgb(0%,0%,0%);fill-opacity:0.8;stroke:none;"/>
  </g>
</mask>
<clipPath id="clip7">
  <rect x="0" y="0" width="70" height="70"/>
</clipPath>
<g id="surface23" clip-path="url(#clip7)">
<path style=" stroke:none;fill-rule:nonzero;fill:rgb(72.156863%,83.137255%,20%);fill-opacity:1;" d="M 20.074219 45.691406 L 19.371094 45.691406 L 19.371094 40.234375 L 13.824219 40.234375 L 13.824219 39.445313 L 20.074219 39.445313 Z M 20.074219 45.691406 "/>
</g>
<mask id="mask7">
  <g filter="url(#alpha)">
<rect x="0" y="0" width="70" height="70" style="fill:rgb(0%,0%,0%);fill-opacity:0.501961;stroke:none;"/>
  </g>
</mask>
<clipPath id="clip8">
  <rect x="0" y="0" width="70" height="70"/>
</clipPath>
<g id="surface26" clip-path="url(#clip8)">
<path style=" stroke:none;fill-rule:nonzero;fill:rgb(72.156863%,83.137255%,20%);fill-opacity:1;" d="M 13.824219 39.445313 L 14.542969 39.445313 L 14.542969 44.886719 L 20.074219 44.886719 L 20.074219 45.691406 L 13.824219 45.691406 Z M 13.824219 39.445313 "/>
</g>
<mask id="mask8">
  <g filter="url(#alpha)">
<rect x="0" y="0" width="70" height="70" style="fill:rgb(0%,0%,0%);fill-opacity:0.8;stroke:none;"/>
  </g>
</mask>
<clipPath id="clip9">
  <rect x="0" y="0" width="70" height="70"/>
</clipPath>
<g id="surface29" clip-path="url(#clip9)">
<path style=" stroke:none;fill-rule:nonzero;fill:rgb(72.156863%,83.137255%,20%);fill-opacity:1;" d="M 28.996094 45.691406 L 28.246094 45.691406 L 28.246094 40.234375 L 22.714844 40.234375 L 22.714844 39.445313 L 28.996094 39.445313 Z M 28.996094 45.691406 "/>
</g>
<mask id="mask9">
  <g filter="url(#alpha)">
<rect x="0" y="0" width="70" height="70" style="fill:rgb(0%,0%,0%);fill-opacity:0.501961;stroke:none;"/>
  </g>
</mask>
<clipPath id="clip10">
  <rect x="0" y="0" width="70" height="70"/>
</clipPath>
<g id="surface32" clip-path="url(#clip10)">
<path style=" stroke:none;fill-rule:nonzero;fill:rgb(72.156863%,83.137255%,20%);fill-opacity:1;" d="M 22.714844 39.445313 L 23.46875 39.445313 L 23.46875 44.886719 L 28.996094 44.886719 L 28.996094 45.691406 L 22.714844 45.691406 Z M 22.714844 39.445313 "/>
</g>
<mask id="mask10">
  <g filter="url(#alpha)">
<rect x="0" y="0" width="70" height="70" style="fill:rgb(0%,0%,0%);fill-opacity:0.8;stroke:none;"/>
  </g>
</mask>
<clipPath id="clip11">
  <rect x="0" y="0" width="70" height="70"/>
</clipPath>
<g id="surface35" clip-path="url(#clip11)">
<path style=" stroke:none;fill-rule:nonzero;fill:rgb(72.156863%,83.137255%,20%);fill-opacity:1;" d="M 37.765625 45.691406 L 37.046875 45.691406 L 37.046875 40.234375 L 31.515625 40.234375 L 31.515625 39.445313 L 37.765625 39.445313 Z M 37.765625 45.691406 "/>
</g>
<mask id="mask11">
  <g filter="url(#alpha)">
<rect x="0" y="0" width="70" height="70" style="fill:rgb(0%,0%,0%);fill-opacity:0.501961;stroke:none;"/>
  </g>
</mask>
<clipPath id="clip12">
  <rect x="0" y="0" width="70" height="70"/>
</clipPath>
<g id="surface38" clip-path="url(#clip12)">
<path style=" stroke:none;fill-rule:nonzero;fill:rgb(72.156863%,83.137255%,20%);fill-opacity:1;" d="M 31.515625 39.445313 L 32.234375 39.445313 L 32.234375 44.886719 L 37.765625 44.886719 L 37.765625 45.691406 L 31.515625 45.691406 Z M 31.515625 39.445313 "/>
</g>
<mask id="mask12">
  <g filter="url(#alpha)">
<rect x="0" y="0" width="70" height="70" style="fill:rgb(0%,0%,0%);fill-opacity:0.8;stroke:none;"/>
  </g>
</mask>
<clipPath id="clip13">
  <rect x="0" y="0" width="70" height="70"/>
</clipPath>
<g id="surface41" clip-path="url(#clip13)">
<path style=" stroke:none;fill-rule:nonzero;fill:rgb(72.156863%,83.137255%,20%);fill-opacity:1;" d="M 19.703125 28.753906 L 18.777344 28.753906 L 18.777344 28.035156 L 24.183594 22.503906 L 25.023438 22.503906 L 25.023438 23.136719 Z M 19.703125 28.753906 "/>
</g>
<mask id="mask13">
  <g filter="url(#alpha)">
<rect x="0" y="0" width="70" height="70" style="fill:rgb(0%,0%,0%);fill-opacity:0.8;stroke:none;"/>
  </g>
</mask>
<clipPath id="clip14">
  <rect x="0" y="0" width="70" height="70"/>
</clipPath>
<g id="surface44" clip-path="url(#clip14)">
<path style=" stroke:none;fill-rule:nonzero;fill:rgb(72.156863%,83.137255%,20%);fill-opacity:1;" d="M 23.640625 37.222656 L 22.714844 37.222656 L 22.714844 36.503906 L 28.175781 30.976563 L 28.996094 30.976563 L 28.996094 31.605469 Z M 23.640625 37.222656 "/>
</g>
<mask id="mask14">
  <g filter="url(#alpha)">
<rect x="0" y="0" width="70" height="70" style="fill:rgb(0%,0%,0%);fill-opacity:0.8;stroke:none;"/>
  </g>
</mask>
<clipPath id="clip15">
  <rect x="0" y="0" width="70" height="70"/>
</clipPath>
<g id="surface47" clip-path="url(#clip15)">
<path style=" stroke:none;fill-rule:nonzero;fill:rgb(72.156863%,83.137255%,20%);fill-opacity:1;" d="M 14.753906 37.222656 L 13.824219 37.222656 L 13.824219 36.503906 L 19.234375 30.976563 L 20.074219 30.976563 L 20.074219 31.605469 Z M 14.753906 37.222656 "/>
</g>
<mask id="mask15">
  <g filter="url(#alpha)">
<rect x="0" y="0" width="70" height="70" style="fill:rgb(0%,0%,0%);fill-opacity:0.8;stroke:none;"/>
  </g>
</mask>
<clipPath id="clip16">
  <rect x="0" y="0" width="70" height="70"/>
</clipPath>
<g id="surface50" clip-path="url(#clip16)">
<path style=" stroke:none;fill-rule:nonzero;fill:rgb(72.156863%,83.137255%,20%);fill-opacity:1;" d="M 14.753906 45.691406 L 13.824219 45.691406 L 13.824219 44.976563 L 19.234375 39.445313 L 20.074219 39.445313 L 20.074219 40.074219 Z M 14.753906 45.691406 "/>
</g>
<mask id="mask16">
  <g filter="url(#alpha)">
<rect x="0" y="0" width="70" height="70" style="fill:rgb(0%,0%,0%);fill-opacity:0.8;stroke:none;"/>
  </g>
</mask>
<clipPath id="clip17">
  <rect x="0" y="0" width="70" height="70"/>
</clipPath>
<g id="surface53" clip-path="url(#clip17)">
<path style=" stroke:none;fill-rule:nonzero;fill:rgb(72.156863%,83.137255%,20%);fill-opacity:1;" d="M 23.640625 45.691406 L 22.714844 45.691406 L 22.714844 44.976563 L 28.175781 39.445313 L 28.996094 39.445313 L 28.996094 40.074219 Z M 23.640625 45.691406 "/>
</g>
<mask id="mask17">
  <g filter="url(#alpha)">
<rect x="0" y="0" width="70" height="70" style="fill:rgb(0%,0%,0%);fill-opacity:0.8;stroke:none;"/>
  </g>
</mask>
<clipPath id="clip18">
  <rect x="0" y="0" width="70" height="70"/>
</clipPath>
<g id="surface56" clip-path="url(#clip18)">
<path style=" stroke:none;fill-rule:nonzero;fill:rgb(72.156863%,83.137255%,20%);fill-opacity:1;" d="M 32.445313 45.691406 L 31.515625 45.691406 L 31.515625 44.976563 L 36.925781 39.445313 L 37.765625 39.445313 L 37.765625 40.074219 Z M 32.445313 45.691406 "/>
</g>
</defs>
<g id="surface1">
<path style=" stroke:none;fill-rule:nonzero;fill:rgb(49.803922%,73.333333%,25.882353%);fill-opacity:1;" d="M 18.777344 22.503906 L 25.023438 22.503906 L 25.023438 28.753906 L 18.777344 28.753906 Z M 18.777344 22.503906 "/>
<path style=" stroke:none;fill-rule:nonzero;fill:rgb(49.803922%,73.333333%,25.882353%);fill-opacity:1;" d="M 13.824219 39.445313 L 20.074219 39.445313 L 20.074219 45.691406 L 13.824219 45.691406 Z M 13.824219 39.445313 "/>
<path style=" stroke:none;fill-rule:nonzero;fill:rgb(49.803922%,73.333333%,25.882353%);fill-opacity:1;" d="M 22.714844 39.445313 L 28.960938 39.445313 L 28.960938 45.691406 L 22.714844 45.691406 Z M 22.714844 39.445313 "/>
<path style=" stroke:none;fill-rule:nonzero;fill:rgb(49.803922%,73.333333%,25.882353%);fill-opacity:1;" d="M 31.515625 39.445313 L 37.765625 39.445313 L 37.765625 45.691406 L 31.515625 45.691406 Z M 31.515625 39.445313 "/>
<path style=" stroke:none;fill-rule:nonzero;fill:rgb(49.803922%,73.333333%,25.882353%);fill-opacity:1;" d="M 13.824219 30.976563 L 20.074219 30.976563 L 20.074219 37.222656 L 13.824219 37.222656 Z M 13.824219 30.976563 "/>
<path style=" stroke:none;fill-rule:nonzero;fill:rgb(49.803922%,73.333333%,25.882353%);fill-opacity:1;" d="M 22.714844 30.976563 L 28.960938 30.976563 L 28.960938 37.222656 L 22.714844 37.222656 Z M 22.714844 30.976563 "/>
<path style=" stroke:none;fill-rule:nonzero;fill:rgb(22.352941%,60%,77.647059%);fill-opacity:1;" d="M 27.667969 2.609375 L 3.0625 15.679688 L 3.0625 19.496094 L 8.085938 19.496094 L 8.085938 45.902344 L 12.285156 45.902344 L 12.285156 19.496094 L 42.875 19.496094 L 42.875 44.222656 L 47.496094 44.222656 L 47.496094 19.496094 L 52.097656 19.496094 L 52.097656 15.679688 Z M 27.667969 2.609375 "/>
<use xlink:href="#surface5" mask="url(#mask0)"/>
<use xlink:href="#surface8" mask="url(#mask1)"/>
<use xlink:href="#surface11" mask="url(#mask2)"/>
<use xlink:href="#surface14" mask="url(#mask3)"/>
<use xlink:href="#surface17" mask="url(#mask4)"/>
<use xlink:href="#surface20" mask="url(#mask5)"/>
<use xlink:href="#surface23" mask="url(#mask6)"/>
<use xlink:href="#surface26" mask="url(#mask7)"/>
<use xlink:href="#surface29" mask="url(#mask8)"/>
<use xlink:href="#surface32" mask="url(#mask9)"/>
<use xlink:href="#surface35" mask="url(#mask10)"/>
<use xlink:href="#surface38" mask="url(#mask11)"/>
<use xlink:href="#surface41" mask="url(#mask12)"/>
<use xlink:href="#surface44" mask="url(#mask13)"/>
<use xlink:href="#surface47" mask="url(#mask14)"/>
<use xlink:href="#surface50" mask="url(#mask15)"/>
<use xlink:href="#surface53" mask="url(#mask16)"/>
<use xlink:href="#surface56" mask="url(#mask17)"/>
<path style=" stroke:none;fill-rule:nonzero;fill:rgb(22.352941%,60%,77.647059%);fill-opacity:1;" d="M 40.074219 33.738281 L 40.074219 60.933594 C 40.074219 63.734375 46.410156 66.046875 54.199219 66.046875 L 54.199219 33.738281 Z M 40.074219 33.738281 "/>
<path style=" stroke:none;fill-rule:nonzero;fill:rgb(35.294118%,70.588235%,85.098039%);fill-opacity:1;" d="M 53.988281 66.0625 L 54.199219 66.0625 C 62.003906 66.0625 68.320313 63.753906 68.320313 60.953125 L 68.320313 33.738281 L 53.988281 33.738281 Z M 53.988281 66.0625 "/>
<path style=" stroke:none;fill-rule:nonzero;fill:rgb(100%,100%,100%);fill-opacity:1;" d="M 68.320313 33.738281 C 68.320313 36.539063 61.984375 38.851563 54.199219 38.851563 C 46.410156 38.851563 40.074219 36.558594 40.074219 33.738281 C 40.074219 30.921875 46.410156 28.628906 54.199219 28.628906 C 61.984375 28.628906 68.320313 30.886719 68.320313 33.738281 "/>
<path style=" stroke:none;fill-rule:nonzero;fill:rgb(49.803922%,73.333333%,25.882353%);fill-opacity:1;" d="M 65.433594 33.441406 C 65.433594 35.28125 60.410156 36.835938 54.199219 36.835938 C 47.984375 36.835938 42.960938 35.332031 42.960938 33.441406 C 42.960938 31.605469 47.984375 30.046875 54.199219 30.046875 C 60.410156 30.046875 65.433594 31.570313 65.433594 33.441406 "/>
<path style=" stroke:none;fill-rule:nonzero;fill:rgb(72.156863%,83.137255%,20%);fill-opacity:1;" d="M 63.085938 35.507813 C 64.558594 34.914063 65.433594 34.210938 65.433594 33.460938 C 65.433594 31.621094 60.410156 30.066406 54.199219 30.066406 C 47.984375 30.066406 42.960938 31.570313 42.960938 33.460938 C 42.960938 34.265625 43.835938 34.964844 45.308594 35.507813 C 47.355469 34.703125 50.59375 34.210938 54.199219 34.210938 C 57.800781 34.160156 61.023438 34.703125 63.085938 35.507813 "/>
<path style=" stroke:none;fill-rule:nonzero;fill:rgb(100%,100%,100%);fill-opacity:1;" d="M 43.59375 53.234375 L 43.59375 51.308594 C 43.925781 51.609375 44.308594 51.816406 44.730469 51.976563 C 45.148438 52.097656 45.570313 52.183594 45.9375 52.183594 C 46.183594 52.183594 46.390625 52.148438 46.566406 52.097656 C 46.742188 52.0625 46.898438 52.011719 47.023438 51.921875 C 47.144531 51.835938 47.234375 51.746094 47.265625 51.625 C 47.300781 51.503906 47.355469 51.414063 47.355469 51.292969 C 47.355469 51.117188 47.320313 50.960938 47.234375 50.835938 C 47.144531 50.714844 47.023438 50.59375 46.847656 50.453125 C 46.671875 50.328125 46.460938 50.242188 46.253906 50.121094 C 46.042969 50.03125 45.796875 49.910156 45.5 49.789063 C 44.835938 49.488281 44.328125 49.15625 43.996094 48.789063 C 43.664063 48.371094 43.488281 47.914063 43.488281 47.320313 C 43.488281 46.863281 43.574219 46.480469 43.734375 46.183594 C 43.90625 45.851563 44.152344 45.585938 44.449219 45.378906 C 44.746094 45.167969 45.113281 44.992188 45.535156 44.921875 C 45.953125 44.835938 46.375 44.800781 46.828125 44.800781 C 47.285156 44.800781 47.671875 44.835938 48.003906 44.886719 C 48.335938 44.921875 48.667969 45.011719 48.964844 45.132813 L 48.964844 46.933594 C 48.84375 46.847656 48.667969 46.761719 48.511719 46.691406 C 48.351563 46.621094 48.175781 46.566406 48.003906 46.515625 C 47.828125 46.480469 47.617188 46.425781 47.460938 46.390625 C 47.285156 46.359375 47.128906 46.359375 46.953125 46.359375 C 46.742188 46.359375 46.53125 46.359375 46.359375 46.390625 C 46.183594 46.425781 46.023438 46.480469 45.902344 46.566406 C 45.78125 46.65625 45.691406 46.742188 45.605469 46.8125 C 45.515625 46.933594 45.515625 47.023438 45.515625 47.144531 C 45.515625 47.265625 45.550781 47.390625 45.640625 47.53125 C 45.726563 47.652344 45.816406 47.738281 45.972656 47.863281 C 46.09375 47.949219 46.269531 48.074219 46.480469 48.160156 C 46.691406 48.246094 46.898438 48.371094 47.144531 48.457031 C 47.476563 48.578125 47.808594 48.753906 48.074219 48.914063 C 48.371094 49.085938 48.578125 49.246094 48.789063 49.453125 C 49 49.664063 49.121094 49.875 49.246094 50.171875 C 49.332031 50.417969 49.421875 50.714844 49.421875 51.101563 C 49.421875 51.554688 49.332031 51.976563 49.175781 52.308594 C 49 52.640625 48.753906 52.902344 48.421875 53.113281 C 48.125 53.324219 47.757813 53.445313 47.335938 53.53125 C 46.917969 53.621094 46.496094 53.65625 46.042969 53.65625 C 45.585938 53.65625 45.113281 53.621094 44.695313 53.53125 C 44.257813 53.53125 43.890625 53.390625 43.59375 53.234375 Z M 43.59375 53.234375 "/>
<path style=" stroke:none;fill-rule:nonzero;fill:rgb(100%,100%,100%);fill-opacity:1;" d="M 54.441406 53.742188 C 53.234375 53.742188 52.21875 53.324219 51.433594 52.535156 C 50.679688 51.730469 50.261719 50.699219 50.261719 49.386719 C 50.261719 48.039063 50.644531 46.953125 51.433594 46.113281 C 52.238281 45.273438 53.234375 44.851563 54.53125 44.851563 C 55.738281 44.851563 56.753906 45.273438 57.503906 46.058594 C 58.257813 46.847656 58.640625 47.898438 58.640625 49.246094 C 58.640625 50.59375 58.257813 51.675781 57.46875 52.515625 C 57.433594 52.550781 57.433594 52.550781 57.382813 52.605469 C 57.347656 52.640625 57.347656 52.640625 57.296875 52.691406 L 59.484375 54.792969 L 56.753906 54.792969 L 55.613281 53.621094 C 55.335938 53.691406 54.914063 53.742188 54.441406 53.742188 Z M 54.53125 46.53125 C 53.863281 46.53125 53.324219 46.777344 52.902344 47.285156 C 52.484375 47.792969 52.308594 48.457031 52.308594 49.296875 C 52.308594 50.136719 52.515625 50.800781 52.902344 51.308594 C 53.324219 51.816406 53.828125 52.0625 54.460938 52.0625 C 55.125 52.0625 55.632813 51.816406 56.050781 51.34375 C 56.4375 50.835938 56.648438 50.171875 56.648438 49.332031 C 56.648438 48.457031 56.4375 47.738281 56.050781 47.234375 C 55.703125 46.777344 55.195313 46.53125 54.53125 46.53125 Z M 54.53125 46.53125 "/>
<path style=" stroke:none;fill-rule:nonzero;fill:rgb(100%,100%,100%);fill-opacity:1;" d="M 65.222656 53.566406 L 60.113281 53.566406 L 60.113281 44.976563 L 62.039063 44.976563 L 62.039063 51.976563 L 65.222656 51.976563 Z M 65.222656 53.566406 "/>
</g>
</svg>
