<?xml version="1.0" encoding="UTF-8"?>
<svg xmlns="http://www.w3.org/2000/svg" xmlns:xlink="http://www.w3.org/1999/xlink" width="53pt" height="70pt" viewBox="0 0 53 70" version="1.1">
<g id="surface1">
<path style=" stroke:none;fill-rule:nonzero;fill:rgb(22.352941%,59.607843%,77.254902%);fill-opacity:1;" d="M 0.0195313 9.648438 L 0.0195313 60.871094 C 0.0195313 66.261719 11.921875 70.519531 26.519531 70.519531 L 26.519531 9.648438 Z M 0.0195313 9.648438 "/>
<path style=" stroke:none;fill-rule:nonzero;fill:rgb(34.901961%,70.196078%,84.705882%);fill-opacity:1;" d="M 26.234375 70.519531 L 26.660156 70.519531 C 41.398438 70.519531 53.160156 66.261719 53.160156 60.871094 L 53.160156 9.648438 L 26.234375 9.648438 Z M 26.234375 70.519531 "/>
<path style=" stroke:none;fill-rule:nonzero;fill:rgb(100%,100%,100%);fill-opacity:1;" d="M 53.164063 9.648438 C 53.164063 14.902344 41.257813 19.296875 26.660156 19.296875 C 12.066406 19.296875 0.0195313 14.898438 0.0195313 9.648438 C 0.0195313 4.398438 11.921875 0 26.519531 0 C 41.117188 0 53.164063 4.398438 53.164063 9.648438 "/>
<path style=" stroke:none;fill-rule:nonzero;fill:rgb(49.803922%,72.54902%,0%);fill-opacity:1;" d="M 47.773438 9.078125 C 47.773438 12.628906 38.277344 15.464844 26.65625 15.464844 C 15.035156 15.464844 5.402344 12.628906 5.402344 9.078125 C 5.402344 5.53125 14.898438 2.695313 26.519531 2.695313 C 38.140625 2.695313 47.773438 5.53125 47.773438 9.078125 "/>
<path style=" stroke:none;fill-rule:nonzero;fill:rgb(71.764706%,82.745098%,19.607843%);fill-opacity:1;" d="M 43.242188 12.910156 C 46.074219 11.78125 47.636719 10.5 47.636719 9.078125 C 47.636719 5.53125 38.140625 2.695313 26.519531 2.695313 C 14.898438 2.695313 5.402344 5.53125 5.402344 9.078125 C 5.402344 10.5 7.101563 11.917969 9.796875 12.910156 C 13.621094 11.347656 19.714844 10.5 26.519531 10.5 C 32.1875 10.378906 37.835938 11.191406 43.242188 12.910156 "/>
<path style=" stroke:none;fill-rule:nonzero;fill:rgb(20%,40.392157%,56.470588%);fill-opacity:1;" d="M 41.523438 47.695313 C 37.308594 48.566406 37.015625 47.132813 37.015625 47.132813 C 41.46875 40.515625 43.332031 32.117188 41.722656 30.066406 C 37.34375 24.457031 29.75 27.109375 29.628906 27.179688 L 29.589844 27.1875 C 28.660156 27 27.71875 26.902344 26.769531 26.894531 C 25.175781 26.8125 23.605469 27.285156 22.316406 28.226563 C 22.316406 28.226563 8.78125 22.644531 9.414063 35.246094 C 9.554688 37.925781 13.25 55.53125 17.667969 50.214844 C 19.28125 48.269531 20.84375 46.625 20.84375 46.625 C 21.628906 47.15625 22.574219 47.398438 23.519531 47.308594 L 23.597656 47.246094 C 23.574219 47.5 23.585938 47.753906 23.628906 48.003906 C 22.488281 49.273438 22.824219 49.5 20.546875 49.972656 C 18.246094 50.445313 19.601563 51.292969 20.480469 51.511719 C 22.402344 52.136719 24.507813 51.453125 25.699219 49.820313 L 25.632813 50.089844 C 26.246094 51.367188 26.488281 52.792969 26.335938 54.203125 C 26.191406 55.53125 26.28125 56.871094 26.601563 58.167969 C 26.953125 59.125 27.304688 61.277344 30.292969 60.636719 C 32.492188 60.417969 34.191406 58.605469 34.265625 56.394531 C 34.394531 54.746094 34.6875 54.984375 34.703125 53.515625 L 34.933594 52.820313 C 35.203125 50.585938 34.976563 49.863281 36.515625 50.199219 L 36.890625 50.230469 C 38.082031 50.28125 39.269531 50.082031 40.378906 49.644531 C 42.253906 48.773438 43.363281 47.320313 41.515625 47.699219 Z M 41.523438 47.695313 "/>
<path style=" stroke:none;fill-rule:nonzero;fill:rgb(100%,100%,100%);fill-opacity:1;" d="M 23.71875 36.640625 C 23.53125 36.542969 23.324219 36.476563 23.109375 36.453125 C 22.804688 36.386719 22.484375 36.429688 22.210938 36.578125 C 22.136719 36.628906 22.085938 36.707031 22.070313 36.796875 C 22.03125 37.078125 22.449219 37.609375 22.972656 37.683594 C 23.015625 37.6875 23.058594 37.691406 23.101563 37.691406 C 23.484375 37.691406 23.832031 37.464844 23.992188 37.117188 L 24.007813 37.066406 C 24.027344 36.976563 24.007813 36.796875 23.71875 36.640625 Z M 23.71875 36.640625 "/>
<path style=" stroke:none;fill-rule:nonzero;fill:rgb(100%,100%,100%);fill-opacity:1;" d="M 35.375 36.203125 C 35.175781 36.160156 34.96875 36.15625 34.769531 36.1875 C 34.332031 36.253906 33.90625 36.449219 33.941406 36.707031 L 33.949219 36.734375 C 34.09375 37.054688 34.414063 37.257813 34.765625 37.257813 C 34.800781 37.257813 34.839844 37.253906 34.878906 37.25 C 35.109375 37.207031 35.320313 37.09375 35.480469 36.917969 C 35.613281 36.800781 35.691406 36.636719 35.707031 36.460938 C 35.683594 36.339844 35.566406 36.246094 35.375 36.203125 Z M 35.375 36.203125 "/>
<path style=" stroke:none;fill-rule:nonzero;fill:rgb(100%,100%,100%);fill-opacity:1;" d="M 42.800781 47.640625 C 42.597656 47.015625 41.707031 47.203125 41.417969 47.261719 C 38.445313 47.878906 37.613281 47.273438 37.441406 47.101563 C 39.527344 43.929688 41.082031 40.433594 42.035156 36.753906 C 42.859375 33.464844 42.84375 30.855469 42 29.777344 C 40.203125 27.472656 37.457031 26.113281 34.535156 26.082031 C 32.84375 26.011719 31.15625 26.234375 29.542969 26.75 L 29.507813 26.757813 L 29.449219 26.777344 L 29.398438 26.796875 C 28.535156 26.582031 27.648438 26.464844 26.753906 26.453125 C 25.167969 26.390625 23.601563 26.835938 22.285156 27.722656 C 20.90625 27.203125 19.46875 26.84375 18.007813 26.644531 C 15.835938 26.21875 13.578125 26.625 11.6875 27.785156 C 9.730469 29.179688 8.820313 31.679688 8.996094 35.214844 C 9.082031 36.882813 11.519531 50.175781 15.347656 51.453125 C 16.34375 51.71875 17.398438 51.300781 17.941406 50.421875 C 19.304688 48.78125 20.578125 47.417969 20.898438 47.078125 C 21.578125 47.457031 22.339844 47.664063 23.121094 47.671875 C 23.121094 47.75 23.128906 47.828125 23.136719 47.90625 C 22.996094 48.066406 22.871094 48.226563 22.738281 48.398438 C 22.226563 49.050781 22.105469 49.203125 20.445313 49.546875 C 19.773438 49.6875 18.878906 49.945313 18.867188 50.613281 C 18.851563 51.28125 19.785156 51.699219 20.339844 51.835938 C 22.148438 52.425781 24.132813 51.945313 25.472656 50.59375 C 25.332031 53.234375 25.496094 55.886719 25.964844 58.488281 C 26.394531 60.089844 27.839844 61.203125 29.492188 61.210938 C 29.890625 61.207031 30.285156 61.164063 30.671875 61.078125 C 32.886719 60.902344 34.636719 59.121094 34.773438 56.902344 C 35.019531 55.492188 35.441406 52.0625 35.617188 50.335938 C 36.125 50.515625 36.664063 50.59375 37.199219 50.578125 C 38.335938 50.585938 39.464844 50.371094 40.519531 49.949219 C 41.574219 49.445313 43.058594 48.425781 42.800781 47.640625 Z M 34.925781 49.472656 C 34.855469 50.4375 34.300781 55.078125 34.007813 56.761719 C 33.921875 58.667969 32.410156 60.199219 30.503906 60.3125 C 29.71875 60.578125 28.855469 60.5 28.128906 60.097656 C 27.398438 59.695313 26.875 59.007813 26.679688 58.199219 C 26.203125 55.15625 26.066406 52.066406 26.269531 48.992188 C 26.269531 48.933594 26.257813 48.875 26.230469 48.820313 C 26.21875 48.703125 26.191406 48.585938 26.160156 48.46875 C 26.007813 47.972656 25.664063 47.558594 25.207031 47.316406 L 25.160156 47.292969 C 24.785156 47.082031 24.332031 47.054688 23.933594 47.21875 C 24.058594 46.667969 24.226563 46.128906 24.441406 45.609375 L 24.519531 45.394531 C 24.609375 45.152344 24.71875 44.914063 24.835938 44.644531 C 25.457031 43.261719 26.304688 41.375 25.378906 37.089844 C 25.261719 36.382813 24.859375 35.753906 24.261719 35.355469 C 23.667969 34.953125 22.933594 34.816406 22.234375 34.976563 C 21.179688 35.121094 20.167969 35.480469 19.257813 36.039063 C 19.328125 33.488281 20.246094 31.035156 21.871094 29.070313 C 23.164063 27.804688 24.929688 27.136719 26.738281 27.238281 C 29.519531 27.242188 32.171875 28.402344 34.0625 30.441406 C 35.265625 31.695313 36.179688 33.195313 36.742188 34.839844 C 34.730469 34.601563 33.378906 34.960938 32.714844 35.910156 C 31.304688 37.9375 33.535156 41.949219 34.609375 43.878906 C 34.792969 44.207031 34.984375 44.546875 35.042969 44.691406 C 35.328125 45.351563 35.710938 45.96875 36.175781 46.515625 C 36.316406 46.679688 36.445313 46.855469 36.554688 47.039063 L 36.464844 47.066406 C 35.894531 47.21875 34.832031 47.515625 34.925781 49.472656 Z M 15.59375 50.714844 C 14.3125 50.292969 12.890625 47.714844 11.585938 43.472656 C 10.730469 40.769531 10.125 37.992188 9.773438 35.179688 C 9.609375 31.925781 10.40625 29.652344 12.136719 28.421875 C 13.355469 27.640625 14.785156 27.257813 16.230469 27.320313 C 18.050781 27.367188 19.851563 27.695313 21.574219 28.289063 C 21.492188 28.363281 21.40625 28.433594 21.328125 28.519531 C 18.351563 31.523438 18.457031 36.691406 18.460938 36.90625 L 18.460938 36.933594 C 18.589844 38.542969 18.558594 40.160156 18.375 41.761719 C 18.128906 43.382813 18.644531 45.023438 19.773438 46.210938 C 19.917969 46.363281 20.078125 46.503906 20.246094 46.632813 C 19.757813 47.152344 18.597656 48.410156 17.34375 49.921875 C 16.742188 50.644531 16.167969 50.902344 15.59375 50.714844 Z M 19.140625 41.859375 C 19.332031 40.242188 19.363281 38.609375 19.242188 36.988281 C 20.367188 36.117188 21.765625 35.679688 23.183594 35.757813 C 23.945313 35.875 24.53125 36.484375 24.621094 37.25 C 25.492188 41.285156 24.734375 42.96875 24.125 44.324219 C 24.007813 44.585938 23.886719 44.855469 23.785156 45.121094 L 23.707031 45.332031 C 23.503906 45.84375 23.332031 46.363281 23.199219 46.898438 C 22.109375 46.917969 21.066406 46.472656 20.324219 45.671875 C 19.363281 44.652344 18.925781 43.242188 19.140625 41.859375 Z M 23.886719 48.21875 C 23.898438 48.203125 23.910156 48.1875 23.921875 48.171875 C 24.109375 47.886719 24.484375 47.796875 24.78125 47.964844 L 24.84375 47.996094 C 25.402344 48.292969 25.628906 48.976563 25.359375 49.546875 C 24.261719 51.050781 22.320313 51.679688 20.550781 51.097656 C 20.21875 51.027344 19.910156 50.875 19.648438 50.65625 C 19.933594 50.46875 20.261719 50.351563 20.597656 50.3125 C 22.449219 49.933594 22.710938 49.683594 23.339844 48.886719 C 23.480469 48.707031 23.65625 48.484375 23.890625 48.222656 Z M 35.761719 44.390625 C 35.6875 44.210938 35.523438 43.921875 35.300781 43.515625 L 35.289063 43.496094 C 34.371094 41.847656 32.214844 37.980469 33.351563 36.351563 C 33.921875 35.734375 34.753906 35.429688 35.585938 35.539063 C 35.992188 35.542969 36.402344 35.574219 36.804688 35.632813 C 36.796875 36.175781 36.746094 36.71875 36.652344 37.253906 C 36.554688 37.820313 36.492188 38.390625 36.46875 38.96875 C 36.464844 39.617188 36.511719 40.269531 36.609375 40.910156 C 36.921875 42.34375 36.769531 43.839844 36.175781 45.179688 C 36.015625 44.929688 35.875 44.664063 35.761719 44.390625 Z M 41.050781 37.359375 C 40.089844 40.507813 38.734375 43.523438 37.015625 46.332031 C 36.953125 46.242188 36.875 46.140625 36.777344 46.019531 L 36.6875 45.90625 L 36.660156 45.875 C 37.507813 44.328125 37.757813 42.523438 37.367188 40.804688 C 37.277344 40.203125 37.234375 39.597656 37.234375 38.988281 C 37.261719 38.441406 37.320313 37.898438 37.414063 37.359375 C 37.53125 36.707031 37.585938 36.042969 37.574219 35.375 C 37.597656 35.292969 37.605469 35.210938 37.59375 35.125 C 36.617188 31.570313 34.070313 28.65625 30.683594 27.214844 C 36.992188 25.671875 40.261719 28.816406 41.390625 30.25 C 42.234375 31.328125 42.109375 33.851563 41.050781 37.359375 Z M 36.683594 47.796875 C 36.78125 47.773438 36.875 47.742188 36.96875 47.703125 C 37.03125 47.757813 37.09375 47.808594 37.164063 47.855469 C 38.570313 48.441406 40.136719 48.496094 41.582031 48.015625 C 41.714844 47.984375 41.851563 47.96875 41.988281 47.960938 C 41.492188 48.511719 40.882813 48.945313 40.203125 49.230469 C 38.8125 49.816406 37.269531 49.933594 35.804688 49.558594 C 35.730469 49.511719 35.710938 49.480469 35.710938 49.472656 C 35.632813 48.101563 36.167969 47.949219 36.695313 47.800781 Z M 36.683594 47.796875 "/>
</g>
</svg>
