<?xml version="1.0" encoding="utf-8"?><svg version="1.1" xmlns="http://www.w3.org/2000/svg" xmlns:xlink="http://www.w3.org/1999/xlink" xmlns:xml="http://www.w3.org/XML/1998/namespace" width="70" height="70" viewBox="0, 0, 18, 18" id="b2f464cb-b92f-4bc9-9d8a-b83d938321a8"><defs><linearGradient x1="7.37" y1="0.5" x2="7.37" y2="13.23" gradientUnits="userSpaceOnUse" id="fbb0c6d7-8dd3-4464-9217-32033b9dbe40"><stop offset="0%" stop-color="#B3B2B3" /><stop offset="38%" stop-color="#AFAEAF" /><stop offset="76%" stop-color="#A2A2A2" /><stop offset="100%" stop-color="#979797" /></linearGradient><linearGradient x1="8.96" y1="13.29" x2="17.32" y2="13.29" gradientUnits="userSpaceOnUse" id="f4df9409-8db7-49ba-98de-c39ce5949175"><stop offset="0%" stop-color="#005BA1" /><stop offset="7%" stop-color="#0060A9" /><stop offset="36%" stop-color="#0071C8" /><stop offset="52%" stop-color="#0078D4" /><stop offset="64%" stop-color="#0074CD" /><stop offset="82%" stop-color="#006ABB" /><stop offset="100%" stop-color="#005BA1" /></linearGradient></defs><title>Icon-databases-125</title><g><polygon points="7.37,0.5 0.68,4.38 0.68,5.34 1.91,5.34 1.91,12.62 3.12,12.62 3.12,5.34 11.62,5.34 11.62,13.23 12.83,13.23 12.83,5.34 14.06,5.34 14.06,4.38 7.37,0.5" style="fill:url(#fbb0c6d7-8dd3-4464-9217-32033b9dbe40);" /><path d="M4.33 12.62 H6.76 V10.2 H4.33 Z m3.64 0 H10.4 V10.2 H8 Z M4.33 9 H6.76 V6.55 H4.33 Z M8 6.55 V9 H10.4 V6.55 Z" style="fill:#50E6FF;" /><path d="M13.14 10.41 C10.83 10.41 9 9.81 9 9.08 v7.09 c0 0.73 1.84 1.32 4.12 1.33 h0.06 c2.31 0 4.18 -0.6 4.18 -1.33 V9.08 C17.32 9.81 15.45 10.41 13.14 10.41 Z" style="fill:url(#f4df9409-8db7-49ba-98de-c39ce5949175);" /><path d="M17.32 9.08 c0 0.73 -1.87 1.33 -4.18 1.33 S9 9.81 9 9.08 s1.87 -1.33 4.18 -1.33 s4.18 0.59 4.18 1.33" style="fill:#E8E8E8;" /><path d="M16.35 9 c0 0.47 -1.44 0.85 -3.21 0.85 S9.94 9.44 9.94 9 s1.43 -0.85 3.2 -0.85 s3.21 0.38 3.21 0.85" style="fill:#50E6FF;" /><path d="M13.14 9.17 a8.59 8.59 0 0 0 -2.54 0.32 a8.5 8.5 0 0 0 2.54 0.33 a8.5 8.5 0 0 0 2.54 -0.33 A8.59 8.59 0 0 0 13.14 9.17 Z" style="fill:#32BEDD;" /></g></svg>