<?xml version="1.0" encoding="UTF-8"?>
<svg xmlns="http://www.w3.org/2000/svg" xmlns:xlink="http://www.w3.org/1999/xlink" width="52pt" height="70pt" viewBox="0 0 52 70" version="1.1">
<g id="surface1">
<path style=" stroke:none;fill-rule:nonzero;fill:rgb(0,80,140);fill-opacity:1;" d="M 0.0625 9.550781 L 0.0625 60.386719 C 0.0625 65.726563 11.660156 69.9375 25.90625 69.9375 L 25.90625 9.550781 Z M 0.0625 9.550781 "/>
<path style=" stroke:none;fill-rule:nonzero;fill:rgb(0,114,198);fill-opacity:1;" d="M 25.660156 70 L 26.09375 70 C 40.464844 70 51.9375 65.789063 51.9375 60.449219 L 51.9375 9.550781 L 25.660156 9.550781 Z M 25.660156 70 "/>
<path style=" stroke:none;fill-rule:nonzero;fill:rgb(255,255,255);fill-opacity:1;" d="M 51.9375 9.550781 C 51.9375 14.765625 40.339844 19.101563 26.09375 19.101563 C 11.84375 19.101563 0.0625 14.765625 0.0625 9.550781 C 0.0625 4.335938 11.660156 0 25.90625 0 C 40.15625 0 51.9375 4.398438 51.9375 9.550781 "/>
<path style=" stroke:none;fill-rule:nonzero;fill:rgb(39,163,255);fill-opacity:1;" d="M 46.695313 8.984375 C 46.695313 12.503906 37.441406 15.332031 26.09375 15.332031 C 14.742188 15.332031 5.304688 12.566406 5.304688 8.984375 C 5.304688 5.402344 14.558594 2.640625 25.90625 2.640625 C 37.257813 2.640625 46.695313 5.464844 46.695313 8.984375 "/>
<path style=" stroke:none;fill-rule:nonzero;fill:rgb(113,194,255);fill-opacity:1;" d="M 42.253906 12.820313 C 45.027344 11.6875 46.570313 10.429688 46.570313 8.984375 C 46.570313 5.464844 37.320313 2.640625 25.96875 2.640625 C 14.621094 2.640625 5.304688 5.464844 5.304688 8.984375 C 5.304688 10.367188 6.972656 11.8125 9.625 12.820313 C 13.386719 11.246094 19.308594 10.429688 25.96875 10.429688 C 32.632813 10.429688 38.492188 11.4375 42.253906 12.820313 "/>
<path style=" stroke:none;fill-rule:nonzero;fill:rgb(255,255,255);fill-opacity:1;" d="M 46.632813 45.683594 C 46.632813 48.699219 44.597656 51.273438 41.699219 51.273438 L 30.59375 51.273438 L 30.59375 46.875 L 40.464844 46.875 C 41.082031 46.8125 41.574219 45.054688 41.574219 45.054688 L 40.464844 45.621094 L 34.296875 45.621094 C 31.828125 45.621094 29.980469 44.175781 29.980469 41.847656 L 29.980469 34.9375 L 28.128906 34.308594 L 28.128906 46.246094 L 23.195313 46.246094 L 23.195313 37.136719 L 20.417969 43.546875 C 19.675781 45.242188 18.9375 46.3125 17.085938 46.3125 C 15.296875 46.375 13.632813 45.242188 12.953125 43.546875 L 10.300781 36.886719 L 10.300781 46.3125 L 5.367188 46.3125 L 5.367188 32.296875 C 5.367188 30.664063 5.675781 29.660156 7.15625 29.21875 C 7.835938 28.96875 8.511719 28.84375 9.253906 28.84375 C 10.917969 28.777344 12.398438 29.722656 13.015625 31.292969 L 17.085938 39.335938 L 20.355469 31.292969 C 20.972656 29.722656 22.453125 28.777344 24.117188 28.84375 C 24.796875 28.84375 25.539063 28.96875 26.214844 29.15625 C 27.695313 29.660156 28.191406 30.789063 28.191406 32.421875 L 28.191406 34.183594 C 28.191406 34.246094 28.128906 34.308594 28.191406 34.308594 L 35.589844 34.308594 L 35.589844 40.59375 C 35.898438 40.96875 36.332031 41.15625 36.824219 41.222656 L 41.144531 41.222656 L 41.144531 34.308594 L 46.695313 34.308594 L 46.695313 45.683594 Z M 46.632813 45.683594 "/>
</g>
</svg>
