<?xml version="1.0" encoding="UTF-8"?>
<svg xmlns="http://www.w3.org/2000/svg" xmlns:xlink="http://www.w3.org/1999/xlink" width="70pt" height="70pt" viewBox="0 0 70 70" version="1.1">
<defs>
<filter id="alpha" filterUnits="objectBoundingBox" x="0%" y="0%" width="100%" height="100%">
  <feColorMatrix type="matrix" in="SourceGraphic" values="0 0 0 0 1 0 0 0 0 1 0 0 0 0 1 0 0 0 1 0"/>
</filter>
<mask id="mask0">
  <g filter="url(#alpha)">
<rect x="0" y="0" width="70" height="70" style="fill:rgb(0%,0%,0%);fill-opacity:0.14902;stroke:none;"/>
  </g>
</mask>
<clipPath id="clip1">
  <rect x="0" y="0" width="70" height="70"/>
</clipPath>
<g id="surface5" clip-path="url(#clip1)">
<path style=" stroke:none;fill-rule:nonzero;fill:rgb(100%,100%,100%);fill-opacity:1;" d="M 34.640625 69.5625 L 35 69.5625 C 49.492188 69.5625 61.238281 65.308594 61.238281 60.058594 L 61.238281 9.503906 L 34.640625 9.503906 Z M 34.640625 69.5625 "/>
</g>
</defs>
<g id="surface1">
<path style=" stroke:none;fill-rule:nonzero;fill:rgb(0%,44.705882%,77.647059%);fill-opacity:1;" d="M 8.761719 9.503906 L 8.761719 60.058594 C 8.761719 65.308594 20.507813 69.5625 35 69.5625 L 35 9.503906 Z M 8.761719 9.503906 "/>
<path style=" stroke:none;fill-rule:nonzero;fill:rgb(0%,44.705882%,77.647059%);fill-opacity:1;" d="M 34.640625 69.5625 L 35 69.5625 C 49.492188 69.5625 61.238281 65.308594 61.238281 60.058594 L 61.238281 9.503906 L 34.640625 9.503906 Z M 34.640625 69.5625 "/>
<use xlink:href="#surface5" mask="url(#mask0)"/>
<path style=" stroke:none;fill-rule:nonzero;fill:rgb(100%,100%,100%);fill-opacity:1;" d="M 61.238281 9.503906 C 61.238281 14.75 49.492188 19.007813 35 19.007813 C 20.507813 19.007813 8.761719 14.75 8.761719 9.503906 C 8.761719 4.253906 20.507813 0 35 0 C 49.492188 0 61.238281 4.253906 61.238281 9.503906 "/>
<path style=" stroke:none;fill-rule:nonzero;fill:rgb(49.803922%,72.941176%,0%);fill-opacity:1;" d="M 55.875 8.957031 C 55.875 12.421875 46.527344 15.226563 35 15.226563 C 23.472656 15.226563 14.125 12.421875 14.125 8.957031 C 14.125 5.492188 23.472656 2.683594 35 2.683594 C 46.527344 2.683594 55.875 5.492188 55.875 8.957031 "/>
<path style=" stroke:none;fill-rule:nonzero;fill:rgb(72.156863%,83.137255%,19.607843%);fill-opacity:1;" d="M 51.5 12.789063 C 54.234375 11.726563 55.875 10.402344 55.875 8.957031 C 55.875 5.492188 46.53125 2.6875 35 2.6875 C 23.472656 2.6875 14.125 5.492188 14.125 8.957031 C 14.125 10.402344 15.765625 11.726563 18.5 12.789063 C 22.316406 11.304688 28.28125 10.351563 35 10.351563 C 41.722656 10.351563 47.683594 11.304688 51.5 12.789063 "/>
<path style=" stroke:none;fill-rule:nonzero;fill:rgb(100%,100%,100%);fill-opacity:1;" d="M 26.664063 44.59375 C 26.664063 46.167969 26.097656 47.382813 24.957031 48.246094 C 23.816406 49.109375 22.242188 49.539063 20.234375 49.539063 C 18.523438 49.539063 17.097656 49.230469 15.949219 48.613281 L 15.949219 44.917969 C 17.273438 46.042969 18.730469 46.605469 20.324219 46.605469 C 21.09375 46.605469 21.691406 46.453125 22.109375 46.144531 C 22.53125 45.835938 22.738281 45.429688 22.738281 44.917969 C 22.738281 44.417969 22.539063 43.984375 22.132813 43.613281 C 21.730469 43.246094 20.90625 42.765625 19.667969 42.183594 C 17.144531 40.996094 15.878906 39.378906 15.878906 37.332031 C 15.878906 35.847656 16.429688 34.65625 17.53125 33.757813 C 18.632813 32.863281 20.09375 32.414063 21.917969 32.414063 C 23.535156 32.414063 24.875 32.625 25.9375 33.046875 L 25.9375 36.5 C 24.824219 35.730469 23.550781 35.347656 22.128906 35.347656 C 21.414063 35.347656 20.847656 35.496094 20.429688 35.800781 C 20.03125 36.074219 19.796875 36.535156 19.808594 37.019531 C 19.808594 37.542969 19.976563 37.972656 20.3125 38.308594 C 20.644531 38.640625 21.332031 39.054688 22.371094 39.546875 C 23.921875 40.28125 25.023438 41.023438 25.679688 41.777344 C 26.335938 42.535156 26.664063 43.472656 26.664063 44.59375 Z M 44.484375 40.855469 C 44.484375 42.800781 44.039063 44.492188 43.15625 45.925781 C 42.269531 47.355469 41.023438 48.359375 39.414063 48.9375 L 44.21875 53.386719 L 39.367188 53.386719 L 35.9375 49.539063 C 34.46875 49.484375 33.140625 49.097656 31.960938 48.371094 C 30.777344 47.652344 29.863281 46.65625 29.222656 45.398438 C 28.578125 44.140625 28.257813 42.738281 28.257813 41.1875 C 28.257813 39.472656 28.605469 37.941406 29.300781 36.597656 C 30 35.253906 30.976563 34.222656 32.242188 33.496094 C 33.503906 32.777344 34.949219 32.414063 36.582031 32.414063 C 38.105469 32.414063 39.472656 32.761719 40.675781 33.464844 C 41.882813 34.164063 42.816406 35.160156 43.484375 36.453125 C 44.152344 37.75 44.484375 39.214844 44.484375 40.855469 Z M 40.558594 41.0625 C 40.558594 39.386719 40.191406 38.058594 39.460938 37.085938 C 38.726563 36.109375 37.730469 35.621094 36.457031 35.621094 C 35.164063 35.621094 34.128906 36.113281 33.351563 37.089844 C 32.574219 38.066406 32.183594 39.367188 32.183594 40.992188 C 32.183594 42.609375 32.566406 43.898438 33.328125 44.867188 C 34.089844 45.832031 35.101563 46.316406 36.363281 46.316406 C 37.648438 46.316406 38.667969 45.847656 39.425781 44.910156 C 40.179688 43.976563 40.558594 42.695313 40.558594 41.0625 Z M 57.082031 49.25 L 47.21875 49.25 L 47.21875 32.691406 L 50.949219 32.691406 L 50.949219 46.226563 L 57.082031 46.226563 Z M 57.082031 49.25 "/>
</g>
</svg>
