<?xml version="1.0" encoding="UTF-8"?>
<svg xmlns="http://www.w3.org/2000/svg" xmlns:xlink="http://www.w3.org/1999/xlink" width="70pt" height="64pt" viewBox="0 0 70 64" version="1.1">
<defs>
<filter id="alpha" filterUnits="objectBoundingBox" x="0%" y="0%" width="100%" height="100%">
  <feColorMatrix type="matrix" in="SourceGraphic" values="0 0 0 0 1 0 0 0 0 1 0 0 0 0 1 0 0 0 1 0"/>
</filter>
<mask id="mask0">
  <g filter="url(#alpha)">
<rect x="0" y="0" width="70" height="64" style="fill:rgb(0%,0%,0%);fill-opacity:0.501961;stroke:none;"/>
  </g>
</mask>
<clipPath id="clip1">
  <rect x="0" y="0" width="70" height="64"/>
</clipPath>
<g id="surface5" clip-path="url(#clip1)">
<path style=" stroke:none;fill-rule:nonzero;fill:rgb(100%,100%,100%);fill-opacity:1;" d="M 32.109375 43.34375 C 32.09375 39.980469 29.359375 37.253906 25.984375 37.238281 L 24.820313 37.238281 C 25.246094 35.691406 25.019531 34.039063 24.191406 32.667969 C 23.367188 31.292969 22.011719 30.316406 20.445313 29.964844 L 12.859375 29.964844 C 11.4375 37.0625 13.496094 44.410156 18.402344 49.746094 L 25.984375 49.746094 C 29.414063 49.589844 32.113281 46.769531 32.109375 43.34375 Z M 39.695313 18.035156 L 39.695313 19.199219 L 37.070313 19.199219 C 33.527344 19.199219 30.652344 22.066406 30.652344 25.601563 C 30.652344 29.132813 33.527344 32 37.070313 32 L 58.359375 32 C 57.78125 24.324219 53.257813 17.5 46.402344 13.964844 L 43.777344 13.964844 C 42.6875 13.9375 41.632813 14.359375 40.859375 15.128906 C 40.089844 15.898438 39.667969 16.949219 39.695313 18.035156 Z M 58.359375 36.363281 L 45.820313 36.363281 C 44.425781 36.359375 43.085938 36.90625 42.101563 37.890625 C 41.117188 38.875 40.5625 40.210938 40.570313 41.601563 C 40.625 42.496094 40.820313 43.382813 41.152344 44.21875 C 38.457031 45.074219 36.914063 47.894531 37.652344 50.617188 C 38.25 52.820313 40.332031 54.285156 42.609375 54.109375 L 46.109375 54.109375 C 52.878906 50.570313 57.460938 43.929688 58.359375 36.363281 Z M 58.359375 36.363281 "/>
</g>
</defs>
<g id="surface1">
<path style=" stroke:none;fill-rule:nonzero;fill:rgb(34.901961%,70.588235%,85.098039%);fill-opacity:1;" d="M 57.777344 28.507813 C 60.128906 37.660156 56.6875 47.320313 49.070313 52.9375 C 41.457031 58.554688 31.1875 59.007813 23.101563 54.085938 C 15.019531 49.164063 10.730469 39.847656 12.261719 30.523438 C 13.792969 21.199219 20.832031 13.730469 30.070313 11.636719 C 42.371094 8.796875 54.6875 16.296875 57.777344 28.507813 Z M 57.777344 28.507813 "/>
<use xlink:href="#surface5" mask="url(#mask0)"/>
<path style=" stroke:none;fill-rule:nonzero;fill:rgb(72.156863%,83.137255%,19.607843%);fill-opacity:1;" d="M 9.359375 18.617188 C 9.046875 18.597656 8.800781 18.347656 8.777344 18.035156 C 8.777344 13.539063 5.121094 9.890625 0.609375 9.890625 C 0.320313 10.183594 0.0273438 9.601563 0.0273438 9.308594 C 0.0507813 8.996094 0.296875 8.75 0.609375 8.726563 C 5.121094 8.726563 8.777344 5.082031 8.777344 0.582031 C 8.777344 0 9.070313 0 9.359375 0 C 9.652344 0 10.234375 0 10.234375 0.582031 C 10.234375 5.082031 13.890625 8.726563 18.402344 8.726563 C 18.726563 8.726563 18.984375 8.988281 18.984375 9.308594 C 18.984375 9.628906 18.726563 9.890625 18.402344 9.890625 C 13.890625 9.890625 10.234375 13.539063 10.234375 18.035156 C 10.234375 18.328125 9.945313 18.617188 9.359375 18.617188 Z M 9.359375 18.617188 "/>
<path style=" stroke:none;fill-rule:nonzero;fill:rgb(34.901961%,70.588235%,85.098039%);fill-opacity:1;" d="M 59.234375 64 C 58.945313 64 58.945313 64 58.945313 63.710938 C 58.839844 61.070313 56.632813 59 53.984375 59.054688 C 53.695313 59.054688 53.695313 59.054688 53.695313 58.761719 C 53.695313 58.472656 53.695313 58.472656 53.984375 58.472656 C 56.59375 58.429688 58.742188 56.414063 58.945313 53.816406 C 58.945313 53.527344 58.945313 53.527344 59.234375 53.527344 C 59.527344 53.527344 59.527344 53.527344 59.527344 53.816406 C 59.632813 56.457031 61.835938 58.527344 64.484375 58.472656 C 64.777344 58.472656 64.777344 58.472656 64.777344 58.761719 C 64.777344 59.054688 64.777344 59.054688 64.484375 59.054688 C 61.878906 59.097656 59.730469 61.113281 59.527344 63.710938 C 59.820313 64 59.527344 64 59.234375 64 Z M 59.234375 64 "/>
<path style=" stroke:none;fill-rule:nonzero;fill:rgb(0%,0%,0%);fill-opacity:1;" d="M 69.152344 13.382813 C 66.820313 9.890625 61.570313 9.019531 53.109375 11.054688 C 50.53125 11.65625 48 12.433594 45.527344 13.382813 C 47.09375 14.179688 48.5625 15.15625 49.902344 16.289063 C 51.359375 16 52.820313 15.417969 53.984375 15.128906 C 56.175781 14.550781 58.429688 14.257813 60.695313 14.253906 C 63.320313 14.253906 64.777344 14.835938 65.359375 15.710938 C 66.234375 17.164063 65.359375 20.65625 60.695313 26.183594 C 59.796875 27.222656 58.820313 28.195313 57.777344 29.089844 C 52.460938 34.183594 46.589844 38.671875 40.277344 42.472656 C 34.101563 46.351563 27.429688 49.386719 20.445313 51.492188 C 11.984375 54.109375 6.152344 54.109375 4.984375 52.074219 C 3.820313 50.035156 6.152344 44.800781 12.570313 38.691406 C 12.230469 36.964844 12.035156 35.214844 11.984375 33.453125 C 2.070313 42.472656 -1.140625 50.328125 1.195313 54.398438 C 3.367188 56.914063 6.632813 58.214844 9.945313 57.890625 C 15.050781 57.695313 20.085938 56.613281 24.820313 54.691406 C 30.929688 52.371094 36.792969 49.449219 42.320313 45.964844 C 47.875 42.511719 53.140625 38.621094 58.070313 34.328125 C 60.058594 32.632813 61.914063 30.785156 63.609375 28.800781 C 69.445313 22.109375 71.195313 16.871094 69.152344 13.382813 Z M 69.152344 13.382813 "/>
</g>
</svg>
