<?xml version="1.0" encoding="UTF-8"?>
<svg xmlns="http://www.w3.org/2000/svg" xmlns:xlink="http://www.w3.org/1999/xlink" width="70pt" height="70pt" viewBox="0 0 70 70" version="1.1">
<defs>
<linearGradient id="linear0" gradientUnits="userSpaceOnUse" x1="4.969" y1="45.222" x2="79.875" y2="45.222" gradientTransform="matrix(0.7,0,0,-0.7,0,71.4)">
<stop offset="0" style="stop-color:rgb(0%,35.686275%,63.137255%);stop-opacity:1;"/>
<stop offset="0.07" style="stop-color:rgb(0%,37.647059%,66.27451%);stop-opacity:1;"/>
<stop offset="0.36" style="stop-color:rgb(0%,44.313725%,78.431373%);stop-opacity:1;"/>
<stop offset="0.52" style="stop-color:rgb(0%,47.058824%,83.137255%);stop-opacity:1;"/>
<stop offset="0.64" style="stop-color:rgb(0%,45.490196%,80.392157%);stop-opacity:1;"/>
<stop offset="0.82" style="stop-color:rgb(0%,41.568627%,73.333333%);stop-opacity:1;"/>
<stop offset="1" style="stop-color:rgb(0%,35.686275%,63.137255%);stop-opacity:1;"/>
</linearGradient>
</defs>
<g id="surface1">
<path style=" stroke:none;fill-rule:nonzero;fill:url(#linear0);" d="M 29.699219 19.210938 C 15.21875 19.210938 3.476563 15.121094 3.476563 9.722656 L 3.476563 60.277344 C 3.476563 65.472656 15.011719 69.6875 29.328125 69.769531 L 29.699219 69.769531 C 44.175781 69.769531 55.914063 65.675781 55.914063 60.277344 L 55.914063 9.722656 C 55.914063 15 44.175781 19.210938 29.699219 19.210938 Z M 29.699219 19.210938 "/>
<path style=" stroke:none;fill-rule:nonzero;fill:rgb(90.980392%,90.980392%,90.980392%);fill-opacity:1;" d="M 55.914063 9.722656 C 55.914063 15 44.175781 19.210938 29.699219 19.210938 C 15.222656 19.210938 3.476563 15.121094 3.476563 9.722656 C 3.476563 4.324219 15.214844 0.230469 29.699219 0.230469 C 44.179688 0.230469 55.914063 4.324219 55.914063 9.722656 Z M 55.914063 9.722656 "/>
<path style=" stroke:none;fill-rule:nonzero;fill:rgb(31.372549%,90.196078%,100%);fill-opacity:1;" d="M 49.820313 8.945313 C 49.820313 12.300781 40.777344 15 29.695313 15 C 18.609375 15 9.570313 12.300781 9.570313 8.945313 C 9.570313 5.589844 18.609375 2.929688 29.695313 2.929688 C 40.777344 2.929688 49.820313 5.632813 49.820313 8.945313 Z M 49.820313 8.945313 "/>
<path style=" stroke:none;fill-rule:nonzero;fill:rgb(9.803922%,54.117647%,70.196078%);fill-opacity:1;" d="M 29.699219 10.328125 C 24.304688 10.265625 18.9375 11.050781 13.789063 12.65625 C 17.28125 13.945313 24.40625 15.210938 29.796875 15.019531 C 35.203125 15.164063 40.589844 14.347656 45.710938 12.605469 C 40.519531 11.039063 35.121094 10.273438 29.699219 10.328125 Z M 29.699219 10.328125 "/>
<path style=" stroke:none;fill-rule:nonzero;fill:rgb(100%,100%,100%);fill-opacity:1;" d="M 51.023438 67.351563 C 58.613281 67.351563 64.765625 61.199219 64.765625 53.609375 C 64.765625 46.015625 58.613281 39.863281 51.023438 39.863281 C 43.433594 39.863281 37.277344 46.015625 37.277344 53.609375 C 37.277344 61.199219 43.433594 67.351563 51.023438 67.351563 Z M 51.023438 67.351563 "/>
<path style=" stroke:none;fill-rule:nonzero;fill:rgb(0%,18.823529%,40.392157%);fill-opacity:1;" d="M 50.695313 41.949219 C 56.6875 41.945313 61.707031 46.492188 62.300781 52.457031 C 62.890625 58.421875 58.859375 63.859375 52.980469 65.035156 C 47.101563 66.207031 41.292969 62.730469 39.550781 56.996094 C 37.804688 51.261719 40.695313 45.136719 46.234375 42.839844 C 47.648438 42.253906 49.164063 41.949219 50.695313 41.949219 Z M 50.695313 37.777344 C 43.132813 37.765625 36.617188 43.101563 35.132813 50.519531 C 33.648438 57.933594 37.613281 65.363281 44.597656 68.261719 C 51.582031 71.160156 59.644531 68.722656 63.847656 62.433594 C 68.050781 56.148438 67.226563 47.769531 61.878906 42.421875 C 58.914063 39.449219 54.890625 37.78125 50.695313 37.777344 Z M 50.695313 37.777344 "/>
<path style=" stroke:none;fill-rule:nonzero;fill:rgb(46.27451%,73.72549%,17.647059%);fill-opacity:1;" d="M 43.367188 57.289063 C 43.375 58.324219 44.210938 59.15625 45.246094 59.160156 L 45.257813 59.160156 L 51.550781 59.105469 L 51.550781 55.148438 L 47.492188 55.148438 L 47.492188 47.859375 L 45.179688 47.871094 C 44.417969 47.875 43.734375 48.339844 43.449219 49.046875 C 43.355469 49.273438 43.308594 49.519531 43.308594 49.765625 L 43.328125 52.546875 L 40.832031 52.546875 L 40.832031 54.410156 L 43.34375 54.410156 Z M 43.367188 57.289063 "/>
<path style=" stroke:none;fill-rule:nonzero;fill:rgb(46.27451%,73.72549%,17.647059%);fill-opacity:1;" d="M 58.460938 49.667969 C 58.453125 48.636719 57.613281 47.800781 56.582031 47.800781 L 56.570313 47.800781 L 50.398438 47.851563 L 50.398438 52.242188 L 54.460938 52.242188 L 54.460938 59.101563 L 56.644531 59.085938 C 57.144531 59.085938 57.621094 58.882813 57.96875 58.53125 C 58.320313 58.175781 58.515625 57.695313 58.511719 57.199219 L 58.492188 54.414063 L 60.992188 54.414063 L 60.992188 52.546875 L 58.480469 52.546875 Z M 58.460938 49.667969 "/>
</g>
</svg>
