<?xml version="1.0" encoding="utf-8"?><svg version="1.1" xmlns="http://www.w3.org/2000/svg" xmlns:xlink="http://www.w3.org/1999/xlink" xmlns:xml="http://www.w3.org/XML/1998/namespace" width="70" height="70" viewBox="0, 0, 18, 18" id="a876d441-6985-4b03-ac91-0cfb754233ca"><defs><linearGradient x1="5.35" y1="7.02" x2="5.35" y2="17.19" gradientUnits="userSpaceOnUse" id="ac8ec029-dede-4106-852c-6daca45a4fea"><stop offset="0%" stop-color="#B3B2B3" /><stop offset="38%" stop-color="#AFAEAF" /><stop offset="76%" stop-color="#A2A2A2" /><stop offset="100%" stop-color="#979797" /></linearGradient><linearGradient x1="11.33" y1="15.74" x2="11.33" y2="6.99" gradientUnits="userSpaceOnUse" id="b524cf9e-cab2-4314-a18d-cd0ba7515d77"><stop offset="0%" stop-color="#0078D4" /><stop offset="16%" stop-color="#1380DA" /><stop offset="53%" stop-color="#3C91E5" /><stop offset="82%" stop-color="#559CEC" /><stop offset="100%" stop-color="#5EA0EF" /></linearGradient></defs><title>Icon-databases-127</title><g><path d="M7.77 10.68 a0.39 0.39 0 0 1 -0.42 0.34 H0.92 a0.39 0.39 0 0 1 -0.42 -0.34 V1.2 A0.39 0.39 0 0 1 0.92 0.86 H7.35 a0.39 0.39 0 0 1 0.42 0.34 Z" style="fill:#949494;" /><path d="M1.57 5.2 a0.79 0.79 0 0 1 0.79 -0.79 H6 a0.79 0.79 0 0 1 0.79 0.79 h0 A0.79 0.79 0 0 1 6 6 H2.36 a0.79 0.79 0 0 1 -0.79 -0.79 Z" style="fill:#003067;" /><path d="M1.57 2.86 a0.79 0.79 0 0 1 0.79 -0.8 H6 a0.79 0.79 0 0 1 0.79 0.8 h0 A0.79 0.79 0 0 1 6 3.65 H2.36 a0.79 0.79 0 0 1 -0.79 -0.79 Z" style="fill:#003067;" /><circle cx="2.39" cy="2.86" r="0.53" style="fill:#50E6FF;" /><circle cx="2.39" cy="5.2" r="0.53" style="fill:#50E6FF;" /><path d="M15.79 10.63 a0.39 0.39 0 0 1 -0.42 0.35 H8.94 a0.39 0.39 0 0 1 -0.42 -0.35 V1.16 A0.39 0.39 0 0 1 8.94 0.81 h6.43 a0.39 0.39 0 0 1 0.42 0.35 Z" style="fill:#949494;" /><path d="M9.59 5.16 a0.79 0.79 0 0 1 0.79 -0.79 H14 a0.79 0.79 0 0 1 0.79 0.79 h0 A0.79 0.79 0 0 1 14 6 H10.38 a0.79 0.79 0 0 1 -0.79 -0.79 Z" style="fill:#003067;" /><path d="M9.59 2.81 A0.79 0.79 0 0 1 10.38 2 H14 a0.8 0.8 0 0 1 0.79 0.79 h0 A0.79 0.79 0 0 1 14 3.6 H10.38 a0.79 0.79 0 0 1 -0.79 -0.79 Z" style="fill:#003067;" /><circle cx="10.41" cy="2.81" r="0.53" style="fill:#50E6FF;" /><circle cx="10.41" cy="5.16" r="0.53" style="fill:#50E6FF;" /><path d="M9 16.84 a0.39 0.39 0 0 1 -0.42 0.35 H2.14 a0.39 0.39 0 0 1 -0.42 -0.35 V7.37 A0.39 0.39 0 0 1 2.14 7 H8.57 A0.39 0.39 0 0 1 9 7.37 Z" style="fill:url(#ac8ec029-dede-4106-852c-6daca45a4fea);" /><path d="M2.79 11.37 a0.79 0.79 0 0 1 0.79 -0.79 H7.2 a0.79 0.79 0 0 1 0.79 0.79 H8 a0.8 0.8 0 0 1 -0.79 0.79 H3.58 a0.79 0.79 0 0 1 -0.79 -0.79 Z" style="fill:#003067;" /><path d="M2.79 9 a0.79 0.79 0 0 1 0.79 -0.79 H7.2 A0.79 0.79 0 0 1 8 9 H8 a0.8 0.8 0 0 1 -0.79 0.79 H3.58 A0.79 0.79 0 0 1 2.79 9 Z" style="fill:#003067;" /><circle cx="3.61" cy="9.02" r="0.53" style="fill:#50E6FF;" /><circle cx="3.61" cy="11.37" r="0.53" style="fill:#50E6FF;" /><path d="M17.5 13 a2.77 2.77 0 0 0 -2.41 -2.66 A3.49 3.49 0 0 0 11.5 7 A3.58 3.58 0 0 0 8.07 9.33 a3.31 3.31 0 0 0 -2.91 3.18 a3.37 3.37 0 0 0 3.48 3.23 h5.93 a0.4 0.4 0 0 0 0.15 0 A2.8 2.8 0 0 0 17.5 13 Z" style="fill:url(#b524cf9e-cab2-4314-a18d-cd0ba7515d77);" /></g></svg>