<?xml version="1.0" encoding="UTF-8"?>
<svg xmlns="http://www.w3.org/2000/svg" xmlns:xlink="http://www.w3.org/1999/xlink" width="70pt" height="48pt" viewBox="0 0 70 48" version="1.1">
<defs>
<filter id="alpha" filterUnits="objectBoundingBox" x="0%" y="0%" width="100%" height="100%">
  <feColorMatrix type="matrix" in="SourceGraphic" values="0 0 0 0 1 0 0 0 0 1 0 0 0 0 1 0 0 0 1 0"/>
</filter>
<mask id="mask0">
  <g filter="url(#alpha)">
<rect x="0" y="0" width="70" height="48" style="fill:rgb(0%,0%,0%);fill-opacity:0.301961;stroke:none;"/>
  </g>
</mask>
<clipPath id="clip1">
  <rect x="0" y="0" width="70" height="48"/>
</clipPath>
<g id="surface5" clip-path="url(#clip1)">
<path style=" stroke:none;fill-rule:nonzero;fill:rgb(100%,100%,100%);fill-opacity:1;" d="M 0.0429688 14.132813 L 0.0429688 42.621094 C 0.0429688 45.585938 6.714844 47.984375 14.941406 47.984375 L 14.941406 14.132813 Z M 0.0429688 14.132813 "/>
</g>
</defs>
<g id="surface1">
<path style=" stroke:none;fill-rule:nonzero;fill:rgb(86.666667%,86.666667%,86.666667%);fill-opacity:1;" d="M 18.222656 44.753906 L 61.386719 44.753906 C 61.386719 44.753906 69.015625 44.652344 69.804688 39.824219 C 70.804688 33.703125 65.402344 33.171875 65.402344 33.171875 C 65.402344 33.171875 71.328125 26.105469 66.804688 18.753906 C 61.34375 9.882813 51.96875 14.769531 51.96875 14.769531 C 51.96875 14.769531 49.984375 -3.777344 28.386719 0.695313 C 10.550781 4.398438 13.65625 23.792969 13.65625 23.792969 C 13.65625 23.792969 3.195313 21.171875 2.222656 32.414063 C 1.269531 43.644531 18.222656 44.753906 18.222656 44.753906 Z M 18.222656 44.753906 "/>
<path style=" stroke:none;fill-rule:nonzero;fill:rgb(92.941176%,70.980392%,11.372549%);fill-opacity:1;" d="M 14.925781 14.089844 L 0 14.089844 L 0 42.636719 C 0 45.570313 6.566406 47.96875 14.777344 48 L 14.777344 48.03125 L 14.804688 48.03125 C 14.835938 48.03125 14.925781 48 14.925781 48 L 14.925781 48.03125 L 14.957031 48.03125 C 23.179688 48.03125 29.851563 45.601563 29.851563 42.652344 L 29.851563 14.089844 Z M 14.925781 14.089844 "/>
<path style=" stroke:none;fill-rule:nonzero;fill:rgb(92.941176%,70.980392%,11.372549%);fill-opacity:1;" d="M 41.640625 20.042969 L 53.042969 28.816406 L 41.640625 37.910156 L 41.640625 32.015625 L 22.238281 32.015625 L 22.238281 25.644531 L 41.640625 25.644531 Z M 41.640625 20.042969 "/>
<use xlink:href="#surface5" mask="url(#mask0)"/>
<path style=" stroke:none;fill-rule:nonzero;fill:rgb(100%,100%,100%);fill-opacity:1;" d="M 29.851563 14.132813 C 29.851563 17.097656 23.179688 19.496094 14.957031 19.496094 C 6.730469 19.496094 0.0585938 17.097656 0.0585938 14.132813 C 0.0585938 11.171875 6.730469 8.769531 14.957031 8.769531 C 23.179688 8.785156 29.851563 11.183594 29.851563 14.132813 "/>
<path style=" stroke:none;fill-rule:nonzero;fill:rgb(49.803922%,72.941176%,0%);fill-opacity:1;" d="M 26.804688 13.824219 C 26.804688 15.777344 21.492188 17.363281 14.957031 17.363281 C 8.402344 17.363281 3.105469 15.777344 3.105469 13.824219 C 3.105469 11.867188 8.417969 10.28125 14.957031 10.28125 C 21.492188 10.296875 26.804688 11.882813 26.804688 13.824219 "/>
<path style=" stroke:none;fill-rule:nonzero;fill:rgb(72.156863%,83.137255%,19.607843%);fill-opacity:1;" d="M 24.328125 15.984375 C 25.878906 15.394531 26.804688 14.636719 26.804688 13.824219 C 26.804688 11.867188 21.492188 10.28125 14.957031 10.28125 C 8.402344 10.28125 3.105469 11.867188 3.105469 13.824219 C 3.105469 14.636719 4.03125 15.378906 5.597656 15.984375 C 7.761719 15.15625 11.148438 14.609375 14.96875 14.609375 C 18.761719 14.609375 22.148438 15.15625 24.328125 15.984375 "/>
</g>
</svg>
