<?xml version="1.0" encoding="UTF-8"?>
<svg xmlns="http://www.w3.org/2000/svg" xmlns:xlink="http://www.w3.org/1999/xlink" width="70pt" height="70pt" viewBox="0 0 70 70" version="1.1">
<defs>
<linearGradient id="linear0" gradientUnits="userSpaceOnUse" x1="9" y1="11.84" x2="9" y2="0" gradientTransform="matrix(3.888889,0,0,3.888889,0,0)">
<stop offset="0" style="stop-color:rgb(0%,47.058824%,83.137255%);stop-opacity:1;"/>
<stop offset="0.16" style="stop-color:rgb(7.45098%,50.196078%,85.490196%);stop-opacity:1;"/>
<stop offset="0.53" style="stop-color:rgb(23.529412%,56.862745%,89.803922%);stop-opacity:1;"/>
<stop offset="0.82" style="stop-color:rgb(33.333333%,61.176471%,92.54902%);stop-opacity:1;"/>
<stop offset="1" style="stop-color:rgb(36.862745%,62.745098%,93.72549%);stop-opacity:1;"/>
</linearGradient>
<linearGradient id="linear1" gradientUnits="userSpaceOnUse" x1="4.62" y1="13.54" x2="13.47" y2="13.54" gradientTransform="matrix(3.888889,0,0,3.888889,0,0)">
<stop offset="0" style="stop-color:rgb(19.607843%,74.509804%,86.666667%);stop-opacity:1;"/>
<stop offset="0.06" style="stop-color:rgb(21.568627%,77.254902%,89.019608%);stop-opacity:1;"/>
<stop offset="0.3" style="stop-color:rgb(28.627451%,86.666667%,96.862745%);stop-opacity:1;"/>
<stop offset="0.45" style="stop-color:rgb(31.372549%,90.196078%,100%);stop-opacity:1;"/>
<stop offset="0.55" style="stop-color:rgb(31.372549%,90.196078%,100%);stop-opacity:1;"/>
<stop offset="0.7" style="stop-color:rgb(28.627451%,86.666667%,96.862745%);stop-opacity:1;"/>
<stop offset="0.94" style="stop-color:rgb(21.568627%,77.254902%,89.019608%);stop-opacity:1;"/>
<stop offset="1" style="stop-color:rgb(19.607843%,74.509804%,86.666667%);stop-opacity:1;"/>
</linearGradient>
</defs>
<g id="surface1">
<path style=" stroke:none;fill-rule:nonzero;fill:url(#linear0);" d="M 67.472656 31.617188 C 67.265625 24.480469 61.910156 18.550781 54.832031 17.617188 C 54.390625 7.542969 45.933594 -0.308594 35.855469 0 C 27.847656 -0.132813 20.621094 4.789063 17.8125 12.289063 C 9.277344 13.339844 2.789063 20.457031 2.527344 29.050781 C 2.886719 38.789063 11.066406 46.394531 20.804688 46.042969 L 51.917969 46.042969 C 52.175781 46.066406 52.4375 46.066406 52.695313 46.042969 C 60.710938 46.027344 67.261719 39.632813 67.472656 31.617188 Z M 67.472656 31.617188 "/>
<path style=" stroke:none;fill-rule:nonzero;fill:url(#linear1);" d="M 35.195313 40.792969 C 25.667969 40.792969 17.964844 38.34375 17.964844 35.3125 L 17.964844 64.515625 C 17.964844 67.511719 25.746094 69.960938 34.960938 70 L 35.195313 70 C 44.683594 70 52.382813 67.550781 52.382813 64.515625 L 52.382813 35.3125 C 52.382813 38.34375 44.683594 40.792969 35.195313 40.792969 Z M 35.195313 40.792969 "/>
<path style=" stroke:none;fill-rule:nonzero;fill:rgb(90.980392%,90.980392%,90.980392%);fill-opacity:1;" d="M 52.382813 35.3125 C 52.382813 38.34375 44.605469 40.792969 35.195313 40.792969 C 25.785156 40.792969 17.964844 38.34375 17.964844 35.3125 C 17.964844 32.277344 25.746094 29.828125 35.195313 29.828125 C 44.644531 29.828125 52.382813 32.277344 52.382813 35.3125 "/>
<path style=" stroke:none;fill-rule:nonzero;fill:rgb(31.372549%,90.196078%,100%);fill-opacity:1;" d="M 48.378906 35 C 48.378906 36.90625 42.464844 38.5 35.195313 38.5 C 27.921875 38.5 21.972656 36.90625 21.972656 35 C 21.972656 33.09375 27.882813 31.5 35.195313 31.5 C 42.503906 31.5 48.378906 33.054688 48.378906 35 "/>
<path style=" stroke:none;fill-rule:nonzero;fill:rgb(19.607843%,74.509804%,86.666667%);fill-opacity:1;" d="M 35.195313 35.699219 C 31.660156 35.617188 28.136719 36.0625 24.734375 37.023438 C 28.132813 38 31.660156 38.460938 35.195313 38.382813 C 38.730469 38.457031 42.257813 37.996094 45.65625 37.023438 C 42.253906 36.070313 38.726563 35.625 35.195313 35.699219 Z M 35.195313 35.699219 "/>
<path style=" stroke:none;fill-rule:nonzero;fill:rgb(94.901961%,94.901961%,94.901961%);fill-opacity:1;" d="M 24.460938 19.445313 L 34.535156 9.253906 C 34.753906 9.03125 35.054688 8.902344 35.371094 8.902344 C 35.683594 8.902344 35.984375 9.03125 36.207031 9.253906 L 46.277344 19.445313 C 46.457031 19.585938 46.515625 19.832031 46.425781 20.039063 C 46.332031 20.25 46.113281 20.371094 45.890625 20.339844 L 39.707031 20.339844 C 39.40625 20.339844 39.160156 20.582031 39.160156 20.882813 L 39.160156 33.367188 C 39.171875 33.484375 39.132813 33.601563 39.050781 33.683594 C 38.964844 33.765625 38.851563 33.808594 38.734375 33.792969 L 31.964844 33.792969 C 31.730469 33.792969 31.539063 33.601563 31.539063 33.367188 L 31.539063 20.765625 C 31.5625 20.5 31.375 20.261719 31.109375 20.222656 L 24.8125 20.222656 C 24.640625 20.199219 24.492188 20.085938 24.421875 19.929688 C 24.351563 19.773438 24.367188 19.589844 24.460938 19.445313 Z M 24.460938 19.445313 "/>
</g>
</svg>
