<?xml version="1.0" encoding="UTF-8"?>
<svg xmlns="http://www.w3.org/2000/svg" xmlns:xlink="http://www.w3.org/1999/xlink" width="70pt" height="70pt" viewBox="0 0 70 70" version="1.1">
<defs>
<linearGradient id="linear0" gradientUnits="userSpaceOnUse" x1="5.41" y1="17.33" x2="5.41" y2="0.61" gradientTransform="matrix(3.888889,0,0,3.888889,0,0)">
<stop offset="0" style="stop-color:rgb(58.039216%,58.039216%,58.039216%);stop-opacity:1;"/>
<stop offset="0.53" style="stop-color:rgb(63.529412%,63.529412%,63.529412%);stop-opacity:1;"/>
<stop offset="1" style="stop-color:rgb(70.196078%,70.196078%,70.196078%);stop-opacity:1;"/>
</linearGradient>
<linearGradient id="linear1" gradientUnits="userSpaceOnUse" x1="10.04" y1="17.39" x2="10.04" y2="6.82" gradientTransform="matrix(3.888889,0,0,3.888889,0,0)">
<stop offset="0" style="stop-color:rgb(0%,47.058824%,83.137255%);stop-opacity:1;"/>
<stop offset="0.16" style="stop-color:rgb(7.45098%,50.196078%,85.490196%);stop-opacity:1;"/>
<stop offset="0.53" style="stop-color:rgb(23.529412%,56.862745%,89.803922%);stop-opacity:1;"/>
<stop offset="0.82" style="stop-color:rgb(33.333333%,61.176471%,92.54902%);stop-opacity:1;"/>
<stop offset="1" style="stop-color:rgb(36.862745%,62.745098%,93.72549%);stop-opacity:1;"/>
</linearGradient>
</defs>
<g id="surface1">
<path style=" stroke:none;fill-rule:nonzero;fill:url(#linear0);" d="M 40.132813 65.179688 C 40.113281 66.394531 39.132813 67.375 37.917969 67.394531 L 4.160156 67.394531 C 2.9375 67.394531 1.945313 66.402344 1.945313 65.179688 L 1.945313 4.589844 C 1.933594 3.996094 2.164063 3.429688 2.582031 3.007813 C 3 2.589844 3.570313 2.363281 4.160156 2.371094 L 37.917969 2.371094 C 39.140625 2.371094 40.132813 3.363281 40.132813 4.589844 Z M 40.132813 65.179688 "/>
<path style=" stroke:none;fill-rule:nonzero;fill:rgb(0%,18.823529%,40.392157%);fill-opacity:1;" d="M 7.542969 25.160156 C 7.566406 22.894531 9.398438 21.058594 11.667969 21.039063 L 30.722656 21.039063 C 31.839844 21.007813 32.921875 21.425781 33.726563 22.203125 C 34.53125 22.976563 34.988281 24.042969 35 25.160156 C 35 26.285156 34.546875 27.363281 33.742188 28.144531 C 32.933594 28.929688 31.847656 29.355469 30.722656 29.320313 L 11.667969 29.320313 C 9.382813 29.300781 7.542969 27.445313 7.542969 25.160156 Z M 7.542969 25.160156 "/>
<path style=" stroke:none;fill-rule:nonzero;fill:rgb(0%,18.823529%,40.392157%);fill-opacity:1;" d="M 7.542969 12.871094 C 7.542969 10.589844 9.382813 8.734375 11.667969 8.710938 L 30.722656 8.710938 C 31.847656 8.679688 32.933594 9.105469 33.742188 9.886719 C 34.546875 10.671875 35 11.75 35 12.871094 C 34.988281 13.988281 34.53125 15.054688 33.726563 15.832031 C 32.921875 16.605469 31.839844 17.027344 30.722656 16.996094 L 11.667969 16.996094 C 9.398438 16.972656 7.566406 15.140625 7.542969 12.871094 Z M 7.542969 12.871094 "/>
<path style=" stroke:none;fill-rule:nonzero;fill:rgb(31.372549%,90.196078%,100%);fill-opacity:1;" d="M 14.699219 12.871094 C 14.699219 14.417969 13.445313 15.671875 11.898438 15.671875 C 10.355469 15.671875 9.101563 14.417969 9.101563 12.871094 C 9.101563 11.324219 10.355469 10.070313 11.898438 10.070313 C 13.445313 10.070313 14.699219 11.324219 14.699219 12.871094 Z M 14.699219 12.871094 "/>
<path style=" stroke:none;fill-rule:nonzero;fill:rgb(31.372549%,90.196078%,100%);fill-opacity:1;" d="M 14.699219 25.160156 C 14.699219 26.707031 13.445313 27.960938 11.898438 27.960938 C 10.355469 27.960938 9.101563 26.707031 9.101563 25.160156 C 9.101563 23.613281 10.355469 22.359375 11.898438 22.359375 C 13.445313 22.359375 14.699219 23.613281 14.699219 25.160156 Z M 14.699219 25.160156 "/>
<path style=" stroke:none;fill-rule:nonzero;fill:url(#linear1);" d="M 68.054688 54.753906 C 67.847656 48.378906 63.0625 43.085938 56.738281 42.234375 C 56.277344 33.304688 48.757813 26.390625 39.820313 26.679688 C 32.707031 26.507813 26.257813 30.839844 23.722656 37.488281 C 16.085938 38.410156 10.265625 44.773438 10.035156 52.460938 C 10.371094 61.152344 17.675781 67.933594 26.367188 67.628906 L 55.105469 67.628906 C 62.175781 67.503906 67.890625 61.824219 68.054688 54.753906 Z M 68.054688 54.753906 "/>
<path style=" stroke:none;fill-rule:nonzero;fill:rgb(94.901961%,94.901961%,94.901961%);fill-opacity:1;" d="M 52.929688 56.195313 L 52.929688 43.128906 L 49.3125 43.128906 L 49.3125 59.148438 L 58.839844 59.148438 L 58.839844 56.195313 Z M 25.316406 49.777344 C 24.605469 49.464844 23.9375 49.0625 23.332031 48.570313 C 23.015625 48.238281 22.847656 47.789063 22.867188 47.328125 C 22.84375 46.863281 23.0625 46.421875 23.449219 46.160156 C 23.925781 45.824219 24.5 45.660156 25.082031 45.695313 C 26.46875 45.644531 27.832031 46.039063 28.972656 46.820313 L 28.972656 43.476563 C 27.71875 43.054688 26.402344 42.859375 25.082031 42.894531 C 23.5625 42.820313 22.066406 43.273438 20.84375 44.179688 C 19.800781 45.019531 19.210938 46.300781 19.25 47.640625 C 19.378906 49.804688 20.835938 51.660156 22.90625 52.304688 C 23.757813 52.65625 24.558594 53.128906 25.277344 53.707031 C 25.644531 54.015625 25.859375 54.46875 25.859375 54.949219 C 25.886719 55.414063 25.664063 55.859375 25.277344 56.117188 C 24.757813 56.453125 24.144531 56.617188 23.527344 56.582031 C 21.976563 56.570313 20.480469 55.992188 19.328125 54.949219 L 19.328125 58.527344 C 20.574219 59.140625 21.945313 59.445313 23.332031 59.421875 C 24.902344 59.542969 26.46875 59.160156 27.804688 58.332031 C 28.917969 57.503906 29.542969 56.179688 29.476563 54.792969 C 29.515625 53.796875 29.167969 52.820313 28.503906 52.070313 C 27.621094 51.085938 26.53125 50.304688 25.316406 49.777344 Z M 45.382813 55.921875 C 46.261719 54.441406 46.703125 52.742188 46.667969 51.023438 C 46.71875 49.511719 46.382813 48.011719 45.695313 46.667969 C 45.097656 45.464844 44.167969 44.464844 43.011719 43.789063 C 41.761719 43.0625 40.332031 42.714844 38.890625 42.777344 C 37.519531 42.839844 36.1875 43.226563 35 43.90625 C 33.785156 44.609375 32.796875 45.648438 32.160156 46.898438 C 31.46875 48.273438 31.109375 49.792969 31.109375 51.332031 C 31.089844 52.75 31.410156 54.152344 32.042969 55.417969 C 32.648438 56.597656 33.5625 57.59375 34.6875 58.292969 C 35.863281 59.007813 37.203125 59.394531 38.578125 59.421875 L 41.882813 63.3125 L 46.550781 63.3125 L 41.921875 59.035156 C 43.394531 58.417969 44.613281 57.320313 45.382813 55.921875 Z M 41.765625 54.949219 C 41.058594 55.851563 39.957031 56.359375 38.8125 56.3125 C 37.671875 56.34375 36.582031 55.820313 35.894531 54.910156 C 35.078125 53.785156 34.695313 52.40625 34.804688 51.023438 C 34.691406 49.632813 35.09375 48.246094 35.933594 47.132813 C 36.636719 46.191406 37.753906 45.652344 38.929688 45.695313 C 40.070313 45.652344 41.15625 46.195313 41.804688 47.132813 C 42.609375 48.265625 42.992188 49.640625 42.894531 51.023438 C 43.015625 52.425781 42.613281 53.824219 41.765625 54.949219 Z M 41.765625 54.949219 "/>
</g>
</svg>
