<?xml version="1.0" encoding="utf-8"?><svg version="1.1" xmlns="http://www.w3.org/2000/svg" xmlns:xlink="http://www.w3.org/1999/xlink" xmlns:xml="http://www.w3.org/XML/1998/namespace" width="70" height="70" viewBox="0, 0, 100, 100" id="af189b19-13e4-4905-af1b-f05e22230012"><defs><linearGradient x1="4.969" y1="45.222" x2="79.875" y2="45.222" gradientUnits="userSpaceOnUse" gradientTransform="matrix(1, 0, 0, -1, 0, 102)" id="e3344512-11a0-4dfd-b3f7-44857e080202"><stop offset="0%" stop-color="#005BA1" /><stop offset="7%" stop-color="#0060A9" /><stop offset="36%" stop-color="#0071C8" /><stop offset="52%" stop-color="#0078D4" /><stop offset="64%" stop-color="#0074CD" /><stop offset="82%" stop-color="#006ABB" /><stop offset="100%" stop-color="#005BA1" /></linearGradient></defs><g><path d="M42.425 27.445 c-20.686 0 -37.456 -5.843 -37.456 -13.557 V86.112 c0 7.421 16.478 13.439 36.93 13.556 h0.526 c20.681 0 37.45 -5.843 37.45 -13.556 V13.888 C79.875 21.426 63.106 27.445 42.425 27.445 Z" style="fill:url(#e3344512-11a0-4dfd-b3f7-44857e080202);" /><path d="M79.875 13.888 c0 7.538 -16.769 13.557 -37.45 13.557 S4.965 21.6 4.965 13.888 S21.735 0.332 42.425 0.332 S79.875 6.175 79.875 13.888 Z" style="fill:#E8E8E8;" /><path d="M71.17 12.777 c0 4.793 -12.914 8.649 -28.749 8.649 S13.672 17.57 13.672 12.777 S26.586 4.188 42.421 4.188 S71.17 8.045 71.17 12.777 Z" style="fill:#50E6FF;" /><path d="M42.425 14.752 A73.46 73.46 0 0 0 19.7 18.083 c4.985 1.839 15.164 3.645 22.866 3.376 A65.267 65.267 0 0 0 65.3 18.008 A76.58 76.58 0 0 0 42.425 14.752 Z" style="fill:#198AB3;" /><path d="M72.89 96.218 A19.635 19.635 0 1 0 53.255 76.583 A19.635 19.635 0 0 0 72.89 96.218 Z" style="fill:white;" /><path d="M72.421 59.928 A16.65 16.65 0 1 1 66.047 61.2 A16.656 16.656 0 0 1 72.421 59.928 Z m0 -5.96 A22.64 22.64 0 1 0 88.4 60.6 A22.609 22.609 0 0 0 72.421 53.968 Z" style="fill:#003067;" /><path d="M61.953 81.844 a2.689 2.689 0 0 0 2.682 2.669 h0.018 l8.991 -0.078 V78.782 h-5.8 V68.369 l-3.3 0.02 a2.681 2.681 0 0 0 -2.473 1.676 a2.7 2.7 0 0 0 -0.2 1.031 l0.027 3.97 H58.334 v2.662 h3.583 Z" style="fill:#76BC2D;" /><path d="M83.513 70.954 a2.689 2.689 0 0 0 -2.682 -2.669 h-0.018 L72 68.359 v6.272 h5.8 v9.8 l3.121 -0.02 a2.683 2.683 0 0 0 2.669 -2.7 l-0.027 -3.974 h3.571 V75.066 H83.546 Z" style="fill:#76BC2D;" /></g>​
</svg>