<?xml version="1.0" encoding="UTF-8"?>
<svg xmlns="http://www.w3.org/2000/svg" xmlns:xlink="http://www.w3.org/1999/xlink" width="70pt" height="70pt" viewBox="0 0 70 70" version="1.1">
<defs>
<linearGradient id="linear0" gradientUnits="userSpaceOnUse" x1="9.908" y1="15.943" x2="7.516" y2="2.383" gradientTransform="matrix(3.888889,0,0,3.888889,0,0)">
<stop offset="0.15" style="stop-color:rgb(0,108,188);stop-opacity:1;"/>
<stop offset="0.8" style="stop-color:rgb(41,164,255);stop-opacity:1;"/>
<stop offset="1" style="stop-color:rgb(95,187,255);stop-opacity:1;"/>
</linearGradient>
</defs>
<g id="surface1">
<path style=" stroke:none;fill-rule:nonzero;fill:url(#linear0);" d="M 56.351563 27.804688 C 56.007813 16.839844 46.902344 8.191406 35.933594 8.414063 C 27.195313 8.3125 19.351563 13.757813 16.394531 21.984375 C 7.117188 23.238281 0.148438 31.082031 0 40.445313 C 0.28125 51.054688 9.097656 59.429688 19.707031 59.164063 L 53.746094 59.164063 C 62.492188 58.945313 69.585938 52.011719 70 43.273438 C 69.839844 35.472656 64.066406 28.933594 56.351563 27.804688 Z M 56.351563 27.804688 "/>
<path style=" stroke:none;fill-rule:nonzero;fill:rgb(229,243,255);fill-opacity:1;" d="M 50.167969 44.332031 L 50.167969 31.109375 L 46.667969 31.109375 L 46.667969 47.171875 L 56.234375 47.171875 L 56.234375 44.332031 Z M 22.398438 37.839844 C 21.675781 37.546875 21.007813 37.140625 20.417969 36.632813 C 20.101563 36.296875 19.933594 35.847656 19.949219 35.390625 C 19.925781 34.925781 20.148438 34.484375 20.535156 34.222656 C 21.011719 33.890625 21.585938 33.726563 22.167969 33.753906 C 23.550781 33.691406 24.917969 34.089844 26.054688 34.882813 L 26.054688 31.539063 C 24.8125 31.078125 23.492188 30.863281 22.167969 30.917969 C 20.640625 30.835938 19.136719 31.304688 17.929688 32.238281 C 16.859375 33.0625 16.25 34.351563 16.292969 35.699219 C 16.292969 37.683594 17.539063 39.238281 20.183594 40.40625 C 21.042969 40.769531 21.851563 41.242188 22.59375 41.804688 C 22.960938 42.113281 23.175781 42.570313 23.179688 43.050781 C 23.175781 43.527344 22.945313 43.976563 22.554688 44.253906 C 22.027344 44.566406 21.417969 44.714844 20.804688 44.683594 C 19.242188 44.671875 17.734375 44.089844 16.566406 43.050781 L 16.566406 46.667969 C 17.851563 47.328125 19.285156 47.648438 20.726563 47.601563 C 22.359375 47.699219 23.972656 47.246094 25.316406 46.316406 C 26.277344 45.40625 26.753906 44.09375 26.601563 42.777344 C 26.621094 41.78125 26.273438 40.8125 25.628906 40.054688 C 24.71875 39.097656 23.621094 38.34375 22.398438 37.839844 Z M 42.777344 44.023438 C 44.5 41.261719 44.5 37.761719 42.777344 35 C 42.171875 33.785156 41.226563 32.773438 40.054688 32.082031 C 38.871094 31.410156 37.527344 31.0625 36.167969 31.070313 C 34.699219 31.039063 33.246094 31.402344 31.964844 32.121094 C 30.765625 32.792969 29.78125 33.789063 29.128906 35 C 28.441406 36.375 28.09375 37.894531 28.117188 39.433594 C 28.125 40.785156 28.445313 42.113281 29.050781 43.320313 C 29.644531 44.523438 30.578125 45.523438 31.734375 46.199219 C 32.90625 46.917969 34.246094 47.320313 35.621094 47.367188 L 38.964844 51.253906 L 43.671875 51.253906 L 38.890625 46.976563 C 40.5 46.496094 41.882813 45.445313 42.777344 44.023438 Z M 38.890625 43.050781 C 38.171875 43.941406 37.078125 44.445313 35.933594 44.410156 C 34.78125 44.449219 33.679688 43.929688 32.976563 43.011719 C 32.15625 41.886719 31.757813 40.511719 31.851563 39.121094 C 31.757813 37.734375 32.160156 36.359375 32.976563 35.234375 C 33.71875 34.320313 34.835938 33.789063 36.011719 33.792969 C 37.164063 33.742188 38.265625 34.285156 38.929688 35.234375 C 39.695313 36.378906 40.0625 37.746094 39.976563 39.121094 C 40.113281 40.519531 39.726563 41.921875 38.890625 43.050781 Z M 38.890625 43.050781 "/>
</g>
</svg>
