<?xml version="1.0" encoding="UTF-8"?>
<svg xmlns="http://www.w3.org/2000/svg" xmlns:xlink="http://www.w3.org/1999/xlink" width="53pt" height="70pt" viewBox="0 0 53 70" version="1.1">
<defs>
<clipPath id="clip1">
  <path d="M 25 9 L 52.621094 9 L 52.621094 70 L 25 70 Z M 25 9 "/>
</clipPath>
<clipPath id="clip2">
  <path d="M 0 0 L 52.621094 0 L 52.621094 20 L 0 20 Z M 0 0 "/>
</clipPath>
</defs>
<g id="surface1">
<path style=" stroke:none;fill-rule:nonzero;fill:rgb(22.352941%,59.607843%,77.254902%);fill-opacity:1;" d="M 0 9.578125 L 0 60.421875 C 0 65.773438 11.785156 70 26.238281 70 L 26.238281 9.578125 Z M 0 9.578125 "/>
<g clip-path="url(#clip1)" clip-rule="nonzero">
<path style=" stroke:none;fill-rule:nonzero;fill:rgb(34.901961%,70.196078%,84.705882%);fill-opacity:1;" d="M 25.957031 70 L 26.378906 70 C 40.96875 70 52.617188 65.773438 52.617188 60.421875 L 52.617188 9.578125 L 25.957031 9.578125 Z M 25.957031 70 "/>
</g>
<g clip-path="url(#clip2)" clip-rule="nonzero">
<path style=" stroke:none;fill-rule:nonzero;fill:rgb(100%,100%,100%);fill-opacity:1;" d="M 52.621094 9.578125 C 52.621094 14.789063 40.832031 19.15625 26.378906 19.15625 C 11.929688 19.15625 0 14.789063 0 9.578125 C 0 4.367188 11.785156 0 26.238281 0 C 40.691406 0 52.621094 4.367188 52.621094 9.578125 "/>
</g>
<path style=" stroke:none;fill-rule:nonzero;fill:rgb(49.803922%,72.54902%,0%);fill-opacity:1;" d="M 47.28125 9.011719 C 47.28125 12.535156 37.882813 15.351563 26.375 15.351563 C 14.867188 15.351563 5.332031 12.535156 5.332031 9.011719 C 5.332031 5.492188 14.734375 2.675781 26.238281 2.675781 C 37.746094 2.675781 47.28125 5.492188 47.28125 9.011719 "/>
<path style=" stroke:none;fill-rule:nonzero;fill:rgb(71.764706%,82.745098%,19.607843%);fill-opacity:1;" d="M 42.796875 12.816406 C 45.601563 11.695313 47.144531 10.421875 47.144531 9.011719 C 47.144531 5.492188 37.746094 2.675781 26.238281 2.675781 C 14.734375 2.675781 5.332031 5.492188 5.332031 9.011719 C 5.332031 10.421875 7.015625 11.828125 9.683594 12.816406 C 13.46875 11.265625 19.503906 10.421875 26.238281 10.421875 C 31.851563 10.300781 37.445313 11.109375 42.796875 12.816406 "/>
<path style=" stroke:none;fill-rule:nonzero;fill:rgb(20%,40.392157%,56.470588%);fill-opacity:1;" d="M 41.097656 47.34375 C 36.921875 48.207031 36.632813 46.785156 36.632813 46.785156 C 41.042969 40.214844 42.886719 31.878906 41.292969 29.84375 C 36.953125 24.277344 29.4375 26.910156 29.320313 26.980469 L 29.277344 26.988281 C 28.359375 26.800781 27.425781 26.703125 26.488281 26.695313 C 24.910156 26.617188 23.355469 27.082031 22.078125 28.019531 C 22.078125 28.019531 8.679688 22.476563 9.300781 34.984375 C 9.441406 37.644531 13.101563 55.125 17.476563 49.84375 C 19.074219 47.914063 20.621094 46.28125 20.621094 46.28125 C 21.398438 46.808594 22.335938 47.050781 23.269531 46.960938 L 23.34375 46.898438 C 23.324219 47.148438 23.332031 47.402344 23.375 47.652344 C 22.25 48.910156 22.578125 49.136719 20.328125 49.601563 C 18.046875 50.074219 19.386719 50.914063 20.261719 51.132813 C 22.164063 51.753906 24.25 51.074219 25.429688 49.453125 L 25.363281 49.71875 C 25.96875 50.988281 26.210938 52.402344 26.058594 53.804688 C 25.914063 55.121094 26.003906 56.453125 26.320313 57.738281 C 26.667969 58.6875 27.015625 60.828125 29.976563 60.191406 C 32.152344 59.972656 33.835938 58.171875 33.910156 55.976563 C 34.035156 54.34375 34.328125 54.578125 34.339844 53.121094 L 34.570313 52.429688 C 34.835938 50.210938 34.613281 49.496094 36.136719 49.832031 L 36.507813 49.863281 C 37.6875 49.914063 38.863281 49.714844 39.960938 49.277344 C 41.816406 48.414063 42.917969 46.96875 41.085938 47.347656 Z M 41.097656 47.34375 "/>
<path style=" stroke:none;fill-rule:nonzero;fill:rgb(100%,100%,100%);fill-opacity:1;" d="M 23.46875 36.371094 C 23.28125 36.273438 23.074219 36.210938 22.863281 36.183594 C 22.5625 36.117188 22.246094 36.160156 21.972656 36.308594 C 21.898438 36.359375 21.847656 36.4375 21.835938 36.527344 C 21.796875 36.804688 22.210938 37.332031 22.730469 37.40625 C 22.769531 37.410156 22.8125 37.414063 22.855469 37.414063 C 23.234375 37.414063 23.578125 37.191406 23.738281 36.84375 L 23.753906 36.792969 C 23.769531 36.707031 23.75 36.527344 23.46875 36.371094 Z M 23.46875 36.371094 "/>
<path style=" stroke:none;fill-rule:nonzero;fill:rgb(100%,100%,100%);fill-opacity:1;" d="M 35.007813 35.933594 C 34.808594 35.894531 34.605469 35.890625 34.40625 35.921875 C 33.972656 35.984375 33.554688 36.179688 33.589844 36.4375 L 33.597656 36.464844 C 33.742188 36.78125 34.054688 36.984375 34.402344 36.980469 C 34.441406 36.984375 34.480469 36.980469 34.515625 36.976563 C 34.746094 36.933594 34.953125 36.820313 35.109375 36.648438 C 35.242188 36.53125 35.320313 36.367188 35.335938 36.191406 C 35.316406 36.074219 35.199219 35.980469 35.007813 35.933594 Z M 35.007813 35.933594 "/>
<path style=" stroke:none;fill-rule:nonzero;fill:rgb(100%,100%,100%);fill-opacity:1;" d="M 42.359375 47.289063 C 42.15625 46.671875 41.277344 46.855469 40.988281 46.914063 C 38.046875 47.523438 37.222656 46.921875 37.050781 46.753906 C 39.121094 43.605469 40.65625 40.132813 41.605469 36.484375 C 42.417969 33.21875 42.402344 30.625 41.570313 29.558594 C 39.789063 27.269531 37.066406 25.921875 34.175781 25.890625 C 32.503906 25.820313 30.828125 26.042969 29.230469 26.550781 L 29.199219 26.5625 L 29.140625 26.582031 L 29.089844 26.601563 C 28.234375 26.386719 27.355469 26.269531 26.472656 26.257813 C 24.902344 26.199219 23.351563 26.636719 22.046875 27.519531 C 20.679688 27.003906 19.261719 26.644531 17.8125 26.449219 C 15.660156 26.027344 13.425781 26.429688 11.554688 27.582031 C 9.617188 28.964844 8.714844 31.445313 8.890625 34.957031 C 8.976563 36.613281 11.390625 49.804688 15.179688 51.074219 C 16.164063 51.339844 17.207031 50.921875 17.746094 50.050781 C 19.09375 48.421875 20.355469 47.066406 20.675781 46.730469 C 21.347656 47.109375 22.101563 47.3125 22.875 47.320313 C 22.875 47.398438 22.882813 47.476563 22.890625 47.554688 C 22.753906 47.710938 22.625 47.871094 22.496094 48.039063 C 21.988281 48.6875 21.867188 48.839844 20.226563 49.179688 C 19.5625 49.320313 18.675781 49.578125 18.660156 50.242188 C 18.648438 50.902344 19.574219 51.320313 20.121094 51.453125 C 21.910156 52.039063 23.875 51.5625 25.203125 50.21875 C 25.0625 52.84375 25.226563 55.472656 25.691406 58.058594 C 26.117188 59.644531 27.546875 60.75 29.183594 60.761719 C 29.574219 60.757813 29.964844 60.710938 30.347656 60.628906 C 32.542969 60.453125 34.277344 58.6875 34.414063 56.480469 C 34.652344 55.082031 35.070313 51.679688 35.25 49.964844 C 35.75 50.140625 36.28125 50.222656 36.8125 50.203125 C 37.9375 50.214844 39.054688 50.003906 40.101563 49.582031 C 41.144531 49.082031 42.613281 48.070313 42.359375 47.289063 Z M 34.5625 49.109375 C 34.492188 50.066406 33.941406 54.671875 33.65625 56.34375 C 33.566406 58.234375 32.070313 59.757813 30.1875 59.871094 C 29.40625 60.132813 28.550781 60.054688 27.832031 59.65625 C 27.109375 59.257813 26.589844 58.574219 26.398438 57.769531 C 25.925781 54.75 25.789063 51.683594 25.992188 48.632813 C 25.992188 48.574219 25.980469 48.515625 25.953125 48.460938 C 25.941406 48.34375 25.917969 48.226563 25.882813 48.113281 C 25.734375 47.621094 25.394531 47.207031 24.941406 46.96875 L 24.894531 46.945313 C 24.523438 46.734375 24.074219 46.707031 23.679688 46.871094 C 23.800781 46.324219 23.96875 45.789063 24.179688 45.273438 L 24.257813 45.0625 C 24.347656 44.820313 24.457031 44.582031 24.570313 44.316406 C 25.1875 42.945313 26.027344 41.070313 25.109375 36.820313 C 24.996094 36.113281 24.59375 35.492188 24.003906 35.09375 C 23.414063 34.695313 22.6875 34.558594 21.996094 34.71875 C 20.953125 34.859375 19.949219 35.21875 19.050781 35.773438 C 19.121094 33.242188 20.03125 30.808594 21.636719 28.855469 C 22.917969 27.597656 24.667969 26.9375 26.457031 27.035156 C 29.207031 27.042969 31.835938 28.195313 33.710938 30.214844 C 34.898438 31.460938 35.804688 32.953125 36.359375 34.585938 C 34.367188 34.34375 33.03125 34.703125 32.375 35.648438 C 30.976563 37.65625 33.1875 41.640625 34.25 43.554688 C 34.433594 43.882813 34.621094 44.21875 34.679688 44.363281 C 34.960938 45.019531 35.339844 45.628906 35.800781 46.171875 C 35.941406 46.335938 36.066406 46.507813 36.175781 46.691406 L 36.085938 46.71875 C 35.523438 46.871094 34.46875 47.167969 34.5625 49.105469 Z M 15.421875 50.34375 C 14.152344 49.921875 12.742188 47.363281 11.453125 43.152344 C 10.605469 40.46875 10.003906 37.714844 9.660156 34.921875 C 9.5 31.6875 10.285156 29.433594 12 28.210938 C 13.207031 27.4375 14.621094 27.054688 16.054688 27.117188 C 17.855469 27.164063 19.640625 27.488281 21.34375 28.082031 C 21.261719 28.152344 21.175781 28.222656 21.097656 28.308594 C 18.152344 31.292969 18.253906 36.417969 18.261719 36.636719 L 18.261719 36.660156 C 18.386719 38.257813 18.359375 39.863281 18.175781 41.457031 C 17.933594 43.0625 18.445313 44.691406 19.558594 45.871094 C 19.707031 46.019531 19.863281 46.160156 20.027344 46.289063 C 19.546875 46.804688 18.398438 48.054688 17.15625 49.554688 C 16.558594 50.273438 15.988281 50.527344 15.421875 50.339844 Z M 18.933594 41.550781 C 19.121094 39.945313 19.15625 38.328125 19.03125 36.714844 C 20.144531 35.851563 21.53125 35.417969 22.9375 35.492188 C 23.691406 35.609375 24.273438 36.21875 24.359375 36.976563 C 25.222656 40.980469 24.472656 42.652344 23.867188 43.996094 C 23.753906 44.257813 23.632813 44.523438 23.535156 44.789063 L 23.457031 45 C 23.253906 45.503906 23.085938 46.023438 22.953125 46.550781 C 21.875 46.570313 20.839844 46.128906 20.105469 45.335938 C 19.15625 44.324219 18.722656 42.925781 18.933594 41.550781 Z M 23.632813 47.863281 C 23.644531 47.847656 23.65625 47.832031 23.667969 47.816406 C 23.855469 47.535156 24.226563 47.441406 24.519531 47.609375 L 24.582031 47.640625 C 25.132813 47.9375 25.355469 48.613281 25.089844 49.183594 C 24.003906 50.675781 22.082031 51.296875 20.328125 50.722656 C 20 50.652344 19.695313 50.5 19.4375 50.28125 C 19.71875 50.097656 20.042969 49.980469 20.378906 49.945313 C 22.210938 49.566406 22.46875 49.320313 23.09375 48.527344 C 23.230469 48.347656 23.40625 48.128906 23.636719 47.867188 Z M 35.390625 44.066406 C 35.316406 43.886719 35.15625 43.597656 34.933594 43.195313 L 34.921875 43.175781 C 34.011719 41.539063 31.878906 37.699219 33.003906 36.082031 C 33.566406 35.46875 34.390625 35.167969 35.214844 35.277344 C 35.621094 35.28125 36.023438 35.3125 36.421875 35.371094 C 36.417969 35.910156 36.367188 36.445313 36.273438 36.976563 C 36.175781 37.542969 36.113281 38.109375 36.089844 38.679688 C 36.089844 39.328125 36.132813 39.972656 36.230469 40.609375 C 36.539063 42.03125 36.390625 43.515625 35.796875 44.847656 C 35.640625 44.597656 35.503906 44.335938 35.390625 44.0625 Z M 40.628906 37.085938 C 39.675781 40.210938 38.335938 43.203125 36.632813 45.988281 C 36.570313 45.902344 36.492188 45.800781 36.394531 45.683594 L 36.304688 45.566406 L 36.28125 45.535156 C 37.121094 44 37.367188 42.210938 36.980469 40.503906 C 36.890625 39.90625 36.847656 39.304688 36.851563 38.703125 C 36.875 38.160156 36.933594 37.621094 37.023438 37.085938 C 37.144531 36.4375 37.195313 35.777344 37.183594 35.117188 C 37.207031 35.035156 37.214844 34.949219 37.203125 34.867188 C 36.238281 31.335938 33.71875 28.445313 30.363281 27.011719 C 36.609375 25.480469 39.847656 28.601563 40.960938 30.027344 C 41.800781 31.097656 41.675781 33.601563 40.628906 37.082031 Z M 36.304688 47.445313 C 36.398438 47.421875 36.492188 47.390625 36.582031 47.351563 C 36.644531 47.40625 36.710938 47.457031 36.777344 47.503906 C 38.171875 48.085938 39.722656 48.140625 41.152344 47.660156 C 41.285156 47.632813 41.417969 47.613281 41.554688 47.609375 C 41.066406 48.152344 40.460938 48.582031 39.789063 48.867188 C 38.410156 49.449219 36.882813 49.5625 35.433594 49.191406 C 35.359375 49.148438 35.339844 49.113281 35.339844 49.105469 C 35.261719 47.746094 35.792969 47.597656 36.316406 47.449219 Z M 36.304688 47.445313 "/>
</g>
</svg>
