<?xml version="1.0" encoding="UTF-8"?>
<svg xmlns="http://www.w3.org/2000/svg" xmlns:xlink="http://www.w3.org/1999/xlink" width="65pt" height="70pt" viewBox="0 0 65 70" version="1.1">
<g id="surface1">
<path style=" stroke:none;fill-rule:nonzero;fill:rgb(0%,47.058824%,84.313725%);fill-opacity:1;" d="M 21.402344 35.316406 C 21.5625 35.636719 21.878906 35.796875 22.195313 35.796875 C 22.511719 35.953125 22.828125 35.953125 23.144531 35.953125 C 23.464844 35.953125 23.78125 35.953125 23.9375 35.796875 C 24.257813 35.636719 24.414063 35.476563 24.730469 35.160156 C 24.890625 34.839844 25.046875 34.523438 25.207031 34.203125 C 25.367188 33.886719 25.367188 33.410156 25.367188 32.773438 C 25.367188 32.296875 25.367188 31.976563 25.207031 31.5 C 25.046875 31.023438 25.046875 30.703125 24.730469 30.386719 C 24.574219 30.066406 24.257813 29.910156 24.097656 29.589844 C 23.78125 29.433594 23.464844 29.273438 23.144531 29.273438 C 22.671875 29.273438 22.355469 29.433594 22.035156 29.589844 C 21.71875 29.75 21.5625 30.066406 21.242188 30.226563 C 21.085938 30.546875 20.925781 30.863281 20.769531 31.183594 C 20.609375 31.5 20.609375 31.976563 20.609375 32.453125 C 20.609375 33.089844 20.609375 33.566406 20.769531 33.886719 C 21.085938 34.683594 21.242188 35 21.402344 35.316406 Z M 21.402344 35.316406 "/>
<path style=" stroke:none;fill-rule:nonzero;fill:rgb(0%,47.058824%,84.313725%);fill-opacity:1;" d="M 30.597656 47.726563 C 31.074219 47.726563 31.707031 47.726563 32.183594 47.886719 C 34.71875 42.796875 39.792969 39.453125 45.660156 39.136719 L 45.660156 9.386719 C 45.660156 4.613281 35.355469 0 22.828125 0 C 10.144531 0 0 4.296875 0 9.066406 L 0 52.023438 C 0 56.316406 8.402344 60.453125 19.339844 61.089844 C 19.183594 60.453125 19.183594 59.816406 19.183594 59.183594 C 19.183594 52.976563 24.257813 47.726563 30.597656 47.726563 Z M 38.839844 38.976563 L 30.914063 38.976563 L 30.914063 26.726563 L 34.5625 26.726563 L 34.5625 36.113281 L 38.839844 36.113281 Z M 22.828125 3.339844 C 31.867188 3.339844 39.160156 5.566406 39.160156 8.273438 C 39.160156 10.976563 31.867188 13.203125 22.828125 13.203125 C 13.792969 13.203125 6.5 10.976563 6.5 8.273438 C 6.5 5.566406 13.792969 3.339844 22.828125 3.339844 Z M 16.011719 36.113281 C 16.011719 36.433594 15.855469 36.75 15.695313 37.066406 C 15.535156 37.386719 15.378906 37.703125 15.0625 37.863281 C 14.742188 38.183594 14.425781 38.339844 14.109375 38.5 C 13.792969 38.660156 13.316406 38.816406 12.683594 38.976563 C 12.207031 39.136719 11.574219 39.136719 10.78125 39.136719 C 10.464844 39.136719 9.988281 39.136719 9.671875 39.136719 C 9.355469 39.136719 9.035156 39.136719 8.71875 38.976563 C 8.402344 38.976563 8.085938 38.816406 7.925781 38.816406 C 7.609375 38.816406 7.453125 38.660156 7.292969 38.5 L 7.292969 35.160156 C 7.453125 35.316406 7.769531 35.476563 8.085938 35.636719 C 8.402344 35.796875 8.5625 35.953125 8.878906 36.113281 C 9.195313 36.273438 9.511719 36.273438 9.828125 36.433594 C 10.144531 36.589844 10.464844 36.589844 10.78125 36.589844 C 11.097656 36.589844 11.257813 36.589844 11.414063 36.433594 C 11.574219 36.433594 11.730469 36.273438 11.730469 36.273438 C 11.890625 36.273438 11.890625 36.113281 11.890625 35.953125 C 11.890625 35.796875 11.890625 35.796875 11.890625 35.636719 C 11.890625 35.476563 11.890625 35.316406 11.730469 35.160156 C 11.574219 35 11.574219 34.839844 11.414063 34.839844 C 11.257813 34.683594 11.097656 34.683594 10.78125 34.523438 C 10.464844 34.363281 10.304688 34.363281 9.988281 34.203125 C 9.511719 34.046875 9.035156 33.726563 8.5625 33.410156 C 8.242188 33.089844 7.925781 32.933594 7.609375 32.613281 C 7.292969 32.296875 7.132813 31.976563 7.132813 31.660156 C 6.976563 31.339844 6.976563 30.863281 6.976563 30.546875 C 6.976563 29.910156 7.132813 29.433594 7.292969 28.953125 C 7.609375 28.476563 7.925781 28 8.242188 27.683594 C 8.71875 27.363281 9.195313 27.046875 9.828125 26.886719 C 10.464844 26.726563 11.097656 26.566406 11.890625 26.566406 C 12.367188 26.566406 12.683594 26.566406 13 26.566406 C 13.316406 26.566406 13.632813 26.566406 13.953125 26.726563 C 14.269531 26.726563 14.425781 26.886719 14.742188 26.886719 C 14.902344 26.886719 15.21875 27.046875 15.378906 27.046875 L 15.378906 30.226563 C 15.21875 30.066406 15.0625 30.066406 14.742188 29.910156 C 14.585938 29.75 14.269531 29.75 13.953125 29.589844 C 13.632813 29.433594 13.476563 29.433594 13.160156 29.433594 C 12.839844 29.433594 12.523438 29.433594 12.207031 29.433594 C 11.730469 29.433594 11.414063 29.433594 11.257813 29.589844 C 10.9375 29.75 10.9375 29.910156 10.9375 30.226563 C 10.9375 30.386719 10.9375 30.546875 11.097656 30.546875 C 11.097656 30.703125 11.257813 30.703125 11.414063 30.863281 C 11.574219 31.023438 11.730469 31.023438 11.890625 31.183594 C 12.046875 31.339844 12.367188 31.339844 12.683594 31.5 C 13.160156 31.660156 13.632813 31.976563 14.109375 32.136719 C 14.585938 32.453125 14.902344 32.613281 15.21875 32.933594 C 15.535156 33.25 15.695313 33.566406 16.011719 33.886719 C 16.171875 34.203125 16.328125 34.683594 16.328125 35.316406 C 16.011719 35.476563 16.011719 35.796875 16.011719 36.113281 Z M 17.28125 35.476563 C 16.964844 34.683594 16.804688 33.886719 16.804688 32.933594 C 16.804688 31.976563 16.964844 31.023438 17.28125 30.226563 C 17.597656 29.433594 18.074219 28.796875 18.546875 28.160156 C 19.023438 27.523438 19.816406 27.203125 20.453125 26.886719 C 21.242188 26.566406 22.035156 26.410156 22.988281 26.410156 C 23.9375 26.410156 24.730469 26.566406 25.367188 26.886719 C 26.160156 27.203125 26.792969 27.683594 27.269531 28.160156 C 27.742188 28.636719 28.21875 29.433594 28.535156 30.066406 C 28.855469 30.863281 29.011719 31.660156 29.011719 32.773438 C 29.011719 33.410156 29.011719 34.203125 28.695313 34.683594 C 28.535156 35.316406 28.21875 35.796875 27.902344 36.273438 C 27.585938 36.75 27.269531 37.226563 26.792969 37.546875 C 26.316406 37.863281 26 38.183594 25.367188 38.5 L 29.488281 42 L 24.730469 42 L 22.035156 39.136719 C 21.242188 39.136719 20.453125 38.816406 19.816406 38.660156 C 19.183594 38.339844 18.546875 37.863281 18.074219 37.386719 C 18.074219 36.910156 17.597656 36.273438 17.28125 35.476563 Z M 17.28125 35.476563 "/>
<path style=" stroke:none;fill-rule:nonzero;fill:rgb(0%,47.058824%,84.313725%);fill-opacity:1;" d="M 65.632813 63.476563 C 65.632813 60.453125 63.257813 57.910156 60.242188 57.589844 C 60.402344 56.636719 60.5625 55.839844 60.5625 54.886719 C 60.5625 47.089844 54.21875 40.726563 46.453125 40.726563 C 40.585938 40.726563 35.355469 44.226563 33.292969 49.636719 C 32.5 49.476563 31.707031 49.316406 30.757813 49.316406 C 25.207031 49.316406 20.769531 53.773438 20.769531 59.339844 C 20.769531 64.75 25.046875 69.203125 30.597656 69.363281 L 61.511719 69.363281 L 61.511719 69.203125 C 63.890625 68.566406 65.632813 66.183594 65.632813 63.476563 Z M 60.242188 67.773438 L 30.757813 67.773438 C 26.160156 67.773438 22.355469 63.953125 22.355469 59.339844 C 22.355469 54.726563 26.160156 50.910156 30.757813 50.910156 C 31.707031 50.910156 32.660156 51.066406 33.453125 51.386719 L 34.242188 51.703125 L 34.5625 50.910156 C 36.304688 45.816406 41.0625 42.316406 46.453125 42.316406 C 53.425781 42.316406 58.976563 48.046875 58.976563 54.886719 C 58.976563 56 58.816406 57.113281 58.5 58.226563 L 58.183594 59.5 L 59.292969 59.339844 C 59.453125 59.339844 59.609375 59.339844 59.769531 59.339844 C 62.144531 59.339844 64.046875 61.25 64.046875 63.636719 C 64.046875 65.703125 62.464844 67.613281 60.242188 67.773438 Z M 60.242188 67.773438 "/>
</g>
</svg>
