<?xml version="1.0" encoding="UTF-8"?>
<svg xmlns="http://www.w3.org/2000/svg" xmlns:xlink="http://www.w3.org/1999/xlink" width="70pt" height="70pt" viewBox="0 0 70 70" version="1.1">
<defs>
<linearGradient id="linear0" gradientUnits="userSpaceOnUse" x1="-3071.86" y1="6711.69" x2="-3071.86" y2="6747.69" gradientTransform="matrix(1.924902,0.000000000000000147,0.000000000000000147,-1.924902,6008.402161,13121.307348)">
<stop offset="0" style="stop-color:rgb(0,81,142);stop-opacity:1;"/>
<stop offset="0.1" style="stop-color:rgb(0,86,150);stop-opacity:1;"/>
<stop offset="0.52" style="stop-color:rgb(0,101,176);stop-opacity:1;"/>
<stop offset="0.75" style="stop-color:rgb(0,108,188);stop-opacity:1;"/>
</linearGradient>
</defs>
<g id="surface1">
<path style=" stroke:none;fill-rule:nonzero;fill:url(#linear0);" d="M 0.699219 33.324219 L 33.316406 0.710938 C 34.242188 -0.21875 35.742188 -0.21875 36.667969 0.710938 L 69.28125 33.324219 C 70.210938 34.25 70.210938 35.75 69.28125 36.675781 L 36.667969 69.289063 C 35.742188 70.21875 34.242188 70.21875 33.316406 69.289063 L 0.699219 36.675781 C -0.226563 35.75 -0.226563 34.25 0.699219 33.324219 Z M 0.699219 33.324219 "/>
<path style=" stroke:none;fill-rule:nonzero;fill:rgb(119,197,255);fill-opacity:1;" d="M 35 13.261719 C 31.304688 13.261719 28.351563 12.328125 28.351563 11.121094 L 28.351563 22.4375 C 28.351563 23.566406 31.265625 24.539063 34.882813 24.539063 L 35 24.539063 C 38.65625 24.539063 41.648438 23.605469 41.648438 22.4375 L 41.648438 11.121094 C 41.6875 12.328125 38.890625 13.261719 35 13.261719 Z M 35 13.261719 "/>
<path style=" stroke:none;fill-rule:nonzero;fill:rgb(213,237,255);fill-opacity:1;" d="M 41.6875 11.121094 C 41.6875 12.328125 38.695313 13.261719 35.039063 13.261719 C 31.382813 13.261719 28.390625 12.328125 28.390625 11.121094 C 28.390625 9.917969 31.34375 9.023438 35 9.023438 C 38.65625 9.023438 41.648438 9.957031 41.648438 11.121094 "/>
<path style=" stroke:none;fill-rule:nonzero;fill:rgb(119,197,255);fill-opacity:1;" d="M 40.132813 10.964844 C 40.132813 11.707031 37.839844 12.328125 35.039063 12.328125 C 32.238281 12.328125 29.945313 11.667969 29.945313 10.964844 C 29.945313 10.265625 32.199219 9.605469 35 9.605469 C 37.800781 9.605469 40.09375 10.226563 40.09375 10.964844 "/>
<path style=" stroke:none;fill-rule:nonzero;fill:rgb(47,166,255);fill-opacity:1;" d="M 35 11.277344 C 33.691406 11.222656 32.382813 11.355469 31.109375 11.667969 C 32.375 12.035156 33.683594 12.21875 35 12.210938 C 36.316406 12.21875 37.625 12.035156 38.890625 11.667969 C 37.617188 11.355469 36.308594 11.226563 35 11.277344 Z M 35 11.277344 "/>
<path style=" stroke:none;fill-rule:nonzero;fill:rgb(119,197,255);fill-opacity:1;" d="M 35 49.855469 C 31.304688 49.855469 28.351563 48.921875 28.351563 47.714844 L 28.351563 59.035156 C 28.351563 60.160156 31.265625 61.132813 34.882813 61.132813 L 35 61.132813 C 38.65625 61.132813 41.648438 60.199219 41.648438 59.035156 L 41.648438 47.714844 C 41.6875 48.921875 38.890625 49.855469 35 49.855469 Z M 35 49.855469 "/>
<path style=" stroke:none;fill-rule:nonzero;fill:rgb(213,237,255);fill-opacity:1;" d="M 41.6875 47.714844 C 41.6875 48.921875 38.695313 49.855469 35.039063 49.855469 C 31.382813 49.855469 28.390625 48.921875 28.390625 47.714844 C 28.390625 46.511719 31.34375 45.617188 35.039063 45.617188 C 38.734375 45.617188 41.6875 46.550781 41.6875 47.714844 "/>
<path style=" stroke:none;fill-rule:nonzero;fill:rgb(119,197,255);fill-opacity:1;" d="M 40.132813 47.5625 C 40.132813 48.300781 37.839844 48.921875 35.039063 48.921875 C 32.238281 48.921875 29.945313 48.300781 29.945313 47.5625 C 29.945313 46.820313 32.199219 46.199219 35.039063 46.199219 C 37.878906 46.199219 40.132813 46.820313 40.132813 47.5625 "/>
<path style=" stroke:none;fill-rule:nonzero;fill:rgb(47,166,255);fill-opacity:1;" d="M 35 47.871094 C 33.6875 47.855469 32.378906 48.027344 31.109375 48.378906 C 32.375 48.746094 33.683594 48.929688 35 48.921875 C 36.316406 48.929688 37.625 48.746094 38.890625 48.378906 C 37.621094 48.027344 36.3125 47.859375 35 47.871094 Z M 35 47.871094 "/>
<path style=" stroke:none;fill-rule:nonzero;fill:rgb(119,197,255);fill-opacity:1;" d="M 51.410156 31.460938 C 47.523438 31.460938 44.761719 30.527344 44.761719 29.359375 L 44.761719 40.640625 C 44.761719 41.804688 47.679688 42.738281 51.332031 42.777344 C 54.988281 42.777344 57.984375 41.804688 57.984375 40.640625 L 57.984375 29.359375 C 58.0625 30.527344 55.066406 31.460938 51.410156 31.460938 Z M 51.410156 31.460938 "/>
<path style=" stroke:none;fill-rule:nonzero;fill:rgb(213,237,255);fill-opacity:1;" d="M 58.0625 29.359375 C 58.0625 30.527344 55.066406 31.460938 51.410156 31.460938 C 47.753906 31.460938 44.761719 30.527344 44.761719 29.359375 C 44.761719 28.195313 47.714844 27.222656 51.410156 27.222656 C 55.105469 27.222656 58.0625 28.195313 58.0625 29.359375 "/>
<path style=" stroke:none;fill-rule:nonzero;fill:rgb(119,197,255);fill-opacity:1;" d="M 56.503906 29.167969 C 56.503906 29.945313 54.210938 30.527344 51.410156 30.527344 C 48.609375 30.527344 46.316406 29.945313 46.316406 29.167969 C 46.316406 28.390625 48.570313 27.84375 51.410156 27.84375 C 54.25 27.84375 56.503906 28.429688 56.503906 29.167969 "/>
<path style=" stroke:none;fill-rule:nonzero;fill:rgb(47,166,255);fill-opacity:1;" d="M 51.410156 29.476563 C 50.09375 29.472656 48.785156 29.65625 47.523438 30.023438 C 48.789063 30.375 50.097656 30.542969 51.410156 30.527344 C 52.726563 30.542969 54.035156 30.375 55.300781 30.023438 C 54.035156 29.65625 52.726563 29.472656 51.410156 29.476563 Z M 51.410156 29.476563 "/>
<path style=" stroke:none;fill-rule:nonzero;fill:rgb(119,197,255);fill-opacity:1;" d="M 19.132813 31.460938 C 15.4375 31.460938 12.484375 30.527344 12.484375 29.359375 L 12.484375 40.640625 C 12.484375 41.804688 15.398438 42.738281 19.015625 42.777344 C 22.671875 42.777344 25.667969 41.804688 25.667969 40.640625 L 25.667969 29.359375 C 25.785156 30.527344 22.789063 31.460938 19.132813 31.460938 Z M 19.132813 31.460938 "/>
<path style=" stroke:none;fill-rule:nonzero;fill:rgb(213,237,255);fill-opacity:1;" d="M 25.785156 29.359375 C 25.785156 30.527344 22.789063 31.460938 19.132813 31.460938 C 15.476563 31.460938 12.484375 30.527344 12.484375 29.359375 C 12.484375 28.195313 15.554688 27.222656 19.132813 27.222656 C 22.710938 27.222656 25.785156 28.195313 25.785156 29.359375 "/>
<path style=" stroke:none;fill-rule:nonzero;fill:rgb(119,197,255);fill-opacity:1;" d="M 24.226563 29.167969 C 24.226563 29.945313 21.933594 30.527344 19.132813 30.527344 C 16.332031 30.527344 14.039063 29.945313 14.039063 29.167969 C 14.039063 28.390625 16.292969 27.84375 19.132813 27.84375 C 21.972656 27.84375 24.226563 28.429688 24.226563 29.167969 "/>
<path style=" stroke:none;fill-rule:nonzero;fill:rgb(47,166,255);fill-opacity:1;" d="M 19.132813 29.476563 C 17.816406 29.472656 16.507813 29.65625 15.246094 30.023438 C 16.511719 30.375 17.820313 30.542969 19.132813 30.527344 C 20.445313 30.542969 21.757813 30.375 23.023438 30.023438 C 21.757813 29.65625 20.449219 29.472656 19.132813 29.476563 Z M 19.132813 29.476563 "/>
</g>
</svg>
