<?xml version="1.0" encoding="utf-8"?><svg version="1.1" xmlns="http://www.w3.org/2000/svg" xmlns:xlink="http://www.w3.org/1999/xlink" xmlns:xml="http://www.w3.org/XML/1998/namespace" width="70" height="70" viewBox="0, 0, 18, 18" id="bdd6e15d-1a8a-482e-8d29-5037fed47de7"><defs><linearGradient x1="2.59" y1="10.16" x2="15.41" y2="10.16" gradientUnits="userSpaceOnUse" id="ad192933-7c41-4627-94b0-c2754cc3b3fb"><stop offset="0%" stop-color="#00518E" /><stop offset="7%" stop-color="#005696" /><stop offset="36%" stop-color="#0065B0" /><stop offset="52%" stop-color="#006CBC" /><stop offset="64%" stop-color="#0067B4" /><stop offset="82%" stop-color="#005FA6" /><stop offset="100%" stop-color="#00518E" /></linearGradient></defs><title>Icon-databases-123</title><path d="M9 5.14 c-3.54 0 -6.41 -1 -6.41 -2.32 V15.18 c0 1.27 2.82 2.3 6.32 2.32 H9 c3.54 0 6.41 -1 6.41 -2.32 V2.82 C15.41 4.11 12.54 5.14 9 5.14 Z" style="fill:url(#ad192933-7c41-4627-94b0-c2754cc3b3fb);" /><path d="M15.41 2.82 c0 1.29 -2.87 2.32 -6.41 2.32 s-6.41 -1 -6.41 -2.32 S5.46 0.5 9 0.5 s6.41 1 6.41 2.32" style="fill:#D1EBFF;" /><path d="M13.92 2.63 c0 0.82 -2.21 1.48 -4.92 1.48 S4.08 3.45 4.08 2.63 S6.29 1.16 9 1.16 s4.92 0.66 4.92 1.47" style="fill:#77C5FF;" /><path d="M9 3 a11.55 11.55 0 0 0 -3.89 0.57 A11.42 11.42 0 0 0 9 4.11 a11.15 11.15 0 0 0 3.89 -0.58 A11.84 11.84 0 0 0 9 3 Z" style="fill:#007CD8;" /><path d="M14.25 6.32 c-0.33 0 0.06 0.25 -1.11 0.3 S11.56 7.87 10.8 8.88 a4.93 4.93 0 0 1 -3 1.41 a3.67 3.67 0 0 0 -1.88 1.39 a0.92 0.92 0 0 1 -0.71 0.52 c-0.27 0 -0.86 0.08 -0.86 0.08 a3.36 3.36 0 0 0 -0.71 0.24 c0.08 0.33 0.74 0.19 0.74 0.19 a5.25 5.25 0 0 1 -0.52 0.47 a2.8 2.8 0 0 0 1 0.05 c0.43 0 0.76 -0.41 1.55 -0.84 s2.61 0 2.9 0 s0.72 -0.76 0.82 -1 c0.08 0.54 -0.82 2 -0.82 2 a2.11 2.11 0 0 0 1.66 -1 c0.08 -0.1 0.33 -0.62 0.36 -0.57 s0.16 0.19 0.21 0.17 a1.88 1.88 0 0 0 0.25 -0.27 a7.58 7.58 0 0 0 1.14 -2.48 C13 9 13 8.13 13.6 7.77 s0.68 -0.69 0.68 -0.72 V7 a1.63 1.63 0 0 1 -0.39 -0.35 a0.11 0.11 0 0 1 0 -0.11 a0.77 0.77 0 0 0 0.48 0.38 h0 S14.58 6.32 14.25 6.32 Z M13 7.38 h-0.06 a0.36 0.36 0 0 1 -0.3 -0.08 a0.48 0.48 0 0 1 0.52 -0.3 A0.3 0.3 0 0 1 13 7.38 Z m0.56 0 h0 a2.81 2.81 0 0 1 0.33 -0.58 l0 0 A3.12 3.12 0 0 0 13.54 7.42 Z m0.36 -0.51 l0 0 h0 a1.81 1.81 0 0 0 -0.08 0.51 h0 a1.69 1.69 0 0 1 0 -0.38 a1.4 1.4 0 0 0 -0.16 0.39 h0 A1.34 1.34 0 0 1 13.9 6.91 Z" style="fill:#E5F3FF;" /><path d="M12.21 11.52 s-0.49 0.46 -0.51 0.62 s0.54 0.41 0.89 0.32 A7.58 7.58 0 0 1 12.21 11.52 Z" style="fill:#E5F3FF;" /></svg>