<?xml version="1.0" encoding="UTF-8"?>
<svg xmlns="http://www.w3.org/2000/svg" xmlns:xlink="http://www.w3.org/1999/xlink" width="70pt" height="66pt" viewBox="0 0 70 66" version="1.1">
<defs>
<filter id="alpha" filterUnits="objectBoundingBox" x="0%" y="0%" width="100%" height="100%">
  <feColorMatrix type="matrix" in="SourceGraphic" values="0 0 0 0 1 0 0 0 0 1 0 0 0 0 1 0 0 0 1 0"/>
</filter>
<mask id="mask0">
  <g filter="url(#alpha)">
<rect x="0" y="0" width="70" height="66" style="fill:rgb(0,0,0);fill-opacity:0.2;stroke:none;"/>
  </g>
</mask>
<clipPath id="clip1">
  <rect x="0" y="0" width="70" height="66"/>
</clipPath>
<g id="surface5" clip-path="url(#clip1)">
<path style=" stroke:none;fill-rule:nonzero;fill:rgb(255,255,255);fill-opacity:1;" d="M 20.46875 42.953125 C 13.363281 42.953125 7.425781 40.855469 7.425781 38.34375 L 7.425781 11.210938 L 20.46875 11.523438 Z M 20.46875 42.953125 "/>
</g>
<mask id="mask1">
  <g filter="url(#alpha)">
<rect x="0" y="0" width="70" height="66" style="fill:rgb(0,0,0);fill-opacity:0.2;stroke:none;"/>
  </g>
</mask>
<clipPath id="clip2">
  <rect x="0" y="0" width="70" height="66"/>
</clipPath>
<g id="surface8" clip-path="url(#clip2)">
<path style=" stroke:none;fill-rule:nonzero;fill:rgb(255,255,255);fill-opacity:1;" d="M 48.046875 42.953125 C 40.9375 42.953125 35 40.855469 35 38.34375 L 35 11.210938 L 48.046875 11.523438 Z M 48.046875 42.953125 "/>
</g>
<mask id="mask2">
  <g filter="url(#alpha)">
<rect x="0" y="0" width="70" height="66" style="fill:rgb(0,0,0);fill-opacity:0.4;stroke:none;"/>
  </g>
</mask>
<clipPath id="clip3">
  <rect x="0" y="0" width="70" height="66"/>
</clipPath>
<g id="surface11" clip-path="url(#clip3)">
<path style=" stroke:none;fill-rule:nonzero;fill:rgb(255,255,255);fill-opacity:1;" d="M 47.726563 42.953125 L 47.726563 30.800781 C 47.726563 29.332031 46.453125 27.34375 45.605469 27.34375 L 22.273438 27.34375 C 21.425781 27.34375 20.152344 29.332031 20.152344 30.800781 L 20.152344 42.953125 Z M 47.726563 42.953125 "/>
</g>
<mask id="mask3">
  <g filter="url(#alpha)">
<rect x="0" y="0" width="70" height="66" style="fill:rgb(0,0,0);fill-opacity:0.2;stroke:none;"/>
  </g>
</mask>
<clipPath id="clip4">
  <rect x="0" y="0" width="70" height="66"/>
</clipPath>
<g id="surface14" clip-path="url(#clip4)">
<path style=" stroke:none;fill-rule:nonzero;fill:rgb(255,255,255);fill-opacity:1;" d="M 34.257813 59.714844 C 27.152344 59.714844 21.210938 57.617188 21.210938 55.105469 L 21.210938 27.972656 L 34.257813 28.285156 Z M 34.257813 59.714844 "/>
</g>
</defs>
<g id="surface1">
<path style=" stroke:none;fill-rule:nonzero;fill:rgb(0,112,196);fill-opacity:1;" d="M 20.152344 11.628906 L 32.878906 11.628906 L 32.878906 38.34375 C 32.878906 40.855469 27.257813 42.953125 20.363281 42.953125 L 20.152344 42.953125 C 13.152344 42.953125 7.425781 40.855469 7.425781 38.34375 L 7.425781 11.628906 Z M 20.152344 11.628906 "/>
<use xlink:href="#surface5" mask="url(#mask0)"/>
<path style=" stroke:none;fill-rule:nonzero;fill:rgb(255,255,255);fill-opacity:1;" d="M 32.878906 12.046875 C 32.878906 14.5625 27.152344 16.972656 20.152344 16.972656 C 13.152344 16.972656 7.425781 14.5625 7.425781 12.046875 C 7.425781 9.535156 13.152344 7.4375 20.152344 7.4375 C 27.152344 7.4375 32.878906 9.535156 32.878906 12.046875 "/>
<path style=" stroke:none;fill-rule:nonzero;fill:rgb(115,195,255);fill-opacity:1;" d="M 30.332031 11.941406 C 30.332031 13.515625 25.773438 14.769531 20.257813 14.769531 C 14.742188 14.769531 10.183594 13.515625 10.183594 11.941406 C 10.183594 10.371094 14.742188 9.113281 20.257813 9.113281 C 25.773438 9.113281 30.332031 10.371094 30.332031 11.941406 "/>
<path style=" stroke:none;fill-rule:nonzero;fill:rgb(39,163,255);fill-opacity:1;" d="M 12.089844 13.617188 C 13.894531 14.351563 16.863281 14.769531 20.152344 14.769531 C 23.4375 14.769531 26.410156 14.351563 28.210938 13.617188 C 26.410156 12.886719 23.4375 12.464844 20.152344 12.464844 C 16.863281 12.464844 14 12.992188 12.089844 13.617188 Z M 12.089844 13.617188 "/>
<path style=" stroke:none;fill-rule:nonzero;fill:rgb(0,112,196);fill-opacity:1;" d="M 47.726563 11.628906 L 60.453125 11.628906 L 60.453125 38.34375 C 60.453125 40.855469 54.832031 42.953125 47.9375 42.953125 L 47.726563 42.953125 C 40.726563 42.953125 35 40.855469 35 38.34375 L 35 11.628906 Z M 47.726563 11.628906 "/>
<use xlink:href="#surface8" mask="url(#mask1)"/>
<path style=" stroke:none;fill-rule:nonzero;fill:rgb(255,255,255);fill-opacity:1;" d="M 60.347656 12.046875 C 60.347656 14.5625 54.621094 16.972656 47.621094 16.972656 C 40.621094 16.972656 34.894531 14.5625 34.894531 12.046875 C 34.894531 9.535156 40.621094 7.4375 47.621094 7.4375 C 54.621094 7.4375 60.347656 9.535156 60.347656 12.046875 "/>
<path style=" stroke:none;fill-rule:nonzero;fill:rgb(115,195,255);fill-opacity:1;" d="M 57.804688 11.941406 C 57.804688 13.515625 53.242188 14.769531 47.726563 14.769531 C 42.210938 14.769531 37.652344 13.515625 37.652344 11.941406 C 37.652344 10.371094 42.210938 9.113281 47.726563 9.113281 C 53.242188 9.113281 57.804688 10.371094 57.804688 11.941406 "/>
<path style=" stroke:none;fill-rule:nonzero;fill:rgb(39,163,255);fill-opacity:1;" d="M 39.5625 13.617188 C 41.363281 14.351563 44.332031 14.769531 47.621094 14.769531 C 50.910156 14.769531 53.878906 14.351563 55.683594 13.617188 C 53.878906 12.886719 50.910156 12.464844 47.621094 12.464844 C 44.332031 12.464844 41.46875 12.992188 39.5625 13.617188 Z M 39.5625 13.617188 "/>
<use xlink:href="#surface11" mask="url(#mask2)"/>
<path style=" stroke:none;fill-rule:nonzero;fill:rgb(0,112,196);fill-opacity:1;" d="M 33.9375 28.390625 L 46.667969 28.390625 L 46.667969 55.105469 C 46.667969 57.617188 41.046875 59.714844 34.152344 59.714844 L 33.9375 59.714844 C 26.9375 59.714844 21.210938 57.617188 21.210938 55.105469 L 21.210938 28.390625 Z M 33.9375 28.390625 "/>
<use xlink:href="#surface14" mask="url(#mask3)"/>
<path style=" stroke:none;fill-rule:nonzero;fill:rgb(255,255,255);fill-opacity:1;" d="M 46.667969 28.703125 C 46.667969 31.21875 40.9375 33.628906 33.9375 33.628906 C 26.9375 33.628906 21.210938 31.21875 21.210938 28.703125 C 21.210938 26.191406 26.9375 24.09375 33.9375 24.09375 C 40.9375 24.09375 46.667969 26.191406 46.667969 28.703125 "/>
<path style=" stroke:none;fill-rule:nonzero;fill:rgb(115,195,255);fill-opacity:1;" d="M 44.121094 28.601563 C 44.121094 30.171875 39.5625 31.429688 33.9375 31.429688 C 28.316406 31.429688 23.757813 30.171875 23.757813 28.601563 C 23.757813 27.027344 28.316406 25.769531 33.9375 25.769531 C 39.5625 25.769531 44.121094 27.027344 44.121094 28.601563 "/>
<path style=" stroke:none;fill-rule:nonzero;fill:rgb(39,163,255);fill-opacity:1;" d="M 25.773438 30.277344 C 27.574219 31.007813 30.546875 31.429688 33.9375 31.429688 C 37.226563 31.429688 40.195313 31.007813 42.105469 30.277344 C 40.304688 29.542969 37.332031 29.125 33.9375 29.125 C 30.652344 29.125 27.683594 29.648438 25.773438 30.277344 Z M 25.773438 30.277344 "/>
</g>
</svg>
