<?xml version="1.0" encoding="utf-8"?><svg version="1.1" xmlns="http://www.w3.org/2000/svg" xmlns:xlink="http://www.w3.org/1999/xlink" xmlns:xml="http://www.w3.org/XML/1998/namespace" width="70" height="70" viewBox="0, 0, 18, 18" id="fc890127-728b-4ac0-b5da-86cdfc191e86"><defs><linearGradient x1="2.44" y1="10.67" x2="15.27" y2="10.67" gradientUnits="userSpaceOnUse" gradientTransform="translate(0.14, -0.5) rotate(-0.01, 0, 0)" id="a28dee20-4c71-46b5-b957-804c67da725a"><stop offset="0%" stop-color="#005BA1" /><stop offset="7%" stop-color="#0060A9" /><stop offset="36%" stop-color="#0071C8" /><stop offset="52%" stop-color="#0078D4" /><stop offset="64%" stop-color="#0074CD" /><stop offset="82%" stop-color="#006ABB" /><stop offset="100%" stop-color="#005BA1" /></linearGradient></defs><title>Icon-databases-131</title><path d="M9 5.14 c-3.54 0 -6.41 -1 -6.41 -2.32 V15.18 c0 1.27 2.82 2.3 6.32 2.32 H9 c3.54 0 6.41 -1 6.41 -2.32 V2.82 C15.41 4.1 12.54 5.14 9 5.14 Z" style="fill:url(#a28dee20-4c71-46b5-b957-804c67da725a);" /><path d="M15.41 2.82 c0 1.28 -2.87 2.32 -6.41 2.32 s-6.41 -1 -6.41 -2.32 S5.46 0.5 9 0.5 s6.41 1 6.41 2.32" style="fill:#E8E8E8;" /><path d="M13.91 2.63 c0 0.82 -2.2 1.48 -4.91 1.48 S4.08 3.45 4.08 2.64 S6.28 1.16 9 1.16 s4.91 0.66 4.91 1.47" style="fill:#50E6FF;" /><path d="M9 3 a11.65 11.65 0 0 0 -3.9 0.57 A11.53 11.53 0 0 0 9 4.11 a11.47 11.47 0 0 0 3.89 -0.58 A11.93 11.93 0 0 0 9 3 Z" style="fill:#198AB3;" /><path d="M12 9 c0 0.08 0 0.24 0 0.42 a5.12 5.12 0 0 0 -0.08 0.63 c0 0.12 0 0.3 0.05 0.46 s0 0.27 0 0.36 a1.68 1.68 0 0 1 -0.25 0.86 a0.43 0.43 0 0 0 0 0.07 l0.1 0.12 a10.55 10.55 0 0 0 1.06 -2.38 h0 c0.28 -0.95 0.31 -1.63 0.09 -1.92 a2.58 2.58 0 0 0 -2.68 -0.86 a3.29 3.29 0 0 1 0.91 0.67 A2.28 2.28 0 0 1 12 9 Z m-0.31 0.08 a1.15 1.15 0 0 0 -0.79 0.09 c-0.29 0.18 -0.2 0.55 0 1 a7.77 7.77 0 0 0 0.35 0.85 l0.09 0.16 h0 c0.05 0.08 0.08 0.15 0.11 0.2 l0.08 0.13 a1.28 1.28 0 0 0 0.18 -0.65 a2.86 2.86 0 0 0 0 -0.33 c0 -0.17 0 -0.36 -0.05 -0.49 a6.1 6.1 0 0 1 0.08 -0.69 C11.71 9.24 11.72 9.13 11.73 9.05 Z m-0.3 0.41 a0.4 0.4 0 0 1 -0.18 0.1 h0 a0.33 0.33 0 0 1 -0.14 0 A0.23 0.23 0 0 1 11 9.4 h0 c0 -0.07 0.11 -0.13 0.24 -0.15 h0.19 s0.09 0 0.09 0.08 A0.2 0.2 0 0 1 11.43 9.46 Z m-4.69 0.89 c0 -0.07 0 -0.13 0 -0.17 a1 1 0 0 0 0 -0.17 a5.55 5.55 0 0 1 0 -1 A5.22 5.22 0 0 1 7 7.94 A2.41 2.41 0 0 1 7.58 7 A4.78 4.78 0 0 0 6.23 6.8 a1.87 1.87 0 0 0 -1.1 0.3 A2 2 0 0 0 4.5 8.92 A12.27 12.27 0 0 0 5 11.16 c0.34 1.14 0.73 1.84 1.07 1.95 h0 c0.15 0.05 0.31 0 0.47 -0.21 c0.28 -0.34 0.54 -0.63 0.69 -0.8 A1.88 1.88 0 0 1 6.74 10.35 Z m0.26 0.4 a2.18 2.18 0 0 0 0.06 0.56 a1.5 1.5 0 0 0 0.26 0.44 a1.07 1.07 0 0 0 0.35 0.25 a1.09 1.09 0 0 0 0.39 0.08 c0 -0.17 0.14 -0.38 0.23 -0.6 a4.35 4.35 0 0 0 0.21 -0.59 a6.61 6.61 0 0 0 0 -1.11 c0 -0.09 0 -0.19 -0.06 -0.3 a0.45 0.45 0 0 0 -0.12 -0.27 l0 0 A0.66 0.66 0 0 0 8 9.08 H7.8 a1.56 1.56 0 0 0 -0.48 0.14 A2 2 0 0 0 7 9.41 v0.11 c0 0.2 0 0.41 0 0.61 v0 a0.86 0.86 0 0 1 0 0.15 l0 0.39 H7 Z m0.66 -1.34 l0 0 a0.46 0.46 0 0 1 0.28 0 a0.6 0.6 0 0 1 0.19 0.06 c0.09 0 0.1 0.11 0.09 0.14 h0 a0.37 0.37 0 0 1 -0.12 0.13 A0.3 0.3 0 0 1 8 9.73 h0 a0.34 0.34 0 0 1 -0.28 -0.28 Z m0.74 3 a0.23 0.23 0 0 0 -0.13 0.06 l-0.14 0.17 c-0.17 0.21 -0.24 0.28 -0.73 0.38 a0.52 0.52 0 0 0 -0.26 0.1 a0.58 0.58 0 0 0 0.24 0.11 a1.18 1.18 0 0 0 0.72 0 A1.7 1.7 0 0 0 8.45 13 a0.61 0.61 0 0 0 0.2 -0.31 a0.36 0.36 0 0 0 -0.1 -0.28 A0.15 0.15 0 0 0 8.4 12.39 Z m4.61 0 a1.63 1.63 0 0 1 -1.13 0 a0.22 0.22 0 0 0 -0.14 0 a0.3 0.3 0 0 0 -0.17 0.14 a1.09 1.09 0 0 0 0 0.31 a1.8 1.8 0 0 0 1.1 -0.1 a1.36 1.36 0 0 0 0.48 -0.34 Z m-2.4 -2.14 c-0.14 -0.41 -0.34 -1 0.18 -1.36 a1.35 1.35 0 0 1 0.89 -0.15 A3.18 3.18 0 0 0 11 7.64 l-0.1 -0.1 l-0.06 -0.06 h0 a0.34 0.34 0 0 0 -0.06 -0.06 l0 0 l0 0 A2.34 2.34 0 0 0 10.11 7 A2.63 2.63 0 0 0 9 6.78 a1.52 1.52 0 0 0 -0.7 0.11 A1.77 1.77 0 0 0 8 7 a2.1 2.1 0 0 0 -0.74 1 a5.84 5.84 0 0 0 -0.21 1 a1.66 1.66 0 0 1 1 -0.23 a0.84 0.84 0 0 1 0.77 0.91 a7.26 7.26 0 0 1 0 1.27 a3.87 3.87 0 0 1 -0.23 0.63 c-0.06 0.17 -0.14 0.35 -0.18 0.49 a0.5 0.5 0 0 1 0.38 0.14 a0.66 0.66 0 0 1 0.19 0.53 H9 c0 0.08 0 0.16 0 0.24 a6.55 6.55 0 0 0 0.24 2.44 a0.54 0.54 0 0 0 0.24 0.21 a0.6 0.6 0 0 0 0.31 0.1 a1.3 1.3 0 0 0 1 -0.34 a1.05 1.05 0 0 0 0.29 -0.66 c0.07 -0.45 0.22 -1.7 0.24 -2 h0 a0.72 0.72 0 0 1 0.09 -0.44 a0.63 0.63 0 0 1 0.27 -0.24 A5.36 5.36 0 0 1 10.61 10.24 Z" style="fill:#F2F2F2;" /></svg>