<?xml version="1.0" encoding="utf-8"?><svg version="1.1" xmlns="http://www.w3.org/2000/svg" xmlns:xlink="http://www.w3.org/1999/xlink" xmlns:xml="http://www.w3.org/XML/1998/namespace" width="70" height="70" viewBox="0, 0, 18, 18" id="a75e3f3a-2661-410b-82fb-d300d37dea2d"><defs><linearGradient x1="9" y1="16.21" x2="9" y2="0.62" gradientUnits="userSpaceOnUse" id="aff60ddf-eec1-40bf-8bf5-f3e3b50e8818"><stop offset="0%" stop-color="#008AF0" /><stop offset="21%" stop-color="#008DF6" /><stop offset="44%" stop-color="#0795FF" /><stop offset="69%" stop-color="#23A1FF" /><stop offset="95%" stop-color="#47B0FF" /><stop offset="100%" stop-color="#4FB4FF" /></linearGradient></defs><title>Icon-security-248</title><path d="M16 8.44 c0 4.57 -5.53 8.25 -6.73 9 a0.43 0.43 0 0 1 -0.46 0 C7.57 16.69 2 13 2 8.44 V2.94 a0.44 0.44 0 0 1 0.43 -0.44 C6.77 2.39 5.78 0.5 9 0.5 s2.23 1.89 6.53 2 a0.44 0.44 0 0 1 0.43 0.44 Z" style="fill:#008AF0;" /><path d="M15.38 8.48 c0 4.2 -5.07 7.57 -6.17 8.25 a0.4 0.4 0 0 1 -0.42 0 c-1.1 -0.68 -6.17 -4.05 -6.17 -8.25 v-5 A0.41 0.41 0 0 1 3 3 c3.94 -0.11 3 -1.83 6 -1.83 S11.05 2.93 15 3 a0.41 0.41 0 0 1 0.39 0.4 Z" style="fill:url(#aff60ddf-eec1-40bf-8bf5-f3e3b50e8818);" /><path d="M9 6.53 A2.88 2.88 0 0 1 11.84 9 a0.49 0.49 0 0 0 0.49 0.4 h1.4 a0.49 0.49 0 0 0 0.5 -0.53 a5.26 5.26 0 0 0 -10.46 0 a0.49 0.49 0 0 0 0.5 0.53 h1.4 A0.49 0.49 0 0 0 6.16 9 A2.88 2.88 0 0 1 9 6.53 Z" style="fill:#C9E8FF;" /><circle cx="9" cy="9.4" r="1.91" style="fill:white;" /></svg>