<?xml version="1.0" encoding="utf-8"?><svg version="1.1" xmlns="http://www.w3.org/2000/svg" xmlns:xlink="http://www.w3.org/1999/xlink" xmlns:xml="http://www.w3.org/XML/1998/namespace" width="70" height="70" viewBox="0, 0, 18, 18" id="a7e5c284-13cc-4ac5-b842-ecfb3e7bbb73"><defs><linearGradient x1="9" y1="16.21" x2="9" y2="0.62" gradientUnits="userSpaceOnUse" id="a3df7d19-3d54-4d86-b7b8-c8d5b9b1be6b"><stop offset="0%" stop-color="#1B93EB" /><stop offset="21%" stop-color="#2095EB" /><stop offset="44%" stop-color="#2E9CED" /><stop offset="69%" stop-color="#45A7EF" /><stop offset="95%" stop-color="#64B6F1" /><stop offset="100%" stop-color="#6BB9F2" /></linearGradient></defs><title>Icon-security-244</title><path d="M16 8.44 c0 4.57 -5.53 8.25 -6.73 9 a0.43 0.43 0 0 1 -0.46 0 C7.57 16.69 2 13 2 8.44 V2.94 a0.44 0.44 0 0 1 0.43 -0.44 C6.77 2.39 5.78 0.5 9 0.5 s2.23 1.89 6.53 2 a0.44 0.44 0 0 1 0.43 0.44 Z" style="fill:#1B93EB;" /><path d="M15.38 8.48 c0 4.2 -5.07 7.57 -6.17 8.25 a0.4 0.4 0 0 1 -0.42 0 c-1.1 -0.68 -6.17 -4.05 -6.17 -8.25 v-5 A0.41 0.41 0 0 1 3 3 c3.94 -0.11 3 -1.83 6 -1.83 S11.05 2.93 15 3 a0.41 0.41 0 0 1 0.39 0.4 Z" style="fill:url(#a3df7d19-3d54-4d86-b7b8-c8d5b9b1be6b);" /><path d="M10.94 12.72 c-1.07 -0.14 -1 -0.83 -1 -1.94 h-2 c0 1.11 0 1.8 -1 1.94 a0.56 0.56 0 0 0 -0.51 0.49 h5.1 A0.56 0.56 0 0 0 10.94 12.72 Z" style="fill:#1F56A3;" /><rect x="4.3" y="4.31" width="9.18" height="6.5" rx="0.31" style="fill:#1490DF;" /><rect x="4.83" y="4.82" width="8.11" height="5.39" rx="0.16" style="fill:white;" /><polygon points="10.53,6.57 10.54,8.46 8.88,9.42 8.89,7.52 10.53,6.57" style="fill:#0078D4;" /><polygon points="10.53,6.56 8.89,7.52 7.24,6.56 8.88,5.61 10.53,6.56" style="fill:#83B9F9;" /><polygon points="8.89,7.52 8.88,9.42 7.23,8.46 7.23,6.56 8.89,7.52" style="fill:#5EA0EF;" /><polygon points="8.89,7.51 8.88,7.52 8.88,9.42 8.88,9.42 10.53,8.46 8.89,7.51" opacity="0.2" style="fill:#5EA0EF;" /><polygon points="8.87,7.54 8.88,7.54 8.88,9.44 8.88,9.44 7.23,8.49 8.87,7.54" opacity="0.2" style="fill:#83B9F9;" /></svg>