<?xml version="1.0" encoding="UTF-8"?>
<svg xmlns="http://www.w3.org/2000/svg" xmlns:xlink="http://www.w3.org/1999/xlink" width="63pt" height="70pt" viewBox="0 0 63 70" version="1.1">
<g id="surface1">
<path style=" stroke:none;fill-rule:nonzero;fill:rgb(0%,47.058824%,84.313725%);fill-opacity:1;" d="M 62.71875 38.640625 C 62.71875 28.421875 57.820313 19.460938 50.398438 13.71875 C 50.398438 14 50.398438 14.421875 50.398438 14.699219 C 50.398438 17.78125 49.558594 20.71875 48.300781 23.238281 C 51.941406 27.300781 54.179688 32.621094 54.179688 38.5 C 54.179688 51.101563 43.960938 61.320313 31.359375 61.320313 C 18.761719 61.320313 8.539063 51.101563 8.539063 38.5 C 8.539063 32.199219 11.058594 26.601563 15.121094 22.398438 C 14 20.019531 13.300781 17.359375 13.300781 14.558594 C 13.300781 14 13.300781 13.300781 13.441406 12.738281 C 5.320313 18.339844 0 27.859375 0 38.5 C 0 55.859375 14 69.859375 31.359375 69.859375 C 48.71875 69.859375 62.71875 56 62.71875 38.640625 Z M 62.71875 38.640625 "/>
<path style=" stroke:none;fill-rule:nonzero;fill:rgb(0%,47.058824%,84.313725%);fill-opacity:1;" d="M 31.78125 0 C 23.800781 0 17.359375 6.441406 17.359375 14.421875 C 17.359375 21 21.699219 26.460938 27.71875 28.28125 L 27.71875 42.558594 L 21 42.558594 L 21 49.839844 L 27.71875 49.839844 L 27.71875 55.160156 L 35.699219 55.160156 L 35.699219 28.28125 C 41.71875 26.601563 46.058594 21 46.058594 14.421875 C 46.199219 6.441406 39.761719 0 31.78125 0 Z M 31.78125 7.558594 C 35.558594 7.558594 38.640625 10.640625 38.640625 14.421875 C 38.640625 18.199219 35.558594 21.28125 31.78125 21.28125 C 28 21.28125 24.921875 18.199219 24.921875 14.421875 C 24.921875 10.640625 28 7.558594 31.78125 7.558594 Z M 31.78125 7.558594 "/>
</g>
</svg>
