<?xml version="1.0" encoding="UTF-8"?>
<svg xmlns="http://www.w3.org/2000/svg" xmlns:xlink="http://www.w3.org/1999/xlink" width="70pt" height="70pt" viewBox="0 0 70 70" version="1.1">
<defs>
<linearGradient id="linear0" gradientUnits="userSpaceOnUse" x1="9" y1="16.795" x2="9" y2="1.205" gradientTransform="matrix(3.888889,0,0,3.888889,0,0)">
<stop offset="0" style="stop-color:rgb(0,138,240);stop-opacity:1;"/>
<stop offset="0.321" style="stop-color:rgb(0,145,252);stop-opacity:1;"/>
<stop offset="0.794" style="stop-color:rgb(29,159,255);stop-opacity:1;"/>
<stop offset="0.999" style="stop-color:rgb(47,166,255);stop-opacity:1;"/>
</linearGradient>
<filter id="alpha" filterUnits="objectBoundingBox" x="0%" y="0%" width="100%" height="100%">
  <feColorMatrix type="matrix" in="SourceGraphic" values="0 0 0 0 1 0 0 0 0 1 0 0 0 0 1 0 0 0 1 0"/>
</filter>
<mask id="mask0">
  <g filter="url(#alpha)">
<rect x="0" y="0" width="70" height="70" style="fill:rgb(0,0,0);fill-opacity:0.14902;stroke:none;"/>
  </g>
</mask>
<clipPath id="clip1">
  <rect x="0" y="0" width="70" height="70"/>
</clipPath>
<g id="surface5" clip-path="url(#clip1)">
<path style=" stroke:none;fill-rule:nonzero;fill:rgb(103,190,255);fill-opacity:1;" d="M 23.910156 29.78125 L 46.09375 29.78125 C 46.394531 29.785156 46.683594 29.894531 46.910156 30.09375 L 23.09375 46.277344 C 22.808594 46.046875 22.644531 45.703125 22.640625 45.339844 L 22.640625 31.03125 C 22.65625 30.339844 23.21875 29.785156 23.910156 29.78125 Z M 23.910156 29.78125 "/>
</g>
<mask id="mask1">
  <g filter="url(#alpha)">
<rect x="0" y="0" width="70" height="70" style="fill:rgb(0,0,0);fill-opacity:0.0901961;stroke:none;"/>
  </g>
</mask>
<clipPath id="clip2">
  <rect x="0" y="0" width="70" height="70"/>
</clipPath>
<g id="surface8" clip-path="url(#clip2)">
<path style=" stroke:none;fill-rule:nonzero;fill:rgb(71,176,255);fill-opacity:1;" d="M 46.09375 29.78125 L 23.90625 29.78125 C 23.605469 29.785156 23.316406 29.894531 23.09375 30.09375 L 46.90625 46.277344 C 47.191406 46.050781 47.359375 45.707031 47.363281 45.339844 L 47.363281 31.03125 C 47.347656 30.339844 46.785156 29.789063 46.09375 29.78125 Z M 46.09375 29.78125 "/>
</g>
</defs>
<g id="surface1">
<path style=" stroke:none;fill-rule:nonzero;fill:rgb(47,166,255);fill-opacity:1;" d="M 62.546875 32.8125 C 62.546875 50.589844 40.667969 64.898438 35.90625 67.8125 C 35.347656 68.152344 34.652344 68.152344 34.09375 67.8125 C 29.332031 64.910156 7.453125 50.601563 7.453125 32.8125 L 7.453125 11.425781 C 7.460938 10.492188 8.210938 9.734375 9.144531 9.722656 C 26.164063 9.277344 22.246094 1.945313 35 1.945313 C 47.753906 1.945313 43.835938 9.277344 60.855469 9.722656 C 61.785156 9.734375 62.535156 10.484375 62.546875 11.414063 Z M 62.546875 32.8125 "/>
<path style=" stroke:none;fill-rule:nonzero;fill:url(#linear0);" d="M 60.277344 32.996094 C 60.277344 49.296875 40.210938 62.421875 35.847656 65.082031 C 35.335938 65.390625 34.695313 65.390625 34.183594 65.082031 C 29.804688 62.421875 9.722656 49.296875 9.722656 32.996094 L 9.722656 13.382813 C 9.722656 12.523438 10.417969 11.824219 11.277344 11.824219 C 26.894531 11.414063 23.300781 4.6875 35 4.6875 C 46.699219 4.6875 43.105469 11.414063 58.722656 11.828125 C 59.582031 11.828125 60.277344 12.527344 60.277344 13.386719 Z M 60.277344 32.996094 "/>
<path style=" stroke:none;fill-rule:nonzero;fill:rgb(255,255,255);fill-opacity:1;" d="M 46.09375 29.789063 L 44.507813 29.789063 L 44.507813 24.277344 C 44.523438 21.671875 43.550781 19.160156 41.785156 17.242188 C 40.046875 15.339844 37.589844 14.253906 35.011719 14.253906 C 32.4375 14.253906 29.980469 15.339844 28.242188 17.242188 C 26.464844 19.148438 25.488281 21.667969 25.519531 24.273438 L 25.519531 29.789063 L 23.90625 29.789063 C 23.214844 29.792969 22.652344 30.34375 22.636719 31.035156 L 22.636719 45.351563 C 22.65625 46.039063 23.214844 46.589844 23.90625 46.597656 L 46.09375 46.597656 C 46.785156 46.589844 47.34375 46.039063 47.363281 45.351563 L 47.363281 31.035156 C 47.347656 30.34375 46.785156 29.792969 46.09375 29.789063 Z M 40.070313 29.789063 L 29.945313 29.789063 L 29.945313 24.183594 C 29.957031 22.742188 30.53125 21.363281 31.539063 20.335938 C 32.425781 19.347656 33.6875 18.78125 35.015625 18.78125 C 36.34375 18.78125 37.605469 19.347656 38.492188 20.335938 C 38.714844 20.574219 38.914063 20.835938 39.085938 21.113281 C 39.714844 22.019531 40.066406 23.085938 40.089844 24.1875 Z M 40.070313 29.789063 "/>
<use xlink:href="#surface5" mask="url(#mask0)"/>
<use xlink:href="#surface8" mask="url(#mask1)"/>
</g>
</svg>
