<?xml version="1.0" encoding="UTF-8"?>
<svg xmlns="http://www.w3.org/2000/svg" xmlns:xlink="http://www.w3.org/1999/xlink" width="70pt" height="70pt" viewBox="0 0 70 70" version="1.1">
<defs>
<filter id="alpha" filterUnits="objectBoundingBox" x="0%" y="0%" width="100%" height="100%">
  <feColorMatrix type="matrix" in="SourceGraphic" values="0 0 0 0 1 0 0 0 0 1 0 0 0 0 1 0 0 0 1 0"/>
</filter>
<mask id="mask0">
  <g filter="url(#alpha)">
<rect x="0" y="0" width="70" height="70" style="fill:rgb(0,0,0);fill-opacity:0.4;stroke:none;"/>
  </g>
</mask>
<clipPath id="clip1">
  <rect x="0" y="0" width="70" height="70"/>
</clipPath>
<g id="surface5" clip-path="url(#clip1)">
<path style=" stroke:none;fill-rule:nonzero;fill:rgb(63,173,255);fill-opacity:1;" d="M 35 35 L 35 56 L 37.917969 53.082031 L 37.917969 34.417969 C 36.964844 34.699219 35.988281 34.894531 35 35 Z M 35 35 "/>
</g>
<mask id="mask1">
  <g filter="url(#alpha)">
<rect x="0" y="0" width="70" height="70" style="fill:rgb(0,0,0);fill-opacity:0.4;stroke:none;"/>
  </g>
</mask>
<clipPath id="clip2">
  <rect x="0" y="0" width="70" height="70"/>
</clipPath>
<g id="surface8" clip-path="url(#clip2)">
<path style=" stroke:none;fill-rule:nonzero;fill:rgb(255,255,255);fill-opacity:1;" d="M 33.542969 29.167969 C 38.65625 29.21875 43.019531 25.480469 43.75 20.417969 L 23.332031 20.417969 C 24.0625 25.480469 28.425781 29.21875 33.542969 29.167969 Z M 33.542969 29.167969 "/>
</g>
</defs>
<g id="surface1">
<path style=" stroke:none;fill-rule:nonzero;fill:rgb(147,209,255);fill-opacity:1;" d="M 33.542969 2.917969 C 24.792969 2.917969 17.5 10.207031 17.5 18.957031 C 17.5 26.25 22.167969 32.082031 28.292969 34.125 L 24.792969 37.917969 L 29.167969 41.707031 L 24.792969 45.792969 L 29.167969 49.582031 L 24.792969 53.957031 L 33.542969 62.125 L 40.832031 54.542969 L 40.832031 33.25 C 46.082031 30.332031 49.582031 25.082031 49.582031 18.667969 C 49.582031 9.917969 42.292969 2.917969 33.542969 2.917969 Z M 36.457031 14.582031 C 36.457031 14.582031 35.875 14.582031 35.582031 15.167969 C 35.292969 15.75 35 15.75 34.707031 15.75 L 32.082031 15.75 L 31.5 15.167969 L 30.917969 14.292969 L 30.917969 11.667969 L 31.5 11.082031 L 32.375 10.5 L 35 10.5 L 35.582031 11.082031 L 36.167969 11.957031 L 36.167969 14.582031 Z M 36.457031 14.582031 "/>
<use xlink:href="#surface5" mask="url(#mask0)"/>
<use xlink:href="#surface8" mask="url(#mask1)"/>
<path style=" stroke:none;fill-rule:nonzero;fill:rgb(39,163,255);fill-opacity:1;" d="M 50.75 11.082031 C 51.625 12.832031 51.917969 14 52.207031 16.042969 C 57.84375 21.328125 61.015625 28.730469 60.957031 36.457031 C 60.957031 51.625 48.417969 64.167969 33.25 64.167969 C 18.082031 64.167969 5.832031 51.625 5.832031 36.457031 C 5.773438 28.730469 8.945313 21.328125 14.582031 16.042969 L 16.332031 11.082031 C 7.929688 16.792969 2.902344 26.296875 2.917969 36.457031 C 2.917969 53.375 16.625 67.082031 33.542969 67.082031 C 50.457031 67.082031 64.167969 53.375 64.167969 36.457031 C 64.167969 25.957031 58.917969 16.625 50.75 11.082031 Z M 50.75 11.082031 "/>
</g>
</svg>
