<?xml version="1.0" encoding="UTF-8"?>
<svg xmlns="http://www.w3.org/2000/svg" xmlns:xlink="http://www.w3.org/1999/xlink" width="70pt" height="70pt" viewBox="0 0 70 70" version="1.1">
<g id="surface1">
<path style=" stroke:none;fill-rule:nonzero;fill:rgb(0,0,0);fill-opacity:1;" d="M 17.5 0 C 10.5 -0.4375 4.8125 5.25 4.375 12.25 L 4.375 13.125 C 3.9375 20.125 9.625 25.8125 16.625 26.25 L 17.5 26.25 C 24.5 26.6875 30.1875 21 30.625 14 L 30.625 13.125 C 31.0625 6.125 25.375 0.4375 18.375 0 Z M 17.5 21.875 C 12.6875 21.875 8.75 17.9375 8.75 13.125 C 8.75 8.3125 12.6875 4.375 17.5 4.375 C 22.3125 4.375 26.25 8.3125 26.25 13.125 C 26.25 17.9375 22.3125 21.875 17.5 21.875 Z M 45.9375 21.875 C 37.625 21.875 30.625 28.875 30.625 37.1875 C 30.625 45.5 37.625 52.5 45.9375 52.5 C 54.25 52.5 61.25 45.5 61.25 37.1875 C 61.25 28.875 54.25 21.875 45.9375 21.875 Z M 45.9375 48.125 C 39.8125 48.125 35 43.3125 35 37.1875 C 35 31.0625 39.8125 26.25 45.9375 26.25 C 52.0625 26.25 56.875 31.0625 56.875 37.1875 C 56.875 43.3125 52.0625 48.125 45.9375 48.125 Z M 45.9375 48.125 "/>
<path style=" stroke:none;fill-rule:nonzero;fill:rgb(0,0,0);fill-opacity:1;" d="M 30.625 39.375 L 35 39.375 C 35 29.75 27.125 21.875 17.5 21.875 C 7.875 21.875 0 29.75 0 39.375 L 4.375 39.375 C 3.9375 32.375 9.625 26.6875 16.625 26.25 L 17.5 26.25 C 24.5 26.25 29.75 31.0625 30.625 39.375 Z M 26.6875 70 C 28 60.375 35.875 52.5 45.9375 52.5 C 56 52.5 64.3125 60.375 65.1875 70 L 69.5625 70 C 68.25 57.75 58.1875 48.125 45.5 48.125 C 32.8125 48.125 23.1875 57.75 21.875 70 Z M 26.6875 70 "/>
</g>
</svg>
