<?xml version="1.0" encoding="utf-8"?><svg version="1.1" xmlns="http://www.w3.org/2000/svg" xmlns:xlink="http://www.w3.org/1999/xlink" xmlns:xml="http://www.w3.org/XML/1998/namespace" width="70" height="70" viewBox="0, 0, 18, 18" id="a12d75ea-cbb6-44fa-832a-e54cce009101"><defs><linearGradient x1="9" y1="16.79" x2="9" y2="1.21" gradientUnits="userSpaceOnUse" id="e2b13d81-97e0-465a-b9ed-b7f57e1b3f8c"><stop offset="0%" stop-color="#0078D4" /><stop offset="6%" stop-color="#0A7CD7" /><stop offset="34%" stop-color="#2E8CE1" /><stop offset="59%" stop-color="#4897E9" /><stop offset="82%" stop-color="#589EED" /><stop offset="100%" stop-color="#5EA0EF" /></linearGradient></defs><title>Icon-identity-233</title><path d="M16.08 8.44 c0 4.57 -5.62 8.25 -6.85 9 a0.43 0.43 0 0 1 -0.46 0 c-1.23 -0.74 -6.85 -4.42 -6.85 -9 V2.94 a0.44 0.44 0 0 1 0.43 -0.44 C6.73 2.39 5.72 0.5 9 0.5 s2.27 1.89 6.65 2 a0.44 0.44 0 0 1 0.43 0.44 Z" style="fill:#0078D4;" /><path d="M15.5 8.48 c0 4.2 -5.16 7.57 -6.29 8.25 a0.4 0.4 0 0 1 -0.42 0 C7.66 16.05 2.5 12.68 2.5 8.48 v-5 A0.41 0.41 0 0 1 2.9 3 C6.92 2.93 6 1.21 9 1.21 S11.08 2.93 15.1 3 a0.41 0.41 0 0 1 0.4 0.4 Z" style="fill:url(#e2b13d81-97e0-465a-b9ed-b7f57e1b3f8c);" /><path d="M11.85 7.66 h-0.4 V6.24 a2.62 2.62 0 0 0 -0.7 -1.81 a2.37 2.37 0 0 0 -3.48 0 a2.61 2.61 0 0 0 -0.7 1.81 V7.66 h-0.4 A0.32 0.32 0 0 0 5.82 8 v3.68 a0.32 0.32 0 0 0 0.33 0.32 h5.7 a0.32 0.32 0 0 0 0.33 -0.32 V8 A0.32 0.32 0 0 0 11.85 7.66 Z m-1.55 0 H7.7 V6.22 a1.43 1.43 0 0 1 0.41 -1 a1.19 1.19 0 0 1 1.78 0 a1.56 1.56 0 0 1 0.16 0.2 h0 a1.4 1.4 0 0 1 0.25 0.79 Z" style="fill:#FFBD02;" /><path d="M6.15 7.66 h5.7 a0.32 0.32 0 0 1 0.21 0.08 L5.94 11.9 a0.33 0.33 0 0 1 -0.12 -0.24 V8 A0.32 0.32 0 0 1 6.15 7.66 Z" style="fill:#FFE452;" /><path d="M11.85 7.66 H6.15 a0.32 0.32 0 0 0 -0.21 0.08 l6.12 4.16 a0.3 0.3 0 0 0 0.12 -0.24 V8 A0.32 0.32 0 0 0 11.85 7.66 Z" opacity="0.5" style="fill:#FFD400;" /></svg>