<?xml version="1.0" encoding="UTF-8"?>
<svg xmlns="http://www.w3.org/2000/svg" xmlns:xlink="http://www.w3.org/1999/xlink" width="70pt" height="70pt" viewBox="0 0 70 70" version="1.1">
<defs>
<linearGradient id="linear0" gradientUnits="userSpaceOnUse" x1="9" y1="17.253" x2="9" y2="0.747" gradientTransform="matrix(3.888889,0,0,3.888889,0,0)">
<stop offset="0" style="stop-color:rgb(31.372549%,90.196078%,100%);stop-opacity:1;"/>
<stop offset="1" style="stop-color:rgb(61.176471%,92.156863%,100%);stop-opacity:1;"/>
</linearGradient>
</defs>
<g id="surface1">
<path style=" stroke:none;fill-rule:nonzero;fill:rgb(31.372549%,90.196078%,100%);fill-opacity:1;" d="M 63.636719 32.667969 C 63.636719 51.488281 40.890625 66.640625 35.941406 69.710938 C 35.363281 70.070313 34.636719 70.070313 34.058594 69.710938 C 29.109375 66.640625 6.363281 51.488281 6.363281 32.667969 L 6.363281 10.042969 C 6.363281 9.066406 7.144531 8.269531 8.121094 8.246094 C 25.8125 7.777344 21.738281 0 35 0 C 48.261719 0 44.1875 7.777344 61.878906 8.246094 C 62.855469 8.269531 63.636719 9.066406 63.636719 10.042969 Z M 63.636719 32.667969 "/>
<path style=" stroke:none;fill-rule:nonzero;fill:url(#linear0);" d="M 61.265625 32.875 C 61.265625 50.136719 40.402344 64.03125 35.863281 66.851563 C 35.335938 67.179688 34.664063 67.179688 34.136719 66.851563 C 29.597656 64.03125 8.734375 50.128906 8.734375 32.875 L 8.734375 12.109375 C 8.738281 11.214844 9.453125 10.484375 10.347656 10.464844 C 26.578125 10.027344 22.839844 2.90625 35 2.90625 C 47.160156 2.90625 43.421875 10.027344 59.652344 10.464844 C 60.546875 10.484375 61.261719 11.214844 61.265625 12.109375 Z M 61.265625 32.875 "/>
<path style=" stroke:none;fill-rule:nonzero;fill:rgb(100%,100%,100%);fill-opacity:1;" d="M 43.304688 31.253906 C 43.304688 34.007813 41.074219 36.238281 38.320313 36.238281 C 35.570313 36.238281 33.339844 34.007813 33.339844 31.253906 C 33.339844 28.503906 35.570313 26.273438 38.320313 26.273438 C 41.074219 26.273438 43.304688 28.503906 43.304688 31.253906 Z M 43.304688 31.253906 "/>
<path style=" stroke:none;fill-rule:nonzero;fill:rgb(100%,100%,100%);fill-opacity:1;" d="M 34.53125 43.394531 C 34.53125 45.253906 33.023438 46.761719 31.164063 46.761719 C 29.308594 46.761719 27.800781 45.253906 27.800781 43.394531 C 27.800781 41.539063 29.308594 40.03125 31.164063 40.03125 C 33.023438 40.03125 34.53125 41.539063 34.53125 43.394531 Z M 34.53125 43.394531 "/>
<path style=" stroke:none;fill-rule:nonzero;fill:rgb(100%,100%,100%);fill-opacity:1;" d="M 32.910156 17.777344 C 32.910156 20.082031 31.042969 21.949219 28.738281 21.949219 C 26.433594 21.949219 24.566406 20.082031 24.566406 17.777344 C 24.566406 15.472656 26.433594 13.601563 28.738281 13.601563 C 31.042969 13.601563 32.910156 15.472656 32.910156 17.777344 Z M 32.910156 17.777344 "/>
<path style=" stroke:none;fill-rule:nonzero;fill:rgb(90.196078%,90.196078%,90.196078%);fill-opacity:1;" d="M 47.578125 45.289063 L 39.15625 30.546875 L 38.320313 31.03125 L 39.003906 30.523438 L 29.46875 16.96875 L 27.726563 18.234375 L 36.175781 30.242188 L 17.457031 31.789063 L 17.636719 33.960938 L 36.175781 32.421875 L 30.027344 42.636719 L 31.875 43.75 L 38.195313 33.230469 L 45.707031 46.355469 Z M 47.578125 45.289063 "/>
<path style=" stroke:none;fill-rule:nonzero;fill:rgb(100%,100%,100%);fill-opacity:1;" d="M 38.320313 26.324219 C 41.113281 26.324219 43.375 28.585938 43.375 31.378906 C 43.375 34.171875 41.113281 36.433594 38.320313 36.433594 C 35.527344 36.433594 33.265625 34.171875 33.265625 31.378906 L 33.265625 31.253906 C 33.332031 28.511719 35.578125 26.324219 38.320313 26.324219 Z M 24.667969 17.769531 C 24.648438 19.46875 25.660156 21.011719 27.226563 21.675781 C 28.792969 22.339844 30.601563 21.996094 31.816406 20.804688 C 33.027344 19.609375 33.398438 17.800781 32.757813 16.226563 C 32.117188 14.652344 30.585938 13.617188 28.886719 13.609375 L 28.777344 13.609375 C 26.5 13.640625 24.667969 15.496094 24.667969 17.777344 Z M 14.199219 33.128906 C 14.199219 34.988281 15.707031 36.492188 17.5625 36.492188 C 19.421875 36.492188 20.925781 34.984375 20.925781 33.125 C 20.925781 31.269531 19.417969 29.761719 17.558594 29.765625 C 15.703125 29.769531 14.199219 31.273438 14.199219 33.128906 Z M 27.808594 43.367188 C 27.792969 45.242188 29.300781 46.773438 31.175781 46.785156 C 33.046875 46.800781 34.578125 45.292969 34.589844 43.421875 C 34.605469 41.546875 33.097656 40.019531 31.222656 40.003906 L 31.1875 40.003906 C 29.332031 39.996094 27.816406 41.488281 27.800781 43.34375 Z M 42.78125 46.089844 C 42.765625 48.257813 44.507813 50.027344 46.671875 50.042969 C 48.839844 50.058594 50.605469 48.3125 50.621094 46.148438 C 50.636719 43.980469 48.890625 42.214844 46.726563 42.203125 L 46.703125 42.203125 C 44.570313 42.167969 42.816406 43.867188 42.777344 45.996094 Z M 42.78125 46.089844 "/>
</g>
</svg>
