<?xml version="1.0" encoding="utf-8"?><svg viewBox="0 0 16 16" class="msportalfx-svg-palette-blue" role="presentation" focusable="false" xmlns="http://www.w3.org/2000/svg" xmlns:xlink="http://www.w3.org/1999/xlink" id="FxSymbol0-05b" data-type="45" width="100%" height="70" preserveAspectRatio="xMidYMid meet"><g><title></title><path d="M4 0C2.4-.1 1.1 1.2 1 2.8V3C.9 4.6 2.2 5.9 3.8 6H4c1.6.1 2.9-1.2 3-2.8V3C7.1 1.4 5.8.1 4.2 0H4zm0 5c-1.1 0-2-.9-2-2s.9-2 2-2 2 .9 2 2-.9 2-2 2zm6.5 0C8.6 5 7 6.6 7 8.5S8.6 12 10.5 12 14 10.4 14 8.5 12.4 5 10.5 5zm0 6C9.1 11 8 9.9 8 8.5S9.1 6 10.5 6 13 7.1 13 8.5 11.9 11 10.5 11z"></path><path d="M7 9h1c0-2.2-1.8-4-4-4S0 6.8 0 9h1C.9 7.4 2.2 6.1 3.8 6H4c1.6 0 2.8 1.1 3 3zm-.9 7c.3-2.2 2.1-4 4.4-4s4.2 1.8 4.4 4h1c-.3-2.8-2.6-5-5.5-5S5.3 13.2 5 16h1.1z"></path></g><defs></defs></svg>