<?xml version="1.0" encoding="UTF-8"?>
<svg xmlns="http://www.w3.org/2000/svg" xmlns:xlink="http://www.w3.org/1999/xlink" width="70pt" height="70pt" viewBox="0 0 70 70" version="1.1">
<defs>
<linearGradient id="linear0" gradientUnits="userSpaceOnUse" x1="9" y1="16.79" x2="9" y2="1.21" gradientTransform="matrix(3.888889,0,0,3.888889,0,0)">
<stop offset="0" style="stop-color:rgb(0%,47.058824%,83.137255%);stop-opacity:1;"/>
<stop offset="0.06" style="stop-color:rgb(3.921569%,48.627451%,84.313725%);stop-opacity:1;"/>
<stop offset="0.34" style="stop-color:rgb(18.039216%,54.901961%,88.235294%);stop-opacity:1;"/>
<stop offset="0.59" style="stop-color:rgb(28.235294%,59.215686%,91.372549%);stop-opacity:1;"/>
<stop offset="0.82" style="stop-color:rgb(34.509804%,61.960784%,92.941176%);stop-opacity:1;"/>
<stop offset="1" style="stop-color:rgb(36.862745%,62.745098%,93.72549%);stop-opacity:1;"/>
</linearGradient>
<filter id="alpha" filterUnits="objectBoundingBox" x="0%" y="0%" width="100%" height="100%">
  <feColorMatrix type="matrix" in="SourceGraphic" values="0 0 0 0 1 0 0 0 0 1 0 0 0 0 1 0 0 0 1 0"/>
</filter>
<mask id="mask0">
  <g filter="url(#alpha)">
<rect x="0" y="0" width="70" height="70" style="fill:rgb(0%,0%,0%);fill-opacity:0.501961;stroke:none;"/>
  </g>
</mask>
<clipPath id="clip1">
  <rect x="0" y="0" width="70" height="70"/>
</clipPath>
<g id="surface5" clip-path="url(#clip1)">
<path style=" stroke:none;fill-rule:nonzero;fill:rgb(100%,83.137255%,0%);fill-opacity:1;" d="M 46.082031 29.789063 L 23.917969 29.789063 C 23.617188 29.789063 23.324219 29.902344 23.101563 30.101563 L 46.898438 46.277344 C 47.195313 46.058594 47.367188 45.710938 47.367188 45.34375 L 47.367188 31.109375 C 47.390625 30.761719 47.261719 30.417969 47.019531 30.164063 C 46.773438 29.914063 46.433594 29.777344 46.082031 29.789063 Z M 46.082031 29.789063 "/>
</g>
</defs>
<g id="surface1">
<path style=" stroke:none;fill-rule:nonzero;fill:rgb(0%,47.058824%,83.137255%);fill-opacity:1;" d="M 62.535156 32.820313 C 62.535156 50.59375 40.679688 64.90625 35.894531 67.820313 C 35.347656 68.167969 34.652344 68.167969 34.105469 67.820313 C 29.320313 64.945313 7.464844 50.632813 7.464844 32.820313 L 7.464844 11.433594 C 7.464844 10.503906 8.210938 9.742188 9.140625 9.722656 C 26.171875 9.292969 22.246094 1.945313 35 1.945313 C 47.753906 1.945313 43.828125 9.292969 60.859375 9.722656 C 61.789063 9.742188 62.535156 10.503906 62.535156 11.433594 Z M 62.535156 32.820313 "/>
<path style=" stroke:none;fill-rule:nonzero;fill:url(#linear0);" d="M 60.277344 32.976563 C 60.277344 49.3125 40.210938 62.417969 35.816406 65.0625 C 35.316406 65.371094 34.683594 65.371094 34.183594 65.0625 C 29.789063 62.417969 9.722656 49.3125 9.722656 32.976563 L 9.722656 13.535156 C 9.640625 13.074219 9.769531 12.601563 10.066406 12.242188 C 10.367188 11.882813 10.808594 11.671875 11.277344 11.667969 C 26.910156 11.394531 23.332031 4.707031 35 4.707031 C 46.667969 4.707031 43.089844 11.394531 58.722656 11.667969 C 59.574219 11.6875 60.257813 12.371094 60.277344 13.222656 Z M 60.277344 32.976563 "/>
<path style=" stroke:none;fill-rule:nonzero;fill:rgb(100%,74.117647%,0.784314%);fill-opacity:1;" d="M 46.082031 29.789063 L 44.527344 29.789063 L 44.527344 24.265625 C 44.554688 21.660156 43.582031 19.140625 41.804688 17.226563 C 40.0625 15.339844 37.609375 14.269531 35.039063 14.269531 C 32.46875 14.269531 30.015625 15.339844 28.273438 17.226563 C 26.492188 19.136719 25.519531 21.65625 25.550781 24.265625 L 25.550781 29.789063 L 23.996094 29.789063 C 23.628906 29.753906 23.269531 29.878906 23.007813 30.136719 C 22.746094 30.390625 22.609375 30.746094 22.632813 31.109375 L 22.632813 45.421875 C 22.632813 45.757813 22.769531 46.082031 23.011719 46.316406 C 23.253906 46.550781 23.578125 46.675781 23.917969 46.667969 L 46.082031 46.667969 C 46.421875 46.675781 46.746094 46.550781 46.988281 46.316406 C 47.230469 46.082031 47.367188 45.757813 47.367188 45.421875 L 47.367188 31.109375 C 47.390625 30.761719 47.261719 30.417969 47.019531 30.164063 C 46.773438 29.914063 46.433594 29.777344 46.082031 29.789063 Z M 40.054688 29.789063 L 29.945313 29.789063 L 29.945313 24.1875 C 29.945313 22.734375 30.519531 21.335938 31.539063 20.300781 C 32.417969 19.308594 33.675781 18.746094 35 18.746094 C 36.324219 18.746094 37.582031 19.308594 38.460938 20.300781 C 38.691406 20.542969 38.898438 20.800781 39.082031 21.078125 C 39.710938 21.980469 40.050781 23.050781 40.054688 24.148438 Z M 40.054688 29.789063 "/>
<path style=" stroke:none;fill-rule:nonzero;fill:rgb(100%,89.411765%,32.156863%);fill-opacity:1;" d="M 23.917969 29.789063 L 46.082031 29.789063 C 46.382813 29.789063 46.675781 29.902344 46.898438 30.101563 L 23.101563 46.277344 C 22.820313 46.046875 22.648438 45.707031 22.632813 45.34375 L 22.632813 31.109375 C 22.609375 30.761719 22.738281 30.417969 22.980469 30.164063 C 23.226563 29.914063 23.566406 29.777344 23.917969 29.789063 Z M 23.917969 29.789063 "/>
<use xlink:href="#surface5" mask="url(#mask0)"/>
</g>
</svg>
