<?xml version="1.0" encoding="utf-8"?><svg version="1.1" xmlns="http://www.w3.org/2000/svg" xmlns:xlink="http://www.w3.org/1999/xlink" xmlns:xml="http://www.w3.org/XML/1998/namespace" width="70" height="70" viewBox="0, 0, 18, 18" id="fe62c4da-ab98-4bb3-a1a5-9a22b229614c"><defs><linearGradient x1="9" y1="16.795" x2="9" y2="1.205" gradientUnits="userSpaceOnUse" id="f36136e6-f568-4134-ab6f-c0fefbc04f83"><stop offset="0%" stop-color="#5E9624" /><stop offset="32.1%" stop-color="#639D26" /><stop offset="79.4%" stop-color="#6FB12A" /><stop offset="99.9%" stop-color="#76BC2D" /></linearGradient></defs><g><path d="M16.083 8.438 c0 4.571 -5.626 8.25 -6.85 9 a0.449 0.449 0 0 1 -0.466 0 c-1.224 -0.747 -6.85 -4.426 -6.85 -9 v-5.5 A0.44 0.44 0 0 1 2.351 2.5 C6.728 2.386 5.72 0.5 9 0.5 s2.272 1.886 6.649 2 a0.44 0.44 0 0 1 0.434 0.435 Z" style="fill:#76BC2D;" /><path d="M15.5 8.485 c0 4.191 -5.16 7.566 -6.282 8.25 a0.412 0.412 0 0 1 -0.428 0 C7.664 16.051 2.5 12.676 2.5 8.485 V3.441 a0.4 0.4 0 0 1 0.4 -0.4 C6.916 2.935 5.992 1.205 9 1.205 s2.084 1.73 6.1 1.837 a0.4 0.4 0 0 1 0.4 0.4 Z" style="fill:url(#f36136e6-f568-4134-ab6f-c0fefbc04f83);" /><path d="M11.853 7.66 h-0.408 l0 -1.417 a2.652 2.652 0 0 0 -0.7 -1.809 a2.358 2.358 0 0 0 -3.483 0 a2.606 2.606 0 0 0 -0.7 1.808 V7.66 H6.147 a0.328 0.328 0 0 0 -0.326 0.32 v3.682 a0.329 0.329 0 0 0 0.326 0.32 h5.706 a0.329 0.329 0 0 0 0.326 -0.32 V7.98 A0.328 0.328 0 0 0 11.853 7.66 Z m-1.549 0 H7.7 V6.219 a1.434 1.434 0 0 1 0.41 -0.99 a1.2 1.2 0 0 1 1.788 0 a1.394 1.394 0 0 1 0.153 0.2 h0 a1.445 1.445 0 0 1 0.258 0.791 Z" style="fill:white;" /><path d="M6.148 7.658 h5.705 a0.328 0.328 0 0 1 0.21 0.08 L5.938 11.9 a0.313 0.313 0 0 1 -0.116 -0.241 V7.979 A0.328 0.328 0 0 1 6.148 7.658 Z" opacity="0.15" style="fill:#B3B3B3;" /><path d="M11.853 7.658 H6.147 a0.328 0.328 0 0 0 -0.209 0.08 L12.062 11.9 a0.314 0.314 0 0 0 0.117 -0.241 V7.979 A0.329 0.329 0 0 0 11.853 7.658 Z" opacity="0.09" style="fill:#A3A3A3;" /></g></svg>