<?xml version="1.0" encoding="utf-8"?><svg version="1.1" xmlns="http://www.w3.org/2000/svg" xmlns:xlink="http://www.w3.org/1999/xlink" xmlns:xml="http://www.w3.org/XML/1998/namespace" width="70" height="70" viewBox="0, 0, 16, 16" id="FxSymbol0-05b" class="msportalfx-svg-palette-blue" role="presentation" focusable="false" data-type="45"><g><title /><path d="M4 0 C2.4 -0.1 1.1 1.2 1 2.8 V3 C0.9 4.6 2.2 5.9 3.8 6 H4 c1.6 0.1 2.9 -1.2 3 -2.8 V3 C7.1 1.4 5.8 0.1 4.2 0 H4 z m0 5 c-1.1 0 -2 -0.9 -2 -2 s0.9 -2 2 -2 s2 0.9 2 2 s-0.9 2 -2 2 z m6.5 0 C8.6 5 7 6.6 7 8.5 S8.6 12 10.5 12 S14 10.4 14 8.5 S12.4 5 10.5 5 z m0 6 C9.1 11 8 9.9 8 8.5 S9.1 6 10.5 6 S13 7.1 13 8.5 S11.9 11 10.5 11 z" /><path d="M7 9 h1 c0 -2.2 -1.8 -4 -4 -4 S0 6.8 0 9 h1 C0.9 7.4 2.2 6.1 3.8 6 H4 c1.6 0 2.8 1.1 3 3 z m-0.9 7 c0.3 -2.2 2.1 -4 4.4 -4 s4.2 1.8 4.4 4 h1 c-0.3 -2.8 -2.6 -5 -5.5 -5 S5.3 13.2 5 16 h1.1 z" /></g><defs /></svg>