<?xml version="1.0" encoding="UTF-8"?>
<svg xmlns="http://www.w3.org/2000/svg" xmlns:xlink="http://www.w3.org/1999/xlink" width="61pt" height="70pt" viewBox="0 0 61 70" version="1.1">
<defs>
<filter id="alpha" filterUnits="objectBoundingBox" x="0%" y="0%" width="100%" height="100%">
  <feColorMatrix type="matrix" in="SourceGraphic" values="0 0 0 0 1 0 0 0 0 1 0 0 0 0 1 0 0 0 1 0"/>
</filter>
<mask id="mask0">
  <g filter="url(#alpha)">
<rect x="0" y="0" width="61" height="70" style="fill:rgb(0%,0%,0%);fill-opacity:0.14902;stroke:none;"/>
  </g>
</mask>
<clipPath id="clip1">
  <rect x="0" y="0" width="61" height="70"/>
</clipPath>
<g id="surface5" clip-path="url(#clip1)">
<path style=" stroke:none;fill-rule:nonzero;fill:rgb(100%,100%,100%);fill-opacity:1;" d="M 21.582031 62.09375 L 41.582031 4.890625 L 41.269531 4.679688 C 38.679688 2.953125 36.457031 1.453125 30.496094 1.453125 C 24.535156 1.453125 22.40625 2.910156 19.714844 4.695313 C 16.292969 6.992188 12.414063 9.601563 2.46875 10.1875 L 1.449219 10.285156 L 1.449219 31.75 C 1.449219 44.066406 12.757813 55.246094 21.578125 62.09375 Z M 21.582031 62.09375 "/>
</g>
</defs>
<g id="surface1">
<path style=" stroke:none;fill-rule:nonzero;fill:rgb(0%,44.705882%,77.647059%);fill-opacity:1;" d="M 29.164063 69.148438 C 22.324219 64.902344 0 49.605469 0 31.75 L 0 8.917969 L 2.386719 8.734375 C 11.933594 8.136719 15.636719 5.648438 18.90625 3.449219 C 21.691406 1.613281 24.09375 0 30.496094 0 C 36.902344 0 39.40625 1.683594 42.046875 3.464844 C 45.328125 5.648438 49.042969 8.175781 58.589844 8.761719 L 60.972656 8.917969 L 60.972656 31.75 C 60.972656 49.613281 38.644531 64.902344 31.804688 69.164063 L 30.46875 70 Z M 29.164063 69.148438 "/>
<use xlink:href="#surface5" mask="url(#mask0)"/>
<path style=" stroke:none;fill-rule:nonzero;fill:rgb(100%,100%,100%);fill-opacity:1;" d="M 30.496094 20.414063 L 30.511719 20.414063 C 38.742188 20.414063 45.621094 26.703125 46.390625 34.929688 L 46.394531 34.992188 L 53.644531 34.992188 C 52.972656 22.671875 42.855469 12.9375 30.476563 12.9375 C 18.097656 12.9375 7.984375 22.671875 7.316406 34.933594 L 7.3125 34.992188 L 14.5625 34.992188 C 15.316406 26.789063 22.140625 20.414063 30.445313 20.414063 Z M 30.496094 20.414063 "/>
<path style=" stroke:none;fill-rule:nonzero;fill:rgb(100%,100%,100%);fill-opacity:1;" d="M 39.066406 36.457031 C 39.066406 41.207031 35.230469 45.058594 30.496094 45.058594 C 25.765625 45.058594 21.929688 41.207031 21.929688 36.457031 C 21.929688 31.707031 25.765625 27.851563 30.496094 27.851563 C 35.230469 27.851563 39.066406 31.707031 39.066406 36.457031 Z M 39.066406 36.457031 "/>
</g>
</svg>
