<?xml version="1.0" encoding="UTF-8"?>
<svg xmlns="http://www.w3.org/2000/svg" xmlns:xlink="http://www.w3.org/1999/xlink" width="70pt" height="70pt" viewBox="0 0 70 70" version="1.1">
<defs>
<radialGradient id="radial0" gradientUnits="userSpaceOnUse" cx="9" cy="9" fx="9" fy="9" r="8.5" gradientTransform="matrix(3.888889,0,0,3.888889,0,0)">
<stop offset="0.18" style="stop-color:rgb(41,164,255);stop-opacity:1;"/>
<stop offset="0.56" style="stop-color:rgb(39,163,255);stop-opacity:1;"/>
<stop offset="0.69" style="stop-color:rgb(31,159,255);stop-opacity:1;"/>
<stop offset="0.78" style="stop-color:rgb(17,154,255);stop-opacity:1;"/>
<stop offset="0.86" style="stop-color:rgb(0,146,254);stop-opacity:1;"/>
<stop offset="0.93" style="stop-color:rgb(0,131,228);stop-opacity:1;"/>
<stop offset="0.99" style="stop-color:rgb(0,112,196);stop-opacity:1;"/>
<stop offset="1" style="stop-color:rgb(0,108,188);stop-opacity:1;"/>
</radialGradient>
<radialGradient id="radial1" gradientUnits="userSpaceOnUse" cx="38.95" cy="182.07" fx="38.95" fy="182.07" r="9.88" gradientTransform="matrix(3.655556,0,0,3.655556,-111.65,-634.822222)">
<stop offset="0.27" style="stop-color:rgb(153,211,255);stop-opacity:1;"/>
<stop offset="0.49" style="stop-color:rgb(141,206,255);stop-opacity:1;"/>
<stop offset="0.88" style="stop-color:rgb(105,191,255);stop-opacity:1;"/>
<stop offset="1" style="stop-color:rgb(93,186,255);stop-opacity:1;"/>
</radialGradient>
<filter id="alpha" filterUnits="objectBoundingBox" x="0%" y="0%" width="100%" height="100%">
  <feColorMatrix type="matrix" in="SourceGraphic" values="0 0 0 0 1 0 0 0 0 1 0 0 0 0 1 0 0 0 1 0"/>
</filter>
<mask id="mask0">
  <g filter="url(#alpha)">
<rect x="0" y="0" width="70" height="70" style="fill:rgb(0,0,0);fill-opacity:0.74902;stroke:none;"/>
  </g>
</mask>
<clipPath id="clip1">
  <rect x="0" y="0" width="70" height="70"/>
</clipPath>
<g id="surface5" clip-path="url(#clip1)">
<path style=" stroke:none;fill-rule:nonzero;fill:rgb(71,176,255);fill-opacity:1;" d="M 31.8125 59.5 C 32.074219 59.726563 32.445313 59.78125 32.761719 59.636719 C 33.078125 59.496094 33.28125 59.183594 33.289063 58.839844 L 33.289063 43.285156 C 33.285156 42.96875 33.125 42.675781 32.859375 42.503906 C 32.589844 42.328125 32.238281 42.320313 31.957031 42.484375 C 31.679688 42.648438 31.515625 42.957031 31.539063 43.285156 L 31.539063 58.839844 C 31.550781 59.082031 31.648438 59.316406 31.8125 59.5 Z M 31.8125 59.5 "/>
</g>
<mask id="mask1">
  <g filter="url(#alpha)">
<rect x="0" y="0" width="70" height="70" style="fill:rgb(0,0,0);fill-opacity:0.74902;stroke:none;"/>
  </g>
</mask>
<clipPath id="clip2">
  <rect x="0" y="0" width="70" height="70"/>
</clipPath>
<g id="surface8" clip-path="url(#clip2)">
<path style=" stroke:none;fill-rule:nonzero;fill:rgb(71,176,255);fill-opacity:1;" d="M 26.289063 22.515625 L 44.214844 22.515625 C 44.816406 22.515625 45.304688 23.003906 45.304688 23.605469 L 45.304688 23.800781 C 45.304688 24.402344 44.816406 24.890625 44.214844 24.890625 L 26.289063 24.890625 C 25.6875 24.890625 25.199219 24.402344 25.199219 23.800781 L 25.199219 23.605469 C 25.199219 23.003906 25.6875 22.515625 26.289063 22.515625 Z M 26.289063 22.515625 "/>
</g>
<mask id="mask2">
  <g filter="url(#alpha)">
<rect x="0" y="0" width="70" height="70" style="fill:rgb(0,0,0);fill-opacity:0.74902;stroke:none;"/>
  </g>
</mask>
<clipPath id="clip3">
  <rect x="0" y="0" width="70" height="70"/>
</clipPath>
<g id="surface11" clip-path="url(#clip3)">
<path style=" stroke:none;fill-rule:nonzero;fill:rgb(71,176,255);fill-opacity:1;" d="M 26.289063 26.367188 L 44.214844 26.367188 C 44.816406 26.367188 45.304688 26.855469 45.304688 27.457031 L 45.304688 27.648438 C 45.304688 28.25 44.816406 28.738281 44.214844 28.738281 L 26.289063 28.738281 C 25.6875 28.738281 25.199219 28.25 25.199219 27.648438 L 25.199219 27.457031 C 25.199219 26.855469 25.6875 26.367188 26.289063 26.367188 Z M 26.289063 26.367188 "/>
</g>
</defs>
<g id="surface1">
<path style=" stroke:none;fill-rule:nonzero;fill:url(#radial0);" d="M 35 1.945313 C 16.742188 1.945313 1.945313 16.742188 1.945313 35 C 1.945313 53.257813 16.742188 68.054688 35 68.054688 C 53.257813 68.054688 68.054688 53.257813 68.054688 35 C 68.035156 16.753906 53.246094 1.964844 35 1.945313 Z M 35 63.542969 C 19.234375 63.542969 6.457031 50.765625 6.457031 35 C 6.457031 19.234375 19.234375 6.457031 35 6.457031 C 50.765625 6.457031 63.542969 19.234375 63.542969 35 C 63.542969 50.765625 50.765625 63.542969 35 63.542969 Z M 35 63.542969 "/>
<path style=" stroke:none;fill-rule:nonzero;fill:rgb(255,255,255);fill-opacity:1;" d="M 63.542969 35 C 63.542969 50.765625 50.765625 63.542969 35 63.542969 C 19.234375 63.542969 6.457031 50.765625 6.457031 35 C 6.457031 19.234375 19.234375 6.457031 35 6.457031 C 50.765625 6.457031 63.542969 19.234375 63.542969 35 Z M 63.542969 35 "/>
<path style=" stroke:none;fill-rule:nonzero;fill:url(#radial1);" d="M 52.265625 28.503906 C 55.03125 25.714844 55.03125 21.222656 52.265625 18.433594 L 40.015625 6.144531 C 37.242188 3.386719 32.757813 3.386719 29.984375 6.144531 L 17.734375 18.433594 C 14.96875 21.222656 14.96875 25.714844 17.734375 28.503906 L 27.921875 38.890625 C 28.292969 39.261719 28.503906 39.761719 28.503906 40.289063 L 28.503906 59.265625 C 28.507813 59.90625 28.757813 60.519531 29.207031 60.976563 L 33.871094 65.644531 C 34.496094 66.265625 35.503906 66.265625 36.128906 65.644531 L 43.285156 58.488281 C 43.628906 58.117188 43.628906 57.539063 43.285156 57.167969 L 41.378906 55.261719 C 40.996094 54.855469 40.996094 54.226563 41.378906 53.820313 L 43.285156 51.917969 C 43.628906 51.542969 43.628906 50.96875 43.285156 50.59375 L 41.378906 48.6875 C 40.996094 48.285156 40.996094 47.652344 41.378906 47.25 L 43.285156 45.34375 C 43.628906 44.972656 43.628906 44.394531 43.285156 44.023438 L 40.640625 41.339844 L 40.640625 40.367188 Z M 35 9.140625 C 37.222656 9.140625 39.023438 10.941406 39.023438 13.164063 C 39.023438 15.386719 37.222656 17.1875 35 17.1875 C 32.777344 17.1875 30.976563 15.386719 30.976563 13.164063 C 30.976563 10.941406 32.777344 9.140625 35 9.140625 Z M 35 9.140625 "/>
<use xlink:href="#surface5" mask="url(#mask0)"/>
<use xlink:href="#surface8" mask="url(#mask1)"/>
<use xlink:href="#surface11" mask="url(#mask2)"/>
</g>
</svg>
