<?xml version="1.0" encoding="utf-8"?><svg version="1.1" xmlns="http://www.w3.org/2000/svg" xmlns:xlink="http://www.w3.org/1999/xlink" xmlns:xml="http://www.w3.org/XML/1998/namespace" width="70" height="70" viewBox="0, 0, 18, 18"><defs><linearGradient x1="9" y1="17.253" x2="9" y2="0.747" gradientUnits="userSpaceOnUse" id="a5d53553-f668-4fa0-ac9f-76a8e299111d"><stop offset="0%" stop-color="#50E6FF" /><stop offset="100%" stop-color="#9CEBFF" /></linearGradient></defs><g id="f76fd8a1-aad0-4269-a185-99003396b0d2"><path d="M16.364 8.4 c0 4.84 -5.849 8.736 -7.122 9.526 a0.459 0.459 0 0 1 -0.484 0 c-1.273 -0.79 -7.122 -4.686 -7.122 -9.526 V2.582 a0.463 0.463 0 0 1 0.452 -0.462 C6.638 2 5.59 0 9 0 s2.362 2 6.912 2.12 a0.463 0.463 0 0 1 0.452 0.462 Z" style="fill:#50E6FF;" /><path d="M15.754 8.454 c0 4.438 -5.365 8.011 -6.532 8.736 a0.418 0.418 0 0 1 -0.444 0 c-1.167 -0.725 -6.532 -4.3 -6.532 -8.736 V3.114 a0.425 0.425 0 0 1 0.415 -0.423 C6.834 2.578 5.873 0.747 9 0.747 s2.166 1.831 6.339 1.944 a0.425 0.425 0 0 1 0.415 0.423 Z" style="fill:url(#a5d53553-f668-4fa0-ac9f-76a8e299111d);" /><g><circle cx="9.854" cy="8.037" r="1.281" id="bd9e26ef-9621-4ac2-9050-88bfa7e8e115" style="fill:white;" /><circle cx="8.014" cy="11.159" r="0.865" id="f0b53d39-cbb6-45e7-9453-4ec356f6d390" style="fill:white;" /><circle cx="7.39" cy="4.571" r="1.073" id="b1fa952f-d6ee-4a6e-9fb6-6eed89da1783" style="fill:white;" /><polygon points="12.234,11.646 10.069,7.855 9.854,7.979 10.03,7.849 7.578,4.363 7.13,4.689 9.302,7.777 4.489,8.174 4.535,8.733 9.302,8.337 7.721,10.964 8.196,11.25 9.822,8.545 11.753,11.92 12.234,11.646" style="fill:#E6E6E6;" /><path d="M9.854 6.769 a1.3 1.3 0 1 1 -1.3 1.3 V8.037 A1.3 1.3 0 0 1 9.854 6.769 Z m-3.511 -2.2 A1.08 1.08 0 1 0 7.428 3.5 H7.4 A1.071 1.071 0 0 0 6.343 4.571 Z M3.651 8.519 a0.865 0.865 0 1 0 0.864 -0.865 a0.865 0.865 0 0 0 -0.864 0.865 Z m3.5 2.633 a0.872 0.872 0 1 0 0.878 -0.865 H8.02 a0.866 0.866 0 0 0 -0.871 0.859 Z m3.85 0.7 a1.008 1.008 0 1 0 1.014 -1 h-0.006 A0.994 0.994 0 0 0 11 11.828 Z" style="fill:white;" /></g></g>​
</svg>