<?xml version="1.0" encoding="UTF-8"?>
<svg xmlns="http://www.w3.org/2000/svg" xmlns:xlink="http://www.w3.org/1999/xlink" width="70pt" height="70pt" viewBox="0 0 70 70" version="1.1">
<defs>
<linearGradient id="linear0" gradientUnits="userSpaceOnUse" x1="9" y1="16.21" x2="9" y2="0.62" gradientTransform="matrix(3.888889,0,0,3.888889,0,0)">
<stop offset="0" style="stop-color:rgb(0,138,240);stop-opacity:1;"/>
<stop offset="0.21" style="stop-color:rgb(0,141,246);stop-opacity:1;"/>
<stop offset="0.44" style="stop-color:rgb(7,149,255);stop-opacity:1;"/>
<stop offset="0.69" style="stop-color:rgb(35,161,255);stop-opacity:1;"/>
<stop offset="0.95" style="stop-color:rgb(71,176,255);stop-opacity:1;"/>
<stop offset="1" style="stop-color:rgb(79,180,255);stop-opacity:1;"/>
</linearGradient>
</defs>
<g id="surface1">
<path style=" stroke:none;fill-rule:nonzero;fill:rgb(0,138,240);fill-opacity:1;" d="M 62.222656 32.820313 C 62.222656 50.59375 40.714844 64.90625 36.050781 67.820313 C 35.503906 68.167969 34.808594 68.167969 34.261719 67.820313 C 29.4375 64.90625 7.777344 50.554688 7.777344 32.820313 L 7.777344 11.433594 C 7.777344 10.503906 8.519531 9.742188 9.449219 9.722656 C 26.328125 9.292969 22.476563 1.945313 35 1.945313 C 47.523438 1.945313 43.671875 9.292969 60.394531 9.722656 C 61.324219 9.742188 62.066406 10.503906 62.066406 11.433594 Z M 62.222656 32.820313 "/>
<path style=" stroke:none;fill-rule:nonzero;fill:url(#linear0);" d="M 59.8125 32.976563 C 59.8125 49.3125 40.09375 62.417969 35.816406 65.0625 C 35.316406 65.371094 34.683594 65.371094 34.183594 65.0625 C 29.90625 62.417969 10.1875 49.3125 10.1875 32.976563 L 10.1875 13.535156 C 10.109375 13.085938 10.226563 12.625 10.507813 12.269531 C 10.792969 11.914063 11.210938 11.691406 11.667969 11.667969 C 26.988281 11.238281 23.332031 4.550781 35 4.550781 C 46.667969 4.550781 42.972656 11.394531 58.332031 11.667969 C 59.167969 11.707031 59.832031 12.386719 59.851563 13.222656 Z M 59.8125 32.976563 "/>
<path style=" stroke:none;fill-rule:nonzero;fill:rgb(201,232,255);fill-opacity:1;" d="M 35 25.394531 C 40.554688 25.414063 45.253906 29.503906 46.042969 35 C 46.214844 35.914063 47.019531 36.570313 47.949219 36.554688 L 53.394531 36.554688 C 53.933594 36.570313 54.453125 36.351563 54.824219 35.957031 C 55.195313 35.566406 55.382813 35.03125 55.339844 34.496094 C 54.222656 24.101563 45.453125 16.21875 35 16.21875 C 24.546875 16.21875 15.777344 24.101563 14.660156 34.496094 C 14.617188 35.03125 14.804688 35.566406 15.175781 35.957031 C 15.546875 36.351563 16.066406 36.570313 16.605469 36.554688 L 22.050781 36.554688 C 22.980469 36.570313 23.785156 35.914063 23.957031 35 C 24.746094 29.503906 29.445313 25.414063 35 25.394531 Z M 35 25.394531 "/>
<path style=" stroke:none;fill-rule:nonzero;fill:rgb(255,255,255);fill-opacity:1;" d="M 42.429688 36.554688 C 42.429688 40.65625 39.101563 43.984375 35 43.984375 C 30.898438 43.984375 27.570313 40.65625 27.570313 36.554688 C 27.570313 32.453125 30.898438 29.128906 35 29.128906 C 39.101563 29.128906 42.429688 32.453125 42.429688 36.554688 Z M 42.429688 36.554688 "/>
</g>
</svg>
