<?xml version="1.0" encoding="utf-8"?><svg version="1.1" xmlns="http://www.w3.org/2000/svg" xmlns:xlink="http://www.w3.org/1999/xlink" xmlns:xml="http://www.w3.org/XML/1998/namespace" width="70" height="70" viewBox="0, 0, 18, 18"><g id="b7868355-0001-41e8-84e1-ae842d94a5aa"><g><polygon points="12.1,2.05 12.1,5.85 8.9,7.75 8.9,3.95 12.1,2.05" style="fill:#773ADC;" /><path d="M10.7 4.062 c0.439 -0.263 0.7 -0.088 0.7 0.439 a1.776 1.776 0 0 1 -0.7 1.228 c-0.351 0.263 -0.7 0.088 -0.7 -0.439 A1.776 1.776 0 0 1 10.7 4.062 Z" style="fill:#552F99;" /><polygon points="12.1,2.05 8.9,3.95 5.6,2.05 8.9,0.15 12.1,2.05" style="fill:#B796F9;" /><polygon points="8.9,3.95 8.9,7.75 5.6,5.85 5.6,2.05 8.9,3.95" style="fill:#A67AF4;" /><path d="M7.116 4.05 c-0.4 -0.2 -0.8 0 -0.8 0.4 a1.441 1.441 0 0 0 0.8 1.3 c0.4 0.2 0.8 0 0.8 -0.4 A1.653 1.653 0 0 0 7.116 4.05 Z" style="fill:#773ADC;" /><polygon points="17.8,7.05 17.8,10.85 14.6,12.75 14.6,8.95 17.8,7.05" style="fill:#5E9624;" /><polygon points="14.6,8.95 14.6,12.75 11.4,10.85 11.4,7.05 14.6,8.95" style="fill:#76BC2D;" /><path d="M13.1 9.25 c-0.4 -0.2 -0.8 0 -0.8 0.4 a1.441 1.441 0 0 0 0.8 1.3 c0.4 0.2 0.8 0 0.8 -0.4 A1.653 1.653 0 0 0 13.1 9.25 Z" style="fill:#5E9624;" /><g><path d="M13.137 6.073 A5.151 5.151 0 0 0 11.2 4.65 a0.517 0.517 0 0 0 -0.7 0.3 a0.446 0.446 0 0 0 0.3 0.6 a4.256 4.256 0 0 1 1.459 1.017 Z" style="fill:#32BEDD;" /><path d="M13.134 8.079 c0.018 0.059 0.051 0.111 0.066 0.171 l0.12 -0.06 Z" style="fill:#32BEDD;" /></g><polygon points="6.7,7.25 6.7,10.95 3.4,12.85 3.4,9.15 6.7,7.25" style="fill:#258277;" /><polygon points="3.4,9.15 3.4,12.85 0.2,10.95 0.2,7.25 3.4,9.15" style="fill:#37C2B1;" /><path d="M7.4 4.95 a0.67 0.67 0 0 0 -0.8 -0.3 A6.6 6.6 0 0 0 4.742 6.123 L5.8 6.729 A4.646 4.646 0 0 1 7.1 5.75 A0.67 0.67 0 0 0 7.4 4.95 Z" style="fill:#32BEDD;" /><polygon points="12.4,12.15 12.4,15.95 9.2,17.85 9.2,14.05 12.4,12.15" style="fill:#D15900;" /><polygon points="9.2,14.05 9.2,17.85 6,15.95 6,12.15 9.2,14.05" style="fill:#F78D1E;" /><path d="M13.2 10.05 a0.521 0.521 0 0 0 -0.8 0.1 a5.26 5.26 0 0 1 -1.339 1.205 l0.966 0.573 A5.972 5.972 0 0 0 13.3 10.85 A0.521 0.521 0 0 0 13.2 10.05 Z" style="fill:#32BEDD;" /><path d="M5.212 9.188 c0.456 -0.249 0.788 -0.041 0.788 0.456 a1.809 1.809 0 0 1 -0.788 1.368 c-0.455 0.249 -0.787 0.041 -0.787 -0.456 A1.7 1.7 0 0 1 5.212 9.188 Z" style="fill:#207067;" /><path d="M7.423 11.305 A4.264 4.264 0 0 1 5.8 10.05 a0.529 0.529 0 0 0 -0.8 -0.1 a0.529 0.529 0 0 0 -0.1 0.8 a5.524 5.524 0 0 0 1.379 1.235 Z" style="fill:#32BEDD;" /><polygon points="12.4,12.15 9.2,14.05 6,12.15 9.2,10.25 12.4,12.15" style="fill:#FFB34D;" /><polygon points="6.7,7.25 3.4,9.15 0.2,7.25 3.4,5.35 6.7,7.25" style="fill:#42E8CA;" /><polygon points="17.8,7.05 14.6,8.95 11.4,7.05 14.6,5.25 17.8,7.05" style="fill:#B4EC36;" /></g></g></svg>