<?xml version="1.0" encoding="utf-8"?><svg version="1.1" xmlns="http://www.w3.org/2000/svg" xmlns:xlink="http://www.w3.org/1999/xlink" xmlns:xml="http://www.w3.org/XML/1998/namespace" width="70" height="70" viewBox="0, 0, 18, 18"><title>Icon-Blockchain-366</title><polygon points="13.13,2.4 13.13,6.99 9.18,9.3 9.18,4.7 13.13,2.4" style="fill:#773ADC;" /><path d="M11.45 4.71 c0.55 -0.32 1 -0.07 1 0.56 a2.18 2.18 0 0 1 -1 1.72 c-0.55 0.32 -1 0.07 -1 -0.57 A2.17 2.17 0 0 1 11.45 4.71 Z" style="fill:#552F99;" /><polygon points="7.9,11 7.9,15.59 3.95,17.9 3.95,13.3 7.9,11" style="fill:#773ADC;" /><path d="M5.92 13.53 c0.55 -0.31 1 -0.06 1 0.57 a2.2 2.2 0 0 1 -1 1.72 c-0.55 0.32 -1 0.06 -1 -0.57 A2.2 2.2 0 0 1 5.92 13.53 Z" style="fill:#552F99;" /><polygon points="3.95,13.3 3.95,17.9 0,15.59 0,11 3.95,13.3" style="fill:#A67AF4;" /><polygon points="18,11.01 18,15.6 14.05,17.91 14.05,13.31 18,11.01" style="fill:#773ADC;" /><path d="M11.49 6.2 a4.17 4.17 0 0 1 2.37 2.61 l0.19 -0.11 l1 0.58 A5.21 5.21 0 0 0 11.9 5.22 a0.53 0.53 0 0 0 -0.41 1 Z" style="fill:#32BEDD;" /><polygon points="14.05,13.32 14.05,17.91 10.1,15.6 10.1,11.01 14.05,13.32" style="fill:#A67AF4;" /><path d="M12.19 13.59 c-0.52 -0.3 -0.94 -0.05 -0.94 0.54 a2.08 2.08 0 0 0 0.94 1.63 c0.52 0.3 0.94 0.06 0.94 -0.54 A2.08 2.08 0 0 0 12.19 13.59 Z" style="fill:#552F99;" /><path d="M9.2 16.11 a5.46 5.46 0 0 1 -3.18 -1 a0.55 0.55 0 1 1 0.64 -0.89 a4.36 4.36 0 0 0 4.81 0.18 a0.55 0.55 0 1 1 0.58 0.94 A5.54 5.54 0 0 1 9.2 16.11 Z" style="fill:#32BEDD;" /><polygon points="13.13,2.4 9.19,4.71 5.24,2.4 9.19,0.09 13.13,2.4" style="fill:#B796F9;" /><path d="M5.24 5.3 a5.25 5.25 0 0 0 -2.36 4 L4 8.69 L4 8.74 A4.2 4.2 0 0 1 5.24 6.67 Z" style="fill:#32BEDD;" /><polygon points="18,11.01 14.05,13.32 10.1,11.01 14.05,8.7 18,11.01" style="fill:#B796F9;" /><polygon points="7.9,11 3.95,13.3 0,11 3.95,8.69 7.9,11" style="fill:#B796F9;" /><polygon points="9.18,4.71 9.18,9.3 5.24,6.99 5.24,2.4 9.18,4.71" style="fill:#A67AF4;" /></svg>