<?xml version="1.0" encoding="utf-8"?><svg version="1.1" xmlns="http://www.w3.org/2000/svg" xmlns:xlink="http://www.w3.org/1999/xlink" xmlns:xml="http://www.w3.org/XML/1998/namespace" width="70" height="70" viewBox="0, 0, 18, 18"><title>Icon-Blockchain-364</title><polygon points="14.68,4.13 14.68,10.7 9.04,13.99 9.04,7.42 14.68,4.13" style="fill:#006CBC;" /><polygon points="14.68,4.13 9.04,7.43 3.4,4.13 9.04,0.83 14.68,4.13" style="fill:#55B6FF;" /><polygon points="9.04,7.43 9.04,13.99 3.4,10.7 3.4,4.13 9.04,7.43" style="fill:#29A4FF;" /><path d="M6.06 7.52 c-0.74 -0.42 -1.34 -0.08 -1.34 0.77 A2.93 2.93 0 0 0 6.06 10.6 c0.73 0.43 1.34 0.09 1.34 -0.76 A3 3 0 0 0 6.06 7.52 Z" style="fill:#006CBC;" /><path d="M18 14.35 l-2.59 -2.6 a0.14 0.14 0 0 0 -0.21 0 v2 H3.36 a2 2 0 1 1 0 -4 H5.75 a0.68 0.68 0 0 0 0.67 -0.68 a0.67 0.67 0 0 0 -0.67 -0.67 H3.36 a3.36 3.36 0 0 0 0 6.72 h11.8 v2 a0.14 0.14 0 0 0 0.21 0 L18 14.53 A0.13 0.13 0 0 0 18 14.35 Z" style="fill:#2FA6FF;" /></svg>