<?xml version="1.0" encoding="UTF-8"?>
<svg xmlns="http://www.w3.org/2000/svg" xmlns:xlink="http://www.w3.org/1999/xlink" width="70pt" height="70pt" viewBox="0 0 70 70" version="1.1">
<g id="surface1">
<path style=" stroke:none;fill-rule:nonzero;fill:rgb(46.666667%,22.745098%,86.27451%);fill-opacity:1;" d="M 51.0625 9.332031 L 51.0625 27.183594 L 35.699219 36.167969 L 35.699219 18.277344 Z M 51.0625 9.332031 "/>
<path style=" stroke:none;fill-rule:nonzero;fill:rgb(33.333333%,18.431373%,60%);fill-opacity:1;" d="M 44.527344 18.316406 C 46.667969 17.070313 48.417969 18.042969 48.417969 20.496094 C 48.273438 23.21875 46.824219 25.710938 44.527344 27.183594 C 42.390625 28.429688 40.640625 27.457031 40.640625 24.964844 C 40.789063 22.253906 42.234375 19.777344 44.527344 18.316406 Z M 44.527344 18.316406 "/>
<path style=" stroke:none;fill-rule:nonzero;fill:rgb(46.666667%,22.745098%,86.27451%);fill-opacity:1;" d="M 30.722656 42.777344 L 30.722656 60.628906 L 15.359375 69.609375 L 15.359375 51.722656 Z M 30.722656 42.777344 "/>
<path style=" stroke:none;fill-rule:nonzero;fill:rgb(33.333333%,18.431373%,60%);fill-opacity:1;" d="M 23.023438 52.617188 C 25.160156 51.410156 26.910156 52.382813 26.910156 54.832031 C 26.753906 57.554688 25.308594 60.039063 23.023438 61.523438 C 20.882813 62.765625 19.132813 61.753906 19.132813 59.304688 C 19.289063 56.582031 20.734375 54.097656 23.023438 52.617188 Z M 23.023438 52.617188 "/>
<path style=" stroke:none;fill-rule:nonzero;fill:rgb(65.098039%,47.843137%,95.686275%);fill-opacity:1;" d="M 15.359375 51.722656 L 15.359375 69.609375 L 0 60.628906 L 0 42.777344 Z M 15.359375 51.722656 "/>
<path style=" stroke:none;fill-rule:nonzero;fill:rgb(46.666667%,22.745098%,86.27451%);fill-opacity:1;" d="M 70 42.816406 L 70 60.667969 L 54.640625 69.648438 L 54.640625 51.761719 Z M 70 42.816406 "/>
<path style=" stroke:none;fill-rule:nonzero;fill:rgb(19.607843%,74.509804%,86.666667%);fill-opacity:1;" d="M 44.683594 24.109375 C 49.105469 25.964844 52.480469 29.679688 53.898438 34.261719 L 54.640625 33.832031 L 58.527344 36.089844 C 57.503906 29.039063 52.851563 23.042969 46.277344 20.300781 C 45.203125 19.859375 43.976563 20.375 43.535156 21.445313 C 43.097656 22.519531 43.609375 23.75 44.683594 24.1875 Z M 44.683594 24.109375 "/>
<path style=" stroke:none;fill-rule:nonzero;fill:rgb(65.098039%,47.843137%,95.686275%);fill-opacity:1;" d="M 54.640625 51.800781 L 54.640625 69.648438 L 39.277344 60.667969 L 39.277344 42.816406 Z M 54.640625 51.800781 "/>
<path style=" stroke:none;fill-rule:nonzero;fill:rgb(33.333333%,18.431373%,60%);fill-opacity:1;" d="M 47.40625 52.851563 C 45.382813 51.683594 43.75 52.65625 43.75 54.949219 C 43.886719 57.523438 45.246094 59.878906 47.40625 61.289063 C 49.429688 62.457031 51.0625 61.523438 51.0625 59.1875 C 50.921875 56.613281 49.566406 54.257813 47.40625 52.851563 Z M 47.40625 52.851563 "/>
<path style=" stroke:none;fill-rule:nonzero;fill:rgb(19.607843%,74.509804%,86.666667%);fill-opacity:1;" d="M 35.777344 62.648438 C 31.351563 62.675781 27.027344 61.316406 23.410156 58.761719 C 22.71875 58.347656 22.320313 57.578125 22.378906 56.773438 C 22.4375 55.96875 22.941406 55.265625 23.6875 54.953125 C 24.429688 54.644531 25.285156 54.777344 25.898438 55.300781 C 31.429688 59.265625 38.792969 59.542969 44.605469 56 C 45.613281 55.378906 46.9375 55.691406 47.5625 56.699219 C 48.183594 57.710938 47.871094 59.03125 46.859375 59.65625 C 43.503906 61.636719 39.675781 62.671875 35.777344 62.648438 Z M 35.777344 62.648438 "/>
<path style=" stroke:none;fill-rule:nonzero;fill:rgb(71.764706%,58.823529%,97.647059%);fill-opacity:1;" d="M 51.0625 9.332031 L 35.738281 18.316406 L 20.378906 9.332031 L 35.738281 0.351563 Z M 51.0625 9.332031 "/>
<path style=" stroke:none;fill-rule:nonzero;fill:rgb(19.607843%,74.509804%,86.666667%);fill-opacity:1;" d="M 20.378906 20.609375 C 15.066406 24.085938 11.675781 29.835938 11.199219 36.167969 L 15.554688 33.792969 L 15.554688 33.988281 C 16.339844 30.890625 18.015625 28.09375 20.378906 25.9375 Z M 20.378906 20.609375 "/>
<path style=" stroke:none;fill-rule:nonzero;fill:rgb(71.764706%,58.823529%,97.647059%);fill-opacity:1;" d="M 70 42.816406 L 54.640625 51.800781 L 39.277344 42.816406 L 54.640625 33.832031 Z M 70 42.816406 "/>
<path style=" stroke:none;fill-rule:nonzero;fill:rgb(71.764706%,58.823529%,97.647059%);fill-opacity:1;" d="M 30.722656 42.777344 L 15.359375 51.722656 L 0 42.777344 L 15.359375 33.792969 Z M 30.722656 42.777344 "/>
<path style=" stroke:none;fill-rule:nonzero;fill:rgb(65.098039%,47.843137%,95.686275%);fill-opacity:1;" d="M 35.699219 18.316406 L 35.699219 36.167969 L 20.378906 27.183594 L 20.378906 9.332031 Z M 35.699219 18.316406 "/>
</g>
</svg>
