<?xml version="1.0" encoding="utf-8"?><svg version="1.1" xmlns="http://www.w3.org/2000/svg" xmlns:xlink="http://www.w3.org/1999/xlink" xmlns:xml="http://www.w3.org/XML/1998/namespace" width="70" height="70" viewBox="0, 0, 18, 18"><path d="M13.276 3.608 V10.6 l-6.01 3.514 V7.11 l6.01 -3.503 z" style="fill:#006CBC;" /><path d="M13.276 3.608 L7.268 7.12 l-6 -3.514 l6 -3.514 l6.008 3.515 z" style="fill:#55B6FF;" /><path d="M7.267 7.12 v6.994 L1.258 10.6 V3.607 l6.01 3.514 z" style="fill:#29A4FF;" /><path d="M11.66 13.1 c0 0.033 -0.006 0.066 -0.012 0.1 s-0.013 0.054 -0.02 0.08 l-0.027 0.095 c-0.01 0.032 -0.02 0.05 -0.032 0.076 l-0.047 0.1 a1.434 1.434 0 0 1 -0.08 0.134 l-0.016 0.02 a1.531 1.531 0 0 1 -0.1 0.129 l-0.02 0.025 l-0.133 0.13 a1.03 1.03 0 0 1 -0.1 0.08 l-0.09 0.07 l-0.113 0.076 l-0.12 0.077 a3.322 3.322 0 0 1 -0.3 0.151 l-0.1 0.038 l-0.25 0.094 l-0.1 0.03 l-0.163 0.047 l-0.124 0.033 l-0.175 0.038 l-0.12 0.024 l-0.36 0.05 c-0.037 0 -0.075 0.006 -0.113 0.01 l-0.212 0.015 H8.3 l-0.16 -0.008 l-0.296 -0.034 l-0.142 -0.02 l-0.167 -0.03 l-0.13 -0.027 l-0.2 -0.048 l-0.108 -0.03 l-0.34 -0.114 l-0.16 -0.068 l-0.08 -0.035 l-0.232 -0.12 a1.582 1.582 0 0 1 -0.932 -1.3 v1.406 a1.582 1.582 0 0 0 0.932 1.3 l0.232 0.12 c0.026 0.013 0.054 0.024 0.082 0.036 l0.14 0.062 l0.018 0.006 l0.366 0.123 c0.026 0.008 0.054 0.013 0.08 0.02 l0.2 0.048 l0.052 0.013 l0.08 0.014 l0.167 0.03 l0.067 0.01 c0.025 0 0.05 0.006 0.075 0.01 l0.157 0.017 c0.026 0 0.05 0.007 0.075 0.01 h0.072 l0.16 0.008 h0.455 q0.107 -0.006 0.213 -0.015 h0.112 l0.36 -0.05 h0.017 l0.1 -0.02 l0.176 -0.038 l0.123 -0.033 l0.164 -0.047 l0.034 -0.01 c0.02 -0.006 0.037 -0.014 0.056 -0.02 l0.25 -0.094 l0.1 -0.038 l0.3 -0.15 l0.04 -0.023 c0.03 -0.017 0.053 -0.036 0.08 -0.054 l0.114 -0.076 l0.088 -0.07 l0.1 -0.08 l0.02 -0.016 c0.04 -0.037 0.078 -0.076 0.114 -0.114 l0.02 -0.025 l0.06 -0.07 a0.68 0.68 0 0 0 0.042 -0.059 l0.016 -0.02 l0.07 -0.11 l0.01 -0.024 a1.079 1.079 0 0 0 0.046 -0.1 l0.027 -0.058 l0.006 -0.02 a1.01 1.01 0 0 0 0.027 -0.094 l0.018 -0.064 v-0.017 a1.09 1.09 0 0 0 0.012 -0.1 c0.003 -0.034 0.007 -0.044 0.007 -0.065 V13 l-0.013 0.1 z" style="fill:#2FA6FF;" /><path d="M10.735 11.7 c1.238 0.714 1.244 1.873 0.015 2.587 a4.925 4.925 0 0 1 -4.468 0 c-1.238 -0.715 -1.243 -1.874 -0.013 -2.588 a4.92 4.92 0 0 1 4.466 0.001 z" style="fill:#77C5FF;" /><path d="M16.734 14.774 c0 0.033 -0.005 0.066 -0.01 0.1 s-0.014 0.054 -0.02 0.08 l-0.027 0.095 c-0.01 0.03 -0.02 0.05 -0.032 0.077 l-0.046 0.1 c-0.017 0.034 -0.05 0.1 -0.08 0.134 l-0.015 0.02 l-0.1 0.13 l-0.02 0.024 l-0.133 0.13 a1.46 1.46 0 0 1 -0.1 0.08 l-0.088 0.07 c-0.03 0.023 -0.075 0.05 -0.114 0.075 l-0.12 0.077 a3.078 3.078 0 0 1 -0.3 0.151 l-0.1 0.04 l-0.248 0.094 l-0.09 0.03 l-0.163 0.046 l-0.124 0.034 l-0.175 0.037 l-0.12 0.024 l-0.36 0.05 l-0.113 0.01 l-0.213 0.014 h-0.455 c-0.054 0 -0.107 0 -0.16 -0.01 s-0.1 -0.007 -0.146 -0.012 l-0.158 -0.018 l-0.14 -0.02 l-0.168 -0.03 l-0.13 -0.026 l-0.2 -0.048 l-0.108 -0.03 l-0.34 -0.115 l-0.16 -0.068 l-0.08 -0.035 l-0.232 -0.12 a1.581 1.581 0 0 1 -0.932 -1.3 v1.405 a1.582 1.582 0 0 0 0.932 1.3 l0.232 0.12 l0.08 0.035 l0.143 0.062 l0.017 0.006 q0.165 0.064 0.34 0.114 l0.027 0.01 l0.08 0.02 l0.2 0.05 c0.018 0 0.035 0.01 0.052 0.012 l0.08 0.014 l0.168 0.03 c0.022 0 0.044 0.01 0.066 0.012 l0.075 0.008 l0.158 0.018 l0.075 0.008 h0.07 c0.053 0 0.106 0.006 0.16 0.008 h0.455 c0.07 0 0.142 -0.01 0.213 -0.014 c0.028 0 0.057 0 0.086 -0.006 h0.027 l0.36 -0.05 h0.017 l0.1 -0.022 l0.174 -0.037 l0.124 -0.034 l0.163 -0.046 l0.035 -0.01 l0.056 -0.02 l0.248 -0.095 l0.1 -0.038 a3.322 3.322 0 0 0 0.3 -0.151 l0.04 -0.023 c0.03 -0.017 0.054 -0.036 0.08 -0.054 l0.114 -0.076 l0.088 -0.07 l0.1 -0.08 l0.02 -0.017 a1.532 1.532 0 0 0 0.114 -0.114 l0.02 -0.025 l0.06 -0.07 l0.043 -0.058 l0.015 -0.02 l0.07 -0.1 l0.012 -0.024 c0.017 -0.032 0.03 -0.065 0.046 -0.1 l0.027 -0.058 v-0.02 c0.01 -0.032 0.02 -0.063 0.027 -0.095 l0.02 -0.063 v-0.018 c0.006 -0.033 0.008 -0.066 0.01 -0.1 s0.007 -0.043 0.007 -0.065 v-1.428 c0.007 0.026 0.002 0.057 -0.001 0.088 z" style="fill:#2FA6FF;" /><path d="M15.8 13.38 a1.367 1.367 0 0 1 0.014 2.587 a4.921 4.921 0 0 1 -4.468 0 c-1.237 -0.715 -1.243 -1.874 -0.013 -2.588 a4.922 4.922 0 0 1 4.467 0.001 z" style="fill:#77C5FF;" /><path d="M16.742 11.62 c0 0.03 -0.005 0.062 -0.008 0.092 l-0.01 0.1 c-0.006 0.033 -0.014 0.054 -0.02 0.08 l-0.027 0.094 c-0.01 0.03 -0.02 0.05 -0.032 0.077 l-0.046 0.1 c-0.017 0.034 -0.05 0.1 -0.08 0.134 l-0.015 0.02 l-0.1 0.13 l-0.02 0.024 a2.06 2.06 0 0 1 -0.133 0.131 a1.46 1.46 0 0 1 -0.1 0.08 l-0.09 0.07 l-0.113 0.075 l-0.12 0.078 a3.191 3.191 0 0 1 -0.3 0.15 l-0.1 0.04 l-0.25 0.094 l-0.1 0.03 l-0.163 0.047 l-0.124 0.033 l-0.175 0.037 l-0.12 0.024 l-0.36 0.05 l-0.113 0.01 l-0.213 0.014 h-0.454 c-0.054 0 -0.107 0 -0.16 -0.01 s-0.1 -0.007 -0.146 -0.012 l-0.158 -0.018 l-0.14 -0.02 l-0.168 -0.03 l-0.13 -0.026 l-0.2 -0.05 l-0.108 -0.03 q-0.174 -0.05 -0.34 -0.114 l-0.16 -0.068 l-0.082 -0.035 l-0.232 -0.12 a1.583 1.583 0 0 1 -0.933 -1.3 v1.406 a1.583 1.583 0 0 0 0.933 1.3 l0.232 0.12 l0.08 0.035 l0.143 0.062 l0.017 0.006 l0.34 0.114 l0.027 0.01 l0.08 0.02 l0.2 0.048 c0.018 0 0.035 0.01 0.053 0.013 l0.078 0.014 l0.168 0.03 c0.022 0 0.044 0.01 0.067 0.012 l0.074 0.008 l0.158 0.018 l0.075 0.008 h0.07 c0.053 0 0.106 0.006 0.16 0.008 h0.454 c0.072 0 0.143 -0.008 0.214 -0.014 c0.028 0 0.057 0 0.086 -0.006 h0.026 l0.36 -0.05 h0.018 l0.1 -0.022 l0.175 -0.037 l0.123 -0.034 l0.164 -0.046 l0.035 -0.01 c0.02 -0.006 0.036 -0.015 0.055 -0.02 l0.25 -0.094 l0.1 -0.04 a3.2 3.2 0 0 0 0.3 -0.151 l0.038 -0.022 l0.082 -0.055 l0.113 -0.075 l0.09 -0.07 l0.1 -0.08 l0.02 -0.017 a1.75 1.75 0 0 0 0.114 -0.114 l0.02 -0.024 l0.06 -0.072 l0.043 -0.058 l0.015 -0.02 a1.18 1.18 0 0 0 0.069 -0.11 l0.012 -0.024 c0.017 -0.032 0.03 -0.065 0.046 -0.1 l0.027 -0.057 v-0.02 a1.03 1.03 0 0 0 0.027 -0.095 l0.02 -0.063 v-0.017 c0.006 -0.033 0.008 -0.067 0.01 -0.1 s0.007 -0.043 0.007 -0.064 v-0.028 z" style="fill:#2FA6FF;" /><ellipse cx="13.583" cy="11.61" rx="1.83" ry="3.159" transform="matrix(0.002827, -0.999996, 0.999996, 0.002827, 1.935, 25.16)" style="fill:#77C5FF;" /></svg>