<?xml version="1.0" encoding="utf-8"?><svg version="1.1" xmlns="http://www.w3.org/2000/svg" xmlns:xlink="http://www.w3.org/1999/xlink" xmlns:xml="http://www.w3.org/XML/1998/namespace" width="70" height="70" viewBox="0, 0, 18, 18"><defs><linearGradient x1="14.415" y1="13.555" x2="11.867" y2="9.096" gradientUnits="userSpaceOnUse" id="ebaa666f-d34b-47c6-9dd8-955cce642dd9"><stop offset="10.1%" stop-color="#006CBC" /><stop offset="100%" stop-color="#004376" /></linearGradient></defs><title>Icon-494-ABS-Member</title><g id="fedf7af2-b5cf-45c6-91f6-8fba9e1b615a"><g><polygon points="16.299,4.726 16.299,13.274 9,17.5 9,9.048 16.299,4.726" style="fill:#006CBC;" /><path d="M13.074 9.1 C14.131 8.52 14.9 9 14.9 10.153 a4.189 4.189 0 0 1 -1.825 3.169 c-1.056 0.576 -1.825 0.1 -1.825 -1.056 A3.933 3.933 0 0 1 13.074 9.1 Z" style="fill:url(#ebaa666f-d34b-47c6-9dd8-955cce642dd9);" /><polygon points="16.299,4.726 9,9.048 1.701,4.726 9,0.5 16.299,4.726" style="fill:#55B6FF;" /><polygon points="9,9.048 9,17.5 1.701,13.274 1.701,4.726 9,9.048" style="fill:#29A4FF;" /></g></g></svg>