<?xml version="1.0" encoding="UTF-8"?>
<svg xmlns="http://www.w3.org/2000/svg" xmlns:xlink="http://www.w3.org/1999/xlink" width="70pt" height="70pt" viewBox="0 0 70 70" version="1.1">
<g id="surface1">
<path style=" stroke:none;fill-rule:nonzero;fill:rgb(46.666667%,22.745098%,86.27451%);fill-opacity:1;" d="M 57.089844 16.0625 L 57.089844 41.609375 L 35.15625 54.40625 L 35.15625 28.855469 Z M 57.089844 16.0625 "/>
<path style=" stroke:none;fill-rule:nonzero;fill:rgb(71.764706%,58.823529%,97.647059%);fill-opacity:1;" d="M 57.089844 16.0625 L 35.15625 28.894531 L 13.222656 16.0625 L 35.15625 3.226563 Z M 57.089844 16.0625 "/>
<path style=" stroke:none;fill-rule:nonzero;fill:rgb(65.098039%,47.843137%,95.686275%);fill-opacity:1;" d="M 35.15625 28.894531 L 35.15625 54.40625 L 13.222656 41.609375 L 13.222656 16.0625 Z M 35.15625 28.894531 "/>
<path style=" stroke:none;fill-rule:nonzero;fill:rgb(46.666667%,22.745098%,86.27451%);fill-opacity:1;" d="M 23.566406 29.246094 C 20.6875 27.609375 18.355469 28.933594 18.355469 32.238281 C 18.546875 35.898438 20.488281 39.238281 23.566406 41.222656 C 26.40625 42.894531 28.777344 41.570313 28.777344 38.265625 C 28.554688 34.609375 26.625 31.265625 23.566406 29.246094 Z M 23.566406 29.246094 "/>
<path style=" stroke:none;fill-rule:nonzero;fill:rgb(19.607843%,74.509804%,86.666667%);fill-opacity:1;" d="M 70 55.804688 L 59.929688 45.695313 C 59.824219 45.578125 59.675781 45.511719 59.519531 45.511719 C 59.363281 45.511719 59.214844 45.578125 59.109375 45.695313 L 59.109375 53.472656 L 13.066406 53.472656 C 8.769531 53.472656 5.289063 49.988281 5.289063 45.695313 C 5.289063 41.398438 8.769531 37.917969 13.066406 37.917969 L 22.359375 37.917969 C 23.804688 37.894531 24.96875 36.71875 24.964844 35.273438 C 24.964844 33.832031 23.800781 32.667969 22.359375 32.667969 L 13.066406 32.667969 C 5.851563 32.667969 0 38.515625 0 45.734375 C 0 52.949219 5.851563 58.800781 13.066406 58.800781 L 58.957031 58.800781 L 58.957031 66.578125 C 59.058594 66.695313 59.207031 66.761719 59.363281 66.761719 C 59.519531 66.761719 59.667969 66.695313 59.773438 66.578125 L 70 56.503906 C 70.1875 56.308594 70.1875 56 70 55.804688 Z M 70 55.804688 "/>
</g>
</svg>
