<?xml version="1.0" encoding="UTF-8"?>
<svg xmlns="http://www.w3.org/2000/svg" xmlns:xlink="http://www.w3.org/1999/xlink" width="70pt" height="70pt" viewBox="0 0 70 70" version="1.1">
<g id="surface1">
<path style=" stroke:none;fill-rule:nonzero;fill:rgb(46.666667%,22.745098%,86.27451%);fill-opacity:1;" d="M 47.054688 7.972656 L 47.054688 22.75 L 34.609375 30.140625 L 34.609375 15.359375 Z M 47.054688 7.972656 "/>
<path style=" stroke:none;fill-rule:nonzero;fill:rgb(33.333333%,18.431373%,60%);fill-opacity:1;" d="M 41.609375 15.796875 C 43.316406 14.773438 44.332031 15.453125 44.332031 17.503906 C 44.125 19.402344 43.140625 21.132813 41.609375 22.28125 C 40.246094 23.300781 38.890625 22.621094 38.890625 20.570313 C 39.097656 18.671875 40.082031 16.941406 41.609375 15.796875 Z M 41.609375 15.796875 "/>
<path style=" stroke:none;fill-rule:nonzero;fill:rgb(71.764706%,58.823529%,97.647059%);fill-opacity:1;" d="M 47.054688 7.972656 L 34.609375 15.359375 L 21.777344 7.972656 L 34.609375 0.582031 Z M 47.054688 7.972656 "/>
<path style=" stroke:none;fill-rule:nonzero;fill:rgb(65.098039%,47.843137%,95.686275%);fill-opacity:1;" d="M 34.609375 15.359375 L 34.609375 30.140625 L 21.777344 22.75 L 21.777344 7.972656 Z M 34.609375 15.359375 "/>
<path style=" stroke:none;fill-rule:nonzero;fill:rgb(46.666667%,22.745098%,86.27451%);fill-opacity:1;" d="M 27.671875 15.75 C 26.117188 14.972656 24.5625 15.75 24.5625 17.304688 C 24.546875 19.445313 25.753906 21.410156 27.671875 22.359375 C 29.230469 23.140625 30.785156 22.359375 30.785156 20.804688 C 30.632813 18.714844 29.472656 16.828125 27.671875 15.75 Z M 27.671875 15.75 "/>
<path style=" stroke:none;fill-rule:nonzero;fill:rgb(36.862745%,58.823529%,14.117647%);fill-opacity:1;" d="M 69.222656 27.417969 L 69.222656 42.195313 L 56.777344 49.582031 L 56.777344 34.804688 Z M 69.222656 27.417969 "/>
<path style=" stroke:none;fill-rule:nonzero;fill:rgb(46.27451%,73.72549%,17.647059%);fill-opacity:1;" d="M 56.777344 34.804688 L 56.777344 49.582031 L 44.332031 42.195313 L 44.332031 27.417969 Z M 56.777344 34.804688 "/>
<path style=" stroke:none;fill-rule:nonzero;fill:rgb(36.862745%,58.823529%,14.117647%);fill-opacity:1;" d="M 50.945313 35.972656 C 49.390625 35.195313 47.832031 35.972656 47.832031 37.527344 C 47.820313 39.667969 49.027344 41.632813 50.945313 42.582031 C 52.5 43.359375 54.054688 42.582031 54.054688 41.027344 C 53.90625 38.9375 52.742188 37.050781 50.945313 35.972656 Z M 50.945313 35.972656 "/>
<path style=" stroke:none;fill-rule:nonzero;fill:rgb(19.607843%,74.509804%,86.666667%);fill-opacity:1;" d="M 51.089844 23.617188 C 49.050781 21.203125 46.46875 19.308594 43.554688 18.082031 C 43.042969 17.851563 42.457031 17.847656 41.9375 18.070313 C 41.421875 18.289063 41.019531 18.71875 40.832031 19.25 C 40.644531 19.710938 40.664063 20.234375 40.886719 20.679688 C 41.109375 21.128906 41.515625 21.457031 42 21.582031 C 44.148438 22.488281 46.082031 23.835938 47.675781 25.539063 Z M 51.089844 23.617188 "/>
<path style=" stroke:none;fill-rule:nonzero;fill:rgb(19.607843%,74.509804%,86.666667%);fill-opacity:1;" d="M 51.078125 31.417969 C 51.148438 31.648438 51.273438 31.851563 51.332031 32.082031 L 51.800781 31.851563 Z M 51.078125 31.417969 "/>
<path style=" stroke:none;fill-rule:nonzero;fill:rgb(14.509804%,50.980392%,46.666667%);fill-opacity:1;" d="M 26.054688 28.195313 L 26.054688 42.582031 L 13.222656 49.972656 L 13.222656 35.582031 Z M 26.054688 28.195313 "/>
<path style=" stroke:none;fill-rule:nonzero;fill:rgb(21.568627%,76.078431%,69.411765%);fill-opacity:1;" d="M 13.222656 35.582031 L 13.222656 49.972656 L 0.777344 42.582031 L 0.777344 28.195313 Z M 13.222656 35.582031 "/>
<path style=" stroke:none;fill-rule:nonzero;fill:rgb(19.607843%,74.509804%,86.666667%);fill-opacity:1;" d="M 28.777344 19.25 C 28.15625 18.164063 26.847656 17.675781 25.667969 18.082031 C 22.933594 19.539063 20.484375 21.480469 18.441406 23.8125 L 22.554688 26.167969 C 24.003906 24.613281 25.714844 23.324219 27.609375 22.359375 C 28.695313 21.738281 29.1875 20.433594 28.777344 19.25 Z M 28.777344 19.25 "/>
<path style=" stroke:none;fill-rule:nonzero;fill:rgb(81.960784%,34.901961%,0%);fill-opacity:1;" d="M 48.222656 47.25 L 48.222656 62.027344 L 35.777344 69.417969 L 35.777344 54.640625 Z M 48.222656 47.25 "/>
<path style=" stroke:none;fill-rule:nonzero;fill:rgb(96.862745%,55.294118%,11.764706%);fill-opacity:1;" d="M 35.777344 54.640625 L 35.777344 69.417969 L 23.332031 62.027344 L 23.332031 47.25 Z M 35.777344 54.640625 "/>
<path style=" stroke:none;fill-rule:nonzero;fill:rgb(19.607843%,74.509804%,86.666667%);fill-opacity:1;" d="M 51.332031 39.082031 C 50.894531 38.664063 50.289063 38.464844 49.6875 38.539063 C 49.082031 38.617188 48.546875 38.957031 48.222656 39.472656 C 46.769531 41.320313 45.007813 42.90625 43.015625 44.160156 L 46.773438 46.386719 C 48.609375 45.226563 50.277344 43.816406 51.722656 42.195313 C 52.140625 41.753906 52.339844 41.148438 52.265625 40.546875 C 52.1875 39.945313 51.847656 39.40625 51.332031 39.082031 Z M 51.332031 39.082031 "/>
<path style=" stroke:none;fill-rule:nonzero;fill:rgb(12.54902%,43.921569%,40.392157%);fill-opacity:1;" d="M 20.269531 35.730469 C 22.042969 34.761719 23.332031 35.570313 23.332031 37.503906 C 23.179688 39.652344 22.050781 41.613281 20.269531 42.824219 C 18.5 43.792969 17.207031 42.984375 17.207031 41.050781 C 17.292969 38.882813 18.4375 36.894531 20.269531 35.730469 Z M 20.269531 35.730469 "/>
<path style=" stroke:none;fill-rule:nonzero;fill:rgb(19.607843%,74.509804%,86.666667%);fill-opacity:1;" d="M 28.867188 43.964844 C 26.398438 42.875 24.230469 41.199219 22.554688 39.082031 C 22.226563 38.578125 21.6875 38.246094 21.089844 38.167969 C 20.492188 38.09375 19.890625 38.285156 19.445313 38.695313 C 18.941406 39.023438 18.605469 39.5625 18.53125 40.160156 C 18.457031 40.757813 18.648438 41.359375 19.054688 41.804688 C 20.558594 43.695313 22.375 45.320313 24.417969 46.609375 Z M 28.867188 43.964844 "/>
<path style=" stroke:none;fill-rule:nonzero;fill:rgb(100%,70.196078%,30.196078%);fill-opacity:1;" d="M 48.222656 47.25 L 35.777344 54.640625 L 23.332031 47.25 L 35.777344 39.859375 Z M 48.222656 47.25 "/>
<path style=" stroke:none;fill-rule:nonzero;fill:rgb(25.882353%,90.980392%,79.215686%);fill-opacity:1;" d="M 26.054688 28.195313 L 13.222656 35.582031 L 0.777344 28.195313 L 13.222656 20.804688 Z M 26.054688 28.195313 "/>
<path style=" stroke:none;fill-rule:nonzero;fill:rgb(70.588235%,92.54902%,21.176471%);fill-opacity:1;" d="M 69.222656 27.417969 L 56.777344 34.804688 L 44.332031 27.417969 L 56.777344 20.417969 Z M 69.222656 27.417969 "/>
</g>
</svg>
