<?xml version="1.0" encoding="UTF-8"?>
<svg xmlns="http://www.w3.org/2000/svg" xmlns:xlink="http://www.w3.org/1999/xlink" width="70pt" height="70pt" viewBox="0 0 70 70" version="1.1">
<g id="surface1">
<path style=" stroke:none;fill-rule:nonzero;fill:rgb(0,108,188);fill-opacity:1;" d="M 51.628906 14.03125 L 51.628906 41.222656 L 28.257813 54.886719 L 28.257813 27.648438 L 51.628906 14.027344 Z M 51.628906 14.03125 "/>
<path style=" stroke:none;fill-rule:nonzero;fill:rgb(85,182,255);fill-opacity:1;" d="M 51.628906 14.03125 L 28.265625 27.6875 L 4.929688 14.023438 L 28.265625 0.359375 L 51.628906 14.027344 Z M 51.628906 14.03125 "/>
<path style=" stroke:none;fill-rule:nonzero;fill:rgb(41,164,255);fill-opacity:1;" d="M 28.261719 27.6875 L 28.261719 54.886719 L 4.890625 41.222656 L 4.890625 14.027344 L 28.265625 27.691406 Z M 28.261719 27.6875 "/>
<path style=" stroke:none;fill-rule:nonzero;fill:rgb(47,166,255);fill-opacity:1;" d="M 45.34375 50.945313 C 45.34375 51.074219 45.320313 51.199219 45.296875 51.332031 C 45.273438 51.464844 45.246094 51.542969 45.21875 51.644531 L 45.113281 52.015625 C 45.074219 52.136719 45.039063 52.207031 44.992188 52.308594 L 44.808594 52.699219 C 44.714844 52.878906 44.609375 53.050781 44.496094 53.21875 L 44.433594 53.296875 C 44.3125 53.472656 44.183594 53.640625 44.046875 53.800781 L 43.96875 53.894531 L 43.449219 54.402344 C 43.328125 54.511719 43.199219 54.617188 43.0625 54.710938 L 42.710938 54.984375 L 42.273438 55.28125 L 41.804688 55.578125 C 41.425781 55.796875 41.039063 55.992188 40.640625 56.167969 L 40.25 56.316406 L 39.277344 56.679688 L 38.890625 56.796875 L 38.253906 56.980469 L 37.773438 57.109375 L 37.09375 57.257813 L 36.625 57.347656 L 35.226563 57.542969 C 35.082031 57.542969 34.933594 57.566406 34.785156 57.582031 L 33.960938 57.640625 L 32.277344 57.640625 L 31.65625 57.609375 L 30.503906 57.476563 L 29.953125 57.398438 L 29.304688 57.285156 L 28.796875 57.179688 L 28.019531 56.992188 L 27.597656 56.875 L 26.277344 56.433594 L 25.65625 56.167969 L 25.34375 56.03125 L 24.441406 55.5625 C 22.40625 54.660156 21.023438 52.726563 20.816406 50.507813 L 20.816406 55.976563 C 21.023438 58.195313 22.40625 60.125 24.441406 61.03125 L 25.34375 61.5 C 25.445313 61.550781 25.554688 61.59375 25.664063 61.640625 L 26.207031 61.878906 L 26.277344 61.902344 L 27.699219 62.382813 C 27.800781 62.414063 27.910156 62.433594 28.011719 62.460938 L 28.789063 62.644531 L 28.992188 62.695313 L 29.304688 62.75 L 29.953125 62.867188 L 30.210938 62.90625 C 30.308594 62.90625 30.40625 62.929688 30.503906 62.945313 L 31.113281 63.011719 C 31.214844 63.011719 31.308594 63.039063 31.40625 63.050781 L 31.6875 63.050781 L 32.308594 63.082031 L 34.078125 63.082031 C 34.355469 63.066406 34.632813 63.046875 34.90625 63.023438 L 35.34375 63.023438 L 36.742188 62.828125 L 36.808594 62.828125 L 37.195313 62.75 L 37.882813 62.601563 L 38.359375 62.476563 L 38.996094 62.292969 L 39.128906 62.253906 C 39.207031 62.230469 39.273438 62.199219 39.347656 62.175781 L 40.320313 61.808594 L 40.707031 61.664063 L 41.875 61.078125 L 42.03125 60.988281 C 42.148438 60.921875 42.238281 60.847656 42.34375 60.78125 L 42.785156 60.484375 L 43.128906 60.210938 L 43.515625 59.902344 L 43.59375 59.839844 C 43.75 59.695313 43.898438 59.542969 44.039063 59.394531 L 44.117188 59.296875 L 44.347656 59.027344 C 44.40625 58.953125 44.460938 58.875 44.511719 58.796875 L 44.574219 58.71875 L 44.847656 58.289063 L 44.886719 58.195313 C 44.953125 58.070313 45.011719 57.941406 45.0625 57.808594 L 45.167969 57.582031 L 45.191406 57.503906 C 45.234375 57.386719 45.269531 57.261719 45.296875 57.140625 L 45.367188 56.890625 L 45.367188 56.824219 C 45.390625 56.695313 45.40625 56.566406 45.414063 56.4375 C 45.425781 56.304688 45.441406 56.265625 45.441406 56.183594 L 45.441406 50.554688 L 45.390625 50.945313 Z M 45.34375 50.945313 "/>
<path style=" stroke:none;fill-rule:nonzero;fill:rgb(119,197,255);fill-opacity:1;" d="M 41.746094 45.5 C 46.5625 48.277344 46.585938 52.785156 41.804688 55.5625 C 36.347656 58.339844 29.886719 58.339844 24.429688 55.5625 C 19.617188 52.78125 19.597656 48.273438 24.378906 45.496094 C 29.835938 42.71875 36.292969 42.71875 41.746094 45.5 Z M 41.746094 45.5 "/>
<path style=" stroke:none;fill-rule:nonzero;fill:rgb(47,166,255);fill-opacity:1;" d="M 65.078125 57.453125 C 65.078125 57.582031 65.058594 57.710938 65.039063 57.84375 C 65.019531 57.976563 64.984375 58.054688 64.960938 58.15625 L 64.855469 58.523438 C 64.816406 58.640625 64.777344 58.71875 64.730469 58.824219 L 64.550781 59.210938 C 64.484375 59.34375 64.355469 59.601563 64.242188 59.734375 L 64.183594 59.8125 L 63.792969 60.316406 L 63.714844 60.410156 L 63.199219 60.914063 C 63.074219 61.023438 62.945313 61.128906 62.808594 61.226563 L 62.46875 61.5 C 62.351563 61.589844 62.175781 61.691406 62.023438 61.789063 L 61.558594 62.089844 C 61.179688 62.308594 60.789063 62.503906 60.390625 62.675781 L 60 62.832031 L 59.039063 63.199219 L 58.6875 63.316406 L 58.054688 63.492188 L 57.570313 63.625 L 56.890625 63.769531 L 56.425781 63.863281 L 55.023438 64.058594 L 54.585938 64.097656 L 53.757813 64.152344 L 51.988281 64.152344 C 51.777344 64.152344 51.570313 64.152344 51.363281 64.113281 C 51.160156 64.074219 50.976563 64.085938 50.796875 64.066406 L 50.183594 63.996094 L 49.636719 63.917969 L 48.984375 63.800781 L 48.480469 63.699219 L 47.699219 63.511719 L 47.28125 63.398438 L 45.957031 62.949219 L 45.335938 62.683594 L 45.027344 62.550781 L 44.125 62.082031 C 42.089844 61.175781 40.703125 59.242188 40.5 57.027344 L 40.5 62.492188 C 40.703125 64.707031 42.089844 66.640625 44.125 67.546875 L 45.027344 68.011719 L 45.335938 68.148438 L 45.894531 68.390625 L 45.957031 68.414063 C 46.386719 68.578125 46.828125 68.726563 47.28125 68.855469 L 47.386719 68.894531 L 47.695313 68.972656 L 48.476563 69.167969 C 48.546875 69.167969 48.609375 69.207031 48.675781 69.214844 L 48.988281 69.269531 L 49.640625 69.386719 C 49.726563 69.386719 49.8125 69.425781 49.898438 69.433594 L 50.191406 69.464844 L 50.804688 69.535156 L 51.097656 69.5625 L 51.367188 69.5625 C 51.574219 69.5625 51.78125 69.585938 51.992188 69.59375 L 53.761719 69.59375 C 54.03125 69.59375 54.3125 69.558594 54.589844 69.542969 C 54.695313 69.542969 54.808594 69.542969 54.921875 69.519531 L 55.027344 69.519531 L 56.429688 69.324219 L 56.492188 69.324219 L 56.882813 69.238281 L 57.558594 69.09375 L 58.042969 68.960938 L 58.675781 68.78125 L 58.8125 68.742188 L 59.03125 68.667969 L 59.992188 68.296875 L 60.382813 68.148438 C 60.78125 67.972656 61.171875 67.777344 61.550781 67.5625 L 61.703125 67.472656 C 61.820313 67.40625 61.914063 67.332031 62.015625 67.261719 L 62.460938 66.964844 L 62.800781 66.695313 L 63.191406 66.382813 L 63.269531 66.316406 C 63.421875 66.175781 63.570313 66.03125 63.710938 65.875 L 63.789063 65.777344 L 64.023438 65.503906 L 64.191406 65.277344 L 64.25 65.199219 L 64.519531 64.8125 L 64.566406 64.71875 C 64.632813 64.59375 64.683594 64.464844 64.746094 64.328125 L 64.851563 64.105469 L 64.851563 64.027344 C 64.890625 63.902344 64.929688 63.78125 64.957031 63.65625 L 65.035156 63.414063 L 65.035156 63.34375 C 65.058594 63.214844 65.066406 63.085938 65.074219 62.953125 C 65.082031 62.820313 65.101563 62.785156 65.101563 62.699219 L 65.101563 57.148438 C 65.128906 57.25 65.109375 57.367188 65.097656 57.488281 Z M 65.078125 57.453125 "/>
<path style=" stroke:none;fill-rule:nonzero;fill:rgb(119,197,255);fill-opacity:1;" d="M 61.445313 52.035156 C 63.597656 52.757813 65.054688 54.769531 65.066406 57.042969 C 65.082031 59.316406 63.644531 61.347656 61.5 62.09375 C 56.039063 64.875 49.582031 64.875 44.125 62.09375 C 39.3125 59.3125 39.289063 54.804688 44.074219 52.03125 C 49.53125 49.25 55.988281 49.253906 61.445313 52.035156 Z M 61.445313 52.035156 "/>
<path style=" stroke:none;fill-rule:nonzero;fill:rgb(47,166,255);fill-opacity:1;" d="M 65.109375 45.1875 C 65.109375 45.304688 65.089844 45.429688 65.078125 45.546875 L 65.039063 45.9375 C 65.015625 46.0625 64.984375 46.144531 64.960938 46.246094 L 64.855469 46.613281 C 64.816406 46.730469 64.777344 46.808594 64.730469 46.910156 L 64.550781 47.300781 C 64.484375 47.433594 64.355469 47.6875 64.242188 47.820313 L 64.183594 47.898438 L 63.792969 48.40625 L 63.714844 48.5 C 63.550781 48.675781 63.378906 48.847656 63.199219 49.007813 C 63.074219 49.117188 62.945313 49.222656 62.808594 49.320313 L 62.460938 49.589844 L 62.019531 49.882813 L 61.554688 50.1875 C 61.175781 50.402344 60.785156 50.59375 60.386719 50.769531 L 59.996094 50.925781 L 59.027344 51.289063 L 58.636719 51.40625 L 58.003906 51.589844 L 57.519531 51.71875 L 56.839844 51.863281 L 56.375 51.957031 L 54.972656 52.148438 L 54.535156 52.1875 L 53.707031 52.242188 L 51.941406 52.242188 C 51.730469 52.242188 51.523438 52.242188 51.316406 52.203125 C 51.113281 52.164063 50.929688 52.175781 50.75 52.15625 L 50.136719 52.085938 L 49.589844 52.011719 L 48.9375 51.894531 L 48.433594 51.792969 L 47.65625 51.597656 L 47.234375 51.480469 C 46.785156 51.351563 46.34375 51.203125 45.914063 51.039063 L 45.289063 50.773438 L 44.972656 50.636719 L 44.070313 50.171875 C 42.035156 49.265625 40.648438 47.332031 40.441406 45.113281 L 40.441406 50.582031 C 40.648438 52.800781 42.035156 54.734375 44.070313 55.636719 L 44.972656 56.105469 L 45.28125 56.242188 L 45.839844 56.480469 L 45.90625 56.503906 L 47.226563 56.949219 L 47.332031 56.988281 L 47.644531 57.066406 L 48.421875 57.253906 C 48.492188 57.253906 48.558594 57.292969 48.625 57.304688 L 48.929688 57.355469 L 49.582031 57.472656 C 49.667969 57.472656 49.753906 57.511719 49.84375 57.519531 L 50.132813 57.550781 L 50.746094 57.621094 L 51.039063 57.652344 L 51.308594 57.652344 C 51.515625 57.652344 51.722656 57.675781 51.933594 57.683594 L 53.699219 57.683594 C 53.976563 57.683594 54.253906 57.652344 54.53125 57.628906 C 54.640625 57.628906 54.75 57.628906 54.863281 57.605469 L 54.964844 57.605469 L 56.367188 57.410156 L 56.4375 57.410156 L 56.824219 57.324219 L 57.503906 57.183594 L 57.984375 57.050781 L 58.621094 56.871094 L 58.757813 56.832031 C 58.835938 56.808594 58.898438 56.773438 58.972656 56.753906 L 59.941406 56.390625 L 60.332031 56.234375 C 60.730469 56.058594 61.121094 55.863281 61.5 55.644531 L 61.648438 55.5625 L 61.964844 55.347656 L 62.40625 55.054688 L 62.753906 54.78125 L 63.144531 54.472656 L 63.222656 54.40625 C 63.375 54.265625 63.523438 54.117188 63.664063 53.960938 L 63.742188 53.867188 L 63.976563 53.589844 L 64.144531 53.363281 L 64.203125 53.285156 C 64.300781 53.148438 64.386719 53.003906 64.46875 52.859375 L 64.515625 52.765625 C 64.582031 52.640625 64.632813 52.511719 64.695313 52.375 L 64.800781 52.152344 L 64.800781 52.074219 C 64.839844 51.953125 64.875 51.832031 64.90625 51.707031 L 64.984375 51.460938 L 64.984375 51.394531 C 65.007813 51.265625 65.015625 51.136719 65.023438 51.007813 C 65.03125 50.878906 65.050781 50.839844 65.050781 50.757813 L 65.050781 50.648438 Z M 65.109375 45.1875 "/>
<path style=" stroke:none;fill-rule:nonzero;fill:rgb(119,197,255);fill-opacity:1;" d="M 52.84375 38.03125 C 46.058594 38.015625 40.550781 41.183594 40.539063 45.113281 C 40.527344 49.046875 46.019531 52.246094 52.804688 52.265625 C 59.589844 52.285156 65.097656 49.113281 65.109375 45.183594 C 65.121094 41.253906 59.628906 38.050781 52.84375 38.03125 Z M 52.84375 38.03125 "/>
</g>
</svg>
