<?xml version="1.0" encoding="UTF-8"?>
<svg xmlns="http://www.w3.org/2000/svg" xmlns:xlink="http://www.w3.org/1999/xlink" width="70pt" height="70pt" viewBox="0 0 70 70" version="1.1">
<defs>
<linearGradient id="linear0" gradientUnits="userSpaceOnUse" x1="9" y1="22.81" x2="9" y2="-2.491" gradientTransform="matrix(3.888889,0,0,3.888889,0,0)">
<stop offset="0" style="stop-color:rgb(0,108,188);stop-opacity:1;"/>
<stop offset="0.165" style="stop-color:rgb(0,126,220);stop-opacity:1;"/>
<stop offset="0.378" style="stop-color:rgb(0,146,254);stop-opacity:1;"/>
<stop offset="0.59" style="stop-color:rgb(23,156,255);stop-opacity:1;"/>
<stop offset="0.799" style="stop-color:rgb(37,162,255);stop-opacity:1;"/>
<stop offset="1" style="stop-color:rgb(41,164,255);stop-opacity:1;"/>
</linearGradient>
<filter id="alpha" filterUnits="objectBoundingBox" x="0%" y="0%" width="100%" height="100%">
  <feColorMatrix type="matrix" in="SourceGraphic" values="0 0 0 0 1 0 0 0 0 1 0 0 0 0 1 0 0 0 1 0"/>
</filter>
<mask id="mask0">
  <g filter="url(#alpha)">
<rect x="0" y="0" width="70" height="70" style="fill:rgb(0,0,0);fill-opacity:0.901961;stroke:none;"/>
  </g>
</mask>
<linearGradient id="linear1" gradientUnits="userSpaceOnUse" x1="9" y1="15.982" x2="9" y2="1.522" gradientTransform="matrix(3.888889,0,0,3.888889,0,0)">
<stop offset="0" style="stop-color:rgb(203,232,255);stop-opacity:1;"/>
<stop offset="0.997" style="stop-color:rgb(245,250,255);stop-opacity:1;"/>
</linearGradient>
<clipPath id="clip1">
  <rect x="0" y="0" width="70" height="70"/>
</clipPath>
<g id="surface5" clip-path="url(#clip1)">
<path style=" stroke:none;fill-rule:nonzero;fill:url(#linear1);" d="M 18.761719 5.917969 L 51.238281 5.917969 C 51.671875 5.917969 52.023438 6.269531 52.023438 6.699219 L 52.023438 61.375 C 52.023438 61.804688 51.671875 62.15625 51.238281 62.15625 L 18.761719 62.15625 C 18.328125 62.15625 17.976563 61.804688 17.976563 61.375 L 17.976563 6.699219 C 17.976563 6.269531 18.328125 5.917969 18.761719 5.917969 Z M 18.761719 5.917969 "/>
</g>
</defs>
<g id="surface1">
<path style=" stroke:none;fill-rule:nonzero;fill:url(#linear0);" d="M 15.675781 0 L 54.328125 0 C 55.226563 0 55.957031 0.730469 55.957031 1.628906 L 55.957031 68.371094 C 55.957031 69.269531 55.226563 70 54.328125 70 L 15.675781 70 C 14.777344 70 14.046875 69.269531 14.046875 68.371094 L 14.046875 1.628906 C 14.046875 0.730469 14.777344 0 15.675781 0 Z M 15.675781 0 "/>
<path style=" stroke:none;fill-rule:nonzero;fill:rgb(229,243,255);fill-opacity:1;" d="M 30.769531 2.347656 L 39.226563 2.347656 C 39.558594 2.347656 39.824219 2.617188 39.824219 2.949219 L 39.824219 3.046875 C 39.824219 3.375 39.558594 3.644531 39.226563 3.644531 L 30.769531 3.644531 C 30.4375 3.644531 30.171875 3.375 30.171875 3.046875 L 30.171875 2.949219 C 30.171875 2.617188 30.4375 2.347656 30.769531 2.347656 Z M 30.769531 2.347656 "/>
<use xlink:href="#surface5" mask="url(#mask0)"/>
<path style=" stroke:none;fill-rule:nonzero;fill:rgb(229,243,255);fill-opacity:1;" d="M 33.769531 64.476563 L 36.230469 64.476563 C 36.84375 64.476563 37.339844 64.976563 37.339844 65.589844 L 37.339844 67.363281 C 37.339844 67.976563 36.84375 68.476563 36.230469 68.476563 L 33.769531 68.476563 C 33.15625 68.476563 32.660156 67.976563 32.660156 67.363281 L 32.660156 65.589844 C 32.660156 64.976563 33.15625 64.476563 33.769531 64.476563 Z M 33.769531 64.476563 "/>
<path style=" stroke:none;fill-rule:nonzero;fill:rgb(0,81,142);fill-opacity:1;" d="M 46.207031 28.691406 L 46.207031 41.316406 L 35.300781 47.660156 L 35.300781 35.015625 Z M 46.207031 28.691406 "/>
<path style=" stroke:none;fill-rule:nonzero;fill:rgb(41,164,255);fill-opacity:1;" d="M 46.207031 28.691406 L 35.304688 35.035156 L 24.390625 28.691406 L 35.304688 22.347656 Z M 46.207031 28.691406 "/>
<path style=" stroke:none;fill-rule:nonzero;fill:rgb(0,108,188);fill-opacity:1;" d="M 35.300781 35.035156 L 35.300781 47.660156 L 24.390625 41.316406 L 24.390625 28.691406 Z M 35.300781 35.035156 "/>
</g>
</svg>
