<?xml version="1.0" encoding="UTF-8"?>
<svg xmlns="http://www.w3.org/2000/svg" xmlns:xlink="http://www.w3.org/1999/xlink" width="70pt" height="70pt" viewBox="0 0 70 70" version="1.1">
<defs>
<linearGradient id="linear0" gradientUnits="userSpaceOnUse" x1="9" y1="22.81" x2="9" y2="-2.491" gradientTransform="matrix(3.888889,0,0,3.888889,0,0)">
<stop offset="0" style="stop-color:rgb(0%,47.058824%,83.137255%);stop-opacity:1;"/>
<stop offset="0.165" style="stop-color:rgb(10.980392%,51.764706%,86.27451%);stop-opacity:1;"/>
<stop offset="0.378" style="stop-color:rgb(22.352941%,56.470588%,89.411765%);stop-opacity:1;"/>
<stop offset="0.59" style="stop-color:rgb(30.196078%,60%,91.764706%);stop-opacity:1;"/>
<stop offset="0.799" style="stop-color:rgb(35.294118%,61.960784%,93.333333%);stop-opacity:1;"/>
<stop offset="1" style="stop-color:rgb(36.862745%,62.745098%,93.72549%);stop-opacity:1;"/>
</linearGradient>
<filter id="alpha" filterUnits="objectBoundingBox" x="0%" y="0%" width="100%" height="100%">
  <feColorMatrix type="matrix" in="SourceGraphic" values="0 0 0 0 1 0 0 0 0 1 0 0 0 0 1 0 0 0 1 0"/>
</filter>
<mask id="mask0">
  <g filter="url(#alpha)">
<rect x="0" y="0" width="70" height="70" style="fill:rgb(0%,0%,0%);fill-opacity:0.901961;stroke:none;"/>
  </g>
</mask>
<linearGradient id="linear1" gradientUnits="userSpaceOnUse" x1="9" y1="15.982" x2="9" y2="1.522" gradientTransform="matrix(3.888889,0,0,3.888889,0,0)">
<stop offset="0" style="stop-color:rgb(82.352941%,92.156863%,100%);stop-opacity:1;"/>
<stop offset="0.997" style="stop-color:rgb(94.117647%,100%,99.215686%);stop-opacity:1;"/>
</linearGradient>
<clipPath id="clip1">
  <rect x="0" y="0" width="70" height="70"/>
</clipPath>
<g id="surface5" clip-path="url(#clip1)">
<path style=" stroke:none;fill-rule:nonzero;fill:url(#linear1);" d="M 18.761719 5.917969 L 51.238281 5.917969 C 51.671875 5.917969 52.023438 6.269531 52.023438 6.699219 L 52.023438 61.375 C 52.023438 61.804688 51.671875 62.15625 51.238281 62.15625 L 18.761719 62.15625 C 18.328125 62.15625 17.976563 61.804688 17.976563 61.375 L 17.976563 6.699219 C 17.976563 6.269531 18.328125 5.917969 18.761719 5.917969 Z M 18.761719 5.917969 "/>
</g>
</defs>
<g id="surface1">
<path style=" stroke:none;fill-rule:nonzero;fill:url(#linear0);" d="M 15.675781 0 L 54.328125 0 C 55.226563 0 55.957031 0.730469 55.957031 1.628906 L 55.957031 68.371094 C 55.957031 69.269531 55.226563 70 54.328125 70 L 15.675781 70 C 14.777344 70 14.046875 69.269531 14.046875 68.371094 L 14.046875 1.628906 C 14.046875 0.730469 14.777344 0 15.675781 0 Z M 15.675781 0 "/>
<path style=" stroke:none;fill-rule:nonzero;fill:rgb(94.901961%,94.901961%,94.901961%);fill-opacity:1;" d="M 30.769531 2.347656 L 39.226563 2.347656 C 39.558594 2.347656 39.824219 2.617188 39.824219 2.949219 L 39.824219 3.046875 C 39.824219 3.375 39.558594 3.644531 39.226563 3.644531 L 30.769531 3.644531 C 30.4375 3.644531 30.171875 3.375 30.171875 3.046875 L 30.171875 2.949219 C 30.171875 2.617188 30.4375 2.347656 30.769531 2.347656 Z M 30.769531 2.347656 "/>
<use xlink:href="#surface5" mask="url(#mask0)"/>
<path style=" stroke:none;fill-rule:nonzero;fill:rgb(94.901961%,94.901961%,94.901961%);fill-opacity:1;" d="M 33.769531 64.476563 L 36.230469 64.476563 C 36.84375 64.476563 37.339844 64.976563 37.339844 65.589844 L 37.339844 67.363281 C 37.339844 67.976563 36.84375 68.476563 36.230469 68.476563 L 33.769531 68.476563 C 33.15625 68.476563 32.660156 67.976563 32.660156 67.363281 L 32.660156 65.589844 C 32.660156 64.976563 33.15625 64.476563 33.769531 64.476563 Z M 33.769531 64.476563 "/>
<path style=" stroke:none;fill-rule:nonzero;fill:rgb(36.862745%,62.745098%,93.72549%);fill-opacity:1;" d="M 44.332031 11.246094 L 44.332031 25.183594 C 44.332031 25.382813 44.253906 25.574219 44.113281 25.714844 C 43.972656 25.855469 43.78125 25.933594 43.582031 25.929688 L 37.75 25.929688 C 37.648438 25.929688 37.566406 26.011719 37.566406 26.113281 L 37.566406 28.363281 C 37.566406 28.5 37.488281 28.625 37.363281 28.6875 C 37.238281 28.746094 37.089844 28.734375 36.980469 28.648438 L 33.480469 25.96875 C 33.445313 25.945313 33.40625 25.929688 33.367188 25.929688 L 23.230469 25.929688 C 23.035156 25.933594 22.84375 25.855469 22.703125 25.714844 C 22.5625 25.574219 22.480469 25.382813 22.480469 25.183594 L 22.480469 11.246094 C 22.480469 11.046875 22.5625 10.859375 22.703125 10.71875 C 22.84375 10.578125 23.035156 10.5 23.230469 10.5 L 43.59375 10.5 C 44.003906 10.503906 44.332031 10.835938 44.332031 11.246094 Z M 44.332031 11.246094 "/>
<path style=" stroke:none;fill-rule:nonzero;fill:rgb(36.862745%,62.745098%,93.72549%);fill-opacity:1;" d="M 23.570313 38.421875 L 27.835938 38.421875 C 28.464844 38.421875 28.976563 38.933594 28.976563 39.5625 L 28.976563 55.878906 C 28.976563 56.507813 28.464844 57.019531 27.835938 57.019531 L 23.570313 57.019531 C 22.941406 57.019531 22.429688 56.507813 22.429688 55.878906 L 22.429688 39.5625 C 22.429688 38.933594 22.941406 38.421875 23.570313 38.421875 Z M 23.570313 38.421875 "/>
<path style=" stroke:none;fill-rule:nonzero;fill:rgb(0%,47.058824%,83.137255%);fill-opacity:1;" d="M 33.28125 34.246094 L 37.546875 34.246094 C 38.175781 34.246094 38.6875 34.753906 38.6875 35.386719 L 38.6875 55.875 C 38.6875 56.503906 38.175781 57.015625 37.546875 57.015625 L 33.28125 57.015625 C 32.652344 57.015625 32.140625 56.503906 32.140625 55.875 L 32.140625 35.386719 C 32.140625 34.753906 32.652344 34.246094 33.28125 34.246094 Z M 33.28125 34.246094 "/>
<path style=" stroke:none;fill-rule:nonzero;fill:rgb(0%,35.686275%,63.137255%);fill-opacity:1;" d="M 42.988281 30.828125 L 47.253906 30.828125 C 47.882813 30.828125 48.394531 31.335938 48.394531 31.964844 L 48.394531 55.875 C 48.394531 56.503906 47.882813 57.015625 47.253906 57.015625 L 42.988281 57.015625 C 42.359375 57.015625 41.847656 56.503906 41.847656 55.875 L 41.847656 31.964844 C 41.847656 31.335938 42.359375 30.828125 42.988281 30.828125 Z M 42.988281 30.828125 "/>
</g>
</svg>
