<?xml version="1.0" encoding="UTF-8"?>
<svg xmlns="http://www.w3.org/2000/svg" xmlns:xlink="http://www.w3.org/1999/xlink" width="70pt" height="70pt" viewBox="0 0 70 70" version="1.1">
<defs>
<linearGradient id="linear0" gradientUnits="userSpaceOnUse" x1="9" y1="0.81" x2="9" y2="21.28" gradientTransform="matrix(3.888889,0,0,3.888889,0,0)">
<stop offset="0" style="stop-color:rgb(153,211,255);stop-opacity:1;"/>
<stop offset="0.34" style="stop-color:rgb(101,189,255);stop-opacity:1;"/>
<stop offset="0.77" style="stop-color:rgb(41,164,255);stop-opacity:1;"/>
<stop offset="1" style="stop-color:rgb(19,154,255);stop-opacity:1;"/>
</linearGradient>
</defs>
<g id="surface1">
<path style=" stroke:none;fill-rule:nonzero;fill:url(#linear0);" d="M 68.054688 9.722656 L 68.054688 51.839844 C 68.054688 52.445313 67.8125 53.023438 67.382813 53.449219 C 66.949219 53.871094 66.367188 54.105469 65.761719 54.09375 L 48.183594 54.09375 C 47.882813 54.09375 47.640625 54.339844 47.640625 54.640625 L 47.640625 61.445313 C 47.636719 61.855469 47.398438 62.230469 47.027344 62.414063 C 46.65625 62.59375 46.214844 62.550781 45.890625 62.300781 L 35.3125 54.210938 L 4.238281 54.210938 C 3.632813 54.222656 3.050781 53.988281 2.617188 53.5625 C 2.1875 53.140625 1.945313 52.5625 1.945313 51.957031 L 1.945313 9.722656 C 1.945313 9.117188 2.1875 8.539063 2.617188 8.113281 C 3.050781 7.6875 3.632813 7.457031 4.238281 7.464844 L 65.761719 7.464844 C 66.367188 7.457031 66.949219 7.6875 67.382813 8.113281 C 67.8125 8.539063 68.054688 9.117188 68.054688 9.722656 Z M 68.054688 9.722656 "/>
<path style=" stroke:none;fill-rule:nonzero;fill:rgb(185,225,255);fill-opacity:1;" d="M 7.972656 35 L 19.640625 44.800781 C 19.972656 45.066406 20.429688 45.117188 20.816406 44.9375 C 21.203125 44.757813 21.457031 44.371094 21.464844 43.945313 L 21.464844 39.667969 L 67.976563 39.667969 L 67.976563 33.054688 L 8.671875 33.054688 C 8.226563 33.085938 7.839844 33.378906 7.6875 33.796875 C 7.535156 34.21875 7.648438 34.691406 7.972656 35 Z M 7.972656 35 "/>
<path style=" stroke:none;fill-rule:nonzero;fill:rgb(255,255,255);fill-opacity:1;" d="M 63.15625 25.121094 L 51.0625 15.320313 C 50.726563 15.058594 50.269531 15.003906 49.882813 15.183594 C 49.496094 15.367188 49.242188 15.75 49.234375 16.179688 L 49.234375 20.457031 L 1.945313 20.457031 L 1.945313 27.222656 L 62.457031 27.222656 C 62.992188 27.292969 63.5 26.972656 63.671875 26.460938 C 63.839844 25.949219 63.625 25.386719 63.15625 25.121094 Z M 63.15625 25.121094 "/>
</g>
</svg>
