<?xml version="1.0" encoding="utf-8"?><svg version="1.1" xmlns="http://www.w3.org/2000/svg" xmlns:xlink="http://www.w3.org/1999/xlink" xmlns:xml="http://www.w3.org/XML/1998/namespace" width="70" height="70" viewBox="0, 0, 18, 18"><defs><linearGradient x1="9" y1="22.81" x2="9" y2="-2.491" gradientUnits="userSpaceOnUse" id="b06c9384-33ad-4efe-952b-f07dd7280cd3"><stop offset="0%" stop-color="#006CBC" /><stop offset="16.5%" stop-color="#007EDC" /><stop offset="37.8%" stop-color="#0092FE" /><stop offset="59%" stop-color="#179CFF" /><stop offset="79.9%" stop-color="#25A2FF" /><stop offset="100%" stop-color="#29A4FF" /></linearGradient><linearGradient x1="9" y1="15.982" x2="9" y2="1.522" gradientUnits="userSpaceOnUse" id="b7b1324f-a493-4cab-878a-b431174afdea"><stop offset="0%" stop-color="#CBE8FF" /><stop offset="99.7%" stop-color="#F5FAFF" /></linearGradient></defs><title>MsPortalFx.base.images-63</title><g id="e3ed6d7b-9877-4f9f-8f9b-9bc4f4055bee"><g><rect x="3.612" width="10.777" height="18" rx="0.419" style="fill:url(#b06c9384-33ad-4efe-952b-f07dd7280cd3);" /><rect x="7.758" y="0.604" width="2.483" height="0.333" rx="0.154" style="fill:#E5F3FF;" /><rect x="4.623" y="1.522" width="8.754" height="14.461" rx="0.201" opacity="0.9" style="fill:url(#b7b1324f-a493-4cab-878a-b431174afdea);" /><rect x="8.398" y="16.58" width="1.204" height="1.028" rx="0.286" style="fill:#E5F3FF;" /><path d="M11.4 2.892 V6.476 a0.192 0.192 0 0 1 -0.193 0.192 h-1.5 a0.047 0.047 0 0 0 -0.047 0.047 v0.578 a0.094 0.094 0 0 1 -0.151 0.074 l-0.9 -0.689 a0.048 0.048 0 0 0 -0.029 -0.01 H5.974 a0.192 0.192 0 0 1 -0.193 -0.192 V2.892 A0.192 0.192 0 0 1 5.974 2.7 H11.21 A0.192 0.192 0 0 1 11.4 2.892 Z" style="fill:#29A4FF;" /><rect x="5.768" y="9.88" width="1.683" height="4.782" rx="0.293" style="fill:#29A4FF;" /><rect x="8.265" y="8.806" width="1.683" height="5.855" rx="0.293" style="fill:#006CBC;" /><rect x="10.761" y="7.927" width="1.683" height="6.734" rx="0.293" style="fill:#00518E;" /></g></g></svg>