<?xml version="1.0" encoding="UTF-8"?>
<svg xmlns="http://www.w3.org/2000/svg" xmlns:xlink="http://www.w3.org/1999/xlink" width="70pt" height="70pt" viewBox="0 0 70 70" version="1.1">
<defs>
<filter id="alpha" filterUnits="objectBoundingBox" x="0%" y="0%" width="100%" height="100%">
  <feColorMatrix type="matrix" in="SourceGraphic" values="0 0 0 0 1 0 0 0 0 1 0 0 0 0 1 0 0 0 1 0"/>
</filter>
<mask id="mask0">
  <g filter="url(#alpha)">
<rect x="0" y="0" width="70" height="70" style="fill:rgb(0,0,0);fill-opacity:0.14902;stroke:none;"/>
  </g>
</mask>
<clipPath id="clip1">
  <rect x="0" y="0" width="70" height="70"/>
</clipPath>
<g id="surface5" clip-path="url(#clip1)">
<path style=" stroke:none;fill-rule:nonzero;fill:rgb(255,255,255);fill-opacity:1;" d="M 14.3125 56.3125 L 14.3125 7 L 46.1875 7 L 49.03125 0 L 15.398438 0 C 13.082031 0 11.199219 1.878906 11.199219 4.199219 L 11.199219 65.800781 C 11.199219 68.121094 13.082031 70 15.398438 70 L 20.574219 70 L 26.136719 56.3125 Z M 14.3125 56.3125 "/>
</g>
<mask id="mask1">
  <g filter="url(#alpha)">
<rect x="0" y="0" width="70" height="70" style="fill:rgb(0,0,0);fill-opacity:0.701961;stroke:none;"/>
  </g>
</mask>
<clipPath id="clip2">
  <rect x="0" y="0" width="70" height="70"/>
</clipPath>
<g id="surface8" clip-path="url(#clip2)">
<path style=" stroke:none;fill-rule:nonzero;fill:rgb(255,255,255);fill-opacity:1;" d="M 33.582031 47.128906 C 33.511719 47.128906 33.449219 47.113281 33.394531 47.078125 L 21.105469 39.984375 C 20.984375 39.917969 20.914063 39.800781 20.914063 39.660156 L 20.914063 25.429688 C 20.914063 25.296875 20.984375 25.171875 21.105469 25.105469 C 21.21875 25.039063 21.359375 25.039063 21.480469 25.105469 L 33.769531 32.195313 C 33.878906 32.265625 33.949219 32.386719 33.949219 32.523438 L 33.949219 46.753906 C 33.949219 46.890625 33.878906 47.011719 33.769531 47.078125 C 33.707031 47.113281 33.640625 47.128906 33.582031 47.128906 "/>
</g>
<mask id="mask2">
  <g filter="url(#alpha)">
<rect x="0" y="0" width="70" height="70" style="fill:rgb(0,0,0);fill-opacity:0.4;stroke:none;"/>
  </g>
</mask>
<clipPath id="clip3">
  <rect x="0" y="0" width="70" height="70"/>
</clipPath>
<g id="surface11" clip-path="url(#clip3)">
<path style=" stroke:none;fill-rule:nonzero;fill:rgb(255,255,255);fill-opacity:1;" d="M 37.058594 47.128906 C 36.992188 47.128906 36.929688 47.113281 36.867188 47.078125 C 36.757813 47.011719 36.6875 46.890625 36.6875 46.753906 L 36.6875 32.613281 C 36.6875 32.480469 36.757813 32.355469 36.867188 32.289063 L 49.152344 25.199219 C 49.273438 25.132813 49.410156 25.132813 49.523438 25.199219 C 49.640625 25.265625 49.710938 25.386719 49.710938 25.519531 L 49.710938 39.660156 C 49.710938 39.800781 49.640625 39.917969 49.523438 39.984375 L 37.238281 47.078125 C 37.191406 47.113281 37.125 47.128906 37.058594 47.128906 "/>
</g>
</defs>
<g id="surface1">
<path style=" stroke:none;fill-rule:nonzero;fill:rgb(0,71,124);fill-opacity:1;" d="M 59.421875 65.800781 C 59.421875 68.121094 57.542969 70 55.222656 70 L 15.398438 70 C 13.082031 70 11.199219 68.121094 11.199219 65.800781 L 11.199219 4.199219 C 11.199219 1.878906 13.082031 0 15.398438 0 L 55.222656 0 C 57.542969 0 59.421875 1.878906 59.421875 4.199219 Z M 59.421875 65.800781 "/>
<path style=" stroke:none;fill-rule:nonzero;fill:rgb(57,171,255);fill-opacity:1;" d="M 14.3125 7 L 56.3125 7 L 56.3125 56.3125 L 14.3125 56.3125 Z M 14.3125 7 "/>
<path style=" stroke:none;fill-rule:nonzero;fill:rgb(255,255,255);fill-opacity:1;" d="M 39.355469 63.152344 C 39.355469 65.386719 37.546875 67.199219 35.3125 67.199219 C 33.078125 67.199219 31.269531 65.386719 31.269531 63.152344 C 31.269531 60.921875 33.078125 59.109375 35.3125 59.109375 C 37.546875 59.109375 39.355469 60.921875 39.355469 63.152344 "/>
<path style=" stroke:none;fill-rule:nonzero;fill:rgb(115,195,255);fill-opacity:1;" d="M 37.964844 63.152344 C 37.964844 64.617188 36.777344 65.808594 35.3125 65.808594 C 33.847656 65.808594 32.660156 64.617188 32.660156 63.152344 C 32.660156 61.691406 33.847656 60.503906 35.3125 60.503906 C 36.777344 60.503906 37.964844 61.691406 37.964844 63.152344 "/>
<use xlink:href="#surface5" mask="url(#mask0)"/>
<path style=" stroke:none;fill-rule:nonzero;fill:rgb(0,33,58);fill-opacity:1;" d="M 42.46875 3.945313 C 42.46875 4.515625 42.003906 4.976563 41.433594 4.976563 L 29.191406 4.976563 C 28.621094 4.976563 28.15625 4.515625 28.15625 3.945313 C 28.15625 3.371094 28.621094 2.910156 29.191406 2.910156 L 41.433594 2.910156 C 42.003906 2.910156 42.46875 3.371094 42.46875 3.945313 "/>
<path style=" stroke:none;fill-rule:nonzero;fill:rgb(255,255,255);fill-opacity:1;" d="M 42.46875 3.945313 C 42.46875 4.515625 42.003906 4.976563 41.433594 4.976563 L 29.191406 4.976563 C 28.621094 4.976563 28.15625 4.515625 28.15625 3.945313 C 28.15625 3.371094 28.621094 2.910156 29.191406 2.910156 L 41.433594 2.910156 C 42.003906 2.910156 42.46875 3.371094 42.46875 3.945313 "/>
<path style=" stroke:none;fill-rule:nonzero;fill:rgb(255,255,255);fill-opacity:1;" d="M 35.351563 29.835938 C 35.289063 29.835938 35.222656 29.816406 35.164063 29.78125 L 22.839844 22.667969 C 22.726563 22.601563 22.652344 22.476563 22.652344 22.34375 C 22.652344 22.210938 22.726563 22.085938 22.839844 22.023438 L 35.089844 14.953125 C 35.203125 14.890625 35.34375 14.890625 35.457031 14.953125 L 47.789063 22.070313 C 47.902344 22.136719 47.972656 22.261719 47.972656 22.394531 C 47.972656 22.527344 47.902344 22.648438 47.789063 22.714844 L 35.539063 29.78125 C 35.480469 29.816406 35.421875 29.835938 35.351563 29.835938 "/>
<use xlink:href="#surface8" mask="url(#mask1)"/>
<use xlink:href="#surface11" mask="url(#mask2)"/>
</g>
</svg>
