<?xml version="1.0" encoding="UTF-8"?>
<svg xmlns="http://www.w3.org/2000/svg" xmlns:xlink="http://www.w3.org/1999/xlink" width="47pt" height="70pt" viewBox="0 0 47 70" version="1.1">
<defs>
<filter id="alpha" filterUnits="objectBoundingBox" x="0%" y="0%" width="100%" height="100%">
  <feColorMatrix type="matrix" in="SourceGraphic" values="0 0 0 0 1 0 0 0 0 1 0 0 0 0 1 0 0 0 1 0"/>
</filter>
<mask id="mask0">
  <g filter="url(#alpha)">
<rect x="0" y="0" width="47" height="70" style="fill:rgb(0%,0%,0%);fill-opacity:0.14902;stroke:none;"/>
  </g>
</mask>
<clipPath id="clip1">
  <rect x="0" y="0" width="47" height="70"/>
</clipPath>
<g id="surface5" clip-path="url(#clip1)">
<path style=" stroke:none;fill-rule:nonzero;fill:rgb(100%,100%,100%);fill-opacity:1;" d="M 3.074219 56.3125 L 3.074219 7 L 34.546875 7 L 37.351563 0 L 4.148438 0 C 1.855469 0 0 1.878906 0 4.199219 L 0 65.800781 C 0 68.121094 1.855469 70 4.148438 70 L 9.253906 70 L 14.75 56.3125 Z M 3.074219 56.3125 "/>
</g>
<mask id="mask1">
  <g filter="url(#alpha)">
<rect x="0" y="0" width="47" height="70" style="fill:rgb(0%,0%,0%);fill-opacity:0.701961;stroke:none;"/>
  </g>
</mask>
<clipPath id="clip2">
  <rect x="0" y="0" width="47" height="70"/>
</clipPath>
<g id="surface8" clip-path="url(#clip2)">
<path style=" stroke:none;fill-rule:nonzero;fill:rgb(100%,100%,100%);fill-opacity:1;" d="M 22.101563 47.128906 C 22.03125 47.128906 21.96875 47.113281 21.914063 47.078125 L 9.78125 39.984375 C 9.664063 39.917969 9.59375 39.800781 9.59375 39.660156 L 9.59375 25.429688 C 9.59375 25.296875 9.664063 25.171875 9.78125 25.105469 C 9.890625 25.039063 10.03125 25.039063 10.152344 25.105469 L 22.285156 32.195313 C 22.390625 32.265625 22.464844 32.386719 22.464844 32.523438 L 22.464844 46.753906 C 22.464844 46.890625 22.390625 47.011719 22.285156 47.078125 C 22.222656 47.113281 22.160156 47.128906 22.101563 47.128906 "/>
</g>
<mask id="mask2">
  <g filter="url(#alpha)">
<rect x="0" y="0" width="47" height="70" style="fill:rgb(0%,0%,0%);fill-opacity:0.4;stroke:none;"/>
  </g>
</mask>
<clipPath id="clip3">
  <rect x="0" y="0" width="47" height="70"/>
</clipPath>
<g id="surface11" clip-path="url(#clip3)">
<path style=" stroke:none;fill-rule:nonzero;fill:rgb(100%,100%,100%);fill-opacity:1;" d="M 25.535156 47.128906 C 25.46875 47.128906 25.40625 47.113281 25.34375 47.078125 C 25.234375 47.011719 25.164063 46.890625 25.164063 46.753906 L 25.164063 32.613281 C 25.164063 32.480469 25.234375 32.355469 25.34375 32.289063 L 37.476563 25.199219 C 37.589844 25.132813 37.726563 25.132813 37.839844 25.199219 C 37.957031 25.265625 38.027344 25.386719 38.027344 25.519531 L 38.027344 39.660156 C 38.027344 39.800781 37.957031 39.917969 37.839844 39.984375 L 25.710938 47.078125 C 25.660156 47.113281 25.597656 47.128906 25.535156 47.128906 "/>
</g>
</defs>
<g id="surface1">
<path style=" stroke:none;fill-rule:nonzero;fill:rgb(24.313725%,24.313725%,24.313725%);fill-opacity:1;" d="M 47.613281 65.800781 C 47.613281 68.121094 45.757813 70 43.46875 70 L 4.148438 70 C 1.855469 70 0 68.121094 0 65.800781 L 0 4.199219 C 0 1.878906 1.855469 0 4.148438 0 L 43.46875 0 C 45.757813 0 47.613281 1.878906 47.613281 4.199219 Z M 47.613281 65.800781 "/>
<path style=" stroke:none;fill-rule:nonzero;fill:rgb(34.901961%,70.588235%,85.098039%);fill-opacity:1;" d="M 3.074219 7 L 44.546875 7 L 44.546875 56.3125 L 3.074219 56.3125 Z M 3.074219 7 "/>
<path style=" stroke:none;fill-rule:nonzero;fill:rgb(100%,100%,100%);fill-opacity:1;" d="M 27.800781 63.152344 C 27.800781 65.386719 26.011719 67.199219 23.808594 67.199219 C 21.601563 67.199219 19.816406 65.386719 19.816406 63.152344 C 19.816406 60.921875 21.601563 59.109375 23.808594 59.109375 C 26.011719 59.109375 27.800781 60.921875 27.800781 63.152344 "/>
<path style=" stroke:none;fill-rule:nonzero;fill:rgb(72.156863%,83.137255%,19.607843%);fill-opacity:1;" d="M 26.425781 63.152344 C 26.425781 64.617188 25.253906 65.808594 23.808594 65.808594 C 22.363281 65.808594 21.191406 64.617188 21.191406 63.152344 C 21.191406 61.691406 22.363281 60.503906 23.808594 60.503906 C 25.253906 60.503906 26.425781 61.691406 26.425781 63.152344 "/>
<use xlink:href="#surface5" mask="url(#mask0)"/>
<path style=" stroke:none;fill-rule:nonzero;fill:rgb(11.764706%,11.764706%,11.764706%);fill-opacity:1;" d="M 30.875 3.945313 C 30.875 4.515625 30.417969 4.976563 29.851563 4.976563 L 17.765625 4.976563 C 17.199219 4.976563 16.742188 4.515625 16.742188 3.945313 C 16.742188 3.371094 17.199219 2.910156 17.765625 2.910156 L 29.851563 2.910156 C 30.417969 2.910156 30.875 3.371094 30.875 3.945313 "/>
<path style=" stroke:none;fill-rule:nonzero;fill:rgb(100%,100%,100%);fill-opacity:1;" d="M 30.875 3.945313 C 30.875 4.515625 30.417969 4.976563 29.851563 4.976563 L 17.765625 4.976563 C 17.199219 4.976563 16.742188 4.515625 16.742188 3.945313 C 16.742188 3.371094 17.199219 2.910156 17.765625 2.910156 L 29.851563 2.910156 C 30.417969 2.910156 30.875 3.371094 30.875 3.945313 "/>
<path style=" stroke:none;fill-rule:nonzero;fill:rgb(100%,100%,100%);fill-opacity:1;" d="M 23.847656 29.835938 C 23.785156 29.835938 23.722656 29.816406 23.660156 29.78125 L 11.492188 22.667969 C 11.378906 22.601563 11.308594 22.476563 11.308594 22.34375 C 11.308594 22.210938 11.378906 22.085938 11.492188 22.023438 L 23.589844 14.953125 C 23.703125 14.890625 23.839844 14.890625 23.953125 14.953125 L 36.125 22.070313 C 36.238281 22.136719 36.308594 22.261719 36.308594 22.394531 C 36.308594 22.527344 36.238281 22.648438 36.125 22.714844 L 24.035156 29.78125 C 23.972656 29.816406 23.914063 29.835938 23.847656 29.835938 "/>
<use xlink:href="#surface8" mask="url(#mask1)"/>
<use xlink:href="#surface11" mask="url(#mask2)"/>
</g>
</svg>
