<?xml version="1.0" encoding="UTF-8"?>
<svg xmlns="http://www.w3.org/2000/svg" xmlns:xlink="http://www.w3.org/1999/xlink" width="42pt" height="70pt" viewBox="0 0 42 70" version="1.1">
<g id="surface1">
<path style=" stroke:none;fill-rule:nonzero;fill:rgb(0%,47.058824%,84.313725%);fill-opacity:1;" d="M 38.265625 0 L 3.109375 0 C 0 0.15625 0 0.777344 0 4.511719 L 0 64.867188 C 0 68.601563 0 69.222656 3.109375 69.378906 C 3.109375 69.378906 4.042969 69.378906 4.199219 69.378906 L 37.332031 69.378906 C 37.488281 69.378906 38.421875 69.378906 38.421875 69.378906 C 41.535156 69.222656 41.535156 68.601563 41.535156 64.867188 L 41.535156 4.511719 C 41.378906 0.933594 41.378906 0.15625 38.265625 0 Z M 15.867188 2.332031 L 25.667969 2.332031 C 25.820313 2.332031 25.976563 2.488281 25.976563 2.644531 C 25.976563 2.800781 25.820313 2.957031 25.667969 2.957031 L 15.867188 2.957031 C 15.710938 2.957031 15.554688 2.800781 15.554688 2.644531 C 15.554688 2.644531 15.554688 2.332031 15.867188 2.332031 Z M 16.023438 65.800781 L 13.6875 65.800781 C 13.222656 65.800781 12.910156 65.644531 12.910156 65.179688 C 12.910156 64.710938 13.222656 64.554688 13.6875 64.554688 L 16.023438 64.554688 C 16.488281 64.554688 16.800781 64.710938 16.800781 65.179688 C 16.800781 65.644531 16.488281 65.800781 16.023438 65.800781 Z M 22.398438 66.265625 L 19.132813 66.265625 C 18.667969 66.265625 18.199219 66.109375 18.199219 65.488281 C 18.199219 65.023438 18.667969 64.710938 19.132813 64.710938 L 22.398438 64.710938 C 22.867188 64.710938 23.332031 64.867188 23.332031 65.488281 C 23.332031 65.957031 22.867188 66.265625 22.398438 66.265625 Z M 27.6875 65.800781 L 25.355469 65.800781 C 24.890625 65.800781 24.578125 65.644531 24.578125 65.332031 C 24.578125 64.867188 24.890625 64.867188 25.355469 64.867188 L 27.6875 64.867188 C 28.15625 64.867188 28.464844 65.023438 28.464844 65.332031 C 28.464844 65.644531 28.15625 65.800781 27.6875 65.800781 Z M 38.421875 58.800781 C 38.421875 61.910156 38.109375 62.6875 35.15625 62.6875 L 6.222656 62.6875 C 3.265625 62.6875 2.957031 61.910156 2.957031 58.800781 L 2.957031 8.710938 C 2.957031 5.445313 3.265625 5.445313 6.535156 5.445313 L 34.84375 5.445313 C 38.109375 5.445313 38.578125 5.445313 38.578125 8.710938 Z M 38.421875 58.800781 "/>
<path style=" stroke:none;fill-rule:nonzero;fill:rgb(0%,47.058824%,84.313725%);fill-opacity:1;" d="M 36.398438 10.734375 C 36.398438 7.464844 35.933594 7.464844 32.820313 7.464844 L 8.554688 7.464844 C 5.289063 7.464844 4.976563 7.464844 4.976563 10.734375 L 4.976563 56.777344 C 4.976563 60.042969 5.289063 60.511719 8.554688 60.511719 L 32.820313 60.511719 C 36.089844 60.511719 36.398438 59.890625 36.398438 56.777344 Z M 19.753906 44.644531 L 9.800781 38.890625 L 9.800781 27.378906 L 19.753906 33.132813 Z M 10.734375 25.667969 L 20.6875 19.910156 L 30.644531 25.667969 L 20.6875 31.578125 Z M 31.578125 38.890625 L 21.621094 44.644531 L 21.621094 33.132813 L 31.578125 27.378906 Z M 31.578125 38.890625 "/>
</g>
</svg>
