<?xml version="1.0" encoding="utf-8"?><svg version="1.1" xmlns="http://www.w3.org/2000/svg" xmlns:xlink="http://www.w3.org/1999/xlink" xmlns:xml="http://www.w3.org/XML/1998/namespace" width="70" height="70" viewBox="0, 0, 18, 18" id="e5cb9f87-7b25-4ce4-8df5-8cd66afecc6d"><defs><linearGradient x1="9" y1="0.81" x2="9" y2="21.28" gradientUnits="userSpaceOnUse" id="bd9b1662-9bee-4ea8-9cee-787e4ccd4f18"><stop offset="0%" stop-color="#99D3FF" /><stop offset="34%" stop-color="#65BDFF" /><stop offset="77%" stop-color="#29A4FF" /><stop offset="100%" stop-color="#139AFF" /></linearGradient></defs><title>Icon-web-45</title><g><g><path d="M17.5 2.5 V13.33 a0.58 0.58 0 0 1 -0.59 0.58 H12.39 a0.14 0.14 0 0 0 -0.14 0.14 V15.8 a0.28 0.28 0 0 1 -0.45 0.22 L9.08 13.94 l-0.09 0 H1.09 a0.58 0.58 0 0 1 -0.59 -0.58 V2.5 a0.58 0.58 0 0 1 0.59 -0.58 H16.91 A0.58 0.58 0 0 1 17.5 2.5 Z" style="fill:url(#bd9b1662-9bee-4ea8-9cee-787e4ccd4f18);" /><path d="M2.05 9 l3 2.52 a0.29 0.29 0 0 0 0.47 -0.22 v-1.1 H17.48 V8.5 H2.23 A0.29 0.29 0 0 0 2.05 9 Z" style="fill:#B9E1FF;" /><path d="M16.24 6.46 L13.13 3.94 a0.29 0.29 0 0 0 -0.47 0.22 v1.1 H0.5 V7 H16.06 A0.29 0.29 0 0 0 16.24 6.46 Z" style="fill:white;" /></g></g></svg>