<?xml version="1.0" encoding="UTF-8"?>
<svg xmlns="http://www.w3.org/2000/svg" xmlns:xlink="http://www.w3.org/1999/xlink" width="70pt" height="70pt" viewBox="0 0 70 70" version="1.1">
<defs>
<filter id="alpha" filterUnits="objectBoundingBox" x="0%" y="0%" width="100%" height="100%">
  <feColorMatrix type="matrix" in="SourceGraphic" values="0 0 0 0 1 0 0 0 0 1 0 0 0 0 1 0 0 0 1 0"/>
</filter>
<mask id="mask0">
  <g filter="url(#alpha)">
<rect x="0" y="0" width="70" height="70" style="fill:rgb(0%,0%,0%);fill-opacity:0.4;stroke:none;"/>
  </g>
</mask>
<clipPath id="clip1">
  <rect x="0" y="0" width="70" height="70"/>
</clipPath>
<g id="surface5" clip-path="url(#clip1)">
<path style=" stroke:none;fill-rule:nonzero;fill:rgb(34.901961%,70.588235%,85.098039%);fill-opacity:1;" d="M 10.308594 44.910156 L 32.199219 29.363281 L 54.09375 44.910156 L 32.199219 61.515625 Z M 10.308594 44.910156 "/>
</g>
</defs>
<g id="surface1">
<path style=" stroke:none;fill-rule:nonzero;fill:rgb(22.352941%,60%,77.647059%);fill-opacity:1;" d="M 3.210938 44.800781 L 32.199219 24.210938 L 61.191406 44.800781 L 32.199219 66.789063 Z M 3.210938 44.800781 "/>
<path style=" stroke:none;fill-rule:nonzero;fill:rgb(100%,100%,100%);fill-opacity:1;" d="M 10.308594 44.910156 L 32.199219 29.363281 L 54.09375 44.910156 L 32.199219 61.515625 Z M 10.308594 44.910156 "/>
<use xlink:href="#surface5" mask="url(#mask0)"/>
<path style=" stroke:none;fill-rule:nonzero;fill:rgb(100%,100%,100%);fill-opacity:1;" d="M 65.660156 44.800781 C 65.660156 50.136719 61.335938 54.460938 56 54.460938 C 50.664063 54.460938 46.339844 50.136719 46.339844 44.800781 C 46.339844 39.464844 50.664063 35.140625 56 35.140625 C 61.335938 35.140625 65.660156 39.464844 65.660156 44.800781 Z M 65.660156 44.800781 "/>
<path style=" stroke:none;fill-rule:nonzero;fill:rgb(22.352941%,60%,77.647059%);fill-opacity:1;" d="M 56 39.339844 C 59.011719 39.339844 61.460938 41.789063 61.460938 44.800781 C 61.460938 47.808594 59.011719 50.261719 56 50.261719 C 52.988281 50.261719 50.539063 47.808594 50.539063 44.800781 C 50.539063 41.789063 52.988281 39.339844 56 39.339844 M 56 35.140625 C 50.664063 35.140625 46.339844 39.464844 46.339844 44.800781 C 46.339844 50.136719 50.664063 54.460938 56 54.460938 C 61.335938 54.460938 65.660156 50.136719 65.660156 44.800781 C 65.660156 39.464844 61.335938 35.140625 56 35.140625 Z M 56 35.140625 "/>
<path style=" stroke:none;fill-rule:nonzero;fill:rgb(50.196078%,28.627451%,59.607843%);fill-opacity:1;" d="M 68.28125 13.371094 C 68.28125 6.144531 62.78125 0.140625 56 0.140625 C 49.21875 0.140625 43.71875 5.898438 43.71875 13.371094 C 43.71875 20.84375 56 41.300781 56 46.199219 C 56 41.300781 68.28125 20.597656 68.28125 13.371094 Z M 68.28125 13.371094 "/>
<path style=" stroke:none;fill-rule:nonzero;fill:rgb(100%,100%,100%);fill-opacity:1;" d="M 61.460938 12.601563 C 61.460938 15.617188 59.015625 18.058594 56 18.058594 C 52.984375 18.058594 50.539063 15.617188 50.539063 12.601563 C 50.539063 9.585938 52.984375 7.140625 56 7.140625 C 59.015625 7.140625 61.460938 9.585938 61.460938 12.601563 Z M 61.460938 12.601563 "/>
<path style=" stroke:none;fill-rule:nonzero;fill:rgb(50.196078%,28.627451%,59.607843%);fill-opacity:1;" d="M 39.058594 28 C 39.058594 31.789063 35.988281 34.859375 32.199219 34.859375 C 28.410156 34.859375 25.339844 31.789063 25.339844 28 C 25.339844 24.210938 28.410156 21.140625 32.199219 21.140625 C 35.988281 21.140625 39.058594 24.210938 39.058594 28 Z M 39.058594 28 "/>
<path style=" stroke:none;fill-rule:nonzero;fill:rgb(50.196078%,28.627451%,59.607843%);fill-opacity:1;" d="M 15.261719 44.800781 C 15.261719 48.589844 12.1875 51.660156 8.398438 51.660156 C 4.609375 51.660156 1.539063 48.589844 1.539063 44.800781 C 1.539063 41.011719 4.609375 37.941406 8.398438 37.941406 C 12.1875 37.941406 15.261719 41.011719 15.261719 44.800781 Z M 15.261719 44.800781 "/>
<path style=" stroke:none;fill-rule:nonzero;fill:rgb(50.196078%,28.627451%,59.607843%);fill-opacity:1;" d="M 39.058594 63 C 39.058594 66.789063 35.988281 69.859375 32.199219 69.859375 C 28.410156 69.859375 25.339844 66.789063 25.339844 63 C 25.339844 59.210938 28.410156 56.140625 32.199219 56.140625 C 35.988281 56.140625 39.058594 59.210938 39.058594 63 Z M 39.058594 63 "/>
</g>
</svg>
