<?xml version="1.0" encoding="utf-8"?><svg version="1.1" xmlns="http://www.w3.org/2000/svg" xmlns:xlink="http://www.w3.org/1999/xlink" xmlns:xml="http://www.w3.org/XML/1998/namespace" width="70" height="70" viewBox="0, 0, 18, 18" id="a760b6f1-1e55-4349-bcad-563b81ab52cb"><defs><linearGradient x1="-6784.85" y1="1118.78" x2="-6784.85" y2="1089.98" gradientUnits="userSpaceOnUse" gradientTransform="matrix(0.5, 0, 0, -0.5, 3400.41, 559.99)" id="b715ec20-95db-414c-982b-71456fb0c9ab"><stop offset="0%" stop-color="#29A4FF" /><stop offset="18%" stop-color="#23A1FF" /><stop offset="41%" stop-color="#119AFF" /><stop offset="66%" stop-color="#008BF2" /><stop offset="94%" stop-color="#0072C6" /><stop offset="100%" stop-color="#006CBC" /></linearGradient><linearGradient x1="-1.47" y1="14.91" x2="17.16" y2="14.8" gradientUnits="userSpaceOnUse" id="f7e46209-f134-49aa-a850-2e9a1b04fba6"><stop offset="0%" stop-color="#119AFF" stop-opacity="0.15" /><stop offset="16%" stop-color="#006EC0" stop-opacity="0" /><stop offset="18%" stop-color="#0067B4" stop-opacity="0.06" /><stop offset="23%" stop-color="#005798" stop-opacity="0.19" /><stop offset="28%" stop-color="#004D86" stop-opacity="0.27" /><stop offset="34%" stop-color="#004980" stop-opacity="0.3" /><stop offset="76%" stop-color="#002440" stop-opacity="0.35" /><stop offset="90%" stop-color="#007AD4" stop-opacity="0" /><stop offset="100%" stop-color="#119AFF" stop-opacity="0" /></linearGradient><clipPath id="b36c7b72-34c8-47c6-ac8b-a96783f174f2"><circle cx="13.26" cy="13.27" r="4.16" style="fill:none;" /></clipPath></defs><title>Icon-identity-225</title><path d="M5.61 10.65 H9.94 V15 H5.61 Z m-5 -5.76 H4.89 V0.57 H1.17 a0.6 0.6 0 0 0 -0.6 0.6 Z M1.17 15 H4.89 V10.65 H0.57 v3.72 A0.6 0.6 0 0 0 1.17 15 Z m-0.6 -5 H4.89 V5.61 H0.57 Z m10.09 5 h3.72 a0.6 0.6 0 0 0 0.6 -0.6 V10.65 H10.66 Z m-5 -5 H9.94 V5.61 H5.61 Z m5.05 0 H15 V5.61 H10.66 Z m0 -9.36 V4.89 H15 V1.17 a0.6 0.6 0 0 0 -0.6 -0.6 Z m-5 4.32 H9.94 V0.57 H5.61 Z" style="fill:url(#b715ec20-95db-414c-982b-71456fb0c9ab);" /><path d="M10.66 15 h4.15 a0.59 0.59 0 0 1 -0.18 -0.29 h-4 Z" opacity="0.95" style="fill:url(#f7e46209-f134-49aa-a850-2e9a1b04fba6);" /><circle cx="13.26" cy="13.27" r="4.16" style="fill:#2FA6FF;" /><g clip-path="url(#b36c7b72-34c8-47c6-ac8b-a96783f174f2)"><path d="M17.06 13.87 c-0.21 0.11 -0.51 0.05 -0.65 0.16 a1.6 1.6 0 0 0 -0.63 0.66 c0 0.06 0 0.15 -0.07 0.18 c-0.28 0.19 -0.56 0.39 -0.3 0.81 c-0.3 0 -0.2 -0.27 -0.34 -0.35 a0.77 0.77 0 0 0 -1.06 0.54 a0.34 0.34 0 0 0 0.16 0.37 a0.26 0.26 0 0 0 0.36 -0.12 a0.18 0.18 0 0 1 0.26 -0.06 c0 0.16 -0.28 0.45 0.18 0.46 c0.12 0 0.09 0.14 0.06 0.23 s0.06 0.24 0.19 0.3 s0 0 0 0.05 s0 0 0 0 c-0.37 0 -0.45 -0.45 -0.81 -0.5 a4.28 4.28 0 0 1 -0.43 -0.14 c-0.27 -0.09 -0.58 -0.14 -0.64 -0.54 a0.77 0.77 0 0 0 -0.36 -0.49 c-0.12 -0.08 -0.19 -0.23 -0.31 -0.32 a1 1 0 0 0 -0.22 -0.36 a0.94 0.94 0 0 1 -0.14 -0.87 a2.32 2.32 0 0 0 -0.1 -1.68 c-0.1 -0.32 -0.12 -0.65 -0.48 -0.86 s-0.3 0.12 -0.44 0.05 s-0.22 0.13 -0.26 0.15 c-0.29 0.08 -0.54 0.33 -0.91 0.29 c0.14 -0.07 0.25 -0.11 0.35 -0.17 s0.29 -0.14 0.07 -0.38 s-0.14 -0.59 0.45 -0.83 c-0.05 -0.14 -0.41 -0.11 -0.25 -0.37 s0.28 -0.13 0.43 0 c0.1 -0.19 -0.12 -0.43 0.05 -0.54 a2.86 2.86 0 0 1 0.72 -0.29 a0.25 0.25 0 0 1 0.34 0.11 c0.18 0.28 0.54 0.33 0.72 0.61 c0.05 0.09 0.15 0 0.22 0 c0.41 -0.14 0.68 0.12 1 0.33 s0.27 0.34 0.53 0.31 a0.49 0.49 0 0 1 0.21 0 c0.16 0.07 0.31 0.11 0.43 -0.06 a0.3 0.3 0 0 0 0.26 -0.23 c0.06 -0.09 0.09 -0.22 0.24 -0.16 A1.15 1.15 0 0 0 16 11 c0.13 -0.1 0.26 -0.16 0.11 -0.39 a0.37 0.37 0 0 1 0.25 -0.56 a0.54 0.54 0 0 1 0.63 0.23 c0.19 0.34 0.25 0.73 0.47 1 c0.07 0.09 0 0.13 0 0.2 s-0.18 0 -0.28 -0.06 l0.07 0.43 a0.66 0.66 0 0 1 -0.82 -0.25 c0 -0.12 0 -0.17 0.12 -0.23 s0.19 -0.11 0.19 -0.24 a0.19 0.19 0 0 0 -0.1 -0.2 c-0.08 0 -0.13 0 -0.15 0.09 s-0.33 0.25 -0.28 0.53 s-0.19 0.22 -0.33 0.14 c-0.33 -0.17 -0.45 0.13 -0.59 0.29 s0 0.34 0.16 0.46 s0.31 0.21 0.37 0.4 a0.88 0.88 0 0 0 0.29 -0.58 c0 -0.18 0.07 -0.43 0.32 -0.46 a0.43 0.43 0 0 1 0.44 0.28 c0.05 0.11 0.13 0.12 0.23 0.13 a8.79 8.79 0 0 1 0.54 1.52 l-0.37 -0.05 c0 -0.29 -0.25 -0.16 -0.39 -0.22 C16.84 13.64 17.07 13.69 17.06 13.87 Z" style="fill:#8FCFFF;" /><path d="M15.62 10.27 c-0.13 -0.12 -0.27 -0.23 -0.06 -0.4 s0.2 -0.29 0.3 0 A0.37 0.37 0 0 1 15.62 10.27 Z" style="fill:#8FCFFF;" /><path d="M15.93 9.87 c0.11 -0.11 0.25 -0.1 0.27 0 s-0.13 0.19 -0.26 0.23 S15.85 10 15.93 9.87 Z" style="fill:#8FCFFF;" /><path d="M15.16 8.94 L14.81 9 c0 -0.25 0.25 -0.27 0.42 -0.23 S15.21 8.89 15.16 8.94 Z" style="fill:#8FCFFF;" /></g></svg>