<?xml version="1.0" encoding="UTF-8"?>
<svg xmlns="http://www.w3.org/2000/svg" xmlns:xlink="http://www.w3.org/1999/xlink" width="70pt" height="70pt" viewBox="0 0 70 70" version="1.1">
<g id="surface1">
<rect x="0" y="0" width="70" height="70" style="fill:rgb(100%,72.54902%,0%);fill-opacity:1;stroke:none;"/>
<path style=" stroke:none;fill-rule:nonzero;fill:rgb(100%,100%,100%);fill-opacity:1;" d="M 37.101563 27.476563 C 36.75 27.648438 36.574219 27.648438 36.050781 27.824219 L 36.050781 45.851563 C 36.574219 46.023438 37.273438 46.375 37.800781 46.898438 L 45.851563 40.425781 C 45.675781 40.074219 45.675781 39.375 45.675781 38.851563 C 45.675781 38.324219 45.851563 37.449219 46.023438 36.925781 Z M 23.800781 36.925781 C 24.148438 37.449219 24.324219 38.324219 24.324219 39.023438 C 24.324219 39.550781 24.148438 40.25 23.976563 40.773438 L 32.023438 47.25 C 32.375 46.898438 33.074219 46.550781 33.601563 46.199219 L 33.601563 27.824219 C 33.25 27.648438 33.074219 27.648438 32.898438 27.476563 Z M 23.800781 36.925781 "/>
<path style=" stroke:none;fill-rule:nonzero;fill:rgb(100%,100%,100%);fill-opacity:1;" d="M 35 7 L 7 40.25 L 35 63 L 63 40.25 Z M 50.226563 43.574219 C 49.175781 43.574219 48.300781 43.226563 47.425781 42.523438 L 39.375 49.175781 C 39.550781 49.523438 39.550781 49.875 39.550781 50.398438 C 39.550781 52.851563 37.625 54.949219 35 54.949219 C 32.375 54.949219 30.449219 53.023438 30.449219 50.398438 C 30.449219 50.050781 30.449219 49.699219 30.625 49.351563 L 22.050781 42.699219 C 21.351563 43.226563 20.476563 43.398438 19.601563 43.398438 C 17.148438 43.398438 15.050781 41.476563 15.050781 38.851563 C 15.050781 36.398438 16.976563 34.300781 19.601563 34.300781 C 20.300781 34.300781 21 34.476563 21.699219 34.824219 L 30.625 25.023438 C 30.449219 24.5 30.273438 23.800781 30.273438 23.101563 C 30.273438 20.648438 32.199219 18.550781 34.824219 18.550781 C 37.449219 18.550781 39.375 20.476563 39.375 23.101563 C 39.375 23.800781 39.199219 24.675781 38.851563 25.199219 L 47.601563 35 C 48.300781 34.648438 49.175781 34.476563 49.875 34.476563 C 52.324219 34.476563 54.425781 36.398438 54.425781 39.023438 C 54.601563 41.648438 52.5 43.574219 50.226563 43.574219 Z M 50.226563 43.574219 "/>
</g>
</svg>
