<?xml version="1.0" encoding="UTF-8"?>
<svg xmlns="http://www.w3.org/2000/svg" xmlns:xlink="http://www.w3.org/1999/xlink" width="70pt" height="70pt" viewBox="0 0 70 70" version="1.1">
<defs>
<linearGradient id="linear0" gradientUnits="userSpaceOnUse" x1="13.23" y1="12.83" x2="8.6" y2="4.06" gradientTransform="matrix(3.888889,0,0,3.888889,0,0)">
<stop offset="0" style="stop-color:rgb(9.803922%,53.333333%,85.098039%);stop-opacity:1;"/>
<stop offset="0.9" style="stop-color:rgb(32.941176%,68.235294%,94.117647%);stop-opacity:1;"/>
</linearGradient>
<linearGradient id="linear1" gradientUnits="userSpaceOnUse" x1="11.23" y1="10.28" x2="14.44" y2="15.8" gradientTransform="matrix(3.888889,0,0,3.888889,0,0)">
<stop offset="0.1" style="stop-color:rgb(32.941176%,68.235294%,94.117647%);stop-opacity:1;"/>
<stop offset="0.29" style="stop-color:rgb(30.980392%,67.058824%,93.333333%);stop-opacity:1;"/>
<stop offset="0.51" style="stop-color:rgb(25.490196%,63.529412%,91.372549%);stop-opacity:1;"/>
<stop offset="0.74" style="stop-color:rgb(16.470588%,57.647059%,87.843137%);stop-opacity:1;"/>
<stop offset="0.88" style="stop-color:rgb(9.803922%,53.333333%,85.098039%);stop-opacity:1;"/>
</linearGradient>
</defs>
<g id="surface1">
<path style=" stroke:none;fill-rule:nonzero;fill:rgb(31.372549%,90.196078%,100%);fill-opacity:1;" d="M 3.851563 38.890625 L 34.609375 58.878906 L 65.957031 38.8125 L 69.882813 43.398438 L 34.609375 66.109375 L -0.117188 43.398438 Z M 3.851563 38.890625 "/>
<path style=" stroke:none;fill-rule:nonzero;fill:rgb(100%,100%,100%);fill-opacity:1;" d="M 6.144531 36.320313 L 34.609375 2.410156 L 63.660156 36.359375 L 34.609375 54.714844 Z M 6.144531 36.320313 "/>
<path style=" stroke:none;fill-rule:nonzero;fill:rgb(31.372549%,90.196078%,100%);fill-opacity:1;" d="M 34.609375 2.410156 L 34.609375 54.714844 L 6.144531 36.320313 Z M 34.609375 2.410156 "/>
<path style=" stroke:none;fill-rule:nonzero;fill:url(#linear0);" d="M 34.609375 2.410156 L 34.609375 54.714844 L 63.660156 36.359375 Z M 34.609375 2.410156 "/>
<path style=" stroke:none;fill-rule:nonzero;fill:rgb(32.54902%,69.411765%,87.843137%);fill-opacity:1;" d="M 34.609375 29.4375 L 63.660156 36.359375 L 34.609375 54.714844 Z M 34.609375 29.4375 "/>
<path style=" stroke:none;fill-rule:nonzero;fill:rgb(61.176471%,92.156863%,100%);fill-opacity:1;" d="M 34.609375 54.714844 L 6.144531 36.320313 L 34.609375 29.4375 Z M 34.609375 54.714844 "/>
<path style=" stroke:none;fill-rule:nonzero;fill:url(#linear1);" d="M 34.609375 66.109375 L 69.882813 43.398438 L 65.957031 38.8125 L 34.609375 58.878906 Z M 34.609375 66.109375 "/>
<path style=" stroke:none;fill-rule:nonzero;fill:rgb(94.117647%,25.098039%,28.627451%);fill-opacity:1;" d="M 52.578125 67.589844 C 69.609375 55.378906 70 48.417969 70 46.238281 C 70 43.128906 69.6875 35.039063 61.5625 34.570313 C 57.546875 34.246094 53.816406 36.675781 52.5 40.484375 C 51.261719 36.648438 47.574219 34.148438 43.554688 34.417969 C 35.429688 35 35 43.128906 35 46.238281 C 35 48.417969 35.503906 55.378906 52.382813 67.472656 "/>
<path style=" stroke:none;fill-rule:nonzero;fill:rgb(100%,100%,100%);fill-opacity:1;" d="M 70 44.996094 L 62.222656 44.996094 C 62 45 61.796875 45.117188 61.679688 45.304688 L 59.226563 49.464844 C 59.171875 49.566406 59.070313 49.628906 58.957031 49.628906 C 58.84375 49.628906 58.738281 49.566406 58.683594 49.464844 L 54.988281 42.777344 C 54.898438 42.535156 54.664063 42.371094 54.40625 42.371094 C 54.144531 42.371094 53.914063 42.535156 53.820313 42.777344 L 50.554688 52.890625 C 50.511719 53.011719 50.394531 53.089844 50.265625 53.089844 C 50.132813 53.089844 50.015625 53.011719 49.972656 52.890625 L 47.015625 46.082031 C 46.914063 45.863281 46.695313 45.722656 46.453125 45.722656 C 46.210938 45.722656 45.992188 45.863281 45.890625 46.082031 L 42 53.160156 C 41.890625 53.382813 41.664063 53.519531 41.417969 53.511719 L 37.683594 53.511719 C 38.257813 54.386719 38.878906 55.230469 39.550781 56.039063 L 42.777344 56.039063 C 43.007813 56.023438 43.214844 55.890625 43.320313 55.6875 L 46.082031 50.554688 L 49.972656 59.070313 C 50.0625 59.316406 50.296875 59.476563 50.554688 59.476563 C 50.816406 59.476563 51.046875 59.316406 51.140625 59.070313 L 55.027344 47.679688 L 58.332031 54.132813 C 58.441406 54.332031 58.652344 54.453125 58.878906 54.453125 C 59.105469 54.453125 59.3125 54.332031 59.421875 54.132813 L 63.3125 47.832031 C 63.429688 47.644531 63.632813 47.527344 63.855469 47.523438 L 70 47.523438 "/>
</g>
</svg>
