<?xml version="1.0" encoding="utf-8"?><svg version="1.1" xmlns="http://www.w3.org/2000/svg" xmlns:xlink="http://www.w3.org/1999/xlink" xmlns:xml="http://www.w3.org/XML/1998/namespace" width="70" height="70" viewBox="0, 0, 18, 18" id="a76a0103-ce03-4d58-859d-4c27e02925d2"><defs><linearGradient x1="-6518.78" y1="1118.86" x2="-6518.78" y2="1090.06" gradientUnits="userSpaceOnUse" gradientTransform="matrix(0.5, 0, 0, -0.5, 3267.42, 559.99)" id="efeb8e96-2af0-4681-9a6a-45f9b0262f19"><stop offset="0%" stop-color="#5EA0EF" /><stop offset="18%" stop-color="#589EED" /><stop offset="41%" stop-color="#4897E9" /><stop offset="66%" stop-color="#2E8CE1" /><stop offset="94%" stop-color="#0A7CD7" /><stop offset="100%" stop-color="#0078D4" /></linearGradient></defs><title>Icon-identity-232</title><path d="M5.67 10.61 H10 v4.32 H5.67 Z m-5 -5.76 H5 V0.53 H1.23 a0.6 0.6 0 0 0 -0.6 0.6 Z m0.6 10.08 H5 V10.61 H0.63 v3.72 A0.6 0.6 0 0 0 1.23 14.93 Z m-0.6 -5 H5 V5.57 H0.63 Z m10.08 5 h3.72 a0.6 0.6 0 0 0 0.6 -0.6 V10.61 H10.71 Z m-5 -5 H10 V5.57 H5.67 Z m5 0 H15 V5.57 H10.71 Z m0 -9.36 V4.85 H15 V1.13 a0.6 0.6 0 0 0 -0.6 -0.6 Z m-5 4.32 H10 V0.53 H5.67 Z" style="fill:url(#efeb8e96-2af0-4681-9a6a-45f9b0262f19);" /><polygon points="17.37,10.7 17.37,15.21 13.5,17.47 13.5,12.96 17.37,10.7" style="fill:#32BEDD;" /><polygon points="17.37,10.7 13.5,12.97 9.63,10.7 13.5,8.44 17.37,10.7" style="fill:#9CEBFF;" /><polygon points="13.5,12.97 13.5,17.47 9.63,15.21 9.63,10.7 13.5,12.97" style="fill:#50E6FF;" /><polygon points="9.63,15.21 13.5,12.96 13.5,17.47 9.63,15.21" style="fill:#9CEBFF;" /><polygon points="17.37,15.21 13.5,12.96 13.5,17.47 17.37,15.21" style="fill:#50E6FF;" /></svg>