<?xml version="1.0" encoding="utf-8"?><svg version="1.1" xmlns="http://www.w3.org/2000/svg" xmlns:xlink="http://www.w3.org/1999/xlink" xmlns:xml="http://www.w3.org/XML/1998/namespace" width="70" height="70" viewBox="0, 0, 18, 18" id="f861199a-9921-482a-87ea-8504385ff0cd"><defs><linearGradient x1="9" y1="7.11" x2="9" y2="14.2" gradientUnits="userSpaceOnUse" id="f13c7428-fd1f-409a-aa83-518164fbbc0c"><stop offset="0%" stop-color="#A67AF4" /><stop offset="100%" stop-color="#552F99" /></linearGradient><linearGradient x1="8.8" y1="3.31" x2="9.32" y2="9.75" gradientUnits="userSpaceOnUse" id="a6b01360-3b65-4cb5-8c1b-eed2f64af70c"><stop offset="0%" stop-color="#A67AF4" /><stop offset="100%" stop-color="#552F99" /></linearGradient></defs><title>Icon-identity-235</title><g><path d="M2.15 11.75 a7.34 7.34 0 0 1 1 -7.2 a1.94 1.94 0 0 1 -0.7 -0.83 a8.48 8.48 0 0 0 -1.17 8.6 A3.1 3.1 0 0 1 2.15 11.75 Z M5.94 1.14 a3.14 3.14 0 0 1 0.62 0.9 A7.5 7.5 0 0 1 9 1.61 A7.33 7.33 0 0 1 13.33 3 a2.15 2.15 0 0 1 0.55 -0.69 h0 L14 2.22 A8.44 8.44 0 0 0 5.94 1.14 Z m9.91 5.12 a7.32 7.32 0 0 1 -1 7.19 a2 2 0 0 1 0.43 0.4 a1.94 1.94 0 0 1 0.27 0.43 a8.48 8.48 0 0 0 1.17 -8.6 A3.13 3.13 0 0 1 15.85 6.26 Z M11.44 16 A7.25 7.25 0 0 1 9 16.39 H9 A7.32 7.32 0 0 1 4.67 15 a2.05 2.05 0 0 1 -0.55 0.69 h0 L4 15.78 a8.48 8.48 0 0 0 8.09 1.09 A3.13 3.13 0 0 1 11.44 16 Z" style="fill:#0078D4;" /><path d="M5.18 1.87 a2.09 2.09 0 1 1 -3 0 a2.09 2.09 0 0 1 3 0 Z" style="fill:#32BEDD;" /><path d="M4.42 4.07 a1 1 0 0 0 0 -1.45 A1 1 0 0 0 3 2.62 A1 1 0 0 0 3 4.07 H3 a1 1 0 0 0 1.44 0" style="fill:white;" /><path d="M13.18 1.87 a2.09 2.09 0 1 1 0 3 a2.09 2.09 0 0 1 0 -2.95 Z" style="fill:#32BEDD;" /><path d="M15.38 2.62 a1 1 0 1 0 0 1.45 h0 a1 1 0 0 0 0 -1.45" style="fill:white;" /><path d="M12.82 16.13 a2.09 2.09 0 1 1 3 0 a2.09 2.09 0 0 1 -3 0 Z" style="fill:#32BEDD;" /><path d="M13.58 13.93 a1 1 0 0 0 0 1.45 a1 1 0 0 0 1.44 0 a1 1 0 0 0 0 -1.45 h0 a1 1 0 0 0 -1.44 0" style="fill:white;" /><path d="M4.82 16.13 a2.09 2.09 0 1 1 0 -2.95 a2.09 2.09 0 0 1 0 2.95 Z" style="fill:#32BEDD;" /><path d="M2.62 15.38 a1 1 0 1 0 0 -1.45 h0 a1 1 0 0 0 0 1.45" style="fill:white;" /><path d="M12.51 12.92 a0.76 0.76 0 0 0 0.76 -0.76 v-0.09 C13 9.69 11.61 7.74 9 7.74 S5 9.39 4.74 12.08 a0.76 0.76 0 0 0 0.68 0.84 h7.09 Z" style="fill:url(#f13c7428-fd1f-409a-aa83-518164fbbc0c);" /><path d="M9 8.31 a2.41 2.41 0 0 1 -1.3 -0.38 L9 11.28 L10.27 8 A2.37 2.37 0 0 1 9 8.31 Z" opacity="0.8" style="fill:white;" /><circle cx="9.01" cy="5.92" r="2.39" style="fill:url(#a6b01360-3b65-4cb5-8c1b-eed2f64af70c);" /></g></svg>