<?xml version="1.0" encoding="UTF-8"?>
<svg xmlns="http://www.w3.org/2000/svg" xmlns:xlink="http://www.w3.org/1999/xlink" width="70pt" height="70pt" viewBox="0 0 70 70" version="1.1">
<defs>
<filter id="alpha" filterUnits="objectBoundingBox" x="0%" y="0%" width="100%" height="100%">
  <feColorMatrix type="matrix" in="SourceGraphic" values="0 0 0 0 1 0 0 0 0 1 0 0 0 0 1 0 0 0 1 0"/>
</filter>
<mask id="mask0">
  <g filter="url(#alpha)">
<rect x="0" y="0" width="70" height="70" style="fill:rgb(0,0,0);fill-opacity:0.14902;stroke:none;"/>
  </g>
</mask>
<clipPath id="clip1">
  <rect x="0" y="0" width="70" height="70"/>
</clipPath>
<g id="surface5" clip-path="url(#clip1)">
<path style=" stroke:none;fill-rule:nonzero;fill:rgb(255,255,255);fill-opacity:1;" d="M 18.898438 62.886719 C 3.496094 53.992188 -1.777344 34.300781 7.113281 18.898438 C 16.003906 3.5 35.695313 -1.78125 51.097656 7.113281 "/>
</g>
<mask id="mask1">
  <g filter="url(#alpha)">
<rect x="0" y="0" width="70" height="70" style="fill:rgb(0,0,0);fill-opacity:0.501961;stroke:none;"/>
  </g>
</mask>
<clipPath id="clip2">
  <rect x="0" y="0" width="70" height="70"/>
</clipPath>
<g id="surface8" clip-path="url(#clip2)">
<path style=" stroke:none;fill-rule:nonzero;fill:rgb(255,255,255);fill-opacity:1;" d="M 22.429688 37.941406 L 31.894531 28.472656 C 30.574219 27.910156 29.425781 27.015625 28.554688 25.875 L 19.460938 34.96875 C 20.886719 35.398438 22.003906 36.511719 22.429688 37.941406 Z M 47.625 37.941406 L 38.160156 28.472656 C 39.476563 27.910156 40.628906 27.015625 41.5 25.875 L 50.597656 34.96875 C 49.167969 35.398438 48.050781 36.511719 47.625 37.941406 Z M 47.625 37.941406 "/>
</g>
</defs>
<g id="surface1">
<path style=" stroke:none;fill-rule:nonzero;fill:rgb(0,112,196);fill-opacity:1;" d="M 68.601563 35 C 68.601563 53.554688 53.554688 68.601563 35 68.601563 C 16.441406 68.601563 1.398438 53.554688 1.398438 35 C 1.398438 16.445313 16.441406 1.398438 35 1.398438 C 53.554688 1.398438 68.601563 16.445313 68.601563 35 "/>
<use xlink:href="#surface5" mask="url(#mask0)"/>
<path style=" stroke:none;fill-rule:nonzero;fill:rgb(255,255,255);fill-opacity:1;" d="M 53.285156 40.683594 L 50.316406 37.714844 L 37.359375 50.675781 C 37.273438 50.636719 37.1875 50.605469 37.101563 50.574219 L 37.101563 30.800781 L 32.898438 30.800781 L 32.898438 50.570313 C 32.8125 50.605469 32.726563 50.636719 32.640625 50.671875 L 23.527344 41.558594 C 23.851563 40.835938 24.035156 40.039063 24.035156 39.195313 C 24.03125 35.976563 21.417969 33.367188 18.199219 33.363281 C 14.980469 33.367188 12.363281 35.988281 12.367188 39.203125 C 12.367188 42.417969 14.984375 45.035156 18.199219 45.035156 L 18.203125 45.035156 C 19.015625 45.035156 19.816406 44.859375 20.558594 44.527344 L 29.671875 53.640625 C 29.339844 54.386719 29.167969 55.191406 29.164063 56.003906 C 29.171875 59.222656 31.777344 61.832031 35 61.835938 L 35.003906 61.835938 C 38.222656 61.832031 40.832031 59.21875 40.835938 56 C 40.835938 55.160156 40.648438 54.367188 40.328125 53.644531 Z M 18.199219 38.964844 C 18.265625 38.964844 18.324219 38.992188 18.367188 39.035156 L 18.035156 39.363281 C 17.992188 39.320313 17.964844 39.261719 17.964844 39.199219 C 17.964844 39.089844 18.089844 38.964844 18.199219 38.964844 Z M 35 56.234375 C 34.9375 56.234375 34.878906 56.210938 34.835938 56.167969 L 35 56 L 35.167969 56.167969 C 35.121094 56.210938 35.0625 56.234375 35 56.234375 Z M 35 56.234375 "/>
<path style=" stroke:none;fill-rule:nonzero;fill:rgb(39,163,255);fill-opacity:1;" d="M 38.035156 56 C 38.035156 57.675781 36.675781 59.035156 35 59.035156 C 33.324219 59.035156 31.964844 57.675781 31.964844 56 C 31.964844 54.324219 33.324219 52.964844 35 52.964844 C 36.675781 52.964844 38.035156 54.324219 38.035156 56 "/>
<path style=" stroke:none;fill-rule:nonzero;fill:rgb(255,255,255);fill-opacity:1;" d="M 51.796875 45.035156 C 48.585938 45.035156 45.96875 42.421875 45.964844 39.203125 C 45.960938 35.984375 48.578125 33.367188 51.796875 33.363281 C 55.019531 33.367188 57.628906 35.976563 57.636719 39.195313 C 57.632813 42.417969 55.023438 45.03125 51.804688 45.035156 Z M 51.800781 38.964844 C 51.691406 38.964844 51.566406 39.089844 51.566406 39.199219 C 51.5625 39.292969 51.621094 39.378906 51.710938 39.417969 C 51.796875 39.453125 51.898438 39.433594 51.964844 39.367188 C 52.035156 39.300781 52.054688 39.199219 52.015625 39.109375 C 51.980469 39.023438 51.894531 38.964844 51.800781 38.964844 Z M 51.800781 38.964844 "/>
<path style=" stroke:none;fill-rule:nonzero;fill:rgb(39,163,255);fill-opacity:1;" d="M 54.835938 39.199219 C 54.835938 40.875 53.476563 42.234375 51.800781 42.234375 C 50.125 42.234375 48.765625 40.878906 48.765625 39.203125 C 48.765625 37.523438 50.121094 36.164063 51.796875 36.164063 L 51.800781 36.164063 C 53.476563 36.164063 54.832031 37.523438 54.835938 39.199219 M 21.234375 39.199219 C 21.234375 40.875 19.878906 42.234375 18.203125 42.234375 C 16.523438 42.234375 15.164063 40.878906 15.164063 39.203125 C 15.164063 37.523438 16.523438 36.164063 18.199219 36.164063 C 19.875 36.164063 21.234375 37.523438 21.234375 39.199219 "/>
<path style=" stroke:none;fill-rule:nonzero;fill:rgb(0,112,196);fill-opacity:1;" d="M 41.960938 20.859375 C 41.960938 24.648438 38.890625 27.71875 35.101563 27.71875 C 31.3125 27.71875 28.242188 24.648438 28.242188 20.859375 C 28.242188 17.070313 31.3125 14 35.101563 14 C 38.890625 14 41.960938 17.070313 41.960938 20.859375 "/>
<path style=" stroke:none;fill-rule:nonzero;fill:rgb(255,255,255);fill-opacity:1;" d="M 35.101563 9.800781 C 28.992188 9.800781 24.042969 14.75 24.042969 20.859375 C 24.042969 26.96875 28.992188 31.921875 35.101563 31.921875 C 41.210938 31.921875 46.164063 26.96875 46.164063 20.859375 C 46.164063 14.75 41.210938 9.800781 35.101563 9.800781 Z M 35.101563 27.71875 C 31.3125 27.722656 28.242188 24.648438 28.242188 20.859375 C 28.242188 17.070313 31.3125 14 35.101563 14 C 38.890625 14 41.960938 17.070313 41.960938 20.859375 C 41.960938 24.648438 38.890625 27.71875 35.101563 27.71875 Z M 35.101563 27.71875 "/>
<use xlink:href="#surface8" mask="url(#mask1)"/>
</g>
</svg>
