<?xml version="1.0" encoding="UTF-8"?>
<svg xmlns="http://www.w3.org/2000/svg" xmlns:xlink="http://www.w3.org/1999/xlink" width="70pt" height="70pt" viewBox="0 0 70 70" version="1.1">
<g id="surface1">
<path style=" stroke:none;fill-rule:nonzero;fill:rgb(50.196078%,28.627451%,59.607843%);fill-opacity:1;" d="M 54.042969 31.363281 C 54.042969 44.59375 43.320313 55.316406 30.09375 55.316406 C 16.867188 55.316406 6.144531 44.59375 6.144531 31.363281 C 6.144531 18.136719 16.867188 7.414063 30.09375 7.414063 C 43.320313 7.414063 54.042969 18.136719 54.042969 31.363281 Z M 54.042969 31.363281 "/>
<path style=" stroke:none;fill-rule:nonzero;fill:rgb(100%,100%,100%);fill-opacity:1;" d="M 36.949219 23.46875 C 39.792969 24.917969 41.664063 27.886719 41.664063 31.089844 C 41.148438 31.089844 40.339844 31.265625 39.871094 31.089844 C 39.363281 30.902344 39.585938 30.992188 39.484375 30.230469 C 39.394531 29.605469 39.214844 28.996094 38.941406 28.425781 C 37.839844 26.058594 35.34375 24.550781 32.730469 24.726563 C 30.210938 24.894531 27.976563 26.632813 27.140625 29.007813 C 26.683594 30.296875 26.90625 31.667969 26.5 32.96875 C 26.09375 34.265625 25.289063 35.40625 24.199219 36.21875 C 27.039063 37.667969 28.914063 40.636719 28.914063 43.839844 C 28.40625 43.839844 27.582031 44.011719 27.121094 43.839844 C 26.683594 43.675781 26.839844 43.808594 26.753906 43.195313 C 26.664063 42.558594 26.539063 41.960938 26.28125 41.367188 C 25.28125 39.042969 22.945313 37.464844 20.414063 37.464844 C 17.949219 37.464844 15.675781 38.953125 14.632813 41.175781 C 14.363281 41.746094 14.179688 42.355469 14.09375 42.980469 C 14.023438 43.496094 14.167969 43.664063 13.792969 43.839844 C 13.378906 44.03125 12.390625 43.839844 11.910156 43.839844 C 11.910156 40.640625 13.785156 37.664063 16.625 36.21875 C 13.53125 33.929688 13.195313 29.304688 15.914063 26.589844 C 18.628906 23.871094 23.253906 24.210938 25.542969 27.304688 C 26.382813 25.652344 27.726563 24.308594 29.375 23.46875 C 24.550781 19.898438 27.160156 11.960938 33.164063 11.960938 C 39.167969 11.964844 41.773438 19.894531 36.949219 23.46875 C 37.667969 23.835938 37.3125 23.277344 36.949219 23.46875 Z M 20.414063 35.339844 C 25.886719 35.339844 25.882813 26.84375 20.414063 26.839844 C 14.941406 26.832031 14.9375 35.339844 20.414063 35.339844 Z M 28.914063 18.339844 C 28.914063 23.8125 37.421875 23.808594 37.414063 18.339844 C 37.40625 12.867188 28.914063 12.863281 28.914063 18.339844 Z M 31.996094 46.449219 L 47.09375 31.351563 L 62.097656 46.351563 L 46.996094 61.453125 Z M 31.996094 46.449219 "/>
<path style=" stroke:none;fill-rule:nonzero;fill:rgb(34.901961%,70.588235%,85.098039%);fill-opacity:1;" d="M 48.296875 39.496094 C 48.078125 39.601563 47.972656 39.601563 47.648438 39.710938 L 47.648438 50.851563 C 47.972656 50.960938 48.402344 51.175781 48.730469 51.5 L 53.703125 47.5 C 53.597656 47.28125 53.597656 46.851563 53.597656 46.527344 C 53.597656 46.203125 53.703125 45.660156 53.8125 45.335938 Z M 40.074219 45.335938 C 40.289063 45.660156 40.398438 46.203125 40.398438 46.632813 C 40.398438 46.957031 40.289063 47.390625 40.183594 47.714844 L 45.160156 51.71875 C 45.375 51.5 45.808594 51.285156 46.132813 51.066406 L 46.132813 39.710938 C 45.917969 39.601563 45.808594 39.601563 45.699219 39.496094 Z M 40.074219 45.335938 "/>
<path style=" stroke:none;fill-rule:nonzero;fill:rgb(34.901961%,70.588235%,85.098039%);fill-opacity:1;" d="M 46.996094 26.839844 L 29.691406 47.390625 L 46.996094 61.453125 L 64.304688 47.390625 Z M 56.410156 49.445313 C 55.757813 49.445313 55.21875 49.230469 54.679688 48.796875 L 49.703125 52.90625 C 49.808594 53.125 49.808594 53.339844 49.808594 53.664063 C 49.808594 55.179688 48.621094 56.476563 46.996094 56.476563 C 45.375 56.476563 44.183594 55.289063 44.183594 53.664063 C 44.183594 53.449219 44.183594 53.230469 44.292969 53.015625 L 38.992188 48.90625 C 38.558594 49.230469 38.019531 49.339844 37.480469 49.339844 C 35.964844 49.339844 34.667969 48.148438 34.667969 46.527344 C 34.667969 45.011719 35.855469 43.714844 37.480469 43.714844 C 37.910156 43.714844 38.34375 43.824219 38.777344 44.039063 L 44.292969 37.980469 C 44.183594 37.65625 44.078125 37.222656 44.078125 36.789063 C 44.078125 35.277344 45.265625 33.980469 46.890625 33.980469 C 48.511719 33.980469 49.703125 35.167969 49.703125 36.789063 C 49.703125 37.222656 49.59375 37.765625 49.378906 38.089844 L 54.785156 44.144531 C 55.21875 43.929688 55.757813 43.820313 56.191406 43.820313 C 57.707031 43.820313 59.003906 45.011719 59.003906 46.632813 C 59.113281 48.257813 57.816406 49.445313 56.410156 49.445313 Z M 56.410156 49.445313 "/>
</g>
</svg>
