<?xml version="1.0" encoding="UTF-8"?>
<svg xmlns="http://www.w3.org/2000/svg" xmlns:xlink="http://www.w3.org/1999/xlink" width="70pt" height="70pt" viewBox="0 0 70 70" version="1.1">
<g id="surface1">
<path style=" stroke:none;fill-rule:nonzero;fill:rgb(0%,47.058824%,84.313725%);fill-opacity:1;" d="M 32.792969 27 L 21.070313 37.847656 C 21.59375 38.722656 21.945313 39.773438 21.945313 40.648438 C 21.945313 41.175781 21.945313 41.699219 21.769531 42.222656 L 33.84375 49.574219 L 33.84375 28.398438 C 33.667969 28.398438 32.96875 27.175781 32.792969 27 Z M 32.792969 27 "/>
<path style=" stroke:none;fill-rule:nonzero;fill:rgb(0%,47.058824%,84.313725%);fill-opacity:1;" d="M 38.828125 26.832031 C 38.652344 27.003906 36.726563 28.40625 36.550781 28.582031 L 36.550781 49.582031 L 48.625 41.878906 C 48.453125 41.355469 48.277344 41.003906 48.277344 40.65625 C 48.277344 39.957031 48.453125 39.253906 48.625 38.554688 Z M 38.828125 26.832031 "/>
<path style=" stroke:none;fill-rule:nonzero;fill:rgb(0%,47.058824%,84.313725%);fill-opacity:1;" d="M 35.351563 0 L 0 42 L 35.175781 70.699219 L 70.523438 42.175781 Z M 54.074219 46.375 C 52.5 46.375 51.101563 45.675781 50.050781 44.625 L 40.425781 51.449219 C 41.125 52.324219 41.300781 53.375 41.300781 54.601563 C 41.300781 57.75 38.675781 60.199219 35.699219 60.199219 C 32.550781 60.199219 30.101563 57.75 30.101563 54.601563 C 30.101563 53.199219 30.625 51.976563 31.5 50.925781 L 20.300781 44.976563 C 19.25 46.023438 17.851563 46.550781 16.449219 46.550781 C 13.300781 46.550781 10.851563 44.101563 10.851563 40.949219 C 10.851563 37.800781 13.476563 35.351563 16.449219 35.351563 C 17.324219 35.351563 18.199219 35.523438 19.074219 36.050781 L 30.800781 25.199219 C 29.925781 24.148438 29.574219 22.75 29.574219 21.523438 C 29.574219 18.023438 32.375 15.398438 35.875 15.398438 C 39.375 15.398438 42.175781 18.199219 42.175781 21.523438 C 42.175781 22.75 41.824219 23.800781 41.125 24.851563 L 51.101563 36.574219 C 51.976563 35.875 53.199219 35.523438 54.425781 35.523438 C 57.574219 35.523438 60.023438 37.976563 60.023438 41.125 C 59.675781 43.75 57.050781 46.375 54.074219 46.375 Z M 54.074219 46.375 "/>
</g>
</svg>
