<?xml version="1.0" encoding="utf-8"?><svg version="1.1" xmlns="http://www.w3.org/2000/svg" xmlns:xlink="http://www.w3.org/1999/xlink" xmlns:xml="http://www.w3.org/XML/1998/namespace" width="70" height="70" viewBox="0, 0, 18, 18" id="e24671f6-f501-4952-a2db-8b0b1d329c17"><defs><linearGradient x1="9" y1="6.88" x2="9" y2="20.45" gradientUnits="userSpaceOnUse" id="be92901b-ec33-4c65-adf1-9b0eed06d677"><stop offset="22%" stop-color="#32D4F5" /><stop offset="100%" stop-color="#198AB3" /></linearGradient><linearGradient x1="8.61" y1="-0.4" x2="9.6" y2="11.92" gradientUnits="userSpaceOnUse" id="b46fc246-25d8-4398-8779-1042e8cacae7"><stop offset="22%" stop-color="#32D4F5" /><stop offset="100%" stop-color="#198AB3" /></linearGradient></defs><title>Icon-identity-230</title><path d="M15.72 18 a1.45 1.45 0 0 0 1.45 -1.45 a0.47 0.47 0 0 0 0 -0.17 C16.59 11.81 14 8.09 9 8.09 S1.34 11.24 0.83 16.39 A1.46 1.46 0 0 0 2.14 18 H15.72 Z" style="fill:url(#be92901b-ec33-4c65-adf1-9b0eed06d677);" /><path d="M9 9.17 a4.59 4.59 0 0 1 -2.48 -0.73 L9 14.86 l2.44 -6.38 A4.53 4.53 0 0 1 9 9.17 Z" opacity="0.8" style="fill:white;" /><circle cx="9.01" cy="4.58" r="4.58" style="fill:url(#b46fc246-25d8-4398-8779-1042e8cacae7);" /></svg>