<?xml version="1.0" encoding="UTF-8"?>
<svg xmlns="http://www.w3.org/2000/svg" xmlns:xlink="http://www.w3.org/1999/xlink" width="70pt" height="70pt" viewBox="0 0 70 70" version="1.1">
<g id="surface1">
<path style=" stroke:none;fill-rule:nonzero;fill:rgb(0%,44.705882%,77.647059%);fill-opacity:1;" d="M 0 2.800781 L 15.398438 2.800781 L 15.398438 18.199219 L 0 18.199219 Z M 18.199219 2.800781 L 35 2.800781 L 35 18.199219 L 18.199219 18.199219 Z M 37.800781 2.800781 L 53.199219 2.800781 L 53.199219 18.199219 L 37.800781 18.199219 Z M 0 21 L 15.398438 21 L 15.398438 36.398438 L 0 36.398438 Z M 18.199219 21 L 35 21 L 35 36.398438 L 18.199219 36.398438 Z M 37.800781 21 L 53.199219 21 L 53.199219 36.398438 L 37.800781 36.398438 Z M 0 39.199219 L 15.398438 39.199219 L 15.398438 56 L 0 56 Z M 18.199219 39.199219 L 35 39.199219 L 35 56 L 18.199219 56 Z M 37.800781 39.199219 L 53.199219 39.199219 L 53.199219 56 L 37.800781 56 Z M 37.800781 39.199219 "/>
<path style="fill-rule:nonzero;fill:rgb(34.901961%,70.588235%,85.098039%);fill-opacity:1;stroke-width:0.194;stroke-linecap:butt;stroke-linejoin:miter;stroke:rgb(34.901961%,70.588235%,85.098039%);stroke-opacity:1;stroke-miterlimit:10;" d="M 45.800781 35.100446 C 45.800781 42.555804 39.754464 48.59933 32.299107 48.59933 C 24.84375 48.59933 18.800223 42.555804 18.800223 35.100446 C 18.800223 27.645089 24.84375 21.598772 32.299107 21.598772 C 39.754464 21.598772 45.800781 27.645089 45.800781 35.100446 Z M 45.800781 35.100446 " transform="matrix(1.4,0,0,1.4,0,0)"/>
<path style=" stroke:none;fill-rule:nonzero;fill:rgb(72.156863%,83.137255%,19.607843%);fill-opacity:1;" d="M 64.1875 48.492188 L 57.859375 42.160156 C 57.4375 41.695313 56.839844 41.429688 56.214844 41.429688 C 55.585938 41.429688 54.992188 41.695313 54.570313 42.160156 C 54.132813 42.59375 53.886719 43.1875 53.886719 43.804688 C 53.886719 44.421875 54.132813 45.011719 54.570313 45.445313 L 52.136719 43.011719 C 51.226563 42.105469 49.757813 42.105469 48.847656 43.011719 C 47.941406 43.921875 47.941406 45.390625 48.847656 46.300781 L 54.320313 51.777344 L 55.417969 52.875 L 57.234375 54.695313 C 58.144531 55.601563 58.144531 57.074219 57.234375 57.980469 C 56.328125 58.890625 54.855469 58.890625 53.949219 57.980469 L 50.417969 54.449219 C 49.511719 53.542969 48.039063 53.542969 47.132813 54.449219 C 46.222656 55.359375 46.222656 56.828125 47.132813 57.738281 L 50.910156 61.515625 C 50.003906 60.609375 48.53125 60.609375 47.625 61.515625 C 46.714844 62.425781 46.714844 63.898438 47.625 64.804688 L 50.308594 67.480469 C 58.882813 65.285156 64.699219 57.324219 64.1875 48.484375 Z M 33.171875 53.945313 C 33.753906 53.414063 34.085938 52.664063 34.085938 51.875 C 34.085938 51.089844 33.753906 50.335938 33.171875 49.804688 L 30.128906 46.761719 C 30.660156 47.34375 31.410156 47.675781 32.199219 47.675781 C 32.988281 47.675781 33.738281 47.34375 34.269531 46.761719 C 35.121094 45.890625 35.363281 44.589844 34.878906 43.472656 L 39.019531 47.613281 C 39.546875 48.195313 40.300781 48.527344 41.089844 48.527344 C 41.875 48.527344 42.628906 48.195313 43.15625 47.613281 C 43.714844 47.066406 44.027344 46.320313 44.027344 45.542969 C 44.027344 44.765625 43.714844 44.019531 43.15625 43.472656 L 39.503906 39.578125 C 38.921875 39.046875 38.589844 38.292969 38.589844 37.507813 C 38.589844 36.71875 38.921875 35.96875 39.503906 35.4375 C 40.050781 34.882813 40.796875 34.570313 41.574219 34.570313 C 42.355469 34.570313 43.097656 34.882813 43.644531 35.4375 L 45.59375 37.382813 C 46.738281 38.511719 48.578125 38.5 49.714844 37.367188 C 50.847656 36.230469 50.859375 34.390625 49.730469 33.246094 L 46.941406 30.175781 C 41.160156 29.449219 35.386719 31.5625 31.4375 35.847656 C 27.492188 39.984375 25.613281 45.667969 26.320313 51.339844 L 28.910156 54.066406 C 30.128906 55.191406 32.019531 55.136719 33.171875 53.945313 Z M 33.171875 53.945313 "/>
</g>
</svg>
