<?xml version="1.0" encoding="utf-8"?><svg version="1.1" xmlns="http://www.w3.org/2000/svg" xmlns:xlink="http://www.w3.org/1999/xlink" xmlns:xml="http://www.w3.org/XML/1998/namespace" width="70" height="70" viewBox="0, 0, 18, 18" id="f807cdde-18f2-4574-ba14-f0b1eef94a4a"><defs><linearGradient x1="13.18" y1="13.01" x2="8.63" y2="4.38" gradientUnits="userSpaceOnUse" id="bb67b154-af8f-4a53-a9ce-aa046b9398e9"><stop offset="0%" stop-color="#007FDE" /><stop offset="90%" stop-color="#35A9FF" /></linearGradient><linearGradient x1="11.22" y1="10.5" x2="14.37" y2="15.93" gradientUnits="userSpaceOnUse" id="a47d7138-084a-471d-8d63-744e75b9e8a3"><stop offset="10%" stop-color="#35A9FF" /><stop offset="29%" stop-color="#2DA5FF" /><stop offset="51%" stop-color="#199DFF" /><stop offset="74%" stop-color="#008DF6" /><stop offset="88%" stop-color="#007FDE" /></linearGradient></defs><title>Icon-identity-227</title><g><polygon points="1.15,10.22 8.93,15.27 16.85,10.21 17.85,11.36 8.93,17.11 0.15,11.37 1.15,10.22" style="fill:#77C5FF;" /><polygon points="1.73,9.58 8.93,1 16.28,9.59 8.93,14.23 1.73,9.58" style="fill:white;" /><polygon points="8.93,1 8.93,14.23 1.73,9.58 8.93,1" style="fill:#77C5FF;" /><polygon points="8.93,1 8.93,14.23 16.28,9.59 8.93,1" style="fill:url(#bb67b154-af8f-4a53-a9ce-aa046b9398e9);" /><polygon points="8.93,7.83 16.28,9.59 8.93,14.23 8.93,7.83" style="fill:#33A8FF;" /><polygon points="8.93,14.23 1.73,9.58 8.93,7.83 8.93,14.23" style="fill:#ABDBFF;" /><polygon points="8.93,17.11 17.85,11.36 16.85,10.21 8.93,15.27 8.93,17.11" style="fill:url(#a47d7138-084a-471d-8d63-744e75b9e8a3);" /><g><path d="M16.32 11.88 a1.16 1.16 0 0 0 0 -1.65 h0 l-2 -2 a1.16 1.16 0 0 0 -1.64 0 h0 l-2 2 a1.18 1.18 0 0 0 0 1.65 l1.67 1.67 a0.32 0.32 0 0 1 0.09 0.23 v3.1 a0.36 0.36 0 0 0 0.12 0.28 l0.76 0.76 a0.25 0.25 0 0 0 0.37 0 l0.73 -0.73 h0 l0.44 -0.44 a0.15 0.15 0 0 0 0 -0.21 l-0.31 -0.31 a0.16 0.16 0 0 1 0 -0.24 l0.31 -0.31 a0.16 0.16 0 0 0 0 -0.22 l-0.31 -0.31 a0.15 0.15 0 0 1 0 -0.23 l0.31 -0.32 a0.15 0.15 0 0 0 0 -0.21 l-0.44 -0.44 v-0.16 Z M13.5 8.71 a0.66 0.66 0 1 1 -0.66 0.66 a0.66 0.66 0 0 1 0.66 -0.66 Z" id="e189a61f-631a-4122-bb2b-079e86004d96" style="fill:#87CCFF;" /><path d="M13 17 h0 a0.14 0.14 0 0 0 0.24 -0.11 V14.33 a0.16 0.16 0 0 0 -0.06 -0.13 h0 a0.14 0.14 0 0 0 -0.22 0.13 v2.51 A0.15 0.15 0 0 0 13 17 Z" id="fb7033ee-4650-4886-80c7-eddf62560f85" opacity="0.75" style="fill:#47B0FF;" /><rect x="11.9" y="10.9" width="3.29" height="0.39" rx="0.18" id="b166b8c2-b9ee-4c3d-bf7a-77bd5ce0570b" opacity="0.75" style="fill:#47B0FF;" /><rect x="11.9" y="11.53" width="3.29" height="0.39" rx="0.18" id="baf437fe-3483-4a25-94ba-1e84a64cd2eb" opacity="0.75" style="fill:#47B0FF;" /></g></g></svg>