<?xml version="1.0" encoding="utf-8"?><svg version="1.1" xmlns="http://www.w3.org/2000/svg" xmlns:xlink="http://www.w3.org/1999/xlink" xmlns:xml="http://www.w3.org/XML/1998/namespace" width="70" height="70" viewBox="0, 0, 18, 18" id="bdb56329-4717-4410-aa13-4505ecaa4e46"><defs><linearGradient x1="13.25" y1="13.02" x2="8.62" y2="4.25" gradientUnits="userSpaceOnUse" id="ba2610c3-a45a-4e7e-a0c0-285cfd7e005d"><stop offset="0%" stop-color="#007FDE" /><stop offset="90%" stop-color="#35A9FF" /></linearGradient><linearGradient x1="11.26" y1="10.47" x2="14.46" y2="15.99" gradientUnits="userSpaceOnUse" id="bd8f618b-4f2f-4cb7-aff0-2fd2d211326d"><stop offset="10%" stop-color="#35A9FF" /><stop offset="29%" stop-color="#2DA5FF" /><stop offset="51%" stop-color="#199DFF" /><stop offset="74%" stop-color="#008DF6" /><stop offset="88%" stop-color="#007FDE" /></linearGradient></defs><title>Icon-identity-221</title><polygon points="1.01,10.19 8.93,15.33 16.99,10.17 18,11.35 8.93,17.19 0,11.35 1.01,10.19" style="fill:#77C5FF;" /><polygon points="1.61,9.53 8.93,0.81 16.4,9.54 8.93,14.26 1.61,9.53" style="fill:white;" /><polygon points="8.93,0.81 8.93,14.26 1.61,9.53 8.93,0.81" style="fill:#77C5FF;" /><polygon points="8.93,0.81 8.93,14.26 16.4,9.54 8.93,0.81" style="fill:url(#ba2610c3-a45a-4e7e-a0c0-285cfd7e005d);" /><polygon points="8.93,7.76 16.4,9.54 8.93,14.26 8.93,7.76" style="fill:#33A8FF;" /><polygon points="8.93,14.26 1.61,9.53 8.93,7.76 8.93,14.26" style="fill:#ABDBFF;" /><polygon points="8.93,17.19 18,11.35 16.99,10.17 8.93,15.33 8.93,17.19" style="fill:url(#bd8f618b-4f2f-4cb7-aff0-2fd2d211326d);" /></svg>