<?xml version="1.0" encoding="UTF-8"?>
<svg xmlns="http://www.w3.org/2000/svg" xmlns:xlink="http://www.w3.org/1999/xlink" width="70pt" height="70pt" viewBox="0 0 70 70" version="1.1">
<defs>
<filter id="alpha" filterUnits="objectBoundingBox" x="0%" y="0%" width="100%" height="100%">
  <feColorMatrix type="matrix" in="SourceGraphic" values="0 0 0 0 1 0 0 0 0 1 0 0 0 0 1 0 0 0 1 0"/>
</filter>
<mask id="mask0">
  <g filter="url(#alpha)">
<rect x="0" y="0" width="70" height="70" style="fill:rgb(0%,0%,0%);fill-opacity:0.2;stroke:none;"/>
  </g>
</mask>
<clipPath id="clip1">
  <rect x="0" y="0" width="70" height="70"/>
</clipPath>
<g id="surface5" clip-path="url(#clip1)">
<path style=" stroke:none;fill-rule:nonzero;fill:rgb(100%,100%,100%);fill-opacity:1;" d="M 0 39.375 L 33.542969 67.082031 L 33.542969 0 Z M 0 39.375 "/>
</g>
<mask id="mask1">
  <g filter="url(#alpha)">
<rect x="0" y="0" width="70" height="70" style="fill:rgb(0%,0%,0%);fill-opacity:0.501961;stroke:none;"/>
  </g>
</mask>
<clipPath id="clip2">
  <rect x="0" y="0" width="70" height="70"/>
</clipPath>
<g id="surface8" clip-path="url(#clip2)">
<path style=" stroke:none;fill-rule:nonzero;fill:rgb(100%,100%,100%);fill-opacity:1;" d="M 32.375 16.914063 L 34.707031 15.164063 L 52.207031 38.496094 L 49.875 40.246094 Z M 32.375 16.914063 "/>
</g>
<mask id="mask2">
  <g filter="url(#alpha)">
<rect x="0" y="0" width="70" height="70" style="fill:rgb(0%,0%,0%);fill-opacity:0.501961;stroke:none;"/>
  </g>
</mask>
<clipPath id="clip3">
  <rect x="0" y="0" width="70" height="70"/>
</clipPath>
<g id="surface11" clip-path="url(#clip3)">
<path style=" stroke:none;fill-rule:nonzero;fill:rgb(100%,100%,100%);fill-opacity:1;" d="M 14.875 38.5 L 32.371094 15.164063 L 34.703125 16.914063 L 17.210938 40.25 Z M 14.875 38.5 "/>
</g>
</defs>
<g id="surface1">
<path style=" stroke:none;fill-rule:nonzero;fill:rgb(23.529412%,60.784314%,89.411765%);fill-opacity:1;" d="M 40.832031 58.332031 C 40.832031 57.140625 41.066406 55.992188 41.523438 54.921875 C 41.972656 53.875 42.601563 52.941406 43.390625 52.152344 C 44.191406 51.355469 45.125 50.726563 46.160156 50.277344 C 48.28125 49.371094 50.761719 49.359375 52.875 50.222656 C 52.941406 50.152344 53.011719 50.082031 53.082031 50.015625 C 53.101563 49.996094 53.125 49.972656 53.144531 49.953125 C 53.140625 49.941406 53.136719 49.929688 53.128906 49.917969 C 52.710938 48.867188 52.5 47.777344 52.5 46.667969 C 52.5 45.472656 52.734375 44.324219 53.1875 43.253906 C 53.640625 42.207031 54.265625 41.277344 55.058594 40.484375 C 55.859375 39.6875 56.789063 39.058594 57.824219 38.609375 C 59.988281 37.6875 62.519531 37.695313 64.664063 38.605469 C 65.371094 38.910156 66 39.324219 66.589844 39.78125 L 67.082031 39.375 L 33.542969 0 L 0 39.375 L 33.542969 67.082031 L 41.214844 60.742188 C 40.988281 59.953125 40.832031 59.152344 40.832031 58.332031 Z M 40.832031 58.332031 "/>
<use xlink:href="#surface5" mask="url(#mask0)"/>
<path style=" stroke:none;fill-rule:nonzero;fill:rgb(100%,100%,100%);fill-opacity:1;" d="M 37.917969 51.042969 C 37.917969 53.457031 35.957031 55.417969 33.542969 55.417969 C 31.125 55.417969 29.167969 53.457031 29.167969 51.042969 C 29.167969 48.625 31.125 46.667969 33.542969 46.667969 C 35.957031 46.667969 37.917969 48.625 37.917969 51.042969 Z M 37.917969 51.042969 "/>
<path style=" stroke:none;fill-rule:nonzero;fill:rgb(100%,100%,100%);fill-opacity:1;" d="M 20.417969 39.375 C 20.417969 41.792969 18.457031 43.75 16.042969 43.75 C 13.625 43.75 11.667969 41.792969 11.667969 39.375 C 11.667969 36.957031 13.625 35 16.042969 35 C 18.457031 35 20.417969 36.957031 20.417969 39.375 Z M 20.417969 39.375 "/>
<path style=" stroke:none;fill-rule:nonzero;fill:rgb(100%,100%,100%);fill-opacity:1;" d="M 37.917969 16.042969 C 37.917969 18.457031 35.957031 20.417969 33.542969 20.417969 C 31.125 20.417969 29.167969 18.457031 29.167969 16.042969 C 29.167969 13.625 31.125 11.667969 33.542969 11.667969 C 35.957031 11.667969 37.917969 13.625 37.917969 16.042969 Z M 37.917969 16.042969 "/>
<use xlink:href="#surface8" mask="url(#mask1)"/>
<path style=" stroke:none;fill-rule:nonzero;fill:rgb(100%,100%,100%);fill-opacity:1;" d="M 15.238281 40.589844 L 16.855469 38.160156 L 34.355469 49.828125 L 32.738281 52.253906 Z M 15.238281 40.589844 "/>
<use xlink:href="#surface11" mask="url(#mask2)"/>
<path style=" stroke:none;fill-rule:nonzero;fill:rgb(100%,100%,100%);fill-opacity:1;" d="M 32.738281 49.832031 L 50.238281 38.164063 L 51.859375 40.589844 L 34.355469 52.257813 Z M 32.738281 49.832031 "/>
<path style=" stroke:none;fill-rule:nonzero;fill:rgb(100%,100%,100%);fill-opacity:1;" d="M 32.082031 16.042969 L 35 16.042969 L 35 51.042969 L 32.082031 51.042969 Z M 32.082031 16.042969 "/>
<path style=" stroke:none;fill-rule:nonzero;fill:rgb(0%,4.705882%,50.980392%);fill-opacity:1;" d="M 67.082031 46.667969 C 67.082031 49.886719 64.472656 52.5 61.25 52.5 C 58.027344 52.5 55.417969 49.886719 55.417969 46.667969 C 55.417969 43.445313 58.027344 40.832031 61.25 40.832031 C 64.472656 40.832031 67.082031 43.445313 67.082031 46.667969 Z M 67.082031 46.667969 "/>
<path style=" stroke:none;fill-rule:nonzero;fill:rgb(40.784314%,12.941176%,47.843137%);fill-opacity:1;" d="M 40.832031 70 C 40.832031 65.167969 44.75 61.25 49.582031 61.25 C 54.417969 61.25 58.332031 65.167969 58.332031 70 Z M 40.832031 70 "/>
<path style=" stroke:none;fill-rule:nonzero;fill:rgb(40.784314%,12.941176%,47.843137%);fill-opacity:1;" d="M 55.417969 58.332031 C 55.417969 61.554688 52.804688 64.167969 49.582031 64.167969 C 46.363281 64.167969 43.75 61.554688 43.75 58.332031 C 43.75 55.113281 46.363281 52.5 49.582031 52.5 C 52.804688 52.5 55.417969 55.113281 55.417969 58.332031 Z M 55.417969 58.332031 "/>
<path style=" stroke:none;fill-rule:nonzero;fill:rgb(0%,4.705882%,50.980392%);fill-opacity:1;" d="M 61.25 49.582031 C 59 49.582031 56.964844 50.457031 55.414063 51.855469 C 57.191406 53.460938 58.332031 55.753906 58.332031 58.332031 L 70 58.332031 C 70 53.5 66.082031 49.582031 61.25 49.582031 Z M 61.25 49.582031 "/>
<path style=" stroke:none;fill-rule:nonzero;fill:rgb(100%,100%,100%);fill-opacity:1;" d="M 51.042969 43.75 C 51.855469 43.75 52.605469 43.515625 53.257813 43.125 C 53.707031 42.132813 54.300781 41.242188 55.058594 40.484375 C 55.140625 40.402344 55.238281 40.339844 55.328125 40.261719 C 55.382813 39.980469 55.417969 39.679688 55.417969 39.375 C 55.417969 36.960938 53.457031 35 51.042969 35 C 48.625 35 46.667969 36.960938 46.667969 39.375 C 46.667969 41.789063 48.625 43.75 51.042969 43.75 Z M 51.042969 43.75 "/>
</g>
</svg>
