<?xml version="1.0" encoding="UTF-8"?>
<svg xmlns="http://www.w3.org/2000/svg" xmlns:xlink="http://www.w3.org/1999/xlink" width="70pt" height="70pt" viewBox="0 0 70 70" version="1.1">
<defs>
<filter id="alpha" filterUnits="objectBoundingBox" x="0%" y="0%" width="100%" height="100%">
  <feColorMatrix type="matrix" in="SourceGraphic" values="0 0 0 0 1 0 0 0 0 1 0 0 0 0 1 0 0 0 1 0"/>
</filter>
<mask id="mask0">
  <g filter="url(#alpha)">
<rect x="0" y="0" width="70" height="70" style="fill:rgb(0%,0%,0%);fill-opacity:0.501961;stroke:none;"/>
  </g>
</mask>
<clipPath id="clip1">
  <rect x="0" y="0" width="70" height="70"/>
</clipPath>
<g id="surface5" clip-path="url(#clip1)">
<path style=" stroke:none;fill-rule:nonzero;fill:rgb(100%,100%,100%);fill-opacity:1;" d="M 29.621094 14.914063 L 31.796875 12.734375 L 49.816406 30.75 L 47.640625 32.929688 Z M 29.621094 14.914063 "/>
</g>
<mask id="mask1">
  <g filter="url(#alpha)">
<rect x="0" y="0" width="70" height="70" style="fill:rgb(0%,0%,0%);fill-opacity:0.501961;stroke:none;"/>
  </g>
</mask>
<clipPath id="clip2">
  <rect x="0" y="0" width="70" height="70"/>
</clipPath>
<g id="surface8" clip-path="url(#clip2)">
<path style=" stroke:none;fill-rule:nonzero;fill:rgb(100%,100%,100%);fill-opacity:1;" d="M 14.011719 32.957031 L 11.835938 30.777344 L 29.851563 12.761719 L 32.03125 14.9375 Z M 14.011719 32.957031 "/>
</g>
<mask id="mask2">
  <g filter="url(#alpha)">
<rect x="0" y="0" width="70" height="70" style="fill:rgb(0%,0%,0%);fill-opacity:0.101961;stroke:none;"/>
  </g>
</mask>
<clipPath id="clip3">
  <rect x="0" y="0" width="70" height="70"/>
</clipPath>
<g id="surface11" clip-path="url(#clip3)">
<path style=" stroke:none;fill-rule:nonzero;fill:rgb(100%,100%,100%);fill-opacity:1;" d="M 34.859375 1.679688 C 33.738281 0.558594 32.339844 0 30.800781 0 C 29.261719 0 27.859375 0.558594 26.738281 1.679688 L 1.679688 26.738281 C 0.558594 27.859375 0 29.261719 0 30.800781 C 0 32.339844 0.558594 33.738281 1.679688 34.859375 L 15.820313 49 L 42.699219 9.519531 Z M 34.859375 1.679688 "/>
</g>
<mask id="mask3">
  <g filter="url(#alpha)">
<rect x="0" y="0" width="70" height="70" style="fill:rgb(0%,0%,0%);fill-opacity:0.2;stroke:none;"/>
  </g>
</mask>
<clipPath id="clip4">
  <rect x="0" y="0" width="70" height="70"/>
</clipPath>
<g id="surface14" clip-path="url(#clip4)">
<path style=" stroke:none;fill-rule:nonzero;fill:rgb(100%,100%,100%);fill-opacity:1;" d="M 52.640625 46.058594 C 47.320313 39.761719 41.160156 38.5 37.660156 42.28125 C 30.660156 49.839844 39.480469 59.921875 46.339844 65.519531 L 65.378906 40.738281 C 61.460938 39.339844 56 41.300781 52.640625 46.058594 "/>
</g>
<mask id="mask4">
  <g filter="url(#alpha)">
<rect x="0" y="0" width="70" height="70" style="fill:rgb(0%,0%,0%);fill-opacity:0.501961;stroke:none;"/>
  </g>
</mask>
<clipPath id="clip5">
  <rect x="0" y="0" width="70" height="70"/>
</clipPath>
<g id="surface17" clip-path="url(#clip5)">
<path style=" stroke:none;fill-rule:nonzero;fill:rgb(100%,100%,100%);fill-opacity:1;" d="M 36.679688 54.738281 L 40.601563 54.738281 L 44.101563 54.601563 L 46.761719 47.460938 C 46.898438 47.039063 47.179688 46.199219 48.300781 46.199219 C 49.421875 46.199219 49.558594 47.039063 49.558594 47.460938 L 49.699219 59.359375 L 51.660156 55.300781 C 51.800781 54.878906 52.21875 54.738281 52.5 54.738281 L 63.839844 54.738281 C 64.398438 54.738281 64.820313 55.300781 64.820313 55.71875 C 64.820313 56.140625 64.398438 56.980469 63.839844 56.980469 L 53.621094 56.980469 L 49.980469 64.261719 C 49.699219 64.960938 49.421875 65.238281 48.578125 65.101563 C 48.160156 64.960938 47.738281 64.398438 47.738281 63.980469 L 47.601563 53.058594 L 46.480469 56 C 46.339844 56.421875 46.058594 56.980469 45.640625 56.980469 L 37.941406 56.980469 L 37.238281 55.859375 Z M 36.679688 54.738281 "/>
</g>
</defs>
<g id="surface1">
<path style=" stroke:none;fill-rule:nonzero;fill:rgb(34.901961%,70.588235%,85.098039%);fill-opacity:1;" d="M 30.800781 61.601563 C 29.261719 61.601563 27.859375 61.039063 26.738281 59.921875 L 1.679688 34.859375 C 0.558594 33.738281 0 32.339844 0 30.800781 C 0 29.261719 0.558594 27.859375 1.679688 26.738281 L 26.738281 1.679688 C 27.859375 0.558594 29.261719 0 30.800781 0 C 32.339844 0 33.738281 0.558594 34.859375 1.679688 L 59.921875 26.738281 C 61.039063 27.859375 61.601563 29.261719 61.601563 30.800781 C 61.601563 32.339844 61.039063 33.738281 59.921875 34.859375 L 34.859375 59.921875 C 33.738281 61.039063 32.339844 61.601563 30.800781 61.601563 "/>
<path style=" stroke:none;fill-rule:nonzero;fill:rgb(100%,100%,100%);fill-opacity:1;" d="M 47.601563 26.039063 C 44.941406 26.039063 42.839844 28.140625 42.839844 30.800781 C 42.839844 31.78125 43.121094 32.621094 43.679688 33.460938 L 34.160156 42.980469 C 33.878906 42.839844 33.601563 42.699219 33.320313 42.558594 L 33.320313 18.199219 C 34.71875 17.359375 35.699219 15.820313 35.699219 14 C 35.699219 11.339844 33.601563 9.238281 30.941406 9.238281 C 28.28125 9.238281 26.179688 11.339844 26.179688 14 C 26.179688 15.820313 27.160156 17.359375 28.558594 18.199219 L 28.558594 42.558594 C 28.28125 42.699219 28 42.839844 27.71875 42.980469 L 18.199219 33.460938 C 18.621094 32.761719 19.039063 31.78125 19.039063 30.800781 C 19.039063 28.140625 16.941406 26.039063 14.28125 26.039063 C 11.621094 26.039063 9.519531 28.140625 9.519531 30.800781 C 9.519531 33.460938 11.621094 35.558594 14.28125 35.558594 C 14.839844 35.558594 15.398438 35.421875 15.820313 35.28125 L 25.898438 45.359375 C 25.621094 46.058594 25.480469 46.761719 25.480469 47.601563 C 25.480469 50.679688 28 53.199219 31.078125 53.199219 C 34.160156 53.199219 36.679688 50.679688 36.679688 47.601563 C 36.679688 46.898438 36.539063 46.058594 36.261719 45.5 L 46.339844 35.421875 C 46.761719 35.558594 47.320313 35.699219 47.878906 35.699219 C 50.539063 35.699219 52.640625 33.601563 52.640625 30.941406 C 52.359375 28.140625 50.261719 26.039063 47.601563 26.039063 Z M 47.601563 26.039063 "/>
<use xlink:href="#surface5" mask="url(#mask0)"/>
<use xlink:href="#surface8" mask="url(#mask1)"/>
<path style=" stroke:none;fill-rule:nonzero;fill:rgb(72.156863%,83.137255%,19.607843%);fill-opacity:1;" d="M 34.019531 47.601563 C 34.019531 49.421875 32.480469 50.960938 30.660156 50.960938 C 28.839844 50.960938 27.300781 49.421875 27.300781 47.601563 C 27.300781 45.78125 28.839844 44.238281 30.660156 44.238281 C 32.621094 44.238281 34.019531 45.78125 34.019531 47.601563 "/>
<path style=" stroke:none;fill-rule:nonzero;fill:rgb(72.156863%,83.137255%,19.607843%);fill-opacity:1;" d="M 33.460938 14 C 33.460938 15.539063 32.199219 16.660156 30.800781 16.660156 C 29.398438 16.660156 28.140625 15.398438 28.140625 14 C 28.140625 12.601563 29.398438 11.339844 30.800781 11.339844 C 32.199219 11.339844 33.460938 12.601563 33.460938 14 "/>
<path style=" stroke:none;fill-rule:nonzero;fill:rgb(72.156863%,83.137255%,19.607843%);fill-opacity:1;" d="M 16.660156 30.800781 C 16.660156 32.339844 15.398438 33.460938 14 33.460938 C 12.460938 33.460938 11.339844 32.199219 11.339844 30.800781 C 11.339844 29.261719 12.601563 28.140625 14 28.140625 C 15.539063 28.140625 16.660156 29.261719 16.660156 30.800781 "/>
<path style=" stroke:none;fill-rule:nonzero;fill:rgb(72.156863%,83.137255%,19.607843%);fill-opacity:1;" d="M 50.261719 30.800781 C 50.261719 32.339844 49 33.460938 47.601563 33.460938 C 46.199219 33.460938 44.941406 32.199219 44.941406 30.800781 C 44.941406 29.261719 46.199219 28.140625 47.601563 28.140625 C 49 28.140625 50.261719 29.261719 50.261719 30.800781 "/>
<use xlink:href="#surface11" mask="url(#mask2)"/>
<path style=" stroke:none;fill-rule:nonzero;fill:rgb(72.941176%,7.843137%,10.196078%);fill-opacity:1;" d="M 67.480469 42.421875 C 66.921875 41.71875 66.078125 41.300781 65.238281 40.878906 C 61.460938 39.339844 56 41.300781 52.640625 46.058594 C 47.320313 39.761719 41.160156 38.5 37.660156 42.28125 C 30.660156 49.839844 39.480469 59.921875 46.339844 65.519531 C 49 67.761719 51.519531 69.300781 52.5 69.859375 C 56.28125 68.179688 77.140625 52.921875 67.480469 42.421875 "/>
<use xlink:href="#surface14" mask="url(#mask3)"/>
<use xlink:href="#surface17" mask="url(#mask4)"/>
</g>
</svg>
