<?xml version="1.0" encoding="UTF-8"?>
<svg xmlns="http://www.w3.org/2000/svg" xmlns:xlink="http://www.w3.org/1999/xlink" width="70pt" height="70pt" viewBox="0 0 70 70" version="1.1">
<defs>
<linearGradient id="linear0" gradientUnits="userSpaceOnUse" x1="7.93" y1="17.95" x2="7.93" y2="5.62" gradientTransform="matrix(3.888889,0,0,3.888889,0,0)">
<stop offset="0" style="stop-color:rgb(0,138,240);stop-opacity:1;"/>
<stop offset="1" style="stop-color:rgb(143,207,255);stop-opacity:1;"/>
</linearGradient>
<linearGradient id="linear1" gradientUnits="userSpaceOnUse" x1="7.95" y1="9.21" x2="7.95" y2="-2.02" gradientTransform="matrix(3.888889,0,0,3.888889,0,0)">
<stop offset="0" style="stop-color:rgb(0,138,240);stop-opacity:1;"/>
<stop offset="1" style="stop-color:rgb(143,207,255);stop-opacity:1;"/>
</linearGradient>
</defs>
<g id="surface1">
<path style=" stroke:none;fill-rule:nonzero;fill:url(#linear0);" d="M 54.445313 65.527344 C 55.804688 65.546875 57.117188 65.019531 58.082031 64.0625 C 59.050781 63.101563 59.589844 61.792969 59.578125 60.433594 C 59.597656 60.226563 59.597656 60.019531 59.578125 59.8125 C 57.554688 43.671875 48.378906 30.527344 30.800781 30.527344 C 13.222656 30.527344 3.890625 41.648438 1.984375 59.851563 C 1.710938 62.691406 3.773438 65.222656 6.609375 65.527344 Z M 54.445313 65.527344 "/>
<path style=" stroke:none;fill-rule:nonzero;fill:rgb(255,255,255);fill-opacity:1;" d="M 31.109375 34.339844 C 27.996094 34.347656 24.945313 33.457031 22.320313 31.773438 L 30.800781 54.445313 L 39.433594 31.929688 C 36.925781 33.464844 34.050781 34.300781 31.109375 34.339844 Z M 31.109375 34.339844 "/>
<path style=" stroke:none;fill-rule:nonzero;fill:url(#linear1);" d="M 47.132813 18.160156 C 47.132813 27.117188 39.871094 34.378906 30.917969 34.378906 C 21.960938 34.378906 14.699219 27.117188 14.699219 18.160156 C 14.699219 9.203125 21.960938 1.945313 30.917969 1.945313 C 39.871094 1.945313 47.132813 9.203125 47.132813 18.160156 Z M 47.132813 18.160156 "/>
<path style=" stroke:none;fill-rule:nonzero;fill:rgb(47,166,255);fill-opacity:1;" d="M 68.015625 43.285156 L 68.015625 59.773438 L 53.859375 68.054688 L 53.859375 51.566406 Z M 68.015625 43.285156 "/>
<path style=" stroke:none;fill-rule:nonzero;fill:rgb(171,219,255);fill-opacity:1;" d="M 68.015625 43.285156 L 53.859375 51.566406 L 39.707031 43.285156 L 53.859375 35 Z M 68.015625 43.285156 "/>
<path style=" stroke:none;fill-rule:nonzero;fill:rgb(119,197,255);fill-opacity:1;" d="M 53.859375 51.566406 L 53.859375 68.054688 L 39.707031 59.773438 L 39.707031 43.285156 Z M 53.859375 51.566406 "/>
<path style=" stroke:none;fill-rule:nonzero;fill:rgb(171,219,255);fill-opacity:1;" d="M 39.707031 59.773438 L 53.859375 51.566406 L 53.859375 68.054688 Z M 39.707031 59.773438 "/>
<path style=" stroke:none;fill-rule:nonzero;fill:rgb(119,197,255);fill-opacity:1;" d="M 68.015625 59.773438 L 53.859375 51.566406 L 53.859375 68.054688 Z M 68.015625 59.773438 "/>
</g>
</svg>
