<?xml version="1.0" encoding="UTF-8"?>
<svg xmlns="http://www.w3.org/2000/svg" xmlns:xlink="http://www.w3.org/1999/xlink" width="53pt" height="70pt" viewBox="0 0 53 70" version="1.1">
<defs>
<filter id="alpha" filterUnits="objectBoundingBox" x="0%" y="0%" width="100%" height="100%">
  <feColorMatrix type="matrix" in="SourceGraphic" values="0 0 0 0 1 0 0 0 0 1 0 0 0 0 1 0 0 0 1 0"/>
</filter>
<mask id="mask0">
  <g filter="url(#alpha)">
<rect x="0" y="0" width="53" height="70" style="fill:rgb(0%,0%,0%);fill-opacity:0.501961;stroke:none;"/>
  </g>
</mask>
<clipPath id="clip1">
  <rect x="0" y="0" width="53" height="70"/>
</clipPath>
<g id="surface5" clip-path="url(#clip1)">
<path style=" stroke:none;fill-rule:nonzero;fill:rgb(100%,100%,100%);fill-opacity:1;" d="M 8.617188 18.152344 L 33.351563 18.152344 L 33.351563 21.71875 L 8.617188 21.71875 Z M 8.617188 23.957031 L 33.351563 23.957031 L 33.351563 27.523438 L 8.617188 27.523438 Z M 8.617188 23.957031 "/>
</g>
<mask id="mask1">
  <g filter="url(#alpha)">
<rect x="0" y="0" width="53" height="70" style="fill:rgb(0%,0%,0%);fill-opacity:0.501961;stroke:none;"/>
  </g>
</mask>
<clipPath id="clip2">
  <rect x="0" y="0" width="53" height="70"/>
</clipPath>
<g id="surface8" clip-path="url(#clip2)">
<path style=" stroke:none;fill-rule:nonzero;fill:rgb(100%,100%,100%);fill-opacity:1;" d="M 37.28125 46.960938 L 38.363281 45.875 L 47.226563 54.765625 L 46.144531 55.851563 Z M 37.28125 46.960938 "/>
</g>
<mask id="mask2">
  <g filter="url(#alpha)">
<rect x="0" y="0" width="53" height="70" style="fill:rgb(0%,0%,0%);fill-opacity:0.501961;stroke:none;"/>
  </g>
</mask>
<clipPath id="clip3">
  <rect x="0" y="0" width="53" height="70"/>
</clipPath>
<g id="surface11" clip-path="url(#clip3)">
<path style=" stroke:none;fill-rule:nonzero;fill:rgb(100%,100%,100%);fill-opacity:1;" d="M 28.480469 54.773438 L 37.34375 45.878906 L 38.425781 46.964844 L 29.5625 55.859375 Z M 28.480469 54.773438 "/>
</g>
<mask id="mask3">
  <g filter="url(#alpha)">
<rect x="0" y="0" width="53" height="70" style="fill:rgb(0%,0%,0%);fill-opacity:0.101961;stroke:none;"/>
  </g>
</mask>
<clipPath id="clip4">
  <rect x="0" y="0" width="53" height="70"/>
</clipPath>
<g id="surface14" clip-path="url(#clip4)">
<path style=" stroke:none;fill-rule:nonzero;fill:rgb(100%,100%,100%);fill-opacity:1;" d="M 39.824219 40.386719 C 39.300781 39.859375 38.589844 39.5625 37.847656 39.5625 C 37.109375 39.5625 36.398438 39.859375 35.875 40.386719 L 23.515625 52.792969 C 22.425781 53.886719 22.425781 55.664063 23.515625 56.761719 L 30.511719 63.78125 L 43.671875 44.25 Z M 39.824219 40.386719 "/>
</g>
<mask id="mask4">
  <g filter="url(#alpha)">
<rect x="0" y="0" width="53" height="70" style="fill:rgb(0%,0%,0%);fill-opacity:0.4;stroke:none;"/>
  </g>
</mask>
<clipPath id="clip5">
  <rect x="0" y="0" width="53" height="70"/>
</clipPath>
<g id="surface17" clip-path="url(#clip5)">
<path style=" stroke:none;fill-rule:nonzero;fill:rgb(100%,54.901961%,0%);fill-opacity:1;" d="M 24.25 47.691406 L 24.25 38.652344 L 21.554688 39.980469 L 21.554688 50.394531 Z M 24.25 47.691406 "/>
</g>
</defs>
<g id="surface1">
<path style=" stroke:none;fill-rule:nonzero;fill:rgb(98.823529%,81.960784%,8.627451%);fill-opacity:1;" d="M 19.714844 57.285156 C 18.335938 55.898438 18.335938 53.652344 19.714844 52.265625 L 27.472656 44.480469 L 27.472656 37.519531 L 38.929688 26.019531 C 41.875 23.0625 41.875 18.261719 38.929688 15.304688 L 25.90625 2.234375 C 22.960938 -0.726563 18.179688 -0.726563 15.230469 2.234375 L 2.210938 15.304688 C -0.738281 18.261719 -0.738281 23.0625 2.210938 26.019531 L 14.574219 38.429688 L 14.574219 39.476563 L 11.054688 43.011719 L 14.542969 46.515625 L 11.054688 50.011719 L 14.542969 53.515625 L 11.054688 57.011719 L 14.574219 60.546875 L 14.574219 60.589844 L 20.570313 66.609375 L 24.789063 62.375 Z M 16.285156 9.695313 C 16.285156 7.320313 18.203125 5.394531 20.570313 5.394531 C 22.9375 5.394531 24.855469 7.320313 24.855469 9.695313 C 24.855469 12.070313 22.9375 13.996094 20.570313 13.996094 C 18.203125 13.996094 16.285156 12.070313 16.285156 9.695313 Z M 16.285156 9.695313 "/>
<use xlink:href="#surface5" mask="url(#mask0)"/>
<path style=" stroke:none;fill-rule:nonzero;fill:rgb(34.901961%,70.588235%,85.098039%);fill-opacity:1;" d="M 37.851563 69.984375 C 37.109375 69.988281 36.398438 69.691406 35.875 69.164063 L 23.515625 56.761719 C 22.425781 55.664063 22.425781 53.890625 23.515625 52.792969 L 35.871094 40.386719 C 36.394531 39.859375 37.105469 39.566406 37.847656 39.566406 C 38.589844 39.566406 39.300781 39.859375 39.824219 40.386719 L 52.179688 52.792969 C 52.707031 53.320313 53 54.03125 53 54.777344 C 53 55.523438 52.707031 56.234375 52.179688 56.761719 L 39.824219 69.164063 C 39.304688 69.691406 38.59375 69.988281 37.851563 69.984375 "/>
<path style=" stroke:none;fill-rule:nonzero;fill:rgb(100%,100%,100%);fill-opacity:1;" d="M 46.097656 52.398438 C 45.226563 52.398438 44.425781 52.878906 44.011719 53.648438 C 43.597656 54.417969 43.640625 55.351563 44.121094 56.082031 L 39.425781 60.792969 C 39.300781 60.707031 39.167969 60.628906 39.03125 60.566406 L 39.03125 48.546875 C 39.960938 48.007813 40.414063 46.910156 40.140625 45.871094 C 39.863281 44.828125 38.921875 44.105469 37.847656 44.105469 C 36.773438 44.105469 35.835938 44.828125 35.558594 45.871094 C 35.28125 46.910156 35.738281 48.007813 36.667969 48.546875 L 36.667969 60.566406 C 36.535156 60.625 36.40625 60.699219 36.285156 60.78125 L 31.585938 56.0625 C 32.246094 55.066406 32.089844 53.734375 31.210938 52.917969 C 30.335938 52.105469 29 52.046875 28.058594 52.785156 C 27.117188 53.523438 26.847656 54.835938 27.421875 55.886719 C 27.996094 56.9375 29.246094 57.417969 30.371094 57.015625 L 35.308594 61.972656 C 34.816406 63.128906 35.164063 64.476563 36.15625 65.246094 C 37.144531 66.019531 38.527344 66.023438 39.523438 65.257813 C 40.515625 64.496094 40.875 63.152344 40.390625 61.992188 L 45.347656 57.023438 C 45.585938 57.109375 45.84375 57.152344 46.097656 57.15625 C 47.40625 57.15625 48.46875 56.089844 48.46875 54.777344 C 48.46875 53.460938 47.40625 52.398438 46.097656 52.398438 Z M 46.097656 52.398438 "/>
<use xlink:href="#surface8" mask="url(#mask1)"/>
<use xlink:href="#surface11" mask="url(#mask2)"/>
<path style=" stroke:none;fill-rule:nonzero;fill:rgb(72.156863%,83.137255%,19.607843%);fill-opacity:1;" d="M 39.464844 63.058594 C 39.464844 63.96875 38.730469 64.707031 37.820313 64.707031 C 36.914063 64.707031 36.179688 63.96875 36.179688 63.058594 C 36.179688 62.148438 36.914063 61.410156 37.820313 61.410156 C 38.726563 61.410156 39.464844 62.148438 39.464844 63.058594 M 39.164063 46.496094 C 39.164063 47.226563 38.574219 47.820313 37.847656 47.820313 C 37.121094 47.820313 36.53125 47.226563 36.53125 46.496094 C 36.53125 45.765625 37.121094 45.175781 37.847656 45.175781 C 38.199219 45.171875 38.53125 45.3125 38.78125 45.5625 C 39.027344 45.808594 39.164063 46.144531 39.164063 46.496094 M 30.917969 54.777344 C 30.917969 55.507813 30.328125 56.101563 29.597656 56.101563 C 28.871094 56.101563 28.28125 55.507813 28.28125 54.777344 C 28.28125 54.046875 28.871094 53.453125 29.597656 53.453125 C 30.328125 53.457031 30.917969 54.046875 30.917969 54.777344 M 47.417969 54.777344 C 47.417969 55.507813 46.828125 56.101563 46.097656 56.101563 C 45.371094 56.101563 44.78125 55.507813 44.78125 54.777344 C 44.78125 54.046875 45.371094 53.453125 46.097656 53.453125 C 46.828125 53.453125 47.417969 54.046875 47.417969 54.777344 "/>
<use xlink:href="#surface14" mask="url(#mask3)"/>
<use xlink:href="#surface17" mask="url(#mask4)"/>
</g>
</svg>
