<?xml version="1.0" encoding="utf-8"?><svg version="1.1" xmlns="http://www.w3.org/2000/svg" xmlns:xlink="http://www.w3.org/1999/xlink" xmlns:xml="http://www.w3.org/XML/1998/namespace" width="70" height="70" viewBox="0, 0, 18, 18" id="e43c77ce-4ab9-446f-aa74-c41429bb9cbb"><defs><linearGradient x1="8.21" y1="5.16" x2="12.34" y2="11.42" gradientUnits="userSpaceOnUse" id="b371e9d4-03ce-4242-9f79-d5a269ffcb88"><stop offset="0%" stop-color="#F9A11F" /><stop offset="2%" stop-color="#F89F1F" /><stop offset="39%" stop-color="#F28721" /><stop offset="72%" stop-color="#ED7823" /><stop offset="100%" stop-color="#EC7323" /></linearGradient><linearGradient x1="11.09" y1="11.03" x2="16.27" y2="18.1" xlink:href="#b371e9d4-03ce-4242-9f79-d5a269ffcb88" id="a1794fd5-e1a9-408f-9605-810ce38ab87a" /></defs><title>Icon-identity-231</title><polygon points="1.01,10.19 8.93,15.33 16.99,10.17 18,11.35 8.93,17.19 0,11.35 1.01,10.19" style="fill:#FAA21D;" /><polygon points="1.61,9.53 8.93,0.81 16.4,9.54 8.93,14.26 1.61,9.53" style="fill:white;" /><polygon points="8.93,0.81 8.93,14.26 1.61,9.53 8.93,0.81" style="fill:#F78D1E;" /><polygon points="8.93,0.81 8.93,14.26 16.4,9.54 8.93,0.81" style="fill:url(#b371e9d4-03ce-4242-9f79-d5a269ffcb88);" /><polygon points="8.93,7.76 16.4,9.54 8.93,14.26 8.93,7.76" style="fill:#F78D1E;" /><polygon points="8.93,14.26 1.61,9.53 8.93,7.76 8.93,14.26" style="fill:#FAA21D;" /><polygon points="8.93,17.19 18,11.35 16.99,10.17 8.93,15.33 8.93,17.19" style="fill:url(#a1794fd5-e1a9-408f-9605-810ce38ab87a);" /></svg>