<?xml version="1.0" encoding="UTF-8"?>
<svg xmlns="http://www.w3.org/2000/svg" xmlns:xlink="http://www.w3.org/1999/xlink" width="70pt" height="70pt" viewBox="0 0 70 70" version="1.1">
<defs>
<linearGradient id="linear0" gradientUnits="userSpaceOnUse" x1="-6784.85" y1="1118.78" x2="-6784.85" y2="1089.98" gradientTransform="matrix(1.944444,0,0,-1.944444,13223.816667,2177.738889)">
<stop offset="0" style="stop-color:rgb(41,164,255);stop-opacity:1;"/>
<stop offset="0.18" style="stop-color:rgb(35,161,255);stop-opacity:1;"/>
<stop offset="0.41" style="stop-color:rgb(17,154,255);stop-opacity:1;"/>
<stop offset="0.66" style="stop-color:rgb(0,139,242);stop-opacity:1;"/>
<stop offset="0.94" style="stop-color:rgb(0,114,198);stop-opacity:1;"/>
<stop offset="1" style="stop-color:rgb(0,108,188);stop-opacity:1;"/>
</linearGradient>
<filter id="alpha" filterUnits="objectBoundingBox" x="0%" y="0%" width="100%" height="100%">
  <feColorMatrix type="matrix" in="SourceGraphic" values="0 0 0 0 1 0 0 0 0 1 0 0 0 0 1 0 0 0 1 0"/>
</filter>
<mask id="mask0">
  <g filter="url(#alpha)">
<rect x="0" y="0" width="70" height="70" style="fill:rgb(0,0,0);fill-opacity:0.94902;stroke:none;"/>
  </g>
</mask>
<linearGradient id="linear1" gradientUnits="userSpaceOnUse" x1="-1.47" y1="14.91" x2="17.16" y2="14.8" gradientTransform="matrix(3.888889,0,0,3.888889,0,0)">
<stop offset="0" style="stop-color:rgb(17,154,255);stop-opacity:0.14902;"/>
<stop offset="0.16" style="stop-color:rgb(0,110,192);stop-opacity:0;"/>
<stop offset="0.18" style="stop-color:rgb(0,103,180);stop-opacity:0.0588235;"/>
<stop offset="0.23" style="stop-color:rgb(0,87,152);stop-opacity:0.188235;"/>
<stop offset="0.28" style="stop-color:rgb(0,77,134);stop-opacity:0.270588;"/>
<stop offset="0.34" style="stop-color:rgb(0,73,128);stop-opacity:0.301961;"/>
<stop offset="0.76" style="stop-color:rgb(0,36,64);stop-opacity:0.34902;"/>
<stop offset="0.9" style="stop-color:rgb(0,122,212);stop-opacity:0;"/>
<stop offset="1" style="stop-color:rgb(17,154,255);stop-opacity:0;"/>
</linearGradient>
<clipPath id="clip1">
  <rect x="0" y="0" width="70" height="70"/>
</clipPath>
<g id="surface5" clip-path="url(#clip1)">
<path style=" stroke:none;fill-rule:nonzero;fill:url(#linear1);" d="M 41.457031 58.332031 L 57.59375 58.332031 C 57.253906 58.035156 57.011719 57.640625 56.894531 57.207031 L 41.339844 57.207031 Z M 41.457031 58.332031 "/>
</g>
<clipPath id="clip2">
  <path d="M 39 35 L 68 35 L 68 67 L 39 67 Z M 39 35 "/>
</clipPath>
<clipPath id="clip3">
  <path d="M 67.746094 51.605469 C 67.746094 60.539063 60.5 67.785156 51.566406 67.785156 C 42.632813 67.785156 35.390625 60.539063 35.390625 51.605469 C 35.390625 42.671875 42.632813 35.429688 51.566406 35.429688 C 60.5 35.429688 67.746094 42.671875 67.746094 51.605469 Z M 67.746094 51.605469 "/>
</clipPath>
<clipPath id="clip4">
  <path d="M 60 37 L 62 37 L 62 40 L 60 40 Z M 60 37 "/>
</clipPath>
<clipPath id="clip5">
  <path d="M 67.746094 51.605469 C 67.746094 60.539063 60.5 67.785156 51.566406 67.785156 C 42.632813 67.785156 35.390625 60.539063 35.390625 51.605469 C 35.390625 42.671875 42.632813 35.429688 51.566406 35.429688 C 60.5 35.429688 67.746094 42.671875 67.746094 51.605469 Z M 67.746094 51.605469 "/>
</clipPath>
<clipPath id="clip6">
  <path d="M 61 38 L 64 38 L 64 40 L 61 40 Z M 61 38 "/>
</clipPath>
<clipPath id="clip7">
  <path d="M 67.746094 51.605469 C 67.746094 60.539063 60.5 67.785156 51.566406 67.785156 C 42.632813 67.785156 35.390625 60.539063 35.390625 51.605469 C 35.390625 42.671875 42.632813 35.429688 51.566406 35.429688 C 60.5 35.429688 67.746094 42.671875 67.746094 51.605469 Z M 67.746094 51.605469 "/>
</clipPath>
</defs>
<g id="surface1">
<path style=" stroke:none;fill-rule:nonzero;fill:url(#linear0);" d="M 21.816406 41.417969 L 38.65625 41.417969 L 38.65625 58.332031 L 21.816406 58.332031 Z M 2.371094 19.015625 L 19.015625 19.015625 L 19.015625 2.214844 L 4.550781 2.214844 C 3.261719 2.214844 2.214844 3.261719 2.214844 4.550781 Z M 4.550781 58.332031 L 19.015625 58.332031 L 19.015625 41.417969 L 2.214844 41.417969 L 2.214844 55.882813 C 2.183594 56.523438 2.417969 57.144531 2.859375 57.609375 C 3.296875 58.074219 3.910156 58.335938 4.550781 58.332031 Z M 2.214844 38.890625 L 19.015625 38.890625 L 19.015625 21.816406 L 2.214844 21.816406 Z M 41.457031 58.332031 L 55.921875 58.332031 C 57.210938 58.332031 58.253906 57.289063 58.253906 56 L 58.253906 41.417969 L 41.457031 41.417969 Z M 22.011719 38.890625 L 38.65625 38.890625 L 38.65625 21.816406 L 21.816406 21.816406 Z M 41.648438 38.890625 L 58.332031 38.890625 L 58.332031 21.816406 L 41.457031 21.816406 Z M 41.648438 2.488281 L 41.648438 19.015625 L 58.332031 19.015625 L 58.332031 4.550781 C 58.332031 3.261719 57.289063 2.214844 56 2.214844 Z M 22.207031 19.289063 L 38.65625 19.289063 L 38.65625 2.214844 L 21.816406 2.214844 Z M 22.207031 19.289063 "/>
<use xlink:href="#surface5" mask="url(#mask0)"/>
<path style=" stroke:none;fill-rule:nonzero;fill:rgb(47,166,255);fill-opacity:1;" d="M 67.746094 51.605469 C 67.746094 60.539063 60.5 67.785156 51.566406 67.785156 C 42.632813 67.785156 35.390625 60.539063 35.390625 51.605469 C 35.390625 42.671875 42.632813 35.429688 51.566406 35.429688 C 60.5 35.429688 67.746094 42.671875 67.746094 51.605469 Z M 67.746094 51.605469 "/>
<g clip-path="url(#clip2)" clip-rule="nonzero">
<g clip-path="url(#clip3)" clip-rule="nonzero">
<path style=" stroke:none;fill-rule:nonzero;fill:rgb(143,207,255);fill-opacity:1;" d="M 66.34375 53.9375 C 65.527344 54.367188 64.359375 54.132813 63.816406 54.5625 C 62.769531 55.160156 61.917969 56.050781 61.367188 57.128906 C 61.367188 57.359375 61.367188 57.710938 61.09375 57.828125 C 60.003906 58.566406 58.917969 59.34375 59.929688 60.976563 C 58.761719 60.976563 59.148438 59.929688 58.605469 59.617188 C 57.785156 59.257813 56.847656 59.285156 56.046875 59.691406 C 55.25 60.097656 54.675781 60.84375 54.484375 61.714844 C 54.351563 62.28125 54.605469 62.863281 55.105469 63.15625 C 55.351563 63.289063 55.640625 63.3125 55.90625 63.226563 C 56.171875 63.136719 56.390625 62.941406 56.503906 62.6875 C 56.601563 62.515625 56.765625 62.390625 56.960938 62.347656 C 57.152344 62.304688 57.355469 62.34375 57.515625 62.457031 C 57.515625 63.078125 56.429688 64.207031 58.214844 64.246094 C 58.683594 64.246094 58.566406 64.789063 58.449219 65.140625 C 58.332031 65.488281 58.683594 66.070313 59.1875 66.304688 C 59.695313 66.539063 59.1875 66.304688 59.1875 66.5 C 59.1875 66.695313 59.1875 66.5 59.1875 66.5 C 57.75 66.5 57.4375 64.75 56.039063 64.554688 C 55.472656 64.402344 54.914063 64.222656 54.367188 64.011719 C 53.316406 63.660156 52.109375 63.464844 51.878906 61.910156 C 51.691406 61.109375 51.1875 60.421875 50.476563 60.003906 C 50.011719 59.695313 49.738281 59.109375 49.273438 58.761719 C 49.089844 58.238281 48.796875 57.761719 48.417969 57.359375 C 47.683594 56.394531 47.480469 55.125 47.871094 53.976563 C 48.566406 51.828125 48.425781 49.496094 47.484375 47.445313 C 47.09375 46.199219 47.015625 44.917969 45.617188 44.101563 C 44.214844 43.285156 44.449219 44.566406 43.90625 44.292969 C 43.359375 44.023438 43.050781 44.800781 42.894531 44.878906 C 41.765625 45.1875 40.792969 46.160156 39.355469 46.003906 C 39.898438 45.734375 40.328125 45.578125 40.714844 45.34375 C 41.105469 45.109375 41.84375 44.800781 40.988281 43.867188 C 40.132813 42.933594 40.445313 41.570313 42.738281 40.640625 C 42.542969 40.09375 41.144531 40.210938 41.765625 39.199219 C 42.390625 38.1875 42.855469 38.695313 43.4375 39.199219 C 43.828125 38.460938 42.972656 37.527344 43.632813 37.101563 C 44.511719 36.597656 45.453125 36.21875 46.433594 35.972656 C 46.664063 35.851563 46.9375 35.828125 47.183594 35.90625 C 47.433594 35.988281 47.640625 36.164063 47.753906 36.398438 C 48.457031 37.488281 49.855469 37.683594 50.554688 38.773438 C 50.75 39.121094 51.140625 38.773438 51.410156 38.773438 C 53.003906 38.226563 54.054688 39.238281 55.300781 40.054688 C 56.542969 40.871094 56.351563 41.378906 57.359375 41.261719 C 57.628906 41.203125 57.910156 41.203125 58.179688 41.261719 C 58.800781 41.535156 59.382813 41.6875 59.851563 41.027344 C 60.34375 40.976563 60.75 40.617188 60.859375 40.132813 C 61.09375 39.785156 61.210938 39.277344 61.792969 39.511719 C 61.515625 40.613281 61.667969 41.78125 62.222656 42.777344 C 62.726563 42.390625 63.234375 42.15625 62.648438 41.261719 C 62.398438 40.855469 62.363281 40.351563 62.558594 39.914063 C 62.753906 39.476563 63.152344 39.167969 63.621094 39.082031 C 64.546875 38.777344 65.5625 39.148438 66.070313 39.976563 C 66.8125 41.300781 67.042969 42.816406 67.898438 43.867188 C 68.171875 44.214844 67.898438 44.371094 67.898438 44.644531 C 67.898438 44.917969 67.199219 44.644531 66.8125 44.410156 L 67.082031 46.082031 C 65.925781 46.585938 64.574219 46.175781 63.894531 45.109375 C 63.894531 44.644531 63.894531 44.449219 64.359375 44.214844 C 64.828125 43.984375 65.101563 43.789063 65.101563 43.285156 C 65.152344 42.96875 64.996094 42.652344 64.710938 42.503906 C 64.398438 42.503906 64.207031 42.503906 64.128906 42.855469 C 64.050781 43.207031 62.84375 43.828125 63.039063 44.917969 C 63.234375 46.003906 62.300781 45.773438 61.753906 45.460938 C 60.472656 44.800781 60.003906 45.964844 59.460938 46.589844 C 58.917969 47.210938 59.460938 47.910156 60.082031 48.378906 C 60.707031 48.84375 61.289063 49.195313 61.523438 49.933594 C 62.171875 49.351563 62.574219 48.546875 62.648438 47.679688 C 62.648438 46.976563 62.921875 46.003906 63.894531 45.890625 C 64.644531 45.824219 65.34375 46.269531 65.605469 46.976563 C 65.800781 47.40625 66.109375 47.445313 66.5 47.484375 C 67.378906 49.386719 68.082031 51.363281 68.601563 53.394531 L 67.160156 53.199219 C 67.160156 52.070313 66.1875 52.578125 65.644531 52.34375 C 65.488281 53.042969 66.382813 53.238281 66.34375 53.9375 Z M 66.34375 53.9375 "/>
</g>
</g>
<g clip-path="url(#clip4)" clip-rule="nonzero">
<g clip-path="url(#clip5)" clip-rule="nonzero">
<path style=" stroke:none;fill-rule:nonzero;fill:rgb(143,207,255);fill-opacity:1;" d="M 60.746094 39.9375 C 60.238281 39.472656 59.695313 39.042969 60.511719 38.382813 C 61.328125 37.722656 61.289063 37.253906 61.679688 38.382813 C 61.773438 39.058594 61.382813 39.707031 60.746094 39.9375 Z M 60.746094 39.9375 "/>
</g>
</g>
<g clip-path="url(#clip6)" clip-rule="nonzero">
<g clip-path="url(#clip7)" clip-rule="nonzero">
<path style=" stroke:none;fill-rule:nonzero;fill:rgb(143,207,255);fill-opacity:1;" d="M 61.949219 38.382813 C 62.378906 37.957031 62.921875 37.996094 63 38.382813 C 63.078125 38.773438 62.496094 39.121094 61.988281 39.277344 C 61.484375 39.433594 61.640625 38.890625 61.949219 38.382813 Z M 61.949219 38.382813 "/>
</g>
</g>
</g>
</svg>
