<?xml version="1.0" encoding="UTF-8"?>
<svg xmlns="http://www.w3.org/2000/svg" xmlns:xlink="http://www.w3.org/1999/xlink" width="70pt" height="70pt" viewBox="0 0 70 70" version="1.1">
<defs>
<linearGradient id="linear0" gradientUnits="userSpaceOnUse" x1="9" y1="7.11" x2="9" y2="14.2" gradientTransform="matrix(3.888889,0,0,3.888889,0,0)">
<stop offset="0" style="stop-color:rgb(41,164,255);stop-opacity:1;"/>
<stop offset="1" style="stop-color:rgb(0,80,140);stop-opacity:1;"/>
</linearGradient>
<filter id="alpha" filterUnits="objectBoundingBox" x="0%" y="0%" width="100%" height="100%">
  <feColorMatrix type="matrix" in="SourceGraphic" values="0 0 0 0 1 0 0 0 0 1 0 0 0 0 1 0 0 0 1 0"/>
</filter>
<mask id="mask0">
  <g filter="url(#alpha)">
<rect x="0" y="0" width="70" height="70" style="fill:rgb(0,0,0);fill-opacity:0.8;stroke:none;"/>
  </g>
</mask>
<clipPath id="clip1">
  <rect x="0" y="0" width="70" height="70"/>
</clipPath>
<g id="surface5" clip-path="url(#clip1)">
<path style=" stroke:none;fill-rule:nonzero;fill:rgb(255,255,255);fill-opacity:1;" d="M 35 32.316406 C 33.207031 32.316406 31.453125 31.804688 29.945313 30.839844 L 35 43.867188 L 39.9375 31.109375 C 38.4375 31.96875 36.726563 32.386719 35 32.316406 Z M 35 32.316406 "/>
</g>
<linearGradient id="linear1" gradientUnits="userSpaceOnUse" x1="8.8" y1="3.31" x2="9.32" y2="9.75" gradientTransform="matrix(3.888889,0,0,3.888889,0,0)">
<stop offset="0" style="stop-color:rgb(41,164,255);stop-opacity:1;"/>
<stop offset="1" style="stop-color:rgb(0,80,140);stop-opacity:1;"/>
</linearGradient>
</defs>
<g id="surface1">
<path style=" stroke:none;fill-rule:nonzero;fill:rgb(0,108,188);fill-opacity:1;" d="M 8.359375 45.695313 C 4.621094 36.328125 6.097656 25.6875 12.25 17.695313 C 11.054688 16.898438 10.109375 15.78125 9.527344 14.464844 C 1.988281 23.933594 0.242188 36.773438 4.976563 47.910156 C 5.972656 46.988281 7.117188 46.238281 8.359375 45.695313 Z M 23.101563 4.433594 C 24.101563 5.449219 24.917969 6.632813 25.511719 7.933594 C 28.558594 6.855469 31.765625 6.289063 35 6.261719 C 41.042969 6.230469 46.941406 8.125 51.839844 11.667969 C 52.359375 10.632813 53.085938 9.71875 53.976563 8.984375 L 54.445313 8.632813 C 45.402344 1.960938 33.578125 0.375 23.101563 4.433594 Z M 61.640625 24.34375 C 65.382813 33.695313 63.902344 44.328125 57.75 52.304688 C 58.382813 52.738281 58.945313 53.261719 59.421875 53.859375 C 59.84375 54.371094 60.195313 54.933594 60.472656 55.535156 C 68.011719 46.066406 69.757813 33.226563 65.023438 22.089844 C 64.027344 23.023438 62.886719 23.789063 61.640625 24.34375 Z M 44.488281 62.222656 C 41.4375 63.265625 38.226563 63.78125 35 63.738281 C 28.957031 63.769531 23.058594 61.878906 18.160156 58.332031 C 17.652344 59.371094 16.921875 60.289063 16.023438 61.015625 L 15.554688 61.367188 C 24.628906 68.066406 36.496094 69.664063 47.015625 65.605469 C 45.984375 64.632813 45.128906 63.488281 44.488281 62.222656 Z M 44.488281 62.222656 "/>
<path style=" stroke:none;fill-rule:nonzero;fill:rgb(47,166,255);fill-opacity:1;" d="M 20.144531 7.273438 C 23.246094 10.472656 23.195313 15.574219 20.03125 18.707031 C 16.863281 21.84375 11.761719 21.84375 8.59375 18.707031 C 5.425781 15.574219 5.375 10.472656 8.476563 7.273438 C 10.007813 5.695313 12.113281 4.804688 14.3125 4.804688 C 16.507813 4.804688 18.613281 5.695313 20.144531 7.273438 Z M 20.144531 7.273438 "/>
<path style=" stroke:none;fill-rule:nonzero;fill:rgb(255,255,255);fill-opacity:1;" d="M 17.1875 15.828125 C 17.960938 15.09375 18.398438 14.074219 18.398438 13.007813 C 18.398438 11.941406 17.960938 10.921875 17.1875 10.1875 C 16.457031 9.453125 15.464844 9.039063 14.429688 9.039063 C 13.390625 9.039063 12.398438 9.453125 11.667969 10.1875 C 10.894531 10.921875 10.457031 11.941406 10.457031 13.007813 C 10.457031 14.074219 10.894531 15.09375 11.667969 15.828125 C 12.398438 16.589844 13.410156 17.019531 14.464844 17.019531 C 15.523438 17.019531 16.535156 16.589844 17.265625 15.828125 "/>
<path style=" stroke:none;fill-rule:nonzero;fill:rgb(47,166,255);fill-opacity:1;" d="M 51.253906 7.273438 C 54.453125 4.167969 59.554688 4.21875 62.691406 7.386719 C 65.828125 10.554688 65.828125 15.65625 62.691406 18.824219 C 59.554688 21.992188 54.453125 22.042969 51.253906 18.9375 C 48.097656 15.765625 48.097656 10.636719 51.253906 7.464844 Z M 51.253906 7.273438 "/>
<path style=" stroke:none;fill-rule:nonzero;fill:rgb(255,255,255);fill-opacity:1;" d="M 59.8125 10.1875 C 58.273438 8.726563 55.847656 8.769531 54.359375 10.28125 C 52.871094 11.796875 52.871094 14.222656 54.359375 15.734375 C 55.847656 17.246094 58.273438 17.289063 59.8125 15.828125 C 60.582031 15.09375 61.023438 14.074219 61.023438 13.007813 C 61.023438 11.941406 60.582031 10.921875 59.8125 10.1875 "/>
<path style=" stroke:none;fill-rule:nonzero;fill:rgb(47,166,255);fill-opacity:1;" d="M 49.855469 62.726563 C 46.753906 59.527344 46.804688 54.425781 49.96875 51.292969 C 53.136719 48.15625 58.238281 48.15625 61.40625 51.292969 C 64.574219 54.425781 64.625 59.527344 61.523438 62.726563 C 59.992188 64.304688 57.886719 65.195313 55.6875 65.195313 C 53.492188 65.195313 51.386719 64.304688 49.855469 62.726563 Z M 49.855469 62.726563 "/>
<path style=" stroke:none;fill-rule:nonzero;fill:rgb(255,255,255);fill-opacity:1;" d="M 52.8125 54.171875 C 52.039063 54.90625 51.601563 55.925781 51.601563 56.992188 C 51.601563 58.058594 52.039063 59.078125 52.8125 59.8125 C 53.542969 60.570313 54.554688 61 55.609375 61 C 56.667969 61 57.679688 60.570313 58.410156 59.8125 C 59.183594 59.078125 59.621094 58.058594 59.621094 56.992188 C 59.621094 55.925781 59.183594 54.90625 58.410156 54.171875 C 57.679688 53.410156 56.667969 52.980469 55.609375 52.980469 C 54.554688 52.980469 53.542969 53.410156 52.8125 54.171875 "/>
<path style=" stroke:none;fill-rule:nonzero;fill:rgb(47,166,255);fill-opacity:1;" d="M 18.746094 62.726563 C 16.421875 65.058594 12.925781 65.761719 9.882813 64.503906 C 6.84375 63.246094 4.859375 60.28125 4.859375 56.992188 C 4.859375 53.703125 6.84375 50.734375 9.882813 49.480469 C 12.925781 48.222656 16.421875 48.925781 18.746094 51.253906 C 21.902344 54.425781 21.902344 59.554688 18.746094 62.726563 Z M 18.746094 62.726563 "/>
<path style=" stroke:none;fill-rule:nonzero;fill:rgb(255,255,255);fill-opacity:1;" d="M 10.1875 59.8125 C 11.726563 61.273438 14.152344 61.230469 15.640625 59.71875 C 17.128906 58.203125 17.128906 55.777344 15.640625 54.265625 C 14.152344 52.753906 11.726563 52.710938 10.1875 54.171875 C 9.417969 54.90625 8.976563 55.925781 8.976563 56.992188 C 8.976563 58.058594 9.417969 59.078125 10.1875 59.8125 "/>
<path style=" stroke:none;fill-rule:nonzero;fill:url(#linear0);" d="M 48.648438 50.246094 C 50.28125 50.246094 51.605469 48.921875 51.605469 47.289063 L 51.605469 46.9375 C 50.554688 37.683594 45.148438 30.101563 35 30.101563 C 24.851563 30.101563 19.445313 36.515625 18.433594 46.976563 C 18.347656 47.761719 18.578125 48.550781 19.074219 49.164063 C 19.570313 49.777344 20.292969 50.167969 21.078125 50.246094 Z M 48.648438 50.246094 "/>
<use xlink:href="#surface5" mask="url(#mask0)"/>
<path style=" stroke:none;fill-rule:nonzero;fill:url(#linear1);" d="M 44.332031 23.023438 C 44.332031 28.15625 40.171875 32.316406 35.039063 32.316406 C 29.90625 32.316406 25.746094 28.15625 25.746094 23.023438 C 25.746094 17.890625 29.90625 13.726563 35.039063 13.726563 C 40.171875 13.726563 44.332031 17.890625 44.332031 23.023438 Z M 44.332031 23.023438 "/>
</g>
</svg>
