<?xml version="1.0" encoding="UTF-8"?>
<svg xmlns="http://www.w3.org/2000/svg" xmlns:xlink="http://www.w3.org/1999/xlink" width="70pt" height="70pt" viewBox="0 0 70 70" version="1.1">
<defs>
<filter id="alpha" filterUnits="objectBoundingBox" x="0%" y="0%" width="100%" height="100%">
  <feColorMatrix type="matrix" in="SourceGraphic" values="0 0 0 0 1 0 0 0 0 1 0 0 0 0 1 0 0 0 1 0"/>
</filter>
<mask id="mask0">
  <g filter="url(#alpha)">
<rect x="0" y="0" width="70" height="70" style="fill:rgb(0,0,0);fill-opacity:0.501961;stroke:none;"/>
  </g>
</mask>
<clipPath id="clip1">
  <rect x="0" y="0" width="70" height="70"/>
</clipPath>
<g id="surface5" clip-path="url(#clip1)">
<path style=" stroke:none;fill-rule:nonzero;fill:rgb(255,255,255);fill-opacity:1;" d="M 12.824219 57.179688 C 6.902344 51.257813 3.640625 43.382813 3.640625 35.003906 C 3.640625 26.628906 6.902344 18.753906 12.824219 12.828125 C 18.746094 6.90625 26.621094 3.644531 35 3.644531 C 43.375 3.644531 51.25 6.90625 57.175781 12.832031 Z M 12.824219 57.179688 "/>
</g>
</defs>
<g id="surface1">
<path style=" stroke:none;fill-rule:nonzero;fill:rgb(203,232,255);fill-opacity:1;" d="M 57.175781 57.179688 C 51.25 63.105469 43.375 66.367188 35 66.367188 C 26.621094 66.363281 18.75 63.101563 12.824219 57.179688 C 6.902344 51.257813 3.640625 43.382813 3.640625 35.003906 C 3.640625 26.628906 6.902344 18.753906 12.824219 12.828125 C 18.746094 6.90625 26.621094 3.644531 35 3.644531 C 43.375 3.644531 51.25 6.90625 57.175781 12.832031 C 63.097656 18.753906 66.359375 26.628906 66.359375 35.003906 C 66.359375 43.378906 63.097656 51.257813 57.175781 57.179688 Z M 57.175781 57.179688 "/>
<use xlink:href="#surface5" mask="url(#mask0)"/>
<path style=" stroke:none;fill-rule:nonzero;fill:rgb(0,142,248);fill-opacity:1;" d="M 7.855469 45.875 C 6.484375 42.460938 5.738281 38.792969 5.738281 35.003906 C 5.738281 28.554688 7.84375 22.4375 11.675781 17.386719 C 11.050781 16.953125 10.472656 16.433594 9.96875 15.816406 C 9.53125 15.277344 9.183594 14.699219 8.902344 14.097656 C 1.054688 23.878906 -0.46875 37.023438 4.285156 48.140625 C 5.351563 47.179688 6.554688 46.410156 7.855469 45.875 Z M 7.855469 45.875 "/>
<path style=" stroke:none;fill-rule:nonzero;fill:rgb(0,142,248);fill-opacity:1;" d="M 22.875 3.859375 C 23.921875 4.925781 24.730469 6.136719 25.320313 7.425781 C 28.390625 6.347656 31.644531 5.746094 35 5.746094 C 41.25 5.746094 47.1875 7.722656 52.148438 11.332031 C 52.652344 10.300781 53.378906 9.359375 54.324219 8.585938 C 54.328125 8.585938 54.328125 8.582031 54.328125 8.582031 C 54.527344 8.421875 54.730469 8.277344 54.933594 8.140625 C 45.570313 1.175781 33.402344 -0.230469 22.875 3.859375 Z M 22.875 3.859375 "/>
<path style=" stroke:none;fill-rule:nonzero;fill:rgb(0,142,248);fill-opacity:1;" d="M 62.144531 24.136719 C 63.519531 27.550781 64.261719 31.214844 64.261719 35.003906 C 64.261719 41.457031 62.15625 47.570313 58.324219 52.625 C 58.953125 53.058594 59.53125 53.578125 60.03125 54.195313 C 60.46875 54.730469 60.816406 55.308594 61.097656 55.910156 C 68.945313 46.128906 70.46875 32.988281 65.71875 21.867188 C 64.648438 22.828125 63.445313 23.601563 62.144531 24.136719 Z M 62.144531 24.136719 "/>
<path style=" stroke:none;fill-rule:nonzero;fill:rgb(0,142,248);fill-opacity:1;" d="M 44.675781 62.585938 C 41.605469 63.664063 38.351563 64.265625 35 64.265625 C 28.746094 64.265625 22.8125 62.289063 17.851563 58.679688 C 17.34375 59.710938 16.621094 60.652344 15.675781 61.421875 C 15.671875 61.425781 15.671875 61.425781 15.667969 61.429688 C 15.480469 61.582031 15.289063 61.71875 15.089844 61.851563 C 24.453125 68.808594 36.609375 70.230469 47.125 66.152344 C 46.074219 65.089844 45.265625 63.875 44.675781 62.585938 Z M 44.675781 62.585938 "/>
<path style=" stroke:none;fill-rule:nonzero;fill:rgb(0,142,248);fill-opacity:1;" d="M 19.851563 6.765625 C 23.070313 9.992188 23.066406 15.234375 19.84375 18.453125 C 16.621094 21.671875 11.378906 21.667969 8.15625 18.445313 C 4.9375 15.222656 4.9375 9.976563 8.164063 6.757813 C 11.386719 3.539063 16.625 3.542969 19.84375 6.761719 C 19.847656 6.761719 19.847656 6.765625 19.851563 6.765625 Z M 19.851563 6.765625 "/>
<path style=" stroke:none;fill-rule:nonzero;fill:rgb(255,255,255);fill-opacity:1;" d="M 16.863281 15.46875 C 18.445313 13.886719 18.445313 11.324219 16.867188 9.742188 C 15.289063 8.160156 12.722656 8.160156 11.144531 9.742188 C 9.5625 11.320313 9.5625 13.882813 11.140625 15.464844 L 11.140625 15.46875 C 12.71875 17.046875 15.285156 17.046875 16.863281 15.46875 "/>
<path style=" stroke:none;fill-rule:nonzero;fill:rgb(0,142,248);fill-opacity:1;" d="M 51.558594 6.761719 C 54.785156 3.539063 60.027344 3.542969 63.246094 6.769531 C 66.460938 9.992188 66.460938 15.230469 63.238281 18.453125 C 60.011719 21.675781 54.769531 21.671875 51.550781 18.449219 C 48.332031 15.222656 48.332031 9.984375 51.550781 6.765625 C 51.554688 6.761719 51.554688 6.761719 51.558594 6.761719 Z M 51.558594 6.761719 "/>
<path style=" stroke:none;fill-rule:nonzero;fill:rgb(255,255,255);fill-opacity:1;" d="M 60.261719 9.746094 C 58.679688 8.164063 56.117188 8.164063 54.535156 9.742188 C 52.953125 11.324219 52.953125 13.886719 54.535156 15.46875 C 56.113281 17.050781 58.675781 17.050781 60.257813 15.472656 L 60.261719 15.46875 C 61.839844 13.890625 61.839844 11.328125 60.261719 9.746094 "/>
<path style=" stroke:none;fill-rule:nonzero;fill:rgb(0,142,248);fill-opacity:1;" d="M 50.152344 63.242188 C 46.929688 60.019531 46.933594 54.773438 50.15625 51.554688 C 53.378906 48.339844 58.621094 48.339844 61.84375 51.5625 C 65.066406 54.789063 65.0625 60.03125 61.839844 63.25 C 58.613281 66.46875 53.375 66.46875 50.15625 63.25 C 50.152344 63.246094 50.152344 63.246094 50.152344 63.242188 Z M 50.152344 63.242188 "/>
<path style=" stroke:none;fill-rule:nonzero;fill:rgb(255,255,255);fill-opacity:1;" d="M 53.136719 54.542969 C 51.554688 56.121094 51.554688 58.683594 53.132813 60.265625 C 54.714844 61.847656 57.277344 61.847656 58.855469 60.269531 C 60.4375 58.6875 60.4375 56.125 58.859375 54.542969 C 57.28125 52.960938 54.71875 52.960938 53.136719 54.542969 "/>
<path style=" stroke:none;fill-rule:nonzero;fill:rgb(0,142,248);fill-opacity:1;" d="M 18.441406 63.25 C 15.214844 66.46875 9.972656 66.464844 6.753906 63.242188 C 3.539063 60.019531 3.539063 54.777344 6.761719 51.554688 C 9.988281 48.335938 15.230469 48.335938 18.449219 51.5625 C 21.667969 54.785156 21.667969 60.023438 18.449219 63.242188 C 18.445313 63.246094 18.445313 63.246094 18.441406 63.25 Z M 18.441406 63.25 "/>
<path style=" stroke:none;fill-rule:nonzero;fill:rgb(255,255,255);fill-opacity:1;" d="M 9.738281 60.261719 C 11.320313 61.84375 13.882813 61.84375 15.464844 60.265625 C 17.046875 58.683594 17.046875 56.125 15.464844 54.542969 C 13.886719 52.960938 11.324219 52.960938 9.742188 54.539063 L 9.738281 54.539063 C 8.160156 56.117188 8.160156 58.683594 9.738281 60.261719 "/>
<path style=" stroke:none;fill-rule:nonzero;fill:rgb(255,255,255);fill-opacity:1;" d="M 30.800781 30.804688 L 35 43.40625 L 39.199219 30.804688 Z M 30.800781 30.804688 "/>
<path style=" stroke:none;fill-rule:nonzero;fill:rgb(0,112,196);fill-opacity:1;" d="M 49.042969 45.894531 C 48.242188 38.78125 44.929688 32.816406 39.199219 30.804688 L 35 43.40625 L 30.800781 30.804688 C 25.207031 32.6875 21.652344 38.054688 20.957031 45.917969 C 20.8125 47.457031 21.816406 48.832031 23.199219 48.988281 C 23.28125 49 23.367188 49.003906 23.449219 49.003906 L 46.550781 49.003906 C 47.929688 49.011719 49.054688 47.769531 49.058594 46.230469 C 49.058594 46.117188 49.054688 46.007813 49.042969 45.894531 Z M 49.042969 45.894531 "/>
<path style=" stroke:none;fill-rule:nonzero;fill:rgb(0,112,196);fill-opacity:1;" d="M 43.261719 23.804688 C 43.261719 28.367188 39.5625 32.066406 35 32.066406 C 30.4375 32.066406 26.738281 28.367188 26.738281 23.804688 C 26.738281 19.242188 30.4375 15.546875 35 15.546875 C 39.5625 15.546875 43.261719 19.242188 43.261719 23.804688 Z M 43.261719 23.804688 "/>
</g>
</svg>
