<?xml version="1.0" encoding="UTF-8"?>
<svg xmlns="http://www.w3.org/2000/svg" xmlns:xlink="http://www.w3.org/1999/xlink" width="59pt" height="70pt" viewBox="0 0 59 70" version="1.1">
<g id="surface1">
<path style=" stroke:none;fill-rule:nonzero;fill:rgb(57,171,255);fill-opacity:1;" d="M 36.171875 0.0117188 C 45.5625 0.34375 53.074219 8.109375 53.074219 17.640625 L 53.074219 27.941406 L 53.574219 27.941406 C 56.496094 27.941406 58.867188 30.324219 58.867188 33.261719 L 58.867188 64.679688 C 58.867188 67.617188 56.5 70 53.574219 70 L 5.425781 70 C 2.503906 70 0.132813 67.617188 0.132813 64.679688 L 0.132813 33.261719 C 0.132813 30.324219 2.5 27.941406 5.425781 27.941406 L 5.925781 27.941406 L 5.925781 17.640625 C 5.925781 8.109375 13.441406 0.34375 22.828125 0.0117188 Z M 17.019531 27.941406 L 42.328125 27.941406 L 42.328125 16.191406 C 42.328125 12.324219 39.210938 9.191406 35.371094 9.191406 L 23.976563 9.191406 C 20.136719 9.191406 17.019531 12.324219 17.019531 16.191406 Z M 23.148438 48.859375 L 34.230469 44.578125 C 35.257813 45.550781 36.625 46.140625 38.121094 46.140625 C 41.320313 46.140625 43.914063 43.441406 43.914063 40.113281 C 43.914063 36.78125 41.320313 34.085938 38.121094 34.085938 C 35.285156 34.085938 32.925781 36.203125 32.425781 39.003906 L 14.324219 45.996094 C 13.394531 46.355469 12.710938 47.167969 12.515625 48.152344 C 12.09375 49.597656 12.839844 51.152344 14.265625 51.699219 L 32.398438 58.703125 C 32.824219 61.59375 35.222656 63.804688 38.121094 63.804688 C 41.320313 63.804688 43.914063 61.105469 43.914063 57.777344 C 43.914063 54.449219 41.320313 51.75 38.121094 51.75 C 36.6875 51.75 35.375 52.292969 34.363281 53.191406 Z M 23.148438 48.859375 "/>
</g>
</svg>
