<?xml version="1.0" encoding="utf-8"?><svg version="1.1" xmlns="http://www.w3.org/2000/svg" xmlns:xlink="http://www.w3.org/1999/xlink" xmlns:xml="http://www.w3.org/XML/1998/namespace" width="70" height="70" viewBox="0, 0, 18, 18" id="b9ca928b-2484-469e-887a-b914e6d20206"><defs><linearGradient x1="13.23" y1="12.83" x2="8.6" y2="4.06" gradientUnits="userSpaceOnUse" id="e042fd95-47e9-47d7-a97e-6414df5d5c10"><stop offset="0%" stop-color="#007FDE" /><stop offset="90%" stop-color="#35A9FF" /></linearGradient><linearGradient x1="11.23" y1="10.28" x2="14.44" y2="15.8" gradientUnits="userSpaceOnUse" id="ebbd60b7-1e21-4536-af03-7974490dde86"><stop offset="10%" stop-color="#35A9FF" /><stop offset="29%" stop-color="#2DA5FF" /><stop offset="51%" stop-color="#199DFF" /><stop offset="74%" stop-color="#008DF6" /><stop offset="88%" stop-color="#007FDE" /></linearGradient></defs><title>Icon-identity-224</title><g><polygon points="0.99,10 8.9,15.14 16.96,9.98 17.97,11.16 8.9,17 -0.03,11.16 0.99,10" style="fill:#77C5FF;" /><polygon points="1.58,9.34 8.9,0.62 16.37,9.35 8.9,14.07 1.58,9.34" style="fill:white;" /><polygon points="8.9,0.62 8.9,14.07 1.58,9.34 8.9,0.62" style="fill:#77C5FF;" /><polygon points="8.9,0.62 8.9,14.07 16.37,9.35 8.9,0.62" style="fill:url(#e042fd95-47e9-47d7-a97e-6414df5d5c10);" /><polygon points="8.9,7.57 16.37,9.35 8.9,14.07 8.9,7.57" style="fill:#33A8FF;" /><polygon points="8.9,14.07 1.58,9.34 8.9,7.57 8.9,14.07" style="fill:#ABDBFF;" /><polygon points="8.9,17 17.97,11.16 16.96,9.98 8.9,15.14 8.9,17" style="fill:url(#ebbd60b7-1e21-4536-af03-7974490dde86);" /><path d="M13.52 17.38 l0 0 C17.9 14.24 18 12.45 18 11.89 c0 -0.8 -0.08 -2.88 -2.17 -3 a2.27 2.27 0 0 0 -2.33 1.52 A2.26 2.26 0 0 0 11.2 8.85 C9.11 9 9 11.09 9 11.89 c0 0.56 0.13 2.35 4.47 5.46" style="fill:#0086EA;" /><path d="M18 11.57 H16 a0.17 0.17 0 0 0 -0.14 0.08 l-0.63 1.07 a0.08 0.08 0 0 1 -0.14 0 L14.14 11 a0.16 0.16 0 0 0 -0.3 0 L13 13.6 a0.08 0.08 0 0 1 -0.15 0 l-0.76 -1.75 a0.16 0.16 0 0 0 -0.29 0 l-1 1.82 a0.16 0.16 0 0 1 -0.15 0.09 H9.69 a7.13 7.13 0 0 0 0.48 0.65 H11 a0.17 0.17 0 0 0 0.14 -0.09 L11.85 13 l1 2.19 a0.16 0.16 0 0 0 0.3 0 l1 -2.93 L15 13.92 a0.16 0.16 0 0 0 0.28 0 l1 -1.62 a0.17 0.17 0 0 1 0.14 -0.08 H18" style="fill:white;" /></g></svg>