<?xml version="1.0" encoding="UTF-8"?>
<svg xmlns="http://www.w3.org/2000/svg" xmlns:xlink="http://www.w3.org/1999/xlink" width="70pt" height="70pt" viewBox="0 0 70 70" version="1.1">
<defs>
<linearGradient id="linear0" gradientUnits="userSpaceOnUse" x1="13.25" y1="12.83" x2="8.62" y2="4.06" gradientTransform="matrix(3.888889,0,0,3.888889,0,0)">
<stop offset="0" style="stop-color:rgb(9.803922%,53.333333%,85.098039%);stop-opacity:1;"/>
<stop offset="0.9" style="stop-color:rgb(32.941176%,68.235294%,94.117647%);stop-opacity:1;"/>
</linearGradient>
<filter id="alpha" filterUnits="objectBoundingBox" x="0%" y="0%" width="100%" height="100%">
  <feColorMatrix type="matrix" in="SourceGraphic" values="0 0 0 0 1 0 0 0 0 1 0 0 0 0 1 0 0 0 1 0"/>
</filter>
<mask id="mask0">
  <g filter="url(#alpha)">
<rect x="0" y="0" width="70" height="70" style="fill:rgb(0%,0%,0%);fill-opacity:0.8;stroke:none;"/>
  </g>
</mask>
<clipPath id="clip1">
  <rect x="0" y="0" width="70" height="70"/>
</clipPath>
<g id="surface5" clip-path="url(#clip1)">
<path style=" stroke:none;fill-rule:nonzero;fill:rgb(100%,100%,100%);fill-opacity:1;" d="M 60.042969 52.035156 C 59.007813 52.042969 57.996094 51.746094 57.128906 51.179688 L 60.003906 58.683594 L 62.84375 51.214844 C 62.003906 51.742188 61.035156 52.023438 60.042969 52.035156 Z M 60.042969 52.035156 "/>
</g>
<mask id="mask1">
  <g filter="url(#alpha)">
<rect x="0" y="0" width="70" height="70" style="fill:rgb(0%,0%,0%);fill-opacity:0.8;stroke:none;"/>
  </g>
</mask>
<clipPath id="clip2">
  <rect x="0" y="0" width="70" height="70"/>
</clipPath>
<g id="surface8" clip-path="url(#clip2)">
<path style=" stroke:none;fill-rule:nonzero;fill:rgb(100%,100%,100%);fill-opacity:1;" d="M 45.5 52.109375 C 43.964844 52.117188 42.464844 51.671875 41.183594 50.828125 L 45.460938 62.222656 L 49.738281 51.0625 C 48.457031 51.808594 46.984375 52.171875 45.5 52.109375 Z M 45.5 52.109375 "/>
</g>
</defs>
<g id="surface1">
<path style=" stroke:none;fill-rule:nonzero;fill:rgb(31.372549%,90.196078%,100%);fill-opacity:1;" d="M 3.929688 38.929688 L 34.726563 58.878906 L 66.070313 38.851563 L 70 43.398438 L 34.726563 66.148438 L 0 43.4375 Z M 3.929688 38.929688 "/>
<path style=" stroke:none;fill-rule:nonzero;fill:rgb(100%,100%,100%);fill-opacity:1;" d="M 6.261719 36.359375 L 34.726563 2.410156 L 63.777344 36.398438 L 34.726563 54.753906 Z M 6.261719 36.359375 "/>
<path style=" stroke:none;fill-rule:nonzero;fill:rgb(31.372549%,90.196078%,100%);fill-opacity:1;" d="M 34.726563 2.410156 L 34.726563 54.753906 L 6.261719 36.359375 Z M 34.726563 2.410156 "/>
<path style=" stroke:none;fill-rule:nonzero;fill:url(#linear0);" d="M 34.726563 2.410156 L 34.726563 54.753906 L 63.777344 36.398438 Z M 34.726563 2.410156 "/>
<path style=" stroke:none;fill-rule:nonzero;fill:rgb(32.54902%,69.411765%,87.843137%);fill-opacity:1;" d="M 34.726563 29.4375 L 63.777344 36.398438 L 34.726563 54.753906 Z M 34.726563 29.4375 "/>
<path style=" stroke:none;fill-rule:nonzero;fill:rgb(61.176471%,92.156863%,100%);fill-opacity:1;" d="M 34.726563 54.753906 L 6.261719 36.359375 L 34.726563 29.4375 Z M 34.726563 54.753906 "/>
<path style=" stroke:none;fill-rule:nonzero;fill:rgb(36.862745%,62.745098%,93.72549%);fill-opacity:1;" d="M 34.726563 66.148438 L 70 43.398438 L 66.070313 38.851563 L 34.726563 58.878906 Z M 34.726563 66.148438 "/>
<path style=" stroke:none;fill-rule:nonzero;fill:rgb(46.666667%,22.745098%,86.27451%);fill-opacity:1;" d="M 67.859375 62.222656 C 68.804688 62.222656 69.570313 61.457031 69.570313 60.511719 C 69.574219 55.214844 65.335938 50.894531 60.042969 50.789063 C 54.09375 50.789063 51.023438 54.484375 50.4375 60.511719 C 50.347656 61.453125 51.019531 62.296875 51.957031 62.417969 L 67.859375 62.417969 Z M 67.859375 62.222656 "/>
<use xlink:href="#surface5" mask="url(#mask0)"/>
<path style=" stroke:none;fill-rule:nonzero;fill:rgb(46.666667%,22.745098%,86.27451%);fill-opacity:1;" d="M 65.410156 46.667969 C 65.410156 49.628906 63.007813 52.035156 60.042969 52.035156 C 57.082031 52.035156 54.679688 49.628906 54.679688 46.667969 C 54.679688 43.703125 57.082031 41.300781 60.042969 41.300781 C 63.007813 41.300781 65.410156 43.703125 65.410156 46.667969 Z M 65.410156 46.667969 "/>
<path style=" stroke:none;fill-rule:nonzero;fill:rgb(65.098039%,47.843137%,95.686275%);fill-opacity:1;" d="M 57.089844 67.589844 C 57.773438 67.597656 58.433594 67.332031 58.914063 66.847656 C 59.398438 66.363281 59.667969 65.707031 59.65625 65.023438 L 59.65625 64.710938 C 58.644531 56.738281 54.09375 50.207031 45.382813 50.207031 C 36.671875 50.207031 31.964844 55.726563 31.109375 64.75 C 31.035156 65.421875 31.230469 66.09375 31.652344 66.621094 C 32.078125 67.148438 32.695313 67.480469 33.367188 67.550781 L 57.128906 67.550781 Z M 57.089844 67.589844 "/>
<use xlink:href="#surface8" mask="url(#mask1)"/>
<path style=" stroke:none;fill-rule:nonzero;fill:rgb(65.098039%,47.843137%,95.686275%);fill-opacity:1;" d="M 53.472656 44.101563 C 53.472656 48.523438 49.886719 52.109375 45.460938 52.109375 C 41.035156 52.109375 37.449219 48.523438 37.449219 44.101563 C 37.449219 39.675781 41.035156 36.089844 45.460938 36.089844 C 49.886719 36.089844 53.472656 39.675781 53.472656 44.101563 Z M 53.472656 44.101563 "/>
</g>
</svg>
