<?xml version="1.0" encoding="UTF-8"?>
<svg xmlns="http://www.w3.org/2000/svg" xmlns:xlink="http://www.w3.org/1999/xlink" width="70pt" height="70pt" viewBox="0 0 70 70" version="1.1">
<defs>
<linearGradient id="linear0" gradientUnits="userSpaceOnUse" x1="9" y1="6.88" x2="9" y2="20.45" gradientTransform="matrix(3.888889,0,0,3.888889,0,0)">
<stop offset="0.22" style="stop-color:rgb(79,180,255);stop-opacity:1;"/>
<stop offset="1" style="stop-color:rgb(0,124,216);stop-opacity:1;"/>
</linearGradient>
<filter id="alpha" filterUnits="objectBoundingBox" x="0%" y="0%" width="100%" height="100%">
  <feColorMatrix type="matrix" in="SourceGraphic" values="0 0 0 0 1 0 0 0 0 1 0 0 0 0 1 0 0 0 1 0"/>
</filter>
<mask id="mask0">
  <g filter="url(#alpha)">
<rect x="0" y="0" width="70" height="70" style="fill:rgb(0,0,0);fill-opacity:0.8;stroke:none;"/>
  </g>
</mask>
<clipPath id="clip1">
  <rect x="0" y="0" width="70" height="70"/>
</clipPath>
<g id="surface5" clip-path="url(#clip1)">
<path style=" stroke:none;fill-rule:nonzero;fill:rgb(255,255,255);fill-opacity:1;" d="M 35 35.660156 C 31.578125 35.660156 28.230469 34.671875 25.355469 32.820313 L 35 57.789063 L 44.488281 32.976563 C 41.644531 34.757813 38.355469 35.6875 35 35.660156 Z M 35 35.660156 "/>
</g>
<linearGradient id="linear1" gradientUnits="userSpaceOnUse" x1="8.61" y1="-0.4" x2="9.6" y2="11.92" gradientTransform="matrix(3.888889,0,0,3.888889,0,0)">
<stop offset="0.22" style="stop-color:rgb(79,180,255);stop-opacity:1;"/>
<stop offset="1" style="stop-color:rgb(0,124,216);stop-opacity:1;"/>
</linearGradient>
</defs>
<g id="surface1">
<path style=" stroke:none;fill-rule:nonzero;fill:url(#linear0);" d="M 61.132813 70 C 64.246094 70 66.773438 67.476563 66.773438 64.359375 C 66.8125 64.140625 66.8125 63.917969 66.773438 63.699219 C 64.515625 45.929688 54.445313 31.460938 35 31.460938 C 15.554688 31.460938 5.210938 43.710938 3.226563 63.738281 C 3.066406 65.246094 3.511719 66.757813 4.46875 67.933594 C 5.425781 69.109375 6.8125 69.851563 8.320313 70 Z M 61.132813 70 "/>
<use xlink:href="#surface5" mask="url(#mask0)"/>
<path style=" stroke:none;fill-rule:nonzero;fill:url(#linear1);" d="M 52.851563 17.8125 C 52.851563 27.648438 44.875 35.621094 35.039063 35.621094 C 25.203125 35.621094 17.226563 27.648438 17.226563 17.8125 C 17.226563 7.972656 25.203125 0 35.039063 0 C 44.875 0 52.851563 7.972656 52.851563 17.8125 Z M 52.851563 17.8125 "/>
</g>
</svg>
