<?xml version="1.0" encoding="utf-8"?><svg version="1.1" xmlns="http://www.w3.org/2000/svg" xmlns:xlink="http://www.w3.org/1999/xlink" xmlns:xml="http://www.w3.org/XML/1998/namespace" width="70" height="70" viewBox="0, 0, 18, 18" id="ed8fbe5c-618b-47ce-8d68-3dbd1e10f81a"><defs><linearGradient x1="7.93" y1="17.95" x2="7.93" y2="5.62" gradientUnits="userSpaceOnUse" id="e78519cd-36d2-4ee5-987f-be84be24d95e"><stop offset="0%" stop-color="#5E9624" /><stop offset="100%" stop-color="#B4EC36" /></linearGradient><linearGradient x1="7.95" y1="9.21" x2="7.95" y2="-2.02" gradientUnits="userSpaceOnUse" id="ac3f95ec-6391-4f34-b431-9534d4cdf013"><stop offset="0%" stop-color="#5E9624" /><stop offset="100%" stop-color="#B4EC36" /></linearGradient></defs><path d="M14 16.85 a1.3 1.3 0 0 0 1.32 -1.31 a0.81 0.81 0 0 0 0 -0.16 c-0.52 -4.15 -2.88 -7.53 -7.4 -7.53 S1 10.71 0.51 15.39 A1.34 1.34 0 0 0 1.7 16.85 H14 Z" style="fill:url(#e78519cd-36d2-4ee5-987f-be84be24d95e);" /><path d="M8 8.83 a4.16 4.16 0 0 1 -2.26 -0.66 L7.92 14 l2.22 -5.79 A4.2 4.2 0 0 1 8 8.83 Z" style="fill:white;" /><circle cx="7.95" cy="4.67" r="4.17" style="fill:url(#ac3f95ec-6391-4f34-b431-9534d4cdf013);" /><polygon points="17.49,11.13 17.49,15.37 13.85,17.5 13.85,13.26 17.49,11.13" style="fill:#32BEDD;" /><polygon points="17.49,11.13 13.85,13.26 10.21,11.13 13.85,9 17.49,11.13" style="fill:#9CEBFF;" /><polygon points="13.85,13.26 13.85,17.5 10.21,15.37 10.21,11.13 13.85,13.26" style="fill:#50E6FF;" /><polygon points="10.21,15.37 13.85,13.26 13.85,17.5 10.21,15.37" style="fill:#9CEBFF;" /><polygon points="17.49,15.37 13.85,13.26 13.85,17.5 17.49,15.37" style="fill:#50E6FF;" /></svg>