<?xml version="1.0" encoding="UTF-8"?>
<svg xmlns="http://www.w3.org/2000/svg" xmlns:xlink="http://www.w3.org/1999/xlink" width="70pt" height="70pt" viewBox="0 0 70 70" version="1.1">
<defs>
<linearGradient id="linear0" gradientUnits="userSpaceOnUse" x1="-6518.78" y1="1118.86" x2="-6518.78" y2="1090.06" gradientTransform="matrix(1.944444,0,0,-1.944444,12706.633333,2177.738889)">
<stop offset="0" style="stop-color:rgb(41,164,255);stop-opacity:1;"/>
<stop offset="0.18" style="stop-color:rgb(35,161,255);stop-opacity:1;"/>
<stop offset="0.41" style="stop-color:rgb(17,154,255);stop-opacity:1;"/>
<stop offset="0.66" style="stop-color:rgb(0,139,242);stop-opacity:1;"/>
<stop offset="0.94" style="stop-color:rgb(0,114,198);stop-opacity:1;"/>
<stop offset="1" style="stop-color:rgb(0,108,188);stop-opacity:1;"/>
</linearGradient>
</defs>
<g id="surface1">
<path style=" stroke:none;fill-rule:nonzero;fill:url(#linear0);" d="M 22.050781 41.261719 L 38.890625 41.261719 L 38.890625 58.0625 L 22.050781 58.0625 Z M 2.605469 18.859375 L 19.445313 18.859375 L 19.445313 2.0625 L 4.785156 2.0625 C 3.496094 2.0625 2.449219 3.105469 2.449219 4.394531 Z M 4.9375 58.0625 L 19.445313 58.0625 L 19.445313 41.261719 L 2.449219 41.261719 L 2.449219 55.726563 C 2.449219 57.015625 3.496094 58.0625 4.785156 58.0625 Z M 2.605469 38.617188 L 19.445313 38.617188 L 19.445313 21.660156 L 2.449219 21.660156 Z M 41.804688 58.0625 L 56.273438 58.0625 C 57.5625 58.0625 58.605469 57.015625 58.605469 55.726563 L 58.605469 41.261719 L 41.648438 41.261719 Z M 22.359375 38.617188 L 38.890625 38.617188 L 38.890625 21.660156 L 22.050781 21.660156 Z M 41.804688 38.617188 L 58.332031 38.617188 L 58.332031 21.660156 L 41.648438 21.660156 Z M 41.804688 2.214844 L 41.804688 18.859375 L 58.332031 18.859375 L 58.332031 4.394531 C 58.332031 3.105469 57.289063 2.0625 56 2.0625 Z M 22.359375 19.015625 L 38.890625 19.015625 L 38.890625 2.0625 L 22.050781 2.0625 Z M 22.359375 19.015625 "/>
<path style=" stroke:none;fill-rule:nonzero;fill:rgb(47,166,255);fill-opacity:1;" d="M 67.550781 41.609375 L 67.550781 59.148438 L 52.5 67.9375 L 52.5 50.398438 Z M 67.550781 41.609375 "/>
<path style=" stroke:none;fill-rule:nonzero;fill:rgb(171,219,255);fill-opacity:1;" d="M 67.550781 41.609375 L 52.5 50.4375 L 37.449219 41.609375 L 52.5 32.820313 Z M 67.550781 41.609375 "/>
<path style=" stroke:none;fill-rule:nonzero;fill:rgb(119,197,255);fill-opacity:1;" d="M 52.5 50.4375 L 52.5 67.9375 L 37.449219 59.148438 L 37.449219 41.609375 Z M 52.5 50.4375 "/>
<path style=" stroke:none;fill-rule:nonzero;fill:rgb(171,219,255);fill-opacity:1;" d="M 37.449219 59.148438 L 52.5 50.398438 L 52.5 67.9375 Z M 37.449219 59.148438 "/>
<path style=" stroke:none;fill-rule:nonzero;fill:rgb(119,197,255);fill-opacity:1;" d="M 67.550781 59.148438 L 52.5 50.398438 L 52.5 67.9375 Z M 67.550781 59.148438 "/>
</g>
</svg>
