<?xml version="1.0" encoding="utf-8"?><svg version="1.1" xmlns="http://www.w3.org/2000/svg" xmlns:xlink="http://www.w3.org/1999/xlink" xmlns:xml="http://www.w3.org/XML/1998/namespace" width="70" height="70" viewBox="0, 0, 18, 18" id="ffd65ef0-46f1-4123-aa86-6c2243292f5f"><defs><linearGradient x1="13.25" y1="12.83" x2="8.62" y2="4.06" gradientUnits="userSpaceOnUse" id="ae0c4e08-2440-488c-bae1-6509c7a4ef07"><stop offset="0%" stop-color="#1988D9" /><stop offset="90%" stop-color="#54AEF0" /></linearGradient></defs><g><polygon points="1.01,10.01 8.93,15.14 16.99,9.99 18,11.16 8.93,17.01 0,11.17 1.01,10.01" style="fill:#50E6FF;" /><polygon points="1.61,9.35 8.93,0.62 16.4,9.36 8.93,14.08 1.61,9.35" style="fill:white;" /><polygon points="8.93,0.62 8.93,14.08 1.61,9.35 8.93,0.62" style="fill:#50E6FF;" /><polygon points="8.93,0.62 8.93,14.08 16.4,9.36 8.93,0.62" style="fill:url(#ae0c4e08-2440-488c-bae1-6509c7a4ef07);" /><polygon points="8.93,7.57 16.4,9.36 8.93,14.08 8.93,7.57" style="fill:#53B1E0;" /><polygon points="8.93,14.08 1.61,9.35 8.93,7.57 8.93,14.08" style="fill:#9CEBFF;" /><polygon points="8.93,17.01 18,11.16 16.99,9.99 8.93,15.14 8.93,17.01" style="fill:#5EA0EF;" /><path d="M17.45 16 a0.44 0.44 0 0 0 0.44 -0.44 v0 a2.5 2.5 0 0 0 -2.45 -2.5 c-1.53 0 -2.32 0.95 -2.47 2.5 a0.45 0.45 0 0 0 0.39 0.49 h4.09 Z" style="fill:#773ADC;" /><path d="M15.44 13.38 a1.35 1.35 0 0 1 -0.75 -0.22 l0.74 1.93 l0.73 -1.92 A1.38 1.38 0 0 1 15.44 13.38 Z" opacity="0.8" style="fill:white;" /><circle cx="15.44" cy="12" r="1.38" style="fill:#773ADC;" /><path d="M14.68 17.38 a0.65 0.65 0 0 0 0.66 -0.66 v-0.08 c-0.26 -2.05 -1.43 -3.73 -3.67 -3.73 S8.22 14.33 8 16.65 a0.65 0.65 0 0 0 0.58 0.72 h6.11 Z" style="fill:#A67AF4;" /><path d="M11.7 13.4 a2 2 0 0 1 -1.11 -0.33 L11.69 16 l1.1 -2.87 A2 2 0 0 1 11.7 13.4 Z" opacity="0.8" style="fill:white;" /><circle cx="11.69" cy="11.34" r="2.06" style="fill:#A67AF4;" /></g></svg>