<?xml version="1.0" encoding="UTF-8"?>
<svg xmlns="http://www.w3.org/2000/svg" xmlns:xlink="http://www.w3.org/1999/xlink" width="70pt" height="70pt" viewBox="0 0 70 70" version="1.1">
<defs>
<filter id="alpha" filterUnits="objectBoundingBox" x="0%" y="0%" width="100%" height="100%">
  <feColorMatrix type="matrix" in="SourceGraphic" values="0 0 0 0 1 0 0 0 0 1 0 0 0 0 1 0 0 0 1 0"/>
</filter>
<mask id="mask0">
  <g filter="url(#alpha)">
<rect x="0" y="0" width="70" height="70" style="fill:rgb(0%,0%,0%);fill-opacity:0.501961;stroke:none;"/>
  </g>
</mask>
<clipPath id="clip1">
  <rect x="0" y="0" width="70" height="70"/>
</clipPath>
<g id="surface5" clip-path="url(#clip1)">
<path style=" stroke:none;fill-rule:nonzero;fill:rgb(100%,100%,100%);fill-opacity:1;" d="M 56.660156 34.976563 L 54.164063 37.476563 L 33.691406 17.007813 L 36.1875 14.511719 Z M 56.660156 34.976563 "/>
</g>
<mask id="mask1">
  <g filter="url(#alpha)">
<rect x="0" y="0" width="70" height="70" style="fill:rgb(0%,0%,0%);fill-opacity:0.501961;stroke:none;"/>
  </g>
</mask>
<clipPath id="clip2">
  <rect x="0" y="0" width="70" height="70"/>
</clipPath>
<g id="surface8" clip-path="url(#clip2)">
<path style=" stroke:none;fill-rule:nonzero;fill:rgb(100%,100%,100%);fill-opacity:1;" d="M 33.832031 14.527344 L 36.332031 17.027344 L 15.863281 37.496094 L 13.363281 34.996094 Z M 33.832031 14.527344 "/>
</g>
<mask id="mask2">
  <g filter="url(#alpha)">
<rect x="0" y="0" width="70" height="70" style="fill:rgb(0%,0%,0%);fill-opacity:0.101961;stroke:none;"/>
  </g>
</mask>
<clipPath id="clip3">
  <rect x="0" y="0" width="70" height="70"/>
</clipPath>
<g id="surface11" clip-path="url(#clip3)">
<path style=" stroke:none;fill-rule:nonzero;fill:rgb(100%,100%,100%);fill-opacity:1;" d="M 39.566406 1.894531 C 38.347656 0.671875 36.726563 0 35 0 C 33.277344 0 31.65625 0.671875 30.4375 1.894531 L 1.894531 30.4375 C 0.6875 31.636719 0 33.300781 0 35 C 0 36.699219 0.6875 38.363281 1.894531 39.566406 L 18.054688 55.726563 L 48.453125 10.777344 Z M 39.566406 1.894531 "/>
</g>
</defs>
<g id="surface1">
<path style=" stroke:none;fill-rule:nonzero;fill:rgb(34.901961%,70.588235%,85.098039%);fill-opacity:1;" d="M 35 70 C 33.277344 70 31.652344 69.328125 30.4375 68.109375 L 1.890625 39.566406 C 0.6875 38.363281 0 36.699219 0 35 C 0 33.300781 0.6875 31.636719 1.890625 30.4375 L 30.4375 1.894531 C 31.65625 0.671875 33.277344 0 35 0 C 36.726563 0 38.347656 0.671875 39.566406 1.894531 L 68.105469 30.4375 C 69.328125 31.652344 70 33.273438 70 35 C 70 36.726563 69.328125 38.347656 68.105469 39.566406 L 39.566406 68.109375 C 38.347656 69.328125 36.726563 70 35 70 "/>
<path style=" stroke:none;fill-rule:nonzero;fill:rgb(100%,100%,100%);fill-opacity:1;" d="M 54.058594 29.53125 C 51.035156 29.53125 48.585938 31.980469 48.585938 35.003906 C 48.585938 36.113281 48.921875 37.140625 49.488281 38.003906 L 38.648438 48.84375 C 38.359375 48.644531 38.050781 48.476563 37.730469 48.324219 L 37.730469 20.664063 C 39.363281 19.714844 40.472656 17.96875 40.472656 15.945313 C 40.472656 12.921875 38.023438 10.472656 35 10.472656 C 31.980469 10.472656 29.527344 12.921875 29.527344 15.945313 C 29.527344 17.96875 30.640625 19.714844 32.273438 20.664063 L 32.273438 48.320313 C 31.964844 48.464844 31.664063 48.625 31.386719 48.816406 L 20.535156 37.960938 C 21.085938 37.105469 21.414063 36.09375 21.414063 35.003906 C 21.414063 31.980469 18.964844 29.53125 15.941406 29.53125 C 12.917969 29.53125 10.46875 31.980469 10.46875 35.003906 C 10.46875 38.027344 12.917969 40.476563 15.941406 40.476563 C 16.570313 40.476563 17.164063 40.347656 17.726563 40.152344 L 29.136719 51.5625 C 28.808594 52.332031 28.625 53.171875 28.625 54.058594 C 28.625 57.578125 31.480469 60.429688 34.996094 60.429688 C 38.515625 60.429688 41.367188 57.578125 41.367188 54.058594 C 41.367188 53.191406 41.191406 52.363281 40.878906 51.609375 L 52.320313 40.167969 C 52.867188 40.351563 53.445313 40.476563 54.058594 40.476563 C 57.078125 40.476563 59.527344 38.027344 59.527344 35.003906 C 59.527344 31.980469 57.078125 29.53125 54.058594 29.53125 Z M 54.058594 29.53125 "/>
<use xlink:href="#surface5" mask="url(#mask0)"/>
<use xlink:href="#surface8" mask="url(#mask1)"/>
<path style=" stroke:none;fill-rule:nonzero;fill:rgb(72.156863%,83.137255%,19.607843%);fill-opacity:1;" d="M 38.730469 54.058594 C 38.730469 56.152344 37.03125 57.851563 34.9375 57.851563 C 32.839844 57.851563 31.144531 56.152344 31.144531 54.058594 C 31.144531 51.964844 32.839844 50.265625 34.9375 50.265625 C 37.03125 50.265625 38.730469 51.964844 38.730469 54.058594 "/>
<path style=" stroke:none;fill-rule:nonzero;fill:rgb(72.156863%,83.137255%,19.607843%);fill-opacity:1;" d="M 38.042969 15.945313 C 38.042969 17.625 36.679688 18.988281 35 18.988281 C 33.320313 18.988281 31.957031 17.625 31.957031 15.945313 C 31.957031 14.261719 33.320313 12.902344 35 12.902344 C 36.679688 12.902344 38.042969 14.261719 38.042969 15.945313 "/>
<path style=" stroke:none;fill-rule:nonzero;fill:rgb(72.156863%,83.137255%,19.607843%);fill-opacity:1;" d="M 18.988281 35 C 18.988281 36.683594 17.625 38.046875 15.945313 38.046875 C 14.261719 38.046875 12.902344 36.683594 12.902344 35 C 12.902344 33.320313 14.261719 31.957031 15.945313 31.957031 C 17.625 31.957031 18.988281 33.320313 18.988281 35 "/>
<path style=" stroke:none;fill-rule:nonzero;fill:rgb(72.156863%,83.137255%,19.607843%);fill-opacity:1;" d="M 57.101563 35 C 57.101563 36.683594 55.738281 38.046875 54.058594 38.046875 C 52.378906 38.046875 51.015625 36.683594 51.015625 35 C 51.015625 33.320313 52.378906 31.957031 54.058594 31.957031 C 55.738281 31.957031 57.101563 33.320313 57.101563 35 "/>
<use xlink:href="#surface11" mask="url(#mask2)"/>
</g>
</svg>
