<?xml version="1.0" encoding="utf-8"?><svg version="1.1" xmlns="http://www.w3.org/2000/svg" xmlns:xlink="http://www.w3.org/1999/xlink" xmlns:xml="http://www.w3.org/XML/1998/namespace" width="70" height="70" viewBox="0, 0, 18, 18" id="a5c2c34a-a5f9-4043-a084-e51b74497895"><defs><linearGradient x1="6.7" y1="7.26" x2="6.7" y2="18.36" gradientUnits="userSpaceOnUse" id="f97360fa-fd13-420b-9b43-74b8dde83a11"><stop offset="22%" stop-color="#32D4F5" /><stop offset="100%" stop-color="#198AB3" /></linearGradient><linearGradient x1="6.42" y1="1.32" x2="7.23" y2="11.39" gradientUnits="userSpaceOnUse" id="b2ab4071-529d-4450-9443-e6dc0939cc4e"><stop offset="22%" stop-color="#32D4F5" /><stop offset="100%" stop-color="#198AB3" /></linearGradient></defs><title>Icon-identity-223</title><path d="M17.22 13.92 a0.79 0.79 0 0 0 0.8 -0.79 A0.28 0.28 0 0 0 18 13 c-0.31 -2.5 -1.74 -4.54 -4.46 -4.54 S9.35 10.22 9.07 13 a0.81 0.81 0 0 0 0.72 0.88 h7.43 Z" style="fill:#0078D4;" /><path d="M13.55 9.09 a2.44 2.44 0 0 1 -1.36 -0.4 l1.35 3.52 l1.33 -3.49 A2.54 2.54 0 0 1 13.55 9.09 Z" opacity="0.8" style="fill:white;" /><circle cx="13.55" cy="6.58" r="2.51" style="fill:#0078D4;" /><path d="M12.19 16.36 a1.19 1.19 0 0 0 1.19 -1.19 a0.66 0.66 0 0 0 0 -0.14 c-0.47 -3.74 -2.6 -6.78 -6.66 -6.78 S0.44 10.83 0 15 a1.2 1.2 0 0 0 1.07 1.31 h11.1 Z" style="fill:url(#f97360fa-fd13-420b-9b43-74b8dde83a11);" /><path d="M6.77 9.14 a3.72 3.72 0 0 1 -2 -0.6 l2 5.25 l2 -5.21 A3.81 3.81 0 0 1 6.77 9.14 Z" opacity="0.8" style="fill:white;" /><circle cx="6.74" cy="5.39" r="3.75" style="fill:url(#b2ab4071-529d-4450-9443-e6dc0939cc4e);" /></svg>