<?xml version="1.0" encoding="UTF-8"?>
<svg xmlns="http://www.w3.org/2000/svg" xmlns:xlink="http://www.w3.org/1999/xlink" width="70pt" height="70pt" viewBox="0 0 70 70" version="1.1">
<defs>
<filter id="alpha" filterUnits="objectBoundingBox" x="0%" y="0%" width="100%" height="100%">
  <feColorMatrix type="matrix" in="SourceGraphic" values="0 0 0 0 1 0 0 0 0 1 0 0 0 0 1 0 0 0 1 0"/>
</filter>
<mask id="mask0">
  <g filter="url(#alpha)">
<rect x="0" y="0" width="70" height="70" style="fill:rgb(0,0,0);fill-opacity:0.4;stroke:none;"/>
  </g>
</mask>
<clipPath id="clip1">
  <rect x="0" y="0" width="70" height="70"/>
</clipPath>
<g id="surface5" clip-path="url(#clip1)">
<path style=" stroke:none;fill-rule:nonzero;fill:rgb(115,195,255);fill-opacity:1;" d="M 41.804688 23.160156 L 53.460938 8.34375 C 38.035156 6.644531 35.457031 0 35.457031 0 C 35.457031 0 31.984375 8.738281 9.800781 8.738281 L 9.800781 44.59375 C 9.800781 48.929688 12.210938 52.988281 15.546875 56.539063 L 24.160156 45.589844 Z M 41.804688 23.160156 "/>
</g>
</defs>
<g id="surface1">
<path style=" stroke:none;fill-rule:nonzero;fill:rgb(39,163,255);fill-opacity:1;" d="M 53.460938 8.34375 C 38.035156 6.644531 35.457031 0 35.457031 0 C 35.457031 0 31.984375 8.738281 9.800781 8.738281 L 9.800781 44.59375 C 9.800781 48.929688 12.210938 52.988281 15.546875 56.539063 C 23.109375 64.585938 35.457031 70 35.457031 70 C 35.457031 70 61.117188 58.761719 61.117188 44.59375 L 61.117188 8.738281 C 58.261719 8.738281 55.722656 8.59375 53.460938 8.34375 Z M 53.460938 8.34375 "/>
<use xlink:href="#surface5" mask="url(#mask0)"/>
<path style=" stroke:none;fill-rule:nonzero;fill:rgb(255,255,255);fill-opacity:1;" d="M 45.632813 34.242188 L 44.140625 34.242188 L 44.140625 29.269531 C 44.140625 26.878906 43.261719 24.683594 41.804688 23.042969 C 41.75 22.980469 41.699219 22.914063 41.648438 22.855469 C 40.097656 21.195313 37.890625 20.128906 35.457031 20.128906 C 33.027344 20.128906 30.820313 21.195313 29.269531 22.855469 C 27.714844 24.515625 26.773438 26.789063 26.773438 29.269531 L 26.773438 34.242188 L 25.28125 34.242188 C 24.664063 34.242188 24.160156 34.746094 24.160156 35.367188 L 24.160156 48.515625 C 24.160156 49.132813 24.664063 49.636719 25.28125 49.636719 L 45.632813 49.636719 C 46.25 49.636719 46.753906 49.132813 46.753906 48.515625 L 46.753906 35.367188 C 46.753906 34.746094 46.25 34.242188 45.632813 34.242188 Z M 40.019531 34.246094 L 32.988281 34.246094 L 32.992188 34.242188 L 30.898438 34.242188 L 30.898438 29.269531 C 30.898438 27.839844 31.4375 26.574219 32.28125 25.671875 C 33.128906 24.773438 34.234375 24.253906 35.457031 24.253906 C 36.679688 24.253906 37.789063 24.773438 38.632813 25.671875 C 38.835938 25.886719 39.015625 26.125 39.179688 26.378906 L 39.175781 26.378906 C 39.699219 27.191406 40.019531 28.183594 40.019531 29.269531 Z M 40.019531 34.246094 "/>
</g>
</svg>
