<?xml version="1.0" encoding="utf-8"?><svg version="1.1" xmlns="http://www.w3.org/2000/svg" xmlns:xlink="http://www.w3.org/1999/xlink" xmlns:xml="http://www.w3.org/XML/1998/namespace" width="70" height="70" viewBox="0, 0, 18, 18" id="ada1a734-f5a0-4f30-8c41-a30875acb17e"><defs><linearGradient x1="13.25" y1="13.06" x2="8.62" y2="4.29" gradientUnits="userSpaceOnUse" id="f92ae47d-0835-4bac-a4f5-649f41e19a24"><stop offset="0%" stop-color="#1988D9" /><stop offset="90%" stop-color="#54AEF0" /></linearGradient><linearGradient x1="11.26" y1="10.51" x2="14.46" y2="16.03" gradientUnits="userSpaceOnUse" id="f418fd20-54c9-41f7-a889-8b791ff60efa"><stop offset="10%" stop-color="#54AEF0" /><stop offset="29%" stop-color="#4FABEE" /><stop offset="51%" stop-color="#41A2E9" /><stop offset="74%" stop-color="#2A93E0" /><stop offset="88%" stop-color="#1988D9" /></linearGradient></defs><title>Icon-identity-222</title><polygon points="1.01,10.23 8.93,15.37 16.99,10.21 18,11.38 8.93,17.23 0,11.39 1.01,10.23" style="fill:#50E6FF;" /><polygon points="1.61,9.57 8.93,0.85 16.4,9.58 8.93,14.3 1.61,9.57" style="fill:white;" /><polygon points="8.93,0.85 8.93,14.3 1.61,9.57 8.93,0.85" style="fill:#50E6FF;" /><polygon points="8.93,0.85 8.93,14.3 16.4,9.58 8.93,0.85" style="fill:url(#f92ae47d-0835-4bac-a4f5-649f41e19a24);" /><polygon points="8.93,7.8 16.4,9.58 8.93,14.3 8.93,7.8" style="fill:#53B1E0;" /><polygon points="8.93,14.3 1.61,9.57 8.93,7.8 8.93,14.3" style="fill:#9CEBFF;" /><polygon points="8.93,17.23 18,11.38 16.99,10.21 8.93,15.37 8.93,17.23" style="fill:url(#f418fd20-54c9-41f7-a889-8b791ff60efa);" /><polygon points="13.53,9.04 9.06,15.3 13.53,17.12 18,15.3 13.53,9.04" style="fill:#773ADC;" /><polygon points="13.53,9.04 9.06,15.3 13.53,17.12 13.53,9.04" opacity="0.5" style="fill:#F9F9F9;" /></svg>