<?xml version="1.0" encoding="UTF-8"?>
<svg xmlns="http://www.w3.org/2000/svg" xmlns:xlink="http://www.w3.org/1999/xlink" width="70pt" height="70pt" viewBox="0 0 70 70" version="1.1">
<defs>
<linearGradient id="linear0" gradientUnits="userSpaceOnUse" x1="13.18" y1="13.01" x2="8.63" y2="4.38" gradientTransform="matrix(3.888889,0,0,3.888889,0,0)">
<stop offset="0" style="stop-color:rgb(9.803922%,53.333333%,85.098039%);stop-opacity:1;"/>
<stop offset="0.9" style="stop-color:rgb(32.941176%,68.235294%,94.117647%);stop-opacity:1;"/>
</linearGradient>
<linearGradient id="linear1" gradientUnits="userSpaceOnUse" x1="11.22" y1="10.5" x2="14.37" y2="15.93" gradientTransform="matrix(3.888889,0,0,3.888889,0,0)">
<stop offset="0.1" style="stop-color:rgb(32.941176%,68.235294%,94.117647%);stop-opacity:1;"/>
<stop offset="0.29" style="stop-color:rgb(30.980392%,67.058824%,93.333333%);stop-opacity:1;"/>
<stop offset="0.51" style="stop-color:rgb(25.490196%,63.529412%,91.372549%);stop-opacity:1;"/>
<stop offset="0.74" style="stop-color:rgb(16.470588%,57.647059%,87.843137%);stop-opacity:1;"/>
<stop offset="0.88" style="stop-color:rgb(9.803922%,53.333333%,85.098039%);stop-opacity:1;"/>
</linearGradient>
<filter id="alpha" filterUnits="objectBoundingBox" x="0%" y="0%" width="100%" height="100%">
  <feColorMatrix type="matrix" in="SourceGraphic" values="0 0 0 0 1 0 0 0 0 1 0 0 0 0 1 0 0 0 1 0"/>
</filter>
<mask id="mask0">
  <g filter="url(#alpha)">
<rect x="0" y="0" width="70" height="70" style="fill:rgb(0%,0%,0%);fill-opacity:0.74902;stroke:none;"/>
  </g>
</mask>
<clipPath id="clip1">
  <rect x="0" y="0" width="70" height="70"/>
</clipPath>
<g id="surface5" clip-path="url(#clip1)">
<path style=" stroke:none;fill-rule:nonzero;fill:rgb(100%,57.647059%,0%);fill-opacity:1;" d="M 50.554688 66.109375 C 50.714844 66.277344 50.964844 66.324219 51.171875 66.226563 C 51.382813 66.132813 51.507813 65.914063 51.488281 65.683594 L 51.488281 55.726563 C 51.496094 55.53125 51.410156 55.34375 51.253906 55.222656 C 51.082031 55.097656 50.847656 55.089844 50.664063 55.199219 C 50.480469 55.308594 50.375 55.515625 50.398438 55.726563 L 50.398438 65.488281 C 50.324219 65.707031 50.382813 65.953125 50.554688 66.109375 Z M 50.554688 66.109375 "/>
</g>
<mask id="mask1">
  <g filter="url(#alpha)">
<rect x="0" y="0" width="70" height="70" style="fill:rgb(0%,0%,0%);fill-opacity:0.74902;stroke:none;"/>
  </g>
</mask>
<clipPath id="clip2">
  <rect x="0" y="0" width="70" height="70"/>
</clipPath>
<g id="surface8" clip-path="url(#clip2)">
<path style=" stroke:none;fill-rule:nonzero;fill:rgb(100%,57.647059%,0%);fill-opacity:1;" d="M 46.976563 42.390625 L 58.371094 42.390625 C 58.757813 42.390625 59.070313 42.703125 59.070313 43.089844 L 59.070313 43.207031 C 59.070313 43.59375 58.757813 43.90625 58.371094 43.90625 L 46.976563 43.90625 C 46.589844 43.90625 46.277344 43.59375 46.277344 43.207031 L 46.277344 43.089844 C 46.277344 42.703125 46.589844 42.390625 46.976563 42.390625 Z M 46.976563 42.390625 "/>
</g>
<mask id="mask2">
  <g filter="url(#alpha)">
<rect x="0" y="0" width="70" height="70" style="fill:rgb(0%,0%,0%);fill-opacity:0.74902;stroke:none;"/>
  </g>
</mask>
<clipPath id="clip3">
  <rect x="0" y="0" width="70" height="70"/>
</clipPath>
<g id="surface11" clip-path="url(#clip3)">
<path style=" stroke:none;fill-rule:nonzero;fill:rgb(100%,57.647059%,0%);fill-opacity:1;" d="M 46.976563 44.839844 L 58.371094 44.839844 C 58.757813 44.839844 59.070313 45.152344 59.070313 45.539063 L 59.070313 45.65625 C 59.070313 46.042969 58.757813 46.355469 58.371094 46.355469 L 46.976563 46.355469 C 46.589844 46.355469 46.277344 46.042969 46.277344 45.65625 L 46.277344 45.539063 C 46.277344 45.152344 46.589844 44.839844 46.976563 44.839844 Z M 46.976563 44.839844 "/>
</g>
</defs>
<g id="surface1">
<path style=" stroke:none;fill-rule:nonzero;fill:rgb(31.372549%,90.196078%,100%);fill-opacity:1;" d="M 4.472656 39.746094 L 34.726563 59.382813 L 65.527344 39.707031 L 69.417969 44.179688 L 34.726563 66.539063 L 0.582031 44.214844 Z M 4.472656 39.746094 "/>
<path style=" stroke:none;fill-rule:nonzero;fill:rgb(100%,100%,100%);fill-opacity:1;" d="M 6.726563 37.253906 L 34.726563 3.890625 L 63.3125 37.292969 L 34.726563 55.339844 Z M 6.726563 37.253906 "/>
<path style=" stroke:none;fill-rule:nonzero;fill:rgb(31.372549%,90.196078%,100%);fill-opacity:1;" d="M 34.726563 3.890625 L 34.726563 55.339844 L 6.726563 37.253906 Z M 34.726563 3.890625 "/>
<path style=" stroke:none;fill-rule:nonzero;fill:url(#linear0);" d="M 34.726563 3.890625 L 34.726563 55.339844 L 63.3125 37.292969 Z M 34.726563 3.890625 "/>
<path style=" stroke:none;fill-rule:nonzero;fill:rgb(32.54902%,69.411765%,87.843137%);fill-opacity:1;" d="M 34.726563 30.449219 L 63.3125 37.292969 L 34.726563 55.339844 Z M 34.726563 30.449219 "/>
<path style=" stroke:none;fill-rule:nonzero;fill:rgb(61.176471%,92.156863%,100%);fill-opacity:1;" d="M 34.726563 55.339844 L 6.726563 37.253906 L 34.726563 30.449219 Z M 34.726563 55.339844 "/>
<path style=" stroke:none;fill-rule:nonzero;fill:url(#linear1);" d="M 34.726563 66.539063 L 69.417969 44.179688 L 65.527344 39.707031 L 34.726563 59.382813 Z M 34.726563 66.539063 "/>
<path style=" stroke:none;fill-rule:nonzero;fill:rgb(100%,79.215686%,0%);fill-opacity:1;" d="M 63.464844 46.199219 C 64.324219 45.351563 64.804688 44.195313 64.804688 42.992188 C 64.804688 41.785156 64.324219 40.628906 63.464844 39.785156 L 55.6875 32.003906 C 53.925781 30.246094 51.074219 30.246094 49.3125 32.003906 L 41.535156 39.785156 C 39.789063 41.566406 39.789063 44.417969 41.535156 46.199219 L 48.027344 52.695313 C 48.257813 52.933594 48.386719 53.257813 48.378906 53.589844 L 48.378906 65.644531 C 48.363281 66.058594 48.535156 66.457031 48.84375 66.734375 L 51.800781 69.6875 C 51.984375 69.890625 52.246094 70.007813 52.519531 70.007813 C 52.792969 70.007813 53.054688 69.890625 53.238281 69.6875 L 56.078125 66.851563 L 57.789063 65.140625 C 58.011719 64.910156 58.011719 64.550781 57.789063 64.320313 L 56.582031 63.117188 C 56.449219 63 56.371094 62.828125 56.371094 62.648438 C 56.371094 62.472656 56.449219 62.300781 56.582031 62.183594 L 57.789063 60.976563 C 58.015625 60.738281 58.015625 60.363281 57.789063 60.121094 L 56.582031 58.917969 C 56.449219 58.804688 56.375 58.640625 56.375 58.46875 C 56.375 58.296875 56.449219 58.132813 56.582031 58.023438 L 57.789063 56.777344 C 58.011719 56.550781 58.011719 56.1875 57.789063 55.960938 L 56.078125 54.25 L 56.078125 53.628906 Z M 52.5 33.871094 C 53.917969 33.871094 55.066406 35.019531 55.066406 36.4375 C 55.066406 37.855469 53.917969 39.003906 52.5 39.003906 C 51.082031 39.003906 49.933594 37.855469 49.933594 36.4375 C 49.933594 35.019531 51.082031 33.871094 52.5 33.871094 Z M 52.5 33.871094 "/>
<use xlink:href="#surface5" mask="url(#mask0)"/>
<use xlink:href="#surface8" mask="url(#mask1)"/>
<use xlink:href="#surface11" mask="url(#mask2)"/>
</g>
</svg>
