<?xml version="1.0" encoding="UTF-8"?>
<svg xmlns="http://www.w3.org/2000/svg" xmlns:xlink="http://www.w3.org/1999/xlink" width="70pt" height="70pt" viewBox="0 0 70 70" version="1.1">
<defs>
<filter id="alpha" filterUnits="objectBoundingBox" x="0%" y="0%" width="100%" height="100%">
  <feColorMatrix type="matrix" in="SourceGraphic" values="0 0 0 0 1 0 0 0 0 1 0 0 0 0 1 0 0 0 1 0"/>
</filter>
<mask id="mask0">
  <g filter="url(#alpha)">
<rect x="0" y="0" width="70" height="70" style="fill:rgb(0,0,0);fill-opacity:0.501961;stroke:none;"/>
  </g>
</mask>
<clipPath id="clip1">
  <rect x="0" y="0" width="70" height="70"/>
</clipPath>
<g id="surface5" clip-path="url(#clip1)">
<path style=" stroke:none;fill-rule:nonzero;fill:rgb(255,255,255);fill-opacity:1;" d="M 47.273438 67.84375 C 47.195313 67.84375 47.117188 67.824219 47.050781 67.785156 C 46.914063 67.707031 46.828125 67.5625 46.828125 67.40625 L 46.828125 50.667969 C 46.832031 50.507813 46.914063 50.363281 47.050781 50.28125 L 61.691406 41.890625 C 61.832031 41.8125 62 41.8125 62.140625 41.890625 C 62.273438 41.96875 62.355469 42.113281 62.355469 42.273438 L 62.355469 59.007813 C 62.359375 59.164063 62.273438 59.3125 62.140625 59.390625 L 47.492188 67.789063 C 47.425781 67.832031 47.351563 67.851563 47.273438 67.847656 "/>
</g>
</defs>
<g id="surface1">
<path style=" stroke:none;fill-rule:nonzero;fill:rgb(0,102,178);fill-opacity:1;" d="M 0 2.800781 L 15.398438 2.800781 L 15.398438 18.199219 L 0 18.199219 Z M 18.199219 2.800781 L 35 2.800781 L 35 18.199219 L 18.199219 18.199219 Z M 37.800781 2.800781 L 53.199219 2.800781 L 53.199219 18.199219 L 37.800781 18.199219 Z M 0 21 L 15.398438 21 L 15.398438 36.398438 L 0 36.398438 Z M 18.199219 21 L 35 21 L 35 36.398438 L 18.199219 36.398438 Z M 37.800781 21 L 53.199219 21 L 53.199219 36.398438 L 37.800781 36.398438 Z M 0 39.199219 L 15.398438 39.199219 L 15.398438 56 L 0 56 Z M 18.199219 39.199219 L 35 39.199219 L 35 56 L 18.199219 56 Z M 37.800781 39.199219 L 53.199219 39.199219 L 53.199219 56 L 37.800781 56 Z M 37.800781 39.199219 "/>
<path style=" stroke:none;fill-rule:nonzero;fill:rgb(255,255,255);fill-opacity:1;" d="M 43.132813 64.039063 C 43.050781 64.039063 42.972656 64.019531 42.90625 63.980469 L 28.257813 55.578125 C 28.121094 55.503906 28.03125 55.355469 28.035156 55.199219 L 28.035156 38.359375 C 28.035156 38.199219 28.121094 38.054688 28.257813 37.972656 C 28.398438 37.898438 28.566406 37.898438 28.707031 37.972656 L 43.347656 46.375 C 43.484375 46.453125 43.566406 46.601563 43.566406 46.757813 L 43.566406 63.597656 C 43.570313 63.753906 43.484375 63.902344 43.347656 63.980469 C 43.28125 64.019531 43.207031 64.039063 43.128906 64.039063 M 47.265625 64.121094 C 47.34375 64.121094 47.421875 64.101563 47.492188 64.0625 L 62.136719 55.660156 C 62.277344 55.585938 62.363281 55.4375 62.363281 55.277344 L 62.363281 38.4375 C 62.363281 38.277344 62.277344 38.128906 62.136719 38.050781 C 62 37.972656 61.832031 37.972656 61.691406 38.050781 L 47.046875 46.449219 C 46.910156 46.53125 46.828125 46.675781 46.828125 46.835938 L 46.828125 63.675781 C 46.828125 63.832031 46.910156 63.976563 47.046875 64.058594 C 47.113281 64.09375 47.191406 64.117188 47.265625 64.117188 "/>
<path style=" stroke:none;fill-rule:nonzero;fill:rgb(255,255,255);fill-opacity:1;" d="M 45.242188 69.050781 C 45.164063 69.050781 45.089844 69.027344 45.023438 68.988281 L 30.332031 60.566406 C 30.191406 60.488281 30.105469 60.339844 30.109375 60.183594 C 30.109375 60.023438 30.195313 59.878906 30.332031 59.804688 L 44.929688 51.4375 C 45.066406 51.363281 45.234375 51.363281 45.371094 51.4375 L 60.070313 59.863281 C 60.203125 59.941406 60.289063 60.085938 60.289063 60.242188 C 60.289063 60.398438 60.207031 60.546875 60.070313 60.625 L 45.464844 68.988281 C 45.398438 69.027344 45.320313 69.050781 45.242188 69.050781 "/>
<path style=" stroke:none;fill-rule:nonzero;fill:rgb(255,255,255);fill-opacity:1;" d="M 45.242188 57.398438 C 45.164063 57.398438 45.089844 57.378906 45.023438 57.335938 L 30.332031 48.921875 C 30.191406 48.84375 30.105469 48.695313 30.109375 48.535156 C 30.109375 48.378906 30.195313 48.234375 30.332031 48.15625 L 44.929688 39.789063 C 45.066406 39.714844 45.234375 39.714844 45.371094 39.789063 L 60.058594 48.214844 C 60.195313 48.292969 60.277344 48.4375 60.28125 48.59375 C 60.28125 48.753906 60.195313 48.898438 60.058594 48.980469 L 45.464844 57.339844 C 45.398438 57.382813 45.320313 57.402344 45.242188 57.402344 "/>
<path style=" stroke:none;fill-rule:nonzero;fill:rgb(57,171,255);fill-opacity:1;" d="M 43.132813 67.84375 C 43.050781 67.847656 42.972656 67.828125 42.90625 67.785156 L 28.257813 59.386719 C 28.121094 59.308594 28.03125 59.164063 28.035156 59.003906 L 28.035156 42.164063 C 28.035156 42.003906 28.121094 41.859375 28.257813 41.777344 C 28.398438 41.703125 28.566406 41.703125 28.707031 41.777344 L 43.347656 50.179688 C 43.484375 50.257813 43.566406 50.40625 43.566406 50.5625 L 43.566406 67.40625 C 43.570313 67.5625 43.484375 67.707031 43.347656 67.785156 C 43.28125 67.824219 43.207031 67.84375 43.128906 67.84375 M 47.273438 67.84375 C 47.195313 67.84375 47.117188 67.824219 47.050781 67.785156 C 46.914063 67.707031 46.828125 67.5625 46.828125 67.40625 L 46.828125 50.667969 C 46.832031 50.507813 46.914063 50.363281 47.050781 50.28125 L 61.691406 41.890625 C 61.832031 41.8125 62 41.8125 62.140625 41.890625 C 62.273438 41.96875 62.355469 42.113281 62.355469 42.273438 L 62.355469 59.007813 C 62.359375 59.164063 62.273438 59.3125 62.140625 59.390625 L 47.492188 67.789063 C 47.425781 67.832031 47.351563 67.851563 47.273438 67.847656 "/>
<use xlink:href="#surface5" mask="url(#mask0)"/>
<path style=" stroke:none;fill-rule:nonzero;fill:rgb(3,148,255);fill-opacity:1;" d="M 45.242188 47.378906 C 45.164063 47.378906 45.089844 47.355469 45.023438 47.316406 L 30.332031 38.894531 C 30.191406 38.816406 30.105469 38.667969 30.109375 38.507813 C 30.109375 38.351563 30.195313 38.207031 30.332031 38.128906 L 44.929688 29.765625 C 45.066406 29.6875 45.234375 29.6875 45.371094 29.765625 L 60.070313 38.1875 C 60.203125 38.265625 60.289063 38.410156 60.289063 38.566406 C 60.289063 38.726563 60.207031 38.871094 60.070313 38.953125 L 45.464844 47.320313 C 45.398438 47.359375 45.320313 47.382813 45.242188 47.382813 "/>
</g>
</svg>
