<?xml version="1.0" encoding="UTF-8"?>
<svg xmlns="http://www.w3.org/2000/svg" xmlns:xlink="http://www.w3.org/1999/xlink" width="70pt" height="70pt" viewBox="0 0 70 70" version="1.1">
<defs>
<linearGradient id="linear0" gradientUnits="userSpaceOnUse" x1="12.3" y1="0.49" x2="12.3" y2="17.33" gradientTransform="matrix(3.888889,0,0,3.888889,0,0)">
<stop offset="0" style="stop-color:rgb(41,164,255);stop-opacity:1;"/>
<stop offset="0.18" style="stop-color:rgb(31,159,255);stop-opacity:1;"/>
<stop offset="0.47" style="stop-color:rgb(1,147,255);stop-opacity:1;"/>
<stop offset="0.84" style="stop-color:rgb(0,120,210);stop-opacity:1;"/>
<stop offset="1" style="stop-color:rgb(0,108,188);stop-opacity:1;"/>
</linearGradient>
<linearGradient id="linear1" gradientUnits="userSpaceOnUse" x1="9.48" y1="17.51" x2="9.48" y2="9.35" gradientTransform="matrix(3.888889,0,0,3.888889,0,0)">
<stop offset="0" style="stop-color:rgb(0,124,216);stop-opacity:1;"/>
<stop offset="0" style="stop-color:rgb(0,124,216);stop-opacity:1;"/>
<stop offset="0.14" style="stop-color:rgb(3,148,255);stop-opacity:1;"/>
<stop offset="0.3" style="stop-color:rgb(37,162,255);stop-opacity:1;"/>
<stop offset="0.47" style="stop-color:rgb(61,172,255);stop-opacity:1;"/>
<stop offset="0.68" style="stop-color:rgb(73,177,255);stop-opacity:1;"/>
<stop offset="1" style="stop-color:rgb(79,180,255);stop-opacity:1;"/>
</linearGradient>
</defs>
<g id="surface1">
<path style=" stroke:none;fill-rule:nonzero;fill:url(#linear0);" d="M 64.867188 1.90625 L 30.800781 1.90625 C 29.589844 1.90625 28.605469 2.875 28.582031 4.082031 L 28.582031 52.617188 C 30.3125 51.167969 32.160156 49.867188 34.105469 48.726563 L 40.5625 48.726563 L 44.140625 53.472656 L 44.140625 60.667969 L 39.628906 63.933594 L 33.367188 63.15625 L 28.582031 58.644531 L 28.582031 65.214844 C 28.605469 66.425781 29.589844 67.394531 30.800781 67.394531 L 64.867188 67.394531 C 66.070313 67.394531 67.042969 66.417969 67.042969 65.214844 L 67.042969 4.082031 C 67.042969 2.878906 66.070313 1.90625 64.867188 1.90625 Z M 64.867188 1.90625 "/>
<path style=" stroke:none;fill-rule:nonzero;fill:rgb(229,243,255);fill-opacity:1;" d="M 33.679688 8.710938 L 39.9375 8.710938 C 40.238281 8.710938 40.484375 8.953125 40.484375 9.253906 L 40.484375 17.34375 C 40.484375 17.644531 40.238281 17.890625 39.9375 17.890625 L 33.679688 17.890625 C 33.378906 17.890625 33.132813 17.644531 33.132813 17.34375 L 33.132813 9.253906 C 33.132813 8.953125 33.378906 8.710938 33.679688 8.710938 Z M 44.683594 8.710938 L 50.945313 8.710938 C 51.246094 8.710938 51.488281 8.953125 51.488281 9.253906 L 51.488281 17.34375 C 51.488281 17.644531 51.246094 17.890625 50.945313 17.890625 L 44.683594 17.890625 C 44.382813 17.890625 44.140625 17.644531 44.140625 17.34375 L 44.140625 9.253906 C 44.140625 8.953125 44.382813 8.710938 44.683594 8.710938 Z M 55.726563 8.710938 L 61.988281 8.710938 C 62.289063 8.710938 62.535156 8.953125 62.535156 9.253906 L 62.535156 17.34375 C 62.535156 17.644531 62.289063 17.890625 61.988281 17.890625 L 55.726563 17.890625 C 55.425781 17.890625 55.183594 17.644531 55.183594 17.34375 L 55.183594 9.253906 C 55.183594 8.953125 55.425781 8.710938 55.726563 8.710938 Z M 33.679688 23.332031 L 39.9375 23.332031 C 40.238281 23.332031 40.484375 23.578125 40.484375 23.878906 L 40.484375 32.042969 C 40.484375 32.34375 40.238281 32.589844 39.9375 32.589844 L 33.679688 32.589844 C 33.378906 32.589844 33.132813 32.34375 33.132813 32.042969 L 33.132813 23.957031 C 33.109375 23.796875 33.15625 23.640625 33.261719 23.519531 C 33.367188 23.398438 33.519531 23.332031 33.679688 23.332031 Z M 44.683594 23.332031 L 50.945313 23.332031 C 51.246094 23.332031 51.488281 23.578125 51.488281 23.878906 L 51.488281 32.042969 C 51.488281 32.34375 51.246094 32.589844 50.945313 32.589844 L 44.683594 32.589844 C 44.382813 32.589844 44.140625 32.34375 44.140625 32.042969 L 44.140625 23.957031 C 44.117188 23.796875 44.164063 23.640625 44.269531 23.519531 C 44.371094 23.398438 44.523438 23.332031 44.683594 23.332031 Z M 55.726563 23.332031 L 61.988281 23.332031 C 62.289063 23.332031 62.535156 23.578125 62.535156 23.878906 L 62.535156 32.042969 C 62.535156 32.34375 62.289063 32.589844 61.988281 32.589844 L 55.726563 32.589844 C 55.425781 32.589844 55.183594 32.34375 55.183594 32.042969 L 55.183594 23.957031 C 55.160156 23.796875 55.207031 23.640625 55.3125 23.519531 C 55.417969 23.398438 55.570313 23.332031 55.726563 23.332031 Z M 33.679688 38.109375 L 39.9375 38.109375 C 40.238281 38.109375 40.484375 38.355469 40.484375 38.65625 L 40.484375 46.667969 C 40.484375 46.96875 40.238281 47.210938 39.9375 47.210938 L 33.679688 47.210938 C 33.378906 47.210938 33.132813 46.96875 33.132813 46.667969 L 33.132813 38.65625 C 33.132813 38.355469 33.378906 38.109375 33.679688 38.109375 Z M 44.683594 38.109375 L 50.945313 38.109375 C 51.246094 38.109375 51.488281 38.355469 51.488281 38.65625 L 51.488281 46.667969 C 51.488281 46.96875 51.246094 47.210938 50.945313 47.210938 L 44.683594 47.210938 C 44.382813 47.210938 44.140625 46.96875 44.140625 46.667969 L 44.140625 38.65625 C 44.140625 38.355469 44.382813 38.109375 44.683594 38.109375 Z M 44.683594 52.8125 L 50.945313 52.8125 C 51.246094 52.8125 51.488281 53.054688 51.488281 53.355469 L 51.488281 65.332031 C 51.488281 65.632813 51.246094 65.878906 50.945313 65.878906 L 44.683594 65.878906 C 44.382813 65.878906 44.140625 65.632813 44.140625 65.332031 L 44.140625 53.355469 C 44.140625 53.054688 44.382813 52.8125 44.683594 52.8125 Z M 55.726563 38.109375 L 61.988281 38.109375 C 62.289063 38.109375 62.535156 38.355469 62.535156 38.65625 L 62.535156 46.667969 C 62.535156 46.96875 62.289063 47.210938 61.988281 47.210938 L 55.726563 47.210938 C 55.425781 47.210938 55.183594 46.96875 55.183594 46.667969 L 55.183594 38.65625 C 55.183594 38.355469 55.425781 38.109375 55.726563 38.109375 Z M 55.726563 38.109375 "/>
<path style=" stroke:none;fill-rule:nonzero;fill:rgb(119,197,255);fill-opacity:1;" d="M 36.945313 50.554688 C 34.636719 50.601563 32.652344 52.199219 32.121094 54.445313 L 14.621094 54.445313 C 14.421875 55.273438 14.316406 56.121094 14.3125 56.972656 L 14.3125 57.207031 L 32.121094 57.207031 C 32.953125 59.613281 35.453125 61.015625 37.941406 60.472656 C 40.425781 59.925781 42.109375 57.605469 41.855469 55.070313 C 41.601563 52.535156 39.492188 50.597656 36.945313 50.554688 Z M 36.945313 50.554688 "/>
<path style=" stroke:none;fill-rule:nonzero;fill:url(#linear1);" d="M 50.554688 48.457031 C 50.242188 41.464844 44.324219 36.054688 37.332031 36.359375 C 31.804688 36.25 26.808594 39.652344 24.890625 44.839844 C 20.425781 45.441406 16.640625 48.417969 15.011719 52.617188 L 31.109375 52.617188 C 32.566406 49.621094 36 48.148438 39.171875 49.167969 C 42.34375 50.183594 44.28125 53.378906 43.722656 56.660156 C 43.164063 59.945313 40.273438 62.3125 36.945313 62.222656 C 34.382813 62.164063 32.074219 60.65625 30.996094 58.332031 L 14.582031 58.332031 C 16 63.976563 21.136719 67.882813 26.949219 67.746094 L 49.039063 67.746094 C 54.339844 67.699219 58.726563 63.617188 59.148438 58.332031 C 59.089844 53.378906 55.453125 49.199219 50.554688 48.457031 Z M 50.554688 48.457031 "/>
<path style=" stroke:none;fill-rule:nonzero;fill:rgb(119,197,255);fill-opacity:1;" d="M 36.945313 50.554688 C 34.636719 50.601563 32.652344 52.199219 32.121094 54.445313 L 14.621094 54.445313 C 14.007813 54.433594 13.394531 54.355469 12.792969 54.210938 C 8.765625 53.324219 5.851563 49.816406 5.714844 45.695313 C 5.765625 41.121094 9.21875 37.300781 13.765625 36.789063 L 14.621094 36.789063 L 14.894531 36.011719 C 16.316406 31.964844 20.171875 29.285156 24.460938 29.359375 C 28.082031 29.328125 31.449219 31.207031 33.328125 34.300781 C 34.28125 34.0625 35.261719 33.945313 36.246094 33.949219 C 34.097656 29.453125 29.558594 26.59375 24.578125 26.601563 C 19.40625 26.457031 14.65625 29.453125 12.5625 34.183594 C 7.046875 35.171875 3.015625 39.9375 2.957031 45.539063 C 3.0625 50.753906 6.621094 55.261719 11.667969 56.582031 C 12.574219 56.914063 13.539063 57.074219 14.503906 57.050781 L 32.121094 57.050781 C 32.878906 59.507813 35.375 60.996094 37.902344 60.492188 C 40.425781 59.988281 42.15625 57.652344 41.910156 55.089844 C 41.664063 52.53125 39.519531 50.570313 36.945313 50.554688 Z M 36.945313 50.554688 "/>
</g>
</svg>
