<?xml version="1.0" encoding="utf-8"?><svg version="1.1" xmlns="http://www.w3.org/2000/svg" xmlns:xlink="http://www.w3.org/1999/xlink" xmlns:xml="http://www.w3.org/XML/1998/namespace" width="70" height="70" viewBox="0, 0, 18, 18"><defs><linearGradient x1="6.49" y1="17.38" x2="6.49" y2="0.44" gradientUnits="userSpaceOnUse" id="fdd5d44a-d038-42da-afe7-cecaad9f8ff9"><stop offset="0%" stop-color="#29A4FF" /><stop offset="53%" stop-color="#45B0FF" /><stop offset="100%" stop-color="#67BEFF" /></linearGradient><linearGradient x1="10.06" y1="13.89" x2="16.48" y2="13.89" gradientUnits="userSpaceOnUse" id="bf4a560d-147b-4f76-9d70-f90bc5f8ddd6"><stop offset="0%" stop-color="#00518E" /><stop offset="7%" stop-color="#005696" /><stop offset="36%" stop-color="#0065B0" /><stop offset="52%" stop-color="#006CBC" /><stop offset="64%" stop-color="#0067B4" /><stop offset="82%" stop-color="#005FA6" /><stop offset="100%" stop-color="#00518E" /></linearGradient></defs><g id="a55981fb-ccb2-4f5b-acf6-743ff717cb3a"><g><path d="M11 9.57 a6.72 6.72 0 0 0 -2.23 0.32 a6.64 6.64 0 0 0 2.23 0.33 a6.56 6.56 0 0 0 2.23 -0.33 A6.63 6.63 0 0 0 11 9.57 Z" style="fill:#007CD8;" /><g><path d="M11.47 16.81 a0.57 0.57 0 0 1 -0.58 0.57 H2.09 a0.56 0.56 0 0 1 -0.57 -0.57 V1 A0.57 0.57 0 0 1 2.09 0.44 h8.8 a0.58 0.58 0 0 1 0.58 0.57 Z" style="fill:url(#fdd5d44a-d038-42da-afe7-cecaad9f8ff9);" /><path d="M3 6.38 A1.08 1.08 0 0 1 4.06 5.3 H9 a1.08 1.08 0 0 1 1.08 1.08 h0 A1.08 1.08 0 0 1 9 7.47 H4.06 A1.08 1.08 0 0 1 3 6.38 Z" style="fill:#002C4E;" /><path d="M3 3.17 A1.08 1.08 0 0 1 4.06 2.09 H9 a1.08 1.08 0 0 1 1.08 1.08 h0 A1.08 1.08 0 0 1 9 4.25 H4.06 A1.08 1.08 0 0 1 3 3.17 Z" style="fill:#002C4E;" /><circle cx="4.11" cy="3.17" r="0.73" style="fill:#77C5FF;" /><circle cx="4.11" cy="6.38" r="0.73" style="fill:#77C5FF;" /></g><path d="M13.27 11.38 c-1.77 0 -3.21 -0.53 -3.21 -1.17 V16.4 c0 0.63 1.42 1.15 3.17 1.16 h0 c1.78 0 3.21 -0.52 3.21 -1.16 V10.21 C16.48 10.85 15.05 11.38 13.27 11.38 Z" style="fill:url(#bf4a560d-147b-4f76-9d70-f90bc5f8ddd6);" /><path d="M16.48 10.21 c0 0.64 -1.43 1.17 -3.21 1.17 s-3.21 -0.53 -3.21 -1.17 s1.44 -1.16 3.21 -1.16 s3.21 0.52 3.21 1.16" style="fill:#CDE9FF;" /><path d="M15.73 10.12 c0 0.41 -1.1 0.74 -2.46 0.74 s-2.46 -0.33 -2.46 -0.74 s1.1 -0.74 2.46 -0.74 s2.46 0.33 2.46 0.74" style="fill:#77C5FF;" /><path d="M13.68 8.66 l2.13 -2.13 a0.11 0.11 0 0 0 -0.08 -0.19 H14.49 c0 -2.57 -1.37 -5.13 -3.84 -5.13 a6.68 6.68 0 0 1 2 5.13 H11.47 a0.11 0.11 0 0 0 -0.08 0.19 l2.13 2.13 A0.12 0.12 0 0 0 13.68 8.66 Z" style="fill:#77C5FF;" /></g></g></svg>