<?xml version="1.0" encoding="UTF-8"?>
<svg xmlns="http://www.w3.org/2000/svg" xmlns:xlink="http://www.w3.org/1999/xlink" width="70pt" height="70pt" viewBox="0 0 70 70" version="1.1">
<defs>
<linearGradient id="linear0" gradientUnits="userSpaceOnUse" x1="9" y1="17.39" x2="9" y2="0.61" gradientTransform="matrix(3.888889,0,0,3.888889,0,0)">
<stop offset="0" style="stop-color:rgb(0%,47.058824%,83.137255%);stop-opacity:1;"/>
<stop offset="0.82" style="stop-color:rgb(36.862745%,62.745098%,93.72549%);stop-opacity:1;"/>
</linearGradient>
</defs>
<g id="surface1">
<path style=" stroke:none;fill-rule:nonzero;fill:rgb(100%,100%,100%);fill-opacity:1;" d="M 38.890625 2.839844 L 10.929688 2.839844 C 9.703125 2.839844 8.710938 3.832031 8.710938 5.054688 L 8.710938 64.945313 C 8.710938 66.167969 9.703125 67.160156 10.929688 67.160156 L 59.070313 67.160156 C 60.296875 67.160156 61.289063 66.167969 61.289063 64.945313 L 61.289063 25.316406 C 61.289063 24.09375 60.296875 23.101563 59.070313 23.101563 L 43.089844 23.101563 C 41.886719 23.101563 40.910156 22.125 40.910156 20.921875 L 40.910156 5.054688 C 40.933594 3.894531 40.046875 2.921875 38.890625 2.839844 Z M 38.890625 2.839844 "/>
<path style=" stroke:none;fill-rule:nonzero;fill:url(#linear0);" d="M 37.683594 5.640625 L 37.683594 20.6875 C 37.683594 23.738281 40.15625 26.210938 43.207031 26.210938 L 58.332031 26.210938 L 58.332031 64.359375 L 11.667969 64.359375 L 11.667969 5.640625 L 37.722656 5.640625 M 38.890625 2.371094 L 10.578125 2.371094 C 9.984375 2.363281 9.410156 2.589844 8.984375 3.007813 C 8.5625 3.425781 8.320313 3.996094 8.320313 4.589844 L 8.320313 65.410156 C 8.320313 66.003906 8.5625 66.574219 8.984375 66.992188 C 9.410156 67.410156 9.984375 67.636719 10.578125 67.628906 L 59.421875 67.628906 C 60.015625 67.636719 60.589844 67.410156 61.015625 66.992188 C 61.4375 66.574219 61.679688 66.003906 61.679688 65.410156 L 61.679688 25.160156 C 61.679688 24.566406 61.4375 23.996094 61.015625 23.578125 C 60.589844 23.164063 60.015625 22.933594 59.421875 22.945313 L 43.207031 22.945313 C 42.609375 22.945313 42.042969 22.707031 41.625 22.28125 C 41.207031 21.855469 40.976563 21.285156 40.988281 20.6875 L 40.988281 4.589844 C 40.992188 3.410156 40.066406 2.433594 38.890625 2.371094 Z M 38.890625 2.371094 "/>
<path style=" stroke:none;fill-rule:nonzero;fill:rgb(0%,47.058824%,83.137255%);fill-opacity:1;" d="M 60.820313 23.332031 L 40.210938 2.839844 L 40.210938 19.445313 C 40.210938 21.59375 41.953125 23.332031 44.101563 23.332031 Z M 60.820313 23.332031 "/>
<path style=" stroke:none;fill-rule:nonzero;fill:rgb(51.372549%,72.54902%,97.647059%);fill-opacity:1;" d="M 51.566406 33.015625 L 27.222656 33.015625 C 26.339844 33.015625 25.628906 33.730469 25.628906 34.609375 C 25.628906 35.492188 26.339844 36.207031 27.222656 36.207031 L 51.722656 36.207031 C 52.601563 36.207031 53.316406 35.492188 53.316406 34.609375 C 53.316406 33.730469 52.601563 33.015625 51.722656 33.015625 Z M 51.566406 42.503906 L 27.222656 42.503906 C 26.601563 42.40625 25.980469 42.683594 25.636719 43.210938 C 25.292969 43.742188 25.292969 44.421875 25.636719 44.949219 C 25.980469 45.476563 26.601563 45.753906 27.222656 45.65625 L 51.722656 45.65625 C 52.34375 45.753906 52.964844 45.476563 53.308594 44.949219 C 53.652344 44.421875 53.652344 43.742188 53.308594 43.210938 C 52.964844 42.683594 52.34375 42.40625 51.722656 42.503906 Z M 51.566406 52.035156 L 27.222656 52.035156 C 26.339844 52.035156 25.628906 52.746094 25.628906 53.628906 C 25.628906 54.507813 26.339844 55.222656 27.222656 55.222656 L 51.722656 55.222656 C 52.601563 55.222656 53.316406 54.507813 53.316406 53.628906 C 53.316406 52.746094 52.601563 52.035156 51.722656 52.035156 Z M 51.566406 52.035156 "/>
<path style=" stroke:none;fill-rule:nonzero;fill:rgb(0%,47.058824%,83.137255%);fill-opacity:1;" d="M 18.628906 37.800781 L 18.628906 32.667969 C 18.398438 32.796875 18.148438 32.890625 17.890625 32.9375 L 17.035156 33.171875 L 17.035156 31.578125 C 17.445313 31.453125 17.847656 31.296875 18.238281 31.109375 C 18.664063 30.984375 19.070313 30.800781 19.445313 30.566406 L 20.6875 30.566406 L 20.6875 37.800781 Z M 17.109375 47.910156 L 17.109375 47.328125 C 17.066406 46.992188 17.066406 46.652344 17.109375 46.316406 C 17.238281 46.023438 17.382813 45.738281 17.539063 45.460938 C 17.867188 45.085938 18.230469 44.75 18.628906 44.449219 C 18.933594 44.273438 19.207031 44.050781 19.445313 43.789063 C 19.445313 43.789063 19.445313 43.515625 19.714844 43.4375 C 19.773438 43.300781 19.773438 43.148438 19.714844 43.011719 C 19.714844 42.503906 19.445313 42.273438 18.859375 42.273438 C 18.242188 42.289063 17.648438 42.523438 17.1875 42.933594 L 17.1875 41.183594 C 17.53125 40.992188 17.898438 40.847656 18.277344 40.753906 C 18.640625 40.714844 19.003906 40.714844 19.367188 40.753906 C 20.011719 40.730469 20.648438 40.9375 21.15625 41.339844 C 21.585938 41.722656 21.828125 42.277344 21.816406 42.855469 C 21.804688 43.316406 21.6875 43.769531 21.464844 44.179688 C 21.125 44.613281 20.699219 44.984375 20.222656 45.265625 L 19.445313 45.734375 C 19.324219 45.832031 19.242188 45.96875 19.210938 46.121094 L 22.050781 46.121094 L 22.050781 47.753906 Z M 21.933594 56 C 21.992188 56.625 21.710938 57.234375 21.195313 57.59375 C 20.582031 57.996094 19.863281 58.199219 19.132813 58.179688 C 18.796875 58.21875 18.457031 58.21875 18.121094 58.179688 L 17.226563 57.90625 L 17.226563 56.234375 C 17.453125 56.375 17.703125 56.46875 17.964844 56.503906 C 18.25 56.550781 18.539063 56.550781 18.820313 56.503906 C 19.09375 56.554688 19.367188 56.554688 19.640625 56.503906 C 19.792969 56.378906 19.890625 56.199219 19.910156 56 C 19.917969 55.71875 19.71875 55.472656 19.445313 55.417969 C 19.140625 55.3125 18.828125 55.25 18.511719 55.222656 L 17.964844 55.222656 L 17.964844 53.707031 L 18.550781 53.707031 C 18.867188 53.753906 19.191406 53.667969 19.445313 53.472656 C 19.640625 53.386719 19.753906 53.175781 19.714844 52.964844 C 19.714844 52.964844 19.714844 52.617188 19.714844 52.539063 C 19.714844 52.460938 19.367188 52.539063 19.054688 52.539063 C 18.578125 52.558594 18.109375 52.691406 17.695313 52.929688 L 17.695313 51.332031 C 18.261719 51.089844 18.867188 50.957031 19.484375 50.945313 C 20.15625 50.90625 20.824219 51.082031 21.390625 51.449219 C 21.816406 51.75 22.050781 52.253906 22.011719 52.773438 C 22.019531 53.164063 21.894531 53.546875 21.660156 53.859375 C 21.402344 54.164063 21.042969 54.371094 20.648438 54.445313 C 21.101563 54.46875 21.527344 54.679688 21.816406 55.027344 C 21.925781 55.339844 21.964844 55.671875 21.933594 56 Z M 21.933594 56 "/>
</g>
</svg>
