<?xml version="1.0" encoding="utf-8"?><svg version="1.1" xmlns="http://www.w3.org/2000/svg" xmlns:xlink="http://www.w3.org/1999/xlink" xmlns:xml="http://www.w3.org/XML/1998/namespace" width="70" height="70" viewBox="0, 0, 18, 18"><defs><linearGradient x1="6.01" y1="17.69" x2="6.01" y2="0.26" gradientUnits="userSpaceOnUse" id="b756f194-f0ab-4baf-9a5b-c24373260298"><stop offset="0%" stop-color="#29A4FF" /><stop offset="53%" stop-color="#45B0FF" /><stop offset="100%" stop-color="#67BEFF" /></linearGradient><linearGradient x1="10.55" y1="853.33" x2="15" y2="858.17" gradientUnits="userSpaceOnUse" gradientTransform="translate(0, -1351.46) scale(1, 1.59)" id="b4a51a97-50dd-4686-924a-188a97007e56"><stop offset="0%" stop-color="#006CBC" /><stop offset="2%" stop-color="#0075CC" /><stop offset="8%" stop-color="#0087EC" /><stop offset="15%" stop-color="#0996FF" /><stop offset="22%" stop-color="#1B9EFF" /><stop offset="29%" stop-color="#27A3FF" /><stop offset="40%" stop-color="#29A4FF" /><stop offset="55%" stop-color="#27A3FF" /><stop offset="68%" stop-color="#199DFF" /><stop offset="80%" stop-color="#0594FF" /><stop offset="91%" stop-color="#0085E8" /><stop offset="99%" stop-color="#0077D0" /></linearGradient></defs><g id="a5e70dc5-b1f0-464a-b150-2d065854bc52"><g><g><path d="M11.13 17.1 a0.6 0.6 0 0 1 -0.59 0.59 H1.48 a0.59 0.59 0 0 1 -0.59 -0.59 V0.85 A0.58 0.58 0 0 1 1.48 0.26 h9.06 a0.59 0.59 0 0 1 0.59 0.59 Z" style="fill:url(#b756f194-f0ab-4baf-9a5b-c24373260298);" /><path d="M2.39 6.37 A1.12 1.12 0 0 1 3.51 5.26 H8.6 A1.11 1.11 0 0 1 9.71 6.37 h0 A1.11 1.11 0 0 1 8.6 7.49 H3.51 A1.12 1.12 0 0 1 2.39 6.37 Z" style="fill:#002C4E;" /><path d="M2.39 3.07 A1.11 1.11 0 0 1 3.51 2 H8.6 A1.1 1.1 0 0 1 9.71 3.07 h0 A1.11 1.11 0 0 1 8.6 4.18 H3.51 A1.12 1.12 0 0 1 2.39 3.07 Z" style="fill:#002C4E;" /><circle cx="3.55" cy="3.07" r="0.75" style="fill:#77C5FF;" /><circle cx="3.55" cy="6.37" r="0.75" style="fill:#77C5FF;" /></g><ellipse cx="12.62" cy="14.91" rx="4.49" ry="1.84" style="fill:#2FA6FF;" /><ellipse cx="12.73" cy="14.89" rx="1.49" ry="0.41" style="fill:#008AF0;" /><ellipse cx="12.62" cy="10.82" rx="4.49" ry="1.84" style="fill:url(#b4a51a97-50dd-4686-924a-188a97007e56);" /><ellipse cx="12.73" cy="10.8" rx="1.49" ry="0.41" style="fill:#00518E;" /><path d="M12.62 16.72 c2.48 0 4.49 -0.83 4.49 -1.85 h0 V16 h0 c-0.09 1 -2.06 1.78 -4.49 1.78 s-4.49 -0.82 -4.49 -1.84 v-1 C8.13 15.89 10.14 16.72 12.62 16.72 Z" style="fill:#008AF0;" /><path d="M12.62 12.62 c2.48 0 4.49 -0.82 4.49 -1.84 h0 v1.09 h0 c-0.09 1 -2.06 1.78 -4.49 1.78 s-4.49 -0.83 -4.49 -1.85 v-1 C8.13 11.8 10.14 12.62 12.62 12.62 Z" style="fill:#006CBC;" /></g></g></svg>