<?xml version="1.0" encoding="utf-8"?><svg version="1.1" xmlns="http://www.w3.org/2000/svg" xmlns:xlink="http://www.w3.org/1999/xlink" xmlns:xml="http://www.w3.org/XML/1998/namespace" width="70" height="70" viewBox="0, 0, 18, 18"><defs><linearGradient x1="13.41" y1="14.43" x2="7" y2="3.72" gradientUnits="userSpaceOnUse" id="b712480a-5aa7-43a4-9b55-efd538090944"><stop offset="0%" stop-color="#006CBC" /><stop offset="16%" stop-color="#0078D2" /><stop offset="53%" stop-color="#0193FF" /><stop offset="82%" stop-color="#1F9FFF" /><stop offset="100%" stop-color="#29A4FF" /></linearGradient></defs><title>Icon-azurestack-3</title><g id="b7d1e9ae-8ff7-48ce-9f16-5d1c2725c60e"><g><path d="M17.33 3.09 L15 0.81 a0.61 0.61 0 0 0 -0.42 -0.17 L10.36 0.8 A0.53 0.53 0 0 0 10 1 L0.67 10.22 a0.55 0.55 0 0 0 0 0.8 l6.2 6.17 a0.57 0.57 0 0 0 0.8 0 L17 7.92 a0.53 0.53 0 0 0 0.17 -0.35 l0.34 -4 A0.58 0.58 0 0 0 17.33 3.09 Z M14.56 4.6 a1 1 0 1 1 1 -1 A1 1 0 0 1 14.56 4.6 Z" style="fill:url(#b712480a-5aa7-43a4-9b55-efd538090944);" /><path d="M14.56 1.72 a1.85 1.85 0 1 0 1.86 1.85 A1.85 1.85 0 0 0 14.56 1.72 Z m1 2.05 a1 1 0 0 1 -2 -0.4 a1 1 0 0 1 0.81 -0.81 A1 1 0 0 1 15.58 3.77 Z" style="fill:#00518E;" /><path d="M9.74 5.21 l-0.38 -0.38 L9 5.21 l-0.49 -0.49 l0.84 -0.87 l0.87 0.87 Z M5.13 9.05 l-0.49 -0.49 L5.72 7.48 L6 7.73 l-0.25 -0.25 L6.21 8 Z M7.65 5.57 l0.49 0.5 L7.08 7.13 l-0.49 -0.49 Z M3.8 11.15 l-0.87 -0.87 l0.87 -0.84 l0.49 0.49 l-0.38 0.35 l0.38 0.38 Z m1.4 0.42 l1.16 1.17 l-0.5 0.49 L4.7 12.07 Z M7.64 15 l-0.87 -0.87 l0.53 -0.49 l0.34 0.35 L8 13.67 l0.49 0.49 Z M10 11.73 l0.5 0.49 L9.39 13.28 l-0.49 -0.49 Z m1.35 -0.37 l-0.52 -0.49 l1.08 -1.08 l0.49 0.49 l-1 1.08 l-0.24 -0.24 Z m1.93 -1.92 L12.75 9 Z m0 0 L12.75 9 l0.35 -0.39 l-0.35 -0.34 l0.49 -0.53 l0.87 0.87 Z M11.16 5.65 l1.16 1.16 l-0.5 0.5 L10.66 6.15 Z" style="fill:white;" /></g></g></svg>