<?xml version="1.0" encoding="utf-8"?><svg version="1.1" xmlns="http://www.w3.org/2000/svg" xmlns:xlink="http://www.w3.org/1999/xlink" xmlns:xml="http://www.w3.org/XML/1998/namespace" width="70" height="70" viewBox="0, 0, 18, 18"><defs><linearGradient x1="6.234" y1="5.679" x2="6.234" y2="16.03" gradientUnits="userSpaceOnUse" id="e94fd5a6-4ada-41a5-97db-ab7076cce3b5"><stop offset="22.7%" stop-color="#29A4FF" /><stop offset="100%" stop-color="#006CBC" /></linearGradient><linearGradient x1="5.972" y1="0.13" x2="6.727" y2="9.529" gradientUnits="userSpaceOnUse" id="b4c9f14c-cd88-421f-a4fa-7e7c86ef7ab6"><stop offset="22.5%" stop-color="#29A4FF" /><stop offset="100%" stop-color="#006CBC" /></linearGradient><linearGradient x1="9.128" y1="13.552" x2="18" y2="13.552" gradientUnits="userSpaceOnUse" id="b9e0f377-f52d-4b6f-89b8-6bbad397e26a"><stop offset="0%" stop-color="#007FDE" /><stop offset="90%" stop-color="#35A9FF" /></linearGradient></defs><g id="bdbb9a60-650f-4841-b656-90ae680b08db"><g><g><path d="M16.312 11.946 a0.74 0.74 0 0 0 0.742 -0.738 a0.532 0.532 0 0 0 0 -0.089 C16.758 8.792 15.431 6.9 12.9 6.9 c-2.577 0 -3.907 1.605 -4.166 4.228 a0.745 0.745 0 0 0 0.664 0.817 a0.628 0.628 0 0 0 0.075 0 Z" style="fill:#006CBC;" /><circle cx="12.898" cy="5.114" r="2.335" style="fill:#006CBC;" /><path d="M11.355 14.162 a1.109 1.109 0 0 0 1.112 -1.105 a1 1 0 0 0 -0.008 -0.134 C12.024 9.439 10.036 6.6 6.243 6.6 C2.385 6.6 0.394 9 0.006 12.933 A1.115 1.115 0 0 0 1 14.156 a1.051 1.051 0 0 0 0.112 0.006 Z" style="fill:url(#e94fd5a6-4ada-41a5-97db-ab7076cce3b5);" /><path d="M6.3 7.428 A3.481 3.481 0 0 1 4.41 6.871 l1.874 4.895 L8.144 6.9 A3.468 3.468 0 0 1 6.3 7.428 Z" opacity="0.8" style="fill:white;" /><circle cx="6.277" cy="3.932" r="3.496" style="fill:url(#b4c9f14c-cd88-421f-a4fa-7e7c86ef7ab6);" /></g><polygon points="13.564,9.54 9.128,15.751 13.564,17.564 18,15.751 13.564,9.54" style="fill:url(#b9e0f377-f52d-4b6f-89b8-6bbad397e26a);" /><polygon points="13.564,9.54 9.128,15.751 13.564,17.564 13.564,9.54" style="fill:#77C5FF;" /></g></g></svg>