<?xml version="1.0" encoding="utf-8"?><svg version="1.1" xmlns="http://www.w3.org/2000/svg" xmlns:xlink="http://www.w3.org/1999/xlink" xmlns:xml="http://www.w3.org/XML/1998/namespace" width="70" height="70" viewBox="0, 0, 18, 18"><defs><linearGradient x1="12.3" y1="0.49" x2="12.3" y2="17.33" gradientUnits="userSpaceOnUse" id="f88be120-e228-4e82-b7ea-9cc753ab1741"><stop offset="0%" stop-color="#29A4FF" /><stop offset="18%" stop-color="#1F9FFF" /><stop offset="47%" stop-color="#0193FF" /><stop offset="84%" stop-color="#0078D2" /><stop offset="100%" stop-color="#006CBC" /></linearGradient><linearGradient x1="9.48" y1="17.51" x2="9.48" y2="9.35" gradientUnits="userSpaceOnUse" id="ba0a489b-e6fc-478b-a844-ae016f2be8bf"><stop offset="0%" stop-color="#007CD8" /><stop offset="0%" stop-color="#007CD8" /><stop offset="14%" stop-color="#0394FF" /><stop offset="30%" stop-color="#25A2FF" /><stop offset="47%" stop-color="#3DACFF" /><stop offset="68%" stop-color="#49B1FF" /><stop offset="100%" stop-color="#4FB4FF" /></linearGradient></defs><g id="b1186d34-5ca3-4e43-992d-40ecef5e891b"><g><path d="M16.68 0.49 H7.92 a0.57 0.57 0 0 0 -0.57 0.56 V13.53 a10.47 10.47 0 0 1 1.42 -1 h1.66 l0.92 1.22 V15.6 l-1.16 0.84 l-1.61 -0.2 L7.35 15.08 v1.69 a0.57 0.57 0 0 0 0.57 0.56 h8.76 a0.56 0.56 0 0 0 0.56 -0.56 V1.05 A0.56 0.56 0 0 0 16.68 0.49 Z" style="fill:url(#f88be120-e228-4e82-b7ea-9cc753ab1741);" /><path d="M8.66 2.24 h1.61 a0.14 0.14 0 0 1 0.14 0.14 V4.46 a0.14 0.14 0 0 1 -0.14 0.14 H8.66 a0.14 0.14 0 0 1 -0.14 -0.14 V2.38 A0.14 0.14 0 0 1 8.66 2.24 Z m2.83 0 H13.1 a0.14 0.14 0 0 1 0.14 0.14 V4.46 a0.14 0.14 0 0 1 -0.14 0.14 H11.49 a0.14 0.14 0 0 1 -0.14 -0.14 V2.38 A0.14 0.14 0 0 1 11.49 2.24 Z m2.84 0 h1.61 a0.14 0.14 0 0 1 0.14 0.14 V4.46 a0.14 0.14 0 0 1 -0.14 0.14 H14.33 a0.14 0.14 0 0 1 -0.14 -0.14 V2.38 A0.14 0.14 0 0 1 14.33 2.24 Z M8.66 6 h1.61 a0.14 0.14 0 0 1 0.14 0.14 V8.24 a0.14 0.14 0 0 1 -0.14 0.14 H8.66 a0.14 0.14 0 0 1 -0.14 -0.14 V6.16 A0.14 0.14 0 0 1 8.66 6 Z m2.83 0 H13.1 a0.14 0.14 0 0 1 0.14 0.14 V8.24 a0.14 0.14 0 0 1 -0.14 0.14 H11.49 a0.14 0.14 0 0 1 -0.14 -0.14 V6.16 A0.14 0.14 0 0 1 11.49 6 Z m2.84 0 h1.61 a0.14 0.14 0 0 1 0.14 0.14 V8.24 a0.14 0.14 0 0 1 -0.14 0.14 H14.33 a0.14 0.14 0 0 1 -0.14 -0.14 V6.16 A0.14 0.14 0 0 1 14.33 6 Z M8.66 9.8 h1.61 a0.14 0.14 0 0 1 0.14 0.14 V12 a0.14 0.14 0 0 1 -0.14 0.14 H8.66 A0.14 0.14 0 0 1 8.52 12 V9.94 A0.14 0.14 0 0 1 8.66 9.8 Z m2.83 0 H13.1 a0.14 0.14 0 0 1 0.14 0.14 V12 a0.14 0.14 0 0 1 -0.14 0.14 H11.49 a0.14 0.14 0 0 1 -0.14 -0.14 V9.94 A0.14 0.14 0 0 1 11.49 9.8 Z m0 3.78 H13.1 a0.14 0.14 0 0 1 0.14 0.14 V16.8 a0.14 0.14 0 0 1 -0.14 0.14 H11.49 a0.14 0.14 0 0 1 -0.14 -0.14 V13.72 A0.14 0.14 0 0 1 11.49 13.58 Z M14.33 9.8 h1.61 a0.14 0.14 0 0 1 0.14 0.14 V12 a0.14 0.14 0 0 1 -0.14 0.14 H14.33 a0.14 0.14 0 0 1 -0.14 -0.14 V9.94 A0.14 0.14 0 0 1 14.33 9.8 Z" id="af47f827-8b1b-4acd-8974-8eafe35490c9" style="fill:#E5F3FF;" /><path d="M9.5 13 A1.3 1.3 0 0 0 8.26 14 H3.76 a2.82 2.82 0 0 0 -0.08 0.65 v0.06 H8.26 A1.29 1.29 0 1 0 9.5 13 Z" style="fill:#77C5FF;" /><path d="M13 12.46 A3.26 3.26 0 0 0 9.6 9.35 a3.34 3.34 0 0 0 -3.2 2.18 a3.18 3.18 0 0 0 -2.54 2 H8 A1.72 1.72 0 1 1 9.5 16 a1.73 1.73 0 0 1 -1.53 -1 H3.75 a3.2 3.2 0 0 0 3.18 2.42 h5.54 l0.14 0 A2.63 2.63 0 0 0 15.21 15 A2.6 2.6 0 0 0 13 12.46 Z" style="fill:url(#ba0a489b-e6fc-478b-a844-ae016f2be8bf);" /><path d="M9.5 13 A1.3 1.3 0 0 0 8.26 14 H3.76 a2.22 2.22 0 0 1 -0.47 -0.06 a2.32 2.32 0 0 1 -1.82 -2.19 A2.33 2.33 0 0 1 3.54 9.46 l0.22 0 l0.07 -0.2 A2.56 2.56 0 0 1 6.29 7.55 A2.64 2.64 0 0 1 8.57 8.82 a3.08 3.08 0 0 1 0.75 -0.09 a3.32 3.32 0 0 0 -3 -1.89 A3.28 3.28 0 0 0 3.23 8.79 A3 3 0 0 0 0.76 11.71 A3 3 0 0 0 3 14.55 H3 a2 2 0 0 0 0.73 0.12 H8.26 A1.29 1.29 0 1 0 9.5 13 Z" style="fill:#77C5FF;" /></g></g></svg>