<?xml version="1.0" encoding="utf-8"?><svg version="1.1" xmlns="http://www.w3.org/2000/svg" xmlns:xlink="http://www.w3.org/1999/xlink" xmlns:xml="http://www.w3.org/XML/1998/namespace" width="70" height="70" viewBox="0, 0, 18, 18"><defs><linearGradient x1="9" y1="17.39" x2="9" y2="0.61" gradientUnits="userSpaceOnUse" id="e12305c3-c719-4f7f-b079-f68282b70e18"><stop offset="0%" stop-color="#0078D4" /><stop offset="82%" stop-color="#5EA0EF" /></linearGradient></defs><title>Icon-azurestack-6</title><g id="fd3ce364-0de3-4a49-9ae3-702f411d286b"><g><g><path d="M10 0.73 H2.81 a0.57 0.57 0 0 0 -0.57 0.57 V16.7 a0.57 0.57 0 0 0 0.57 0.57 H15.19 a0.57 0.57 0 0 0 0.57 -0.57 V6.51 a0.57 0.57 0 0 0 -0.57 -0.57 H11.08 a0.56 0.56 0 0 1 -0.56 -0.56 V1.3 A0.56 0.56 0 0 0 10 0.73 Z" style="fill:white;" /><path d="M9.69 1.45 V5.32 a1.42 1.42 0 0 0 1.42 1.42 H15 v9.81 H3 V1.45 h6.7 M10 0.61 H2.72 a0.57 0.57 0 0 0 -0.58 0.57 V16.82 a0.57 0.57 0 0 0 0.58 0.57 H15.28 a0.57 0.57 0 0 0 0.58 -0.57 V6.47 a0.57 0.57 0 0 0 -0.58 -0.57 H11.11 a0.57 0.57 0 0 1 -0.57 -0.58 V1.18 A0.57 0.57 0 0 0 10 0.61 Z" style="fill:url(#e12305c3-c719-4f7f-b079-f68282b70e18);" /><path d="M15.64 6 L10.34 0.73 V5 a1 1 0 0 0 1 1 Z" style="fill:#0078D4;" /></g><path d="M13.26 8.49 H7 a0.41 0.41 0 1 0 0 0.82 h6.3 a0.41 0.41 0 0 0 0 -0.82 Z m0 2.44 H7 a0.41 0.41 0 1 0 0 0.81 h6.3 a0.41 0.41 0 1 0 0 -0.81 Z m0 2.45 H7 a0.41 0.41 0 0 0 0 0.82 h6.3 a0.41 0.41 0 1 0 0 -0.82 Z" style="fill:#83B9F9;" /><path d="M4.79 9.72 V8.4 a0.62 0.62 0 0 1 -0.19 0.07 l-0.22 0.06 V8.12 A2.29 2.29 0 0 0 4.69 8 A1.28 1.28 0 0 0 5 7.86 h0.32 V9.72 Z m-0.39 2.6 v-0.15 a1 1 0 0 1 0 -0.26 a2.26 2.26 0 0 1 0.11 -0.22 a1.86 1.86 0 0 1 0.28 -0.26 A0.87 0.87 0 0 0 5 11.26 s0 -0.07 0.07 -0.09 a0.14 0.14 0 0 0 0 -0.11 c0 -0.13 -0.07 -0.19 -0.22 -0.19 a0.67 0.67 0 0 0 -0.43 0.17 v-0.45 a1.08 1.08 0 0 1 0.28 -0.11 a1.26 1.26 0 0 1 0.28 0 a0.7 0.7 0 0 1 0.46 0.15 a0.51 0.51 0 0 1 0.17 0.39 a0.75 0.75 0 0 1 -0.09 0.34 a1.15 1.15 0 0 1 -0.32 0.28 L5 11.76 a0.18 0.18 0 0 0 -0.06 0.1 h0.73 v0.42 Z M5.64 14.4 a0.45 0.45 0 0 1 -0.19 0.41 a0.92 0.92 0 0 1 -0.53 0.15 a1.1 1.1 0 0 1 -0.26 0 l-0.23 -0.07 v-0.43 a0.49 0.49 0 0 0 0.19 0.07 a0.72 0.72 0 0 0 0.22 0 a0.6 0.6 0 0 0 0.21 0 a0.19 0.19 0 0 0 0.07 -0.13 A0.15 0.15 0 0 0 5 14.25 a1 1 0 0 0 -0.24 -0.05 H4.62 v-0.39 h0.15 A0.3 0.3 0 0 0 5 13.75 a0.12 0.12 0 0 0 0.07 -0.13 s0 -0.09 0 -0.11 s-0.09 0 -0.17 0 a0.78 0.78 0 0 0 -0.35 0.1 v-0.41 a1.23 1.23 0 0 1 0.46 -0.1 a0.81 0.81 0 0 1 0.49 0.13 a0.38 0.38 0 0 1 0.16 0.34 a0.45 0.45 0 0 1 -0.09 0.28 a0.45 0.45 0 0 1 -0.26 0.15 a0.42 0.42 0 0 1 0.3 0.15 A0.58 0.58 0 0 1 5.64 14.4 Z" style="fill:#0078D4;" /></g></g></svg>