<?xml version="1.0" encoding="utf-8"?><svg version="1.1" xmlns="http://www.w3.org/2000/svg" xmlns:xlink="http://www.w3.org/1999/xlink" xmlns:xml="http://www.w3.org/XML/1998/namespace" width="70" height="70" viewBox="0, 0, 18, 18"><defs><linearGradient x1="7.89" y1="6.9" x2="7.89" y2="19.35" gradientUnits="userSpaceOnUse" id="b0670cdb-9407-42e5-ae8f-f3558902da1a"><stop offset="22%" stop-color="#32D4F5" /><stop offset="100%" stop-color="#198AB3" /></linearGradient><linearGradient x1="7.53" y1="0.22" x2="8.44" y2="11.53" gradientUnits="userSpaceOnUse" id="fd04ffc0-49c3-4a18-9b27-999b23712bcb"><stop offset="22%" stop-color="#32D4F5" /><stop offset="100%" stop-color="#198AB3" /></linearGradient><radialGradient cx="-19.24" cy="6.51" r="6.13" gradientUnits="userSpaceOnUse" gradientTransform="matrix(0.94, 0.01, -0.01, 0.94, 32.03, 6.26)" id="aa3ecbb1-1061-42c8-aaf2-d5c01a3fcfd9"><stop offset="27%" stop-color="#FFD70F" /><stop offset="100%" stop-color="#FEA11B" /></radialGradient></defs><g id="b245b541-7d80-40be-a5d7-51667bcba1b3"><g><g><path d="M14.05 17.11 a1.34 1.34 0 0 0 1.34 -1.33 a0.81 0.81 0 0 0 0 -0.16 C14.86 11.42 12.47 8 7.9 8 S0.86 10.9 0.4 15.63 A1.34 1.34 0 0 0 1.59 17.1 H14.05 Z" style="fill:url(#b0670cdb-9407-42e5-ae8f-f3558902da1a);" /><path d="M7.9 9 a4.09 4.09 0 0 1 -2.27 -0.67 l2.25 5.89 l2.24 -5.85 A4.17 4.17 0 0 1 7.9 9 Z" opacity="0.8" style="fill:white;" /><circle cx="7.9" cy="4.8" r="4.21" style="fill:url(#fd04ffc0-49c3-4a18-9b27-999b23712bcb);" /></g><g><path d="M17.27 11.45 a1.13 1.13 0 0 0 0 -1.6 h0 l-1.94 -2 a1.12 1.12 0 0 0 -1.6 0 h0 l-2 1.94 a1.14 1.14 0 0 0 0 1.61 l1.61 1.64 a0.31 0.31 0 0 1 0.09 0.22 l0 3 a0.36 0.36 0 0 0 0.12 0.28 l0.73 0.75 a0.27 0.27 0 0 0 0.37 0 l0.72 -0.72 h0 l0.42 -0.43 a0.14 0.14 0 0 0 0 -0.2 l-0.31 -0.31 a0.17 0.17 0 0 1 0 -0.23 l0.31 -0.31 a0.13 0.13 0 0 0 0 -0.2 l-0.3 -0.31 a0.17 0.17 0 0 1 0 -0.23 l0.31 -0.31 a0.14 0.14 0 0 0 0 -0.2 l-0.42 -0.43 V13.3 Z M14.54 8.34 a0.66 0.66 0 0 1 0.64 0.65 a0.63 0.63 0 0 1 -0.65 0.64 a0.65 0.65 0 0 1 0 -1.29 Z" id="f2ddd4d7-46fc-4e48-ae24-8fde036c39bb" style="fill:url(#aa3ecbb1-1061-42c8-aaf2-d5c01a3fcfd9);" /><path d="M14 16.38 h0 a0.14 0.14 0 0 0 0.24 -0.1 V13.83 a0.16 0.16 0 0 0 -0.06 -0.13 h0 a0.14 0.14 0 0 0 -0.22 0.12 v2.46 A0.13 0.13 0 0 0 14 16.38 Z" id="e15034b6-eebb-4253-ac69-86068a1d4276" opacity="0.75" style="fill:#FF9300;" /><rect x="14.38" y="9.07" width="0.38" height="3.21" rx="0.17" transform="translate(3.8, 25.17) rotate(-89.65, 0, 0)" id="f3d2a589-08f4-4e99-9635-cc67abadc8f4" opacity="0.75" style="fill:#FF9300;" /><rect x="14.37" y="9.68" width="0.38" height="3.21" rx="0.17" transform="translate(3.18, 25.78) rotate(-89.65, 0, 0)" id="bc7793e0-f7bc-4cc4-abb0-181c6c62350c" opacity="0.75" style="fill:#FF9300;" /></g></g></g></svg>