<?xml version="1.0" encoding="UTF-8"?>
<svg xmlns="http://www.w3.org/2000/svg" xmlns:xlink="http://www.w3.org/1999/xlink" width="70pt" height="70pt" viewBox="0 0 70 70" version="1.1">
<defs>
<linearGradient id="linear0" gradientUnits="userSpaceOnUse" x1="7.89" y1="6.9" x2="7.89" y2="19.35" gradientTransform="matrix(3.888889,0,0,3.888889,0,0)">
<stop offset="0.22" style="stop-color:rgb(79,180,255);stop-opacity:1;"/>
<stop offset="1" style="stop-color:rgb(0,124,216);stop-opacity:1;"/>
</linearGradient>
<filter id="alpha" filterUnits="objectBoundingBox" x="0%" y="0%" width="100%" height="100%">
  <feColorMatrix type="matrix" in="SourceGraphic" values="0 0 0 0 1 0 0 0 0 1 0 0 0 0 1 0 0 0 1 0"/>
</filter>
<mask id="mask0">
  <g filter="url(#alpha)">
<rect x="0" y="0" width="70" height="70" style="fill:rgb(0,0,0);fill-opacity:0.8;stroke:none;"/>
  </g>
</mask>
<clipPath id="clip1">
  <rect x="0" y="0" width="70" height="70"/>
</clipPath>
<g id="surface5" clip-path="url(#clip1)">
<path style=" stroke:none;fill-rule:nonzero;fill:rgb(255,255,255);fill-opacity:1;" d="M 30.722656 35 C 27.585938 35.019531 24.515625 34.113281 21.894531 32.394531 L 30.644531 55.300781 L 39.355469 32.550781 C 36.765625 34.164063 33.773438 35.011719 30.722656 35 Z M 30.722656 35 "/>
</g>
<linearGradient id="linear1" gradientUnits="userSpaceOnUse" x1="7.53" y1="0.22" x2="8.44" y2="11.53" gradientTransform="matrix(3.888889,0,0,3.888889,0,0)">
<stop offset="0.22" style="stop-color:rgb(79,180,255);stop-opacity:1;"/>
<stop offset="1" style="stop-color:rgb(0,124,216);stop-opacity:1;"/>
</linearGradient>
<radialGradient id="radial0" gradientUnits="userSpaceOnUse" cx="-19.24" cy="6.51" fx="-19.24" fy="6.51" r="6.13" gradientTransform="matrix(3.655556,0.0388889,-0.0388889,3.655556,124.561111,24.344444)">
<stop offset="0.27" style="stop-color:rgb(153,211,255);stop-opacity:1;"/>
<stop offset="1" style="stop-color:rgb(93,186,255);stop-opacity:1;"/>
</radialGradient>
<mask id="mask1">
  <g filter="url(#alpha)">
<rect x="0" y="0" width="70" height="70" style="fill:rgb(0,0,0);fill-opacity:0.74902;stroke:none;"/>
  </g>
</mask>
<clipPath id="clip2">
  <rect x="0" y="0" width="70" height="70"/>
</clipPath>
<g id="surface8" clip-path="url(#clip2)">
<path style=" stroke:none;fill-rule:nonzero;fill:rgb(71,176,255);fill-opacity:1;" d="M 54.445313 63.699219 C 54.601563 63.859375 54.835938 63.90625 55.042969 63.820313 C 55.25 63.734375 55.382813 63.535156 55.378906 63.3125 L 55.378906 53.785156 C 55.382813 53.585938 55.296875 53.398438 55.144531 53.277344 C 54.976563 53.160156 54.753906 53.148438 54.570313 53.246094 C 54.390625 53.34375 54.28125 53.539063 54.289063 53.746094 L 54.289063 63.3125 C 54.28125 63.457031 54.339844 63.597656 54.445313 63.699219 Z M 54.445313 63.699219 "/>
</g>
<mask id="mask2">
  <g filter="url(#alpha)">
<rect x="0" y="0" width="70" height="70" style="fill:rgb(0,0,0);fill-opacity:0.74902;stroke:none;"/>
  </g>
</mask>
<clipPath id="clip3">
  <rect x="0" y="0" width="70" height="70"/>
</clipPath>
<g id="surface11" clip-path="url(#clip3)">
<path style=" stroke:none;fill-rule:nonzero;fill:rgb(71,176,255);fill-opacity:1;" d="M 50.394531 41.515625 L 50.394531 41.359375 C 50.398438 40.996094 50.695313 40.703125 51.0625 40.703125 L 62.222656 40.773438 C 62.585938 40.773438 62.882813 41.070313 62.878906 41.4375 L 62.878906 41.59375 C 62.875 41.957031 62.578125 42.253906 62.214844 42.25 L 51.050781 42.183594 C 50.6875 42.179688 50.394531 41.882813 50.394531 41.515625 Z M 50.394531 41.515625 "/>
</g>
<mask id="mask3">
  <g filter="url(#alpha)">
<rect x="0" y="0" width="70" height="70" style="fill:rgb(0,0,0);fill-opacity:0.74902;stroke:none;"/>
  </g>
</mask>
<clipPath id="clip4">
  <rect x="0" y="0" width="70" height="70"/>
</clipPath>
<g id="surface14" clip-path="url(#clip4)">
<path style=" stroke:none;fill-rule:nonzero;fill:rgb(71,176,255);fill-opacity:1;" d="M 50.355469 43.941406 L 50.355469 43.785156 C 50.359375 43.421875 50.65625 43.128906 51.023438 43.128906 L 62.183594 43.199219 C 62.546875 43.199219 62.84375 43.496094 62.839844 43.863281 L 62.839844 44.019531 C 62.835938 44.382813 62.539063 44.675781 62.171875 44.675781 L 51.011719 44.605469 C 50.648438 44.605469 50.355469 44.308594 50.355469 43.941406 Z M 50.355469 43.941406 "/>
</g>
</defs>
<g id="surface1">
<path style=" stroke:none;fill-rule:nonzero;fill:url(#linear0);" d="M 54.640625 66.539063 C 57.5 66.539063 59.828125 64.230469 59.851563 61.367188 C 59.871094 61.160156 59.871094 60.953125 59.851563 60.746094 C 57.789063 44.410156 48.496094 31.109375 30.722656 31.109375 C 12.949219 31.109375 3.34375 42.390625 1.554688 60.785156 C 1.261719 63.636719 3.328125 66.195313 6.183594 66.5 L 54.640625 66.5 Z M 54.640625 66.539063 "/>
<use xlink:href="#surface5" mask="url(#mask0)"/>
<path style=" stroke:none;fill-rule:nonzero;fill:url(#linear1);" d="M 47.09375 18.667969 C 47.09375 27.707031 39.765625 35.039063 30.722656 35.039063 C 21.679688 35.039063 14.351563 27.707031 14.351563 18.667969 C 14.351563 9.625 21.679688 2.292969 30.722656 2.292969 C 39.765625 2.292969 47.09375 9.625 47.09375 18.667969 Z M 47.09375 18.667969 "/>
<path style=" stroke:none;fill-rule:nonzero;fill:url(#radial0);" d="M 67.160156 44.527344 C 67.988281 43.703125 68.453125 42.585938 68.453125 41.417969 C 68.453125 40.25 67.988281 39.128906 67.160156 38.304688 L 59.617188 30.527344 C 58.796875 29.691406 57.675781 29.21875 56.503906 29.21875 C 55.335938 29.21875 54.214844 29.691406 53.394531 30.527344 L 45.617188 38.070313 C 43.890625 39.800781 43.890625 42.601563 45.617188 44.332031 L 51.878906 50.710938 C 52.101563 50.9375 52.230469 51.246094 52.226563 51.566406 L 52.226563 63.234375 C 52.214844 63.648438 52.386719 64.046875 52.695313 64.320313 L 55.535156 67.238281 C 55.9375 67.621094 56.566406 67.621094 56.972656 67.238281 L 59.773438 64.4375 L 61.40625 62.765625 C 61.511719 62.664063 61.570313 62.523438 61.570313 62.378906 C 61.570313 62.230469 61.511719 62.089844 61.40625 61.988281 L 60.199219 60.785156 C 59.96875 60.53125 59.96875 60.140625 60.199219 59.890625 L 61.40625 58.683594 C 61.519531 58.585938 61.589844 58.445313 61.589844 58.292969 C 61.589844 58.144531 61.519531 58 61.40625 57.90625 L 60.238281 56.699219 C 60.007813 56.445313 60.007813 56.058594 60.238281 55.804688 L 61.445313 54.601563 C 61.550781 54.496094 61.609375 54.359375 61.609375 54.210938 C 61.609375 54.066406 61.550781 53.925781 61.445313 53.820313 L 59.8125 52.148438 L 59.8125 51.722656 Z M 56.542969 32.433594 C 57.917969 32.476563 59.011719 33.589844 59.035156 34.960938 C 59.042969 35.632813 58.78125 36.277344 58.300781 36.746094 C 57.824219 37.21875 57.175781 37.472656 56.503906 37.449219 C 55.242188 37.292969 54.289063 36.214844 54.289063 34.941406 C 54.289063 33.667969 55.242188 32.589844 56.503906 32.433594 Z M 56.542969 32.433594 "/>
<use xlink:href="#surface8" mask="url(#mask1)"/>
<use xlink:href="#surface11" mask="url(#mask2)"/>
<use xlink:href="#surface14" mask="url(#mask3)"/>
</g>
</svg>
