<?xml version="1.0" encoding="UTF-8"?>
<svg xmlns="http://www.w3.org/2000/svg" xmlns:xlink="http://www.w3.org/1999/xlink" width="70pt" height="70pt" viewBox="0 0 70 70" version="1.1">
<defs>
<linearGradient id="linear0" gradientUnits="userSpaceOnUse" x1="13.01" y1="5.83" x2="12.78" y2="19.82" gradientTransform="matrix(3.888889,0,0,3.888889,0,0)">
<stop offset="0" style="stop-color:rgb(171,219,255);stop-opacity:1;"/>
<stop offset="1" style="stop-color:rgb(119,197,255);stop-opacity:1;"/>
</linearGradient>
</defs>
<g id="surface1">
<path style=" stroke:none;fill-rule:nonzero;fill:rgb(0,108,188);fill-opacity:1;" d="M 50.945313 1.011719 L 23.722656 1.011719 C 22.753906 1.011719 21.972656 1.792969 21.972656 2.761719 L 21.972656 42.429688 C 23.347656 41.238281 24.816406 40.15625 26.367188 39.199219 L 31.539063 39.199219 L 34.417969 43.089844 L 34.417969 49.078125 L 30.800781 53.898438 L 25.820313 53.238281 L 21.933594 51.722656 L 21.933594 52.773438 C 21.921875 53.242188 22.101563 53.699219 22.433594 54.035156 C 22.761719 54.371094 23.210938 54.5625 23.683594 54.5625 L 50.90625 54.5625 C 51.375 54.5625 51.828125 54.371094 52.15625 54.035156 C 52.484375 53.699219 52.667969 53.242188 52.65625 52.773438 L 52.65625 2.761719 C 52.65625 1.808594 51.894531 1.03125 50.945313 1.011719 Z M 50.945313 1.011719 "/>
<path style=" stroke:none;fill-rule:nonzero;fill:rgb(229,243,255);fill-opacity:1;" d="M 26.054688 8.050781 L 31.109375 8.050781 C 31.230469 8.039063 31.351563 8.078125 31.4375 8.160156 C 31.527344 8.242188 31.578125 8.355469 31.578125 8.476563 L 31.578125 15.089844 C 31.578125 15.347656 31.367188 15.554688 31.109375 15.554688 L 26.054688 15.554688 C 25.933594 15.554688 25.820313 15.503906 25.738281 15.417969 C 25.65625 15.328125 25.617188 15.207031 25.628906 15.089844 L 25.628906 8.476563 C 25.628906 8.242188 25.820313 8.050781 26.054688 8.050781 Z M 35 8.050781 L 40.015625 8.050781 C 40.253906 8.050781 40.445313 8.242188 40.445313 8.476563 L 40.445313 15.089844 C 40.457031 15.207031 40.414063 15.328125 40.332031 15.417969 C 40.253906 15.503906 40.136719 15.554688 40.015625 15.554688 L 35 15.554688 C 34.878906 15.554688 34.765625 15.503906 34.683594 15.417969 C 34.601563 15.328125 34.5625 15.207031 34.570313 15.089844 L 34.570313 8.476563 C 34.570313 8.242188 34.765625 8.050781 35 8.050781 Z M 43.828125 8.050781 L 48.804688 8.050781 C 49.042969 8.050781 49.234375 8.242188 49.234375 8.476563 L 49.234375 15.089844 C 49.246094 15.207031 49.203125 15.328125 49.121094 15.417969 C 49.042969 15.503906 48.925781 15.554688 48.804688 15.554688 L 43.671875 15.554688 C 43.414063 15.554688 43.207031 15.347656 43.207031 15.089844 L 43.207031 8.476563 C 43.203125 8.355469 43.253906 8.242188 43.34375 8.160156 C 43.433594 8.078125 43.550781 8.039063 43.671875 8.050781 Z M 26.054688 20.066406 L 31.109375 20.066406 C 31.230469 20.054688 31.351563 20.097656 31.4375 20.175781 C 31.527344 20.257813 31.578125 20.375 31.578125 20.496094 L 31.578125 27.222656 C 31.539063 27.441406 31.335938 27.597656 31.109375 27.570313 L 26.054688 27.570313 C 25.847656 27.574219 25.664063 27.425781 25.628906 27.222656 L 25.628906 20.496094 C 25.628906 20.257813 25.820313 20.066406 26.054688 20.066406 Z M 35 20.066406 L 40.015625 20.066406 C 40.253906 20.066406 40.445313 20.257813 40.445313 20.496094 L 40.445313 27.222656 C 40.445313 27.457031 40.253906 27.648438 40.015625 27.648438 L 35 27.648438 C 34.863281 27.703125 34.707031 27.683594 34.589844 27.597656 C 34.472656 27.511719 34.40625 27.367188 34.417969 27.222656 L 34.417969 20.496094 C 34.40625 20.347656 34.472656 20.207031 34.589844 20.121094 C 34.707031 20.03125 34.863281 20.011719 35 20.066406 Z M 43.828125 20.066406 L 48.804688 20.066406 C 49.042969 20.066406 49.234375 20.257813 49.234375 20.496094 L 49.234375 27.222656 C 49.234375 27.457031 49.042969 27.648438 48.804688 27.648438 L 43.671875 27.648438 C 43.550781 27.660156 43.433594 27.621094 43.34375 27.539063 C 43.253906 27.457031 43.203125 27.34375 43.207031 27.222656 L 43.207031 20.496094 C 43.203125 20.375 43.253906 20.257813 43.34375 20.175781 C 43.433594 20.097656 43.550781 20.054688 43.671875 20.066406 Z M 43.828125 20.066406 "/>
<path style=" stroke:none;fill-rule:nonzero;fill:rgb(119,197,255);fill-opacity:1;" d="M 27.6875 42.972656 C 25.859375 42.917969 24.238281 44.148438 23.800781 45.929688 L 9.839844 45.929688 C 9.703125 46.605469 9.625 47.296875 9.605469 47.988281 L 9.605469 48.183594 L 23.800781 48.183594 C 24.464844 50.007813 26.375 51.066406 28.273438 50.65625 C 30.175781 50.246094 31.480469 48.496094 31.332031 46.558594 C 31.183594 44.621094 29.628906 43.089844 27.6875 42.972656 Z M 27.6875 42.972656 "/>
<path style=" stroke:none;fill-rule:nonzero;fill:rgb(47,166,255);fill-opacity:1;" d="M 38.421875 41.222656 C 38.230469 35.628906 33.597656 31.21875 28 31.304688 C 23.539063 31.234375 19.53125 34.019531 18.042969 38.226563 C 14.492188 38.800781 11.523438 41.234375 10.265625 44.605469 L 22.945313 44.605469 C 23.839844 42.804688 25.675781 41.660156 27.6875 41.648438 C 30.441406 41.53125 32.851563 43.472656 33.324219 46.1875 C 33.796875 48.898438 32.183594 51.542969 29.558594 52.363281 C 26.929688 53.183594 24.097656 51.925781 22.945313 49.429688 L 9.839844 49.429688 C 10.855469 54.027344 14.96875 57.28125 19.679688 57.207031 L 37.332031 57.207031 C 41.683594 57.441406 45.417969 54.136719 45.714844 49.789063 C 46.015625 45.441406 42.765625 41.660156 38.421875 41.300781 Z M 38.421875 41.222656 "/>
<path style=" stroke:none;fill-rule:nonzero;fill:rgb(119,197,255);fill-opacity:1;" d="M 27.6875 42.972656 C 25.859375 42.917969 24.238281 44.148438 23.800781 45.929688 L 9.839844 45.929688 C 9.355469 45.910156 8.871094 45.84375 8.398438 45.734375 C 4.953125 44.996094 2.558594 41.859375 2.75 38.34375 C 2.945313 34.824219 5.671875 31.96875 9.179688 31.617188 L 9.839844 31.617188 L 10.070313 30.957031 C 11.183594 27.648438 14.363281 25.484375 17.851563 25.667969 C 20.734375 25.609375 23.429688 27.089844 24.929688 29.554688 C 25.683594 29.398438 26.453125 29.320313 27.222656 29.320313 C 25.503906 25.621094 21.773438 23.277344 17.695313 23.332031 C 13.574219 23.296875 9.835938 25.734375 8.207031 29.515625 C 3.902344 30.316406 0.714844 33.976563 0.519531 38.351563 C 0.324219 42.722656 3.171875 46.65625 7.390625 47.832031 C 8.121094 48.113281 8.898438 48.246094 9.683594 48.222656 L 23.800781 48.222656 C 24.464844 50.046875 26.375 51.105469 28.273438 50.695313 C 30.175781 50.285156 31.480469 48.535156 31.332031 46.597656 C 31.183594 44.660156 29.628906 43.128906 27.6875 43.011719 Z M 27.6875 42.972656 "/>
<path style=" stroke:none;fill-rule:nonzero;fill:url(#linear0);" d="M 31.109375 43.90625 L 48.609375 26.40625 C 49.429688 25.59375 50.75 25.59375 51.566406 26.40625 L 69.027344 43.90625 C 69.296875 44.171875 69.375 44.574219 69.230469 44.925781 C 69.085938 45.273438 68.746094 45.5 68.367188 45.5 L 57.789063 45.5 C 57.273438 45.5 56.855469 45.917969 56.855469 46.433594 L 56.855469 68.25 C 56.855469 68.65625 56.523438 68.988281 56.117188 68.988281 L 44.449219 68.988281 C 44.25 69 44.054688 68.925781 43.914063 68.785156 C 43.773438 68.644531 43.699219 68.449219 43.710938 68.25 L 43.710938 46.433594 C 43.710938 45.917969 43.292969 45.5 42.777344 45.5 L 31.929688 45.5 C 31.519531 45.578125 31.109375 45.378906 30.921875 45.007813 C 30.734375 44.640625 30.808594 44.191406 31.109375 43.90625 Z M 31.109375 43.90625 "/>
</g>
</svg>
