<?xml version="1.0" encoding="UTF-8"?>
<svg xmlns="http://www.w3.org/2000/svg" xmlns:xlink="http://www.w3.org/1999/xlink" width="70pt" height="70pt" viewBox="0 0 70 70" version="1.1">
<defs>
<linearGradient id="linear0" gradientUnits="userSpaceOnUse" x1="6.01" y1="17.69" x2="6.01" y2="0.26" gradientTransform="matrix(3.888889,0,0,3.888889,0,0)">
<stop offset="0" style="stop-color:rgb(41,164,255);stop-opacity:1;"/>
<stop offset="0.53" style="stop-color:rgb(69,176,255);stop-opacity:1;"/>
<stop offset="1" style="stop-color:rgb(103,190,255);stop-opacity:1;"/>
</linearGradient>
<linearGradient id="linear1" gradientUnits="userSpaceOnUse" x1="10.55" y1="853.33" x2="15" y2="858.17" gradientTransform="matrix(3.888889,0,0,6.183333,0,-5255.677778)">
<stop offset="0" style="stop-color:rgb(0,108,188);stop-opacity:1;"/>
<stop offset="0.02" style="stop-color:rgb(0,117,204);stop-opacity:1;"/>
<stop offset="0.08" style="stop-color:rgb(0,135,236);stop-opacity:1;"/>
<stop offset="0.15" style="stop-color:rgb(9,150,255);stop-opacity:1;"/>
<stop offset="0.22" style="stop-color:rgb(27,158,255);stop-opacity:1;"/>
<stop offset="0.29" style="stop-color:rgb(39,163,255);stop-opacity:1;"/>
<stop offset="0.4" style="stop-color:rgb(41,164,255);stop-opacity:1;"/>
<stop offset="0.55" style="stop-color:rgb(39,163,255);stop-opacity:1;"/>
<stop offset="0.68" style="stop-color:rgb(25,157,255);stop-opacity:1;"/>
<stop offset="0.8" style="stop-color:rgb(5,148,255);stop-opacity:1;"/>
<stop offset="0.91" style="stop-color:rgb(0,133,232);stop-opacity:1;"/>
<stop offset="0.99" style="stop-color:rgb(0,119,208);stop-opacity:1;"/>
</linearGradient>
</defs>
<g id="surface1">
<path style=" stroke:none;fill-rule:nonzero;fill:url(#linear0);" d="M 43.285156 66.5 C 43.261719 67.757813 42.246094 68.773438 40.988281 68.792969 L 5.753906 68.792969 C 4.488281 68.792969 3.460938 67.765625 3.460938 66.5 L 3.460938 3.304688 C 3.449219 2.695313 3.6875 2.105469 4.121094 1.671875 C 4.554688 1.238281 5.144531 1 5.753906 1.011719 L 40.988281 1.011719 C 42.257813 1.011719 43.285156 2.039063 43.285156 3.304688 Z M 43.285156 66.5 "/>
<path style=" stroke:none;fill-rule:nonzero;fill:rgb(0,44,78);fill-opacity:1;" d="M 9.292969 24.773438 C 9.316406 22.382813 11.257813 20.457031 13.648438 20.457031 L 33.445313 20.457031 C 35.828125 20.457031 37.761719 22.386719 37.761719 24.773438 C 37.773438 25.921875 37.320313 27.03125 36.511719 27.851563 C 35.699219 28.667969 34.597656 29.128906 33.445313 29.128906 L 13.648438 29.128906 C 11.246094 29.128906 9.292969 27.175781 9.292969 24.773438 Z M 9.292969 24.773438 "/>
<path style=" stroke:none;fill-rule:nonzero;fill:rgb(0,44,78);fill-opacity:1;" d="M 9.292969 11.9375 C 9.378906 9.601563 11.308594 7.753906 13.648438 7.777344 L 33.445313 7.777344 C 35.777344 7.753906 37.699219 9.605469 37.761719 11.9375 C 37.761719 14.324219 35.828125 16.253906 33.445313 16.253906 L 13.648438 16.253906 C 11.257813 16.253906 9.316406 14.328125 9.292969 11.9375 Z M 9.292969 11.9375 "/>
<path style=" stroke:none;fill-rule:nonzero;fill:rgb(119,197,255);fill-opacity:1;" d="M 16.722656 11.9375 C 16.722656 13.550781 15.417969 14.855469 13.804688 14.855469 C 12.195313 14.855469 10.890625 13.550781 10.890625 11.9375 C 10.890625 10.328125 12.195313 9.023438 13.804688 9.023438 C 15.417969 9.023438 16.722656 10.328125 16.722656 11.9375 Z M 16.722656 11.9375 "/>
<path style=" stroke:none;fill-rule:nonzero;fill:rgb(119,197,255);fill-opacity:1;" d="M 16.722656 24.773438 C 16.722656 26.382813 15.417969 27.6875 13.804688 27.6875 C 12.195313 27.6875 10.890625 26.382813 10.890625 24.773438 C 10.890625 23.160156 12.195313 21.855469 13.804688 21.855469 C 15.417969 21.855469 16.722656 23.160156 16.722656 24.773438 Z M 16.722656 24.773438 "/>
<path style=" stroke:none;fill-rule:nonzero;fill:rgb(47,166,255);fill-opacity:1;" d="M 66.539063 57.984375 C 66.539063 54.03125 58.722656 50.828125 49.078125 50.828125 C 39.433594 50.828125 31.617188 54.03125 31.617188 57.984375 C 31.617188 61.933594 39.433594 65.140625 49.078125 65.140625 C 58.722656 65.140625 66.539063 61.933594 66.539063 57.984375 Z M 66.539063 57.984375 "/>
<path style=" stroke:none;fill-rule:nonzero;fill:rgb(0,138,240);fill-opacity:1;" d="M 55.300781 57.90625 C 55.300781 57.023438 52.707031 56.3125 49.503906 56.3125 C 46.304688 56.3125 43.710938 57.023438 43.710938 57.90625 C 43.710938 58.785156 46.304688 59.5 49.503906 59.5 C 52.707031 59.5 55.300781 58.785156 55.300781 57.90625 Z M 55.300781 57.90625 "/>
<path style=" stroke:none;fill-rule:nonzero;fill:url(#linear1);" d="M 66.539063 42.078125 C 66.539063 38.125 58.722656 34.921875 49.078125 34.921875 C 39.433594 34.921875 31.617188 38.125 31.617188 42.078125 C 31.617188 46.03125 39.433594 49.234375 49.078125 49.234375 C 58.722656 49.234375 66.539063 46.03125 66.539063 42.078125 Z M 66.539063 42.078125 "/>
<path style=" stroke:none;fill-rule:nonzero;fill:rgb(0,81,142);fill-opacity:1;" d="M 55.300781 42 C 55.300781 41.121094 52.707031 40.40625 49.503906 40.40625 C 46.304688 40.40625 43.710938 41.121094 43.710938 42 C 43.710938 42.878906 46.304688 43.59375 49.503906 43.59375 C 52.707031 43.59375 55.300781 42.878906 55.300781 42 Z M 55.300781 42 "/>
<path style=" stroke:none;fill-rule:nonzero;fill:rgb(0,138,240);fill-opacity:1;" d="M 49.078125 65.023438 C 58.722656 65.023438 66.539063 61.792969 66.539063 57.828125 L 66.539063 62.222656 C 66.1875 66.109375 58.527344 69.144531 49.078125 69.144531 C 39.628906 69.144531 31.617188 65.957031 31.617188 61.988281 L 31.617188 58.101563 C 31.617188 61.792969 39.433594 65.023438 49.078125 65.023438 Z M 49.078125 65.023438 "/>
<path style=" stroke:none;fill-rule:nonzero;fill:rgb(0,108,188);fill-opacity:1;" d="M 49.078125 49.078125 C 58.722656 49.078125 66.539063 45.890625 66.539063 41.921875 L 66.539063 46.160156 C 66.1875 50.050781 58.527344 53.082031 49.078125 53.082031 C 39.628906 53.082031 31.617188 49.855469 31.617188 45.890625 L 31.617188 42 C 31.617188 45.890625 39.433594 49.078125 49.078125 49.078125 Z M 49.078125 49.078125 "/>
</g>
</svg>
