<?xml version="1.0" encoding="utf-8"?><svg version="1.1" xmlns="http://www.w3.org/2000/svg" xmlns:xlink="http://www.w3.org/1999/xlink" xmlns:xml="http://www.w3.org/XML/1998/namespace" width="70" height="70" viewBox="0, 0, 18, 18"><defs><linearGradient x1="13.01" y1="5.83" x2="12.78" y2="19.82" gradientUnits="userSpaceOnUse" id="e45c6200-6488-4339-a709-a13bd54e49f3"><stop offset="0%" stop-color="#ABDBFF" /><stop offset="100%" stop-color="#77C5FF" /></linearGradient></defs><title>Icon-azurestack-8</title><g id="ea18473d-2ef4-4f9c-b256-443e4dcd2a2c"><g><path d="M13.1 0.26 h-7 a0.45 0.45 0 0 0 -0.45 0.45 v10.2 a8.8 8.8 0 0 1 1.13 -0.83 H8.11 l0.74 1 v1.54 l-0.93 1.24 l-1.28 -0.17 l-1 -0.39 v0.27 a0.45 0.45 0 0 0 0.45 0.46 h7 a0.45 0.45 0 0 0 0.45 -0.46 V0.71 A0.45 0.45 0 0 0 13.1 0.26 Z" style="fill:#006CBC;" /><path d="M6.7 2.07 H8 a0.11 0.11 0 0 1 0.12 0.11 v1.7 A0.12 0.12 0 0 1 8 4 H6.7 a0.11 0.11 0 0 1 -0.11 -0.12 V2.18 A0.11 0.11 0 0 1 6.7 2.07 Z M9 2.07 h1.29 a0.11 0.11 0 0 1 0.11 0.11 v1.7 a0.11 0.11 0 0 1 -0.11 0.12 H9 a0.11 0.11 0 0 1 -0.11 -0.12 V2.18 A0.11 0.11 0 0 1 9 2.07 Z m2.27 0 h1.28 a0.11 0.11 0 0 1 0.11 0.11 v1.7 a0.11 0.11 0 0 1 -0.11 0.12 H11.23 a0.12 0.12 0 0 1 -0.12 -0.12 V2.18 A0.11 0.11 0 0 1 11.23 2.07 Z M6.7 5.16 H8 a0.11 0.11 0 0 1 0.12 0.11 V7 A0.11 0.11 0 0 1 8 7.09 H6.7 A0.11 0.11 0 0 1 6.59 7 V5.27 A0.11 0.11 0 0 1 6.7 5.16 Z M9 5.16 h1.29 a0.11 0.11 0 0 1 0.11 0.11 V7 a0.11 0.11 0 0 1 -0.11 0.11 H9 A0.11 0.11 0 0 1 8.85 7 V5.27 A0.11 0.11 0 0 1 9 5.16 Z m2.27 0 h1.28 a0.11 0.11 0 0 1 0.11 0.11 V7 a0.11 0.11 0 0 1 -0.11 0.11 H11.23 A0.11 0.11 0 0 1 11.11 7 V5.27 A0.11 0.11 0 0 1 11.23 5.16 Z" id="ad507295-c076-421c-9034-1cdfff692626" style="fill:#E5F3FF;" /><path d="M7.12 11.05 a1 1 0 0 0 -1 0.76 H2.53 a3.07 3.07 0 0 0 -0.06 0.53 v0.05 H6.12 a1 1 0 1 0 1 -1.34 Z" style="fill:#77C5FF;" /><path d="M9.88 10.6 A2.64 2.64 0 0 0 7.2 8.05 A2.67 2.67 0 0 0 4.64 9.83 a2.57 2.57 0 0 0 -2 1.64 H5.9 a1.37 1.37 0 0 1 1.22 -0.76 a1.41 1.41 0 1 1 -1.22 2 H2.53 a2.55 2.55 0 0 0 2.53 2 H9.48 l0.12 0 a2.05 2.05 0 0 0 0.28 -4.09 Z" style="fill:#2FA6FF;" /><path d="M7.12 11.05 a1 1 0 0 0 -1 0.76 H2.53 a1.92 1.92 0 0 1 -0.37 -0.05 a1.84 1.84 0 0 1 0.2 -3.63 l0.17 0 l0.06 -0.17 a2 2 0 0 1 2 -1.36 a2.08 2.08 0 0 1 1.82 1 A2.89 2.89 0 0 1 7 7.54 A2.66 2.66 0 0 0 4.55 6 A2.63 2.63 0 0 0 2.11 7.59 A2.42 2.42 0 0 0 1.9 12.3 h0 a1.51 1.51 0 0 0 0.59 0.1 H6.12 a1 1 0 1 0 1 -1.34 Z" style="fill:#77C5FF;" /><path d="M8 11.29 l4.5 -4.5 a0.54 0.54 0 0 1 0.76 0 l4.49 4.5 a0.24 0.24 0 0 1 -0.17 0.41 H14.86 a0.24 0.24 0 0 0 -0.24 0.24 v5.61 a0.19 0.19 0 0 1 -0.19 0.19 h-3 a0.18 0.18 0 0 1 -0.19 -0.19 V11.94 A0.24 0.24 0 0 0 11 11.7 H8.21 A0.24 0.24 0 0 1 8 11.29 Z" style="fill:url(#e45c6200-6488-4339-a709-a13bd54e49f3);" /></g></g></svg>