<?xml version="1.0" encoding="utf-8"?><svg xmlns="http://www.w3.org/2000/svg" width="100%" height="70" viewBox="0 0 18 18" preserveAspectRatio="xMidYMid meet"><defs><linearGradient id="b756f194-f0ab-4baf-9a5b-c24373260298" x1="6.01" y1="17.69" x2="6.01" y2="0.26" gradientUnits="userSpaceOnUse"><stop offset="0" stop-color="#29A4FF" /><stop offset="0.53" stop-color="#45B0FF" /><stop offset="1" stop-color="#67BEFF" /></linearGradient><linearGradient id="b4a51a97-50dd-4686-924a-188a97007e56" x1="10.55" y1="853.33" x2="15" y2="858.17" gradientTransform="translate(0 -1351.46) scale(1 1.59)" gradientUnits="userSpaceOnUse"><stop offset="0" stop-color="#006CBC" /><stop offset="0.02" stop-color="#0075CC" /><stop offset="0.08" stop-color="#0087EC" /><stop offset="0.15" stop-color="#0996FF" /><stop offset="0.22" stop-color="#1B9EFF" /><stop offset="0.29" stop-color="#27A3FF" /><stop offset="0.4" stop-color="#29A4FF" /><stop offset="0.55" stop-color="#27A3FF" /><stop offset="0.68" stop-color="#199DFF" /><stop offset="0.8" stop-color="#0594FF" /><stop offset="0.91" stop-color="#0085E8" /><stop offset="0.99" stop-color="#0077D0" /></linearGradient></defs><g id="a5e70dc5-b1f0-464a-b150-2d065854bc52"><g><g><path d="M11.13,17.1a.6.6,0,0,1-.59.59H1.48a.59.59,0,0,1-.59-.59V.85A.58.58,0,0,1,1.48.26h9.06a.59.59,0,0,1,.59.59Z" fill="url(#b756f194-f0ab-4baf-9a5b-c24373260298)" /><path d="M2.39,6.37A1.12,1.12,0,0,1,3.51,5.26H8.6A1.11,1.11,0,0,1,9.71,6.37h0A1.11,1.11,0,0,1,8.6,7.49H3.51A1.12,1.12,0,0,1,2.39,6.37Z" fill="#002C4E" /><path d="M2.39,3.07A1.11,1.11,0,0,1,3.51,2H8.6A1.1,1.1,0,0,1,9.71,3.07h0A1.11,1.11,0,0,1,8.6,4.18H3.51A1.12,1.12,0,0,1,2.39,3.07Z" fill="#002C4E" /><circle cx="3.55" cy="3.07" r="0.75" fill="#77C5FF" /><circle cx="3.55" cy="6.37" r="0.75" fill="#77C5FF" /></g><ellipse cx="12.62" cy="14.91" rx="4.49" ry="1.84" fill="#2FA6FF" /><ellipse cx="12.73" cy="14.89" rx="1.49" ry="0.41" fill="#008AF0" /><ellipse cx="12.62" cy="10.82" rx="4.49" ry="1.84" fill="url(#b4a51a97-50dd-4686-924a-188a97007e56)" /><ellipse cx="12.73" cy="10.8" rx="1.49" ry="0.41" fill="#00518E" /><path d="M12.62,16.72c2.48,0,4.49-.83,4.49-1.85h0V16h0c-.09,1-2.06,1.78-4.49,1.78s-4.49-.82-4.49-1.84v-1C8.13,15.89,10.14,16.72,12.62,16.72Z" fill="#008AF0" /><path d="M12.62,12.62c2.48,0,4.49-.82,4.49-1.84h0v1.09h0c-.09,1-2.06,1.78-4.49,1.78s-4.49-.83-4.49-1.85v-1C8.13,11.8,10.14,12.62,12.62,12.62Z" fill="#006CBC" /></g></g></svg>