<?xml version="1.0" encoding="UTF-8"?>
<svg xmlns="http://www.w3.org/2000/svg" xmlns:xlink="http://www.w3.org/1999/xlink" width="70pt" height="70pt" viewBox="0 0 70 70" version="1.1">
<defs>
<radialGradient id="radial0" gradientUnits="userSpaceOnUse" cx="9.32" cy="8.689" fx="9.32" fy="8.689" r="10.704" gradientTransform="matrix(3.888889,0,0,3.888889,0,0)">
<stop offset="0.5" style="stop-color:rgb(70.196078%,70.196078%,70.196078%);stop-opacity:1;"/>
<stop offset="1" style="stop-color:rgb(60%,60%,60%);stop-opacity:1;"/>
</radialGradient>
</defs>
<g id="surface1">
<path style=" stroke:none;fill-rule:nonzero;fill:url(#radial0);" d="M 36.246094 0.0390625 C 48.902344 8.109375 54.710938 23.570313 50.5 37.980469 C 46.289063 52.386719 33.066406 62.285156 18.054688 62.269531 C 3.042969 62.253906 -10.15625 52.328125 -14.335938 37.910156 C -18.515625 23.492188 -12.675781 8.042969 0 0 L 17.65625 38.109375 C 17.476563 30.304688 22.066406 23.179688 29.246094 20.109375 C 36.421875 17.039063 44.746094 18.644531 50.265625 24.167969 C 55.785156 29.6875 57.394531 38.011719 54.324219 45.1875 C 51.253906 52.367188 44.128906 56.957031 36.320313 56.777344 L 32.011719 67.277344 C 23.6875 80.136719 7.746094 85.78125 -6.816406 81.023438 C -21.382813 76.265625 -30.917969 62.300781 -30.042969 47.003906 C -29.171875 31.707031 -18.113281 18.917969 -3.101563 15.84375 C 11.90625 12.773438 27.105469 20.191406 33.914063 33.914063 Z M 36.246094 0.0390625 "/>
<path style=" stroke:none;fill-rule:nonzero;fill:rgb(0%,47.058824%,83.137255%);fill-opacity:1;" d="M 35.066406 69.960938 L 35.066406 54.359375 C 20.054688 59.546875 3.683594 51.582031 -1.503906 36.570313 C -6.691406 21.558594 1.273438 5.1875 16.28125 0 L 16.28125 -0.640625 L 0 -0.640625 C -17.097656 -5.449219 -27.890625 -22.292969 -25.117188 -39.832031 C -22.347656 -57.375 -6.882813 -70.066406 10.863281 -69.367188 C 28.609375 -68.667969 43.023438 -54.800781 44.40625 -37.09375 C 45.792969 -19.386719 33.707031 -3.449219 16.28125 0 Z M 35.066406 69.960938 "/>
<path style=" stroke:none;fill-rule:nonzero;fill:rgb(0%,35.686275%,63.137255%);fill-opacity:1;" d="M 15.601563 34.933594 C 9.234375 38.632813 1.316406 38.371094 -4.792969 34.265625 C -10.902344 30.160156 -14.132813 22.925781 -13.113281 15.632813 C -12.09375 8.34375 -7.003906 2.273438 0 0 L 0.484375 0 L -0.75 -2.332031 C 6.492188 0.332031 11.003906 7.570313 10.207031 15.246094 C 9.410156 22.925781 3.503906 29.082031 -4.132813 30.199219 C -11.769531 31.316406 -19.191406 27.109375 -22.15625 19.984375 C -25.121094 12.859375 -22.871094 4.628906 -16.695313 0 Z M 15.601563 34.933594 "/>
<path style=" stroke:none;fill-rule:nonzero;fill:rgb(0%,47.058824%,83.137255%);fill-opacity:1;" d="M 29.65625 33.589844 C 31.101563 32.367188 33.171875 32.222656 34.769531 33.238281 C 36.367188 34.253906 37.117188 36.1875 36.625 38.011719 C 36.132813 39.839844 34.511719 41.136719 32.621094 41.210938 C 30.730469 41.285156 29.011719 40.121094 28.378906 38.339844 L 33.59375 43.554688 L 33.59375 50.945313 C 33.992188 50.972656 34.359375 51.53125 34.597656 52.480469 C 34.839844 53.425781 34.929688 54.671875 34.84375 55.890625 L 39.984375 55.890625 C 43.179688 55.9375 45.769531 56.847656 45.769531 57.921875 C 45.769531 58.996094 43.179688 59.828125 39.984375 59.78125 Z M 43.460938 24.003906 L 31.144531 42.910156 L 27.929688 42.910156 L 40.21875 24.003906 Z M 29.910156 26.054688 C 28.625 26.054688 27.964844 26.945313 27.964844 28.734375 C 27.964844 30.421875 28.574219 31.261719 29.796875 31.261719 C 31.019531 31.261719 31.667969 30.382813 31.667969 28.625 C 31.667969 26.867188 31.109375 26.054688 29.910156 26.054688 Z M 41.433594 43.167969 C 42.871094 41.957031 44.925781 41.824219 46.511719 42.832031 C 48.09375 43.84375 48.839844 45.765625 48.351563 47.578125 C 47.863281 49.390625 46.253906 50.679688 44.378906 50.757813 C 42.5 50.835938 40.789063 49.6875 40.152344 47.917969 L 45.359375 53.125 L 45.359375 60.515625 C 45.753906 60.558594 46.113281 61.117188 46.351563 62.054688 C 46.585938 62.992188 46.675781 64.21875 46.597656 65.421875 L 51.789063 65.421875 C 54.984375 65.46875 57.574219 66.378906 57.574219 67.453125 C 57.574219 68.527344 54.984375 69.359375 51.789063 69.3125 Z M 41.644531 35.636719 C 40.367188 35.636719 39.734375 36.53125 39.734375 38.3125 C 39.734375 40 40.351563 40.84375 41.589844 40.84375 C 42.832031 40.84375 43.453125 39.964844 43.460938 38.207031 C 43.066406 38.960938 42.382813 39.523438 41.5625 39.765625 Z M 41.644531 35.636719 "/>
</g>
</svg>
