<?xml version="1.0" encoding="UTF-8"?>
<svg xmlns="http://www.w3.org/2000/svg" xmlns:xlink="http://www.w3.org/1999/xlink" width="70pt" height="70pt" viewBox="0 0 70 70" version="1.1">
<defs>
<linearGradient id="linear0" gradientUnits="userSpaceOnUse" x1="9" y1="13.51" x2="9" y2="0.76" gradientTransform="matrix(3.888889,0,0,3.888889,0,0)">
<stop offset="0" style="stop-color:rgb(96.862745%,55.294118%,11.764706%);stop-opacity:1;"/>
<stop offset="0.44" style="stop-color:rgb(97.254902%,56.862745%,11.764706%);stop-opacity:1;"/>
<stop offset="0.85" style="stop-color:rgb(97.647059%,61.176471%,11.372549%);stop-opacity:1;"/>
<stop offset="1" style="stop-color:rgb(98.039216%,63.529412%,11.372549%);stop-opacity:1;"/>
</linearGradient>
</defs>
<g id="surface1">
<path style=" stroke:none;fill-rule:nonzero;fill:url(#linear0);" d="M 2.332031 2.957031 L 67.667969 2.957031 C 68.957031 2.957031 70 4 70 5.289063 L 70 50.207031 C 70 51.496094 68.957031 52.539063 67.667969 52.539063 L 2.332031 52.539063 C 1.042969 52.539063 0 51.496094 0 50.207031 L 0 5.289063 C 0 4 1.042969 2.957031 2.332031 2.957031 Z M 2.332031 2.957031 "/>
<path style=" stroke:none;fill-rule:nonzero;fill:rgb(100%,100%,100%);fill-opacity:1;" d="M 5.25 7.3125 L 64.75 7.3125 C 65.394531 7.3125 65.917969 7.832031 65.917969 8.476563 L 65.917969 46.976563 C 65.917969 47.621094 65.394531 48.144531 64.75 48.144531 L 5.25 48.144531 C 4.605469 48.144531 4.082031 47.621094 4.082031 46.976563 L 4.082031 8.476563 C 4.082031 7.832031 4.605469 7.3125 5.25 7.3125 Z M 5.25 7.3125 "/>
<path style=" stroke:none;fill-rule:nonzero;fill:rgb(81.960784%,34.901961%,0%);fill-opacity:1;" d="M 58.101563 36.320313 C 58.101563 36.929688 57.617188 37.429688 57.011719 37.449219 L 31.734375 37.449219 C 31.109375 37.449219 30.605469 36.945313 30.605469 36.320313 C 30.605469 35.699219 31.109375 35.195313 31.734375 35.195313 L 57.011719 35.195313 C 57.308594 35.195313 57.589844 35.3125 57.796875 35.527344 C 58 35.738281 58.109375 36.027344 58.101563 36.320313 "/>
<path style=" stroke:none;fill-rule:nonzero;fill:rgb(81.960784%,34.901961%,0%);fill-opacity:1;" d="M 58.101563 29.320313 C 58.101563 29.929688 57.617188 30.429688 57.011719 30.449219 L 31.734375 30.449219 C 31.109375 30.449219 30.605469 29.945313 30.605469 29.320313 C 30.605469 28.699219 31.109375 28.195313 31.734375 28.195313 L 57.011719 28.195313 C 57.308594 28.195313 57.589844 28.3125 57.796875 28.527344 C 58 28.738281 58.109375 29.027344 58.101563 29.320313 "/>
<path style=" stroke:none;fill-rule:nonzero;fill:rgb(81.960784%,34.901961%,0%);fill-opacity:1;" d="M 58.101563 19.171875 C 58.109375 19.46875 58 19.753906 57.796875 19.96875 C 57.589844 20.179688 57.308594 20.300781 57.011719 20.300781 L 14.660156 20.300781 C 14.039063 20.300781 13.535156 19.796875 13.535156 19.171875 C 13.535156 18.550781 14.039063 18.042969 14.660156 18.042969 L 57.011719 18.042969 C 57.308594 18.042969 57.589844 18.164063 57.796875 18.378906 C 58 18.589844 58.109375 18.875 58.101563 19.171875 "/>
<path style=" stroke:none;fill-rule:nonzero;fill:rgb(70.196078%,10.588235%,10.588235%);fill-opacity:1;" d="M 19.949219 49.351563 C 16.222656 52.699219 10.570313 52.699219 6.84375 49.351563 L 6.027344 65.644531 C 5.988281 66.1875 6.292969 66.695313 6.792969 66.914063 C 7.289063 67.132813 7.871094 67.015625 8.246094 66.617188 L 13.300781 61.484375 L 18.394531 66.65625 C 18.761719 67.046875 19.332031 67.167969 19.828125 66.957031 C 20.320313 66.75 20.632813 66.257813 20.609375 65.722656 Z M 19.949219 49.351563 "/>
<path style=" stroke:none;fill-rule:nonzero;fill:rgb(90.196078%,13.72549%,13.72549%);fill-opacity:1;" d="M 25.238281 40.988281 C 25.238281 34.503906 20 29.246094 13.535156 29.246094 C 7.070313 29.246094 1.828125 34.503906 1.828125 40.988281 C 1.828125 47.476563 7.070313 52.734375 13.535156 52.734375 C 20 52.734375 25.238281 47.476563 25.238281 40.988281 Z M 25.238281 40.988281 "/>
<path style=" stroke:none;fill-rule:nonzero;fill:rgb(100%,70.196078%,30.196078%);fill-opacity:1;" d="M 22.4375 40.988281 C 22.4375 36.070313 18.453125 32.082031 13.535156 32.082031 C 8.613281 32.082031 4.628906 36.070313 4.628906 40.988281 C 4.628906 45.90625 8.613281 49.894531 13.535156 49.894531 C 18.453125 49.894531 22.4375 45.90625 22.4375 40.988281 Z M 22.4375 40.988281 "/>
</g>
</svg>
