<?xml version="1.0" encoding="UTF-8"?>
<svg xmlns="http://www.w3.org/2000/svg" xmlns:xlink="http://www.w3.org/1999/xlink" width="70pt" height="70pt" viewBox="0 0 70 70" version="1.1">
<g id="surface1">
<path style=" stroke:none;fill-rule:nonzero;fill:rgb(147,209,255);fill-opacity:1;" d="M 70 52.597656 C 70 55.363281 67.761719 57.597656 65 57.597656 L 5 57.597656 C 2.238281 57.601563 0 55.363281 0 52.597656 L 0 10.597656 C 0 7.839844 2.238281 5.601563 5 5.601563 L 65 5.601563 C 67.761719 5.601563 70 7.839844 70 10.597656 Z M 70 52.597656 "/>
<path style=" stroke:none;fill-rule:nonzero;fill:rgb(255,255,255);fill-opacity:1;" d="M 6 11.601563 L 64 11.601563 L 64 51.601563 L 6 51.601563 Z M 6 11.601563 "/>
<path style=" stroke:none;fill-rule:nonzero;fill:rgb(0,135,236);fill-opacity:1;" d="M 25 42.601563 C 25 47.019531 21.417969 50.601563 17 50.601563 C 12.582031 50.601563 9 47.019531 9 42.601563 C 9 38.183594 12.582031 34.601563 17 34.601563 C 21.417969 34.601563 25 38.183594 25 42.601563 Z M 25 42.601563 "/>
<path style=" stroke:none;fill-rule:nonzero;fill:rgb(63,173,255);fill-opacity:1;" d="M 23 42.601563 C 23 45.914063 20.3125 48.601563 17 48.601563 C 13.6875 48.601563 11 45.914063 11 42.601563 C 11 39.285156 13.6875 36.601563 17 36.601563 C 20.3125 36.601563 23 39.285156 23 42.601563 Z M 23 42.601563 "/>
<path style=" stroke:none;fill-rule:nonzero;fill:rgb(0,135,236);fill-opacity:1;" d="M 17 48.597656 C 14.671875 48.597656 12.554688 47.703125 10.957031 46.25 L 10.007813 64.492188 L 16.898438 57.601563 L 23.898438 64.601563 L 24 63.601563 L 23.042969 46.25 C 21.445313 47.703125 19.328125 48.597656 17 48.597656 Z M 17 48.597656 "/>
<path style=" stroke:none;fill-rule:nonzero;fill:rgb(0,140,244);fill-opacity:1;" d="M 57.347656 40.71875 C 57.347656 41.335938 56.84375 41.835938 56.226563 41.835938 L 31.117188 41.835938 C 30.5 41.835938 30 41.335938 30 40.71875 C 30 40.101563 30.5 39.601563 31.117188 39.601563 L 56.226563 39.601563 C 56.84375 39.601563 57.347656 40.101563 57.347656 40.71875 "/>
<path style=" stroke:none;fill-rule:nonzero;fill:rgb(0,140,244);fill-opacity:1;" d="M 57.347656 34.597656 C 57.347656 35.21875 56.84375 35.71875 56.226563 35.71875 L 31.117188 35.71875 C 30.5 35.71875 30 35.21875 30 34.597656 C 30 33.980469 30.5 33.480469 31.117188 33.480469 L 56.226563 33.480469 C 56.84375 33.480469 57.347656 33.980469 57.347656 34.597656 "/>
<path style=" stroke:none;fill-rule:nonzero;fill:rgb(0,140,244);fill-opacity:1;" d="M 57.347656 25.601563 C 57.347656 26.21875 56.84375 26.71875 56.226563 26.71875 L 14.117188 26.71875 C 13.5 26.71875 13 26.21875 13 25.601563 C 13 24.984375 13.5 24.480469 14.117188 24.480469 L 56.226563 24.480469 C 56.84375 24.480469 57.347656 24.980469 57.347656 25.601563 "/>
</g>
</svg>
