<?xml version="1.0" encoding="UTF-8"?>
<svg xmlns="http://www.w3.org/2000/svg" xmlns:xlink="http://www.w3.org/1999/xlink" width="70pt" height="70pt" viewBox="0 0 70 70" version="1.1">
<defs>
<linearGradient id="linear0" gradientUnits="userSpaceOnUse" x1="4.869" y1="18" x2="4.869" y2="0" gradientTransform="matrix(3.888889,0,0,3.888889,0,0)">
<stop offset="0" style="stop-color:rgb(0%,47.058824%,83.137255%);stop-opacity:1;"/>
<stop offset="1" style="stop-color:rgb(51.372549%,72.54902%,97.647059%);stop-opacity:1;"/>
</linearGradient>
<linearGradient id="linear1" gradientUnits="userSpaceOnUse" x1="6.504" y1="18" x2="6.504" y2="0" gradientTransform="matrix(3.888889,0,0,3.888889,0,0)">
<stop offset="0" style="stop-color:rgb(36.862745%,62.745098%,93.72549%);stop-opacity:1;"/>
<stop offset="1" style="stop-color:rgb(51.372549%,72.54902%,97.647059%);stop-opacity:1;"/>
</linearGradient>
<filter id="alpha" filterUnits="objectBoundingBox" x="0%" y="0%" width="100%" height="100%">
  <feColorMatrix type="matrix" in="SourceGraphic" values="0 0 0 0 1 0 0 0 0 1 0 0 0 0 1 0 0 0 1 0"/>
</filter>
<mask id="mask0">
  <g filter="url(#alpha)">
<rect x="0" y="0" width="70" height="70" style="fill:rgb(0%,0%,0%);fill-opacity:0.6;stroke:none;"/>
  </g>
</mask>
<clipPath id="clip1">
  <rect x="0" y="0" width="70" height="70"/>
</clipPath>
<g id="surface5" clip-path="url(#clip1)">
<path style=" stroke:none;fill-rule:nonzero;fill:rgb(100%,100%,100%);fill-opacity:1;" d="M 24.410156 12.132813 C 24.410156 15.15625 21.960938 17.609375 18.933594 17.609375 C 15.910156 17.609375 13.460938 15.15625 13.460938 12.132813 C 13.460938 9.109375 15.910156 6.65625 18.933594 6.65625 C 21.960938 6.65625 24.410156 9.109375 24.410156 12.132813 Z M 24.410156 12.132813 "/>
</g>
<mask id="mask1">
  <g filter="url(#alpha)">
<rect x="0" y="0" width="70" height="70" style="fill:rgb(0%,0%,0%);fill-opacity:0.501961;stroke:none;"/>
  </g>
</mask>
<clipPath id="clip2">
  <rect x="0" y="0" width="70" height="70"/>
</clipPath>
<g id="surface8" clip-path="url(#clip2)">
<path style=" stroke:none;fill-rule:nonzero;fill:rgb(100%,100%,100%);fill-opacity:1;" d="M 24.410156 12.132813 C 21.058594 10.621094 19.570313 6.679688 21.082031 3.328125 C 22.59375 -0.0234375 26.535156 -1.511719 29.886719 0 L 29.886719 6.65625 C 28.460938 8.519531 26.003906 9.269531 23.78125 8.515625 C 21.558594 7.761719 20.0625 5.675781 20.0625 3.328125 C 20.0625 0.980469 21.558594 -1.105469 23.78125 -1.855469 C 26.003906 -2.609375 28.460938 -1.863281 29.886719 0 Z M 24.410156 12.132813 "/>
</g>
</defs>
<g id="surface1">
<path style=" stroke:none;fill-rule:nonzero;fill:rgb(0%,35.686275%,63.137255%);fill-opacity:1;" d="M 58.765625 12.703125 L 21.410156 12.703125 L 21.410156 8 L 58.765625 8 C 56.554688 24.226563 41.609375 35.589844 25.382813 33.382813 C 9.15625 31.171875 -2.210938 16.226563 0 0 L 3.339844 1.410156 C 2.949219 2.335938 1.886719 2.765625 0.964844 2.375 C 0.0429688 1.984375 -0.390625 0.921875 0 0 L -3.339844 1.410156 C -3.964844 2.875 -5.585938 3.640625 -7.113281 3.191406 C -8.640625 2.738281 -9.585938 1.214844 -9.3125 -0.351563 C -9.039063 -1.921875 -7.636719 -3.035156 -6.046875 -2.945313 C -4.457031 -2.855469 -3.1875 -1.589844 -3.09375 0 Z M 58.765625 12.703125 "/>
<path style=" stroke:none;fill-rule:nonzero;fill:rgb(0%,47.058824%,83.137255%);fill-opacity:1;" d="M 59.050781 42.390625 L 62.121094 50 C 48.3125 49.453125 37.566406 37.816406 38.109375 24.011719 C 38.65625 10.203125 50.292969 -0.546875 64.101563 0 L 55.589844 -2.128906 C 57.066406 -3.644531 59.429688 -3.847656 61.140625 -2.605469 C 62.855469 -1.363281 63.394531 0.949219 62.40625 2.820313 C 61.421875 4.691406 59.210938 5.554688 57.21875 4.847656 C 55.226563 4.136719 54.054688 2.074219 54.472656 0 L 22.945313 21.777344 L 30.9375 13.789063 L 58.113281 40.964844 C 46.800781 41.972656 36.8125 33.613281 35.808594 22.304688 C 34.804688 10.992188 43.160156 1.003906 54.472656 0 Z M 59.050781 42.390625 "/>
<path style=" stroke:none;fill-rule:nonzero;fill:url(#linear0);" d="M 18.9375 0 C 25.957031 0 31.648438 5.691406 31.648438 12.710938 L 31.648438 57.289063 C 31.648438 64.308594 25.957031 70 18.9375 70 C 11.917969 70 6.226563 64.308594 6.226563 57.289063 L 6.226563 12.710938 C 6.226563 5.691406 11.917969 0 18.9375 0 Z M 18.9375 0 "/>
<path style=" stroke:none;fill-rule:nonzero;fill:url(#linear1);" d="M 18.933594 70 L 18.933594 0 C 23.5 5.09375 23.214844 12.886719 18.292969 17.636719 C 13.367188 22.382813 5.566406 22.382813 0.644531 17.636719 C -4.28125 12.886719 -4.566406 5.09375 0 0 L 0 44.574219 C -12.308594 44.574219 -22.289063 34.597656 -22.289063 22.289063 C -22.289063 9.976563 -12.308594 0 0 0 Z M 18.933594 70 "/>
<use xlink:href="#surface5" mask="url(#mask0)"/>
<use xlink:href="#surface8" mask="url(#mask1)"/>
</g>
</svg>
