<?xml version="1.0" encoding="UTF-8"?>
<svg xmlns="http://www.w3.org/2000/svg" xmlns:xlink="http://www.w3.org/1999/xlink" width="70pt" height="70pt" viewBox="0 0 70 70" version="1.1">
<defs>
<filter id="alpha" filterUnits="objectBoundingBox" x="0%" y="0%" width="100%" height="100%">
  <feColorMatrix type="matrix" in="SourceGraphic" values="0 0 0 0 1 0 0 0 0 1 0 0 0 0 1 0 0 0 1 0"/>
</filter>
<mask id="mask0">
  <g filter="url(#alpha)">
<rect x="0" y="0" width="70" height="70" style="fill:rgb(0,0,0);fill-opacity:0.2;stroke:none;"/>
  </g>
</mask>
<clipPath id="clip1">
  <rect x="0" y="0" width="70" height="70"/>
</clipPath>
<g id="surface5" clip-path="url(#clip1)">
<path style=" stroke:none;fill-rule:nonzero;fill:rgb(255,255,255);fill-opacity:1;" d="M 2.820313 5.386719 C 1.269531 5.386719 0.0117188 6.644531 0.0117188 8.195313 L 0.0117188 62.261719 C 0.0117188 63.816406 1.269531 65.074219 2.820313 65.074219 L 5.882813 65.074219 L 61.066406 5.386719 Z M 2.820313 5.386719 "/>
</g>
</defs>
<g id="surface1">
<path style=" stroke:none;fill-rule:nonzero;fill:rgb(0,102,178);fill-opacity:1;" d="M 0 62.261719 C 0 63.816406 1.257813 65.074219 2.808594 65.074219 L 67.191406 65.074219 C 68.742188 65.074219 70 63.816406 70 62.261719 L 70 18.402344 L 0 18.402344 Z M 0 62.261719 "/>
<path style=" stroke:none;fill-rule:nonzero;fill:rgb(65,174,255);fill-opacity:1;" d="M 67.191406 5.386719 L 2.808594 5.386719 C 1.257813 5.386719 0 6.644531 0 8.195313 L 0 23.074219 L 70 23.074219 L 70 8.195313 C 70 6.644531 68.742188 5.386719 67.191406 5.386719 "/>
<use xlink:href="#surface5" mask="url(#mask0)"/>
<path style=" stroke:none;fill-rule:nonzero;fill:rgb(255,255,255);fill-opacity:1;" d="M 18 12.078125 L 65.140625 12.078125 L 65.140625 17.59375 L 18 17.59375 Z M 18 12.078125 "/>
<path style=" stroke:none;fill-rule:nonzero;fill:rgb(57,171,255);fill-opacity:1;" d="M 15.835938 14.742188 C 15.835938 18.511719 12.777344 21.570313 9.003906 21.570313 C 5.234375 21.570313 2.175781 18.511719 2.175781 14.742188 C 2.175781 10.96875 5.234375 7.910156 9.003906 7.910156 C 12.773438 7.910156 15.835938 10.96875 15.835938 14.742188 "/>
<path style=" stroke:none;fill-rule:nonzero;fill:rgb(255,255,255);fill-opacity:1;" d="M 8.28125 15.511719 L 11.378906 18.78125 L 9.699219 18.78125 L 5.554688 14.835938 L 9.683594 10.890625 L 11.359375 10.890625 L 8.28125 14.140625 L 15.832031 14.140625 L 15.832031 15.511719 Z M 8.28125 15.511719 "/>
<path style=" stroke:none;fill-rule:nonzero;fill:rgb(255,255,255);fill-opacity:1;" d="M 24.199219 37.0625 L 20.5 49.40625 L 18.449219 49.40625 L 15.90625 40.570313 C 15.808594 40.230469 15.746094 39.847656 15.714844 39.425781 L 15.664063 39.425781 C 15.640625 39.714844 15.558594 40.085938 15.414063 40.546875 L 12.652344 49.40625 L 10.675781 49.40625 L 6.9375 37.0625 L 9.011719 37.0625 L 11.566406 46.34375 C 11.648438 46.625 11.703125 46.992188 11.734375 47.453125 L 11.832031 47.453125 C 11.855469 47.097656 11.929688 46.722656 12.050781 46.320313 L 14.894531 37.0625 L 16.703125 37.0625 L 19.257813 46.367188 C 19.339844 46.664063 19.398438 47.035156 19.4375 47.476563 L 19.535156 47.476563 C 19.550781 47.160156 19.621094 46.792969 19.738281 46.367188 L 22.246094 37.0625 Z M 24.199219 37.0625 "/>
<path style=" stroke:none;fill-rule:nonzero;fill:rgb(255,255,255);fill-opacity:1;" d="M 43.273438 37.0625 L 39.574219 49.40625 L 37.523438 49.40625 L 34.980469 40.570313 C 34.882813 40.230469 34.820313 39.847656 34.789063 39.425781 L 34.738281 39.425781 C 34.714844 39.714844 34.628906 40.085938 34.484375 40.546875 L 31.722656 49.40625 L 29.75 49.40625 L 26.011719 37.0625 L 28.085938 37.0625 L 30.640625 46.34375 C 30.722656 46.625 30.777344 46.992188 30.8125 47.453125 L 30.90625 47.453125 C 30.929688 47.097656 31.003906 46.722656 31.125 46.320313 L 33.96875 37.0625 L 35.777344 37.0625 L 38.332031 46.367188 C 38.414063 46.664063 38.476563 47.035156 38.515625 47.476563 L 38.609375 47.476563 C 38.625 47.160156 38.695313 46.792969 38.816406 46.367188 L 41.324219 37.0625 Z M 43.273438 37.0625 "/>
<path style=" stroke:none;fill-rule:nonzero;fill:rgb(255,255,255);fill-opacity:1;" d="M 62.347656 37.0625 L 58.648438 49.40625 L 56.597656 49.40625 L 54.054688 40.570313 C 53.957031 40.230469 53.894531 39.847656 53.863281 39.425781 L 53.8125 39.425781 C 53.789063 39.714844 53.707031 40.085938 53.558594 40.546875 L 50.800781 49.40625 L 48.820313 49.40625 L 45.085938 37.0625 L 47.160156 37.0625 L 49.714844 46.34375 C 49.796875 46.625 49.851563 46.992188 49.882813 47.453125 L 49.980469 47.453125 C 50.003906 47.097656 50.078125 46.722656 50.195313 46.320313 L 53.042969 37.0625 L 54.851563 37.0625 L 57.40625 46.367188 C 57.484375 46.664063 57.546875 47.035156 57.585938 47.476563 L 57.683594 47.476563 C 57.699219 47.160156 57.765625 46.792969 57.886719 46.367188 L 60.394531 37.0625 Z M 62.347656 37.0625 "/>
</g>
</svg>
