<?xml version="1.0" encoding="UTF-8"?>
<svg xmlns="http://www.w3.org/2000/svg" xmlns:xlink="http://www.w3.org/1999/xlink" width="70pt" height="70pt" viewBox="0 0 70 70" version="1.1">
<defs>
<linearGradient id="linear0" gradientUnits="userSpaceOnUse" x1="9" y1="-0.636" x2="9" y2="19.263" gradientTransform="matrix(3.888889,0,0,3.888889,0,0)">
<stop offset="0" style="stop-color:rgb(89,184,255);stop-opacity:1;"/>
<stop offset="0.125" style="stop-color:rgb(75,178,255);stop-opacity:1;"/>
<stop offset="1" style="stop-color:rgb(0,138,240);stop-opacity:1;"/>
</linearGradient>
<filter id="alpha" filterUnits="objectBoundingBox" x="0%" y="0%" width="100%" height="100%">
  <feColorMatrix type="matrix" in="SourceGraphic" values="0 0 0 0 1 0 0 0 0 1 0 0 0 0 1 0 0 0 1 0"/>
</filter>
<mask id="mask0">
  <g filter="url(#alpha)">
<rect x="0" y="0" width="70" height="70" style="fill:rgb(0,0,0);fill-opacity:0.701961;stroke:none;"/>
  </g>
</mask>
<clipPath id="clip1">
  <rect x="0" y="0" width="70" height="70"/>
</clipPath>
<g id="surface5" clip-path="url(#clip1)">
<path style=" stroke:none;fill-rule:nonzero;fill:rgb(255,255,255);fill-opacity:1;" d="M 50.742188 3.605469 C 95.433594 4.203125 131.179688 40.921875 130.578125 85.613281 C 129.980469 130.304688 93.265625 166.046875 48.570313 165.449219 C 48.5 165.515625 48.46875 165.582031 48.402344 165.648438 C 75.527344 163.820313 99.1875 183.894531 101.800781 210.953125 C 104.414063 238.015625 85.035156 262.246094 58.058594 265.644531 C 31.085938 269.039063 6.300781 250.371094 2.125 223.503906 C -2.050781 196.640625 15.894531 171.328125 42.625 166.375 L 188.847656 312.597656 L 189.59375 312.597656 C 188.773438 320.839844 192.636719 327.226563 198.21875 326.867188 C 203.804688 326.507813 208.996094 319.53125 209.816406 311.289063 C 208.496094 310.183594 206.082031 308.089844 203.457031 305.433594 C 141.6875 277.265625 108.742188 209.097656 125.050781 143.195313 C 141.359375 77.292969 202.296875 32.355469 270.074219 36.25 C 337.851563 40.140625 393.242188 91.757813 401.898438 159.09375 C 410.554688 226.429688 370.023438 290.378906 305.433594 311.289063 Z M 50.742188 3.605469 "/>
</g>
<mask id="mask1">
  <g filter="url(#alpha)">
<rect x="0" y="0" width="70" height="70" style="fill:rgb(0,0,0);fill-opacity:0.701961;stroke:none;"/>
  </g>
</mask>
<clipPath id="clip2">
  <rect x="0" y="0" width="70" height="70"/>
</clipPath>
<g id="surface8" clip-path="url(#clip2)">
<path style=" stroke:none;fill-rule:nonzero;fill:rgb(255,255,255);fill-opacity:1;" d="M 48.917969 50.753906 C 34.902344 51.074219 23.28125 39.976563 22.957031 25.960938 C 22.636719 11.945313 33.738281 0.320313 47.75 0 C 41.53125 -0.832031 32.804688 -2.847656 29.601563 -3.605469 C 30.597656 -3.84375 31.597656 -3.226563 31.835938 -2.230469 C 32.070313 -1.238281 31.457031 -0.238281 30.460938 0 C 31.238281 1.710938 32.75 4.886719 33.652344 6.359375 C 22.015625 52.515625 -24.441406 80.855469 -70.804688 70.078125 C -117.171875 59.304688 -146.371094 13.386719 -136.460938 -33.171875 C -126.550781 -79.730469 -81.183594 -109.777344 -34.449219 -100.738281 C 12.285156 -91.695313 43.175781 -46.894531 35.003906 0 C 14.855469 -44.007813 29.113281 -96.125 68.855469 -123.746094 C 108.597656 -151.371094 162.417969 -146.566406 196.640625 -112.34375 C 230.867188 -78.121094 235.667969 -24.300781 208.046875 15.441406 C 180.425781 55.1875 128.304688 69.445313 84.300781 49.296875 L 84.300781 50.597656 C -1060.035156 1549.28125 -1990.941406 2764.203125 -1994.941406 2764.203125 C -1998.941406 2764.203125 -1074.519531 1549.28125 69.8125 50.597656 Z M 48.917969 50.753906 "/>
</g>
</defs>
<g id="surface1">
<path style=" stroke:none;fill-rule:nonzero;fill:url(#linear0);" d="M 13.726563 62.785156 C 29.402344 65.835938 45.15625 57.890625 52.015625 43.46875 C 58.878906 29.050781 55.109375 11.8125 42.855469 1.574219 C 30.601563 -8.667969 12.972656 -9.3125 0 0 Z M 13.726563 62.785156 "/>
<use xlink:href="#surface5" mask="url(#mask0)"/>
<path style=" stroke:none;fill-rule:nonzero;fill:rgb(255,255,255);fill-opacity:1;" d="M 59.007813 21.332031 C 70.695313 -2.617188 96.941406 -15.808594 123.132813 -10.898438 C 149.324219 -5.988281 169.011719 15.8125 171.230469 42.367188 C 173.453125 68.921875 157.664063 93.691406 132.652344 102.886719 C 107.640625 112.078125 79.566406 103.433594 64.0625 81.761719 C 65.492188 81.8125 66.9375 81.910156 68.386719 82.066406 C 40.15625 79.089844 19.09375 54.695313 20.269531 26.335938 C 21.441406 -2.027344 44.441406 -24.597656 72.820313 -25.234375 C 101.199219 -25.875 125.191406 -4.355469 127.636719 23.925781 C 130.078125 52.203125 110.132813 77.519531 82.066406 81.761719 C 79.734375 83.316406 77.34375 84.808594 74.890625 86.234375 C 98.019531 63.109375 135.519531 63.109375 158.648438 86.234375 C 181.777344 109.363281 181.777344 146.863281 158.648438 169.992188 L 158.648438 171.132813 C -275.917969 1288.304688 -633.804688 2194.117188 -640.722656 2194.316406 C -647.636719 2194.515625 -300.960938 1289.035156 133.601563 171.863281 Z M 59.007813 21.332031 "/>
<use xlink:href="#surface8" mask="url(#mask1)"/>
</g>
</svg>
