<?xml version="1.0" encoding="utf-8"?><svg viewBox="0 0 18 18" class="" role="presentation" focusable="false" xmlns="http://www.w3.org/2000/svg" xmlns:xlink="http://www.w3.org/1999/xlink" id="FxSymbol0-08d" data-type="1" width="100%" height="70" preserveAspectRatio="xMidYMid meet"><g><path fill="url(#40fd3475-21aa-4a8a-956c-13a617e35134)" d="M3.53 16.145A9 9 0 019.008 0a8.91 8.91 0 015.459 1.854A9 9 0 113.53 16.145z"></path><path d="M13.048.927a8.892 8.892 0 00-1.387-.558 41.617 41.617 0 01-7.122 7.477c-.019.017-.027.034-.044.051a12.922 12.922 0 01-1.117-1.485.187.187 0 00-.332.032 37.6 37.6 0 00-1.419 4.38.192.192 0 00.154.236 12.938 12.938 0 005.2-.336.188.188 0 00.07-.326c-.34-.285-.96-.823-1.635-1.506A36.274 36.274 0 0013.048.927z" opacity=".7" class="msportalfx-svg-c01" fill="#FFFFFF"></path><path d="M15.173 5.485a15.227 15.227 0 01-1.438 1.3 15.539 15.539 0 00-10.3-4.9A8.464 8.464 0 001.8 3.545c.368.014.739.039 1.112.079a13.836 13.836 0 018.93 4.546q-.9.6-1.845 1.151a.187.187 0 00.032.339 21.537 21.537 0 015.04 2.485.189.189 0 00.294-.113 21.256 21.256 0 00.132-6.44.187.187 0 00-.322-.107z" class="msportalfx-svg-c01" fill="#FFFFFF"></path><path d="M12.579 13.051a.2.2 0 00-.145-.3c-1.6-.214-3.844-.732-4.667-.927a.159.159 0 00-.182.221c.2.44.588 1.257.82 1.635a22.458 22.458 0 01-6.868.348A9.236 9.236 0 002.875 15.6a25.715 25.715 0 006.191-.587 12.676 12.676 0 01.641 1.7.192.192 0 00.335.063 37.364 37.364 0 002.537-3.725z" opacity=".7" class="msportalfx-svg-c01" fill="#FFFFFF"></path></g><defs><linearGradient id="40fd3475-21aa-4a8a-956c-13a617e35134" x1="9" x2="9" y1="-.636" y2="19.263" gradientUnits="userSpaceOnUse"><stop offset="0" stop-color="#59B8FF"></stop><stop offset=".125" stop-color="#4BB2FF"></stop><stop offset="1" stop-color="#008AF0"></stop></linearGradient></defs></svg>