<?xml version="1.0" encoding="utf-8"?><svg version="1.1" xmlns="http://www.w3.org/2000/svg" xmlns:xlink="http://www.w3.org/1999/xlink" xmlns:xml="http://www.w3.org/XML/1998/namespace" width="70" height="70" viewBox="0, 0, 18, 18" id="f6a79126-a7ef-4190-b01b-e34b5ccb7977"><defs><linearGradient x1="9" y1="13.51" x2="9" y2="0.76" gradientUnits="userSpaceOnUse" id="efc95f57-28bf-41de-a09e-d4f8c25449a4"><stop offset="0%" stop-color="#41AEFF" /><stop offset="44%" stop-color="#47B0FF" /><stop offset="85%" stop-color="#53B6FF" /><stop offset="100%" stop-color="#5BB9FF" /></linearGradient></defs><title>Icon-web-49</title><rect y="0.76" width="18" height="12.75" rx="0.6" style="fill:url(#efc95f57-28bf-41de-a09e-d4f8c25449a4);" /><rect x="1.05" y="1.88" width="15.9" height="10.5" rx="0.3" style="fill:white;" /><path d="M14.94 9.34 a0.29 0.29 0 0 1 -0.28 0.29 H8.16 a0.29 0.29 0 0 1 0 -0.58 h6.5 a0.28 0.28 0 0 1 0.28 0.29" id="bcc3d4fb-2f67-48ef-b6e7-f3c11ba0061b" style="fill:#0084E6;" /><path d="M14.94 7.54 a0.29 0.29 0 0 1 -0.28 0.29 H8.16 a0.29 0.29 0 0 1 0 -0.58 h6.5 a0.28 0.28 0 0 1 0.28 0.29" id="e696babd-447d-4e2b-bc61-f978fd3ed1bc" style="fill:#0084E6;" /><path d="M14.94 4.93 a0.28 0.28 0 0 1 -0.28 0.29 H3.77 a0.29 0.29 0 1 1 0 -0.58 H14.66 a0.28 0.28 0 0 1 0.28 0.29" id="b5d2bd6a-dd0a-43be-bfa5-16266f75812c" style="fill:#0084E6;" /><path d="M5.13 12.69 a2.52 2.52 0 0 1 -3.37 0 l-0.21 4.19 a0.33 0.33 0 0 0 0.57 0.25 l1.3 -1.32 l1.31 1.33 a0.33 0.33 0 0 0 0.57 -0.24 Z" id="aad840c2-43d5-415e-a865-328ca9d53f36" style="fill:#005290;" /><ellipse cx="3.48" cy="10.54" rx="3.01" ry="3.02" id="beae3214-3e24-4a7c-af86-a4353a2d1797" style="fill:#006BBA;" /><ellipse cx="3.48" cy="10.54" rx="2.29" ry="2.29" id="f1e213df-20de-4eb9-9bf3-0c6690c16a0a" style="fill:#7DC7FF;" /></svg>