<?xml version="1.0" encoding="utf-8"?><svg version="1.1" xmlns="http://www.w3.org/2000/svg" xmlns:xlink="http://www.w3.org/1999/xlink" xmlns:xml="http://www.w3.org/XML/1998/namespace" width="70" height="70" viewBox="0, 0, 18, 18" id="f470e112-f1d8-4c18-a381-9b54e11a9ca3"><defs><linearGradient x1="9" y1="0.36" x2="9" y2="18.31" gradientUnits="userSpaceOnUse" id="b198f9ad-224e-4f37-99bb-f1c5a20d3916"><stop offset="18%" stop-color="#5EA0EF" /><stop offset="100%" stop-color="#0078D4" /></linearGradient></defs><title>Icon-web-44</title><path d="M18 11.32 a4.12 4.12 0 0 0 -3.51 -4 a5.15 5.15 0 0 0 -5.25 -5 a5.25 5.25 0 0 0 -5 3.49 A4.86 4.86 0 0 0 0 10.59 a5 5 0 0 0 5.07 4.82 l0.44 0 h8.21 a0.78 0.78 0 0 0 0.22 0 A4.13 4.13 0 0 0 18 11.32 Z" style="fill:url(#b198f9ad-224e-4f37-99bb-f1c5a20d3916);" /><path d="M12.33 6.59 a3.07 3.07 0 0 0 -5.61 0.85 a3.16 3.16 0 0 0 0.33 2.27 L4.71 12.08 a0.79 0.79 0 0 0 0 1.12 a0.78 0.78 0 0 0 0.56 0.23 a0.76 0.76 0 0 0 0.56 -0.23 l2.33 -2.36 a3.14 3.14 0 0 0 0.81 0.33 a3.08 3.08 0 0 0 3.36 -4.58 Z m-0.54 2.1 A2.16 2.16 0 0 1 9.7 10.34 a1.79 1.79 0 0 1 -0.51 -0.07 a1.87 1.87 0 0 1 -0.7 -0.32 a2.13 2.13 0 0 1 -0.56 -0.56 a2.17 2.17 0 0 1 -0.31 -1.73 A2.14 2.14 0 0 1 9.7 6 a2.31 2.31 0 0 1 0.52 0.06 a2.18 2.18 0 0 1 1.32 1 A2.13 2.13 0 0 1 11.79 8.69 Z" style="fill:#F2F2F2;" /><ellipse cx="9.69" cy="8.18" rx="2.15" ry="2.16" style="fill:#83B9F9;" /></svg>