<?xml version="1.0" encoding="utf-8"?><svg viewBox="0 0 17 17" class="" role="presentation" focusable="false" xmlns="http://www.w3.org/2000/svg" xmlns:xlink="http://www.w3.org/1999/xlink" id="FxSymbol0-010" data-type="1" width="100%" height="70" preserveAspectRatio="xMidYMid meet"><g><title></title><path d="M1 2a1 1 0 0 1 1-1h13a1 1 0 0 1 1 1v13a1 1 0 0 1-1 1H2a1 1 0 0 1-1-1V2Z" fill="#006CBC"></path><path fill-rule="evenodd" clip-rule="evenodd" d="M9 8V1H8v7H1v1h7v7h1V9h7V8H9Z" fill-opacity=".8" class="msportalfx-svg-c01" fill="#FFFFFF"></path><path fill-rule="evenodd" clip-rule="evenodd" d="M4 13V4h1v9H4Z" class="msportalfx-svg-c01" fill="#FFFFFF"></path><path fill-rule="evenodd" clip-rule="evenodd" d="m4.396 5.104.708-.708 7.5 7.5-.707.708-7.5-7.5Z" class="msportalfx-svg-c01" fill="#FFFFFF"></path><path fill-rule="evenodd" clip-rule="evenodd" d="M13 5H5V4h8v1Z" class="msportalfx-svg-c01" fill="#FFFFFF"></path><circle cx="4.5" cy="4.5" r="2.5" fill="url(#8482b08e-87f0-4a75-91a3-f1dd0c717009)"></circle><circle cx="12.5" cy="4.5" r="1.5" fill="url(#8482b08e-87f0-4a75-91a3-f1dd0c71700a)"></circle><circle cx="4.5" cy="12.5" r="1.5" fill="url(#8482b08e-87f0-4a75-91a3-f1dd0c71700b)"></circle><circle cx="12.5" cy="12.5" r="1.5" fill="url(#8482b08e-87f0-4a75-91a3-f1dd0c71700c)"></circle><defs></defs></g><defs><linearGradient id="8482b08e-87f0-4a75-91a3-f1dd0c717009" x1="4.518" y1="7.064" x2="4.491" y2="3.447" gradientUnits="userSpaceOnUse"><stop stop-color="#CCCCCCCCCCCCCCC"></stop><stop offset=".12" stop-color="#ADDCFF"></stop><stop offset=".42" stop-color="#D7EEFF"></stop><stop offset=".72" stop-color="#F1F9FF"></stop><stop offset="1" stop-color="#F9FCFF"></stop></linearGradient><linearGradient id="8482b08e-87f0-4a75-91a3-f1dd0c71700a" x1="12.511" y1="6.038" x2="12.495" y2="3.868" gradientUnits="userSpaceOnUse"><stop stop-color="#CCCCCCCCCCCCCCC"></stop><stop offset=".12" stop-color="#ADDCFF"></stop><stop offset=".42" stop-color="#D7EEFF"></stop><stop offset=".72" stop-color="#F1F9FF"></stop><stop offset="1" stop-color="#F9FCFF"></stop></linearGradient><linearGradient id="8482b08e-87f0-4a75-91a3-f1dd0c71700b" x1="4.511" y1="14.039" x2="4.495" y2="11.868" gradientUnits="userSpaceOnUse"><stop stop-color="#CCCCCCCCCCCCCCC"></stop><stop offset=".12" stop-color="#ADDCFF"></stop><stop offset=".42" stop-color="#D7EEFF"></stop><stop offset=".72" stop-color="#F1F9FF"></stop><stop offset="1" stop-color="#F9FCFF"></stop></linearGradient><linearGradient id="8482b08e-87f0-4a75-91a3-f1dd0c71700c" x1="12.511" y1="14.039" x2="12.495" y2="11.868" gradientUnits="userSpaceOnUse"><stop stop-color="#CCCCCCCCCCCCCCC"></stop><stop offset=".12" stop-color="#ADDCFF"></stop><stop offset=".42" stop-color="#D7EEFF"></stop><stop offset=".72" stop-color="#F1F9FF"></stop><stop offset="1" stop-color="#F9FCFF"></stop></linearGradient></defs></svg>