<?xml version="1.0" encoding="UTF-8"?>
<svg xmlns="http://www.w3.org/2000/svg" xmlns:xlink="http://www.w3.org/1999/xlink" width="70pt" height="70pt" viewBox="0 0 70 70" version="1.1">
<defs>
<linearGradient id="linear0" gradientUnits="userSpaceOnUse" x1="9" y1="15.432" x2="9" y2="5.977" gradientTransform="matrix(3.888889,0,0,3.888889,0,0)">
<stop offset="0" style="stop-color:rgb(47,166,255);stop-opacity:1;"/>
<stop offset="0.175" style="stop-color:rgb(63,173,255);stop-opacity:1;"/>
<stop offset="0.41" style="stop-color:rgb(75,178,255);stop-opacity:1;"/>
<stop offset="0.775" style="stop-color:rgb(79,180,255);stop-opacity:1;"/>
</linearGradient>
</defs>
<g id="surface1">
<path style=" stroke:none;fill-rule:nonzero;fill:url(#linear0);" d="M 3.890625 23.242188 L 66.109375 23.242188 L 66.109375 57.945313 C 66.109375 59.09375 65.179688 60.023438 64.03125 60.023438 L 5.96875 60.023438 C 4.820313 60.023438 3.890625 59.09375 3.890625 57.945313 Z M 3.890625 23.242188 "/>
<path style=" stroke:none;fill-rule:nonzero;fill:rgb(0,108,188);fill-opacity:1;" d="M 5.984375 9.988281 L 64.023438 9.988281 C 65.171875 9.980469 66.105469 10.90625 66.109375 12.054688 L 66.109375 23.242188 L 3.890625 23.242188 L 3.890625 12.054688 C 3.890625 11.503906 4.113281 10.972656 4.507813 10.585938 C 4.902344 10.199219 5.433594 9.984375 5.984375 9.988281 Z M 5.984375 9.988281 "/>
<path style=" stroke:none;fill-rule:nonzero;fill:rgb(229,243,255);fill-opacity:1;" d="M 13.667969 13.921875 L 56.34375 13.921875 C 56.90625 13.921875 57.363281 14.378906 57.363281 14.945313 L 57.363281 18.148438 C 57.363281 18.714844 56.90625 19.171875 56.34375 19.171875 L 13.667969 19.171875 C 13.105469 19.171875 12.648438 18.714844 12.648438 18.148438 L 12.648438 14.945313 C 12.648438 14.378906 13.105469 13.921875 13.667969 13.921875 Z M 13.667969 13.921875 "/>
<path style=" stroke:none;fill-rule:nonzero;fill:rgb(229,243,255);fill-opacity:1;" d="M 25.710938 52.378906 L 33.699219 30.8125 C 33.820313 30.488281 33.773438 30.128906 33.578125 29.851563 C 33.378906 29.570313 33.058594 29.402344 32.71875 29.398438 L 27.75 29.398438 C 27.3125 29.402344 26.921875 29.671875 26.769531 30.085938 L 18.78125 51.652344 C 18.660156 51.972656 18.707031 52.332031 18.902344 52.613281 C 19.097656 52.890625 19.417969 53.058594 19.757813 53.058594 L 24.726563 53.058594 C 25.164063 53.058594 25.554688 52.789063 25.710938 52.378906 Z M 43.230469 52.378906 L 51.21875 30.8125 C 51.339844 30.492188 51.296875 30.132813 51.101563 29.847656 C 50.902344 29.566406 50.582031 29.398438 50.242188 29.398438 L 45.273438 29.398438 C 44.835938 29.398438 44.441406 29.671875 44.289063 30.085938 L 36.300781 51.652344 C 36.179688 51.972656 36.226563 52.332031 36.421875 52.613281 C 36.621094 52.894531 36.941406 53.0625 37.28125 53.058594 L 42.25 53.058594 C 42.6875 53.058594 43.078125 52.789063 43.230469 52.378906 Z M 43.230469 52.378906 "/>
</g>
</svg>
