<?xml version="1.0" encoding="UTF-8"?>
<svg xmlns="http://www.w3.org/2000/svg" xmlns:xlink="http://www.w3.org/1999/xlink" width="70pt" height="47pt" viewBox="0 0 70 47" version="1.1">
<g id="surface1">
<path style=" stroke:none;fill-rule:evenodd;fill:rgb(0%,47.058824%,84.313725%);fill-opacity:1;" d="M 60.136719 20.992188 C 60.613281 19.582031 60.773438 18.171875 60.773438 16.761719 C 60.773438 7.519531 53.296875 0 44.226563 0 C 37.386719 0 31.5 4.230469 28.953125 10.339844 C 26.886719 7.675781 23.703125 6.265625 20.046875 6.265625 C 13.683594 6.265625 8.433594 11.59375 8.433594 18.171875 C 8.433594 19.269531 8.589844 20.367188 8.910156 21.464844 C 3.660156 23.34375 0 27.886719 0 33.839844 C 0 41.515625 6.203125 47.15625 13.839844 47.15625 L 56.316406 47.15625 C 63.953125 47.15625 70 41.515625 70 33.839844 C 69.839844 27.574219 65.863281 22.875 60.136719 20.992188 Z M 50.910156 26.789063 C 49.636719 31.648438 45.339844 35.09375 40.25 35.09375 C 39.453125 35.09375 38.5 34.9375 37.546875 34.78125 C 36.75 34.464844 35.796875 34.152344 34.839844 33.839844 L 27.203125 41.359375 C 26.566406 41.988281 25.773438 42.300781 24.976563 42.300781 C 24.183594 42.300781 23.226563 41.988281 22.75 41.359375 C 22.113281 40.734375 21.796875 39.949219 21.796875 39.167969 C 21.796875 38.382813 22.113281 37.441406 22.75 36.972656 L 30.386719 29.453125 C 29.113281 27.101563 28.636719 24.285156 29.433594 21.777344 C 30.703125 16.921875 35 13.472656 40.089844 13.472656 C 40.886719 13.472656 41.839844 13.628906 42.796875 13.785156 C 45.660156 14.414063 48.046875 16.292969 49.476563 18.800781 C 51.226563 21.148438 51.703125 24.125 50.910156 26.789063 Z M 50.910156 26.789063 "/>
<path style=" stroke:none;fill-rule:evenodd;fill:rgb(0%,47.058824%,84.313725%);fill-opacity:1;" d="M 42 17.703125 C 41.363281 17.546875 40.886719 17.546875 40.25 17.546875 C 37.226563 17.546875 34.363281 19.582031 33.726563 22.714844 C 33.25 24.441406 33.566406 26.632813 34.683594 28.042969 C 35.160156 28.671875 35.796875 29.296875 36.433594 29.765625 C 37.066406 30.238281 37.863281 30.550781 38.660156 30.707031 C 39.296875 30.863281 39.773438 30.863281 40.410156 30.863281 C 43.433594 30.863281 46.296875 28.828125 46.933594 25.691406 C 47.410156 23.96875 47.089844 22.089844 46.136719 20.523438 C 45.183594 19.269531 43.589844 18.171875 42 17.703125 Z M 42 17.703125 "/>
</g>
</svg>
