<?xml version="1.0" encoding="UTF-8"?>
<svg xmlns="http://www.w3.org/2000/svg" xmlns:xlink="http://www.w3.org/1999/xlink" width="70pt" height="32pt" viewBox="0 0 70 32" version="1.1">
<defs>
<filter id="alpha" filterUnits="objectBoundingBox" x="0%" y="0%" width="100%" height="100%">
  <feColorMatrix type="matrix" in="SourceGraphic" values="0 0 0 0 1 0 0 0 0 1 0 0 0 0 1 0 0 0 1 0"/>
</filter>
<mask id="mask0">
  <g filter="url(#alpha)">
<rect x="0" y="0" width="70" height="32" style="fill:rgb(0%,0%,0%);fill-opacity:0.2;stroke:none;"/>
  </g>
</mask>
<clipPath id="clip1">
  <rect x="0" y="0" width="70" height="32"/>
</clipPath>
<g id="surface5" clip-path="url(#clip1)">
<path style=" stroke:none;fill-rule:nonzero;fill:rgb(100%,100%,100%);fill-opacity:1;" d="M 35.421875 31.582031 C 34.019531 30.191406 32.898438 28.523438 32.480469 26.296875 C 31.21875 20.453125 34.71875 14.746094 40.460938 13.496094 C 41.71875 13.21875 42.839844 13.21875 44.101563 13.355469 C 44.519531 7.929688 47.878906 3.199219 52.921875 0.835938 C 51.378906 0.417969 49.839844 0 48.160156 0 C 41.300781 0 35.421875 4.589844 33.320313 10.574219 C 32.199219 10.296875 31.078125 10.015625 29.820313 10.015625 C 23.800781 10.015625 19.179688 14.886719 19.179688 20.871094 C 19.179688 26.851563 23.941406 31.722656 29.820313 31.722656 Z M 35.421875 31.582031 "/>
</g>
</defs>
<g id="surface1">
<path style=" stroke:none;fill-rule:nonzero;fill:rgb(47.843137%,47.843137%,47.843137%);fill-opacity:1;" d="M 48.859375 8.488281 L 11.621094 8.488281 C 10.078125 8.488281 8.820313 7.234375 8.820313 5.703125 C 8.820313 4.175781 10.078125 2.921875 11.621094 2.921875 L 48.859375 2.921875 C 50.398438 2.921875 51.660156 4.175781 51.660156 5.703125 C 51.660156 7.234375 50.398438 8.488281 48.859375 8.488281 Z M 48.859375 8.488281 "/>
<path style=" stroke:none;fill-rule:nonzero;fill:rgb(47.843137%,47.843137%,47.843137%);fill-opacity:1;" d="M 41.300781 31.722656 L 6.859375 31.722656 C 5.320313 31.722656 4.058594 30.46875 4.058594 28.9375 C 4.058594 27.410156 5.320313 26.15625 6.859375 26.15625 L 41.300781 26.15625 C 42.839844 26.15625 44.101563 27.410156 44.101563 28.9375 C 44.101563 30.46875 42.839844 31.722656 41.300781 31.722656 Z M 41.300781 31.722656 "/>
<path style=" stroke:none;fill-rule:nonzero;fill:rgb(47.843137%,47.843137%,47.843137%);fill-opacity:1;" d="M 37.238281 20.453125 L 2.800781 20.453125 C 1.261719 20.453125 0 19.199219 0 17.667969 C 0 16.140625 1.261719 14.886719 2.800781 14.886719 L 37.238281 14.886719 C 38.78125 14.886719 40.039063 16.140625 40.039063 17.667969 C 40.039063 19.199219 38.78125 20.453125 37.238281 20.453125 Z M 37.238281 20.453125 "/>
<path style=" stroke:none;fill-rule:nonzero;fill:rgb(22.352941%,60%,77.647059%);fill-opacity:1;" d="M 70 25.738281 C 70 22.398438 67.339844 19.757813 64.121094 19.757813 C 63.839844 19.757813 63.699219 19.757813 63.28125 19.757813 C 63.558594 18.503906 63.839844 17.113281 63.839844 15.582031 C 63.839844 6.957031 56.699219 0 48.160156 0 C 41.300781 0 35.421875 4.589844 33.320313 10.574219 C 32.199219 10.296875 31.078125 10.015625 29.820313 10.015625 C 23.800781 10.015625 19.179688 14.886719 19.179688 20.871094 C 19.179688 26.851563 23.941406 31.722656 29.820313 31.722656 L 64.398438 31.722656 C 67.621094 31.304688 70 28.800781 70 25.738281 "/>
<use xlink:href="#surface5" mask="url(#mask0)"/>
</g>
</svg>
