<?xml version="1.0" encoding="utf-8"?><svg version="1.1" xmlns="http://www.w3.org/2000/svg" xmlns:xlink="http://www.w3.org/1999/xlink" xmlns:xml="http://www.w3.org/XML/1998/namespace" width="70" height="70" viewBox="0, 0, 18, 18" id="f78ef37b-fde4-461c-94e2-dccff32dd5d7"><defs><linearGradient x1="9" y1="16.82" x2="9" y2="1.18" gradientUnits="userSpaceOnUse" id="bf8a9583-aae9-48ff-87d8-fb8f44e7d6bd"><stop offset="0%" stop-color="#007CD8" /><stop offset="9%" stop-color="#008DF6" /><stop offset="24%" stop-color="#1D9FFF" /><stop offset="40%" stop-color="#37AAFF" /><stop offset="57%" stop-color="#49B1FF" /><stop offset="78%" stop-color="#4FB4FF" /></linearGradient><linearGradient x1="8.36" y1="11.35" x2="8.36" y2="14.46" gradientUnits="userSpaceOnUse" id="f9b1bb8c-728e-4abf-bce5-6c11ac170c5b"><stop offset="0%" stop-color="#61BBFF" /><stop offset="100%" stop-color="#006FC2" /></linearGradient></defs><title>Icon-web-42</title><path d="M14.18 5.89 A4.85 4.85 0 0 0 9.23 1.18 A5 5 0 0 0 4.48 4.47 A4.61 4.61 0 0 0 0.5 9 A4.67 4.67 0 0 0 5.29 13.5 a3 3 0 0 0 0.42 0 h1.2 a1.47 1.47 0 0 1 -0.11 -0.56 v0 A1.51 1.51 0 0 1 7 12.21 H5.6 l-0.31 0 A3.41 3.41 0 0 1 1.77 9 A3.33 3.33 0 0 1 4.68 5.73 l0.76 -0.12 l0.25 -0.73 A3.73 3.73 0 0 1 9.23 2.45 A3.6 3.6 0 0 1 12.91 5.9 V7 L14 7.15 a2.59 2.59 0 0 1 2.26 2.49 a2.63 2.63 0 0 1 -2.62 2.54 h-0.15 l-0.08 0 h-1 A3.92 3.92 0 0 0 8.54 9 a0.64 0.64 0 1 0 0 1.27 a2.65 2.65 0 0 1 0 5.29 a0.64 0.64 0 1 0 0 1.27 a3.92 3.92 0 0 0 3.87 -3.34 h1.05 a0.64 0.64 0 0 0 0.2 0 A3.91 3.91 0 0 0 17.5 9.64 A3.86 3.86 0 0 0 14.18 5.89 Z" style="fill:url(#bf8a9583-aae9-48ff-87d8-fb8f44e7d6bd);" /><rect x="6.8" y="11.35" width="3.12" height="3.12" rx="1.54" style="fill:url(#f9b1bb8c-728e-4abf-bce5-6c11ac170c5b);" /></svg>