<?xml version="1.0" encoding="utf-8"?><svg version="1.1" xmlns="http://www.w3.org/2000/svg" xmlns:xlink="http://www.w3.org/1999/xlink" xmlns:xml="http://www.w3.org/XML/1998/namespace" width="70" height="70" viewBox="0, 0, 18, 18" id="f39db08f-c433-4b3e-8dd9-f5b32b0dd2e2"><defs><linearGradient x1="9" y1="15.83" x2="9" y2="5.79" gradientUnits="userSpaceOnUse" id="e3b462d3-4c3c-47e9-827b-0de254d5c11f"><stop offset="0%" stop-color="#2FA6FF" /><stop offset="18%" stop-color="#3FADFF" /><stop offset="41%" stop-color="#4BB2FF" /><stop offset="78%" stop-color="#4FB4FF" /></linearGradient></defs><title>Icon-web-50</title><path d="M0.5 5.79 h17 a0 0 0 0 1 0 0 v9.48 a0.57 0.57 0 0 1 -0.57 0.57 H1.07 a0.57 0.57 0 0 1 -0.57 -0.57 V5.79 A0 0 0 0 1 0.5 5.79 Z" style="fill:url(#e3b462d3-4c3c-47e9-827b-0de254d5c11f);" /><path d="M1.07 2.17 H16.93 a0.57 0.57 0 0 1 0.57 0.57 V5.79 a0 0 0 0 1 0 0 H0.5 a0 0 0 0 1 0 0 V2.73 A0.57 0.57 0 0 1 1.07 2.17 Z" style="fill:#00518E;" /><rect x="2.79" y="3.25" width="12.43" height="1.46" rx="0.28" style="fill:#E5F3FF;" /><path d="M6.68 9 l-0.9 3 H5.06 L4.51 10 a1.1 1.1 0 0 1 0 -0.27 h0 a1 1 0 0 1 0 0.26 L3.8 12 H3.09 L2.2 9 h0.71 l0.55 2.19 a1.43 1.43 0 0 1 0 0.26 h0 a1.32 1.32 0 0 1 0 -0.26 L4.18 9 h0.65 l0.55 2.2 a1.59 1.59 0 0 1 0 0.26 h0 a1.51 1.51 0 0 1 0 -0.26 L6 9 Z" style="fill:white;" /><path d="M11.28 9 l-0.9 3 H9.66 L9.11 10 a1.1 1.1 0 0 1 0 -0.27 h0 A1.85 1.85 0 0 1 9 10 L8.4 12 H7.7 L6.8 9 h0.71 l0.56 2.19 a1.56 1.56 0 0 1 0 0.26 h0 c0 -0.08 0 -0.17 0.05 -0.26 L8.79 9 h0.64 l0.55 2.2 a1.59 1.59 0 0 1 0 0.26 h0 a1.51 1.51 0 0 1 0 -0.26 L10.63 9 Z" style="fill:white;" /><path d="M15.89 9 L15 12 h-0.72 L13.71 10 a1.93 1.93 0 0 1 0 -0.27 h0 a1 1 0 0 1 -0.05 0.26 L13 12 H12.3 l-0.9 -3 h0.72 l0.55 2.19 a1.43 1.43 0 0 1 0 0.26 h0 a1.27 1.27 0 0 1 0 -0.26 L13.39 9 H14 l0.54 2.2 a1.59 1.59 0 0 1 0 0.26 h0 a1.66 1.66 0 0 1 0 -0.26 L15.23 9 Z" style="fill:white;" /></svg>