<?xml version="1.0" encoding="utf-8"?><svg viewBox="0 0 18 18" class="" role="presentation" focusable="false" xmlns="http://www.w3.org/2000/svg" xmlns:xlink="http://www.w3.org/1999/xlink" id="FxSymbol0-05e" data-type="1" width="100%" height="70" preserveAspectRatio="xMidYMid meet"><g><title>Icon-web-52</title><path d="M14.21 15.72A8.5 8.5 0 0 1 3.79 2.28l.09-.06a8.5 8.5 0 0 1 10.33 13.5" fill="url(#34ae82e7-78b5-4a8e-89e8-d27bb253b09a)"></path><g clip-path="url(#34ae82e7-78b5-4a8e-89e8-d27bb253b09b)"><path d="M4.13 7.05a.28.28 0 0 0 .2.48h6.12A1.55 1.55 0 0 1 11.6 8a1.61 1.61 0 0 1 .43.92 1.43 1.43 0 0 1-.36 1.15 1.41 1.41 0 0 1-1.12.54H8.44a.08.08 0 0 0-.09.06L7.81 12c-.12.29-.25.59-.37.89a.08.08 0 0 0 0 .09L9 14.48l2.59 2.59.46.49 2.14-1.19-.47-.37-1.43-1.44L10.74 13h-.07l.52-.07A3.84 3.84 0 0 0 14 10.65a3.85 3.85 0 0 0 0-3.08 3.93 3.93 0 0 0-.73-1.12 3.67 3.67 0 0 0-1.24-.89 4 4 0 0 0-1.66-.34h-3V4.05A.14.14 0 0 0 7.18 4Z" fill="#f2f2f2"></path></g></g><defs><radialGradient id="34ae82e7-78b5-4a8e-89e8-d27bb253b09a" cx="9" cy="9" r="8.5" gradientUnits="userSpaceOnUse"><stop offset=".18" stop-color="#5ea0ef"></stop><stop offset="1" stop-color="#0078d4"></stop></radialGradient><clipPath id="34ae82e7-78b5-4a8e-89e8-d27bb253b09b"><path d="M14.21 15.72A8.5 8.5 0 0 1 3.79 2.28l.09-.06a8.5 8.5 0 0 1 10.33 13.5" fill="none"></path></clipPath></defs></svg>