<?xml version="1.0" encoding="utf-8"?><svg version="1.1" xmlns="http://www.w3.org/2000/svg" xmlns:xlink="http://www.w3.org/1999/xlink" xmlns:xml="http://www.w3.org/XML/1998/namespace" width="70" height="70" viewBox="0, 0, 18, 18" id="FxSymbol0-08d" class="" role="presentation" focusable="false" data-type="1"><g><path d="M3.53 16.145 A9 9 0 0 1 9.008 0 a8.91 8.91 0 0 1 5.459 1.854 A9 9 0 1 1 3.53 16.145 z" style="fill:url(#40fd3475-21aa-4a8a-956c-13a617e35134);" /><path d="M13.048 0.927 a8.892 8.892 0 0 0 -1.387 -0.558 a41.617 41.617 0 0 1 -7.122 7.477 c-0.019 0.017 -0.027 0.034 -0.044 0.051 a12.922 12.922 0 0 1 -1.117 -1.485 a0.187 0.187 0 0 0 -0.332 0.032 a37.6 37.6 0 0 0 -1.419 4.38 a0.192 0.192 0 0 0 0.154 0.236 a12.938 12.938 0 0 0 5.2 -0.336 a0.188 0.188 0 0 0 0.07 -0.326 c-0.34 -0.285 -0.96 -0.823 -1.635 -1.506 A36.274 36.274 0 0 0 13.048 0.927 z" opacity="0.7" class="msportalfx-svg-c01" style="fill:white;" /><path d="M15.173 5.485 a15.227 15.227 0 0 1 -1.438 1.3 a15.539 15.539 0 0 0 -10.3 -4.9 A8.464 8.464 0 0 0 1.8 3.545 c0.368 0.014 0.739 0.039 1.112 0.079 a13.836 13.836 0 0 1 8.93 4.546 q-0.9 0.6 -1.845 1.151 a0.187 0.187 0 0 0 0.032 0.339 a21.537 21.537 0 0 1 5.04 2.485 a0.189 0.189 0 0 0 0.294 -0.113 a21.256 21.256 0 0 0 0.132 -6.44 a0.187 0.187 0 0 0 -0.322 -0.107 z" class="msportalfx-svg-c01" style="fill:white;" /><path d="M12.579 13.051 a0.2 0.2 0 0 0 -0.145 -0.3 c-1.6 -0.214 -3.844 -0.732 -4.667 -0.927 a0.159 0.159 0 0 0 -0.182 0.221 c0.2 0.44 0.588 1.257 0.82 1.635 a22.458 22.458 0 0 1 -6.868 0.348 A9.236 9.236 0 0 0 2.875 15.6 a25.715 25.715 0 0 0 6.191 -0.587 a12.676 12.676 0 0 1 0.641 1.7 a0.192 0.192 0 0 0 0.335 0.063 a37.364 37.364 0 0 0 2.537 -3.725 z" opacity="0.7" class="msportalfx-svg-c01" style="fill:white;" /></g><defs><linearGradient x1="9" y1="-0.636" x2="9" y2="19.263" gradientUnits="userSpaceOnUse" id="40fd3475-21aa-4a8a-956c-13a617e35134"><stop offset="0%" stop-color="#86D633" /><stop offset="12.5%" stop-color="#81CE31" /><stop offset="100%" stop-color="#5E9624" /></linearGradient></defs></svg>