<?xml version="1.0" encoding="utf-8"?><svg version="1.1" xmlns="http://www.w3.org/2000/svg" xmlns:xlink="http://www.w3.org/1999/xlink" xmlns:xml="http://www.w3.org/XML/1998/namespace" width="70" height="70" viewBox="0, 0, 18, 18" id="FxSymbol0-09d" class="" role="presentation" focusable="false" data-type="26"><g><title>MsPortalFx.base.images-67</title><path d="M1 5.977 h16 V14.9 a0.535 0.535 0 0 1 -0.535 0.535 H1.535 A0.535 0.535 0 0 1 1 14.9 V5.977 z" style="fill:url(#f9735c41-4373-4adb-b2b2-792fb469daad);" /><path d="M1.539 2.568 h14.924 A0.535 0.535 0 0 1 17 3.1 v2.877 H1 V3.1 a0.535 0.535 0 0 1 0.539 -0.532 z" style="fill:#0078D4;" /><rect x="3.252" y="3.58" width="11.499" height="1.35" rx="0.263" style="fill:#F2F2F2;" /><path d="M6.611 13.469 l2.055 -5.546 a0.27 0.27 0 0 0 -0.253 -0.363 H7.136 a0.269 0.269 0 0 0 -0.252 0.176 l-2.055 5.546 a0.269 0.269 0 0 0 0.252 0.362 h1.277 a0.27 0.27 0 0 0 0.253 -0.175 z m4.505 0 l2.055 -5.546 a0.269 0.269 0 0 0 -0.252 -0.363 h-1.277 a0.269 0.269 0 0 0 -0.253 0.176 l-2.055 5.546 a0.269 0.269 0 0 0 0.253 0.362 h1.277 a0.269 0.269 0 0 0 0.252 -0.175 z" style="fill:#F2F2F2;" /></g><defs><linearGradient x1="9" y1="15.432" x2="9" y2="5.977" gradientUnits="userSpaceOnUse" id="f9735c41-4373-4adb-b2b2-792fb469daad"><stop offset="0%" stop-color="#32BEDD" /><stop offset="17.5%" stop-color="#32CAEA" /><stop offset="41%" stop-color="#32D2F2" /><stop offset="77.5%" stop-color="#32D4F5" /></linearGradient></defs></svg>