<?xml version="1.0" encoding="utf-8"?><svg version="1.1" xmlns="http://www.w3.org/2000/svg" xmlns:xlink="http://www.w3.org/1999/xlink" xmlns:xml="http://www.w3.org/XML/1998/namespace" width="70" height="70" viewBox="0, 0, 18, 18" id="FxSymbol0-08a" class="" role="presentation" focusable="false" data-type="1"><g><path d="M15.111 3.267 H5.505 v-1.21 h9.606 a0.788 0.788 0 0 1 0.31 0.063 l0.859 0.363 a0.194 0.194 0 0 1 0 0.358 l-0.859 0.363 a0.806 0.806 0 0 1 -0.31 0.063 z" style="fill:#005BA1;" /><path d="M15.184 10.9 l0.79 1.957 a0.379 0.379 0 0 1 -0.443 0.509 l-2.188 -0.547 a1.094 1.094 0 0 1 -0.509 -0.288 L5.9 5.6 l2.055 -2.054 l6.988 6.988 a1.111 1.111 0 0 1 0.241 0.366 z" style="fill:#0078D4;" /><rect x="1.601" width="6.537" height="18" rx="3.269" style="fill:url(#40fd3475-21aa-4a8a-956c-13a617e3512d);" /><path d="M4.869 18 V0 a3.269 3.269 0 0 1 3.269 3.269 v11.462 A3.269 3.269 0 0 1 4.869 18 z" style="fill:url(#40fd3475-21aa-4a8a-956c-13a617e3512e);" /><circle cx="4.869" cy="3.12" r="1.408" opacity="0.6" class="msportalfx-svg-c01" style="fill:white;" /><path d="M6.277 3.12 a1.408 1.408 0 0 1 -1.408 1.408 V1.712 A1.408 1.408 0 0 1 6.277 3.12 z" opacity="0.5" class="msportalfx-svg-c01" style="fill:white;" /></g><defs><linearGradient x1="4.869" y1="18" x2="4.869" gradientUnits="userSpaceOnUse" id="40fd3475-21aa-4a8a-956c-13a617e3512d"><stop offset="0%" stop-color="#0078D4" /><stop offset="100%" stop-color="#83B9F9" /></linearGradient><linearGradient x1="6.504" y1="18" x2="6.504" gradientUnits="userSpaceOnUse" id="40fd3475-21aa-4a8a-956c-13a617e3512e"><stop offset="0%" stop-color="#5EA0EF" /><stop offset="100%" stop-color="#83B9F9" /></linearGradient></defs></svg>