<?xml version="1.0" encoding="UTF-8"?>
<svg xmlns="http://www.w3.org/2000/svg" xmlns:xlink="http://www.w3.org/1999/xlink" width="70pt" height="70pt" viewBox="0 0 70 70" version="1.1">
<defs>
<linearGradient id="linear0" gradientUnits="userSpaceOnUse" x1="9" y1="0.36" x2="9" y2="18.31" gradientTransform="matrix(3.888889,0,0,3.888889,0,0)">
<stop offset="0.18" style="stop-color:rgb(41,164,255);stop-opacity:1;"/>
<stop offset="1" style="stop-color:rgb(0,108,188);stop-opacity:1;"/>
</linearGradient>
</defs>
<g id="surface1">
<path style=" stroke:none;fill-rule:nonzero;fill:url(#linear0);" d="M 70 44.023438 C 69.859375 36.199219 64.085938 29.625 56.351563 28.464844 C 56.03125 17.480469 46.921875 8.804688 35.933594 9.023438 C 27.21875 8.933594 19.410156 14.382813 16.488281 22.59375 C 7.121094 23.800781 0.078125 31.738281 0 41.183594 C 0.378906 51.753906 9.140625 60.082031 19.714844 59.929688 L 53.355469 59.929688 C 53.640625 59.96875 53.925781 59.96875 54.210938 59.929688 C 62.914063 59.78125 69.917969 52.726563 70 44.023438 Z M 70 44.023438 "/>
<path style=" stroke:none;fill-rule:nonzero;fill:rgb(229,243,255);fill-opacity:1;" d="M 47.949219 25.628906 C 45.457031 21.488281 40.714844 19.261719 35.9375 19.988281 C 31.160156 20.710938 27.289063 24.242188 26.132813 28.933594 C 25.441406 31.933594 25.898438 35.082031 27.417969 37.761719 L 18.316406 46.976563 C 17.738281 47.554688 17.410156 48.339844 17.410156 49.15625 C 17.410156 49.972656 17.738281 50.757813 18.316406 51.332031 C 18.890625 51.914063 19.675781 52.234375 20.496094 52.226563 C 21.3125 52.242188 22.101563 51.921875 22.671875 51.332031 L 31.734375 42.15625 C 32.71875 42.726563 33.777344 43.160156 34.882813 43.4375 C 39.574219 44.566406 44.484375 42.765625 47.339844 38.878906 C 50.191406 34.988281 50.433594 29.765625 47.949219 25.628906 Z M 45.851563 33.792969 C 44.9375 37.546875 41.585938 40.195313 37.722656 40.210938 C 37.050781 40.214844 36.382813 40.125 35.738281 39.9375 C 34.753906 39.71875 33.828125 39.292969 33.015625 38.695313 C 32.160156 38.109375 31.421875 37.371094 30.839844 36.515625 C 29.507813 34.542969 29.070313 32.101563 29.632813 29.789063 C 30.5 26.019531 33.851563 23.34375 37.722656 23.332031 C 38.402344 23.335938 39.082031 23.414063 39.746094 23.566406 C 41.902344 24.136719 43.746094 25.535156 44.878906 27.457031 C 46.039063 29.351563 46.390625 31.636719 45.851563 33.792969 Z M 45.851563 33.792969 "/>
<path style=" stroke:none;fill-rule:nonzero;fill:rgb(95,187,255);fill-opacity:1;" d="M 46.042969 31.8125 C 46.042969 27.171875 42.300781 23.410156 37.683594 23.410156 C 33.066406 23.410156 29.320313 27.171875 29.320313 31.8125 C 29.320313 36.449219 33.066406 40.210938 37.683594 40.210938 C 42.300781 40.210938 46.042969 36.449219 46.042969 31.8125 Z M 46.042969 31.8125 "/>
</g>
</svg>
