<?xml version="1.0" encoding="UTF-8"?>
<svg xmlns="http://www.w3.org/2000/svg" xmlns:xlink="http://www.w3.org/1999/xlink" width="70pt" height="65pt" viewBox="0 0 70 65" version="1.1">
<g id="surface1">
<path style=" stroke:none;fill-rule:nonzero;fill:rgb(0,0,0);fill-opacity:1;" d="M 70 56.332031 L 30.625 56.332031 C 30.3125 57.605469 29.714844 58.789063 28.875 59.800781 C 28.390625 60.84375 27.636719 61.738281 26.6875 62.398438 L 23.625 64.566406 L 15.75 64.566406 L 12.6875 62.398438 C 11.738281 61.738281 10.984375 60.84375 10.5 59.800781 C 9.660156 58.789063 9.0625 57.605469 8.75 56.332031 L 0 56.332031 L 0 52 L 8.75 52 C 9.0625 50.726563 9.660156 49.542969 10.5 48.535156 C 10.984375 47.492188 11.738281 46.59375 12.6875 45.933594 L 15.75 43.765625 L 23.625 43.765625 L 26.6875 45.933594 C 27.636719 46.59375 28.390625 47.492188 28.875 48.535156 C 29.714844 49.542969 30.3125 50.726563 30.625 52 L 70 52 Z M 19.6875 60.667969 L 22.3125 60.667969 L 24.5 59.367188 L 25.8125 57.199219 C 26.164063 56.378906 26.3125 55.488281 26.25 54.601563 C 26.3125 53.710938 26.164063 52.820313 25.8125 52 L 24.5 49.832031 L 22.3125 48.535156 L 17.0625 48.535156 L 14.875 49.832031 L 13.5625 52 C 13.210938 52.820313 13.0625 53.710938 13.125 54.601563 C 13.0625 55.488281 13.210938 56.378906 13.5625 57.199219 L 14.875 59.367188 L 17.0625 60.667969 Z M 70 13 L 30.625 13 C 30.3125 14.273438 29.714844 15.457031 28.875 16.464844 C 28.390625 17.507813 27.636719 18.40625 26.6875 19.066406 L 23.625 21.234375 L 15.75 21.234375 L 12.6875 19.066406 C 11.738281 18.40625 10.984375 17.507813 10.5 16.464844 C 9.660156 15.457031 9.0625 14.273438 8.75 13 L 0 13 L 0 8.667969 L 8.75 8.667969 C 9.0625 7.394531 9.660156 6.210938 10.5 5.199219 C 10.984375 4.15625 11.738281 3.261719 12.6875 2.601563 L 15.75 0.433594 L 23.625 0.433594 L 26.6875 2.601563 C 27.636719 3.261719 28.390625 4.15625 28.875 5.199219 C 29.714844 6.210938 30.3125 7.394531 30.625 8.667969 L 70 8.667969 Z M 19.6875 17.332031 L 22.3125 17.332031 L 24.5 16.035156 L 25.8125 13.867188 C 26.238281 12.914063 26.390625 11.863281 26.25 10.832031 C 26.3125 9.945313 26.164063 9.054688 25.8125 8.234375 L 24.5 6.066406 L 22.3125 4.765625 L 17.0625 4.765625 L 14.875 6.066406 L 13.5625 8.234375 C 13.210938 9.054688 13.0625 9.945313 13.125 10.832031 C 13.0625 11.722656 13.210938 12.613281 13.5625 13.433594 L 14.875 15.601563 L 17.0625 16.898438 Z M 0 30.332031 L 39.375 30.332031 C 39.6875 29.0625 40.285156 27.875 41.125 26.867188 C 41.609375 25.824219 42.363281 24.925781 43.3125 24.265625 L 46.375 22.101563 L 54.25 22.101563 L 57.3125 24.265625 C 58.261719 24.925781 59.015625 25.824219 59.5 26.867188 C 60.339844 27.875 60.9375 29.0625 61.25 30.332031 L 70 30.332031 L 70 34.667969 L 61.25 34.667969 C 60.9375 35.9375 60.339844 37.125 59.5 38.132813 C 59.015625 39.175781 58.261719 40.074219 57.3125 40.734375 L 54.25 42.898438 L 46.375 42.898438 L 43.3125 40.734375 C 42.363281 40.074219 41.609375 39.175781 41.125 38.132813 C 40.285156 37.125 39.6875 35.9375 39.375 34.667969 L 0 34.667969 Z M 52.9375 38.566406 L 55.125 37.265625 L 56.4375 35.101563 C 56.789063 34.28125 56.9375 33.390625 56.875 32.5 C 56.9375 31.609375 56.789063 30.71875 56.4375 29.898438 L 55.125 27.734375 L 52.9375 26.433594 L 47.6875 26.433594 L 45.5 27.734375 L 44.1875 29.898438 C 43.835938 30.71875 43.6875 31.609375 43.75 32.5 C 43.6875 33.390625 43.835938 34.28125 44.1875 35.101563 L 45.5 37.265625 L 47.6875 38.566406 Z M 52.9375 38.566406 "/>
</g>
</svg>
