<?xml version="1.0" encoding="utf-8"?><svg version="1.1" xmlns="http://www.w3.org/2000/svg" xmlns:xlink="http://www.w3.org/1999/xlink" xmlns:xml="http://www.w3.org/XML/1998/namespace" width="70" height="70" viewBox="0, 0, 16, 15" id="FxSymbol0-060" class="msportalfx-svg-palette-blue" role="presentation" focusable="false" data-type="48"><g><title /><path d="M16 13 H7 a2 2 0 0 1 -0.4 0.8 a1.5 1.5 0 0 1 -0.5 0.6 l-0.7 0.5 H3.6 l-0.7 -0.5 a1.5 1.5 0 0 1 -0.5 -0.6 A2 2 0 0 1 2 13 H0 v-1 h2 a2 2 0 0 1 0.4 -0.8 a1.5 1.5 0 0 1 0.5 -0.6 l0.7 -0.5 h1.8 l0.7 0.5 a1.5 1.5 0 0 1 0.5 0.6 a2 2 0 0 1 0.4 0.8 h9 z M4.5 14 h0.6 l0.5 -0.3 l0.3 -0.5 a1.3 1.3 0 0 0 0.1 -0.6 a1.3 1.3 0 0 0 -0.1 -0.6 l-0.3 -0.5 l-0.5 -0.3 H3.9 l-0.5 0.3 l-0.3 0.5 a1.3 1.3 0 0 0 -0.1 0.6 a1.3 1.3 0 0 0 0.1 0.6 l0.3 0.5 l0.5 0.3 z M16 3 H7 a2 2 0 0 1 -0.4 0.8 a1.5 1.5 0 0 1 -0.5 0.6 l-0.7 0.5 H3.6 l-0.7 -0.5 a1.5 1.5 0 0 1 -0.5 -0.6 A2 2 0 0 1 2 3 H0 V2 h2 a2 2 0 0 1 0.4 -0.8 a1.5 1.5 0 0 1 0.5 -0.6 l0.7 -0.5 h1.8 l0.7 0.5 a1.5 1.5 0 0 1 0.5 0.6 A2 2 0 0 1 7 2 h9 z M4.5 4 h0.6 l0.5 -0.3 l0.3 -0.5 a1.3 1.3 0 0 0 0.1 -0.7 a1.3 1.3 0 0 0 -0.1 -0.6 l-0.3 -0.5 l-0.5 -0.3 H3.9 l-0.5 0.3 l-0.3 0.5 a1.3 1.3 0 0 0 -0.1 0.6 a1.3 1.3 0 0 0 0.1 0.6 l0.3 0.5 l0.5 0.3 z M0 7 h9 a2 2 0 0 1 0.4 -0.8 a1.5 1.5 0 0 1 0.5 -0.6 l0.7 -0.5 h1.8 l0.7 0.5 a1.5 1.5 0 0 1 0.5 0.6 a2 2 0 0 1 0.4 0.8 h2 v1 h-2 a2 2 0 0 1 -0.4 0.8 a1.5 1.5 0 0 1 -0.5 0.6 l-0.7 0.5 h-1.8 l-0.7 -0.5 a1.5 1.5 0 0 1 -0.5 -0.6 A2 2 0 0 1 9 8 H0 z m12.1 1.9 l0.5 -0.3 l0.3 -0.5 a1.3 1.3 0 0 0 0.1 -0.6 a1.3 1.3 0 0 0 -0.1 -0.6 l-0.3 -0.5 l-0.5 -0.3 h-1.2 l-0.5 0.3 l-0.3 0.5 a1.3 1.3 0 0 0 -0.1 0.6 a1.3 1.3 0 0 0 0.1 0.6 l0.3 0.5 l0.5 0.3 h1.2 z" /></g><defs /></svg>