<?xml version="1.0" encoding="UTF-8"?>
<svg xmlns="http://www.w3.org/2000/svg" xmlns:xlink="http://www.w3.org/1999/xlink" width="70pt" height="70pt" viewBox="0 0 70 70" version="1.1">
<defs>
<linearGradient id="linear0" gradientUnits="userSpaceOnUse" x1="9" y1="16.82" x2="9" y2="1.18" gradientTransform="matrix(3.888889,0,0,3.888889,0,0)">
<stop offset="0" style="stop-color:rgb(0,124,216);stop-opacity:1;"/>
<stop offset="0.09" style="stop-color:rgb(0,141,246);stop-opacity:1;"/>
<stop offset="0.24" style="stop-color:rgb(29,159,255);stop-opacity:1;"/>
<stop offset="0.4" style="stop-color:rgb(55,170,255);stop-opacity:1;"/>
<stop offset="0.57" style="stop-color:rgb(73,177,255);stop-opacity:1;"/>
<stop offset="0.78" style="stop-color:rgb(79,180,255);stop-opacity:1;"/>
</linearGradient>
<linearGradient id="linear1" gradientUnits="userSpaceOnUse" x1="8.36" y1="11.35" x2="8.36" y2="14.46" gradientTransform="matrix(3.888889,0,0,3.888889,0,0)">
<stop offset="0" style="stop-color:rgb(97,187,255);stop-opacity:1;"/>
<stop offset="1" style="stop-color:rgb(0,111,194);stop-opacity:1;"/>
</linearGradient>
</defs>
<g id="surface1">
<path style=" stroke:none;fill-rule:nonzero;fill:url(#linear0);" d="M 55.144531 22.90625 C 54.847656 12.550781 46.253906 4.371094 35.894531 4.589844 C 27.648438 4.503906 20.242188 9.632813 17.421875 17.382813 C 8.605469 18.597656 2.015625 26.101563 1.945313 35 C 2.304688 44.953125 10.613281 52.761719 20.570313 52.5 C 21.117188 52.539063 21.660156 52.539063 22.207031 52.5 L 26.871094 52.5 C 26.589844 51.808594 26.445313 51.070313 26.445313 50.320313 C 26.457031 49.324219 26.726563 48.347656 27.222656 47.484375 L 20.570313 47.484375 C 13.378906 47.726563 7.300781 42.1875 6.882813 35 C 6.949219 28.527344 11.78125 23.097656 18.199219 22.285156 L 21.15625 21.816406 L 22.128906 18.976563 C 24.261719 13.238281 29.769531 9.457031 35.894531 9.527344 C 43.523438 9.351563 49.890625 15.320313 50.207031 22.945313 L 50.207031 27.222656 L 54.445313 27.804688 C 59.355469 28.433594 63.082031 32.539063 63.234375 37.488281 C 63.046875 42.984375 58.542969 47.347656 53.042969 47.367188 L 48.261719 47.367188 C 46.875 40.160156 40.550781 34.960938 33.210938 35 C 32.253906 34.878906 31.316406 35.324219 30.800781 36.136719 C 30.28125 36.949219 30.28125 37.988281 30.800781 38.800781 C 31.316406 39.617188 32.253906 40.058594 33.210938 39.9375 C 38.648438 40.273438 42.882813 44.777344 42.882813 50.226563 C 42.882813 55.671875 38.648438 60.175781 33.210938 60.511719 C 32.253906 60.390625 31.316406 60.832031 30.800781 61.648438 C 30.28125 62.460938 30.28125 63.5 30.800781 64.3125 C 31.316406 65.128906 32.253906 65.570313 33.210938 65.449219 C 40.75 65.4375 47.144531 59.917969 48.261719 52.460938 L 52.34375 52.460938 C 52.601563 52.5 52.863281 52.5 53.121094 52.460938 C 61.324219 52.316406 67.929688 45.691406 68.054688 37.488281 C 67.917969 30.117188 62.445313 23.9375 55.144531 22.90625 Z M 55.144531 22.90625 "/>
<path style=" stroke:none;fill-rule:nonzero;fill:url(#linear1);" d="M 32.433594 44.140625 L 32.589844 44.140625 C 35.894531 44.140625 38.578125 46.820313 38.578125 50.128906 L 38.578125 50.285156 C 38.578125 53.589844 35.894531 56.273438 32.589844 56.273438 L 32.433594 56.273438 C 29.125 56.273438 26.445313 53.589844 26.445313 50.285156 L 26.445313 50.128906 C 26.445313 46.820313 29.125 44.140625 32.433594 44.140625 Z M 32.433594 44.140625 "/>
</g>
</svg>
