<?xml version="1.0" encoding="UTF-8"?>
<svg xmlns="http://www.w3.org/2000/svg" xmlns:xlink="http://www.w3.org/1999/xlink" width="70pt" height="32pt" viewBox="0 0 70 32" version="1.1">
<g id="surface1">
<path style=" stroke:none;fill-rule:evenodd;fill:rgb(0%,47.058824%,84.313725%);fill-opacity:1;" d="M 70 25.515625 C 70 22.285156 67.375 19.515625 64.078125 19.515625 L 63.203125 19.515625 C 63.4375 18.230469 63.875 16.914063 63.875 15.429688 C 63.875 6.855469 56.640625 0 48.125 0 C 41.328125 0 35.4375 4.515625 33.25 10.484375 C 32.140625 10.285156 31.0625 9.855469 29.75 9.855469 C 23.625 9.855469 19.015625 14.570313 19.015625 20.570313 C 19.015625 26.570313 23.828125 31.285156 29.75 31.285156 L 64.3125 31.285156 C 67.609375 31.058594 70 28.714844 70 25.515625 Z M 2.859375 15 C 1.3125 15 0 16.285156 0 17.769531 C 0 19.285156 1.3125 20.570313 2.859375 20.570313 L 16.390625 20.570313 C 16.390625 18.628906 16.859375 16.714844 17.734375 15 Z M 17.5 25.914063 L 6.796875 25.914063 C 5.25 25.914063 3.9375 27.230469 3.9375 28.714844 C 3.9375 30.199219 5.25 31.484375 6.796875 31.484375 L 21.671875 31.484375 C 19.921875 30 18.375 28.285156 17.5 25.914063 Z M 31.734375 7.484375 C 32.609375 5.769531 33.6875 4.285156 35 3 L 11.578125 3 C 10.0625 3 8.75 4.285156 8.75 5.769531 C 8.75 7.285156 10.0625 8.570313 11.578125 8.570313 L 24.265625 8.570313 C 26.015625 7.714844 27.796875 7.285156 31.179688 7.3125 C 30.390625 7.484375 31.0625 7.484375 31.734375 7.484375 Z M 31.734375 7.484375 "/>
</g>
</svg>
