<?xml version="1.0" encoding="UTF-8"?>
<svg xmlns="http://www.w3.org/2000/svg" xmlns:xlink="http://www.w3.org/1999/xlink" width="70pt" height="58pt" viewBox="0 0 70 58" version="1.1">
<g id="surface1">
<path style=" stroke:none;fill-rule:nonzero;fill:rgb(34.901961%,70.588235%,85.098039%);fill-opacity:1;" d="M 28.699219 39.355469 L 16.238281 39.355469 C 10.078125 39.355469 5.039063 34.386719 5.039063 28.171875 C 5.039063 21.957031 9.800781 16.984375 16.238281 16.984375 C 17.359375 16.984375 18.621094 17.261719 20.019531 17.398438 L 22.398438 18.089844 L 23.101563 15.742188 C 25.339844 8.5625 32.339844 4.144531 40.320313 4.144531 C 49.980469 4.144531 57.398438 11.460938 57.398438 20.992188 C 57.398438 22.507813 57.121094 24.027344 56.699219 25.546875 L 55.71875 29 L 59.5 28.585938 C 59.78125 28.585938 59.921875 28.585938 60.199219 28.585938 C 63 28.585938 65.238281 30.933594 65.238281 33.558594 C 65.238281 36.179688 63.28125 38.113281 60.898438 38.527344 C 60.898438 38.527344 48.859375 38.527344 48.441406 38.527344 C 48.019531 35.078125 46.199219 32.039063 43.820313 29.691406 C 40.738281 26.652344 36.539063 24.855469 32.199219 24.855469 C 29.121094 24.855469 26.039063 25.6875 23.660156 27.203125 L 26.320313 31.347656 C 28.28125 30.242188 30.238281 29.828125 32.480469 29.828125 C 35.558594 29.828125 38.640625 30.933594 40.601563 33.28125 C 42.839844 35.492188 44.101563 38.253906 44.101563 41.289063 C 44.101563 44.328125 42.980469 47.367188 40.601563 49.300781 C 38.359375 51.648438 35.558594 52.753906 32.480469 52.753906 C 30.238281 52.753906 28.140625 52.0625 26.320313 50.820313 L 23.660156 54.960938 C 26.320313 56.480469 29.398438 57.585938 32.199219 57.585938 C 36.539063 57.585938 40.738281 56.066406 43.820313 52.890625 C 46.480469 50.265625 48.019531 46.8125 48.441406 43.222656 C 49.140625 43.222656 61.179688 43.222656 61.179688 43.222656 L 61.460938 43.222656 C 66.5 42.808594 70.28125 38.527344 70.28125 33.28125 C 70.28125 29.136719 66.359375 25.269531 61.738281 24.441406 C 62.019531 23.613281 62.019531 23.199219 62.019531 21.820313 C 62.019531 9.667969 53.339844 0 39.480469 0 C 30.660156 0 22.820313 4.972656 19.601563 12.980469 C 18.480469 12.980469 17.640625 12.566406 16.378906 12.566406 C 7.28125 12.429688 0 19.332031 0 28.171875 C 0 36.871094 7.28125 43.777344 15.960938 43.777344 L 29.679688 43.777344 Z M 28.699219 39.355469 "/>
<path style=" stroke:none;fill-rule:nonzero;fill:rgb(40.784314%,12.941176%,47.843137%);fill-opacity:1;" d="M 39.761719 41.152344 C 39.761719 45.421875 36.25 48.886719 31.921875 48.886719 C 27.589844 48.886719 24.078125 45.421875 24.078125 41.152344 C 24.078125 36.882813 27.589844 33.417969 31.921875 33.417969 C 36.25 33.417969 39.761719 36.882813 39.761719 41.152344 Z M 39.761719 41.152344 "/>
</g>
</svg>
