<?xml version="1.0" encoding="UTF-8"?>
<svg xmlns="http://www.w3.org/2000/svg" xmlns:xlink="http://www.w3.org/1999/xlink" width="70pt" height="70pt" viewBox="0 0 70 70" version="1.1">
<g id="surface1">
<path style=" stroke:none;fill-rule:nonzero;fill:rgb(0%,47.058824%,84.313725%);fill-opacity:1;" d="M 53.507813 59.199219 C 47.964844 63.460938 41.460938 65.488281 34.996094 65.488281 C 25.757813 65.488281 16.875 61.402344 10.761719 53.441406 C 0.597656 40.117188 3.15625 21.070313 16.484375 10.875 C 22.027344 6.609375 28.527344 4.582031 34.996094 4.582031 C 44.234375 4.582031 53.117188 8.671875 59.230469 16.628906 C 69.425781 29.953125 66.832031 49.035156 53.507813 59.199219 Z M 62.78125 13.679688 C 55.925781 4.621094 45.371094 0 35.03125 0 C 27.640625 0 20.035156 2.417969 13.746094 7.214844 C -1.605469 19.046875 -4.589844 40.898438 7.28125 56.25 C 14.136719 65.308594 24.476563 69.929688 35.03125 69.929688 C 42.421875 69.929688 50.027344 67.511719 56.316406 62.714844 C 71.664063 51.0625 74.613281 29.03125 62.78125 13.679688 Z M 62.78125 13.679688 "/>
<path style=" stroke:none;fill-rule:nonzero;fill:rgb(0%,47.058824%,84.313725%);fill-opacity:1;" d="M 19.160156 41.515625 C 17.136719 39.488281 15.464844 37.640625 14.152344 35.792969 C 11.203125 41.726563 10.277344 47.839844 9.886719 52.8125 C 10.242188 53.167969 10.242188 53.558594 10.457031 53.914063 C 11.949219 55.761719 13.796875 57.609375 15.464844 58.925781 C 15.464844 54.839844 15.820313 48.160156 19.160156 41.515625 Z M 19.160156 41.515625 "/>
<path style=" stroke:none;fill-rule:nonzero;fill:rgb(0%,47.058824%,84.313725%);fill-opacity:1;" d="M 29.929688 18.015625 C 27.15625 19.863281 24.386719 22.277344 21.402344 25.40625 C 19.910156 27.074219 18.453125 28.746094 17.316406 30.417969 C 18.59375 32.441406 20.085938 34.503906 22.113281 36.527344 C 23.605469 34.503906 25.453125 32.265625 27.65625 30.238281 C 30.425781 27.644531 33.019531 25.441406 35.613281 23.773438 C 33.800781 21.925781 31.777344 19.863281 29.929688 18.015625 Z M 29.929688 18.015625 "/>
<path style=" stroke:none;fill-rule:nonzero;fill:rgb(0%,47.058824%,84.313725%);fill-opacity:1;" d="M 58.941406 16.226563 C 57.664063 14.558594 56.347656 13.101563 54.679688 11.785156 C 50.058594 11.039063 42.417969 11.179688 34.105469 15.621094 C 35.953125 17.648438 37.976563 19.710938 39.824219 21.34375 C 50.910156 15.265625 58.941406 16.226563 58.941406 16.226563 Z M 58.941406 16.226563 "/>
<path style=" stroke:none;fill-rule:nonzero;fill:rgb(0%,47.058824%,84.313725%);fill-opacity:1;" d="M 14.28125 35.539063 C 15.203125 33.871094 16.128906 32.199219 17.230469 30.351563 C 12.433594 22.746094 12.609375 16.457031 13.144531 13.507813 C 12.042969 14.789063 10.726563 16.101563 9.800781 17.382813 C 8.914063 21.683594 8.914063 27.972656 14.28125 35.539063 Z M 14.28125 35.539063 "/>
<path style=" stroke:none;fill-rule:nonzero;fill:rgb(0%,47.058824%,84.313725%);fill-opacity:1;" d="M 27.949219 41.910156 C 25.710938 40.0625 23.863281 38.390625 22.230469 36.722656 C 21.128906 38.390625 20.203125 39.886719 19.28125 41.519531 C 20.773438 43.011719 22.621094 44.683594 24.644531 46.140625 C 37.046875 55.945313 49.449219 56.871094 56.484375 56.871094 C 56.839844 56.871094 59.078125 53.921875 60.355469 52.074219 C 57.160156 52.820313 43.832031 54.488281 27.949219 41.910156 Z M 27.949219 41.910156 "/>
<path style=" stroke:none;fill-rule:nonzero;fill:rgb(0%,47.058824%,84.313725%);fill-opacity:1;" d="M 14.238281 35.578125 C 15.515625 37.425781 17.1875 39.453125 19.246094 41.300781 C 19.992188 39.628906 20.917969 38.136719 22.195313 36.503906 C 20.171875 34.476563 18.679688 32.417969 17.398438 30.390625 C 16.121094 32.238281 15.160156 33.910156 14.238281 35.578125 Z M 14.238281 35.578125 "/>
<path style=" stroke:none;fill-rule:nonzero;fill:rgb(0%,47.058824%,84.313725%);fill-opacity:1;" d="M 35.605469 23.796875 C 47.082031 34.347656 60.40625 43.234375 63.921875 45.648438 C 64.277344 44.726563 64.492188 43.980469 64.667969 43.054688 C 60.972656 40.285156 51.34375 32.890625 39.691406 21.203125 C 38.554688 21.949219 37.0625 22.445313 35.605469 23.796875 Z M 35.605469 23.796875 "/>
<path style=" stroke:none;fill-rule:nonzero;fill:rgb(0%,47.058824%,84.313725%);fill-opacity:1;" d="M 34.292969 15.542969 C 31.519531 12.59375 28.570313 9.289063 25.585938 5.949219 C 24.308594 6.304688 22.816406 6.871094 21.5 7.617188 C 23.527344 11.136719 26.6875 14.761719 29.816406 18.101563 C 31.519531 17.175781 32.835938 16.289063 34.292969 15.542969 Z M 34.292969 15.542969 "/>
<path style=" stroke:none;fill-rule:nonzero;fill:rgb(0%,47.058824%,84.313725%);fill-opacity:1;" d="M 34.285156 15.53125 C 32.792969 16.277344 31.089844 16.988281 29.808594 18.089844 C 31.65625 19.9375 33.578125 21.929688 35.601563 23.777344 C 37.09375 22.851563 38.335938 22.105469 39.828125 21.359375 C 37.980469 19.546875 36.3125 17.59375 34.285156 15.53125 Z M 34.285156 15.53125 "/>
<path style=" stroke:none;fill-rule:nonzero;fill:rgb(0%,47.058824%,84.313725%);fill-opacity:1;" d="M 49.109375 31.230469 C 46.339844 33.46875 45.769531 37.519531 47.832031 40.289063 C 50.070313 43.238281 54.121094 43.628906 57.070313 41.570313 C 59.839844 39.332031 60.410156 35.28125 58.347656 32.332031 C 56.144531 29.558594 52.09375 29.027344 49.109375 31.230469 Z M 49.109375 31.230469 "/>
<path style=" stroke:none;fill-rule:nonzero;fill:rgb(0%,47.058824%,84.313725%);fill-opacity:1;" d="M 35.609375 47.628906 C 33.015625 49.65625 32.445313 53.5625 34.507813 56.15625 C 36.53125 58.75 40.441406 59.320313 43.035156 57.257813 C 45.628906 55.234375 46.199219 51.539063 44.136719 48.730469 C 42.113281 45.960938 38.378906 45.605469 35.609375 47.628906 Z M 35.609375 47.628906 "/>
<path style=" stroke:none;fill-rule:nonzero;fill:rgb(0%,47.058824%,84.313725%);fill-opacity:1;" d="M 12.957031 28.367188 C 8.871094 31.527344 8.160156 37.25 11.289063 41.335938 C 14.449219 45.421875 20.171875 46.132813 24.257813 43.007813 C 28.34375 39.878906 29.054688 34.121094 25.929688 30.035156 C 22.765625 25.949219 16.832031 25.203125 12.957031 28.367188 Z M 12.957031 28.367188 "/>
</g>
</svg>
