<?xml version="1.0" encoding="utf-8"?><svg version="1.1" xmlns="http://www.w3.org/2000/svg" xmlns:xlink="http://www.w3.org/1999/xlink" xmlns:xml="http://www.w3.org/XML/1998/namespace" width="70" height="70" viewBox="0, 0, 18, 18" id="FxSymbol0-07f" class="" role="presentation" focusable="false" data-type="1"><g><path d="M9.32 0.01 A8.682 8.682 0 0 0 0.867 10.66 L4.54 9.8 a4.913 4.913 0 1 1 4.78 3.8 a4.8 4.8 0 0 1 -0.614 -0.062 L8.232 17.3 A8.683 8.683 0 0 0 18 8.689 A8.721 8.721 0 0 0 9.32 0.01 z" style="fill:url(#40fd3475-21aa-4a8a-956c-13a617e3510d);" /><path d="M9.017 17.99 v-4.012 a4.908 4.908 0 0 1 -4.986 -4.83 v-0.165 H0 a9.008 9.008 0 0 0 9.007 9.007 z" style="fill:#006CBC;" /><path d="M4.012 8.983 a4.947 4.947 0 0 0 4.88 4.995 h0.125 l-0.318 -0.6 a4.339 4.339 0 0 1 -4.08 -4.1 z" style="fill:#00518E;" /><path d="M7.626 8.637 a1.112 1.112 0 0 1 -0.836 -0.329 a1.222 1.222 0 0 1 -0.317 -0.885 a1.341 1.341 0 0 1 0.338 -0.963 a1.183 1.183 0 0 1 0.9 -0.356 a1.1 1.1 0 0 1 0.843 0.322 a1.272 1.272 0 0 1 0.3 0.906 a1.322 1.322 0 0 1 -0.336 0.952 a1.173 1.173 0 0 1 -0.892 0.353 z m3.55 -2.465 l-3.167 4.862 h-0.827 l3.16 -4.862 z M7.691 6.7 c-0.33 0 -0.5 0.229 -0.5 0.689 c0 0.434 0.157 0.65 0.471 0.65 s0.481 -0.226 0.481 -0.678 S8 6.7 7.691 6.7 z m2.963 4.4 a1.106 1.106 0 0 1 -0.836 -0.329 a1.222 1.222 0 0 1 -0.318 -0.883 a1.339 1.339 0 0 1 0.338 -0.962 a1.178 1.178 0 0 1 0.9 -0.356 a1.1 1.1 0 0 1 0.844 0.318 a1.262 1.262 0 0 1 0.3 0.9 a1.335 1.335 0 0 1 -0.336 0.956 a1.172 1.172 0 0 1 -0.892 0.356 z m0.055 -1.936 c-0.329 0 -0.492 0.23 -0.492 0.688 q0 0.651 0.478 0.651 t0.481 -0.678 a0.81 0.81 0 0 0 -0.128 -0.488 a0.4 0.4 0 0 0 -0.339 -0.171 z" style="fill:#006CBC;" /></g><defs><radialGradient cx="9.32" cy="8.689" r="10.704" gradientUnits="userSpaceOnUse" id="40fd3475-21aa-4a8a-956c-13a617e3510d"><stop offset="50%" stop-color="#67BEFF" /><stop offset="100%" stop-color="#33A8FF" /></radialGradient></defs></svg>