<?xml version="1.0" encoding="utf-8"?><svg version="1.1" xmlns="http://www.w3.org/2000/svg" xmlns:xlink="http://www.w3.org/1999/xlink" xmlns:xml="http://www.w3.org/XML/1998/namespace" width="70" height="70" viewBox="0, 0, 18, 18"><defs><linearGradient x1="8.153" y1="17.5" x2="8.153" y2="2.093" gradientUnits="userSpaceOnUse" id="ac22aabe-4ac7-4cbd-b097-801c2888e610"><stop offset="0%" stop-color="#159BFF" /><stop offset="90%" stop-color="#41AEFF" /></linearGradient></defs><title>MsPortalFx.base.images-59</title><g id="a681ca9a-06ce-4a10-9f33-874f6c970dec"><g><path d="M1.931 2.109 L3.142 0.7 A0.591 0.591 0 0 1 3.586 0.5 H15.2 a0.813 0.813 0 0 1 0.888 0.831 v14.5 a0.59 0.59 0 0 1 -0.192 0.435 l-1.308 1.191 H2.716 l-0.8 -0.337 Z" style="fill:#0084E6;" /><path d="M2.905 2.1 l0.742 -0.846 a0.522 0.522 0 0 1 0.394 -0.179 H14.886 a0.522 0.522 0 0 1 0.522 0.522 V15.383 a0.521 0.521 0 0 1 -0.171 0.386 l-1.158 1.055 Z" style="fill:white;" /><path d="M14.008 2.093 H1.969 a0.056 0.056 0 0 0 -0.056 0.056 V17.115 A0.385 0.385 0 0 0 2.3 17.5 h11.71 a0.385 0.385 0 0 0 0.385 -0.385 V2.478 A0.386 0.386 0 0 0 14.008 2.093 Z" style="fill:url(#ac22aabe-4ac7-4cbd-b097-801c2888e610);" /><path d="M10.5 9.859 a2.263 2.263 0 0 1 -0.638 1.587 a0.384 0.384 0 0 1 -0.574 0.064 a0.394 0.394 0 0 1 0.006 -0.593 a1.565 1.565 0 0 0 0 -2.174 a0.39 0.39 0 1 1 0.572 -0.522 A2.311 2.311 0 0 1 10.5 9.859 Z" style="fill:white;" /><path d="M5.807 9.858 a2.382 2.382 0 0 1 0.636 -1.632 a0.392 0.392 0 1 1 0.569 0.528 a1.565 1.565 0 0 0 0 2.158 a0.4 0.4 0 0 1 0 0.607 a0.381 0.381 0 0 1 -0.545 -0.052 A2.367 2.367 0 0 1 5.807 9.858 Z" style="fill:white;" /><path d="M7.5 9.822 a0.657 0.657 0 0 1 0.659 -0.656 a0.665 0.665 0 0 1 0 1.329 A0.65 0.65 0 0 1 7.5 9.822 Z" style="fill:white;" /><path d="M12.5 9.8 a3.369 3.369 0 0 1 -0.952 2.367 a0.573 0.573 0 0 1 -0.855 0.1 a0.588 0.588 0 0 1 0.009 -0.886 a2.333 2.333 0 0 0 0 -3.242 a0.582 0.582 0 1 1 0.854 -0.778 A3.437 3.437 0 0 1 12.5 9.8 Z" style="fill:white;" /><path d="M3.8 9.726 a3.369 3.369 0 0 0 0.952 2.367 a0.573 0.573 0 0 0 0.855 0.1 A0.588 0.588 0 0 0 5.6 11.3 a2.334 2.334 0 0 1 0 -3.242 a0.582 0.582 0 1 0 -0.853 -0.778 A3.442 3.442 0 0 0 3.8 9.726 Z" style="fill:white;" /></g></g></svg>