<?xml version="1.0" encoding="utf-8"?><svg viewBox="0 0 18 18" class="" role="presentation" focusable="false" xmlns="http://www.w3.org/2000/svg" xmlns:xlink="http://www.w3.org/1999/xlink" id="FxSymbol0-07f" data-type="1" width="100%" height="70" preserveAspectRatio="xMidYMid meet"><g><path fill="url(#40fd3475-21aa-4a8a-956c-13a617e3510d)" d="M9.32.01A8.682 8.682 0 00.867 10.66L4.54 9.8a4.913 4.913 0 114.78 3.8 4.8 4.8 0 01-.614-.062L8.232 17.3A8.683 8.683 0 0018 8.689 8.721 8.721 0 009.32.01z"></path><path fill="#0078d4" d="M9.017 17.99v-4.012a4.908 4.908 0 01-4.986-4.83v-.165H0a9.008 9.008 0 009.007 9.007z"></path><path fill="#005ba1" d="M4.012 8.983a4.947 4.947 0 004.88 4.995h.125l-.318-.6a4.339 4.339 0 01-4.08-4.1z"></path><path fill="#0078d4" d="M7.626 8.637a1.112 1.112 0 01-.836-.329 1.222 1.222 0 01-.317-.885 1.341 1.341 0 01.338-.963 1.183 1.183 0 01.9-.356 1.1 1.1 0 01.843.322 1.272 1.272 0 01.3.906 1.322 1.322 0 01-.336.952 1.173 1.173 0 01-.892.353zm3.55-2.465l-3.167 4.862h-.827l3.16-4.862zM7.691 6.7c-.33 0-.5.229-.5.689 0 .434.157.65.471.65s.481-.226.481-.678S8 6.7 7.691 6.7zm2.963 4.4a1.106 1.106 0 01-.836-.329 1.222 1.222 0 01-.318-.883 1.339 1.339 0 01.338-.962 1.178 1.178 0 01.9-.356 1.1 1.1 0 01.844.318 1.262 1.262 0 01.3.9 1.335 1.335 0 01-.336.956 1.172 1.172 0 01-.892.356zm.055-1.936c-.329 0-.492.23-.492.688q0 .651.478.651t.481-.678a.81.81 0 00-.128-.488.4.4 0 00-.339-.171z"></path></g><defs><radialGradient id="40fd3475-21aa-4a8a-956c-13a617e3510d" cx="9.32" cy="8.689" r="10.704" gradientUnits="userSpaceOnUse"><stop offset=".5" stop-color="#b3b3b3"></stop><stop offset="1" stop-color="#999"></stop></radialGradient></defs></svg>