<?xml version="1.0" encoding="UTF-8"?>
<svg xmlns="http://www.w3.org/2000/svg" xmlns:xlink="http://www.w3.org/1999/xlink" width="70pt" height="70pt" viewBox="0 0 70 70" version="1.1">
<defs>
<filter id="alpha" filterUnits="objectBoundingBox" x="0%" y="0%" width="100%" height="100%">
  <feColorMatrix type="matrix" in="SourceGraphic" values="0 0 0 0 1 0 0 0 0 1 0 0 0 0 1 0 0 0 1 0"/>
</filter>
<mask id="mask0">
  <g filter="url(#alpha)">
<rect x="0" y="0" width="70" height="70" style="fill:rgb(0,0,0);fill-opacity:0.2;stroke:none;"/>
  </g>
</mask>
<clipPath id="clip1">
  <rect x="0" y="0" width="70" height="70"/>
</clipPath>
<g id="surface5" clip-path="url(#clip1)">
<path style=" stroke:none;fill-rule:nonzero;fill:rgb(255,255,255);fill-opacity:1;" d="M 32.378906 70 C 30.839844 68.472656 29.695313 66.503906 29.171875 64.226563 C 27.722656 57.875 31.648438 51.554688 37.953125 50.117188 C 39.261719 49.820313 40.5625 49.765625 41.824219 49.910156 C 42.398438 43.972656 46.019531 38.691406 51.414063 36.085938 C 49.773438 35.5625 48.027344 35.273438 46.214844 35.273438 C 38.664063 35.273438 32.257813 40.203125 29.984375 47.050781 C 28.785156 46.628906 27.503906 46.390625 26.160156 46.390625 C 19.695313 46.390625 14.460938 51.675781 14.460938 58.191406 C 14.460938 64.714844 19.695313 70 26.160156 70 C 26.160156 70 26.171875 69.996094 26.179688 69.996094 L 26.179688 70 Z M 32.378906 70 "/>
</g>
</defs>
<g id="surface1">
<path style=" stroke:none;fill-rule:nonzero;fill:rgb(0,71,124);fill-opacity:1;" d="M 41.109375 66.445313 C 41.109375 68.410156 39.519531 70 37.554688 70 L 3.554688 70 C 1.589844 70 0 68.410156 0 66.445313 L 0 3.554688 C 0 1.589844 1.589844 0 3.554688 0 L 37.554688 0 C 39.519531 0 41.109375 1.589844 41.109375 3.554688 Z M 41.109375 66.445313 "/>
<path style=" stroke:none;fill-rule:nonzero;fill:rgb(0,33,58);fill-opacity:1;" d="M 6.042969 37.832031 C 6.042969 35.367188 8.042969 33.367188 10.511719 33.367188 L 30.96875 33.367188 C 33.4375 33.367188 35.4375 35.367188 35.4375 37.832031 C 35.4375 40.300781 33.4375 42.300781 30.96875 42.300781 L 10.511719 42.300781 C 8.042969 42.300781 6.042969 40.300781 6.042969 37.832031 Z M 6.042969 37.832031 "/>
<path style=" stroke:none;fill-rule:nonzero;fill:rgb(115,195,255);fill-opacity:1;" d="M 13.699219 37.832031 C 13.699219 39.488281 12.355469 40.832031 10.699219 40.832031 C 9.042969 40.832031 7.703125 39.488281 7.703125 37.832031 C 7.703125 36.175781 9.042969 34.835938 10.699219 34.835938 C 12.355469 34.835938 13.699219 36.175781 13.699219 37.832031 Z M 13.699219 37.832031 "/>
<path style=" stroke:none;fill-rule:nonzero;fill:rgb(0,33,58);fill-opacity:1;" d="M 6.042969 24.5625 C 6.042969 22.097656 8.042969 20.09375 10.511719 20.09375 L 30.96875 20.09375 C 33.4375 20.09375 35.4375 22.097656 35.4375 24.5625 C 35.4375 27.03125 33.4375 29.03125 30.96875 29.03125 L 10.511719 29.03125 C 8.042969 29.03125 6.042969 27.03125 6.042969 24.5625 Z M 6.042969 24.5625 "/>
<path style=" stroke:none;fill-rule:nonzero;fill:rgb(115,195,255);fill-opacity:1;" d="M 13.699219 24.5625 C 13.699219 26.21875 12.355469 27.5625 10.699219 27.5625 C 9.042969 27.5625 7.703125 26.21875 7.703125 24.5625 C 7.703125 22.90625 9.042969 21.5625 10.699219 21.5625 C 12.355469 21.5625 13.699219 22.90625 13.699219 24.5625 Z M 13.699219 24.5625 "/>
<path style=" stroke:none;fill-rule:nonzero;fill:rgb(0,33,58);fill-opacity:1;" d="M 6.042969 11.289063 C 6.042969 8.824219 8.042969 6.824219 10.511719 6.824219 L 30.96875 6.824219 C 33.4375 6.824219 35.4375 8.824219 35.4375 11.289063 C 35.4375 13.757813 33.4375 15.757813 30.96875 15.757813 L 10.511719 15.757813 C 8.042969 15.761719 6.042969 13.757813 6.042969 11.289063 Z M 6.042969 11.289063 "/>
<path style=" stroke:none;fill-rule:nonzero;fill:rgb(115,195,255);fill-opacity:1;" d="M 13.699219 11.289063 C 13.699219 12.945313 12.355469 14.289063 10.699219 14.289063 C 9.042969 14.289063 7.703125 12.945313 7.703125 11.289063 C 7.703125 9.636719 9.042969 8.292969 10.699219 8.292969 C 12.355469 8.292969 13.699219 9.636719 13.699219 11.289063 Z M 13.699219 11.289063 "/>
<path style=" stroke:none;fill-rule:nonzero;fill:rgb(57,171,255);fill-opacity:1;" d="M 69.929688 63.523438 C 69.929688 59.945313 67.058594 57.046875 63.507813 57.046875 C 63.242188 57.046875 62.980469 57.066406 62.726563 57.101563 C 63.117188 55.648438 63.335938 54.117188 63.335938 52.535156 C 63.335938 43.003906 55.667969 35.273438 46.21875 35.273438 C 38.664063 35.273438 32.261719 40.207031 29.984375 47.050781 C 28.785156 46.628906 27.503906 46.390625 26.164063 46.390625 C 19.695313 46.390625 14.464844 51.675781 14.464844 58.195313 C 14.464844 64.714844 19.695313 70 26.164063 70 C 26.164063 70 26.175781 69.996094 26.179688 69.996094 L 26.179688 70 L 64.03125 70 L 64.023438 69.96875 C 67.324219 69.707031 69.929688 66.925781 69.929688 63.523438 "/>
<use xlink:href="#surface5" mask="url(#mask0)"/>
</g>
</svg>
