<?xml version="1.0" encoding="UTF-8"?>
<svg xmlns="http://www.w3.org/2000/svg" xmlns:xlink="http://www.w3.org/1999/xlink" width="70pt" height="70pt" viewBox="0 0 70 70" version="1.1">
<g id="surface1">
<path style=" stroke:none;fill-rule:evenodd;fill:rgb(57,171,255);fill-opacity:1;" d="M 28.636719 50.90625 L 32.589844 41.363281 L 41.363281 41.363281 C 44.875 41.359375 47.722656 38.511719 47.726563 35 C 47.722656 31.488281 44.875 28.640625 41.363281 28.636719 L 12.726563 28.636719 L 28.636719 12.726563 L 28.636719 19.09375 L 41.363281 19.09375 C 50.152344 19.09375 57.273438 26.214844 57.273438 35 C 57.273438 43.542969 50.519531 50.464844 42.066406 50.839844 L 54.957031 63.734375 C 64.042969 57.410156 70 46.90625 70 35 C 70 15.671875 54.328125 0 35 0 C 15.671875 0 0 15.671875 0 35 C 0 54.328125 15.671875 70 35 70 C 38.832031 70 42.503906 69.363281 45.953125 68.230469 Z M 28.636719 50.90625 "/>
</g>
</svg>
