<?xml version="1.0" encoding="UTF-8"?>
<svg xmlns="http://www.w3.org/2000/svg" xmlns:xlink="http://www.w3.org/1999/xlink" width="70pt" height="70pt" viewBox="0 0 70 70" version="1.1">
<g id="surface1">
<path style=" stroke:none;fill-rule:nonzero;fill:rgb(34.901961%,70.588235%,85.098039%);fill-opacity:1;" d="M 56.269531 62.773438 C 50.179688 67.453125 42.714844 69.988281 35.035156 69.984375 C 24.507813 69.984375 14.097656 65.257813 7.21875 56.261719 C -4.535156 40.914063 -1.636719 18.96875 13.738281 7.207031 C 20.082031 2.328125 27.558594 0 34.96875 0 C 45.5 0 55.910156 4.726563 62.789063 13.734375 C 74.546875 29.074219 71.617188 51.027344 56.269531 62.773438 "/>
<path style=" stroke:none;fill-rule:nonzero;fill:rgb(100%,100%,100%);fill-opacity:1;" d="M 49.839844 41.128906 C 52.371094 44.429688 57.09375 45.058594 60.398438 42.535156 C 60.570313 42.402344 60.703125 42.242188 60.859375 42.101563 C 64.230469 44.476563 66.574219 46.046875 67.894531 46.945313 C 68.285156 45.933594 68.554688 44.960938 68.832031 43.945313 C 66.796875 42.421875 64.796875 40.855469 62.828125 39.246094 C 63.722656 36.894531 63.4375 34.152344 61.804688 32.007813 C 59.511719 29.019531 55.355469 28.195313 52.09375 30.082031 C 48.132813 26.523438 44.261719 22.867188 40.484375 19.113281 C 53.316406 12.214844 62.429688 13.222656 62.429688 13.222656 C 60.910156 11.285156 59.203125 9.585938 57.382813 8.046875 C 51.972656 7.210938 43.566406 7.304688 33.960938 12.414063 L 33.957031 12.410156 C 30.605469 8.898438 27.34375 5.296875 24.179688 1.613281 C 22.589844 2.121094 21.039063 2.753906 19.542969 3.5 C 21.992188 7.507813 25.285156 11.546875 29 15.492188 L 29.023438 15.515625 C 25.511719 17.992188 22.253906 20.8125 19.300781 23.9375 C 18.894531 24.367188 18.503906 24.804688 18.121094 25.238281 C 16.203125 24.832031 14.207031 24.96875 12.359375 25.632813 C 9.191406 18.796875 9.445313 13.300781 9.945313 10.46875 C 8.570313 11.910156 7.285156 13.425781 6.175781 15.042969 C 5.347656 18.425781 5.113281 23.300781 7.554688 29.175781 C 4.664063 32.957031 4.660156 38.207031 7.546875 41.988281 C 7.796875 42.3125 8.058594 42.609375 8.332031 42.894531 C 7.171875 46.886719 6.484375 51.003906 6.289063 55.160156 C 6.621094 55.609375 6.621094 55.972656 6.949219 56.414063 C 8.625 58.566406 10.734375 60.378906 12.773438 62.023438 C 12.519531 58.175781 12.792969 52.496094 15.171875 46.101563 C 16.835938 46.230469 18.507813 45.957031 20.046875 45.3125 C 20.945313 46.097656 21.882813 46.894531 22.882813 47.707031 C 26.046875 50.21875 29.464844 52.398438 33.082031 54.207031 C 32.894531 55.960938 33.378906 57.722656 34.4375 59.132813 C 36.789063 62.175781 41.15625 62.75 44.214844 60.417969 C 44.824219 59.941406 45.347656 59.367188 45.765625 58.714844 C 51.210938 59.929688 55.964844 60.144531 59.492188 60.144531 C 60.035156 60.144531 62.539063 56.730469 63.976563 54.617188 C 61.828125 55.066406 55.460938 55.941406 46.757813 53.441406 C 46.546875 52.4375 46.121094 51.488281 45.5 50.671875 C 43.289063 47.773438 39.246094 47.144531 36.234375 49.085938 C 32.90625 47.265625 29.738281 45.164063 26.773438 42.796875 C 26.128906 42.289063 25.496094 41.765625 24.871094 41.234375 C 26.890625 38.039063 27.058594 34.015625 25.316406 30.664063 C 25.714844 30.261719 26.109375 29.859375 26.535156 29.464844 C 29.769531 26.441406 32.816406 24.019531 35.664063 22.078125 C 35.546875 21.972656 35.445313 21.859375 35.332031 21.753906 C 35.445313 21.859375 35.550781 21.964844 35.667969 22.070313 L 35.664063 22.074219 C 40.03125 26.113281 44.664063 29.941406 49.054688 33.363281 C 47.894531 35.824219 48.074219 38.820313 49.839844 41.128906 Z M 49.839844 41.128906 "/>
</g>
</svg>
