<?xml version="1.0" encoding="UTF-8"?>
<svg xmlns="http://www.w3.org/2000/svg" xmlns:xlink="http://www.w3.org/1999/xlink" width="70pt" height="61pt" viewBox="0 0 70 61" version="1.1">
<g id="surface1">
<path style=" stroke:none;fill-rule:nonzero;fill:rgb(0%,47.058824%,84.313725%);fill-opacity:1;" d="M 62.417969 26.433594 C 62.5625 25.417969 62.5625 23.964844 62.5625 22.949219 C 62.5625 10.601563 52.355469 0 39.957031 0 L 39.8125 0 C 30.917969 0 22.894531 5.664063 19.25 13.652344 C 18.230469 13.507813 17.207031 13.652344 16.1875 13.652344 C 7.144531 13.652344 0 21.058594 0 29.917969 C 0 38.777344 7.292969 46.039063 16.332031 46.039063 L 24.644531 46.039063 C 24.9375 47.203125 25.667969 48.21875 26.542969 49.089844 C 29.457031 51.996094 34.269531 51.996094 37.1875 49.089844 C 40.105469 46.1875 40.105469 41.539063 37.1875 38.632813 C 34.269531 35.730469 29.605469 35.730469 26.542969 38.632813 C 25.8125 39.359375 25.230469 39.941406 24.9375 40.957031 C 24.9375 40.957031 16.480469 40.667969 16.480469 40.667969 C 10.207031 40.667969 5.25 36.019531 5.105469 29.773438 C 5.105469 23.527344 10.207031 18.589844 16.480469 18.589844 C 17.644531 18.589844 18.957031 18.882813 20.125 19.316406 L 22.457031 20.1875 L 23.1875 17.863281 C 25.519531 10.601563 32.375 5.808594 39.957031 5.808594 C 49.730469 5.808594 57.605469 13.652344 57.605469 23.382813 C 57.605469 24.980469 57.457031 26.578125 57.019531 28.03125 L 56 31.515625 L 59.644531 31.082031 C 59.9375 31.082031 60.082031 31.082031 60.230469 31.082031 C 63 31.082031 65.332031 33.40625 65.332031 36.164063 C 65.332031 38.777344 63.4375 40.957031 60.8125 41.246094 C 60.8125 41.246094 48.707031 41.394531 47.980469 41.394531 C 47.394531 38.050781 45.792969 34.855469 43.3125 32.386719 C 40.25 29.191406 36.019531 27.449219 31.5 27.449219 C 28.4375 27.449219 25.519531 28.320313 22.894531 29.773438 L 25.519531 33.984375 C 27.269531 32.824219 29.457031 32.242188 31.644531 32.242188 C 34.707031 32.242188 37.769531 33.40625 39.957031 35.730469 C 42.144531 37.90625 43.457031 40.8125 43.457031 44.007813 C 43.457031 47.058594 42.292969 50.105469 39.957031 52.285156 C 37.769531 54.464844 34.855469 55.769531 31.644531 55.769531 C 29.457031 55.769531 27.269531 55.191406 25.519531 54.027344 L 22.894531 58.242188 C 25.519531 59.839844 28.582031 60.710938 31.644531 60.710938 C 36.167969 60.710938 40.25 58.964844 43.457031 55.769531 C 46.082031 53.15625 47.6875 49.816406 48.125 46.332031 C 48.707031 46.332031 60.957031 46.1875 60.957031 46.1875 L 61.105469 46.1875 C 66.355469 45.75 70.292969 41.394531 70.292969 36.164063 C 70.4375 31.371094 67.082031 27.304688 62.417969 26.433594 Z M 62.417969 26.433594 "/>
</g>
</svg>
