<?xml version="1.0" encoding="UTF-8"?>
<svg xmlns="http://www.w3.org/2000/svg" xmlns:xlink="http://www.w3.org/1999/xlink" width="70pt" height="70pt" viewBox="0 0 70 70" version="1.1">
<defs>
<filter id="alpha" filterUnits="objectBoundingBox" x="0%" y="0%" width="100%" height="100%">
  <feColorMatrix type="matrix" in="SourceGraphic" values="0 0 0 0 1 0 0 0 0 1 0 0 0 0 1 0 0 0 1 0"/>
</filter>
<mask id="mask0">
  <g filter="url(#alpha)">
<rect x="0" y="0" width="70" height="70" style="fill:rgb(0,0,0);fill-opacity:0.2;stroke:none;"/>
  </g>
</mask>
<clipPath id="clip1">
  <rect x="0" y="0" width="70" height="70"/>
</clipPath>
<g id="surface5" clip-path="url(#clip1)">
<path style=" stroke:none;fill-rule:nonzero;fill:rgb(255,255,255);fill-opacity:1;" d="M 9.800781 39.199219 C 9.800781 33.460938 12.738281 28.980469 18.199219 26.179688 L 18.199219 25.058594 C 18.199219 17.078125 24.78125 10.640625 32.761719 10.640625 C 35.558594 10.640625 38.21875 11.339844 40.460938 12.738281 C 43.960938 7.839844 49.839844 4.761719 56.140625 4.761719 C 52.78125 1.820313 48.441406 0 43.539063 0 C 37.660156 0 32.199219 2.800781 28.839844 7.421875 C 26.738281 6.019531 24.21875 5.320313 21.558594 5.320313 C 14 5.320313 7.839844 11.480469 7.839844 18.898438 L 7.839844 20.019531 C 2.800781 22.679688 0 27.019531 0 32.339844 C 0 39.480469 4.898438 45.359375 11.761719 46.898438 C 10.5 44.660156 9.800781 42 9.800781 39.199219 Z M 9.800781 39.199219 "/>
</g>
<mask id="mask1">
  <g filter="url(#alpha)">
<rect x="0" y="0" width="70" height="70" style="fill:rgb(0,0,0);fill-opacity:0.101961;stroke:none;"/>
  </g>
</mask>
<clipPath id="clip2">
  <rect x="0" y="0" width="70" height="70"/>
</clipPath>
<g id="surface8" clip-path="url(#clip2)">
<path style=" stroke:none;fill-rule:nonzero;fill:rgb(57,171,255);fill-opacity:1;" d="M 48.019531 43.398438 C 46.621094 48.859375 41.859375 52.640625 36.261719 52.640625 C 35.28125 52.640625 34.300781 52.5 33.320313 52.21875 C 31.921875 51.800781 30.519531 51.238281 29.398438 50.398438 C 28.140625 49.558594 27.160156 48.441406 26.320313 47.320313 C 24.5 44.519531 23.660156 41.160156 24.5 37.660156 C 25.898438 32.199219 30.660156 28.421875 36.261719 28.421875 C 37.238281 28.421875 38.21875 28.558594 39.199219 28.839844 C 42.28125 29.679688 44.941406 31.5 46.621094 34.300781 C 48.300781 36.960938 48.859375 40.320313 48.019531 43.398438 "/>
</g>
<mask id="mask2">
  <g filter="url(#alpha)">
<rect x="0" y="0" width="70" height="70" style="fill:rgb(0,0,0);fill-opacity:0.301961;stroke:none;"/>
  </g>
</mask>
<clipPath id="clip3">
  <rect x="0" y="0" width="70" height="70"/>
</clipPath>
<g id="surface11" clip-path="url(#clip3)">
<path style=" stroke:none;fill-rule:nonzero;fill:rgb(57,171,255);fill-opacity:1;" d="M 42.839844 30.378906 C 41.71875 29.679688 40.460938 29.121094 39.199219 28.839844 C 38.21875 28.558594 37.238281 28.421875 36.261719 28.421875 C 30.660156 28.421875 25.898438 32.199219 24.5 37.660156 C 23.660156 41.160156 24.359375 44.660156 26.320313 47.320313 C 26.601563 47.738281 27.019531 48.300781 27.441406 48.71875 C 29.960938 40.738281 35.558594 34.160156 42.839844 30.378906 "/>
</g>
<mask id="mask3">
  <g filter="url(#alpha)">
<rect x="0" y="0" width="70" height="70" style="fill:rgb(0,0,0);fill-opacity:0.501961;stroke:none;"/>
  </g>
</mask>
<clipPath id="clip4">
  <rect x="0" y="0" width="70" height="70"/>
</clipPath>
<g id="surface14" clip-path="url(#clip4)">
<path style=" stroke:none;fill-rule:nonzero;fill:rgb(0,33,58);fill-opacity:1;" d="M 26.460938 54.738281 C 24.640625 53.480469 23.238281 52.078125 21.980469 50.261719 C 21.699219 49.839844 21.558594 49.558594 21.28125 49.140625 L 20.160156 50.398438 L 20.019531 50.539063 C 20.160156 50.820313 20.300781 51.101563 20.578125 51.378906 C 21.980469 53.339844 23.519531 55.019531 25.480469 56.421875 C 25.621094 56.558594 26.039063 56.699219 26.460938 56.839844 L 27.71875 55.578125 C 27.160156 55.160156 26.878906 55.019531 26.460938 54.738281 Z M 26.460938 54.738281 "/>
</g>
</defs>
<g id="surface1">
<path style=" stroke:none;fill-rule:nonzero;fill:rgb(57,171,255);fill-opacity:1;" d="M 61.601563 19.878906 C 61.601563 19.320313 61.738281 18.621094 61.738281 18.058594 C 61.738281 8.121094 53.621094 0.140625 43.539063 0.140625 C 37.660156 0 32.199219 2.800781 28.839844 7.421875 C 26.738281 6.019531 24.21875 5.320313 21.558594 5.320313 C 14 5.320313 7.839844 11.480469 7.839844 18.898438 L 7.839844 20.019531 C 2.800781 22.679688 0 27.019531 0 32.339844 C 0 40.738281 6.859375 47.320313 15.679688 47.320313 L 54.320313 47.320313 C 63.140625 47.320313 70 40.738281 70 32.339844 C 70 26.738281 66.921875 22.261719 61.601563 19.878906 Z M 61.601563 19.878906 "/>
<use xlink:href="#surface5" mask="url(#mask0)"/>
<path style=" stroke:none;fill-rule:nonzero;fill:rgb(255,255,255);fill-opacity:1;" d="M 48.019531 43.398438 C 46.621094 48.859375 41.859375 52.640625 36.261719 52.640625 C 35.28125 52.640625 34.300781 52.5 33.320313 52.21875 C 31.921875 51.800781 30.519531 51.238281 29.398438 50.398438 C 28.140625 49.558594 27.160156 48.441406 26.320313 47.320313 C 24.5 44.519531 23.660156 41.160156 24.5 37.660156 C 25.898438 32.199219 30.660156 28.421875 36.261719 28.421875 C 37.238281 28.421875 38.21875 28.558594 39.199219 28.839844 C 42.28125 29.679688 44.941406 31.5 46.621094 34.300781 C 48.300781 36.960938 48.859375 40.320313 48.019531 43.398438 "/>
<use xlink:href="#surface8" mask="url(#mask1)"/>
<use xlink:href="#surface11" mask="url(#mask2)"/>
<path style=" stroke:none;fill-rule:nonzero;fill:rgb(0,71,124);fill-opacity:1;" d="M 51.101563 31.640625 C 48.71875 27.71875 44.941406 24.921875 40.460938 23.800781 C 39.058594 23.519531 37.660156 23.238281 36.261719 23.238281 C 28.28125 23.238281 21.421875 28.699219 19.460938 36.398438 C 18.339844 40.738281 19.039063 45.21875 21.28125 49.140625 L 8.121094 62.441406 C 6.441406 64.121094 6.441406 67.058594 8.121094 68.738281 C 9.101563 69.578125 10.21875 70 11.339844 70 C 12.460938 70 13.578125 69.578125 14.558594 68.738281 L 27.71875 55.441406 C 29.121094 56.28125 30.660156 56.839844 32.199219 57.261719 C 33.601563 57.539063 35 57.820313 36.398438 57.820313 C 44.378906 57.820313 51.238281 52.359375 53.199219 44.660156 C 54.179688 40.179688 53.480469 35.558594 51.101563 31.640625 Z M 48.019531 43.398438 C 46.621094 48.859375 41.859375 52.640625 36.261719 52.640625 C 35.28125 52.640625 34.300781 52.5 33.320313 52.21875 C 31.921875 51.800781 30.519531 51.238281 29.398438 50.398438 C 28.140625 49.558594 27.160156 48.441406 26.320313 47.320313 C 24.5 44.519531 23.660156 41.160156 24.5 37.660156 C 25.898438 32.199219 30.660156 28.421875 36.261719 28.421875 C 37.238281 28.421875 38.21875 28.558594 39.199219 28.839844 C 42.28125 29.679688 44.941406 31.5 46.621094 34.300781 C 48.300781 37.101563 48.859375 40.320313 48.019531 43.398438 Z M 48.019531 43.398438 "/>
<use xlink:href="#surface14" mask="url(#mask3)"/>
</g>
</svg>
