<?xml version="1.0" encoding="utf-8"?><svg version="1.1" xmlns="http://www.w3.org/2000/svg" xmlns:xlink="http://www.w3.org/1999/xlink" xmlns:xml="http://www.w3.org/XML/1998/namespace" width="70" height="70" viewBox="0, 0, 50, 50" id="FxSymbol0-03b" class="" role="presentation" focusable="false"><g><title /><title>SignalRServiceblue</title><path d="M20.455 36.363 l2.823 -6.818 h6.267 a4.551 4.551 0 0 0 4.546 -4.544 a4.551 4.551 0 0 0 -4.546 -4.546 H9.09 L20.455 9.09 v4.547 h9.09 c6.277 0 11.365 5.088 11.365 11.364 c0 6.102 -4.825 11.044 -10.863 11.314 l9.209 9.209 C45.745 41.007 50 33.504 50 25 C50 11.194 38.806 0 25 0 S0 11.194 0 25 s11.194 25 25 25 c2.737 0 5.36 -0.455 7.825 -1.265 l-12.37 -12.372 z" fill-rule="evenodd" class="msportalfx-svg-c15" style="fill:#39ABFF;" /></g></svg>