<?xml version="1.0" encoding="utf-8"?><svg version="1.1" xmlns="http://www.w3.org/2000/svg" xmlns:xlink="http://www.w3.org/1999/xlink" xmlns:xml="http://www.w3.org/XML/1998/namespace" width="70" height="70" viewBox="0, 0, 201.78, 150" id="FxSymbol0-09b" class="" role="presentation" focusable="false" data-type="1"><g><title /><path d="M86.86 0 L0 28.88 v71.68 l80.47 29.73 l6.31 2.36 v-0.03 l87.92 -31.91 V28.89 L86.86 0 z" style="fill:#0072C6;" /><path d="M6.92 36.07 v59.62 l2.09 0.77 V38.67 l6.2 -2.05 v-3.68 l-8.29 2.75 v0.38 z m11.34 -3.48 v67.29 l2.44 0.9 V34.79 l7.3 -2.42 v-3.68 l-9.74 3.24 v0.66 z m13.73 -4.95 v77.31 l2.79 1.04 V30.11 l8.8 -2.92 v-3.68 l-11.59 3.85 v0.28 z m48.77 -12.8 v-3.68 l-14.29 4.75 h-0.03 v101.78 l3.49 1.29 V18.43 l10.83 -3.59 z M48.6 22.01 v89.08 l3.14 1.16 V24.48 l8.6 -2.86 v-3.67 L48.6 21.84 v0.17 z" style="fill:#00477C;" /><path d="M174.68 100.81 l-87.81 31.84 V0.12 l87.83 28.92 l-0.02 71.77 z" style="fill:#008EF8;" /><path d="M199.76 131.68 A15.83 15.83 0 0 0 184 115.81 h-2.22 a46.83 46.83 0 0 0 1.72 -11.16 a42.2 42.2 0 0 0 -82.34 -13.29 a33.54 33.54 0 0 0 -9.42 -1.72 a29.17 29.17 0 0 0 0 58.33 h93.46 a16.3 16.3 0 0 0 14.56 -16.29" style="fill:#3BABFF;" /><path d="M106.5 148 a29.16 29.16 0 0 1 14.15 -48.89 a23.92 23.92 0 0 1 9.42 -0.43 a42.53 42.53 0 0 1 23.58 -34.3 a40.46 40.46 0 0 0 -12.86 -2.13 a42 42 0 0 0 -39.9 29.16 a33.54 33.54 0 0 0 -9.42 -1.72 a29.16 29.16 0 0 0 0 58.31 z" style="fill:#5FBBFF;" /><circle cx="93.04" cy="8.76" r="2.33" style="fill:#005492;" /><ellipse cx="168.36" cy="32.92" rx="2.2" ry="2.33" style="fill:#005492;" /><path d="M91.7 150 a31.18 31.18 0 0 1 0 -62.36 a30 30 0 0 1 8.15 1.28 A43.89 43.89 0 0 1 141 60.18 a44.53 44.53 0 0 1 44.49 44.49 a42.8 42.8 0 0 1 -1.18 9.15 a17.89 17.89 0 0 1 17.46 17.86 A18.32 18.32 0 0 1 185.38 150 z m0 -58.31 a27.13 27.13 0 1 0 0 54.26 h93.51 a14.25 14.25 0 0 0 12.56 -14.27 a13.86 13.86 0 0 0 -13.86 -13.84 h-4.73 l0.63 -2.52 a45.28 45.28 0 0 0 1.66 -10.67 A40.49 40.49 0 0 0 141 64.22 A39.9 39.9 0 0 0 103 92 l-0.61 1.86 l-1.87 -0.53 a31.43 31.43 0 0 0 -8.82 -1.64 z" class="msportalfx-svg-c01" style="fill:white;" /></g><defs /></svg>