<?xml version="1.0" encoding="UTF-8"?>
<svg xmlns="http://www.w3.org/2000/svg" xmlns:xlink="http://www.w3.org/1999/xlink" width="70pt" height="70pt" viewBox="0 0 70 70" version="1.1">
<defs>
<linearGradient id="linear0" gradientUnits="userSpaceOnUse" x1="8.153" y1="17.5" x2="8.153" y2="2.093" gradientTransform="matrix(3.888889,0,0,3.888889,0,0)">
<stop offset="0" style="stop-color:rgb(21,155,255);stop-opacity:1;"/>
<stop offset="0.9" style="stop-color:rgb(65,174,255);stop-opacity:1;"/>
</linearGradient>
</defs>
<g id="surface1">
<path style=" stroke:none;fill-rule:nonzero;fill:rgb(0,132,230);fill-opacity:1;" d="M 7.507813 8.203125 L 12.21875 2.722656 C 12.65625 2.226563 13.285156 1.945313 13.945313 1.945313 L 59.109375 1.945313 C 60.011719 1.859375 60.902344 2.167969 61.5625 2.785156 C 62.222656 3.402344 62.589844 4.273438 62.5625 5.175781 L 62.5625 61.566406 C 62.5625 62.207031 62.292969 62.824219 61.816406 63.257813 L 56.730469 67.886719 L 10.5625 67.886719 L 7.449219 66.578125 Z M 7.507813 8.203125 "/>
<path style=" stroke:none;fill-rule:nonzero;fill:rgb(255,255,255);fill-opacity:1;" d="M 11.296875 8.167969 L 14.183594 4.875 C 14.570313 4.433594 15.128906 4.179688 15.714844 4.179688 L 57.890625 4.179688 C 59.011719 4.179688 59.921875 5.089844 59.921875 6.210938 L 59.921875 59.824219 C 59.921875 60.394531 59.679688 60.941406 59.253906 61.324219 L 54.75 65.425781 Z M 11.296875 8.167969 "/>
<path style=" stroke:none;fill-rule:nonzero;fill:url(#linear0);" d="M 54.476563 8.140625 L 7.65625 8.140625 C 7.535156 8.140625 7.4375 8.238281 7.4375 8.355469 L 7.4375 66.558594 C 7.4375 66.957031 7.597656 67.339844 7.878906 67.621094 C 8.164063 67.902344 8.546875 68.058594 8.945313 68.054688 L 54.484375 68.054688 C 55.308594 68.054688 55.980469 67.386719 55.980469 66.558594 L 55.980469 9.636719 C 55.976563 8.808594 55.304688 8.136719 54.476563 8.140625 Z M 54.476563 8.140625 "/>
<path style=" stroke:none;fill-rule:nonzero;fill:rgb(255,255,255);fill-opacity:1;" d="M 40.832031 38.339844 C 40.84375 40.644531 39.953125 42.859375 38.351563 44.511719 C 38.105469 44.863281 37.71875 45.09375 37.292969 45.140625 C 36.863281 45.191406 36.4375 45.050781 36.121094 44.761719 C 35.789063 44.46875 35.605469 44.042969 35.609375 43.601563 C 35.613281 43.160156 35.808594 42.742188 36.144531 42.453125 C 38.421875 40.097656 38.421875 36.359375 36.144531 34 C 35.699219 33.617188 35.515625 33.015625 35.671875 32.449219 C 35.824219 31.886719 36.289063 31.460938 36.867188 31.359375 C 37.445313 31.253906 38.027344 31.492188 38.367188 31.96875 C 39.996094 33.6875 40.882813 35.976563 40.832031 38.339844 Z M 40.832031 38.339844 "/>
<path style=" stroke:none;fill-rule:nonzero;fill:rgb(255,255,255);fill-opacity:1;" d="M 22.582031 38.335938 C 22.570313 35.984375 23.457031 33.714844 25.054688 31.988281 C 25.394531 31.5 25.992188 31.253906 26.578125 31.359375 C 27.164063 31.464844 27.636719 31.902344 27.785156 32.480469 C 27.933594 33.054688 27.730469 33.667969 27.269531 34.042969 C 25.03125 36.394531 25.03125 40.085938 27.269531 42.4375 C 27.613281 42.730469 27.8125 43.164063 27.8125 43.617188 C 27.8125 44.070313 27.613281 44.5 27.269531 44.796875 C 26.964844 45.054688 26.566406 45.183594 26.167969 45.144531 C 25.765625 45.105469 25.398438 44.90625 25.148438 44.59375 C 23.53125 42.910156 22.613281 40.671875 22.582031 38.335938 Z M 22.582031 38.335938 "/>
<path style=" stroke:none;fill-rule:nonzero;fill:rgb(255,255,255);fill-opacity:1;" d="M 29.167969 38.195313 C 29.167969 37.519531 29.4375 36.867188 29.917969 36.390625 C 30.398438 35.910156 31.050781 35.644531 31.730469 35.644531 C 33.117188 35.699219 34.214844 36.839844 34.214844 38.230469 C 34.214844 39.617188 33.117188 40.761719 31.730469 40.8125 C 31.039063 40.824219 30.371094 40.550781 29.886719 40.054688 C 29.402344 39.558594 29.140625 38.886719 29.167969 38.195313 Z M 29.167969 38.195313 "/>
<path style=" stroke:none;fill-rule:nonzero;fill:rgb(255,255,255);fill-opacity:1;" d="M 48.609375 38.109375 C 48.632813 41.546875 47.300781 44.851563 44.910156 47.316406 C 44.542969 47.84375 43.972656 48.1875 43.335938 48.261719 C 42.699219 48.335938 42.058594 48.132813 41.582031 47.703125 C 41.089844 47.265625 40.8125 46.632813 40.816406 45.972656 C 40.824219 45.3125 41.117188 44.6875 41.617188 44.257813 C 45.015625 40.742188 45.015625 35.167969 41.617188 31.652344 C 40.953125 31.082031 40.679688 30.179688 40.910156 29.335938 C 41.140625 28.492188 41.839844 27.855469 42.699219 27.707031 C 43.5625 27.554688 44.433594 27.910156 44.941406 28.625 C 47.367188 31.179688 48.683594 34.589844 48.609375 38.109375 Z M 48.609375 38.109375 "/>
<path style=" stroke:none;fill-rule:nonzero;fill:rgb(255,255,255);fill-opacity:1;" d="M 14.777344 37.824219 C 14.757813 41.257813 16.085938 44.5625 18.480469 47.027344 C 18.84375 47.554688 19.417969 47.902344 20.054688 47.976563 C 20.691406 48.050781 21.328125 47.847656 21.804688 47.417969 C 22.308594 46.980469 22.59375 46.34375 22.589844 45.675781 C 22.585938 45.007813 22.289063 44.375 21.777344 43.945313 C 18.382813 40.425781 18.382813 34.855469 21.777344 31.335938 C 22.445313 30.769531 22.726563 29.863281 22.496094 29.019531 C 22.269531 28.171875 21.570313 27.53125 20.703125 27.382813 C 19.839844 27.230469 18.964844 27.59375 18.460938 28.3125 C 16.027344 30.871094 14.703125 34.289063 14.777344 37.824219 Z M 14.777344 37.824219 "/>
</g>
</svg>
