<?xml version="1.0" encoding="UTF-8"?>
<svg xmlns="http://www.w3.org/2000/svg" xmlns:xlink="http://www.w3.org/1999/xlink" width="70pt" height="70pt" viewBox="0 0 70 70" version="1.1">
<g id="surface1">
<path style=" stroke:none;fill-rule:nonzero;fill:rgb(49.803922%,72.941176%,0%);fill-opacity:1;" d="M 54.6875 26.25 C 56.808594 26.25 58.796875 26.65625 60.652344 27.464844 C 62.507813 28.273438 64.128906 29.367188 65.507813 30.746094 C 66.886719 32.125 67.976563 33.742188 68.789063 35.597656 C 69.597656 37.457031 70 39.445313 70 41.5625 C 70 43.683594 69.59375 45.671875 68.785156 47.527344 C 67.976563 49.382813 66.882813 51.003906 65.503906 52.382813 C 64.125 53.761719 62.507813 54.851563 60.652344 55.664063 C 58.792969 56.472656 56.804688 56.875 54.6875 56.875 L 37.1875 56.875 C 35.066406 56.875 33.078125 56.472656 31.222656 55.664063 C 29.367188 54.851563 27.746094 53.761719 26.367188 52.382813 C 24.988281 51.003906 23.898438 49.386719 23.085938 47.527344 C 22.277344 45.667969 21.875 43.679688 21.875 41.5625 C 21.875 39.445313 22.277344 37.457031 23.085938 35.597656 C 23.898438 33.742188 24.988281 32.125 26.367188 30.746094 C 27.746094 29.367188 29.363281 28.273438 31.222656 27.464844 C 33.082031 26.65625 35.070313 26.25 37.1875 26.25 L 39.375 26.25 L 39.375 30.625 C 37.644531 30.625 35.984375 30.824219 34.402344 31.222656 C 32.820313 31.621094 31.421875 32.261719 30.214844 33.136719 C 29.007813 34.011719 28.042969 35.140625 27.328125 36.519531 C 26.609375 37.898438 26.25 39.578125 26.25 41.5625 C 26.25 43.066406 26.542969 44.476563 27.121094 45.800781 C 27.703125 47.121094 28.488281 48.277344 29.480469 49.269531 C 30.472656 50.261719 31.628906 51.046875 32.949219 51.628906 C 34.273438 52.207031 35.683594 52.5 37.1875 52.5 L 54.6875 52.5 C 56.191406 52.5 57.605469 52.207031 58.925781 51.628906 C 60.246094 51.046875 61.402344 50.261719 62.394531 49.269531 C 63.386719 48.277344 64.171875 47.121094 64.753906 45.800781 C 65.335938 44.476563 65.625 43.066406 65.625 41.5625 C 65.625 39.578125 65.269531 37.898438 64.550781 36.519531 C 63.832031 35.140625 62.871094 34.015625 61.660156 33.136719 C 60.453125 32.257813 59.058594 31.621094 57.472656 31.222656 C 55.890625 30.824219 54.234375 30.625 52.5 30.625 L 52.5 26.25 Z M 54.6875 26.25 "/>
<path style=" stroke:none;fill-rule:nonzero;fill:rgb(34.901961%,70.588235%,85.098039%);fill-opacity:1;" d="M 30.625 43.75 L 30.625 39.375 C 32.355469 39.375 34.015625 39.175781 35.597656 38.777344 C 37.179688 38.378906 38.578125 37.738281 39.785156 36.863281 C 40.992188 35.988281 41.957031 34.859375 42.671875 33.480469 C 43.390625 32.101563 43.75 30.421875 43.75 28.4375 C 43.75 26.933594 43.457031 25.523438 42.878906 24.199219 C 42.296875 22.878906 41.511719 21.722656 40.519531 20.730469 C 39.527344 19.738281 38.371094 18.953125 37.050781 18.371094 C 35.726563 17.792969 34.316406 17.5 32.8125 17.5 L 15.3125 17.5 C 13.808594 17.5 12.398438 17.792969 11.074219 18.371094 C 9.753906 18.953125 8.597656 19.738281 7.605469 20.730469 C 6.613281 21.722656 5.828125 22.878906 5.246094 24.199219 C 4.667969 25.523438 4.375 26.933594 4.375 28.4375 C 4.375 30.421875 4.734375 32.101563 5.453125 33.480469 C 6.167969 34.859375 7.132813 35.984375 8.339844 36.863281 C 9.546875 37.742188 10.945313 38.378906 12.527344 38.777344 C 14.109375 39.175781 15.769531 39.375 17.5 39.375 L 17.5 43.75 L 15.3125 43.75 C 13.191406 43.75 11.203125 43.34375 9.347656 42.535156 C 7.492188 41.726563 5.871094 40.632813 4.492188 39.257813 C 3.113281 37.878906 2.023438 36.261719 1.210938 34.402344 C 0.402344 32.542969 0 30.554688 0 28.4375 C 0 26.320313 0.40625 24.332031 1.214844 22.472656 C 2.023438 20.617188 3.117188 19 4.496094 17.621094 C 5.875 16.242188 7.492188 15.148438 9.347656 14.339844 C 11.207031 13.53125 13.195313 13.125 15.3125 13.125 L 32.8125 13.125 C 34.933594 13.125 36.921875 13.53125 38.777344 14.339844 C 40.632813 15.148438 42.253906 16.242188 43.632813 17.621094 C 45.011719 19 46.101563 20.617188 46.914063 22.472656 C 47.722656 24.332031 48.125 26.320313 48.125 28.4375 C 48.125 30.554688 47.722656 32.546875 46.914063 34.402344 C 46.101563 36.257813 45.011719 37.878906 43.632813 39.257813 C 42.253906 40.636719 40.636719 41.726563 38.777344 42.539063 C 36.917969 43.347656 34.929688 43.75 32.8125 43.75 Z M 30.625 43.75 "/>
</g>
</svg>
