<?xml version="1.0" encoding="UTF-8"?>
<svg xmlns="http://www.w3.org/2000/svg" xmlns:xlink="http://www.w3.org/1999/xlink" width="70pt" height="70pt" viewBox="0 0 70 70" version="1.1">
<g id="surface1">
<path style=" stroke:none;fill-rule:nonzero;fill:rgb(57,171,255);fill-opacity:1;" d="M 43.945313 49.023438 C 38.992188 52.8125 33.15625 54.65625 27.363281 54.65625 C 19.140625 54.65625 11.011719 50.964844 5.636719 43.9375 C -3.542969 31.953125 -1.277344 14.8125 10.730469 5.628906 C 15.679688 1.820313 21.523438 0 27.3125 0 C 35.535156 0 43.664063 3.691406 49.035156 10.726563 C 58.21875 22.707031 55.929688 39.851563 43.945313 49.023438 "/>
<path style=" stroke:none;fill-rule:nonzero;fill:rgb(255,255,255);fill-opacity:1;" d="M 38.925781 32.121094 C 40.910156 34.710938 44.59375 35.179688 47.167969 33.21875 C 47.304688 33.117188 47.40625 32.992188 47.53125 32.882813 C 50.164063 34.738281 51.992188 35.960938 53.023438 36.664063 C 53.328125 35.871094 53.539063 35.113281 53.753906 34.320313 C 52.667969 33.511719 51.195313 32.375 49.066406 30.652344 C 49.765625 28.816406 49.542969 26.671875 48.269531 25 C 46.445313 22.636719 43.210938 22.035156 40.683594 23.492188 C 37.902344 20.996094 34.84375 18.132813 31.617188 14.929688 C 41.636719 9.539063 48.757813 10.328125 48.757813 10.328125 C 47.566406 8.8125 46.238281 7.484375 44.8125 6.289063 C 40.589844 5.636719 34.023438 5.707031 26.523438 9.699219 L 26.519531 9.695313 C 24.019531 7.074219 21.476563 4.269531 18.882813 1.261719 C 17.644531 1.65625 16.433594 2.148438 15.261719 2.734375 C 17.175781 5.863281 19.75 9.019531 22.648438 12.097656 C 22.652344 12.105469 22.660156 12.109375 22.664063 12.117188 C 20.25 13.804688 17.554688 16.066406 15.074219 18.691406 C 14.757813 19.03125 14.453125 19.371094 14.152344 19.710938 C 12.667969 19.398438 11.109375 19.492188 9.652344 20.019531 C 7.175781 14.675781 7.375 10.386719 7.765625 8.175781 C 6.691406 9.304688 5.6875 10.484375 4.824219 11.75 C 4.175781 14.390625 3.996094 18.195313 5.902344 22.785156 C 3.691406 25.675781 3.589844 29.773438 5.894531 32.792969 C 6.085938 33.042969 6.292969 33.277344 6.507813 33.5 C 5.5 36.929688 5.050781 40.238281 4.910156 43.078125 C 5.171875 43.429688 5.171875 43.714844 5.429688 44.058594 C 6.738281 45.738281 8.386719 47.15625 9.976563 48.441406 C 9.777344 45.433594 9.992188 41 11.851563 36.007813 C 13.132813 36.105469 14.4375 35.902344 15.660156 35.386719 C 16.359375 36.003906 17.089844 36.625 17.871094 37.257813 C 20.554688 39.382813 23.230469 41.035156 25.835938 42.335938 C 25.703125 43.660156 26.035156 45.039063 26.894531 46.179688 C 28.738281 48.558594 32.148438 49.003906 34.53125 47.1875 C 35.027344 46.804688 35.417969 46.347656 35.742188 45.855469 C 39.992188 46.800781 43.710938 46.96875 46.464844 46.96875 C 46.882813 46.96875 48.84375 44.308594 49.964844 42.65625 C 48.289063 43.007813 43.3125 43.691406 36.515625 41.738281 C 36.351563 40.972656 36.039063 40.230469 35.535156 39.574219 C 33.808594 37.308594 30.652344 36.820313 28.296875 38.332031 C 25.933594 37.050781 23.460938 35.445313 20.910156 33.421875 C 20.394531 33.015625 19.898438 32.609375 19.421875 32.203125 C 20.984375 29.746094 21.148438 26.597656 19.769531 23.945313 C 20.082031 23.636719 20.390625 23.320313 20.722656 23.011719 C 23.25 20.648438 25.628906 18.761719 27.851563 17.242188 C 27.761719 17.160156 27.679688 17.074219 27.59375 16.988281 C 27.679688 17.070313 27.765625 17.15625 27.855469 17.238281 C 27.851563 17.238281 27.851563 17.238281 27.851563 17.238281 C 31.261719 20.394531 34.882813 23.382813 38.308594 26.058594 C 37.402344 27.976563 37.546875 30.320313 38.925781 32.121094 Z M 38.925781 32.121094 "/>
<path style=" stroke:none;fill-rule:nonzero;fill:rgb(255,255,255);fill-opacity:1;" d="M 70 48.914063 C 70 60.558594 60.558594 70 48.914063 70 C 37.265625 70 27.828125 60.558594 27.828125 48.914063 C 27.828125 37.265625 37.265625 27.828125 48.914063 27.828125 C 60.558594 27.828125 70 37.265625 70 48.914063 Z M 70 48.914063 "/>
<path style=" stroke:none;fill-rule:nonzero;fill:rgb(0,77,134);fill-opacity:1;" d="M 32.164063 48.914063 C 32.164063 55.542969 36.019531 61.273438 41.605469 63.988281 L 33.617188 42.097656 C 32.6875 44.179688 32.164063 46.484375 32.164063 48.914063 Z M 32.164063 48.914063 "/>
<path style=" stroke:none;fill-rule:nonzero;fill:rgb(0,77,134);fill-opacity:1;" d="M 60.21875 48.066406 C 60.21875 45.996094 59.476563 44.5625 58.839844 43.449219 C 57.992188 42.070313 57.195313 40.902344 57.195313 39.519531 C 57.195313 37.980469 58.363281 36.546875 60.007813 36.546875 C 60.082031 36.546875 60.152344 36.558594 60.222656 36.5625 C 57.246094 33.832031 53.273438 32.164063 48.914063 32.164063 C 43.0625 32.164063 37.914063 35.167969 34.917969 39.714844 C 35.3125 39.726563 35.683594 39.734375 35.996094 39.734375 C 37.75 39.734375 40.460938 39.523438 40.460938 39.523438 C 41.363281 39.46875 41.46875 40.796875 40.566406 40.902344 C 40.566406 40.902344 39.660156 41.007813 38.652344 41.0625 L 44.75 59.203125 L 48.414063 48.210938 L 45.804688 41.0625 C 44.902344 41.007813 44.046875 40.902344 44.046875 40.902344 C 43.144531 40.847656 43.25 39.46875 44.15625 39.523438 C 44.15625 39.523438 46.917969 39.734375 48.566406 39.734375 C 50.316406 39.734375 53.03125 39.523438 53.03125 39.523438 C 53.933594 39.46875 54.039063 40.796875 53.136719 40.902344 C 53.136719 40.902344 52.226563 41.007813 51.21875 41.0625 L 57.273438 59.066406 L 58.945313 53.484375 C 59.667969 51.164063 60.21875 49.5 60.21875 48.066406 Z M 60.21875 48.066406 "/>
<path style=" stroke:none;fill-rule:nonzero;fill:rgb(0,77,134);fill-opacity:1;" d="M 49.207031 50.378906 L 44.179688 64.980469 C 45.683594 65.421875 47.269531 65.660156 48.914063 65.660156 C 50.863281 65.660156 52.734375 65.324219 54.476563 64.710938 C 54.429688 64.640625 54.390625 64.5625 54.355469 64.480469 Z M 49.207031 50.378906 "/>
<path style=" stroke:none;fill-rule:nonzero;fill:rgb(0,77,134);fill-opacity:1;" d="M 63.609375 40.878906 C 63.683594 41.410156 63.722656 41.984375 63.722656 42.597656 C 63.722656 44.296875 63.40625 46.207031 62.449219 48.597656 L 57.332031 63.390625 C 62.3125 60.484375 65.660156 55.089844 65.660156 48.910156 C 65.660156 46 64.917969 43.261719 63.609375 40.878906 Z M 63.609375 40.878906 "/>
<path style=" stroke:none;fill-rule:nonzero;fill:rgb(0,77,134);fill-opacity:1;" d="M 48.914063 29.390625 C 38.148438 29.390625 29.390625 38.148438 29.390625 48.914063 C 29.390625 59.679688 38.148438 68.4375 48.914063 68.4375 C 59.679688 68.4375 68.4375 59.679688 68.4375 48.914063 C 68.4375 38.148438 59.679688 29.390625 48.914063 29.390625 Z M 48.914063 67.542969 C 38.640625 67.542969 30.285156 59.183594 30.285156 48.914063 C 30.285156 38.640625 38.640625 30.285156 48.914063 30.285156 C 59.183594 30.285156 67.542969 38.640625 67.542969 48.914063 C 67.542969 59.183594 59.183594 67.542969 48.914063 67.542969 Z M 48.914063 67.542969 "/>
</g>
</svg>
