<?xml version="1.0" encoding="UTF-8"?>
<svg xmlns="http://www.w3.org/2000/svg" xmlns:xlink="http://www.w3.org/1999/xlink" width="70pt" height="70pt" viewBox="0 0 70 70" version="1.1">
<g id="surface1">
<path style=" stroke:none;fill-rule:nonzero;fill:rgb(34.901961%,70.588235%,85.098039%);fill-opacity:1;" d="M 28.699219 45.5 L 16.238281 45.5 C 10.078125 45.5 5.039063 40.460938 5.039063 34.160156 C 5.039063 27.859375 9.800781 22.820313 16.238281 22.820313 C 17.359375 22.820313 18.621094 23.101563 20.019531 23.238281 L 22.398438 23.941406 L 23.101563 21.558594 C 25.339844 14.28125 32.339844 9.800781 40.320313 9.800781 C 49.980469 9.800781 57.398438 17.21875 57.398438 26.878906 C 57.398438 28.421875 57.121094 29.960938 56.699219 31.5 L 55.71875 35 L 59.5 34.578125 C 59.78125 34.578125 59.921875 34.578125 60.199219 34.578125 C 63 34.578125 65.238281 36.960938 65.238281 39.621094 C 65.238281 42.28125 63.28125 44.238281 60.898438 44.660156 C 60.898438 44.660156 48.859375 44.660156 48.441406 44.660156 C 48.019531 41.160156 46.199219 38.078125 43.820313 35.699219 C 40.738281 32.621094 36.539063 30.800781 32.199219 30.800781 C 29.121094 30.800781 26.039063 31.640625 23.660156 33.179688 L 26.320313 37.378906 C 28.28125 36.261719 30.238281 35.839844 32.480469 35.839844 C 35.558594 35.839844 38.640625 36.960938 40.601563 39.339844 C 42.839844 41.578125 44.101563 44.378906 44.101563 47.460938 C 44.101563 50.539063 42.980469 53.621094 40.601563 55.578125 C 38.359375 57.960938 35.558594 59.078125 32.480469 59.078125 C 30.238281 59.078125 28.140625 58.378906 26.320313 57.121094 L 23.660156 61.320313 C 26.320313 62.859375 29.398438 63.980469 32.199219 63.980469 C 36.539063 63.980469 40.738281 62.441406 43.820313 59.21875 C 46.480469 56.558594 48.019531 53.058594 48.441406 49.421875 C 49.140625 49.421875 61.179688 49.421875 61.179688 49.421875 L 61.460938 49.421875 C 66.5 49 70.28125 44.660156 70.28125 39.339844 C 70.28125 35.140625 66.359375 31.21875 61.738281 30.378906 C 62.019531 29.539063 62.019531 29.121094 62.019531 27.71875 C 62.019531 15.398438 53.339844 5.601563 39.480469 5.601563 C 30.660156 5.601563 22.820313 10.640625 19.601563 18.761719 C 18.480469 18.761719 17.640625 18.339844 16.378906 18.339844 C 7.28125 18.199219 0 25.199219 0 34.160156 C 0 42.980469 7.28125 49.980469 15.960938 49.980469 L 29.679688 49.980469 Z M 28.699219 45.5 "/>
<path style=" stroke:none;fill-rule:nonzero;fill:rgb(40.784314%,12.941176%,47.843137%);fill-opacity:1;" d="M 39.761719 47.320313 C 39.761719 51.648438 36.25 55.160156 31.921875 55.160156 C 27.589844 55.160156 24.078125 51.648438 24.078125 47.320313 C 24.078125 42.988281 27.589844 39.480469 31.921875 39.480469 C 36.25 39.480469 39.761719 42.988281 39.761719 47.320313 Z M 39.761719 47.320313 "/>
</g>
</svg>
