<?xml version="1.0" encoding="UTF-8"?>
<svg xmlns="http://www.w3.org/2000/svg" xmlns:xlink="http://www.w3.org/1999/xlink" width="70pt" height="70pt" viewBox="0 0 70 70" version="1.1">
<g id="surface1">
<path style=" stroke:none;fill-rule:nonzero;fill:rgb(34.901961%,70.588235%,85.098039%);fill-opacity:1;" d="M 43.945313 49.023438 C 38.992188 52.8125 33.15625 54.65625 27.363281 54.65625 C 19.140625 54.65625 11.011719 50.964844 5.636719 43.9375 C -3.542969 31.953125 -1.277344 14.8125 10.730469 5.628906 C 15.679688 1.820313 21.523438 0 27.3125 0 C 35.535156 0 43.664063 3.691406 49.035156 10.726563 C 58.21875 22.707031 55.929688 39.851563 43.945313 49.023438 "/>
<path style=" stroke:none;fill-rule:nonzero;fill:rgb(100%,100%,100%);fill-opacity:1;" d="M 38.925781 32.121094 C 40.910156 34.710938 44.59375 35.179688 47.167969 33.21875 C 47.304688 33.117188 47.40625 32.992188 47.53125 32.882813 C 50.164063 34.738281 51.992188 35.960938 53.023438 36.664063 C 53.328125 35.871094 53.539063 35.113281 53.753906 34.320313 C 52.667969 33.511719 51.195313 32.375 49.066406 30.652344 C 49.765625 28.816406 49.542969 26.671875 48.269531 25 C 46.445313 22.636719 43.210938 22.035156 40.683594 23.492188 C 37.902344 20.996094 34.84375 18.132813 31.617188 14.929688 C 41.636719 9.539063 48.757813 10.328125 48.757813 10.328125 C 47.566406 8.8125 46.238281 7.484375 44.8125 6.289063 C 40.589844 5.636719 34.023438 5.707031 26.523438 9.699219 L 26.519531 9.695313 C 24.019531 7.074219 21.476563 4.269531 18.882813 1.261719 C 17.644531 1.65625 16.433594 2.148438 15.261719 2.734375 C 17.175781 5.863281 19.75 9.019531 22.648438 12.097656 C 22.652344 12.105469 22.660156 12.109375 22.664063 12.117188 C 20.25 13.804688 17.554688 16.066406 15.074219 18.691406 C 14.757813 19.03125 14.453125 19.371094 14.152344 19.710938 C 12.667969 19.398438 11.109375 19.492188 9.652344 20.019531 C 7.175781 14.675781 7.375 10.386719 7.765625 8.175781 C 6.691406 9.304688 5.6875 10.484375 4.824219 11.75 C 4.175781 14.390625 3.996094 18.195313 5.902344 22.785156 C 3.691406 25.675781 3.589844 29.773438 5.894531 32.792969 C 6.085938 33.042969 6.292969 33.277344 6.507813 33.5 C 5.5 36.929688 5.050781 40.238281 4.910156 43.078125 C 5.171875 43.429688 5.171875 43.714844 5.429688 44.058594 C 6.738281 45.738281 8.386719 47.15625 9.976563 48.441406 C 9.777344 45.433594 9.992188 41 11.851563 36.007813 C 13.132813 36.105469 14.4375 35.902344 15.660156 35.386719 C 16.359375 36.003906 17.089844 36.625 17.871094 37.257813 C 20.554688 39.382813 23.230469 41.035156 25.835938 42.335938 C 25.703125 43.660156 26.035156 45.039063 26.894531 46.179688 C 28.738281 48.558594 32.148438 49.003906 34.53125 47.1875 C 35.027344 46.804688 35.417969 46.347656 35.742188 45.855469 C 39.992188 46.800781 43.710938 46.96875 46.464844 46.96875 C 46.882813 46.96875 48.84375 44.308594 49.964844 42.65625 C 48.289063 43.007813 43.3125 43.691406 36.515625 41.738281 C 36.351563 40.972656 36.039063 40.230469 35.535156 39.574219 C 33.808594 37.308594 30.652344 36.820313 28.296875 38.332031 C 25.933594 37.050781 23.460938 35.445313 20.910156 33.421875 C 20.394531 33.015625 19.898438 32.609375 19.421875 32.203125 C 20.984375 29.746094 21.148438 26.597656 19.769531 23.945313 C 20.082031 23.636719 20.390625 23.320313 20.722656 23.011719 C 23.25 20.648438 25.628906 18.761719 27.851563 17.242188 C 27.761719 17.160156 27.679688 17.074219 27.59375 16.988281 C 27.679688 17.070313 27.765625 17.15625 27.855469 17.238281 C 27.851563 17.238281 27.851563 17.238281 27.851563 17.238281 C 31.261719 20.394531 34.882813 23.382813 38.308594 26.058594 C 37.402344 27.976563 37.546875 30.320313 38.925781 32.121094 Z M 38.925781 32.121094 "/>
<path style=" stroke:none;fill-rule:nonzero;fill:rgb(100%,100%,100%);fill-opacity:1;" d="M 70 48.914063 C 70 60.558594 60.558594 70 48.914063 70 C 37.265625 70 27.828125 60.558594 27.828125 48.914063 C 27.828125 37.265625 37.265625 27.828125 48.914063 27.828125 C 60.558594 27.828125 70 37.265625 70 48.914063 Z M 70 48.914063 "/>
<path style=" stroke:none;fill-rule:evenodd;fill:rgb(100%,43.137255%,0%);fill-opacity:1;" d="M 29.390625 48.9375 C 29.390625 38.140625 38.128906 29.390625 48.914063 29.390625 C 59.695313 29.390625 68.4375 38.140625 68.4375 48.9375 C 68.4375 59.734375 59.695313 68.484375 48.914063 68.484375 C 38.128906 68.488281 29.390625 59.734375 29.390625 48.9375 Z M 48.515625 55.625 C 46.597656 55.625 45.089844 55.492188 44.007813 55.21875 C 42.8125 54.914063 41.992188 54.253906 41.539063 53.234375 C 41.085938 52.214844 40.871094 50.644531 40.894531 48.53125 C 40.90625 47.386719 40.972656 46.28125 41.101563 45.210938 C 41.230469 44.140625 41.359375 43.257813 41.484375 42.558594 L 41.621094 41.867188 C 41.625 41.84375 41.625 41.824219 41.625 41.800781 C 41.625 41.605469 41.480469 41.445313 41.296875 41.410156 L 38.773438 41.019531 C 38.753906 41.015625 38.730469 41.015625 38.710938 41.015625 C 38.523438 41.015625 38.367188 41.144531 38.324219 41.320313 C 38.28125 41.484375 38.253906 41.601563 38.179688 41.988281 C 38.035156 42.726563 37.902344 43.449219 37.753906 44.492188 C 37.609375 45.535156 37.511719 46.6875 37.472656 47.945313 C 37.472656 47.945313 37.410156 48.230469 37.472656 50.363281 C 37.53125 52.5 37.898438 54.210938 38.574219 55.484375 C 39.246094 56.761719 40.386719 57.683594 42 58.242188 C 43.609375 58.804688 45.851563 59.078125 48.726563 59.066406 L 49.097656 59.066406 C 51.972656 59.078125 54.214844 58.804688 55.828125 58.242188 C 57.4375 57.683594 58.578125 56.761719 59.253906 55.484375 C 59.925781 54.210938 60.292969 52.503906 60.355469 50.363281 C 60.414063 48.226563 60.355469 47.945313 60.355469 47.945313 C 60.3125 46.6875 60.21875 45.535156 60.070313 44.492188 C 59.921875 43.449219 59.792969 42.726563 59.644531 41.988281 C 59.570313 41.601563 59.542969 41.484375 59.503906 41.320313 C 59.460938 41.144531 59.304688 41.015625 59.117188 41.015625 C 59.09375 41.015625 59.074219 41.015625 59.054688 41.019531 L 56.53125 41.410156 C 56.34375 41.445313 56.203125 41.605469 56.203125 41.800781 C 56.203125 41.824219 56.203125 41.84375 56.207031 41.867188 L 56.339844 42.558594 C 56.46875 43.253906 56.597656 44.140625 56.726563 45.210938 C 56.851563 46.28125 56.921875 47.386719 56.933594 48.53125 C 56.953125 50.644531 56.742188 52.214844 56.289063 53.234375 C 55.835938 54.253906 55.015625 54.914063 53.820313 55.21875 C 52.738281 55.492188 51.230469 55.625 49.3125 55.625 Z M 48.515625 55.625 "/>
</g>
</svg>
