<?xml version="1.0" encoding="UTF-8"?>
<svg xmlns="http://www.w3.org/2000/svg" xmlns:xlink="http://www.w3.org/1999/xlink" width="70pt" height="70pt" viewBox="0 0 70 70" version="1.1">
<defs>
<filter id="alpha" filterUnits="objectBoundingBox" x="0%" y="0%" width="100%" height="100%">
  <feColorMatrix type="matrix" in="SourceGraphic" values="0 0 0 0 1 0 0 0 0 1 0 0 0 0 1 0 0 0 1 0"/>
</filter>
<mask id="mask0">
  <g filter="url(#alpha)">
<rect x="0" y="0" width="70" height="70" style="fill:rgb(0,0,0);fill-opacity:0.2;stroke:none;"/>
  </g>
</mask>
<clipPath id="clip1">
  <rect x="0" y="0" width="70" height="70"/>
</clipPath>
<g id="surface5" clip-path="url(#clip1)">
<path style=" stroke:none;fill-rule:nonzero;fill:rgb(255,255,255);fill-opacity:1;" d="M 35.421875 46.761719 C 34.019531 45.359375 32.898438 43.679688 32.480469 41.441406 C 31.21875 35.558594 34.71875 29.820313 40.460938 28.558594 C 41.71875 28.28125 42.839844 28.28125 44.101563 28.421875 C 44.519531 22.960938 47.878906 18.199219 52.921875 15.820313 C 51.378906 15.398438 49.839844 14.980469 48.160156 14.980469 C 41.300781 14.980469 35.421875 19.601563 33.320313 25.621094 C 32.199219 25.339844 31.078125 25.058594 29.820313 25.058594 C 23.800781 25.058594 19.179688 29.960938 19.179688 35.980469 C 19.179688 42 23.941406 46.898438 29.820313 46.898438 Z M 35.421875 46.761719 "/>
</g>
</defs>
<g id="surface1">
<path style=" stroke:none;fill-rule:nonzero;fill:rgb(0,140,244);fill-opacity:1;" d="M 48.859375 23.519531 L 11.621094 23.519531 C 10.078125 23.519531 8.820313 22.261719 8.820313 20.71875 C 8.820313 19.179688 10.078125 17.921875 11.621094 17.921875 L 48.859375 17.921875 C 50.398438 17.921875 51.660156 19.179688 51.660156 20.71875 C 51.660156 22.261719 50.398438 23.519531 48.859375 23.519531 Z M 48.859375 23.519531 "/>
<path style=" stroke:none;fill-rule:nonzero;fill:rgb(0,140,244);fill-opacity:1;" d="M 41.300781 46.898438 L 6.859375 46.898438 C 5.320313 46.898438 4.058594 45.640625 4.058594 44.101563 C 4.058594 42.558594 5.320313 41.300781 6.859375 41.300781 L 41.300781 41.300781 C 42.839844 41.300781 44.101563 42.558594 44.101563 44.101563 C 44.101563 45.640625 42.839844 46.898438 41.300781 46.898438 Z M 41.300781 46.898438 "/>
<path style=" stroke:none;fill-rule:nonzero;fill:rgb(0,140,244);fill-opacity:1;" d="M 37.238281 35.558594 L 2.800781 35.558594 C 1.261719 35.558594 0 34.300781 0 32.761719 C 0 31.21875 1.261719 29.960938 2.800781 29.960938 L 37.238281 29.960938 C 38.78125 29.960938 40.039063 31.21875 40.039063 32.761719 C 40.039063 34.300781 38.78125 35.558594 37.238281 35.558594 Z M 37.238281 35.558594 "/>
<path style=" stroke:none;fill-rule:nonzero;fill:rgb(3,148,255);fill-opacity:1;" d="M 70 40.878906 C 70 37.519531 67.339844 34.859375 64.121094 34.859375 C 63.839844 34.859375 63.699219 34.859375 63.28125 34.859375 C 63.558594 33.601563 63.839844 32.199219 63.839844 30.660156 C 63.839844 21.980469 56.699219 14.980469 48.160156 14.980469 C 41.300781 14.980469 35.421875 19.601563 33.320313 25.621094 C 32.199219 25.339844 31.078125 25.058594 29.820313 25.058594 C 23.800781 25.058594 19.179688 29.960938 19.179688 35.980469 C 19.179688 42 23.941406 46.898438 29.820313 46.898438 L 64.398438 46.898438 C 67.621094 46.480469 70 43.960938 70 40.878906 "/>
<use xlink:href="#surface5" mask="url(#mask0)"/>
</g>
</svg>
