<?xml version="1.0" encoding="UTF-8"?>
<svg xmlns="http://www.w3.org/2000/svg" xmlns:xlink="http://www.w3.org/1999/xlink" width="70pt" height="23pt" viewBox="0 0 70 23" version="1.1">
<g id="surface1">
<path style=" stroke:none;fill-rule:nonzero;fill:rgb(0%,49.019608%,75.686275%);fill-opacity:1;" d="M 8.800781 5.785156 C 3.9375 5.785156 0 9.617188 0 14.355469 C 0 19.089844 3.9375 22.921875 8.800781 22.921875 C 13.667969 22.921875 17.605469 19.089844 17.605469 14.355469 C 17.605469 9.617188 13.667969 5.785156 8.800781 5.785156 Z M 8.800781 18.648438 C 6.371094 18.648438 4.390625 16.722656 4.390625 14.355469 C 4.390625 11.984375 6.371094 10.058594 8.800781 10.058594 C 11.234375 10.058594 13.210938 11.984375 13.210938 14.355469 C 13.210938 16.722656 11.234375 18.648438 8.800781 18.648438 Z M 8.800781 18.648438 "/>
<path style=" stroke:none;fill-rule:nonzero;fill:rgb(0%,49.019608%,75.686275%);fill-opacity:1;" d="M 24.273438 17.234375 C 24.273438 16.550781 25.113281 16.226563 25.601563 16.703125 C 27.808594 18.886719 31.449219 22.632813 31.464844 22.652344 C 31.515625 22.703125 31.570313 22.785156 31.78125 22.855469 C 31.867188 22.890625 32.007813 22.890625 32.164063 22.890625 L 36.136719 22.890625 C 36.855469 22.890625 37.066406 22.089844 36.734375 21.679688 L 30.152344 15.121094 L 29.800781 14.78125 C 29.050781 13.910156 29.136719 13.570313 29.996094 12.683594 L 35.210938 7.011719 C 35.542969 6.601563 35.332031 5.816406 34.597656 5.816406 L 30.992188 5.816406 C 30.851563 5.816406 30.746094 5.816406 30.640625 5.851563 C 30.433594 5.921875 30.34375 5.988281 30.292969 6.058594 C 30.273438 6.074219 27.386719 9.105469 25.601563 10.964844 C 25.113281 11.472656 24.238281 11.132813 24.238281 10.433594 L 24.238281 0.707031 C 24.238281 0.214844 23.816406 0.0273438 23.484375 0.0273438 L 20.546875 0.0273438 C 20.039063 0.0273438 19.792969 0.347656 19.792969 0.640625 L 19.792969 22.207031 C 19.792969 22.703125 20.210938 22.839844 20.5625 22.839844 L 23.503906 22.839844 C 23.957031 22.839844 24.253906 22.515625 24.253906 22.191406 L 24.253906 17.234375 Z M 24.273438 17.234375 "/>
<path style=" stroke:none;fill-rule:nonzero;fill:rgb(0%,49.019608%,75.686275%);fill-opacity:1;" d="M 48.28125 22.105469 L 47.96875 19.242188 C 47.933594 18.851563 47.546875 18.578125 47.144531 18.648438 C 46.917969 18.679688 46.691406 18.699219 46.460938 18.699219 C 44.117188 18.699219 42.210938 16.910156 42.070313 14.644531 C 42.070313 14.574219 42.070313 14.488281 42.070313 14.40625 L 42.070313 10.894531 C 42.070313 10.433594 42.421875 10.058594 42.890625 10.058594 L 46.828125 10.058594 C 47.109375 10.058594 47.53125 9.820313 47.53125 9.328125 L 47.53125 6.617188 C 47.53125 6.089844 47.179688 5.816406 46.863281 5.816406 L 42.890625 5.816406 C 42.4375 5.816406 42.070313 5.496094 42.050781 5.050781 L 42.050781 0.707031 C 42.050781 0.433594 41.84375 0.0273438 41.300781 0.0273438 L 38.378906 0.0273438 C 38.011719 0.0273438 37.660156 0.246094 37.660156 0.691406 C 37.660156 0.691406 37.660156 14.574219 37.660156 14.644531 C 37.78125 19.277344 41.683594 22.972656 46.460938 22.972656 C 46.863281 22.972656 47.25 22.941406 47.636719 22.890625 C 48.054688 22.839844 48.335938 22.496094 48.28125 22.105469 Z M 48.28125 22.105469 "/>
<path style=" stroke:none;fill-rule:nonzero;fill:rgb(0%,49.019608%,75.686275%);fill-opacity:1;" d="M 69.492188 18.511719 C 67.007813 18.511719 66.621094 17.640625 66.621094 14.386719 C 66.621094 14.371094 66.621094 14.371094 66.621094 14.355469 L 66.621094 6.535156 C 66.621094 6.261719 66.414063 5.800781 65.851563 5.800781 L 62.914063 5.800781 C 62.546875 5.800781 62.140625 6.089844 62.140625 6.535156 L 62.140625 6.890625 C 60.863281 6.175781 59.378906 5.765625 57.800781 5.765625 C 52.9375 5.765625 49 9.601563 49 14.335938 C 49 19.074219 52.9375 22.90625 57.800781 22.90625 C 59.988281 22.90625 61.984375 22.121094 63.523438 20.84375 C 64.347656 22.070313 65.675781 22.890625 67.761719 22.90625 C 68.109375 22.90625 70 22.972656 70 22.105469 L 70 19.054688 C 70 18.800781 69.789063 18.511719 69.492188 18.511719 Z M 57.820313 18.648438 C 55.386719 18.648438 53.410156 16.722656 53.410156 14.355469 C 53.410156 11.984375 55.386719 10.058594 57.820313 10.058594 C 60.253906 10.058594 62.230469 11.984375 62.230469 14.355469 C 62.210938 16.722656 60.234375 18.648438 57.820313 18.648438 Z M 57.820313 18.648438 "/>
</g>
</svg>
