<?xml version="1.0" encoding="UTF-8"?>
<svg xmlns="http://www.w3.org/2000/svg" xmlns:xlink="http://www.w3.org/1999/xlink" width="70pt" height="70pt" viewBox="0 0 70 70" version="1.1">
<g id="surface1">
<path style=" stroke:none;fill-rule:evenodd;fill:rgb(0,81,142);fill-opacity:1;" d="M 51.828125 60.667969 C 53.402344 59.316406 54.976563 57.96875 56.546875 56.613281 C 57.082031 56.148438 57.671875 55.667969 58.203125 55.183594 C 57.777344 54.644531 57.0625 54.253906 56.457031 54.023438 C 55.234375 53.558594 54.027344 53.714844 52.90625 54.363281 C 51.4375 55.210938 50.8125 56.5625 50.867188 58.242188 C 50.886719 58.90625 51.066406 59.542969 51.417969 60.105469 C 51.539063 60.304688 51.679688 60.488281 51.828125 60.667969 M 53.648438 61.945313 C 54.421875 62.214844 55.300781 62.179688 56.09375 62.039063 C 56.5 61.867188 57.535156 61.414063 57.917969 61.480469 L 57.976563 61.492188 L 58.03125 61.519531 C 58.265625 61.632813 58.488281 61.792969 58.605469 62.027344 C 58.882813 62.582031 58.75 63.140625 58.203125 63.453125 L 58.023438 63.558594 C 56.011719 64.722656 53.871094 64.5625 51.863281 63.476563 C 50.90625 62.957031 50.171875 62.1875 49.628906 61.25 L 49.503906 61.03125 C 48.210938 58.792969 48.386719 56.441406 49.84375 54.3125 C 50.34375 53.578125 51.003906 53.007813 51.773438 52.5625 L 52.0625 52.394531 C 53.957031 51.304688 55.988281 51.378906 57.9375 52.335938 C 58.980469 52.855469 59.832031 53.625 60.414063 54.636719 L 60.519531 54.820313 C 60.945313 55.554688 60.394531 56.195313 59.828125 56.632813 C 59.167969 57.140625 58.503906 57.753906 57.871094 58.296875 C 56.460938 59.511719 55.054688 60.730469 53.648438 61.945313 Z M 68.730469 51.769531 L 68.9375 51.769531 C 69.574219 51.769531 70 52.199219 70 52.832031 C 70 53.707031 69.160156 53.933594 68.433594 53.933594 C 67.480469 53.933594 66.570313 54.511719 65.914063 55.15625 C 65.097656 55.964844 64.738281 57 64.738281 58.136719 L 64.738281 63.273438 C 64.738281 63.859375 64.371094 64.332031 63.761719 64.332031 L 63.59375 64.332031 C 62.984375 64.332031 62.617188 63.859375 62.617188 63.273438 L 62.617188 57.839844 C 62.617188 55.753906 63.632813 54.054688 65.324219 52.859375 C 66.332031 52.144531 67.492188 51.769531 68.730469 51.769531 Z M 42.285156 55.414063 C 43.113281 54.589844 43.9375 53.765625 44.773438 52.953125 C 45.007813 52.726563 45.890625 51.769531 46.238281 51.769531 L 46.617188 51.769531 L 46.660156 51.777344 C 47.144531 51.878906 47.507813 52.1875 47.507813 52.707031 L 47.507813 52.914063 C 47.507813 53.269531 47.09375 53.683594 46.863281 53.925781 C 46.375 54.441406 45.863281 54.941406 45.363281 55.445313 L 42.800781 58.046875 C 43.902344 59.152344 45.007813 60.261719 46.101563 61.375 C 46.40625 61.683594 46.707031 61.992188 47.007813 62.304688 C 47.113281 62.417969 47.265625 62.554688 47.355469 62.707031 C 47.453125 62.851563 47.507813 63.015625 47.507813 63.1875 L 47.507813 63.40625 L 47.496094 63.457031 C 47.378906 63.941406 47.070313 64.332031 46.53125 64.332031 L 46.363281 64.332031 C 46.015625 64.332031 45.617188 63.933594 45.375 63.707031 C 44.882813 63.242188 44.402344 62.75 43.917969 62.273438 L 42.289063 60.675781 L 42.289063 63.230469 C 42.289063 63.816406 41.921875 64.289063 41.3125 64.289063 L 41.144531 64.289063 C 40.535156 64.289063 40.167969 63.816406 40.167969 63.230469 L 40.167969 48.832031 C 40.167969 48.242188 40.535156 47.769531 41.144531 47.769531 L 41.3125 47.769531 C 41.921875 47.769531 42.289063 48.242188 42.289063 48.832031 L 42.289063 55.414063 Z M 35.40625 53.976563 C 35.085938 53.828125 34.484375 53.777344 34.140625 53.765625 C 32.367188 53.699219 31.085938 54.695313 30.332031 56.261719 C 30.074219 56.800781 29.957031 57.371094 29.957031 57.96875 C 29.957031 59.785156 30.910156 61.058594 32.53125 61.832031 C 33.125 62.113281 33.890625 62.167969 34.535156 62.167969 C 35.105469 62.167969 35.910156 61.820313 36.417969 61.582031 L 36.503906 61.539063 L 36.898438 61.539063 L 36.941406 61.546875 C 37.421875 61.648438 37.789063 61.953125 37.789063 62.472656 L 37.789063 62.683594 C 37.789063 63.972656 35.425781 64.269531 34.527344 64.332031 C 31.347656 64.550781 28.96875 62.808594 28.0625 59.777344 C 27.90625 59.25 27.835938 58.726563 27.835938 58.179688 L 27.835938 57.757813 C 27.835938 55.457031 28.976563 53.636719 30.949219 52.464844 C 31.867188 51.917969 32.882813 51.644531 33.949219 51.644531 L 34.367188 51.644531 C 35.5 51.644531 36.542969 51.964844 37.472656 52.605469 L 37.550781 52.65625 L 37.601563 52.738281 C 37.699219 52.902344 37.789063 53.097656 37.789063 53.296875 L 37.789063 53.507813 C 37.789063 54.046875 37.382813 54.339844 36.894531 54.433594 L 36.851563 54.441406 L 36.726563 54.441406 C 36.410156 54.4375 35.6875 54.109375 35.40625 53.976563 Z M 16.0625 58.011719 C 16.0625 59.625 16.851563 60.808594 18.214844 61.644531 C 18.855469 62.035156 19.558594 62.210938 20.308594 62.210938 C 21.898438 62.210938 23.078125 61.402344 23.898438 60.058594 C 24.289063 59.417969 24.464844 58.714844 24.464844 57.96875 C 24.464844 56.46875 23.742188 55.324219 22.507813 54.492188 C 21.832031 54.039063 21.078125 53.808594 20.261719 53.808594 C 18.488281 53.808594 17.207031 54.707031 16.441406 56.300781 C 16.179688 56.839844 16.0625 57.414063 16.0625 58.011719 Z M 20.054688 51.683594 L 20.347656 51.683594 C 22.804688 51.683594 24.675781 52.878906 25.859375 55.023438 C 26.332031 55.882813 26.585938 56.816406 26.585938 57.800781 L 26.585938 58.21875 C 26.585938 60.519531 25.453125 62.351563 23.46875 63.515625 C 22.550781 64.054688 21.539063 64.332031 20.472656 64.332031 L 20.054688 64.332031 C 17.753906 64.332031 15.925781 63.195313 14.757813 61.214844 C 14.21875 60.296875 13.941406 59.285156 13.941406 58.21875 L 13.941406 57.800781 C 13.941406 55.5 15.082031 53.675781 17.054688 52.503906 C 17.972656 51.957031 18.988281 51.683594 20.054688 51.683594 Z M 2.171875 58.011719 C 2.171875 59.671875 2.976563 60.921875 4.429688 61.71875 C 5.019531 62.039063 5.660156 62.214844 6.332031 62.214844 C 7.960938 62.214844 9.171875 61.445313 10.003906 60.0625 C 10.390625 59.421875 10.574219 58.71875 10.574219 57.96875 C 10.574219 56.527344 9.890625 55.40625 8.730469 54.570313 C 8.027344 54.0625 7.234375 53.808594 6.371094 53.808594 C 4.59375 53.808594 3.316406 54.707031 2.546875 56.300781 C 2.289063 56.839844 2.171875 57.414063 2.171875 58.011719 Z M 10.574219 53.269531 L 10.574219 48.789063 C 10.574219 48.199219 10.941406 47.726563 11.550781 47.726563 L 11.71875 47.726563 C 12.328125 47.726563 12.695313 48.199219 12.695313 48.789063 L 12.695313 58.21875 C 12.695313 60.519531 11.558594 62.347656 9.578125 63.515625 C 8.660156 64.054688 7.644531 64.332031 6.582031 64.332031 L 6.160156 64.332031 C 3.859375 64.332031 2.03125 63.195313 0.863281 61.214844 C 0.324219 60.296875 0.046875 59.28125 0.046875 58.21875 L 0.046875 57.796875 C 0.046875 55.496094 1.183594 53.667969 3.164063 52.5 C 4.082031 51.957031 5.09375 51.683594 6.160156 51.683594 L 6.582031 51.683594 C 8.136719 51.683594 9.457031 52.289063 10.574219 53.269531 Z M 10.574219 53.269531 "/>
<path style=" stroke:none;fill-rule:evenodd;fill:rgb(0,81,142);fill-opacity:1;" d="M 40.378906 18.15625 L 46.640625 18.15625 L 46.640625 24.554688 L 49.804688 24.554688 C 51.265625 24.554688 52.769531 24.296875 54.15625 23.828125 C 54.835938 23.59375 55.597656 23.273438 56.269531 22.871094 C 55.386719 21.71875 54.933594 20.261719 54.800781 18.824219 C 54.621094 16.871094 55.015625 14.332031 56.335938 12.800781 L 56.996094 12.039063 L 57.78125 12.671875 C 59.753906 14.257813 61.414063 16.472656 61.707031 19 C 64.082031 18.300781 66.875 18.464844 68.96875 19.675781 L 69.828125 20.171875 L 69.378906 21.054688 C 67.605469 24.511719 63.898438 25.585938 60.277344 25.394531 C 54.859375 38.894531 43.058594 45.285156 28.75 45.285156 C 21.359375 45.285156 14.578125 42.523438 10.714844 35.964844 L 10.652344 35.855469 L 10.089844 34.710938 C 8.785156 31.824219 8.351563 28.664063 8.644531 25.503906 L 8.734375 24.554688 L 14.085938 24.554688 L 14.085938 18.15625 L 20.347656 18.15625 L 20.347656 11.894531 L 32.867188 11.894531 L 32.867188 5.636719 L 40.378906 5.636719 Z M 40.378906 18.15625 "/>
<path style=" stroke:none;fill-rule:nonzero;fill:rgb(0,142,248);fill-opacity:1;" d="M 60.660156 20.523438 C 61.082031 17.261719 58.640625 14.699219 57.128906 13.484375 C 55.382813 15.5 55.109375 20.789063 57.847656 23.011719 C 56.320313 24.371094 53.101563 25.601563 49.804688 25.601563 L 9.683594 25.601563 C 9.363281 29.042969 9.96875 32.210938 11.347656 34.921875 L 11.804688 35.757813 C 12.09375 36.246094 12.40625 36.71875 12.75 37.175781 C 14.398438 37.28125 15.917969 37.320313 17.3125 37.289063 C 20.046875 37.226563 22.277344 36.902344 23.96875 36.320313 C 24.21875 36.230469 24.496094 36.363281 24.582031 36.617188 C 24.667969 36.867188 24.535156 37.140625 24.28125 37.230469 C 24.058594 37.308594 23.824219 37.378906 23.582031 37.449219 C 22.25 37.828125 20.820313 38.085938 18.980469 38.199219 C 19.089844 38.199219 18.867188 38.214844 18.863281 38.214844 C 18.800781 38.21875 18.722656 38.226563 18.660156 38.234375 C 17.933594 38.273438 17.152344 38.28125 16.351563 38.28125 C 15.476563 38.28125 14.617188 38.265625 13.652344 38.214844 L 13.628906 38.234375 C 16.972656 41.988281 22.195313 44.242188 28.75 44.242188 C 42.617188 44.242188 54.378906 38.09375 59.585938 24.296875 C 63.28125 24.675781 66.832031 23.734375 68.449219 20.578125 C 65.875 19.09375 62.566406 19.566406 60.660156 20.523438 Z M 60.660156 20.523438 "/>
<path style=" stroke:none;fill-rule:nonzero;fill:rgb(35,161,255);fill-opacity:1;" d="M 60.660156 20.523438 C 61.082031 17.261719 58.640625 14.699219 57.128906 13.484375 C 55.382813 15.5 55.109375 20.789063 57.847656 23.011719 C 56.320313 24.371094 53.101563 25.601563 49.804688 25.601563 L 12.058594 25.601563 C 11.894531 30.871094 13.851563 34.871094 17.3125 37.289063 C 20.046875 37.226563 22.277344 36.902344 23.96875 36.320313 C 24.21875 36.230469 24.496094 36.363281 24.582031 36.617188 C 24.667969 36.867188 24.535156 37.140625 24.28125 37.230469 C 24.058594 37.308594 23.824219 37.378906 23.582031 37.449219 C 22.25 37.828125 20.699219 38.117188 18.855469 38.230469 C 18.855469 38.230469 18.8125 38.1875 18.8125 38.1875 C 23.53125 40.609375 30.371094 40.601563 38.21875 37.585938 C 47.015625 34.207031 55.199219 27.769531 60.914063 20.40625 C 60.824219 20.441406 60.742188 20.484375 60.660156 20.523438 Z M 60.660156 20.523438 "/>
<path style=" stroke:none;fill-rule:nonzero;fill:rgb(0,117,204);fill-opacity:1;" d="M 9.757813 29.78125 C 10.007813 31.621094 10.546875 33.347656 11.347656 34.921875 L 11.804688 35.753906 C 12.09375 36.246094 12.40625 36.71875 12.75 37.175781 C 14.398438 37.28125 15.921875 37.316406 17.3125 37.285156 C 20.046875 37.226563 22.277344 36.902344 23.96875 36.316406 C 24.21875 36.230469 24.496094 36.363281 24.582031 36.613281 C 24.667969 36.867188 24.535156 37.140625 24.28125 37.226563 C 24.058594 37.304688 23.824219 37.378906 23.582031 37.445313 C 22.25 37.828125 20.707031 38.097656 18.863281 38.214844 C 18.800781 38.21875 18.691406 38.21875 18.628906 38.222656 C 17.902344 38.261719 17.128906 38.289063 16.328125 38.289063 C 15.453125 38.289063 14.558594 38.269531 13.597656 38.222656 C 16.941406 41.980469 22.199219 44.238281 28.75 44.238281 C 40.621094 44.238281 50.949219 39.734375 56.945313 29.777344 L 9.757813 29.777344 Z M 9.757813 29.78125 "/>
<path style=" stroke:none;fill-rule:nonzero;fill:rgb(0,131,228);fill-opacity:1;" d="M 12.421875 29.78125 C 13.128906 33.015625 14.835938 35.554688 17.3125 37.285156 C 20.046875 37.226563 22.277344 36.902344 23.964844 36.316406 C 24.21875 36.230469 24.492188 36.363281 24.578125 36.613281 C 24.667969 36.867188 24.535156 37.140625 24.28125 37.226563 C 24.054688 37.304688 23.824219 37.378906 23.582031 37.445313 C 23.582031 37.445313 23.582031 37.445313 23.578125 37.445313 C 22.246094 37.828125 20.671875 38.097656 18.828125 38.214844 C 23.546875 40.632813 30.371094 40.597656 38.214844 37.585938 C 42.960938 35.761719 47.527344 33.046875 51.625 29.78125 Z M 12.421875 29.78125 "/>
<path style=" stroke:none;fill-rule:evenodd;fill:rgb(0,142,248);fill-opacity:1;" d="M 19.675781 19.652344 L 20.101563 19.652344 L 20.101563 24.171875 L 19.675781 24.171875 Z M 18.851563 19.652344 L 19.296875 19.652344 L 19.296875 24.171875 L 18.851563 24.171875 Z M 18.03125 19.652344 L 18.476563 19.652344 L 18.476563 24.171875 L 18.03125 24.171875 Z M 17.207031 19.652344 L 17.652344 19.652344 L 17.652344 24.171875 L 17.207031 24.171875 Z M 16.386719 19.652344 L 16.832031 19.652344 L 16.832031 24.171875 L 16.386719 24.171875 Z M 15.582031 19.652344 L 16.007813 19.652344 L 16.007813 24.171875 L 15.582031 24.171875 Z M 15.128906 19.199219 L 20.554688 19.199219 L 20.554688 24.625 L 15.128906 24.625 Z M 15.128906 19.199219 "/>
<path style=" stroke:none;fill-rule:evenodd;fill:rgb(0,142,248);fill-opacity:1;" d="M 25.933594 13.390625 L 26.363281 13.390625 L 26.363281 17.914063 L 25.933594 17.914063 Z M 25.113281 13.390625 L 25.558594 13.390625 L 25.558594 17.914063 L 25.113281 17.914063 Z M 24.289063 13.390625 L 24.734375 13.390625 L 24.734375 17.914063 L 24.289063 17.914063 Z M 23.46875 13.390625 L 23.914063 13.390625 L 23.914063 17.914063 L 23.46875 17.914063 Z M 22.644531 13.390625 L 23.089844 13.390625 L 23.089844 17.914063 L 22.644531 17.914063 Z M 21.839844 13.390625 L 22.269531 13.390625 L 22.269531 17.914063 L 21.839844 17.914063 Z M 21.390625 12.9375 L 26.816406 12.9375 L 26.816406 18.363281 L 21.390625 18.363281 Z M 21.390625 12.9375 "/>
<path style=" stroke:none;fill-rule:evenodd;fill:rgb(45,165,255);fill-opacity:1;" d="M 25.933594 19.652344 L 26.363281 19.652344 L 26.363281 24.171875 L 25.933594 24.171875 Z M 25.113281 19.652344 L 25.558594 19.652344 L 25.558594 24.171875 L 25.113281 24.171875 Z M 24.289063 19.652344 L 24.734375 19.652344 L 24.734375 24.171875 L 24.289063 24.171875 Z M 23.46875 19.652344 L 23.914063 19.652344 L 23.914063 24.171875 L 23.46875 24.171875 Z M 22.644531 19.652344 L 23.089844 19.652344 L 23.089844 24.171875 L 22.644531 24.171875 Z M 21.839844 19.652344 L 22.269531 19.652344 L 22.269531 24.171875 L 21.839844 24.171875 Z M 21.390625 19.199219 L 26.816406 19.199219 L 26.816406 24.625 L 21.390625 24.625 Z M 21.390625 19.199219 "/>
<path style=" stroke:none;fill-rule:evenodd;fill:rgb(0,142,248);fill-opacity:1;" d="M 32.195313 19.652344 L 32.625 19.652344 L 32.625 24.171875 L 32.195313 24.171875 Z M 31.371094 19.652344 L 31.816406 19.652344 L 31.816406 24.171875 L 31.371094 24.171875 Z M 30.550781 19.652344 L 30.996094 19.652344 L 30.996094 24.171875 L 30.550781 24.171875 Z M 29.730469 19.652344 L 30.175781 19.652344 L 30.175781 24.171875 L 29.730469 24.171875 Z M 28.90625 19.652344 L 29.351563 19.652344 L 29.351563 24.171875 L 28.90625 24.171875 Z M 28.101563 19.652344 L 28.53125 19.652344 L 28.53125 24.171875 L 28.101563 24.171875 Z M 27.648438 19.199219 L 33.078125 19.199219 L 33.078125 24.625 L 27.648438 24.625 Z M 27.648438 19.199219 "/>
<path style=" stroke:none;fill-rule:evenodd;fill:rgb(45,165,255);fill-opacity:1;" d="M 32.195313 13.390625 L 32.625 13.390625 L 32.625 17.914063 L 32.195313 17.914063 Z M 31.371094 13.390625 L 31.816406 13.390625 L 31.816406 17.914063 L 31.371094 17.914063 Z M 30.550781 13.390625 L 30.996094 13.390625 L 30.996094 17.914063 L 30.550781 17.914063 Z M 29.730469 13.390625 L 30.175781 13.390625 L 30.175781 17.914063 L 29.730469 17.914063 Z M 28.90625 13.390625 L 29.351563 13.390625 L 29.351563 17.914063 L 28.90625 17.914063 Z M 28.101563 13.390625 L 28.53125 13.390625 L 28.53125 17.914063 L 28.101563 17.914063 Z M 27.648438 12.9375 L 33.078125 12.9375 L 33.078125 18.363281 L 27.648438 18.363281 Z M 27.648438 12.9375 "/>
<path style=" stroke:none;fill-rule:evenodd;fill:rgb(45,165,255);fill-opacity:1;" d="M 38.457031 19.652344 L 38.882813 19.652344 L 38.882813 24.171875 L 38.457031 24.171875 Z M 37.632813 19.652344 L 38.078125 19.652344 L 38.078125 24.171875 L 37.632813 24.171875 Z M 36.8125 19.652344 L 37.257813 19.652344 L 37.257813 24.171875 L 36.8125 24.171875 Z M 35.988281 19.652344 L 36.433594 19.652344 L 36.433594 24.171875 L 35.988281 24.171875 Z M 35.167969 19.652344 L 35.613281 19.652344 L 35.613281 24.171875 L 35.167969 24.171875 Z M 34.363281 19.652344 L 34.789063 19.652344 L 34.789063 24.171875 L 34.363281 24.171875 Z M 33.910156 19.199219 L 39.335938 19.199219 L 39.335938 24.625 L 33.910156 24.625 Z M 33.910156 19.199219 "/>
<path style=" stroke:none;fill-rule:evenodd;fill:rgb(0,142,248);fill-opacity:1;" d="M 38.457031 13.390625 L 38.882813 13.390625 L 38.882813 17.914063 L 38.457031 17.914063 Z M 37.632813 13.390625 L 38.078125 13.390625 L 38.078125 17.914063 L 37.632813 17.914063 Z M 36.8125 13.390625 L 37.257813 13.390625 L 37.257813 17.914063 L 36.8125 17.914063 Z M 35.988281 13.390625 L 36.433594 13.390625 L 36.433594 17.914063 L 35.988281 17.914063 Z M 35.167969 13.390625 L 35.613281 13.390625 L 35.613281 17.914063 L 35.167969 17.914063 Z M 34.363281 13.390625 L 34.789063 13.390625 L 34.789063 17.914063 L 34.363281 17.914063 Z M 33.910156 12.9375 L 39.335938 12.9375 L 39.335938 18.363281 L 33.910156 18.363281 Z M 33.910156 12.9375 "/>
<path style=" stroke:none;fill-rule:evenodd;fill:rgb(45,165,255);fill-opacity:1;" d="M 38.457031 7.132813 L 38.882813 7.132813 L 38.882813 11.652344 L 38.457031 11.652344 Z M 37.632813 7.132813 L 38.078125 7.132813 L 38.078125 11.652344 L 37.632813 11.652344 Z M 36.8125 7.132813 L 37.257813 7.132813 L 37.257813 11.652344 L 36.8125 11.652344 Z M 35.988281 7.132813 L 36.433594 7.132813 L 36.433594 11.652344 L 35.988281 11.652344 Z M 35.167969 7.132813 L 35.613281 7.132813 L 35.613281 11.652344 L 35.167969 11.652344 Z M 34.363281 7.132813 L 34.789063 7.132813 L 34.789063 11.652344 L 34.363281 11.652344 Z M 33.910156 6.679688 L 39.335938 6.679688 L 39.335938 12.105469 L 33.910156 12.105469 Z M 33.910156 6.679688 "/>
<path style=" stroke:none;fill-rule:evenodd;fill:rgb(0,142,248);fill-opacity:1;" d="M 44.714844 19.652344 L 45.144531 19.652344 L 45.144531 24.171875 L 44.714844 24.171875 Z M 43.894531 19.652344 L 44.339844 19.652344 L 44.339844 24.171875 L 43.894531 24.171875 Z M 43.070313 19.652344 L 43.515625 19.652344 L 43.515625 24.171875 L 43.070313 24.171875 Z M 42.25 19.652344 L 42.695313 19.652344 L 42.695313 24.171875 L 42.25 24.171875 Z M 41.425781 19.652344 L 41.871094 19.652344 L 41.871094 24.171875 L 41.425781 24.171875 Z M 40.621094 19.652344 L 41.050781 19.652344 L 41.050781 24.171875 L 40.621094 24.171875 Z M 40.171875 19.199219 L 45.597656 19.199219 L 45.597656 24.625 L 40.171875 24.625 Z M 40.171875 19.199219 "/>
<path style=" stroke:none;fill-rule:evenodd;fill:rgb(203,232,255);fill-opacity:1;" d="M 26.476563 33.421875 C 27.300781 33.421875 27.972656 34.09375 27.972656 34.917969 C 27.972656 35.746094 27.300781 36.414063 26.476563 36.414063 C 25.648438 36.414063 24.980469 35.746094 24.980469 34.917969 C 24.980469 34.09375 25.648438 33.421875 26.476563 33.421875 "/>
<path style=" stroke:none;fill-rule:evenodd;fill:rgb(0,81,142);fill-opacity:1;" d="M 26.476563 33.847656 C 26.613281 33.847656 26.742188 33.871094 26.863281 33.917969 C 26.734375 33.996094 26.644531 34.136719 26.644531 34.296875 C 26.644531 34.539063 26.839844 34.734375 27.082031 34.734375 C 27.25 34.734375 27.390625 34.644531 27.464844 34.507813 C 27.519531 34.632813 27.546875 34.773438 27.546875 34.917969 C 27.546875 35.511719 27.066406 35.992188 26.476563 35.992188 C 25.882813 35.992188 25.402344 35.511719 25.402344 34.917969 C 25.402344 34.328125 25.882813 33.847656 26.476563 33.847656 "/>
<path style=" stroke:none;fill-rule:evenodd;fill:rgb(0,81,142);fill-opacity:1;" d="M 0 30.320313 L 69.628906 30.320313 C 68.113281 29.933594 64.835938 29.414063 65.375 27.429688 C 62.617188 30.621094 55.96875 29.667969 54.292969 28.09375 C 52.421875 30.804688 41.546875 29.773438 40.789063 27.664063 C 38.445313 30.414063 31.1875 30.414063 28.84375 27.664063 C 28.085938 29.773438 17.207031 30.804688 15.339844 28.09375 C 13.664063 29.667969 7.015625 30.621094 4.257813 27.429688 C 4.796875 29.417969 1.515625 29.9375 0 30.320313 "/>
<path style=" stroke:none;fill-rule:nonzero;fill:rgb(167,217,255);fill-opacity:1;" d="M 30.453125 44.207031 C 26.746094 42.449219 24.710938 40.058594 23.582031 37.445313 C 22.203125 37.839844 20.546875 38.089844 18.625 38.199219 C 17.902344 38.238281 17.140625 38.261719 16.339844 38.261719 C 15.417969 38.261719 14.445313 38.234375 13.425781 38.179688 C 16.824219 41.578125 21.007813 44.191406 28.75 44.238281 C 29.320313 44.242188 29.890625 44.230469 30.453125 44.207031 Z M 30.453125 44.207031 "/>
<path style=" stroke:none;fill-rule:nonzero;fill:rgb(203,232,255);fill-opacity:1;" d="M 24.957031 39.855469 C 24.445313 39.160156 23.945313 38.285156 23.582031 37.445313 C 22.203125 37.839844 20.550781 38.089844 18.625 38.199219 C 19.945313 38.917969 21.835938 39.582031 24.957031 39.855469 Z M 24.957031 39.855469 "/>
</g>
</svg>
