<?xml version="1.0" encoding="UTF-8"?>
<svg xmlns="http://www.w3.org/2000/svg" xmlns:xlink="http://www.w3.org/1999/xlink" width="70pt" height="70pt" viewBox="0 0 70 70" version="1.1">
<defs>
<filter id="alpha" filterUnits="objectBoundingBox" x="0%" y="0%" width="100%" height="100%">
  <feColorMatrix type="matrix" in="SourceGraphic" values="0 0 0 0 1 0 0 0 0 1 0 0 0 0 1 0 0 0 1 0"/>
</filter>
<mask id="mask0">
  <g filter="url(#alpha)">
<rect x="0" y="0" width="70" height="70" style="fill:rgb(0%,0%,0%);fill-opacity:0.25098;stroke:none;"/>
  </g>
</mask>
<clipPath id="clip1">
  <rect x="0" y="0" width="70" height="70"/>
</clipPath>
<g id="surface5" clip-path="url(#clip1)">
<path style=" stroke:none;fill-rule:nonzero;fill:rgb(11.764706%,11.764706%,11.764706%);fill-opacity:1;" d="M 0.015625 49.882813 C -0.105469 50.625 0.53125 51.386719 1.921875 51.957031 L 30.363281 63.613281 C 32.921875 64.660156 37.078125 64.660156 39.636719 63.613281 L 68.082031 51.957031 C 69.472656 51.386719 70.105469 50.625 69.988281 49.882813 L 69.996094 43.207031 C 70.082031 43.9375 69.441406 44.679688 68.082031 45.238281 L 39.636719 56.890625 C 37.078125 57.941406 32.925781 57.941406 30.363281 56.890625 L 1.921875 45.238281 C 0.425781 44.625 -0.199219 43.789063 0.0546875 42.992188 Z M 0.015625 49.882813 "/>
</g>
<mask id="mask1">
  <g filter="url(#alpha)">
<rect x="0" y="0" width="70" height="70" style="fill:rgb(0%,0%,0%);fill-opacity:0.25098;stroke:none;"/>
  </g>
</mask>
<clipPath id="clip2">
  <rect x="0" y="0" width="70" height="70"/>
</clipPath>
<g id="surface8" clip-path="url(#clip2)">
<path style=" stroke:none;fill-rule:nonzero;fill:rgb(11.764706%,11.764706%,11.764706%);fill-opacity:1;" d="M 0.015625 38.085938 C -0.105469 38.832031 0.53125 39.59375 1.921875 40.160156 L 30.363281 51.816406 C 32.921875 52.867188 37.078125 52.867188 39.636719 51.816406 L 68.082031 40.160156 C 69.472656 39.59375 70.105469 38.832031 69.988281 38.085938 L 69.996094 31.410156 C 70.082031 32.140625 69.441406 32.882813 68.082031 33.441406 L 39.636719 45.09375 C 37.078125 46.144531 32.925781 46.144531 30.363281 45.09375 L 1.921875 33.441406 C 0.425781 32.828125 -0.199219 31.996094 0.0546875 31.195313 Z M 0.015625 38.085938 "/>
</g>
<mask id="mask2">
  <g filter="url(#alpha)">
<rect x="0" y="0" width="70" height="70" style="fill:rgb(0%,0%,0%);fill-opacity:0.25098;stroke:none;"/>
  </g>
</mask>
<clipPath id="clip3">
  <rect x="0" y="0" width="70" height="70"/>
</clipPath>
<g id="surface11" clip-path="url(#clip3)">
<path style=" stroke:none;fill-rule:nonzero;fill:rgb(11.764706%,11.764706%,11.764706%);fill-opacity:1;" d="M 0.015625 26.289063 C -0.105469 27.035156 0.53125 27.796875 1.921875 28.367188 L 30.363281 40.019531 C 32.921875 41.070313 37.078125 41.070313 39.636719 40.019531 L 68.082031 28.367188 C 69.472656 27.796875 70.105469 27.035156 69.988281 26.289063 L 69.996094 19.613281 C 70.082031 20.34375 69.441406 21.085938 68.082031 21.644531 L 39.636719 33.300781 C 37.078125 34.347656 32.925781 34.347656 30.363281 33.300781 L 1.921875 21.644531 C 0.425781 21.03125 -0.199219 20.199219 0.0546875 19.398438 Z M 0.015625 26.289063 "/>
</g>
<mask id="mask3">
  <g filter="url(#alpha)">
<rect x="0" y="0" width="70" height="70" style="fill:rgb(0%,0%,0%);fill-opacity:0.25098;stroke:none;"/>
  </g>
</mask>
<clipPath id="clip4">
  <rect x="0" y="0" width="70" height="70"/>
</clipPath>
<g id="surface14" clip-path="url(#clip4)">
<path style=" stroke:none;fill-rule:nonzero;fill:rgb(11.764706%,11.764706%,11.764706%);fill-opacity:1;" d="M 50.132813 23.796875 L 40.171875 19.367188 L 50.132813 14.9375 L 60.097656 19.367188 Z M 50.132813 23.796875 "/>
</g>
<mask id="mask4">
  <g filter="url(#alpha)">
<rect x="0" y="0" width="70" height="70" style="fill:rgb(0%,0%,0%);fill-opacity:0.25098;stroke:none;"/>
  </g>
</mask>
<clipPath id="clip5">
  <rect x="0" y="0" width="70" height="70"/>
</clipPath>
<g id="surface17" clip-path="url(#clip5)">
<path style=" stroke:none;fill-rule:nonzero;fill:rgb(11.764706%,11.764706%,11.764706%);fill-opacity:1;" d="M 50.132813 23.796875 L 40.171875 19.367188 L 50.132813 14.9375 Z M 50.132813 23.796875 "/>
</g>
</defs>
<g id="surface1">
<path style=" stroke:none;fill-rule:nonzero;fill:rgb(72.941176%,7.843137%,10.196078%);fill-opacity:1;" d="M 0.015625 49.882813 C -0.105469 50.625 0.53125 51.386719 1.921875 51.957031 L 30.363281 63.613281 C 32.921875 64.660156 37.078125 64.660156 39.636719 63.613281 L 68.082031 51.957031 C 69.472656 51.386719 70.105469 50.625 69.988281 49.882813 L 69.996094 43.207031 C 70.082031 43.9375 69.441406 44.679688 68.082031 45.238281 L 39.636719 56.890625 C 37.078125 57.941406 32.925781 57.941406 30.363281 56.890625 L 1.921875 45.238281 C 0.425781 44.625 -0.199219 43.789063 0.0546875 42.992188 Z M 0.015625 49.882813 "/>
<path style=" stroke:none;fill-rule:nonzero;fill:rgb(72.941176%,7.843137%,10.196078%);fill-opacity:1;" d="M 68.078125 41.4375 C 70.640625 42.488281 70.640625 44.191406 68.078125 45.238281 L 39.636719 56.890625 C 37.078125 57.941406 32.921875 57.941406 30.363281 56.890625 L 1.921875 45.238281 C -0.640625 44.1875 -0.640625 42.488281 1.921875 41.4375 L 30.363281 29.785156 C 32.921875 28.734375 37.078125 28.734375 39.636719 29.785156 Z M 68.078125 41.4375 "/>
<path style=" stroke:none;fill-rule:nonzero;fill:rgb(72.941176%,7.843137%,10.196078%);fill-opacity:1;" d="M 0.015625 38.085938 C -0.105469 38.832031 0.53125 39.59375 1.921875 40.160156 L 30.363281 51.816406 C 32.921875 52.867188 37.078125 52.867188 39.636719 51.816406 L 68.082031 40.160156 C 69.472656 39.59375 70.105469 38.832031 69.988281 38.085938 L 69.996094 31.410156 C 70.082031 32.140625 69.441406 32.882813 68.082031 33.441406 L 39.636719 45.09375 C 37.078125 46.144531 32.925781 46.144531 30.363281 45.09375 L 1.921875 33.441406 C 0.425781 32.828125 -0.199219 31.996094 0.0546875 31.195313 Z M 0.015625 38.085938 "/>
<path style=" stroke:none;fill-rule:nonzero;fill:rgb(72.941176%,7.843137%,10.196078%);fill-opacity:1;" d="M 68.078125 29.640625 C 70.640625 30.691406 70.640625 32.394531 68.078125 33.441406 L 39.636719 45.09375 C 37.078125 46.144531 32.921875 46.144531 30.363281 45.09375 L 1.921875 33.441406 C -0.640625 32.390625 -0.640625 30.691406 1.921875 29.640625 L 30.363281 17.988281 C 32.921875 16.9375 37.078125 16.9375 39.636719 17.988281 Z M 68.078125 29.640625 "/>
<path style=" stroke:none;fill-rule:nonzero;fill:rgb(72.941176%,7.843137%,10.196078%);fill-opacity:1;" d="M 0.015625 26.289063 C -0.105469 27.035156 0.53125 27.796875 1.921875 28.367188 L 30.363281 40.019531 C 32.921875 41.070313 37.078125 41.070313 39.636719 40.019531 L 68.082031 28.367188 C 69.472656 27.796875 70.105469 27.035156 69.988281 26.289063 L 69.996094 19.613281 C 70.082031 20.34375 69.441406 21.085938 68.082031 21.644531 L 39.636719 33.300781 C 37.078125 34.347656 32.925781 34.347656 30.363281 33.300781 L 1.921875 21.644531 C 0.425781 21.03125 -0.199219 20.199219 0.0546875 19.398438 Z M 0.015625 26.289063 "/>
<use xlink:href="#surface5" mask="url(#mask0)"/>
<use xlink:href="#surface8" mask="url(#mask1)"/>
<use xlink:href="#surface11" mask="url(#mask2)"/>
<path style=" stroke:none;fill-rule:nonzero;fill:rgb(72.941176%,7.843137%,10.196078%);fill-opacity:1;" d="M 68.078125 17.847656 C 70.640625 18.894531 70.640625 20.597656 68.078125 21.644531 L 39.636719 33.300781 C 37.078125 34.347656 32.921875 34.347656 30.363281 33.300781 L 1.921875 21.644531 C -0.640625 20.59375 -0.640625 18.894531 1.921875 17.847656 L 30.363281 6.191406 C 32.921875 5.140625 37.078125 5.140625 39.636719 6.191406 Z M 68.078125 17.847656 "/>
<path style=" stroke:none;fill-rule:nonzero;fill:rgb(100%,100%,100%);fill-opacity:1;" d="M 26.234375 21.941406 C 22.988281 23.386719 17.726563 23.386719 14.480469 21.941406 C 11.238281 20.5 11.234375 18.15625 14.480469 16.714844 C 17.726563 15.269531 22.992188 15.269531 26.234375 16.714844 C 29.480469 18.15625 29.484375 20.5 26.234375 21.941406 Z M 26.234375 21.941406 "/>
<path style=" stroke:none;fill-rule:nonzero;fill:rgb(100%,100%,100%);fill-opacity:1;" d="M 24.035156 25.660156 L 40.691406 23.675781 L 36.226563 31.085938 Z M 24.035156 25.660156 "/>
<use xlink:href="#surface14" mask="url(#mask3)"/>
<use xlink:href="#surface17" mask="url(#mask4)"/>
<path style=" stroke:none;fill-rule:nonzero;fill:rgb(100%,100%,100%);fill-opacity:1;" d="M 31.804688 13.953125 L 25.300781 13.363281 L 31.078125 11.910156 L 30.324219 8.976563 L 35.21875 10.972656 L 41.257813 9.75 L 38.503906 12.433594 L 42.988281 14.609375 L 36.394531 14.277344 L 33.125 16.847656 Z M 31.804688 13.953125 "/>
</g>
</svg>
