<?xml version="1.0" encoding="UTF-8"?>
<svg xmlns="http://www.w3.org/2000/svg" xmlns:xlink="http://www.w3.org/1999/xlink" width="70pt" height="67pt" viewBox="0 0 70 67" version="1.1">
<g id="surface1">
<path style=" stroke:none;fill-rule:nonzero;fill:rgb(19.607843%,42.352941%,89.803922%);fill-opacity:1;" d="M 34.765625 -15.71875 C 34.164063 -15.6875 33.574219 -15.542969 33.03125 -15.285156 L 9.371094 -4.144531 C 8.132813 -3.558594 7.230469 -2.453125 6.925781 -1.144531 L 1.085938 23.886719 C 0.816406 25.054688 1.035156 26.277344 1.703125 27.277344 C 1.78125 27.402344 1.867188 27.519531 1.960938 27.632813 L 18.335938 47.703125 C 19.191406 48.753906 20.496094 49.367188 21.871094 49.367188 L 48.132813 49.359375 C 49.507813 49.359375 50.808594 48.75 51.667969 47.699219 L 68.039063 27.625 C 68.898438 26.574219 69.21875 25.195313 68.914063 23.882813 L 63.066406 -1.148438 C 62.761719 -2.460938 61.859375 -3.566406 60.617188 -4.148438 L 36.957031 -15.285156 C 36.273438 -15.609375 35.519531 -15.757813 34.765625 -15.71875 Z M 34.765625 -15.71875 "/>
<path style="fill-rule:nonzero;fill:rgb(100%,100%,100%);fill-opacity:1;stroke-width:0.25;stroke-linecap:butt;stroke-linejoin:miter;stroke:rgb(100%,100%,100%);stroke-opacity:1;stroke-miterlimit:4;" d="M 367.748944 274.077793 C 359.63979 274.077793 353.104054 281.321733 353.104054 290.325499 C 353.104054 290.448278 353.144398 290.571056 353.144398 290.734761 C 353.144398 291.921621 353.06371 293.394965 353.104054 294.459046 C 353.305775 299.656675 354.435408 303.585591 355.121257 308.373958 C 356.331578 318.564585 357.380524 327.03631 356.735019 334.894143 C 356.129858 337.881756 353.910935 340.582886 351.974421 342.465492 L 351.651669 348.64535 C 342.856666 349.382021 334.021319 350.69166 325.185972 352.697044 C 287.222222 361.332475 254.543542 380.895204 229.651263 407.29261 C 228.037501 406.187602 225.213418 404.182218 224.366193 403.568325 C 221.74383 403.895734 219.121466 404.714259 215.651878 402.708874 C 209.116142 398.32977 203.145223 392.231764 195.963982 384.905972 C 192.65577 381.386318 190.235127 378.071295 186.321754 374.67442 C 185.434185 373.937748 184.062488 372.873666 183.09423 372.096068 C 179.987739 369.640496 176.397118 368.371783 172.887186 368.249005 C 168.408996 368.0853 164.051839 369.845127 161.227756 373.405707 C 156.18475 379.708344 157.798511 389.366929 164.818376 394.97382 C 164.899064 395.014747 164.979752 395.055673 165.06044 395.137525 C 166.028698 395.915123 167.198675 396.897352 168.086244 397.552172 C 172.241681 400.621637 176.034022 402.21776 180.189459 404.673332 C 188.944118 410.075592 196.206046 414.536549 201.934901 419.938809 C 204.194168 422.312529 204.597609 426.527929 204.880017 428.369608 L 209.559927 432.544082 C 184.465928 470.318975 172.887186 516.974855 179.745674 564.490186 L 173.613379 566.290939 C 171.999617 568.378176 169.700006 571.652273 167.319707 572.634502 C 159.815714 575.008222 151.343464 575.867673 141.096075 576.931754 C 136.295133 577.341016 132.18004 577.095459 127.09669 578.077688 C 125.967057 578.282319 124.393639 578.691581 123.183317 578.978065 C 123.142973 578.978065 123.102629 578.978065 123.062285 578.978065 C 122.981597 579.018991 122.900909 579.059917 122.820221 579.059917 C 114.226938 581.147154 108.659459 589.045913 110.434598 596.862819 C 112.25008 604.679725 120.641642 609.427166 129.315613 607.54456 C 129.396301 607.54456 129.476989 607.54456 129.557677 607.54456 C 129.638365 607.503634 129.719053 607.462708 129.840085 607.421781 C 131.050407 607.176224 132.543137 606.889741 133.592082 606.603257 C 138.594744 605.252692 142.225708 603.288234 146.744242 601.569333 C 156.426814 598.090605 164.414936 595.184844 172.241681 594.079837 C 175.509549 593.793353 178.938793 596.085221 180.633243 597.026524 L 187.007603 595.921516 C 201.692837 641.431463 232.435003 678.1832 271.36701 701.265583 L 268.704303 707.609146 C 269.67256 710.105645 270.721506 713.461594 269.995313 715.87624 C 267.171229 723.242958 262.289599 731.018938 256.762464 739.695295 C 254.099757 743.706064 251.356362 746.77553 248.935719 751.359265 C 248.330558 752.464273 247.604365 754.142248 247.039549 755.329108 C 243.287552 763.350645 246.030947 772.599969 253.252532 776.078697 C 260.514461 779.598351 269.551528 775.914992 273.464901 767.852528 C 273.464901 767.811602 273.464901 767.811602 273.464901 767.811602 C 273.505245 767.811602 273.464901 767.770676 273.464901 767.770676 C 274.029718 766.624742 274.836599 765.151398 275.280383 764.046391 C 277.378274 759.29895 278.064123 755.247255 279.516508 750.66352 C 283.389537 740.923081 285.527772 730.732455 290.853186 724.388892 C 292.305572 722.629065 294.685871 721.974246 297.146858 721.319426 L 300.45507 715.303273 C 334.384415 728.317808 372.38851 731.837463 410.311916 723.202032 C 418.985887 721.237574 427.337105 718.700149 435.405915 715.671609 C 436.333828 717.308658 438.068622 720.459976 438.552751 721.2785 C 441.054082 722.097024 443.797477 722.506286 446.0164 725.82131 C 450.010461 732.615061 452.713512 740.677524 456.062068 750.417962 C 457.514454 755.001698 458.240647 759.053393 460.298193 763.800833 C 460.782322 764.905841 461.548859 766.420111 462.113676 767.566045 C 465.986704 775.628508 475.064115 779.352793 482.326044 775.833139 C 489.547629 772.354411 492.291024 763.105088 488.539028 755.042624 C 487.974211 753.89669 487.207674 752.218716 486.642858 751.113708 C 484.222215 746.529972 481.478819 743.460506 478.816112 739.449738 C 473.248633 730.814307 468.649412 723.611294 465.825328 716.244576 C 464.655351 712.438439 466.027048 710.105645 466.954961 707.609146 C 466.390145 706.995253 465.220167 703.393746 464.534319 701.715771 C 504.959056 677.814864 534.813652 639.712562 548.813038 595.635033 C 550.709208 595.962442 554.01742 596.535409 555.066365 596.74004 C 557.285288 595.307623 559.30249 593.384091 563.256207 593.711501 C 571.082953 594.857435 579.071075 597.763196 588.753646 601.200997 C 593.27218 602.919898 596.903144 604.925282 601.905807 606.275847 C 602.954752 606.562331 604.447482 606.807888 605.657803 607.094372 C 605.778835 607.094372 605.859523 607.176224 605.940211 607.176224 C 606.0209 607.21715 606.101588 607.21715 606.182276 607.21715 C 614.856246 609.099756 623.247809 604.352316 625.063291 596.535409 C 626.838429 588.718503 621.311294 580.778818 612.677668 578.732507 C 611.427002 578.446024 609.651864 577.954909 608.401198 577.709352 C 603.317848 576.768049 599.202755 576.97268 594.401813 576.604344 C 584.154425 575.499337 575.682174 574.639886 568.178181 572.266166 C 565.112034 571.079306 562.933455 567.436873 561.844166 565.922603 L 555.953934 564.203703 C 559.020082 542.062622 558.172857 519.021166 552.887787 495.938783 C 547.522028 472.651769 538.08152 451.370139 525.494177 432.585008 C 526.986907 431.193517 529.851334 428.697018 530.658215 427.91942 C 530.90028 425.300143 530.698559 422.558087 533.401611 419.652326 C 539.17081 414.250066 546.432739 409.789109 555.187397 404.386849 C 559.342834 401.931276 563.175519 400.335154 567.330956 397.265688 C 568.258869 396.569943 569.549879 395.464935 570.55848 394.687337 C 577.578345 389.080446 579.192107 379.42186 574.149101 373.119224 C 569.106094 366.816587 559.342834 366.202694 552.32297 371.809585 C 551.314369 372.587183 549.983015 373.651264 549.095446 374.387936 C 545.141729 377.784812 542.721086 381.099835 539.412874 384.619489 C 532.191289 391.945281 526.260714 398.043286 519.684634 402.463317 C 516.860551 404.100365 512.705113 403.527398 510.808943 403.445546 L 505.281808 407.415388 C 473.531042 374.142379 430.362909 352.860749 383.84622 348.727202 C 383.725188 346.80367 383.563812 343.284016 383.523467 342.219934 C 381.627297 340.378255 379.327686 338.823059 378.722526 334.894143 C 378.117365 327.03631 379.16631 318.564585 380.376632 308.373958 C 381.06248 303.585591 382.192114 299.656675 382.393834 294.459046 C 382.434178 293.272186 382.35349 291.594212 382.35349 290.325499 C 382.35349 281.321733 375.817754 274.077793 367.748944 274.077793 Z M 349.432746 387.484324 L 345.075588 464.220969 L 344.752836 464.384674 C 344.470428 471.219351 338.822261 476.703464 331.883084 476.703464 C 329.059001 476.703464 326.436638 475.803087 324.298403 474.247891 L 324.177371 474.329743 L 261.280998 429.720173 C 280.605798 410.689485 305.3367 396.651795 333.819599 390.185454 C 339.023981 388.998594 344.228363 388.139143 349.432746 387.484324 Z M 386.065143 387.484324 C 419.348983 391.576945 450.131493 406.63779 473.692418 429.7611 L 411.199485 474.04326 L 410.997765 473.961407 C 405.430286 478.013102 397.603541 477.030873 393.286727 471.587687 C 391.511589 469.377672 390.583676 466.758394 390.502988 464.139117 L 390.4223 464.098191 Z M 238.446266 458.368521 L 295.896192 509.730916 L 295.815504 510.058326 C 301.019887 514.560209 301.786424 522.377115 297.46961 527.820301 C 295.694472 530.030316 293.314173 531.50366 290.772498 532.199406 L 290.69181 532.485889 L 217.06392 553.726593 C 213.311923 519.430428 221.421077 486.157418 238.446266 458.368521 Z M 496.607838 458.409447 C 505.160776 472.242507 511.615824 487.671688 515.448509 504.451435 C 519.240849 520.985624 520.209107 537.519813 518.635689 553.481035 L 444.644702 532.158479 L 444.564014 531.83107 C 437.94759 530.030316 433.872841 523.277492 435.405915 516.524667 C 436.05142 513.741684 437.503805 511.40889 439.521008 509.68999 L 439.480664 509.526285 Z M 355.968482 513.700758 L 379.489063 513.700758 L 394.093608 531.994775 L 388.848882 554.790674 L 367.748944 564.981301 L 346.527974 554.790674 L 341.283248 531.953848 Z M 431.37151 576.276935 C 432.380111 576.236009 433.388712 576.317861 434.35697 576.481566 L 434.478002 576.358787 L 510.647567 589.209617 C 499.512609 620.518169 478.170607 647.652247 449.687708 665.823484 L 420.11552 594.407246 L 420.196208 594.284468 C 417.493157 587.981831 420.196208 580.574187 426.449536 577.545647 C 428.063298 576.808976 429.717404 576.358787 431.37151 576.276935 Z M 303.480874 576.604344 C 309.290417 576.686197 314.494799 580.696966 315.866497 586.631266 C 316.471658 589.373322 316.189249 592.115378 315.140304 594.570951 L 315.342024 594.857435 L 286.092588 665.537001 C 258.779667 647.979656 236.99388 621.705029 225.33445 589.455175 L 300.818166 576.645271 L 300.939199 576.808976 C 301.786424 576.645271 302.633649 576.563418 303.480874 576.604344 Z M 367.264816 607.54456 C 369.282018 607.503634 371.339565 607.912896 373.276079 608.854199 C 375.858098 610.081985 377.834957 612.005517 379.085622 614.338311 L 379.36803 614.338311 L 416.565244 681.580076 C 411.764302 683.217124 406.76164 684.608615 401.718634 685.754549 C 373.235735 692.22089 344.873868 690.256432 319.174709 681.498223 L 356.291234 614.379237 L 356.371922 614.379237 C 358.590845 610.204764 362.82697 607.708265 367.264816 607.54456 Z M 367.264816 607.54456 " transform="matrix(0.0968234,0,0,0.0954462,-0.606721,-33.358894)"/>
</g>
</svg>
