<?xml version="1.0" encoding="UTF-8"?>
<svg xmlns="http://www.w3.org/2000/svg" xmlns:xlink="http://www.w3.org/1999/xlink" width="70pt" height="70pt" viewBox="0 0 70 70" version="1.1">
<g id="surface1">
<path style=" stroke:none;fill-rule:evenodd;fill:rgb(98.823529%,81.960784%,8.627451%);fill-opacity:1;" d="M 24.078125 19.601563 L 19.179688 20.441406 L 14.839844 22.398438 L 11.058594 24.78125 L 7.421875 29.121094 L 5.460938 31.21875 L 3.5 31.921875 L 2.941406 30.660156 L 3.921875 29.398438 L 4.058594 27.578125 L 4.761719 27.578125 L 5.320313 28.140625 L 5.179688 26.320313 L 4.480469 25.761719 L 4.480469 25.058594 L 2.800781 26.039063 L 1.121094 27.859375 L 0.839844 29.539063 L 1.539063 30.941406 L 2.101563 33.179688 L 3.359375 33.738281 L 4.761719 33.738281 L 6.019531 32.898438 L 5.179688 37.238281 L 6.019531 42 L 5.039063 44.238281 L 2.101563 47.460938 L 2.519531 49.558594 L 4.058594 51.800781 L 6.71875 53.621094 L 8.261719 53.898438 L 9.800781 53.898438 L 8.820313 58.101563 L 12.460938 59.640625 L 17.078125 60.199219 L 18.621094 59.078125 L 18.761719 56.421875 L 20.578125 53.480469 L 20.71875 51.101563 L 24.921875 51.519531 L 28.839844 51.101563 L 24.921875 53.480469 L 25.621094 56.28125 L 28 60.199219 L 30.519531 61.179688 L 32.339844 60.480469 L 33.179688 58.800781 L 37.238281 55.71875 L 38.078125 56.421875 L 44.378906 56.699219 L 45.640625 55.578125 L 45.78125 53.761719 L 45.359375 53.058594 L 45.078125 48.160156 L 42.980469 43.960938 L 43.261719 42 L 44.519531 42.699219 L 48.160156 46.058594 L 49.839844 46.199219 L 51.800781 45.359375 L 53.761719 43.960938 L 54.738281 40.738281 L 60.339844 41.160156 L 63.839844 39.761719 L 66.640625 37.238281 L 68.601563 33.460938 L 69.160156 28.980469 L 68.738281 23.941406 L 67.621094 19.320313 L 66.5 17.78125 L 64.960938 17.359375 L 62.300781 20.300781 L 59.921875 21.140625 L 57.820313 17.640625 L 55.71875 15.679688 L 54.460938 14.980469 L 49.980469 11.058594 L 46.199219 9.101563 L 42.558594 8.820313 L 38.21875 9.519531 L 34.441406 10.921875 L 31.921875 13.019531 L 29.820313 15.539063 L 27.71875 16.101563 Z M 24.078125 19.601563 "/>
<path style=" stroke:none;fill-rule:nonzero;fill:rgb(11.764706%,11.764706%,11.764706%);fill-opacity:1;" d="M 5.179688 29.121094 L 5.738281 29.820313 L 5.878906 28.980469 L 5.460938 28.980469 Z M 5.179688 29.121094 "/>
<path style=" stroke:none;fill-rule:nonzero;fill:rgb(11.764706%,11.764706%,11.764706%);fill-opacity:1;" d="M 69.578125 23.660156 C 69.300781 21.558594 68.738281 19.460938 67.898438 18.058594 C 67.761719 17.921875 67.621094 17.640625 67.480469 17.5 C 67.058594 17.078125 66.5 16.800781 65.941406 16.519531 C 65.378906 16.238281 64.679688 16.238281 64.121094 16.519531 C 63.980469 16.660156 63.839844 16.660156 63.699219 16.800781 C 63.421875 17.078125 63.140625 17.5 62.859375 17.921875 C 62.578125 18.339844 62.160156 18.898438 61.878906 19.179688 C 61.460938 19.601563 60.898438 19.738281 60.339844 20.019531 C 60.058594 19.460938 59.921875 18.898438 59.5 18.480469 C 59.078125 17.921875 58.800781 17.359375 58.238281 16.800781 C 57.820313 16.378906 57.539063 16.101563 57.121094 15.679688 C 56.699219 15.398438 56.28125 15.121094 55.859375 14.839844 C 54.601563 14 53.621094 13.160156 52.5 12.179688 C 52.078125 11.761719 51.519531 11.339844 51.101563 10.921875 C 48.578125 8.820313 46.199219 7.839844 43.679688 7.699219 C 41.160156 7.558594 38.5 8.261719 35.28125 9.519531 C 33.738281 10.21875 32.621094 10.921875 31.640625 11.761719 C 30.660156 12.601563 29.960938 13.578125 28.980469 14.839844 C 28.421875 14.839844 28 14.980469 27.578125 15.121094 C 27.019531 15.261719 26.601563 15.679688 25.898438 16.238281 C 25.480469 16.660156 25.058594 17.078125 24.640625 17.359375 C 24.21875 17.78125 23.941406 18.058594 23.519531 18.480469 C 20.578125 18.898438 18.339844 19.460938 16.238281 20.300781 C 14.140625 21.140625 12.179688 22.261719 10.21875 23.941406 C 9.378906 24.640625 8.679688 25.339844 8.121094 26.179688 C 7.558594 27.019531 7 27.71875 6.578125 28.558594 C 6.160156 28.980469 5.738281 29.398438 5.320313 29.820313 C 4.898438 30.238281 4.480469 30.519531 3.921875 30.660156 C 3.640625 30.800781 3.5 30.800781 3.5 30.800781 C 3.5 30.800781 3.5 30.660156 3.5 30.660156 C 4.199219 29.960938 4.339844 28.980469 4.339844 28 C 4.480469 28.140625 4.480469 28.28125 4.621094 28.421875 C 4.761719 28.558594 4.761719 28.699219 4.898438 28.839844 L 5.179688 28.558594 L 5.601563 28.699219 C 5.738281 28 5.878906 27.300781 5.738281 26.460938 C 5.601563 26.039063 5.460938 25.621094 5.039063 25.339844 C 5.039063 25.199219 5.179688 25.199219 5.179688 25.058594 C 5.320313 24.78125 5.460938 24.5 5.460938 24.078125 L 5.179688 23.941406 L 5.460938 24.078125 L 5.878906 23.800781 L 5.320313 23.941406 C 4.480469 24.078125 2.800781 25.058594 1.539063 26.320313 C 1.121094 26.738281 0.699219 27.300781 0.421875 27.859375 C 0 28.558594 0 29.121094 0 29.679688 C 0.140625 30.238281 0.421875 30.660156 0.839844 31.21875 C 0.980469 31.640625 0.980469 31.921875 1.121094 32.199219 C 1.261719 32.480469 1.398438 32.761719 1.398438 33.039063 C 1.820313 33.738281 2.378906 34.300781 2.941406 34.441406 C 3.5 34.578125 4.058594 34.578125 4.621094 34.441406 C 4.480469 35.140625 4.480469 35.839844 4.339844 36.539063 C 4.339844 37.519531 4.339844 38.640625 4.480469 39.898438 C 4.480469 40.179688 4.480469 40.460938 4.621094 40.738281 C 4.621094 41.019531 4.761719 41.300781 4.761719 41.578125 C 4.621094 41.859375 4.480469 42.140625 4.480469 42.421875 C 4.339844 42.839844 4.199219 43.398438 3.921875 43.820313 C 3.5 44.238281 3.21875 44.519531 2.800781 44.941406 C 2.519531 45.21875 2.101563 45.640625 1.820313 45.921875 C 1.820313 45.921875 1.679688 46.058594 1.539063 46.199219 C 0.839844 46.898438 0.699219 47.039063 0.839844 48.160156 C 0.980469 48.859375 1.261719 49.558594 1.539063 50.398438 C 1.820313 51.101563 2.378906 51.660156 2.941406 52.359375 C 3.921875 53.199219 5.179688 54.039063 6.441406 54.601563 C 7.140625 54.878906 7.980469 55.019531 8.679688 54.878906 C 8.679688 55.019531 8.679688 55.160156 8.539063 55.160156 C 8.398438 55.441406 8.261719 55.71875 8.121094 56.140625 C 7.28125 58.101563 8.121094 59.078125 9.519531 59.640625 C 10.21875 59.921875 11.058594 60.199219 11.761719 60.339844 C 11.898438 60.339844 12.039063 60.480469 12.320313 60.480469 C 13.160156 60.761719 14.839844 61.179688 16.238281 61.320313 C 17.78125 61.460938 19.179688 61.039063 19.601563 59.640625 C 19.738281 59.078125 19.878906 58.660156 19.878906 58.238281 C 19.878906 57.820313 19.878906 57.398438 19.878906 56.980469 C 20.300781 56 20.578125 55.71875 20.859375 55.300781 C 20.859375 55.160156 21 55.160156 21 55.019531 C 21.28125 54.460938 21.558594 54.179688 21.558594 53.761719 C 21.558594 53.339844 21.558594 52.921875 21.558594 52.359375 C 21.558594 52.359375 21.558594 52.21875 21.558594 52.078125 C 22.398438 52.21875 23.378906 52.21875 24.21875 52.21875 C 24.640625 52.21875 25.058594 52.21875 25.621094 52.21875 C 25.480469 52.21875 25.339844 52.359375 25.199219 52.359375 C 25.199219 52.359375 25.058594 52.359375 25.058594 52.5 C 23.800781 53.058594 23.800781 54.320313 24.21875 55.441406 C 24.5 56.558594 25.199219 57.679688 25.761719 58.238281 C 26.738281 59.640625 27.578125 60.898438 28.558594 61.460938 C 29.679688 62.160156 30.941406 62.160156 32.621094 61.320313 C 33.460938 60.898438 33.738281 60.339844 34.019531 59.78125 C 34.160156 59.640625 34.300781 59.359375 34.441406 59.21875 C 34.71875 58.941406 35.558594 58.238281 36.539063 57.539063 C 36.820313 57.261719 37.101563 57.121094 37.519531 56.839844 C 37.800781 56.980469 37.941406 57.121094 38.359375 57.261719 C 38.78125 57.398438 39.339844 57.398438 39.898438 57.398438 C 40.320313 57.398438 41.859375 57.398438 42.839844 57.398438 C 43.121094 57.398438 43.398438 57.398438 43.539063 57.398438 C 44.519531 57.398438 45.359375 57.398438 45.921875 56.980469 C 46.621094 56.558594 46.898438 56 47.039063 54.878906 C 47.039063 54.320313 47.039063 54.039063 47.039063 53.761719 C 47.039063 53.480469 46.898438 53.199219 46.621094 52.78125 C 46.621094 52.21875 46.621094 51.800781 46.621094 51.238281 C 46.621094 50.679688 46.621094 50.121094 46.621094 49.699219 C 46.621094 49.140625 46.480469 48.578125 46.339844 48.019531 C 46.199219 47.460938 46.058594 47.039063 45.78125 46.480469 C 45.640625 46.058594 45.5 45.78125 45.359375 45.359375 L 45.078125 45.5 L 45.359375 45.359375 C 45.21875 44.800781 44.941406 44.238281 44.660156 43.679688 C 44.660156 43.539063 44.660156 43.398438 44.660156 43.261719 C 44.800781 43.398438 45.078125 43.679688 45.21875 43.820313 L 46.058594 44.660156 C 46.621094 45.21875 47.179688 45.78125 47.878906 46.199219 C 48.578125 46.621094 49.28125 46.898438 50.261719 46.761719 C 51.238281 46.761719 52.359375 46.339844 53.339844 45.640625 C 54.179688 44.941406 54.878906 44.101563 55.300781 43.121094 C 55.441406 42.839844 55.441406 42.558594 55.578125 42.28125 C 55.578125 42 55.71875 41.859375 55.71875 41.578125 C 57.121094 41.859375 58.800781 41.859375 60.199219 41.71875 C 61.601563 41.578125 63.140625 41.160156 64.261719 40.601563 C 66.078125 39.621094 67.339844 38.21875 68.320313 36.539063 C 69.441406 34.71875 70 32.480469 70.28125 30.238281 C 70.140625 28.558594 70 26.039063 69.578125 23.660156 Z M 48.578125 40.601563 C 48.160156 42 47.460938 44.378906 49.421875 44.800781 C 50.121094 44.941406 50.539063 44.941406 51.519531 44.378906 C 50.679688 44.519531 50.261719 44.519531 49.699219 44.378906 C 49.140625 44.238281 48.859375 43.960938 48.71875 43.539063 C 48.859375 43.679688 49.140625 43.679688 49.699219 43.820313 C 51.101563 44.101563 52.5 43.539063 52.78125 42.421875 C 52.921875 41.859375 52.921875 41.578125 53.199219 40.738281 C 53.480469 40.878906 53.761719 40.878906 54.179688 41.019531 C 54.039063 41.578125 53.761719 42.140625 53.621094 42.839844 C 53.199219 44.378906 51.378906 45.640625 49.699219 45.5 C 48.160156 45.5 47.320313 44.519531 46.199219 43.679688 C 45.5 43.121094 44.800781 42.421875 44.101563 41.859375 C 42.28125 41.300781 40.738281 40.601563 39.058594 39.339844 C 40.320313 40.738281 41.160156 41.578125 42.839844 42.28125 C 42.558594 44.800781 41.71875 46.621094 41.019531 49 C 40.738281 50.121094 38.078125 54.460938 37.238281 54.878906 C 36.679688 55.160156 33.460938 57.960938 32.761719 58.378906 C 32.339844 58.941406 31.921875 59.78125 31.21875 60.199219 C 29.121094 61.320313 27.71875 59.21875 26.601563 57.398438 C 26.039063 56.558594 24.640625 54.179688 25.898438 53.480469 C 27.019531 52.921875 27.71875 52.359375 28.980469 51.660156 C 29.121094 51.941406 29.398438 52.359375 29.679688 52.640625 C 29.679688 52.21875 29.539063 51.941406 29.539063 51.519531 C 29.398438 50.820313 29.398438 50.398438 29.539063 49.699219 C 29.539063 49.140625 29.679688 48.441406 29.679688 47.878906 C 29.539063 48.578125 29.121094 49.140625 28.980469 49.839844 C 28.839844 50.121094 28.839844 50.261719 28.839844 50.539063 C 26.179688 51.101563 23.378906 51.101563 20.71875 50.679688 C 20.578125 49.699219 20.300781 48.578125 20.160156 47.878906 C 20.160156 48.71875 20.160156 51.101563 20.160156 52.359375 C 20.160156 53.339844 20.160156 53.761719 19.601563 54.601563 C 19.179688 55.441406 18.898438 55.578125 18.199219 56.980469 C 18.199219 57.820313 18.199219 58.378906 18.058594 59.21875 C 17.640625 60.621094 13.859375 59.5 12.878906 59.21875 C 11.621094 58.941406 9.101563 58.378906 9.660156 56.699219 C 10.21875 55.300781 10.640625 53.761719 10.921875 51.660156 C 8.679688 48.441406 6.578125 43.960938 6.160156 39.898438 C 5.878906 36.820313 6.019531 34.859375 6.71875 33.039063 C 7.839844 30.101563 9.238281 27.441406 11.621094 25.339844 C 14.839844 22.539063 17.78125 21.421875 22.539063 20.71875 C 21.421875 21.980469 20.300781 23.378906 19.039063 24.78125 C 17.78125 26.179688 17.078125 27.71875 16.238281 29.261719 C 15.121094 31.5 15.121094 32.339844 16.660156 34.160156 C 17.921875 35.839844 18.621094 36.539063 19.039063 38.21875 C 18.621094 39.199219 18.480469 39.898438 18.339844 41.160156 C 19.878906 42.839844 21 43.960938 22.398438 44.238281 C 23.800781 44.519531 25.058594 44.519531 26.320313 43.820313 C 29.121094 42.421875 31.78125 40.460938 35 40.320313 C 36.539063 36.679688 36.398438 33.601563 35.558594 29.960938 C 35.140625 27.578125 34.859375 25.199219 34.71875 22.820313 C 34.160156 25.339844 34.019531 27.578125 34.441406 30.101563 C 35 33.179688 35.421875 36.539063 33.878906 39.199219 C 30.941406 39.480469 28.421875 41.160156 25.761719 42.558594 C 24.640625 43.121094 23.660156 43.121094 22.398438 42.839844 C 21.558594 42.699219 20.859375 42 19.601563 40.601563 C 19.601563 39.199219 19.878906 38.640625 20.441406 37.378906 C 21.421875 35.421875 22.539063 33.601563 23.800781 31.640625 C 22.398438 33.460938 21 35 19.878906 36.679688 C 19.460938 35.421875 18.761719 34.71875 17.78125 33.320313 C 16.800781 31.921875 16.660156 31.359375 17.359375 29.679688 C 18.199219 28 18.761719 26.601563 20.160156 25.199219 C 22.398438 22.679688 24.5 20.019531 27.019531 17.5 C 28.421875 16.238281 28.980469 16.238281 30.660156 15.960938 C 32.339844 15.679688 33.878906 15.398438 35.558594 14.980469 C 33.878906 15.261719 32.339844 15.398438 30.800781 15.398438 C 32.339844 13.441406 33.179688 12.320313 35.699219 11.199219 C 41.859375 8.539063 45.78125 8.261719 50.539063 12.320313 C 51.800781 13.441406 52.921875 14.421875 54.179688 15.261719 C 53.761719 15.261719 53.339844 15.398438 52.78125 15.539063 C 53.480469 15.398438 54.179688 15.539063 54.878906 15.679688 C 55.019531 15.820313 55.300781 15.960938 55.441406 16.101563 C 56.28125 16.660156 56.839844 16.941406 57.398438 17.78125 C 58.101563 18.621094 58.519531 19.601563 59.078125 20.578125 C 58.800781 20.441406 58.519531 20.441406 58.238281 20.300781 C 58.101563 20.160156 57.820313 20.160156 57.679688 20.160156 C 57.261719 20.160156 56.980469 20.160156 56.558594 20.441406 C 56 20.71875 55.300781 21 54.738281 21 C 55.019531 21.140625 55.578125 21.140625 55.859375 21 C 55.859375 21 56 21 56 21 C 55.859375 21.140625 55.859375 21.421875 55.71875 21.699219 C 55.71875 21.980469 55.71875 22.398438 55.859375 22.679688 C 55.859375 22.820313 56 22.820313 56 22.960938 C 55.71875 23.101563 55.578125 23.101563 55.300781 23.238281 C 56.421875 23.101563 57.539063 23.101563 58.660156 23.238281 C 58.800781 23.660156 58.800781 23.941406 58.941406 24.359375 C 58.800781 24.359375 58.660156 24.359375 58.519531 24.359375 C 57.960938 23.941406 57.398438 23.941406 56.558594 24.21875 C 54.179688 24.78125 54.738281 26.179688 53.621094 28.28125 C 54.738281 26.878906 54.738281 25.339844 56.558594 24.921875 C 56.980469 24.78125 57.261719 24.640625 57.539063 24.78125 C 56.980469 25.058594 56.558594 25.480469 56.28125 26.039063 C 55.71875 27.578125 56.140625 28.699219 55.441406 30.101563 C 56.140625 28.839844 56.140625 27.71875 56.839844 26.320313 C 57.121094 25.898438 57.960938 25.058594 58.378906 25.058594 C 58.519531 25.058594 58.660156 25.058594 58.800781 25.058594 C 58.941406 25.898438 58.941406 26.738281 58.941406 27.300781 C 58.800781 28.558594 58.519531 30.378906 58.378906 31.078125 C 59.078125 30.238281 59.359375 28.558594 59.640625 27.300781 C 59.921875 26.039063 59.921875 24.5 59.640625 23.101563 C 59.21875 21.140625 61.179688 21.558594 62.300781 20.578125 C 63.140625 19.878906 63.699219 18.898438 64.398438 18.199219 C 65.101563 17.5 66.359375 18.480469 66.640625 19.320313 C 67.898438 22.398438 68.460938 27.300781 68.179688 30.519531 C 67.761719 34.019531 66.078125 37.941406 63 39.621094 C 59.078125 41.859375 54.320313 40.460938 50.398438 39.199219 C 49.558594 38.921875 49 38.5 48.300781 38.078125 C 48.71875 38.78125 48.859375 39.761719 48.578125 40.601563 Z M 45.078125 54.738281 C 44.941406 56.140625 44.519531 56.28125 43.121094 56.28125 C 42.558594 56.28125 40.179688 56.28125 39.621094 56.140625 C 38.78125 56 38.359375 56 38.078125 55.859375 C 39.339844 54.878906 41.578125 50.960938 42 49.558594 C 42.421875 48.160156 42.980469 46.898438 43.261719 45.5 C 43.398438 46.058594 43.539063 46.621094 43.820313 47.179688 C 44.238281 48.160156 44.378906 48.71875 44.519531 49.839844 C 44.519531 50.960938 44.519531 52.078125 44.660156 53.199219 C 45.078125 53.898438 45.078125 54.039063 45.078125 54.738281 Z M 4.199219 25.621094 C 3.921875 26.039063 3.78125 26.460938 3.78125 26.738281 C 3.359375 28.28125 3.921875 29.679688 2.519531 30.800781 C 3.21875 32.058594 3.078125 32.621094 4.621094 32.058594 C 5.179688 31.78125 5.738281 31.5 6.160156 31.078125 C 6.019531 31.640625 5.738281 32.199219 5.601563 32.761719 C 5.601563 32.898438 5.601563 32.898438 5.460938 33.039063 C 4.339844 33.460938 2.941406 33.738281 2.378906 32.621094 C 2.101563 32.058594 1.960938 31.5 1.820313 30.800781 C 0 28.980469 2.660156 26.460938 4.199219 25.621094 Z M 4.339844 27.300781 C 4.339844 27.160156 4.339844 26.878906 4.480469 26.738281 C 4.480469 26.601563 4.480469 26.601563 4.621094 26.460938 C 5.039063 26.738281 5.039063 27.019531 5.179688 27.578125 C 4.898438 27.300781 4.621094 27.160156 4.339844 27.300781 Z M 5.738281 43.679688 C 6.578125 46.480469 7.980469 49.421875 9.519531 51.800781 C 9.378906 52.21875 9.238281 52.640625 9.101563 52.921875 C 7.980469 54.460938 5.179688 52.21875 4.339844 51.378906 C 3.359375 50.398438 2.800781 49.28125 2.660156 48.300781 C 2.519531 47.601563 2.660156 47.601563 3.21875 47.039063 C 3.921875 46.339844 4.621094 45.640625 5.320313 44.941406 C 5.460938 44.519531 5.601563 44.101563 5.738281 43.679688 Z M 59.078125 20.578125 C 59.078125 20.71875 59.21875 20.859375 59.21875 21 C 59.21875 21 59.078125 21.140625 59.078125 21.140625 C 58.941406 21 58.800781 20.71875 58.660156 20.578125 C 58.800781 20.578125 58.941406 20.578125 59.078125 20.578125 Z M 7 29.121094 Z M 4.761719 25.761719 Z M 1.261719 31.078125 Z M 20.859375 51.660156 Z M 55.019531 41.300781 Z M 67.621094 36.539063 Z M 67.621094 36.539063 "/>
<path style=" stroke:none;fill-rule:nonzero;fill:rgb(11.764706%,11.764706%,11.764706%);fill-opacity:1;" d="M 62.578125 22.261719 C 64.539063 21.558594 65.519531 20.019531 65.941406 18.058594 C 65.101563 19.601563 63.980469 21 62.300781 21.699219 C 61.460938 22.121094 60.898438 21.980469 59.921875 21.839844 C 60.898438 22.261719 61.601563 22.539063 62.578125 22.261719 Z M 62.578125 22.261719 "/>
<path style=" stroke:none;fill-rule:nonzero;fill:rgb(11.764706%,11.764706%,11.764706%);fill-opacity:1;" d="M 51.378906 24.21875 C 50.820313 24.21875 50.121094 24.359375 49.28125 24.5 C 49.28125 24.21875 49.140625 24.078125 49.140625 23.800781 C 48.859375 23.238281 48.441406 22.820313 47.878906 22.679688 C 48.300781 22.398438 48.859375 22.121094 49.28125 21.839844 C 48.160156 22.398438 46.898438 22.261719 45.921875 22.820313 C 45.078125 23.378906 43.960938 25.199219 43.121094 25.898438 C 43.679688 25.621094 44.238281 25.199219 44.800781 24.78125 C 44.800781 25.058594 44.941406 25.480469 45.078125 25.761719 C 45.359375 26.179688 45.640625 26.601563 46.058594 26.738281 C 45.78125 27.160156 45.5 27.578125 45.359375 28.140625 C 46.898438 26.320313 49.140625 24.78125 51.378906 24.21875 Z M 51.378906 24.21875 "/>
<path style=" stroke:none;fill-rule:nonzero;fill:rgb(11.764706%,11.764706%,11.764706%);fill-opacity:1;" d="M 41.300781 22.121094 C 41.71875 20.441406 42.28125 18.898438 44.800781 17.78125 C 41.441406 18.621094 40.878906 20.019531 41.300781 22.121094 Z M 41.300781 22.121094 "/>
<path style=" stroke:none;fill-rule:nonzero;fill:rgb(11.764706%,11.764706%,11.764706%);fill-opacity:1;" d="M 46.761719 38.078125 C 46.621094 38.5 46.621094 39.199219 46.480469 39.621094 C 46.621094 39.058594 46.898438 38.359375 47.179688 37.941406 C 47.460938 37.378906 47.601563 37.378906 48.160156 37.101563 C 48.578125 36.960938 49.28125 36.539063 49.558594 36.398438 C 49.140625 36.398438 48.441406 36.679688 48.019531 36.679688 C 47.039063 36.820313 46.898438 37.101563 46.761719 38.078125 Z M 46.761719 38.078125 "/>
<path style=" stroke:none;fill-rule:nonzero;fill:rgb(11.764706%,11.764706%,11.764706%);fill-opacity:1;" d="M 28.839844 19.179688 C 27.578125 20.441406 26.460938 24.5 26.039063 26.179688 C 26.601563 24.78125 28.140625 21 29.261719 20.019531 C 29.539063 19.738281 29.820313 19.601563 30.101563 19.460938 C 29.261719 20.859375 29.398438 21.140625 29.679688 22.960938 C 29.960938 21.140625 30.519531 20.300781 31.640625 18.898438 C 32.761719 18.621094 33.878906 18.199219 35.140625 17.78125 C 33.738281 17.921875 32.480469 18.058594 31.078125 18.199219 C 29.820313 18.480469 29.539063 18.480469 28.839844 19.179688 Z M 28.839844 19.179688 "/>
<path style=" stroke:none;fill-rule:evenodd;fill:rgb(100%,98.039216%,79.607843%);fill-opacity:1;" d="M 45.5 26.320313 C 45.21875 25.898438 45.5 25.339844 45.921875 25.058594 C 46.339844 24.78125 46.898438 25.058594 47.179688 25.480469 C 47.179688 25.480469 47.179688 25.621094 47.179688 25.621094 C 46.761719 25.898438 46.339844 26.320313 45.921875 26.738281 C 45.78125 26.738281 45.5 26.601563 45.5 26.320313 "/>
<path style=" stroke:none;fill-rule:evenodd;fill:rgb(100%,98.039216%,79.607843%);fill-opacity:1;" d="M 55.859375 22.261719 C 55.859375 21.839844 56.28125 21.558594 56.558594 21.558594 C 56.980469 21.558594 57.261719 21.980469 57.261719 22.261719 C 57.261719 22.398438 57.261719 22.398438 57.261719 22.539063 C 56.839844 22.539063 56.558594 22.679688 56.140625 22.820313 C 56 22.820313 55.859375 22.539063 55.859375 22.261719 "/>
</g>
</svg>
