<?xml version="1.0" encoding="UTF-8"?>
<svg xmlns="http://www.w3.org/2000/svg" xmlns:xlink="http://www.w3.org/1999/xlink" width="70pt" height="70pt" viewBox="0 0 70 70" version="1.1">
<g id="surface1">
<path style=" stroke:none;fill-rule:nonzero;fill:rgb(0%,61.960784%,88.235294%);fill-opacity:1;" d="M 63.566406 43.59375 C 63.789063 43.433594 64.09375 43.570313 64.136719 43.839844 C 64.164063 44 64.175781 44.160156 64.175781 44.324219 C 64.175781 48.863281 54.453125 55.050781 35.003906 55.050781 C 15.558594 55.050781 5.832031 48.863281 5.832031 44.324219 C 5.832031 44.164063 5.847656 44.003906 5.871094 43.84375 C 5.914063 43.574219 6.21875 43.441406 6.441406 43.597656 C 11.261719 47.027344 20.78125 49.949219 35 49.949219 C 49.230469 49.949219 58.75 47.023438 63.566406 43.59375 Z M 63.566406 43.59375 "/>
<path style=" stroke:none;fill-rule:nonzero;fill:rgb(0%,61.960784%,88.235294%);fill-opacity:1;" d="M 35 41.199219 C 19.230469 41.199219 8.789063 37.679688 3.675781 33.609375 C 3.5 33.46875 3.234375 33.523438 3.132813 33.722656 C 2.867188 34.238281 2.734375 34.777344 2.734375 35.332031 C 2.734375 40.351563 13.492188 47.03125 35 47.03125 C 56.511719 47.03125 67.265625 40.351563 67.265625 35.332031 C 67.265625 34.777344 67.132813 34.238281 66.867188 33.722656 C 66.765625 33.523438 66.5 33.46875 66.324219 33.609375 C 61.210938 37.679688 50.773438 41.199219 35 41.199219 Z M 35 41.199219 "/>
<path style=" stroke:none;fill-rule:nonzero;fill:rgb(0%,61.960784%,88.235294%);fill-opacity:1;" d="M 35 14.949219 C 11.667969 14.949219 0 19.003906 0 24.792969 C 0 30.578125 11.667969 38.28125 35 38.28125 C 58.335938 38.28125 70 30.578125 70 24.792969 C 70 19.003906 58.332031 14.949219 35 14.949219 Z M 35 30.988281 C 18.472656 30.988281 10.207031 26.773438 10.207031 23.878906 C 10.207031 20.988281 18.472656 19.324219 35 19.324219 C 51.527344 19.324219 59.792969 20.988281 59.792969 23.878906 C 59.792969 26.773438 51.527344 30.988281 35 30.988281 Z M 35 30.988281 "/>
</g>
</svg>
