<?xml version="1.0" encoding="UTF-8"?>
<svg xmlns="http://www.w3.org/2000/svg" xmlns:xlink="http://www.w3.org/1999/xlink" width="70pt" height="70pt" viewBox="0 0 70 70" version="1.1">
<g id="surface1">
<path style=" stroke:none;fill-rule:nonzero;fill:rgb(34.901961%,70.588235%,85.098039%);fill-opacity:1;" d="M 63.191406 35.136719 C 63.886719 33.386719 64.28125 31.480469 64.28125 29.480469 C 64.28125 21 57.410156 14.125 48.9375 14.125 C 46.582031 14.125 44.359375 14.671875 42.363281 15.621094 C 39.046875 11.320313 33.863281 8.539063 28.015625 8.539063 C 18 8.539063 9.882813 16.664063 9.882813 26.691406 C 9.882813 27.503906 9.953125 28.296875 10.058594 29.082031 C 7.671875 29.984375 5.574219 31.464844 3.925781 33.347656 C 5.308594 34.550781 7.277344 35.273438 9.308594 35.273438 C 16.695313 35.226563 26.394531 29.207031 31.523438 25.625 L 29.078125 22.941406 L 40.140625 20.597656 L 36.542969 31.328125 L 34.144531 28.742188 C 31.839844 30.605469 19.347656 39.867188 9.242188 39.867188 C 6.117188 39.867188 3.496094 38.980469 1.445313 37.226563 C 0.652344 39.003906 0.199219 40.960938 0.140625 43.019531 C 2.117188 44.828125 5.007813 45.769531 8.867188 45.769531 C 18.417969 45.769531 33.285156 39.804688 45.863281 30.933594 L 43.75 28.394531 L 54.910156 26.570313 L 50.816406 37.121094 L 48.449219 34.308594 C 35.238281 44.25 20.28125 50.421875 9.511719 50.421875 C 6.183594 50.421875 3.34375 49.835938 1.058594 48.691406 C 1.824219 50.800781 3.734375 53.632813 4.59375 54.253906 C 6.109375 55.351563 9.230469 56.230469 13.792969 56.230469 C 22.242188 56.230469 34.101563 52.734375 44.523438 46.878906 L 42.414063 44.144531 L 53.628906 42.730469 L 49.152344 53.121094 L 46.910156 50.253906 C 40.734375 54.039063 33.953125 56.984375 27.371094 58.800781 L 57.304688 58.800781 C 64.242188 58.800781 69.859375 53.175781 69.859375 46.234375 C 69.859375 41.425781 67.15625 37.25 63.191406 35.136719 Z M 63.191406 35.136719 "/>
</g>
</svg>
