<?xml version="1.0" encoding="UTF-8"?>
<svg xmlns="http://www.w3.org/2000/svg" xmlns:xlink="http://www.w3.org/1999/xlink" width="70pt" height="70pt" viewBox="0 0 70 70" version="1.1">
<defs>
<linearGradient id="linear0" gradientUnits="userSpaceOnUse" x1="9" y1="15.83" x2="9" y2="5.79" gradientTransform="matrix(3.888889,0,0,3.888889,0,0)">
<stop offset="0" style="stop-color:rgb(47,166,255);stop-opacity:1;"/>
<stop offset="0.18" style="stop-color:rgb(63,173,255);stop-opacity:1;"/>
<stop offset="0.41" style="stop-color:rgb(75,178,255);stop-opacity:1;"/>
<stop offset="0.78" style="stop-color:rgb(79,180,255);stop-opacity:1;"/>
</linearGradient>
</defs>
<g id="surface1">
<path style=" stroke:none;fill-rule:nonzero;fill:url(#linear0);" d="M 1.945313 22.515625 L 68.054688 22.515625 L 68.054688 59.382813 C 68.054688 60.609375 67.0625 61.601563 65.839844 61.601563 L 4.160156 61.601563 C 2.9375 61.601563 1.945313 60.609375 1.945313 59.382813 Z M 1.945313 22.515625 "/>
<path style=" stroke:none;fill-rule:nonzero;fill:rgb(0,81,142);fill-opacity:1;" d="M 4.160156 8.4375 L 65.839844 8.4375 C 67.0625 8.4375 68.054688 9.429688 68.054688 10.65625 L 68.054688 22.515625 L 1.945313 22.515625 L 1.945313 10.617188 C 1.964844 9.40625 2.953125 8.4375 4.160156 8.4375 Z M 4.160156 8.4375 "/>
<path style=" stroke:none;fill-rule:nonzero;fill:rgb(229,243,255);fill-opacity:1;" d="M 11.9375 12.640625 L 58.101563 12.640625 C 58.703125 12.640625 59.1875 13.125 59.1875 13.726563 L 59.1875 17.226563 C 59.1875 17.828125 58.703125 18.316406 58.101563 18.316406 L 11.9375 18.316406 C 11.335938 18.316406 10.851563 17.828125 10.851563 17.226563 L 10.851563 13.726563 C 10.851563 13.125 11.335938 12.640625 11.9375 12.640625 Z M 11.9375 12.640625 "/>
<path style=" stroke:none;fill-rule:nonzero;fill:rgb(255,255,255);fill-opacity:1;" d="M 25.976563 35 L 22.476563 46.667969 L 19.679688 46.667969 L 17.539063 38.890625 C 17.496094 38.539063 17.496094 38.1875 17.539063 37.839844 C 17.582031 38.175781 17.582031 38.515625 17.539063 38.851563 L 14.777344 46.667969 L 12.015625 46.667969 L 8.554688 35 L 11.316406 35 L 13.457031 43.515625 C 13.484375 43.851563 13.484375 44.191406 13.457031 44.527344 C 13.421875 44.191406 13.421875 43.851563 13.457031 43.515625 L 16.253906 35 L 18.785156 35 L 20.921875 43.554688 C 20.949219 43.890625 20.949219 44.230469 20.921875 44.566406 C 20.894531 44.230469 20.894531 43.890625 20.921875 43.554688 L 23.332031 35 Z M 43.867188 35 L 40.367188 46.667969 L 37.566406 46.667969 L 35.429688 38.890625 C 35.382813 38.539063 35.382813 38.1875 35.429688 37.839844 C 35.3125 38.199219 35.171875 38.550781 35 38.890625 L 32.667969 46.667969 L 29.945313 46.667969 L 26.445313 35 L 29.207031 35 L 31.382813 43.515625 C 31.410156 43.851563 31.410156 44.191406 31.382813 44.527344 C 31.382813 44.214844 31.382813 43.867188 31.578125 43.515625 L 34.183594 35 L 36.671875 35 L 38.8125 43.554688 C 38.839844 43.890625 38.839844 44.230469 38.8125 44.566406 C 38.78125 44.230469 38.78125 43.890625 38.8125 43.554688 L 41.339844 35 Z M 61.792969 35 L 58.332031 46.667969 L 55.535156 46.667969 L 53.316406 38.890625 C 53.292969 38.539063 53.292969 38.1875 53.316406 37.839844 C 53.296875 38.183594 53.230469 38.523438 53.121094 38.851563 L 50.554688 46.667969 L 47.832031 46.667969 L 44.332031 35 L 47.132813 35 L 49.273438 43.515625 C 49.304688 43.851563 49.304688 44.191406 49.273438 44.527344 C 49.238281 44.191406 49.238281 43.851563 49.273438 43.515625 L 52.070313 35 L 54.445313 35 L 56.542969 43.554688 C 56.570313 43.890625 56.570313 44.230469 56.542969 44.566406 C 56.519531 44.230469 56.519531 43.890625 56.542969 43.554688 L 59.226563 35 Z M 61.792969 35 "/>
</g>
</svg>
