<?xml version="1.0" encoding="utf-8"?><svg version="1.1" xmlns="http://www.w3.org/2000/svg" xmlns:xlink="http://www.w3.org/1999/xlink" xmlns:xml="http://www.w3.org/XML/1998/namespace" width="70" height="70" viewBox="0, 0, 50, 50" id="FxSymbol0-06d" class="" role="presentation" focusable="false" data-type="1"><g><title /><path d="M47.941 14.668 c0.465 -0.465 0.372 -1.209 0 -1.675 l-2.233 -2.233 L35.66 0.992 c-0.465 -0.465 -1.116 -0.465 -1.582 0 c-0.465 0.465 -0.558 1.209 0 1.675 l10.513 10.327 a1.18 1.18 0 0 1 0 1.675 L33.893 25.367 a1.18 1.18 0 0 0 0 1.675 c0.465 0.465 1.209 0.372 1.582 0 l9.955 -9.862 l0.093 -0.093 l2.418 -2.419 z m-45.96 0 c-0.465 -0.465 -0.372 -1.209 0 -1.675 l2.233 -2.233 L14.262 0.991 c0.465 -0.465 1.116 -0.465 1.582 0 c0.465 0.465 0.558 1.209 0 1.675 L5.517 12.994 a1.18 1.18 0 0 0 0 1.675 L16.03 25.367 a1.18 1.18 0 0 1 0 1.675 c-0.465 0.465 -1.209 0.372 -1.582 0 L4.307 17.273 l-0.093 -0.093 l-2.233 -2.512 z" class="msportalfx-svg-c16" style="fill:#3999C6;" /><path d="M18.5 14 c0 2.015 -1.647 3.5 -3.397 3.5 c-1.75 0 -3.603 -1.697 -3.603 -3.5 s1.441 -3.5 3.603 -3.5 c2.059 0 3.397 1.697 3.397 3.5 z" class="msportalfx-svg-c14" style="fill:#57A300;" /><circle cx="35" cy="14" r="3.5" class="msportalfx-svg-c14" style="fill:#57A300;" /><path d="M41 36 c-0.354 0 -0.698 0.035 -1.038 0.085 v-0.008 c0 -7.601 -6.111 -13.763 -13.647 -13.763 c-6.022 0 -11.127 3.932 -12.94 9.39 a9.157 9.157 0 0 0 -3.047 -0.526 C5.173 31.178 1 35.391 1 40.587 c0 5.199 4.172 9.412 9.328 9.412 l0.013 -0.003 V50 h30.176 v-0.002 l0.032 0.002 c0.076 0 0.15 -0.009 0.225 -0.011 c0.076 0.002 0.15 0.011 0.226 0.011 a7 7 0 1 0 0 -14 z" class="msportalfx-svg-c15" style="fill:#59B4D9;" /><path d="M23 16 h4 v23 h-4 z" class="msportalfx-svg-c01" style="fill:white;" /><path d="M22.085 33.021 a13.503 13.503 0 0 1 7.014 -10.408 c-0.9 -0.19 -1.828 -0.3 -2.784 -0.3 c-6.021 0 -11.127 3.932 -12.94 9.39 a9.152 9.152 0 0 0 -3.047 -0.526 C5.172 31.178 1 35.391 1 40.587 c0 5.199 4.172 9.412 9.327 9.412 l0.013 -0.003 V50 h3.923 A10.449 10.449 0 0 1 12 43.5 c0 -5.659 4.48 -10.259 10.085 -10.479 z" opacity="0.2" class="msportalfx-svg-c01" style="fill:white;" /><path d="M28.5 14 c0 2.015 -1.647 3.5 -3.397 3.5 S21.5 15.803 21.5 14 s1.647 -3.5 3.603 -3.5 S28.5 12.197 28.5 14 z" class="msportalfx-svg-c14" style="fill:#57A300;" /><path d="M27 34.419 v-12.07 c-0.228 -0.011 -0.453 -0.035 -0.684 -0.035 c-1.144 0 -2.254 0.143 -3.316 0.411 v11.776 c-1.231 0.732 -2.1 2.049 -2.1 3.499 c0 2.107 2.034 4.101 4.186 4.101 c2.214 0 4.015 -1.84 4.015 -4.101 A4.103 4.103 0 0 0 27 34.419 z" class="msportalfx-svg-c01" style="fill:white;" /><path d="M27.9 38 c0 1.67 -1.365 2.9 -2.815 2.9 S22.1 39.494 22.1 38 s1.365 -2.9 2.985 -2.9 S27.9 36.506 27.9 38 z" class="msportalfx-svg-c14" style="fill:#57A300;" /><path d="M26 17 v21 h-2 V17 z" class="msportalfx-svg-c14" style="fill:#57A300;" /></g><defs /></svg>