<?xml version="1.0" encoding="utf-8"?><svg version="1.1" xmlns="http://www.w3.org/2000/svg" xmlns:xlink="http://www.w3.org/1999/xlink" xmlns:xml="http://www.w3.org/XML/1998/namespace" width="70" height="70" viewBox="0, 0, 18, 18" id="af463d32-ec10-44d9-a607-ebad6378a52b"><defs><linearGradient x1="9" y1="14.14" x2="9" y2="1.38" gradientUnits="userSpaceOnUse" id="b012de7b-7a0e-4618-9fec-703622e3e8c3"><stop offset="0%" stop-color="#0078D4" /><stop offset="82%" stop-color="#5EA0EF" /></linearGradient></defs><title>Icon-networking-84</title><path d="M18 10.14 a4.06 4.06 0 0 0 -3.51 -3.89 A5.1 5.1 0 0 0 9.24 1.38 a5.23 5.23 0 0 0 -5 3.41 A4.82 4.82 0 0 0 0 9.43 a4.9 4.9 0 0 0 5.07 4.71 l0.44 0 h8.21 a1.46 1.46 0 0 0 0.22 0 A4.1 4.1 0 0 0 18 10.14 Z" style="fill:url(#b012de7b-7a0e-4618-9fec-703622e3e8c3);" /><path d="M14.29 11.19 a0.42 0.42 0 0 0 -0.42 -0.41 H4.13 a0.42 0.42 0 0 0 -0.42 0.41 v5 a0.42 0.42 0 0 0 0.42 0.41 h9.74 a0.42 0.42 0 0 0 0.42 -0.41 v-5 Z" style="fill:#821010;" /><rect x="4.3" y="11.36" width="2.87" height="1.27" style="fill:#E62323;" /><rect x="7.6" y="11.36" width="2.87" height="1.27" style="fill:#FF7381;" /><rect x="10.9" y="11.36" width="2.87" height="1.27" style="fill:#E62323;" /><rect x="4.3" y="13.06" width="1.19" height="1.27" style="fill:#E62323;" /><rect x="12.58" y="13.06" width="1.19" height="1.27" style="fill:#FF7381;" /><rect x="5.92" y="13.06" width="2.87" height="1.27" style="fill:#FF7381;" /><rect x="9.23" y="13.06" width="2.87" height="1.27" style="fill:#E62323;" /><rect x="4.3" y="14.76" width="2.87" height="1.27" style="fill:#E62323;" /><rect x="7.6" y="14.76" width="2.87" height="1.27" style="fill:#FF7381;" /><rect x="10.9" y="14.76" width="2.87" height="1.27" style="fill:#E62323;" /></svg>