<?xml version="1.0" encoding="utf-8"?><svg version="1.1" xmlns="http://www.w3.org/2000/svg" xmlns:xlink="http://www.w3.org/1999/xlink" xmlns:xml="http://www.w3.org/XML/1998/namespace" width="70" height="70" viewBox="0, 0, 18, 18" id="a7fced15-da9f-41e0-8b9e-21a862586c87"><defs><linearGradient x1="5.82" y1="25.68" x2="5.82" y2="14.64" gradientUnits="userSpaceOnUse" gradientTransform="translate(0, -11.41) scale(1, 1.01)" id="ace104d6-1f53-40e3-a991-cb43c1f1aa51"><stop offset="0%" stop-color="#5E9624" /><stop offset="1%" stop-color="#5F9724" /><stop offset="35%" stop-color="#6CAB29" /><stop offset="68%" stop-color="#73B82C" /><stop offset="100%" stop-color="#76BC2D" /></linearGradient></defs><title>Icon-networking-71</title><path d="M18 9.16 l-2.12 2.12 a0.1 0.1 0 0 1 -0.18 -0.08 V10 a0.11 0.11 0 0 0 -0.11 -0.1 H12.09 L14.27 12 a0.09 0.09 0 0 0 0.12 0 l0 0 l0.61 -0.62 a0.08 0.08 0 0 1 0.14 0.06 v2.19 a0.12 0.12 0 0 1 -0.12 0.12 H12.87 a0.08 0.08 0 0 1 -0.06 -0.14 l0.62 -0.61 l0 0 a0.09 0.09 0 0 0 0 -0.12 L11.64 11 V7.17 l1.83 -1.82 a0.08 0.08 0 0 0 0 -0.11 l0 0 l-0.62 -0.61 a0.08 0.08 0 0 1 0.06 -0.14 h2.19 a0.13 0.13 0 0 1 0.12 0.13 V6.75 a0.08 0.08 0 0 1 -0.14 0.06 l-0.61 -0.61 l0 0 a0.09 0.09 0 0 0 -0.12 0 L12.12 8.31 h3.43 a0.11 0.11 0 0 0 0.11 -0.11 V7 a0.1 0.1 0 0 1 0.18 -0.08 L18 9 A0.1 0.1 0 0 1 18 9.16 Z" style="fill:#0078D4;" /><rect y="3.41" width="11.64" height="11.18" rx="0.58" style="fill:url(#ace104d6-1f53-40e3-a991-cb43c1f1aa51);" /><g><rect x="2.27" y="4.78" width="2.73" height="2.61" rx="0.29" style="fill:white;" /><rect x="6.92" y="7.77" width="2.73" height="2.61" rx="0.29" style="fill:white;" /><rect x="2.27" y="10.61" width="2.73" height="2.61" rx="0.29" style="fill:white;" /></g></svg>