<?xml version="1.0" encoding="UTF-8"?>
<svg xmlns="http://www.w3.org/2000/svg" xmlns:xlink="http://www.w3.org/1999/xlink" width="70pt" height="70pt" viewBox="0 0 70 70" version="1.1">
<defs>
<linearGradient id="linear0" gradientUnits="userSpaceOnUse" x1="9" y1="13.83" x2="9" y2="1.07" gradientTransform="matrix(3.888889,0,0,3.888889,0,0)">
<stop offset="0" style="stop-color:rgb(0%,47.058824%,83.137255%);stop-opacity:1;"/>
<stop offset="0.82" style="stop-color:rgb(36.862745%,62.745098%,93.72549%);stop-opacity:1;"/>
</linearGradient>
</defs>
<g id="surface1">
<path style=" stroke:none;fill-rule:nonzero;fill:url(#linear0);" d="M 70 38.226563 C 69.730469 30.582031 63.945313 24.265625 56.351563 23.332031 C 55.992188 12.410156 46.859375 3.832031 35.933594 4.160156 C 27.292969 4 19.496094 9.320313 16.488281 17.421875 C 7.296875 18.550781 0.296875 26.210938 0 35.464844 C 0.402344 45.960938 9.21875 54.15625 19.714844 53.785156 L 53.355469 53.785156 C 53.640625 53.824219 53.925781 53.824219 54.210938 53.785156 C 62.816406 53.722656 69.8125 46.828125 70 38.226563 Z M 70 38.226563 "/>
<path style=" stroke:none;fill-rule:nonzero;fill:rgb(94.901961%,94.901961%,94.901961%);fill-opacity:1;" d="M 25.785156 26.523438 L 45.460938 26.523438 L 45.460938 53.746094 L 25.785156 53.746094 Z M 25.785156 26.523438 "/>
<path style=" stroke:none;fill-rule:nonzero;fill:rgb(31.372549%,90.196078%,100%);fill-opacity:1;" d="M 49.039063 24.773438 L 35.464844 16.996094 C 34.972656 16.835938 34.445313 17.09375 34.261719 17.578125 C 34.261719 17.578125 34.261719 17.8125 34.261719 17.890625 L 34.261719 64.867188 C 34.261719 65.390625 34.671875 65.816406 35.195313 65.839844 L 35.503906 65.839844 L 49.078125 57.828125 C 49.464844 57.699219 49.726563 57.339844 49.738281 56.933594 L 49.738281 25.820313 C 49.78125 25.351563 49.488281 24.914063 49.039063 24.773438 Z M 49.039063 24.773438 "/>
</g>
</svg>
