<?xml version="1.0" encoding="utf-8"?><svg version="1.1" xmlns="http://www.w3.org/2000/svg" xmlns:xlink="http://www.w3.org/1999/xlink" xmlns:xml="http://www.w3.org/XML/1998/namespace" width="70" height="70" viewBox="0, 0, 50, 50" id="FxSymbol0-01f" class="" role="presentation" focusable="false" data-type="1"><g><title /><path d="M22.3 37.3 C15.8 41.8 5.4 48.7 4.4 49.5 c-1.3 0.9 -3.2 0.5 -3.8 -0.3 c-0.6 -0.9 -0.6 -2.8 0.7 -3.7 c0.8 -0.5 14.5 -9.8 18.7 -12.7 l2.4 2.6 c1.1 1.1 -0.1 1.9 -0.1 1.9 z M22 31 S10 18.1 8.6 16.7 c-1.3 -1.5 -0.1 -3.2 0.6 -3.8 c0.7 -0.6 2.8 -1.5 3.9 -0.4 S27.6 28 28.6 29.1 s0.9 2.8 -0.8 4 c-0.3 0.2 -1.1 0.8 -2.3 1.6 c-0.1 0.1 -0.6 0.5 -1.1 0.8 c0 0 1.1 -0.8 0.3 -1.7 L22 31 z m8.6 -8.5 c5.4 5.8 13.8 14.9 14.7 15.8 c1.1 1.2 3 1.2 3.8 0.5 s1.2 -2.5 0.1 -3.7 c-0.6 -0.7 -11.9 -12.8 -15.3 -16.5 l-2.9 2 c-1.4 0.8 -0.4 1.9 -0.4 1.9 z m1.2 -5.9 S46.3 6.5 47.9 5.3 s0.8 -3.1 0.2 -3.8 S45.7 -0.6 44.4 0.3 S27 12.4 25.8 13.3 s-1.5 2.5 0 4.1 c0.2 0.3 0.9 1 1.9 2.1 c0.1 0.1 0.5 0.6 0.9 1 c0 0 -0.9 -1 0.1 -1.7 l3.1 -2.2 z" class="msportalfx-svg-c19" style="fill:#0072C6;" /></g><defs /></svg>