<?xml version="1.0" encoding="utf-8"?><svg version="1.1" xmlns="http://www.w3.org/2000/svg" xmlns:xlink="http://www.w3.org/1999/xlink" xmlns:xml="http://www.w3.org/XML/1998/namespace" width="70" height="70" viewBox="0, 0, 18, 18" id="b9c24df5-e0dd-4838-a385-7c11c2d34304"><defs><linearGradient x1="9" y1="13.83" x2="9" y2="1.07" gradientUnits="userSpaceOnUse" id="aa2ee697-e8d1-4da1-a8c5-64c8ebbb74cf"><stop offset="0%" stop-color="#0078D4" /><stop offset="82%" stop-color="#5EA0EF" /></linearGradient></defs><title>Icon-networking-73</title><path d="M18 9.83 A4 4 0 0 0 14.49 6 A5.1 5.1 0 0 0 9.24 1.07 a5.23 5.23 0 0 0 -5 3.41 A4.83 4.83 0 0 0 0 9.12 a4.9 4.9 0 0 0 5.07 4.71 l0.44 0 h8.21 a0.78 0.78 0 0 0 0.22 0 A4.09 4.09 0 0 0 18 9.83 Z" style="fill:url(#aa2ee697-e8d1-4da1-a8c5-64c8ebbb74cf);" /><path d="M6.63 6.82 h5.06 v7 H6.63 Z" id="f0276135-0079-4897-a518-21eb63472c16" style="fill:#F2F2F2;" /><path d="M12.61 6.37 l-3.49 -2 a0.25 0.25 0 0 0 -0.31 0.15 s0 0.06 0 0.08 V16.68 a0.25 0.25 0 0 0 0.24 0.25 h0.08 l3.49 -2.06 a0.25 0.25 0 0 0 0.17 -0.23 v-8 A0.26 0.26 0 0 0 12.61 6.37 Z" id="e528878d-2ed7-4392-94e6-99c6fc971bcb" style="fill:#50E6FF;" /></svg>