<?xml version="1.0" encoding="UTF-8"?>
<svg xmlns="http://www.w3.org/2000/svg" xmlns:xlink="http://www.w3.org/1999/xlink" width="70pt" height="70pt" viewBox="0 0 70 70" version="1.1">
<defs>
<linearGradient id="linear0" gradientUnits="userSpaceOnUse" x1="9" y1="172.704" x2="9" y2="160.613" gradientTransform="matrix(3.888889,0,0,3.888889,0,-622.222222)">
<stop offset="0" style="stop-color:rgb(9.803922%,54.117647%,70.196078%);stop-opacity:1;"/>
<stop offset="0.11" style="stop-color:rgb(13.333333%,64.705882%,79.607843%);stop-opacity:1;"/>
<stop offset="0.23" style="stop-color:rgb(16.078431%,72.941176%,87.058824%);stop-opacity:1;"/>
<stop offset="0.37" style="stop-color:rgb(18.039216%,78.823529%,92.156863%);stop-opacity:1;"/>
<stop offset="0.53" style="stop-color:rgb(19.215686%,81.960784%,95.294118%);stop-opacity:1;"/>
<stop offset="0.78" style="stop-color:rgb(19.607843%,83.137255%,96.078431%);stop-opacity:1;"/>
</linearGradient>
</defs>
<g id="surface1">
<path style=" stroke:none;fill-rule:nonzero;fill:url(#linear0);" d="M 68.054688 34.609375 C 67.839844 27.335938 62.425781 21.265625 55.222656 20.222656 C 54.65625 9.976563 46.035156 2.046875 35.777344 2.332031 C 27.695313 2.289063 20.421875 7.238281 17.5 14.777344 C 8.902344 16.050781 2.394531 23.207031 1.945313 31.890625 C 2.058594 36.699219 4.097656 41.261719 7.609375 44.554688 C 11.117188 47.84375 15.804688 49.585938 20.609375 49.390625 L 53.277344 49.390625 C 61.4375 49.390625 68.054688 42.773438 68.054688 34.609375 Z M 68.054688 34.609375 "/>
<path style=" stroke:none;fill-rule:nonzero;fill:rgb(94.901961%,94.901961%,94.901961%);fill-opacity:1;" d="M 52.109375 50.167969 C 52.109375 59.617188 44.449219 67.277344 35 67.277344 C 25.550781 67.277344 17.890625 59.617188 17.890625 50.167969 C 17.890625 40.714844 25.550781 33.054688 35 33.054688 C 44.449219 33.054688 52.109375 40.714844 52.109375 50.167969 Z M 52.109375 50.167969 "/>
<path style=" stroke:none;fill-rule:nonzero;fill:rgb(0%,47.058824%,83.137255%);fill-opacity:1;" d="M 49.390625 39.277344 C 43.449219 31.496094 32.355469 29.9375 24.5 35.777344 C 19.414063 39.640625 16.800781 45.9375 17.648438 52.265625 C 18.5 58.59375 22.6875 63.976563 28.609375 66.359375 C 34.535156 68.742188 41.28125 67.753906 46.277344 63.777344 C 53.769531 57.796875 55.148438 46.941406 49.390625 39.277344 Z M 19.832031 49 C 19.980469 46.851563 20.507813 44.742188 21.390625 42.777344 L 25.667969 42.777344 C 25.191406 44.820313 24.933594 46.90625 24.890625 49 Z M 28 42.777344 L 33.832031 42.777344 L 33.832031 49 L 27.222656 49 C 27.265625 46.90625 27.527344 44.820313 28 42.777344 Z M 36.167969 42.777344 L 42 42.777344 C 42.472656 44.820313 42.734375 46.90625 42.777344 49 L 36.167969 49 Z M 34.222656 50.945313 L 34.222656 57.167969 L 28 57.167969 L 26.832031 51.332031 Z M 36.167969 50.945313 L 43.167969 50.945313 C 43.074219 53.035156 42.816406 55.117188 42.390625 57.167969 L 36.167969 57.167969 Z M 45.5 50.945313 L 50.554688 50.945313 C 50.40625 53.09375 49.878906 55.199219 49 57.167969 L 44.722656 57.167969 C 45.195313 55.125 45.457031 53.039063 45.5 50.945313 Z M 45.5 49 C 45.410156 46.910156 45.148438 44.828125 44.722656 42.777344 L 49 42.777344 C 49.925781 44.726563 50.453125 46.84375 50.554688 49 Z M 47.445313 40.445313 L 43.945313 40.445313 C 43.402344 38.78125 42.617188 37.207031 41.609375 35.777344 C 43.875 36.886719 45.863281 38.480469 47.445313 40.445313 Z M 41.609375 40.445313 L 36.167969 40.445313 L 36.167969 35 C 38.75 35.832031 40.777344 37.859375 41.609375 40.445313 Z M 34.222656 35 L 34.222656 40.832031 L 28.777344 40.832031 C 29.464844 38.082031 31.523438 35.875 34.222656 35 Z M 25.667969 37.722656 C 26.648438 36.988281 27.6875 36.335938 28.777344 35.777344 C 27.617188 37.257813 26.816406 38.988281 26.445313 40.832031 L 22.945313 40.832031 C 23.636719 39.625 24.5625 38.570313 25.667969 37.722656 Z M 19.832031 51.332031 L 24.890625 51.332031 C 24.980469 53.425781 25.238281 55.507813 25.667969 57.554688 L 21.390625 57.554688 C 20.550781 55.574219 20.027344 53.476563 19.832031 51.332031 Z M 22.945313 59.5 L 26.445313 59.5 L 28.777344 64.167969 C 26.433594 63.1875 24.414063 61.570313 22.945313 59.5 Z M 28.777344 59.5 L 33.832031 59.5 L 33.832031 65.332031 C 31.394531 64.195313 29.558594 62.074219 28.777344 59.5 Z M 36.167969 65.332031 L 36.167969 59.5 L 41.222656 59.5 C 40.710938 62.214844 38.78125 64.445313 36.167969 65.332031 Z M 44.722656 62.222656 C 43.695313 63.09375 42.507813 63.757813 41.222656 64.167969 C 42.304688 62.78125 43.097656 61.195313 43.554688 59.5 L 47.054688 59.5 C 46.625 60.652344 45.796875 61.617188 44.722656 62.222656 Z M 44.722656 62.222656 "/>
<path style=" stroke:none;fill-rule:nonzero;fill:rgb(90.196078%,90.196078%,90.196078%);fill-opacity:1;" d="M 19.832031 44.332031 C 15.347656 42.152344 12.167969 37.964844 11.277344 33.054688 C 11.335938 28.585938 13.5 24.40625 17.109375 21.777344 L 19.445313 19.832031 L 21.390625 22.167969 L 19.054688 24.109375 C 16.085938 25.925781 14.308594 29.1875 14.390625 32.667969 C 15.039063 36.648438 17.679688 40.023438 21.390625 41.609375 Z M 19.832031 44.332031 "/>
<path style=" stroke:none;fill-rule:nonzero;fill:rgb(94.901961%,94.901961%,94.901961%);fill-opacity:1;" d="M 24.890625 21 C 24.890625 23.363281 22.972656 25.277344 20.609375 25.277344 C 18.25 25.277344 16.332031 23.363281 16.332031 21 C 16.332031 18.636719 18.25 16.722656 20.609375 16.722656 C 22.972656 16.722656 24.890625 18.636719 24.890625 21 Z M 24.890625 21 "/>
<path style=" stroke:none;fill-rule:nonzero;fill:rgb(90.196078%,90.196078%,90.196078%);fill-opacity:1;" d="M 49.390625 44.332031 L 47.832031 41.609375 C 51.445313 39.902344 54.042969 36.585938 54.832031 32.667969 C 54.746094 29.230469 53.007813 26.046875 50.167969 24.109375 L 47.832031 22.554688 L 49.777344 20.222656 L 52.109375 21.777344 C 56.058594 24.105469 58.324219 28.488281 57.945313 33.054688 C 57.050781 37.964844 53.875 42.152344 49.390625 44.332031 Z M 49.390625 44.332031 "/>
<path style=" stroke:none;fill-rule:nonzero;fill:rgb(94.901961%,94.901961%,94.901961%);fill-opacity:1;" d="M 53.277344 21 C 53.277344 23.363281 51.363281 25.277344 49 25.277344 C 46.636719 25.277344 44.722656 23.363281 44.722656 21 C 44.722656 18.636719 46.636719 16.722656 49 16.722656 C 51.363281 16.722656 53.277344 18.636719 53.277344 21 Z M 53.277344 21 "/>
<path style=" stroke:none;fill-rule:nonzero;fill:rgb(80.784314%,45.490196%,71.372549%);fill-opacity:1;" d="M 24.890625 43.167969 C 24.890625 45.527344 22.972656 47.445313 20.609375 47.445313 C 18.25 47.445313 16.332031 45.527344 16.332031 43.167969 C 16.332031 40.804688 18.25 38.890625 20.609375 38.890625 C 22.972656 38.890625 24.890625 40.804688 24.890625 43.167969 Z M 24.890625 43.167969 "/>
<path style=" stroke:none;fill-rule:nonzero;fill:rgb(80.784314%,45.490196%,71.372549%);fill-opacity:1;" d="M 53.277344 43.167969 C 53.277344 45.527344 51.363281 47.445313 49 47.445313 C 46.636719 47.445313 44.722656 45.527344 44.722656 43.167969 C 44.722656 40.804688 46.636719 38.890625 49 38.890625 C 51.363281 38.890625 53.277344 40.804688 53.277344 43.167969 Z M 53.277344 43.167969 "/>
</g>
</svg>
