<?xml version="1.0" encoding="UTF-8"?>
<svg xmlns="http://www.w3.org/2000/svg" xmlns:xlink="http://www.w3.org/1999/xlink" width="70pt" height="70pt" viewBox="0 0 70 70" version="1.1">
<defs>
<linearGradient id="linear0" gradientUnits="userSpaceOnUse" x1="5.82" y1="25.68" x2="5.82" y2="14.64" gradientTransform="matrix(3.888889,0,0,3.927778,0,-44.372222)">
<stop offset="0" style="stop-color:rgb(36.862745%,58.823529%,14.117647%);stop-opacity:1;"/>
<stop offset="0.01" style="stop-color:rgb(37.254902%,59.215686%,14.117647%);stop-opacity:1;"/>
<stop offset="0.35" style="stop-color:rgb(42.352941%,67.058824%,16.078431%);stop-opacity:1;"/>
<stop offset="0.68" style="stop-color:rgb(45.098039%,72.156863%,17.254902%);stop-opacity:1;"/>
<stop offset="1" style="stop-color:rgb(46.27451%,73.72549%,17.647059%);stop-opacity:1;"/>
</linearGradient>
</defs>
<g id="surface1">
<path style=" stroke:none;fill-rule:nonzero;fill:rgb(0%,47.058824%,83.137255%);fill-opacity:1;" d="M 70 35.621094 L 61.753906 43.867188 C 61.648438 44.023438 61.449219 44.082031 61.273438 44.003906 C 61.101563 43.929688 61.011719 43.738281 61.054688 43.554688 L 61.054688 38.890625 C 61.035156 38.667969 60.851563 38.5 60.628906 38.5 L 47.015625 38.5 L 55.496094 46.667969 C 55.628906 46.785156 55.828125 46.785156 55.960938 46.667969 L 58.332031 44.253906 C 58.421875 44.152344 58.566406 44.121094 58.691406 44.171875 C 58.816406 44.226563 58.890625 44.355469 58.878906 44.488281 L 58.878906 53.003906 C 58.878906 53.261719 58.667969 53.472656 58.410156 53.472656 L 50.050781 53.472656 C 49.914063 53.484375 49.789063 53.410156 49.734375 53.285156 C 49.683594 53.160156 49.714844 53.015625 49.816406 52.929688 L 52.226563 50.554688 C 52.347656 50.421875 52.347656 50.222656 52.226563 50.089844 L 45.265625 42.777344 L 45.265625 27.882813 L 52.382813 20.804688 C 52.496094 20.6875 52.496094 20.496094 52.382813 20.378906 L 49.972656 18.003906 C 49.871094 17.917969 49.835938 17.773438 49.890625 17.648438 C 49.945313 17.523438 50.070313 17.449219 50.207031 17.460938 L 58.722656 17.460938 C 58.984375 17.480469 59.191406 17.703125 59.1875 17.964844 L 59.1875 26.25 C 59.203125 26.382813 59.125 26.511719 59 26.566406 C 58.878906 26.617188 58.734375 26.585938 58.644531 26.484375 L 56.273438 24.109375 C 56.140625 23.992188 55.9375 23.992188 55.804688 24.109375 L 47.132813 32.316406 L 60.472656 32.316406 C 60.707031 32.316406 60.898438 32.125 60.898438 31.890625 L 60.898438 27.222656 C 60.855469 27.039063 60.945313 26.847656 61.121094 26.773438 C 61.292969 26.695313 61.496094 26.753906 61.601563 26.910156 L 70 35 C 70.097656 35.074219 70.15625 35.1875 70.15625 35.3125 C 70.15625 35.433594 70.097656 35.546875 70 35.621094 Z M 70 35.621094 "/>
<path style=" stroke:none;fill-rule:nonzero;fill:url(#linear0);" d="M 2.253906 13.261719 L 43.011719 13.261719 C 44.257813 13.261719 45.265625 14.269531 45.265625 15.515625 L 45.265625 54.484375 C 45.265625 55.730469 44.257813 56.738281 43.011719 56.738281 L 2.253906 56.738281 C 1.011719 56.738281 0 55.730469 0 54.484375 L 0 15.515625 C 0 14.269531 1.011719 13.261719 2.253906 13.261719 Z M 2.253906 13.261719 "/>
<path style=" stroke:none;fill-rule:nonzero;fill:rgb(100%,100%,100%);fill-opacity:1;" d="M 9.957031 18.589844 L 18.316406 18.589844 C 18.941406 18.589844 19.445313 19.09375 19.445313 19.714844 L 19.445313 27.609375 C 19.445313 28.234375 18.941406 28.738281 18.316406 28.738281 L 9.957031 28.738281 C 9.332031 28.738281 8.828125 28.234375 8.828125 27.609375 L 8.828125 19.714844 C 8.828125 19.09375 9.332031 18.589844 9.957031 18.589844 Z M 9.957031 18.589844 "/>
<path style=" stroke:none;fill-rule:nonzero;fill:rgb(100%,100%,100%);fill-opacity:1;" d="M 28.039063 30.214844 L 36.398438 30.214844 C 37.023438 30.214844 37.527344 30.722656 37.527344 31.34375 L 37.527344 39.238281 C 37.527344 39.863281 37.023438 40.367188 36.398438 40.367188 L 28.039063 40.367188 C 27.417969 40.367188 26.910156 39.863281 26.910156 39.238281 L 26.910156 31.34375 C 26.910156 30.722656 27.417969 30.214844 28.039063 30.214844 Z M 28.039063 30.214844 "/>
<path style=" stroke:none;fill-rule:nonzero;fill:rgb(100%,100%,100%);fill-opacity:1;" d="M 9.957031 41.261719 L 18.316406 41.261719 C 18.941406 41.261719 19.445313 41.765625 19.445313 42.390625 L 19.445313 50.285156 C 19.445313 50.90625 18.941406 51.410156 18.316406 51.410156 L 9.957031 51.410156 C 9.332031 51.410156 8.828125 50.90625 8.828125 50.285156 L 8.828125 42.390625 C 8.828125 41.765625 9.332031 41.261719 9.957031 41.261719 Z M 9.957031 41.261719 "/>
</g>
</svg>
