<?xml version="1.0" encoding="UTF-8"?>
<svg xmlns="http://www.w3.org/2000/svg" xmlns:xlink="http://www.w3.org/1999/xlink" width="70pt" height="70pt" viewBox="0 0 70 70" version="1.1">
<defs>
<linearGradient id="linear0" gradientUnits="userSpaceOnUse" x1="9" y1="1.36" x2="9" y2="17.87" gradientTransform="matrix(3.888889,0,0,3.888889,0,0)">
<stop offset="0.18" style="stop-color:rgb(36.862745%,62.745098%,93.72549%);stop-opacity:1;"/>
<stop offset="1" style="stop-color:rgb(0%,47.058824%,83.137255%);stop-opacity:1;"/>
</linearGradient>
</defs>
<g id="surface1">
<path style=" stroke:none;fill-rule:nonzero;fill:rgb(0%,47.058824%,83.137255%);fill-opacity:1;" d="M 63.621094 32.667969 C 63.621094 51.488281 40.871094 66.65625 35.933594 69.726563 C 35.359375 70.078125 34.640625 70.078125 34.066406 69.726563 C 29.128906 66.65625 6.378906 51.488281 6.378906 32.667969 L 6.378906 10.035156 C 6.378906 9.058594 7.15625 8.265625 8.128906 8.246094 C 25.820313 7.777344 21.738281 0 35 0 C 48.261719 0 44.179688 7.777344 61.871094 8.246094 C 62.84375 8.265625 63.621094 9.058594 63.621094 10.035156 Z M 63.621094 32.667969 "/>
<path style=" stroke:none;fill-rule:nonzero;fill:url(#linear0);" d="M 61.25 32.859375 C 61.25 50.128906 40.40625 63.972656 35.855469 66.851563 C 35.328125 67.164063 34.671875 67.164063 34.144531 66.851563 C 29.59375 64.050781 8.75 50.128906 8.75 32.859375 L 8.75 12.09375 C 8.75 11.207031 9.457031 10.480469 10.34375 10.460938 C 26.5625 10.035156 22.828125 2.917969 35 2.917969 C 47.171875 2.917969 43.4375 10.035156 59.65625 10.460938 C 60.542969 10.480469 61.25 11.207031 61.25 12.09375 Z M 61.25 32.859375 "/>
<path style=" stroke:none;fill-rule:nonzero;fill:rgb(90.196078%,90.196078%,90.196078%);fill-opacity:1;" d="M 45.890625 48.6875 C 45.890625 49.71875 45.054688 50.554688 44.023438 50.554688 L 25.976563 50.554688 C 24.945313 50.554688 24.109375 49.71875 24.109375 48.6875 L 24.109375 15.320313 C 24.101563 14.820313 24.292969 14.335938 24.644531 13.976563 C 24.996094 13.617188 25.476563 13.417969 25.976563 13.417969 L 44.023438 13.417969 C 44.523438 13.417969 45.003906 13.617188 45.355469 13.976563 C 45.707031 14.335938 45.898438 14.820313 45.890625 15.320313 Z M 45.890625 48.6875 "/>
<path style=" stroke:none;fill-rule:nonzero;fill:rgb(0%,18.823529%,40.392157%);fill-opacity:1;" d="M 27.222656 19.445313 C 27.222656 18.15625 28.265625 17.109375 29.554688 17.109375 L 40.445313 17.109375 C 41.734375 17.109375 42.777344 18.15625 42.777344 19.445313 C 42.789063 20.070313 42.546875 20.671875 42.109375 21.121094 C 41.667969 21.566406 41.070313 21.816406 40.445313 21.816406 L 29.554688 21.816406 C 28.929688 21.816406 28.332031 21.566406 27.890625 21.121094 C 27.453125 20.671875 27.210938 20.070313 27.222656 19.445313 Z M 27.222656 19.445313 "/>
<path style=" stroke:none;fill-rule:nonzero;fill:rgb(31.372549%,90.196078%,100%);fill-opacity:1;" d="M 31.265625 19.40625 C 31.265625 20.285156 30.554688 21 29.671875 21 C 28.792969 21 28.078125 20.285156 28.078125 19.40625 C 28.078125 18.523438 28.792969 17.8125 29.671875 17.8125 C 30.554688 17.8125 31.265625 18.523438 31.265625 19.40625 Z M 31.265625 19.40625 "/>
<path style=" stroke:none;fill-rule:nonzero;fill:rgb(0%,18.823529%,40.392157%);fill-opacity:1;" d="M 27.222656 26.832031 C 27.222656 25.539063 28.261719 24.480469 29.554688 24.460938 L 40.445313 24.460938 C 41.738281 24.480469 42.777344 25.539063 42.777344 26.832031 C 42.789063 27.457031 42.546875 28.0625 42.109375 28.507813 C 41.667969 28.953125 41.070313 29.207031 40.445313 29.207031 L 29.554688 29.207031 C 28.929688 29.207031 28.332031 28.953125 27.890625 28.507813 C 27.453125 28.0625 27.210938 27.457031 27.222656 26.832031 Z M 27.222656 26.832031 "/>
<path style=" stroke:none;fill-rule:nonzero;fill:rgb(31.372549%,90.196078%,100%);fill-opacity:1;" d="M 31.265625 26.832031 C 31.265625 27.714844 30.554688 28.429688 29.671875 28.429688 C 28.792969 28.429688 28.078125 27.714844 28.078125 26.832031 C 28.078125 25.953125 28.792969 25.238281 29.671875 25.238281 C 30.554688 25.238281 31.265625 25.953125 31.265625 26.832031 Z M 31.265625 26.832031 "/>
</g>
</svg>
