<?xml version="1.0" encoding="utf-8"?><svg version="1.1" xmlns="http://www.w3.org/2000/svg" xmlns:xlink="http://www.w3.org/1999/xlink" xmlns:xml="http://www.w3.org/XML/1998/namespace" width="70" height="70" viewBox="0, 0, 18, 18" id="a1606a52-fb14-4637-87de-4d524bba1829"><defs><linearGradient x1="9.88" y1="8.59" x2="11.52" y2="10.23" gradientUnits="userSpaceOnUse" gradientTransform="translate(2.03, -0.4) rotate(-0.08, 0, 0)" id="f020fb7e-2243-4501-8153-5d69bd3c34f7"><stop offset="0%" stop-color="#86D633" /><stop offset="100%" stop-color="#5E9624" /></linearGradient><linearGradient x1="6.18" y1="8.59" x2="7.81" y2="10.23" gradientUnits="userSpaceOnUse" id="b3c2bc94-8c7c-48a2-9719-6ee899a43a97"><stop offset="0%" stop-color="#86D633" /><stop offset="100%" stop-color="#5E9624" /></linearGradient><linearGradient x1="2.48" y1="8.59" x2="4.11" y2="10.23" gradientUnits="userSpaceOnUse" id="e900c35d-0958-4d4f-b28f-302eeaaf52f5"><stop offset="0%" stop-color="#86D633" /><stop offset="100%" stop-color="#5E9624" /></linearGradient></defs><title>Icon-networking-61</title><circle cx="12.74" cy="8.99" r="1.16" style="fill:url(#f020fb7e-2243-4501-8153-5d69bd3c34f7);" /><circle cx="9.04" cy="9" r="1.16" style="fill:url(#b3c2bc94-8c7c-48a2-9719-6ee899a43a97);" /><circle cx="5.34" cy="9" r="1.16" style="fill:url(#e900c35d-0958-4d4f-b28f-302eeaaf52f5);" /><path d="M2.61 7.28 h0.94 a0.3 0.3 0 0 1 0.3 0.3 v6.94 a0.6 0.6 0 0 1 -0.6 0.6 H2.31 a0 0 0 0 1 0 0 V7.58 a0.3 0.3 0 0 1 0.3 -0.3 Z" transform="translate(13.18, 16.93) rotate(134.92, 0, 0)" style="fill:#50E6FF;" /><path d="M2.56 2.91 H3.5 a0.3 0.3 0 0 1 0.3 0.3 v7.43 a0 0 0 0 1 0 0 H2.86 a0.6 0.6 0 0 1 -0.6 -0.6 V3.21 a0.3 0.3 0 0 1 0.3 -0.3 Z" transform="translate(5.66, -0.16) rotate(44.92, 0, 0)" style="fill:#1490DF;" /><path d="M14.15 7.28 h0.94 a0.6 0.6 0 0 1 0.6 0.6 v6.94 a0.3 0.3 0 0 1 -0.3 0.3 h-0.94 a0.3 0.3 0 0 1 -0.3 -0.3 V7.28 a0 0 0 0 1 0 0 Z" transform="translate(12.32, -7.28) rotate(45.08, 0, 0)" style="fill:#50E6FF;" /><path d="M14.81 2.91 h0.94 a0 0 0 0 1 0 0 v7.43 a0.3 0.3 0 0 1 -0.3 0.3 H14.5 a0.3 0.3 0 0 1 -0.3 -0.3 V3.51 a0.6 0.6 0 0 1 0.6 -0.6 Z" transform="translate(30.36, 0.99) rotate(135.08, 0, 0)" style="fill:#1490DF;" /></svg>