<?xml version="1.0" encoding="UTF-8"?>
<svg xmlns="http://www.w3.org/2000/svg" xmlns:xlink="http://www.w3.org/1999/xlink" width="70pt" height="70pt" viewBox="0 0 70 70" version="1.1">
<defs>
<filter id="alpha" filterUnits="objectBoundingBox" x="0%" y="0%" width="100%" height="100%">
  <feColorMatrix type="matrix" in="SourceGraphic" values="0 0 0 0 1 0 0 0 0 1 0 0 0 0 1 0 0 0 1 0"/>
</filter>
<mask id="mask0">
  <g filter="url(#alpha)">
<rect x="0" y="0" width="70" height="70" style="fill:rgb(0,0,0);fill-opacity:0.14902;stroke:none;"/>
  </g>
</mask>
<clipPath id="clip1">
  <rect x="0" y="0" width="70" height="70"/>
</clipPath>
<g id="surface5" clip-path="url(#clip1)">
<path style=" stroke:none;fill-rule:nonzero;fill:rgb(255,255,255);fill-opacity:1;" d="M 39.621094 1.960938 C 38.359375 0.699219 36.679688 0 35 0 C 33.320313 0 31.640625 0.699219 30.378906 1.960938 L 1.960938 30.378906 C 0.699219 31.640625 0 33.320313 0 35 C 0 36.679688 0.699219 38.359375 1.960938 39.621094 L 18.058594 55.71875 L 48.441406 10.78125 Z M 39.621094 1.960938 "/>
</g>
</defs>
<g id="surface1">
<path style=" stroke:none;fill-rule:nonzero;fill:rgb(39,163,255);fill-opacity:1;" d="M 35 70 C 33.320313 70 31.640625 69.300781 30.378906 68.039063 L 1.960938 39.621094 C 0.699219 38.359375 0 36.679688 0 35 C 0 33.320313 0.699219 31.640625 1.960938 30.378906 L 30.378906 1.960938 C 31.640625 0.699219 33.320313 0 35 0 C 36.679688 0 38.359375 0.699219 39.621094 1.960938 L 68.179688 30.519531 C 69.441406 31.78125 70.140625 33.320313 70.140625 35.140625 C 70.140625 36.820313 69.441406 38.5 68.179688 39.761719 L 39.621094 68.039063 C 38.359375 69.300781 36.679688 70 35 70 "/>
<path style=" stroke:none;fill-rule:nonzero;fill:rgb(255,255,255);fill-opacity:1;" d="M 41.632813 26.019531 C 39.753906 27.460938 37.449219 28.242188 35.082031 28.242188 C 31.714844 28.246094 28.542969 26.679688 26.496094 24.007813 C 24.753906 21.734375 23.988281 18.863281 24.367188 16.023438 C 24.742188 13.183594 26.234375 10.609375 28.507813 8.871094 C 30.386719 7.425781 32.691406 6.644531 35.058594 6.648438 C 38.425781 6.644531 41.601563 8.210938 43.644531 10.886719 C 47.269531 15.617188 46.367188 22.394531 41.632813 26.019531 "/>
<use xlink:href="#surface5" mask="url(#mask0)"/>
<path style=" stroke:none;fill-rule:nonzero;fill:rgb(255,255,255);fill-opacity:1;" d="M 35 63.839844 L 44.238281 54.601563 L 37.660156 54.601563 L 37.660156 26.808594 L 32.199219 26.808594 L 32.199219 54.601563 L 25.761719 54.601563 Z M 35 63.839844 "/>
<path style=" stroke:none;fill-rule:nonzero;fill:rgb(255,255,255);fill-opacity:1;" d="M 55.0625 46.871094 L 55.0625 33.804688 L 50.507813 38.359375 L 38.6875 26.535156 L 34.726563 30.496094 L 46.546875 42.316406 L 41.996094 46.871094 Z M 55.0625 46.871094 "/>
<path style=" stroke:none;fill-rule:nonzero;fill:rgb(255,255,255);fill-opacity:1;" d="M 14.960938 46.921875 L 28.023438 46.921875 L 23.472656 42.367188 L 35.625 30.214844 L 31.664063 26.253906 L 19.511719 38.40625 L 14.960938 33.855469 Z M 14.960938 46.921875 "/>
<path style=" stroke:none;fill-rule:nonzero;fill:rgb(57,171,255);fill-opacity:1;" d="M 40.761719 24.878906 C 39.132813 26.128906 37.132813 26.808594 35.078125 26.808594 C 32.160156 26.8125 29.410156 25.457031 27.636719 23.136719 C 26.125 21.164063 25.460938 18.675781 25.789063 16.210938 C 26.117188 13.75 27.410156 11.519531 29.382813 10.011719 C 31.007813 8.757813 33.007813 8.078125 35.0625 8.082031 C 37.980469 8.078125 40.734375 9.4375 42.503906 11.757813 C 44.015625 13.726563 44.679688 16.21875 44.351563 18.679688 C 44.027344 21.140625 42.734375 23.371094 40.761719 24.878906 "/>
<path style=" stroke:none;fill-rule:nonzero;fill:rgb(255,255,255);fill-opacity:1;" d="M 39.039063 19.089844 C 39.71875 19.972656 40.980469 20.140625 41.867188 19.464844 C 41.910156 19.429688 41.945313 19.386719 41.988281 19.347656 C 42.890625 19.984375 43.519531 20.40625 43.871094 20.644531 C 43.976563 20.375 44.046875 20.113281 44.121094 19.84375 C 43.578125 19.433594 43.039063 19.015625 42.515625 18.585938 C 42.765625 17.933594 42.660156 17.203125 42.242188 16.648438 C 41.625 15.847656 40.515625 15.628906 39.640625 16.132813 C 38.582031 15.179688 37.546875 14.203125 36.535156 13.199219 C 39.96875 11.351563 42.40625 11.621094 42.40625 11.621094 C 42.007813 11.113281 41.554688 10.652344 41.054688 10.238281 C 39.609375 10.011719 37.359375 10.039063 34.789063 11.40625 L 34.789063 11.402344 C 33.890625 10.464844 33.019531 9.5 32.171875 8.515625 C 31.75 8.652344 31.332031 8.820313 30.933594 9.019531 C 31.589844 10.089844 32.46875 11.171875 33.460938 12.226563 L 33.46875 12.234375 C 32.53125 12.898438 31.660156 13.652344 30.867188 14.488281 C 30.761719 14.601563 30.65625 14.71875 30.554688 14.835938 C 30.039063 14.726563 29.503906 14.761719 29.011719 14.941406 C 28.164063 13.109375 28.230469 11.640625 28.367188 10.882813 C 27.996094 11.261719 27.660156 11.671875 27.355469 12.105469 C 27.136719 13.011719 27.074219 14.316406 27.726563 15.886719 C 26.878906 16.996094 26.96875 18.554688 27.9375 19.558594 C 27.625 20.628906 27.441406 21.730469 27.386719 22.839844 C 27.476563 22.960938 27.476563 23.058594 27.566406 23.175781 C 28.015625 23.753906 28.578125 24.238281 29.121094 24.679688 C 29.035156 23.226563 29.253906 21.777344 29.765625 20.417969 C 30.203125 20.453125 30.652344 20.382813 31.070313 20.207031 C 32.117188 21.15625 33.292969 21.957031 34.558594 22.585938 C 34.507813 23.054688 34.636719 23.527344 34.921875 23.902344 C 35.550781 24.71875 36.71875 24.871094 37.535156 24.246094 C 37.703125 24.117188 37.839844 23.960938 37.949219 23.792969 C 39.40625 24.117188 40.679688 24.175781 41.625 24.175781 C 41.769531 24.175781 42.4375 23.261719 42.824219 22.695313 C 42.25 22.816406 40.542969 23.050781 38.214844 22.382813 C 38.160156 22.113281 38.046875 21.859375 37.878906 21.640625 C 37.289063 20.871094 36.210938 20.6875 35.402344 21.214844 C 34.316406 20.625 33.296875 19.921875 32.359375 19.117188 C 32.898438 18.261719 32.945313 17.183594 32.480469 16.289063 C 32.585938 16.179688 32.691406 16.074219 32.804688 15.96875 C 33.566406 15.246094 34.382813 14.585938 35.246094 13.992188 C 35.214844 13.964844 35.1875 13.933594 35.15625 13.90625 L 35.246094 13.988281 C 36.414063 15.070313 37.65625 16.097656 38.828125 17.011719 C 38.503906 17.6875 38.585938 18.492188 39.039063 19.089844 Z M 39.039063 19.089844 "/>
</g>
</svg>
