<?xml version="1.0" encoding="UTF-8"?>
<svg xmlns="http://www.w3.org/2000/svg" xmlns:xlink="http://www.w3.org/1999/xlink" width="70pt" height="61pt" viewBox="0 0 70 61" version="1.1">
<defs>
<filter id="alpha" filterUnits="objectBoundingBox" x="0%" y="0%" width="100%" height="100%">
  <feColorMatrix type="matrix" in="SourceGraphic" values="0 0 0 0 1 0 0 0 0 1 0 0 0 0 1 0 0 0 1 0"/>
</filter>
<mask id="mask0">
  <g filter="url(#alpha)">
<rect x="0" y="0" width="70" height="61" style="fill:rgb(0%,0%,0%);fill-opacity:0.4;stroke:none;"/>
  </g>
</mask>
<clipPath id="clip1">
  <rect x="0" y="0" width="70" height="62"/>
</clipPath>
<g id="surface5" clip-path="url(#clip1)">
<path style=" stroke:none;fill-rule:nonzero;fill:rgb(100%,100%,100%);fill-opacity:1;" d="M 48.773438 20.445313 L 35.222656 12.558594 C 35.222656 12.558594 34.648438 12.265625 34.390625 12.265625 C 33.105469 12.265625 32.058594 12.339844 32.058594 14.75 L 32.058594 22.042969 L 46.058594 22.042969 L 46.058594 49.769531 L 50.261719 49.769531 L 50.261719 22.628906 C 50.261719 21.65625 49.667969 20.792969 48.773438 20.445313 Z M 48.773438 20.445313 "/>
</g>
</defs>
<g id="surface1">
<path style=" stroke:none;fill-rule:nonzero;fill:rgb(34.901961%,70.588235%,85.098039%);fill-opacity:1;" d="M 63.054688 26.339844 C 63.773438 24.558594 64.140625 22.65625 64.140625 20.738281 C 64.140625 12.339844 57.277344 5.53125 48.804688 5.53125 C 46.449219 5.53125 44.226563 6.074219 42.230469 7.011719 C 38.917969 2.753906 33.734375 0 27.886719 0 C 17.875 0 9.761719 8.046875 9.761719 17.972656 C 9.761719 18.777344 9.832031 19.566406 9.9375 20.34375 C 4.132813 22.511719 0 28.050781 0 34.5625 C 0 42.960938 6.867188 49.769531 15.339844 49.769531 L 57.171875 49.769531 C 64.101563 49.769531 69.71875 44.199219 69.71875 37.328125 C 69.722656 32.726563 67.15625 28.5 63.054688 26.339844 Z M 63.054688 26.339844 "/>
<path style=" stroke:none;fill-rule:nonzero;fill:rgb(100%,100%,100%);fill-opacity:1;" d="M 25.058594 22.042969 L 44.660156 22.042969 L 44.660156 49.839844 L 25.058594 49.839844 Z M 25.058594 22.042969 "/>
<use xlink:href="#surface5" mask="url(#mask0)"/>
<path style=" stroke:none;fill-rule:nonzero;fill:rgb(0%,44.705882%,77.647059%);fill-opacity:1;" d="M 48.222656 20.332031 L 34.6875 12.453125 C 34.085938 12.246094 33.460938 12.707031 33.460938 13.363281 L 33.460938 59.902344 C 33.460938 60.554688 34.085938 61.015625 34.6875 60.808594 L 48.222656 52.929688 C 48.609375 52.792969 48.863281 52.429688 48.859375 52.023438 L 48.859375 21.242188 C 48.863281 20.835938 48.609375 20.472656 48.222656 20.332031 Z M 48.222656 20.332031 "/>
</g>
</svg>
