<?xml version="1.0" encoding="UTF-8"?>
<svg xmlns="http://www.w3.org/2000/svg" xmlns:xlink="http://www.w3.org/1999/xlink" width="70pt" height="70pt" viewBox="0 0 70 70" version="1.1">
<g id="surface1">
<path style=" stroke:none;fill-rule:nonzero;fill:rgb(47.843137%,47.843137%,47.843137%);fill-opacity:1;" d="M 33.601563 9.941406 L 37.800781 9.941406 L 37.800781 47.460938 L 33.601563 47.460938 Z M 33.601563 9.941406 "/>
<path style=" stroke:none;fill-rule:nonzero;fill:rgb(34.117647%,63.921569%,0%);fill-opacity:1;" d="M 43.261719 46.898438 C 43.261719 51.003906 39.804688 54.460938 35.699219 54.460938 C 31.597656 54.460938 28.140625 51.003906 28.140625 46.898438 C 28.140625 42.796875 31.597656 39.339844 35.699219 39.339844 C 39.804688 39.339844 43.261719 42.796875 43.261719 46.898438 Z M 43.261719 46.898438 "/>
<path style=" stroke:none;fill-rule:nonzero;fill:rgb(22.352941%,60%,77.647059%);fill-opacity:1;" d="M 41.859375 9.101563 C 41.859375 12.445313 39.042969 15.261719 35.699219 15.261719 C 32.355469 15.261719 29.539063 12.445313 29.539063 9.101563 C 29.539063 5.753906 32.355469 2.941406 35.699219 2.941406 C 39.042969 2.941406 41.859375 5.753906 41.859375 9.101563 Z M 50.433594 65.792969 C 49.917969 65.800781 49.425781 65.597656 49.058594 65.238281 C 48.25 64.429688 48.25 63.117188 49.058594 62.308594 L 63.847656 47.515625 C 64.074219 47.292969 64.203125 46.988281 64.203125 46.667969 C 64.203125 46.347656 64.074219 46.042969 63.847656 45.816406 L 49.3125 31.542969 C 48.917969 31.214844 48.675781 30.734375 48.65625 30.21875 C 48.628906 29.644531 48.867188 29.058594 49.3125 28.609375 C 49.730469 28.171875 50.324219 27.949219 50.929688 28.003906 C 51.445313 28.003906 51.941406 28.222656 52.328125 28.609375 L 66.210938 42.105469 L 69.304688 45.199219 C 69.929688 45.980469 70.152344 47.28125 69.304688 48.128906 L 65.960938 51.472656 L 52.070313 65.238281 C 51.6875 65.601563 51.175781 65.804688 50.648438 65.800781 L 50.652344 65.800781 Z M 20.761719 65.792969 C 20.234375 65.800781 19.726563 65.601563 19.34375 65.238281 L 5.195313 51.605469 L 2.09375 48.109375 C 1.257813 47.277344 1.464844 46.011719 2.078125 45.238281 L 5.195313 42.113281 L 19.089844 28.605469 C 19.507813 28.171875 20.101563 27.949219 20.703125 28.003906 C 21.214844 28.003906 21.707031 28.222656 22.097656 28.609375 C 22.542969 29.054688 22.78125 29.640625 22.753906 30.21875 C 22.726563 30.746094 22.476563 31.234375 22.070313 31.570313 L 7.824219 45.816406 C 7.597656 46.039063 7.46875 46.347656 7.46875 46.667969 C 7.46875 46.984375 7.59375 47.292969 7.824219 47.515625 L 22.359375 62.308594 C 23.164063 63.117188 23.160156 64.421875 22.359375 65.234375 C 21.992188 65.597656 21.503906 65.796875 20.976563 65.800781 Z M 20.761719 65.792969 "/>
</g>
</svg>
