<?xml version="1.0" encoding="utf-8"?><svg version="1.1" xmlns="http://www.w3.org/2000/svg" xmlns:xlink="http://www.w3.org/1999/xlink" xmlns:xml="http://www.w3.org/XML/1998/namespace" width="70" height="70" viewBox="0, 0, 18, 18" id="FxSymbol0-069" class="" role="presentation" focusable="false" data-type="1"><g><path d="M9.031 7.7 A1.305 1.305 0 1 0 10.338 9 a1.305 1.305 0 0 0 -1.307 -1.3 z" style="fill:url(#40fd3475-21aa-4a8a-956c-13a617e350c6);" /><path d="M6.34 13.375 l-0.626 0.629 a0.284 0.284 0 0 1 -0.402 0 L0.673 9.38 a0.568 0.568 0 0 1 0 -0.804 l0.626 -0.629 l5.04 5.027 a0.284 0.284 0 0 1 0.002 0.402 z" style="fill:#77C5FF;" /><path d="M5.62 3.996 l0.627 0.626 a0.284 0.284 0 0 1 0 0.402 L1.295 9.99 l-0.626 -0.624 a0.568 0.568 0 0 1 0 -0.803 L5.22 3.999 a0.284 0.284 0 0 1 0.401 0 z" style="fill:#0084E6;" /><path d="M16.702 7.947 l0.627 0.629 a0.568 0.568 0 0 1 -0.001 0.803 l-4.639 4.626 a0.284 0.284 0 0 1 -0.402 0 l-0.627 -0.63 a0.284 0.284 0 0 1 0.001 -0.401 l5.041 -5.027 z" style="fill:#77C5FF;" /><path d="M17.333 9.364 l-0.629 0.627 l-4.953 -4.967 a0.284 0.284 0 0 1 0 -0.402 l0.628 -0.626 a0.284 0.284 0 0 1 0.402 0 l4.552 4.566 a0.568 0.568 0 0 1 0 0.803 z" style="fill:#0084E6;" /></g><defs><linearGradient x1="9.033" y1="10.305" x2="9.033" y2="7.695" gradientUnits="userSpaceOnUse" id="40fd3475-21aa-4a8a-956c-13a617e350c6"><stop offset="0%" stop-color="#008AF0" /><stop offset="24.1%" stop-color="#1B9EFF" /><stop offset="50.1%" stop-color="#3DACFF" /><stop offset="75.6%" stop-color="#51B5FF" /><stop offset="100%" stop-color="#59B8FF" /></linearGradient></defs></svg>