<?xml version="1.0" encoding="UTF-8"?>
<svg xmlns="http://www.w3.org/2000/svg" xmlns:xlink="http://www.w3.org/1999/xlink" width="70pt" height="70pt" viewBox="0 0 70 70" version="1.1">
<g id="surface1">
<path style=" stroke:none;fill-rule:nonzero;fill:rgb(255,255,255);fill-opacity:1;" d="M 49.699219 65.800781 C 46.570313 65.800781 43.398438 63.394531 43.398438 58.800781 C 43.382813 56.726563 44.15625 54.722656 45.566406 53.199219 L 14 53.199219 L 14 13.859375 C 13.933594 10.871094 15.089844 7.980469 17.207031 5.867188 C 19.320313 3.75 22.210938 2.59375 25.199219 2.660156 L 61.058594 2.660156 L 58.667969 5.050781 C 56.980469 7.152344 56.039063 9.761719 56 12.460938 L 56 57.398438 C 56 61.273438 54.347656 65.800781 49.699219 65.800781 Z M 49.699219 65.800781 "/>
<path style=" stroke:none;fill-rule:nonzero;fill:rgb(0,0,0);fill-opacity:1;" d="M 60.199219 1.398438 L 26.601563 1.398438 C 18.199219 1.398438 12.601563 6.859375 12.601563 15.261719 L 12.601563 51.800781 L 10.5 51.800781 C 6.246094 51.800781 2.800781 55.246094 2.800781 59.5 C 2.800781 63.753906 6.246094 67.199219 10.5 67.199219 L 50.398438 67.199219 C 56 67.199219 57.398438 61.601563 57.398438 58.800781 L 57.398438 12.460938 L 66.640625 12.460938 C 66.984375 11.421875 67.175781 10.335938 67.199219 9.238281 C 67.199219 4.898438 64.121094 1.398438 60.199219 1.398438 Z M 54.601563 12.460938 L 54.601563 58.800781 C 54.601563 61.601563 53.898438 64.398438 49.699219 64.398438 C 47.320313 64.398438 44.800781 62.578125 44.800781 58.800781 C 44.816406 55.480469 47.148438 52.621094 50.398438 51.941406 L 50.398438 51.800781 L 15.398438 51.800781 L 15.398438 13.859375 C 15.335938 11.242188 16.347656 8.710938 18.199219 6.859375 C 20.050781 5.007813 22.582031 3.996094 25.199219 4.058594 L 57.679688 4.058594 C 55.726563 6.425781 54.640625 9.390625 54.601563 12.460938 Z M 54.601563 12.460938 "/>
<path style=" stroke:none;fill-rule:nonzero;fill:rgb(39,163,255);fill-opacity:1;" d="M 29.398438 25.199219 C 29.398438 26.746094 28.144531 28 26.601563 28 C 25.054688 28 23.800781 26.746094 23.800781 25.199219 C 23.800781 23.652344 25.054688 22.398438 26.601563 22.398438 C 28.144531 22.398438 29.398438 23.652344 29.398438 25.199219 Z M 43.398438 22.398438 C 41.855469 22.398438 40.601563 23.652344 40.601563 25.199219 C 40.601563 26.746094 41.855469 28 43.398438 28 C 44.945313 28 46.199219 26.746094 46.199219 25.199219 C 46.199219 23.652344 44.945313 22.398438 43.398438 22.398438 Z M 36.050781 41.507813 L 36.050781 27.789063 C 37.292969 27.285156 38.003906 25.972656 37.75 24.65625 C 37.492188 23.339844 36.339844 22.390625 35 22.390625 C 33.660156 22.390625 32.507813 23.339844 32.25 24.65625 C 31.996094 25.972656 32.707031 27.285156 33.949219 27.789063 L 33.949219 41.507813 C 32.707031 42.011719 31.996094 43.320313 32.25 44.636719 C 32.507813 45.953125 33.660156 46.902344 35 46.902344 C 36.339844 46.902344 37.492188 45.953125 37.75 44.636719 C 38.003906 43.320313 37.292969 42.011719 36.050781 41.507813 Z M 36.050781 41.507813 "/>
<path style=" stroke:none;fill-rule:nonzero;fill:rgb(57,171,255);fill-opacity:1;" d="M 28 36.398438 C 27.628906 36.398438 27.273438 36.253906 27.011719 35.988281 L 17.210938 26.191406 C 16.664063 25.644531 16.664063 24.757813 17.210938 24.210938 L 27.011719 14.410156 C 27.558594 13.878906 28.433594 13.886719 28.972656 14.425781 C 29.511719 14.96875 29.519531 15.839844 28.988281 16.390625 L 20.179688 25.199219 L 28.988281 34.011719 C 29.390625 34.410156 29.511719 35.011719 29.292969 35.535156 C 29.078125 36.058594 28.566406 36.398438 28 36.398438 Z M 42.988281 35.988281 L 52.789063 26.191406 C 53.335938 25.644531 53.335938 24.757813 52.789063 24.210938 L 42.988281 14.410156 C 42.441406 13.878906 41.566406 13.886719 41.027344 14.425781 C 40.488281 14.96875 40.480469 15.839844 41.011719 16.390625 L 49.820313 25.199219 L 41.011719 34.011719 C 40.644531 34.363281 40.5 34.882813 40.628906 35.371094 C 40.757813 35.859375 41.140625 36.242188 41.628906 36.371094 C 42.117188 36.5 42.636719 36.355469 42.988281 35.988281 Z M 42.988281 35.988281 "/>
</g>
</svg>
