<?xml version="1.0" encoding="utf-8"?><svg version="1.1" xmlns="http://www.w3.org/2000/svg" xmlns:xlink="http://www.w3.org/1999/xlink" xmlns:xml="http://www.w3.org/XML/1998/namespace" width="70" height="70" viewBox="0, 0, 18, 18" id="bc5816c9-c40c-4700-a3cd-6054b6abe2f7"><defs><radialGradient cx="15013.28" cy="4584.191" r="56.626" gradientUnits="userSpaceOnUse" gradientTransform="translate(-2243.333, -678.832) scale(0.15)" id="bb8edb14-0b70-46fb-997d-f3a277915c9b"><stop offset="18.3%" stop-color="#5EA0EF" /><stop offset="100%" stop-color="#0078D4" /></radialGradient><linearGradient x1="4.022" y1="171.297" x2="3.991" y2="167.338" gradientUnits="userSpaceOnUse" gradientTransform="translate(0, -160)" id="a6f3c115-b661-478c-8384-79eca0b050eb"><stop offset="0%" stop-color="#CCCCCC" /><stop offset="12.3%" stop-color="#D7D7D7" /><stop offset="42.1%" stop-color="#EBEBEB" /><stop offset="71.6%" stop-color="#F8F8F8" /><stop offset="100%" stop-color="#FCFCFC" /></linearGradient></defs><title>Icon-362Artboard 1</title><path d="M13.9 15.5 A8.512 8.512 0 0 1 3.4 2.1 L3.5 2 A8.521 8.521 0 0 1 13.9 15.5" id="a365ed42-c10c-4d6b-b8da-5311b6818174" style="fill:url(#bb8edb14-0b70-46fb-997d-f3a277915c9b);" /><path d="M2.1 10.5 a25.824 25.824 0 0 0 -0.8 2.6 l0.6 0.9 l0.6 0.6 a14.249 14.249 0 0 1 1.1 -3.5 A2.529 2.529 0 0 1 2.1 10.5 Z" style="fill:#83B9F9;" /><path d="M3.1 5.9 A13.655 13.655 0 0 1 2.4 3 A7.551 7.551 0 0 0 1.3 4.4 a10.548 10.548 0 0 0 0.6 2.4 A2.73 2.73 0 0 1 3.1 5.9 Z" style="fill:#83B9F9;" /><circle cx="4" cy="8.5" r="2.7" style="fill:url(#a6f3c115-b661-478c-8384-79eca0b050eb);" /><path d="M8 13.5 a2.106 2.106 0 0 1 0.5 -1.3 A9.2 9.2 0 0 1 6 10.3 a2.751 2.751 0 0 1 -1.5 0.8 A19.2 19.2 0 0 0 6 12.5 a8.175 8.175 0 0 0 2 1.2 Z" style="fill:#83B9F9;" /><path d="M14.3 13.7 a13.329 13.329 0 0 1 -2.8 -0.3 v0.1 a1.656 1.656 0 0 1 -0.5 1.2 a12.967 12.967 0 0 0 3.4 0.2 c0.4 -0.4 0.8 -0.9 1.2 -1.3 A5.283 5.283 0 0 1 14.3 13.7 Z" style="fill:#83B9F9;" /><circle cx="9.8" cy="13.5" r="1.8" style="fill:none;" /><path d="M9.3 4.9 a13.468 13.468 0 0 1 5.9 -1.4 a6.73 6.73 0 0 0 -1.5 -1.4 A15.335 15.335 0 0 0 9 3.2 a9.25 9.25 0 0 0 -1 0.5 A18.723 18.723 0 0 1 6 0.8 a1.9 1.9 0 0 0 -0.9 0.3 A21.123 21.123 0 0 0 7.2 4.2 A9.841 9.841 0 0 0 5 5.9 A2.85 2.85 0 0 1 6.3 7 A8.961 8.961 0 0 1 8.2 5.5 a22.363 22.363 0 0 0 3.7 3.2 a2.075 2.075 0 0 1 0.6 -1 A27.892 27.892 0 0 1 9.3 4.9 Z" style="fill:#83B9F9;" /><circle cx="13.8" cy="9.1" r="1.9" style="fill:#F2F2F2;" /><path d="M17 10.4 c-0.1 -0.1 -0.2 -0.1 -0.3 -0.2 h0 c-0.1 -0.1 -0.2 -0.1 -0.3 -0.2 h-0.1 L16 9.8 h-0.1 l-0.3 -0.2 a1.456 1.456 0 0 1 -0.6 0.9 c0.1 0.1 0.2 0.1 0.4 0.2 h0.1 c0.1 0.1 0.2 0.1 0.3 0.2 h0 c0.3 0.2 0.6 0.3 0.9 0.5 h0 c0.1 -0.3 0.2 -0.7 0.3 -1 Z" style="fill:#83B9F9;" /><circle cx="4" cy="8.5" r="2.7" style="fill:#F2F2F2;" /><circle cx="9.8" cy="13.5" r="1.8" style="fill:#F2F2F2;" /><path d="M5.2 10.5 H17.3 c0.2 0 0.5 0.2 0.5 0.4 v6.4 a0.536 0.536 0 0 1 -0.5 0.5 H5.2 a0.458 0.458 0 0 1 -0.4 -0.5 V11 A0.458 0.458 0 0 1 5.2 10.5 Z" style="fill:#821010;" /><rect x="5.3" y="11.3" width="3.6" height="1.6" style="fill:#E62323;" /><rect x="9.5" y="11.3" width="3.6" height="1.6" style="fill:#FF7381;" /><rect x="13.6" y="11.3" width="3.6" height="1.6" style="fill:#E62323;" /><rect x="5.3" y="13.4" width="1.5" height="1.6" style="fill:#E62323;" /><rect x="15.7" y="13.4" width="1.5" height="1.6" style="fill:#FF7381;" /><rect x="7.4" y="13.4" width="3.6" height="1.6" style="fill:#FF7381;" /><rect x="11.5" y="13.4" width="3.6" height="1.6" style="fill:#E62323;" /><rect x="5.3" y="15.5" width="3.6" height="1.6" style="fill:#E62323;" /><rect x="9.5" y="15.5" width="3.6" height="1.6" style="fill:#FF7381;" /><rect x="13.6" y="15.5" width="3.6" height="1.6" style="fill:#E62323;" /></svg>