<?xml version="1.0" encoding="UTF-8"?>
<svg xmlns="http://www.w3.org/2000/svg" xmlns:xlink="http://www.w3.org/1999/xlink" width="70pt" height="70pt" viewBox="0 0 70 70" version="1.1">
<defs>
<linearGradient id="linear0" gradientUnits="userSpaceOnUse" x1="8.59" y1="-7.79" x2="9.12" y2="20.05" gradientTransform="matrix(3.888889,0,0,3.888889,0,0)">
<stop offset="0.22" style="stop-color:rgb(79,180,255);stop-opacity:1;"/>
<stop offset="0.47" style="stop-color:rgb(73,177,255);stop-opacity:1;"/>
<stop offset="0.63" style="stop-color:rgb(61,172,255);stop-opacity:1;"/>
<stop offset="0.77" style="stop-color:rgb(37,162,255);stop-opacity:1;"/>
<stop offset="0.89" style="stop-color:rgb(3,148,255);stop-opacity:1;"/>
<stop offset="1" style="stop-color:rgb(0,124,216);stop-opacity:1;"/>
<stop offset="1" style="stop-color:rgb(0,124,216);stop-opacity:1;"/>
</linearGradient>
<filter id="alpha" filterUnits="objectBoundingBox" x="0%" y="0%" width="100%" height="100%">
  <feColorMatrix type="matrix" in="SourceGraphic" values="0 0 0 0 1 0 0 0 0 1 0 0 0 0 1 0 0 0 1 0"/>
</filter>
<mask id="mask0">
  <g filter="url(#alpha)">
<rect x="0" y="0" width="70" height="70" style="fill:rgb(0,0,0);fill-opacity:0.2;stroke:none;"/>
  </g>
</mask>
<clipPath id="clip1">
  <rect x="0" y="0" width="70" height="70"/>
</clipPath>
<g id="surface5" clip-path="url(#clip1)">
<path style=" stroke:none;fill-rule:nonzero;fill:rgb(255,255,255);fill-opacity:1;" d="M 11.433594 33.714844 L 58.722656 33.714844 C 59.367188 33.722656 59.984375 33.957031 60.472656 34.378906 L 9.683594 69.378906 C 9.082031 68.875 8.730469 68.136719 8.710938 67.355469 L 8.710938 36.246094 C 8.847656 34.835938 10.015625 33.75 11.433594 33.714844 Z M 11.433594 33.714844 "/>
</g>
</defs>
<g id="surface1">
<path style=" stroke:none;fill-rule:nonzero;fill:url(#linear0);" d="M 58.566406 33.714844 L 54.679688 33.714844 L 54.679688 21.738281 C 54.710938 16.113281 52.644531 10.675781 48.882813 6.496094 C 45.320313 2.34375 40.117188 -0.0273438 34.648438 0 C 29.128906 -0.0742188 23.859375 2.304688 20.261719 6.496094 C 16.472656 10.660156 14.402344 16.109375 14.464844 21.738281 L 14.464844 33.714844 L 11.316406 33.714844 C 9.84375 33.738281 8.652344 34.925781 8.632813 36.398438 L 8.632813 67.511719 C 8.652344 68.984375 9.84375 70.171875 11.316406 70.195313 L 58.566406 70.195313 C 60.046875 70.175781 61.246094 68.992188 61.289063 67.511719 L 61.289063 36.398438 C 61.246094 34.921875 60.046875 33.738281 58.566406 33.714844 Z M 45.460938 33.714844 L 23.839844 33.714844 L 23.839844 21.542969 C 23.875 18.429688 25.082031 15.445313 27.222656 13.183594 C 29.066406 11.070313 31.730469 9.851563 34.535156 9.839844 C 37.347656 9.855469 40.023438 11.070313 41.882813 13.183594 C 42.34375 13.703125 42.761719 14.265625 43.128906 14.855469 C 44.585938 16.773438 45.414063 19.097656 45.5 21.503906 Z M 45.460938 33.714844 "/>
<path style=" stroke:none;fill-rule:nonzero;fill:rgb(119,197,255);fill-opacity:1;" d="M 58.683594 33.714844 L 11.355469 33.714844 C 10.722656 33.71875 10.113281 33.953125 9.644531 34.378906 L 60.394531 69.378906 C 61.007813 68.886719 61.363281 68.140625 61.367188 67.355469 L 61.367188 36.246094 C 61.246094 34.839844 60.089844 33.75 58.683594 33.714844 Z M 58.683594 33.714844 "/>
<use xlink:href="#surface5" mask="url(#mask0)"/>
<path style=" stroke:none;fill-rule:nonzero;fill:rgb(255,255,255);fill-opacity:1;" d="M 30.332031 41.222656 L 35 36.554688 C 35.101563 36.46875 35.25 36.46875 35.351563 36.554688 L 39.976563 41.222656 C 40.042969 41.265625 40.082031 41.339844 40.082031 41.417969 C 40.082031 41.496094 40.042969 41.566406 39.976563 41.609375 L 37.253906 41.609375 C 37.125 41.609375 37.023438 41.714844 37.023438 41.84375 L 37.023438 47.832031 C 37.023438 47.960938 36.917969 48.066406 36.789063 48.066406 L 33.714844 48.066406 C 33.652344 48.082031 33.582031 48.0625 33.535156 48.015625 C 33.488281 47.96875 33.46875 47.898438 33.484375 47.832031 L 33.484375 41.84375 C 33.464844 41.710938 33.347656 41.609375 33.210938 41.609375 L 30.488281 41.609375 C 30.398438 41.605469 30.324219 41.546875 30.289063 41.464844 C 30.257813 41.382813 30.273438 41.289063 30.332031 41.222656 Z M 39.9375 62.535156 L 35.3125 67.160156 C 35.265625 67.210938 35.203125 67.238281 35.136719 67.238281 C 35.070313 67.238281 35.003906 67.210938 34.960938 67.160156 L 30.332031 62.535156 C 30.269531 62.488281 30.230469 62.417969 30.230469 62.339844 C 30.230469 62.261719 30.269531 62.1875 30.332031 62.144531 L 33.054688 62.144531 C 33.191406 62.144531 33.308594 62.046875 33.328125 61.910156 L 33.328125 55.882813 C 33.328125 55.753906 33.433594 55.648438 33.5625 55.648438 L 36.4375 55.648438 C 36.566406 55.648438 36.671875 55.753906 36.671875 55.882813 L 36.671875 61.910156 C 36.671875 62.039063 36.777344 62.144531 36.90625 62.144531 L 39.628906 62.144531 C 39.734375 62.058594 39.890625 62.074219 39.976563 62.183594 C 40.0625 62.289063 40.046875 62.449219 39.9375 62.535156 Z M 21.660156 56.503906 L 21.660156 53.785156 C 21.660156 53.65625 21.558594 53.550781 21.429688 53.550781 L 15.554688 53.550781 C 15.425781 53.550781 15.320313 53.445313 15.320313 53.316406 L 15.320313 50.554688 C 15.277344 50.476563 15.277344 50.382813 15.328125 50.308594 C 15.378906 50.234375 15.464844 50.191406 15.554688 50.207031 L 21.429688 50.207031 C 21.558594 50.207031 21.660156 50.101563 21.660156 49.972656 L 21.660156 47.25 C 21.671875 47.152344 21.730469 47.070313 21.820313 47.03125 C 21.90625 46.988281 22.011719 47 22.089844 47.054688 L 26.714844 51.722656 C 26.796875 51.8125 26.796875 51.945313 26.714844 52.035156 L 22.089844 56.699219 C 22.011719 56.753906 21.90625 56.765625 21.820313 56.726563 C 21.730469 56.683594 21.671875 56.601563 21.660156 56.503906 Z M 48.609375 47.25 L 48.609375 49.972656 C 48.609375 50.101563 48.714844 50.207031 48.84375 50.207031 L 54.832031 50.207031 C 54.832031 50.207031 55.105469 50.207031 55.105469 50.4375 L 55.105469 53.316406 C 55.085938 53.453125 54.96875 53.550781 54.832031 53.550781 L 48.84375 53.550781 C 48.714844 53.550781 48.609375 53.65625 48.609375 53.785156 L 48.609375 56.503906 C 48.621094 56.601563 48.570313 56.691406 48.484375 56.734375 C 48.398438 56.777344 48.292969 56.765625 48.222656 56.699219 L 43.59375 52.035156 L 43.59375 51.722656 L 48.222656 47.054688 C 48.222656 47.054688 48.609375 47.015625 48.609375 47.25 Z M 48.609375 47.25 "/>
</g>
</svg>
