<?xml version="1.0" encoding="UTF-8"?>
<svg xmlns="http://www.w3.org/2000/svg" xmlns:xlink="http://www.w3.org/1999/xlink" width="70pt" height="36pt" viewBox="0 0 70 36" version="1.1">
<g id="surface1">
<path style=" stroke:none;fill-rule:nonzero;fill:rgb(0%,47.058824%,84.313725%);fill-opacity:1;" d="M 50.449219 0 L 48.003906 2.394531 L 64.414063 18.296875 L 48.003906 34.199219 L 50.449219 36.59375 L 64.9375 22.402344 L 69.125 18.296875 L 64.9375 14.191406 Z M 50.449219 0 "/>
<path style=" stroke:none;fill-rule:nonzero;fill:rgb(0%,47.058824%,84.313725%);fill-opacity:1;" d="M 18.679688 0 L 21.121094 2.394531 L 4.714844 18.296875 L 21.121094 34.199219 L 18.679688 36.59375 L 4.363281 22.402344 L 0 18.296875 L 4.363281 14.191406 Z M 18.679688 0 "/>
<path style=" stroke:none;fill-rule:nonzero;fill:rgb(0%,47.058824%,84.313725%);fill-opacity:1;" d="M 26.183594 18.296875 C 26.183594 20.519531 24.265625 22.402344 21.996094 22.402344 C 19.550781 22.402344 17.804688 20.519531 17.804688 18.296875 C 17.804688 16.074219 19.726563 14.191406 21.996094 14.191406 C 24.4375 14.191406 26.183594 16.074219 26.183594 18.296875 Z M 26.183594 18.296875 "/>
<path style=" stroke:none;fill-rule:nonzero;fill:rgb(0%,47.058824%,84.313725%);fill-opacity:1;" d="M 34.5625 14.191406 C 36.832031 14.191406 38.753906 16.074219 38.753906 18.296875 C 38.753906 20.519531 36.832031 22.402344 34.5625 22.402344 C 32.292969 22.402344 30.375 20.519531 30.375 18.296875 C 30.375 16.074219 32.292969 14.191406 34.5625 14.191406 Z M 34.5625 14.191406 "/>
<path style=" stroke:none;fill-rule:nonzero;fill:rgb(0%,47.058824%,84.313725%);fill-opacity:1;" d="M 47.132813 14.191406 C 49.402344 14.191406 51.320313 16.074219 51.320313 18.296875 C 51.320313 20.519531 49.402344 22.402344 47.132813 22.402344 C 44.6875 22.402344 42.941406 20.519531 42.941406 18.296875 C 42.941406 16.074219 44.6875 14.191406 47.132813 14.191406 Z M 47.132813 14.191406 "/>
</g>
</svg>
