<?xml version="1.0" encoding="UTF-8"?>
<svg xmlns="http://www.w3.org/2000/svg" xmlns:xlink="http://www.w3.org/1999/xlink" width="70pt" height="70pt" viewBox="0 0 70 70" version="1.1">
<defs>
<filter id="alpha" filterUnits="objectBoundingBox" x="0%" y="0%" width="100%" height="100%">
  <feColorMatrix type="matrix" in="SourceGraphic" values="0 0 0 0 1 0 0 0 0 1 0 0 0 0 1 0 0 0 1 0"/>
</filter>
<mask id="mask0">
  <g filter="url(#alpha)">
<rect x="0" y="0" width="70" height="70" style="fill:rgb(0,0,0);fill-opacity:0.2;stroke:none;"/>
  </g>
</mask>
<clipPath id="clip1">
  <rect x="0" y="0" width="70" height="70"/>
</clipPath>
<g id="surface5" clip-path="url(#clip1)">
<path style=" stroke:none;fill-rule:nonzero;fill:rgb(255,255,255);fill-opacity:1;" d="M 2.820313 5.601563 C 1.269531 5.601563 0.0117188 6.855469 0.0117188 8.410156 L 0.0117188 62.476563 C 0.0117188 64.027344 1.269531 65.289063 2.820313 65.289063 L 5.882813 65.289063 L 61.066406 5.601563 Z M 2.820313 5.601563 "/>
</g>
</defs>
<g id="surface1">
<path style=" stroke:none;fill-rule:nonzero;fill:rgb(57,171,255);fill-opacity:1;" d="M 0 62.476563 C 0 64.027344 1.257813 65.289063 2.808594 65.289063 L 67.191406 65.289063 C 68.742188 65.289063 70 64.027344 70 62.476563 L 70 18.617188 L 0 18.617188 Z M 0 62.476563 "/>
<path style=" stroke:none;fill-rule:nonzero;fill:rgb(65,174,255);fill-opacity:1;" d="M 67.191406 5.601563 L 2.808594 5.601563 C 1.257813 5.601563 0 6.855469 0 8.410156 L 0 23.289063 L 70 23.289063 L 70 8.410156 C 70 6.855469 68.742188 5.601563 67.191406 5.601563 "/>
<use xlink:href="#surface5" mask="url(#mask0)"/>
<path style=" stroke:none;fill-rule:nonzero;fill:rgb(255,255,255);fill-opacity:1;" d="M 18 12.289063 L 65.140625 12.289063 L 65.140625 17.808594 L 18 17.808594 Z M 18 12.289063 "/>
<path style=" stroke:none;fill-rule:nonzero;fill:rgb(57,171,255);fill-opacity:1;" d="M 15.835938 14.957031 C 15.835938 18.726563 12.777344 21.785156 9.003906 21.785156 C 5.234375 21.785156 2.175781 18.726563 2.175781 14.957031 C 2.175781 11.183594 5.234375 8.125 9.003906 8.125 C 12.773438 8.125 15.835938 11.183594 15.835938 14.957031 "/>
<path style=" stroke:none;fill-rule:nonzero;fill:rgb(255,255,255);fill-opacity:1;" d="M 8.28125 15.726563 L 11.378906 18.996094 L 9.699219 18.996094 L 5.554688 15.050781 L 9.683594 11.105469 L 11.359375 11.105469 L 8.28125 14.355469 L 15.832031 14.355469 L 15.832031 15.726563 Z M 8.28125 15.726563 "/>
<path style=" stroke:none;fill-rule:nonzero;fill:rgb(255,255,255);fill-opacity:1;" d="M 24.394531 50.507813 C 24.394531 51.304688 24.113281 51.957031 23.542969 52.464844 C 22.976563 52.972656 22.226563 53.230469 21.296875 53.230469 C 20.464844 53.230469 19.757813 52.96875 19.179688 52.449219 C 18.601563 51.929688 18.3125 51.28125 18.3125 50.503906 C 18.3125 49.71875 18.601563 49.074219 19.179688 48.570313 C 19.757813 48.066406 20.492188 47.8125 21.378906 47.8125 C 22.230469 47.8125 22.949219 48.070313 23.527344 48.585938 C 24.105469 49.097656 24.394531 49.742188 24.394531 50.507813 Z M 24.394531 50.507813 "/>
<path style=" stroke:none;fill-rule:nonzero;fill:rgb(255,255,255);fill-opacity:1;" d="M 36.863281 50.507813 C 36.863281 51.304688 36.578125 51.957031 36.007813 52.464844 C 35.441406 52.972656 34.691406 53.230469 33.761719 53.230469 C 32.929688 53.230469 32.226563 52.96875 31.644531 52.449219 C 31.066406 51.929688 30.777344 51.28125 30.777344 50.503906 C 30.777344 49.71875 31.066406 49.074219 31.644531 48.570313 C 32.226563 48.066406 32.957031 47.8125 33.84375 47.8125 C 34.695313 47.8125 35.414063 48.070313 35.992188 48.585938 C 36.570313 49.097656 36.863281 49.742188 36.863281 50.507813 Z M 36.863281 50.507813 "/>
<path style=" stroke:none;fill-rule:nonzero;fill:rgb(255,255,255);fill-opacity:1;" d="M 49.328125 50.507813 C 49.328125 51.304688 49.042969 51.957031 48.472656 52.464844 C 47.90625 52.972656 47.15625 53.230469 46.226563 53.230469 C 45.394531 53.230469 44.6875 52.96875 44.109375 52.449219 C 43.53125 51.929688 43.242188 51.28125 43.242188 50.503906 C 43.242188 49.71875 43.53125 49.074219 44.109375 48.570313 C 44.6875 48.066406 45.421875 47.8125 46.308594 47.8125 C 47.160156 47.8125 47.878906 48.070313 48.457031 48.585938 C 49.035156 49.097656 49.328125 49.742188 49.328125 50.507813 Z M 49.328125 50.507813 "/>
</g>
</svg>
