<?xml version="1.0" encoding="UTF-8"?>
<svg xmlns="http://www.w3.org/2000/svg" xmlns:xlink="http://www.w3.org/1999/xlink" width="70pt" height="70pt" viewBox="0 0 70 70" version="1.1">
<g id="surface1">
<path style=" stroke:none;fill-rule:nonzero;fill:rgb(57,171,255);fill-opacity:1;" d="M 27.300781 14.140625 C 28.558594 6.160156 35.421875 0.140625 43.820313 0.140625 C 53.058594 0.140625 60.480469 7.699219 60.480469 16.941406 C 60.480469 18.058594 60.339844 19.039063 60.199219 20.019531 C 65.660156 20.578125 69.859375 25.621094 69.859375 31.640625 C 69.859375 38.078125 64.960938 43.398438 59.078125 43.398438 L 28.28125 43.398438 C 20.441406 43.398438 14 36.679688 14 28.558594 C 14.140625 21 20.019531 14.839844 27.300781 14.140625 Z M 27.300781 14.140625 "/>
<path style=" stroke:none;fill-rule:nonzero;fill:rgb(65,174,255);fill-opacity:1;" d="M 57.398438 30.800781 C 57.398438 29.261719 56.140625 28 54.601563 28 L 39.199219 28 C 38.6875 28 38.214844 28.148438 37.800781 28.390625 C 37.375 28.136719 36.894531 28.003906 36.398438 28 L 21 28 C 20.488281 28 20.015625 28.148438 19.601563 28.390625 C 19.175781 28.136719 18.691406 28.003906 18.199219 28 L 2.800781 28 C 1.261719 28 0 29.261719 0 30.800781 L 0 37.800781 C 0 38.3125 0.148438 38.785156 0.390625 39.199219 C 0.136719 39.625 0.00390625 40.105469 0 40.601563 L 0 47.601563 C 0 48.109375 0.148438 48.585938 0.390625 49 C 0.136719 49.421875 0.00390625 49.90625 0 50.398438 L 0 57.398438 C 0 57.910156 0.148438 58.386719 0.390625 58.800781 C 0.136719 59.222656 0.00390625 59.707031 0 60.199219 L 0 67.199219 C 0 68.738281 1.261719 70 2.800781 70 L 18.199219 70 C 18.710938 70 19.1875 69.851563 19.601563 69.609375 C 20.015625 69.851563 20.488281 70 21 70 L 36.398438 70 C 36.910156 70 37.386719 69.851563 37.800781 69.609375 C 38.214844 69.851563 38.6875 70 39.199219 70 L 54.601563 70 C 56.140625 70 57.398438 68.738281 57.398438 67.199219 L 57.398438 60.199219 C 57.398438 59.6875 57.25 59.214844 57.007813 58.800781 C 57.25 58.386719 57.398438 57.910156 57.398438 57.398438 L 57.398438 50.398438 C 57.398438 49.890625 57.25 49.414063 57.007813 49 C 57.25 48.585938 57.398438 48.109375 57.398438 47.601563 L 57.398438 40.601563 C 57.398438 40.089844 57.25 39.613281 57.007813 39.199219 C 57.25 38.785156 57.398438 38.3125 57.398438 37.800781 Z M 57.398438 30.800781 "/>
<path style=" stroke:none;fill-rule:nonzero;fill:rgb(0,135,236);fill-opacity:1;" d="M 21 30.800781 L 36.398438 30.800781 L 36.398438 37.800781 L 21 37.800781 Z M 21 30.800781 "/>
<path style=" stroke:none;fill-rule:nonzero;fill:rgb(0,80,140);fill-opacity:1;" d="M 39.199219 30.800781 L 54.601563 30.800781 L 54.601563 37.800781 L 39.199219 37.800781 Z M 2.800781 30.800781 L 18.199219 30.800781 L 18.199219 37.800781 L 2.800781 37.800781 Z M 21 40.601563 L 36.398438 40.601563 L 36.398438 47.601563 L 21 47.601563 Z M 21 40.601563 "/>
<path style=" stroke:none;fill-rule:nonzero;fill:rgb(0,135,236);fill-opacity:1;" d="M 2.800781 50.398438 L 18.199219 50.398438 L 18.199219 57.398438 L 2.800781 57.398438 Z M 2.800781 50.398438 "/>
<path style=" stroke:none;fill-rule:nonzero;fill:rgb(0,80,140);fill-opacity:1;" d="M 2.800781 40.601563 L 18.199219 40.601563 L 18.199219 47.601563 L 2.800781 47.601563 Z M 21 60.199219 L 36.398438 60.199219 L 36.398438 67.199219 L 21 67.199219 Z M 39.199219 50.398438 L 54.601563 50.398438 L 54.601563 57.398438 L 39.199219 57.398438 Z M 39.199219 40.601563 L 54.601563 40.601563 L 54.601563 47.601563 L 39.199219 47.601563 Z M 21 50.398438 L 36.398438 50.398438 L 36.398438 57.398438 L 21 57.398438 Z M 21 50.398438 "/>
<path style=" stroke:none;fill-rule:nonzero;fill:rgb(0,135,236);fill-opacity:1;" d="M 39.199219 60.199219 L 54.601563 60.199219 L 54.601563 67.199219 L 39.199219 67.199219 Z M 39.199219 60.199219 "/>
<path style=" stroke:none;fill-rule:nonzero;fill:rgb(0,80,140);fill-opacity:1;" d="M 2.800781 60.199219 L 18.199219 60.199219 L 18.199219 67.199219 L 2.800781 67.199219 Z M 2.800781 60.199219 "/>
</g>
</svg>
