<?xml version="1.0" encoding="utf-8"?><svg version="1.1" xmlns="http://www.w3.org/2000/svg" xmlns:xlink="http://www.w3.org/1999/xlink" xmlns:xml="http://www.w3.org/XML/1998/namespace" width="70" height="70" viewBox="0, 0, 18, 18" id="b6f74ca5-3ae6-426f-9ef1-9ff6bbaa7f1c"><defs><linearGradient x1="8.59" y1="-7.79" x2="9.12" y2="20.05" gradientUnits="userSpaceOnUse" id="bd7305f8-8789-4600-a1f2-6594e60eefcc"><stop offset="22%" stop-color="#32D4F5" /><stop offset="47%" stop-color="#31D1F3" /><stop offset="63%" stop-color="#2EC9EB" /><stop offset="77%" stop-color="#29BADE" /><stop offset="89%" stop-color="#22A5CB" /><stop offset="100%" stop-color="#198AB3" /><stop offset="100%" stop-color="#198AB3" /></linearGradient></defs><title>Icon-networking-63</title><path d="M15.06 8.67 h-1 V5.59 a5.81 5.81 0 0 0 -1.49 -3.92 A4.79 4.79 0 0 0 8.91 0 a4.79 4.79 0 0 0 -3.7 1.67 A5.73 5.73 0 0 0 3.72 5.59 V8.67 H2.91 a0.7 0.7 0 0 0 -0.69 0.69 v8 a0.7 0.7 0 0 0 0.69 0.69 H15.06 a0.71 0.71 0 0 0 0.7 -0.69 V9.36 A0.71 0.71 0 0 0 15.06 8.67 Z m-3.37 0 H6.13 V5.54 A3.18 3.18 0 0 1 7 3.39 a2.51 2.51 0 0 1 1.88 -0.86 a2.54 2.54 0 0 1 1.89 0.86 a3.19 3.19 0 0 1 0.32 0.43 h0 a3 3 0 0 1 0.61 1.71 Z" style="fill:url(#bd7305f8-8789-4600-a1f2-6594e60eefcc);" /><path d="M15.09 8.67 H2.92 a0.66 0.66 0 0 0 -0.44 0.17 l13.05 9 a0.67 0.67 0 0 0 0.25 -0.52 v-8 A0.71 0.71 0 0 0 15.09 8.67 Z" style="fill:#50E6FF;" /><path d="M2.94 8.67 H15.1 a0.7 0.7 0 0 1 0.45 0.17 l-13.06 9 a0.7 0.7 0 0 1 -0.25 -0.52 v-8 A0.72 0.72 0 0 1 2.94 8.67 Z" opacity="0.2" style="fill:white;" /><path d="M7.8 10.6 L9 9.4 a0.07 0.07 0 0 1 0.09 0 l1.19 1.2 a0.06 0.06 0 0 1 0 0.1 h-0.7 a0.06 0.06 0 0 0 -0.06 0.06 V12.3 a0.06 0.06 0 0 1 -0.06 0.06 H8.67 a0.05 0.05 0 0 1 -0.06 -0.06 V10.76 a0.07 0.07 0 0 0 -0.07 -0.06 h-0.7 A0.06 0.06 0 0 1 7.8 10.6 Z m2.47 5.48 L9.08 17.27 a0.06 0.06 0 0 1 -0.09 0 L7.8 16.08 a0.06 0.06 0 0 1 0 -0.1 h0.7 a0.07 0.07 0 0 0 0.07 -0.06 V14.37 a0.06 0.06 0 0 1 0.06 -0.06 h0.74 a0.06 0.06 0 0 1 0.06 0.06 v1.55 a0.06 0.06 0 0 0 0.06 0.06 h0.7 A0.06 0.06 0 0 1 10.27 16.08 Z m-4.7 -1.55 v-0.7 a0.06 0.06 0 0 0 -0.06 -0.06 H4 a0.06 0.06 0 0 1 -0.06 -0.06 V13 A0.06 0.06 0 0 1 4 12.91 H5.51 a0.06 0.06 0 0 0 0.06 -0.06 v-0.7 a0.07 0.07 0 0 1 0.11 -0.05 l1.19 1.2 a0.06 0.06 0 0 1 0 0.08 l-1.19 1.2 A0.07 0.07 0 0 1 5.57 14.53 Z m6.93 -2.38 v0.7 a0.06 0.06 0 0 0 0.06 0.06 H14.1 s0.07 0 0.07 0.06 v0.74 a0.07 0.07 0 0 1 -0.07 0.06 H12.56 a0.06 0.06 0 0 0 -0.06 0.06 v0.7 a0.06 0.06 0 0 1 -0.1 0.05 l-1.19 -1.2 a0 0 0 0 1 0 -0.08 l1.19 -1.2 S12.5 12.09 12.5 12.15 Z" style="fill:white;" /></svg>