<?xml version="1.0" encoding="utf-8"?><svg version="1.1" xmlns="http://www.w3.org/2000/svg" xmlns:xlink="http://www.w3.org/1999/xlink" xmlns:xml="http://www.w3.org/XML/1998/namespace" xmlns:dc="http://purl.org/dc/elements/1.1/" xmlns:cc="http://creativecommons.org/ns#" xmlns:rdf="http://www.w3.org/1999/02/22-rdf-syntax-ns#" xmlns:sodipodi="http://sodipodi.sourceforge.net/DTD/sodipodi-0.dtd" xmlns:inkscape="http://www.inkscape.org/namespaces/inkscape" x="0" y="0" width="70" height="70" viewBox="0, 0, 50, 30.6" id="Layer_1" xml:space="preserve" sodipodi:docname="Azure ExpressRoute_COLOR.svg" inkscape:version="0.92.2 (5c3e80d, 2017-08-06)" style="enable-background:new 0 0 50 50;">
  <metadata id="metadata19" />
  <defs id="defs17" />
  <sodipodi:namedview id="namedview15" pagecolor="#ffffff" bordercolor="#0075CC" borderopacity="1" objecttolerance="10" gridtolerance="10" guidetolerance="10" inkscape:pageopacity="0" inkscape:pageshadow="2" inkscape:window-width="640" inkscape:window-height="480" showgrid="false" inkscape:zoom="4.72" inkscape:cx="25" inkscape:cy="15.3" inkscape:window-x="0" inkscape:window-y="0" inkscape:window-maximized="0" inkscape:current-layer="Layer_1" />
  <rect x="9.8" y="23.1" width="31" height="3.8" id="rect2" style="fill:#004980;" />
  <rect x="-11.05358" y="19.70854" width="21.1998" height="3.799963" transform="rotate(-45, 0, 0)" id="rect4" stroke-width="0.9999904" style="fill:#004980;" />
  <rect x="25.28946" y="-15.69305" width="21.1998" height="3.799963" transform="rotate(45, 0, 0)" id="rect6" stroke-width="0.9999904" style="fill:#004980;" />
  <path d="m25 0 c-3.1 0 -5.6 2.5 -5.6 5.6 c0 3.1 2.5 5.6 5.6 5.6 c3.1 0 5.6 -2.5 5.6 -5.6 C30.6 2.5 28.1 0 25 0 Z m0 7.4 c-1 0 -1.8 -0.8 -1.8 -1.8 c0 -1 0.8 -1.8 1.8 -1.8 c1 0 1.8 0.8 1.8 1.8 c0 1 -0.8 1.8 -1.8 1.8 z" id="path8" inkscape:connector-curvature="0" style="fill:#27A3FF;" />
  <path d="M5.6 19.4 C2.5 19.4 0 21.9 0 25 c0 3.1 2.5 5.6 5.6 5.6 c3.1 0 5.6 -2.5 5.6 -5.6 c0 -3.1 -2.5 -5.6 -5.6 -5.6 z m0 7.4 c-1 0 -1.8 -0.8 -1.8 -1.8 c0 -1 0.8 -1.8 1.8 -1.8 c1 0 1.8 0.8 1.8 1.8 c0 1 -0.8 1.8 -1.8 1.8 z" id="path10" inkscape:connector-curvature="0" style="fill:#27A3FF;" />
  <path d="m44.4 19.4 c-3.1 0 -5.6 2.5 -5.6 5.6 c0 3.1 2.5 5.6 5.6 5.6 c3.1 0 5.6 -2.5 5.6 -5.6 c0 -3.1 -2.5 -5.6 -5.6 -5.6 z m0 7.4 c-1 0 -1.8 -0.8 -1.8 -1.8 c0 -1 0.8 -1.8 1.8 -1.8 c1 0 1.8 0.8 1.8 1.8 c0 1 -0.8 1.8 -1.8 1.8 z" id="path12" inkscape:connector-curvature="0" style="fill:#27A3FF;" />
</svg>