<?xml version="1.0" encoding="utf-8"?><svg version="1.1" xmlns="http://www.w3.org/2000/svg" xmlns:xlink="http://www.w3.org/1999/xlink" xmlns:xml="http://www.w3.org/XML/1998/namespace" width="70" height="70" viewBox="0, 0, 18, 18" id="ad094621-3a1a-48a5-aaf9-2376221c6085"><defs><linearGradient x1="7.688" y1="-26.771" x2="7.688" y2="-21.482" gradientUnits="userSpaceOnUse" gradientTransform="translate(0, 32)" id="ea0182c4-a05a-47e0-8d38-dceaa08cffc1"><stop offset="23%" stop-color="#5EA0EF" /><stop offset="32%" stop-color="#5B9FEE" /><stop offset="48%" stop-color="#509AEB" /><stop offset="57%" stop-color="#3F92E6" /><stop offset="75%" stop-color="#2688DF" /><stop offset="93%" stop-color="#127FD9" /></linearGradient><linearGradient x1="10.312" y1="-24.568" x2="10.312" y2="-19.279" gradientUnits="userSpaceOnUse" gradientTransform="translate(0, 32)" id="b2374fe1-82b4-4770-97f1-de978b276dd6"><stop offset="20%" stop-color="#50E6FF" /><stop offset="65%" stop-color="#32BEDD" /><stop offset="100%" stop-color="#198AB3" /></linearGradient><linearGradient x1="9" y1="5.38" x2="9" gradientUnits="userSpaceOnUse" id="f85376f9-8ccb-4ef0-ab3e-33ae7fcb4e4a"><stop offset="19.9%" stop-color="#005BA1" /><stop offset="100%" stop-color="#0078D4" /></linearGradient></defs><g><g><g><path d="M8.736 5.229 H6.62 a2.644 2.644 0 0 0 -0.41 5.253 A2.824 2.824 0 0 1 6.237 9.5 A1.67 1.67 0 0 1 6.62 6.2 H8.736 a1.675 1.675 0 0 1 0 3.35 H8.154 a1.275 1.275 0 0 0 -0.124 0.529 a1.234 1.234 0 0 0 0.084 0.441 h0.622 a2.645 2.645 0 0 0 0 -5.289 Z" style="fill:url(#ea0182c4-a05a-47e0-8d38-dceaa08cffc1);" /><path d="M11.79 7.468 a3.042 3.042 0 0 1 0.031 0.405 a2.722 2.722 0 0 1 -0.058 0.577 a1.671 1.671 0 0 1 -0.383 3.3 H9.264 a1.675 1.675 0 0 1 0 -3.35 h0.582 a1.195 1.195 0 0 0 0.04 -0.97 H9.264 a2.645 2.645 0 0 0 0 5.289 H11.38 a2.644 2.644 0 0 0 0.41 -5.253 Z" style="fill:url(#b2374fe1-82b4-4770-97f1-de978b276dd6);" /></g><path d="M9 -0.025 L1.15 4.465 v8.97 L9 17.975 l7.85 -4.49 v-9 Z m6.4 12.57 L9 16.245 L2.6 12.584 V5.355 L9 1.655 l6.4 3.71 Z" style="fill:#0078D4;" /></g><polygon points="9,0 9,0 1.15,4.49 2.6,5.38 9,1.68 9,1.68 15.4,5.38 16.85,4.49 9,0" style="fill:url(#f85376f9-8ccb-4ef0-ab3e-33ae7fcb4e4a);" /></g></svg>