<?xml version="1.0" encoding="UTF-8"?>
<svg xmlns="http://www.w3.org/2000/svg" xmlns:xlink="http://www.w3.org/1999/xlink" width="70pt" height="70pt" viewBox="0 0 70 70" version="1.1">
<defs>
<clipPath id="clip1">
  <path d="M 0 0 L 68.539063 0 L 68.539063 44 L 0 44 Z M 0 0 "/>
</clipPath>
<clipPath id="clip2">
  <path d="M 0 0 L 68.539063 0 L 68.539063 68.539063 L 0 68.539063 Z M 0 0 "/>
</clipPath>
<filter id="alpha" filterUnits="objectBoundingBox" x="0%" y="0%" width="100%" height="100%">
  <feColorMatrix type="matrix" in="SourceGraphic" values="0 0 0 0 1 0 0 0 0 1 0 0 0 0 1 0 0 0 1 0"/>
</filter>
<mask id="mask0">
  <g filter="url(#alpha)">
<rect x="0" y="0" width="70" height="70" style="fill:rgb(0%,0%,0%);fill-opacity:0.2;stroke:none;"/>
  </g>
</mask>
<clipPath id="clip3">
  <rect x="0" y="0" width="70" height="70"/>
</clipPath>
<g id="surface5" clip-path="url(#clip3)">
<path style=" stroke:none;fill-rule:nonzero;fill:rgb(100%,100%,100%);fill-opacity:1;" d="M 56.511719 17.171875 C 56.496094 17.171875 56.480469 17.175781 56.464844 17.175781 C 55.957031 7.609375 47.898438 0 38 0 C 30.769531 0 24.519531 4.070313 21.472656 9.988281 C 20.207031 9.703125 18.894531 9.539063 17.539063 9.539063 C 7.851563 9.539063 0 17.226563 0 26.710938 C 0 36.195313 7.851563 43.882813 17.539063 43.882813 L 56.511719 43.882813 C 64.046875 43.882813 70.152344 37.902344 70.152344 30.527344 C 70.152344 23.152344 64.046875 17.171875 56.511719 17.171875 Z M 56.511719 17.171875 "/>
</g>
<clipPath id="clip4">
  <path d="M 12 21 L 61 21 L 61 68.539063 L 12 68.539063 Z M 12 21 "/>
</clipPath>
<clipPath id="clip5">
  <path d="M 11 20 L 62 20 L 62 68.539063 L 11 68.539063 Z M 11 20 "/>
</clipPath>
<clipPath id="clip6">
  <path d="M 25 21 L 48 21 L 48 68.539063 L 25 68.539063 Z M 25 21 "/>
</clipPath>
</defs>
<g id="surface1">
<g clip-path="url(#clip1)" clip-rule="nonzero">
<path style=" stroke:none;fill-rule:nonzero;fill:rgb(34.901961%,70.588235%,85.098039%);fill-opacity:1;" d="M 56.511719 17.171875 C 56.496094 17.171875 56.480469 17.175781 56.464844 17.175781 C 55.957031 7.609375 47.898438 0 38 0 C 30.769531 0 24.519531 4.070313 21.472656 9.988281 C 20.207031 9.703125 18.894531 9.539063 17.539063 9.539063 C 7.851563 9.539063 0 17.226563 0 26.710938 C 0 36.195313 7.851563 43.882813 17.539063 43.882813 L 56.511719 43.882813 C 64.046875 43.882813 70.152344 37.902344 70.152344 30.527344 C 70.152344 23.152344 64.046875 17.171875 56.511719 17.171875 Z M 56.511719 17.171875 "/>
</g>
<g clip-path="url(#clip2)" clip-rule="nonzero">
<use xlink:href="#surface5" mask="url(#mask0)"/>
</g>
<g clip-path="url(#clip4)" clip-rule="nonzero">
<path style=" stroke:none;fill-rule:nonzero;fill:rgb(100%,100%,100%);fill-opacity:1;" d="M 36.542969 69.050781 C 23.476563 69.050781 12.84375 58.417969 12.84375 45.351563 C 12.84375 32.28125 23.476563 21.648438 36.542969 21.648438 C 49.613281 21.648438 60.246094 32.28125 60.246094 45.351563 C 60.246094 58.417969 49.613281 69.050781 36.542969 69.050781 Z M 36.542969 69.050781 "/>
</g>
<g clip-path="url(#clip5)" clip-rule="nonzero">
<path style=" stroke:none;fill-rule:nonzero;fill:rgb(50.196078%,28.627451%,59.607843%);fill-opacity:1;" d="M 36.542969 22.75 C 49.007813 22.75 59.144531 32.886719 59.144531 45.351563 C 59.144531 57.8125 49.007813 67.953125 36.542969 67.953125 C 24.082031 67.953125 13.941406 57.8125 13.941406 45.351563 C 13.941406 32.886719 24.082031 22.75 36.542969 22.75 M 36.542969 20.546875 C 22.84375 20.546875 11.742188 31.652344 11.742188 45.351563 C 11.742188 59.050781 22.84375 70.152344 36.542969 70.152344 C 50.242188 70.152344 61.347656 59.050781 61.347656 45.351563 C 61.347656 31.652344 50.242188 20.546875 36.542969 20.546875 Z M 36.542969 20.546875 "/>
</g>
<path style=" stroke:none;fill-rule:nonzero;fill:rgb(50.196078%,28.627451%,59.607843%);fill-opacity:1;" d="M 32.597656 29.09375 C 35.019531 29.976563 36.269531 32.65625 35.390625 35.082031 C 34.507813 37.503906 31.828125 38.753906 29.402344 37.871094 C 26.980469 36.992188 25.730469 34.3125 26.613281 31.886719 C 27.496094 29.464844 30.175781 28.214844 32.597656 29.09375 Z M 32.597656 29.09375 "/>
<path style=" stroke:none;fill-rule:nonzero;fill:rgb(50.196078%,28.627451%,59.607843%);fill-opacity:1;" d="M 51.921875 42.753906 C 54.34375 43.636719 55.59375 46.316406 54.710938 48.742188 C 53.832031 51.164063 51.152344 52.414063 48.726563 51.53125 C 46.304688 50.648438 45.054688 47.96875 45.9375 45.546875 C 46.816406 43.125 49.496094 41.875 51.921875 42.753906 Z M 51.921875 42.753906 "/>
<path style=" stroke:none;fill-rule:nonzero;fill:rgb(50.196078%,28.627451%,59.607843%);fill-opacity:1;" d="M 29.042969 50.996094 C 31.46875 51.875 32.71875 54.554688 31.835938 56.980469 C 30.953125 59.402344 28.273438 60.652344 25.851563 59.769531 C 23.425781 58.890625 22.175781 56.210938 23.058594 53.785156 C 23.941406 51.363281 26.621094 50.113281 29.042969 50.996094 Z M 29.042969 50.996094 "/>
<path style=" stroke:none;fill-rule:nonzero;fill:rgb(50.196078%,28.627451%,59.607843%);fill-opacity:1;" d="M 25.957031 30.925781 C 22.132813 30.925781 18.441406 31.71875 14.9375 33.304688 C 14.324219 34.386719 13.792969 35.515625 13.34375 36.691406 C 17.15625 34.417969 21.507813 33.207031 25.957031 33.207031 C 39.578125 33.207031 50.660156 44.289063 50.660156 57.90625 C 50.660156 60.878906 50.128906 63.796875 49.085938 66.574219 L 49.039063 66.699219 C 50.085938 66.078125 51.078125 65.382813 52.019531 64.617188 C 52.566406 62.460938 52.941406 60.140625 52.941406 57.90625 C 52.941406 43.027344 40.835938 30.925781 25.957031 30.925781 Z M 25.957031 30.925781 "/>
<g clip-path="url(#clip6)" clip-rule="nonzero">
<path style=" stroke:none;fill-rule:nonzero;fill:rgb(50.196078%,28.627451%,59.607843%);fill-opacity:1;" d="M 47.21875 23.226563 C 46.066406 22.667969 44.867188 22.195313 43.628906 21.820313 C 32.546875 25.484375 25.128906 35.703125 25.128906 47.425781 C 25.128906 56.652344 29.769531 65.125 37.539063 70.125 C 38.84375 70.066406 40.125 69.914063 41.367188 69.660156 L 41.246094 69.597656 C 32.710938 65.398438 27.414063 56.902344 27.414063 47.425781 C 27.410156 35.691406 35.734375 25.542969 47.21875 23.226563 Z M 47.21875 23.226563 "/>
</g>
<path style=" stroke:none;fill-rule:nonzero;fill:rgb(50.196078%,28.627451%,59.607843%);fill-opacity:1;" d="M 60.296875 51.855469 C 60.519531 51.035156 60.699219 50.199219 60.832031 49.347656 C 56.59375 46.800781 51.796875 45.441406 46.855469 45.441406 C 35.109375 45.441406 24.582031 52.878906 20.660156 64.265625 L 20.636719 64.335938 L 20.691406 64.386719 C 21.21875 64.839844 21.78125 65.273438 22.363281 65.695313 C 22.449219 65.753906 22.53125 65.816406 22.617188 65.875 L 22.660156 65.746094 C 26.078125 54.921875 35.804688 47.859375 46.855469 47.859375 C 51.644531 47.855469 56.257813 49.25 60.296875 51.855469 Z M 60.296875 51.855469 "/>
</g>
</svg>
