<?xml version="1.0" encoding="utf-8"?><svg version="1.1" xmlns="http://www.w3.org/2000/svg" xmlns:xlink="http://www.w3.org/1999/xlink" xmlns:xml="http://www.w3.org/XML/1998/namespace" width="70" height="70" viewBox="0, 0, 18, 18"><defs><linearGradient x1="12.726" y1="2199.244" x2="12.726" y2="2193.605" gradientUnits="userSpaceOnUse" gradientTransform="translate(0, -2183.642)" id="f739297d-1dff-4878-8e69-be6860163e71"><stop offset="0%" stop-color="#32BEDD" /><stop offset="18%" stop-color="#32CAEA" /><stop offset="41%" stop-color="#32D2F2" /><stop offset="78%" stop-color="#32D4F5" /></linearGradient></defs><g id="aaa7102a-579e-4074-9dfb-2c1893535ac2"><g><path d="M0.5 4.429 h9.548 V9.756 a0.321 0.321 0 0 1 -0.321 0.321 H0.821 A0.321 0.321 0 0 1 0.5 9.756 h0 Z" style="fill:#83B9F9;" /><path d="M0.821 2.389 H9.727 a0.321 0.321 0 0 1 0.321 0.321 h0 V4.429 H0.5 V2.71 A0.321 0.321 0 0 1 0.821 2.389 Z" style="fill:#1F56A3;" /><rect x="1.784" y="3.003" width="6.979" height="0.822" rx="0.161" style="fill:#F2F2F2;" /><path d="M4.221 7.187 h9.558 v5.326 a0.321 0.321 0 0 1 -0.321 0.321 H4.542 a0.321 0.321 0 0 1 -0.321 -0.321 h0 Z" style="fill:#83B9F9;" /><path d="M4.542 5.156 h8.906 a0.321 0.321 0 0 1 0.321 0.321 h0 v1.71 H4.231 V5.477 A0.321 0.321 0 0 1 4.542 5.156 Z" style="fill:#1F56A3;" /><rect x="5.506" y="5.77" width="6.979" height="0.822" rx="0.161" style="fill:#F2F2F2;" /><g><path d="M7.952 9.963 H17.5 V15.29 a0.321 0.321 0 0 1 -0.321 0.321 H8.273 a0.321 0.321 0 0 1 -0.321 -0.321 h0 Z" style="fill:url(#f739297d-1dff-4878-8e69-be6860163e71);" /><path d="M8.273 7.923 h8.906 a0.321 0.321 0 0 1 0.321 0.321 V9.963 H7.952 V8.244 A0.321 0.321 0 0 1 8.273 7.923 Z" style="fill:#0078D4;" /><g><circle cx="14.874" cy="12.438" r="0.774" style="fill:#0078D4;" /><circle cx="12.759" cy="12.438" r="0.774" style="fill:#0078D4;" /><circle cx="10.577" cy="12.438" r="0.774" style="fill:#0078D4;" /></g><rect x="9.236" y="8.537" width="6.979" height="0.822" rx="0.161" style="fill:#F2F2F2;" /></g></g></g></svg>