<?xml version="1.0" encoding="UTF-8"?>
<svg xmlns="http://www.w3.org/2000/svg" xmlns:xlink="http://www.w3.org/1999/xlink" width="70pt" height="70pt" viewBox="0 0 70 70" version="1.1">
<defs>
<linearGradient id="linear0" gradientUnits="userSpaceOnUse" x1="9" y1="18.17" x2="9" y2="1.506" gradientTransform="matrix(3.888889,-0.000000000000000009,0.000000000000000009,3.888889,-0.000517415,-0.00021432)">
<stop offset="0" style="stop-color:rgb(13.72549%,54.117647%,69.019608%);stop-opacity:1;"/>
<stop offset="0.109" style="stop-color:rgb(17.647059%,64.313725%,78.431373%);stop-opacity:1;"/>
<stop offset="0.775" style="stop-color:rgb(24.313725%,82.745098%,94.901961%);stop-opacity:1;"/>
</linearGradient>
</defs>
<g id="surface1">
<path style=" stroke:none;fill-rule:nonzero;fill:url(#linear0);" d="M 1.167969 33.375 L 33.371094 1.171875 C 34.269531 0.273438 35.722656 0.273438 36.621094 1.171875 L 68.824219 33.375 C 69.722656 34.273438 69.722656 35.726563 68.824219 36.625 L 36.621094 68.828125 C 35.722656 69.726563 34.269531 69.726563 33.371094 68.828125 L 1.167969 36.625 C 0.269531 35.726563 0.269531 34.273438 1.167969 33.375 Z M 1.167969 33.375 "/>
<path style=" stroke:none;fill-rule:nonzero;fill:rgb(61.176471%,92.156863%,100%);fill-opacity:1;" d="M 54.800781 39.148438 L 53.410156 37.757813 L 53.410156 32.394531 L 42.300781 32.394531 L 42.300781 38.304688 L 47.28125 38.304688 L 34.765625 50.824219 L 22.25 38.304688 L 27.3125 38.304688 L 27.3125 32.394531 L 15.109375 32.394531 L 15.109375 38.304688 L 15.570313 38.304688 L 14.730469 39.148438 L 32.222656 56.640625 L 34.765625 54.101563 L 37.304688 56.640625 Z M 54.800781 39.148438 "/>
<path style=" stroke:none;fill-rule:nonzero;fill:rgb(100%,100%,100%);fill-opacity:1;" d="M 19.792969 31.003906 C 17.378906 28.601563 13.484375 28.601563 11.097656 31 C 8.707031 33.402344 8.722656 37.292969 11.136719 39.695313 C 13.546875 42.097656 17.441406 42.097656 19.832031 39.699219 C 22.222656 37.300781 22.203125 33.40625 19.792969 31.003906 Z M 19.792969 31.003906 "/>
<path style=" stroke:none;fill-rule:nonzero;fill:rgb(52.54902%,83.921569%,20%);fill-opacity:1;" d="M 17.925781 32.882813 C 16.550781 31.507813 14.332031 31.5 12.972656 32.863281 C 11.613281 34.226563 11.628906 36.441406 13.003906 37.816406 C 14.378906 39.1875 16.597656 39.195313 17.957031 37.835938 C 19.316406 36.472656 19.300781 34.253906 17.925781 32.882813 Z M 17.925781 32.882813 "/>
<path style=" stroke:none;fill-rule:nonzero;fill:rgb(100%,100%,100%);fill-opacity:1;" d="M 58.824219 31.007813 C 56.414063 28.605469 52.519531 28.601563 50.128906 31.003906 C 47.738281 33.402344 47.757813 37.296875 50.171875 39.699219 C 52.582031 42.101563 56.476563 42.101563 58.863281 39.703125 C 61.253906 37.300781 61.238281 33.410156 58.824219 31.007813 Z M 58.824219 31.007813 "/>
<path style=" stroke:none;fill-rule:nonzero;fill:rgb(52.54902%,83.921569%,20%);fill-opacity:1;" d="M 56.960938 32.886719 C 55.585938 31.515625 53.367188 31.503906 52.007813 32.867188 C 50.648438 34.230469 50.664063 36.445313 52.039063 37.820313 C 53.414063 39.191406 55.632813 39.203125 56.992188 37.839844 C 58.351563 36.476563 58.335938 34.257813 56.960938 32.886719 Z M 56.960938 32.886719 "/>
<path style=" stroke:none;fill-rule:nonzero;fill:rgb(100%,100%,100%);fill-opacity:1;" d="M 42.933594 18.691406 L 35.15625 10.914063 C 35.046875 10.800781 34.898438 10.738281 34.742188 10.738281 C 34.585938 10.738281 34.4375 10.800781 34.328125 10.914063 L 26.550781 18.691406 C 26.378906 18.855469 26.328125 19.109375 26.417969 19.328125 C 26.507813 19.546875 26.722656 19.691406 26.960938 19.6875 L 31.375 19.6875 C 31.605469 19.6875 31.792969 19.875 31.792969 20.105469 L 31.792969 60.015625 L 37.722656 60.015625 L 37.722656 20.105469 C 37.722656 19.886719 37.890625 19.703125 38.109375 19.6875 L 42.507813 19.6875 C 42.75 19.695313 42.96875 19.554688 43.0625 19.335938 C 43.15625 19.113281 43.105469 18.859375 42.933594 18.691406 Z M 42.933594 18.691406 "/>
<path style=" stroke:none;fill-rule:nonzero;fill:rgb(100%,100%,100%);fill-opacity:1;" d="M 39.078125 50.640625 C 36.664063 48.238281 32.769531 48.238281 30.382813 50.636719 C 27.992188 53.035156 28.007813 56.929688 30.421875 59.332031 C 32.835938 61.734375 36.726563 61.734375 39.117188 59.335938 C 41.507813 56.933594 41.488281 53.042969 39.078125 50.640625 Z M 39.078125 50.640625 "/>
<path style=" stroke:none;fill-rule:nonzero;fill:rgb(52.54902%,83.921569%,20%);fill-opacity:1;" d="M 37.210938 52.519531 C 35.835938 51.148438 33.617188 51.136719 32.257813 52.5 C 30.898438 53.863281 30.914063 56.082031 32.289063 57.453125 C 33.664063 58.824219 35.882813 58.835938 37.242188 57.472656 C 38.601563 56.109375 38.585938 53.894531 37.210938 52.519531 Z M 37.210938 52.519531 "/>
</g>
</svg>
