<?xml version="1.0" encoding="utf-8"?><svg viewBox="0 0 18 18" class="" role="presentation" focusable="false" xmlns="http://www.w3.org/2000/svg" xmlns:xlink="http://www.w3.org/1999/xlink" id="FxSymbol0-06c" data-type="1" width="100%" height="70" preserveAspectRatio="xMidYMid meet"><g><path fill="url(#40fd3475-21aa-4a8a-956c-13a617e350c9)" d="M13.625 6.972a1.093 1.093 0 11-1.1-1.091 1.093 1.093 0 011.1 1.091zM9.032 5.886a1.093 1.093 0 101.094 1.091 1.093 1.093 0 00-1.094-1.091zm-3.494 0a1.093 1.093 0 101.094 1.096 1.093 1.093 0 00-1.094-1.091z"></path><path fill="#77C5FF" d="M6.34 11.357l-.627.629a.284.284 0 01-.402 0L.672 7.361a.568.568 0 010-.804l.626-.628 5.041 5.026a.284.284 0 010 .402z"></path><path fill="#0084E6" d="M5.62 1.978l.628.626a.284.284 0 010 .402L1.296 7.973.67 7.35a.568.568 0 010-.803L5.22 1.98a.284.284 0 01.401 0z"></path><path fill="#77C5FF" d="M16.701 5.93l.627.629a.568.568 0 010 .803l-4.64 4.626a.284.284 0 01-.401 0l-.627-.63a.284.284 0 010-.401l5.041-5.027z"></path><path fill="#0084E6" d="M17.333 7.346l-.629.627-4.953-4.967a.284.284 0 010-.402l.628-.626a.284.284 0 01.402 0l4.552 4.566a.568.568 0 010 .803z"></path><circle cx="13.159" cy="12.336" r="3.769" fill="url(#40fd3475-21aa-4a8a-956c-13a617e350ca)"></circle><path d="M12.789 10.361h-1.12a1.4 1.4 0 00-.217 2.774 1.49 1.49 0 01.017-.52.879.879 0 01.2-1.742h1.117a.885.885 0 010 1.769h-.31a.661.661 0 00-.062.28.637.637 0 00.044.232h.328a1.4 1.4 0 00.058-2.793z" class="msportalfx-svg-c01" fill="#FFFFFF"></path><path d="M14.682 11.543a1.714 1.714 0 01.016.215 1.429 1.429 0 01-.031.305.878.878 0 01-.2 1.74h-1.121a.885.885 0 010-1.768h.308a.655.655 0 00.017-.512h-.323a1.4 1.4 0 000 2.793h1.119a1.4 1.4 0 00.217-2.775z" class="msportalfx-svg-c01" fill="#FFFFFF"></path></g><defs><linearGradient id="40fd3475-21aa-4a8a-956c-13a617e350c9" x1="9.036" x2="9.036" y1="8.077" y2="5.881" gradientUnits="userSpaceOnUse"><stop offset="0" stop-color="#008AF0"></stop><stop offset=".241" stop-color="#1B9EFF"></stop><stop offset=".501" stop-color="#3DACFF"></stop><stop offset=".756" stop-color="#51B5FF"></stop><stop offset="1" stop-color="#59B8FF"></stop></linearGradient><linearGradient id="40fd3475-21aa-4a8a-956c-13a617e350ca" x1="-413.968" x2="-413.968" y1="-221.863" y2="-214.324" gradientTransform="matrix(1 0 0 -1 427.126 -205.758)" gradientUnits="userSpaceOnUse"><stop offset="0" stop-color="#00518E"></stop><stop offset=".126" stop-color="#005FA6"></stop><stop offset=".515" stop-color="#0089EE"></stop><stop offset=".819" stop-color="#199DFF"></stop><stop offset="1" stop-color="#29A4FF"></stop></linearGradient></defs></svg>