<?xml version="1.0" encoding="UTF-8"?>
<svg xmlns="http://www.w3.org/2000/svg" xmlns:xlink="http://www.w3.org/1999/xlink" width="70pt" height="43pt" viewBox="0 0 70 43" version="1.1">
<g id="surface1">
<path style=" stroke:none;fill-rule:nonzero;fill:rgb(40.784314%,12.941176%,47.843137%);fill-opacity:1;" d="M 13.71875 32.042969 L 57.121094 32.042969 L 57.121094 37.3125 L 13.71875 37.3125 Z M 13.71875 32.042969 "/>
<path style=" stroke:none;fill-rule:nonzero;fill:rgb(40.784314%,12.941176%,47.843137%);fill-opacity:1;" d="M 8.566406 30.171875 L 29.554688 9.378906 L 33.316406 13.105469 L 12.328125 33.898438 Z M 8.566406 30.171875 "/>
<path style=" stroke:none;fill-rule:nonzero;fill:rgb(40.784314%,12.941176%,47.843137%);fill-opacity:1;" d="M 40.570313 9.414063 L 61.558594 30.207031 L 57.796875 33.933594 L 36.808594 13.140625 Z M 40.570313 9.414063 "/>
<path style=" stroke:none;fill-rule:nonzero;fill:rgb(49.803922%,72.941176%,0%);fill-opacity:1;" d="M 35 0 C 30.660156 0 27.160156 3.46875 27.160156 7.769531 C 27.160156 12.066406 30.660156 15.535156 35 15.535156 C 39.339844 15.535156 42.839844 12.066406 42.839844 7.769531 C 42.839844 3.46875 39.339844 0 35 0 Z M 35 10.265625 C 33.601563 10.265625 32.480469 9.15625 32.480469 7.769531 C 32.480469 6.378906 33.601563 5.269531 35 5.269531 C 36.398438 5.269531 37.519531 6.378906 37.519531 7.769531 C 37.519531 9.15625 36.398438 10.265625 35 10.265625 Z M 35 10.265625 "/>
<path style=" stroke:none;fill-rule:nonzero;fill:rgb(49.803922%,72.941176%,0%);fill-opacity:1;" d="M 7.839844 26.910156 C 3.5 26.910156 0 30.378906 0 34.675781 C 0 38.976563 3.5 42.445313 7.839844 42.445313 C 12.179688 42.445313 15.679688 38.976563 15.679688 34.675781 C 15.679688 30.378906 12.179688 26.910156 7.839844 26.910156 Z M 7.839844 37.175781 C 6.441406 37.175781 5.320313 36.066406 5.320313 34.675781 C 5.320313 33.289063 6.441406 32.179688 7.839844 32.179688 C 9.238281 32.179688 10.359375 33.289063 10.359375 34.675781 C 10.359375 36.066406 9.238281 37.175781 7.839844 37.175781 Z M 7.839844 37.175781 "/>
<path style=" stroke:none;fill-rule:nonzero;fill:rgb(49.803922%,72.941176%,0%);fill-opacity:1;" d="M 62.160156 26.910156 C 57.820313 26.910156 54.320313 30.378906 54.320313 34.675781 C 54.320313 38.976563 57.820313 42.445313 62.160156 42.445313 C 66.5 42.445313 70 38.976563 70 34.675781 C 70 30.378906 66.5 26.910156 62.160156 26.910156 Z M 62.160156 37.175781 C 60.761719 37.175781 59.640625 36.066406 59.640625 34.675781 C 59.640625 33.289063 60.761719 32.179688 62.160156 32.179688 C 63.558594 32.179688 64.679688 33.289063 64.679688 34.675781 C 64.679688 36.066406 63.558594 37.175781 62.160156 37.175781 Z M 62.160156 37.175781 "/>
</g>
</svg>
