<?xml version="1.0" encoding="UTF-8"?>
<svg xmlns="http://www.w3.org/2000/svg" xmlns:xlink="http://www.w3.org/1999/xlink" width="70pt" height="70pt" viewBox="0 0 70 70" version="1.1">
<g id="surface1">
<path style=" stroke:none;fill-rule:nonzero;fill:rgb(115,195,255);fill-opacity:1;" d="M 52.921875 18.339844 L 48.300781 13.71875 L 33.320313 28.839844 L 48.300781 43.960938 L 52.921875 39.621094 L 42.699219 29.261719 Z M 52.921875 18.339844 "/>
<path style=" stroke:none;fill-rule:nonzero;fill:rgb(115,195,255);fill-opacity:1;" d="M 17.078125 31.078125 L 27.300781 41.300781 L 17.078125 51.660156 L 21.699219 56.28125 L 36.679688 41.160156 L 21.699219 26.039063 Z M 17.078125 31.078125 "/>
<path style=" stroke:none;fill-rule:nonzero;fill:rgb(57,171,255);fill-opacity:1;" d="M 35 0 C 15.539063 0 0 15.960938 0 35 C 0 54.460938 15.960938 70 35 70 C 54.039063 70 70 54.039063 70 35 C 70 15.960938 54.460938 0 35 0 Z M 35 4.621094 C 51.800781 4.621094 65.378906 18.199219 65.378906 35 C 65.378906 51.800781 51.660156 65.378906 35 65.378906 C 18.339844 65.378906 4.621094 51.660156 4.621094 35 C 4.621094 18.339844 18.199219 4.621094 35 4.621094 Z M 35 4.621094 "/>
</g>
</svg>
