<?xml version="1.0" encoding="utf-8"?><svg version="1.1" xmlns="http://www.w3.org/2000/svg" xmlns:xlink="http://www.w3.org/1999/xlink" xmlns:xml="http://www.w3.org/XML/1998/namespace" width="70" height="70" viewBox="0, 0, 18, 18" id="b90f7485-edb8-49cc-9118-bc054cf5c18e"><defs><linearGradient x1="9" y1="15.83" x2="9" y2="5.79" gradientUnits="userSpaceOnUse" id="ad52e31e-75de-46af-9bdc-bea038ab4209"><stop offset="0%" stop-color="#2FA6FF" /><stop offset="18%" stop-color="#3FADFF" /><stop offset="41%" stop-color="#4BB2FF" /><stop offset="78%" stop-color="#4FB4FF" /></linearGradient></defs><title>Icon-networking-69</title><path d="M0.5 5.79 h17 a0 0 0 0 1 0 0 v9.48 a0.57 0.57 0 0 1 -0.57 0.57 H1.07 a0.57 0.57 0 0 1 -0.57 -0.57 V5.79 A0 0 0 0 1 0.5 5.79 Z" style="fill:url(#ad52e31e-75de-46af-9bdc-bea038ab4209);" /><path d="M1.07 2.17 H16.93 a0.57 0.57 0 0 1 0.57 0.57 V5.79 a0 0 0 0 1 0 0 H0.5 a0 0 0 0 1 0 0 V2.73 A0.57 0.57 0 0 1 1.07 2.17 Z" style="fill:#0087EC;" /><circle cx="12.82" cy="10.19" r="1.38" style="fill:#E5F3FF;" /><circle cx="9.06" cy="10.19" r="1.38" style="fill:#E5F3FF;" /><circle cx="5.18" cy="10.19" r="1.38" style="fill:#E5F3FF;" /><rect x="2.79" y="3.25" width="12.43" height="1.46" rx="0.28" style="fill:#E5F3FF;" /></svg>