<?xml version="1.0" encoding="UTF-8"?>
<svg xmlns="http://www.w3.org/2000/svg" xmlns:xlink="http://www.w3.org/1999/xlink" width="70pt" height="70pt" viewBox="0 0 70 70" version="1.1">
<defs>
<linearGradient id="linear0" gradientUnits="userSpaceOnUse" x1="9" y1="17.5" x2="9" y2="0.5" gradientTransform="matrix(3.888889,0,0,3.888889,0,0)">
<stop offset="0.16" style="stop-color:rgb(0,111,194);stop-opacity:1;"/>
<stop offset="0.32" style="stop-color:rgb(0,116,202);stop-opacity:1;"/>
<stop offset="0.51" style="stop-color:rgb(0,131,228);stop-opacity:1;"/>
<stop offset="0.72" style="stop-color:rgb(17,154,255);stop-opacity:1;"/>
<stop offset="0.94" style="stop-color:rgb(77,179,255);stop-opacity:1;"/>
<stop offset="1" style="stop-color:rgb(97,187,255);stop-opacity:1;"/>
</linearGradient>
</defs>
<g id="surface1">
<path style=" stroke:none;fill-rule:nonzero;fill:url(#linear0);" d="M 47.792969 1.945313 L 22.207031 1.945313 C 21.621094 1.945313 21.058594 2.183594 20.648438 2.605469 L 2.605469 20.648438 C 2.183594 21.058594 1.945313 21.621094 1.945313 22.207031 L 1.945313 47.792969 C 1.945313 48.378906 2.183594 48.941406 2.605469 49.351563 L 20.648438 67.394531 C 21.058594 67.816406 21.621094 68.054688 22.207031 68.054688 L 47.792969 68.054688 C 48.378906 68.054688 48.941406 67.816406 49.351563 67.394531 L 67.394531 49.351563 C 67.816406 48.941406 68.054688 48.378906 68.054688 47.792969 L 68.054688 22.207031 C 68.054688 21.621094 67.816406 21.058594 67.394531 20.648438 L 49.351563 2.605469 C 48.941406 2.183594 48.378906 1.945313 47.792969 1.945313 Z M 47.792969 1.945313 "/>
<path style=" stroke:none;fill-rule:nonzero;fill:rgb(229,243,255);fill-opacity:1;" d="M 23.332031 29.710938 L 23.0625 29.984375 L 19.171875 33.871094 C 19.039063 34.03125 19.007813 34.25 19.089844 34.441406 C 19.171875 34.628906 19.355469 34.757813 19.5625 34.765625 L 34.339844 34.765625 C 34.640625 34.765625 34.882813 34.523438 34.882813 34.222656 L 34.882813 19.640625 C 34.9375 19.285156 34.691406 18.953125 34.339844 18.898438 C 33.984375 18.847656 33.652344 19.089844 33.601563 19.445313 L 29.710938 23.332031 L 29.4375 23.605469 C 29.21875 23.804688 28.882813 23.804688 28.660156 23.605469 L 18.667969 13.765625 L 13.339844 19.132813 L 23.332031 28.933594 C 23.53125 29.15625 23.53125 29.488281 23.332031 29.710938 Z M 23.332031 29.710938 "/>
<path style=" stroke:none;fill-rule:nonzero;fill:rgb(229,243,255);fill-opacity:1;" d="M 62.921875 22.984375 L 47.015625 7.078125 C 46.808594 6.875 46.527344 6.761719 46.238281 6.765625 L 23.761719 6.765625 C 23.472656 6.761719 23.191406 6.875 22.984375 7.078125 L 7.078125 22.984375 C 6.875 23.191406 6.761719 23.472656 6.765625 23.761719 L 6.765625 46.238281 C 6.769531 46.527344 6.882813 46.804688 7.078125 47.015625 L 22.984375 62.921875 C 23.191406 63.125 23.472656 63.238281 23.761719 63.234375 L 46.238281 63.234375 C 46.527344 63.238281 46.808594 63.125 47.015625 62.921875 L 62.921875 47.015625 C 63.117188 46.804688 63.230469 46.527344 63.234375 46.238281 L 63.234375 23.761719 C 63.238281 23.472656 63.125 23.191406 62.921875 22.984375 Z M 61.523438 44.179688 L 49.273438 31.929688 L 52.226563 28.933594 C 52.363281 28.816406 52.4375 28.644531 52.4375 28.464844 C 52.4375 28.289063 52.363281 28.117188 52.226563 28 C 52.089844 27.949219 51.9375 27.949219 51.800781 28 L 41.261719 27.726563 C 40.910156 27.726563 40.621094 28 40.601563 28.351563 L 40.871094 38.890625 C 40.871094 39.0625 40.941406 39.226563 41.066406 39.34375 C 41.191406 39.460938 41.363281 39.523438 41.535156 39.511719 C 41.679688 39.585938 41.855469 39.585938 42 39.511719 L 45.304688 36.246094 L 58.332031 49.078125 L 48.457031 58.957031 L 35 45.539063 L 38.109375 42.777344 C 38.246094 42.660156 38.320313 42.488281 38.320313 42.3125 C 38.320313 42.132813 38.246094 41.960938 38.109375 41.84375 C 38 41.726563 37.847656 41.65625 37.683594 41.648438 L 27.222656 41.183594 C 26.871094 41.183594 26.582031 41.457031 26.5625 41.804688 L 26.832031 52.34375 C 26.832031 52.515625 26.902344 52.679688 27.027344 52.796875 C 27.15625 52.917969 27.324219 52.976563 27.496094 52.964844 C 27.667969 52.964844 27.835938 52.894531 27.960938 52.773438 L 31.109375 49.542969 L 43.089844 61.523438 L 23.996094 61.523438 L 8.4375 45.964844 L 8.4375 23.996094 L 13.339844 19.132813 L 18.667969 13.765625 L 23.996094 8.4375 L 46.003906 8.4375 L 61.5625 23.996094 Z M 61.523438 44.179688 "/>
</g>
</svg>
