<?xml version="1.0" encoding="UTF-8"?>
<svg xmlns="http://www.w3.org/2000/svg" xmlns:xlink="http://www.w3.org/1999/xlink" width="70pt" height="70pt" viewBox="0 0 70 70" version="1.1">
<defs>
<filter id="alpha" filterUnits="objectBoundingBox" x="0%" y="0%" width="100%" height="100%">
  <feColorMatrix type="matrix" in="SourceGraphic" values="0 0 0 0 1 0 0 0 0 1 0 0 0 0 1 0 0 0 1 0"/>
</filter>
<mask id="mask0">
  <g filter="url(#alpha)">
<rect x="0" y="0" width="70" height="70" style="fill:rgb(0,0,0);fill-opacity:0.2;stroke:none;"/>
  </g>
</mask>
<clipPath id="clip1">
  <rect x="0" y="0" width="70" height="70"/>
</clipPath>
<g id="surface5" clip-path="url(#clip1)">
<path style=" stroke:none;fill-rule:nonzero;fill:rgb(255,255,255);fill-opacity:1;" d="M 10.25 59.75 C -3.417969 46.082031 -3.417969 23.921875 10.25 10.253906 C 23.917969 -3.414063 46.078125 -3.414063 59.746094 10.253906 Z M 10.25 59.75 "/>
</g>
<mask id="mask1">
  <g filter="url(#alpha)">
<rect x="0" y="0" width="70" height="70" style="fill:rgb(0,0,0);fill-opacity:0.8;stroke:none;"/>
  </g>
</mask>
<clipPath id="clip2">
  <rect x="0" y="0" width="70" height="70"/>
</clipPath>
<g id="surface8" clip-path="url(#clip2)">
<path style=" stroke:none;fill-rule:nonzero;fill:rgb(255,255,255);fill-opacity:1;" d="M 67.199219 34.996094 C 67.199219 27.78125 64.753906 20.828125 60.246094 15.160156 L 59.988281 14.902344 C 59.859375 14.773438 59.859375 14.644531 59.730469 14.515625 L 57.667969 12.324219 C 51.613281 6.144531 43.628906 2.792969 35 2.792969 C 35 2.792969 35 2.792969 34.871094 2.792969 L 34.742188 2.792969 C 26.242188 2.921875 18.386719 6.144531 12.332031 12.195313 L 10.140625 14.515625 C 10.011719 14.644531 10.011719 14.773438 9.882813 14.902344 L 9.625 15.03125 C 5.246094 20.699219 2.800781 27.78125 2.800781 34.996094 C 2.800781 42.207031 5.246094 49.164063 9.753906 54.828125 L 10.011719 55.085938 C 10.140625 55.214844 10.140625 55.34375 10.269531 55.472656 L 12.332031 57.664063 C 18.386719 63.71875 26.242188 67.066406 34.742188 67.066406 L 34.871094 67.066406 C 34.871094 67.066406 34.871094 67.066406 35 67.066406 C 43.5 67.066406 51.613281 63.71875 57.667969 57.664063 L 59.730469 55.34375 C 59.859375 55.214844 59.859375 55.085938 59.988281 54.957031 L 60.246094 54.699219 C 64.753906 49.292969 67.199219 42.207031 67.199219 34.996094 Z M 54.191406 14 C 54.0625 14 53.933594 14.128906 53.804688 14.128906 C 53.546875 14.257813 53.289063 14.386719 53.160156 14.386719 C 52.644531 14.644531 52 14.773438 51.359375 15.03125 C 51.230469 15.03125 51.101563 15.160156 50.972656 15.160156 C 50.199219 15.417969 49.554688 15.546875 48.78125 15.804688 C 48.652344 15.804688 48.394531 15.933594 48.265625 15.933594 C 47.105469 12.839844 45.691406 10.136719 44.015625 8.074219 C 47.75 9.234375 51.230469 11.296875 54.191406 14 Z M 34.742188 6.53125 L 34.871094 6.53125 C 38.347656 6.53125 41.957031 10.265625 44.53125 16.703125 C 41.570313 17.21875 38.347656 17.476563 35 17.476563 C 31.652344 17.476563 28.300781 17.21875 25.210938 16.703125 C 27.660156 10.394531 31.265625 6.660156 34.742188 6.53125 Z M 25.597656 8.203125 C 24.050781 10.265625 22.636719 12.839844 21.476563 15.933594 C 21.347656 15.933594 21.347656 15.933594 21.21875 15.933594 C 20.445313 15.675781 19.671875 15.546875 19.027344 15.289063 C 18.898438 15.289063 18.769531 15.160156 18.640625 15.160156 C 18.128906 14.902344 17.484375 14.644531 16.96875 14.386719 C 16.710938 14.257813 16.582031 14.257813 16.324219 14.128906 C 16.195313 14 16.066406 14 15.808594 13.871094 C 18.769531 11.425781 21.992188 9.363281 25.597656 8.203125 Z M 15.808594 55.988281 C 15.9375 55.988281 16.066406 55.859375 16.195313 55.859375 C 16.453125 55.730469 16.582031 55.730469 16.839844 55.601563 C 17.355469 55.34375 18 55.214844 18.640625 54.957031 C 18.769531 54.957031 18.898438 54.828125 19.027344 54.828125 C 19.800781 54.570313 20.445313 54.441406 21.21875 54.1875 C 21.347656 54.1875 21.347656 54.1875 21.476563 54.1875 C 22.636719 57.148438 24.050781 59.851563 25.597656 61.914063 C 21.992188 60.625 18.640625 58.566406 15.808594 55.988281 Z M 34.871094 63.460938 L 34.742188 63.460938 C 31.265625 63.332031 27.660156 59.722656 25.210938 53.414063 C 28.300781 52.898438 31.652344 52.640625 35 52.640625 C 38.347656 52.640625 41.441406 52.898438 44.53125 53.414063 C 42.085938 59.722656 38.347656 63.460938 34.871094 63.460938 Z M 44.015625 61.914063 C 45.691406 59.851563 47.105469 57.148438 48.265625 54.058594 C 48.394531 54.058594 48.652344 54.1875 48.78125 54.1875 C 49.554688 54.441406 50.328125 54.570313 50.972656 54.828125 C 51.101563 54.828125 51.230469 54.957031 51.359375 54.957031 C 52 55.214844 52.515625 55.34375 53.160156 55.601563 C 53.417969 55.730469 53.546875 55.730469 53.804688 55.859375 C 53.933594 55.859375 54.0625 55.988281 54.320313 56.117188 C 51.230469 58.695313 47.75 60.753906 44.015625 61.914063 Z M 57.023438 53.027344 C 56.636719 53.027344 56.378906 52.898438 55.996094 52.769531 C 55.609375 52.640625 55.09375 52.382813 54.707031 52.253906 C 54.578125 52.253906 54.449219 52.125 54.320313 52.125 C 52.773438 51.480469 51.101563 51.09375 49.425781 50.578125 C 49.8125 49.035156 50.199219 47.488281 50.457031 45.941406 L 46.59375 45.941406 C 46.335938 47.359375 46.078125 48.648438 45.691406 49.804688 C 42.339844 49.164063 38.734375 48.90625 35 48.90625 C 31.136719 48.90625 27.53125 49.292969 24.050781 49.933594 C 23.664063 48.648438 23.40625 47.359375 23.152344 45.941406 L 19.285156 45.941406 C 19.542969 47.617188 19.929688 49.164063 20.316406 50.707031 C 18.769531 51.09375 17.226563 51.609375 15.808594 52.125 C 15.679688 52.253906 15.421875 52.253906 15.292969 52.382813 C 14.90625 52.511719 14.390625 52.769531 14.003906 52.898438 C 13.746094 52.898438 13.363281 53.027344 13.105469 53.15625 C 9.238281 48.519531 7.050781 42.722656 6.664063 36.796875 L 9.882813 36.796875 L 9.882813 33.0625 L 6.664063 33.0625 C 7.050781 27.136719 9.238281 21.46875 12.976563 16.960938 L 13.105469 16.832031 C 13.363281 16.960938 13.746094 17.089844 14.003906 17.21875 C 14.519531 17.476563 14.90625 17.605469 15.421875 17.863281 C 15.550781 17.863281 15.679688 17.992188 15.808594 17.992188 C 17.226563 18.507813 18.769531 19.023438 20.445313 19.410156 C 20.058594 20.828125 19.800781 22.242188 19.542969 23.660156 L 23.40625 23.660156 C 23.664063 22.5 23.921875 21.210938 24.179688 20.183594 C 27.660156 20.828125 31.394531 21.210938 35.128906 21.210938 C 38.863281 21.210938 42.46875 20.828125 45.820313 20.3125 C 46.078125 21.339844 46.335938 22.5 46.59375 23.789063 L 50.457031 23.789063 C 50.199219 22.371094 49.941406 20.957031 49.554688 19.539063 C 51.230469 19.152344 52.773438 18.636719 54.320313 17.992188 C 54.449219 17.992188 54.707031 17.863281 54.835938 17.863281 C 55.351563 17.734375 55.738281 17.476563 56.253906 17.347656 C 56.507813 17.21875 56.894531 17.089844 57.152344 16.960938 C 60.890625 21.597656 63.207031 27.265625 63.59375 33.191406 L 59.730469 33.191406 L 59.730469 36.925781 L 63.59375 36.925781 C 62.949219 42.722656 60.761719 48.519531 57.023438 53.027344 Z M 57.023438 53.027344 "/>
</g>
</defs>
<g id="surface1">
<path style=" stroke:none;fill-rule:nonzero;fill:rgb(0,102,178);fill-opacity:1;" d="M 70 35 C 70 54.328125 54.328125 70 35 70 C 15.671875 70 0 54.328125 0 35 C 0 15.671875 15.671875 0 35 0 C 54.328125 0 70 15.671875 70 35 Z M 70 35 "/>
<use xlink:href="#surface5" mask="url(#mask0)"/>
<use xlink:href="#surface8" mask="url(#mask1)"/>
<path style=" stroke:none;fill-rule:nonzero;fill:rgb(255,255,255);fill-opacity:1;" d="M 26.910156 34.796875 C 26.910156 36.324219 26.710938 37.628906 26.3125 38.710938 C 25.914063 39.796875 25.339844 40.683594 24.597656 41.367188 C 23.851563 42.054688 22.945313 42.558594 21.875 42.878906 C 20.808594 43.199219 19.539063 43.359375 18.0625 43.359375 L 14.089844 43.359375 C 13.808594 43.359375 13.570313 43.277344 13.378906 43.109375 C 13.183594 42.941406 13.089844 42.671875 13.089844 42.292969 L 13.089844 27.789063 C 13.089844 27.410156 13.183594 27.140625 13.378906 26.972656 C 13.570313 26.804688 13.808594 26.722656 14.089844 26.722656 L 18.359375 26.722656 C 19.84375 26.722656 21.101563 26.898438 22.132813 27.246094 C 23.167969 27.59375 24.035156 28.105469 24.746094 28.789063 C 25.453125 29.46875 25.988281 30.3125 26.359375 31.3125 C 26.726563 32.316406 26.910156 33.476563 26.910156 34.796875 Z M 23.414063 34.914063 C 23.414063 34.125 23.320313 33.390625 23.136719 32.714844 C 22.953125 32.039063 22.65625 31.449219 22.25 30.953125 C 21.839844 30.457031 21.320313 30.066406 20.679688 29.789063 C 20.039063 29.507813 19.203125 29.371094 18.164063 29.371094 L 16.453125 29.371094 L 16.453125 40.683594 L 18.21875 40.683594 C 19.140625 40.683594 19.921875 40.566406 20.558594 40.324219 C 21.191406 40.085938 21.722656 39.722656 22.144531 39.238281 C 22.570313 38.753906 22.886719 38.152344 23.097656 37.433594 C 23.308594 36.714844 23.414063 35.875 23.414063 34.914063 Z M 23.414063 34.914063 "/>
<path style=" stroke:none;fill-rule:nonzero;fill:rgb(255,255,255);fill-opacity:1;" d="M 43.40625 42.179688 C 43.40625 42.375 43.375 42.554688 43.304688 42.707031 C 43.234375 42.859375 43.140625 42.988281 43.027344 43.09375 C 42.914063 43.195313 42.773438 43.269531 42.617188 43.316406 C 42.457031 43.363281 42.296875 43.386719 42.132813 43.386719 L 40.695313 43.386719 C 40.394531 43.386719 40.136719 43.359375 39.914063 43.296875 C 39.695313 43.238281 39.492188 43.128906 39.3125 42.96875 C 39.125 42.8125 38.949219 42.597656 38.777344 42.328125 C 38.605469 42.058594 38.414063 41.707031 38.199219 41.277344 L 34.058594 33.5 C 33.820313 33.039063 33.574219 32.539063 33.328125 32 C 33.078125 31.464844 32.855469 30.945313 32.65625 30.4375 L 32.632813 30.4375 C 32.667969 31.054688 32.691406 31.671875 32.710938 32.28125 C 32.726563 32.894531 32.734375 33.527344 32.734375 34.179688 L 32.734375 42.882813 C 32.734375 42.96875 32.710938 43.046875 32.664063 43.117188 C 32.617188 43.183594 32.535156 43.242188 32.417969 43.289063 C 32.300781 43.335938 32.144531 43.375 31.949219 43.398438 C 31.753906 43.421875 31.5 43.4375 31.191406 43.4375 C 30.890625 43.4375 30.640625 43.421875 30.445313 43.398438 C 30.246094 43.371094 30.09375 43.335938 29.980469 43.289063 C 29.871094 43.242188 29.792969 43.183594 29.75 43.117188 C 29.707031 43.046875 29.6875 42.96875 29.6875 42.882813 L 29.6875 27.929688 C 29.6875 27.527344 29.804688 27.226563 30.039063 27.023438 C 30.273438 26.824219 30.5625 26.71875 30.90625 26.71875 L 32.71875 26.71875 C 33.042969 26.71875 33.320313 26.75 33.542969 26.804688 C 33.765625 26.859375 33.960938 26.953125 34.140625 27.082031 C 34.3125 27.210938 34.480469 27.386719 34.632813 27.613281 C 34.789063 27.84375 34.945313 28.125 35.109375 28.457031 L 38.351563 34.539063 C 38.535156 34.90625 38.726563 35.273438 38.910156 35.625 C 39.09375 35.980469 39.269531 36.339844 39.441406 36.695313 C 39.613281 37.050781 39.777344 37.398438 39.945313 37.742188 C 40.105469 38.085938 40.265625 38.425781 40.417969 38.769531 L 40.429688 38.769531 C 40.40625 38.167969 40.386719 37.542969 40.375 36.894531 C 40.359375 36.242188 40.355469 35.621094 40.355469 35.03125 L 40.355469 27.222656 C 40.355469 27.140625 40.378906 27.0625 40.429688 26.992188 C 40.480469 26.921875 40.566406 26.863281 40.6875 26.8125 C 40.808594 26.761719 40.96875 26.722656 41.164063 26.703125 C 41.359375 26.679688 41.613281 26.671875 41.921875 26.671875 C 42.210938 26.671875 42.453125 26.679688 42.652344 26.703125 C 42.851563 26.726563 43.003906 26.761719 43.113281 26.8125 C 43.214844 26.863281 43.292969 26.921875 43.335938 26.992188 C 43.378906 27.0625 43.398438 27.136719 43.398438 27.222656 L 43.398438 42.179688 Z M 43.40625 42.179688 "/>
<path style=" stroke:none;fill-rule:nonzero;fill:rgb(255,255,255);fill-opacity:1;" d="M 56.894531 38.371094 C 56.894531 39.246094 56.730469 40.011719 56.40625 40.671875 C 56.082031 41.332031 55.640625 41.886719 55.082031 42.324219 C 54.527344 42.765625 53.875 43.097656 53.128906 43.320313 C 52.382813 43.542969 51.585938 43.65625 50.734375 43.65625 C 50.160156 43.65625 49.628906 43.605469 49.136719 43.511719 C 48.644531 43.417969 48.207031 43.304688 47.832031 43.171875 C 47.453125 43.039063 47.136719 42.902344 46.886719 42.753906 C 46.632813 42.609375 46.449219 42.480469 46.339844 42.367188 C 46.226563 42.257813 46.148438 42.097656 46.101563 41.886719 C 46.054688 41.675781 46.027344 41.375 46.027344 40.980469 C 46.027344 40.714844 46.039063 40.492188 46.054688 40.3125 C 46.074219 40.132813 46.097656 39.984375 46.140625 39.875 C 46.175781 39.761719 46.230469 39.683594 46.292969 39.636719 C 46.359375 39.589844 46.433594 39.5625 46.519531 39.5625 C 46.640625 39.5625 46.808594 39.636719 47.027344 39.777344 C 47.246094 39.917969 47.527344 40.074219 47.867188 40.246094 C 48.210938 40.417969 48.621094 40.574219 49.097656 40.714844 C 49.570313 40.855469 50.121094 40.925781 50.75 40.925781 C 51.160156 40.925781 51.527344 40.878906 51.851563 40.777344 C 52.179688 40.679688 52.457031 40.542969 52.683594 40.359375 C 52.910156 40.179688 53.082031 39.957031 53.203125 39.691406 C 53.324219 39.425781 53.382813 39.132813 53.382813 38.804688 C 53.382813 38.425781 53.28125 38.105469 53.074219 37.835938 C 52.867188 37.566406 52.597656 37.324219 52.269531 37.113281 C 51.9375 36.902344 51.566406 36.707031 51.144531 36.523438 C 50.726563 36.339844 50.289063 36.144531 49.847656 35.9375 C 49.402344 35.730469 48.96875 35.496094 48.550781 35.238281 C 48.128906 34.976563 47.753906 34.664063 47.425781 34.296875 C 47.09375 33.933594 46.828125 33.5 46.621094 33.003906 C 46.414063 32.507813 46.3125 31.910156 46.3125 31.214844 C 46.3125 30.417969 46.460938 29.71875 46.753906 29.113281 C 47.050781 28.507813 47.449219 28.007813 47.949219 27.609375 C 48.453125 27.210938 49.042969 26.910156 49.726563 26.714844 C 50.40625 26.519531 51.128906 26.417969 51.890625 26.417969 C 52.285156 26.417969 52.679688 26.449219 53.074219 26.507813 C 53.46875 26.570313 53.835938 26.652344 54.179688 26.753906 C 54.519531 26.859375 54.828125 26.972656 55.089844 27.101563 C 55.355469 27.230469 55.535156 27.335938 55.617188 27.421875 C 55.703125 27.507813 55.761719 27.582031 55.792969 27.640625 C 55.820313 27.703125 55.847656 27.78125 55.867188 27.878906 C 55.890625 27.980469 55.90625 28.101563 55.910156 28.253906 C 55.921875 28.402344 55.925781 28.589844 55.925781 28.8125 C 55.925781 29.0625 55.917969 29.273438 55.90625 29.445313 C 55.890625 29.613281 55.871094 29.757813 55.84375 29.867188 C 55.8125 29.976563 55.769531 30.0625 55.714844 30.113281 C 55.65625 30.164063 55.582031 30.191406 55.488281 30.191406 C 55.390625 30.191406 55.242188 30.128906 55.035156 30.011719 C 54.832031 29.890625 54.578125 29.761719 54.277344 29.617188 C 53.976563 29.476563 53.632813 29.347656 53.238281 29.230469 C 52.84375 29.113281 52.410156 29.058594 51.941406 29.058594 C 51.570313 29.058594 51.25 29.101563 50.976563 29.191406 C 50.703125 29.28125 50.472656 29.40625 50.289063 29.566406 C 50.105469 29.726563 49.96875 29.917969 49.878906 30.136719 C 49.789063 30.359375 49.742188 30.597656 49.742188 30.84375 C 49.742188 31.214844 49.84375 31.53125 50.042969 31.804688 C 50.246094 32.074219 50.515625 32.3125 50.855469 32.523438 C 51.195313 32.734375 51.578125 32.929688 52.007813 33.113281 C 52.4375 33.300781 52.871094 33.492188 53.320313 33.699219 C 53.765625 33.90625 54.199219 34.140625 54.628906 34.402344 C 55.058594 34.664063 55.441406 34.976563 55.777344 35.339844 C 56.109375 35.703125 56.378906 36.132813 56.585938 36.625 C 56.792969 37.125 56.894531 37.703125 56.894531 38.371094 Z M 56.894531 38.371094 "/>
</g>
</svg>
