<?xml version="1.0" encoding="UTF-8"?>
<svg xmlns="http://www.w3.org/2000/svg" xmlns:xlink="http://www.w3.org/1999/xlink" width="70pt" height="70pt" viewBox="0 0 70 70" version="1.1">
<defs>
<filter id="alpha" filterUnits="objectBoundingBox" x="0%" y="0%" width="100%" height="100%">
  <feColorMatrix type="matrix" in="SourceGraphic" values="0 0 0 0 1 0 0 0 0 1 0 0 0 0 1 0 0 0 1 0"/>
</filter>
<mask id="mask0">
  <g filter="url(#alpha)">
<rect x="0" y="0" width="70" height="70" style="fill:rgb(0,0,0);fill-opacity:0.2;stroke:none;"/>
  </g>
</mask>
<clipPath id="clip1">
  <rect x="0" y="0" width="70" height="70"/>
</clipPath>
<g id="surface5" clip-path="url(#clip1)">
<path style=" stroke:none;fill-rule:nonzero;fill:rgb(255,255,255);fill-opacity:1;" d="M 8.609375 50.191406 C -2.871094 38.707031 -2.871094 20.09375 8.609375 8.613281 C 20.089844 -2.867188 38.707031 -2.867188 50.1875 8.613281 Z M 8.609375 50.191406 "/>
</g>
<mask id="mask1">
  <g filter="url(#alpha)">
<rect x="0" y="0" width="70" height="70" style="fill:rgb(0,0,0);fill-opacity:0.8;stroke:none;"/>
  </g>
</mask>
<clipPath id="clip2">
  <rect x="0" y="0" width="70" height="70"/>
</clipPath>
<g id="surface8" clip-path="url(#clip2)">
<path style=" stroke:none;fill-rule:nonzero;fill:rgb(255,255,255);fill-opacity:1;" d="M 56.449219 29.394531 C 56.449219 23.335938 54.394531 17.496094 50.605469 12.734375 L 50.390625 12.515625 C 50.28125 12.410156 50.28125 12.300781 50.171875 12.191406 L 48.441406 10.351563 C 43.355469 5.160156 36.648438 2.347656 29.398438 2.347656 C 29.398438 2.347656 29.398438 2.347656 29.292969 2.347656 L 29.183594 2.347656 C 22.042969 2.457031 15.445313 5.160156 10.359375 10.246094 L 8.519531 12.191406 C 8.410156 12.300781 8.410156 12.410156 8.300781 12.515625 L 8.085938 12.625 C 4.40625 17.386719 2.351563 23.335938 2.351563 29.394531 C 2.351563 35.453125 4.40625 41.296875 8.195313 46.054688 L 8.410156 46.273438 C 8.519531 46.378906 8.519531 46.488281 8.628906 46.597656 L 10.359375 48.4375 C 15.445313 53.523438 22.042969 56.335938 29.183594 56.335938 L 29.292969 56.335938 C 29.292969 56.335938 29.292969 56.335938 29.398438 56.335938 C 36.539063 56.335938 43.355469 53.523438 48.441406 48.4375 L 50.171875 46.488281 C 50.28125 46.382813 50.28125 46.273438 50.390625 46.164063 L 50.605469 45.949219 C 54.394531 41.40625 56.449219 35.453125 56.449219 29.394531 Z M 45.519531 11.761719 C 45.414063 11.761719 45.304688 11.867188 45.195313 11.867188 C 44.980469 11.976563 44.761719 12.085938 44.65625 12.085938 C 44.222656 12.300781 43.679688 12.410156 43.140625 12.625 C 43.03125 12.625 42.925781 12.734375 42.816406 12.734375 C 42.167969 12.949219 41.625 13.058594 40.976563 13.273438 C 40.867188 13.273438 40.652344 13.382813 40.542969 13.382813 C 39.570313 10.785156 38.378906 8.511719 36.972656 6.78125 C 40.113281 7.757813 43.03125 9.488281 45.519531 11.761719 Z M 29.183594 5.484375 L 29.289063 5.484375 C 32.210938 5.484375 35.242188 8.621094 37.40625 14.03125 C 34.917969 14.464844 32.210938 14.683594 29.398438 14.683594 C 26.585938 14.683594 23.773438 14.464844 21.175781 14.03125 C 23.234375 8.730469 26.261719 5.59375 29.183594 5.484375 Z M 21.503906 6.890625 C 20.203125 8.621094 19.015625 10.785156 18.039063 13.382813 C 17.933594 13.382813 17.933594 13.382813 17.824219 13.382813 C 17.171875 13.164063 16.527344 13.058594 15.984375 12.84375 C 15.875 12.84375 15.765625 12.734375 15.660156 12.734375 C 15.226563 12.515625 14.683594 12.300781 14.253906 12.085938 C 14.035156 11.976563 13.925781 11.976563 13.710938 11.867188 C 13.605469 11.761719 13.496094 11.761719 13.277344 11.652344 C 15.769531 9.59375 18.472656 7.863281 21.503906 6.890625 Z M 13.277344 47.03125 C 13.386719 47.03125 13.496094 46.921875 13.605469 46.921875 C 13.820313 46.816406 13.929688 46.816406 14.144531 46.707031 C 14.578125 46.488281 15.117188 46.378906 15.660156 46.164063 C 15.765625 46.164063 15.875 46.058594 15.984375 46.058594 C 16.632813 45.839844 17.171875 45.730469 17.824219 45.515625 C 17.929688 45.515625 17.929688 45.515625 18.039063 45.515625 C 19.015625 48.003906 20.203125 50.277344 21.503906 52.007813 C 18.472656 50.925781 15.660156 49.195313 13.277344 47.03125 Z M 29.292969 53.304688 L 29.183594 53.304688 C 26.261719 53.199219 23.234375 50.167969 21.179688 44.867188 C 23.773438 44.433594 26.585938 44.21875 29.398438 44.21875 C 32.210938 44.21875 34.808594 44.433594 37.40625 44.867188 C 35.351563 50.167969 32.210938 53.304688 29.292969 53.304688 Z M 36.972656 52.007813 C 38.382813 50.277344 39.570313 48.003906 40.542969 45.40625 C 40.652344 45.40625 40.867188 45.515625 40.976563 45.515625 C 41.625 45.730469 42.273438 45.839844 42.816406 46.054688 C 42.925781 46.054688 43.03125 46.164063 43.140625 46.164063 C 43.679688 46.378906 44.117188 46.488281 44.65625 46.703125 C 44.871094 46.8125 44.980469 46.8125 45.195313 46.921875 C 45.304688 46.921875 45.414063 47.027344 45.628906 47.136719 C 43.03125 49.300781 40.113281 51.035156 36.972656 52.007813 Z M 47.902344 44.542969 C 47.578125 44.542969 47.359375 44.433594 47.035156 44.324219 C 46.710938 44.21875 46.277344 44 45.953125 43.894531 C 45.847656 43.894531 45.738281 43.785156 45.628906 43.785156 C 44.332031 43.246094 42.925781 42.917969 41.515625 42.488281 C 41.84375 41.1875 42.167969 39.890625 42.382813 38.59375 L 39.136719 38.59375 C 38.921875 39.78125 38.703125 40.863281 38.378906 41.835938 C 35.566406 41.296875 32.539063 41.082031 29.398438 41.082031 C 26.15625 41.082031 23.125 41.40625 20.203125 41.945313 C 19.878906 40.863281 19.664063 39.78125 19.445313 38.589844 L 16.199219 38.589844 C 16.417969 39.996094 16.742188 41.296875 17.066406 42.59375 C 15.769531 42.917969 14.46875 43.351563 13.277344 43.785156 C 13.171875 43.890625 12.953125 43.890625 12.847656 44 C 12.523438 44.109375 12.089844 44.324219 11.765625 44.433594 C 11.546875 44.433594 11.222656 44.539063 11.007813 44.648438 C 7.761719 40.753906 5.921875 35.886719 5.597656 30.910156 L 8.300781 30.910156 L 8.300781 27.773438 L 5.597656 27.773438 C 5.921875 22.792969 7.761719 18.035156 10.898438 14.246094 L 11.007813 14.140625 C 11.222656 14.246094 11.546875 14.355469 11.765625 14.464844 C 12.195313 14.683594 12.523438 14.789063 12.953125 15.003906 C 13.0625 15.003906 13.171875 15.113281 13.277344 15.113281 C 14.46875 15.546875 15.765625 15.976563 17.171875 16.304688 C 16.847656 17.492188 16.632813 18.683594 16.417969 19.871094 L 19.660156 19.871094 C 19.878906 18.898438 20.09375 17.816406 20.3125 16.953125 C 23.234375 17.492188 26.371094 17.816406 29.507813 17.816406 C 32.644531 17.816406 35.675781 17.492188 38.488281 17.058594 C 38.703125 17.925781 38.921875 18.898438 39.136719 19.980469 L 42.382813 19.980469 C 42.164063 18.789063 41.949219 17.601563 41.625 16.410156 C 43.03125 16.085938 44.328125 15.652344 45.628906 15.113281 C 45.734375 15.113281 45.953125 15.003906 46.058594 15.003906 C 46.492188 14.898438 46.816406 14.679688 47.25 14.574219 C 47.46875 14.464844 47.789063 14.355469 48.007813 14.246094 C 51.144531 18.144531 53.09375 22.902344 53.417969 27.878906 L 50.171875 27.878906 L 50.171875 31.015625 L 53.417969 31.015625 C 52.878906 35.886719 51.039063 40.753906 47.902344 44.542969 Z M 47.902344 44.542969 "/>
</g>
</defs>
<g id="surface1">
<path style=" stroke:none;fill-rule:nonzero;fill:rgb(0,102,178);fill-opacity:1;" d="M 58.800781 29.398438 C 58.800781 45.636719 45.636719 58.800781 29.398438 58.800781 C 13.164063 58.800781 0 45.636719 0 29.398438 C 0 13.164063 13.164063 0 29.398438 0 C 45.636719 0 58.800781 13.164063 58.800781 29.398438 Z M 58.800781 29.398438 "/>
<use xlink:href="#surface5" mask="url(#mask0)"/>
<use xlink:href="#surface8" mask="url(#mask1)"/>
<path style=" stroke:none;fill-rule:nonzero;fill:rgb(255,255,255);fill-opacity:1;" d="M 22.605469 29.230469 C 22.605469 30.511719 22.4375 31.609375 22.101563 32.519531 C 21.765625 33.429688 21.285156 34.171875 20.660156 34.746094 C 20.03125 35.324219 19.273438 35.746094 18.375 36.015625 C 17.480469 36.285156 16.410156 36.421875 15.171875 36.421875 L 11.835938 36.421875 C 11.601563 36.421875 11.398438 36.351563 11.238281 36.210938 C 11.074219 36.070313 10.996094 35.839844 10.996094 35.523438 L 10.996094 23.34375 C 10.996094 23.023438 11.078125 22.796875 11.238281 22.65625 C 11.398438 22.515625 11.601563 22.445313 11.835938 22.445313 L 15.421875 22.445313 C 16.667969 22.445313 17.726563 22.59375 18.59375 22.882813 C 19.460938 23.175781 20.191406 23.609375 20.789063 24.179688 C 21.378906 24.753906 21.832031 25.460938 22.144531 26.300781 C 22.449219 27.144531 22.605469 28.121094 22.605469 29.230469 Z M 19.667969 29.328125 C 19.667969 28.664063 19.589844 28.050781 19.433594 27.480469 C 19.28125 26.910156 19.03125 26.417969 18.6875 26 C 18.347656 25.582031 17.90625 25.257813 17.371094 25.023438 C 16.832031 24.785156 16.128906 24.671875 15.257813 24.671875 L 13.820313 24.671875 L 13.820313 34.175781 L 15.304688 34.175781 C 16.082031 34.175781 16.734375 34.074219 17.269531 33.871094 C 17.800781 33.671875 18.246094 33.367188 18.601563 32.960938 C 18.960938 32.554688 19.226563 32.046875 19.402344 31.441406 C 19.578125 30.839844 19.667969 30.132813 19.667969 29.328125 Z M 19.667969 29.328125 "/>
<path style=" stroke:none;fill-rule:nonzero;fill:rgb(255,255,255);fill-opacity:1;" d="M 36.460938 35.429688 C 36.460938 35.597656 36.433594 35.746094 36.375 35.875 C 36.316406 36.003906 36.242188 36.109375 36.140625 36.199219 C 36.046875 36.285156 35.929688 36.347656 35.796875 36.386719 C 35.664063 36.425781 35.527344 36.445313 35.390625 36.445313 L 34.183594 36.445313 C 33.929688 36.445313 33.714844 36.421875 33.527344 36.371094 C 33.34375 36.320313 33.175781 36.226563 33.019531 36.09375 C 32.863281 35.960938 32.714844 35.78125 32.574219 35.554688 C 32.429688 35.328125 32.265625 35.035156 32.089844 34.671875 L 28.609375 28.136719 C 28.40625 27.75 28.203125 27.332031 27.996094 26.878906 C 27.785156 26.429688 27.597656 25.992188 27.429688 25.566406 L 27.410156 25.566406 C 27.441406 26.085938 27.460938 26.601563 27.476563 27.117188 C 27.492188 27.628906 27.496094 28.164063 27.496094 28.707031 L 27.496094 36.019531 C 27.496094 36.09375 27.476563 36.15625 27.4375 36.214844 C 27.398438 36.273438 27.328125 36.320313 27.230469 36.359375 C 27.132813 36.402344 27 36.429688 26.839844 36.453125 C 26.671875 36.472656 26.460938 36.484375 26.199219 36.484375 C 25.949219 36.484375 25.742188 36.472656 25.574219 36.453125 C 25.410156 36.429688 25.277344 36.398438 25.1875 36.359375 C 25.09375 36.320313 25.027344 36.273438 24.992188 36.214844 C 24.957031 36.15625 24.9375 36.09375 24.9375 36.019531 L 24.9375 23.460938 C 24.9375 23.121094 25.035156 22.867188 25.234375 22.699219 C 25.429688 22.53125 25.675781 22.445313 25.964844 22.445313 L 27.484375 22.445313 C 27.757813 22.445313 27.988281 22.46875 28.175781 22.515625 C 28.363281 22.5625 28.53125 22.636719 28.679688 22.746094 C 28.824219 22.855469 28.96875 23.003906 29.09375 23.195313 C 29.222656 23.386719 29.355469 23.621094 29.492188 23.902344 L 32.21875 29.011719 C 32.375 29.320313 32.53125 29.625 32.6875 29.925781 C 32.839844 30.222656 32.992188 30.523438 33.132813 30.824219 C 33.277344 31.121094 33.417969 31.414063 33.554688 31.703125 C 33.691406 31.988281 33.824219 32.277344 33.953125 32.566406 L 33.964844 32.566406 C 33.945313 32.0625 33.925781 31.535156 33.917969 30.988281 C 33.90625 30.441406 33.902344 29.917969 33.902344 29.421875 L 33.902344 22.867188 C 33.902344 22.796875 33.921875 22.730469 33.964844 22.671875 C 34.007813 22.617188 34.082031 22.566406 34.183594 22.523438 C 34.28125 22.476563 34.417969 22.449219 34.582031 22.429688 C 34.746094 22.410156 34.960938 22.402344 35.21875 22.402344 C 35.464844 22.402344 35.667969 22.410156 35.832031 22.429688 C 36 22.449219 36.125 22.476563 36.21875 22.523438 C 36.304688 22.566406 36.371094 22.613281 36.40625 22.671875 C 36.441406 22.730469 36.460938 22.792969 36.460938 22.867188 Z M 36.460938 35.429688 "/>
<path style=" stroke:none;fill-rule:nonzero;fill:rgb(255,255,255);fill-opacity:1;" d="M 47.792969 32.230469 C 47.792969 32.96875 47.65625 33.609375 47.382813 34.164063 C 47.109375 34.71875 46.738281 35.183594 46.269531 35.554688 C 45.800781 35.925781 45.253906 36.203125 44.628906 36.390625 C 44.003906 36.578125 43.332031 36.671875 42.617188 36.671875 C 42.136719 36.671875 41.6875 36.628906 41.273438 36.550781 C 40.859375 36.472656 40.496094 36.378906 40.179688 36.265625 C 39.859375 36.152344 39.597656 36.039063 39.386719 35.914063 C 39.171875 35.792969 39.019531 35.683594 38.925781 35.589844 C 38.832031 35.496094 38.765625 35.359375 38.726563 35.183594 C 38.6875 35.007813 38.664063 34.753906 38.664063 34.421875 C 38.664063 34.199219 38.671875 34.011719 38.6875 33.863281 C 38.703125 33.710938 38.722656 33.585938 38.757813 33.492188 C 38.789063 33.402344 38.832031 33.335938 38.886719 33.292969 C 38.941406 33.253906 39.003906 33.234375 39.074219 33.234375 C 39.175781 33.234375 39.320313 33.292969 39.5 33.414063 C 39.683594 33.53125 39.921875 33.664063 40.210938 33.804688 C 40.496094 33.949219 40.839844 34.082031 41.242188 34.199219 C 41.640625 34.316406 42.105469 34.378906 42.628906 34.378906 C 42.972656 34.378906 43.285156 34.335938 43.558594 34.253906 C 43.828125 34.167969 44.0625 34.054688 44.253906 33.902344 C 44.441406 33.75 44.585938 33.566406 44.6875 33.339844 C 44.789063 33.117188 44.839844 32.871094 44.839844 32.59375 C 44.839844 32.277344 44.753906 32.007813 44.582031 31.78125 C 44.40625 31.554688 44.179688 31.351563 43.902344 31.171875 C 43.625 30.996094 43.3125 30.832031 42.960938 30.679688 C 42.605469 30.523438 42.242188 30.359375 41.867188 30.183594 C 41.492188 30.011719 41.128906 29.816406 40.777344 29.597656 C 40.425781 29.378906 40.109375 29.117188 39.832031 28.808594 C 39.554688 28.503906 39.332031 28.136719 39.15625 27.722656 C 38.984375 27.304688 38.894531 26.804688 38.894531 26.21875 C 38.894531 25.550781 39.019531 24.960938 39.269531 24.453125 C 39.519531 23.945313 39.851563 23.523438 40.273438 23.1875 C 40.695313 22.855469 41.191406 22.601563 41.761719 22.4375 C 42.335938 22.273438 42.945313 22.191406 43.582031 22.191406 C 43.914063 22.191406 44.246094 22.214844 44.574219 22.265625 C 44.90625 22.316406 45.21875 22.382813 45.503906 22.472656 C 45.792969 22.558594 46.046875 22.65625 46.269531 22.761719 C 46.496094 22.871094 46.640625 22.960938 46.714844 23.03125 C 46.785156 23.105469 46.835938 23.164063 46.859375 23.214844 C 46.882813 23.265625 46.90625 23.332031 46.921875 23.417969 C 46.941406 23.5 46.953125 23.605469 46.960938 23.730469 C 46.96875 23.855469 46.972656 24.011719 46.972656 24.199219 C 46.972656 24.410156 46.964844 24.585938 46.953125 24.730469 C 46.941406 24.871094 46.921875 24.992188 46.898438 25.085938 C 46.875 25.179688 46.839844 25.25 46.792969 25.292969 C 46.746094 25.335938 46.679688 25.355469 46.601563 25.355469 C 46.523438 25.355469 46.398438 25.308594 46.226563 25.207031 C 46.054688 25.105469 45.839844 24.996094 45.589844 24.875 C 45.335938 24.757813 45.046875 24.648438 44.714844 24.550781 C 44.382813 24.453125 44.019531 24.40625 43.625 24.40625 C 43.316406 24.40625 43.042969 24.441406 42.816406 24.519531 C 42.582031 24.59375 42.390625 24.699219 42.238281 24.832031 C 42.082031 24.964844 41.96875 25.125 41.890625 25.3125 C 41.816406 25.5 41.777344 25.699219 41.777344 25.90625 C 41.777344 26.214844 41.863281 26.480469 42.03125 26.710938 C 42.203125 26.9375 42.429688 27.140625 42.710938 27.316406 C 42.996094 27.492188 43.320313 27.65625 43.679688 27.8125 C 44.039063 27.964844 44.40625 28.128906 44.78125 28.304688 C 45.15625 28.476563 45.523438 28.671875 45.882813 28.890625 C 46.242188 29.113281 46.5625 29.375 46.84375 29.679688 C 47.125 29.988281 47.351563 30.347656 47.527344 30.761719 C 47.703125 31.183594 47.792969 31.671875 47.792969 32.230469 Z M 47.792969 32.230469 "/>
<path style=" stroke:none;fill-rule:nonzero;fill:rgb(0,33,58);fill-opacity:1;" d="M 68.601563 51.800781 C 68.601563 61.078125 61.078125 68.601563 51.800781 68.601563 C 42.523438 68.601563 35 61.078125 35 51.800781 C 35 42.523438 42.523438 35 51.800781 35 C 61.078125 35 68.601563 42.523438 68.601563 51.800781 Z M 68.601563 51.800781 "/>
<path style=" stroke:none;fill-rule:nonzero;fill:rgb(203,232,255);fill-opacity:1;" d="M 51.800781 36.398438 C 60.289063 36.398438 67.199219 43.308594 67.199219 51.800781 C 67.199219 60.289063 60.289063 67.199219 51.800781 67.199219 C 43.308594 67.199219 36.398438 60.289063 36.398438 51.800781 C 36.398438 43.308594 43.308594 36.398438 51.800781 36.398438 M 51.800781 33.601563 C 41.746094 33.601563 33.601563 41.746094 33.601563 51.800781 C 33.601563 61.851563 41.746094 70 51.800781 70 C 61.851563 70 70 61.851563 70 51.800781 C 70 41.746094 61.851563 33.601563 51.800781 33.601563 Z M 51.800781 33.601563 "/>
<path style=" stroke:none;fill-rule:nonzero;fill:rgb(203,232,255);fill-opacity:1;" d="M 56.269531 59.375 C 55.820313 59.375 55.394531 59.160156 55.128906 58.796875 L 51.800781 54.242188 L 48.46875 58.796875 C 48.207031 59.160156 47.777344 59.375 47.328125 59.375 C 47.027344 59.375 46.742188 59.28125 46.496094 59.105469 C 46.191406 58.882813 45.992188 58.554688 45.933594 58.179688 C 45.875 57.808594 45.96875 57.4375 46.191406 57.132813 L 49.621094 52.4375 L 44.460938 50.929688 C 43.710938 50.710938 43.28125 49.925781 43.5 49.179688 C 43.675781 48.578125 44.230469 48.160156 44.855469 48.160156 C 44.988281 48.160156 45.121094 48.179688 45.25 48.21875 L 50.390625 49.71875 L 50.390625 44.015625 C 50.390625 43.238281 51.023438 42.605469 51.800781 42.605469 C 52.582031 42.605469 53.214844 43.238281 53.214844 44.015625 L 53.214844 49.714844 L 58.351563 48.21875 C 58.480469 48.179688 58.613281 48.160156 58.75 48.160156 C 59.371094 48.160156 59.929688 48.578125 60.101563 49.179688 C 60.320313 49.925781 59.890625 50.710938 59.144531 50.929688 L 53.980469 52.4375 L 57.410156 57.132813 C 57.632813 57.433594 57.726563 57.804688 57.667969 58.179688 C 57.609375 58.554688 57.410156 58.882813 57.105469 59.101563 C 56.859375 59.28125 56.570313 59.375 56.269531 59.375 Z M 56.269531 59.375 "/>
<path style=" stroke:none;fill-rule:nonzero;fill:rgb(255,255,255);fill-opacity:1;" d="M 51.800781 51.800781 L 46.496094 59.105469 C 46.191406 58.882813 45.992188 58.554688 45.933594 58.179688 C 45.875 57.808594 45.96875 57.4375 46.191406 57.132813 L 49.621094 52.4375 L 44.460938 50.929688 C 43.710938 50.710938 43.28125 49.925781 43.5 49.179688 C 43.675781 48.578125 44.230469 48.160156 44.855469 48.160156 C 44.988281 48.160156 45.121094 48.179688 45.25 48.21875 L 50.390625 49.71875 L 50.390625 44.015625 C 50.390625 43.238281 51.023438 42.605469 51.800781 42.605469 Z M 51.800781 51.800781 "/>
</g>
</svg>
