<?xml version="1.0" encoding="UTF-8"?>
<svg xmlns="http://www.w3.org/2000/svg" xmlns:xlink="http://www.w3.org/1999/xlink" width="70pt" height="70pt" viewBox="0 0 70 70" version="1.1">
<g id="surface1">
<path style=" stroke:none;fill-rule:nonzero;fill:rgb(34.901961%,70.588235%,85.098039%);fill-opacity:1;" d="M 0.699219 63.140625 C 0.699219 64.679688 1.960938 65.941406 3.5 65.941406 L 67.898438 65.941406 C 69.441406 65.941406 70.699219 64.679688 70.699219 63.140625 L 70.699219 19.320313 L 0.699219 19.320313 Z M 0.699219 63.140625 "/>
<path style=" stroke:none;fill-rule:nonzero;fill:rgb(0%,44.705882%,77.647059%);fill-opacity:1;" d="M 67.898438 6.300781 L 3.5 6.300781 C 1.960938 6.300781 0.699219 7.558594 0.699219 9.101563 L 0.699219 23.941406 L 70.699219 23.941406 L 70.699219 9.101563 C 70.699219 7.558594 69.441406 6.300781 67.898438 6.300781 "/>
<path style=" stroke:none;fill-rule:nonzero;fill:rgb(100%,100%,100%);fill-opacity:1;" d="M 18.761719 13.019531 L 65.941406 13.019531 L 65.941406 18.480469 L 18.761719 18.480469 Z M 18.761719 13.019531 "/>
<path style=" stroke:none;fill-rule:nonzero;fill:rgb(34.901961%,70.588235%,85.098039%);fill-opacity:1;" d="M 16.519531 15.679688 C 16.519531 19.460938 13.441406 22.539063 9.660156 22.539063 C 5.878906 22.539063 2.800781 19.460938 2.800781 15.679688 C 2.800781 11.898438 5.878906 8.820313 9.660156 8.820313 C 13.441406 8.820313 16.519531 11.898438 16.519531 15.679688 "/>
<path style=" stroke:none;fill-rule:nonzero;fill:rgb(100%,100%,100%);fill-opacity:1;" d="M 8.960938 16.378906 L 12.039063 19.738281 L 10.359375 19.738281 L 6.300781 15.820313 L 10.359375 11.761719 L 12.039063 11.761719 L 8.960938 15.121094 L 16.519531 15.121094 L 16.519531 16.378906 Z M 8.960938 16.378906 "/>
<path style=" stroke:none;fill-rule:nonzero;fill:rgb(0%,44.705882%,77.647059%);fill-opacity:1;" d="M 25.058594 51.238281 C 25.058594 52.078125 24.78125 52.640625 24.21875 53.199219 C 23.660156 53.761719 22.960938 53.898438 21.980469 53.898438 C 21.140625 53.898438 20.441406 53.621094 19.878906 53.058594 C 19.320313 52.5 19.039063 51.941406 19.039063 51.101563 C 19.039063 50.261719 19.320313 49.699219 19.878906 49.140625 C 20.441406 48.578125 21.140625 48.441406 22.121094 48.441406 C 22.960938 48.441406 23.660156 48.71875 24.21875 49.28125 C 24.78125 49.839844 25.058594 50.398438 25.058594 51.238281 Z M 25.058594 51.238281 "/>
<path style=" stroke:none;fill-rule:nonzero;fill:rgb(0%,44.705882%,77.647059%);fill-opacity:1;" d="M 37.519531 51.238281 C 37.519531 52.078125 37.238281 52.640625 36.679688 53.199219 C 36.121094 53.761719 35.421875 53.898438 34.441406 53.898438 C 33.601563 53.898438 32.898438 53.621094 32.339844 53.058594 C 31.78125 52.5 31.5 51.941406 31.5 51.101563 C 31.5 50.261719 31.78125 49.699219 32.339844 49.140625 C 32.898438 48.578125 33.601563 48.441406 34.578125 48.441406 C 35.421875 48.441406 36.121094 48.71875 36.679688 49.28125 C 37.238281 49.839844 37.519531 50.398438 37.519531 51.238281 Z M 37.519531 51.238281 "/>
<path style=" stroke:none;fill-rule:nonzero;fill:rgb(0%,44.705882%,77.647059%);fill-opacity:1;" d="M 49.980469 51.238281 C 49.980469 52.078125 49.699219 52.640625 49.140625 53.199219 C 48.578125 53.761719 47.878906 53.898438 46.898438 53.898438 C 46.058594 53.898438 45.359375 53.621094 44.800781 53.058594 C 44.238281 52.5 43.960938 51.941406 43.960938 51.101563 C 43.960938 50.261719 44.238281 49.699219 44.800781 49.140625 C 45.359375 48.578125 46.058594 48.441406 47.039063 48.441406 C 47.878906 48.441406 48.578125 48.71875 49.140625 49.28125 C 49.699219 49.839844 49.980469 50.398438 49.980469 51.238281 Z M 49.980469 51.238281 "/>
</g>
</svg>
