<?xml version="1.0" encoding="UTF-8"?>
<svg xmlns="http://www.w3.org/2000/svg" xmlns:xlink="http://www.w3.org/1999/xlink" width="70pt" height="70pt" viewBox="0 0 70 70" version="1.1">
<g id="surface1">
<path style=" stroke:none;fill-rule:nonzero;fill:rgb(0%,47.058824%,84.313725%);fill-opacity:1;" d="M 70 35 C 70 27.160156 67.339844 19.601563 62.441406 13.441406 L 62.160156 13.160156 C 62.019531 13.019531 62.019531 12.878906 61.878906 12.738281 L 59.640625 10.359375 C 53.058594 3.640625 44.378906 0 35 0 C 35 0 35 0 34.859375 0 L 34.71875 0 C 25.480469 0.140625 16.941406 3.640625 10.359375 10.21875 L 7.980469 12.738281 C 7.839844 12.878906 7.839844 13.019531 7.699219 13.160156 L 7.421875 13.300781 C 2.660156 19.460938 0 27.160156 0 35 C 0 42.839844 2.660156 50.398438 7.558594 56.558594 L 7.839844 56.839844 C 7.980469 56.980469 7.980469 57.121094 8.121094 57.261719 L 10.359375 59.640625 C 16.941406 66.21875 25.480469 69.859375 34.71875 69.859375 L 34.859375 69.859375 C 34.859375 69.859375 34.859375 69.859375 35 69.859375 C 44.238281 69.859375 53.058594 66.21875 59.640625 59.640625 L 61.878906 57.121094 C 62.019531 56.980469 62.019531 56.839844 62.160156 56.699219 L 62.441406 56.421875 C 67.339844 50.539063 70 42.839844 70 35 Z M 55.859375 12.179688 C 55.71875 12.179688 55.578125 12.320313 55.441406 12.320313 C 55.160156 12.460938 54.878906 12.601563 54.738281 12.601563 C 54.179688 12.878906 53.480469 13.019531 52.78125 13.300781 C 52.640625 13.300781 52.5 13.441406 52.359375 13.441406 C 51.519531 13.71875 50.820313 13.859375 49.980469 14.140625 C 49.839844 14.140625 49.558594 14.28125 49.421875 14.28125 C 48.160156 10.921875 46.621094 7.980469 44.800781 5.738281 C 48.859375 7 52.640625 9.238281 55.859375 12.179688 Z M 34.71875 4.058594 C 38.640625 4.058594 42.558594 8.121094 45.359375 15.121094 C 42.140625 15.679688 38.640625 15.960938 35 15.960938 C 31.359375 15.960938 27.71875 15.679688 24.359375 15.121094 C 27.019531 8.261719 30.941406 4.199219 34.71875 4.058594 Z M 24.78125 5.878906 C 23.101563 8.121094 21.558594 10.921875 20.300781 14.28125 C 20.160156 14.28125 20.160156 14.28125 20.019531 14.28125 C 19.179688 14 18.339844 13.859375 17.640625 13.578125 C 17.5 13.578125 17.359375 13.441406 17.21875 13.441406 C 16.660156 13.160156 15.960938 12.878906 15.398438 12.601563 C 15.121094 12.460938 14.980469 12.460938 14.699219 12.320313 C 14.558594 12.179688 14.421875 12.179688 14.140625 12.039063 C 17.359375 9.378906 20.859375 7.140625 24.78125 5.878906 Z M 14.140625 57.820313 C 14.28125 57.820313 14.421875 57.679688 14.558594 57.679688 C 14.839844 57.539063 14.980469 57.539063 15.261719 57.398438 C 15.820313 57.121094 16.519531 56.980469 17.21875 56.699219 C 17.359375 56.699219 17.5 56.558594 17.640625 56.558594 C 18.480469 56.28125 19.179688 56.140625 20.019531 55.859375 C 20.160156 55.859375 20.160156 55.859375 20.300781 55.859375 C 21.558594 59.078125 23.101563 62.019531 24.78125 64.261719 C 20.859375 62.859375 17.21875 60.621094 14.140625 57.820313 Z M 34.859375 65.941406 C 30.941406 65.800781 27.019531 61.878906 24.359375 55.019531 C 27.71875 54.460938 31.359375 54.179688 35 54.179688 C 38.640625 54.179688 42 54.460938 45.359375 55.019531 C 42.699219 61.878906 38.640625 65.941406 34.859375 65.941406 Z M 44.800781 64.261719 C 46.621094 62.019531 48.160156 59.078125 49.421875 55.71875 C 49.558594 55.71875 49.839844 55.859375 49.980469 55.859375 C 50.820313 56.140625 51.660156 56.28125 52.359375 56.558594 C 52.5 56.558594 52.640625 56.699219 52.78125 56.699219 C 53.480469 56.980469 54.039063 57.121094 54.738281 57.398438 C 55.019531 57.539063 55.160156 57.539063 55.441406 57.679688 C 55.578125 57.679688 55.71875 57.820313 56 57.960938 C 52.640625 60.761719 48.859375 63 44.800781 64.261719 Z M 58.941406 54.601563 C 58.519531 54.601563 58.238281 54.460938 57.820313 54.320313 C 57.398438 54.179688 56.839844 53.898438 56.421875 53.761719 C 56.28125 53.761719 56.140625 53.621094 56 53.621094 C 54.320313 52.921875 52.5 52.5 50.679688 51.941406 C 51.101563 50.261719 51.519531 48.578125 51.800781 46.898438 L 47.601563 46.898438 C 47.320313 48.441406 47.039063 49.839844 46.621094 51.101563 C 42.980469 50.398438 39.058594 50.121094 35 50.121094 C 30.800781 50.121094 26.878906 50.539063 23.101563 51.238281 C 22.679688 49.839844 22.398438 48.441406 22.121094 46.898438 L 17.921875 46.898438 C 18.199219 48.71875 18.621094 50.398438 19.039063 52.078125 C 17.359375 52.5 15.679688 53.058594 14.140625 53.621094 C 14 53.761719 13.71875 53.761719 13.578125 53.898438 C 13.160156 54.039063 12.601563 54.320313 12.179688 54.460938 C 11.898438 54.460938 11.480469 54.601563 11.199219 54.738281 C 7 49.699219 4.621094 43.398438 4.199219 36.960938 L 7.699219 36.960938 L 7.699219 32.898438 L 4.199219 32.898438 C 4.621094 26.460938 7 20.300781 11.058594 15.398438 L 11.199219 15.261719 C 11.480469 15.398438 11.898438 15.539063 12.179688 15.679688 C 12.738281 15.960938 13.160156 16.101563 13.71875 16.378906 C 13.859375 16.378906 14 16.519531 14.140625 16.519531 C 15.679688 17.078125 17.359375 17.640625 19.179688 18.058594 C 18.761719 19.601563 18.480469 21.140625 18.199219 22.679688 L 22.398438 22.679688 C 22.679688 21.421875 22.960938 20.019531 23.238281 18.898438 C 27.019531 19.601563 31.078125 20.019531 35.140625 20.019531 C 39.199219 20.019531 43.121094 19.601563 46.761719 19.039063 C 47.039063 20.160156 47.320313 21.421875 47.601563 22.820313 L 51.800781 22.820313 C 51.519531 21.28125 51.238281 19.738281 50.820313 18.199219 C 52.640625 17.78125 54.320313 17.21875 56 16.519531 C 56.140625 16.519531 56.421875 16.378906 56.558594 16.378906 C 57.121094 16.238281 57.539063 15.960938 58.101563 15.820313 C 58.378906 15.679688 58.800781 15.539063 59.078125 15.398438 C 63.140625 20.441406 65.660156 26.601563 66.078125 33.039063 L 61.878906 33.039063 L 61.878906 37.101563 L 66.078125 37.101563 C 65.378906 43.398438 63 49.699219 58.941406 54.601563 Z M 58.941406 54.601563 "/>
<path style=" stroke:none;fill-rule:nonzero;fill:rgb(0%,47.058824%,84.313725%);fill-opacity:1;" d="M 26.179688 34.71875 C 26.179688 36.398438 25.898438 37.800781 25.480469 38.921875 C 25.058594 40.039063 24.359375 41.019531 23.660156 41.859375 C 22.820313 42.558594 21.839844 43.121094 20.71875 43.539063 C 19.601563 43.820313 18.199219 44.101563 16.519531 44.101563 L 12.179688 44.101563 C 11.898438 44.101563 11.621094 43.960938 11.339844 43.820313 C 11.058594 43.679688 11.199219 43.261719 11.199219 42.839844 L 11.199219 27.019531 C 11.199219 26.601563 11.339844 26.320313 11.480469 26.179688 C 11.621094 26.039063 11.898438 25.898438 12.320313 25.898438 L 16.941406 25.898438 C 18.621094 25.898438 19.878906 26.039063 21 26.460938 C 22.121094 26.878906 23.101563 27.441406 23.800781 28.140625 C 24.5 28.839844 25.199219 29.820313 25.621094 30.941406 C 25.898438 32.058594 26.179688 33.320313 26.179688 34.71875 Z M 22.398438 34.859375 C 22.398438 34.019531 22.261719 33.179688 22.121094 32.480469 C 21.980469 31.78125 21.558594 31.078125 21.140625 30.519531 C 20.71875 29.960938 20.160156 29.539063 19.460938 29.261719 C 18.761719 28.980469 17.921875 28.839844 16.660156 28.839844 L 14.839844 28.839844 L 14.839844 41.160156 L 16.800781 41.160156 C 17.78125 41.160156 18.621094 41.019531 19.320313 40.738281 C 20.019531 40.460938 20.578125 40.039063 21 39.621094 C 21.421875 39.058594 21.839844 38.5 21.980469 37.660156 C 22.261719 36.820313 22.398438 35.839844 22.398438 34.859375 Z M 22.398438 34.859375 "/>
<path style=" stroke:none;fill-rule:nonzero;fill:rgb(0%,47.058824%,84.313725%);fill-opacity:1;" d="M 44.101563 42.699219 C 44.101563 42.980469 44.101563 43.121094 43.960938 43.261719 C 43.820313 43.398438 43.820313 43.539063 43.679688 43.679688 C 43.539063 43.820313 43.398438 43.820313 43.261719 43.960938 C 43.121094 43.960938 42.980469 44.101563 42.699219 44.101563 L 41.160156 44.101563 C 40.878906 44.101563 40.601563 44.101563 40.320313 43.960938 C 40.039063 43.960938 39.898438 43.820313 39.621094 43.539063 C 39.480469 43.398438 39.199219 43.121094 39.058594 42.839844 C 38.921875 42.558594 38.640625 42.140625 38.5 41.71875 L 34.019531 33.320313 C 33.738281 32.761719 33.460938 32.339844 33.179688 31.640625 C 32.898438 31.078125 32.621094 30.519531 32.480469 29.960938 C 32.480469 30.660156 32.480469 31.359375 32.621094 31.921875 C 32.621094 32.621094 32.621094 33.320313 32.621094 34.019531 L 32.621094 43.539063 C 32.621094 43.679688 32.621094 43.679688 32.480469 43.820313 C 32.480469 43.960938 32.339844 43.960938 32.199219 43.960938 C 32.058594 43.960938 31.921875 44.101563 31.640625 44.101563 C 31.359375 44.101563 31.21875 44.101563 30.800781 44.101563 C 30.519531 44.101563 30.238281 44.101563 29.960938 44.101563 C 29.679688 44.101563 29.539063 44.101563 29.398438 43.960938 C 29.261719 43.960938 29.261719 43.820313 29.121094 43.820313 C 29.121094 43.679688 29.121094 43.679688 29.121094 43.539063 L 29.121094 27.300781 C 29.121094 26.878906 29.261719 26.601563 29.539063 26.320313 C 29.820313 26.039063 30.101563 26.039063 30.519531 26.039063 L 32.480469 26.039063 C 32.898438 26.039063 33.179688 26.039063 33.320313 26.179688 C 33.601563 26.179688 33.738281 26.320313 34.019531 26.460938 C 34.160156 26.601563 34.441406 26.738281 34.578125 27.019531 C 34.71875 27.300781 34.859375 27.578125 35.140625 28 L 38.640625 34.578125 C 38.78125 35 39.058594 35.421875 39.199219 35.699219 C 39.339844 36.121094 39.621094 36.539063 39.761719 36.820313 C 39.898438 37.238281 40.179688 37.519531 40.320313 37.941406 C 40.460938 38.359375 40.601563 38.640625 40.878906 39.058594 C 40.878906 38.359375 40.878906 37.660156 40.878906 36.960938 C 40.878906 36.261719 40.878906 35.558594 40.878906 35 L 40.878906 26.460938 C 40.878906 26.320313 40.878906 26.320313 41.019531 26.179688 C 41.019531 26.039063 41.160156 26.039063 41.300781 26.039063 C 41.441406 26.039063 41.578125 25.898438 41.859375 25.898438 C 42.140625 25.898438 42.28125 25.898438 42.699219 25.898438 C 42.980469 25.898438 43.261719 25.898438 43.539063 25.898438 C 43.820313 25.898438 43.960938 25.898438 44.101563 26.039063 C 44.238281 26.039063 44.238281 26.179688 44.378906 26.179688 C 44.378906 26.320313 44.378906 26.320313 44.378906 26.460938 L 44.378906 42.699219 Z M 44.101563 42.699219 "/>
<path style=" stroke:none;fill-rule:nonzero;fill:rgb(0%,47.058824%,84.313725%);fill-opacity:1;" d="M 58.800781 38.640625 C 58.800781 39.621094 58.660156 40.460938 58.238281 41.160156 C 57.820313 41.859375 57.398438 42.421875 56.839844 42.980469 C 56.28125 43.398438 55.578125 43.820313 54.738281 44.101563 C 53.898438 44.378906 53.058594 44.519531 52.078125 44.519531 C 51.519531 44.519531 50.820313 44.519531 50.398438 44.378906 C 49.980469 44.238281 49.421875 44.101563 49 43.960938 C 48.578125 43.820313 48.300781 43.679688 48.019531 43.539063 C 47.738281 43.398438 47.601563 43.261719 47.460938 43.121094 C 47.320313 42.980469 47.320313 42.839844 47.179688 42.558594 C 47.179688 42.28125 47.039063 42 47.039063 41.578125 C 47.039063 41.300781 47.039063 41.019531 47.039063 40.878906 C 47.039063 40.738281 47.039063 40.460938 47.179688 40.460938 C 47.179688 40.320313 47.320313 40.320313 47.320313 40.179688 C 47.320313 40.179688 47.460938 40.039063 47.601563 40.039063 C 47.738281 40.039063 47.878906 40.179688 48.160156 40.320313 C 48.441406 40.460938 48.71875 40.601563 49.140625 40.878906 C 49.558594 41.019531 49.980469 41.300781 50.539063 41.441406 C 51.101563 41.578125 51.660156 41.71875 52.359375 41.71875 C 52.78125 41.71875 53.199219 41.71875 53.621094 41.578125 C 54.039063 41.441406 54.320313 41.300781 54.460938 41.160156 C 54.738281 41.019531 54.878906 40.738281 55.019531 40.460938 C 55.160156 40.179688 55.160156 39.898438 55.160156 39.480469 C 55.160156 39.058594 55.019531 38.78125 54.878906 38.359375 C 54.601563 38.078125 54.320313 37.800781 54.039063 37.519531 C 53.621094 37.238281 53.339844 37.101563 52.78125 36.820313 C 52.359375 36.679688 51.800781 36.398438 51.378906 36.121094 C 50.960938 35.839844 50.398438 35.699219 49.980469 35.421875 C 49.558594 35.140625 49.140625 34.859375 48.71875 34.441406 C 48.300781 34.019531 48.019531 33.601563 47.878906 33.039063 C 47.601563 32.480469 47.601563 31.921875 47.601563 31.078125 C 47.601563 30.238281 47.738281 29.398438 48.019531 28.839844 C 48.300781 28.140625 48.71875 27.578125 49.28125 27.160156 C 49.839844 26.738281 50.398438 26.460938 51.238281 26.179688 C 51.941406 25.898438 52.78125 25.898438 53.621094 25.898438 C 54.039063 25.898438 54.460938 25.898438 54.878906 26.039063 C 55.300781 26.039063 55.71875 26.179688 56.140625 26.320313 C 56.558594 26.460938 56.839844 26.601563 57.121094 26.738281 C 57.398438 26.878906 57.539063 27.019531 57.679688 27.019531 C 57.820313 27.160156 57.820313 27.160156 57.820313 27.300781 C 57.820313 27.300781 57.820313 27.441406 57.960938 27.578125 C 57.960938 27.71875 57.960938 27.859375 57.960938 28 C 57.960938 28.140625 57.960938 28.421875 57.960938 28.558594 C 57.960938 28.839844 57.960938 29.121094 57.960938 29.261719 C 57.960938 29.398438 57.960938 29.539063 57.960938 29.679688 C 57.960938 29.820313 57.820313 29.820313 57.820313 29.960938 C 57.820313 29.960938 57.679688 30.101563 57.539063 30.101563 C 57.398438 30.101563 57.261719 30.101563 57.121094 29.960938 C 56.839844 29.820313 56.558594 29.679688 56.28125 29.539063 C 56 29.398438 55.578125 29.261719 55.160156 29.121094 C 54.738281 28.980469 54.320313 28.980469 53.761719 28.980469 C 53.339844 28.980469 53.058594 28.980469 52.78125 29.121094 C 52.5 29.261719 52.21875 29.398438 52.078125 29.539063 C 51.941406 29.679688 51.800781 29.960938 51.660156 30.101563 C 51.519531 30.378906 51.519531 30.660156 51.519531 30.800781 C 51.519531 31.21875 51.660156 31.5 51.800781 31.78125 C 52.078125 32.058594 52.359375 32.339844 52.640625 32.621094 C 53.058594 32.898438 53.480469 33.039063 53.898438 33.320313 C 54.320313 33.460938 54.878906 33.738281 55.300781 34.019531 C 55.71875 34.300781 56.28125 34.441406 56.699219 34.71875 C 57.121094 35 57.539063 35.28125 57.960938 35.699219 C 58.378906 36.121094 58.660156 36.539063 58.800781 37.101563 C 58.660156 37.238281 58.800781 37.800781 58.800781 38.640625 Z M 58.800781 38.640625 "/>
</g>
</svg>
