<?xml version="1.0" encoding="UTF-8"?>
<svg xmlns="http://www.w3.org/2000/svg" xmlns:xlink="http://www.w3.org/1999/xlink" width="63pt" height="70pt" viewBox="0 0 63 70" version="1.1">
<defs>
<filter id="alpha" filterUnits="objectBoundingBox" x="0%" y="0%" width="100%" height="100%">
  <feColorMatrix type="matrix" in="SourceGraphic" values="0 0 0 0 1 0 0 0 0 1 0 0 0 0 1 0 0 0 1 0"/>
</filter>
<mask id="mask0">
  <g filter="url(#alpha)">
<rect x="0" y="0" width="63" height="70" style="fill:rgb(0%,0%,0%);fill-opacity:0.14902;stroke:none;"/>
  </g>
</mask>
<clipPath id="clip1">
  <rect x="0" y="0" width="63" height="70"/>
</clipPath>
<g id="surface5" clip-path="url(#clip1)">
<path style=" stroke:none;fill-rule:nonzero;fill:rgb(100%,100%,100%);fill-opacity:1;" d="M 44.101563 25.898438 L 7.421875 25.898438 C 1.960938 25.898438 0 29.121094 0 33.320313 L 0 62.578125 C 0 66.21875 2.238281 70 6.441406 70 L 15.820313 70 Z M 44.101563 25.898438 "/>
</g>
</defs>
<g id="surface1">
<path style=" stroke:none;fill-rule:nonzero;fill:rgb(62.745098%,63.137255%,63.529412%);fill-opacity:1;" d="M 55.300781 25.898438 L 55.300781 22.820313 C 55.300781 16.660156 53.058594 10.921875 49.140625 6.859375 C 45.5 2.660156 37.378906 0 31.359375 0 C 25.339844 0 17.21875 2.660156 13.578125 6.859375 C 9.800781 10.921875 7.421875 16.660156 7.421875 22.820313 L 7.421875 25.898438 L 18.480469 27.160156 L 18.480469 24.359375 C 18.480469 20.71875 19.738281 16.101563 21.839844 13.71875 C 23.941406 11.339844 28.421875 10.21875 31.359375 10.078125 C 34.300781 10.078125 38.78125 11.339844 40.878906 13.71875 C 42.980469 16.101563 44.238281 19.179688 44.238281 22.679688 L 44.238281 27.160156 Z M 55.300781 25.898438 "/>
<path style=" stroke:none;fill-rule:nonzero;fill:rgb(34.901961%,70.588235%,85.098039%);fill-opacity:1;" d="M 7.421875 25.898438 C 1.960938 25.898438 0 29.121094 0 33.320313 L 0 62.578125 C 0 66.21875 2.238281 70 6.441406 70 L 56.28125 70 C 61.039063 70 62.71875 66.21875 62.71875 62.578125 L 62.71875 33.320313 C 62.71875 29.539063 61.179688 25.898438 55.300781 25.898438 Z M 7.421875 25.898438 "/>
<use xlink:href="#surface5" mask="url(#mask0)"/>
<path style=" stroke:none;fill-rule:nonzero;fill:rgb(100%,100%,100%);fill-opacity:1;" d="M 22.960938 37.941406 L 31.078125 29.820313 L 39.199219 37.941406 L 33.460938 37.941406 L 33.460938 43.820313 L 28.558594 43.820313 L 28.558594 37.941406 C 28.558594 37.941406 22.960938 37.941406 22.960938 37.941406 Z M 7.980469 50.261719 L 7.980469 45.5 L 16.378906 45.5 L 16.378906 39.898438 L 24.21875 47.738281 L 16.378906 55.578125 L 16.378906 50.121094 L 7.980469 50.121094 Z M 31.078125 66.078125 L 22.820313 57.820313 L 28.558594 57.820313 L 28.558594 52.078125 L 33.460938 52.078125 L 33.460938 57.820313 L 39.339844 57.820313 Z M 54.179688 50.261719 L 45.78125 50.261719 L 45.78125 55.859375 L 37.800781 47.878906 L 45.78125 39.898438 L 45.78125 45.5 L 54.179688 45.5 Z M 54.179688 50.261719 "/>
</g>
</svg>
