<?xml version="1.0" encoding="utf-8"?><svg version="1.1" xmlns="http://www.w3.org/2000/svg" xmlns:xlink="http://www.w3.org/1999/xlink" xmlns:xml="http://www.w3.org/XML/1998/namespace" width="70" height="70" viewBox="0, 0, 18, 18"><defs><linearGradient x1="7.699" y1="259.22" x2="7.699" y2="263.711" gradientUnits="userSpaceOnUse" gradientTransform="translate(0, -250)" id="fd061228-22be-425e-9131-0b8cca0e5d17"><stop offset="23%" stop-color="#5EA0EF" /><stop offset="32%" stop-color="#5B9FEE" /><stop offset="48%" stop-color="#509AEB" /><stop offset="57%" stop-color="#3F92E6" /><stop offset="75%" stop-color="#2688DF" /><stop offset="93%" stop-color="#127FD9" /></linearGradient><linearGradient x1="9.927" y1="261.091" x2="9.927" y2="265.582" gradientUnits="userSpaceOnUse" gradientTransform="translate(0, -250)" id="ea9649a6-04b5-47d6-8247-ed3ab9ff9d06"><stop offset="2%" stop-color="#5EA0EF" /><stop offset="14%" stop-color="#5B9FEE" /><stop offset="23%" stop-color="#5B9FEE" /><stop offset="34%" stop-color="#509AEB" /><stop offset="44%" stop-color="#3F92E6" /><stop offset="63%" stop-color="#2688DF" /><stop offset="93%" stop-color="#127FD9" /></linearGradient></defs><path d="M8.252 2.521 H9.374 V9.594 H8.252 Z" style="fill:#7A7A7A;" /><path d="M10.459 2.3 A1.647 1.647 0 1 1 8.813 0.65 h0 A1.646 1.646 0 0 1 10.459 2.3 Z" style="fill:#1490DF;" /><path d="M8.588 9.22 h-1.8 a2.246 2.246 0 0 0 -0.348 4.461 a2.415 2.415 0 0 1 0.022 -0.835 a1.418 1.418 0 0 1 0.326 -2.8 h1.8 a1.422 1.422 0 0 1 0 2.844 H8.094 a1.078 1.078 0 0 0 -0.1 0.45 a1.022 1.022 0 0 0 0.071 0.374 h0.527 a2.246 2.246 0 1 0 0 -4.491 Z" style="fill:url(#fd061228-22be-425e-9131-0b8cca0e5d17);" /><path d="M11.182 11.121 a2.642 2.642 0 0 1 0.026 0.344 a2.317 2.317 0 0 1 -0.049 0.491 a1.418 1.418 0 0 1 -0.325 2.8 h-1.8 a1.423 1.423 0 0 1 0 -2.845 h0.494 a1.042 1.042 0 0 0 0.1 -0.449 a1.018 1.018 0 0 0 -0.071 -0.374 H9.037 a2.246 2.246 0 0 0 0 4.491 h1.8 a2.246 2.246 0 0 0 0.348 -4.461 Z" style="fill:url(#ea9649a6-04b5-47d6-8247-ed3ab9ff9d06);" /><path d="M5.58 16.525 l-0.412 0.415 a0.28 0.28 0 0 1 -0.4 0 l-4.607 -4.6 a0.566 0.566 0 0 1 0 -0.8 l0.416 -0.412 l5 4.992 a0.276 0.276 0 0 1 0 0.391 h0 Z" style="fill:#50E6FF;" /><path d="M5.082 7.02 l0.46 0.46 a0.282 0.282 0 0 1 0 0.4 L0.625 12.809 l-0.461 -0.457 a0.566 0.566 0 0 1 0 -0.8 L4.685 7.02 A0.28 0.28 0 0 1 5.082 7.02 Z" style="fill:#1490DF;" /><path d="M12.417 16.851 a0.278 0.278 0 0 1 -0.006 -0.392 h0 l0.006 0 l5 -4.989 l0.416 0.416 a0.566 0.566 0 0 1 0 0.8 l-4.611 4.588 a0.277 0.277 0 0 1 -0.391 0.006 h0 l-0.006 -0.005 Z" style="fill:#50E6FF;" /><path d="M13.311 7.349 l4.525 4.536 a0.563 0.563 0 0 1 0 0.793 l-0.461 0.46 L12.454 8.206 a0.289 0.289 0 0 1 0 -0.4 l0.46 -0.456 A0.282 0.282 0 0 1 13.311 7.349 Z" style="fill:#1490DF;" /></svg>