<?xml version="1.0" encoding="UTF-8"?>
<svg xmlns="http://www.w3.org/2000/svg" xmlns:xlink="http://www.w3.org/1999/xlink" width="70pt" height="70pt" viewBox="0 0 70 70" version="1.1">
<g id="surface1">
<path style=" stroke:none;fill-rule:nonzero;fill:rgb(0%,47.058824%,84.313725%);fill-opacity:1;" d="M 35.140625 70.28125 C 33.460938 70.28125 31.78125 69.578125 30.519531 68.320313 L 1.960938 39.761719 C 0.699219 38.5 0 36.960938 0 35.140625 C 0 33.460938 0.699219 31.78125 1.960938 30.519531 L 30.519531 1.960938 C 31.78125 0.699219 33.320313 0 35.140625 0 C 36.820313 0 38.5 0.699219 39.761719 1.960938 L 68.320313 30.519531 C 69.578125 31.78125 70.28125 33.320313 70.28125 35.140625 C 70.28125 36.960938 69.578125 38.5 68.320313 39.761719 L 39.761719 68.320313 C 38.5 69.578125 36.820313 70.28125 35.140625 70.28125 "/>
<path style=" stroke:none;fill-rule:nonzero;fill:rgb(100%,100%,100%);fill-opacity:1;" d="M 63.980469 34.859375 L 54.738281 25.621094 L 54.738281 32.199219 L 44.941406 32.199219 C 43.960938 28.839844 41.300781 26.179688 37.941406 25.199219 L 37.941406 15.679688 L 44.378906 15.679688 L 35.140625 6.441406 L 25.898438 15.679688 L 32.339844 15.679688 L 32.339844 25.058594 C 28.980469 26.039063 26.320313 28.699219 25.339844 32.058594 L 15.539063 32.058594 L 15.539063 25.621094 L 6.300781 34.859375 L 15.539063 44.101563 L 15.539063 37.519531 L 25.339844 37.519531 C 26.320313 40.878906 28.980469 43.539063 32.339844 44.519531 L 32.339844 50.960938 C 30.941406 51.941406 28.839844 54.179688 28.839844 56.558594 C 28.839844 60.058594 31.640625 62.859375 35.140625 62.859375 C 38.640625 62.859375 41.441406 60.058594 41.441406 56.558594 C 41.441406 54.039063 39.339844 51.941406 37.941406 50.960938 L 37.941406 44.378906 C 41.300781 43.398438 43.960938 40.738281 44.941406 37.378906 L 54.738281 37.378906 L 54.738281 43.820313 Z M 63.980469 34.859375 "/>
<path style=" stroke:none;fill-rule:nonzero;fill:rgb(0%,47.058824%,84.313725%);fill-opacity:1;" d="M 35.140625 27.441406 C 31.078125 27.441406 27.71875 30.800781 27.71875 34.859375 C 27.71875 38.921875 31.078125 42.28125 35.140625 42.28125 C 39.199219 42.28125 42.558594 38.921875 42.558594 34.859375 C 42.558594 30.800781 39.199219 27.441406 35.140625 27.441406 Z M 35.140625 27.441406 "/>
</g>
</svg>
