<?xml version="1.0" encoding="UTF-8"?>
<svg xmlns="http://www.w3.org/2000/svg" xmlns:xlink="http://www.w3.org/1999/xlink" width="70pt" height="70pt" viewBox="0 0 70 70" version="1.1">
<g id="surface1">
<path style=" stroke:none;fill-rule:nonzero;fill:rgb(22.352941%,60%,77.647059%);fill-opacity:1;" d="M 69.578125 35.980469 C 70.28125 35.28125 70.140625 34.160156 69.578125 33.460938 L 66.21875 30.101563 L 51.101563 15.398438 C 50.398438 14.699219 49.421875 14.699219 48.71875 15.398438 C 48.019531 16.101563 47.878906 17.21875 48.71875 17.921875 L 64.539063 33.460938 C 65.238281 34.160156 65.238281 35.28125 64.539063 35.980469 L 48.441406 52.078125 C 47.738281 52.78125 47.738281 53.898438 48.441406 54.601563 C 49.140625 55.300781 50.261719 55.160156 50.820313 54.601563 L 65.800781 39.761719 C 65.800781 39.761719 65.800781 39.761719 65.941406 39.621094 Z M 69.578125 35.980469 "/>
<path style=" stroke:none;fill-rule:nonzero;fill:rgb(22.352941%,60%,77.647059%);fill-opacity:1;" d="M 0.421875 35.980469 C -0.28125 35.28125 -0.140625 34.160156 0.421875 33.460938 L 3.78125 30.101563 L 18.898438 15.398438 C 19.601563 14.699219 20.578125 14.699219 21.28125 15.398438 C 21.980469 16.101563 22.121094 17.21875 21.28125 17.921875 L 5.738281 33.460938 C 5.039063 34.160156 5.039063 35.28125 5.738281 35.980469 L 21.558594 52.078125 C 22.261719 52.78125 22.261719 53.898438 21.558594 54.601563 C 20.859375 55.300781 19.738281 55.160156 19.179688 54.601563 L 3.921875 39.898438 C 3.921875 39.898438 3.921875 39.898438 3.78125 39.761719 Z M 0.421875 35.980469 "/>
<path style=" stroke:none;fill-rule:nonzero;fill:rgb(49.803922%,72.941176%,0%);fill-opacity:1;" d="M 25.480469 34.71875 C 25.480469 37.378906 23.238281 39.339844 20.859375 39.339844 C 18.480469 39.339844 15.960938 37.101563 15.960938 34.71875 C 15.960938 32.339844 17.921875 30.101563 20.859375 30.101563 C 23.660156 30.101563 25.480469 32.339844 25.480469 34.71875 Z M 25.480469 34.71875 "/>
<path style=" stroke:none;fill-rule:nonzero;fill:rgb(49.803922%,72.941176%,0%);fill-opacity:1;" d="M 39.621094 34.71875 C 39.621094 37.378906 37.378906 39.339844 35 39.339844 C 32.621094 39.339844 30.101563 37.101563 30.101563 34.71875 C 30.101563 32.339844 32.339844 30.101563 35 30.101563 C 37.660156 30.101563 39.621094 32.339844 39.621094 34.71875 Z M 39.621094 34.71875 "/>
<path style=" stroke:none;fill-rule:nonzero;fill:rgb(49.803922%,72.941176%,0%);fill-opacity:1;" d="M 53.898438 34.71875 C 53.898438 37.273438 51.832031 39.339844 49.28125 39.339844 C 46.726563 39.339844 44.660156 37.273438 44.660156 34.71875 C 44.660156 32.167969 46.726563 30.101563 49.28125 30.101563 C 51.832031 30.101563 53.898438 32.167969 53.898438 34.71875 Z M 53.898438 34.71875 "/>
</g>
</svg>
