<?xml version="1.0" encoding="utf-8"?><svg version="1.1" xmlns="http://www.w3.org/2000/svg" xmlns:xlink="http://www.w3.org/1999/xlink" xmlns:xml="http://www.w3.org/XML/1998/namespace" width="70" height="70" viewBox="0, 0, 18, 18" id="f3b54d7d-7db0-469c-afc7-ffc9b14d26c9" data-name="azure-fluent-icons"><defs><linearGradient x1="5.055" y1="-1401.772" x2="5.055" y2="-1395.802" gradientUnits="userSpaceOnUse" gradientTransform="matrix(1, 0, 0, -1, 0, -1391.642)" id="b6125be5-5e46-486d-bdee-ef1ac2eafdaa"><stop offset="0%" stop-color="#2FA6FF" /><stop offset="18%" stop-color="#3FADFF" /><stop offset="41%" stop-color="#4BB2FF" /><stop offset="78%" stop-color="#4FB4FF" /></linearGradient><linearGradient x1="9" y1="-1404.702" x2="9" y2="-1398.732" xlink:href="#b6125be5-5e46-486d-bdee-ef1ac2eafdaa" id="adf1cfb9-1a2a-44ee-aac6-05ac5cdb186f" /><linearGradient x1="12.945" y1="-1407.632" x2="12.945" y2="-1401.662" xlink:href="#b6125be5-5e46-486d-bdee-ef1ac2eafdaa" id="f0461ac7-cb08-44b4-94c6-8fe04f936f9b" /></defs><title>Lighthouse-GS-networking-372</title><g><path d="M0 4.16 H10.11 V9.8 a0.34 0.34 0 0 1 -0.34 0.34 H0.34 A0.34 0.34 0 0 1 0 9.8 H0 V4.16 Z" style="fill:url(#b6125be5-5e46-486d-bdee-ef1ac2eafdaa);" /><path d="M0.34 2 H9.77 a0.34 0.34 0 0 1 0.34 0.34 h0 V4.16 H0 V2.34 A0.34 0.34 0 0 1 0.34 2 Z" style="fill:#0087EC;" /><rect x="1.36" y="2.65" width="7.39" height="0.87" rx="0.17" style="fill:#E5F3FF;" /><path d="M3.94 7.08 H14.06 v5.64 a0.34 0.34 0 0 1 -0.34 0.34 H4.28 a0.34 0.34 0 0 1 -0.34 -0.34 h0 Z" style="fill:url(#adf1cfb9-1a2a-44ee-aac6-05ac5cdb186f);" /><path d="M4.28 4.93 h9.43 a0.34 0.34 0 0 1 0.34 0.34 h0 V7.08 H3.95 V5.27 A0.34 0.34 0 0 1 4.28 4.93 Z" style="fill:#0087EC;" /><rect x="5.3" y="5.58" width="7.39" height="0.87" rx="0.17" style="fill:#E5F3FF;" /><g><path d="M7.89 10.02 H18 v5.64 a0.34 0.34 0 0 1 -0.34 0.34 H8.23 a0.34 0.34 0 0 1 -0.34 -0.34 h0 Z" style="fill:url(#f0461ac7-cb08-44b4-94c6-8fe04f936f9b);" /><path d="M8.23 7.86 h9.43 A0.34 0.34 0 0 1 18 8.2 v1.82 H7.89 V8.2 A0.34 0.34 0 0 1 8.23 7.86 Z" style="fill:#0087EC;" /><g><circle cx="15.22" cy="12.64" r="0.82" style="fill:#E5F3FF;" /><circle cx="12.98" cy="12.64" r="0.82" style="fill:#E5F3FF;" /><circle cx="10.67" cy="12.64" r="0.82" style="fill:#E5F3FF;" /></g><rect x="9.25" y="8.51" width="7.39" height="0.87" rx="0.17" style="fill:#E5F3FF;" /></g></g></svg>