<?xml version="1.0" encoding="utf-8"?><svg version="1.1" xmlns="http://www.w3.org/2000/svg" xmlns:xlink="http://www.w3.org/1999/xlink" xmlns:xml="http://www.w3.org/XML/1998/namespace" width="70" height="70" viewBox="0, 0, 18, 18" id="a510a120-e8af-4fe0-831e-67ebe9c4368b"><defs><linearGradient x1="9" y1="172.704" x2="9" y2="160.613" gradientUnits="userSpaceOnUse" gradientTransform="translate(0, -160)" id="a009acc1-6e03-4969-81ca-b157b58a2f69"><stop offset="0%" stop-color="#198AB3" /><stop offset="11%" stop-color="#22A5CB" /><stop offset="23%" stop-color="#29BADE" /><stop offset="37%" stop-color="#2EC9EB" /><stop offset="53%" stop-color="#31D1F3" /><stop offset="78%" stop-color="#32D4F5" /></linearGradient></defs><g><path d="M17.5 8.9 a3.854 3.854 0 0 0 -3.3 -3.7 A4.871 4.871 0 0 0 9.2 0.6 A5.011 5.011 0 0 0 4.5 3.8 a4.693 4.693 0 0 0 -4 4.4 a4.612 4.612 0 0 0 4.8 4.5 h8.4 A3.8 3.8 0 0 0 17.5 8.9 Z" style="fill:url(#a009acc1-6e03-4969-81ca-b157b58a2f69);" /><circle cx="9" cy="12.9" r="4.4" style="fill:#F2F2F2;" /><path d="M12.7 10.1 a4.6 4.6 0 0 0 -6.4 -0.9 h0 a4.561 4.561 0 1 0 5.6 7.2 h0 A4.557 4.557 0 0 0 12.7 10.1 Z M5.1 12.6 A4.707 4.707 0 0 1 5.5 11 H6.6 a7.772 7.772 0 0 0 -0.2 1.6 Z M7.2 11 H8.7 v1.6 H7 A7.772 7.772 0 0 1 7.2 11 Z m2.1 0 h1.5 a7.772 7.772 0 0 1 0.2 1.6 H9.3 Z m-0.5 2.1 v1.6 H7.2 l-0.3 -1.5 Z m0.5 0 h1.8 a9.971 9.971 0 0 1 -0.2 1.6 H9.3 Z m2.4 0 H13 a4.707 4.707 0 0 1 -0.4 1.6 H11.5 a7.772 7.772 0 0 0 0.2 -1.6 Z m0 -0.5 a9.971 9.971 0 0 0 -0.2 -1.6 h1.1 a4.193 4.193 0 0 1 0.4 1.6 Z m0.5 -2.2 h-0.9 a4.5 4.5 0 0 0 -0.6 -1.2 a4.428 4.428 0 0 1 1.5 1.2 Z m-1.5 0 H9.3 V9 a2.171 2.171 0 0 1 1.4 1.4 Z M8.8 9 v1.5 H7.4 A2.118 2.118 0 0 1 8.8 9 Z m-2.2 0.7 h0 a5.582 5.582 0 0 1 0.8 -0.5 a3.1 3.1 0 0 0 -0.6 1.3 H5.9 A2.7 2.7 0 0 1 6.6 9.7 Z M5.1 13.2 H6.4 a9.971 9.971 0 0 0 0.2 1.6 H5.5 A5.349 5.349 0 0 1 5.1 13.2 Z m0.8 2.1 h0.9 l0.6 1.2 A3.491 3.491 0 0 1 5.9 15.3 Z m1.5 0 H8.7 v1.5 a2.433 2.433 0 0 1 -1.3 -1.5 Z m1.9 1.5 V15.3 h1.3 a1.968 1.968 0 0 1 -1.3 1.5 Z m2.2 -0.8 h0 a2.622 2.622 0 0 1 -0.9 0.5 a3.379 3.379 0 0 0 0.6 -1.2 h0.9 A1.344 1.344 0 0 1 11.5 16 Z" style="fill:#0078D4;" /><path d="M5.1 11.4 A4.025 4.025 0 0 1 2.9 8.5 A3.646 3.646 0 0 1 4.4 5.6 L5 5.1 l0.5 0.6 l-0.6 0.5 A2.509 2.509 0 0 0 3.7 8.4 a3.031 3.031 0 0 0 1.8 2.3 Z" style="fill:#E6E6E6;" /><circle cx="5.3" cy="5.4" r="1.1" style="fill:#F2F2F2;" /><path d="M12.7 11.4 l-0.4 -0.7 a3.259 3.259 0 0 0 1.8 -2.3 a2.748 2.748 0 0 0 -1.2 -2.2 l-0.6 -0.4 l0.5 -0.6 l0.6 0.4 a3.071 3.071 0 0 1 1.5 2.9 A4.025 4.025 0 0 1 12.7 11.4 Z" style="fill:#E6E6E6;" /><circle cx="12.6" cy="5.4" r="1.1" style="fill:#F2F2F2;" /><circle cx="5.3" cy="11.1" r="1.1" style="fill:#CE74B6;" /><circle cx="12.6" cy="11.1" r="1.1" style="fill:#CE74B6;" /></g></svg>