<?xml version="1.0" encoding="UTF-8"?>
<svg xmlns="http://www.w3.org/2000/svg" xmlns:xlink="http://www.w3.org/1999/xlink" width="70pt" height="70pt" viewBox="0 0 70 70" version="1.1">
<defs>
<linearGradient id="linear0" gradientUnits="userSpaceOnUse" x1="9" y1="15.83" x2="9" y2="5.79" gradientTransform="matrix(3.888889,0,0,3.888889,0,0)">
<stop offset="0" style="stop-color:rgb(47,166,255);stop-opacity:1;"/>
<stop offset="0.18" style="stop-color:rgb(63,173,255);stop-opacity:1;"/>
<stop offset="0.41" style="stop-color:rgb(75,178,255);stop-opacity:1;"/>
<stop offset="0.78" style="stop-color:rgb(79,180,255);stop-opacity:1;"/>
</linearGradient>
</defs>
<g id="surface1">
<path style=" stroke:none;fill-rule:nonzero;fill:url(#linear0);" d="M 1.945313 22.515625 L 68.054688 22.515625 L 68.054688 59.382813 C 68.054688 60.609375 67.0625 61.601563 65.839844 61.601563 L 4.160156 61.601563 C 2.9375 61.601563 1.945313 60.609375 1.945313 59.382813 Z M 1.945313 22.515625 "/>
<path style=" stroke:none;fill-rule:nonzero;fill:rgb(0,135,236);fill-opacity:1;" d="M 4.160156 8.4375 L 65.839844 8.4375 C 67.0625 8.4375 68.054688 9.429688 68.054688 10.65625 L 68.054688 22.515625 L 1.945313 22.515625 L 1.945313 10.617188 C 1.964844 9.40625 2.953125 8.4375 4.160156 8.4375 Z M 4.160156 8.4375 "/>
<path style=" stroke:none;fill-rule:nonzero;fill:rgb(229,243,255);fill-opacity:1;" d="M 55.222656 39.628906 C 55.222656 42.589844 52.820313 44.996094 49.855469 44.996094 C 46.890625 44.996094 44.488281 42.589844 44.488281 39.628906 C 44.488281 36.664063 46.890625 34.261719 49.855469 34.261719 C 52.820313 34.261719 55.222656 36.664063 55.222656 39.628906 Z M 55.222656 39.628906 "/>
<path style=" stroke:none;fill-rule:nonzero;fill:rgb(229,243,255);fill-opacity:1;" d="M 40.601563 39.628906 C 40.601563 42.589844 38.195313 44.996094 35.234375 44.996094 C 32.269531 44.996094 29.867188 42.589844 29.867188 39.628906 C 29.867188 36.664063 32.269531 34.261719 35.234375 34.261719 C 38.195313 34.261719 40.601563 36.664063 40.601563 39.628906 Z M 40.601563 39.628906 "/>
<path style=" stroke:none;fill-rule:nonzero;fill:rgb(229,243,255);fill-opacity:1;" d="M 25.511719 39.628906 C 25.511719 42.589844 23.109375 44.996094 20.144531 44.996094 C 17.179688 44.996094 14.777344 42.589844 14.777344 39.628906 C 14.777344 36.664063 17.179688 34.261719 20.144531 34.261719 C 23.109375 34.261719 25.511719 36.664063 25.511719 39.628906 Z M 25.511719 39.628906 "/>
<path style=" stroke:none;fill-rule:nonzero;fill:rgb(229,243,255);fill-opacity:1;" d="M 11.9375 12.640625 L 58.101563 12.640625 C 58.703125 12.640625 59.1875 13.125 59.1875 13.726563 L 59.1875 17.226563 C 59.1875 17.828125 58.703125 18.316406 58.101563 18.316406 L 11.9375 18.316406 C 11.335938 18.316406 10.851563 17.828125 10.851563 17.226563 L 10.851563 13.726563 C 10.851563 13.125 11.335938 12.640625 11.9375 12.640625 Z M 11.9375 12.640625 "/>
</g>
</svg>
