<?xml version="1.0" encoding="UTF-8"?>
<svg xmlns="http://www.w3.org/2000/svg" xmlns:xlink="http://www.w3.org/1999/xlink" width="70pt" height="70pt" viewBox="0 0 70 70" version="1.1">
<defs>
<linearGradient id="linear0" gradientUnits="userSpaceOnUse" x1="12.726" y1="2199.244" x2="12.726" y2="2193.605" gradientTransform="matrix(3.888889,0,0,3.888889,0,-8491.941111)">
<stop offset="0" style="stop-color:rgb(19.607843%,74.509804%,86.666667%);stop-opacity:1;"/>
<stop offset="0.18" style="stop-color:rgb(19.607843%,79.215686%,91.764706%);stop-opacity:1;"/>
<stop offset="0.41" style="stop-color:rgb(19.607843%,82.352941%,94.901961%);stop-opacity:1;"/>
<stop offset="0.78" style="stop-color:rgb(19.607843%,83.137255%,96.078431%);stop-opacity:1;"/>
</linearGradient>
</defs>
<g id="surface1">
<path style=" stroke:none;fill-rule:nonzero;fill:rgb(51.372549%,72.54902%,97.647059%);fill-opacity:1;" d="M 1.945313 17.222656 L 39.074219 17.222656 L 39.074219 37.941406 C 39.074219 38.628906 38.515625 39.1875 37.828125 39.1875 L 3.191406 39.1875 C 2.503906 39.1875 1.945313 38.628906 1.945313 37.941406 Z M 1.945313 17.222656 "/>
<path style=" stroke:none;fill-rule:nonzero;fill:rgb(12.156863%,33.72549%,63.921569%);fill-opacity:1;" d="M 3.191406 9.289063 L 37.828125 9.289063 C 38.515625 9.289063 39.074219 9.847656 39.074219 10.539063 L 39.074219 17.222656 L 1.945313 17.222656 L 1.945313 10.539063 C 1.945313 9.847656 2.503906 9.289063 3.191406 9.289063 Z M 3.191406 9.289063 "/>
<path style=" stroke:none;fill-rule:nonzero;fill:rgb(94.901961%,94.901961%,94.901961%);fill-opacity:1;" d="M 7.5625 11.679688 L 33.453125 11.679688 C 33.796875 11.679688 34.078125 11.957031 34.078125 12.304688 L 34.078125 14.25 C 34.078125 14.59375 33.796875 14.875 33.453125 14.875 L 7.5625 14.875 C 7.21875 14.875 6.9375 14.59375 6.9375 14.25 L 6.9375 12.304688 C 6.9375 11.957031 7.21875 11.679688 7.5625 11.679688 Z M 7.5625 11.679688 "/>
<path style=" stroke:none;fill-rule:nonzero;fill:rgb(51.372549%,72.54902%,97.647059%);fill-opacity:1;" d="M 16.414063 27.949219 L 53.585938 27.949219 L 53.585938 48.660156 C 53.585938 49.351563 53.027344 49.910156 52.335938 49.910156 L 17.664063 49.910156 C 16.972656 49.910156 16.414063 49.351563 16.414063 48.660156 Z M 16.414063 27.949219 "/>
<path style=" stroke:none;fill-rule:nonzero;fill:rgb(12.156863%,33.72549%,63.921569%);fill-opacity:1;" d="M 17.664063 20.050781 L 52.296875 20.050781 C 52.988281 20.050781 53.546875 20.609375 53.546875 21.300781 L 53.546875 27.949219 L 16.453125 27.949219 L 16.453125 21.300781 C 16.453125 20.625 16.988281 20.070313 17.664063 20.050781 Z M 17.664063 20.050781 "/>
<path style=" stroke:none;fill-rule:nonzero;fill:rgb(94.901961%,94.901961%,94.901961%);fill-opacity:1;" d="M 22.039063 22.4375 L 47.925781 22.4375 C 48.273438 22.4375 48.554688 22.71875 48.554688 23.066406 L 48.554688 25.007813 C 48.554688 25.355469 48.273438 25.636719 47.925781 25.636719 L 22.039063 25.636719 C 21.691406 25.636719 21.414063 25.355469 21.414063 25.007813 L 21.414063 23.066406 C 21.414063 22.71875 21.691406 22.4375 22.039063 22.4375 Z M 22.039063 22.4375 "/>
<path style=" stroke:none;fill-rule:nonzero;fill:url(#linear0);" d="M 30.925781 38.746094 L 68.054688 38.746094 L 68.054688 59.460938 C 68.054688 60.152344 67.496094 60.710938 66.808594 60.710938 L 32.171875 60.710938 C 31.484375 60.710938 30.925781 60.152344 30.925781 59.460938 Z M 30.925781 38.746094 "/>
<path style=" stroke:none;fill-rule:nonzero;fill:rgb(0%,47.058824%,83.137255%);fill-opacity:1;" d="M 32.171875 30.8125 L 66.808594 30.8125 C 67.496094 30.8125 68.054688 31.371094 68.054688 32.058594 L 68.054688 38.746094 L 30.925781 38.746094 L 30.925781 32.058594 C 30.925781 31.371094 31.484375 30.8125 32.171875 30.8125 Z M 32.171875 30.8125 "/>
<path style=" stroke:none;fill-rule:nonzero;fill:rgb(0%,47.058824%,83.137255%);fill-opacity:1;" d="M 60.851563 48.371094 C 60.851563 50.03125 59.503906 51.378906 57.84375 51.378906 C 56.179688 51.378906 54.832031 50.03125 54.832031 48.371094 C 54.832031 46.707031 56.179688 45.359375 57.84375 45.359375 C 59.503906 45.359375 60.851563 46.707031 60.851563 48.371094 Z M 60.851563 48.371094 "/>
<path style=" stroke:none;fill-rule:nonzero;fill:rgb(0%,47.058824%,83.137255%);fill-opacity:1;" d="M 52.628906 48.371094 C 52.628906 50.03125 51.28125 51.378906 49.617188 51.378906 C 47.957031 51.378906 46.609375 50.03125 46.609375 48.371094 C 46.609375 46.707031 47.957031 45.359375 49.617188 45.359375 C 51.28125 45.359375 52.628906 46.707031 52.628906 48.371094 Z M 52.628906 48.371094 "/>
<path style=" stroke:none;fill-rule:nonzero;fill:rgb(0%,47.058824%,83.137255%);fill-opacity:1;" d="M 44.144531 48.371094 C 44.144531 50.03125 42.796875 51.378906 41.132813 51.378906 C 39.46875 51.378906 38.121094 50.03125 38.121094 48.371094 C 38.121094 46.707031 39.46875 45.359375 41.132813 45.359375 C 42.796875 45.359375 44.144531 46.707031 44.144531 48.371094 Z M 44.144531 48.371094 "/>
<path style=" stroke:none;fill-rule:nonzero;fill:rgb(94.901961%,94.901961%,94.901961%);fill-opacity:1;" d="M 36.542969 33.199219 L 62.433594 33.199219 C 62.777344 33.199219 63.058594 33.480469 63.058594 33.824219 L 63.058594 35.769531 C 63.058594 36.117188 62.777344 36.394531 62.433594 36.394531 L 36.542969 36.394531 C 36.199219 36.394531 35.917969 36.117188 35.917969 35.769531 L 35.917969 33.824219 C 35.917969 33.480469 36.199219 33.199219 36.542969 33.199219 Z M 36.542969 33.199219 "/>
</g>
</svg>
