<?xml version="1.0" encoding="UTF-8"?>
<svg xmlns="http://www.w3.org/2000/svg" xmlns:xlink="http://www.w3.org/1999/xlink" width="70pt" height="70pt" viewBox="0 0 70 70" version="1.1">
<defs>
<linearGradient id="linear0" gradientUnits="userSpaceOnUse" x1="9.88" y1="8.59" x2="11.52" y2="10.23" gradientTransform="matrix(3.888885,-0.00542991,0.00542991,3.888885,7.894444,-1.555556)">
<stop offset="0" style="stop-color:rgb(52.54902%,83.921569%,20%);stop-opacity:1;"/>
<stop offset="1" style="stop-color:rgb(36.862745%,58.823529%,14.117647%);stop-opacity:1;"/>
</linearGradient>
<linearGradient id="linear1" gradientUnits="userSpaceOnUse" x1="6.18" y1="8.59" x2="7.81" y2="10.23" gradientTransform="matrix(3.888889,0,0,3.888889,0,0)">
<stop offset="0" style="stop-color:rgb(52.54902%,83.921569%,20%);stop-opacity:1;"/>
<stop offset="1" style="stop-color:rgb(36.862745%,58.823529%,14.117647%);stop-opacity:1;"/>
</linearGradient>
<linearGradient id="linear2" gradientUnits="userSpaceOnUse" x1="2.48" y1="8.59" x2="4.11" y2="10.23" gradientTransform="matrix(3.888889,0,0,3.888889,0,0)">
<stop offset="0" style="stop-color:rgb(52.54902%,83.921569%,20%);stop-opacity:1;"/>
<stop offset="1" style="stop-color:rgb(36.862745%,58.823529%,14.117647%);stop-opacity:1;"/>
</linearGradient>
</defs>
<g id="surface1">
<path style=" stroke:none;fill-rule:nonzero;fill:url(#linear0);" d="M 54.054688 34.960938 C 54.054688 37.453125 52.035156 39.472656 49.542969 39.472656 C 47.054688 39.472656 45.035156 37.453125 45.035156 34.960938 C 45.035156 32.46875 47.054688 30.449219 49.542969 30.449219 C 52.035156 30.449219 54.054688 32.46875 54.054688 34.960938 Z M 54.054688 34.960938 "/>
<path style=" stroke:none;fill-rule:nonzero;fill:url(#linear1);" d="M 39.667969 35 C 39.667969 37.492188 37.648438 39.511719 35.15625 39.511719 C 32.664063 39.511719 30.644531 37.492188 30.644531 35 C 30.644531 32.507813 32.664063 30.488281 35.15625 30.488281 C 37.648438 30.488281 39.667969 32.507813 39.667969 35 Z M 39.667969 35 "/>
<path style=" stroke:none;fill-rule:nonzero;fill:url(#linear2);" d="M 25.277344 35 C 25.277344 37.492188 23.257813 39.511719 20.765625 39.511719 C 18.273438 39.511719 16.253906 37.492188 16.253906 35 C 16.253906 32.507813 18.273438 30.488281 20.765625 30.488281 C 23.257813 30.488281 25.277344 32.507813 25.277344 35 Z M 25.277344 35 "/>
<path style=" stroke:none;fill-rule:nonzero;fill:rgb(31.372549%,90.196078%,100%);fill-opacity:1;" d="M 24.042969 53.035156 L 21.460938 55.625 C 21.003906 56.078125 20.265625 56.082031 19.808594 55.625 L 0.699219 36.570313 C -0.210938 35.660156 -0.214844 34.179688 0.695313 33.269531 L 3.277344 30.679688 L 24.039063 51.386719 C 24.496094 51.839844 24.496094 52.578125 24.042969 53.035156 Z M 24.042969 53.035156 "/>
<path style=" stroke:none;fill-rule:nonzero;fill:rgb(7.843137%,56.470588%,87.45098%);fill-opacity:1;" d="M 21.070313 14.421875 L 23.65625 17.003906 C 24.113281 17.457031 24.117188 18.195313 23.660156 18.652344 L 3.257813 39.113281 L 0.667969 36.53125 C -0.242188 35.621094 -0.246094 34.144531 0.664063 33.230469 L 19.417969 14.421875 C 19.875 13.96875 20.613281 13.964844 21.070313 14.421875 Z M 21.070313 14.421875 "/>
<path style=" stroke:none;fill-rule:nonzero;fill:rgb(31.372549%,90.196078%,100%);fill-opacity:1;" d="M 66.71875 30.644531 L 69.300781 33.234375 C 70.210938 34.144531 70.210938 35.625 69.296875 36.53125 L 50.1875 55.589844 C 49.730469 56.046875 48.992188 56.042969 48.535156 55.589844 L 45.957031 53 C 45.5 52.542969 45.5 51.804688 45.957031 51.351563 Z M 66.71875 30.644531 "/>
<path style=" stroke:none;fill-rule:nonzero;fill:rgb(7.843137%,56.470588%,87.45098%);fill-opacity:1;" d="M 69.292969 36.503906 L 66.703125 39.085938 L 46.300781 18.625 C 45.847656 18.171875 45.847656 17.429688 46.304688 16.976563 L 48.921875 14.367188 C 49.375 13.914063 50.117188 13.914063 50.570313 14.371094 L 69.324219 33.179688 C 70.234375 34.089844 70.234375 35.566406 69.320313 36.476563 Z M 69.292969 36.503906 "/>
</g>
</svg>
