<?xml version="1.0" encoding="UTF-8"?>
<svg xmlns="http://www.w3.org/2000/svg" xmlns:xlink="http://www.w3.org/1999/xlink" width="70pt" height="70pt" viewBox="0 0 70 70" version="1.1">
<defs>
<filter id="alpha" filterUnits="objectBoundingBox" x="0%" y="0%" width="100%" height="100%">
  <feColorMatrix type="matrix" in="SourceGraphic" values="0 0 0 0 1 0 0 0 0 1 0 0 0 0 1 0 0 0 1 0"/>
</filter>
<mask id="mask0">
  <g filter="url(#alpha)">
<rect x="0" y="0" width="70" height="70" style="fill:rgb(0%,0%,0%);fill-opacity:0.4;stroke:none;"/>
  </g>
</mask>
<clipPath id="clip1">
  <rect x="0" y="0" width="70" height="70"/>
</clipPath>
<g id="surface5" clip-path="url(#clip1)">
<path style=" stroke:none;fill-rule:nonzero;fill:rgb(11.372549%,11.372549%,11.372549%);fill-opacity:1;" d="M 9.800781 54.601563 C 11.265625 56.828125 13.171875 58.734375 15.398438 60.199219 L 19.0625 56.539063 L 13.460938 50.9375 Z M 9.800781 54.601563 "/>
</g>
<mask id="mask1">
  <g filter="url(#alpha)">
<rect x="0" y="0" width="70" height="70" style="fill:rgb(0%,0%,0%);fill-opacity:0.2;stroke:none;"/>
  </g>
</mask>
<clipPath id="clip2">
  <rect x="0" y="0" width="70" height="70"/>
</clipPath>
<g id="surface8" clip-path="url(#clip2)">
<path style=" stroke:none;fill-rule:nonzero;fill:rgb(21.960784%,59.607843%,77.254902%);fill-opacity:1;" d="M 18.886719 45.484375 C 18.886719 36.382813 25.226563 30.085938 34.285156 30.085938 C 37.101563 30.085938 39.730469 30.851563 42 32.171875 C 39.335938 27.582031 34.378906 24.484375 28.6875 24.484375 C 20.179688 24.484375 13.285156 31.382813 13.285156 39.886719 C 13.285156 45.578125 16.382813 50.535156 20.972656 53.199219 C 19.652344 50.929688 18.886719 48.300781 18.886719 45.484375 Z M 18.886719 45.484375 "/>
</g>
</defs>
<g id="surface1">
<path style=" stroke:none;fill-rule:nonzero;fill:rgb(100%,100%,100%);fill-opacity:1;" d="M 44.660156 1.539063 C 31.816406 1.539063 21.351563 11.835938 21.03125 24.605469 C 23.535156 23.292969 26.378906 22.539063 29.398438 22.539063 C 39.375 22.539063 47.460938 30.625 47.460938 40.601563 C 47.460938 43.5625 46.730469 46.351563 45.46875 48.820313 C 58.136719 48.386719 68.320313 37.976563 68.320313 25.199219 C 68.320313 12.15625 57.707031 1.539063 44.660156 1.539063 Z M 44.660156 1.539063 "/>
<path style=" stroke:none;fill-rule:nonzero;fill:rgb(21.960784%,59.607843%,77.254902%);fill-opacity:1;" d="M 46.015625 49.839844 C 51.15625 45.332031 56.644531 38.179688 56.644531 25.21875 C 56.644531 12.253906 51.246094 4.816406 45.964844 0.558594 L 43.824219 2.660156 C 48.769531 6.644531 53.339844 12.136719 53.339844 25.21875 C 53.339844 38.34375 48.613281 43.574219 43.777344 47.8125 Z M 46.015625 49.839844 "/>
<path style=" stroke:none;fill-rule:nonzero;fill:rgb(21.960784%,59.607843%,77.254902%);fill-opacity:1;" d="M 22.558594 23.71875 L 67.042969 23.71875 L 67.042969 26.683594 L 22.558594 26.683594 Z M 22.558594 23.71875 "/>
<path style=" stroke:none;fill-rule:nonzero;fill:rgb(21.960784%,59.607843%,77.254902%);fill-opacity:1;" d="M 44.800781 14.117188 C 37.503906 14.117188 30.914063 12.082031 26.980469 9.050781 L 25.203125 10.832031 C 29.585938 14.355469 36.722656 16.660156 44.800781 16.660156 C 52.878906 16.660156 60.011719 14.355469 64.398438 10.828125 L 62.621094 9.050781 C 58.6875 12.082031 52.097656 14.117188 44.800781 14.117188 Z M 44.800781 14.117188 "/>
<path style=" stroke:none;fill-rule:nonzero;fill:rgb(47.843137%,48.235294%,48.235294%);fill-opacity:1;" d="M 15.296875 49.105469 L 1.296875 63.105469 L 1.296875 63.109375 C 0.582031 63.824219 0.140625 64.8125 0.140625 65.90625 C 0.140625 68.089844 1.910156 69.859375 4.09375 69.859375 C 5.1875 69.859375 6.175781 69.417969 6.890625 68.703125 L 6.894531 68.703125 L 20.894531 54.703125 Z M 15.296875 49.105469 "/>
<use xlink:href="#surface5" mask="url(#mask0)"/>
<path style=" stroke:none;fill-rule:nonzero;fill:rgb(100%,100%,100%);fill-opacity:1;" d="M 41.613281 40.460938 C 41.613281 47.417969 35.972656 53.058594 29.015625 53.058594 C 22.054688 53.058594 16.414063 47.417969 16.414063 40.460938 C 16.414063 33.5 22.054688 27.859375 29.015625 27.859375 C 35.972656 27.859375 41.613281 33.5 41.613281 40.460938 Z M 41.613281 40.460938 "/>
<path style=" stroke:none;fill-rule:nonzero;fill:rgb(100%,100%,100%);fill-opacity:1;" d="M 44.800781 40.601563 C 44.800781 49.105469 37.90625 56 29.398438 56 C 20.894531 56 14 49.105469 14 40.601563 C 14 32.09375 20.894531 25.199219 29.398438 25.199219 C 37.90625 25.199219 44.800781 32.09375 44.800781 40.601563 Z M 44.800781 40.601563 "/>
<path style=" stroke:none;fill-rule:nonzero;fill:rgb(21.960784%,59.607843%,77.254902%);fill-opacity:1;" d="M 36.289063 23.90625 C 36.589844 11.78125 41.003906 6.507813 45.773438 2.660156 L 43.632813 0.558594 C 38.675781 4.558594 33.617188 11.359375 33.015625 22.902344 C 34.148438 23.132813 35.242188 23.476563 36.289063 23.90625 Z M 36.289063 23.90625 "/>
<path style=" stroke:none;fill-rule:nonzero;fill:rgb(21.960784%,59.607843%,77.254902%);fill-opacity:1;" d="M 46.121094 33.785156 C 46.457031 34.613281 46.726563 35.472656 46.9375 36.355469 C 53.371094 36.710938 59.074219 38.617188 62.621094 41.347656 L 64.398438 39.570313 C 60.253906 36.238281 53.648438 34.023438 46.121094 33.785156 Z M 46.121094 33.785156 "/>
<path style=" stroke:none;fill-rule:nonzero;fill:rgb(21.960784%,59.607843%,77.254902%);fill-opacity:1;" d="M 44.800781 0.140625 C 30.984375 0.140625 19.738281 11.382813 19.738281 25.199219 C 19.738281 25.25 19.746094 25.300781 19.75 25.355469 C 20.757813 24.714844 21.832031 24.175781 22.964844 23.742188 C 23.71875 12.339844 33.210938 3.289063 44.800781 3.289063 C 56.878906 3.289063 66.710938 13.121094 66.710938 25.199219 C 66.710938 36.789063 57.660156 46.28125 46.257813 47.035156 C 45.824219 48.167969 45.285156 49.242188 44.644531 50.25 C 44.699219 50.25 44.75 50.261719 44.800781 50.261719 C 58.617188 50.261719 69.859375 39.019531 69.859375 25.199219 C 69.859375 11.382813 58.617188 0.140625 44.800781 0.140625 Z M 44.800781 0.140625 "/>
<path style=" stroke:none;fill-rule:nonzero;fill:rgb(49.803922%,72.941176%,0%);fill-opacity:1;" d="M 27.414063 49 L 24.519531 40.449219 L 22.296875 44.832031 L 18.199219 44.832031 L 18.199219 42.636719 L 20.917969 42.636719 L 24.929688 34.734375 L 27.402344 42.035156 L 30.9375 31.480469 L 33.832031 40.015625 L 36.539063 34.851563 L 40.597656 34.851563 L 40.597656 37.078125 L 37.816406 37.074219 L 33.425781 45.726563 L 30.949219 38.4375 Z M 27.414063 49 "/>
<use xlink:href="#surface8" mask="url(#mask1)"/>
<path style=" stroke:none;fill-rule:nonzero;fill:rgb(47.843137%,48.235294%,48.235294%);fill-opacity:1;" d="M 29.398438 21.140625 C 18.652344 21.140625 9.941406 29.851563 9.941406 40.601563 C 9.941406 51.347656 18.652344 60.058594 29.398438 60.058594 C 40.148438 60.058594 48.859375 51.347656 48.859375 40.601563 C 48.859375 29.851563 40.148438 21.140625 29.398438 21.140625 Z M 29.398438 55.019531 C 21.433594 55.019531 14.980469 48.566406 14.980469 40.601563 C 14.980469 32.636719 21.433594 26.179688 29.398438 26.179688 C 37.363281 26.179688 43.820313 32.636719 43.820313 40.601563 C 43.820313 48.5625 37.363281 55.019531 29.398438 55.019531 Z M 29.398438 55.019531 "/>
</g>
</svg>
