<?xml version="1.0" encoding="utf-8"?><svg version="1.1" xmlns="http://www.w3.org/2000/svg" xmlns:xlink="http://www.w3.org/1999/xlink" xmlns:xml="http://www.w3.org/XML/1998/namespace" width="70" height="70" viewBox="0, 0, 18, 18" id="ad83bb93-39a1-4a0a-bb3f-2a7b7dbaf4fb"><defs><linearGradient x1="9" y1="15.7" x2="9" y2="5.66" gradientUnits="userSpaceOnUse" id="a73b79b8-c434-4cf3-819a-3c2f2126c264"><stop offset="0%" stop-color="#32BEDD" /><stop offset="18%" stop-color="#32CAEA" /><stop offset="41%" stop-color="#32D2F2" /><stop offset="78%" stop-color="#32D4F5" /></linearGradient></defs><title>Icon-networking-68</title><path d="M0.5 5.66 h17 a0 0 0 0 1 0 0 v9.48 a0.57 0.57 0 0 1 -0.57 0.57 H1.07 a0.57 0.57 0 0 1 -0.57 -0.57 V5.66 A0 0 0 0 1 0.5 5.66 Z" style="fill:url(#a73b79b8-c434-4cf3-819a-3c2f2126c264);" /><path d="M1.07 2 H16.93 a0.57 0.57 0 0 1 0.57 0.57 V5.66 a0 0 0 0 1 0 0 H0.5 a0 0 0 0 1 0 0 V2.6 A0.57 0.57 0 0 1 1.07 2 Z" style="fill:#0078D4;" /><circle cx="12.82" cy="10.06" r="1.38" style="fill:#F2F2F2;" /><circle cx="9.06" cy="10.06" r="1.38" style="fill:#F2F2F2;" /><circle cx="5.18" cy="10.06" r="1.38" style="fill:#F2F2F2;" /><rect x="2.79" y="3.12" width="12.43" height="1.46" rx="0.28" style="fill:#F2F2F2;" /></svg>