<?xml version="1.0" encoding="utf-8"?><svg viewBox="0 0 50 50" class="" role="presentation" focusable="false" xmlns="http://www.w3.org/2000/svg" xmlns:xlink="http://www.w3.org/1999/xlink" id="FxSymbol0-06d" data-type="1" width="100%" height="70" preserveAspectRatio="xMidYMid meet"><g><title></title><path d="M47.941 14.668c.465-.465.372-1.209 0-1.675l-2.233-2.233L35.66.992c-.465-.465-1.116-.465-1.582 0-.465.465-.558 1.209 0 1.675l10.513 10.327a1.18 1.18 0 010 1.675L33.893 25.367a1.18 1.18 0 000 1.675c.465.465 1.209.372 1.582 0l9.955-9.862.093-.093 2.418-2.419zm-45.96 0c-.465-.465-.372-1.209 0-1.675l2.233-2.233L14.262.991c.465-.465 1.116-.465 1.582 0 .465.465.558 1.209 0 1.675L5.517 12.994a1.18 1.18 0 000 1.675L16.03 25.367a1.18 1.18 0 010 1.675c-.465.465-1.209.372-1.582 0L4.307 17.273l-.093-.093-2.233-2.512z" class="msportalfx-svg-c16" fill="#0394FF"></path><path d="M18.5 14c0 2.015-1.647 3.5-3.397 3.5-1.75 0-3.603-1.697-3.603-3.5s1.441-3.5 3.603-3.5c2.059 0 3.397 1.697 3.397 3.5z" class="msportalfx-svg-c14" fill="#008CF4"></path><circle cx="35" cy="14" r="3.5" class="msportalfx-svg-c14" fill="#008CF4"></circle><path d="M41 36c-.354 0-.698.035-1.038.085v-.008c0-7.601-6.111-13.763-13.647-13.763-6.022 0-11.127 3.932-12.94 9.39a9.157 9.157 0 00-3.047-.526C5.173 31.178 1 35.391 1 40.587c0 5.199 4.172 9.412 9.328 9.412l.013-.003V50h30.176v-.002l.032.002c.076 0 .15-.009.225-.011.076.002.15.011.226.011a7 7 0 100-14z" class="msportalfx-svg-c15" fill="#39ABFF"></path><path d="M23 16h4v23h-4z" class="msportalfx-svg-c01" fill="#FFFFFF"></path><path d="M22.085 33.021a13.503 13.503 0 017.014-10.408c-.9-.19-1.828-.3-2.784-.3-6.021 0-11.127 3.932-12.94 9.39a9.152 9.152 0 00-3.047-.526C5.172 31.178 1 35.391 1 40.587c0 5.199 4.172 9.412 9.327 9.412l.013-.003V50h3.923A10.449 10.449 0 0112 43.5c0-5.659 4.48-10.259 10.085-10.479z" opacity=".2" class="msportalfx-svg-c01" fill="#FFFFFF"></path><path d="M28.5 14c0 2.015-1.647 3.5-3.397 3.5S21.5 15.803 21.5 14s1.647-3.5 3.603-3.5S28.5 12.197 28.5 14z" class="msportalfx-svg-c14" fill="#008CF4"></path><path d="M27 34.419v-12.07c-.228-.011-.453-.035-.684-.035-1.144 0-2.254.143-3.316.411v11.776c-1.231.732-2.1 2.049-2.1 3.499 0 2.107 2.034 4.101 4.186 4.101 2.214 0 4.015-1.84 4.015-4.101A4.103 4.103 0 0027 34.419z" class="msportalfx-svg-c01" fill="#FFFFFF"></path><path d="M27.9 38c0 1.67-1.365 2.9-2.815 2.9S22.1 39.494 22.1 38s1.365-2.9 2.985-2.9S27.9 36.506 27.9 38z" class="msportalfx-svg-c14" fill="#008CF4"></path><path d="M26 17v21h-2V17z" class="msportalfx-svg-c14" fill="#008CF4"></path></g><defs></defs></svg>