<?xml version="1.0" encoding="UTF-8"?>
<svg xmlns="http://www.w3.org/2000/svg" xmlns:xlink="http://www.w3.org/1999/xlink" width="70pt" height="70pt" viewBox="0 0 70 70" version="1.1">
<g id="surface1">
<path style=" stroke:none;fill-rule:nonzero;fill:rgb(0,73,128);fill-opacity:1;" d="M 13.71875 45.921875 L 57.121094 45.921875 L 57.121094 51.238281 L 13.71875 51.238281 Z M 13.71875 45.921875 "/>
<path style=" stroke:none;fill-rule:nonzero;fill:rgb(0,73,128);fill-opacity:1;" d="M 8.566406 44.03125 L 29.554688 23.046875 L 33.316406 26.808594 L 12.328125 47.792969 Z M 40.570313 23.082031 L 61.554688 44.066406 L 57.796875 47.828125 L 36.808594 26.84375 Z M 40.570313 23.082031 "/>
<path style=" stroke:none;fill-rule:nonzero;fill:rgb(39,163,255);fill-opacity:1;" d="M 35 13.578125 C 30.660156 13.578125 27.160156 17.078125 27.160156 21.421875 C 27.160156 25.761719 30.660156 29.261719 35 29.261719 C 39.339844 29.261719 42.839844 25.761719 42.839844 21.421875 C 42.839844 17.078125 39.339844 13.578125 35 13.578125 Z M 35 23.941406 C 33.601563 23.941406 32.480469 22.820313 32.480469 21.421875 C 32.480469 20.019531 33.601563 18.898438 35 18.898438 C 36.398438 18.898438 37.519531 20.019531 37.519531 21.421875 C 37.519531 22.820313 36.398438 23.941406 35 23.941406 Z M 7.839844 40.738281 C 3.5 40.738281 0 44.238281 0 48.578125 C 0 52.921875 3.5 56.421875 7.839844 56.421875 C 12.179688 56.421875 15.679688 52.921875 15.679688 48.578125 C 15.679688 44.238281 12.179688 40.738281 7.839844 40.738281 Z M 7.839844 51.101563 C 6.441406 51.101563 5.320313 49.980469 5.320313 48.578125 C 5.320313 47.179688 6.441406 46.058594 7.839844 46.058594 C 9.238281 46.058594 10.359375 47.179688 10.359375 48.578125 C 10.359375 49.980469 9.238281 51.101563 7.839844 51.101563 Z M 62.160156 40.738281 C 57.820313 40.738281 54.320313 44.238281 54.320313 48.578125 C 54.320313 52.921875 57.820313 56.421875 62.160156 56.421875 C 66.5 56.421875 70 52.921875 70 48.578125 C 70 44.238281 66.5 40.738281 62.160156 40.738281 Z M 62.160156 51.101563 C 60.761719 51.101563 59.640625 49.980469 59.640625 48.578125 C 59.640625 47.179688 60.761719 46.058594 62.160156 46.058594 C 63.558594 46.058594 64.679688 47.179688 64.679688 48.578125 C 64.679688 49.980469 63.558594 51.101563 62.160156 51.101563 Z M 62.160156 51.101563 "/>
</g>
</svg>
