<?xml version="1.0" encoding="UTF-8"?>
<svg xmlns="http://www.w3.org/2000/svg" xmlns:xlink="http://www.w3.org/1999/xlink" width="70pt" height="70pt" viewBox="0 0 70 70" version="1.1">
<defs>
<filter id="alpha" filterUnits="objectBoundingBox" x="0%" y="0%" width="100%" height="100%">
  <feColorMatrix type="matrix" in="SourceGraphic" values="0 0 0 0 1 0 0 0 0 1 0 0 0 0 1 0 0 0 1 0"/>
</filter>
<mask id="mask0">
  <g filter="url(#alpha)">
<rect x="0" y="0" width="70" height="70" style="fill:rgb(0,0,0);fill-opacity:0.2;stroke:none;"/>
  </g>
</mask>
<clipPath id="clip1">
  <rect x="0" y="0" width="70" height="70"/>
</clipPath>
<g id="surface5" clip-path="url(#clip1)">
<path style=" stroke:none;fill-rule:nonzero;fill:rgb(255,255,255);fill-opacity:1;" d="M 55.449219 17.921875 L 55.402344 17.921875 C 54.917969 8.796875 47.230469 1.539063 37.789063 1.539063 C 30.890625 1.539063 24.929688 5.421875 22.023438 11.070313 C 20.792969 10.789063 19.535156 10.644531 18.269531 10.640625 C 9.03125 10.640625 1.539063 17.972656 1.539063 27.019531 C 1.539063 36.066406 9.03125 43.398438 18.269531 43.398438 L 55.449219 43.398438 C 62.632813 43.398438 68.460938 37.695313 68.460938 30.660156 C 68.460938 23.625 62.632813 17.921875 55.449219 17.921875 Z M 55.449219 17.921875 "/>
</g>
</defs>
<g id="surface1">
<path style=" stroke:none;fill-rule:nonzero;fill:rgb(57,171,255);fill-opacity:1;" d="M 55.449219 17.921875 L 55.402344 17.921875 C 54.917969 8.796875 47.230469 1.539063 37.789063 1.539063 C 30.890625 1.539063 24.929688 5.421875 22.023438 11.070313 C 20.792969 10.789063 19.535156 10.644531 18.269531 10.640625 C 9.03125 10.640625 1.539063 17.972656 1.539063 27.019531 C 1.539063 36.066406 9.03125 43.398438 18.269531 43.398438 L 55.449219 43.398438 C 62.632813 43.398438 68.460938 37.695313 68.460938 30.660156 C 68.460938 23.625 62.632813 17.921875 55.449219 17.921875 Z M 55.449219 17.921875 "/>
<use xlink:href="#surface5" mask="url(#mask0)"/>
<path style=" stroke:none;fill-rule:nonzero;fill:rgb(255,255,255);fill-opacity:1;" d="M 36.398438 67.410156 C 23.933594 67.410156 13.789063 57.265625 13.789063 44.800781 C 13.789063 32.332031 23.933594 22.191406 36.398438 22.191406 C 48.867188 22.191406 59.011719 32.332031 59.011719 44.800781 C 59.011719 57.265625 48.867188 67.410156 36.398438 67.410156 Z M 36.398438 67.410156 "/>
<path style=" stroke:none;fill-rule:nonzero;fill:rgb(0,112,196);fill-opacity:1;" d="M 36.398438 23.238281 C 48.289063 23.238281 57.960938 32.910156 57.960938 44.800781 C 57.960938 56.6875 48.289063 66.359375 36.398438 66.359375 C 24.511719 66.359375 14.839844 56.6875 14.839844 44.800781 C 14.839844 32.910156 24.511719 23.238281 36.398438 23.238281 M 36.398438 21.140625 C 23.332031 21.140625 12.738281 31.730469 12.738281 44.800781 C 12.738281 57.867188 23.332031 68.460938 36.398438 68.460938 C 49.46875 68.460938 60.058594 57.867188 60.058594 44.800781 C 60.058594 31.730469 49.46875 21.140625 36.398438 21.140625 Z M 36.398438 21.140625 "/>
<path style=" stroke:none;fill-rule:nonzero;fill:rgb(0,112,196);fill-opacity:1;" d="M 32.636719 29.292969 C 30.324219 28.453125 27.765625 29.644531 26.925781 31.957031 C 26.082031 34.269531 27.277344 36.824219 29.585938 37.667969 C 31.898438 38.507813 34.457031 37.316406 35.296875 35.003906 C 36.140625 32.691406 34.945313 30.136719 32.636719 29.292969 Z M 32.636719 29.292969 "/>
<path style=" stroke:none;fill-rule:nonzero;fill:rgb(0,112,196);fill-opacity:1;" d="M 51.070313 42.324219 C 48.757813 41.484375 46.199219 42.675781 45.359375 44.988281 C 44.515625 47.300781 45.710938 49.855469 48.023438 50.695313 C 50.332031 51.539063 52.890625 50.347656 53.730469 48.035156 C 54.574219 45.722656 53.378906 43.167969 51.070313 42.324219 Z M 51.070313 42.324219 "/>
<path style=" stroke:none;fill-rule:nonzero;fill:rgb(0,112,196);fill-opacity:1;" d="M 29.246094 50.183594 C 26.933594 49.34375 24.378906 50.535156 23.535156 52.847656 C 22.695313 55.160156 23.886719 57.714844 26.199219 58.558594 C 28.511719 59.398438 31.066406 58.207031 31.90625 55.894531 C 32.75 53.582031 31.558594 51.027344 29.246094 50.183594 Z M 29.246094 50.183594 "/>
<path style=" stroke:none;fill-rule:nonzero;fill:rgb(0,112,196);fill-opacity:1;" d="M 26.300781 31.039063 C 22.652344 31.039063 19.132813 31.796875 15.789063 33.308594 C 15.203125 34.347656 14.695313 35.425781 14.269531 36.539063 C 17.90625 34.367188 22.066406 33.21875 26.300781 33.214844 C 39.292969 33.214844 49.863281 43.785156 49.863281 56.777344 C 49.863281 59.613281 49.359375 62.394531 48.363281 65.046875 L 48.316406 65.164063 C 49.3125 64.574219 50.265625 63.910156 51.160156 63.179688 C 51.683594 61.125 52.039063 58.910156 52.039063 56.777344 C 52.039063 42.585938 40.496094 31.039063 26.300781 31.039063 Z M 26.300781 31.039063 "/>
<path style=" stroke:none;fill-rule:nonzero;fill:rgb(0,112,196);fill-opacity:1;" d="M 46.582031 23.695313 C 45.476563 23.160156 44.332031 22.710938 43.15625 22.355469 C 32.585938 25.847656 25.511719 35.597656 25.511719 46.78125 C 25.511719 55.582031 29.9375 63.664063 37.351563 68.433594 C 38.59375 68.378906 39.816406 68.230469 41 67.988281 L 40.882813 67.929688 C 32.746094 63.925781 27.6875 55.820313 27.6875 46.78125 C 27.6875 35.585938 35.625 25.90625 46.582031 23.695313 Z M 46.582031 23.695313 "/>
<path style=" stroke:none;fill-rule:nonzero;fill:rgb(0,112,196);fill-opacity:1;" d="M 59.058594 51.003906 C 59.269531 50.222656 59.441406 49.425781 59.570313 48.613281 C 55.546875 46.179688 50.9375 44.890625 46.234375 44.886719 C 35.03125 44.886719 24.988281 51.984375 21.246094 62.84375 L 21.222656 62.910156 L 21.277344 62.960938 C 21.78125 63.390625 22.320313 63.804688 22.871094 64.207031 C 22.953125 64.265625 23.03125 64.324219 23.117188 64.378906 L 23.15625 64.253906 C 26.417969 53.929688 35.691406 47.191406 46.234375 47.191406 C 50.804688 47.191406 55.203125 48.519531 59.058594 51.003906 Z M 59.058594 51.003906 "/>
</g>
</svg>
