<?xml version="1.0" encoding="utf-8"?><svg id="ad83bb93-39a1-4a0a-bb3f-2a7b7dbaf4fb" xmlns="http://www.w3.org/2000/svg" width="100%" height="70" viewBox="0 0 18 18" preserveAspectRatio="xMidYMid meet"><defs><linearGradient id="a73b79b8-c434-4cf3-819a-3c2f2126c264" x1="9" y1="15.7" x2="9" y2="5.66" gradientUnits="userSpaceOnUse"><stop offset="0" stop-color="#2FA6FF" /><stop offset="0.18" stop-color="#3FADFF" /><stop offset="0.41" stop-color="#4BB2FF" /><stop offset="0.78" stop-color="#4FB4FF" /></linearGradient></defs><title>Icon-networking-68</title><path d="M.5,5.66h17a0,0,0,0,1,0,0v9.48a.57.57,0,0,1-.57.57H1.07a.57.57,0,0,1-.57-.57V5.66A0,0,0,0,1,.5,5.66Z" fill="url(#a73b79b8-c434-4cf3-819a-3c2f2126c264)" /><path d="M1.07,2H16.93a.57.57,0,0,1,.57.57V5.66a0,0,0,0,1,0,0H.5a0,0,0,0,1,0,0V2.6A.57.57,0,0,1,1.07,2Z" fill="#006CBC" /><circle cx="12.82" cy="10.06" r="1.38" fill="#E5F3FF" /><circle cx="9.06" cy="10.06" r="1.38" fill="#E5F3FF" /><circle cx="5.18" cy="10.06" r="1.38" fill="#E5F3FF" /><rect x="2.79" y="3.12" width="12.43" height="1.46" rx="0.28" fill="#E5F3FF" /></svg>