<?xml version="1.0" encoding="utf-8"?><svg version="1.1" xmlns="http://www.w3.org/2000/svg" xmlns:xlink="http://www.w3.org/1999/xlink" xmlns:xml="http://www.w3.org/XML/1998/namespace" width="70" height="70" viewBox="0, 0, 18, 18" id="a542cf39-2ba6-4206-8278-6a4f1c2452f5"><defs><radialGradient cx="-6811.4" cy="6729.69" r="17" gradientUnits="userSpaceOnUse" gradientTransform="matrix(0.5, 0, 0, -0.5, 3414.91, 3374.05)" id="e7579f4d-36a3-4693-a726-7a6050ac5671"><stop offset="18%" stop-color="#5EA0EF" /><stop offset="100%" stop-color="#0078D4" /></radialGradient></defs><title>Icon-networking-64</title><path d="M14.21 15.72 A8.5 8.5 0 0 1 3.79 2.28 l0.09 -0.06 a8.5 8.5 0 0 1 10.33 13.5" id="f57e105d-6d2d-4ad7-b8c3-c10684c9f9b8" style="fill:url(#e7579f4d-36a3-4693-a726-7a6050ac5671);" /><path d="M9 1.31 A7.69 7.69 0 1 0 16.69 9 A7.7 7.7 0 0 0 9 1.31 Z M14.15 3.9 A7.37 7.37 0 0 1 12 4.7 A8.83 8.83 0 0 0 10.75 2 A7.2 7.2 0 0 1 14.15 3.9 Z M9 1.74 a6.59 6.59 0 0 1 1.09 0.09 h0 a7.48 7.48 0 0 1 1.53 3 a15.12 15.12 0 0 1 -5.45 0 A7.38 7.38 0 0 1 7.68 1.89 l0 0 A7.34 7.34 0 0 1 9 1.74 Z M7 2 A8.72 8.72 0 0 0 5.73 4.68 a5.58 5.58 0 0 1 -1.9 -0.77 A7.35 7.35 0 0 1 7 2 Z M3.72 14 a5.27 5.27 0 0 1 1.78 -0.76 a7.08 7.08 0 0 0 1.35 2.72 A7.25 7.25 0 0 1 3.72 14 Z m6.41 2.2 A7.08 7.08 0 0 1 9 16.26 a6.83 6.83 0 0 1 -1.44 -0.15 l0 0 a6 6 0 0 1 -1.67 -3 a14.73 14.73 0 0 1 5.88 0 a6 6 0 0 1 -1.69 3 Z m0.73 -0.16 a7.13 7.13 0 0 0 1.38 -2.8 a6.68 6.68 0 0 1 2 0.83 A7.13 7.13 0 0 1 10.86 16 Z m1.48 -3.22 c0.08 -0.36 0.15 -0.73 0.2 -1.12 l-0.46 0.11 c-0.05 0.31 -0.1 0.62 -0.17 0.91 a15.23 15.23 0 0 0 -6.09 0 c-0.07 -0.27 -0.12 -0.56 -0.17 -0.86 a0.28 0.28 0 0 1 0 -0.09 l-0.46 -0.13 a2.36 2.36 0 0 0 0 0.28 c0 0.32 0.11 0.62 0.17 0.91 a5.9 5.9 0 0 0 -2 0.85 a7.24 7.24 0 0 1 0.11 -9.4 a6.29 6.29 0 0 0 2.08 0.86 c-0.07 0.24 -0.13 0.5 -0.18 0.76 s0 0.25 -0.08 0.37 l0.47 -0.11 l0 -0.17 c0.06 -0.26 0.12 -0.51 0.19 -0.75 A14.89 14.89 0 0 0 9 5.48 a15 15 0 0 0 2.78 -0.26 c0.07 0.27 0.14 0.56 0.2 0.85 l0.46 0.11 q-0.11 -0.54 -0.24 -1 a7.73 7.73 0 0 0 2.3 -0.91 a7.22 7.22 0 0 1 0.06 9.49 A7.28 7.28 0 0 0 12.34 12.79 Z" style="fill:#5EA0EF;" /><path d="M3.69 7 a7.92 7.92 0 0 1 1.16 -0.08 a2.44 2.44 0 0 1 1.71 0.52 A2 2 0 0 1 7.15 8.9 a2.21 2.21 0 0 1 -0.61 1.64 a2.6 2.6 0 0 1 -1.86 0.61 a9.17 9.17 0 0 1 -1 -0.05 Z m0.55 3.73 a4 4 0 0 0 0.55 0 A1.62 1.62 0 0 0 6.58 8.92 A1.5 1.5 0 0 0 4.87 7.3 a3.17 3.17 0 0 0 -0.63 0 Z" style="fill:white;" /><path d="M7.86 11.11 V6.9 h0.59 L9.8 9 a12.18 12.18 0 0 1 0.76 1.37 h0 c-0.05 -0.56 -0.06 -1.07 -0.06 -1.73 V6.9 H11 v4.21 h-0.55 L9.13 9 c-0.29 -0.47 -0.57 -1 -0.79 -1.4 h0 c0 0.53 0 1 0 1.74 v1.8 Z" style="fill:white;" /><path d="M11.89 10.45 a2 2 0 0 0 1 0.27 c0.56 0 0.88 -0.29 0.88 -0.72 s-0.22 -0.62 -0.79 -0.83 s-1.12 -0.6 -1.12 -1.2 a1.22 1.22 0 0 1 1.37 -1.14 a2 2 0 0 1 0.93 0.2 L14 7.48 a1.63 1.63 0 0 0 -0.8 -0.2 c-0.58 0 -0.8 0.34 -0.8 0.63 s0.26 0.59 0.84 0.81 s1.08 0.62 1.08 1.24 s-0.48 1.21 -1.48 1.21 a2.16 2.16 0 0 1 -1.07 -0.27 Z" style="fill:white;" /></svg>