<?xml version="1.0" encoding="utf-8"?><svg version="1.1" xmlns="http://www.w3.org/2000/svg" xmlns:xlink="http://www.w3.org/1999/xlink" xmlns:xml="http://www.w3.org/XML/1998/namespace" width="70" height="70" viewBox="0, 0, 18, 18"><defs><linearGradient x1="7.699" y1="956.076" x2="7.699" y2="960.567" gradientUnits="userSpaceOnUse" gradientTransform="translate(0, -950)" id="ee395d7d-9e11-4093-b455-9b6ca9e15a63"><stop offset="23%" stop-color="#29A4FF" /><stop offset="93%" stop-color="#0077D0" /></linearGradient><linearGradient x1="9.927" y1="957.947" x2="9.927" y2="962.438" gradientUnits="userSpaceOnUse" gradientTransform="translate(0, -950)" id="b8105328-c2c4-4923-8d18-6c844e8a389e"><stop offset="2%" stop-color="#29A4FF" /><stop offset="93%" stop-color="#0077D0" /></linearGradient></defs><g id="a5229e7a-2c78-4db9-99cc-ca7fbe64368b"><g><path d="M8.588 6.076 h-1.8 a2.246 2.246 0 0 0 -0.348 4.461 A2.409 2.409 0 0 1 6.466 9.7 a1.418 1.418 0 0 1 0.326 -2.8 h1.8 a1.422 1.422 0 0 1 0 2.844 H8.094 a1.07 1.07 0 0 0 -0.1 0.449 a1.018 1.018 0 0 0 0.071 0.374 h0.527 a2.246 2.246 0 1 0 0 -4.491 Z" style="fill:url(#ee395d7d-9e11-4093-b455-9b6ca9e15a63);" /><path d="M11.182 7.977 a2.644 2.644 0 0 1 0.026 0.345 a2.308 2.308 0 0 1 -0.049 0.49 a1.418 1.418 0 0 1 -0.325 2.8 h-1.8 a1.422 1.422 0 0 1 0 -2.844 h0.494 a1.045 1.045 0 0 0 0.1 -0.449 a1.028 1.028 0 0 0 -0.071 -0.375 H9.037 a2.246 2.246 0 0 0 0 4.491 h1.8 a2.246 2.246 0 0 0 0.348 -4.461 Z" style="fill:url(#b8105328-c2c4-4923-8d18-6c844e8a389e);" /><path d="M5.58 13.381 l-0.412 0.416 a0.282 0.282 0 0 1 -0.4 0 L0.164 9.2 a0.566 0.566 0 0 1 0 -0.8 L0.58 7.992 l5 4.993 a0.276 0.276 0 0 1 0 0.391 h0 Z" style="fill:#77C5FF;" /><path d="M5.082 3.876 l0.46 0.46 a0.282 0.282 0 0 1 0 0.4 L0.625 9.665 L0.164 9.209 a0.566 0.566 0 0 1 0 -0.8 L4.685 3.876 A0.282 0.282 0 0 1 5.082 3.876 Z" style="fill:#0084E6;" /><path d="M12.417 13.707 a0.276 0.276 0 0 1 -0.006 -0.391 h0 l0.006 0 l5 -4.988 l0.416 0.415 a0.566 0.566 0 0 1 0 0.8 l-4.611 4.588 a0.276 0.276 0 0 1 -0.391 0.006 h0 l-0.006 -0.005 Z" style="fill:#77C5FF;" /><path d="M13.311 4.205 l4.525 4.536 a0.563 0.563 0 0 1 0 0.793 l-0.461 0.46 L12.454 5.062 a0.287 0.287 0 0 1 0 -0.4 l0.46 -0.457 A0.282 0.282 0 0 1 13.311 4.205 Z" style="fill:#0084E6;" /></g></g></svg>