<?xml version="1.0" encoding="UTF-8"?>
<svg xmlns="http://www.w3.org/2000/svg" xmlns:xlink="http://www.w3.org/1999/xlink" width="70pt" height="70pt" viewBox="0 0 70 70" version="1.1">
<defs>
<linearGradient id="linear0" gradientUnits="userSpaceOnUse" x1="9" y1="14.14" x2="9" y2="1.38" gradientTransform="matrix(3.888889,0,0,3.888889,0,0)">
<stop offset="0" style="stop-color:rgb(0,108,188);stop-opacity:1;"/>
<stop offset="0.82" style="stop-color:rgb(41,164,255);stop-opacity:1;"/>
</linearGradient>
</defs>
<g id="surface1">
<path style=" stroke:none;fill-rule:nonzero;fill:url(#linear0);" d="M 70 39.433594 C 69.746094 31.738281 63.980469 25.34375 56.351563 24.304688 C 55.867188 13.472656 46.773438 5.035156 35.933594 5.367188 C 27.292969 5.207031 19.496094 10.523438 16.488281 18.628906 C 7.289063 19.738281 0.277344 27.40625 0 36.671875 C 0.402344 47.167969 9.21875 55.359375 19.714844 54.988281 L 53.355469 54.988281 C 53.640625 55.011719 53.925781 55.011719 54.210938 54.988281 C 62.808594 54.90625 69.789063 48.027344 70 39.433594 Z M 70 39.433594 "/>
<path style=" stroke:none;fill-rule:nonzero;fill:rgb(0,57,100);fill-opacity:1;" d="M 55.570313 43.515625 C 55.550781 42.628906 54.824219 41.921875 53.9375 41.921875 L 16.0625 41.921875 C 15.175781 41.921875 14.449219 42.628906 14.429688 43.515625 L 14.429688 62.960938 C 14.449219 63.847656 15.175781 64.554688 16.0625 64.554688 L 53.9375 64.554688 C 54.824219 64.554688 55.550781 63.847656 55.570313 62.960938 Z M 55.570313 43.515625 "/>
<path style=" stroke:none;fill-rule:nonzero;fill:rgb(0,107,186);fill-opacity:1;" d="M 16.722656 44.179688 L 27.882813 44.179688 L 27.882813 49.117188 L 16.722656 49.117188 Z M 16.722656 44.179688 "/>
<path style=" stroke:none;fill-rule:nonzero;fill:rgb(61,172,255);fill-opacity:1;" d="M 29.554688 44.179688 L 40.714844 44.179688 L 40.714844 49.117188 L 29.554688 49.117188 Z M 29.554688 44.179688 "/>
<path style=" stroke:none;fill-rule:nonzero;fill:rgb(0,107,186);fill-opacity:1;" d="M 42.390625 44.179688 L 53.550781 44.179688 L 53.550781 49.117188 L 42.390625 49.117188 Z M 42.390625 44.179688 "/>
<path style=" stroke:none;fill-rule:nonzero;fill:rgb(0,107,186);fill-opacity:1;" d="M 16.722656 50.789063 L 21.351563 50.789063 L 21.351563 55.726563 L 16.722656 55.726563 Z M 16.722656 50.789063 "/>
<path style=" stroke:none;fill-rule:nonzero;fill:rgb(61,172,255);fill-opacity:1;" d="M 48.921875 50.789063 L 53.550781 50.789063 L 53.550781 55.726563 L 48.921875 55.726563 Z M 48.921875 50.789063 "/>
<path style=" stroke:none;fill-rule:nonzero;fill:rgb(61,172,255);fill-opacity:1;" d="M 23.023438 50.789063 L 34.183594 50.789063 L 34.183594 55.726563 L 23.023438 55.726563 Z M 23.023438 50.789063 "/>
<path style=" stroke:none;fill-rule:nonzero;fill:rgb(0,107,186);fill-opacity:1;" d="M 35.894531 50.789063 L 47.054688 50.789063 L 47.054688 55.726563 L 35.894531 55.726563 Z M 35.894531 50.789063 "/>
<path style=" stroke:none;fill-rule:nonzero;fill:rgb(0,107,186);fill-opacity:1;" d="M 16.722656 57.398438 L 27.882813 57.398438 L 27.882813 62.339844 L 16.722656 62.339844 Z M 16.722656 57.398438 "/>
<path style=" stroke:none;fill-rule:nonzero;fill:rgb(61,172,255);fill-opacity:1;" d="M 29.554688 57.398438 L 40.714844 57.398438 L 40.714844 62.339844 L 29.554688 62.339844 Z M 29.554688 57.398438 "/>
<path style=" stroke:none;fill-rule:nonzero;fill:rgb(0,107,186);fill-opacity:1;" d="M 42.390625 57.398438 L 53.550781 57.398438 L 53.550781 62.339844 L 42.390625 62.339844 Z M 42.390625 57.398438 "/>
</g>
</svg>
