<?xml version="1.0" encoding="UTF-8"?>
<svg xmlns="http://www.w3.org/2000/svg" xmlns:xlink="http://www.w3.org/1999/xlink" width="70pt" height="70pt" viewBox="0 0 70 70" version="1.1">
<defs>
<linearGradient id="linear0" gradientUnits="userSpaceOnUse" x1="7.688" y1="-26.771" x2="7.688" y2="-21.482" gradientTransform="matrix(3.888889,0,0,3.888889,0,124.444444)">
<stop offset="0.23" style="stop-color:rgb(36.862745%,62.745098%,93.72549%);stop-opacity:1;"/>
<stop offset="0.32" style="stop-color:rgb(35.686275%,62.352941%,93.333333%);stop-opacity:1;"/>
<stop offset="0.48" style="stop-color:rgb(31.372549%,60.392157%,92.156863%);stop-opacity:1;"/>
<stop offset="0.57" style="stop-color:rgb(24.705882%,57.254902%,90.196078%);stop-opacity:1;"/>
<stop offset="0.75" style="stop-color:rgb(14.901961%,53.333333%,87.45098%);stop-opacity:1;"/>
<stop offset="0.93" style="stop-color:rgb(7.058824%,49.803922%,85.098039%);stop-opacity:1;"/>
</linearGradient>
<linearGradient id="linear1" gradientUnits="userSpaceOnUse" x1="10.312" y1="-24.568" x2="10.312" y2="-19.279" gradientTransform="matrix(3.888889,0,0,3.888889,0,124.444444)">
<stop offset="0.2" style="stop-color:rgb(31.372549%,90.196078%,100%);stop-opacity:1;"/>
<stop offset="0.65" style="stop-color:rgb(19.607843%,74.509804%,86.666667%);stop-opacity:1;"/>
<stop offset="1" style="stop-color:rgb(9.803922%,54.117647%,70.196078%);stop-opacity:1;"/>
</linearGradient>
<linearGradient id="linear2" gradientUnits="userSpaceOnUse" x1="9" y1="5.38" x2="9" y2="0" gradientTransform="matrix(3.888889,0,0,3.888889,0,0)">
<stop offset="0.199" style="stop-color:rgb(0%,35.686275%,63.137255%);stop-opacity:1;"/>
<stop offset="1" style="stop-color:rgb(0%,47.058824%,83.137255%);stop-opacity:1;"/>
</linearGradient>
</defs>
<g id="surface1">
<path style=" stroke:none;fill-rule:nonzero;fill:url(#linear0);" d="M 33.972656 20.335938 L 25.746094 20.335938 C 20.402344 20.371094 15.980469 24.492188 15.566406 29.816406 C 15.148438 35.140625 18.878906 39.898438 24.148438 40.761719 C 23.960938 39.492188 23.996094 38.203125 24.253906 36.945313 C 21.007813 36.222656 18.832031 33.160156 19.214844 29.855469 C 19.597656 26.550781 22.417969 24.070313 25.746094 24.109375 L 33.972656 24.109375 C 37.570313 24.109375 40.488281 27.027344 40.488281 30.625 C 40.488281 34.222656 37.570313 37.140625 33.972656 37.140625 L 31.710938 37.140625 C 31.402344 37.78125 31.238281 38.484375 31.226563 39.195313 C 31.230469 39.78125 31.339844 40.363281 31.554688 40.910156 L 33.972656 40.910156 C 39.574219 40.800781 44.058594 36.230469 44.058594 30.625 C 44.058594 25.023438 39.574219 20.453125 33.972656 20.34375 Z M 33.972656 20.335938 "/>
<path style=" stroke:none;fill-rule:nonzero;fill:url(#linear1);" d="M 45.851563 29.042969 C 45.925781 29.5625 45.964844 30.089844 45.96875 30.617188 C 45.976563 31.371094 45.898438 32.125 45.746094 32.859375 C 48.976563 33.597656 51.136719 36.652344 50.753906 39.945313 C 50.371094 43.238281 47.570313 45.714844 44.253906 45.695313 L 36.027344 45.695313 C 32.429688 45.695313 29.511719 42.777344 29.511719 39.179688 C 29.511719 35.582031 32.429688 32.667969 36.027344 32.667969 L 38.289063 32.667969 C 38.875 31.488281 38.929688 30.117188 38.445313 28.894531 L 36.027344 28.894531 C 30.425781 29.003906 25.941406 33.574219 25.941406 39.179688 C 25.941406 44.78125 30.425781 49.355469 36.027344 49.460938 L 44.253906 49.460938 C 49.597656 49.425781 54.019531 45.304688 54.433594 39.980469 C 54.851563 34.65625 51.121094 29.898438 45.851563 29.035156 Z M 45.851563 29.042969 "/>
<path style=" stroke:none;fill-rule:nonzero;fill:rgb(0%,47.058824%,83.137255%);fill-opacity:1;" d="M 35 -0.0976563 L 4.472656 17.363281 L 4.472656 52.246094 L 35 69.902344 L 65.527344 52.441406 L 65.527344 17.441406 Z M 59.890625 48.785156 L 35 63.175781 L 10.109375 48.9375 L 10.109375 20.824219 L 35 6.4375 L 59.890625 20.863281 Z M 59.890625 48.785156 "/>
<path style=" stroke:none;fill-rule:nonzero;fill:url(#linear2);" d="M 35 0 L 4.472656 17.460938 L 10.109375 20.921875 L 35 6.535156 L 59.890625 20.921875 L 65.527344 17.460938 Z M 35 0 "/>
</g>
</svg>
