<?xml version="1.0" encoding="UTF-8"?>
<svg xmlns="http://www.w3.org/2000/svg" xmlns:xlink="http://www.w3.org/1999/xlink" width="70pt" height="70pt" viewBox="0 0 70 70" version="1.1">
<defs>
<filter id="alpha" filterUnits="objectBoundingBox" x="0%" y="0%" width="100%" height="100%">
  <feColorMatrix type="matrix" in="SourceGraphic" values="0 0 0 0 1 0 0 0 0 1 0 0 0 0 1 0 0 0 1 0"/>
</filter>
<mask id="mask0">
  <g filter="url(#alpha)">
<rect x="0" y="0" width="70" height="70" style="fill:rgb(0,0,0);fill-opacity:0.2;stroke:none;"/>
  </g>
</mask>
<clipPath id="clip1">
  <rect x="0" y="0" width="70" height="70"/>
</clipPath>
<g id="surface5" clip-path="url(#clip1)">
<path style=" stroke:none;fill-rule:nonzero;fill:rgb(255,255,255);fill-opacity:1;" d="M 35.699219 22.261719 C 35.699219 28.980469 41.160156 34.441406 47.738281 34.578125 L 50.820313 10.359375 C 49.839844 9.941406 48.859375 9.941406 47.878906 9.941406 C 41.160156 9.941406 35.699219 15.398438 35.699219 22.261719 "/>
</g>
<mask id="mask1">
  <g filter="url(#alpha)">
<rect x="0" y="0" width="70" height="70" style="fill:rgb(0,0,0);fill-opacity:0.2;stroke:none;"/>
  </g>
</mask>
<clipPath id="clip2">
  <rect x="0" y="0" width="70" height="70"/>
</clipPath>
<g id="surface8" clip-path="url(#clip2)">
<path style=" stroke:none;fill-rule:nonzero;fill:rgb(255,255,255);fill-opacity:1;" d="M 38.921875 38.921875 L 25.898438 38.921875 L 25.898438 70 L 43.261719 70 L 45.921875 48.578125 Z M 38.921875 38.921875 "/>
</g>
</defs>
<g id="surface1">
<path style=" stroke:none;fill-rule:nonzero;fill:rgb(57,171,255);fill-opacity:1;" d="M 60.199219 22.261719 C 60.199219 29.121094 54.738281 34.578125 47.878906 34.578125 C 41.019531 34.578125 35.558594 29.121094 35.558594 22.261719 C 35.699219 15.398438 41.160156 9.941406 47.878906 9.941406 C 54.738281 9.941406 60.199219 15.398438 60.199219 22.261719 "/>
<path style=" stroke:none;fill-rule:nonzero;fill:rgb(57,171,255);fill-opacity:1;" d="M 56.839844 38.921875 L 47.878906 51.519531 L 38.921875 38.921875 L 25.898438 38.921875 L 25.898438 70 L 70 70 L 70 38.921875 Z M 56.839844 38.921875 "/>
<use xlink:href="#surface5" mask="url(#mask0)"/>
<use xlink:href="#surface8" mask="url(#mask1)"/>
<path style=" stroke:none;fill-rule:nonzero;fill:rgb(65,174,255);fill-opacity:1;" d="M 7.839844 25.761719 L 14.699219 33.039063 L 9.101563 33.039063 L 0 23.660156 L 9.101563 14.28125 L 14.699219 14.28125 L 7.839844 21.421875 L 28 21.421875 L 28 25.761719 Z M 7.839844 25.761719 "/>
<path style=" stroke:none;fill-rule:nonzero;fill:rgb(65,174,255);fill-opacity:1;" d="M 28 0 L 28 25.761719 L 23.660156 25.761719 L 23.660156 0 Z M 28 0 "/>
</g>
</svg>
