<?xml version="1.0" encoding="utf-8"?><svg version="1.1" xmlns="http://www.w3.org/2000/svg" xmlns:xlink="http://www.w3.org/1999/xlink" xmlns:xml="http://www.w3.org/XML/1998/namespace" width="70" height="70" viewBox="0, 0, 18, 18"><defs><linearGradient x1="13.119" y1="5.643" x2="11.489" y2="16.919" gradientUnits="userSpaceOnUse" id="aa436aef-5326-4d7d-ad29-02c369cb3782"><stop offset="0%" stop-color="#29A4FF" /><stop offset="100%" stop-color="#006CBC" /></linearGradient></defs><rect x="3.201" y="3.372" width="1.335" height="6.415" transform="translate(3.808, -1.053) rotate(30, 0, 0)" style="fill:#006CBC;" /><rect x="7.573" y="3.478" width="1.335" height="6.415" transform="translate(-2.239, 5.016) rotate(-30, 0, 0)" style="fill:#006CBC;" /><rect x="5.338" y="7.261" width="1.335" height="6.415" transform="translate(16.473, 4.462) rotate(90, 0, 0)" style="fill:#006CBC;" /><circle cx="6.124" cy="2.649" r="1.626" style="fill:#59B8FF;" /><circle cx="1.626" cy="10.564" r="1.626" style="fill:#59B8FF;" /><circle cx="12.284" cy="11.348" r="5.325" style="fill:white;" /><path d="M9.853 12.725 a0.3 0.3 0 0 1 -0.212 -0.512 l1.128 -1.127 a0.3 0.3 0 1 1 0.424 0.423 l-1.128 1.128 A0.3 0.3 0 0 1 9.853 12.725 Z" style="fill:#006CBC;" /><path d="M10.686 13.558 a0.3 0.3 0 0 1 -0.212 -0.512 L11.6 11.919 a0.3 0.3 0 1 1 0.424 0.424 L10.9 13.471 A0.3 0.3 0 0 1 10.686 13.558 Z" style="fill:#006CBC;" /><path d="M11.511 14.383 a0.3 0.3 0 0 1 -0.212 -0.511 l1.127 -1.128 a0.3 0.3 0 1 1 0.425 0.424 L11.724 14.3 A0.3 0.3 0 0 1 11.511 14.383 Z" style="fill:#006CBC;" /><path d="M11.924 10.654 a0.3 0.3 0 0 1 -0.212 -0.511 L12.84 9.015 a0.3 0.3 0 0 1 0.424 0.424 l-1.128 1.127 A0.3 0.3 0 0 1 11.924 10.654 Z" style="fill:#006CBC;" /><path d="M12.757 11.487 a0.3 0.3 0 0 1 -0.212 -0.511 l1.127 -1.128 a0.3 0.3 0 1 1 0.425 0.424 L12.97 11.4 A0.3 0.3 0 0 1 12.757 11.487 Z" style="fill:#006CBC;" /><path d="M13.582 12.312 a0.3 0.3 0 0 1 -0.212 -0.512 L14.5 10.672 a0.3 0.3 0 0 1 0.424 0.425 l-1.128 1.128 A0.3 0.3 0 0 1 13.582 12.312 Z" style="fill:#006CBC;" /><path d="M9.62 12.022 a0.3 0.3 0 0 0 -0.425 0 L7.27 13.947 a5.717 5.717 0 0 0 2.947 2.634 l1.769 -1.768 a0.3 0.3 0 0 0 0 -0.426 Z" style="fill:#29A4FF;" /><path d="M14.973 6.249 L12.78 8.442 a0.3 0.3 0 0 0 0 0.425 l2.366 2.366 a0.3 0.3 0 0 0 0.425 0 L17.606 9.2 A5.713 5.713 0 0 0 14.973 6.249 Z" style="fill:#55B6FF;" /><path d="M12.3 6.335 a4.946 4.946 0 1 1 -4.946 4.946 A4.952 4.952 0 0 1 12.3 6.335 m0 -0.75 a5.7 5.7 0 1 0 5.7 5.7 a5.7 5.7 0 0 0 -5.7 -5.7 Z" style="fill:url(#aa436aef-5326-4d7d-ad29-02c369cb3782);" />​
</svg>