<?xml version="1.0" encoding="utf-8"?><svg version="1.1" xmlns="http://www.w3.org/2000/svg" xmlns:xlink="http://www.w3.org/1999/xlink" xmlns:xml="http://www.w3.org/XML/1998/namespace" width="70" height="70" viewBox="0, 0, 18, 18" id="b75943ba-1a3f-485d-b45d-3fee00ed7e5e"><defs><linearGradient x1="9.01" y1="0.75" x2="9.01" y2="17.25" gradientUnits="userSpaceOnUse" id="fe5ce43f-2823-4617-bb54-57df9e778372"><stop offset="0%" stop-color="#5EA0EF" /><stop offset="18%" stop-color="#559CEC" /><stop offset="47%" stop-color="#3C91E5" /><stop offset="84%" stop-color="#1380DA" /><stop offset="100%" stop-color="#0078D4" /></linearGradient></defs><title>Icon-networking-67</title><path d="M16.36 8.4 c0 4.84 -5.85 8.74 -7.12 9.53 a0.46 0.46 0 0 1 -0.48 0 c-1.27 -0.79 -7.12 -4.69 -7.12 -9.53 V2.58 a0.46 0.46 0 0 1 0.45 -0.46 C6.64 2 5.59 0 9 0 s2.36 2 6.91 2.12 a0.46 0.46 0 0 1 0.45 0.46 Z" style="fill:#0078D4;" /><path d="M15.75 8.45 c0 4.44 -5.36 8 -6.53 8.74 a0.43 0.43 0 0 1 -0.44 0 c-1.17 -0.72 -6.53 -4.3 -6.53 -8.74 V3.11 a0.42 0.42 0 0 1 0.41 -0.42 C6.83 2.58 5.87 0.75 9 0.75 s2.17 1.83 6.34 1.94 a0.42 0.42 0 0 1 0.41 0.42 Z" style="fill:#6BB9F2;" /><path d="M9 9 V0.75 c3.13 0 2.17 1.83 6.34 1.94 a0.43 0.43 0 0 1 0.41 0.43 V8.46 a4.89 4.89 0 0 1 0 0.54 Z M9 9 H2.28 c0.4 4.18 5.38 7.5 6.5 8.19 a0.39 0.39 0 0 0 0.18 0.06 H9 Z" style="fill:url(#fe5ce43f-2823-4617-bb54-57df9e778372);" /><path d="M2.66 2.69 C6.83 2.58 5.87 0.75 9 0.75 V9 H2.28 a4.89 4.89 0 0 1 0 -0.54 V3.12 A0.43 0.43 0 0 1 2.66 2.69 Z" style="fill:#50E6FF;" /><path d="M15.72 9 H9 v8.25 H9 a0.39 0.39 0 0 0 0.18 -0.06 C10.34 16.5 15.32 13.18 15.72 9 Z" style="fill:#50E6FF;" /></svg>