<?xml version="1.0" encoding="utf-8"?><svg id="b90f7485-edb8-49cc-9118-bc054cf5c18e" xmlns="http://www.w3.org/2000/svg" width="100%" height="70" viewBox="0 0 18 18" preserveAspectRatio="xMidYMid meet"><defs><linearGradient id="ad52e31e-75de-46af-9bdc-bea038ab4209" x1="9" y1="15.83" x2="9" y2="5.79" gradientUnits="userSpaceOnUse"><stop offset="0" stop-color="#2FA6FF" /><stop offset="0.18" stop-color="#3FADFF" /><stop offset="0.41" stop-color="#4BB2FF" /><stop offset="0.78" stop-color="#4FB4FF" /></linearGradient></defs><title>Icon-networking-69</title><path d="M.5,5.79h17a0,0,0,0,1,0,0v9.48a.57.57,0,0,1-.57.57H1.07a.57.57,0,0,1-.57-.57V5.79A0,0,0,0,1,.5,5.79Z" fill="url(#ad52e31e-75de-46af-9bdc-bea038ab4209)" /><path d="M1.07,2.17H16.93a.57.57,0,0,1,.57.57V5.79a0,0,0,0,1,0,0H.5a0,0,0,0,1,0,0V2.73A.57.57,0,0,1,1.07,2.17Z" fill="#0087EC" /><circle cx="12.82" cy="10.19" r="1.38" fill="#E5F3FF" /><circle cx="9.06" cy="10.19" r="1.38" fill="#E5F3FF" /><circle cx="5.18" cy="10.19" r="1.38" fill="#E5F3FF" /><rect x="2.79" y="3.25" width="12.43" height="1.46" rx="0.28" fill="#E5F3FF" /></svg>