<?xml version="1.0" encoding="UTF-8"?>
<svg xmlns="http://www.w3.org/2000/svg" xmlns:xlink="http://www.w3.org/1999/xlink" width="70pt" height="70pt" viewBox="0 0 70 70" version="1.1">
<defs>
<linearGradient id="linear0" gradientUnits="userSpaceOnUse" x1="9.036" y1="8.077" x2="9.036" y2="5.881" gradientTransform="matrix(3.888889,0,0,3.888889,0,0)">
<stop offset="0" style="stop-color:rgb(0,138,240);stop-opacity:1;"/>
<stop offset="0.241" style="stop-color:rgb(27,158,255);stop-opacity:1;"/>
<stop offset="0.501" style="stop-color:rgb(61,172,255);stop-opacity:1;"/>
<stop offset="0.756" style="stop-color:rgb(81,181,255);stop-opacity:1;"/>
<stop offset="1" style="stop-color:rgb(89,184,255);stop-opacity:1;"/>
</linearGradient>
<linearGradient id="linear1" gradientUnits="userSpaceOnUse" x1="-413.968" y1="-221.863" x2="-413.968" y2="-214.324" gradientTransform="matrix(3.888889,0,0,-3.888889,1661.045556,-800.17)">
<stop offset="0" style="stop-color:rgb(0,81,142);stop-opacity:1;"/>
<stop offset="0.126" style="stop-color:rgb(0,95,166);stop-opacity:1;"/>
<stop offset="0.515" style="stop-color:rgb(0,137,238);stop-opacity:1;"/>
<stop offset="0.819" style="stop-color:rgb(25,157,255);stop-opacity:1;"/>
<stop offset="1" style="stop-color:rgb(41,164,255);stop-opacity:1;"/>
</linearGradient>
</defs>
<g id="surface1">
<path style=" stroke:none;fill-rule:nonzero;fill:url(#linear0);" d="M 52.984375 27.113281 C 55.335938 27.109375 57.242188 29.011719 57.246094 31.359375 C 57.246094 33.707031 55.34375 35.613281 52.996094 35.613281 C 50.648438 35.617188 48.742188 33.710938 48.742188 31.363281 Z M 35.125 22.890625 C 35.125 20.542969 37.027344 18.640625 39.375 18.640625 C 41.722656 18.640625 43.625 20.542969 43.625 22.890625 C 43.625 25.238281 41.722656 27.140625 39.375 27.140625 Z M 21.535156 22.890625 C 21.535156 20.542969 23.441406 18.640625 25.789063 18.640625 C 28.132813 18.640625 30.039063 20.542969 30.039063 22.890625 C 30.039063 25.238281 28.132813 27.140625 25.789063 27.140625 Z M 21.535156 22.890625 "/>
<path style=" stroke:none;fill-rule:nonzero;fill:rgb(119,197,255);fill-opacity:1;" d="M 24.65625 44.167969 L 22.21875 46.613281 C 9.34375 46.613281 -1.089844 36.175781 -1.089844 23.304688 C -1.089844 10.433594 9.34375 0 22.21875 0 L 2.613281 28.625 C -5.292969 23.210938 -7.3125 12.414063 -1.898438 4.511719 C 3.515625 -3.394531 14.3125 -5.414063 22.21875 0 L 24.652344 -2.441406 L 44.253906 17.101563 C 39.53125 23.1875 30.769531 24.292969 24.683594 19.570313 C 18.597656 14.847656 17.496094 6.085938 22.21875 0 Z M 24.65625 44.167969 "/>
<path style=" stroke:none;fill-rule:nonzero;fill:rgb(0,132,230);fill-opacity:1;" d="M 21.855469 7.691406 L 24.296875 10.125 C 21.5 16.835938 13.796875 20.007813 7.085938 17.210938 C 0.375 14.414063 -2.796875 6.710938 0 0 L 5.039063 31.007813 L 2.605469 28.582031 C -5.289063 29.304688 -12.269531 23.488281 -12.988281 15.59375 C -13.707031 7.703125 -7.894531 0.71875 0 0 L 20.300781 7.699219 C 22.425781 2.09375 19.605469 -4.171875 14 -6.300781 C 8.394531 -8.425781 2.125 -5.605469 0 0 Z M 21.855469 7.691406 "/>
<path style=" stroke:none;fill-rule:nonzero;fill:rgb(119,197,255);fill-opacity:1;" d="M 64.949219 23.0625 L 67.386719 25.507813 C 60.34375 44.117188 39.546875 53.492188 20.941406 46.445313 C 2.332031 39.402344 -7.042969 18.609375 0 0 L -18.042969 17.988281 C -23.011719 17.988281 -27.039063 13.960938 -27.039063 8.996094 C -27.039063 4.027344 -23.011719 0 -18.042969 0 L -20.484375 -2.449219 C -19.804688 -3.125 -18.710938 -3.121094 -18.039063 -2.445313 C -17.367188 -1.769531 -17.367188 -0.671875 -18.042969 0 L 1.558594 -19.550781 Z M 64.949219 23.0625 "/>
<path style=" stroke:none;fill-rule:nonzero;fill:rgb(0,132,230);fill-opacity:1;" d="M 67.40625 28.566406 L 64.960938 31.007813 L 45.699219 11.691406 C 42.46875 24.308594 29.625 31.921875 17.003906 28.695313 C 4.386719 25.464844 -3.226563 12.621094 0 0 L 2.441406 -2.433594 C 1.769531 -3.109375 0.679688 -3.109375 0.00390625 -2.4375 C -0.671875 -1.765625 -0.671875 -0.675781 0 0 L 17.703125 17.757813 C 12.800781 22.644531 4.859375 22.632813 -0.0273438 17.730469 C -4.914063 12.824219 -4.902344 4.886719 0 0 Z M 67.40625 28.566406 "/>
<path style=" stroke:none;fill-rule:nonzero;fill:url(#linear1);" d="M 65.832031 47.972656 C 65.832031 56.066406 59.269531 62.628906 51.175781 62.628906 C 43.078125 62.628906 36.515625 56.066406 36.515625 47.972656 C 36.515625 39.878906 43.078125 33.316406 51.175781 33.316406 C 59.269531 33.316406 65.832031 39.878906 65.832031 47.972656 Z M 65.832031 47.972656 "/>
<path style=" stroke:none;fill-rule:nonzero;fill:rgb(255,255,255);fill-opacity:1;" d="M 49.734375 40.292969 L 45.378906 40.292969 C 46.980469 37.3125 50.691406 36.195313 53.671875 37.796875 C 56.648438 39.394531 57.765625 43.109375 56.167969 46.085938 L 63.929688 46.085938 C 65.058594 47.007813 65.488281 48.539063 65 49.910156 C 64.511719 51.28125 63.214844 52.199219 61.757813 52.199219 C 60.300781 52.199219 59.003906 51.28125 58.515625 49.910156 C 58.027344 48.539063 58.457031 47.007813 59.585938 46.085938 L 58.378906 46.085938 C 59.183594 46.640625 59.605469 47.597656 59.46875 48.5625 L 60.746094 48.5625 C 63.605469 48.902344 65.710938 51.414063 65.542969 54.289063 C 65.371094 57.167969 62.988281 59.414063 60.105469 59.414063 C 57.222656 59.414063 54.839844 57.167969 54.671875 54.289063 C 54.503906 51.414063 56.605469 48.902344 59.46875 48.5625 Z M 49.734375 40.292969 "/>
<path style=" stroke:none;fill-rule:nonzero;fill:rgb(255,255,255);fill-opacity:1;" d="M 57.097656 44.890625 C 56.652344 42.039063 58.089844 39.226563 60.664063 37.917969 C 63.234375 36.613281 66.355469 37.109375 68.394531 39.148438 C 70.4375 41.1875 70.933594 44.308594 69.625 46.878906 C 68.316406 49.453125 65.503906 50.890625 62.652344 50.445313 L 66.066406 50.445313 L 61.707031 50.445313 C 60.582031 49.527344 60.160156 47.996094 60.648438 46.625 C 61.136719 45.257813 62.433594 44.339844 63.886719 44.339844 C 65.34375 44.339844 66.640625 45.257813 67.128906 46.625 C 67.617188 47.996094 67.195313 49.527344 66.066406 50.445313 L 67.265625 50.445313 C 68.519531 50.75 69.347656 51.941406 69.195313 53.222656 C 69.042969 54.503906 67.957031 55.46875 66.667969 55.46875 C 65.378906 55.46875 64.289063 54.503906 64.136719 53.222656 C 63.984375 51.941406 64.8125 50.75 66.066406 50.445313 L 64.8125 50.445313 C 65.230469 50.398438 65.652344 50.398438 66.066406 50.445313 L 70.421875 50.445313 C 72.785156 51.476563 74.101563 54.023438 73.574219 56.546875 C 73.046875 59.074219 70.824219 60.882813 68.246094 60.882813 C 65.664063 60.882813 63.441406 59.074219 62.914063 56.546875 C 62.386719 54.023438 63.703125 51.476563 66.066406 50.445313 Z M 57.097656 44.890625 "/>
</g>
</svg>
