<?xml version="1.0" encoding="utf-8"?><svg version="1.1" xmlns="http://www.w3.org/2000/svg" xmlns:xlink="http://www.w3.org/1999/xlink" xmlns:xml="http://www.w3.org/XML/1998/namespace" width="70" height="70" viewBox="0, 0, 18, 18" id="b300f0d1-2ad8-4418-a1c5-23d0b9d21841"><defs><linearGradient x1="10.79" y1="2.17" x2="10.79" y2="16.56" gradientUnits="userSpaceOnUse" id="b8cad6fd-ec7f-45e9-be2a-125e8b87bd03"><stop offset="18%" stop-color="#5EA0EF" /><stop offset="100%" stop-color="#0078D4" /></linearGradient></defs><title>Icon-web-43</title><rect x="3.7" y="5.49" width="1.18" height="5.26" rx="0.52" transform="translate(-3.83, 12.41) rotate(-90, 0, 0)" style="fill:#B3B3B3;" /><rect x="2.04" y="7.88" width="1.18" height="5.26" rx="0.52" transform="translate(-7.88, 13.14) rotate(-90, 0, 0)" style="fill:#A3A3A3;" /><rect x="3.7" y="10.26" width="1.18" height="5.26" rx="0.52" transform="translate(-8.6, 17.19) rotate(-90, 0, 0)" style="fill:#7A7A7A;" /><path d="M18 11 a3.28 3.28 0 0 0 -2.81 -3.18 a4.13 4.13 0 0 0 -4.21 -4 a4.23 4.23 0 0 0 -4 2.8 a3.89 3.89 0 0 0 -3.38 3.8 a4 4 0 0 0 4.06 3.86 l0.36 0 h6.58 l0.17 0 A3.32 3.32 0 0 0 18 11 Z" style="fill:url(#b8cad6fd-ec7f-45e9-be2a-125e8b87bd03);" /></svg>