<?xml version="1.0" encoding="utf-8"?><svg version="1.1" xmlns="http://www.w3.org/2000/svg" xmlns:xlink="http://www.w3.org/1999/xlink" xmlns:xml="http://www.w3.org/XML/1998/namespace" width="70" height="70" viewBox="0, 0, 18, 18" id="abd0f203-bb3f-40b1-aa70-d3c4523b69e9"><defs><linearGradient x1="9" y1="1.36" x2="9" y2="17.87" gradientUnits="userSpaceOnUse" id="bf34fd15-2ab2-49bf-80d2-731c19b20dc3"><stop offset="18%" stop-color="#29A4FF" /><stop offset="100%" stop-color="#006CBC" /></linearGradient></defs><title>Icon-networking-72</title><path d="M16.36 8.4 c0 4.84 -5.85 8.74 -7.12 9.53 a0.46 0.46 0 0 1 -0.48 0 c-1.27 -0.79 -7.12 -4.69 -7.12 -9.53 V2.58 a0.46 0.46 0 0 1 0.45 -0.46 C6.64 2 5.59 0 9 0 s2.36 2 6.91 2.12 a0.46 0.46 0 0 1 0.45 0.46 Z" style="fill:#006CBC;" /><path d="M15.75 8.45 c0 4.44 -5.36 8 -6.53 8.74 a0.43 0.43 0 0 1 -0.44 0 c-1.17 -0.72 -6.53 -4.3 -6.53 -8.74 V3.11 a0.42 0.42 0 0 1 0.41 -0.42 C6.83 2.58 5.87 0.75 9 0.75 s2.17 1.83 6.34 1.94 a0.42 0.42 0 0 1 0.41 0.42 Z" style="fill:url(#bf34fd15-2ab2-49bf-80d2-731c19b20dc3);" /><path d="M11.8 12.52 a0.48 0.48 0 0 1 -0.48 0.48 H6.68 a0.48 0.48 0 0 1 -0.48 -0.48 V3.94 a0.48 0.48 0 0 1 0.48 -0.49 h4.64 a0.48 0.48 0 0 1 0.48 0.49 Z" style="fill:#CDE9FF;" /><path d="M7 5 a0.6 0.6 0 0 1 0.6 -0.6 h2.8 A0.6 0.6 0 0 1 11 5 h0 a0.6 0.6 0 0 1 -0.6 0.61 H7.6 A0.6 0.6 0 0 1 7 5 Z" style="fill:#002C4E;" /><circle cx="7.63" cy="4.99" r="0.41" style="fill:#77C5FF;" /><path d="M7 6.9 a0.61 0.61 0 0 1 0.6 -0.61 h2.8 a0.61 0.61 0 0 1 0.6 0.61 h0 a0.6 0.6 0 0 1 -0.6 0.61 H7.6 A0.6 0.6 0 0 1 7 6.9 Z" style="fill:#002C4E;" /><circle cx="7.63" cy="6.9" r="0.41" style="fill:#77C5FF;" /></svg>