<?xml version="1.0" encoding="utf-8"?><svg version="1.1" xmlns="http://www.w3.org/2000/svg" xmlns:xlink="http://www.w3.org/1999/xlink" xmlns:xml="http://www.w3.org/XML/1998/namespace" width="70" height="70" viewBox="0, 0, 18, 18" id="b5825b2c-532e-4596-8681-4e75b6a53529"><defs><linearGradient x1="9.19" y1="17.5" x2="9.19" y2="0.5" gradientUnits="userSpaceOnUse" id="b5baf554-e9b4-4fe7-b8e9-cf87296b34cc"><stop offset="0%" stop-color="#0078D4" /><stop offset="82%" stop-color="#5EA0EF" /></linearGradient></defs><title>Icon-networking-85</title><path d="M13.35 2.88 A2.31 2.31 0 0 1 15.65 0.56 h0 a1.86 1.86 0 0 1 1.59 1.88 a1.86 1.86 0 0 1 -0.41 1.18 a0.71 0.71 0 0 1 -0.55 0.26 h-3 Z" style="fill:#0078D4;" /><path d="M13.56 0.51 h-9 A2.29 2.29 0 0 0 2.29 2.8 V17.49 a0 0 0 0 0 0 0 h9 a2.29 2.29 0 0 0 2.29 -2.29 l0 -2.43 V5.29 a25.76 25.76 0 0 1 0 -3 C13.94 0.3 16.09 0.65 16.09 0.65 A11.13 11.13 0 0 0 13.56 0.51 Z" style="fill:url(#b5baf554-e9b4-4fe7-b8e9-cf87296b34cc);" /><path d="M8 11.64 V6.94 a0.53 0.53 0 0 0 0.27 -0.46 a0.54 0.54 0 0 0 -0.54 -0.54 a0.54 0.54 0 0 0 -0.26 1 v4.7 a0.55 0.55 0 0 0 -0.27 0.47 a0.54 0.54 0 1 0 1.07 0 A0.55 0.55 0 0 0 8 11.64 Z" style="fill:#F2F2F2;" /><path d="M11.45 17.43 h0 a1.84 1.84 0 0 1 -0.89 -3.24 a0.23 0.23 0 0 0 -0.15 -0.41 l-7.82 0 l-0.29 0 h0 a1.85 1.85 0 0 0 0 3.64 h0 a1.36 1.36 0 0 0 0.29 0 Z" style="fill:#5EA0EF;" /><circle cx="9.44" cy="6.49" r="0.55" style="fill:#F2F2F2;" /><circle cx="7.69" cy="6.49" r="0.55" style="fill:#F2F2F2;" /><circle cx="5.95" cy="6.49" r="0.55" style="fill:#F2F2F2;" /><path d="M6 9 l0.32 -0.32 a0.15 0.15 0 0 0 0 -0.2 L3.83 6 l-0.32 0.32 a0.28 0.28 0 0 0 0 0.4 L5.83 9 A0.15 0.15 0 0 0 6 9 Z" style="fill:#B3B3B3;" /><path d="M6.3 4.3 L6 4 a0.15 0.15 0 0 0 -0.2 0 L3.51 6.27 a0.28 0.28 0 0 0 0 0.4 L3.82 7 L6.3 4.5 A0.13 0.13 0 0 0 6.3 4.3 Z" style="fill:#F2F2F2;" /><path d="M9.32 9 L9 8.67 a0.13 0.13 0 0 1 0 -0.2 L11.53 6 l0.31 0.32 a0.28 0.28 0 0 1 0 0.4 L9.52 9 A0.15 0.15 0 0 1 9.32 9 Z" style="fill:#B3B3B3;" /><path d="M9.05 4.3 L9.37 4 a0.15 0.15 0 0 1 0.2 0 l2.27 2.28 a0.28 0.28 0 0 1 0 0.4 L11.53 7 L9.05 4.5 A0.15 0.15 0 0 1 9.05 4.3 Z" style="fill:#F2F2F2;" /></svg>