<?xml version="1.0" encoding="UTF-8"?>
<svg xmlns="http://www.w3.org/2000/svg" xmlns:xlink="http://www.w3.org/1999/xlink" width="70pt" height="70pt" viewBox="0 0 70 70" version="1.1">
<defs>
<linearGradient id="linear0" gradientUnits="userSpaceOnUse" x1="9.033" y1="10.305" x2="9.033" y2="7.695" gradientTransform="matrix(3.888889,0,0,3.888889,0,0)">
<stop offset="0" style="stop-color:rgb(0,138,240);stop-opacity:1;"/>
<stop offset="0.241" style="stop-color:rgb(27,158,255);stop-opacity:1;"/>
<stop offset="0.501" style="stop-color:rgb(61,172,255);stop-opacity:1;"/>
<stop offset="0.756" style="stop-color:rgb(81,181,255);stop-opacity:1;"/>
<stop offset="1" style="stop-color:rgb(89,184,255);stop-opacity:1;"/>
</linearGradient>
</defs>
<g id="surface1">
<path style=" stroke:none;fill-rule:nonzero;fill:url(#linear0);" d="M 35.121094 29.945313 C 26.851563 39.644531 12.285156 40.800781 2.589844 32.53125 C -7.109375 24.261719 -8.269531 9.699219 0 0 C -1.566406 0.898438 -3.492188 0.898438 -5.054688 0 Z M 35.121094 29.945313 "/>
<path style=" stroke:none;fill-rule:nonzero;fill:rgb(119,197,255);fill-opacity:1;" d="M 24.65625 52.015625 L 22.222656 54.460938 C 7.183594 54.460938 -5.007813 42.269531 -5.007813 27.230469 C -5.007813 12.191406 7.183594 0 22.222656 0 L 2.617188 36.476563 C -7.457031 31.0625 -11.234375 18.511719 -5.820313 8.4375 C -0.40625 -1.636719 12.148438 -5.414063 22.222656 0 L 24.65625 -2.445313 L 44.253906 17.101563 C 39.53125 23.1875 30.769531 24.292969 24.6875 19.570313 C 18.601563 14.847656 17.5 6.085938 22.222656 0 Z M 24.65625 52.015625 "/>
<path style=" stroke:none;fill-rule:nonzero;fill:rgb(0,132,230);fill-opacity:1;" d="M 21.855469 15.539063 L 24.292969 17.972656 C 19.332031 24.683594 9.867188 26.097656 3.160156 21.132813 C -3.550781 16.171875 -4.964844 6.707031 0 0 L 5.035156 38.851563 L 2.601563 36.421875 C -7.457031 37.140625 -16.191406 29.570313 -16.910156 19.511719 C -17.628906 9.453125 -10.058594 0.71875 0 0 L 20.300781 15.550781 C 24.59375 9.945313 23.53125 1.921875 17.925781 -2.375 C 12.320313 -6.667969 4.292969 -5.605469 0 0 Z M 21.855469 15.539063 "/>
<path style=" stroke:none;fill-rule:nonzero;fill:rgb(119,197,255);fill-opacity:1;" d="M 64.953125 30.90625 L 67.390625 33.351563 C 58.179688 32.488281 51.414063 24.324219 52.277344 15.113281 C 53.140625 5.90625 61.304688 -0.863281 70.511719 0 L 52.472656 17.988281 C 47.503906 17.988281 43.476563 13.960938 43.476563 8.996094 C 43.476563 4.027344 47.503906 0 52.472656 0 L 50.035156 -2.449219 C 50.710938 -3.125 51.804688 -3.121094 52.480469 -2.445313 C 53.152344 -1.769531 53.148438 -0.671875 52.472656 0 L 72.078125 -19.550781 Z M 64.953125 30.90625 "/>
<path style=" stroke:none;fill-rule:nonzero;fill:rgb(0,132,230);fill-opacity:1;" d="M 67.40625 36.414063 L 64.960938 38.855469 L 45.699219 19.539063 C 40.304688 32.15625 25.699219 38.011719 13.082031 32.617188 C 0.460938 27.222656 -5.394531 12.621094 0 0 L 2.441406 -2.433594 C 1.769531 -3.109375 0.679688 -3.109375 0.00390625 -2.4375 C -0.671875 -1.765625 -0.671875 -0.675781 0 0 L 17.703125 17.757813 C 12.800781 22.644531 4.859375 22.632813 -0.0273438 17.730469 C -4.914063 12.824219 -4.902344 4.886719 0 0 Z M 67.40625 36.414063 "/>
</g>
</svg>
