<?xml version="1.0" encoding="utf-8"?><svg version="1.1" xmlns="http://www.w3.org/2000/svg" xmlns:xlink="http://www.w3.org/1999/xlink" xmlns:xml="http://www.w3.org/XML/1998/namespace" width="70" height="70" viewBox="0, 0, 18, 18" id="acac5a34-a032-49f9-9397-37f4f1b4ae9a"><defs><linearGradient x1="9" y1="19.25" x2="9" y2="-0.46" gradientUnits="userSpaceOnUse" gradientTransform="translate(9, -3.73) rotate(45, 0, 0)" id="f6d5399b-a5cb-4c09-96cc-9e3bb1af2386"><stop offset="0%" stop-color="#5E9624" /><stop offset="55%" stop-color="#6DAD2A" /><stop offset="100%" stop-color="#76BC2D" /></linearGradient><linearGradient x1="7.54" y1="6.44" x2="7.53" y2="5.18" gradientUnits="userSpaceOnUse" id="a43242a2-4d95-4f6d-8870-2702ceb6aebc"><stop offset="0%" stop-color="#CCCCCC" /><stop offset="12%" stop-color="#D7D7D7" /><stop offset="42%" stop-color="#EBEBEB" /><stop offset="72%" stop-color="#F8F8F8" /><stop offset="100%" stop-color="#FCFCFC" /></linearGradient><linearGradient x1="9.36" y1="7.69" x2="9.36" y2="6.57" xlink:href="#a43242a2-4d95-4f6d-8870-2702ceb6aebc" id="eedce6dd-706a-43c4-ac66-66b73578221d" /></defs><rect x="2.82" y="2.82" width="12.35" height="12.35" rx="0.57" transform="translate(-3.73, 9) rotate(-45, 0, 0)" style="fill:url(#f6d5399b-a5cb-4c09-96cc-9e3bb1af2386);" /><g><path d="M10.89 10.51 h2.84 a0.11 0.11 0 0 0 0.1 -0.11 V7.57 a0.1 0.1 0 0 0 -0.18 -0.07 l-0.78 0.78 l0 0.05 a0.1 0.1 0 0 1 -0.14 0 L9.26 4.91 a0.1 0.1 0 0 0 -0.14 0 l-0.88 0.88 a0.11 0.11 0 0 0 0 0.15 l3.41 3.41 a0.11 0.11 0 0 1 0 0.15 l-0.05 0.05 l-0.78 0.78 A0.11 0.11 0 0 0 10.89 10.51 Z" style="fill:white;" /><path d="M6.92 10.51 H4.08 A0.11 0.11 0 0 1 4 10.4 V7.57 a0.1 0.1 0 0 1 0.17 -0.07 l0.79 0.78 l0 0.05 a0.1 0.1 0 0 0 0.14 0 L8.55 4.91 a0.1 0.1 0 0 1 0.14 0 l0.88 0.88 a0.11 0.11 0 0 1 0 0.15 L6.16 9.35 a0.11 0.11 0 0 0 0 0.15 l0 0.05 l0.78 0.78 A0.11 0.11 0 0 1 6.92 10.51 Z" style="fill:white;" /><path d="M6.82 13.07 l2 2 a0.1 0.1 0 0 0 0.14 0 l2 -2 a0.1 0.1 0 0 0 -0.07 -0.17 H9.72 a0.11 0.11 0 0 1 -0.1 -0.1 V8 a0.1 0.1 0 0 0 -0.1 -0.11 H8.28 A0.11 0.11 0 0 0 8.17 8 V12.8 a0.1 0.1 0 0 1 -0.1 0.1 H6.89 A0.1 0.1 0 0 0 6.82 13.07 Z" style="fill:white;" /></g><path d="M10.65 7.78 A2.71 2.71 0 0 1 7.33 3.5 l0 0 a2.71 2.71 0 0 1 3.29 4.3" id="ac0a9c0c-2e8c-4843-b02b-2fadf76b27d0" style="fill:#0078D4;" /><circle cx="7.53" cy="5.55" r="0.87" style="fill:url(#a43242a2-4d95-4f6d-8870-2702ceb6aebc);" /><g><path d="M6.67 7 l0.19 0.3 L7 7.5 a5.94 5.94 0 0 1 0.34 -1.1 a0.85 0.85 0 0 1 -0.45 -0.23 A6.71 6.71 0 0 0 6.67 7 Z" opacity="0.55" style="fill:#F2F2F2;" /><path d="M7.24 4.73 A4 4 0 0 1 7 3.8 a2.48 2.48 0 0 0 -0.34 0.46 A3.51 3.51 0 0 0 6.86 5 A1 1 0 0 1 7.24 4.73 Z" opacity="0.55" style="fill:#F2F2F2;" /><path d="M8.17 6.14 a0.87 0.87 0 0 1 -0.48 0.26 a4.62 4.62 0 0 0 0.46 0.41 a4.14 4.14 0 0 0 0.65 0.39 V7.13 A0.53 0.53 0 0 1 9 6.73 A3.6 3.6 0 0 1 8.17 6.14 Z" opacity="0.55" style="fill:#F2F2F2;" /><path d="M10.79 7.2 a4.14 4.14 0 0 1 -0.87 -0.1 v0 a0.55 0.55 0 0 1 -0.16 0.39 a3.84 3.84 0 0 0 1.08 0.08 a2.93 2.93 0 0 0 0.37 -0.42 Z" opacity="0.55" style="fill:#F2F2F2;" /></g><circle cx="9.36" cy="7.13" r="0.56" style="fill:url(#eedce6dd-706a-43c4-ac66-66b73578221d);" /><circle cx="10.64" cy="5.74" r="0.6" style="fill:#F2F2F2;" /><g><path d="M9.21 4.42 A4.29 4.29 0 0 1 11.09 4 a2.24 2.24 0 0 0 -0.47 -0.45 a4.5 4.5 0 0 0 -1.49 0.35 c-0.1 0 -0.19 0.11 -0.29 0.16 h0 a5.85 5.85 0 0 1 -0.63 -0.93 l-0.34 0.13 a5.35 5.35 0 0 0 0.65 1 a3.92 3.92 0 0 0 -0.67 0.55 a0.87 0.87 0 0 1 0.43 0.35 a3.29 3.29 0 0 1 0.61 -0.48 a9.16 9.16 0 0 0 1.17 1 a0.57 0.57 0 0 1 0.2 -0.32 A8.44 8.44 0 0 1 9.21 4.42 Z" opacity="0.55" style="fill:#F2F2F2;" /><path d="M11.55 6.09 h0 l-0.1 0 h0 l-0.08 0 h0 l-0.1 -0.06 a0.61 0.61 0 0 1 -0.2 0.3 l0.12 0.07 h0 l0.11 0.06 h0 l0.28 0.14 h0 a3.58 3.58 0 0 0 0.09 -0.35 Z" opacity="0.55" style="fill:#F2F2F2;" /></g><circle cx="7.53" cy="5.55" r="0.87" style="fill:#F2F2F2;" /><circle cx="9.36" cy="7.13" r="0.56" style="fill:#F2F2F2;" /></svg>