<?xml version="1.0" encoding="UTF-8"?>
<svg xmlns="http://www.w3.org/2000/svg" xmlns:xlink="http://www.w3.org/1999/xlink" width="70pt" height="70pt" viewBox="0 0 70 70" version="1.1">
<defs>
<radialGradient id="radial0" gradientUnits="userSpaceOnUse" cx="-6811.4" cy="6729.69" fx="-6811.4" fy="6729.69" r="17" gradientTransform="matrix(1.944444,0,0,-1.944444,13280.205556,13121.305556)">
<stop offset="0.18" style="stop-color:rgb(41,164,255);stop-opacity:1;"/>
<stop offset="1" style="stop-color:rgb(0,108,188);stop-opacity:1;"/>
</radialGradient>
</defs>
<g id="surface1">
<path style=" stroke:none;fill-rule:nonzero;fill:url(#radial0);" d="M 55.261719 61.132813 C 40.828125 72.324219 20.054688 69.695313 8.867188 55.261719 C -2.324219 40.828125 0.304688 20.054688 14.738281 8.867188 L 15.089844 8.632813 C 29.59375 -2.195313 50.113281 0.660156 61.113281 15.035156 C 72.113281 29.410156 69.503906 49.960938 55.261719 61.132813 "/>
<path style=" stroke:none;fill-rule:nonzero;fill:rgb(41,164,255);fill-opacity:1;" d="M 35 5.09375 C 18.484375 5.09375 5.09375 18.484375 5.09375 35 C 5.09375 51.515625 18.484375 64.90625 35 64.90625 C 51.515625 64.90625 64.90625 51.515625 64.90625 35 C 64.882813 18.492188 51.507813 5.117188 35 5.09375 Z M 55.027344 15.167969 C 52.421875 16.632813 49.597656 17.683594 46.667969 18.277344 C 45.652344 14.527344 44.007813 10.976563 41.804688 7.777344 C 46.808594 8.980469 51.382813 11.535156 55.027344 15.167969 Z M 35 6.765625 C 36.421875 6.765625 37.839844 6.882813 39.238281 7.117188 C 42.082031 10.503906 44.117188 14.492188 45.1875 18.785156 C 38.183594 20.066406 31 20.066406 23.996094 18.785156 C 25.0625 14.578125 27.070313 10.667969 29.867188 7.351563 C 31.554688 7 33.273438 6.804688 35 6.765625 Z M 27.222656 7.777344 C 24.992188 10.945313 23.324219 14.46875 22.285156 18.199219 C 19.65625 17.667969 17.152344 16.652344 14.894531 15.207031 C 18.304688 11.71875 22.546875 9.160156 27.222656 7.777344 Z M 14.464844 54.445313 C 16.570313 53.039063 18.917969 52.039063 21.390625 51.488281 C 22.351563 55.351563 24.144531 58.960938 26.640625 62.066406 C 21.992188 60.621094 17.796875 57.992188 14.464844 54.445313 Z M 39.394531 63 C 37.9375 63.195313 36.46875 63.273438 35 63.234375 C 33.117188 63.238281 31.242188 63.042969 29.398438 62.648438 C 26.144531 59.476563 23.886719 55.421875 22.90625 50.984375 C 30.449219 49.445313 38.226563 49.445313 45.773438 50.984375 C 44.769531 55.429688 42.484375 59.488281 39.199219 62.648438 Z M 42.234375 62.378906 C 44.804688 59.1875 46.636719 55.46875 47.601563 51.488281 C 50.351563 52.132813 52.976563 53.226563 55.378906 54.714844 C 51.777344 58.390625 47.226563 60.988281 42.234375 62.222656 Z M 47.988281 49.855469 C 48.300781 48.457031 48.570313 47.015625 48.765625 45.5 L 46.976563 45.929688 C 46.785156 47.132813 46.589844 48.339844 46.316406 49.464844 C 38.503906 47.871094 30.449219 47.871094 22.632813 49.464844 C 22.359375 48.417969 22.167969 47.289063 21.972656 46.121094 C 21.953125 46.007813 21.953125 45.886719 21.972656 45.773438 L 20.183594 45.265625 C 20.160156 45.628906 20.160156 45.992188 20.183594 46.355469 C 20.183594 47.601563 20.609375 48.765625 20.84375 49.894531 C 18.070313 50.503906 15.433594 51.625 13.066406 53.199219 C 4.203125 42.566406 4.382813 27.066406 13.496094 16.644531 C 15.96875 18.238281 18.707031 19.371094 21.582031 19.988281 C 21.3125 20.921875 21.078125 21.933594 20.882813 22.945313 C 20.6875 23.957031 20.882813 23.917969 20.570313 24.382813 L 22.398438 23.957031 L 22.398438 23.292969 C 22.632813 22.285156 22.867188 21.3125 23.140625 20.378906 C 27.050781 21.09375 31.023438 21.40625 35 21.3125 C 38.628906 21.3125 42.246094 20.972656 45.8125 20.300781 C 46.082031 21.351563 46.355469 22.476563 46.589844 23.605469 L 48.378906 24.035156 C 48.09375 22.632813 47.78125 21.335938 47.445313 20.144531 C 50.597656 19.453125 53.617188 18.257813 56.390625 16.605469 C 65.675781 27.121094 65.777344 42.878906 56.621094 53.511719 C 53.976563 51.78125 51.058594 50.503906 47.988281 49.738281 Z M 47.988281 49.855469 "/>
<path style=" stroke:none;fill-rule:nonzero;fill:rgb(255,255,255);fill-opacity:1;" d="M 14.351563 27.222656 C 15.84375 27.007813 17.351563 26.902344 18.859375 26.910156 C 21.253906 26.71875 23.628906 27.441406 25.511719 28.933594 C 27.019531 30.433594 27.847656 32.484375 27.804688 34.609375 C 27.925781 36.972656 27.066406 39.28125 25.433594 40.988281 C 23.421875 42.691406 20.828125 43.542969 18.199219 43.359375 C 16.902344 43.367188 15.601563 43.300781 14.3125 43.167969 Z M 16.488281 41.726563 C 17.199219 41.777344 17.914063 41.777344 18.628906 41.726563 C 20.546875 41.945313 22.457031 41.269531 23.816406 39.898438 C 25.175781 38.523438 25.828125 36.605469 25.589844 34.6875 C 25.75 32.910156 25.089844 31.15625 23.792969 29.925781 C 22.496094 28.699219 20.707031 28.132813 18.9375 28.390625 C 18.125 28.308594 17.304688 28.308594 16.488281 28.390625 Z M 16.488281 41.726563 "/>
<path style=" stroke:none;fill-rule:nonzero;fill:rgb(255,255,255);fill-opacity:1;" d="M 30.566406 43.207031 L 30.566406 26.832031 L 32.859375 26.832031 L 38.109375 35 C 39.210938 36.710938 40.195313 38.492188 41.066406 40.328125 C 40.871094 38.148438 40.832031 36.167969 40.832031 33.601563 L 40.832031 26.832031 L 42.777344 26.832031 L 42.777344 43.207031 L 40.640625 43.207031 L 35.503906 35 C 34.378906 33.171875 33.289063 31.109375 32.433594 29.554688 C 32.433594 31.617188 32.433594 33.445313 32.433594 36.320313 L 32.433594 43.320313 Z M 30.566406 43.207031 "/>
<path style=" stroke:none;fill-rule:nonzero;fill:rgb(255,255,255);fill-opacity:1;" d="M 46.238281 40.640625 C 47.421875 41.324219 48.761719 41.6875 50.128906 41.6875 C 52.304688 41.6875 53.550781 40.5625 53.550781 38.890625 C 53.550781 37.214844 52.695313 36.476563 50.476563 35.660156 C 48.261719 34.84375 46.121094 33.328125 46.121094 30.996094 C 46.199219 29.683594 46.8125 28.460938 47.824219 27.621094 C 48.832031 26.78125 50.148438 26.398438 51.449219 26.5625 C 52.699219 26.527344 53.941406 26.792969 55.066406 27.339844 L 54.445313 29.089844 C 53.492188 28.566406 52.417969 28.300781 51.332031 28.3125 C 49.078125 28.3125 48.222656 29.632813 48.222656 30.761719 C 48.222656 31.890625 49.234375 33.054688 51.488281 33.910156 C 53.746094 34.765625 55.6875 36.320313 55.6875 38.734375 C 55.6875 41.144531 53.820313 43.4375 49.933594 43.4375 C 48.480469 43.457031 47.046875 43.09375 45.773438 42.390625 Z M 46.238281 40.640625 "/>
</g>
</svg>
