<?xml version="1.0" encoding="UTF-8"?>
<svg xmlns="http://www.w3.org/2000/svg" xmlns:xlink="http://www.w3.org/1999/xlink" width="70pt" height="70pt" viewBox="0 0 70 70" version="1.1">
<defs>
<linearGradient id="linear0" gradientUnits="userSpaceOnUse" x1="9.01" y1="16.5" x2="9.01" y2="1.5" gradientTransform="matrix(3.888889,0,0,3.888889,0,0)">
<stop offset="0" style="stop-color:rgb(36.862745%,58.823529%,25.490196%);stop-opacity:1;"/>
<stop offset="0.34" style="stop-color:rgb(41.960784%,66.666667%,25.882353%);stop-opacity:1;"/>
<stop offset="0.67" style="stop-color:rgb(45.098039%,71.764706%,26.27451%);stop-opacity:1;"/>
<stop offset="1" style="stop-color:rgb(46.27451%,73.333333%,26.27451%);stop-opacity:1;"/>
</linearGradient>
</defs>
<g id="surface1">
<path style=" stroke:none;fill-rule:nonzero;fill:rgb(100%,79.215686%,0%);fill-opacity:1;" d="M 61.792969 11.316406 L 66.734375 11.316406 C 67.464844 11.316406 68.054688 11.910156 68.054688 12.640625 L 68.054688 26.25 C 68.054688 26.980469 67.464844 27.570313 66.734375 27.570313 L 61.792969 27.570313 Z M 61.792969 11.316406 "/>
<path style=" stroke:none;fill-rule:nonzero;fill:rgb(100%,79.215686%,0%);fill-opacity:1;" d="M 61.792969 35 L 66.734375 35 C 67.464844 35 68.054688 35.59375 68.054688 36.320313 L 68.054688 59.109375 C 68.054688 59.839844 67.464844 60.433594 66.734375 60.433594 L 61.792969 60.433594 Z M 61.792969 35 "/>
<path style=" stroke:none;fill-rule:nonzero;fill:url(#linear0);" d="M 10.964844 5.832031 L 59.109375 5.832031 C 60.59375 5.832031 61.792969 7.035156 61.792969 8.515625 L 61.792969 61.484375 C 61.792969 62.964844 60.59375 64.167969 59.109375 64.167969 L 10.964844 64.167969 C 9.484375 64.167969 8.285156 62.964844 8.285156 61.484375 L 8.285156 8.515625 C 8.285156 7.035156 9.484375 5.832031 10.964844 5.832031 Z M 10.964844 5.832031 "/>
<path style=" stroke:none;fill-rule:nonzero;fill:rgb(70.588235%,92.54902%,21.176471%);fill-opacity:1;" d="M 22.945313 50.167969 L 20.183594 50.167969 C 19.976563 50.15625 19.78125 50.066406 19.644531 49.910156 C 19.503906 49.757813 19.433594 49.554688 19.445313 49.351563 L 19.445313 16.878906 C 19.433594 16.675781 19.507813 16.476563 19.648438 16.328125 C 19.785156 16.183594 19.980469 16.101563 20.183594 16.101563 L 27.6875 16.101563 C 27.890625 16.101563 28.085938 16.183594 28.226563 16.328125 C 28.367188 16.476563 28.4375 16.675781 28.429688 16.878906 C 28.4375 17.085938 28.367188 17.285156 28.226563 17.4375 C 28.089844 17.59375 27.894531 17.683594 27.6875 17.695313 L 20.921875 17.695313 L 20.921875 48.535156 L 22.945313 48.535156 C 23.152344 48.542969 23.34375 48.636719 23.484375 48.789063 C 23.621094 48.941406 23.695313 49.144531 23.683594 49.351563 C 23.683594 49.773438 23.363281 50.125 22.945313 50.167969 Z M 22.945313 50.167969 "/>
<path style=" stroke:none;fill-rule:nonzero;fill:rgb(70.588235%,92.54902%,21.176471%);fill-opacity:1;" d="M 23.332031 54.132813 L 17.109375 54.132813 C 16.90625 54.125 16.710938 54.03125 16.570313 53.878906 C 16.433594 53.726563 16.363281 53.523438 16.371094 53.316406 L 15.867188 13.144531 C 15.859375 12.925781 15.945313 12.714844 16.101563 12.5625 C 16.222656 12.40625 16.410156 12.320313 16.605469 12.328125 L 27.6875 12.328125 L 27.6875 13.921875 L 17.382813 13.921875 L 17.851563 52.5 L 23.332031 52.5 Z M 23.332031 54.132813 "/>
<path style=" stroke:none;fill-rule:nonzero;fill:rgb(70.588235%,92.54902%,21.176471%);fill-opacity:1;" d="M 46.667969 50.554688 L 40.484375 50.554688 C 40.269531 50.546875 40.074219 50.449219 39.9375 50.285156 C 39.785156 50.144531 39.699219 49.945313 39.707031 49.738281 L 39.707031 30.722656 C 39.695313 30.519531 39.769531 30.320313 39.90625 30.175781 C 40.046875 30.027344 40.242188 29.945313 40.445313 29.945313 L 43.984375 29.945313 L 43.984375 21.195313 L 45.460938 21.195313 L 45.460938 30.683594 C 45.484375 31.097656 45.175781 31.460938 44.761719 31.5 L 41.222656 31.5 L 41.222656 48.6875 L 46.667969 48.6875 Z M 46.667969 50.554688 "/>
<path style=" stroke:none;fill-rule:nonzero;fill:rgb(21.176471%,33.72549%,8.235294%);fill-opacity:1;" d="M 28.503906 8.90625 L 50.359375 8.90625 C 50.917969 8.90625 51.371094 9.359375 51.371094 9.917969 L 51.371094 19.988281 C 51.371094 20.546875 50.917969 21 50.359375 21 L 28.503906 21 C 27.945313 21 27.496094 20.546875 27.496094 19.988281 L 27.496094 9.917969 C 27.496094 9.359375 27.945313 8.90625 28.503906 8.90625 Z M 28.503906 8.90625 "/>
<path style=" stroke:none;fill-rule:nonzero;fill:rgb(21.176471%,33.72549%,8.235294%);fill-opacity:1;" d="M 34.417969 42.972656 L 34.417969 60.003906 C 34.417969 60.5625 33.964844 61.015625 33.40625 61.015625 L 31.1875 61.015625 C 30.628906 61.015625 30.179688 60.5625 30.179688 60.003906 L 30.179688 42.972656 C 30.179688 42.414063 30.628906 41.960938 31.1875 41.960938 L 33.40625 41.960938 C 33.964844 41.960938 34.417969 42.414063 34.417969 42.972656 Z M 34.417969 42.972656 "/>
<path style=" stroke:none;fill-rule:nonzero;fill:rgb(21.176471%,33.72549%,8.235294%);fill-opacity:1;" d="M 27.183594 43.050781 L 27.183594 60.082031 C 27.183594 60.640625 26.730469 61.09375 26.171875 61.09375 L 23.957031 61.09375 C 23.398438 61.09375 22.945313 60.640625 22.945313 60.082031 L 22.945313 43.050781 C 22.945313 42.492188 23.398438 42.039063 23.957031 42.039063 L 26.171875 42.039063 C 26.730469 42.039063 27.183594 42.492188 27.183594 43.050781 Z M 27.183594 43.050781 "/>
<path style=" stroke:none;fill-rule:nonzero;fill:rgb(94.901961%,94.901961%,94.901961%);fill-opacity:1;" d="M 50.4375 43.050781 L 50.4375 60.082031 C 50.4375 60.640625 49.984375 61.09375 49.429688 61.09375 L 47.210938 61.09375 C 46.652344 61.09375 46.199219 60.640625 46.199219 60.082031 L 46.199219 43.050781 C 46.199219 42.492188 46.652344 42.039063 47.210938 42.039063 L 49.429688 42.039063 C 49.984375 42.039063 50.4375 42.492188 50.4375 43.050781 Z M 50.4375 43.050781 "/>
<path style=" stroke:none;fill-rule:nonzero;fill:rgb(94.901961%,94.901961%,94.901961%);fill-opacity:1;" d="M 35.582031 31.34375 C 35.582031 28.9375 33.773438 26.988281 31.539063 26.988281 C 29.304688 26.988281 27.496094 28.9375 27.496094 31.34375 C 27.496094 33.75 29.304688 35.699219 31.539063 35.699219 C 33.773438 35.699219 35.582031 33.75 35.582031 31.34375 Z M 35.582031 31.34375 "/>
<path style=" stroke:none;fill-rule:nonzero;fill:rgb(23.137255%,23.137255%,23.137255%);fill-opacity:1;" d="M 8.207031 47.640625 L 3.265625 47.640625 C 2.59375 47.644531 2.023438 47.140625 1.945313 46.472656 L 1.945313 23.683594 C 1.945313 22.953125 2.535156 22.359375 3.265625 22.359375 L 8.207031 22.359375 Z M 8.207031 47.640625 "/>
</g>
</svg>
