<?xml version="1.0" encoding="UTF-8"?>
<svg xmlns="http://www.w3.org/2000/svg" xmlns:xlink="http://www.w3.org/1999/xlink" width="70pt" height="70pt" viewBox="0 0 70 70" version="1.1">
<defs>
<filter id="alpha" filterUnits="objectBoundingBox" x="0%" y="0%" width="100%" height="100%">
  <feColorMatrix type="matrix" in="SourceGraphic" values="0 0 0 0 1 0 0 0 0 1 0 0 0 0 1 0 0 0 1 0"/>
</filter>
<mask id="mask0">
  <g filter="url(#alpha)">
<rect x="0" y="0" width="70" height="70" style="fill:rgb(0,0,0);fill-opacity:0.4;stroke:none;"/>
  </g>
</mask>
<clipPath id="clip1">
  <rect x="0" y="0" width="70" height="70"/>
</clipPath>
<g id="surface5" clip-path="url(#clip1)">
<path style=" stroke:none;fill-rule:nonzero;fill:rgb(255,255,255);fill-opacity:1;" d="M 48.914063 26.386719 L 35.363281 18.421875 C 35.363281 18.421875 34.789063 18.128906 34.53125 18.128906 C 33.246094 18.125 32.199219 18.199219 32.199219 20.632813 L 32.199219 28 L 46.199219 28 L 46.199219 56 L 50.398438 56 L 50.398438 28.589844 C 50.398438 27.609375 49.804688 26.738281 48.914063 26.386719 Z M 48.914063 26.386719 "/>
</g>
</defs>
<g id="surface1">
<path style=" stroke:none;fill-rule:nonzero;fill:rgb(57,171,255);fill-opacity:1;" d="M 63.195313 32.339844 C 63.910156 30.539063 64.28125 28.617188 64.28125 26.679688 C 64.28125 18.199219 57.414063 11.324219 48.945313 11.324219 C 46.589844 11.324219 44.367188 11.871094 42.371094 12.820313 C 39.058594 8.523438 33.871094 5.738281 28.027344 5.738281 C 18.015625 5.738281 9.902344 13.867188 9.902344 23.890625 C 9.902344 24.703125 9.972656 25.5 10.074219 26.285156 C 4.273438 28.472656 0.140625 34.066406 0.140625 40.644531 C 0.140625 49.125 7.007813 56 15.476563 56 L 57.308594 56 C 64.242188 56 69.859375 50.375 69.859375 43.433594 C 69.859375 38.789063 67.296875 34.519531 63.195313 32.339844 Z M 63.195313 32.339844 "/>
<path style=" stroke:none;fill-rule:nonzero;fill:rgb(255,255,255);fill-opacity:1;" d="M 25.199219 28 L 44.800781 28 L 44.800781 56.070313 L 25.199219 56.070313 Z M 25.199219 28 "/>
<use xlink:href="#surface5" mask="url(#mask0)"/>
<path style=" stroke:none;fill-rule:nonzero;fill:rgb(0,102,178);fill-opacity:1;" d="M 48.363281 26.273438 L 34.828125 18.316406 C 34.222656 18.109375 33.601563 18.574219 33.601563 19.234375 L 33.601563 66.230469 C 33.601563 66.890625 34.222656 67.355469 34.828125 67.148438 L 48.363281 59.191406 C 48.746094 59.050781 49.003906 58.683594 49 58.273438 L 49 27.191406 C 49.003906 26.78125 48.746094 26.414063 48.363281 26.273438 Z M 48.363281 26.273438 "/>
</g>
</svg>
