<?xml version="1.0" encoding="utf-8"?><svg version="1.1" xmlns="http://www.w3.org/2000/svg" xmlns:xlink="http://www.w3.org/1999/xlink" xmlns:xml="http://www.w3.org/XML/1998/namespace" width="70" height="70" viewBox="0, 0, 18, 18" id="FxSymbol0-06c" class="" role="presentation" focusable="false" data-type="1"><g><path d="M13.625 6.972 a1.093 1.093 0 1 1 -1.1 -1.091 a1.093 1.093 0 0 1 1.1 1.091 z M9.032 5.886 a1.093 1.093 0 1 0 1.094 1.091 a1.093 1.093 0 0 0 -1.094 -1.091 z m-3.494 0 a1.093 1.093 0 1 0 1.094 1.096 a1.093 1.093 0 0 0 -1.094 -1.091 z" style="fill:url(#40fd3475-21aa-4a8a-956c-13a617e350c9);" /><path d="M6.34 11.357 l-0.627 0.629 a0.284 0.284 0 0 1 -0.402 0 L0.672 7.361 a0.568 0.568 0 0 1 0 -0.804 l0.626 -0.628 l5.041 5.026 a0.284 0.284 0 0 1 0 0.402 z" style="fill:#77C5FF;" /><path d="M5.62 1.978 l0.628 0.626 a0.284 0.284 0 0 1 0 0.402 L1.296 7.973 L0.67 7.35 a0.568 0.568 0 0 1 0 -0.803 L5.22 1.98 a0.284 0.284 0 0 1 0.401 0 z" style="fill:#0084E6;" /><path d="M16.701 5.93 l0.627 0.629 a0.568 0.568 0 0 1 0 0.803 l-4.64 4.626 a0.284 0.284 0 0 1 -0.401 0 l-0.627 -0.63 a0.284 0.284 0 0 1 0 -0.401 l5.041 -5.027 z" style="fill:#77C5FF;" /><path d="M17.333 7.346 l-0.629 0.627 l-4.953 -4.967 a0.284 0.284 0 0 1 0 -0.402 l0.628 -0.626 a0.284 0.284 0 0 1 0.402 0 l4.552 4.566 a0.568 0.568 0 0 1 0 0.803 z" style="fill:#0084E6;" /><circle cx="13.159" cy="12.336" r="3.769" style="fill:url(#40fd3475-21aa-4a8a-956c-13a617e350ca);" /><path d="M12.789 10.361 h-1.12 a1.4 1.4 0 0 0 -0.217 2.774 a1.49 1.49 0 0 1 0.017 -0.52 a0.879 0.879 0 0 1 0.2 -1.742 h1.117 a0.885 0.885 0 0 1 0 1.769 h-0.31 a0.661 0.661 0 0 0 -0.062 0.28 a0.637 0.637 0 0 0 0.044 0.232 h0.328 a1.4 1.4 0 0 0 0.058 -2.793 z" class="msportalfx-svg-c01" style="fill:white;" /><path d="M14.682 11.543 a1.714 1.714 0 0 1 0.016 0.215 a1.429 1.429 0 0 1 -0.031 0.305 a0.878 0.878 0 0 1 -0.2 1.74 h-1.121 a0.885 0.885 0 0 1 0 -1.768 h0.308 a0.655 0.655 0 0 0 0.017 -0.512 h-0.323 a1.4 1.4 0 0 0 0 2.793 h1.119 a1.4 1.4 0 0 0 0.217 -2.775 z" class="msportalfx-svg-c01" style="fill:white;" /></g><defs><linearGradient x1="9.036" y1="8.077" x2="9.036" y2="5.881" gradientUnits="userSpaceOnUse" id="40fd3475-21aa-4a8a-956c-13a617e350c9"><stop offset="0%" stop-color="#008AF0" /><stop offset="24.1%" stop-color="#1B9EFF" /><stop offset="50.1%" stop-color="#3DACFF" /><stop offset="75.6%" stop-color="#51B5FF" /><stop offset="100%" stop-color="#59B8FF" /></linearGradient><linearGradient x1="-413.968" y1="-221.863" x2="-413.968" y2="-214.324" gradientUnits="userSpaceOnUse" gradientTransform="matrix(1, 0, 0, -1, 427.126, -205.758)" id="40fd3475-21aa-4a8a-956c-13a617e350ca"><stop offset="0%" stop-color="#00518E" /><stop offset="12.6%" stop-color="#005FA6" /><stop offset="51.5%" stop-color="#0089EE" /><stop offset="81.9%" stop-color="#199DFF" /><stop offset="100%" stop-color="#29A4FF" /></linearGradient></defs></svg>