<?xml version="1.0" encoding="UTF-8"?>
<svg xmlns="http://www.w3.org/2000/svg" xmlns:xlink="http://www.w3.org/1999/xlink" width="70pt" height="70pt" viewBox="0 0 70 70" version="1.1">
<defs>
<linearGradient id="linear0" gradientUnits="userSpaceOnUse" x1="13.119" y1="5.643" x2="11.489" y2="16.919" gradientTransform="matrix(3.888889,0,0,3.888889,0,0)">
<stop offset="0" style="stop-color:rgb(41,164,255);stop-opacity:1;"/>
<stop offset="1" style="stop-color:rgb(0,108,188);stop-opacity:1;"/>
</linearGradient>
</defs>
<g id="surface1">
<path style=" stroke:none;fill-rule:nonzero;fill:rgb(0,108,188);fill-opacity:1;" d="M 19.03125 13.484375 L 23.527344 16.082031 L 11.054688 37.6875 L 6.558594 35.089844 Z M 19.03125 13.484375 "/>
<path style=" stroke:none;fill-rule:nonzero;fill:rgb(0,108,188);fill-opacity:1;" d="M 23.558594 16.496094 L 28.054688 13.898438 L 40.53125 35.503906 L 36.035156 38.101563 Z M 23.558594 16.496094 "/>
<path style=" stroke:none;fill-rule:nonzero;fill:rgb(0,108,188);fill-opacity:1;" d="M 35.824219 38.109375 L 35.824219 43.304688 L 10.878906 43.304688 L 10.878906 38.109375 Z M 35.824219 38.109375 "/>
<path style=" stroke:none;fill-rule:nonzero;fill:rgb(89,184,255);fill-opacity:1;" d="M 30.140625 10.300781 C 30.140625 13.792969 27.308594 16.625 23.816406 16.625 C 20.324219 16.625 17.492188 13.792969 17.492188 10.300781 C 17.492188 6.808594 20.324219 3.976563 23.816406 3.976563 C 27.308594 3.976563 30.140625 6.808594 30.140625 10.300781 Z M 30.140625 10.300781 "/>
<path style=" stroke:none;fill-rule:nonzero;fill:rgb(89,184,255);fill-opacity:1;" d="M 12.648438 41.082031 C 12.648438 44.574219 9.816406 47.40625 6.324219 47.40625 C 2.832031 47.40625 0 44.574219 0 41.082031 C 0 37.589844 2.832031 34.757813 6.324219 34.757813 C 9.816406 34.757813 12.648438 37.589844 12.648438 41.082031 Z M 12.648438 41.082031 "/>
<path style=" stroke:none;fill-rule:nonzero;fill:rgb(255,255,255);fill-opacity:1;" d="M 68.480469 44.132813 C 68.480469 55.566406 59.207031 64.839844 47.769531 64.839844 C 36.335938 64.839844 27.0625 55.566406 27.0625 44.132813 C 27.0625 32.695313 36.335938 23.421875 47.769531 23.421875 C 59.207031 23.421875 68.480469 32.695313 68.480469 44.132813 Z M 68.480469 44.132813 "/>
<path style=" stroke:none;fill-rule:nonzero;fill:rgb(0,108,188);fill-opacity:1;" d="M 38.316406 49.484375 C 37.84375 49.484375 37.421875 49.203125 37.242188 48.765625 C 37.058594 48.332031 37.160156 47.828125 37.492188 47.496094 L 41.878906 43.113281 C 42.167969 42.789063 42.609375 42.648438 43.03125 42.753906 C 43.453125 42.855469 43.78125 43.183594 43.886719 43.605469 C 43.988281 44.023438 43.851563 44.46875 43.527344 44.757813 L 39.140625 49.144531 C 38.921875 49.363281 38.625 49.484375 38.316406 49.484375 Z M 38.316406 49.484375 "/>
<path style=" stroke:none;fill-rule:nonzero;fill:rgb(0,108,188);fill-opacity:1;" d="M 41.558594 52.726563 C 41.085938 52.726563 40.660156 52.441406 40.480469 52.003906 C 40.300781 51.570313 40.398438 51.066406 40.730469 50.734375 L 45.109375 46.351563 C 45.402344 46.039063 45.839844 45.910156 46.253906 46.015625 C 46.667969 46.121094 46.988281 46.445313 47.09375 46.859375 C 47.199219 47.273438 47.070313 47.710938 46.761719 48 L 42.390625 52.386719 C 42.167969 52.605469 41.867188 52.726563 41.558594 52.726563 Z M 41.558594 52.726563 "/>
<path style=" stroke:none;fill-rule:nonzero;fill:rgb(0,108,188);fill-opacity:1;" d="M 44.765625 55.933594 C 44.296875 55.933594 43.871094 55.648438 43.691406 55.214844 C 43.511719 54.78125 43.609375 54.28125 43.941406 53.945313 L 48.324219 49.558594 C 48.777344 49.105469 49.519531 49.101563 49.972656 49.558594 C 50.429688 50.011719 50.429688 50.753906 49.976563 51.207031 L 45.59375 55.609375 C 45.371094 55.824219 45.074219 55.941406 44.765625 55.933594 Z M 44.765625 55.933594 "/>
<path style=" stroke:none;fill-rule:nonzero;fill:rgb(0,108,188);fill-opacity:1;" d="M 46.371094 41.433594 C 45.902344 41.429688 45.476563 41.148438 45.296875 40.710938 C 45.117188 40.277344 45.214844 39.777344 45.546875 39.445313 L 49.933594 35.058594 C 50.394531 34.628906 51.109375 34.644531 51.554688 35.085938 C 51.996094 35.53125 52.011719 36.246094 51.582031 36.707031 L 47.195313 41.089844 C 46.976563 41.308594 46.679688 41.433594 46.371094 41.433594 Z M 46.371094 41.433594 "/>
<path style=" stroke:none;fill-rule:nonzero;fill:rgb(0,108,188);fill-opacity:1;" d="M 49.609375 44.671875 C 49.140625 44.667969 48.71875 44.386719 48.539063 43.953125 C 48.359375 43.519531 48.457031 43.019531 48.785156 42.683594 L 53.167969 38.296875 C 53.625 37.839844 54.363281 37.839844 54.820313 38.296875 C 55.277344 38.75 55.277344 39.492188 54.820313 39.945313 L 50.4375 44.332031 C 50.21875 44.550781 49.921875 44.671875 49.609375 44.671875 Z M 49.609375 44.671875 "/>
<path style=" stroke:none;fill-rule:nonzero;fill:rgb(0,108,188);fill-opacity:1;" d="M 52.820313 47.878906 C 52.347656 47.878906 51.921875 47.59375 51.742188 47.160156 C 51.5625 46.722656 51.660156 46.222656 51.996094 45.890625 L 56.390625 41.503906 C 56.84375 41.046875 57.585938 41.046875 58.039063 41.503906 C 58.496094 41.960938 58.496094 42.699219 58.039063 43.15625 L 53.652344 47.542969 C 53.429688 47.761719 53.128906 47.882813 52.820313 47.878906 Z M 52.820313 47.878906 "/>
<path style=" stroke:none;fill-rule:nonzero;fill:rgb(41,164,255);fill-opacity:1;" d="M 37.410156 46.753906 C 37.191406 46.53125 36.894531 46.410156 36.585938 46.410156 C 36.273438 46.410156 35.976563 46.53125 35.757813 46.753906 L 28.273438 54.238281 C 30.753906 58.90625 34.816406 62.539063 39.734375 64.480469 L 46.613281 57.605469 C 46.832031 57.386719 46.957031 57.089844 46.957031 56.777344 C 46.957031 56.464844 46.832031 56.167969 46.613281 55.949219 Z M 37.410156 46.753906 "/>
<path style=" stroke:none;fill-rule:nonzero;fill:rgb(85,182,255);fill-opacity:1;" d="M 58.226563 24.300781 L 49.699219 32.828125 C 49.480469 33.050781 49.355469 33.347656 49.355469 33.65625 C 49.355469 33.964844 49.480469 34.265625 49.699219 34.484375 L 58.902344 43.683594 C 59.121094 43.902344 59.417969 44.027344 59.726563 44.027344 C 60.039063 44.027344 60.335938 43.902344 60.554688 43.683594 L 68.46875 35.777344 C 66.53125 30.855469 62.898438 26.785156 58.226563 24.300781 Z M 58.226563 24.300781 "/>
<path style=" stroke:none;fill-rule:nonzero;fill:url(#linear0);" d="M 47.832031 24.636719 C 58.457031 24.636719 67.066406 33.246094 67.066406 43.871094 C 67.066406 54.492188 58.457031 63.105469 47.832031 63.105469 C 37.210938 63.105469 28.597656 54.492188 28.597656 43.871094 C 28.613281 33.253906 37.214844 24.648438 47.832031 24.636719 M 47.832031 21.71875 C 35.589844 21.71875 25.667969 31.644531 25.667969 43.886719 C 25.667969 56.128906 35.589844 66.054688 47.832031 66.054688 C 60.074219 66.054688 70 56.128906 70 43.886719 C 70 31.644531 60.074219 21.71875 47.832031 21.71875 Z M 47.832031 21.71875 "/>
</g>
</svg>
