<?xml version="1.0" encoding="UTF-8"?>
<svg xmlns="http://www.w3.org/2000/svg" xmlns:xlink="http://www.w3.org/1999/xlink" width="70pt" height="70pt" viewBox="0 0 70 70" version="1.1">
<defs>
<linearGradient id="linear0" gradientUnits="userSpaceOnUse" x1="10.56" y1="7.77" x2="10.56" y2="19.24" gradientTransform="matrix(3.888889,0,0,3.888889,0,0)">
<stop offset="0.22" style="stop-color:rgb(19.607843%,83.137255%,96.078431%);stop-opacity:1;"/>
<stop offset="1" style="stop-color:rgb(9.803922%,54.117647%,70.196078%);stop-opacity:1;"/>
</linearGradient>
<filter id="alpha" filterUnits="objectBoundingBox" x="0%" y="0%" width="100%" height="100%">
  <feColorMatrix type="matrix" in="SourceGraphic" values="0 0 0 0 1 0 0 0 0 1 0 0 0 0 1 0 0 0 1 0"/>
</filter>
<mask id="mask0">
  <g filter="url(#alpha)">
<rect x="0" y="0" width="70" height="70" style="fill:rgb(0%,0%,0%);fill-opacity:0.8;stroke:none;"/>
  </g>
</mask>
<clipPath id="clip1">
  <rect x="0" y="0" width="70" height="70"/>
</clipPath>
<g id="surface5" clip-path="url(#clip1)">
<path style=" stroke:none;fill-rule:nonzero;fill:rgb(100%,100%,100%);fill-opacity:1;" d="M 41.105469 37.761719 C 38.210938 37.773438 35.375 36.949219 32.9375 35.390625 L 41.027344 56.464844 L 49.039063 35.503906 C 46.660156 36.988281 43.910156 37.769531 41.105469 37.761719 Z M 41.105469 37.761719 "/>
</g>
<linearGradient id="linear1" gradientUnits="userSpaceOnUse" x1="10.23" y1="1.63" x2="11.07" y2="12.04" gradientTransform="matrix(3.888889,0,0,3.888889,0,0)">
<stop offset="0.22" style="stop-color:rgb(19.607843%,83.137255%,96.078431%);stop-opacity:1;"/>
<stop offset="1" style="stop-color:rgb(9.803922%,54.117647%,70.196078%);stop-opacity:1;"/>
</linearGradient>
</defs>
<g id="surface1">
<path style=" stroke:none;fill-rule:nonzero;fill:url(#linear0);" d="M 63.117188 66.773438 C 65.6875 66.816406 67.816406 64.789063 67.898438 62.222656 L 67.898438 61.445313 C 65.996094 46.433594 57.4375 34.222656 41.105469 34.222656 C 24.773438 34.222656 15.90625 44.566406 14.234375 61.445313 C 13.960938 64.085938 15.871094 66.449219 18.511719 66.734375 L 63.117188 66.734375 Z M 63.117188 66.773438 "/>
<use xlink:href="#surface5" mask="url(#mask0)"/>
<path style=" stroke:none;fill-rule:nonzero;fill:url(#linear1);" d="M 56.15625 22.710938 C 56.15625 31.023438 49.417969 37.761719 41.105469 37.761719 C 32.792969 37.761719 26.054688 31.023438 26.054688 22.710938 C 26.054688 14.398438 32.792969 7.660156 41.105469 7.660156 C 49.417969 7.660156 56.15625 14.398438 56.15625 22.710938 Z M 56.15625 22.710938 "/>
<path style=" stroke:none;fill-rule:nonzero;fill:rgb(0%,47.058824%,83.137255%);fill-opacity:1;" d="M 23.332031 22.867188 L 23.332031 3.890625 C 23.34375 3.71875 23.285156 3.546875 23.164063 3.421875 C 23.046875 3.296875 22.882813 3.226563 22.710938 3.226563 L 17.773438 3.226563 C 17.589844 3.21875 17.410156 3.28125 17.28125 3.40625 C 17.148438 3.53125 17.070313 3.707031 17.070313 3.890625 L 17.070313 22.207031 C 17.054688 22.5625 16.769531 22.847656 16.410156 22.867188 L 12.054688 22.867188 C 11.828125 22.828125 11.664063 22.628906 11.667969 22.398438 L 11.667969 17.304688 C 11.675781 17.128906 11.570313 16.960938 11.40625 16.894531 C 11.242188 16.824219 11.050781 16.863281 10.929688 16.996094 L 2.292969 25.550781 C 2.160156 25.667969 2.082031 25.839844 2.082031 26.015625 C 2.082031 26.195313 2.160156 26.363281 2.292969 26.484375 L 10.851563 35 C 10.925781 35.226563 11.167969 35.347656 11.394531 35.273438 C 11.621094 35.195313 11.742188 34.953125 11.667969 34.726563 L 11.667969 29.59375 C 11.664063 29.371094 11.835938 29.1875 12.054688 29.167969 L 22.710938 29.167969 C 23.0625 29.144531 23.332031 28.855469 23.332031 28.503906 Z M 23.332031 22.867188 "/>
</g>
</svg>
