<?xml version="1.0" encoding="UTF-8"?>
<svg xmlns="http://www.w3.org/2000/svg" xmlns:xlink="http://www.w3.org/1999/xlink" width="70pt" height="70pt" viewBox="0 0 70 70" version="1.1">
<defs>
<linearGradient id="linear0" gradientUnits="userSpaceOnUse" x1="9" y1="19.85" x2="9" y2="-1.02" gradientTransform="matrix(3.888889,0,0,3.888889,0,0)">
<stop offset="0" style="stop-color:rgb(0,138,240);stop-opacity:1;"/>
<stop offset="0.02" style="stop-color:rgb(0,139,242);stop-opacity:1;"/>
<stop offset="1" style="stop-color:rgb(47,166,255);stop-opacity:1;"/>
</linearGradient>
</defs>
<g id="surface1">
<path style=" stroke:none;fill-rule:nonzero;fill:url(#linear0);" d="M 0.699219 33.328125 L 33.328125 0.699219 C 33.765625 0.25 34.371094 -0.0078125 35 -0.0078125 C 35.628906 -0.0078125 36.234375 0.25 36.671875 0.699219 L 69.300781 33.328125 C 69.75 33.765625 70.007813 34.371094 70.007813 35 C 70.007813 35.628906 69.75 36.234375 69.300781 36.671875 L 36.632813 69.339844 C 35.726563 70.226563 34.273438 70.226563 33.367188 69.339844 L 0.699219 36.671875 C 0.25 36.234375 -0.0078125 35.628906 -0.0078125 35 C -0.0078125 34.371094 0.25 33.765625 0.699219 33.328125 Z M 0.699219 33.328125 "/>
<path style=" stroke:none;fill-rule:nonzero;fill:rgb(143,207,255);fill-opacity:1;" d="M 43.554688 15.554688 L 35.3125 7.351563 C 35.132813 7.191406 34.867188 7.191406 34.6875 7.351563 L 26.445313 15.554688 C 26.289063 15.660156 26.230469 15.863281 26.304688 16.035156 C 26.382813 16.207031 26.574219 16.300781 26.753906 16.253906 L 31.578125 16.253906 C 31.8125 16.253906 32.003906 16.445313 32.003906 16.683594 L 32.003906 24.460938 C 32.003906 24.699219 32.195313 24.890625 32.433594 24.890625 L 37.566406 24.890625 C 37.804688 24.890625 37.996094 24.699219 37.996094 24.460938 L 37.996094 16.683594 C 37.996094 16.445313 38.1875 16.253906 38.421875 16.253906 L 43.246094 16.253906 C 43.425781 16.300781 43.617188 16.207031 43.695313 16.035156 C 43.769531 15.863281 43.710938 15.660156 43.554688 15.554688 Z M 43.554688 15.554688 "/>
<path style=" stroke:none;fill-rule:nonzero;fill:rgb(143,207,255);fill-opacity:1;" d="M 15.554688 25.707031 L 7.390625 33.988281 C 7.234375 34.152344 7.234375 34.40625 7.390625 34.570313 L 15.554688 42.777344 C 15.679688 42.90625 15.867188 42.949219 16.03125 42.878906 C 16.199219 42.808594 16.300781 42.644531 16.292969 42.464844 L 16.292969 37.683594 C 16.292969 37.445313 16.484375 37.253906 16.722656 37.253906 L 24.5 37.253906 C 24.609375 37.257813 24.714844 37.210938 24.789063 37.128906 C 24.863281 37.046875 24.898438 36.9375 24.890625 36.828125 L 24.890625 31.695313 C 24.953125 31.582031 24.960938 31.449219 24.90625 31.332031 C 24.851563 31.214844 24.742188 31.132813 24.617188 31.109375 L 16.839844 31.109375 C 16.730469 31.121094 16.621094 31.085938 16.539063 31.011719 C 16.457031 30.9375 16.410156 30.832031 16.410156 30.722656 L 16.410156 26.015625 C 16.496094 25.78125 16.375 25.519531 16.140625 25.433594 C 15.902344 25.347656 15.640625 25.46875 15.554688 25.707031 Z M 15.554688 25.707031 "/>
<path style=" stroke:none;fill-rule:nonzero;fill:rgb(143,207,255);fill-opacity:1;" d="M 54.753906 42.777344 L 63.039063 34.535156 C 63.191406 34.367188 63.191406 34.113281 63.039063 33.949219 L 54.753906 25.707031 C 54.628906 25.601563 54.457031 25.578125 54.308594 25.644531 C 54.160156 25.710938 54.0625 25.855469 54.054688 26.015625 L 54.054688 30.878906 C 54.054688 30.988281 54.011719 31.09375 53.929688 31.167969 C 53.847656 31.242188 53.738281 31.277344 53.628906 31.265625 L 45.851563 31.265625 C 45.738281 31.265625 45.632813 31.3125 45.558594 31.394531 C 45.484375 31.476563 45.449219 31.585938 45.460938 31.695313 L 45.460938 36.828125 C 45.449219 36.9375 45.484375 37.046875 45.558594 37.128906 C 45.632813 37.210938 45.738281 37.257813 45.851563 37.253906 L 53.628906 37.253906 C 53.863281 37.253906 54.054688 37.445313 54.054688 37.683594 L 54.054688 42.503906 C 54.074219 42.660156 54.179688 42.792969 54.324219 42.847656 C 54.46875 42.90625 54.636719 42.878906 54.753906 42.777344 Z M 54.753906 42.777344 "/>
<path style=" stroke:none;fill-rule:nonzero;fill:rgb(255,255,255);fill-opacity:1;" d="M 45.851563 35 C 45.886719 29.378906 41.621094 24.664063 36.027344 24.132813 C 30.433594 23.597656 25.359375 27.425781 24.332031 32.953125 C 23.308594 38.476563 26.671875 43.871094 32.082031 45.382813 L 32.082031 49.078125 C 29.359375 50.484375 27.949219 53.574219 28.675781 56.554688 C 29.398438 59.539063 32.070313 61.636719 35.136719 61.636719 C 38.203125 61.636719 40.875 59.539063 41.597656 56.554688 C 42.324219 53.574219 40.914063 50.484375 38.1875 49.078125 L 38.1875 45.1875 C 42.695313 43.832031 45.796875 39.703125 45.851563 35 Z M 45.851563 35 "/>
<path style=" stroke:none;fill-rule:nonzero;fill:rgb(41,164,255);fill-opacity:1;" d="M 41.339844 34.960938 C 41.339844 38.441406 38.519531 41.261719 35.039063 41.261719 C 31.558594 41.261719 28.738281 38.441406 28.738281 34.960938 C 28.738281 31.480469 31.558594 28.660156 35.039063 28.660156 C 38.519531 28.660156 41.339844 31.480469 41.339844 34.960938 Z M 41.339844 34.960938 "/>
</g>
</svg>
