<?xml version="1.0" encoding="utf-8"?><svg version="1.1" xmlns="http://www.w3.org/2000/svg" xmlns:xlink="http://www.w3.org/1999/xlink" xmlns:xml="http://www.w3.org/XML/1998/namespace" width="70" height="70" viewBox="0, 0, 18, 18" id="a18b905d-93c6-4fee-ba5b-699e2562e00f"><defs><linearGradient x1="9" y1="17.5" x2="9" y2="0.5" gradientUnits="userSpaceOnUse" id="b02c7a20-01da-4daf-91b9-e11528418dfc"><stop offset="16%" stop-color="#006FC2" /><stop offset="32%" stop-color="#0074CA" /><stop offset="51%" stop-color="#0083E4" /><stop offset="72%" stop-color="#119AFF" /><stop offset="94%" stop-color="#4DB3FF" /><stop offset="100%" stop-color="#61BBFF" /></linearGradient></defs><title>Icon-networking-65</title><path d="M12.29 0.5 H5.71 a0.56 0.56 0 0 0 -0.4 0.17 L0.67 5.31 a0.56 0.56 0 0 0 -0.17 0.4 v6.58 a0.56 0.56 0 0 0 0.17 0.4 l4.64 4.64 a0.56 0.56 0 0 0 0.4 0.17 h6.58 a0.56 0.56 0 0 0 0.4 -0.17 l4.64 -4.64 a0.56 0.56 0 0 0 0.17 -0.4 V5.71 a0.56 0.56 0 0 0 -0.17 -0.4 L12.69 0.67 A0.56 0.56 0 0 0 12.29 0.5 Z" style="fill:url(#b02c7a20-01da-4daf-91b9-e11528418dfc);" /><path d="M6 7.64 l-0.07 0.07 l-1 1 a0.14 0.14 0 0 0 0.1 0.23 h3.8 a0.14 0.14 0 0 0 0.14 -0.14 V5.05 A0.14 0.14 0 0 0 8.64 5 l-1 1 l-0.07 0.07 a0.15 0.15 0 0 1 -0.2 0 L4.8 3.54 L3.43 4.92 L6 7.44 A0.15 0.15 0 0 1 6 7.64 Z" style="fill:#E5F3FF;" /><path d="M16.18 5.91 L12.09 1.82 a0.28 0.28 0 0 0 -0.2 -0.08 H6.11 a0.28 0.28 0 0 0 -0.2 0.08 L1.82 5.91 a0.28 0.28 0 0 0 -0.08 0.2 v5.78 a0.3 0.3 0 0 0 0.08 0.2 l4.09 4.09 a0.28 0.28 0 0 0 0.2 0.08 h5.78 a0.28 0.28 0 0 0 0.2 -0.08 l4.09 -4.09 a0.3 0.3 0 0 0 0.08 -0.2 V6.11 A0.28 0.28 0 0 0 16.18 5.91 Z m-0.36 5.45 L12.67 8.21 l0.76 -0.77 a0.16 0.16 0 0 0 0 -0.24 a0.16 0.16 0 0 0 -0.11 0 l-2.71 -0.07 a0.17 0.17 0 0 0 -0.17 0.16 h0 L10.51 10 a0.16 0.16 0 0 0 0.17 0.16 h0 a0.13 0.13 0 0 0 0.12 0 l0.85 -0.84 L15 12.62 l-2.54 2.54 L9 11.71 L9.8 11 a0.16 0.16 0 0 0 0 -0.24 a0.16 0.16 0 0 0 -0.11 -0.05 L7 10.59 a0.17 0.17 0 0 0 -0.17 0.16 h0 l0.07 2.71 a0.16 0.16 0 0 0 0.17 0.16 h0 a0.17 0.17 0 0 0 0.12 -0.05 L8 12.74 l3.08 3.08 H6.17 l-4 -4 V6.17 L3.43 4.92 L4.8 3.54 L6.17 2.17 h5.66 l4 4 Z" style="fill:#E5F3FF;" /></svg>