<?xml version="1.0" encoding="utf-8"?><svg version="1.1" xmlns="http://www.w3.org/2000/svg" xmlns:xlink="http://www.w3.org/1999/xlink" xmlns:xml="http://www.w3.org/XML/1998/namespace" width="70" height="70" viewBox="0, 0, 18, 18" id="ec71760d-ea07-41d5-9506-94a0f2677aa9"><defs><linearGradient x1="10.56" y1="7.77" x2="10.56" y2="19.24" gradientUnits="userSpaceOnUse" id="ec6ad825-6008-44c0-8c46-d31711213827"><stop offset="22%" stop-color="#32D4F5" /><stop offset="100%" stop-color="#198AB3" /></linearGradient><linearGradient x1="10.23" y1="1.63" x2="11.07" y2="12.04" gradientUnits="userSpaceOnUse" id="b2c2be9e-0a70-4a83-ab8f-bf8022e67924"><stop offset="22%" stop-color="#32D4F5" /><stop offset="100%" stop-color="#198AB3" /></linearGradient></defs><title>Icon-networking-82</title><path d="M16.23 17.17 A1.21 1.21 0 0 0 17.46 16 V15.8 c-0.49 -3.86 -2.69 -7 -6.89 -7 s-6.48 2.66 -6.91 7 a1.24 1.24 0 0 0 1.1 1.36 H16.23 Z" style="fill:url(#ec6ad825-6008-44c0-8c46-d31711213827);" /><path d="M10.57 9.71 a3.86 3.86 0 0 1 -2.1 -0.61 l2.08 5.42 l2.06 -5.39 A3.83 3.83 0 0 1 10.57 9.71 Z" opacity="0.8" style="fill:white;" /><circle cx="10.57" cy="5.84" r="3.87" style="fill:url(#b2c2be9e-0a70-4a83-ab8f-bf8022e67924);" /><path d="M6 5.88 V1 A0.16 0.16 0 0 0 5.84 0.83 H4.57 A0.17 0.17 0 0 0 4.39 1 V5.71 a0.18 0.18 0 0 1 -0.17 0.17 H3.1 A0.12 0.12 0 0 1 3 5.76 V4.45 a0.11 0.11 0 0 0 -0.19 -0.08 L0.59 6.57 a0.16 0.16 0 0 0 0 0.24 L2.79 9 A0.11 0.11 0 0 0 3 8.93 V7.61 A0.11 0.11 0 0 1 3.1 7.5 H5.84 A0.17 0.17 0 0 0 6 7.33 V5.88 Z" style="fill:#0078D4;" /></svg>