<?xml version="1.0" encoding="UTF-8"?>
<svg xmlns="http://www.w3.org/2000/svg" xmlns:xlink="http://www.w3.org/1999/xlink" width="70pt" height="70pt" viewBox="0 0 70 70" version="1.1">
<defs>
<linearGradient id="linear0" gradientUnits="userSpaceOnUse" x1="21.5" y1="25" x2="21.5" y2="37" gradientTransform="matrix(1.4,0,0,1.4,0,0)">
<stop offset="0.23" style="stop-color:rgb(41,164,255);stop-opacity:1;"/>
<stop offset="0.32" style="stop-color:rgb(39,163,255);stop-opacity:1;"/>
<stop offset="0.48" style="stop-color:rgb(25,157,255);stop-opacity:1;"/>
<stop offset="0.57" style="stop-color:rgb(5,148,255);stop-opacity:1;"/>
<stop offset="0.75" style="stop-color:rgb(0,133,232);stop-opacity:1;"/>
<stop offset="0.93" style="stop-color:rgb(0,119,208);stop-opacity:1;"/>
</linearGradient>
<linearGradient id="linear1" gradientUnits="userSpaceOnUse" x1="27.5" y1="30" x2="27.5" y2="42" gradientTransform="matrix(1.4,0,0,1.4,0,0)">
<stop offset="0.02" style="stop-color:rgb(41,164,255);stop-opacity:1;"/>
<stop offset="0.14" style="stop-color:rgb(39,163,255);stop-opacity:1;"/>
<stop offset="0.23" style="stop-color:rgb(39,163,255);stop-opacity:1;"/>
<stop offset="0.34" style="stop-color:rgb(25,157,255);stop-opacity:1;"/>
<stop offset="0.44" style="stop-color:rgb(5,148,255);stop-opacity:1;"/>
<stop offset="0.63" style="stop-color:rgb(0,133,232);stop-opacity:1;"/>
<stop offset="0.93" style="stop-color:rgb(0,119,208);stop-opacity:1;"/>
</linearGradient>
</defs>
<g id="surface1">
<path style=" stroke:none;fill-rule:nonzero;fill:rgb(0,140,244);fill-opacity:1;" d="M 32.199219 9.941406 L 36.398438 9.941406 L 36.398438 36.398438 L 32.199219 36.398438 Z M 32.199219 9.941406 "/>
<path style=" stroke:none;fill-rule:nonzero;fill:rgb(0,132,230);fill-opacity:1;" d="M 40.460938 9.101563 C 41.855469 6.683594 44.695313 5.507813 47.390625 6.230469 C 50.082031 6.953125 51.953125 9.390625 51.953125 12.179688 C 51.953125 14.96875 50.082031 17.410156 47.390625 18.128906 C 44.695313 18.851563 41.855469 17.675781 40.460938 15.261719 Z M 40.460938 9.101563 "/>
<path style=" stroke:none;fill-rule:nonzero;fill:url(#linear0);" d="M 33.460938 35 L 26.738281 35 C 29.21875 30.390625 34.960938 28.664063 39.570313 31.144531 C 44.179688 33.621094 45.90625 39.367188 43.429688 43.972656 L 55.453125 43.972656 C 57.199219 45.394531 57.859375 47.761719 57.105469 49.882813 C 56.351563 52.003906 54.34375 53.417969 52.09375 53.417969 C 49.84375 53.417969 47.835938 52.003906 47.082031 49.882813 C 46.328125 47.761719 46.988281 45.394531 48.734375 43.972656 L 46.886719 43.972656 C 48.144531 44.84375 48.796875 46.355469 48.566406 47.867188 L 50.539063 47.867188 C 49.882813 47.945313 49.222656 47.945313 48.566406 47.867188 Z M 33.460938 35 "/>
<path style=" stroke:none;fill-rule:nonzero;fill:url(#linear1);" d="M 43.160156 42.113281 C 42.746094 37.988281 44.964844 34.050781 48.710938 32.273438 C 52.453125 30.496094 56.910156 31.265625 59.84375 34.195313 C 62.773438 37.125 63.542969 41.582031 61.765625 45.328125 C 59.988281 49.070313 56.050781 51.292969 51.925781 50.875 L 57.230469 50.875 L 50.511719 50.875 C 48.765625 49.453125 48.105469 47.089844 48.859375 44.96875 C 49.613281 42.847656 51.621094 41.429688 53.871094 41.429688 C 56.121094 41.429688 58.128906 42.847656 58.882813 44.96875 C 59.636719 47.089844 58.976563 49.453125 57.230469 50.875 L 59.078125 50.875 C 59.058594 49.269531 60.011719 47.808594 61.492188 47.183594 C 62.972656 46.558594 64.683594 46.890625 65.820313 48.027344 C 66.957031 49.164063 67.289063 50.875 66.664063 52.355469 C 66.039063 53.835938 64.578125 54.789063 62.972656 54.769531 L 35.140625 54.769531 C 35.140625 47.082031 41.371094 40.851563 49.054688 40.851563 C 56.742188 40.851563 62.972656 47.082031 62.972656 54.769531 L 69.691406 54.769531 C 73.335938 56.359375 75.367188 60.289063 74.554688 64.183594 C 73.742188 68.078125 70.308594 70.867188 66.332031 70.867188 C 62.355469 70.867188 58.921875 68.078125 58.109375 64.183594 C 57.296875 60.289063 59.328125 56.359375 62.972656 54.769531 Z M 43.160156 42.113281 "/>
<path style=" stroke:none;fill-rule:nonzero;fill:rgb(119,197,255);fill-opacity:1;" d="M 22.203125 62.328125 L 20.664063 63.882813 C 3.023438 63.882813 -11.277344 49.582031 -11.277344 31.941406 C -11.277344 14.300781 3.023438 0 20.664063 0 L 1.945313 46.691406 C -10.945313 41.519531 -17.207031 26.878906 -12.039063 13.984375 C -6.871094 1.09375 7.769531 -5.167969 20.664063 0 L 22.21875 -1.539063 L 40.921875 17.136719 C 36.191406 22.730469 27.820313 23.429688 22.226563 18.695313 C 16.632813 13.964844 15.933594 5.59375 20.664063 0 Z M 22.203125 62.328125 "/>
<path style=" stroke:none;fill-rule:nonzero;fill:rgb(0,132,230);fill-opacity:1;" d="M 20.34375 26.769531 L 22.0625 28.488281 C 14.195313 34.582031 2.878906 33.144531 -3.214844 25.277344 C -9.304688 17.410156 -7.867188 6.09375 0 0 L 3.667969 48.425781 L 1.945313 46.71875 C -10.953125 47.253906 -21.847656 37.234375 -22.386719 24.332031 C -22.921875 11.429688 -12.902344 0.539063 0 0 L 16.910156 -16.96875 C 12.226563 -21.636719 4.640625 -21.625 -0.0273438 -16.941406 C -4.699219 -12.253906 -4.6875 -4.671875 0 0 Z M 20.34375 26.769531 "/>
<path style=" stroke:none;fill-rule:nonzero;fill:rgb(119,197,255);fill-opacity:1;" d="M 47.78125 63.546875 C 30.234375 76.742188 5.3125 73.210938 -7.882813 55.664063 C -21.078125 38.117188 -17.546875 13.195313 0 0 L 66.5 43.398438 L 68.054688 44.953125 C 55.640625 63.746094 30.34375 68.917969 11.550781 56.503906 C -7.242188 44.089844 -12.414063 18.792969 0 0 L 50.804688 65.101563 C 32.828125 65.101563 18.257813 50.527344 18.257813 32.550781 C 18.257813 14.574219 32.828125 0 50.804688 0 L 49.265625 -1.554688 Z M 47.78125 63.546875 "/>
<path style=" stroke:none;fill-rule:nonzero;fill:rgb(0,132,230);fill-opacity:1;" d="M 51.128906 28 L 68.054688 44.96875 C 55.636719 63.761719 30.335938 68.929688 11.542969 56.511719 C -7.25 44.09375 -12.417969 18.792969 0 0 L -1.722656 1.722656 L -20.132813 -16.730469 C -15.511719 -22.289063 -7.261719 -23.050781 -1.699219 -18.429688 C 3.859375 -13.8125 4.621094 -5.558594 0 0 L 49.644531 28 C 57.375 14.292969 52.53125 -3.089844 38.820313 -10.820313 C 25.113281 -18.554688 7.730469 -13.707031 0 0 Z M 51.128906 28 "/>
</g>
</svg>
