<?xml version="1.0" encoding="UTF-8"?>
<svg xmlns="http://www.w3.org/2000/svg" xmlns:xlink="http://www.w3.org/1999/xlink" width="70pt" height="70pt" viewBox="0 0 70 70" version="1.1">
<defs>
<radialGradient id="radial0" gradientUnits="userSpaceOnUse" cx="15013.284" cy="4584.191" fx="15013.284" fy="4584.191" r="56.626" gradientTransform="matrix(0.583333,0,0,0.583333,-8724.072778,-2639.902222)">
<stop offset="0.183" style="stop-color:rgb(36.862745%,62.745098%,93.72549%);stop-opacity:1;"/>
<stop offset="1" style="stop-color:rgb(0%,47.058824%,83.137255%);stop-opacity:1;"/>
</radialGradient>
<linearGradient id="linear0" gradientUnits="userSpaceOnUse" x1="4.022" y1="171.297" x2="3.991" y2="167.338" gradientTransform="matrix(3.888889,0,0,3.888889,0,-622.222222)">
<stop offset="0" style="stop-color:rgb(80%,80%,80%);stop-opacity:1;"/>
<stop offset="0.123" style="stop-color:rgb(84.313725%,84.313725%,84.313725%);stop-opacity:1;"/>
<stop offset="0.421" style="stop-color:rgb(92.156863%,92.156863%,92.156863%);stop-opacity:1;"/>
<stop offset="0.716" style="stop-color:rgb(97.254902%,97.254902%,97.254902%);stop-opacity:1;"/>
<stop offset="1" style="stop-color:rgb(98.823529%,98.823529%,98.823529%);stop-opacity:1;"/>
</linearGradient>
</defs>
<g id="surface1">
<path style=" stroke:none;fill-rule:nonzero;fill:url(#radial0);" d="M 54.054688 60.277344 C 39.660156 71.449219 18.945313 68.882813 7.707031 54.542969 C -3.53125 40.199219 -1.066406 19.472656 13.222656 8.167969 L 13.609375 7.777344 C 28.117188 -3.207031 48.765625 -0.441406 59.867188 13.972656 C 70.972656 28.386719 68.375 49.054688 54.054688 60.277344 "/>
<path style=" stroke:none;fill-rule:nonzero;fill:rgb(51.372549%,72.54902%,97.647059%);fill-opacity:1;" d="M 8.167969 40.832031 C 6.953125 44.148438 5.914063 47.523438 5.054688 50.945313 L 7.390625 54.445313 L 9.722656 56.777344 C 10.554688 52.074219 11.992188 47.5 14 43.167969 C 11.851563 43.046875 9.804688 42.226563 8.167969 40.832031 Z M 8.167969 40.832031 "/>
<path style=" stroke:none;fill-rule:nonzero;fill:rgb(51.372549%,72.54902%,97.647059%);fill-opacity:1;" d="M 12.054688 22.945313 C 10.738281 19.296875 9.824219 15.515625 9.332031 11.667969 C 7.699219 13.304688 6.261719 15.132813 5.054688 17.109375 C 5.464844 20.304688 6.246094 23.4375 7.390625 26.445313 C 8.585938 24.863281 10.203125 23.652344 12.054688 22.945313 Z M 12.054688 22.945313 "/>
<path style=" stroke:none;fill-rule:nonzero;fill:url(#linear0);" d="M 26.054688 33.054688 C 26.054688 38.855469 21.355469 43.554688 15.554688 43.554688 C 9.757813 43.554688 5.054688 38.855469 5.054688 33.054688 C 5.054688 27.257813 9.757813 22.554688 15.554688 22.554688 C 21.355469 22.554688 26.054688 27.257813 26.054688 33.054688 Z M 26.054688 33.054688 "/>
<path style=" stroke:none;fill-rule:nonzero;fill:rgb(51.372549%,72.54902%,97.647059%);fill-opacity:1;" d="M 31.109375 52.5 C 31.167969 50.644531 31.851563 48.859375 33.054688 47.445313 C 29.414063 45.558594 26.125 43.058594 23.332031 40.054688 C 21.765625 41.683594 19.722656 42.773438 17.5 43.167969 C 19.347656 45.085938 21.292969 46.902344 23.332031 48.609375 C 25.691406 50.53125 28.308594 52.101563 31.109375 53.277344 Z M 31.109375 52.5 "/>
<path style=" stroke:none;fill-rule:nonzero;fill:rgb(51.372549%,72.54902%,97.647059%);fill-opacity:1;" d="M 55.609375 53.277344 C 51.949219 53.273438 48.300781 52.882813 44.722656 52.109375 L 44.722656 52.5 C 44.738281 54.253906 44.035156 55.941406 42.777344 57.167969 C 47.132813 58.007813 51.578125 58.269531 56 57.945313 C 57.554688 56.390625 59.109375 54.445313 60.667969 52.890625 C 59.003906 53.226563 57.304688 53.355469 55.609375 53.277344 Z M 55.609375 53.277344 "/>
<path style=" stroke:none;fill-rule:nonzero;fill:rgb(51.372549%,72.54902%,97.647059%);fill-opacity:1;" d="M 36.167969 19.054688 C 43.300781 15.519531 51.148438 13.65625 59.109375 13.609375 C 57.457031 11.507813 55.488281 9.671875 53.277344 8.167969 C 46.996094 8.617188 40.828125 10.0625 35 12.445313 C 33.664063 13.011719 32.367188 13.664063 31.109375 14.390625 C 28.167969 10.882813 25.566406 7.105469 23.332031 3.109375 C 22.085938 3.199219 20.882813 3.597656 19.832031 4.277344 C 22.191406 8.53125 24.925781 12.566406 28 16.332031 C 24.851563 18.121094 21.96875 20.347656 19.445313 22.945313 C 21.527344 23.820313 23.289063 25.3125 24.5 27.222656 C 26.6875 24.953125 29.171875 22.988281 31.890625 21.390625 C 36.214844 26.050781 41.039063 30.222656 46.277344 33.832031 C 46.667969 32.339844 47.476563 30.992188 48.609375 29.945313 C 44.191406 26.636719 40.03125 22.996094 36.167969 19.054688 Z M 36.167969 19.054688 "/>
<path style=" stroke:none;fill-rule:nonzero;fill:rgb(94.901961%,94.901961%,94.901961%);fill-opacity:1;" d="M 61.054688 35.390625 C 61.054688 39.46875 57.746094 42.777344 53.667969 42.777344 C 49.585938 42.777344 46.277344 39.46875 46.277344 35.390625 C 46.277344 31.308594 49.585938 28 53.667969 28 C 57.746094 28 61.054688 31.308594 61.054688 35.390625 Z M 61.054688 35.390625 "/>
<path style=" stroke:none;fill-rule:nonzero;fill:rgb(51.372549%,72.54902%,97.647059%);fill-opacity:1;" d="M 66.109375 40.445313 C 65.722656 40.054688 65.332031 40.054688 64.945313 39.667969 C 64.554688 39.277344 64.167969 39.277344 63.777344 38.890625 L 63.390625 38.890625 L 62.222656 38.109375 L 61.832031 38.109375 L 60.667969 37.332031 C 60.367188 38.757813 59.53125 40.007813 58.332031 40.832031 C 58.722656 41.222656 59.109375 41.222656 59.890625 41.609375 L 60.277344 41.609375 C 60.667969 42 61.054688 42 61.445313 42.390625 C 62.609375 43.167969 63.777344 43.554688 64.945313 44.332031 C 65.332031 43.167969 65.722656 41.609375 66.109375 40.445313 Z M 66.109375 40.445313 "/>
<path style=" stroke:none;fill-rule:nonzero;fill:rgb(94.901961%,94.901961%,94.901961%);fill-opacity:1;" d="M 26.054688 33.054688 C 26.054688 38.855469 21.355469 43.554688 15.554688 43.554688 C 9.757813 43.554688 5.054688 38.855469 5.054688 33.054688 C 5.054688 27.257813 9.757813 22.554688 15.554688 22.554688 C 21.355469 22.554688 26.054688 27.257813 26.054688 33.054688 Z M 26.054688 33.054688 "/>
<path style=" stroke:none;fill-rule:nonzero;fill:rgb(94.901961%,94.901961%,94.901961%);fill-opacity:1;" d="M 45.109375 52.5 C 45.109375 56.367188 41.976563 59.5 38.109375 59.5 C 34.246094 59.5 31.109375 56.367188 31.109375 52.5 C 31.109375 48.632813 34.246094 45.5 38.109375 45.5 C 41.976563 45.5 45.109375 48.632813 45.109375 52.5 Z M 45.109375 52.5 "/>
<path style=" stroke:none;fill-rule:nonzero;fill:rgb(50.980392%,6.27451%,6.27451%);fill-opacity:1;" d="M 20.222656 40.832031 L 67.277344 40.832031 C 68.054688 40.832031 69.222656 41.609375 69.222656 42.390625 L 69.222656 67.277344 C 69.152344 68.320313 68.320313 69.152344 67.277344 69.222656 L 20.222656 69.222656 C 19.261719 69.105469 18.570313 68.242188 18.667969 67.277344 L 18.667969 42.777344 C 18.570313 41.816406 19.261719 40.949219 20.222656 40.832031 Z M 20.222656 40.832031 "/>
<path style=" stroke:none;fill-rule:nonzero;fill:rgb(90.196078%,13.72549%,13.72549%);fill-opacity:1;" d="M 20.609375 43.945313 L 34.609375 43.945313 L 34.609375 50.167969 L 20.609375 50.167969 Z M 20.609375 43.945313 "/>
<path style=" stroke:none;fill-rule:nonzero;fill:rgb(100%,45.098039%,50.588235%);fill-opacity:1;" d="M 36.945313 43.945313 L 50.945313 43.945313 L 50.945313 50.167969 L 36.945313 50.167969 Z M 36.945313 43.945313 "/>
<path style=" stroke:none;fill-rule:nonzero;fill:rgb(90.196078%,13.72549%,13.72549%);fill-opacity:1;" d="M 52.890625 43.945313 L 66.890625 43.945313 L 66.890625 50.167969 L 52.890625 50.167969 Z M 52.890625 43.945313 "/>
<path style=" stroke:none;fill-rule:nonzero;fill:rgb(90.196078%,13.72549%,13.72549%);fill-opacity:1;" d="M 20.609375 52.109375 L 26.445313 52.109375 L 26.445313 58.332031 L 20.609375 58.332031 Z M 20.609375 52.109375 "/>
<path style=" stroke:none;fill-rule:nonzero;fill:rgb(100%,45.098039%,50.588235%);fill-opacity:1;" d="M 61.054688 52.109375 L 66.890625 52.109375 L 66.890625 58.332031 L 61.054688 58.332031 Z M 61.054688 52.109375 "/>
<path style=" stroke:none;fill-rule:nonzero;fill:rgb(100%,45.098039%,50.588235%);fill-opacity:1;" d="M 28.777344 52.109375 L 42.777344 52.109375 L 42.777344 58.332031 L 28.777344 58.332031 Z M 28.777344 52.109375 "/>
<path style=" stroke:none;fill-rule:nonzero;fill:rgb(90.196078%,13.72549%,13.72549%);fill-opacity:1;" d="M 44.722656 52.109375 L 58.722656 52.109375 L 58.722656 58.332031 L 44.722656 58.332031 Z M 44.722656 52.109375 "/>
<path style=" stroke:none;fill-rule:nonzero;fill:rgb(90.196078%,13.72549%,13.72549%);fill-opacity:1;" d="M 20.609375 60.277344 L 34.609375 60.277344 L 34.609375 66.5 L 20.609375 66.5 Z M 20.609375 60.277344 "/>
<path style=" stroke:none;fill-rule:nonzero;fill:rgb(100%,45.098039%,50.588235%);fill-opacity:1;" d="M 36.945313 60.277344 L 50.945313 60.277344 L 50.945313 66.5 L 36.945313 66.5 Z M 36.945313 60.277344 "/>
<path style=" stroke:none;fill-rule:nonzero;fill:rgb(90.196078%,13.72549%,13.72549%);fill-opacity:1;" d="M 52.890625 60.277344 L 66.890625 60.277344 L 66.890625 66.5 L 52.890625 66.5 Z M 52.890625 60.277344 "/>
</g>
</svg>
