<?xml version="1.0" encoding="UTF-8"?>
<svg xmlns="http://www.w3.org/2000/svg" xmlns:xlink="http://www.w3.org/1999/xlink" width="70pt" height="70pt" viewBox="0 0 70 70" version="1.1">
<g id="surface1">
<path style=" stroke:none;fill-rule:nonzero;fill:rgb(0%,44.705882%,77.647059%);fill-opacity:1;" d="M 31.21875 52.21875 C 22.121094 58.519531 7.558594 68.179688 6.160156 69.300781 C 4.339844 70.558594 1.679688 70 0.839844 68.878906 C 0 67.621094 0 64.960938 1.820313 63.699219 C 2.941406 63 22.121094 49.980469 28 45.921875 L 31.359375 49.558594 C 32.898438 51.101563 31.21875 52.21875 31.21875 52.21875 Z M 30.800781 43.398438 C 30.800781 43.398438 14 25.339844 12.039063 23.378906 C 10.21875 21.28125 11.898438 18.898438 12.878906 18.058594 C 13.859375 17.21875 16.800781 15.960938 18.339844 17.5 C 19.878906 19.039063 38.640625 39.199219 40.039063 40.738281 C 41.441406 42.28125 41.300781 44.660156 38.921875 46.339844 C 38.5 46.621094 37.378906 47.460938 35.699219 48.578125 C 35.558594 48.71875 34.859375 49.28125 34.160156 49.699219 C 34.160156 49.699219 35.699219 48.578125 34.578125 47.320313 Z M 42.839844 31.5 C 50.398438 39.621094 62.160156 52.359375 63.421875 53.621094 C 64.960938 55.300781 67.621094 55.300781 68.738281 54.320313 C 69.859375 53.339844 70.421875 50.820313 68.878906 49.140625 C 68.039063 48.160156 52.21875 31.21875 47.460938 26.039063 L 43.398438 28.839844 C 41.441406 29.960938 42.839844 31.5 42.839844 31.5 Z M 44.519531 23.238281 C 44.519531 23.238281 64.820313 9.101563 67.058594 7.421875 C 69.300781 5.738281 68.179688 3.078125 67.339844 2.101563 C 66.5 1.121094 63.980469 -0.839844 62.160156 0.421875 C 60.339844 1.679688 37.800781 17.359375 36.121094 18.621094 C 34.441406 19.878906 34.019531 22.121094 36.121094 24.359375 C 36.398438 24.78125 37.378906 25.761719 38.78125 27.300781 C 38.921875 27.441406 39.480469 28.140625 40.039063 28.699219 C 40.039063 28.699219 38.78125 27.300781 40.179688 26.320313 Z M 44.519531 23.238281 "/>
</g>
</svg>
