<?xml version="1.0" encoding="UTF-8"?>
<svg xmlns="http://www.w3.org/2000/svg" xmlns:xlink="http://www.w3.org/1999/xlink" width="70pt" height="70pt" viewBox="0 0 70 70" version="1.1">
<defs>
<linearGradient id="linear0" gradientUnits="userSpaceOnUse" x1="9" y1="19.25" x2="9" y2="-0.46" gradientTransform="matrix(3.888889,-0.000000000000000009,0.000000000000000009,3.888889,-0.0137949,-0.00571404)">
<stop offset="0" style="stop-color:rgb(36.862745%,58.823529%,14.117647%);stop-opacity:1;"/>
<stop offset="0.55" style="stop-color:rgb(42.745098%,67.843137%,16.470588%);stop-opacity:1;"/>
<stop offset="1" style="stop-color:rgb(46.27451%,73.72549%,17.647059%);stop-opacity:1;"/>
</linearGradient>
<linearGradient id="linear1" gradientUnits="userSpaceOnUse" x1="7.54" y1="6.44" x2="7.53" y2="5.18" gradientTransform="matrix(3.888889,0,0,3.888889,0,0)">
<stop offset="0" style="stop-color:rgb(80%,80%,80%);stop-opacity:1;"/>
<stop offset="0.12" style="stop-color:rgb(84.313725%,84.313725%,84.313725%);stop-opacity:1;"/>
<stop offset="0.42" style="stop-color:rgb(92.156863%,92.156863%,92.156863%);stop-opacity:1;"/>
<stop offset="0.72" style="stop-color:rgb(97.254902%,97.254902%,97.254902%);stop-opacity:1;"/>
<stop offset="1" style="stop-color:rgb(98.823529%,98.823529%,98.823529%);stop-opacity:1;"/>
</linearGradient>
<filter id="alpha" filterUnits="objectBoundingBox" x="0%" y="0%" width="100%" height="100%">
  <feColorMatrix type="matrix" in="SourceGraphic" values="0 0 0 0 1 0 0 0 0 1 0 0 0 0 1 0 0 0 1 0"/>
</filter>
<mask id="mask0">
  <g filter="url(#alpha)">
<rect x="0" y="0" width="70" height="70" style="fill:rgb(0%,0%,0%);fill-opacity:0.54902;stroke:none;"/>
  </g>
</mask>
<clipPath id="clip1">
  <rect x="0" y="0" width="70" height="70"/>
</clipPath>
<g id="surface5" clip-path="url(#clip1)">
<path style=" stroke:none;fill-rule:nonzero;fill:rgb(94.901961%,94.901961%,94.901961%);fill-opacity:1;" d="M 25.9375 27.222656 L 26.679688 28.390625 L 27.222656 29.167969 C 27.523438 27.703125 27.964844 26.269531 28.542969 24.890625 C 27.882813 24.773438 27.273438 24.464844 26.792969 23.996094 C 26.441406 25.050781 26.15625 26.128906 25.9375 27.222656 Z M 25.9375 27.222656 "/>
</g>
<mask id="mask1">
  <g filter="url(#alpha)">
<rect x="0" y="0" width="70" height="70" style="fill:rgb(0%,0%,0%);fill-opacity:0.54902;stroke:none;"/>
  </g>
</mask>
<clipPath id="clip2">
  <rect x="0" y="0" width="70" height="70"/>
</clipPath>
<g id="surface8" clip-path="url(#clip2)">
<path style=" stroke:none;fill-rule:nonzero;fill:rgb(94.901961%,94.901961%,94.901961%);fill-opacity:1;" d="M 28.15625 18.394531 C 27.699219 17.230469 27.386719 16.015625 27.222656 14.777344 C 26.714844 15.320313 26.269531 15.921875 25.898438 16.566406 C 26.054688 17.550781 26.3125 18.515625 26.679688 19.445313 C 27.082031 18.984375 27.585938 18.625 28.15625 18.394531 Z M 28.15625 18.394531 "/>
</g>
<mask id="mask2">
  <g filter="url(#alpha)">
<rect x="0" y="0" width="70" height="70" style="fill:rgb(0%,0%,0%);fill-opacity:0.54902;stroke:none;"/>
  </g>
</mask>
<clipPath id="clip3">
  <rect x="0" y="0" width="70" height="70"/>
</clipPath>
<g id="surface11" clip-path="url(#clip3)">
<path style=" stroke:none;fill-rule:nonzero;fill:rgb(94.901961%,94.901961%,94.901961%);fill-opacity:1;" d="M 31.773438 23.878906 C 31.273438 24.40625 30.621094 24.761719 29.90625 24.890625 C 30.464844 25.460938 31.0625 25.992188 31.695313 26.484375 C 32.488281 27.066406 33.335938 27.574219 34.222656 28 L 34.222656 27.726563 C 34.238281 27.121094 34.523438 26.550781 35 26.171875 C 33.820313 25.5625 32.734375 24.792969 31.773438 23.878906 Z M 31.773438 23.878906 "/>
</g>
<mask id="mask3">
  <g filter="url(#alpha)">
<rect x="0" y="0" width="70" height="70" style="fill:rgb(0%,0%,0%);fill-opacity:0.54902;stroke:none;"/>
  </g>
</mask>
<clipPath id="clip4">
  <rect x="0" y="0" width="70" height="70"/>
</clipPath>
<g id="surface14" clip-path="url(#clip4)">
<path style=" stroke:none;fill-rule:nonzero;fill:rgb(94.901961%,94.901961%,94.901961%);fill-opacity:1;" d="M 41.960938 28 C 40.824219 27.992188 39.6875 27.859375 38.578125 27.609375 C 38.578125 28.179688 38.355469 28.726563 37.957031 29.128906 C 39.332031 29.429688 40.746094 29.535156 42.15625 29.4375 C 42.6875 28.941406 43.167969 28.394531 43.59375 27.804688 Z M 41.960938 28 "/>
</g>
<mask id="mask4">
  <g filter="url(#alpha)">
<rect x="0" y="0" width="70" height="70" style="fill:rgb(0%,0%,0%);fill-opacity:0.54902;stroke:none;"/>
  </g>
</mask>
<clipPath id="clip5">
  <rect x="0" y="0" width="70" height="70"/>
</clipPath>
<g id="surface17" clip-path="url(#clip5)">
<path style=" stroke:none;fill-rule:nonzero;fill:rgb(94.901961%,94.901961%,94.901961%);fill-opacity:1;" d="M 35.816406 17.1875 C 38.097656 16.097656 40.597656 15.539063 43.128906 15.554688 C 42.605469 14.886719 41.992188 14.296875 41.300781 13.804688 C 39.304688 13.925781 37.34375 14.386719 35.503906 15.167969 C 35.117188 15.167969 34.765625 15.59375 34.378906 15.789063 C 33.445313 14.664063 32.625 13.453125 31.929688 12.171875 L 30.605469 12.679688 C 31.300781 14.0625 32.148438 15.367188 33.132813 16.566406 C 32.1875 17.179688 31.316406 17.898438 30.527344 18.707031 C 31.21875 18.964844 31.804688 19.441406 32.199219 20.066406 C 32.914063 19.351563 33.710938 18.726563 34.570313 18.199219 C 35.976563 19.621094 37.5 20.921875 39.121094 22.089844 C 39.234375 21.597656 39.507813 21.160156 39.898438 20.84375 C 38.4375 19.742188 37.074219 18.519531 35.816406 17.1875 Z M 35.816406 17.1875 "/>
</g>
<mask id="mask5">
  <g filter="url(#alpha)">
<rect x="0" y="0" width="70" height="70" style="fill:rgb(0%,0%,0%);fill-opacity:0.54902;stroke:none;"/>
  </g>
</mask>
<clipPath id="clip6">
  <rect x="0" y="0" width="70" height="70"/>
</clipPath>
<g id="surface20" clip-path="url(#clip6)">
<path style=" stroke:none;fill-rule:nonzero;fill:rgb(94.901961%,94.901961%,94.901961%);fill-opacity:1;" d="M 44.917969 23.683594 L 44.214844 23.683594 L 43.828125 23.449219 C 43.691406 23.910156 43.421875 24.316406 43.050781 24.617188 L 43.515625 24.890625 L 43.945313 25.121094 L 45.035156 25.667969 C 45.171875 25.21875 45.289063 24.765625 45.382813 24.304688 Z M 44.917969 23.683594 "/>
</g>
</defs>
<g id="surface1">
<path style=" stroke:none;fill-rule:nonzero;fill:url(#linear0);" d="M 2.570313 33.433594 L 33.398438 2.605469 C 34.261719 1.742188 35.667969 1.742188 36.53125 2.605469 L 67.359375 33.433594 C 68.222656 34.296875 68.222656 35.703125 67.359375 36.566406 L 36.53125 67.394531 C 35.667969 68.257813 34.261719 68.257813 33.398438 67.394531 L 2.570313 36.566406 C 1.707031 35.703125 1.707031 34.296875 2.570313 33.433594 Z M 2.570313 33.433594 "/>
<path style=" stroke:none;fill-rule:nonzero;fill:rgb(100%,100%,100%);fill-opacity:1;" d="M 42.351563 40.871094 L 53.394531 40.871094 C 53.617188 40.851563 53.785156 40.667969 53.785156 40.445313 L 53.785156 29.4375 C 53.800781 29.265625 53.703125 29.097656 53.539063 29.035156 C 53.375 28.972656 53.1875 29.023438 53.082031 29.167969 L 50.050781 32.199219 L 50.050781 32.394531 C 49.898438 32.542969 49.65625 32.542969 49.503906 32.394531 L 36.011719 19.09375 C 35.859375 18.945313 35.617188 18.945313 35.464844 19.09375 L 32.042969 22.515625 C 31.890625 22.679688 31.890625 22.9375 32.042969 23.101563 L 45.304688 36.359375 C 45.457031 36.527344 45.457031 36.78125 45.304688 36.945313 L 42.078125 40.171875 C 41.976563 40.292969 41.949219 40.457031 42.007813 40.601563 C 42.0625 40.75 42.195313 40.851563 42.351563 40.871094 Z M 42.351563 40.871094 "/>
<path style=" stroke:none;fill-rule:nonzero;fill:rgb(100%,100%,100%);fill-opacity:1;" d="M 26.910156 40.871094 L 15.867188 40.871094 C 15.675781 40.820313 15.546875 40.640625 15.554688 40.445313 L 15.554688 29.4375 C 15.558594 29.285156 15.652344 29.144531 15.796875 29.085938 C 15.941406 29.027344 16.105469 29.058594 16.214844 29.167969 L 19.289063 32.199219 L 19.289063 32.394531 C 19.441406 32.542969 19.683594 32.542969 19.832031 32.394531 L 33.25 19.09375 C 33.402344 18.945313 33.644531 18.945313 33.792969 19.09375 L 37.214844 22.515625 C 37.371094 22.679688 37.371094 22.9375 37.214844 23.101563 L 23.957031 36.359375 C 23.800781 36.527344 23.800781 36.78125 23.957031 36.945313 L 23.957031 37.140625 L 26.988281 40.171875 C 27.09375 40.265625 27.148438 40.402344 27.132813 40.542969 C 27.117188 40.683594 27.035156 40.804688 26.910156 40.871094 Z M 26.910156 40.871094 "/>
<path style=" stroke:none;fill-rule:nonzero;fill:rgb(100%,100%,100%);fill-opacity:1;" d="M 26.523438 50.828125 L 34.300781 58.605469 C 34.453125 58.753906 34.691406 58.753906 34.84375 58.605469 L 42.621094 50.828125 C 42.730469 50.714844 42.761719 50.550781 42.703125 50.40625 C 42.644531 50.261719 42.503906 50.167969 42.351563 50.167969 L 37.800781 50.167969 C 37.59375 50.148438 37.429688 49.984375 37.410156 49.777344 L 37.410156 31.109375 C 37.421875 31 37.386719 30.890625 37.3125 30.8125 C 37.238281 30.730469 37.132813 30.683594 37.023438 30.683594 L 32.199219 30.683594 C 31.964844 30.683594 31.773438 30.875 31.773438 31.109375 L 31.773438 49.777344 C 31.773438 49.992188 31.597656 50.167969 31.382813 50.167969 L 26.792969 50.167969 C 26.640625 50.167969 26.5 50.261719 26.441406 50.40625 C 26.382813 50.550781 26.414063 50.714844 26.523438 50.828125 Z M 26.523438 50.828125 "/>
<path style=" stroke:none;fill-rule:nonzero;fill:rgb(0%,47.058824%,83.137255%);fill-opacity:1;" d="M 41.417969 30.253906 C 36.8125 33.578125 30.402344 32.652344 26.921875 28.167969 C 23.445313 23.683594 24.144531 17.246094 28.503906 13.609375 C 33.132813 10.398438 39.464844 11.390625 42.886719 15.863281 C 46.308594 20.335938 45.609375 26.707031 41.300781 30.332031 "/>
<path style=" stroke:none;fill-rule:nonzero;fill:url(#linear1);" d="M 32.667969 21.582031 C 32.667969 23.453125 31.152344 24.964844 29.285156 24.964844 C 27.414063 24.964844 25.898438 23.453125 25.898438 21.582031 C 25.898438 19.714844 27.414063 18.199219 29.285156 18.199219 C 31.152344 18.199219 32.667969 19.714844 32.667969 21.582031 Z M 32.667969 21.582031 "/>
<use xlink:href="#surface5" mask="url(#mask0)"/>
<use xlink:href="#surface8" mask="url(#mask1)"/>
<use xlink:href="#surface11" mask="url(#mask2)"/>
<use xlink:href="#surface14" mask="url(#mask3)"/>
<path style=" stroke:none;fill-rule:nonzero;fill:rgb(94.901961%,94.901961%,94.901961%);fill-opacity:1;" d="M 43.710938 22.320313 C 43.710938 23.609375 42.667969 24.65625 41.378906 24.65625 C 40.089844 24.65625 39.042969 23.609375 39.042969 22.320313 C 39.042969 21.035156 40.089844 19.988281 41.378906 19.988281 C 42.667969 19.988281 43.710938 21.035156 43.710938 22.320313 Z M 43.710938 22.320313 "/>
<use xlink:href="#surface17" mask="url(#mask4)"/>
<use xlink:href="#surface20" mask="url(#mask5)"/>
<path style=" stroke:none;fill-rule:nonzero;fill:rgb(94.901961%,94.901961%,94.901961%);fill-opacity:1;" d="M 32.667969 21.582031 C 32.667969 23.453125 31.152344 24.964844 29.285156 24.964844 C 27.414063 24.964844 25.898438 23.453125 25.898438 21.582031 C 25.898438 19.714844 27.414063 18.199219 29.285156 18.199219 C 31.152344 18.199219 32.667969 19.714844 32.667969 21.582031 Z M 32.667969 21.582031 "/>
<path style=" stroke:none;fill-rule:nonzero;fill:rgb(94.901961%,94.901961%,94.901961%);fill-opacity:1;" d="M 38.578125 27.726563 C 38.578125 28.929688 37.601563 29.90625 36.398438 29.90625 C 35.195313 29.90625 34.222656 28.929688 34.222656 27.726563 C 34.222656 26.523438 35.195313 25.550781 36.398438 25.550781 C 37.601563 25.550781 38.578125 26.523438 38.578125 27.726563 Z M 38.578125 27.726563 "/>
</g>
</svg>
