<?xml version="1.0" encoding="UTF-8"?>
<svg xmlns="http://www.w3.org/2000/svg" xmlns:xlink="http://www.w3.org/1999/xlink" width="70pt" height="70pt" viewBox="0 0 70 70" version="1.1">
<defs>
<filter id="alpha" filterUnits="objectBoundingBox" x="0%" y="0%" width="100%" height="100%">
  <feColorMatrix type="matrix" in="SourceGraphic" values="0 0 0 0 1 0 0 0 0 1 0 0 0 0 1 0 0 0 1 0"/>
</filter>
<mask id="mask0">
  <g filter="url(#alpha)">
<rect x="0" y="0" width="70" height="70" style="fill:rgb(0%,0%,0%);fill-opacity:0.14902;stroke:none;"/>
  </g>
</mask>
<clipPath id="clip1">
  <rect x="0" y="0" width="70" height="70"/>
</clipPath>
<g id="surface5" clip-path="url(#clip1)">
<path style=" stroke:none;fill-rule:nonzero;fill:rgb(100%,100%,100%);fill-opacity:1;" d="M 39.566406 1.894531 C 38.347656 0.671875 36.726563 0 35 0 C 33.277344 0 31.65625 0.671875 30.4375 1.894531 L 1.894531 30.4375 C 0.6875 31.636719 0 33.300781 0 35 C 0 36.699219 0.6875 38.363281 1.894531 39.566406 L 18.054688 55.726563 L 48.453125 10.777344 Z M 39.566406 1.894531 "/>
</g>
</defs>
<g id="surface1">
<path style=" stroke:none;fill-rule:nonzero;fill:rgb(49.803922%,72.941176%,0%);fill-opacity:1;" d="M 35 70 C 33.277344 70 31.652344 69.328125 30.4375 68.109375 L 1.890625 39.566406 C 0.6875 38.363281 0 36.699219 0 35 C 0 33.300781 0.6875 31.636719 1.890625 30.4375 L 30.4375 1.894531 C 31.65625 0.671875 33.277344 0 35 0 C 36.726563 0 38.347656 0.671875 39.566406 1.894531 L 68.105469 30.4375 C 69.328125 31.652344 70 33.273438 70 35 C 70 36.726563 69.328125 38.347656 68.105469 39.566406 L 39.566406 68.109375 C 38.347656 69.328125 36.726563 70 35 70 "/>
<path style=" stroke:none;fill-rule:nonzero;fill:rgb(100%,100%,100%);fill-opacity:1;" d="M 63.859375 34.527344 L 54.601563 25.269531 L 54.601563 31.804688 L 44.777344 31.796875 C 43.828125 28.410156 41.175781 25.734375 37.800781 24.765625 L 37.800781 15.402344 L 44.257813 15.402344 L 35 6.144531 L 25.742188 15.402344 L 32.199219 15.402344 L 32.199219 24.765625 C 28.832031 25.734375 26.179688 28.402344 25.226563 31.777344 L 15.398438 31.769531 L 15.398438 25.304688 L 6.140625 34.5625 L 15.398438 43.820313 L 15.398438 37.285156 L 25.230469 37.292969 C 26.1875 40.660156 28.835938 43.320313 32.199219 44.285156 L 32.199219 50.777344 C 30.800781 51.796875 28.660156 53.9375 28.660156 56.433594 C 28.660156 59.90625 31.507813 62.734375 34.980469 62.734375 C 38.453125 62.734375 41.292969 59.90625 41.292969 56.433594 C 41.292969 53.964844 39.199219 51.847656 37.800781 50.8125 L 37.800781 44.285156 C 41.160156 43.320313 43.804688 40.671875 44.765625 37.308594 L 54.601563 37.320313 L 54.601563 43.785156 Z M 63.859375 34.527344 "/>
<path style=" stroke:none;fill-rule:nonzero;fill:rgb(34.901961%,70.588235%,85.098039%);fill-opacity:1;" d="M 35 27.164063 C 30.941406 27.164063 27.640625 30.46875 27.640625 34.527344 C 27.640625 38.585938 30.941406 41.886719 35 41.886719 C 39.058594 41.886719 42.359375 38.585938 42.359375 34.527344 C 42.359375 30.464844 39.058594 27.164063 35 27.164063 Z M 35 27.164063 "/>
<use xlink:href="#surface5" mask="url(#mask0)"/>
</g>
</svg>
