<?xml version="1.0" encoding="utf-8"?><svg version="1.1" xmlns="http://www.w3.org/2000/svg" xmlns:xlink="http://www.w3.org/1999/xlink" xmlns:xml="http://www.w3.org/XML/1998/namespace" width="70" height="70" viewBox="0, 0, 18, 18" id="e0050721-e8d8-4c79-ae50-d8fc2871d932"><defs><linearGradient x1="9.01" y1="16.5" x2="9.01" y2="1.5" gradientUnits="userSpaceOnUse" id="fcad3287-b71c-44fa-971a-6a18bcf384a0"><stop offset="0%" stop-color="#5E9641" /><stop offset="34%" stop-color="#6BAA42" /><stop offset="67%" stop-color="#73B743" /><stop offset="100%" stop-color="#76BB43" /></linearGradient></defs><title>Icon-networking-80</title><path d="M15.89 2.91 h1.27 a0.34 0.34 0 0 1 0.34 0.34 v3.5 a0.34 0.34 0 0 1 -0.34 0.34 H15.89 a0 0 0 0 1 0 0 V2.91 A0 0 0 0 1 15.89 2.91 Z" style="fill:#FFCA00;" /><path d="M15.89 9 h1.27 a0.34 0.34 0 0 1 0.34 0.34 v5.86 a0.34 0.34 0 0 1 -0.34 0.34 H15.89 a0 0 0 0 1 0 0 V9 A0 0 0 0 1 15.89 9 Z" style="fill:#FFCA00;" /><rect x="2.13" y="1.5" width="13.76" height="15" rx="0.69" style="fill:url(#fcad3287-b71c-44fa-971a-6a18bcf384a0);" /><path d="M5.9 12.9 H5.19 A0.2 0.2 0 0 1 5 12.69 V4.34 a0.19 0.19 0 0 1 0.19 -0.2 H7.12 a0.19 0.19 0 0 1 0.19 0.2 a0.2 0.2 0 0 1 -0.19 0.21 H5.38 v7.93 H5.9 a0.2 0.2 0 0 1 0.19 0.21 A0.21 0.21 0 0 1 5.9 12.9 Z" style="fill:#B4EC36;" /><path d="M6 13.92 H4.4 a0.2 0.2 0 0 1 -0.19 -0.21 L4.08 3.38 a0.2 0.2 0 0 1 0.06 -0.15 a0.16 0.16 0 0 1 0.13 -0.06 H7.12 v0.41 H4.47 l0.12 9.92 H6 Z" style="fill:#B4EC36;" /><path d="M12 13 H10.41 a0.19 0.19 0 0 1 -0.14 -0.07 a0.18 0.18 0 0 1 -0.06 -0.14 V7.9 a0.19 0.19 0 0 1 0.19 -0.2 l0.91 0 l0 -2.25 h0.38 l0 2.44 a0.2 0.2 0 0 1 -0.18 0.21 l-0.91 0 v4.42 H12 Z" style="fill:#B4EC36;" /><rect x="7.07" y="2.29" width="6.14" height="3.11" rx="0.26" style="fill:#365615;" /><rect x="5.86" y="12.69" width="4.9" height="1.09" rx="0.26" transform="translate(21.54, 4.93) rotate(90, 0, 0)" style="fill:#365615;" /><rect x="3.99" y="12.71" width="4.9" height="1.09" rx="0.26" transform="translate(19.7, 6.82) rotate(90, 0, 0)" style="fill:#365615;" /><rect x="9.98" y="12.71" width="4.9" height="1.09" rx="0.26" transform="translate(25.68, 0.83) rotate(90, 0, 0)" style="fill:#F2F2F2;" /><ellipse cx="8.11" cy="8.06" rx="1.04" ry="1.12" style="fill:#F2F2F2;" /><path d="M0.5 5.7 H1.77 A0.34 0.34 0 0 1 2.11 6 v5.86 a0.34 0.34 0 0 1 -0.34 0.34 H0.5 a0 0 0 0 1 0 0 V5.7 A0 0 0 0 1 0.5 5.7 Z" transform="translate(2.61, 17.95) rotate(180, 0, 0)" style="fill:#3B3B3B;" /></svg>