<?xml version="1.0" encoding="UTF-8"?>
<svg xmlns="http://www.w3.org/2000/svg" xmlns:xlink="http://www.w3.org/1999/xlink" width="70pt" height="70pt" viewBox="0 0 70 70" version="1.1">
<defs>
<linearGradient id="linear0" gradientUnits="userSpaceOnUse" x1="9.19" y1="17.5" x2="9.19" y2="0.5" gradientTransform="matrix(3.888889,0,0,3.888889,0,0)">
<stop offset="0" style="stop-color:rgb(0,108,188);stop-opacity:1;"/>
<stop offset="0.82" style="stop-color:rgb(41,164,255);stop-opacity:1;"/>
</linearGradient>
</defs>
<g id="surface1">
<path style=" stroke:none;fill-rule:nonzero;fill:rgb(0,108,188);fill-opacity:1;" d="M 51.917969 11.199219 C 51.894531 6.238281 55.898438 2.199219 60.859375 2.179688 C 64.472656 2.707031 67.121094 5.839844 67.042969 9.488281 C 67.058594 11.15625 66.496094 12.777344 65.449219 14.078125 C 64.925781 14.71875 64.140625 15.089844 63.3125 15.089844 L 51.644531 15.089844 Z M 51.917969 11.199219 "/>
<path style=" stroke:none;fill-rule:nonzero;fill:url(#linear0);" d="M 52.734375 1.984375 L 17.734375 1.984375 C 12.84375 2.027344 8.90625 6 8.90625 10.890625 L 8.90625 68.015625 L 43.90625 68.015625 C 48.824219 68.015625 52.8125 64.03125 52.8125 59.109375 L 52.8125 20.570313 C 52.585938 16.6875 52.585938 12.792969 52.8125 8.90625 C 54.210938 1.167969 62.570313 2.527344 62.570313 2.527344 C 59.324219 1.972656 56.023438 1.789063 52.734375 1.984375 Z M 52.734375 1.984375 "/>
<path style=" stroke:none;fill-rule:nonzero;fill:rgb(229,243,255);fill-opacity:1;" d="M 31.109375 45.265625 L 31.109375 26.988281 C 31.757813 26.625 32.160156 25.941406 32.160156 25.199219 C 32.160156 24.039063 31.222656 23.101563 30.0625 23.101563 C 29.136719 23.136719 28.347656 23.773438 28.113281 24.667969 C 27.882813 25.5625 28.261719 26.507813 29.050781 26.988281 L 29.050781 45.265625 C 28.402344 45.648438 28.003906 46.34375 28 47.09375 C 27.890625 47.90625 28.257813 48.707031 28.949219 49.148438 C 29.640625 49.589844 30.523438 49.589844 31.210938 49.148438 C 31.902344 48.707031 32.273438 47.90625 32.160156 47.09375 C 32.15625 46.34375 31.757813 45.648438 31.109375 45.265625 Z M 31.109375 45.265625 "/>
<path style=" stroke:none;fill-rule:nonzero;fill:rgb(41,164,255);fill-opacity:1;" d="M 44.527344 67.785156 C 41.738281 67.355469 39.460938 65.328125 38.710938 62.605469 C 37.964844 59.882813 38.886719 56.976563 41.066406 55.183594 C 41.367188 54.945313 41.484375 54.539063 41.351563 54.175781 C 41.21875 53.8125 40.867188 53.578125 40.484375 53.589844 L 8.945313 53.589844 C 5.523438 54.210938 3.039063 57.191406 3.039063 60.667969 C 3.039063 64.140625 5.523438 67.121094 8.945313 67.746094 C 9.320313 67.785156 9.699219 67.785156 10.070313 67.746094 Z M 44.527344 67.785156 "/>
<path style=" stroke:none;fill-rule:nonzero;fill:rgb(229,243,255);fill-opacity:1;" d="M 38.851563 25.238281 C 38.851563 26.421875 37.890625 27.378906 36.710938 27.378906 C 35.53125 27.378906 34.570313 26.421875 34.570313 25.238281 C 34.570313 24.058594 35.53125 23.101563 36.710938 23.101563 C 37.890625 23.101563 38.851563 24.058594 38.851563 25.238281 Z M 38.851563 25.238281 "/>
<path style=" stroke:none;fill-rule:nonzero;fill:rgb(229,243,255);fill-opacity:1;" d="M 32.042969 25.238281 C 32.042969 26.421875 31.085938 27.378906 29.90625 27.378906 C 28.722656 27.378906 27.765625 26.421875 27.765625 25.238281 C 27.765625 24.058594 28.722656 23.101563 29.90625 23.101563 C 31.085938 23.101563 32.042969 24.058594 32.042969 25.238281 Z M 32.042969 25.238281 "/>
<path style=" stroke:none;fill-rule:nonzero;fill:rgb(229,243,255);fill-opacity:1;" d="M 25.277344 25.238281 C 25.277344 26.421875 24.320313 27.378906 23.140625 27.378906 C 21.957031 27.378906 21 26.421875 21 25.238281 C 21 24.058594 21.957031 23.101563 23.140625 23.101563 C 24.320313 23.101563 25.277344 24.058594 25.277344 25.238281 Z M 25.277344 25.238281 "/>
<path style=" stroke:none;fill-rule:nonzero;fill:rgb(103,190,255);fill-opacity:1;" d="M 23.332031 35 L 24.578125 33.753906 C 24.777344 33.535156 24.777344 33.199219 24.578125 32.976563 L 14.894531 23.332031 L 13.648438 24.578125 C 13.441406 24.78125 13.324219 25.0625 13.324219 25.355469 C 13.324219 25.648438 13.441406 25.929688 13.648438 26.132813 L 22.671875 35 C 22.871094 35.136719 23.132813 35.136719 23.332031 35 Z M 23.332031 35 "/>
<path style=" stroke:none;fill-rule:nonzero;fill:rgb(229,243,255);fill-opacity:1;" d="M 24.5 16.722656 L 23.332031 15.554688 C 23.113281 15.359375 22.777344 15.359375 22.554688 15.554688 L 13.648438 24.382813 C 13.441406 24.589844 13.324219 24.867188 13.324219 25.160156 C 13.324219 25.453125 13.441406 25.734375 13.648438 25.9375 L 14.855469 27.222656 L 24.5 17.5 C 24.617188 17.402344 24.683594 17.261719 24.683594 17.109375 C 24.683594 16.960938 24.617188 16.816406 24.5 16.722656 Z M 24.5 16.722656 "/>
<path style=" stroke:none;fill-rule:nonzero;fill:rgb(103,190,255);fill-opacity:1;" d="M 36.246094 35 L 35 33.714844 C 34.882813 33.621094 34.816406 33.476563 34.816406 33.328125 C 34.816406 33.175781 34.882813 33.035156 35 32.9375 L 44.839844 23.332031 L 46.042969 24.578125 C 46.253906 24.78125 46.371094 25.0625 46.371094 25.355469 C 46.371094 25.648438 46.253906 25.929688 46.042969 26.132813 L 37.023438 35 C 36.800781 35.199219 36.464844 35.199219 36.246094 35 Z M 36.246094 35 "/>
<path style=" stroke:none;fill-rule:nonzero;fill:rgb(229,243,255);fill-opacity:1;" d="M 35.195313 16.722656 L 36.4375 15.554688 C 36.660156 15.359375 36.996094 15.359375 37.214844 15.554688 L 46.042969 24.421875 C 46.253906 24.628906 46.371094 24.90625 46.371094 25.199219 C 46.371094 25.492188 46.253906 25.773438 46.042969 25.976563 L 44.839844 27.222656 L 35.195313 17.5 C 34.996094 17.277344 34.996094 16.945313 35.195313 16.722656 Z M 35.195313 16.722656 "/>
</g>
</svg>
