<?xml version="1.0" encoding="utf-8"?><svg version="1.1" xmlns="http://www.w3.org/2000/svg" xmlns:xlink="http://www.w3.org/1999/xlink" xmlns:xml="http://www.w3.org/XML/1998/namespace" width="70" height="70" viewBox="0, 0, 18, 18" id="e1e71e29-065a-46f7-ad4b-52af36a0bfcb"><defs><linearGradient x1="9" y1="19.85" x2="9" y2="-1.02" gradientUnits="userSpaceOnUse" id="ef84663a-a7b6-46a7-a275-1e419f5eae62"><stop offset="0%" stop-color="#008AF0" /><stop offset="2%" stop-color="#008BF2" /><stop offset="100%" stop-color="#2FA6FF" /></linearGradient></defs><title>Icon-networking-62</title><path d="M0.18 8.57 L8.57 0.18 a0.6 0.6 0 0 1 0.86 0 l8.39 8.39 a0.6 0.6 0 0 1 0 0.86 l-8.4 8.4 a0.6 0.6 0 0 1 -0.84 0 L0.18 9.43 A0.6 0.6 0 0 1 0.18 8.57 Z" style="fill:url(#ef84663a-a7b6-46a7-a275-1e419f5eae62);" /><path d="M11.2 4 L9.08 1.89 a0.12 0.12 0 0 0 -0.16 0 L6.8 4 a0.1 0.1 0 0 0 0.08 0.18 H8.12 a0.11 0.11 0 0 1 0.11 0.11 v2 a0.11 0.11 0 0 0 0.11 0.11 H9.66 a0.11 0.11 0 0 0 0.11 -0.11 v-2 a0.11 0.11 0 0 1 0.11 -0.11 h1.24 A0.1 0.1 0 0 0 11.2 4 Z" style="fill:#8FCFFF;" /><path d="M4 6.61 L1.9 8.74 a0.11 0.11 0 0 0 0 0.15 L4 11 a0.11 0.11 0 0 0 0.19 -0.08 V9.69 a0.11 0.11 0 0 1 0.11 -0.11 h2 a0.1 0.1 0 0 0 0.1 -0.11 V8.15 A0.1 0.1 0 0 0 6.33 8 h-2 a0.1 0.1 0 0 1 -0.11 -0.1 V6.69 A0.11 0.11 0 0 0 4 6.61 Z" style="fill:#8FCFFF;" /><path d="M14.08 11 l2.13 -2.12 a0.11 0.11 0 0 0 0 -0.15 L14.08 6.61 a0.11 0.11 0 0 0 -0.18 0.08 V7.94 a0.1 0.1 0 0 1 -0.11 0.1 h-2 a0.1 0.1 0 0 0 -0.1 0.11 V9.47 a0.1 0.1 0 0 0 0.1 0.11 h2 a0.11 0.11 0 0 1 0.11 0.11 v1.24 A0.11 0.11 0 0 0 14.08 11 Z" style="fill:#8FCFFF;" /><path d="M11.79 9 a2.79 2.79 0 1 0 -3.54 2.67 v0.95 a1.71 1.71 0 1 0 1.57 0 v-1 A2.77 2.77 0 0 0 11.79 9 Z" style="fill:white;" /><circle cx="9.01" cy="8.99" r="1.62" id="e99c3387-15c3-4f28-bd4b-cb209b430e06" style="fill:#29A4FF;" /></svg>