<?xml version="1.0" encoding="UTF-8"?>
<svg xmlns="http://www.w3.org/2000/svg" xmlns:xlink="http://www.w3.org/1999/xlink" width="70pt" height="70pt" viewBox="0 0 70 70" version="1.1">
<defs>
<filter id="alpha" filterUnits="objectBoundingBox" x="0%" y="0%" width="100%" height="100%">
  <feColorMatrix type="matrix" in="SourceGraphic" values="0 0 0 0 1 0 0 0 0 1 0 0 0 0 1 0 0 0 1 0"/>
</filter>
<mask id="mask0">
  <g filter="url(#alpha)">
<rect x="0" y="0" width="70" height="70" style="fill:rgb(0%,0%,0%);fill-opacity:0.2;stroke:none;"/>
  </g>
</mask>
<clipPath id="clip1">
  <rect x="0" y="0" width="70" height="70"/>
</clipPath>
<g id="surface5" clip-path="url(#clip1)">
<path style=" stroke:none;fill-rule:nonzero;fill:rgb(100%,100%,100%);fill-opacity:1;" d="M 30.917969 46.230469 C 18.152344 54.765625 0.882813 51.339844 -7.65625 38.574219 C -16.191406 25.808594 -12.765625 8.539063 0 0 C -1.261719 -0.265625 -2.558594 -0.421875 -3.898438 -0.421875 C -12.328125 -0.421875 -19.476563 5.085938 -22.011719 12.726563 C -24.5 8.914063 -24.78125 4.070313 -22.75 0 C 7.242188 43.648438 1.398438 49.546875 1.398438 56.820313 C 1.398438 64.101563 7.242188 70 14.457031 70 L 14.476563 69.996094 L 14.476563 70 L 19.96875 70 C 0.636719 56.183594 -3.832031 29.316406 9.984375 9.984375 C 23.800781 -9.34375 50.667969 -13.816406 70 0 C 70 -7.921875 76.269531 -14.363281 84.117188 -14.671875 Z M 30.917969 46.230469 "/>
</g>
</defs>
<g id="surface1">
<path style=" stroke:none;fill-rule:nonzero;fill:rgb(22.352941%,60%,77.647059%);fill-opacity:1;" d="M 67.117188 20.535156 C 67.769531 19.882813 67.636719 18.84375 67.117188 18.191406 L 63.992188 15.0625 L 49.925781 1.390625 C 49.273438 0.738281 48.363281 0.738281 47.710938 1.390625 C 47.058594 2.039063 46.929688 3.082031 47.710938 3.734375 L 62.425781 18.191406 C 57.402344 34.398438 40.191406 43.464844 23.984375 38.441406 C 7.777344 33.417969 -1.289063 16.207031 3.734375 0 L 47.449219 35.515625 C 37.644531 47.585938 19.90625 49.421875 7.835938 39.613281 C -4.238281 29.808594 -6.074219 12.070313 3.734375 0 C 4.386719 0.652344 5.425781 0.519531 5.949219 0 L 19.886719 -13.808594 L 23.402344 -17.324219 Z M 2.773438 20.535156 C 2.121094 19.882813 2.253906 18.84375 2.773438 18.191406 L 5.898438 15.0625 L 19.96875 1.386719 C 20.617188 0.738281 21.527344 0.738281 22.179688 1.386719 C 22.832031 2.039063 22.960938 3.078125 22.179688 3.730469 L 7.722656 18.191406 C 2.699219 19.292969 -2.265625 16.113281 -3.367188 11.089844 C -4.46875 6.066406 -1.292969 1.101563 3.730469 0 L 22.441406 35.515625 C 12.636719 40.679688 0.496094 36.917969 -4.667969 27.113281 C -9.835938 17.304688 -6.074219 5.167969 3.730469 0 C 3.082031 0.652344 2.039063 0.519531 1.519531 0 L 6.03125 24.183594 L 5.898438 24.050781 Z M 2.773438 20.535156 "/>
<path style=" stroke:none;fill-rule:nonzero;fill:rgb(34.117647%,63.921569%,0%);fill-opacity:1;" d="M 25.898438 19.601563 C 25.898438 22.421875 23.59375 24.5 21.144531 24.5 C 18.695313 24.5 16.101563 22.125 16.101563 19.601563 C 16.101563 17.074219 18.117188 14.699219 21.144531 14.699219 C 24.027344 14.699219 25.898438 17.074219 25.898438 19.601563 Z M 25.898438 19.601563 "/>
<path style=" stroke:none;fill-rule:nonzero;fill:rgb(34.117647%,63.921569%,0%);fill-opacity:1;" d="M 53.898438 19.601563 C 53.898438 22.304688 51.707031 24.5 49 24.5 C 46.292969 24.5 44.101563 22.304688 44.101563 19.601563 C 44.101563 16.894531 46.292969 14.699219 49 14.699219 C 51.707031 14.699219 53.898438 16.894531 53.898438 19.601563 Z M 53.898438 19.601563 "/>
<path style=" stroke:none;fill-rule:nonzero;fill:rgb(34.901961%,70.588235%,85.098039%);fill-opacity:1;" d="M 57.398438 50.398438 C 56.90625 50.398438 56.421875 50.449219 55.945313 50.519531 L 55.945313 50.507813 C 55.945313 39.867188 47.390625 31.238281 36.839844 31.238281 C 28.410156 31.238281 21.261719 36.746094 18.726563 44.386719 C 6.46875 44.589844 -3.632813 34.816406 -3.835938 22.5625 C -4.039063 10.304688 5.730469 0.203125 17.988281 0 C 7.242188 43.648438 1.398438 49.546875 1.398438 56.820313 C 1.398438 64.101563 7.242188 70 14.460938 70 L 14.476563 69.996094 L 14.476563 70 L 56.722656 70 L 56.722656 69.996094 L 56.769531 70 C 56.875 70 56.980469 69.988281 57.082031 69.984375 C 57.191406 69.988281 57.292969 70 57.398438 70 C 38.070313 66.519531 25.21875 48.03125 28.699219 28.699219 C 32.179688 9.371094 50.671875 -3.480469 70 0 Z M 57.398438 50.398438 "/>
<path style=" stroke:none;fill-rule:nonzero;fill:rgb(100%,100%,100%);fill-opacity:1;" d="M 32.199219 22.398438 L 37.800781 22.398438 L 37.800781 54.601563 L 32.199219 54.601563 Z M 32.199219 22.398438 "/>
<use xlink:href="#surface5" mask="url(#mask0)"/>
<path style=" stroke:none;fill-rule:nonzero;fill:rgb(34.117647%,63.921569%,0%);fill-opacity:1;" d="M 39.898438 19.601563 C 39.898438 22.421875 37.59375 24.5 35.144531 24.5 C 32.695313 24.5 30.101563 22.125 30.101563 19.601563 C 30.101563 17.074219 32.40625 14.699219 35.144531 14.699219 C 37.882813 14.699219 39.898438 17.074219 39.898438 19.601563 Z M 39.898438 19.601563 "/>
<path style=" stroke:none;fill-rule:nonzero;fill:rgb(100%,100%,100%);fill-opacity:1;" d="M 37.800781 48.1875 L 37.800781 31.289063 C 37.480469 31.273438 37.164063 31.238281 36.84375 31.238281 C 35.242188 31.238281 33.6875 31.441406 32.199219 31.816406 L 32.199219 48.300781 C 30.476563 49.328125 29.261719 51.171875 29.261719 53.199219 C 29.261719 56.148438 32.109375 58.941406 35.121094 58.941406 C 38.21875 58.941406 40.742188 56.367188 40.742188 53.199219 C 26.050781 49.757813 16.929688 35.0625 20.371094 20.371094 C 23.8125 5.679688 38.507813 -3.441406 53.199219 0 Z M 37.800781 48.1875 "/>
<path style=" stroke:none;fill-rule:nonzero;fill:rgb(34.117647%,63.921569%,0%);fill-opacity:1;" d="M 39.058594 53.199219 C 39.058594 55.539063 37.148438 57.261719 35.117188 57.261719 C 33.089844 57.261719 30.941406 55.292969 30.941406 53.199219 C 30.941406 51.109375 32.851563 49.140625 35.117188 49.140625 C 37.386719 49.140625 39.058594 51.109375 39.058594 53.199219 Z M 39.058594 53.199219 "/>
<path style=" stroke:none;fill-rule:nonzero;fill:rgb(34.117647%,63.921569%,0%);fill-opacity:1;" d="M 36.398438 23.800781 L 36.398438 53.199219 L 33.601563 53.199219 L 33.601563 23.800781 Z M 36.398438 23.800781 "/>
</g>
</svg>
