<?xml version="1.0" encoding="UTF-8"?>
<svg xmlns="http://www.w3.org/2000/svg" xmlns:xlink="http://www.w3.org/1999/xlink" width="70pt" height="70pt" viewBox="0 0 70 70" version="1.1">
<defs>
<linearGradient id="linear0" gradientUnits="userSpaceOnUse" x1="7.699" y1="259.22" x2="7.699" y2="263.711" gradientTransform="matrix(3.888889,0,0,3.888889,0,-972.222222)">
<stop offset="0.23" style="stop-color:rgb(36.862745%,62.745098%,93.72549%);stop-opacity:1;"/>
<stop offset="0.32" style="stop-color:rgb(35.686275%,62.352941%,93.333333%);stop-opacity:1;"/>
<stop offset="0.48" style="stop-color:rgb(31.372549%,60.392157%,92.156863%);stop-opacity:1;"/>
<stop offset="0.57" style="stop-color:rgb(24.705882%,57.254902%,90.196078%);stop-opacity:1;"/>
<stop offset="0.75" style="stop-color:rgb(14.901961%,53.333333%,87.45098%);stop-opacity:1;"/>
<stop offset="0.93" style="stop-color:rgb(7.058824%,49.803922%,85.098039%);stop-opacity:1;"/>
</linearGradient>
<linearGradient id="linear1" gradientUnits="userSpaceOnUse" x1="9.927" y1="261.091" x2="9.927" y2="265.582" gradientTransform="matrix(3.888889,0,0,3.888889,0,-972.222222)">
<stop offset="0.02" style="stop-color:rgb(36.862745%,62.745098%,93.72549%);stop-opacity:1;"/>
<stop offset="0.14" style="stop-color:rgb(35.686275%,62.352941%,93.333333%);stop-opacity:1;"/>
<stop offset="0.23" style="stop-color:rgb(35.686275%,62.352941%,93.333333%);stop-opacity:1;"/>
<stop offset="0.34" style="stop-color:rgb(31.372549%,60.392157%,92.156863%);stop-opacity:1;"/>
<stop offset="0.44" style="stop-color:rgb(24.705882%,57.254902%,90.196078%);stop-opacity:1;"/>
<stop offset="0.63" style="stop-color:rgb(14.901961%,53.333333%,87.45098%);stop-opacity:1;"/>
<stop offset="0.93" style="stop-color:rgb(7.058824%,49.803922%,85.098039%);stop-opacity:1;"/>
</linearGradient>
</defs>
<g id="surface1">
<path style=" stroke:none;fill-rule:nonzero;fill:rgb(47.843137%,47.843137%,47.843137%);fill-opacity:1;" d="M 32.089844 9.804688 L 36.453125 9.804688 L 36.453125 37.308594 L 32.089844 37.308594 Z M 32.089844 9.804688 "/>
<path style=" stroke:none;fill-rule:nonzero;fill:rgb(7.843137%,56.470588%,87.45098%);fill-opacity:1;" d="M 40.675781 8.945313 C 40.667969 12.480469 37.796875 15.34375 34.261719 15.335938 C 30.722656 15.332031 27.859375 12.460938 27.863281 8.925781 C 27.867188 5.390625 30.738281 2.527344 34.273438 2.527344 C 35.972656 2.527344 37.605469 3.203125 38.804688 4.40625 C 40.003906 5.613281 40.679688 7.242188 40.675781 8.945313 Z M 40.675781 8.945313 "/>
<path style=" stroke:none;fill-rule:nonzero;fill:url(#linear0);" d="M 33.398438 35.855469 L 26.398438 35.855469 C 21.871094 35.902344 18.132813 39.398438 17.78125 43.910156 C 17.429688 48.421875 20.582031 52.457031 25.042969 53.203125 C 24.882813 52.125 24.914063 51.027344 25.128906 49.957031 C 22.390625 49.328125 20.5625 46.738281 20.886719 43.945313 C 21.210938 41.152344 23.585938 39.050781 26.398438 39.066406 L 33.398438 39.066406 C 36.453125 39.066406 38.929688 41.542969 38.929688 44.597656 C 38.929688 47.652344 36.453125 50.128906 33.398438 50.128906 L 31.476563 50.128906 C 31.222656 50.675781 31.089844 51.273438 31.085938 51.878906 C 31.089844 52.375 31.179688 52.867188 31.363281 53.332031 L 33.414063 53.332031 C 36.578125 53.398438 39.53125 51.75 41.132813 49.019531 C 42.734375 46.289063 42.734375 42.910156 41.132813 40.179688 C 39.53125 37.449219 36.578125 35.800781 33.414063 35.867188 Z M 33.398438 35.855469 "/>
<path style=" stroke:none;fill-rule:nonzero;fill:url(#linear1);" d="M 43.484375 43.25 C 43.546875 43.691406 43.582031 44.136719 43.585938 44.585938 C 43.589844 45.226563 43.527344 45.867188 43.394531 46.496094 C 46.136719 47.125 47.964844 49.714844 47.640625 52.507813 C 47.316406 55.296875 44.941406 57.398438 42.132813 57.382813 L 35.132813 57.382813 C 32.132813 57.304688 29.746094 54.851563 29.746094 51.851563 C 29.746094 48.851563 32.132813 46.398438 35.132813 46.320313 L 37.054688 46.320313 C 37.3125 45.773438 37.445313 45.179688 37.441406 44.574219 C 37.441406 44.078125 37.347656 43.582031 37.167969 43.121094 L 35.144531 43.121094 C 30.394531 43.21875 26.59375 47.101563 26.59375 51.851563 C 26.59375 56.605469 30.394531 60.484375 35.144531 60.585938 L 42.144531 60.585938 C 46.667969 60.539063 50.410156 57.042969 50.761719 52.53125 C 51.113281 48.019531 47.960938 43.984375 43.496094 43.238281 Z M 43.484375 43.25 "/>
<path style=" stroke:none;fill-rule:nonzero;fill:rgb(31.372549%,90.196078%,100%);fill-opacity:1;" d="M 21.699219 64.265625 L 20.097656 65.878906 C 19.894531 66.085938 19.613281 66.203125 19.320313 66.203125 C 19.027344 66.203125 18.746094 66.085938 18.542969 65.878906 L 0.625 47.988281 C -0.230469 47.128906 -0.230469 45.738281 0.625 44.878906 L 2.242188 43.277344 L 21.6875 62.6875 C 21.890625 62.890625 22.003906 63.164063 22.003906 63.449219 C 22.003906 63.734375 21.890625 64.007813 21.6875 64.210938 Z M 21.699219 64.265625 "/>
<path style=" stroke:none;fill-rule:nonzero;fill:rgb(7.843137%,56.470588%,87.45098%);fill-opacity:1;" d="M 19.761719 27.300781 L 21.550781 29.089844 C 21.757813 29.292969 21.875 29.574219 21.875 29.867188 C 21.875 30.160156 21.757813 30.4375 21.550781 30.644531 L 2.429688 49.8125 L 0.636719 48.035156 C -0.21875 47.175781 -0.21875 45.785156 0.636719 44.925781 L 18.21875 27.300781 C 18.421875 27.09375 18.703125 26.980469 18.992188 26.980469 C 19.28125 26.980469 19.558594 27.09375 19.761719 27.300781 Z M 19.761719 27.300781 "/>
<path style=" stroke:none;fill-rule:nonzero;fill:rgb(31.372549%,90.196078%,100%);fill-opacity:1;" d="M 48.289063 65.53125 C 47.863281 65.117188 47.851563 64.433594 48.265625 64.007813 L 48.289063 64.007813 L 67.734375 44.605469 L 69.351563 46.222656 C 70.210938 47.082031 70.210938 48.476563 69.351563 49.335938 L 51.417969 67.175781 C 51.003906 67.601563 50.324219 67.613281 49.898438 67.199219 L 49.875 67.179688 Z M 48.289063 65.53125 "/>
<path style=" stroke:none;fill-rule:nonzero;fill:rgb(7.843137%,56.470588%,87.45098%);fill-opacity:1;" d="M 51.765625 28.578125 L 69.363281 46.21875 C 70.210938 47.074219 70.210938 48.449219 69.363281 49.304688 L 67.570313 51.09375 L 48.433594 31.914063 C 48.015625 31.476563 48.015625 30.792969 48.433594 30.355469 L 50.222656 28.582031 C 50.648438 28.160156 51.335938 28.15625 51.765625 28.578125 Z M 51.765625 28.578125 "/>
</g>
</svg>
