<?xml version="1.0" encoding="UTF-8"?>
<svg xmlns="http://www.w3.org/2000/svg" xmlns:xlink="http://www.w3.org/1999/xlink" width="70pt" height="70pt" viewBox="0 0 70 70" version="1.1">
<defs>
<linearGradient id="linear0" gradientUnits="userSpaceOnUse" x1="7.699" y1="956.076" x2="7.699" y2="960.567" gradientTransform="matrix(3.888889,0,0,3.888889,0,-3694.444444)">
<stop offset="0.23" style="stop-color:rgb(36.862745%,62.745098%,93.72549%);stop-opacity:1;"/>
<stop offset="0.93" style="stop-color:rgb(7.058824%,49.803922%,85.098039%);stop-opacity:1;"/>
</linearGradient>
<linearGradient id="linear1" gradientUnits="userSpaceOnUse" x1="9.927" y1="957.947" x2="9.927" y2="962.438" gradientTransform="matrix(3.888889,0,0,3.888889,0,-3694.444444)">
<stop offset="0.02" style="stop-color:rgb(36.862745%,62.745098%,93.72549%);stop-opacity:1;"/>
<stop offset="0.93" style="stop-color:rgb(7.058824%,49.803922%,85.098039%);stop-opacity:1;"/>
</linearGradient>
</defs>
<g id="surface1">
<path style=" stroke:none;fill-rule:nonzero;fill:url(#linear0);" d="M 33.398438 23.628906 L 26.398438 23.628906 C 21.871094 23.675781 18.132813 27.171875 17.78125 31.683594 C 17.429688 36.195313 20.582031 40.230469 25.042969 40.976563 C 24.886719 39.894531 24.921875 38.792969 25.144531 37.722656 C 22.40625 37.09375 20.578125 34.503906 20.902344 31.710938 C 21.226563 28.917969 23.601563 26.816406 26.414063 26.832031 L 33.414063 26.832031 C 36.46875 26.832031 38.941406 29.308594 38.941406 32.363281 C 38.941406 35.417969 36.46875 37.894531 33.414063 37.894531 L 31.476563 37.894531 C 31.222656 38.441406 31.089844 39.035156 31.085938 39.640625 C 31.085938 40.136719 31.179688 40.628906 31.363281 41.09375 L 33.414063 41.09375 C 36.578125 41.160156 39.53125 39.511719 41.132813 36.78125 C 42.734375 34.050781 42.734375 30.671875 41.132813 27.941406 C 39.53125 25.210938 36.578125 23.5625 33.414063 23.628906 Z M 33.398438 23.628906 "/>
<path style=" stroke:none;fill-rule:nonzero;fill:url(#linear1);" d="M 43.484375 31.023438 C 43.546875 31.464844 43.582031 31.914063 43.585938 32.363281 C 43.589844 33.003906 43.527344 33.640625 43.394531 34.269531 C 46.136719 34.898438 47.964844 37.488281 47.640625 40.277344 C 47.316406 43.070313 44.941406 45.171875 42.132813 45.15625 L 35.132813 45.15625 C 32.078125 45.15625 29.601563 42.683594 29.601563 39.628906 C 29.601563 36.574219 32.078125 34.097656 35.132813 34.097656 L 37.054688 34.097656 C 37.3125 33.550781 37.445313 32.957031 37.441406 32.351563 C 37.441406 31.851563 37.347656 31.359375 37.167969 30.894531 L 35.144531 30.894531 C 30.394531 30.992188 26.59375 34.875 26.59375 39.625 C 26.59375 44.378906 30.394531 48.257813 35.144531 48.359375 L 42.144531 48.359375 C 46.667969 48.3125 50.410156 44.816406 50.761719 40.304688 C 51.113281 35.792969 47.960938 31.757813 43.496094 31.011719 Z M 43.484375 31.023438 "/>
<path style=" stroke:none;fill-rule:nonzero;fill:rgb(31.372549%,90.196078%,100%);fill-opacity:1;" d="M 21.699219 52.039063 L 20.097656 53.65625 C 19.890625 53.863281 19.613281 53.980469 19.320313 53.980469 C 19.027344 53.980469 18.75 53.863281 18.542969 53.65625 L 0.636719 35.777344 C -0.21875 34.917969 -0.21875 33.527344 0.636719 32.667969 L 2.253906 31.078125 L 21.699219 50.496094 C 21.902344 50.699219 22.015625 50.972656 22.015625 51.257813 C 22.015625 51.542969 21.902344 51.816406 21.699219 52.019531 Z M 21.699219 52.039063 "/>
<path style=" stroke:none;fill-rule:nonzero;fill:rgb(7.843137%,56.470588%,87.45098%);fill-opacity:1;" d="M 19.761719 15.074219 L 21.550781 16.863281 C 21.757813 17.066406 21.875 17.347656 21.875 17.640625 C 21.875 17.933594 21.757813 18.210938 21.550781 18.417969 L 2.429688 37.585938 L 0.636719 35.8125 C -0.21875 34.953125 -0.21875 33.5625 0.636719 32.703125 L 18.21875 15.074219 C 18.648438 14.648438 19.335938 14.648438 19.761719 15.074219 Z M 19.761719 15.074219 "/>
<path style=" stroke:none;fill-rule:nonzero;fill:rgb(31.372549%,90.196078%,100%);fill-opacity:1;" d="M 48.289063 53.304688 C 48.082031 53.105469 47.964844 52.835938 47.960938 52.550781 C 47.957031 52.265625 48.066406 51.988281 48.265625 51.785156 L 48.289063 51.785156 L 67.734375 32.386719 L 69.351563 34 C 70.210938 34.859375 70.210938 36.253906 69.351563 37.113281 L 51.417969 54.953125 C 51.21875 55.160156 50.949219 55.277344 50.664063 55.28125 C 50.378906 55.285156 50.101563 55.175781 49.898438 54.976563 L 49.875 54.957031 Z M 48.289063 53.304688 "/>
<path style=" stroke:none;fill-rule:nonzero;fill:rgb(7.843137%,56.470588%,87.45098%);fill-opacity:1;" d="M 51.765625 16.351563 L 69.363281 33.992188 C 70.210938 34.847656 70.210938 36.222656 69.363281 37.078125 L 67.570313 38.867188 L 48.433594 19.6875 C 48.011719 19.253906 48.011719 18.5625 48.433594 18.128906 L 50.222656 16.351563 C 50.648438 15.929688 51.335938 15.929688 51.765625 16.351563 Z M 51.765625 16.351563 "/>
</g>
</svg>
