<?xml version="1.0" encoding="UTF-8"?>
<svg xmlns="http://www.w3.org/2000/svg" xmlns:xlink="http://www.w3.org/1999/xlink" width="70pt" height="70pt" viewBox="0 0 70 70" version="1.1">
<defs>
<filter id="alpha" filterUnits="objectBoundingBox" x="0%" y="0%" width="100%" height="100%">
  <feColorMatrix type="matrix" in="SourceGraphic" values="0 0 0 0 1 0 0 0 0 1 0 0 0 0 1 0 0 0 1 0"/>
</filter>
<mask id="mask0">
  <g filter="url(#alpha)">
<rect x="0" y="0" width="70" height="70" style="fill:rgb(0%,0%,0%);fill-opacity:0.2;stroke:none;"/>
  </g>
</mask>
<clipPath id="clip1">
  <rect x="0" y="0" width="70" height="70"/>
</clipPath>
<g id="surface5" clip-path="url(#clip1)">
<path style=" stroke:none;fill-rule:nonzero;fill:rgb(100%,100%,100%);fill-opacity:1;" d="M 41.347656 23.160156 L 53 8.34375 C 37.578125 6.644531 35 0 35 0 C 35 0 31.527344 8.738281 9.34375 8.738281 L 9.34375 44.59375 C 9.34375 48.929688 11.75 52.988281 15.085938 56.539063 L 23.703125 45.589844 Z M 41.347656 23.160156 "/>
</g>
<mask id="mask1">
  <g filter="url(#alpha)">
<rect x="0" y="0" width="70" height="70" style="fill:rgb(0%,0%,0%);fill-opacity:0.94902;stroke:none;"/>
  </g>
</mask>
<clipPath id="clip2">
  <rect x="0" y="0" width="70" height="70"/>
</clipPath>
<g id="surface8" clip-path="url(#clip2)">
<path style=" stroke:none;fill-rule:nonzero;fill:rgb(100%,100%,100%);fill-opacity:1;" d="M 51 18.199219 L 18.777344 18.199219 C 17.683594 18.199219 16.800781 19.179688 16.800781 20.273438 L 16.800781 42.742188 C 16.800781 43.828125 17.683594 44.796875 18.777344 44.796875 L 30.78125 44.796875 L 30.773438 44.800781 C 31.886719 48.972656 30.402344 49.59375 23.917969 49.601563 L 23.800781 49.601563 L 23.800781 51.800781 L 46.199219 51.800781 L 46.199219 49.601563 L 46.082031 49.601563 C 39.597656 49.59375 38.113281 48.972656 39.226563 44.800781 L 39.21875 44.796875 L 51 44.796875 C 52.09375 44.796875 53.199219 43.828125 53.199219 42.742188 L 53.199219 20.273438 C 53.199219 19.175781 52.09375 18.199219 51 18.199219 Z M 50.359375 41.996094 L 19.558594 41.996094 L 19.558594 21 L 50.359375 21 Z M 50.359375 41.996094 "/>
</g>
<mask id="mask2">
  <g filter="url(#alpha)">
<rect x="0" y="0" width="70" height="70" style="fill:rgb(0%,0%,0%);fill-opacity:0.94902;stroke:none;"/>
  </g>
</mask>
<clipPath id="clip3">
  <rect x="0" y="0" width="70" height="70"/>
</clipPath>
<g id="surface11" clip-path="url(#clip3)">
<path style=" stroke:none;fill-rule:nonzero;fill:rgb(100%,100%,100%);fill-opacity:1;" d="M 35.019531 30.863281 C 34.984375 30.863281 34.953125 30.851563 34.921875 30.835938 L 28.511719 27.136719 C 28.453125 27.097656 28.417969 27.035156 28.414063 26.96875 C 28.414063 26.898438 28.453125 26.832031 28.511719 26.796875 L 34.882813 23.125 C 34.941406 23.089844 35.015625 23.089844 35.074219 23.125 L 41.484375 26.824219 C 41.546875 26.859375 41.582031 26.921875 41.582031 26.992188 C 41.582031 27.0625 41.546875 27.125 41.484375 27.160156 L 35.117188 30.835938 C 35.085938 30.851563 35.054688 30.863281 35.019531 30.863281 "/>
</g>
<mask id="mask3">
  <g filter="url(#alpha)">
<rect x="0" y="0" width="70" height="70" style="fill:rgb(0%,0%,0%);fill-opacity:0.8;stroke:none;"/>
  </g>
</mask>
<clipPath id="clip4">
  <rect x="0" y="0" width="70" height="70"/>
</clipPath>
<g id="surface14" clip-path="url(#clip4)">
<path style=" stroke:none;fill-rule:nonzero;fill:rgb(100%,100%,100%);fill-opacity:1;" d="M 34.101563 39.855469 C 34.066406 39.855469 34.03125 39.847656 34 39.828125 L 27.613281 36.140625 C 27.550781 36.109375 27.511719 36.042969 27.511719 35.972656 L 27.511719 28.574219 C 27.511719 28.503906 27.550781 28.441406 27.613281 28.40625 C 27.671875 28.371094 27.746094 28.371094 27.808594 28.40625 L 34.195313 32.089844 C 34.253906 32.128906 34.289063 32.191406 34.292969 32.261719 L 34.292969 39.660156 C 34.292969 39.730469 34.253906 39.792969 34.195313 39.828125 C 34.167969 39.84375 34.132813 39.855469 34.101563 39.855469 "/>
</g>
<mask id="mask4">
  <g filter="url(#alpha)">
<rect x="0" y="0" width="70" height="70" style="fill:rgb(0%,0%,0%);fill-opacity:0.6;stroke:none;"/>
  </g>
</mask>
<clipPath id="clip5">
  <rect x="0" y="0" width="70" height="70"/>
</clipPath>
<g id="surface17" clip-path="url(#clip5)">
<path style=" stroke:none;fill-rule:nonzero;fill:rgb(100%,100%,100%);fill-opacity:1;" d="M 35.910156 39.855469 C 35.875 39.855469 35.839844 39.847656 35.808594 39.828125 C 35.75 39.792969 35.714844 39.730469 35.714844 39.660156 L 35.714844 32.304688 C 35.714844 32.238281 35.75 32.171875 35.808594 32.136719 L 42.199219 28.453125 C 42.257813 28.417969 42.332031 28.417969 42.390625 28.453125 C 42.449219 28.484375 42.488281 28.550781 42.488281 28.621094 L 42.488281 35.972656 C 42.488281 36.042969 42.449219 36.105469 42.390625 36.140625 L 36.003906 39.828125 C 35.972656 39.847656 35.941406 39.855469 35.910156 39.855469 "/>
</g>
</defs>
<g id="surface1">
<path style=" stroke:none;fill-rule:nonzero;fill:rgb(0%,44.705882%,77.647059%);fill-opacity:1;" d="M 53 8.34375 C 37.578125 6.644531 35 0 35 0 C 35 0 31.527344 8.738281 9.34375 8.738281 L 9.34375 44.59375 C 9.34375 48.929688 11.75 52.988281 15.085938 56.539063 C 22.652344 64.585938 35 70 35 70 C 35 70 60.65625 58.761719 60.65625 44.59375 L 60.65625 8.738281 C 57.804688 8.738281 55.265625 8.59375 53 8.34375 Z M 53 8.34375 "/>
<use xlink:href="#surface5" mask="url(#mask0)"/>
<path style=" stroke:none;fill-rule:nonzero;fill:rgb(34.901961%,70.588235%,85.098039%);fill-opacity:1;" d="M 19.558594 41.996094 L 19.601563 41.996094 L 19.601563 21 L 47.757813 20.960938 L 47.761719 20.960938 L 19.558594 21 Z M 19.558594 41.996094 "/>
<use xlink:href="#surface8" mask="url(#mask1)"/>
<use xlink:href="#surface11" mask="url(#mask2)"/>
<use xlink:href="#surface14" mask="url(#mask3)"/>
<use xlink:href="#surface17" mask="url(#mask4)"/>
</g>
</svg>
