<?xml version="1.0" encoding="UTF-8"?>
<svg xmlns="http://www.w3.org/2000/svg" xmlns:xlink="http://www.w3.org/1999/xlink" width="70pt" height="42pt" viewBox="0 0 70 42" version="1.1">
<g id="surface1">
<path style=" stroke:none;fill-rule:nonzero;fill:rgb(0%,47.058824%,84.313725%);fill-opacity:1;" d="M 62.039063 26.824219 C 60.804688 26.824219 59.707031 27.097656 58.746094 27.503906 L 42 10.972656 C 42.410156 10.027344 42.6875 8.941406 42.6875 7.722656 C 42.6875 3.386719 39.117188 0 34.863281 0 C 30.609375 0 27.039063 3.523438 27.039063 7.722656 C 27.039063 8.941406 27.3125 10.027344 27.726563 10.972656 L 11.117188 27.640625 C 10.15625 27.230469 9.058594 26.960938 7.824219 26.960938 C 3.429688 26.960938 0 30.484375 0 34.683594 C 0 38.882813 3.570313 42.40625 7.824219 42.40625 C 11.253906 42.40625 14 40.238281 15.097656 37.394531 L 54.628906 37.394531 C 55.726563 40.238281 58.609375 42.40625 61.902344 42.40625 C 66.292969 42.40625 69.726563 38.882813 69.726563 34.683594 C 69.726563 30.484375 66.292969 26.824219 62.039063 26.824219 Z M 7.6875 37.121094 C 6.3125 37.121094 5.078125 36.039063 5.078125 34.546875 C 5.078125 33.195313 6.175781 31.972656 7.6875 31.972656 C 9.058594 31.972656 10.292969 33.058594 10.292969 34.546875 C 10.292969 36.039063 9.195313 37.121094 7.6875 37.121094 Z M 34.863281 5.285156 C 36.234375 5.285156 37.46875 6.367188 37.46875 7.859375 C 37.46875 9.214844 36.371094 10.433594 34.863281 10.433594 C 33.488281 10.433594 32.253906 9.347656 32.253906 7.859375 C 32.390625 6.367188 33.488281 5.285156 34.863281 5.285156 Z M 54.628906 31.972656 L 15.097656 31.972656 C 14.960938 31.703125 14.960938 31.566406 14.824219 31.433594 L 31.570313 14.769531 C 32.53125 15.175781 33.628906 15.445313 34.863281 15.445313 C 36.097656 15.445313 37.195313 15.175781 38.15625 14.769531 L 54.902344 31.296875 C 54.765625 31.433594 54.628906 31.703125 54.628906 31.972656 Z M 62.039063 36.988281 C 60.667969 36.988281 59.429688 35.902344 59.429688 34.414063 C 59.429688 33.058594 60.53125 31.839844 62.039063 31.839844 C 63.410156 31.839844 64.648438 32.921875 64.648438 34.414063 C 64.511719 35.902344 63.410156 36.988281 62.039063 36.988281 Z M 62.039063 36.988281 "/>
</g>
</svg>
