<?xml version="1.0" encoding="UTF-8"?>
<svg xmlns="http://www.w3.org/2000/svg" xmlns:xlink="http://www.w3.org/1999/xlink" width="70pt" height="70pt" viewBox="0 0 70 70" version="1.1">
<defs>
<linearGradient id="linear0" gradientUnits="userSpaceOnUse" x1="9.01" y1="0.75" x2="9.01" y2="17.25" gradientTransform="matrix(3.888889,0,0,3.888889,0,0)">
<stop offset="0" style="stop-color:rgb(36.862745%,62.745098%,93.72549%);stop-opacity:1;"/>
<stop offset="0.18" style="stop-color:rgb(33.333333%,61.176471%,92.54902%);stop-opacity:1;"/>
<stop offset="0.47" style="stop-color:rgb(23.529412%,56.862745%,89.803922%);stop-opacity:1;"/>
<stop offset="0.84" style="stop-color:rgb(7.45098%,50.196078%,85.490196%);stop-opacity:1;"/>
<stop offset="1" style="stop-color:rgb(0%,47.058824%,83.137255%);stop-opacity:1;"/>
</linearGradient>
</defs>
<g id="surface1">
<path style=" stroke:none;fill-rule:nonzero;fill:rgb(0%,47.058824%,83.137255%);fill-opacity:1;" d="M 63.621094 32.667969 C 63.621094 51.488281 40.871094 66.65625 35.933594 69.726563 C 35.359375 70.078125 34.640625 70.078125 34.066406 69.726563 C 29.128906 66.65625 6.378906 51.488281 6.378906 32.667969 L 6.378906 10.035156 C 6.378906 9.058594 7.15625 8.265625 8.128906 8.246094 C 25.820313 7.777344 21.738281 0 35 0 C 48.261719 0 44.179688 7.777344 61.871094 8.246094 C 62.84375 8.265625 63.621094 9.058594 63.621094 10.035156 Z M 63.621094 32.667969 "/>
<path style=" stroke:none;fill-rule:nonzero;fill:rgb(41.960784%,72.54902%,94.901961%);fill-opacity:1;" d="M 61.25 32.859375 C 61.25 50.128906 40.40625 63.972656 35.855469 66.851563 C 35.328125 67.164063 34.671875 67.164063 34.144531 66.851563 C 29.59375 64.050781 8.75 50.128906 8.75 32.859375 L 8.75 12.09375 C 8.75 11.207031 9.457031 10.480469 10.34375 10.460938 C 26.5625 10.035156 22.828125 2.917969 35 2.917969 C 47.171875 2.917969 43.4375 10.035156 59.65625 10.460938 C 60.542969 10.480469 61.25 11.207031 61.25 12.09375 Z M 61.25 32.859375 "/>
<path style=" stroke:none;fill-rule:nonzero;fill:url(#linear0);" d="M 35 35 L 35 2.917969 C 47.171875 2.917969 43.4375 10.035156 59.65625 10.460938 C 60.546875 10.503906 61.25 11.238281 61.25 12.132813 L 61.25 32.898438 C 61.289063 33.597656 61.289063 34.300781 61.25 35 Z M 35 35 L 8.867188 35 C 10.421875 51.253906 29.789063 64.167969 34.144531 66.851563 C 34.355469 66.984375 34.59375 67.0625 34.84375 67.082031 L 35 67.082031 Z M 35 35 "/>
<path style=" stroke:none;fill-rule:nonzero;fill:rgb(31.372549%,90.196078%,100%);fill-opacity:1;" d="M 10.34375 10.460938 C 26.5625 10.035156 22.828125 2.917969 35 2.917969 L 35 35 L 8.867188 35 C 8.828125 34.300781 8.828125 33.597656 8.867188 32.898438 L 8.867188 12.132813 C 8.859375 11.28125 9.496094 10.558594 10.34375 10.460938 Z M 10.34375 10.460938 "/>
<path style=" stroke:none;fill-rule:nonzero;fill:rgb(31.372549%,90.196078%,100%);fill-opacity:1;" d="M 61.132813 35 L 35 35 L 35 67.082031 C 35.25 67.0625 35.488281 66.984375 35.699219 66.851563 C 40.210938 64.167969 59.578125 51.253906 61.132813 35 Z M 61.132813 35 "/>
</g>
</svg>
