<?xml version="1.0" encoding="UTF-8"?>
<svg xmlns="http://www.w3.org/2000/svg" xmlns:xlink="http://www.w3.org/1999/xlink" width="70pt" height="40pt" viewBox="0 0 70 40" version="1.1">
<g id="surface1">
<path style=" stroke:none;fill-rule:nonzero;fill:rgb(22.352941%,60%,77.647059%);fill-opacity:1;" d="M 69.632813 20.792969 C 70.332031 20.101563 70.195313 19 69.632813 18.308594 L 66.273438 15 L 51.152344 0.515625 C 50.453125 -0.171875 49.472656 -0.171875 48.773438 0.515625 C 48.074219 1.207031 47.933594 2.308594 48.773438 3 L 64.59375 18.308594 C 65.292969 19 65.292969 20.101563 64.59375 20.792969 L 48.492188 36.65625 C 47.792969 37.34375 47.792969 38.449219 48.492188 39.136719 C 49.195313 39.828125 50.3125 39.691406 50.875 39.136719 L 65.855469 24.515625 C 65.855469 24.515625 65.855469 24.515625 65.992188 24.378906 Z M 69.632813 20.792969 "/>
<path style=" stroke:none;fill-rule:nonzero;fill:rgb(22.352941%,60%,77.647059%);fill-opacity:1;" d="M 0.472656 20.792969 C -0.226563 20.101563 -0.0859375 19 0.472656 18.308594 L 3.832031 15 L 18.953125 0.515625 C 19.652344 -0.171875 20.632813 -0.171875 21.332031 0.515625 C 22.035156 1.207031 22.175781 2.308594 21.332031 3 L 5.792969 18.308594 C 5.09375 19 5.09375 20.101563 5.792969 20.792969 L 21.613281 36.65625 C 22.3125 37.34375 22.3125 38.449219 21.613281 39.136719 C 20.914063 39.828125 19.792969 39.691406 19.234375 39.136719 L 3.972656 24.65625 C 3.972656 24.65625 3.972656 24.65625 3.832031 24.515625 Z M 0.472656 20.792969 "/>
<path style=" stroke:none;fill-rule:nonzero;fill:rgb(49.803922%,72.941176%,0%);fill-opacity:1;" d="M 25.535156 19.550781 C 25.535156 22.171875 23.292969 24.101563 20.914063 24.101563 C 18.535156 24.101563 16.015625 21.898438 16.015625 19.550781 C 16.015625 17.207031 17.972656 15 20.914063 15 C 23.714844 15 25.535156 17.207031 25.535156 19.550781 Z M 25.535156 19.550781 "/>
<path style=" stroke:none;fill-rule:nonzero;fill:rgb(49.803922%,72.941176%,0%);fill-opacity:1;" d="M 39.675781 19.550781 C 39.675781 22.171875 37.433594 24.101563 35.054688 24.101563 C 32.675781 24.101563 30.152344 21.898438 30.152344 19.550781 C 30.152344 17.207031 32.394531 15 35.054688 15 C 37.714844 15 39.675781 17.207031 39.675781 19.550781 Z M 39.675781 19.550781 "/>
<path style=" stroke:none;fill-rule:nonzero;fill:rgb(49.803922%,72.941176%,0%);fill-opacity:1;" d="M 53.953125 19.550781 C 53.953125 22.066406 51.886719 24.101563 49.332031 24.101563 C 46.78125 24.101563 44.714844 22.066406 44.714844 19.550781 C 44.714844 17.039063 46.78125 15 49.332031 15 C 51.886719 15 53.953125 17.039063 53.953125 19.550781 Z M 53.953125 19.550781 "/>
</g>
</svg>
