<?xml version="1.0" encoding="UTF-8"?>
<svg xmlns="http://www.w3.org/2000/svg" xmlns:xlink="http://www.w3.org/1999/xlink" width="51pt" height="70pt" viewBox="0 0 51 70" version="1.1">
<defs>
<filter id="alpha" filterUnits="objectBoundingBox" x="0%" y="0%" width="100%" height="100%">
  <feColorMatrix type="matrix" in="SourceGraphic" values="0 0 0 0 1 0 0 0 0 1 0 0 0 0 1 0 0 0 1 0"/>
</filter>
<mask id="mask0">
  <g filter="url(#alpha)">
<rect x="0" y="0" width="51" height="70" style="fill:rgb(0,0,0);fill-opacity:0.4;stroke:none;"/>
  </g>
</mask>
<clipPath id="clip1">
  <rect x="0" y="0" width="51" height="70"/>
</clipPath>
<g id="surface5" clip-path="url(#clip1)">
<path style=" stroke:none;fill-rule:nonzero;fill:rgb(115,195,255);fill-opacity:1;" d="M 31.8125 23.199219 L 43.402344 8.378906 C 28.0625 6.667969 25.5 0.03125 25.5 0.03125 C 25.5 0.03125 22.050781 8.773438 0 8.773438 L 0 44.640625 C 0 48.972656 2.394531 53.039063 5.710938 56.589844 L 14.265625 45.636719 Z M 31.8125 23.199219 "/>
</g>
<mask id="mask1">
  <g filter="url(#alpha)">
<rect x="0" y="0" width="51" height="70" style="fill:rgb(0,0,0);fill-opacity:0.101961;stroke:none;"/>
  </g>
</mask>
<clipPath id="clip2">
  <rect x="0" y="0" width="51" height="70"/>
</clipPath>
<g id="surface8" clip-path="url(#clip2)">
<path style=" stroke:none;fill-rule:nonzero;fill:rgb(255,255,255);fill-opacity:1;" d="M 14.273438 45.636719 L 31.792969 23.199219 L 36.03125 17.769531 C 35.882813 16.863281 35.101563 16.199219 34.1875 16.207031 L 16.003906 16.207031 C 15.507813 16.203125 15.027344 16.398438 14.675781 16.753906 C 14.324219 17.109375 14.125 17.589844 14.132813 18.09375 L 14.132813 45.824219 Z M 14.273438 45.636719 "/>
</g>
</defs>
<g id="surface1">
<path style=" stroke:none;fill-rule:nonzero;fill:rgb(39,163,255);fill-opacity:1;" d="M 43.382813 8.378906 C 28.0625 6.667969 25.5 0.03125 25.5 0.03125 C 25.5 0.03125 22.050781 8.773438 0 8.773438 L 0 44.640625 C 0 48.972656 2.394531 53.039063 5.710938 56.589844 C 13.226563 64.636719 25.5 70.054688 25.5 70.054688 C 25.5 70.054688 51 58.8125 51 44.640625 L 51 8.773438 C 48.457031 8.785156 45.914063 8.652344 43.382813 8.378906 Z M 43.382813 8.378906 "/>
<use xlink:href="#surface5" mask="url(#mask0)"/>
<path style=" stroke:none;fill-rule:nonzero;fill:rgb(0,71,124);fill-opacity:1;" d="M 36.082031 52.019531 C 36.085938 52.523438 35.890625 53.003906 35.535156 53.359375 C 35.183594 53.714844 34.703125 53.910156 34.207031 53.90625 L 15.992188 53.90625 C 15.492188 53.910156 15.015625 53.714844 14.660156 53.359375 C 14.308594 53.003906 14.113281 52.523438 14.117188 52.019531 L 14.117188 18.09375 C 14.113281 17.589844 14.308594 17.109375 14.660156 16.753906 C 15.015625 16.398438 15.492188 16.203125 15.992188 16.207031 L 34.207031 16.207031 C 34.703125 16.203125 35.183594 16.398438 35.535156 16.753906 C 35.890625 17.109375 36.085938 17.589844 36.082031 18.09375 Z M 36.082031 52.019531 "/>
<path style=" stroke:none;fill-rule:nonzero;fill:rgb(0,33,58);fill-opacity:1;" d="M 17.273438 36.5625 C 17.265625 35.921875 17.515625 35.304688 17.964844 34.851563 C 18.417969 34.398438 19.03125 34.144531 19.667969 34.152344 L 30.597656 34.152344 C 31.234375 34.144531 31.847656 34.398438 32.296875 34.851563 C 32.75 35.304688 33 35.921875 32.992188 36.5625 C 33 37.203125 32.75 37.824219 32.296875 38.277344 C 31.847656 38.730469 31.234375 38.980469 30.597656 38.972656 L 19.667969 38.972656 C 18.347656 38.964844 17.277344 37.890625 17.265625 36.5625 Z M 17.273438 36.5625 "/>
<path style=" stroke:none;fill-rule:nonzero;fill:rgb(115,195,255);fill-opacity:1;" d="M 21.398438 36.5625 C 21.398438 37.441406 20.695313 38.148438 19.824219 38.148438 C 18.953125 38.148438 18.246094 37.441406 18.246094 36.5625 C 18.246094 35.6875 18.953125 34.976563 19.824219 34.976563 C 20.695313 34.976563 21.398438 35.6875 21.398438 36.5625 Z M 21.398438 36.5625 "/>
<path style=" stroke:none;fill-rule:nonzero;fill:rgb(0,33,58);fill-opacity:1;" d="M 17.273438 29.398438 C 17.269531 28.757813 17.519531 28.144531 17.972656 27.691406 C 18.421875 27.242188 19.03125 26.992188 19.667969 27 L 30.597656 27 C 31.234375 26.992188 31.847656 27.242188 32.296875 27.695313 C 32.75 28.152344 33 28.769531 32.992188 29.410156 C 33 30.050781 32.75 30.667969 32.296875 31.125 C 31.847656 31.578125 31.234375 31.828125 30.597656 31.820313 L 19.667969 31.820313 C 18.34375 31.816406 17.273438 30.742188 17.265625 29.410156 Z M 17.273438 29.398438 "/>
<path style=" stroke:none;fill-rule:nonzero;fill:rgb(115,195,255);fill-opacity:1;" d="M 21.398438 29.398438 C 21.398438 30.273438 20.695313 30.984375 19.824219 30.984375 C 18.953125 30.984375 18.246094 30.273438 18.246094 29.398438 C 18.246094 28.519531 18.953125 27.808594 19.824219 27.808594 C 20.695313 27.808594 21.398438 28.519531 21.398438 29.398438 Z M 21.398438 29.398438 "/>
<path style=" stroke:none;fill-rule:nonzero;fill:rgb(0,33,58);fill-opacity:1;" d="M 17.273438 22.308594 C 17.265625 21.667969 17.515625 21.050781 17.964844 20.597656 C 18.417969 20.144531 19.03125 19.890625 19.667969 19.898438 L 30.597656 19.898438 C 31.234375 19.890625 31.847656 20.144531 32.296875 20.597656 C 32.75 21.050781 33 21.667969 32.992188 22.308594 C 33 22.953125 32.75 23.570313 32.296875 24.023438 C 31.847656 24.476563 31.234375 24.726563 30.597656 24.71875 L 19.667969 24.71875 C 18.355469 24.691406 17.300781 23.628906 17.265625 22.308594 Z M 17.273438 22.308594 "/>
<path style=" stroke:none;fill-rule:nonzero;fill:rgb(115,195,255);fill-opacity:1;" d="M 21.398438 22.308594 C 21.398438 23.1875 20.695313 23.898438 19.824219 23.898438 C 18.953125 23.898438 18.246094 23.1875 18.246094 22.308594 C 18.246094 21.433594 18.953125 20.722656 19.824219 20.722656 C 20.695313 20.722656 21.398438 21.433594 21.398438 22.308594 Z M 21.398438 22.308594 "/>
<use xlink:href="#surface8" mask="url(#mask1)"/>
</g>
</svg>
