<?xml version="1.0" encoding="UTF-8"?>
<svg xmlns="http://www.w3.org/2000/svg" xmlns:xlink="http://www.w3.org/1999/xlink" width="70pt" height="70pt" viewBox="0 0 70 70" version="1.1">
<defs>
<filter id="alpha" filterUnits="objectBoundingBox" x="0%" y="0%" width="100%" height="100%">
  <feColorMatrix type="matrix" in="SourceGraphic" values="0 0 0 0 1 0 0 0 0 1 0 0 0 0 1 0 0 0 1 0"/>
</filter>
<mask id="mask0">
  <g filter="url(#alpha)">
<rect x="0" y="0" width="70" height="70" style="fill:rgb(0%,0%,0%);fill-opacity:0.2;stroke:none;"/>
  </g>
</mask>
<clipPath id="clip1">
  <rect x="0" y="0" width="70" height="70"/>
</clipPath>
<g id="surface5" clip-path="url(#clip1)">
<path style=" stroke:none;fill-rule:nonzero;fill:rgb(100%,100%,100%);fill-opacity:1;" d="M 9.800781 39.199219 C 9.800781 33.460938 12.738281 28.980469 18.199219 26.179688 L 18.199219 25.058594 C 18.199219 17.078125 24.78125 10.640625 32.761719 10.640625 C 35.558594 10.640625 38.21875 11.339844 40.460938 12.738281 C 43.960938 7.839844 49.839844 4.761719 56.140625 4.761719 C 52.78125 1.820313 48.441406 0 43.539063 0 C 37.660156 0 32.199219 2.800781 28.839844 7.421875 C 26.738281 6.019531 24.21875 5.320313 21.558594 5.320313 C 14 5.320313 7.839844 11.480469 7.839844 18.898438 L 7.839844 20.019531 C 2.800781 22.679688 0 27.019531 0 32.339844 C 0 39.480469 4.898438 45.359375 11.761719 46.898438 C 10.5 44.660156 9.800781 42 9.800781 39.199219 Z M 9.800781 39.199219 "/>
</g>
</defs>
<g id="surface1">
<path style=" stroke:none;fill-rule:nonzero;fill:rgb(34.901961%,70.588235%,85.098039%);fill-opacity:1;" d="M 61.601563 19.878906 C 61.601563 19.320313 61.738281 18.621094 61.738281 18.058594 C 61.738281 8.121094 53.621094 0.140625 43.539063 0.140625 C 37.660156 0 32.199219 2.800781 28.839844 7.421875 C 26.738281 6.019531 24.21875 5.320313 21.558594 5.320313 C 14 5.320313 7.839844 11.480469 7.839844 18.898438 L 7.839844 20.019531 C 2.800781 22.679688 0 27.019531 0 32.339844 C 0 40.738281 6.859375 47.320313 15.679688 47.320313 L 54.320313 47.320313 C 63.140625 47.320313 70 40.738281 70 32.339844 C 70 26.738281 66.921875 22.261719 61.601563 19.878906 Z M 61.601563 19.878906 "/>
<use xlink:href="#surface5" mask="url(#mask0)"/>
<path style=" stroke:none;fill-rule:nonzero;fill:rgb(50.196078%,28.627451%,59.607843%);fill-opacity:1;" d="M 37.703125 61.941406 L 47.367188 52.773438 L 47.367188 57.75 L 35.707031 70 L 24.035156 57.792969 L 24.035156 52.832031 L 33.644531 61.941406 L 33.644531 45.703125 L 37.703125 45.703125 Z M 37.703125 61.941406 "/>
<path style=" stroke:none;fill-rule:nonzero;fill:rgb(100%,100%,100%);fill-opacity:1;" d="M 33.695313 31.363281 L 24.035156 40.53125 L 24.035156 35.554688 L 35.695313 23.304688 L 47.367188 35.511719 L 47.367188 40.472656 L 37.753906 31.363281 L 37.753906 47.601563 L 33.695313 47.601563 Z M 33.695313 31.363281 "/>
</g>
</svg>
