<?xml version="1.0" encoding="utf-8"?><svg version="1.1" xmlns="http://www.w3.org/2000/svg" xmlns:xlink="http://www.w3.org/1999/xlink" xmlns:xml="http://www.w3.org/XML/1998/namespace" width="70" height="70" viewBox="0, 0, 18, 18"><defs><linearGradient x1="2.624" y1="15.969" x2="2.624" y2="11.167" gradientUnits="userSpaceOnUse" id="e4fe130c-1194-40d1-b5a4-e2bb47010cb4"><stop offset="0%" stop-color="#76BC2D" /><stop offset="60.1%" stop-color="#81CE31" /><stop offset="82.2%" stop-color="#86D633" /></linearGradient><linearGradient x1="9.026" y1="18" x2="9.026" y2="13.198" gradientUnits="userSpaceOnUse" id="ac1aac1d-90a5-47ab-b231-bd8d57cff665"><stop offset="0%" stop-color="#76BC2D" /><stop offset="60.1%" stop-color="#81CE31" /><stop offset="82.2%" stop-color="#86D633" /></linearGradient><linearGradient x1="15.376" y1="16.001" x2="15.376" y2="11.199" gradientUnits="userSpaceOnUse" id="fb43c81d-62cd-430c-b971-97ce3b11776c"><stop offset="0%" stop-color="#76BC2D" /><stop offset="60.1%" stop-color="#81CE31" /><stop offset="82.2%" stop-color="#86D633" /></linearGradient></defs><title>MsPortalFx.base.images-46</title><g id="aac33089-9c97-4591-a4d0-bf17c24367ba"><g><path d="M15.509 7.868 H10.052 a0.293 0.293 0 0 1 -0.293 -0.293 V5.491 H8.293 V7.575 A0.294 0.294 0 0 1 8 7.868 H2.479 a0.587 0.587 0 0 0 -0.587 0.587 v2.7 H3.358 v-1.5 a0.294 0.294 0 0 1 0.294 -0.293 H8.293 v3.918 H9.759 V9.368 h4.577 a0.293 0.293 0 0 1 0.293 0.293 v1.53 H16.1 V8.455 A0.587 0.587 0 0 0 15.509 7.868 Z" style="fill:#50E6FF;" /><rect x="6.029" width="5.881" height="5.881" rx="0.532" style="fill:#0078D4;" /><rect x="7.158" y="1.13" width="3.622" height="3.622" rx="0.328" style="fill:white;" /><rect x="0.223" y="11.167" width="4.802" height="4.802" rx="0.435" style="fill:url(#e4fe130c-1194-40d1-b5a4-e2bb47010cb4);" /><rect x="6.624" y="13.198" width="4.802" height="4.802" rx="0.435" style="fill:url(#ac1aac1d-90a5-47ab-b231-bd8d57cff665);" /><rect x="12.975" y="11.199" width="4.802" height="4.802" rx="0.435" style="fill:url(#fb43c81d-62cd-430c-b971-97ce3b11776c);" /></g></g></svg>