<?xml version="1.0" encoding="UTF-8"?>
<svg xmlns="http://www.w3.org/2000/svg" xmlns:xlink="http://www.w3.org/1999/xlink" width="70pt" height="70pt" viewBox="0 0 70 70" version="1.1">
<defs>
<filter id="alpha" filterUnits="objectBoundingBox" x="0%" y="0%" width="100%" height="100%">
  <feColorMatrix type="matrix" in="SourceGraphic" values="0 0 0 0 1 0 0 0 0 1 0 0 0 0 1 0 0 0 1 0"/>
</filter>
<mask id="mask0">
  <g filter="url(#alpha)">
<rect x="0" y="0" width="70" height="70" style="fill:rgb(0%,0%,0%);fill-opacity:0.501961;stroke:none;"/>
  </g>
</mask>
<clipPath id="clip1">
  <rect x="0" y="0" width="70" height="70"/>
</clipPath>
<g id="surface5" clip-path="url(#clip1)">
<path style=" stroke:none;fill-rule:nonzero;fill:rgb(100%,100%,100%);fill-opacity:1;" d="M 39.515625 70 C 39.378906 70 39.238281 69.964844 39.101563 69.890625 C 38.851563 69.746094 38.699219 69.488281 38.699219 69.1875 L 38.699219 38.46875 C 38.699219 38.179688 38.851563 37.914063 39.101563 37.761719 L 65.976563 22.359375 C 66.234375 22.21875 66.539063 22.21875 66.796875 22.359375 C 67.042969 22.503906 67.199219 22.773438 67.199219 23.0625 L 67.199219 53.78125 C 67.199219 54.078125 67.042969 54.339844 66.796875 54.484375 L 39.914063 69.890625 C 39.800781 69.964844 39.65625 70 39.515625 70 "/>
</g>
</defs>
<g id="surface1">
<path style=" stroke:none;fill-rule:nonzero;fill:rgb(22.352941%,60%,77.647059%);fill-opacity:1;" d="M 35.785156 32.433594 C 35.640625 32.433594 35.507813 32.390625 35.382813 32.316406 L 8.414063 16.863281 C 8.160156 16.71875 8.007813 16.445313 8.007813 16.15625 C 8.007813 15.871094 8.15625 15.601563 8.414063 15.460938 L 35.207031 0.105469 C 35.464844 -0.0351563 35.777344 -0.0351563 36.019531 0.105469 L 62.992188 15.566406 C 63.234375 15.710938 63.398438 15.976563 63.398438 16.261719 C 63.398438 16.558594 63.234375 16.824219 62.992188 16.96875 L 36.195313 32.316406 C 36.066406 32.390625 35.929688 32.433594 35.785156 32.433594 "/>
<path style=" stroke:none;fill-rule:nonzero;fill:rgb(34.901961%,70.588235%,85.098039%);fill-opacity:1;" d="M 31.910156 70 C 31.761719 70 31.617188 69.964844 31.496094 69.890625 L 4.613281 54.484375 C 4.355469 54.339844 4.199219 54.078125 4.199219 53.78125 L 4.199219 22.863281 C 4.199219 22.574219 4.355469 22.308594 4.613281 22.15625 C 4.859375 22.015625 5.175781 22.015625 5.433594 22.15625 L 32.3125 37.5625 C 32.5625 37.714844 32.710938 37.980469 32.710938 38.269531 L 32.710938 69.1875 C 32.710938 69.484375 32.5625 69.746094 32.3125 69.890625 C 32.179688 69.964844 32.042969 70 31.910156 70 "/>
<path style=" stroke:none;fill-rule:nonzero;fill:rgb(34.901961%,70.588235%,85.098039%);fill-opacity:1;" d="M 39.515625 70 C 39.378906 70 39.238281 69.964844 39.101563 69.890625 C 38.851563 69.746094 38.699219 69.488281 38.699219 69.1875 L 38.699219 38.46875 C 38.699219 38.179688 38.851563 37.914063 39.101563 37.761719 L 65.976563 22.359375 C 66.234375 22.21875 66.539063 22.21875 66.796875 22.359375 C 67.042969 22.503906 67.199219 22.773438 67.199219 23.0625 L 67.199219 53.78125 C 67.199219 54.078125 67.042969 54.339844 66.796875 54.484375 L 39.914063 69.890625 C 39.800781 69.964844 39.65625 70 39.515625 70 "/>
<use xlink:href="#surface5" mask="url(#mask0)"/>
</g>
</svg>
