<?xml version="1.0" encoding="UTF-8"?>
<svg xmlns="http://www.w3.org/2000/svg" xmlns:xlink="http://www.w3.org/1999/xlink" width="70pt" height="70pt" viewBox="0 0 70 70" version="1.1">
<g id="surface1">
<path style=" stroke:none;fill-rule:nonzero;fill:rgb(49.803922%,72.941176%,0%);fill-opacity:1;" d="M 49 29.960938 L 48.597656 30.929688 L 36.074219 15.902344 L 35 16.800781 L 33.925781 15.902344 L 21.402344 30.929688 L 21 29.960938 L 12.707031 49.859375 L 15.292969 50.9375 L 21 37.238281 L 26.707031 50.9375 L 29.292969 49.859375 L 22.617188 33.84375 L 35 18.988281 L 47.382813 33.84375 L 40.707031 49.859375 L 43.292969 50.9375 L 49 37.238281 L 54.707031 50.9375 L 57.292969 49.859375 Z M 49 29.960938 "/>
<path style=" stroke:none;fill-rule:nonzero;fill:rgb(22.352941%,60%,77.647059%);fill-opacity:1;" d="M 60.199219 50.398438 C 60.199219 52.71875 58.320313 54.601563 56 54.601563 C 53.679688 54.601563 51.800781 52.71875 51.800781 50.398438 C 51.800781 48.082031 53.679688 46.199219 56 46.199219 C 58.320313 46.199219 60.199219 48.082031 60.199219 50.398438 Z M 60.199219 50.398438 "/>
<path style=" stroke:none;fill-rule:nonzero;fill:rgb(22.352941%,60%,77.647059%);fill-opacity:1;" d="M 46.199219 50.398438 C 46.199219 52.71875 44.320313 54.601563 42 54.601563 C 39.679688 54.601563 37.800781 52.71875 37.800781 50.398438 C 37.800781 48.082031 39.679688 46.199219 42 46.199219 C 44.320313 46.199219 46.199219 48.082031 46.199219 50.398438 Z M 46.199219 50.398438 "/>
<path style=" stroke:none;fill-rule:nonzero;fill:rgb(50.196078%,28.627451%,59.607843%);fill-opacity:1;" d="M 42 16.800781 C 42 20.664063 38.867188 23.800781 35 23.800781 C 31.132813 23.800781 28 20.664063 28 16.800781 C 28 12.933594 31.132813 9.800781 35 9.800781 C 38.867188 9.800781 42 12.933594 42 16.800781 Z M 42 16.800781 "/>
<path style=" stroke:none;fill-rule:nonzero;fill:rgb(0%,44.705882%,77.647059%);fill-opacity:1;" d="M 26.601563 33.601563 C 26.601563 36.691406 24.09375 39.199219 21 39.199219 C 17.90625 39.199219 15.398438 36.691406 15.398438 33.601563 C 15.398438 30.507813 17.90625 28 21 28 C 24.09375 28 26.601563 30.507813 26.601563 33.601563 Z M 26.601563 33.601563 "/>
<path style=" stroke:none;fill-rule:nonzero;fill:rgb(0%,44.705882%,77.647059%);fill-opacity:1;" d="M 54.601563 33.601563 C 54.601563 36.691406 52.09375 39.199219 49 39.199219 C 45.90625 39.199219 43.398438 36.691406 43.398438 33.601563 C 43.398438 30.507813 45.90625 28 49 28 C 52.09375 28 54.601563 30.507813 54.601563 33.601563 Z M 54.601563 33.601563 "/>
<path style=" stroke:none;fill-rule:nonzero;fill:rgb(22.352941%,60%,77.647059%);fill-opacity:1;" d="M 32.199219 50.398438 C 32.199219 52.71875 30.320313 54.601563 28 54.601563 C 25.679688 54.601563 23.800781 52.71875 23.800781 50.398438 C 23.800781 48.082031 25.679688 46.199219 28 46.199219 C 30.320313 46.199219 32.199219 48.082031 32.199219 50.398438 Z M 32.199219 50.398438 "/>
<path style=" stroke:none;fill-rule:nonzero;fill:rgb(22.352941%,60%,77.647059%);fill-opacity:1;" d="M 18.199219 50.398438 C 18.199219 52.71875 16.320313 54.601563 14 54.601563 C 11.679688 54.601563 9.800781 52.71875 9.800781 50.398438 C 9.800781 48.082031 11.679688 46.199219 14 46.199219 C 16.320313 46.199219 18.199219 48.082031 18.199219 50.398438 Z M 18.199219 50.398438 "/>
<path style=" stroke:none;fill-rule:nonzero;fill:rgb(47.843137%,47.843137%,47.843137%);fill-opacity:1;" d="M 13.300781 63.558594 C 12.957031 63.53125 12.625 63.4375 12.320313 63.28125 L 2.800781 57.679688 C 1.121094 56.671875 0.0664063 54.878906 0 52.921875 L 0 17.640625 C 0.03125 15.671875 1.09375 13.863281 2.800781 12.878906 L 12.320313 7.28125 C 13.285156 6.726563 14.515625 7.046875 15.085938 8 C 15.660156 8.953125 15.363281 10.191406 14.421875 10.78125 L 4.898438 16.378906 C 4.507813 16.691406 4.257813 17.144531 4.199219 17.640625 L 4.199219 52.921875 C 4.257813 53.417969 4.507813 53.871094 4.898438 54.179688 L 14.421875 59.78125 C 14.882813 60.058594 15.21875 60.507813 15.351563 61.035156 C 15.480469 61.558594 15.398438 62.117188 15.121094 62.578125 C 14.691406 63.164063 14.023438 63.527344 13.300781 63.558594 Z M 56.699219 7 C 57.042969 7.027344 57.375 7.121094 57.679688 7.28125 L 67.199219 12.878906 C 68.878906 13.890625 69.933594 15.679688 70 17.640625 L 70 52.921875 C 69.96875 54.890625 68.90625 56.695313 67.199219 57.679688 L 57.679688 63.28125 C 56.714844 63.835938 55.484375 63.515625 54.914063 62.558594 C 54.339844 61.605469 54.636719 60.371094 55.578125 59.78125 L 65.101563 54.179688 C 65.492188 53.871094 65.742188 53.417969 65.800781 52.921875 L 65.800781 17.640625 C 65.742188 17.144531 65.492188 16.691406 65.101563 16.378906 L 55.578125 10.78125 C 55.117188 10.503906 54.78125 10.050781 54.648438 9.523438 C 54.519531 9 54.601563 8.445313 54.878906 7.980469 C 55.328125 7.421875 55.984375 7.066406 56.699219 7 Z M 56.699219 7 "/>
</g>
</svg>
