<?xml version="1.0" encoding="UTF-8"?>
<svg xmlns="http://www.w3.org/2000/svg" xmlns:xlink="http://www.w3.org/1999/xlink" width="70pt" height="70pt" viewBox="0 0 70 70" version="1.1">
<defs>
<filter id="alpha" filterUnits="objectBoundingBox" x="0%" y="0%" width="100%" height="100%">
  <feColorMatrix type="matrix" in="SourceGraphic" values="0 0 0 0 1 0 0 0 0 1 0 0 0 0 1 0 0 0 1 0"/>
</filter>
<mask id="mask0">
  <g filter="url(#alpha)">
<rect x="0" y="0" width="70" height="70" style="fill:rgb(0,0,0);fill-opacity:0.2;stroke:none;"/>
  </g>
</mask>
<clipPath id="clip1">
  <rect x="0" y="0" width="70" height="70"/>
</clipPath>
<g id="surface5" clip-path="url(#clip1)">
<path style=" stroke:none;fill-rule:nonzero;fill:rgb(255,255,255);fill-opacity:1;" d="M 11.199219 14.558594 C 11.199219 22.398438 17.359375 28.699219 25.199219 28.839844 L 28.839844 0.699219 C 27.859375 0.421875 26.738281 0.28125 25.621094 0.28125 C 17.640625 0.28125 11.199219 6.71875 11.199219 14.558594 M 15.121094 33.738281 L 0 33.738281 L 0 69.859375 L 20.019531 69.859375 L 23.238281 45.21875 Z M 15.121094 33.738281 "/>
</g>
<mask id="mask1">
  <g filter="url(#alpha)">
<rect x="0" y="0" width="70" height="70" style="fill:rgb(0,0,0);fill-opacity:0.501961;stroke:none;"/>
  </g>
</mask>
<clipPath id="clip2">
  <rect x="0" y="0" width="70" height="70"/>
</clipPath>
<g id="surface8" clip-path="url(#clip2)">
<path style=" stroke:none;fill-rule:nonzero;fill:rgb(255,255,255);fill-opacity:1;" d="M 54.460938 69.859375 L 54.320313 69.859375 C 54.179688 69.859375 54.179688 69.71875 54.179688 69.578125 L 54.179688 55.019531 C 54.179688 54.878906 54.320313 54.738281 54.320313 54.738281 L 66.921875 47.460938 L 67.339844 47.460938 C 67.480469 47.460938 67.480469 47.601563 67.480469 47.738281 L 67.480469 62.300781 C 67.480469 62.441406 67.339844 62.578125 67.339844 62.578125 L 54.738281 69.859375 L 54.460938 69.859375 "/>
</g>
</defs>
<g id="surface1">
<path style=" stroke:none;fill-rule:nonzero;fill:rgb(115,195,255);fill-opacity:1;" d="M 39.761719 14.558594 C 39.761719 22.398438 33.320313 28.839844 25.480469 28.839844 C 17.640625 28.839844 11.199219 22.539063 11.199219 14.558594 C 11.199219 6.71875 17.640625 0.28125 25.480469 0.28125 C 33.460938 0.28125 39.761719 6.71875 39.761719 14.558594 M 35.980469 33.738281 L 25.480469 48.441406 L 15.121094 33.738281 L 0 33.738281 L 0 69.859375 L 51.101563 69.859375 L 51.101563 33.738281 Z M 35.980469 33.738281 "/>
<use xlink:href="#surface5" mask="url(#mask0)"/>
<path style=" stroke:none;fill-rule:nonzero;fill:rgb(3,148,255);fill-opacity:1;" d="M 52.78125 52.21875 L 52.640625 52.21875 L 40.039063 44.941406 C 39.898438 44.941406 39.898438 44.800781 39.898438 44.660156 C 39.898438 44.519531 40.039063 44.378906 40.039063 44.378906 L 52.640625 37.101563 L 53.058594 37.101563 L 65.660156 44.378906 C 65.800781 44.378906 65.800781 44.519531 65.800781 44.660156 C 65.800781 44.800781 65.660156 44.941406 65.660156 44.941406 L 53.058594 52.21875 C 52.921875 52.078125 52.78125 52.21875 52.78125 52.21875 "/>
<path style=" stroke:none;fill-rule:nonzero;fill:rgb(57,171,255);fill-opacity:1;" d="M 50.960938 69.859375 L 50.820313 69.859375 L 38.21875 62.578125 C 38.078125 62.578125 38.078125 62.441406 38.078125 62.300781 L 38.078125 47.601563 C 38.078125 47.460938 38.21875 47.320313 38.21875 47.320313 L 38.640625 47.320313 L 51.238281 54.601563 C 51.378906 54.738281 51.378906 54.738281 51.378906 54.878906 L 51.378906 69.441406 C 51.378906 69.578125 51.238281 69.71875 51.238281 69.71875 C 51.101563 69.859375 50.960938 69.859375 50.960938 69.859375 M 54.460938 69.859375 L 54.320313 69.859375 C 54.179688 69.859375 54.179688 69.71875 54.179688 69.578125 L 54.179688 55.019531 C 54.179688 54.878906 54.320313 54.738281 54.320313 54.738281 L 66.921875 47.460938 L 67.339844 47.460938 C 67.480469 47.460938 67.480469 47.601563 67.480469 47.738281 L 67.480469 62.300781 C 67.480469 62.441406 67.339844 62.578125 67.339844 62.578125 L 54.738281 69.859375 L 54.460938 69.859375 "/>
<use xlink:href="#surface8" mask="url(#mask1)"/>
</g>
</svg>
