<?xml version="1.0" encoding="UTF-8"?>
<svg xmlns="http://www.w3.org/2000/svg" xmlns:xlink="http://www.w3.org/1999/xlink" width="70pt" height="70pt" viewBox="0 0 70 70" version="1.1">
<defs>
<linearGradient id="linear0" gradientUnits="userSpaceOnUse" x1="8.881" y1="17.5" x2="8.881" y2="2.093" gradientTransform="matrix(3.888889,0,0,3.888889,0,0)">
<stop offset="0" style="stop-color:rgb(0%,47.058824%,83.137255%);stop-opacity:1;"/>
<stop offset="0.817" style="stop-color:rgb(36.862745%,62.745098%,93.72549%);stop-opacity:1;"/>
</linearGradient>
</defs>
<g id="surface1">
<path style=" stroke:none;fill-rule:nonzero;fill:rgb(0%,35.686275%,63.137255%);fill-opacity:1;" d="M 10.339844 8.203125 L 15.050781 2.722656 C 15.488281 2.226563 16.117188 1.945313 16.777344 1.945313 L 61.9375 1.945313 C 62.839844 1.859375 63.730469 2.167969 64.390625 2.785156 C 65.050781 3.402344 65.414063 4.273438 65.390625 5.175781 L 65.390625 61.566406 C 65.390625 62.207031 65.121094 62.824219 64.644531 63.257813 L 59.558594 67.886719 L 13.394531 67.886719 L 10.28125 66.578125 Z M 10.339844 8.203125 "/>
<path style=" stroke:none;fill-rule:nonzero;fill:rgb(100%,100%,100%);fill-opacity:1;" d="M 14.128906 8.167969 L 17.015625 4.875 C 17.398438 4.433594 17.957031 4.179688 18.542969 4.179688 L 60.722656 4.179688 C 61.84375 4.179688 62.75 5.089844 62.75 6.210938 L 62.75 59.824219 C 62.75 60.394531 62.507813 60.941406 62.085938 61.324219 L 57.582031 65.425781 Z M 14.128906 8.167969 "/>
<path style=" stroke:none;fill-rule:nonzero;fill:url(#linear0);" d="M 57.308594 8.140625 L 10.5 8.140625 C 10.378906 8.140625 10.28125 8.238281 10.28125 8.355469 L 10.28125 66.558594 C 10.28125 67.386719 10.953125 68.054688 11.78125 68.054688 L 57.316406 68.054688 C 58.144531 68.054688 58.816406 67.386719 58.816406 66.558594 L 58.816406 9.636719 C 58.816406 9.238281 58.65625 8.855469 58.371094 8.574219 C 58.089844 8.292969 57.707031 8.136719 57.308594 8.140625 Z M 57.308594 8.140625 "/>
<path style=" stroke:none;fill-rule:nonzero;fill:rgb(100%,100%,100%);fill-opacity:1;" d="M 24.492188 24.109375 L 45.746094 24.109375 C 46.324219 24.109375 46.796875 24.582031 46.796875 25.160156 L 46.796875 32.324219 C 46.796875 32.90625 46.324219 33.375 45.746094 33.375 L 24.492188 33.375 C 23.914063 33.375 23.441406 32.90625 23.441406 32.324219 L 23.441406 25.160156 C 23.441406 24.582031 23.914063 24.109375 24.492188 24.109375 Z M 24.492188 24.109375 "/>
<path style=" stroke:none;fill-rule:nonzero;fill:rgb(0%,35.686275%,63.137255%);fill-opacity:1;" d="M 6.902344 14.03125 L 11.832031 14.03125 C 13.101563 14.03125 14.128906 15.058594 14.128906 16.324219 L 14.128906 17.339844 C 14.128906 18.609375 13.101563 19.636719 11.832031 19.636719 L 6.902344 19.636719 C 5.636719 19.636719 4.609375 18.609375 4.609375 17.339844 L 4.609375 16.324219 C 4.609375 15.058594 5.636719 14.03125 6.902344 14.03125 Z M 6.902344 14.03125 "/>
<path style=" stroke:none;fill-rule:nonzero;fill:rgb(0%,35.686275%,63.137255%);fill-opacity:1;" d="M 6.902344 24.679688 L 11.832031 24.679688 C 13.101563 24.679688 14.128906 25.707031 14.128906 26.972656 L 14.128906 27.988281 C 14.128906 29.253906 13.101563 30.28125 11.832031 30.28125 L 6.902344 30.28125 C 5.636719 30.28125 4.609375 29.253906 4.609375 27.988281 L 4.609375 26.972656 C 4.609375 25.707031 5.636719 24.679688 6.902344 24.679688 Z M 6.902344 24.679688 "/>
<path style=" stroke:none;fill-rule:nonzero;fill:rgb(0%,35.686275%,63.137255%);fill-opacity:1;" d="M 6.902344 35.328125 L 11.832031 35.328125 C 13.101563 35.328125 14.128906 36.355469 14.128906 37.621094 L 14.128906 38.636719 C 14.128906 39.902344 13.101563 40.929688 11.832031 40.929688 L 6.902344 40.929688 C 5.636719 40.929688 4.609375 39.902344 4.609375 38.636719 L 4.609375 37.621094 C 4.609375 36.355469 5.636719 35.328125 6.902344 35.328125 Z M 6.902344 35.328125 "/>
<path style=" stroke:none;fill-rule:nonzero;fill:rgb(0%,35.686275%,63.137255%);fill-opacity:1;" d="M 6.902344 45.96875 L 11.832031 45.96875 C 13.101563 45.96875 14.128906 46.996094 14.128906 48.265625 L 14.128906 49.28125 C 14.128906 50.546875 13.101563 51.574219 11.832031 51.574219 L 6.902344 51.574219 C 5.636719 51.574219 4.609375 50.546875 4.609375 49.28125 L 4.609375 48.265625 C 4.609375 46.996094 5.636719 45.96875 6.902344 45.96875 Z M 6.902344 45.96875 "/>
<path style=" stroke:none;fill-rule:nonzero;fill:rgb(0%,35.686275%,63.137255%);fill-opacity:1;" d="M 6.902344 56.617188 L 11.832031 56.617188 C 13.101563 56.617188 14.128906 57.644531 14.128906 58.914063 L 14.128906 59.929688 C 14.128906 61.195313 13.101563 62.222656 11.832031 62.222656 L 6.902344 62.222656 C 5.636719 62.222656 4.609375 61.195313 4.609375 59.929688 L 4.609375 58.914063 C 4.609375 57.644531 5.636719 56.617188 6.902344 56.617188 Z M 6.902344 56.617188 "/>
</g>
</svg>
