<?xml version="1.0" encoding="UTF-8"?>
<svg xmlns="http://www.w3.org/2000/svg" xmlns:xlink="http://www.w3.org/1999/xlink" width="70pt" height="70pt" viewBox="0 0 70 70" version="1.1">
<defs>
<filter id="alpha" filterUnits="objectBoundingBox" x="0%" y="0%" width="100%" height="100%">
  <feColorMatrix type="matrix" in="SourceGraphic" values="0 0 0 0 1 0 0 0 0 1 0 0 0 0 1 0 0 0 1 0"/>
</filter>
<mask id="mask0">
  <g filter="url(#alpha)">
<rect x="0" y="0" width="70" height="70" style="fill:rgb(0,0,0);fill-opacity:0.2;stroke:none;"/>
  </g>
</mask>
<clipPath id="clip1">
  <rect x="0" y="0" width="70" height="70"/>
</clipPath>
<g id="surface5" clip-path="url(#clip1)">
<path style=" stroke:none;fill-rule:nonzero;fill:rgb(255,255,255);fill-opacity:1;" d="M 34.226563 15.5 C 34.226563 23.246094 40.425781 29.445313 47.914063 29.703125 L 51.53125 1.808594 C 50.5 1.550781 49.464844 1.550781 48.433594 1.550781 C 40.683594 1.292969 34.226563 7.492188 34.226563 15.5 M 38.101563 34.355469 L 27.507813 34.355469 L 27.507813 70 L 43.007813 70 L 46.105469 45.460938 Z M 4.261719 39.003906 C 4.261719 43.394531 7.878906 47.011719 12.269531 47.011719 L 13.042969 47.011719 L 15.109375 31.769531 C 14.335938 31.511719 13.300781 31.253906 12.269531 31.253906 C 7.878906 31.253906 4.261719 34.613281 4.261719 39.003906 "/>
</g>
</defs>
<g id="surface1">
<path style=" stroke:none;fill-rule:nonzero;fill:rgb(57,171,255);fill-opacity:1;" d="M 62.636719 15.5 C 62.636719 23.246094 56.4375 29.703125 48.433594 29.703125 C 40.683594 29.703125 34.226563 23.503906 34.226563 15.5 C 34.226563 7.75 40.425781 1.292969 48.433594 1.292969 C 56.179688 1.292969 62.636719 7.492188 62.636719 15.5 M 58.765625 34.355469 L 48.433594 48.820313 L 38.101563 34.355469 L 27.507813 34.355469 L 27.507813 70 L 69.613281 70 L 69.613281 34.355469 Z M 20.277344 39.003906 C 20.277344 43.394531 16.660156 47.011719 12.269531 47.011719 C 7.878906 47.011719 4.261719 43.394531 4.261719 39.003906 C 4.261719 34.613281 7.878906 30.996094 12.269531 30.996094 C 16.660156 30.996094 20.277344 34.613281 20.277344 39.003906 M 17.953125 50.109375 L 12.269531 58.117188 L 6.328125 50.109375 L 0.386719 50.109375 L 0.386719 70 L 24.152344 70 L 24.152344 50.109375 Z M 17.953125 50.109375 "/>
<use xlink:href="#surface5" mask="url(#mask0)"/>
</g>
</svg>
