<?xml version="1.0" encoding="utf-8"?><svg version="1.1" xmlns="http://www.w3.org/2000/svg" xmlns:xlink="http://www.w3.org/1999/xlink" xmlns:xml="http://www.w3.org/XML/1998/namespace" width="70" height="70" viewBox="0, 0, 18, 18"><defs><linearGradient x1="8.881" y1="17.5" x2="8.881" y2="2.093" gradientUnits="userSpaceOnUse" id="bf27f400-3b83-4dfa-9afd-dbfe78240842"><stop offset="0%" stop-color="#006CBC" /><stop offset="81.7%" stop-color="#29A4FF" /></linearGradient></defs><title>MsPortalFx.base.images-45</title><g id="ec8922f1-4baf-49ec-b516-cec52695ceb5"><g><path d="M2.659 2.109 L3.87 0.7 A0.591 0.591 0 0 1 4.314 0.5 H15.927 a0.813 0.813 0 0 1 0.888 0.831 v14.5 a0.59 0.59 0 0 1 -0.192 0.435 l-1.308 1.191 H3.444 l-0.8 -0.337 Z" style="fill:#00518E;" /><path d="M3.633 2.1 l0.742 -0.846 a0.521 0.521 0 0 1 0.393 -0.179 H15.614 a0.522 0.522 0 0 1 0.522 0.522 V15.383 a0.521 0.521 0 0 1 -0.171 0.386 l-1.158 1.055 Z" style="fill:white;" /><path d="M14.736 2.093 H2.7 a0.056 0.056 0 0 0 -0.056 0.056 V17.115 a0.385 0.385 0 0 0 0.385 0.385 h11.71 a0.385 0.385 0 0 0 0.385 -0.385 V2.478 A0.386 0.386 0 0 0 14.736 2.093 Z" style="fill:url(#bf27f400-3b83-4dfa-9afd-dbfe78240842);" /><rect x="6.028" y="6.2" width="6.005" height="2.382" rx="0.27" style="fill:white;" /><rect x="1.185" y="3.608" width="2.448" height="1.441" rx="0.59" style="fill:#00518E;" /><rect x="1.185" y="6.346" width="2.448" height="1.441" rx="0.59" style="fill:#00518E;" /><rect x="1.185" y="9.084" width="2.448" height="1.441" rx="0.59" style="fill:#00518E;" /><rect x="1.185" y="11.821" width="2.448" height="1.441" rx="0.59" style="fill:#00518E;" /><rect x="1.185" y="14.559" width="2.448" height="1.441" rx="0.59" style="fill:#00518E;" /></g></g></svg>