<?xml version="1.0" encoding="UTF-8"?>
<svg xmlns="http://www.w3.org/2000/svg" xmlns:xlink="http://www.w3.org/1999/xlink" width="70pt" height="70pt" viewBox="0 0 70 70" version="1.1">
<g id="surface1">
<path style=" stroke:none;fill-rule:nonzero;fill:rgb(57,171,255);fill-opacity:1;" d="M 35 3.855469 C 17.796875 3.855469 3.855469 17.796875 3.855469 35 C 3.855469 52.203125 17.796875 66.144531 35 66.144531 C 52.203125 66.144531 66.144531 52.203125 66.144531 35 C 66.144531 17.800781 52.199219 3.855469 35 3.855469 Z M 32.839844 14.933594 C 33.703125 14.03125 34.90625 13.527344 36.15625 13.546875 C 37.472656 13.546875 38.589844 14.011719 39.503906 14.933594 C 40.414063 15.855469 40.867188 16.964844 40.867188 18.261719 C 40.867188 19.558594 40.40625 20.664063 39.488281 21.578125 C 38.609375 22.46875 37.40625 22.964844 36.15625 22.945313 C 34.910156 22.96875 33.710938 22.472656 32.839844 21.578125 C 31.925781 20.664063 31.46875 19.558594 31.46875 18.261719 C 31.46875 16.964844 31.925781 15.855469 32.839844 14.933594 Z M 43.851563 55.761719 L 28.488281 55.761719 L 28.488281 54.667969 C 29.746094 54.628906 30.679688 54.261719 31.289063 53.574219 C 31.691406 53.109375 31.894531 51.871094 31.894531 49.863281 L 31.894531 33.253906 C 31.894531 31.25 31.664063 29.96875 31.199219 29.410156 C 30.730469 28.851563 29.828125 28.53125 28.488281 28.449219 L 28.488281 27.324219 L 40.414063 27.324219 L 40.414063 49.863281 C 40.414063 51.871094 40.644531 53.152344 41.113281 53.710938 C 41.578125 54.269531 42.492188 54.585938 43.851563 54.667969 Z M 43.851563 55.761719 "/>
</g>
</svg>
