<?xml version="1.0" encoding="UTF-8"?>
<svg xmlns="http://www.w3.org/2000/svg" xmlns:xlink="http://www.w3.org/1999/xlink" width="70pt" height="70pt" viewBox="0 0 70 70" version="1.1">
<defs>
<filter id="alpha" filterUnits="objectBoundingBox" x="0%" y="0%" width="100%" height="100%">
  <feColorMatrix type="matrix" in="SourceGraphic" values="0 0 0 0 1 0 0 0 0 1 0 0 0 0 1 0 0 0 1 0"/>
</filter>
<mask id="mask0">
  <g filter="url(#alpha)">
<rect x="0" y="0" width="70" height="70" style="fill:rgb(0,0,0);fill-opacity:0.501961;stroke:none;"/>
  </g>
</mask>
<clipPath id="clip1">
  <rect x="0" y="0" width="70" height="70"/>
</clipPath>
<g id="surface5" clip-path="url(#clip1)">
<path style=" stroke:none;fill-rule:nonzero;fill:rgb(0,33,58);fill-opacity:1;" d="M 14.183594 23.730469 L 14.945313 22.414063 L 19.023438 24.773438 L 18.265625 26.085938 Z M 34.359375 11.253906 L 35.878906 11.253906 L 35.878906 15.96875 L 34.359375 15.96875 Z M 43.902344 18.261719 L 46.261719 14.179688 L 47.578125 14.941406 L 45.222656 19.023438 Z M 53.757813 34.222656 L 58.472656 34.222656 L 58.472656 35.742188 L 53.757813 35.742188 Z M 50.8125 44.882813 L 51.574219 43.566406 L 55.652344 45.921875 L 54.894531 47.238281 Z M 50.8125 44.882813 "/>
</g>
<mask id="mask1">
  <g filter="url(#alpha)">
<rect x="0" y="0" width="70" height="70" style="fill:rgb(0,0,0);fill-opacity:0.501961;stroke:none;"/>
  </g>
</mask>
<clipPath id="clip2">
  <rect x="0" y="0" width="70" height="70"/>
</clipPath>
<g id="surface8" clip-path="url(#clip2)">
<path style=" stroke:none;fill-rule:nonzero;fill:rgb(0,33,58);fill-opacity:1;" d="M 50.8125 44.882813 L 51.574219 43.566406 L 55.652344 45.921875 L 54.894531 47.238281 Z M 34.359375 53.546875 L 35.878906 53.546875 L 35.878906 58.257813 L 34.359375 58.257813 Z M 14.183594 23.730469 L 14.945313 22.414063 L 19.023438 24.773438 L 18.265625 26.085938 Z M 22.765625 54.875 L 25.121094 50.792969 L 26.4375 51.554688 L 24.085938 55.636719 Z M 22.765625 54.875 "/>
</g>
<mask id="mask2">
  <g filter="url(#alpha)">
<rect x="0" y="0" width="70" height="70" style="fill:rgb(0,0,0);fill-opacity:0.501961;stroke:none;"/>
  </g>
</mask>
<clipPath id="clip3">
  <rect x="0" y="0" width="70" height="70"/>
</clipPath>
<g id="surface11" clip-path="url(#clip3)">
<path style=" stroke:none;fill-rule:nonzero;fill:rgb(0,33,58);fill-opacity:1;" d="M 22.765625 54.875 L 25.121094 50.792969 L 26.4375 51.554688 L 24.085938 55.636719 Z M 22.765625 54.875 "/>
</g>
<mask id="mask3">
  <g filter="url(#alpha)">
<rect x="0" y="0" width="70" height="70" style="fill:rgb(0,0,0);fill-opacity:0.501961;stroke:none;"/>
  </g>
</mask>
<clipPath id="clip4">
  <rect x="0" y="0" width="70" height="70"/>
</clipPath>
<g id="surface14" clip-path="url(#clip4)">
<path style=" stroke:none;fill-rule:nonzero;fill:rgb(0,33,58);fill-opacity:1;" d="M 22.550781 14.859375 L 23.867188 14.097656 L 26.222656 18.179688 L 24.90625 18.941406 Z M 51.023438 24.984375 L 55.105469 22.625 L 55.867188 23.941406 L 51.785156 26.300781 Z M 43.699219 51.492188 L 45.015625 50.730469 L 47.371094 54.808594 L 46.054688 55.570313 Z M 43.699219 51.492188 "/>
</g>
<mask id="mask4">
  <g filter="url(#alpha)">
<rect x="0" y="0" width="70" height="70" style="fill:rgb(0,0,0);fill-opacity:0.501961;stroke:none;"/>
  </g>
</mask>
<clipPath id="clip5">
  <rect x="0" y="0" width="70" height="70"/>
</clipPath>
<g id="surface17" clip-path="url(#clip5)">
<path style=" stroke:none;fill-rule:nonzero;fill:rgb(0,33,58);fill-opacity:1;" d="M 43.699219 51.492188 L 45.015625 50.730469 L 47.371094 54.808594 L 46.054688 55.570313 Z M 22.550781 14.859375 L 23.867188 14.097656 L 26.222656 18.179688 L 24.90625 18.941406 Z M 14.414063 46.125 L 18.492188 43.769531 L 19.253906 45.085938 L 15.171875 47.441406 Z M 14.414063 46.125 "/>
</g>
<mask id="mask5">
  <g filter="url(#alpha)">
<rect x="0" y="0" width="70" height="70" style="fill:rgb(0,0,0);fill-opacity:0.501961;stroke:none;"/>
  </g>
</mask>
<clipPath id="clip6">
  <rect x="0" y="0" width="70" height="70"/>
</clipPath>
<g id="surface20" clip-path="url(#clip6)">
<path style=" stroke:none;fill-rule:nonzero;fill:rgb(0,33,58);fill-opacity:1;" d="M 14.414063 46.125 L 18.492188 43.769531 L 19.253906 45.085938 L 15.171875 47.441406 Z M 11.476563 34.222656 L 16.191406 34.222656 L 16.191406 35.742188 L 11.476563 35.742188 Z M 11.476563 34.222656 "/>
</g>
<mask id="mask6">
  <g filter="url(#alpha)">
<rect x="0" y="0" width="70" height="70" style="fill:rgb(0,0,0);fill-opacity:0.501961;stroke:none;"/>
  </g>
</mask>
<clipPath id="clip7">
  <rect x="0" y="0" width="70" height="70"/>
</clipPath>
<g id="surface23" clip-path="url(#clip7)">
<path style=" stroke:none;fill-rule:nonzero;fill:rgb(255,255,255);fill-opacity:1;" d="M 35 67.101563 C 52.730469 67.101563 67.101563 52.730469 67.101563 35 C 67.101563 17.269531 52.730469 2.898438 35 2.898438 C 34.753906 2.898438 34.511719 2.910156 34.269531 2.917969 L 34.148438 8.546875 L 35.546875 8.578125 C 47.605469 8.832031 57.96875 17.183594 60.746094 28.894531 C 64.113281 43.089844 55.304688 57.378906 41.109375 60.746094 C 39.105469 61.21875 37.058594 61.460938 35 61.460938 C 22.726563 61.496094 12.054688 53.054688 9.253906 41.105469 C 7.226563 32.558594 9.640625 23.652344 15.429688 17.257813 L 21.082031 23.011719 L 24.460938 4.675781 C 11.910156 9.039063 2.898438 20.964844 2.898438 35 C 2.898438 52.730469 17.269531 67.101563 35 67.101563 Z M 35 67.101563 "/>
</g>
</defs>
<g id="surface1">
<path style=" stroke:none;fill-rule:nonzero;fill:rgb(255,255,255);fill-opacity:1;" d="M 65.457031 35 C 65.457031 51.820313 51.820313 65.457031 35 65.457031 C 18.179688 65.457031 4.542969 51.820313 4.542969 35 C 4.542969 18.179688 18.179688 4.542969 35 4.542969 C 51.820313 4.542969 65.457031 18.179688 65.457031 35 Z M 65.457031 35 "/>
<path style=" stroke:none;fill-rule:nonzero;fill:rgb(203,232,255);fill-opacity:1;" d="M 62.925781 47.15625 C 56.210938 62.578125 38.265625 69.640625 22.84375 62.925781 L 47.15625 7.074219 C 62.582031 13.785156 69.640625 31.730469 62.925781 47.15625 Z M 62.925781 47.15625 "/>
<path style=" stroke:none;fill-rule:nonzero;fill:rgb(65,174,255);fill-opacity:1;" d="M 35 5.699219 C 51.15625 5.699219 64.300781 18.84375 64.300781 35 C 64.300781 51.15625 51.15625 64.300781 35 64.300781 C 18.84375 64.300781 5.699219 51.15625 5.699219 35 C 5.699219 18.84375 18.84375 5.699219 35 5.699219 M 35 2.898438 C 17.269531 2.898438 2.898438 17.269531 2.898438 35 C 2.898438 52.730469 17.269531 67.101563 35 67.101563 C 52.730469 67.101563 67.101563 52.730469 67.101563 35 C 67.101563 17.269531 52.730469 2.898438 35 2.898438 Z M 35 2.898438 "/>
<path style=" stroke:none;fill-rule:nonzero;fill:rgb(0,140,244);fill-opacity:1;" d="M 14.183594 23.730469 L 14.945313 22.414063 L 19.023438 24.773438 L 18.265625 26.085938 Z M 34.359375 11.253906 L 35.878906 11.253906 L 35.878906 15.96875 L 34.359375 15.96875 Z M 43.902344 18.261719 L 46.261719 14.179688 L 47.578125 14.941406 L 45.222656 19.023438 Z M 53.757813 34.222656 L 58.472656 34.222656 L 58.472656 35.742188 L 53.757813 35.742188 Z M 50.8125 44.882813 L 51.574219 43.566406 L 55.652344 45.921875 L 54.894531 47.238281 Z M 50.8125 44.882813 "/>
<path style=" stroke:none;fill-rule:nonzero;fill:rgb(0,140,244);fill-opacity:1;" d="M 50.8125 44.882813 L 51.574219 43.566406 L 55.652344 45.921875 L 54.894531 47.238281 Z M 34.359375 53.546875 L 35.878906 53.546875 L 35.878906 58.257813 L 34.359375 58.257813 Z M 14.183594 23.730469 L 14.945313 22.414063 L 19.023438 24.773438 L 18.265625 26.085938 Z M 22.765625 54.875 L 25.121094 50.792969 L 26.4375 51.554688 L 24.085938 55.636719 Z M 22.765625 54.875 "/>
<path style=" stroke:none;fill-rule:nonzero;fill:rgb(0,140,244);fill-opacity:1;" d="M 22.765625 54.875 L 25.121094 50.792969 L 26.4375 51.554688 L 24.085938 55.636719 Z M 11.476563 34.222656 L 16.191406 34.222656 L 16.191406 35.742188 L 11.476563 35.742188 Z M 11.476563 34.222656 "/>
<use xlink:href="#surface5" mask="url(#mask0)"/>
<use xlink:href="#surface8" mask="url(#mask1)"/>
<use xlink:href="#surface11" mask="url(#mask2)"/>
<path style=" stroke:none;fill-rule:nonzero;fill:rgb(0,140,244);fill-opacity:1;" d="M 22.550781 14.859375 L 23.867188 14.097656 L 26.222656 18.179688 L 24.90625 18.941406 Z M 51.023438 24.984375 L 55.105469 22.625 L 55.867188 23.941406 L 51.785156 26.300781 Z M 43.699219 51.492188 L 45.015625 50.730469 L 47.371094 54.808594 L 46.054688 55.570313 Z M 43.699219 51.492188 "/>
<path style=" stroke:none;fill-rule:nonzero;fill:rgb(0,140,244);fill-opacity:1;" d="M 43.699219 51.492188 L 45.015625 50.730469 L 47.371094 54.808594 L 46.054688 55.570313 Z M 22.550781 14.859375 L 23.867188 14.097656 L 26.222656 18.179688 L 24.90625 18.941406 Z M 14.414063 46.125 L 18.492188 43.769531 L 19.253906 45.085938 L 15.171875 47.441406 Z M 14.414063 46.125 "/>
<path style=" stroke:none;fill-rule:nonzero;fill:rgb(0,140,244);fill-opacity:1;" d="M 14.414063 46.125 L 18.492188 43.769531 L 19.253906 45.085938 L 15.171875 47.441406 Z M 14.414063 46.125 "/>
<use xlink:href="#surface14" mask="url(#mask3)"/>
<use xlink:href="#surface17" mask="url(#mask4)"/>
<use xlink:href="#surface20" mask="url(#mask5)"/>
<path style=" stroke:none;fill-rule:nonzero;fill:rgb(0,140,244);fill-opacity:1;" d="M 50.074219 42.117188 L 37.042969 38.574219 C 35.648438 38.175781 34.839844 36.730469 35.21875 35.332031 C 35.597656 33.9375 37.027344 33.101563 38.429688 33.460938 L 51.464844 37.003906 C 52.855469 37.402344 53.667969 38.847656 53.289063 40.242188 C 52.90625 41.640625 51.476563 42.476563 50.074219 42.117188 Z M 50.074219 42.117188 "/>
<path style=" stroke:none;fill-rule:nonzero;fill:rgb(0,140,244);fill-opacity:1;" d="M 35.132813 38.671875 C 33.820313 38.671875 32.75 37.484375 32.75 36.023438 L 32.75 13.464844 C 32.75 12.003906 33.820313 10.816406 35.132813 10.816406 C 36.449219 10.816406 37.519531 12.003906 37.519531 13.464844 L 37.519531 36.023438 C 37.519531 37.488281 36.453125 38.671875 35.132813 38.671875 Z M 35.132813 38.671875 "/>
<path style=" stroke:none;fill-rule:nonzero;fill:rgb(0,33,58);fill-opacity:1;" d="M 39.527344 35 C 39.527344 37.5 37.5 39.527344 35 39.527344 C 32.5 39.527344 30.472656 37.5 30.472656 35 C 30.472656 32.5 32.5 30.472656 35 30.472656 C 37.5 30.472656 39.527344 32.5 39.527344 35 Z M 39.527344 35 "/>
<use xlink:href="#surface23" mask="url(#mask6)"/>
<path style=" stroke:none;fill-rule:nonzero;fill:rgb(0,112,196);fill-opacity:1;" d="M 20.191406 20.109375 L 6.457031 6.128906 L 23.300781 3.253906 Z M 20.191406 20.109375 "/>
<path style=" stroke:none;fill-rule:nonzero;fill:rgb(0,112,196);fill-opacity:1;" d="M 35.695313 1.539063 L 35.578125 7.179688 C 47.960938 7.441406 59.121094 15.972656 62.105469 28.570313 C 65.652344 43.519531 56.375 58.5625 41.429688 62.109375 C 26.480469 65.652344 11.4375 56.375 7.890625 41.429688 C 5.277344 30.402344 9.652344 19.335938 18.121094 12.859375 L 14.113281 8.855469 C 4.324219 16.683594 -0.640625 29.714844 2.441406 42.722656 C 6.707031 60.703125 24.742188 71.820313 42.722656 67.558594 C 60.703125 63.292969 71.820313 45.257813 67.554688 27.277344 C 63.960938 12.121094 50.582031 1.839844 35.695313 1.539063 Z M 35.695313 1.539063 "/>
</g>
</svg>
