<?xml version="1.0" encoding="UTF-8"?>
<svg xmlns="http://www.w3.org/2000/svg" xmlns:xlink="http://www.w3.org/1999/xlink" width="70pt" height="70pt" viewBox="0 0 70 70" version="1.1">
<defs>
<filter id="alpha" filterUnits="objectBoundingBox" x="0%" y="0%" width="100%" height="100%">
  <feColorMatrix type="matrix" in="SourceGraphic" values="0 0 0 0 1 0 0 0 0 1 0 0 0 0 1 0 0 0 1 0"/>
</filter>
<mask id="mask0">
  <g filter="url(#alpha)">
<rect x="0" y="0" width="70" height="70" style="fill:rgb(0,0,0);fill-opacity:0.301961;stroke:none;"/>
  </g>
</mask>
<clipPath id="clip1">
  <rect x="0" y="0" width="70" height="70"/>
</clipPath>
<g id="surface5" clip-path="url(#clip1)">
<path style=" stroke:none;fill-rule:nonzero;fill:rgb(255,255,255);fill-opacity:1;" d="M 59.777344 17.308594 L 55.535156 17.308594 L 55.535156 70 L 59.777344 62.082031 Z M 59.777344 17.308594 "/>
</g>
<mask id="mask1">
  <g filter="url(#alpha)">
<rect x="0" y="0" width="70" height="70" style="fill:rgb(0,0,0);fill-opacity:0.2;stroke:none;"/>
  </g>
</mask>
<clipPath id="clip2">
  <rect x="0" y="0" width="70" height="70"/>
</clipPath>
<g id="surface8" clip-path="url(#clip2)">
<path style=" stroke:none;fill-rule:nonzero;fill:rgb(0,33,58);fill-opacity:1;" d="M 59.8125 62.023438 L 59.777344 62.082031 L 55.535156 70 L 59.777344 66.730469 L 64.867188 62.808594 Z M 59.8125 62.023438 "/>
</g>
</defs>
<g id="surface1">
<path style=" stroke:none;fill-rule:nonzero;fill:rgb(3,148,255);fill-opacity:1;" d="M 64.867188 62.808594 L 64.863281 62.808594 L 63.3125 17.308594 L 5.753906 17.308594 L 4.199219 65.945313 L 55.535156 70 L 59.777344 66.730469 Z M 64.867188 62.808594 "/>
<use xlink:href="#surface5" mask="url(#mask0)"/>
<use xlink:href="#surface8" mask="url(#mask1)"/>
<path style=" stroke:none;fill-rule:nonzero;fill:rgb(255,255,255);fill-opacity:1;" d="M 46.25 47.894531 C 46.25 45.71875 44.507813 43.957031 42.351563 43.957031 C 42.191406 43.957031 42.03125 43.972656 41.875 43.992188 C 42.113281 43.109375 42.246094 42.179688 42.246094 41.21875 C 42.246094 35.425781 37.589844 30.730469 31.847656 30.730469 C 27.257813 30.730469 23.367188 33.726563 21.988281 37.886719 C 21.257813 37.628906 20.480469 37.488281 19.664063 37.488281 C 15.738281 37.488281 12.558594 40.695313 12.558594 44.65625 C 12.558594 48.617188 15.738281 51.828125 19.664063 51.828125 C 19.664063 51.828125 19.671875 51.824219 19.675781 51.824219 L 19.675781 51.828125 L 42.667969 51.828125 L 42.664063 51.808594 C 44.671875 51.648438 46.25 49.960938 46.25 47.894531 "/>
<path style=" stroke:none;fill-rule:nonzero;fill:rgb(65,174,255);fill-opacity:1;" d="M 32.769531 9.464844 C 32.769531 6.03125 35.769531 3.238281 39.460938 3.238281 C 43.148438 3.238281 46.148438 6.03125 46.148438 9.464844 L 46.148438 17.308594 L 49.359375 17.308594 L 49.359375 9.464844 C 49.359375 4.246094 44.917969 0 39.460938 0 C 33.996094 0 29.558594 4.246094 29.558594 9.464844 L 29.558594 17.308594 L 32.769531 17.308594 Z M 32.769531 9.464844 "/>
<path style=" stroke:none;fill-rule:nonzero;fill:rgb(0,140,244);fill-opacity:1;" d="M 22.917969 9.464844 C 22.917969 6.03125 25.917969 3.238281 29.605469 3.238281 C 33.296875 3.238281 36.296875 6.03125 36.296875 9.464844 L 36.296875 17.308594 L 39.507813 17.308594 L 39.507813 9.464844 C 39.507813 4.246094 35.066406 0 29.605469 0 C 24.148438 0 19.703125 4.246094 19.703125 9.464844 L 19.703125 17.308594 L 22.917969 17.308594 Z M 22.917969 9.464844 "/>
</g>
</svg>
