<?xml version="1.0" encoding="UTF-8"?>
<svg xmlns="http://www.w3.org/2000/svg" xmlns:xlink="http://www.w3.org/1999/xlink" width="70pt" height="70pt" viewBox="0 0 70 70" version="1.1">
<g id="surface1">
<path style=" stroke:none;fill-rule:nonzero;fill:rgb(255,255,255);fill-opacity:1;" d="M 31.960938 6.121094 C 24.296875 6.914063 17.265625 10.734375 12.429688 16.730469 C 7.570313 22.714844 5.296875 30.386719 6.117188 38.050781 C 6.914063 45.710938 10.734375 52.742188 16.730469 57.578125 C 22.519531 62.261719 30.058594 64.730469 38.039063 63.890625 C 46.027344 63.050781 52.890625 59.058594 57.578125 53.277344 C 62.253906 47.492188 64.726563 39.949219 63.886719 31.960938 C 63.035156 23.910156 58.945313 17.027344 53.070313 12.273438 C 48.128906 8.269531 41.828125 5.957031 35.074219 5.957031 C 34.046875 5.957031 33.007813 6.011719 31.960938 6.121094 "/>
<path style=" stroke:none;fill-rule:nonzero;fill:rgb(3,148,255);fill-opacity:1;" d="M 69.800781 31.339844 C 68.785156 21.628906 63.824219 13.304688 56.820313 7.640625 C 55.460938 6.539063 53.996094 5.578125 52.480469 4.699219 L 49.730469 9.988281 C 50.898438 10.667969 52.015625 11.429688 53.070313 12.273438 C 58.945313 17.027344 63.035156 23.910156 63.882813 31.960938 C 64.726563 39.949219 62.253906 47.492188 57.578125 53.277344 C 52.890625 59.058594 46.027344 63.050781 38.039063 63.890625 C 32.691406 64.449219 27.554688 63.503906 23 61.425781 L 20.253906 66.707031 C 25.820313 69.300781 32.125 70.5 38.664063 69.808594 C 47.902344 68.847656 56.371094 64.246094 62.203125 57.023438 C 68.054688 49.8125 70.789063 40.570313 69.800781 31.339844 "/>
<path style=" stroke:none;fill-rule:nonzero;fill:rgb(65,174,255);fill-opacity:1;" d="M 16.730469 57.578125 C 10.734375 52.742188 6.914063 45.710938 6.117188 38.050781 C 5.296875 30.386719 7.570313 22.710938 12.429688 16.730469 C 17.265625 10.734375 24.296875 6.914063 31.960938 6.121094 C 38.417969 5.441406 44.582031 6.925781 49.730469 9.984375 L 52.480469 4.699219 C 46.089844 0.988281 38.679688 -0.585938 31.332031 0.199219 C 22.101563 1.164063 13.632813 5.761719 7.796875 12.984375 L 7.785156 12.996094 C 1.945313 20.207031 -0.785156 29.441406 0.195313 38.667969 C 1.15625 47.90625 5.757813 56.375 12.984375 62.210938 C 15.199219 64.003906 17.652344 65.496094 20.253906 66.707031 L 23 61.421875 C 20.757813 60.410156 18.648438 59.121094 16.730469 57.578125 "/>
<path style=" stroke:none;fill-rule:nonzero;fill:rgb(57,171,255);fill-opacity:1;" d="M 16.730469 57.578125 C 10.734375 52.742188 6.914063 45.710938 6.117188 38.050781 C 5.296875 30.386719 7.570313 22.710938 12.429688 16.730469 C 17.265625 10.734375 24.296875 6.914063 31.960938 6.121094 C 38.417969 5.441406 44.582031 6.925781 49.730469 9.984375 L 52.480469 4.699219 C 46.089844 0.988281 38.679688 -0.585938 31.332031 0.199219 C 22.101563 1.164063 13.632813 5.761719 7.796875 12.984375 L 7.785156 12.996094 C 1.945313 20.207031 -0.785156 29.441406 0.195313 38.667969 C 1.15625 47.90625 5.757813 56.375 12.984375 62.210938 C 15.199219 64.003906 17.652344 65.496094 20.253906 66.707031 L 23 61.421875 C 20.757813 60.410156 18.648438 59.121094 16.730469 57.578125 "/>
<path style=" stroke:none;fill-rule:nonzero;fill:rgb(0,140,244);fill-opacity:1;" d="M 49.695313 44.179688 L 36.253906 39.402344 C 35.292969 39.082031 34.578125 38.265625 34.386719 37.269531 C 34.199219 36.273438 34.5625 35.253906 35.335938 34.601563 C 36.113281 33.949219 37.183594 33.765625 38.128906 34.125 L 51.570313 38.90625 C 52.535156 39.226563 53.246094 40.042969 53.4375 41.039063 C 53.628906 42.035156 53.265625 43.054688 52.488281 43.707031 C 51.710938 44.359375 50.644531 44.539063 49.695313 44.179688 Z M 49.695313 44.179688 "/>
<path style=" stroke:none;fill-rule:nonzero;fill:rgb(0,140,244);fill-opacity:1;" d="M 34.722656 38.882813 C 33.175781 38.882813 31.921875 37.628906 31.921875 36.082031 L 31.921875 12.257813 C 31.921875 10.710938 33.175781 9.457031 34.722656 9.457031 C 36.269531 9.457031 37.519531 10.710938 37.519531 12.257813 L 37.519531 36.082031 C 37.519531 37.628906 36.269531 38.882813 34.722656 38.882813 Z M 34.722656 38.882813 "/>
<path style=" stroke:none;fill-rule:nonzero;fill:rgb(0,33,58);fill-opacity:1;" d="M 38.8125 36.082031 C 38.8125 38.339844 36.980469 40.171875 34.722656 40.171875 C 32.460938 40.171875 30.632813 38.339844 30.632813 36.082031 C 30.632813 33.824219 32.460938 31.992188 34.722656 31.992188 C 36.980469 31.992188 38.8125 33.824219 38.8125 36.082031 Z M 38.8125 36.082031 "/>
<path style=" stroke:none;fill-rule:nonzero;fill:rgb(0,140,244);fill-opacity:1;" d="M 17.800781 16.664063 L 21.324219 20.183594 L 20.1875 21.320313 L 16.667969 17.800781 Z M 34.183594 9.921875 L 35.789063 9.921875 L 35.789063 14.898438 L 34.183594 14.898438 Z M 52.011719 16.824219 L 53.144531 17.957031 L 49.625 21.480469 L 48.492188 20.34375 Z M 54.675781 34.179688 L 59.65625 34.179688 L 59.65625 35.785156 L 54.675781 35.785156 Z M 49.398438 48.257813 L 52.917969 51.777344 L 51.78125 52.914063 L 48.261719 49.394531 Z M 49.398438 48.257813 "/>
<path style=" stroke:none;fill-rule:nonzero;fill:rgb(0,140,244);fill-opacity:1;" d="M 49.398438 48.257813 L 52.917969 51.777344 L 51.78125 52.914063 L 48.261719 49.394531 Z M 34.183594 54.59375 L 35.789063 54.59375 L 35.789063 59.574219 L 34.183594 59.574219 Z M 17.800781 16.664063 L 21.324219 20.183594 L 20.1875 21.320313 L 16.667969 17.800781 Z M 20.429688 48.402344 L 21.566406 49.539063 L 18.046875 53.058594 L 16.910156 51.925781 Z M 20.429688 48.402344 "/>
<path style=" stroke:none;fill-rule:nonzero;fill:rgb(0,140,244);fill-opacity:1;" d="M 20.429688 48.402344 L 21.566406 49.539063 L 18.046875 53.058594 L 16.910156 51.925781 Z M 10.011719 34.179688 L 14.992188 34.179688 L 14.992188 35.785156 L 10.011719 35.785156 Z M 10.011719 34.179688 "/>
</g>
</svg>
