<?xml version="1.0" encoding="UTF-8"?>
<svg xmlns="http://www.w3.org/2000/svg" xmlns:xlink="http://www.w3.org/1999/xlink" width="70pt" height="70pt" viewBox="0 0 70 70" version="1.1">
<defs>
<linearGradient id="linear0" gradientUnits="userSpaceOnUse" x1="2.624" y1="15.969" x2="2.624" y2="11.167" gradientTransform="matrix(3.888889,0,0,3.888889,0,0)">
<stop offset="0" style="stop-color:rgb(47,166,255);stop-opacity:1;"/>
<stop offset="0.601" style="stop-color:rgb(75,178,255);stop-opacity:1;"/>
<stop offset="0.822" style="stop-color:rgb(89,184,255);stop-opacity:1;"/>
</linearGradient>
<linearGradient id="linear1" gradientUnits="userSpaceOnUse" x1="9.026" y1="18" x2="9.026" y2="13.198" gradientTransform="matrix(3.888889,0,0,3.888889,0,0)">
<stop offset="0" style="stop-color:rgb(47,166,255);stop-opacity:1;"/>
<stop offset="0.601" style="stop-color:rgb(75,178,255);stop-opacity:1;"/>
<stop offset="0.822" style="stop-color:rgb(89,184,255);stop-opacity:1;"/>
</linearGradient>
<linearGradient id="linear2" gradientUnits="userSpaceOnUse" x1="15.376" y1="16.001" x2="15.376" y2="11.199" gradientTransform="matrix(3.888889,0,0,3.888889,0,0)">
<stop offset="0" style="stop-color:rgb(47,166,255);stop-opacity:1;"/>
<stop offset="0.601" style="stop-color:rgb(75,178,255);stop-opacity:1;"/>
<stop offset="0.822" style="stop-color:rgb(89,184,255);stop-opacity:1;"/>
</linearGradient>
</defs>
<g id="surface1">
<path style=" stroke:none;fill-rule:nonzero;fill:rgb(119,197,255);fill-opacity:1;" d="M 60.3125 30.597656 L 39.089844 30.597656 C 38.460938 30.597656 37.953125 30.085938 37.953125 29.457031 L 37.953125 21.355469 L 32.25 21.355469 L 32.25 29.457031 C 32.25 30.085938 31.738281 30.59375 31.109375 30.597656 L 9.640625 30.597656 C 8.378906 30.597656 7.359375 31.621094 7.359375 32.878906 L 7.359375 43.378906 L 13.058594 43.378906 L 13.058594 37.546875 C 13.0625 36.917969 13.574219 36.40625 14.203125 36.40625 L 32.25 36.40625 L 32.25 51.644531 L 37.953125 51.644531 L 37.953125 36.429688 L 55.75 36.429688 C 56.378906 36.429688 56.890625 36.941406 56.890625 37.570313 L 56.890625 43.519531 L 62.609375 43.519531 L 62.609375 32.878906 C 62.609375 32.273438 62.367188 31.6875 61.9375 31.261719 C 61.503906 30.832031 60.921875 30.59375 60.3125 30.597656 Z M 60.3125 30.597656 "/>
<path style=" stroke:none;fill-rule:nonzero;fill:rgb(0,108,188);fill-opacity:1;" d="M 25.515625 0 L 44.246094 0 C 45.390625 0 46.316406 0.925781 46.316406 2.070313 L 46.316406 20.800781 C 46.316406 21.945313 45.390625 22.871094 44.246094 22.871094 L 25.515625 22.871094 C 24.371094 22.871094 23.445313 21.945313 23.445313 20.800781 L 23.445313 2.070313 C 23.445313 0.925781 24.371094 0 25.515625 0 Z M 25.515625 0 "/>
<path style=" stroke:none;fill-rule:nonzero;fill:rgb(255,255,255);fill-opacity:1;" d="M 29.113281 4.394531 L 40.648438 4.394531 C 41.351563 4.394531 41.921875 4.964844 41.921875 5.671875 L 41.921875 17.203125 C 41.921875 17.910156 41.351563 18.480469 40.648438 18.480469 L 29.113281 18.480469 C 28.40625 18.480469 27.835938 17.910156 27.835938 17.203125 L 27.835938 5.671875 C 27.835938 4.964844 28.40625 4.394531 29.113281 4.394531 Z M 29.113281 4.394531 "/>
<path style=" stroke:none;fill-rule:nonzero;fill:url(#linear0);" d="M 2.558594 43.425781 L 17.851563 43.425781 C 18.785156 43.425781 19.542969 44.183594 19.542969 45.117188 L 19.542969 60.410156 C 19.542969 61.34375 18.785156 62.101563 17.851563 62.101563 L 2.558594 62.101563 C 1.625 62.101563 0.867188 61.34375 0.867188 60.410156 L 0.867188 45.117188 C 0.867188 44.183594 1.625 43.425781 2.558594 43.425781 Z M 2.558594 43.425781 "/>
<path style=" stroke:none;fill-rule:nonzero;fill:url(#linear1);" d="M 27.453125 51.324219 L 42.742188 51.324219 C 43.675781 51.324219 44.433594 52.082031 44.433594 53.015625 L 44.433594 68.308594 C 44.433594 69.242188 43.675781 70 42.742188 70 L 27.453125 70 C 26.515625 70 25.761719 69.242188 25.761719 68.308594 L 25.761719 53.015625 C 25.761719 52.082031 26.515625 51.324219 27.453125 51.324219 Z M 27.453125 51.324219 "/>
<path style=" stroke:none;fill-rule:nonzero;fill:url(#linear2);" d="M 52.148438 43.550781 L 67.441406 43.550781 C 68.375 43.550781 69.132813 44.308594 69.132813 45.242188 L 69.132813 60.535156 C 69.132813 61.46875 68.375 62.226563 67.441406 62.226563 L 52.148438 62.226563 C 51.214844 62.226563 50.457031 61.46875 50.457031 60.535156 L 50.457031 45.242188 C 50.457031 44.308594 51.214844 43.550781 52.148438 43.550781 Z M 52.148438 43.550781 "/>
</g>
</svg>
