<?xml version="1.0" encoding="UTF-8"?>
<svg xmlns="http://www.w3.org/2000/svg" xmlns:xlink="http://www.w3.org/1999/xlink" width="70pt" height="70pt" viewBox="0 0 70 70" version="1.1">
<defs>
<filter id="alpha" filterUnits="objectBoundingBox" x="0%" y="0%" width="100%" height="100%">
  <feColorMatrix type="matrix" in="SourceGraphic" values="0 0 0 0 1 0 0 0 0 1 0 0 0 0 1 0 0 0 1 0"/>
</filter>
<mask id="mask0">
  <g filter="url(#alpha)">
<rect x="0" y="0" width="70" height="70" style="fill:rgb(0,0,0);fill-opacity:0.2;stroke:none;"/>
  </g>
</mask>
<clipPath id="clip1">
  <rect x="0" y="0" width="70" height="70"/>
</clipPath>
<g id="surface5" clip-path="url(#clip1)">
<path style=" stroke:none;fill-rule:nonzero;fill:rgb(255,255,255);fill-opacity:1;" d="M 12.90625 24.5 C 12.90625 29.53125 17.0625 33.6875 22.09375 33.90625 L 24.28125 15.3125 C 23.625 15.09375 22.96875 15.09375 22.09375 15.09375 C 17.0625 15.09375 12.90625 19.25 12.90625 24.5 "/>
</g>
<mask id="mask1">
  <g filter="url(#alpha)">
<rect x="0" y="0" width="70" height="70" style="fill:rgb(0,0,0);fill-opacity:0.2;stroke:none;"/>
  </g>
</mask>
<clipPath id="clip2">
  <rect x="0" y="0" width="70" height="70"/>
</clipPath>
<g id="surface8" clip-path="url(#clip2)">
<path style=" stroke:none;fill-rule:nonzero;fill:rgb(255,255,255);fill-opacity:1;" d="M 15.3125 37.1875 L 4.375 37.1875 L 4.375 61.25 L 18.59375 61.25 L 20.5625 44.84375 Z M 15.3125 37.1875 "/>
</g>
<mask id="mask2">
  <g filter="url(#alpha)">
<rect x="0" y="0" width="70" height="70" style="fill:rgb(0,0,0);fill-opacity:0.2;stroke:none;"/>
  </g>
</mask>
<clipPath id="clip3">
  <rect x="0" y="0" width="70" height="70"/>
</clipPath>
<g id="surface11" clip-path="url(#clip3)">
<path style=" stroke:none;fill-rule:nonzero;fill:rgb(255,255,255);fill-opacity:1;" d="M 22.09375 8.96875 C 13.5625 8.96875 6.5625 15.96875 6.5625 24.5 L 6.5625 28.4375 L 10.9375 28.4375 L 10.9375 24.5 C 10.9375 17.9375 15.75 12.46875 22.53125 12.46875 C 23.625 12.46875 24.28125 12.6875 25.15625 12.90625 L 25.375 9.40625 C 24.5 9.1875 23.1875 8.96875 22.09375 8.96875 Z M 22.09375 8.96875 "/>
</g>
<mask id="mask3">
  <g filter="url(#alpha)">
<rect x="0" y="0" width="70" height="70" style="fill:rgb(0,0,0);fill-opacity:0.2;stroke:none;"/>
  </g>
</mask>
<clipPath id="clip4">
  <rect x="0" y="0" width="70" height="70"/>
</clipPath>
<g id="surface14" clip-path="url(#clip4)">
<path style=" stroke:none;fill-rule:nonzero;fill:rgb(255,255,255);fill-opacity:1;" d="M 34.78125 22.3125 C 34.78125 27.34375 38.9375 31.5 43.96875 31.71875 L 46.15625 13.125 C 45.5 12.90625 44.84375 12.90625 43.96875 12.90625 C 38.9375 12.90625 34.78125 17.0625 34.78125 22.3125 "/>
</g>
<mask id="mask4">
  <g filter="url(#alpha)">
<rect x="0" y="0" width="70" height="70" style="fill:rgb(0,0,0);fill-opacity:0.2;stroke:none;"/>
  </g>
</mask>
<clipPath id="clip5">
  <rect x="0" y="0" width="70" height="70"/>
</clipPath>
<g id="surface17" clip-path="url(#clip5)">
<path style=" stroke:none;fill-rule:nonzero;fill:rgb(255,255,255);fill-opacity:1;" d="M 37.1875 37.1875 L 26.25 37.1875 L 26.25 63.4375 L 40.46875 63.4375 L 42.4375 45.5 Z M 37.1875 37.1875 "/>
</g>
<mask id="mask5">
  <g filter="url(#alpha)">
<rect x="0" y="0" width="70" height="70" style="fill:rgb(0,0,0);fill-opacity:0.2;stroke:none;"/>
  </g>
</mask>
<clipPath id="clip6">
  <rect x="0" y="0" width="70" height="70"/>
</clipPath>
<g id="surface20" clip-path="url(#clip6)">
<path style=" stroke:none;fill-rule:nonzero;fill:rgb(255,255,255);fill-opacity:1;" d="M 36.96875 24.5 C 36.96875 29.53125 41.125 33.6875 46.15625 33.90625 L 48.34375 15.3125 C 47.6875 15.09375 47.03125 15.09375 46.15625 15.09375 C 41.125 15.09375 36.96875 19.25 36.96875 24.5 "/>
</g>
<mask id="mask6">
  <g filter="url(#alpha)">
<rect x="0" y="0" width="70" height="70" style="fill:rgb(0,0,0);fill-opacity:0.2;stroke:none;"/>
  </g>
</mask>
<clipPath id="clip7">
  <rect x="0" y="0" width="70" height="70"/>
</clipPath>
<g id="surface23" clip-path="url(#clip7)">
<path style=" stroke:none;fill-rule:nonzero;fill:rgb(255,255,255);fill-opacity:1;" d="M 39.375 37.1875 L 28.4375 37.1875 L 28.4375 61.25 L 42.65625 61.25 L 44.625 44.84375 Z M 39.375 37.1875 "/>
</g>
<mask id="mask7">
  <g filter="url(#alpha)">
<rect x="0" y="0" width="70" height="70" style="fill:rgb(0,0,0);fill-opacity:0.2;stroke:none;"/>
  </g>
</mask>
<clipPath id="clip8">
  <rect x="0" y="0" width="70" height="70"/>
</clipPath>
<g id="surface26" clip-path="url(#clip8)">
<path style=" stroke:none;fill-rule:nonzero;fill:rgb(255,255,255);fill-opacity:1;" d="M 46.15625 8.96875 C 37.625 8.96875 30.625 15.96875 30.625 24.5 L 30.625 28.4375 L 35 28.4375 L 35 24.5 C 35 17.9375 39.8125 12.46875 46.59375 12.46875 C 47.6875 12.46875 48.34375 12.6875 49.21875 12.90625 L 49.4375 9.40625 C 48.5625 9.1875 47.25 8.96875 46.15625 8.96875 Z M 46.15625 8.96875 "/>
</g>
</defs>
<g id="surface1">
<path style=" stroke:none;fill-rule:nonzero;fill:rgb(0,110,192);fill-opacity:1;" d="M 31.71875 24.5 C 31.71875 29.75 27.5625 33.90625 22.3125 33.90625 C 17.0625 33.90625 12.90625 29.75 12.90625 24.5 C 12.90625 19.25 17.0625 15.09375 22.3125 15.09375 C 27.34375 15.09375 31.71875 19.25 31.71875 24.5 "/>
<path style=" stroke:none;fill-rule:nonzero;fill:rgb(0,110,192);fill-opacity:1;" d="M 29.09375 37.1875 L 22.3125 46.8125 L 15.3125 37.1875 L 4.375 37.1875 L 4.375 61.25 L 39.375 61.25 L 39.375 37.1875 Z M 29.09375 37.1875 "/>
<use xlink:href="#surface5" mask="url(#mask0)"/>
<use xlink:href="#surface8" mask="url(#mask1)"/>
<path style=" stroke:none;fill-rule:nonzero;fill:rgb(0,117,204);fill-opacity:1;" d="M 37.1875 35 L 30.625 35 L 30.625 30.625 L 32.8125 30.625 L 32.8125 24.5 C 32.8125 17.9375 28.4375 12.46875 21.875 12.46875 C 15.3125 12.46875 10.9375 17.9375 10.9375 24.5 L 10.9375 28.4375 L 6.5625 28.4375 L 6.5625 24.5 C 6.5625 15.96875 13.34375 8.96875 21.875 8.96875 C 30.40625 8.96875 37.1875 15.96875 37.1875 24.5 Z M 37.1875 35 "/>
<use xlink:href="#surface11" mask="url(#mask2)"/>
<path style=" stroke:none;fill-rule:nonzero;fill:rgb(255,255,255);fill-opacity:1;" d="M 49.21875 31.9375 C 49.21875 41.125 45.0625 48.78125 39.8125 48.78125 C 34.5625 48.78125 30.40625 41.34375 30.40625 31.9375 C 30.40625 22.53125 34.5625 15.09375 39.8125 15.09375 C 44.84375 15.09375 49.21875 22.53125 49.21875 31.9375 "/>
<path style=" stroke:none;fill-rule:nonzero;fill:rgb(255,255,255);fill-opacity:1;" d="M 50.96875 37.1875 L 44.1875 46.8125 L 37.1875 37.1875 L 26.25 37.1875 L 26.25 61.25 L 61.25 61.25 L 61.25 37.1875 Z M 50.96875 37.1875 "/>
<use xlink:href="#surface14" mask="url(#mask3)"/>
<use xlink:href="#surface17" mask="url(#mask4)"/>
<path style=" stroke:none;fill-rule:nonzero;fill:rgb(255,255,255);fill-opacity:1;" d="M 59.0625 39.375 L 52.5 39.375 L 52.5 35 L 54.6875 35 L 54.6875 26.46875 C 54.6875 18.15625 50.75 11.59375 43.75 11.59375 C 36.75 11.59375 32.8125 18.375 32.8125 26.46875 L 32.8125 30.625 L 28.4375 30.625 L 28.4375 26.46875 C 28.4375 15.96875 34.78125 7.21875 43.75 7.21875 C 52.71875 7.21875 59.5 15.96875 59.5 26.46875 Z M 59.0625 39.375 "/>
<path style=" stroke:none;fill-rule:nonzero;fill:rgb(255,255,255);fill-opacity:1;" d="M 28.4375 30.40625 L 32.15625 30.40625 L 32.15625 32.375 L 28.4375 32.375 Z M 28.4375 30.40625 "/>
<path style=" stroke:none;fill-rule:nonzero;fill:rgb(57,171,255);fill-opacity:1;" d="M 55.78125 24.5 C 55.78125 29.75 51.625 33.90625 46.375 33.90625 C 41.125 33.90625 36.96875 29.75 36.96875 24.5 C 36.96875 19.25 41.125 15.09375 46.375 15.09375 C 51.40625 15.09375 55.78125 19.25 55.78125 24.5 "/>
<path style=" stroke:none;fill-rule:nonzero;fill:rgb(57,171,255);fill-opacity:1;" d="M 53.15625 37.1875 L 46.375 46.8125 L 39.375 37.1875 L 28.4375 37.1875 L 28.4375 61.25 L 63.4375 61.25 L 63.4375 37.1875 Z M 53.15625 37.1875 "/>
<use xlink:href="#surface20" mask="url(#mask5)"/>
<use xlink:href="#surface23" mask="url(#mask6)"/>
<path style=" stroke:none;fill-rule:nonzero;fill:rgb(0,71,124);fill-opacity:1;" d="M 61.25 35 L 54.6875 35 L 54.6875 30.625 L 56.875 30.625 L 56.875 24.5 C 56.875 17.9375 52.5 12.46875 45.9375 12.46875 C 39.375 12.46875 35 17.9375 35 24.5 L 35 28.4375 L 30.625 28.4375 L 30.625 24.5 C 30.625 15.96875 37.40625 8.96875 45.9375 8.96875 C 54.46875 8.96875 61.25 15.96875 61.25 24.5 Z M 61.25 35 "/>
<use xlink:href="#surface26" mask="url(#mask7)"/>
</g>
</svg>
