<?xml version="1.0" encoding="UTF-8"?>
<svg xmlns="http://www.w3.org/2000/svg" xmlns:xlink="http://www.w3.org/1999/xlink" width="70pt" height="70pt" viewBox="0 0 70 70" version="1.1">
<defs>
<filter id="alpha" filterUnits="objectBoundingBox" x="0%" y="0%" width="100%" height="100%">
  <feColorMatrix type="matrix" in="SourceGraphic" values="0 0 0 0 1 0 0 0 0 1 0 0 0 0 1 0 0 0 1 0"/>
</filter>
<mask id="mask0">
  <g filter="url(#alpha)">
<rect x="0" y="0" width="70" height="70" style="fill:rgb(0,0,0);fill-opacity:0.501961;stroke:none;"/>
  </g>
</mask>
<clipPath id="clip1">
  <rect x="0" y="0" width="70" height="70"/>
</clipPath>
<g id="surface5" clip-path="url(#clip1)">
<path style=" stroke:none;fill-rule:nonzero;fill:rgb(255,255,255);fill-opacity:1;" d="M 37.914063 60.597656 C 37.808594 60.597656 37.699219 60.570313 37.597656 60.515625 C 37.40625 60.402344 37.289063 60.203125 37.289063 59.972656 L 37.289063 36.347656 C 37.289063 36.125 37.40625 35.917969 37.597656 35.804688 L 58.121094 23.960938 C 58.320313 23.851563 58.550781 23.851563 58.75 23.960938 C 58.9375 24.070313 59.054688 24.277344 59.054688 24.5 L 59.054688 48.125 C 59.054688 48.351563 58.9375 48.554688 58.75 48.667969 L 38.21875 60.515625 C 38.132813 60.574219 38.019531 60.597656 37.914063 60.597656 "/>
</g>
</defs>
<g id="surface1">
<path style=" stroke:none;fill-rule:nonzero;fill:rgb(3,148,255);fill-opacity:1;" d="M 35.066406 31.707031 C 34.957031 31.707031 34.855469 31.671875 34.757813 31.617188 L 14.164063 19.730469 C 13.964844 19.617188 13.851563 19.410156 13.851563 19.1875 C 13.851563 18.96875 13.964844 18.761719 14.164063 18.652344 L 34.625 6.84375 C 34.820313 6.734375 35.058594 6.734375 35.242188 6.84375 L 55.84375 18.734375 C 56.03125 18.84375 56.152344 19.046875 56.152344 19.269531 C 56.152344 19.496094 56.03125 19.699219 55.84375 19.8125 L 35.375 31.617188 C 35.28125 31.671875 35.175781 31.707031 35.066406 31.707031 "/>
<path style=" stroke:none;fill-rule:nonzero;fill:rgb(57,171,255);fill-opacity:1;" d="M 32.105469 60.597656 C 31.992188 60.597656 31.882813 60.570313 31.789063 60.515625 L 11.257813 48.664063 C 11.058594 48.554688 10.941406 48.351563 10.941406 48.125 L 10.941406 24.347656 C 10.941406 24.125 11.058594 23.917969 11.257813 23.800781 C 11.445313 23.695313 11.6875 23.695313 11.886719 23.800781 L 32.414063 35.652344 C 32.601563 35.765625 32.71875 35.96875 32.71875 36.191406 L 32.71875 59.972656 C 32.71875 60.203125 32.601563 60.402344 32.414063 60.515625 C 32.3125 60.574219 32.207031 60.597656 32.105469 60.597656 "/>
<path style=" stroke:none;fill-rule:nonzero;fill:rgb(57,171,255);fill-opacity:1;" d="M 37.914063 60.597656 C 37.808594 60.597656 37.699219 60.570313 37.597656 60.515625 C 37.40625 60.402344 37.289063 60.203125 37.289063 59.972656 L 37.289063 36.347656 C 37.289063 36.125 37.40625 35.917969 37.597656 35.804688 L 58.121094 23.960938 C 58.320313 23.851563 58.550781 23.851563 58.75 23.960938 C 58.9375 24.070313 59.054688 24.277344 59.054688 24.5 L 59.054688 48.125 C 59.054688 48.351563 58.9375 48.554688 58.75 48.667969 L 38.21875 60.515625 C 38.132813 60.574219 38.019531 60.597656 37.914063 60.597656 "/>
<use xlink:href="#surface5" mask="url(#mask0)"/>
<path style=" stroke:none;fill-rule:nonzero;fill:rgb(0,140,244);fill-opacity:1;" d="M 13.382813 63.238281 C 13.035156 63.238281 12.683594 63.152344 12.363281 62.964844 L 2.78125 57.433594 C 1.167969 56.5 0 54.476563 0 52.613281 L 0 17.386719 C 0 15.523438 1.167969 13.496094 2.78125 12.566406 L 12.363281 7.035156 C 13.339844 6.472656 14.585938 6.808594 15.148438 7.78125 C 15.710938 8.753906 15.375 10 14.402344 10.5625 L 4.820313 16.09375 C 4.480469 16.292969 4.074219 16.992188 4.074219 17.386719 L 4.074219 52.613281 C 4.074219 53.007813 4.480469 53.710938 4.820313 53.90625 L 14.402344 59.4375 C 15.375 60 15.710938 61.246094 15.148438 62.21875 C 14.769531 62.875 14.085938 63.238281 13.382813 63.238281 Z M 13.382813 63.238281 "/>
<path style=" stroke:none;fill-rule:nonzero;fill:rgb(0,140,244);fill-opacity:1;" d="M 56.617188 6.761719 C 56.964844 6.761719 57.316406 6.847656 57.636719 7.035156 L 67.21875 12.566406 C 68.832031 13.5 70 15.523438 70 17.386719 L 70 52.613281 C 70 54.476563 68.832031 56.503906 67.21875 57.433594 L 57.636719 62.964844 C 56.660156 63.527344 55.414063 63.191406 54.851563 62.21875 C 54.289063 61.246094 54.625 60 55.597656 59.4375 L 65.179688 53.90625 C 65.519531 53.707031 65.925781 53.007813 65.925781 52.613281 L 65.925781 17.386719 C 65.925781 16.992188 65.519531 16.289063 65.179688 16.09375 L 55.597656 10.5625 C 54.625 10 54.289063 8.753906 54.851563 7.78125 C 55.230469 7.125 55.914063 6.761719 56.617188 6.761719 Z M 56.617188 6.761719 "/>
</g>
</svg>
