<?xml version="1.0" encoding="UTF-8"?>
<svg xmlns="http://www.w3.org/2000/svg" xmlns:xlink="http://www.w3.org/1999/xlink" width="65pt" height="70pt" viewBox="0 0 65 70" version="1.1">
<defs>
<filter id="alpha" filterUnits="objectBoundingBox" x="0%" y="0%" width="100%" height="100%">
  <feColorMatrix type="matrix" in="SourceGraphic" values="0 0 0 0 1 0 0 0 0 1 0 0 0 0 1 0 0 0 1 0"/>
</filter>
<mask id="mask0">
  <g filter="url(#alpha)">
<rect x="0" y="0" width="65" height="70" style="fill:rgb(0,0,0);fill-opacity:0.8;stroke:none;"/>
  </g>
</mask>
<clipPath id="clip1">
  <rect x="0" y="0" width="65" height="70"/>
</clipPath>
<g id="surface5" clip-path="url(#clip1)">
<path style=" stroke:none;fill-rule:nonzero;fill:rgb(0,93,162);fill-opacity:1;" d="M 53.335938 64.363281 C 54.574219 65.699219 56.308594 66.457031 58.125 66.457031 C 59.941406 66.457031 61.675781 65.699219 62.914063 64.363281 C 64.210938 63.019531 64.910156 61.207031 64.859375 59.339844 C 64.847656 57.480469 64.15625 55.691406 62.914063 54.3125 L 42.363281 33.09375 L 40.417969 35.1875 L 44.167969 39.097656 L 42.5 40.632813 L 38.328125 44.960938 L 37.769531 45.519531 L 36.9375 45.378906 C 36.332031 45.359375 35.726563 45.40625 35.132813 45.519531 Z M 53.335938 64.363281 "/>
</g>
<mask id="mask1">
  <g filter="url(#alpha)">
<rect x="0" y="0" width="65" height="70" style="fill:rgb(0,0,0);fill-opacity:0.8;stroke:none;"/>
  </g>
</mask>
<clipPath id="clip2">
  <rect x="0" y="0" width="65" height="70"/>
</clipPath>
<g id="surface8" clip-path="url(#clip2)">
<path style=" stroke:none;fill-rule:nonzero;fill:rgb(0,93,162);fill-opacity:1;" d="M 26.164063 4.59375 C 22.636719 0.808594 17.351563 -0.773438 12.339844 0.464844 L 20.40625 8.96875 L 18.191406 17.171875 L 10.097656 19.277344 L 2.167969 10.773438 C 0.78125 15.875 2.113281 21.335938 5.691406 25.210938 C 9.253906 29.042969 14.628906 30.578125 19.660156 29.203125 L 19.933594 29.484375 L 23.621094 33.453125 C 23.742188 33.046875 23.792969 32.621094 23.777344 32.199219 L 23.804688 31.503906 L 23.535156 30.941406 L 29.886719 24.480469 L 30.980469 25.753906 L 33.4375 28.445313 L 35.40625 26.378906 L 29.535156 19.863281 C 31.242188 14.535156 29.953125 8.695313 26.164063 4.59375 Z M 26.164063 4.59375 "/>
</g>
</defs>
<g id="surface1">
<path style=" stroke:none;fill-rule:nonzero;fill:rgb(0,145,252);fill-opacity:1;" d="M 55 15.78125 L 55.695313 16.480469 L 59.167969 13.550781 L 65 3.917969 L 63.472656 2.382813 L 54.304688 8.523438 L 51.523438 12.152344 L 52.21875 12.851563 L 34.027344 31.699219 L 30.277344 27.789063 L 26.105469 32.117188 C 26.367188 34.308594 25.65625 36.503906 24.160156 38.117188 C 22.714844 39.707031 20.589844 40.488281 18.464844 40.210938 L 0.0078125 59.199219 L 10.285156 69.949219 L 28.613281 50.824219 C 28.335938 48.605469 29.105469 46.382813 30.695313 44.820313 C 32.140625 43.234375 34.265625 42.453125 36.390625 42.726563 L 40.5625 38.398438 L 36.8125 34.488281 Z M 55 15.78125 "/>
<use xlink:href="#surface5" mask="url(#mask0)"/>
<use xlink:href="#surface8" mask="url(#mask1)"/>
</g>
</svg>
