<?xml version="1.0" encoding="utf-8"?><svg version="1.1" xmlns="http://www.w3.org/2000/svg" xmlns:xlink="http://www.w3.org/1999/xlink" xmlns:xml="http://www.w3.org/XML/1998/namespace" width="70" height="70" viewBox="0, 0, 96, 96"><defs><linearGradient x1="-1032.172" y1="145.312" x2="-1059.213" y2="65.426" gradientUnits="userSpaceOnUse" gradientTransform="matrix(1, 0, 0, -1, 1075, 158)" id="e399c19f-b68f-429d-b176-18c2117ff73c"><stop offset="0%" stop-color="#114A8B" /><stop offset="100%" stop-color="#0669BC" /></linearGradient><linearGradient x1="-1023.725" y1="108.083" x2="-1029.98" y2="105.968" gradientUnits="userSpaceOnUse" gradientTransform="matrix(1, 0, 0, -1, 1075, 158)" id="ac2a6fc2-ca48-4327-9a3c-d4dcc3256e15"><stop offset="0%" stop-opacity="0.3" /><stop offset="7.1%" stop-opacity="0.2" /><stop offset="32.1%" stop-opacity="0.1" /><stop offset="62.3%" stop-opacity="0.05" /><stop offset="100%" stop-opacity="0" /></linearGradient><linearGradient x1="-1027.165" y1="147.642" x2="-997.482" y2="68.561" gradientUnits="userSpaceOnUse" gradientTransform="matrix(1, 0, 0, -1, 1075, 158)" id="a7fee970-a784-4bb1-af8d-63d18e5f7db9"><stop offset="0%" stop-color="#3CCBF4" /><stop offset="100%" stop-color="#2892DF" /></linearGradient></defs><path d="M33.338 6.544 h26.038 l-27.03 80.087 a4.152 4.152 0 0 1 -3.933 2.824 H8.149 a4.145 4.145 0 0 1 -3.928 -5.47 L29.404 9.368 a4.152 4.152 0 0 1 3.934 -2.825 z" style="fill:url(#e399c19f-b68f-429d-b176-18c2117ff73c);" /><path d="M71.175 60.261 h-41.29 a1.911 1.911 0 0 0 -1.305 3.309 l26.532 24.764 a4.171 4.171 0 0 0 2.846 1.121 h23.38 z" style="fill:#0078D4;" /><path d="M33.338 6.544 a4.118 4.118 0 0 0 -3.943 2.879 L4.252 83.917 a4.14 4.14 0 0 0 3.908 5.538 h20.787 a4.443 4.443 0 0 0 3.41 -2.9 l5.014 -14.777 l17.91 16.705 a4.237 4.237 0 0 0 2.666 0.972 H81.24 L71.024 60.261 l-29.781 0.007 L59.47 6.544 z" style="fill:url(#ac2a6fc2-ca48-4327-9a3c-d4dcc3256e15);" /><path d="M66.595 9.364 a4.145 4.145 0 0 0 -3.928 -2.82 H33.648 a4.146 4.146 0 0 1 3.928 2.82 l25.184 74.62 a4.146 4.146 0 0 1 -3.928 5.472 h29.02 a4.146 4.146 0 0 0 3.927 -5.472 z" style="fill:url(#a7fee970-a784-4bb1-af8d-63d18e5f7db9);" /></svg>