<?xml version="1.0" encoding="UTF-8"?>
<svg xmlns="http://www.w3.org/2000/svg" xmlns:xlink="http://www.w3.org/1999/xlink" width="70pt" height="70pt" viewBox="0 0 70 70" version="1.1">
<g id="surface1">
<path style=" stroke:none;fill-rule:nonzero;fill:rgb(57,171,255);fill-opacity:1;" d="M 34.859375 13.300781 C 34.859375 19.792969 29.59375 25.058594 23.101563 25.058594 C 16.605469 25.058594 11.339844 19.792969 11.339844 13.300781 C 11.339844 6.804688 16.605469 1.539063 23.101563 1.539063 C 29.59375 1.539063 34.859375 6.804688 34.859375 13.300781 M 31.410156 28 L 23.101563 39.921875 L 14.789063 28 L 2.800781 28 L 2.800781 57.398438 L 43.398438 57.398438 L 43.398438 28 Z M 31.410156 28 "/>
<path style=" stroke:none;fill-rule:nonzero;fill:rgb(255,255,255);fill-opacity:1;" d="M 57.152344 51.785156 L 50.957031 45.605469 L 40.058594 41.40625 L 36.609375 46.734375 L 32.035156 50.398438 L 26.429688 50.398438 L 28.164063 53.96875 L 34.828125 53.96875 C 39.667969 61.515625 46.027344 67.5625 46.027344 67.5625 C 46.027344 67.5625 52.367188 63.367188 57.226563 56 L 59.457031 56 C 60.304688 54.839844 60.96875 53.554688 61.429688 52.195313 Z M 57.152344 51.785156 "/>
<path style=" stroke:none;fill-rule:nonzero;fill:rgb(255,255,255);fill-opacity:1;" d="M 65.363281 53.199219 L 58.492188 53.199219 L 56.753906 56.765625 L 63.570313 56.765625 Z M 65.363281 53.199219 "/>
<path style=" stroke:none;fill-rule:nonzero;fill:rgb(0,135,236);fill-opacity:1;" d="M 53.925781 36.398438 C 50.539063 36.398438 47.632813 38.53125 46.199219 41.605469 C 44.765625 38.53125 41.863281 36.398438 38.476563 36.398438 C 33.675781 36.398438 29.785156 40.628906 29.785156 45.851563 C 29.785156 47.015625 29.957031 48.191406 30.257813 49.363281 L 25.871094 49.363281 L 27.023438 51.664063 L 35.984375 51.664063 L 40.976563 43.953125 L 46.777344 55.9375 L 52.277344 48.238281 L 56.335938 53.199219 L 61.082031 53.199219 C 62.03125 50.894531 62.621094 48.429688 62.621094 45.851563 C 62.617188 40.628906 58.726563 36.398438 53.925781 36.398438 Z M 53.925781 36.398438 "/>
<path style=" stroke:none;fill-rule:nonzero;fill:rgb(0,80,140);fill-opacity:1;" d="M 64.226563 55.5 L 55.242188 55.5 L 52.398438 52.027344 L 46.394531 60.433594 L 40.683594 48.640625 L 37.238281 53.96875 L 32.074219 53.96875 C 36.582031 62.613281 46.199219 70 46.199219 70 C 46.199219 70 53.746094 65.167969 58.605469 57.804688 L 63.074219 57.804688 Z M 64.226563 55.5 "/>
</g>
</svg>
