<?xml version="1.0" encoding="UTF-8"?>
<svg xmlns="http://www.w3.org/2000/svg" xmlns:xlink="http://www.w3.org/1999/xlink" width="70pt" height="70pt" viewBox="0 0 70 70" version="1.1">
<defs>
<filter id="alpha" filterUnits="objectBoundingBox" x="0%" y="0%" width="100%" height="100%">
  <feColorMatrix type="matrix" in="SourceGraphic" values="0 0 0 0 1 0 0 0 0 1 0 0 0 0 1 0 0 0 1 0"/>
</filter>
<mask id="mask0">
  <g filter="url(#alpha)">
<rect x="0" y="0" width="70" height="70" style="fill:rgb(0%,0%,0%);fill-opacity:0.2;stroke:none;"/>
  </g>
</mask>
<clipPath id="clip1">
  <rect x="0" y="0" width="70" height="70"/>
</clipPath>
<g id="surface5" clip-path="url(#clip1)">
<path style=" stroke:none;fill-rule:nonzero;fill:rgb(100%,100%,100%);fill-opacity:1;" d="M 35 11.632813 C 33.746094 10.355469 32.542969 9.183594 31.394531 8.109375 C 30.242188 7.039063 29.035156 6.125 27.769531 5.359375 C 26.507813 4.597656 25.132813 4 23.652344 3.566406 C 22.171875 3.132813 20.484375 2.917969 18.59375 2.917969 C 16.019531 2.917969 13.601563 3.40625 11.347656 4.386719 C 9.089844 5.367188 7.121094 6.695313 5.433594 8.367188 C 3.746094 10.042969 2.421875 12.015625 1.453125 14.28125 C 0.484375 16.550781 0 18.957031 0 21.511719 C 0 23.996094 0.472656 26.375 1.417969 28.652344 C 2.363281 30.929688 3.703125 32.9375 5.433594 34.667969 L 35 64.203125 Z M 35 11.632813 "/>
</g>
</defs>
<g id="surface1">
<path style=" stroke:none;fill-rule:nonzero;fill:rgb(34.901961%,70.588235%,85.098039%);fill-opacity:1;" d="M 51.40625 2.917969 C 49.515625 2.917969 47.828125 3.132813 46.347656 3.566406 C 44.867188 4 43.492188 4.597656 42.230469 5.359375 C 40.964844 6.125 39.757813 7.039063 38.609375 8.109375 C 37.457031 9.183594 36.253906 10.355469 35 11.632813 C 33.746094 10.355469 32.542969 9.183594 31.394531 8.109375 C 30.242188 7.039063 29.035156 6.125 27.769531 5.359375 C 26.507813 4.597656 25.132813 4 23.652344 3.566406 C 22.171875 3.132813 20.484375 2.917969 18.59375 2.917969 C 16.019531 2.917969 13.601563 3.40625 11.347656 4.386719 C 9.089844 5.367188 7.121094 6.695313 5.433594 8.367188 C 3.746094 10.042969 2.421875 12.015625 1.453125 14.28125 C 0.484375 16.550781 0 18.957031 0 21.511719 C 0 23.996094 0.472656 26.375 1.417969 28.652344 C 2.363281 30.929688 3.703125 32.9375 5.433594 34.667969 L 35 64.203125 L 64.566406 34.671875 C 66.296875 32.9375 67.636719 30.933594 68.582031 28.65625 C 69.527344 26.378906 70 23.996094 70 21.511719 C 70 18.957031 69.515625 16.550781 68.546875 14.28125 C 67.578125 12.015625 66.253906 10.042969 64.566406 8.367188 C 62.878906 6.695313 60.910156 5.367188 58.652344 4.386719 C 56.398438 3.40625 53.980469 2.917969 51.40625 2.917969 Z M 51.40625 2.917969 "/>
<use xlink:href="#surface5" mask="url(#mask0)"/>
<path style=" stroke:none;fill-rule:nonzero;fill:rgb(100%,100%,100%);fill-opacity:1;" d="M 34.464844 48.640625 L 28.796875 28.800781 L 24.234375 37.917969 L 8.75 37.917969 L 5.832031 35 L 22.433594 35 L 29.535156 20.785156 L 35.535156 41.777344 L 40.050781 35 L 49.582031 35 L 49.582031 37.917969 L 41.613281 37.917969 Z M 34.464844 48.640625 "/>
</g>
</svg>
