<?xml version="1.0" encoding="UTF-8"?>
<svg xmlns="http://www.w3.org/2000/svg" xmlns:xlink="http://www.w3.org/1999/xlink" width="70pt" height="70pt" viewBox="0 0 70 70" version="1.1">
<defs>
<filter id="alpha" filterUnits="objectBoundingBox" x="0%" y="0%" width="100%" height="100%">
  <feColorMatrix type="matrix" in="SourceGraphic" values="0 0 0 0 1 0 0 0 0 1 0 0 0 0 1 0 0 0 1 0"/>
</filter>
<mask id="mask0">
  <g filter="url(#alpha)">
<rect x="0" y="0" width="70" height="70" style="fill:rgb(0%,0%,0%);fill-opacity:0.8;stroke:none;"/>
  </g>
</mask>
<clipPath id="clip1">
  <rect x="0" y="0" width="70" height="70"/>
</clipPath>
<g id="surface5" clip-path="url(#clip1)">
<path style=" stroke:none;fill-rule:nonzero;fill:rgb(100%,100%,100%);fill-opacity:1;" d="M 53.199219 2.800781 L 7 2.800781 L 7 67.199219 L 63 67.199219 L 63 12.601563 L 53.199219 12.601563 Z M 53.199219 2.800781 "/>
</g>
</defs>
<g id="surface1">
<path style=" stroke:none;fill-rule:nonzero;fill:rgb(34.901961%,70.588235%,85.098039%);fill-opacity:1;" d="M 63 9.519531 L 53.480469 0 L 4.199219 0 L 4.199219 70 L 65.800781 70 L 65.800781 12.320313 Z M 63 9.519531 "/>
<use xlink:href="#surface5" mask="url(#mask0)"/>
<path style=" stroke:none;fill-rule:nonzero;fill:rgb(34.901961%,70.588235%,85.098039%);fill-opacity:1;" d="M 18.539063 37.34375 C 18.539063 38.855469 18.167969 40.035156 17.421875 40.871094 C 16.671875 41.714844 15.675781 42.132813 14.429688 42.132813 C 13.847656 42.132813 13.371094 42.0625 13 41.925781 L 13 39.933594 C 13.335938 40.164063 13.773438 40.28125 14.308594 40.28125 C 15.71875 40.28125 16.425781 39.1875 16.425781 37.007813 L 16.425781 29.160156 L 18.542969 29.160156 L 18.542969 37.34375 Z M 18.539063 37.34375 "/>
<path style=" stroke:none;fill-rule:nonzero;fill:rgb(34.901961%,70.588235%,85.098039%);fill-opacity:1;" d="M 20.988281 41.410156 L 20.988281 39.230469 C 21.183594 39.410156 21.414063 39.566406 21.6875 39.710938 C 21.957031 39.855469 22.242188 39.972656 22.542969 40.070313 C 22.847656 40.167969 23.148438 40.246094 23.453125 40.300781 C 23.753906 40.351563 24.03125 40.378906 24.289063 40.378906 C 25.175781 40.378906 25.839844 40.230469 26.273438 39.933594 C 26.710938 39.636719 26.929688 39.207031 26.929688 38.644531 C 26.929688 38.34375 26.855469 38.078125 26.710938 37.855469 C 26.566406 37.636719 26.363281 37.429688 26.101563 37.246094 C 25.839844 37.0625 25.53125 36.886719 25.179688 36.714844 C 24.828125 36.546875 24.449219 36.371094 24.046875 36.1875 C 23.613281 35.957031 23.210938 35.722656 22.835938 35.484375 C 22.464844 35.246094 22.136719 34.984375 21.863281 34.699219 C 21.585938 34.410156 21.371094 34.085938 21.210938 33.722656 C 21.054688 33.359375 20.976563 32.9375 20.976563 32.449219 C 20.976563 31.851563 21.113281 31.332031 21.382813 30.890625 C 21.652344 30.449219 22.007813 30.082031 22.449219 29.796875 C 22.890625 29.507813 23.394531 29.296875 23.957031 29.15625 C 24.519531 29.015625 25.097656 28.945313 25.683594 28.945313 C 27.019531 28.945313 27.988281 29.097656 28.601563 29.398438 L 28.601563 31.492188 C 27.875 30.96875 26.945313 30.710938 25.808594 30.710938 C 25.492188 30.710938 25.179688 30.738281 24.871094 30.796875 C 24.558594 30.855469 24.277344 30.953125 24.03125 31.089844 C 23.785156 31.226563 23.585938 31.402344 23.433594 31.613281 C 23.277344 31.828125 23.199219 32.085938 23.199219 32.390625 C 23.199219 32.675781 23.257813 32.917969 23.378906 33.128906 C 23.496094 33.335938 23.667969 33.527344 23.898438 33.695313 C 24.125 33.867188 24.40625 34.035156 24.734375 34.199219 C 25.0625 34.363281 25.445313 34.539063 25.878906 34.726563 C 26.320313 34.960938 26.742188 35.203125 27.136719 35.457031 C 27.53125 35.710938 27.878906 35.992188 28.179688 36.304688 C 28.476563 36.613281 28.714844 36.953125 28.890625 37.328125 C 29.0625 37.707031 29.152344 38.132813 29.152344 38.617188 C 29.152344 39.261719 29.023438 39.808594 28.761719 40.253906 C 28.5 40.695313 28.148438 41.058594 27.707031 41.335938 C 27.265625 41.617188 26.753906 41.816406 26.179688 41.945313 C 25.605469 42.070313 24.996094 42.128906 24.355469 42.128906 C 24.144531 42.128906 23.878906 42.113281 23.566406 42.082031 C 23.257813 42.050781 22.9375 42 22.613281 41.9375 C 22.285156 41.875 21.976563 41.800781 21.6875 41.710938 C 21.394531 41.625 21.164063 41.523438 20.988281 41.410156 Z M 20.988281 41.410156 "/>
<path style=" stroke:none;fill-rule:nonzero;fill:rgb(34.901961%,70.588235%,85.098039%);fill-opacity:1;" d="M 36.753906 42.132813 C 34.914063 42.132813 33.441406 41.535156 32.335938 40.34375 C 31.226563 39.152344 30.675781 37.601563 30.675781 35.691406 C 30.675781 33.640625 31.238281 32.003906 32.367188 30.78125 C 33.492188 29.558594 35.023438 28.949219 36.957031 28.949219 C 38.746094 28.949219 40.191406 29.539063 41.285156 30.726563 C 42.378906 31.914063 42.929688 33.464844 42.929688 35.378906 C 42.929688 37.460938 42.367188 39.109375 41.246094 40.316406 C 40.125 41.527344 38.625 42.132813 36.753906 42.132813 Z M 36.847656 30.804688 C 35.679688 30.804688 34.730469 31.242188 33.996094 32.113281 C 33.265625 32.984375 32.898438 34.132813 32.898438 35.558594 C 32.898438 36.972656 33.253906 38.113281 33.96875 38.980469 C 34.679688 39.847656 35.609375 40.28125 36.761719 40.28125 C 37.984375 40.28125 38.945313 39.867188 39.652344 39.042969 C 40.355469 38.21875 40.710938 37.066406 40.710938 35.582031 C 40.710938 34.058594 40.367188 32.878906 39.683594 32.050781 C 38.996094 31.222656 38.054688 30.804688 36.847656 30.804688 Z M 36.847656 30.804688 "/>
<path style=" stroke:none;fill-rule:nonzero;fill:rgb(34.901961%,70.588235%,85.098039%);fill-opacity:1;" d="M 56.085938 41.917969 L 53.773438 41.917969 L 47.675781 32.539063 C 47.523438 32.304688 47.394531 32.054688 47.292969 31.800781 L 47.242188 31.800781 C 47.289063 32.074219 47.3125 32.65625 47.3125 33.554688 L 47.3125 41.917969 L 45.269531 41.917969 L 45.269531 29.160156 L 47.730469 29.160156 L 53.621094 38.316406 C 53.871094 38.695313 54.03125 38.953125 54.101563 39.097656 L 54.136719 39.097656 C 54.078125 38.761719 54.050781 38.1875 54.050781 37.378906 L 54.050781 29.160156 L 56.085938 29.160156 Z M 56.085938 41.917969 "/>
</g>
</svg>
