<?xml version="1.0" encoding="UTF-8"?>
<svg xmlns="http://www.w3.org/2000/svg" xmlns:xlink="http://www.w3.org/1999/xlink" width="70pt" height="70pt" viewBox="0 0 70 70" version="1.1">
<g id="surface1">
<path style=" stroke:none;fill-rule:nonzero;fill:rgb(115,195,255);fill-opacity:1;" d="M 7 7 L 23.800781 7 L 23.800781 23.800781 L 7 23.800781 Z M 26.601563 7 L 43.398438 7 L 43.398438 23.800781 L 26.601563 23.800781 Z M 46.199219 7 L 63 7 L 63 23.800781 L 46.199219 23.800781 Z M 7 26.601563 L 23.800781 26.601563 L 23.800781 43.398438 L 7 43.398438 Z M 26.601563 26.601563 L 43.398438 26.601563 L 43.398438 43.398438 L 26.601563 43.398438 Z M 46.199219 26.601563 L 63 26.601563 L 63 43.398438 L 46.199219 43.398438 Z M 7 46.199219 L 23.800781 46.199219 L 23.800781 63 L 7 63 Z M 26.601563 46.199219 L 43.398438 46.199219 L 43.398438 63 L 26.601563 63 Z M 46.199219 46.199219 L 63 46.199219 L 63 63 L 46.199219 63 Z M 46.199219 46.199219 "/>
</g>
</svg>
