<?xml version="1.0" encoding="UTF-8" standalone="no"?>
<!-- Generator: Adobe Illustrator 21.1.0, SVG Export Plug-In . SVG Version: 6.00 Build 0)  -->

<svg
   xmlns:dc="http://purl.org/dc/elements/1.1/"
   xmlns:cc="http://creativecommons.org/ns#"
   xmlns:rdf="http://www.w3.org/1999/02/22-rdf-syntax-ns#"
   xmlns:svg="http://www.w3.org/2000/svg"
   xmlns="http://www.w3.org/2000/svg"
   xmlns:sodipodi="http://sodipodi.sourceforge.net/DTD/sodipodi-0.dtd"
   xmlns:inkscape="http://www.inkscape.org/namespaces/inkscape"
   version="1.1"
   id="Layer_1"
   x="0px"
   y="0px"
   width="24"
   height="24"
   viewBox="0 0 24 24"
   enable-background="new 0 0 24 24"
   xml:space="preserve"
   sodipodi:docname="ActiveDirectoryB2C_COLOR.svg"
   inkscape:version="0.92.2 (5c3e80d, 2017-08-06)"><metadata
     id="metadata37"><rdf:RDF><cc:Work
         rdf:about=""><dc:format>image/svg+xml</dc:format><dc:type
           rdf:resource="http://purl.org/dc/dcmitype/StillImage" /></cc:Work></rdf:RDF></metadata><defs
     id="defs35" /><sodipodi:namedview
     pagecolor="#ffffff"
     bordercolor="#666666"
     borderopacity="1"
     objecttolerance="10"
     gridtolerance="10"
     guidetolerance="10"
     inkscape:pageopacity="0"
     inkscape:pageshadow="2"
     inkscape:window-width="640"
     inkscape:window-height="480"
     id="namedview33"
     showgrid="false"
     inkscape:zoom="9.8333333"
     inkscape:cx="12"
     inkscape:cy="12"
     inkscape:window-x="0"
     inkscape:window-y="0"
     inkscape:window-maximized="0"
     inkscape:current-layer="Layer_1" /><path
     d="m 14,20 c 0,-0.409 0.08,-0.803 0.236,-1.17 0.155,-0.359 0.37,-0.678 0.641,-0.949 0.275,-0.274 0.594,-0.489 0.949,-0.643 0.728,-0.311 1.578,-0.315 2.303,-0.019 0.023,-0.024 0.047,-0.048 0.07,-0.071 0.007,-0.007 0.015,-0.015 0.022,-0.021 C 18.219,17.123 18.218,17.119 18.216,17.115 18.072,16.755 18,16.381 18,16 c 0,-0.409 0.08,-0.803 0.236,-1.17 0.155,-0.359 0.37,-0.678 0.641,-0.949 0.275,-0.274 0.594,-0.489 0.949,-0.643 0.742,-0.316 1.609,-0.314 2.344,-0.002 0.243,0.105 0.458,0.246 0.661,0.403 L 23,13.5 11.5,0 0,13.5 11.5,23 14.131,20.826 C 14.053,20.556 14,20.281 14,20 Z"
     id="path2"
     inkscape:connector-curvature="0"
     style="fill:#3c9be4" /><polygon
     enable-background="new    "
     points="0,13.5 11.5,23 11.5,0 "
     id="polygon4"
     style="opacity:0.2;fill:#ffffff" /><circle
     cx="11.5"
     cy="17.5"
     r="1.5"
     id="circle6"
     style="fill:#ffffff" /><circle
     cx="5.5"
     cy="13.5"
     r="1.5"
     id="circle8"
     style="fill:#ffffff" /><circle
     cx="11.5"
     cy="5.5"
     r="1.5"
     id="circle10"
     style="fill:#ffffff" /><rect
     x="5.4005799"
     y="11.29906"
     transform="rotate(-36.869898)"
     enable-background="new    "
     width="1"
     height="10"
     id="rect12"
     style="opacity:0.5;fill:#ffffff" /><rect
     x="-8.6812553"
     y="12.065569"
     transform="rotate(-56.311522)"
     width="1.0000412"
     height="7.2112975"
     id="rect14"
     style="fill:#ffffff;stroke-width:1.00004125" /><rect
     x="-7.5023198"
     y="11.998859"
     transform="rotate(-53.142708)"
     enable-background="new    "
     width="9.9996004"
     height="0.99996001"
     id="rect16"
     style="opacity:0.5;fill:#ffffff;stroke-width:0.99996001" /><rect
     x="-0.1368859"
     y="20.442009"
     transform="rotate(-33.688478)"
     width="7.2112975"
     height="1.0000412"
     id="rect18"
     style="fill:#ffffff;stroke-width:1.00004125" /><rect
     x="11"
     y="5.5"
     width="1"
     height="12"
     id="rect20"
     style="fill:#ffffff" /><circle
     cx="21"
     cy="16"
     r="2"
     id="circle22"
     style="fill:#000c82" /><path
     d="m 14,24 c 0,-1.657 1.343,-3 3,-3 1.657,0 3,1.343 3,3 z"
     id="path24"
     inkscape:connector-curvature="0"
     style="fill:#68217a" /><circle
     cx="17"
     cy="20"
     r="2"
     id="circle26"
     style="fill:#68217a" /><path
     d="m 21,17 c -0.772,0 -1.469,0.3 -2.001,0.779 C 19.609,18.329 20,19.116 20,20 h 4 c 0,-1.657 -1.343,-3 -3,-3 z"
     id="path28"
     inkscape:connector-curvature="0"
     style="fill:#000c82" /><path
     d="m 17.5,15 c 0.279,0 0.536,-0.081 0.76,-0.214 0.154,-0.341 0.358,-0.646 0.617,-0.906 0.028,-0.028 0.062,-0.049 0.092,-0.076 C 18.989,13.707 19,13.605 19,13.5 19,12.672 18.328,12 17.5,12 16.672,12 16,12.672 16,13.5 c 0,0.828 0.672,1.5 1.5,1.5 z"
     id="path30"
     inkscape:connector-curvature="0"
     style="fill:#ffffff" /></svg>