<svg viewBox="0 0 18 18" class="" role="presentation" focusable="false" xmlns="http://www.w3.org/2000/svg" xmlns:xlink="http://www.w3.org/1999/xlink" id="FxSymbol0-08a" data-type="1"><g><path fill="#005ba1" d="M15.111 3.267H5.505v-1.21h9.606a.788.788 0 01.31.063l.859.363a.194.194 0 010 .358l-.859.363a.806.806 0 01-.31.063z"></path><path fill="#0078d4" d="M15.184 10.9l.79 1.957a.379.379 0 01-.443.509l-2.188-.547a1.094 1.094 0 01-.509-.288L5.9 5.6l2.055-2.054 6.988 6.988a1.111 1.111 0 01.241.366z"></path><rect width="6.537" height="18" x="1.601" fill="url(#40fd3475-21aa-4a8a-956c-13a617e3512d)" rx="3.269"></rect><path fill="url(#40fd3475-21aa-4a8a-956c-13a617e3512e)" d="M4.869 18V0a3.269 3.269 0 013.269 3.269v11.462A3.269 3.269 0 014.869 18z"></path><circle cx="4.869" cy="3.12" r="1.408" opacity=".6" class="msportalfx-svg-c01" fill="#ffffff"></circle><path d="M6.277 3.12a1.408 1.408 0 01-1.408 1.408V1.712A1.408 1.408 0 016.277 3.12z" opacity=".5" class="msportalfx-svg-c01" fill="#ffffff"></path></g><defs>
<linearGradient id="40fd3475-21aa-4a8a-956c-13a617e3512d" x1="4.869" x2="4.869" y1="18" gradientUnits="userSpaceOnUse"><stop offset="0" stop-color="#0078d4"></stop><stop offset="1" stop-color="#83b9f9"></stop></linearGradient>
<linearGradient id="40fd3475-21aa-4a8a-956c-13a617e3512e" x1="6.504" x2="6.504" y1="18" gradientUnits="userSpaceOnUse"><stop offset="0" stop-color="#5ea0ef"></stop><stop offset="1" stop-color="#83b9f9"></stop></linearGradient>
</defs>
</svg>