<?xml version="1.0" encoding="UTF-8" standalone="no"?>
<svg
   xmlns:dc="http://purl.org/dc/elements/1.1/"
   xmlns:cc="http://creativecommons.org/ns#"
   xmlns:rdf="http://www.w3.org/1999/02/22-rdf-syntax-ns#"
   xmlns:svg="http://www.w3.org/2000/svg"
   xmlns="http://www.w3.org/2000/svg"
   xmlns:sodipodi="http://sodipodi.sourceforge.net/DTD/sodipodi-0.dtd"
   xmlns:inkscape="http://www.inkscape.org/namespaces/inkscape"
   aria-hidden="true"
   role="presentation"
   version="1.1"
   id="svg27"
   sodipodi:docname="app-service-containers_COLOR.svg"
   width="15.000011"
   height="11.151"
   inkscape:version="0.92.2 (5c3e80d, 2017-08-06)">
  <metadata
     id="metadata33">
    <rdf:RDF>
      <cc:Work
         rdf:about="">
        <dc:format>image/svg+xml</dc:format>
        <dc:type
           rdf:resource="http://purl.org/dc/dcmitype/StillImage" />
      </cc:Work>
    </rdf:RDF>
  </metadata>
  <defs
     id="defs31" />
  <sodipodi:namedview
     pagecolor="#ffffff"
     bordercolor="#666666"
     borderopacity="1"
     objecttolerance="10"
     gridtolerance="10"
     guidetolerance="10"
     inkscape:pageopacity="0"
     inkscape:pageshadow="2"
     inkscape:window-width="640"
     inkscape:window-height="480"
     id="namedview29"
     showgrid="false"
     inkscape:zoom="2.36"
     inkscape:cx="50"
     inkscape:cy="-38.849"
     inkscape:window-x="0"
     inkscape:window-y="0"
     inkscape:window-maximized="0"
     inkscape:current-layer="svg27" />
  <svg
     id="svg-app-service\containers"
     version="1.1"
     width="100%"
     height="100%">
    <polygon
       points="0,7.476 5.982,9.686 6.451,9.861 6.451,9.859 12.987,7.487 12.987,2.148 6.457,0 0,2.147 "
       id="polygon2"
       style="fill:#804998" />
    <polygon
       points="6.458,0.009 12.987,2.159 12.986,7.494 6.458,9.861 "
       style="opacity:0.2;isolation:isolate;fill:#ffffff"
       id="polygon4" />
    <polygon
       points="0.689,2.651 0.956,2.536 0.956,2.324 0.534,2.497 0.535,7.236 0.643,7.284 0.692,7.306 "
       id="polygon6"
       style="opacity:0.5" />
    <polygon
       points="2.352,1.938 2.352,7.876 2.552,7.986 2.552,2.084 3.164,1.826 3.164,1.589 "
       id="polygon8"
       style="opacity:0.5" />
    <polygon
       points="4.393,1.4 4.493,1.37 4.493,1.163 4.187,1.255 3.881,1.346 3.6,1.431 3.6,8.323 3.806,8.385 3.806,1.576 4.087,1.492 "
       id="polygon10"
       style="opacity:0.5" />
    <polygon
       points="5.99,0.641 4.875,1.05 4.875,8.845 5.083,8.944 5.083,1.196 5.99,0.868 "
       id="polygon12"
       style="opacity:0.5" />
    <polygon
       points="1.991,2.245 1.991,2.031 1.782,2.101 1.573,2.171 1.364,2.241 1.364,7.48 1.57,7.549 1.57,2.386 1.779,2.316 1.988,2.247 "
       id="polygon14"
       style="opacity:0.5" />
    <path
       d="M 14.85,9.789 A 1.177,1.177 0 0 0 13.67,8.609 H 13.511 A 3.466,3.466 0 0 0 13.639,7.78 3.137,3.137 0 0 0 7.518,6.792 2.487,2.487 0 0 0 6.818,6.664 2.168,2.168 0 0 0 6.818,11 h 6.95 A 1.212,1.212 0 0 0 14.85,9.789"
       id="path16"
       inkscape:connector-curvature="0"
       style="fill:#59b4d9" />
    <path
       d="m 6.817,11.151 a 2.318,2.318 0 0 1 0,-4.636 2.267,2.267 0 0 1 0.606,0.095 3.262,3.262 0 0 1 3.06,-2.136 3.31,3.31 0 0 1 3.307,3.307 3.163,3.163 0 0 1 -0.088,0.68 1.331,1.331 0 0 1 1.298,1.328 1.362,1.362 0 0 1 -1.219,1.36 z m 0,-4.335 a 2.017,2.017 0 0 0 0,4.034 h 6.949 A 1.059,1.059 0 0 0 14.7,9.789 1.031,1.031 0 0 0 13.67,8.76 H 13.318 L 13.365,8.573 A 3.359,3.359 0 0 0 13.488,7.78 3.01,3.01 0 0 0 10.482,4.774 2.967,2.967 0 0 0 7.66,6.838 L 7.615,6.976 7.476,6.937 A 2.341,2.341 0 0 0 6.817,6.816 Z"
       id="path18"
       inkscape:connector-curvature="0"
       style="fill:#ffffff" />
    <path
       d="M 7.917,11 A 2.167,2.167 0 0 1 8.969,7.366 1.761,1.761 0 0 1 9.669,7.334 3.162,3.162 0 0 1 11.422,4.784 3.005,3.005 0 0 0 10.466,4.625 3.12,3.12 0 0 0 7.5,6.793 2.487,2.487 0 0 0 6.8,6.665 2.168,2.168 0 0 0 6.8,11 Z"
       style="opacity:0.2;isolation:isolate;fill:#ffffff"
       id="path20"
       inkscape:connector-curvature="0" />
    <circle
       cx="6.9169998"
       cy="0.65100002"
       r="0.17299999"
       id="circle22"
       style="opacity:0.4" />
    <circle
       cx="12.506"
       cy="2.447"
       r="0.17299999"
       id="circle24"
       style="opacity:0.4" />
  </svg>
</svg>
