<svg viewBox="0 0 50 50" class="" role="presentation" focusable="false" xmlns="http://www.w3.org/2000/svg" xmlns:xlink="http://www.w3.org/1999/xlink" id="FxSymbol0-09c" data-type="1"><g><title></title><path d="M29.4 47.5c0 1.4-1.1 2.5-2.5 2.5H2.5C1.1 50 0 48.9 0 47.5v-45C0 1.1 1.1 0 2.5 0h24.3c1.4 0 2.5 1.1 2.5 2.5v45z" class="msportalfx-svg-c15" fill="#59b4d9"></path><path d="M4.3 27c0-1.8 1.4-3.2 3.2-3.2h14.6c1.8 0 3.2 1.4 3.2 3.2 0 1.8-1.4 3.2-3.2 3.2H7.5c-1.8 0-3.2-1.4-3.2-3.2z" class="msportalfx-svg-c19" fill="#0072c6"></path><circle cx="7.6" cy="27" r="2.1" class="msportalfx-svg-c13" fill="#b8d432"></circle><path d="M4.3 17.5c0-1.8 1.4-3.2 3.2-3.2h14.6c1.8 0 3.2 1.4 3.2 3.2 0 1.8-1.4 3.2-3.2 3.2H7.5c-1.8 0-3.2-1.4-3.2-3.2z" class="msportalfx-svg-c19" fill="#0072c6"></path><circle cx="7.6" cy="17.5" r="2.1" class="msportalfx-svg-c13" fill="#b8d432"></circle><path d="M4.3 8.1c0-1.8 1.4-3.2 3.2-3.2h14.6c1.8 0 3.2 1.4 3.2 3.2 0 1.8-1.4 3.2-3.2 3.2H7.5c-1.8 0-3.2-1.5-3.2-3.2z" class="msportalfx-svg-c19" fill="#0072c6"></path><circle cx="7.6" cy="8.1" r="2.1" class="msportalfx-svg-c13" fill="#b8d432"></circle><path d="M39 20.4l-2.7.6-3.4 1-.4 1.4v3.8l-1.1 4.1-2.1 2.3-1.4 4.6s2.2 2.3 2.2 2.8c.1.4 1.9 5.2 1.9 5.2l2.1.8h4.3l4.5-.4 4.1-4.1v-4.2l-2.8-6.7-2.1-3.3-.8-2.3-.9-4.5-.8-1.2c.1 0-.6 0-.6.1z" class="msportalfx-svg-c01" fill="#ffffff"></path><path d="M38.9 25.7c-.3-.1-.5-.2-.7-.3-.3-.1-.5-.2-.7-.3-.6-.4-1.1-.6-1.6-.6h-.1c-.2 0-.4 0-.7.1-.5.2-.8.5-1.1.7l-.1.1-.1.1-.1.1c-.1.1-.4.3-.7.5-.3.2-.4.5-.3.8.1.4.4.7 1 1 .2.1.4.3.6.4.1.1.2.2.3.2.2.2.5.4 1.1.4h.1c.5 0 .9-.2 1.3-.4.1-.1.2-.1.4-.2s.5-.3.7-.4c.7-.2 1.3-.7 1.5-1.2.1-.2.1-.5 0-.7-.2.1-.5-.1-.8-.3zm9.9 17.7c-.3-.3-.4-.8-.5-1.3v-.2c-.1-.6-.3-1-.5-1.2-.4-.3-.7-.4-1.2-.3h-.3c-.4.5-1.4 1.1-2.1 1.1h-.3c-.7-.2-1.1-1-1.2-1.8v-.1h-.2c-.4.2-.7.7-.9 1.4-.2.7-.2 1.5-.3 2.5 0 .5-.2 1.1-.4 1.8-.1.3-.2.5-.2.8-.3 1.1-.3 1.9-.1 2.3.4.8 1.1 1.3 2 1.3h.2c1-.1 2-.7 2.8-1.6.7-.8 1.7-1.3 2.5-1.7.3-.2.6-.3.8-.4.5-.3.7-.5.7-.9 0-.5-.2-1-.8-1.7zm-16.9 1.1c-.4-.5-.9-1-1.1-1.5-.4-.8-.8-1.7-1.2-2.3-.5-.6-.9-1-1.4-1h-.3c-.4 0-.7.2-.9.5-.1.2-.3.3-.4.5-.1.2-.3.4-.5.6-.3.3-.7.4-1 .5-.1 0-.1 0-.2.1-.4.1-.7.3-1 .7-.2.3-.1.8-.1 1.3v.2c.1.4.1.9 0 1.3-.3.8-.3 1.4-.2 1.7.1.3.5.5 1 .6.3.1.7.1 1 .1.9.1 1.9.2 2.8.7.9.4 1.8.7 2.6.7.3 0 .5 0 .7-.1 1-.2 1.5-.8 1.6-1.8.1-.5-.3-1.2-1-2.2-.1-.1-.2-.3-.4-.6z" class="msportalfx-svg-c11" fill="#fcd116"></path><path d="M37.3 17.5h-.7c-5.7.5-4.2 6.5-4.3 8.5-.1 1.5-.4 2.6-1.4 4.1-1.2 1.4-2.9 3.7-3.7 6.1-.4 1.1-.6 2.3-.4 3.4-.1 0-.1.1-.1.1-.4.4-.6.8-.9 1.1-.3.3-.7.4-1.1.5-.4.2-.9.4-1.2.9-.3.5-.2 1-.1 1.5s.2 1 .1 1.3c-.3.9-.4 1.5-.1 2 .2.5.7.7 1.3.8 1.1.2 2.6.2 3.8.8l.1-.2-.1.2c1.3.7 2.5.9 3.5.7.7-.2 1.3-.6 1.6-1.3.8 0 1.7-.3 3.1-.4.9-.1 2.1.3 3.5.3 0 .1.1.3.2.4.5 1.1 1.5 1.5 2.6 1.5 1-.1 2.2-.7 3.1-1.8l-.2-.1.2.1c.9-1 2.3-1.5 3.2-2 .5-.3.9-.6.9-1.2 0-.5-.3-1.1-1-1.9-.2-.3-.3-.7-.5-1.3-.1-.5-.2-1.1-.7-1.4-.2-.1-.3-.2-.5-.3.6-1.7.4-3.5-.2-5-.7-1.9-2-3.6-3-4.7-1.1-1.4-2.1-2.7-2.1-4.6-.1-2.6.2-8-4.9-8.1zM38 22c.3 0 .5.1.8.3.3.2.4.4.6.8.1.3.2.6.2 1s-.1.7-.2 1c-.1.2-.2.3-.3.5 0 0-.1 0-.1-.1-.3-.1-.5-.2-.7-.3.1-.1.1-.2.2-.3.1-.2.1-.4.1-.6 0-.2 0-.4-.1-.5-.1-.2-.1-.3-.3-.4s-.2-.2-.4-.2c-.1 0-.2 0-.4.1-.1.1-.2.2-.3.4s-.1.4-.1.6v.3c-.3-.1-.5-.2-.7-.3V24c0-.4.1-.7.2-1 .1-.3.3-.6.6-.8s.6-.2.9-.2zm-4 .3c.2 0 .4.1.5.2.2.2.3.4.5.6s.2.6.2.9v.4h-.1l-.6.3v-.3c0-.2-.1-.3-.1-.4-.1-.1-.1-.2-.2-.3-.1-.1-.2-.1-.2-.1-.1 0-.2.1-.3.1s-.1.2-.2.4 0 .3 0 .5 0 .3.1.4c.1.1.1.2.2.3l-.2.2s-.1.1-.2.1c-.2-.1-.3-.3-.4-.6-.1-.3-.2-.6-.2-.9 0-.3 0-.6.1-.9.1-.3.2-.5.4-.7.2-.1.4-.1.7-.2 0 .1 0 0 0 0zm1.8 2.3c.4 0 1 .1 1.6.6.4.3.7.3 1.4.6.3.1.5.3.6.5s.1.4 0 .6c-.2.4-.7.9-1.4 1.1-.4.1-.7.4-1.1.6s-.8.4-1.4.4c-.5 0-.8-.2-1-.4-.3-.2-.5-.5-.8-.7-.5-.3-.8-.7-.9-1-.1-.3 0-.6.3-.8.3-.2.5-.4.7-.5.1-.1.2-.1.2-.2.2-.2.6-.6 1.1-.8.3.1.5 0 .7 0zm3.1 1.9c-.2 0-.4.1-.6.2s-.5.3-.8.5c-.6.3-1.2.6-1.9.6s-1.2-.3-1.6-.6c-.2-.2-.4-.3-.5-.4l-.2-.2c-.1-.1-.1-.1-.2-.1v.3s.1.1.2.1c.1.1.3.3.5.4.4.3 1 .7 1.7.7s1.4-.3 2-.7c.3-.2.6-.3.8-.5.2-.1.4-.2.5-.2l.1-.1zm.7.9c.5 1.9 1.6 4.7 2.4 6.1.4.7 1.2 2.3 1.5 4.1.2 0 .4 0 .7.1.9-2.3-.7-4.7-1.5-5.4-.3-.3-.3-.4-.2-.4.8.7 1.9 2.1 2.2 3.7.2.7.2 1.5 0 2.3.1 0 .2.1.3.1 1.4.7 1.9 1.3 1.7 2.1h-.2c.2-.6-.2-1.1-1.4-1.7-1.2-.5-2.2-.5-2.4.6v.2c-.1 0-.2.1-.3.1-.6.3-.9.9-1.1 1.6-.2.7-.2 1.6-.3 2.5 0 .5-.2 1.1-.4 1.8-2 1.5-4.9 2.1-7.3.4-.2-.3-.3-.5-.5-.8-.1-.2-.2-.3-.4-.5.2 0 .5 0 .6-.1.2-.1.4-.2.4-.4.1-.4 0-.9-.5-1.6-.5-.6-1.3-1.3-2.4-2.1-.9-.5-1.3-1.2-1.6-1.9s-.2-1.5 0-2.2c.3-1.5 1.2-2.9 1.7-3.8.1-.1.1.2-.5 1.3-.5 1-1.5 3.4-.2 5.2 0-1.3.4-2.6.9-3.9.8-1.7 2.4-4.7 2.5-7.1.1 0 .3.2.4.3.3.2.5.4.8.7.3.2.6.4 1.2.5.6 0 1.1-.2 1.5-.4.4-.2.7-.5 1-.6.6-.1 1.1-.4 1.4-.8zm4 11c.3 0 .6.1.9.2.9.4 1.2.8.9 1.3-.2.4-1.1 1-1.7.9-.6-.2-.9-1.1-.8-1.7 0-.5.3-.7.7-.7zm-1 1.2c.1.8.5 1.7 1.2 1.9.8.2 1.9-.5 2.4-1h.3c.4 0 .8 0 1.1.3.3.2.4.7.5 1.2s.2 1.1.6 1.4c.7.7.9 1.2.9 1.6 0 .3-.2.6-.7.8-.9.5-2.4 1-3.3 2.1-.8 1-1.9 1.5-2.8 1.6s-1.7-.3-2.1-1.2c-.3-.5-.2-1.4.1-2.3.2-.9.6-1.8.6-2.6 0-1 .1-1.8.3-2.5.1-.5.3-1 .9-1.3-.1.1-.1.1 0 0zm-14.7.1h.2c.5.1 1 .4 1.4 1s.8 1.4 1.2 2.3c.3.7 1 1.4 1.6 2.2.6.8 1 1.5 1 2.1-.1 1-.6 1.6-1.5 1.8-.9.2-2.1 0-3.2-.6-1.3-.7-2.9-.6-3.9-.8-.5-.1-.8-.3-1-.6s-.2-.8.2-1.7c.2-.5 0-1 0-1.5-.1-.5-.1-1 .1-1.3.2-.4.5-.6.9-.7.4-.1.9-.3 1.2-.6.3-.4.6-.8.9-1.1.3-.3.5-.5.9-.5z" class="msportalfx-svg-c06" fill="#1e1e1e"></path></g><defs>
</defs>
</svg>