<?xml version="1.0" encoding="UTF-8" standalone="no"?>
<svg
   xmlns:dc="http://purl.org/dc/elements/1.1/"
   xmlns:cc="http://creativecommons.org/ns#"
   xmlns:rdf="http://www.w3.org/1999/02/22-rdf-syntax-ns#"
   xmlns:svg="http://www.w3.org/2000/svg"
   xmlns="http://www.w3.org/2000/svg"
   xmlns:sodipodi="http://sodipodi.sourceforge.net/DTD/sodipodi-0.dtd"
   xmlns:inkscape="http://www.inkscape.org/namespaces/inkscape"
   viewBox="0 0 44.900002 49.900002"
   class=""
   role="presentation"
   focusable="false"
   id="FxSymbol0-096"
   version="1.1"
   sodipodi:docname="Azure Digital Twins_COLOR.svg"
   width="44.900002"
   height="49.900002"
   inkscape:version="0.92.2 (5c3e80d, 2017-08-06)">
  <metadata
     id="metadata35">
    <rdf:RDF>
      <cc:Work
         rdf:about="">
        <dc:format>image/svg+xml</dc:format>
        <dc:type
           rdf:resource="http://purl.org/dc/dcmitype/StillImage" />
      </cc:Work>
    </rdf:RDF>
  </metadata>
  <defs
     id="defs33" />
  <sodipodi:namedview
     pagecolor="#ffffff"
     bordercolor="#666666"
     borderopacity="1"
     objecttolerance="10"
     gridtolerance="10"
     guidetolerance="10"
     inkscape:pageopacity="0"
     inkscape:pageshadow="2"
     inkscape:window-width="640"
     inkscape:window-height="480"
     id="namedview31"
     showgrid="false"
     inkscape:zoom="4.72"
     inkscape:cx="22"
     inkscape:cy="24.9"
     inkscape:window-x="0"
     inkscape:window-y="0"
     inkscape:window-maximized="0"
     inkscape:current-layer="FxSymbol0-096" />
  <g
     id="g28"
     transform="translate(-3)">
    <title
       id="title2" />
    <path
       d="M 31,0 H 3 v 36 h 28 z"
       class="msportalfx-svg-c19"
       id="path4"
       inkscape:connector-curvature="0"
       style="fill:#0072c6" />
    <path
       d="M 18,9 V 46 H 43.901 L 44,9 Z m 23.915,2 V 26 H 19.986 V 11 Z M 19.986,44 V 28 h 21.929 v 16 z"
       class="msportalfx-svg-c19"
       id="path6"
       inkscape:connector-curvature="0"
       style="fill:#0072c6" />
    <circle
       cx="19"
       cy="45"
       r="4.9000001"
       class="msportalfx-svg-c14"
       id="circle8"
       style="fill:#7fba00" />
    <path
       d="m 19,46.9 c -1.048,0 -1.9,-0.853 -1.9,-1.9 0,-1.047 0.853,-1.9 1.9,-1.9 1.047,0 1.9,0.852 1.9,1.9 0,1.048 -0.852,1.9 -1.9,1.9 z"
       class="msportalfx-svg-c01"
       id="path10"
       inkscape:connector-curvature="0"
       style="fill:#ffffff" />
    <circle
       cx="43"
       cy="45"
       r="4.9000001"
       class="msportalfx-svg-c14"
       id="circle12"
       style="fill:#7fba00" />
    <path
       d="m 43,46.9 c -1.048,0 -1.9,-0.853 -1.9,-1.9 0,-1.047 0.853,-1.9 1.9,-1.9 1.047,0 1.9,0.852 1.9,1.9 0,1.048 -0.852,1.9 -1.9,1.9 z"
       class="msportalfx-svg-c01"
       id="path14"
       inkscape:connector-curvature="0"
       style="fill:#ffffff" />
    <circle
       cx="43"
       cy="10"
       r="4.9000001"
       class="msportalfx-svg-c14"
       id="circle16"
       style="fill:#7fba00" />
    <circle
       cx="43"
       cy="10"
       r="1.9"
       class="msportalfx-svg-c01"
       id="circle18"
       style="fill:#ffffff" />
    <circle
       cx="43"
       cy="27"
       r="4.9000001"
       class="msportalfx-svg-c14"
       id="circle20"
       style="fill:#7fba00" />
    <circle
       cx="43"
       cy="27"
       r="1.9"
       class="msportalfx-svg-c01"
       id="circle22"
       style="fill:#ffffff" />
    <path
       d="M 5.901,2.9 H 28.158 V 32.899 H 5.901 Z"
       class="msportalfx-svg-c01"
       id="path24"
       inkscape:connector-curvature="0"
       style="opacity:0.3;fill:#ffffff" />
    <path
       d="M 22.854,11 H 31 V 9 H 22.854 C 22.409,7.336 20.903,6.1 19.1,6.1 c -2.151,0 -3.9,1.75 -3.9,3.9 0,1.766 1.188,3.245 2.801,3.723 v 9.554 C 16.388,23.755 15.2,25.234 15.2,27 c 0,1.766 1.188,3.245 2.801,3.723 L 18,36 h 1.986 V 30.789 A 3.9,3.9 0 0 0 22.854,28 H 31 V 26 H 22.854 A 3.896,3.896 0 0 0 19.986,23.211 V 13.789 A 3.9,3.9 0 0 0 22.854,11 Z"
       class="msportalfx-svg-c21"
       id="path26"
       inkscape:connector-curvature="0"
       style="opacity:0.6;fill:#00188f" />
  </g>
</svg>
