<?xml version="1.0" encoding="UTF-8"?>
<svg xmlns="http://www.w3.org/2000/svg" xmlns:xlink="http://www.w3.org/1999/xlink" width="70pt" height="64pt" viewBox="0 0 70 64" version="1.1">
<defs>
<filter id="alpha" filterUnits="objectBoundingBox" x="0%" y="0%" width="100%" height="100%">
  <feColorMatrix type="matrix" in="SourceGraphic" values="0 0 0 0 1 0 0 0 0 1 0 0 0 0 1 0 0 0 1 0"/>
</filter>
<mask id="mask0">
  <g filter="url(#alpha)">
<rect x="0" y="0" width="70" height="64" style="fill:rgb(0%,0%,0%);fill-opacity:0.101961;stroke:none;"/>
  </g>
</mask>
<clipPath id="clip1">
  <rect x="0" y="0" width="70" height="64"/>
</clipPath>
<g id="surface5" clip-path="url(#clip1)">
<path style=" stroke:none;fill-rule:nonzero;fill:rgb(100%,100%,100%);fill-opacity:1;" d="M 1.679688 2.78125 C 0.699219 2.78125 0 3.476563 0 4.453125 L 0 37.84375 C 0 38.816406 0.699219 39.511719 1.679688 39.511719 L 17.78125 39.511719 L 36.679688 2.78125 Z M 1.679688 2.78125 "/>
</g>
<mask id="mask1">
  <g filter="url(#alpha)">
<rect x="0" y="0" width="70" height="64" style="fill:rgb(0%,0%,0%);fill-opacity:0.101961;stroke:none;"/>
  </g>
</mask>
<clipPath id="clip2">
  <rect x="0" y="0" width="70" height="64"/>
</clipPath>
<g id="surface8" clip-path="url(#clip2)">
<path style=" stroke:none;fill-rule:nonzero;fill:rgb(100%,100%,100%);fill-opacity:1;" d="M 15.679688 16.695313 C 14.699219 16.695313 14 17.390625 14 18.363281 L 14 51.757813 C 14 52.730469 14.699219 53.425781 15.679688 53.425781 L 31.78125 53.425781 L 50.679688 16.695313 Z M 15.679688 16.695313 "/>
</g>
<mask id="mask2">
  <g filter="url(#alpha)">
<rect x="0" y="0" width="70" height="64" style="fill:rgb(0%,0%,0%);fill-opacity:0.14902;stroke:none;"/>
  </g>
</mask>
<clipPath id="clip3">
  <rect x="0" y="0" width="70" height="64"/>
</clipPath>
<g id="surface11" clip-path="url(#clip3)">
<path style=" stroke:none;fill-rule:nonzero;fill:rgb(100%,100%,100%);fill-opacity:1;" d="M 28 38.398438 L 70 38.398438 L 70 41.183594 L 28 41.183594 Z M 28 38.398438 "/>
</g>
<mask id="mask3">
  <g filter="url(#alpha)">
<rect x="0" y="0" width="70" height="64" style="fill:rgb(0%,0%,0%);fill-opacity:0.101961;stroke:none;"/>
  </g>
</mask>
<clipPath id="clip4">
  <rect x="0" y="0" width="70" height="64"/>
</clipPath>
<g id="surface14" clip-path="url(#clip4)">
<path style=" stroke:none;fill-rule:nonzero;fill:rgb(100%,100%,100%);fill-opacity:1;" d="M 29.679688 30.609375 C 28.699219 30.609375 28 31.304688 28 32.277344 L 28 65.667969 C 28 66.644531 28.699219 67.339844 29.679688 67.339844 L 45.78125 67.339844 L 64.679688 30.609375 Z M 29.679688 30.609375 "/>
</g>
<mask id="mask4">
  <g filter="url(#alpha)">
<rect x="0" y="0" width="70" height="64" style="fill:rgb(0%,0%,0%);fill-opacity:0.6;stroke:none;"/>
  </g>
</mask>
<clipPath id="clip5">
  <rect x="0" y="0" width="70" height="64"/>
</clipPath>
<g id="surface17" clip-path="url(#clip5)">
<path style=" stroke:none;fill-rule:nonzero;fill:rgb(100%,100%,100%);fill-opacity:1;" d="M 46.480469 48 L 63.28125 48 L 63.28125 50.78125 L 46.480469 50.78125 Z M 46.480469 48 "/>
</g>
<mask id="mask5">
  <g filter="url(#alpha)">
<rect x="0" y="0" width="70" height="64" style="fill:rgb(0%,0%,0%);fill-opacity:0.6;stroke:none;"/>
  </g>
</mask>
<clipPath id="clip6">
  <rect x="0" y="0" width="70" height="64"/>
</clipPath>
<g id="surface20" clip-path="url(#clip6)">
<path style=" stroke:none;fill-rule:nonzero;fill:rgb(100%,100%,100%);fill-opacity:1;" d="M 46.480469 58.992188 L 63.28125 58.992188 L 63.28125 61.773438 L 46.480469 61.773438 Z M 46.480469 58.992188 "/>
</g>
</defs>
<g id="surface1">
<path style=" stroke:none;fill-rule:nonzero;fill:rgb(0%,44.705882%,77.647059%);fill-opacity:1;" d="M 0 37.84375 C 0 38.816406 0.699219 39.511719 1.679688 39.511719 L 40.320313 39.511719 C 41.300781 39.511719 42 38.816406 42 37.84375 L 42 10.015625 L 0 10.015625 Z M 0 37.84375 "/>
<path style=" stroke:none;fill-rule:nonzero;fill:rgb(62.745098%,63.137255%,63.529412%);fill-opacity:1;" d="M 40.320313 2.78125 L 1.679688 2.78125 C 0.699219 2.78125 0 3.476563 0 4.453125 L 0 10.574219 L 42 10.574219 L 42 4.453125 C 42 3.476563 41.300781 2.78125 40.320313 2.78125 Z M 40.320313 2.78125 "/>
<use xlink:href="#surface5" mask="url(#mask0)"/>
<path style=" stroke:none;fill-rule:nonzero;fill:rgb(100%,100%,100%);fill-opacity:1;" d="M 7.140625 20.3125 L 6.71875 19.894531 C 6.578125 19.757813 6.578125 19.617188 6.71875 19.476563 L 7.839844 18.503906 C 7.839844 18.503906 7.980469 18.363281 7.980469 18.363281 C 8.121094 18.363281 8.121094 18.363281 8.121094 18.503906 L 11.199219 21.84375 L 16.660156 15.027344 C 16.660156 15.027344 16.800781 14.886719 16.941406 14.886719 C 16.941406 14.886719 17.078125 14.886719 17.078125 14.886719 L 18.339844 15.859375 C 18.339844 15.859375 18.480469 16 18.480469 16 C 18.480469 16.140625 18.480469 16.140625 18.480469 16.140625 L 11.480469 24.90625 Z M 7.140625 20.3125 "/>
<path style=" stroke:none;fill-rule:nonzero;fill:rgb(100%,100%,100%);fill-opacity:1;" d="M 7.140625 31.164063 L 6.71875 30.746094 C 6.578125 30.609375 6.578125 30.46875 6.71875 30.332031 L 7.839844 29.355469 C 7.839844 29.355469 7.980469 29.21875 7.980469 29.21875 C 8.121094 29.21875 8.121094 29.21875 8.121094 29.355469 L 11.199219 32.695313 L 16.660156 25.878906 C 16.660156 25.878906 16.800781 25.738281 16.941406 25.738281 C 16.941406 25.738281 17.078125 25.738281 17.078125 25.738281 L 18.339844 26.714844 C 18.339844 26.714844 18.480469 26.851563 18.480469 26.851563 C 18.480469 26.992188 18.480469 26.992188 18.480469 26.992188 L 11.480469 35.757813 Z M 7.140625 31.164063 "/>
<path style=" stroke:none;fill-rule:nonzero;fill:rgb(22.352941%,60%,77.647059%);fill-opacity:1;" d="M 14 51.757813 C 14 52.730469 14.699219 53.425781 15.679688 53.425781 L 54.320313 53.425781 C 55.300781 53.425781 56 52.730469 56 51.757813 L 56 23.929688 L 14 23.929688 Z M 14 51.757813 "/>
<path style=" stroke:none;fill-rule:nonzero;fill:rgb(62.745098%,63.137255%,63.529412%);fill-opacity:1;" d="M 54.320313 16.695313 L 15.679688 16.695313 C 14.699219 16.695313 14 17.390625 14 18.363281 L 14 24.488281 L 56 24.488281 L 56 18.363281 C 56 17.390625 55.300781 16.695313 54.320313 16.695313 Z M 54.320313 16.695313 "/>
<use xlink:href="#surface8" mask="url(#mask1)"/>
<path style=" stroke:none;fill-rule:nonzero;fill:rgb(100%,100%,100%);fill-opacity:1;" d="M 21.140625 34.226563 L 20.71875 33.808594 C 20.578125 33.667969 20.578125 33.53125 20.71875 33.390625 L 21.839844 32.417969 C 21.839844 32.417969 21.980469 32.277344 21.980469 32.277344 C 22.121094 32.277344 22.121094 32.277344 22.121094 32.417969 L 25.199219 35.757813 L 30.660156 28.9375 C 30.660156 28.9375 30.800781 28.800781 30.941406 28.800781 C 30.941406 28.800781 31.078125 28.800781 31.078125 28.800781 L 32.339844 29.773438 C 32.339844 29.773438 32.480469 29.914063 32.480469 29.914063 C 32.480469 30.050781 32.480469 30.050781 32.480469 30.050781 L 25.480469 38.816406 Z M 21.140625 34.226563 "/>
<path style=" stroke:none;fill-rule:nonzero;fill:rgb(100%,100%,100%);fill-opacity:1;" d="M 21.140625 45.078125 L 20.71875 44.660156 C 20.578125 44.523438 20.578125 44.382813 20.71875 44.242188 L 21.839844 43.269531 C 21.839844 43.269531 21.980469 43.128906 21.980469 43.128906 C 22.121094 43.128906 22.121094 43.128906 22.121094 43.269531 L 25.199219 46.609375 L 30.660156 39.792969 C 30.660156 39.792969 30.800781 39.652344 30.941406 39.652344 C 30.941406 39.652344 31.078125 39.652344 31.078125 39.652344 L 32.339844 40.625 C 32.339844 40.625 32.480469 40.765625 32.480469 40.765625 C 32.480469 40.90625 32.480469 40.90625 32.480469 40.90625 L 25.480469 49.667969 Z M 21.140625 45.078125 "/>
<path style=" stroke:none;fill-rule:nonzero;fill:rgb(34.901961%,70.588235%,85.098039%);fill-opacity:1;" d="M 28 65.667969 C 28 66.644531 28.699219 67.339844 29.679688 67.339844 L 68.320313 67.339844 C 69.300781 67.339844 70 66.644531 70 65.667969 L 70 37.84375 L 28 37.84375 Z M 28 65.667969 "/>
<path style=" stroke:none;fill-rule:nonzero;fill:rgb(62.745098%,63.137255%,63.529412%);fill-opacity:1;" d="M 68.320313 30.609375 L 29.679688 30.609375 C 28.699219 30.609375 28 31.304688 28 32.277344 L 28 38.398438 L 70 38.398438 L 70 32.277344 C 70 31.304688 69.300781 30.609375 68.320313 30.609375 Z M 68.320313 30.609375 "/>
<use xlink:href="#surface11" mask="url(#mask2)"/>
<use xlink:href="#surface14" mask="url(#mask3)"/>
<path style=" stroke:none;fill-rule:nonzero;fill:rgb(100%,100%,100%);fill-opacity:1;" d="M 35.140625 48.140625 L 34.71875 47.722656 C 34.578125 47.582031 34.578125 47.445313 34.71875 47.304688 L 35.839844 46.332031 C 35.839844 46.332031 35.980469 46.191406 35.980469 46.191406 C 36.121094 46.191406 36.121094 46.191406 36.121094 46.332031 L 39.199219 49.667969 L 44.660156 42.851563 C 44.660156 42.851563 44.800781 42.714844 44.941406 42.714844 C 44.941406 42.714844 45.078125 42.714844 45.078125 42.714844 L 46.339844 43.6875 C 46.339844 43.6875 46.480469 43.824219 46.480469 43.824219 C 46.480469 43.964844 46.480469 43.964844 46.480469 43.964844 L 39.480469 52.730469 Z M 35.140625 48.140625 "/>
<use xlink:href="#surface17" mask="url(#mask4)"/>
<path style=" stroke:none;fill-rule:nonzero;fill:rgb(100%,100%,100%);fill-opacity:1;" d="M 35.140625 58.992188 L 34.71875 58.574219 C 34.578125 58.433594 34.578125 58.296875 34.71875 58.15625 L 35.839844 57.183594 C 35.839844 57.183594 35.980469 57.042969 35.980469 57.042969 C 36.121094 57.042969 36.121094 57.042969 36.121094 57.183594 L 39.199219 60.523438 L 44.660156 53.703125 C 44.660156 53.703125 44.800781 53.566406 44.941406 53.566406 C 44.941406 53.566406 45.078125 53.566406 45.078125 53.566406 L 46.339844 54.539063 C 46.339844 54.539063 46.480469 54.679688 46.480469 54.679688 C 46.480469 54.816406 46.480469 54.816406 46.480469 54.816406 L 39.480469 63.582031 Z M 35.140625 58.992188 "/>
<use xlink:href="#surface20" mask="url(#mask5)"/>
</g>
</svg>
