<svg aria-hidden="true" role="presentation">
<defs>
    <style type="text/css">
      <![CDATA[
        .msportalfx-svg-c01{fill:#fff}.msportalfx-svg-c02{fill:#e5e5e5}.msportalfx-svg-c03{fill:#a0a1a2}.msportalfx-svg-c04{fill:#7a7a7a}.msportalfx-svg-c05{fill:#3e3e3e}.msportalfx-svg-c06{fill:#1e1e1e}.msportalfx-svg-c07{fill:#0f0f0f}.msportalfx-svg-c08{fill:#ba141a}.msportalfx-svg-c09{fill:#dd5900}.msportalfx-svg-c10{fill:#ff8c00}.msportalfx-svg-c11{fill:#fcd116}.msportalfx-svg-c12{fill:#fee087}.msportalfx-svg-c13{fill:#b8d432}.msportalfx-svg-c14{fill:#7fba00}.msportalfx-svg-c15{fill:#59b4d9}.msportalfx-svg-c16{fill:#3999c6}.msportalfx-svg-c17{fill:#804998}.msportalfx-svg-c18{fill:#ec008c}.msportalfx-svg-c19{fill:#0072c6}.msportalfx-svg-c20{fill:#68217a}.msportalfx-svg-c21{fill:#00188f}.msportalfx-svg-c22{fill:#e81123}.msportalfx-svg-c23{fill:#cae3f3}.msportalfx-svg-c24{fill:#59aed3}.msportalfx-svg-c25{fill:#4c3b12}.msportalfx-svg-c26{fill:#be9555}.msportalfx-svg-c27{fill:#4f4d52}.msportalfx-svg-c28{fill:#ef6f59}.msportalfx-svg-c29{fill:#f7cb64}.msportalfx-svg-c97{fill:#ffb900}.msportalfx-svg-c98{fill:#00a4ef}.msportalfx-svg-c99{fill:#f25022}
      ]]>
    </style>
  </defs>
<g><title>- Icon - SVG 24x24 Color</title><path d="M20.217 2.907h-3.035a5.169 5.169 0 0 1-1.272 3.396l1.823 3.157 1.255 2.174a5.05 5.05 0 0 1 3.39.636L24 9.46zm-5.41 15.356H9.165a5.215 5.215 0 0 1-2.36 2.984l1.412 2.444h7.566l1.404-2.432a5.216 5.216 0 0 1-2.38-2.996zm-5.48-2.25h5.318a5.2 5.2 0 0 1 2.223-3.55l-2.777-4.81a5.156 5.156 0 0 1-4.188.01l-2.78 4.814a5.199 5.199 0 0 1 2.205 3.536zM6.79 2.907H3.784L0 9.46l1.615 2.797a5.06 5.06 0 0 1 3.395-.62L6.267 9.46l1.812-3.139A5.169 5.169 0 0 1 6.79 2.907z" fill="#59b3d8"></path><circle cx="11.986" cy="2.907" r="2.598" class="msportalfx-svg-c05"></circle><circle cx="19.78" cy="16.763" r="2.598" class="msportalfx-svg-c05"></circle><circle cx="4.192" cy="16.763" r="2.598" class="msportalfx-svg-c05"></circle><path d="M14.807 18.263h-3.284a8.395 8.395 0 0 0 3.514 5.428h.746l1.405-2.432a5.216 5.216 0 0 1-2.38-2.996zm4.973-9.898a8.393 8.393 0 0 0-2.466.37l.419.725 1.255 2.174a5.05 5.05 0 0 1 3.39.636l1.6-2.773a8.348 8.348 0 0 0-4.198-1.132zm-2.912 4.098l-1.602-2.774a8.386 8.386 0 0 0-3.846 6.324h3.225a5.2 5.2 0 0 1 2.223-3.55z" opacity=".2" class="msportalfx-svg-c01"></path></g>
</svg>