<svg aria-hidden="true" role="presentation">
<defs>
    <style type="text/css">
      <![CDATA[
        .msportalfx-svg-c01{fill:#fff}.msportalfx-svg-c02{fill:#e5e5e5}.msportalfx-svg-c03{fill:#a0a1a2}.msportalfx-svg-c04{fill:#7a7a7a}.msportalfx-svg-c05{fill:#3e3e3e}.msportalfx-svg-c06{fill:#1e1e1e}.msportalfx-svg-c07{fill:#0f0f0f}.msportalfx-svg-c08{fill:#ba141a}.msportalfx-svg-c09{fill:#dd5900}.msportalfx-svg-c10{fill:#ff8c00}.msportalfx-svg-c11{fill:#fcd116}.msportalfx-svg-c12{fill:#fee087}.msportalfx-svg-c13{fill:#b8d432}.msportalfx-svg-c14{fill:#7fba00}.msportalfx-svg-c15{fill:#59b4d9}.msportalfx-svg-c16{fill:#3999c6}.msportalfx-svg-c17{fill:#804998}.msportalfx-svg-c18{fill:#ec008c}.msportalfx-svg-c19{fill:#0072c6}.msportalfx-svg-c20{fill:#68217a}.msportalfx-svg-c21{fill:#00188f}.msportalfx-svg-c22{fill:#e81123}.msportalfx-svg-c23{fill:#cae3f3}.msportalfx-svg-c24{fill:#59aed3}.msportalfx-svg-c25{fill:#4c3b12}.msportalfx-svg-c26{fill:#be9555}.msportalfx-svg-c27{fill:#4f4d52}.msportalfx-svg-c28{fill:#ef6f59}.msportalfx-svg-c29{fill:#f7cb64}.msportalfx-svg-c97{fill:#ffb900}.msportalfx-svg-c98{fill:#00a4ef}.msportalfx-svg-c99{fill:#f25022}
      ]]>
    </style>
  </defs>
<g><title></title><path d="M13.7 27.8v5.4L1 22.4h49V6.2C50 2.6 47 0 43.4 0H6.3C2.6 0 0 2.2 0 5.9v5.9h36.6V6.4l12.7 10.8H0v14.9c0 3.7 2.7 7 6.3 7h13.4l11 10.8.1-10.8h12.5c3.7 0 6.7-2.9 6.7-6.6v-4.8H13.7z" class="msportalfx-svg-c10"></path><path d="M6.3 39.2H16l5.7-11.3h-8.1v5.4L1 22.4h23.3l2.8-5.2H0v14.9c0 3.7 2.7 7 6.3 7.1zM35.6 0H6.3C2.6 0 0 2.2 0 5.9v5.9h29.7L35.6 0z" opacity=".2" class="msportalfx-svg-c01"></path></g>
</svg>