<?xml version="1.0" encoding="UTF-8"?>
<svg xmlns="http://www.w3.org/2000/svg" xmlns:xlink="http://www.w3.org/1999/xlink" width="70pt" height="70pt" viewBox="0 0 70 70" version="1.1">
<defs>
<filter id="alpha" filterUnits="objectBoundingBox" x="0%" y="0%" width="100%" height="100%">
  <feColorMatrix type="matrix" in="SourceGraphic" values="0 0 0 0 1 0 0 0 0 1 0 0 0 0 1 0 0 0 1 0"/>
</filter>
<mask id="mask0">
  <g filter="url(#alpha)">
<rect x="0" y="0" width="70" height="70" style="fill:rgb(0%,0%,0%);fill-opacity:0.2;stroke:none;"/>
  </g>
</mask>
<clipPath id="clip1">
  <rect x="0" y="0" width="70" height="70"/>
</clipPath>
<g id="surface5" clip-path="url(#clip1)">
<path style=" stroke:none;fill-rule:nonzero;fill:rgb(100%,100%,100%);fill-opacity:1;" d="M 26.878906 46.898438 C 25.621094 45.640625 24.78125 44.101563 24.359375 42.28125 C 23.238281 37.101563 26.320313 32.058594 31.5 30.941406 C 32.621094 30.660156 33.601563 30.660156 34.578125 30.800781 C 35 26.039063 37.941406 21.699219 42.28125 19.601563 C 41.019531 19.179688 39.621094 18.898438 38.078125 18.898438 C 32.058594 18.898438 26.878906 22.820313 25.058594 28.421875 C 24.078125 28.140625 23.101563 27.859375 21.980469 27.859375 C 16.800781 27.859375 12.601563 32.058594 12.601563 37.378906 C 12.601563 42.699219 16.800781 46.898438 21.980469 46.898438 Z M 26.878906 46.898438 "/>
</g>
</defs>
<g id="surface1">
<path style=" stroke:none;fill-rule:nonzero;fill:rgb(62.745098%,63.137255%,63.529412%);fill-opacity:1;" d="M 28.140625 65.101563 L 4.898438 65.101563 L 4.898438 42 L 9.660156 42 C 9.101563 40.601563 8.820313 39.058594 8.820313 37.378906 C 8.820313 37.378906 8.820313 37.238281 8.820313 37.101563 L 0 37.101563 L 0 70 L 33.039063 70 L 33.039063 50.398438 L 28.140625 50.398438 Z M 28.140625 65.101563 "/>
<path style=" stroke:none;fill-rule:nonzero;fill:rgb(62.745098%,63.137255%,63.529412%);fill-opacity:1;" d="M 60.898438 42 L 65.101563 42 L 65.101563 65.238281 L 41.859375 65.238281 L 41.859375 50.539063 L 36.960938 50.539063 L 36.960938 70 L 70 70 L 70 37.101563 L 59.640625 37.101563 C 60.339844 38.5 60.898438 39.898438 60.898438 41.71875 C 60.898438 41.71875 60.898438 41.859375 60.898438 42 Z M 60.898438 42 "/>
<path style=" stroke:none;fill-rule:nonzero;fill:rgb(62.745098%,63.137255%,63.529412%);fill-opacity:1;" d="M 4.898438 28 L 4.898438 4.898438 L 28.140625 4.898438 L 28.140625 18.339844 C 29.539063 17.21875 31.359375 16.519531 33.039063 16.101563 L 33.039063 0 L 0 0 L 0 32.898438 L 9.519531 32.898438 C 10.21875 31.21875 11.199219 29.398438 12.601563 28.140625 Z M 4.898438 28 "/>
<path style=" stroke:none;fill-rule:nonzero;fill:rgb(62.745098%,63.137255%,63.529412%);fill-opacity:1;" d="M 41.859375 15.539063 L 41.859375 4.898438 L 65.101563 4.898438 L 65.101563 28.140625 L 54.878906 28.140625 C 55.300781 29.539063 55.578125 31.21875 55.578125 32.898438 C 55.578125 32.898438 55.578125 33.039063 55.578125 33.039063 L 70 33.039063 L 70 0 L 36.960938 0 L 36.960938 15.261719 C 37.378906 15.261719 37.660156 15.121094 38.078125 15.121094 C 39.339844 15.261719 40.601563 15.261719 41.859375 15.539063 Z M 41.859375 15.539063 "/>
<path style=" stroke:none;fill-rule:nonzero;fill:rgb(34.901961%,70.588235%,85.098039%);fill-opacity:1;" d="M 57.121094 41.578125 C 57.121094 38.640625 54.738281 36.398438 51.941406 36.398438 C 51.660156 36.398438 51.519531 36.398438 51.238281 36.398438 C 51.519531 35.28125 51.800781 34.019531 51.800781 32.761719 C 51.800781 25.058594 45.640625 18.898438 37.941406 18.898438 C 31.921875 18.898438 26.738281 22.820313 24.921875 28.421875 C 23.941406 28.140625 22.960938 27.859375 21.839844 27.859375 C 16.660156 27.859375 12.460938 32.058594 12.460938 37.378906 C 12.460938 42.699219 16.660156 46.898438 21.839844 46.898438 L 52.359375 46.898438 C 55.019531 46.621094 57.121094 44.378906 57.121094 41.578125 "/>
<use xlink:href="#surface5" mask="url(#mask0)"/>
</g>
</svg>
