<?xml version="1.0" encoding="UTF-8" standalone="no"?>
<!-- Generator: Adobe Illustrator 21.0.0, SVG Export Plug-In . SVG Version: 6.00 Build 0)  -->

<svg
   xmlns:dc="http://purl.org/dc/elements/1.1/"
   xmlns:cc="http://creativecommons.org/ns#"
   xmlns:rdf="http://www.w3.org/1999/02/22-rdf-syntax-ns#"
   xmlns:svg="http://www.w3.org/2000/svg"
   xmlns="http://www.w3.org/2000/svg"
   xmlns:sodipodi="http://sodipodi.sourceforge.net/DTD/sodipodi-0.dtd"
   xmlns:inkscape="http://www.inkscape.org/namespaces/inkscape"
   version="1.1"
   id="Layer_1"
   x="0px"
   y="0px"
   width="50"
   height="40"
   viewBox="0 0 50 40"
   enable-background="new 0 0 50 50"
   xml:space="preserve"
   sodipodi:docname="Azure Analysis Service.svg"
   inkscape:version="0.92.2 (5c3e80d, 2017-08-06)"><metadata
     id="metadata13"><rdf:RDF><cc:Work
         rdf:about=""><dc:format>image/svg+xml</dc:format><dc:type
           rdf:resource="http://purl.org/dc/dcmitype/StillImage" /></cc:Work></rdf:RDF></metadata><defs
     id="defs11" /><sodipodi:namedview
     pagecolor="#ffffff"
     bordercolor="#666666"
     borderopacity="1"
     objecttolerance="10"
     gridtolerance="10"
     guidetolerance="10"
     inkscape:pageopacity="0"
     inkscape:pageshadow="2"
     inkscape:window-width="640"
     inkscape:window-height="480"
     id="namedview9"
     showgrid="false"
     inkscape:zoom="4.72"
     inkscape:cx="25"
     inkscape:cy="20"
     inkscape:window-x="0"
     inkscape:window-y="0"
     inkscape:window-maximized="0"
     inkscape:current-layer="Layer_1" /><g
     id="g6"
     transform="translate(0,-5)"><g
       id="g4"><path
         d="m 39.706,26.725 c 1.444,0 2.614,-1.17 2.614,-2.614 0,-1.444 -1.17,-2.614 -2.614,-2.614 -0.943,0 -1.762,0.504 -2.222,1.252 L 12.897,15.236 c 0.002,-0.038 0.011,-0.074 0.011,-0.112 0,-1.444 -1.171,-2.614 -2.614,-2.614 -1.444,0 -2.614,1.171 -2.614,2.614 0,1.358 1.039,2.461 2.362,2.589 l 2.806,17.727 c -0.925,0.403 -1.573,1.323 -1.573,2.396 0,1.444 1.17,2.614 2.614,2.614 1.444,0 2.614,-1.171 2.614,-2.614 0,-0.21 -0.031,-0.412 -0.078,-0.608 l 21.36,-11.356 c 0.478,0.521 1.158,0.853 1.921,0.853 z M 15.81,36.075 C 15.386,35.613 14.801,35.311 14.141,35.247 L 11.335,17.52 c 0.493,-0.215 0.902,-0.58 1.181,-1.034 l 24.587,7.513 c -0.002,0.038 -0.011,0.074 -0.011,0.112 0,0.21 0.031,0.412 0.078,0.608 z M 14.64,32 h 6.705 L 24,30.588 V 28.013 L 14.008,28.007 Z M 22,43 H 5 V 32 h 6.291 L 10.659,28.005 3,28 V 45 H 24 V 34.334 l -2,1.063 z m 7,-15.07 2,-1.063 V 23.18 L 29,22.569 Z M 29,14 v 5.111 l 2,0.611 V 18 H 48 V 29 H 34.033 l -3.762,2 H 50 V 14.013 Z m -8,6.124 -2,-0.611 V 20 h -6.259 l 0.316,2 H 21 Z M 9.392,20 H 2 V 9 h 17 v 7.055 l 2,0.611 V 5.013 L 0,5 v 17 h 9.708 z"
         id="path2"
         inkscape:connector-curvature="0"
         style="fill:#0072c6" /></g></g></svg>