<?xml version="1.0" encoding="UTF-8" standalone="no"?>
<svg
   xmlns:dc="http://purl.org/dc/elements/1.1/"
   xmlns:cc="http://creativecommons.org/ns#"
   xmlns:rdf="http://www.w3.org/1999/02/22-rdf-syntax-ns#"
   xmlns:svg="http://www.w3.org/2000/svg"
   xmlns="http://www.w3.org/2000/svg"
   xmlns:sodipodi="http://sodipodi.sourceforge.net/DTD/sodipodi-0.dtd"
   xmlns:inkscape="http://www.inkscape.org/namespaces/inkscape"
   id="svg4753"
   version="1.1"
   viewBox="0 0 13.27041 13.22903"
   height="49.999481"
   width="50.15588"
   sodipodi:docname="Azure IoT Hub_COLOR.svg"
   inkscape:version="0.92.2 (5c3e80d, 2017-08-06)">
  <sodipodi:namedview
     pagecolor="#ffffff"
     bordercolor="#666666"
     borderopacity="1"
     objecttolerance="10"
     gridtolerance="10"
     guidetolerance="10"
     inkscape:pageopacity="0"
     inkscape:pageshadow="2"
     inkscape:window-width="640"
     inkscape:window-height="480"
     id="namedview17"
     showgrid="false"
     inkscape:zoom="4.7200486"
     inkscape:cx="25.07794"
     inkscape:cy="24.99974"
     inkscape:window-x="0"
     inkscape:window-y="0"
     inkscape:window-maximized="0"
     inkscape:current-layer="svg4753" />
  <defs
     id="defs4747" />
  <metadata
     id="metadata4750">
    <rdf:RDF>
      <cc:Work
         rdf:about="">
        <dc:format>image/svg+xml</dc:format>
        <dc:type
           rdf:resource="http://purl.org/dc/dcmitype/StillImage" />
        <dc:title />
      </cc:Work>
    </rdf:RDF>
  </metadata>
  <g
     transform="translate(-1.68027,-272.6206)"
     id="layer1">
    <polygon
       style="fill:#b8d432;fill-rule:evenodd;stroke:none;stroke-width:1"
       id="polygon51"
       points="325.8628,236.117 327.9148,234.675 339.0018,250.447 336.9498,251.889 "
       transform="matrix(0.26458333,0,0,0.26458333,-79.312631,212.29848)" />
    <polygon
       style="fill:#b8d432;fill-rule:evenodd;stroke:none;stroke-width:1"
       id="polygon53"
       points="336.959,251.7162 339.136,250.4702 348.948,267.6122 346.771,268.8572 "
       transform="matrix(0.26458333,0,0,0.26458333,-79.312631,212.29848)" />
    <polygon
       style="fill:#b8d432;fill-rule:evenodd;stroke:none;stroke-width:1"
       id="polygon55"
       points="313.8872,252.0643 337.7872,250.0813 337.9952,252.5803 314.0942,254.5643 "
       transform="matrix(0.26458333,0,0,0.26458333,-79.312631,212.29848)" />
    <polygon
       style="fill:#b8d432;fill-rule:evenodd;stroke:none;stroke-width:1"
       id="polygon57"
       points="328.4907,264.5541 336.9037,250.5931 339.0517,251.8871 330.6387,265.8491 "
       transform="matrix(0.26458333,0,0,0.26458333,-79.312631,212.29848)" />
    <path
       style="fill:#0072c6;fill-rule:evenodd;stroke:none;stroke-width:0.26458332"
       id="path59"
       d="m 14.74352,272.6206 h -3.35915 c -0.12436,0 -0.20744,0.0828 -0.20744,0.24871 v 1.20253 c 0,0.12435 0.0828,0.20743 0.20744,0.20743 h 1.90764 v 1.86611 c 0,0.12435 0.0828,0.20743 0.24871,0.20743 h 1.20253 c 0.12436,0 0.20743,-0.0828 0.20743,-0.20743 v -3.31735 c 0,-0.12435 -0.0828,-0.20743 -0.20716,-0.20743"
       inkscape:connector-curvature="0" />
    <path
       style="fill:#0072c6;fill-rule:evenodd;stroke:none;stroke-width:0.26458332"
       id="path61"
       d="m 1.88744,285.84963 h 3.35915 c 0.12435,0 0.20743,-0.0825 0.20743,-0.24844 v -1.20253 c 0,-0.12462 -0.0828,-0.2077 -0.20743,-0.2077 H 3.33894 v -1.86584 c 0,-0.12462 -0.0828,-0.20744 -0.24871,-0.20744 H 1.8877 c -0.12435,0 -0.20743,0.0826 -0.20743,0.20744 v 3.31761 c 0,0.12435 0.0828,0.2069 0.20717,0.2069"
       inkscape:connector-curvature="0" />
    <path
       style="fill:#006dd6;fill-rule:evenodd;stroke:none;stroke-width:0.26458332"
       id="path63"
       d="m 7.23737,273.3672 c 0.71014,0 1.28561,0.57573 1.28561,1.28561 0,0.70988 -0.57547,1.28561 -1.28561,1.28561 -0.71015,0 -1.28561,-0.57573 -1.28561,-1.28561 0,-0.70988 0.57546,-1.28561 1.28561,-1.28561"
       inkscape:connector-curvature="0" />
    <path
       style="fill:#006dd6;fill-rule:evenodd;stroke:none;stroke-width:0.26458332"
       id="path65"
       d="m 10.18165,277.26554 c 0.84746,0 1.53432,0.68713 1.53432,1.53432 0,0.8472 -0.68686,1.53432 -1.53432,1.53432 -0.84746,0 -1.53432,-0.68712 -1.53432,-1.53432 0,-0.84719 0.68686,-1.53432 1.53432,-1.53432"
       inkscape:connector-curvature="0" />
    <path
       style="fill:#006dd6;fill-rule:evenodd;stroke:none;stroke-width:0.26458332"
       id="path67"
       d="m 12.75279,282.15917 c 0.66411,0 1.20253,0.53816 1.20253,1.20253 0,0.66411 -0.53842,1.20253 -1.20253,1.20253 -0.6641,0 -1.20253,-0.53842 -1.20253,-1.20253 0,-0.66437 0.53843,-1.20253 1.20253,-1.20253"
       inkscape:connector-curvature="0" />
    <path
       style="fill:#006dd6;fill-rule:evenodd;stroke:none;stroke-width:0.26458332"
       id="path69"
       d="m 7.9837,281.49538 c 0.57256,0 1.03664,0.46435 1.03664,1.03664 0,0.57256 -0.46408,1.03664 -1.03664,1.03664 -0.57256,0 -1.03664,-0.46408 -1.03664,-1.03664 0,-0.57229 0.46408,-1.03664 1.03664,-1.03664"
       inkscape:connector-curvature="0" />
    <path
       style="fill:#006dd6;fill-rule:evenodd;stroke:none;stroke-width:0.26458332"
       id="path71"
       d="m 3.79508,278.34377 c 0.57256,0 1.03664,0.46408 1.03664,1.03664 0,0.57256 -0.46408,1.03664 -1.03664,1.03664 -0.57255,0 -1.03663,-0.46408 -1.03663,-1.03664 0,-0.57256 0.46408,-1.03664 1.03663,-1.03664"
       inkscape:connector-curvature="0" />
  </g>
</svg>
