<?xml version="1.0" encoding="UTF-8" standalone="no"?>
<svg
   xmlns:dc="http://purl.org/dc/elements/1.1/"
   xmlns:cc="http://creativecommons.org/ns#"
   xmlns:rdf="http://www.w3.org/1999/02/22-rdf-syntax-ns#"
   xmlns:svg="http://www.w3.org/2000/svg"
   xmlns="http://www.w3.org/2000/svg"
   xmlns:sodipodi="http://sodipodi.sourceforge.net/DTD/sodipodi-0.dtd"
   xmlns:inkscape="http://www.inkscape.org/namespaces/inkscape"
   viewBox="0 0 27.988001 32"
   class=""
   role="presentation"
   focusable="false"
   id="FxSymbol0-0ad"
   version="1.1"
   sodipodi:docname="Azure Sentinel_COLOR.svg"
   width="27.988001"
   height="32"
   inkscape:version="0.92.2 (5c3e80d, 2017-08-06)">
  <metadata
     id="metadata19">
    <rdf:RDF>
      <cc:Work
         rdf:about="">
        <dc:format>image/svg+xml</dc:format>
        <dc:type
           rdf:resource="http://purl.org/dc/dcmitype/StillImage" />
      </cc:Work>
    </rdf:RDF>
  </metadata>
  <defs
     id="defs17" />
  <sodipodi:namedview
     pagecolor="#ffffff"
     bordercolor="#666666"
     borderopacity="1"
     objecttolerance="10"
     gridtolerance="10"
     guidetolerance="10"
     inkscape:pageopacity="0"
     inkscape:pageshadow="2"
     inkscape:window-width="640"
     inkscape:window-height="480"
     id="namedview15"
     showgrid="false"
     inkscape:zoom="7.375"
     inkscape:cx="14"
     inkscape:cy="16.001"
     inkscape:window-x="0"
     inkscape:window-y="0"
     inkscape:window-maximized="0"
     inkscape:current-layer="FxSymbol0-0ad" />
  <g
     id="g12"
     transform="translate(0,-0.001)">
    <title
       id="title2" />
    <path
       d="M 13.386,31.611 C 10.248,29.671 0,22.677 0,14.515 V 4.077 L 1.095,3.994 C 5.477,3.721 7.178,2.583 8.678,1.578 9.956,0.739 11.06,0.001 13.999,0.001 c 2.939,0 4.089,0.769 5.301,1.584 1.507,0.998 3.211,2.153 7.593,2.422 l 1.095,0.07 v 10.438 c 0,8.166 -10.249,15.156 -13.39,17.103 l -0.612,0.383 z"
       class="msportalfx-svg-c19"
       id="path4"
       inkscape:connector-curvature="0"
       style="fill:#0072c6" />
    <path
       d="M 9.906,28.386 19.086,2.236 18.943,2.14 C 17.755,1.351 16.734,0.666 13.998,0.666 11.262,0.666 10.285,1.331 9.05,2.147 7.479,3.198 5.699,4.39 1.134,4.659 L 0.665,4.702 v 9.813 c 0,5.63 5.191,10.741 9.24,13.872 z"
       class="msportalfx-svg-c01"
       id="path6"
       inkscape:connector-curvature="0"
       style="opacity:0.15;fill:#ffffff" />
    <path
       d="m 13.999,9.333 h 0.006 a 7.321,7.321 0 0 1 7.289,6.636 l 0.002,0.029 h 3.327 C 24.315,10.365 19.672,5.915 13.99,5.915 8.308,5.915 3.665,10.366 3.358,15.971 l -10e-4,0.027 h 3.327 c 0.347,-3.751 3.479,-6.665 7.291,-6.665 h 0.024 -0.001 z"
       class="msportalfx-svg-c01"
       id="path8"
       inkscape:connector-curvature="0"
       style="fill:#ffffff" />
    <path
       d="m 17.932,16.667 a 3.933,3.933 0 1 1 -7.866,0 3.933,3.933 0 0 1 7.866,0 z"
       class="msportalfx-svg-c01"
       id="path10"
       inkscape:connector-curvature="0"
       style="fill:#ffffff" />
  </g>
</svg>
