<?xml version="1.0" encoding="UTF-8" standalone="no"?>
<!-- Generator: Adobe Illustrator 17.0.1, SVG Export Plug-In . SVG Version: 6.00 Build 0)  -->

<svg
   xmlns:dc="http://purl.org/dc/elements/1.1/"
   xmlns:cc="http://creativecommons.org/ns#"
   xmlns:rdf="http://www.w3.org/1999/02/22-rdf-syntax-ns#"
   xmlns:svg="http://www.w3.org/2000/svg"
   xmlns="http://www.w3.org/2000/svg"
   xmlns:sodipodi="http://sodipodi.sourceforge.net/DTD/sodipodi-0.dtd"
   xmlns:inkscape="http://www.inkscape.org/namespaces/inkscape"
   version="1.1"
   id="Layer_1"
   x="0px"
   y="0px"
   width="37.486"
   height="49.688"
   viewBox="-0.5 0.5 37.486 49.688"
   enable-background="new -0.5 0.5 50 50"
   xml:space="preserve"
   sodipodi:docname="Azure SQL Database_COLOR.svg"
   inkscape:version="0.92.2 (5c3e80d, 2017-08-06)"><metadata
     id="metadata25"><rdf:RDF><cc:Work
         rdf:about=""><dc:format>image/svg+xml</dc:format><dc:type
           rdf:resource="http://purl.org/dc/dcmitype/StillImage" /></cc:Work></rdf:RDF></metadata><defs
     id="defs23" /><sodipodi:namedview
     pagecolor="#ffffff"
     bordercolor="#666666"
     borderopacity="1"
     objecttolerance="10"
     gridtolerance="10"
     guidetolerance="10"
     inkscape:pageopacity="0"
     inkscape:pageshadow="2"
     inkscape:window-width="640"
     inkscape:window-height="480"
     id="namedview21"
     showgrid="false"
     inkscape:zoom="4.72"
     inkscape:cx="18.743"
     inkscape:cy="24.688"
     inkscape:window-x="0"
     inkscape:window-y="0"
     inkscape:window-maximized="0"
     inkscape:current-layer="Layer_1" /><path
     d="m -0.5,7.288 v 36.111 c 0,3.749 8.392,6.789 18.743,6.789 v -42.9 c 0,0 -18.743,0 -18.743,0 z"
     id="path2"
     inkscape:connector-curvature="0"
     style="fill:#0072c6" /><path
     d="m 17.986,50.187 h 0.257 c 10.351,0 18.743,-3.038 18.743,-6.788 V 7.288 h -19 z"
     id="path4"
     inkscape:connector-curvature="0"
     style="fill:#0072c6" /><path
     d="m 17.986,50.187 h 0.257 c 10.351,0 18.743,-3.038 18.743,-6.788 V 7.288 h -19 z"
     id="path6"
     inkscape:connector-curvature="0"
     style="opacity:0.15;fill:#ffffff" /><path
     d="m 36.986,7.288 c 0,3.749 -8.392,6.788 -18.743,6.788 C 7.892,14.076 -0.5,11.037 -0.5,7.288 -0.5,3.539 7.892,0.5 18.243,0.5 c 10.351,0 18.743,3.039 18.743,6.788"
     id="path8"
     inkscape:connector-curvature="0"
     style="fill:#ffffff" /><path
     d="m 33.154,6.897 c 0,2.475 -6.676,4.479 -14.911,4.479 -8.235,0 -14.912,-2.004 -14.912,-4.479 0,-2.474 6.677,-4.479 14.912,-4.479 8.235,0 14.911,2.005 14.911,4.479"
     id="path10"
     inkscape:connector-curvature="0"
     style="fill:#7fba00" /><path
     d="m 30.03,9.634 c 1.952,-0.757 3.125,-1.705 3.125,-2.735 0,-2.475 -6.676,-4.48 -14.912,-4.48 -8.235,0 -14.911,2.005 -14.911,4.48 0,1.03 1.173,1.978 3.125,2.735 2.726,-1.058 6.986,-1.741 11.786,-1.741 4.801,0 9.059,0.683 11.787,1.741"
     id="path12"
     inkscape:connector-curvature="0"
     style="fill:#b8d432" /><path
     d="m 12.29,32.354 c 0,1.122 -0.407,1.991 -1.221,2.607 -0.814,0.616 -1.938,0.924 -3.373,0.924 -1.221,0 -2.241,-0.22 -3.061,-0.66 v -2.64 c 0.946,0.803 1.988,1.205 3.126,1.205 0.55,0 0.975,-0.11 1.275,-0.33 0.3,-0.22 0.45,-0.511 0.45,-0.875 0,-0.357 -0.144,-0.668 -0.433,-0.932 C 8.764,31.389 8.177,31.048 7.292,30.63 5.488,29.784 4.586,28.628 4.586,27.166 c 0,-1.061 0.393,-1.912 1.18,-2.553 0.786,-0.64 1.831,-0.961 3.134,-0.961 1.155,0 2.111,0.152 2.871,0.454 v 2.466 c -0.797,-0.55 -1.705,-0.825 -2.722,-0.825 -0.511,0 -0.915,0.108 -1.212,0.325 -0.297,0.218 -0.445,0.508 -0.445,0.87 0,0.374 0.119,0.681 0.359,0.92 0.239,0.239 0.73,0.535 1.472,0.887 1.106,0.523 1.893,1.053 2.364,1.592 0.468,0.54 0.703,1.211 0.703,2.013 z"
     id="path14"
     inkscape:connector-curvature="0"
     style="fill:#ffffff" /><path
     d="m 25.017,29.682 c 0,1.391 -0.317,2.599 -0.949,3.621 -0.633,1.023 -1.523,1.74 -2.672,2.153 l 3.431,3.176 h -3.464 l -2.45,-2.747 c -1.05,-0.038 -1.998,-0.316 -2.842,-0.833 -0.844,-0.516 -1.496,-1.225 -1.955,-2.124 -0.459,-0.899 -0.689,-1.902 -0.689,-3.007 0,-1.226 0.249,-2.319 0.746,-3.279 0.498,-0.96 1.197,-1.698 2.099,-2.215 0.902,-0.516 1.935,-0.775 3.102,-0.775 1.088,0 2.063,0.25 2.924,0.751 0.86,0.5 1.528,1.212 2.004,2.136 0.477,0.924 0.715,1.972 0.715,3.143 z m -2.804,0.149 c 0,-1.199 -0.261,-2.146 -0.784,-2.842 -0.523,-0.696 -1.237,-1.044 -2.145,-1.044 -0.924,0 -1.663,0.349 -2.219,1.047 -0.555,0.699 -0.833,1.628 -0.833,2.788 0,1.155 0.272,2.077 0.816,2.767 0.545,0.69 1.267,1.035 2.169,1.035 0.919,0 1.647,-0.334 2.186,-1.002 0.54,-0.667 0.81,-1.584 0.81,-2.749 z"
     id="path16"
     inkscape:connector-curvature="0"
     style="fill:#ffffff" /><polygon
     points="33.229,23.851 35.893,23.851 35.893,33.518 40.273,33.518 40.273,35.679 33.229,35.679 "
     id="polygon18"
     style="fill:#ffffff"
     transform="translate(-6.257)" /></svg>