<?xml version="1.0" encoding="UTF-8" standalone="no"?>
<!-- Generator: Adobe Illustrator 17.0.1, SVG Export Plug-In . SVG Version: 6.00 Build 0)  -->

<svg
   xmlns:dc="http://purl.org/dc/elements/1.1/"
   xmlns:cc="http://creativecommons.org/ns#"
   xmlns:rdf="http://www.w3.org/1999/02/22-rdf-syntax-ns#"
   xmlns:svg="http://www.w3.org/2000/svg"
   xmlns="http://www.w3.org/2000/svg"
   xmlns:sodipodi="http://sodipodi.sourceforge.net/DTD/sodipodi-0.dtd"
   xmlns:inkscape="http://www.inkscape.org/namespaces/inkscape"
   version="1.1"
   id="Layer_1"
   x="0px"
   y="0px"
   width="43.300999"
   height="50"
   viewBox="0 0 43.300999 50"
   enable-background="new 0 0 50 50"
   xml:space="preserve"
   sodipodi:docname="Azure Media Services_COLOR.svg"
   inkscape:version="0.92.2 (5c3e80d, 2017-08-06)"><metadata
     id="metadata19"><rdf:RDF><cc:Work
         rdf:about=""><dc:format>image/svg+xml</dc:format><dc:type
           rdf:resource="http://purl.org/dc/dcmitype/StillImage" /></cc:Work></rdf:RDF></metadata><defs
     id="defs17" /><sodipodi:namedview
     pagecolor="#ffffff"
     bordercolor="#666666"
     borderopacity="1"
     objecttolerance="10"
     gridtolerance="10"
     guidetolerance="10"
     inkscape:pageopacity="0"
     inkscape:pageshadow="2"
     inkscape:window-width="640"
     inkscape:window-height="480"
     id="namedview15"
     showgrid="false"
     inkscape:zoom="4.72"
     inkscape:cx="22"
     inkscape:cy="25"
     inkscape:window-x="0"
     inkscape:window-y="0"
     inkscape:window-maximized="0"
     inkscape:current-layer="Layer_1" /><polygon
     points="3,12.5 24.65,0 46.301,12.5 46.301,37.5 24.65,50 3,37.5 "
     id="polygon2"
     style="fill:#3e3e3e"
     transform="translate(-3)" /><path
     enable-background="new    "
     d="M 21.651,50 43.3,37.5 v -25 c 0,0 -17.887,13.62 -21.649,37.5"
     id="path4"
     inkscape:connector-curvature="0"
     style="opacity:0.2;fill:#ffffff" /><path
     d="m 31.172,14.958 c -5.55,-5.526 -14.518,-5.526 -20.074,0 -5.549,5.549 -5.549,14.535 0,20.084 5.549,5.525 14.524,5.525 20.074,0 5.543,-5.545 5.543,-14.531 0,-20.084"
     id="path6"
     inkscape:connector-curvature="0"
     style="fill:#ffffff" /><path
     d="m 29.227,16.903 c -4.474,-4.456 -11.705,-4.456 -16.185,0 -4.473,4.474 -4.473,11.719 0,16.192 4.475,4.456 11.711,4.456 16.185,0 4.47,-4.469 4.47,-11.715 0,-16.192"
     id="path8"
     inkscape:connector-curvature="0"
     style="fill:#59b4d9" /><polygon
     points="20.127,25.015 30.986,25.015 31.029,24.986 20.127,17.816 "
     id="polygon10"
     style="fill:#ffffff"
     transform="translate(-3)" /><polygon
     enable-background="new    "
     points="20.127,32.213 30.986,25.015 20.127,25.015 "
     id="polygon12"
     style="opacity:0.8;fill:#ffffff"
     transform="translate(-3)" /></svg>