<?xml version="1.0" encoding="UTF-8" standalone="no"?>
<svg
   xmlns:dc="http://purl.org/dc/elements/1.1/"
   xmlns:cc="http://creativecommons.org/ns#"
   xmlns:rdf="http://www.w3.org/1999/02/22-rdf-syntax-ns#"
   xmlns:svg="http://www.w3.org/2000/svg"
   xmlns="http://www.w3.org/2000/svg"
   xmlns:sodipodi="http://sodipodi.sourceforge.net/DTD/sodipodi-0.dtd"
   xmlns:inkscape="http://www.inkscape.org/namespaces/inkscape"
   aria-hidden="true"
   role="presentation"
   version="1.1"
   id="svg20"
   sodipodi:docname="AzureHDInsight_COLOR.svg"
   width="24"
   height="23.382"
   inkscape:version="0.92.2 (5c3e80d, 2017-08-06)">
  <metadata
     id="metadata24">
    <rdf:RDF>
      <cc:Work
         rdf:about="">
        <dc:format>image/svg+xml</dc:format>
        <dc:type
           rdf:resource="http://purl.org/dc/dcmitype/StillImage" />
      </cc:Work>
    </rdf:RDF>
  </metadata>
  <sodipodi:namedview
     pagecolor="#ffffff"
     bordercolor="#666666"
     borderopacity="1"
     objecttolerance="10"
     gridtolerance="10"
     guidetolerance="10"
     inkscape:pageopacity="0"
     inkscape:pageshadow="2"
     inkscape:window-width="640"
     inkscape:window-height="480"
     id="namedview22"
     showgrid="false"
     inkscape:zoom="2.36"
     inkscape:cx="50"
     inkscape:cy="-26.309"
     inkscape:window-x="0"
     inkscape:window-y="0"
     inkscape:window-maximized="0"
     inkscape:current-layer="svg20" />
  <defs
     id="defs4">
    <style
       type="text/css"
       id="style2"><![CDATA[
        .msportalfx-svg-c01{fill:#fff}.msportalfx-svg-c02{fill:#e5e5e5}.msportalfx-svg-c03{fill:#a0a1a2}.msportalfx-svg-c04{fill:#7a7a7a}.msportalfx-svg-c05{fill:#3e3e3e}.msportalfx-svg-c06{fill:#1e1e1e}.msportalfx-svg-c07{fill:#0f0f0f}.msportalfx-svg-c08{fill:#ba141a}.msportalfx-svg-c09{fill:#dd5900}.msportalfx-svg-c10{fill:#ff8c00}.msportalfx-svg-c11{fill:#fcd116}.msportalfx-svg-c12{fill:#fee087}.msportalfx-svg-c13{fill:#b8d432}.msportalfx-svg-c14{fill:#7fba00}.msportalfx-svg-c15{fill:#59b4d9}.msportalfx-svg-c16{fill:#3999c6}.msportalfx-svg-c17{fill:#804998}.msportalfx-svg-c18{fill:#ec008c}.msportalfx-svg-c19{fill:#0072c6}.msportalfx-svg-c20{fill:#68217a}.msportalfx-svg-c21{fill:#00188f}.msportalfx-svg-c22{fill:#e81123}.msportalfx-svg-c23{fill:#cae3f3}.msportalfx-svg-c24{fill:#59aed3}.msportalfx-svg-c25{fill:#4c3b12}.msportalfx-svg-c26{fill:#be9555}.msportalfx-svg-c27{fill:#4f4d52}.msportalfx-svg-c28{fill:#ef6f59}.msportalfx-svg-c29{fill:#f7cb64}.msportalfx-svg-c97{fill:#ffb900}.msportalfx-svg-c98{fill:#00a4ef}.msportalfx-svg-c99{fill:#f25022}
      ]]></style>
  </defs>
  <g
     id="g18"
     transform="translate(0,-0.30900002)">
    <title
       id="title6">- Icon - SVG 24x24 Color</title>
    <path
       d="M 20.217,2.907 H 17.182 A 5.169,5.169 0 0 1 15.91,6.303 l 1.823,3.157 1.255,2.174 a 5.05,5.05 0 0 1 3.39,0.636 L 24,9.46 Z m -5.41,15.356 H 9.165 a 5.215,5.215 0 0 1 -2.36,2.984 l 1.412,2.444 h 7.566 l 1.404,-2.432 a 5.216,5.216 0 0 1 -2.38,-2.996 z m -5.48,-2.25 h 5.318 a 5.2,5.2 0 0 1 2.223,-3.55 l -2.777,-4.81 a 5.156,5.156 0 0 1 -4.188,0.01 l -2.78,4.814 a 5.199,5.199 0 0 1 2.205,3.536 z M 6.79,2.907 H 3.784 L 0,9.46 1.615,12.257 A 5.06,5.06 0 0 1 5.01,11.637 L 6.267,9.46 8.079,6.321 A 5.169,5.169 0 0 1 6.79,2.907 Z"
       id="path8"
       inkscape:connector-curvature="0"
       style="fill:#59b3d8" />
    <circle
       cx="11.986"
       cy="2.9070001"
       r="2.598"
       class="msportalfx-svg-c05"
       id="circle10"
       style="fill:#3e3e3e" />
    <circle
       cx="19.780001"
       cy="16.763"
       r="2.598"
       class="msportalfx-svg-c05"
       id="circle12"
       style="fill:#3e3e3e" />
    <circle
       cx="4.1919999"
       cy="16.763"
       r="2.598"
       class="msportalfx-svg-c05"
       id="circle14"
       style="fill:#3e3e3e" />
    <path
       d="m 14.807,18.263 h -3.284 a 8.395,8.395 0 0 0 3.514,5.428 h 0.746 l 1.405,-2.432 a 5.216,5.216 0 0 1 -2.38,-2.996 z M 19.78,8.365 a 8.393,8.393 0 0 0 -2.466,0.37 l 0.419,0.725 1.255,2.174 a 5.05,5.05 0 0 1 3.39,0.636 l 1.6,-2.773 A 8.348,8.348 0 0 0 19.78,8.365 Z m -2.912,4.098 -1.602,-2.774 a 8.386,8.386 0 0 0 -3.846,6.324 h 3.225 a 5.2,5.2 0 0 1 2.223,-3.55 z"
       class="msportalfx-svg-c01"
       id="path16"
       inkscape:connector-curvature="0"
       style="opacity:0.2;fill:#ffffff" />
  </g>
</svg>
