<svg viewBox="0 0 50 50" class="" role="presentation" focusable="false" xmlns:svg="http://www.w3.org/2000/svg" xmlns:xlink="http://www.w3.org/1999/xlink" id="FxSymbol0-03b"><g><title></title><path d="M2 46h46a2 2 0 0 0 2-2V11H0v33a2 2 0 0 0 2 2z" class="msportalfx-svg-c03" fill="#a0a1a2"></path><path d="M0 5.988V11h50V5.988A1.994 1.994 0 0 0 48 4H2C.895 4 0 4.89 0 5.988z" class="msportalfx-svg-c04" fill="#7a7a7a"></path><path d="M4 25h42v7H4zm0-10h42v7H4z" class="msportalfx-svg-c01" fill="#ffffff"></path><path d="M4 35h42v7H4z" class="msportalfx-svg-c13" fill="#b8d432"></path><path opacity=".2" d="M43.6 4H1.988C.89 4 0 4.89 0 5.988V44a2 2 0 0 0 2 2h2L43.6 4z" class="msportalfx-svg-c01" fill="#ffffff"></path><path opacity=".4" d="M12 22v17h11v-4h4v4h11V22z" class="msportalfx-svg-c01" fill="#ffffff"></path><path d="M13 19v19h9V26h6v12h9V19z" class="msportalfx-svg-c19" fill="#0072c6"></path></g></svg>