<?xml version="1.0" encoding="UTF-8" standalone="no"?>
<!-- Generator: Adobe Illustrator 17.0.1, SVG Export Plug-In . SVG Version: 6.00 Build 0)  -->

<svg
   xmlns:dc="http://purl.org/dc/elements/1.1/"
   xmlns:cc="http://creativecommons.org/ns#"
   xmlns:rdf="http://www.w3.org/1999/02/22-rdf-syntax-ns#"
   xmlns:svg="http://www.w3.org/2000/svg"
   xmlns="http://www.w3.org/2000/svg"
   xmlns:sodipodi="http://sodipodi.sourceforge.net/DTD/sodipodi-0.dtd"
   xmlns:inkscape="http://www.inkscape.org/namespaces/inkscape"
   version="1.1"
   id="Layer_1"
   x="0px"
   y="0px"
   width="50"
   height="50"
   viewBox="0 0 50 50"
   enable-background="new 0 0 50 50"
   xml:space="preserve"
   sodipodi:docname="Azure VM Scale Set_COLOR.svg"
   inkscape:version="0.92.2 (5c3e80d, 2017-08-06)"><metadata
     id="metadata45"><rdf:RDF><cc:Work
         rdf:about=""><dc:format>image/svg+xml</dc:format><dc:type
           rdf:resource="http://purl.org/dc/dcmitype/StillImage" /></cc:Work></rdf:RDF></metadata><defs
     id="defs43" /><sodipodi:namedview
     pagecolor="#ffffff"
     bordercolor="#666666"
     borderopacity="1"
     objecttolerance="10"
     gridtolerance="10"
     guidetolerance="10"
     inkscape:pageopacity="0"
     inkscape:pageshadow="2"
     inkscape:window-width="640"
     inkscape:window-height="480"
     id="namedview41"
     showgrid="false"
     inkscape:zoom="4.72"
     inkscape:cx="25"
     inkscape:cy="25.000001"
     inkscape:window-x="0"
     inkscape:window-y="0"
     inkscape:window-maximized="0"
     inkscape:current-layer="Layer_1" /><path
     d="M 35.723,0 H 2.066 C 0.923,0 0.001,1.021 0.001,2.162 v 23.439 c 0,1.134 0.922,2.144 2.066,2.144 h 33.656 c 1.141,0 2.297,-1.01 2.297,-2.144 V 2.162 C 38.02,1.018 36.864,0 35.723,0"
     id="path2"
     inkscape:connector-curvature="0"
     style="fill:#a0a1a2" /><path
     d="M 35.746,0.002 C 35.738,0.002 35.73,0 35.722,0 H 2.066 C 0.922,0.001 0,1.021 0,2.163 v 23.438 c 0,1.134 0.922,2.144 2.066,2.144 h 0.801 z"
     id="path4"
     inkscape:connector-curvature="0"
     style="opacity:0.2;fill:#ffffff" /><polygon
     points="2.882,2.922 35.129,2.875 35.129,24.823 2.882,24.823 "
     id="polygon6"
     style="fill:#59b4d9" /><path
     d="m 19.404,1.591 c 0,0.298 -0.242,0.539 -0.54,0.539 -0.299,0 -0.539,-0.241 -0.539,-0.539 0,-0.298 0.24,-0.539 0.539,-0.539 0.298,0 0.54,0.241 0.54,0.539"
     id="path8"
     inkscape:connector-curvature="0"
     style="fill:#b8d432" /><path
     d="m 19.425,13.209 c -0.035,0 -0.069,-0.011 -0.102,-0.029 L 12.628,9.321 c -0.061,-0.036 -0.1,-0.104 -0.1,-0.175 0,-0.072 0.039,-0.139 0.1,-0.175 l 6.654,-3.834 c 0.062,-0.035 0.138,-0.035 0.2,0 l 6.697,3.861 c 0.062,0.036 0.1,0.103 0.1,0.175 0,0.073 -0.037,0.139 -0.1,0.175 l -6.652,3.833 c -0.032,0.017 -0.065,0.028 -0.102,0.028"
     id="path10"
     inkscape:connector-curvature="0"
     style="fill:#ffffff" /><path
     d="M 41.671,7.456 H 8.015 c -1.144,0 -2.066,1.021 -2.066,2.162 v 23.439 c 0,1.134 0.922,2.144 2.066,2.144 h 33.656 c 1.141,0 2.297,-1.01 2.297,-2.144 V 9.618 C 43.969,8.474 42.813,7.456 41.671,7.456"
     id="path12"
     inkscape:connector-curvature="0"
     style="fill:#a0a1a2" /><path
     d="m 41.695,7.458 c -0.008,0 -0.016,-0.002 -0.024,-0.002 H 8.015 c -1.144,0 -2.066,1.021 -2.066,2.162 v 23.438 c 0,1.134 0.922,2.144 2.066,2.144 h 0.801 z"
     id="path14"
     inkscape:connector-curvature="0"
     style="opacity:0.2;fill:#ffffff" /><polygon
     points="8.83,10.378 41.078,10.331 41.078,32.279 8.83,32.279 "
     id="polygon16"
     style="fill:#59b4d9" /><path
     d="m 25.352,9.047 c 0,0.298 -0.242,0.539 -0.54,0.539 -0.299,0 -0.539,-0.241 -0.539,-0.539 0,-0.298 0.24,-0.539 0.539,-0.539 0.298,0 0.54,0.24 0.54,0.539"
     id="path18"
     inkscape:connector-curvature="0"
     style="fill:#b8d432" /><path
     d="m 25.374,20.664 c -0.035,0 -0.069,-0.011 -0.102,-0.029 l -6.695,-3.859 c -0.061,-0.036 -0.1,-0.104 -0.1,-0.175 0,-0.072 0.039,-0.139 0.1,-0.175 l 6.654,-3.834 c 0.062,-0.035 0.138,-0.035 0.2,0 l 6.697,3.861 c 0.062,0.036 0.1,0.103 0.1,0.175 0,0.073 -0.037,0.139 -0.1,0.175 l -6.652,3.833 c -0.033,0.018 -0.065,0.028 -0.102,0.028"
     id="path20"
     inkscape:connector-curvature="0"
     style="fill:#ffffff" /><path
     d="M 36.636,42.698 H 35.73 26.765 26.297 c 1.242,4.38 -0.427,5.008 -7.737,5.008 V 50 h 9.297 6.788 8.773 v -2.293 c -7.309,-10e-4 -8.026,-0.626 -6.782,-5.009"
     id="path22"
     inkscape:connector-curvature="0"
     style="fill:#7a7a7a" /><path
     d="M 47.703,14.955 H 14.047 c -1.144,0 -2.066,1.021 -2.066,2.162 v 23.439 c 0,1.134 0.922,2.144 2.066,2.144 H 47.703 C 48.844,42.7 50,41.69 50,40.556 V 17.117 c 0,-1.143 -1.156,-2.162 -2.297,-2.162"
     id="path24"
     inkscape:connector-curvature="0"
     style="fill:#a0a1a2" /><path
     d="m 47.727,14.958 c -0.008,0 -0.016,-0.002 -0.024,-0.002 H 14.046 c -1.144,0 -2.066,1.021 -2.066,2.162 v 23.438 c 0,1.134 0.922,2.144 2.066,2.144 h 0.801 z"
     id="path26"
     inkscape:connector-curvature="0"
     style="opacity:0.2;fill:#ffffff" /><polygon
     points="14.862,17.878 47.109,17.83 47.109,39.779 14.862,39.779 "
     id="polygon28"
     style="fill:#59b4d9" /><rect
     x="18.561001"
     y="47.706001"
     width="24.858"
     height="2.2939999"
     id="rect30"
     style="fill:#a0a1a2" /><path
     d="m 31.384,16.546 c 0,0.298 -0.242,0.539 -0.54,0.539 -0.299,0 -0.539,-0.241 -0.539,-0.539 0,-0.298 0.24,-0.539 0.539,-0.539 0.298,0 0.54,0.241 0.54,0.539"
     id="path32"
     inkscape:connector-curvature="0"
     style="fill:#b8d432" /><path
     d="m 31.405,28.164 c -0.035,0 -0.069,-0.011 -0.102,-0.029 l -6.695,-3.859 c -0.061,-0.036 -0.1,-0.104 -0.1,-0.175 0,-0.072 0.039,-0.139 0.1,-0.175 l 6.654,-3.834 c 0.062,-0.035 0.138,-0.035 0.2,0 l 6.697,3.861 c 0.062,0.036 0.1,0.103 0.1,0.175 0,0.073 -0.037,0.139 -0.1,0.175 l -6.652,3.833 c -0.032,0.017 -0.065,0.028 -0.102,0.028"
     id="path34"
     inkscape:connector-curvature="0"
     style="fill:#ffffff" /><path
     d="m 30.443,37.544 c -0.038,0 -0.072,-0.009 -0.102,-0.027 L 23.666,33.67 c -0.065,-0.036 -0.104,-0.101 -0.104,-0.175 v -7.72 c 0,-0.073 0.039,-0.139 0.104,-0.175 0.062,-0.037 0.137,-0.037 0.204,0 l 6.674,3.846 c 0.059,0.038 0.099,0.104 0.099,0.177 v 7.72 c 0,0.074 -0.039,0.139 -0.099,0.175 -0.033,0.017 -0.068,0.026 -0.101,0.026"
     id="path36"
     inkscape:connector-curvature="0"
     style="opacity:0.7;fill:#ffffff" /><path
     d="m 32.333,37.544 c -0.037,0 -0.071,-0.009 -0.105,-0.027 C 32.169,37.481 32.13,37.415 32.13,37.342 V 29.67 c 0,-0.071 0.039,-0.138 0.098,-0.175 l 6.674,-3.845 c 0.064,-0.036 0.138,-0.036 0.201,0 0.064,0.036 0.102,0.102 0.102,0.175 v 7.671 c 0,0.074 -0.039,0.14 -0.102,0.175 l -6.672,3.847 c -0.028,0.017 -0.064,0.026 -0.098,0.026"
     id="path38"
     inkscape:connector-curvature="0"
     style="opacity:0.4;fill:#ffffff" /></svg>