<?xml version="1.0" encoding="UTF-8"?>
<svg xmlns="http://www.w3.org/2000/svg" xmlns:xlink="http://www.w3.org/1999/xlink" width="70pt" height="56pt" viewBox="0 0 70 56" version="1.1">
<defs>
<filter id="alpha" filterUnits="objectBoundingBox" x="0%" y="0%" width="100%" height="100%">
  <feColorMatrix type="matrix" in="SourceGraphic" values="0 0 0 0 1 0 0 0 0 1 0 0 0 0 1 0 0 0 1 0"/>
</filter>
<mask id="mask0">
  <g filter="url(#alpha)">
<rect x="0" y="0" width="70" height="56" style="fill:rgb(0%,0%,0%);fill-opacity:0.501961;stroke:none;"/>
  </g>
</mask>
<clipPath id="clip1">
  <rect x="0" y="0" width="70" height="56"/>
</clipPath>
<g id="surface5" clip-path="url(#clip1)">
<path style=" stroke:none;fill-rule:nonzero;fill:rgb(100%,100%,100%);fill-opacity:1;" d="M 37.914063 53.835938 C 37.746094 53.835938 37.589844 53.773438 37.472656 53.65625 C 37.355469 53.539063 37.289063 53.378906 37.289063 53.214844 L 37.289063 29.585938 C 37.289063 29.363281 37.40625 29.160156 37.597656 29.042969 L 58.121094 17.199219 C 58.316406 17.089844 58.554688 17.089844 58.75 17.199219 C 58.9375 17.3125 59.054688 17.515625 59.054688 17.738281 L 59.054688 41.367188 C 59.058594 41.589844 58.941406 41.792969 58.75 41.90625 L 38.21875 53.753906 C 38.125 53.8125 38.019531 53.839844 37.914063 53.835938 "/>
</g>
</defs>
<g id="surface1">
<path style=" stroke:none;fill-rule:nonzero;fill:rgb(22.352941%,60%,77.647059%);fill-opacity:1;" d="M 35.066406 24.945313 C 34.957031 24.945313 34.851563 24.914063 34.757813 24.855469 L 14.164063 12.96875 C 13.96875 12.859375 13.851563 12.652344 13.851563 12.429688 C 13.851563 12.207031 13.96875 12 14.164063 11.890625 L 34.625 0.0820313 C 34.816406 -0.0273438 35.050781 -0.0273438 35.242188 0.0820313 L 55.84375 11.972656 C 56.035156 12.085938 56.152344 12.289063 56.152344 12.507813 C 56.152344 12.730469 56.035156 12.9375 55.84375 13.050781 L 35.375 24.855469 C 35.28125 24.914063 35.175781 24.945313 35.066406 24.945313 "/>
<path style=" stroke:none;fill-rule:nonzero;fill:rgb(34.901961%,70.588235%,85.098039%);fill-opacity:1;" d="M 32.105469 53.835938 C 31.992188 53.839844 31.882813 53.808594 31.789063 53.753906 L 11.257813 41.90625 C 11.0625 41.796875 10.941406 41.589844 10.941406 41.363281 L 10.941406 17.585938 C 10.941406 17.359375 11.0625 17.152344 11.257813 17.039063 C 11.453125 16.933594 11.691406 16.933594 11.886719 17.039063 L 32.414063 28.890625 C 32.601563 29.003906 32.71875 29.210938 32.71875 29.433594 L 32.71875 53.214844 C 32.71875 53.4375 32.601563 53.640625 32.414063 53.753906 C 32.320313 53.808594 32.214844 53.835938 32.105469 53.835938 M 37.914063 53.835938 C 37.746094 53.835938 37.589844 53.773438 37.472656 53.65625 C 37.355469 53.539063 37.289063 53.378906 37.289063 53.214844 L 37.289063 29.585938 C 37.289063 29.363281 37.40625 29.160156 37.597656 29.042969 L 58.121094 17.199219 C 58.316406 17.089844 58.554688 17.089844 58.75 17.199219 C 58.9375 17.3125 59.054688 17.515625 59.054688 17.738281 L 59.054688 41.367188 C 59.058594 41.589844 58.941406 41.792969 58.75 41.90625 L 38.21875 53.753906 C 38.125 53.8125 38.019531 53.839844 37.914063 53.835938 "/>
<use xlink:href="#surface5" mask="url(#mask0)"/>
<path style=" stroke:none;fill-rule:nonzero;fill:rgb(47.843137%,47.843137%,47.843137%);fill-opacity:1;" d="M 13.382813 56.480469 C 13.023438 56.480469 12.671875 56.382813 12.363281 56.207031 L 2.78125 50.671875 C 1.167969 49.742188 0 47.714844 0 45.855469 L 0 10.625 C 0 8.765625 1.167969 6.738281 2.78125 5.808594 L 12.363281 0.273438 C 13.335938 -0.253906 14.550781 0.0898438 15.101563 1.046875 C 15.652344 2 15.34375 3.222656 14.402344 3.800781 L 4.820313 9.332031 C 4.480469 9.53125 4.074219 10.230469 4.074219 10.625 L 4.074219 45.855469 C 4.074219 46.246094 4.480469 46.949219 4.820313 47.144531 L 14.402344 52.679688 C 15.203125 53.136719 15.59375 54.078125 15.355469 54.972656 C 15.113281 55.863281 14.304688 56.480469 13.382813 56.480469 Z M 56.617188 0 C 56.964844 0 57.316406 0.0898438 57.636719 0.273438 L 67.21875 5.804688 C 68.832031 6.738281 70 8.765625 70 10.625 L 70 45.855469 C 70 47.714844 68.832031 49.742188 67.21875 50.671875 L 57.636719 56.203125 C 56.664063 56.730469 55.449219 56.390625 54.898438 55.433594 C 54.347656 54.476563 54.65625 53.253906 55.597656 52.679688 L 65.179688 47.144531 C 65.519531 46.949219 65.925781 46.246094 65.925781 45.855469 L 65.925781 10.625 C 65.925781 10.230469 65.519531 9.53125 65.179688 9.332031 L 55.597656 3.800781 C 54.796875 3.339844 54.40625 2.398438 54.644531 1.507813 C 54.886719 0.617188 55.695313 -0.00390625 56.617188 0 Z M 56.617188 0 "/>
</g>
</svg>
