<?xml version="1.0" encoding="UTF-8" standalone="no"?>
<!-- Generator: Adobe Illustrator 19.1.0, SVG Export Plug-In . SVG Version: 6.00 Build 0)  -->

<svg
   xmlns:dc="http://purl.org/dc/elements/1.1/"
   xmlns:cc="http://creativecommons.org/ns#"
   xmlns:rdf="http://www.w3.org/1999/02/22-rdf-syntax-ns#"
   xmlns:svg="http://www.w3.org/2000/svg"
   xmlns="http://www.w3.org/2000/svg"
   xmlns:sodipodi="http://sodipodi.sourceforge.net/DTD/sodipodi-0.dtd"
   xmlns:inkscape="http://www.inkscape.org/namespaces/inkscape"
   version="1.1"
   id="Layer_1"
   x="0px"
   y="0px"
   viewBox="0 0 64.026695 59"
   enable-background="new 0 0 64 64"
   xml:space="preserve"
   sodipodi:docname="Azure Functions_COLOR.svg"
   width="64.026695"
   height="59"
   inkscape:version="0.92.2 (5c3e80d, 2017-08-06)"><metadata
     id="metadata17"><rdf:RDF><cc:Work
         rdf:about=""><dc:format>image/svg+xml</dc:format><dc:type
           rdf:resource="http://purl.org/dc/dcmitype/StillImage" /></cc:Work></rdf:RDF></metadata><defs
     id="defs15" /><sodipodi:namedview
     pagecolor="#ffffff"
     bordercolor="#666666"
     borderopacity="1"
     objecttolerance="10"
     gridtolerance="10"
     guidetolerance="10"
     inkscape:pageopacity="0"
     inkscape:pageshadow="2"
     inkscape:window-width="640"
     inkscape:window-height="480"
     id="namedview13"
     showgrid="false"
     inkscape:zoom="3.6875"
     inkscape:cx="32.013349"
     inkscape:cy="29.5"
     inkscape:window-x="0"
     inkscape:window-y="0"
     inkscape:window-maximized="0"
     inkscape:current-layer="Layer_1" /><g
     id="g10"
     transform="translate(0.01334878,-2.5)"><path
       d="m 63.6,32.4 c 0.6,-0.6 0.5,-1.7 0,-2.3 L 60.5,27 46.7,13.6 C 46.1,13 45.2,13 44.5,13.6 v 0 c -0.6,0.6 -0.8,1.7 0,2.3 L 59,30.1 c 0.6,0.6 0.6,1.7 0,2.3 L 44.2,47.1 c -0.6,0.6 -0.6,1.7 0,2.3 v 0 c 0.6,0.6 1.7,0.5 2.2,0 L 60.1,35.8 c 0,0 0,0 0.1,-0.1 z"
       id="path2"
       inkscape:connector-curvature="0"
       style="fill:#3999c6" /><path
       d="m 0.4,32.4 c -0.6,-0.6 -0.5,-1.7 0,-2.3 L 3.5,27 17.3,13.6 c 0.6,-0.6 1.5,-0.6 2.2,0 v 0 c 0.6,0.6 0.8,1.7 0,2.3 L 5.3,30.1 c -0.6,0.6 -0.6,1.7 0,2.3 l 14.5,14.7 c 0.6,0.6 0.6,1.7 0,2.3 v 0 c -0.6,0.6 -1.7,0.5 -2.2,0 L 3.6,36 c 0,0 0,0 -0.1,-0.1 z"
       id="path4"
       inkscape:connector-curvature="0"
       style="fill:#3999c6" /><polygon
       points="17.6,32.1 30.4,32.2 20.4,61.5 48,22.4 34.6,22.4 47.6,2.5 28.1,2.5 "
       id="polygon6"
       style="fill:#fcd116" /><polygon
       enable-background="new    "
       points="37.4,2.5 26.6,27.1 39.4,27.2 20.4,61.5 48,22.4 34.6,22.4 47.6,2.5 "
       id="polygon8"
       style="opacity:0.3;fill:#ff8c00" /></g></svg>