<?xml version="1.0" encoding="UTF-8"?>
<svg xmlns="http://www.w3.org/2000/svg" xmlns:xlink="http://www.w3.org/1999/xlink" width="70pt" height="60pt" viewBox="0 0 70 60" version="1.1">
<g id="surface1">
<path style=" stroke:none;fill-rule:nonzero;fill:rgb(0%,47.058824%,84.313725%);fill-opacity:1;" d="M 43.734375 14.605469 L 21.96875 14.605469 C 20.863281 14.605469 20.132813 15.53125 20.132813 16.421875 L 20.132813 43.234375 C 20.132813 44.332031 21.070313 45.257813 21.96875 45.257813 L 47.613281 45.257813 C 48.722656 45.257813 49.449219 44.332031 49.449219 43.234375 L 49.449219 20.605469 L 43.558594 20.605469 L 43.558594 14.570313 Z M 43.003906 37.78125 L 26.578125 37.78125 L 26.578125 34.695313 L 43.003906 34.695313 Z M 43.003906 32.125 L 26.578125 32.125 L 26.578125 29.039063 L 43.003906 29.039063 Z M 43.003906 26.296875 L 26.578125 26.296875 L 26.578125 23.210938 L 43.003906 23.210938 Z M 43.003906 26.296875 "/>
<path style=" stroke:none;fill-rule:nonzero;fill:rgb(0%,47.058824%,84.313725%);fill-opacity:1;" d="M 52.394531 0 L 17.535156 0 L 0 29.929688 L 17.535156 59.863281 L 52.394531 59.863281 L 69.929688 29.929688 Z M 47.789063 48.171875 L 22.144531 48.171875 C 19.371094 48.171875 17.152344 45.976563 17.152344 43.234375 L 17.152344 16.421875 C 17.152344 13.679688 19.371094 11.484375 22.144531 11.484375 L 45.394531 11.484375 L 52.777344 18.789063 L 52.777344 43.234375 C 52.777344 45.976563 50.558594 48.171875 47.789063 48.171875 Z M 47.789063 48.171875 "/>
</g>
</svg>
