<?xml version="1.0" encoding="UTF-8" standalone="no"?>
<!-- Generator: Adobe Illustrator 17.1.0, SVG Export Plug-In . SVG Version: 6.00 Build 0)  -->

<svg
   xmlns:dc="http://purl.org/dc/elements/1.1/"
   xmlns:cc="http://creativecommons.org/ns#"
   xmlns:rdf="http://www.w3.org/1999/02/22-rdf-syntax-ns#"
   xmlns:svg="http://www.w3.org/2000/svg"
   xmlns="http://www.w3.org/2000/svg"
   xmlns:sodipodi="http://sodipodi.sourceforge.net/DTD/sodipodi-0.dtd"
   xmlns:inkscape="http://www.inkscape.org/namespaces/inkscape"
   version="1.1"
   id="Layer_1"
   x="0px"
   y="0px"
   width="44.799999"
   height="50"
   viewBox="0 0 44.799999 50"
   enable-background="new 0 0 50 50"
   xml:space="preserve"
   sodipodi:docname="Azure Key Vault_COLOR.svg"
   inkscape:version="0.92.2 (5c3e80d, 2017-08-06)"><metadata
     id="metadata13"><rdf:RDF><cc:Work
         rdf:about=""><dc:format>image/svg+xml</dc:format><dc:type
           rdf:resource="http://purl.org/dc/dcmitype/StillImage" /></cc:Work></rdf:RDF></metadata><defs
     id="defs11" /><sodipodi:namedview
     pagecolor="#ffffff"
     bordercolor="#666666"
     borderopacity="1"
     objecttolerance="10"
     gridtolerance="10"
     guidetolerance="10"
     inkscape:pageopacity="0"
     inkscape:pageshadow="2"
     inkscape:window-width="640"
     inkscape:window-height="480"
     id="namedview9"
     showgrid="false"
     inkscape:zoom="4.72"
     inkscape:cx="22.4"
     inkscape:cy="25"
     inkscape:window-x="0"
     inkscape:window-y="0"
     inkscape:window-maximized="0"
     inkscape:current-layer="Layer_1" /><path
     d="m 44.8,27.6 c 0,-7.3 -3.5,-13.7 -8.8,-17.8 0,0.2 0,0.5 0,0.7 0,2.2 -0.6,4.3 -1.5,6.1 2.6,2.9 4.2,6.7 4.2,10.9 0,9 -7.3,16.3 -16.3,16.3 C 13.4,43.8 6.1,36.5 6.1,27.5 6.1,23 7.9,19 10.8,16 10,14.3 9.5,12.4 9.5,10.4 9.5,10 9.5,9.5 9.6,9.1 3.8,13.1 0,19.9 0,27.5 0,40 10,50 22.4,50 34.8,50 44.8,40 44.8,27.6 Z"
     id="path2"
     inkscape:connector-curvature="0"
     style="fill:#7fba00" /><g
     id="g6"
     transform="translate(-2.6)"><path
       d="M 25.3,0 C 19.6,0 15,4.6 15,10.3 c 0,4.7 3.1,8.6 7.4,9.9 v 10.2 h -4.8 v 5.2 h 4.8 v 3.8 h 5.7 V 20.1 c 4.3,-1.2 7.4,-5.2 7.4,-9.9 C 35.6,4.6 31,0 25.3,0 Z m 0,5.4 c 2.7,0 4.9,2.2 4.9,4.9 0,2.7 -2.2,4.9 -4.9,4.9 -2.7,0 -4.9,-2.2 -4.9,-4.9 0,-2.7 2.2,-4.9 4.9,-4.9 z"
       id="path4"
       inkscape:connector-curvature="0"
       style="fill:#fcd116" /></g></svg>