<?xml version="1.0" encoding="UTF-8" standalone="no"?>
<!-- Generator: Adobe Illustrator 19.1.0, SVG Export Plug-In . SVG Version: 6.00 Build 0)  -->

<svg
   xmlns:v="http://schemas.microsoft.com/visio/2003/SVGExtensions/"
   xmlns:dc="http://purl.org/dc/elements/1.1/"
   xmlns:cc="http://creativecommons.org/ns#"
   xmlns:rdf="http://www.w3.org/1999/02/22-rdf-syntax-ns#"
   xmlns:svg="http://www.w3.org/2000/svg"
   xmlns="http://www.w3.org/2000/svg"
   xmlns:sodipodi="http://sodipodi.sourceforge.net/DTD/sodipodi-0.dtd"
   xmlns:inkscape="http://www.inkscape.org/namespaces/inkscape"
   version="1.1"
   id="Layer_1"
   x="0px"
   y="0px"
   viewBox="-226.7 398.7 36.2 34.3"
   style="enable-background:new -226.7 398.7 36.2 34.3;"
   xml:space="preserve"
   sodipodi:docname="Azure Application Gateway.svg"
   inkscape:export-filename="C:\Sources\PlantUML-Azure\Azure Symbols\ManualSource\Azure Application Gateway.png"
   inkscape:export-xdpi="600"
   inkscape:export-ydpi="600"
   inkscape:version="0.92.2 (5c3e80d, 2017-08-06)"><metadata
     id="metadata63"><rdf:RDF><cc:Work
         rdf:about=""><dc:format>image/svg+xml</dc:format><dc:type
           rdf:resource="http://purl.org/dc/dcmitype/StillImage" /></cc:Work></rdf:RDF></metadata><defs
     id="defs61" /><sodipodi:namedview
     pagecolor="#ffffff"
     bordercolor="#666666"
     borderopacity="1"
     objecttolerance="10"
     gridtolerance="10"
     guidetolerance="10"
     inkscape:pageopacity="0"
     inkscape:pageshadow="2"
     inkscape:window-width="1537"
     inkscape:window-height="748"
     id="namedview59"
     showgrid="false"
     inkscape:zoom="1.7201167"
     inkscape:cx="-198.84081"
     inkscape:cy="-110.44502"
     inkscape:window-x="0"
     inkscape:window-y="0"
     inkscape:window-maximized="0"
     inkscape:current-layer="Layer_1" /><style
     type="text/css"
     id="style2">
	.st0{fill:#0078D7;}
	.st1{fill:none;}
</style><v:documentProperties
     v:viewMarkup="false"
     v:langID="1033"><v:userDefs><v:ud
         v:nameU="visTLShowProps"
         v:prompt=""
         v:val="VT0(0):26" /></v:userDefs></v:documentProperties><title
     id="title4">Sheet.169</title><path
     class="st0"
     d="M-197.7,422h-6.2l2.2-2.2l-4.2-4.2v10.1h3.1l-4.4,4.4l-4.4-4.4h3.1v-10l-4.2,4.2l2.2,2.2h-6.2v-6.2l2.2,2.2  l5.3-5.3c-0.8-0.3-1.4-0.9-2-1.6c-1.7-2.3-1.3-5.5,1-7.2c0.9-0.7,2-1.1,3.1-1.1c1.5,0,3.1,0.7,4.1,2c1.7,2.3,1.3,5.5-1,7.2  c-0.3,0.3-0.7,0.5-1,0.6l5.3,5.3l2.2-2.2v6.2H-197.7z M-207.2,433c0.8,0,1.6-0.3,2.2-0.9l13.6-13.5c0.6-0.6,0.9-1.4,0.9-2.2  c0-0.9-0.3-1.6-0.9-2.2l-13.6-13.6c-0.6-0.6-1.4-0.9-2.2-0.9s-1.6,0.3-2.2,0.9l-13.5,13.5c-0.6,0.6-0.9,1.4-0.9,2.2  c0,0.8,0.3,1.6,0.9,2.2l13.5,13.5C-208.8,432.6-208,433-207.2,433z M-210,411.4c0.8,0.7,1.8,1,2.8,1c0.9,0,1.9-0.3,2.7-0.9  c0.1-0.1,0.3-0.2,0.4-0.3c-0.4,0-1,0-1.7-0.2c-0.1,0.1-0.1,0.2-0.2,0.2c-0.4,0.3-0.9,0.2-1.3-0.2c-0.1-0.2-0.2-0.4-0.2-0.6  c-0.4-0.2-0.9-0.5-1.3-0.8c-0.1-0.1-0.3-0.2-0.4-0.3c-0.2,0.1-0.4,0.1-0.6,0.1C-210,410.2-210.1,410.9-210,411.4L-210,411.4z   M-210,411.4C-210.1,411.4-210.1,411.4-210,411.4C-210.1,411.4-210.1,411.4-210,411.4L-210,411.4z M-210.9,410.5  C-210.8,410.6-210.8,410.5-210.9,410.5L-210.9,410.5z M-210.9,410.5c0-0.5,0.1-1,0.3-1.5l-0.1-0.1c-0.4-0.5-0.4-1.2,0-1.6  c-0.3-0.7-0.3-1.4-0.2-1.8C-211.9,406.9-212,408.9-210.9,410.5z M-210.4,404.8c-0.1,0.4-0.1,1.1,0.3,1.9c0.2-0.1,0.5-0.1,0.7,0  c0.1-0.1,0.1-0.1,0.2-0.2c0.4-0.4,0.8-0.8,1.2-1.1l0,0c-0.5-0.5-0.9-1-1.2-1.5c-0.3,0.1-0.5,0.3-0.7,0.5  C-210.1,404.5-210.3,404.7-210.4,404.8z M-209.2,403.9c0.6-0.2,0.6-0.2,0.6-0.3C-209.2,403.9-209.2,403.9-209.2,403.9z   M-208.6,403.7c0.4,0.5,0.8,0.9,1.2,1.4l0,0c1.2-0.6,2.3-0.7,3-0.6c-0.8-0.7-1.8-1-2.8-1C-207.7,403.5-208.1,403.6-208.6,403.7z   M-204.4,404.5c0.2,0.2,0.4,0.4,0.7,0.7l0,0C-203.9,404.9-204.1,404.7-204.4,404.5L-204.4,404.5z M-203.7,405.2  c-0.1,0-1.2-0.1-2.8,0.8c0.5,0.5,1,1,1.5,1.4c0.4-0.2,0.9-0.1,1.2,0.3c0.2,0.3,0.3,0.6,0.1,0.9c0.4,0.3,0.6,0.5,0.8,0.6  C-202.6,407.8-202.8,406.4-203.7,405.2L-203.7,405.2z M-202.9,409.1C-202.9,409.2-202.9,409.1-202.9,409.1L-202.9,409.1z   M-202.9,409.3c0,0.1,0,0.1-0.1,0.2C-203,409.4-203,409.3-202.9,409.3z M-203,409.5c-0.2-0.1-0.5-0.3-0.9-0.6c0,0,0,0-0.1,0  c-0.4,0.3-1,0.2-1.3-0.2c-0.2-0.3-0.3-0.7-0.1-1c-0.6-0.4-1.1-0.9-1.7-1.4c-0.4,0.3-0.8,0.6-1.2,0.9c-0.1,0.1-0.1,0.1-0.2,0.2  c0.2,0.4,0.2,0.9-0.1,1.3c0.1,0.1,0.2,0.1,0.3,0.2c0.4,0.3,0.8,0.6,1.2,0.8c0.4-0.3,0.9-0.2,1.2,0.2c0.1,0.1,0.1,0.2,0.2,0.4  c1.1,0.3,1.9,0.2,2.2,0.1C-203.3,410.1-203.1,409.8-203,409.5L-203,409.5z M-203,409.4C-203,409.5-203,409.5-203,409.4  C-203,409.5-203,409.5-203,409.4z M-203.5,410.4c0,0,0,0.1-0.1,0.1C-203.6,410.5-203.5,410.5-203.5,410.4L-203.5,410.4z   M-207.1,406.3C-207.1,406.3-207.2,406.3-207.1,406.3C-207.2,406.3-207.1,406.3-207.1,406.3L-207.1,406.3z M-207.1,406.3  L-207.1,406.3L-207.1,406.3z"
     id="path6" /><path
     class="st1"
     d="M-207.2,433c0.8,0,1.6-0.3,2.2-0.9l13.6-13.5c0.6-0.6,0.9-1.4,0.9-2.2c0-0.9-0.3-1.6-0.9-2.2l-13.6-13.6  c-0.6-0.6-1.4-0.9-2.2-0.9s-1.6,0.3-2.2,0.9l-13.5,13.5c-0.6,0.6-0.9,1.4-0.9,2.2c0,0.8,0.3,1.6,0.9,2.2l13.5,13.5  C-208.8,432.6-208,433-207.2,433"
     id="path8" /><path
     class="st1"
     d="M-210,411.4c0.8,0.7,1.8,1,2.8,1c0.9,0,1.9-0.3,2.7-0.9c0.1-0.1,0.3-0.2,0.4-0.3c-0.4,0-1,0-1.7-0.2  c-0.1,0.1-0.1,0.2-0.2,0.2c-0.4,0.3-0.9,0.2-1.3-0.2c-0.1-0.2-0.2-0.4-0.2-0.6c-0.4-0.2-0.9-0.5-1.3-0.8c-0.1-0.1-0.3-0.2-0.4-0.3  c-0.2,0.1-0.4,0.1-0.6,0.1C-210,410.2-210.1,410.9-210,411.4"
     id="path10" /><path
     class="st1"
     d="M-210,411.4C-210.1,411.4-210.1,411.4-210,411.4C-210.1,411.4-210.1,411.4-210,411.4"
     id="path14" /><path
     class="st1"
     d="M-210.9,410.5C-210.8,410.6-210.8,410.5-210.9,410.5L-210.9,410.5"
     id="path18" /><path
     class="st1"
     d="M-210.9,410.5c0-0.5,0.1-1,0.3-1.5l-0.1-0.1c-0.4-0.5-0.4-1.2,0-1.6c-0.3-0.7-0.3-1.4-0.2-1.8  C-211.9,406.9-212,408.9-210.9,410.5"
     id="path20" /><path
     class="st1"
     d="M-210.9,405.4"
     id="path22" /><path
     class="st1"
     d="M-210.4,404.8c-0.1,0.4-0.1,1.1,0.3,1.9c0.2-0.1,0.5-0.1,0.7,0c0.1-0.1,0.1-0.1,0.2-0.2  c0.4-0.4,0.8-0.8,1.2-1.1l0,0c-0.5-0.5-0.9-1-1.2-1.5c-0.3,0.1-0.5,0.3-0.7,0.5C-210.1,404.5-210.3,404.7-210.4,404.8"
     id="path24" /><path
     class="st1"
     d="M-209.2,403.9c0.6-0.2,0.6-0.2,0.6-0.3C-209.2,403.9-209.2,403.9-209.2,403.9"
     id="path26" /><path
     class="st1"
     d="M-208.6,403.7c0.4,0.5,0.8,0.9,1.2,1.4l0,0c1.2-0.6,2.3-0.7,3-0.6c-0.8-0.7-1.8-1-2.8-1  C-207.7,403.5-208.1,403.6-208.6,403.7"
     id="path28" /><path
     class="st1"
     d="M-204.4,404.5c0.2,0.2,0.4,0.4,0.7,0.7l0,0C-203.9,404.9-204.1,404.7-204.4,404.5L-204.4,404.5"
     id="path30" /><path
     class="st1"
     d="M-203.7,405.2c-0.1,0-1.2-0.1-2.8,0.8c0.5,0.5,1,1,1.5,1.4c0.4-0.2,0.9-0.1,1.2,0.3c0.2,0.3,0.3,0.6,0.1,0.9  c0.4,0.3,0.6,0.5,0.8,0.6C-202.6,407.8-202.8,406.4-203.7,405.2L-203.7,405.2"
     id="path32" /><path
     class="st1"
     d="M-202.9,409.1C-202.9,409.2-202.9,409.1-202.9,409.1"
     id="path34" /><path
     class="st1"
     d="M-202.9,409.3c0,0.1,0,0.1-0.1,0.2C-203,409.4-203,409.3-202.9,409.3"
     id="path38" /><path
     class="st1"
     d="M-203,409.5c-0.2-0.1-0.5-0.3-0.9-0.6c0,0,0,0-0.1,0c-0.4,0.3-1,0.2-1.3-0.2c-0.2-0.3-0.3-0.7-0.1-1  c-0.6-0.4-1.1-0.9-1.7-1.4c-0.4,0.3-0.8,0.6-1.2,0.9c-0.1,0.1-0.1,0.1-0.2,0.2c0.2,0.4,0.2,0.9-0.1,1.3c0.1,0.1,0.2,0.1,0.3,0.2  c0.4,0.3,0.8,0.6,1.2,0.8c0.4-0.3,0.9-0.2,1.2,0.2c0.1,0.1,0.1,0.2,0.2,0.4c1.1,0.3,1.9,0.2,2.2,0.1  C-203.3,410.1-203.1,409.8-203,409.5"
     id="path40" /><path
     class="st1"
     d="M-203,409.4C-203,409.5-203,409.5-203,409.4C-203,409.5-203,409.5-203,409.4"
     id="path44" /><path
     class="st1"
     d="M-203.5,410.4c0,0,0,0.1-0.1,0.1C-203.6,410.5-203.5,410.5-203.5,410.4"
     id="path46" /><path
     class="st1"
     d="M-207.1,406.3C-207.1,406.3-207.2,406.3-207.1,406.3C-207.2,406.3-207.1,406.3-207.1,406.3"
     id="path50" /><path
     class="st1"
     d="M-207.1,406.3L-207.1,406.3"
     id="path54" /></svg>