<?xml version="1.0" encoding="UTF-8" standalone="no"?>
<svg
   xmlns:dc="http://purl.org/dc/elements/1.1/"
   xmlns:cc="http://creativecommons.org/ns#"
   xmlns:rdf="http://www.w3.org/1999/02/22-rdf-syntax-ns#"
   xmlns:svg="http://www.w3.org/2000/svg"
   xmlns="http://www.w3.org/2000/svg"
   xmlns:sodipodi="http://sodipodi.sourceforge.net/DTD/sodipodi-0.dtd"
   xmlns:inkscape="http://www.inkscape.org/namespaces/inkscape"
   aria-hidden="true"
   role="presentation"
   version="1.1"
   id="svg26"
   sodipodi:docname="AzureApplicationGateway_COLOR.svg"
   width="50.099998"
   height="50"
   inkscape:version="0.92.2 (5c3e80d, 2017-08-06)">
  <metadata
     id="metadata30">
    <rdf:RDF>
      <cc:Work
         rdf:about="">
        <dc:format>image/svg+xml</dc:format>
        <dc:type
           rdf:resource="http://purl.org/dc/dcmitype/StillImage" />
      </cc:Work>
    </rdf:RDF>
  </metadata>
  <sodipodi:namedview
     pagecolor="#ffffff"
     bordercolor="#666666"
     borderopacity="1"
     objecttolerance="10"
     gridtolerance="10"
     guidetolerance="10"
     inkscape:pageopacity="0"
     inkscape:pageshadow="2"
     inkscape:window-width="640"
     inkscape:window-height="480"
     id="namedview28"
     showgrid="false"
     inkscape:zoom="2.36"
     inkscape:cx="50"
     inkscape:cy="2.1316282e-014"
     inkscape:window-x="0"
     inkscape:window-y="0"
     inkscape:window-maximized="0"
     inkscape:current-layer="svg26" />
  <defs
     id="defs4">
    <style
       type="text/css"
       id="style2"><![CDATA[
        .msportalfx-svg-c01{fill:#fff}.msportalfx-svg-c02{fill:#e5e5e5}.msportalfx-svg-c03{fill:#a0a1a2}.msportalfx-svg-c04{fill:#7a7a7a}.msportalfx-svg-c05{fill:#3e3e3e}.msportalfx-svg-c06{fill:#1e1e1e}.msportalfx-svg-c07{fill:#0f0f0f}.msportalfx-svg-c08{fill:#ba141a}.msportalfx-svg-c09{fill:#dd5900}.msportalfx-svg-c10{fill:#ff8c00}.msportalfx-svg-c11{fill:#fcd116}.msportalfx-svg-c12{fill:#fee087}.msportalfx-svg-c13{fill:#b8d432}.msportalfx-svg-c14{fill:#7fba00}.msportalfx-svg-c15{fill:#59b4d9}.msportalfx-svg-c16{fill:#3999c6}.msportalfx-svg-c17{fill:#804998}.msportalfx-svg-c18{fill:#ec008c}.msportalfx-svg-c19{fill:#0072c6}.msportalfx-svg-c20{fill:#68217a}.msportalfx-svg-c21{fill:#00188f}.msportalfx-svg-c22{fill:#e81123}.msportalfx-svg-c23{fill:#cae3f3}.msportalfx-svg-c24{fill:#59aed3}.msportalfx-svg-c25{fill:#4c3b12}.msportalfx-svg-c26{fill:#be9555}.msportalfx-svg-c27{fill:#4f4d52}.msportalfx-svg-c28{fill:#ef6f59}.msportalfx-svg-c29{fill:#f7cb64}.msportalfx-svg-c97{fill:#ffb900}.msportalfx-svg-c98{fill:#00a4ef}.msportalfx-svg-c99{fill:#f25022}
      ]]></style>
  </defs>
  <g
     id="g24">
    <title
       id="title6" />
    <path
       d="m 25,50 c -1.2,0 -2.4,-0.5 -3.3,-1.4 L 1.4,28.3 C 0.5,27.4 0,26.2 0,25 0,23.8 0.5,22.6 1.4,21.7 L 21.7,1.4 C 22.6,0.5 23.8,0 25,0 c 1.2,0 2.4,0.5 3.3,1.4 l 20.4,20.4 c 0.9,0.9 1.4,2 1.4,3.3 0,1.2 -0.5,2.4 -1.4,3.3 L 28.3,48.6 C 27.4,49.5 26.2,50 25,50"
       class="msportalfx-svg-c14"
       id="path8"
       inkscape:connector-curvature="0"
       style="fill:#7fba00" />
    <path
       d="m 29.738,18.584 a 7.68,7.68 0 0 1 -4.68,1.589 7.7,7.7 0 0 1 -6.131,-3.025 7.706,7.706 0 0 1 1.437,-10.811 7.643,7.643 0 0 1 4.679,-1.588 7.697,7.697 0 0 1 6.131,3.026 7.708,7.708 0 0 1 -1.436,10.809"
       class="msportalfx-svg-c01"
       id="path10"
       inkscape:connector-curvature="0"
       style="fill:#ffffff" />
    <path
       d="M 28.3,1.4 C 27.4,0.5 26.2,0 25,0 23.8,0 22.6,0.5 21.7,1.4 L 1.4,21.7 C 0.5,22.6 0,23.8 0,25 c 0,1.2 0.5,2.4 1.4,3.3 L 12.9,39.8 34.6,7.7 Z"
       class="msportalfx-svg-c01"
       id="path12"
       inkscape:connector-curvature="0"
       style="opacity:0.15;fill:#ffffff" />
    <path
       d="M 25,45.6 31.6,39 H 26.9 V 19.149 H 23 V 39 h -4.6 z"
       class="msportalfx-svg-c01"
       id="path14"
       inkscape:connector-curvature="0"
       style="fill:#ffffff" />
    <path
       d="m 39.33,33.48 v -9.334 l -3.253,3.253 -8.444,-8.444 -2.828,2.828 8.444,8.444 -3.253,3.253 z"
       class="msportalfx-svg-c01"
       id="path16"
       inkscape:connector-curvature="0"
       style="fill:#ffffff" />
    <path
       d="m 10.685,33.515 h 9.333 l -3.252,-3.252 8.681,-8.681 -2.829,-2.829 -8.681,8.681 -3.252,-3.252 z"
       class="msportalfx-svg-c01"
       id="path18"
       inkscape:connector-curvature="0"
       style="fill:#ffffff" />
    <path
       d="m 29.115,17.771 a 6.66,6.66 0 0 1 -4.058,1.378 6.673,6.673 0 0 1 -5.316,-2.623 6.682,6.682 0 0 1 1.246,-9.375 6.629,6.629 0 0 1 4.057,-1.377 6.67,6.67 0 0 1 5.316,2.624 6.682,6.682 0 0 1 -1.245,9.373"
       class="msportalfx-svg-c15"
       id="path20"
       inkscape:connector-curvature="0"
       style="fill:#59b4d9" />
    <path
       d="m 27.886,13.635 a 1.441,1.441 0 0 0 2.018,0.269 c 0.033,-0.025 0.058,-0.056 0.088,-0.083 0.645,0.454 1.092,0.754 1.344,0.925 0.075,-0.193 0.126,-0.379 0.179,-0.573 A 35.537,35.537 0 0 1 30.367,13.275 1.437,1.437 0 0 0 30.172,11.891 1.434,1.434 0 0 0 28.316,11.523 60.051,60.051 0 0 1 26.097,9.427 C 28.549,8.108 30.291,8.301 30.291,8.301 A 6.698,6.698 0 0 0 29.326,7.312 C 28.292,7.152 26.686,7.17 24.85,8.146 L 24.849,8.145 A 53.625,53.625 0 0 1 22.981,6.082 c -0.303,0.097 -0.6,0.217 -0.886,0.36 0.468,0.766 1.098,1.538 1.807,2.292 l 0.005,0.005 a 12.44,12.44 0 0 0 -1.858,1.609 10.12,10.12 0 0 0 -0.225,0.249 2.023,2.023 0 0 0 -1.102,0.075 C 20.116,9.365 20.165,8.315 20.261,7.774 a 7.005,7.005 0 0 0 -0.72,0.874 c -0.158,0.646 -0.203,1.578 0.264,2.701 a 2.016,2.016 0 0 0 0.149,2.622 10.156,10.156 0 0 0 -0.391,2.344 c 0.063,0.086 0.063,0.156 0.126,0.24 0.321,0.411 0.724,0.758 1.113,1.072 a 7.376,7.376 0 0 1 0.459,-3.043 c 0.314,0.024 0.633,-0.026 0.932,-0.151 a 11.093,11.093 0 0 0 2.491,1.7 1.33,1.33 0 0 0 0.259,0.941 1.337,1.337 0 0 0 1.868,0.246 c 0.121,-0.093 0.217,-0.205 0.296,-0.325 1.041,0.232 1.95,0.273 2.624,0.273 0.103,0 0.582,-0.652 0.857,-1.056 -0.41,0.086 -1.628,0.253 -3.291,-0.225 a 1.329,1.329 0 0 0 -0.24,-0.53 1.323,1.323 0 0 0 -1.771,-0.303 12.61,12.61 0 0 1 -2.172,-1.5 2.027,2.027 0 0 0 0.085,-2.02 c 0.077,-0.077 0.152,-0.153 0.233,-0.229 A 14.63,14.63 0 0 1 25.176,9.994 C 25.154,9.974 25.134,9.952 25.113,9.932 l 0.064,0.061 h -0.001 c 0.835,0.772 1.72,1.504 2.559,2.158 a 1.433,1.433 0 0 0 0.151,1.484 z"
       class="msportalfx-svg-c01"
       id="path22"
       inkscape:connector-curvature="0"
       style="fill:#ffffff" />
  </g>
</svg>
