<?xml version="1.0" encoding="UTF-8" standalone="no"?>
<svg
   xmlns:dc="http://purl.org/dc/elements/1.1/"
   xmlns:cc="http://creativecommons.org/ns#"
   xmlns:rdf="http://www.w3.org/1999/02/22-rdf-syntax-ns#"
   xmlns:svg="http://www.w3.org/2000/svg"
   xmlns="http://www.w3.org/2000/svg"
   xmlns:sodipodi="http://sodipodi.sourceforge.net/DTD/sodipodi-0.dtd"
   xmlns:inkscape="http://www.inkscape.org/namespaces/inkscape"
   viewBox="64.048 -1062.413 193.08178 114.372"
   class=""
   role="presentation"
   focusable="false"
   id="FxSymbol0-087"
   version="1.1"
   sodipodi:docname="Azure Cognitive Services_COLOR.svg"
   width="193.08177"
   height="114.372"
   inkscape:version="0.92.2 (5c3e80d, 2017-08-06)">
  <metadata
     id="metadata15">
    <rdf:RDF>
      <cc:Work
         rdf:about="">
        <dc:format>image/svg+xml</dc:format>
        <dc:type
           rdf:resource="http://purl.org/dc/dcmitype/StillImage" />
      </cc:Work>
    </rdf:RDF>
  </metadata>
  <defs
     id="defs13" />
  <sodipodi:namedview
     pagecolor="#ffffff"
     bordercolor="#666666"
     borderopacity="1"
     objecttolerance="10"
     gridtolerance="10"
     guidetolerance="10"
     inkscape:pageopacity="0"
     inkscape:pageshadow="2"
     inkscape:window-width="640"
     inkscape:window-height="480"
     id="namedview11"
     showgrid="false"
     inkscape:zoom="1.4684592"
     inkscape:cx="96.540305"
     inkscape:cy="57.186001"
     inkscape:window-x="0"
     inkscape:window-y="0"
     inkscape:window-maximized="0"
     inkscape:current-layer="FxSymbol0-087" />
  <g
     id="g8"
     transform="translate(-0.15969234,-0.024)">
    <title
       id="title2" />
    <path
       d="m 254.908,-1005.695 c -3.504,-8.302 -10.753,-15.332 -20.133,-19.63 -4.324,-14.539 -16.426,-29.079 -34.475,-29.079 -0.575,0 -1.156,0.015 -1.741,0.044 -7.528,-5.398 -14.84,-8.029 -22.287,-8.029 -4.489,0 -9.076,0.991 -13.674,2.952 -3.405,-1.785 -7.312,-2.715 -11.487,-2.715 -9.237,0 -17.998,4.266 -23.406,9.264 a 23.086,23.086 0 0 0 -5.304,-0.604 c -13.779,0 -27.433,11.384 -31.124,25.186 -11.877,4.309 -20.551,12.139 -24.624,22.323 -3.952,9.882 -3.083,20.93 2.384,30.313 5.43,9.319 14.928,14.883 25.408,14.883 4.021,0 7.896,-0.821 11.431,-2.402 6.372,5.793 14.571,9.256 22.334,9.256 2.707,0 5.299,-0.4 7.749,-1.193 6.286,5.17 15.922,7.109 23.74,7.109 9.226,0 17.242,-2.437 22.557,-6.693 3.444,1.594 7.237,2.421 11.194,2.42 h 0.003 c 9.899,0 20.127,-5.274 25.713,-12.607 3.116,1.277 6.396,1.938 9.712,1.938 h 0.003 c 10.816,-0.002 20.86,-7.063 25.589,-17.989 3.604,-8.33 3.756,-16.886 0.438,-24.747 z"
       id="path4"
       inkscape:connector-curvature="0"
       style="fill:#3176bc" />
    <path
       d="m 118.612,-995.661 h -9.739 c -1.215,-5.369 -6.015,-9.394 -11.744,-9.394 -6.644,0 -12.049,5.406 -12.049,12.05 0,6.645 5.405,12.051 12.049,12.051 5.696,0 10.471,-3.979 11.72,-9.3 h 9.764 a 2.245,2.245 0 0 1 2.242,2.242 v 33.091 a 29.66,29.66 0 0 0 5.408,0.906 v -33.997 c 0,-4.217 -3.432,-7.649 -7.651,-7.649 z m -21.483,9.708 c -3.887,0 -7.049,-3.163 -7.049,-7.051 0,-3.888 3.162,-7.05 7.049,-7.05 3.887,0 7.049,3.163 7.049,7.05 0,3.888 -3.162,7.051 -7.049,7.051 z m 60.294,-7.315 v -11.256 c 0,-4.218 -3.432,-7.648 -7.648,-7.648 H 132.66 a 2.245,2.245 0 0 1 -2.242,-2.243 v -40.697 a 31.657,31.657 0 0 0 -2.712,2.223 22.18,22.18 0 0 0 -2.696,-0.46 v 38.934 c 0,4.219 3.432,7.651 7.65,7.651 h 17.115 a 2.243,2.243 0 0 1 2.24,2.24 v 11.256 c -5.344,1.232 -9.344,6.02 -9.344,11.733 0,6.644 5.404,12.05 12.048,12.05 6.644,0 12.049,-5.406 12.049,-12.05 0,-5.713 -4.001,-10.501 -9.345,-11.733 z m -2.704,18.784 c -3.886,0 -7.048,-3.163 -7.048,-7.05 0,-3.888 3.162,-7.051 7.048,-7.051 3.887,0 7.049,3.163 7.049,7.051 0,3.887 -3.163,7.05 -7.049,7.05 z m 76.442,-30.02 c 0,-6.644 -5.404,-12.049 -12.047,-12.049 -6.644,0 -12.049,5.405 -12.049,12.049 0,5.696 3.978,10.47 9.297,11.72 v 2.231 a 2.243,2.243 0 0 1 -2.24,2.242 h -21.668 v -38.774 c 0,-4.218 -3.431,-7.65 -7.649,-7.65 h -11.743 c -1.215,-5.368 -6.014,-9.392 -11.743,-9.392 -6.644,0 -12.049,5.406 -12.049,12.05 0,6.644 5.405,12.048 12.049,12.048 5.696,0 10.471,-3.978 11.72,-9.298 h 11.767 a 2.243,2.243 0 0 1 2.241,2.242 v 74.031 c 1.75,0.423 3.559,0.672 5.408,0.737 v -30.585 h 21.668 c 4.219,0 7.65,-3.432 7.65,-7.65 v -2.207 c 5.366,-1.216 9.388,-6.015 9.388,-11.745 z m -69.843,-20.525 c -3.887,0 -7.049,-3.162 -7.049,-7.048 0,-3.887 3.162,-7.05 7.049,-7.05 3.887,0 7.049,3.163 7.049,7.05 0,3.886 -3.162,7.048 -7.049,7.048 z m 57.796,27.574 c -3.887,0 -7.049,-3.163 -7.049,-7.05 0,-3.887 3.162,-7.049 7.049,-7.049 3.886,0 7.047,3.162 7.047,7.049 0,3.887 -3.161,7.05 -7.047,7.05 z"
       class="msportalfx-svg-c01"
       id="path6"
       inkscape:connector-curvature="0"
       style="fill:#ffffff" />
  </g>
</svg>
