<?xml version="1.0" encoding="UTF-8" standalone="no"?>
<svg
   xmlns:dc="http://purl.org/dc/elements/1.1/"
   xmlns:cc="http://creativecommons.org/ns#"
   xmlns:rdf="http://www.w3.org/1999/02/22-rdf-syntax-ns#"
   xmlns:svg="http://www.w3.org/2000/svg"
   xmlns="http://www.w3.org/2000/svg"
   xmlns:sodipodi="http://sodipodi.sourceforge.net/DTD/sodipodi-0.dtd"
   xmlns:inkscape="http://www.inkscape.org/namespaces/inkscape"
   aria-hidden="true"
   role="presentation"
   version="1.1"
   id="svg35"
   sodipodi:docname="Azure Scheduler_COLOR.svg"
   width="42.595165"
   height="50"
   inkscape:version="0.92.2 (5c3e80d, 2017-08-06)">
  <metadata
     id="metadata41">
    <rdf:RDF>
      <cc:Work
         rdf:about="">
        <dc:format>image/svg+xml</dc:format>
        <dc:type
           rdf:resource="http://purl.org/dc/dcmitype/StillImage" />
      </cc:Work>
    </rdf:RDF>
  </metadata>
  <defs
     id="defs39" />
  <sodipodi:namedview
     pagecolor="#ffffff"
     bordercolor="#666666"
     borderopacity="1"
     objecttolerance="10"
     gridtolerance="10"
     guidetolerance="10"
     inkscape:pageopacity="0"
     inkscape:pageshadow="2"
     inkscape:window-width="640"
     inkscape:window-height="480"
     id="namedview37"
     showgrid="false"
     inkscape:zoom="2.36"
     inkscape:cx="46.3"
     inkscape:cy="2.1316282e-014"
     inkscape:window-x="0"
     inkscape:window-y="0"
     inkscape:window-maximized="0"
     inkscape:current-layer="svg35" />
  <svg
     id="svg-scheduler"
     version="1.1"
     width="100%"
     height="100%"
     transform="translate(-3.7)">
    <path
       d="m 27.9,6.2 c -4,0.4 -7.5,2.4 -9.9,5.4 -2.4,2.9 -3.6,6.7 -3.2,10.8 0.4,4 2.4,7.5 5.4,9.9 2.9,2.4 6.7,3.6 10.8,3.2 4,-0.4 7.5,-2.4 9.9,-5.4 2.4,-2.9 3.6,-6.7 3.2,-10.8 -0.4,-4.1 -2.5,-7.6 -5.5,-10 -2.5,-2 -5.7,-3.2 -9.1,-3.2 -0.6,0.1 -1.1,0.1 -1.6,0.1"
       id="path2"
       inkscape:connector-curvature="0"
       style="fill:#ffffff" />
    <path
       d="M 46.2,19.1 C 45.7,14.3 43.3,10.2 39.8,7.4 39.1,6.9 38.4,6.4 37.7,6 l -1.4,2.6 c 0.6,0.3 1.1,0.7 1.6,1.1 2.9,2.3 4.9,5.7 5.3,9.7 0.4,3.9 -0.8,7.6 -3.1,10.5 -2.3,2.8 -5.7,4.8 -9.6,5.2 -2.6,0.3 -5.2,-0.2 -7.4,-1.2 l -1.4,2.6 c 2.7,1.3 5.8,1.9 9.1,1.5 4.7,-0.5 8.8,-2.9 11.6,-6.3 2.8,-3.4 4.3,-7.9 3.8,-12.6"
       id="path4"
       inkscape:connector-curvature="0"
       style="fill:#3999c6" />
    <path
       d="m 20.1,32 c -2.8,-2.3 -4.8,-5.7 -5.2,-9.6 -0.4,-3.9 0.8,-7.6 3.1,-10.5 2.3,-2.8 5.7,-4.8 9.6,-5.2 3.2,-0.3 6.2,0.4 8.7,1.9 L 37.7,6 C 34.7,4.2 31,3.4 27.3,3.8 22.6,4.3 18.5,6.7 15.7,10.1 v 0 c -2.8,3.4 -4.2,7.9 -3.7,12.6 0.5,4.7 2.9,8.8 6.3,11.6 1.1,0.9 2.3,1.6 3.6,2.2 l 1.4,-2.6 C 22.1,33.4 21,32.7 20.1,32"
       id="path6"
       inkscape:connector-curvature="0"
       style="fill:#a0a1a2" />
    <path
       d="m 20.1,32 c -2.8,-2.3 -4.8,-5.7 -5.2,-9.6 -0.4,-3.9 0.8,-7.6 3.1,-10.5 2.3,-2.8 5.7,-4.8 9.6,-5.2 3.2,-0.3 6.2,0.4 8.7,1.9 L 37.7,6 C 34.7,4.2 31,3.4 27.3,3.8 22.6,4.3 18.5,6.7 15.7,10.1 v 0 c -2.8,3.4 -4.2,7.9 -3.7,12.6 0.5,4.7 2.9,8.8 6.3,11.6 1.1,0.9 2.3,1.6 3.6,2.2 l 1.4,-2.6 C 22.1,33.4 21,32.7 20.1,32"
       id="path8"
       inkscape:connector-curvature="0"
       style="fill:#59b4d9" />
    <path
       d="M 36.3,25.4 29.7,23 c -0.7,-0.3 -1.1,-1 -0.8,-1.8 0.3,-0.7 1,-1.1 1.8,-0.8 l 6.6,2.4 c 0.7,0.3 1.1,1 0.8,1.8 -0.3,0.7 -1.1,1 -1.8,0.8 z"
       id="path10"
       inkscape:connector-curvature="0"
       style="fill:#7a7a7a" />
    <path
       d="m 28.9,22.8 c -0.8,0 -1.4,-0.6 -1.4,-1.4 V 9.7 c 0,-0.8 0.6,-1.4 1.4,-1.4 0.8,0 1.4,0.6 1.4,1.4 v 11.7 c 0,0.8 -0.6,1.4 -1.4,1.4 z"
       id="path12"
       inkscape:connector-curvature="0"
       style="fill:#7a7a7a" />
    <circle
       cx="28.9"
       cy="21.4"
       r="2"
       id="circle14"
       style="fill:#1e1e1e" />
    <path
       d="M 29.1,39.4"
       id="path16"
       inkscape:connector-curvature="0"
       style="fill:#bad80a" />
    <path
       d="M 29.4,45"
       id="path18"
       inkscape:connector-curvature="0"
       style="fill:#bad80a" />
    <path
       d="M 33.9,44.1"
       id="path20"
       inkscape:connector-curvature="0"
       style="fill:#bad80a" />
    <path
       d="M 32.9,44.4"
       id="path22"
       inkscape:connector-curvature="0"
       style="fill:#bad80a" />
    <path
       d="M 42.6,6.8"
       id="path24"
       inkscape:connector-curvature="0"
       style="fill:#bad80a" />
    <path
       d="M 31.5,40.3"
       id="path26"
       inkscape:connector-curvature="0"
       style="fill:#bad80a" />
    <path
       d="M 27.5,40.4"
       id="path28"
       inkscape:connector-curvature="0"
       style="fill:#bad80a" />
    <path
       d="m 27.3,36.3 7,6.5 -6.3,7.2 0.1,-4.7 c -0.5,0 -1.2,0 -1.7,0 C 13.9,45.3 3.7,35.1 3.7,22.6 3.7,10.1 13.9,0 26.4,0 32.7,0 38.5,2.6 42.6,6.8 39,3.3 34.2,1.2 28.8,1.2 17.9,1.1 9.2,9.9 9.1,20.8 c 0,10.4 8.5,18.9 18.7,19.6 z"
       id="path30"
       inkscape:connector-curvature="0"
       style="fill:#b8d432" />
    <path
       d="M 28.5,43.4 C 16.1,42.9 6.4,32.4 6.9,20 7.2,12.3 11.4,5.6 17.5,1.8 9.4,5.3 3.7,13.3 3.7,22.7 c 0,12.5 10.2,22.7 22.7,22.7 0.5,0 1.2,0 1.7,0 L 28,50 34.2,42.9 c -1.8,0.4 -3.7,0.5 -5.7,0.5 z"
       id="path32"
       inkscape:connector-curvature="0"
       style="opacity:0.2;fill:#1e1e1e" />
  </svg>
</svg>
