<?xml version="1.0" encoding="UTF-8" standalone="no"?>
<svg
   xmlns:dc="http://purl.org/dc/elements/1.1/"
   xmlns:cc="http://creativecommons.org/ns#"
   xmlns:rdf="http://www.w3.org/1999/02/22-rdf-syntax-ns#"
   xmlns:svg="http://www.w3.org/2000/svg"
   xmlns="http://www.w3.org/2000/svg"
   xmlns:sodipodi="http://sodipodi.sourceforge.net/DTD/sodipodi-0.dtd"
   xmlns:inkscape="http://www.inkscape.org/namespaces/inkscape"
   viewBox="0 0 31.003078 50.000126"
   class=""
   role="presentation"
   focusable="false"
   id="FxSymbol0-022"
   version="1.1"
   sodipodi:docname="Azure Subscription New_COLOR.svg"
   width="31.003078"
   height="50.000126"
   inkscape:version="0.92.2 (5c3e80d, 2017-08-06)">
  <metadata
     id="metadata17">
    <rdf:RDF>
      <cc:Work
         rdf:about="">
        <dc:format>image/svg+xml</dc:format>
        <dc:type
           rdf:resource="http://purl.org/dc/dcmitype/StillImage" />
      </cc:Work>
    </rdf:RDF>
  </metadata>
  <defs
     id="defs15" />
  <sodipodi:namedview
     pagecolor="#ffffff"
     bordercolor="#666666"
     borderopacity="1"
     objecttolerance="10"
     gridtolerance="10"
     guidetolerance="10"
     inkscape:pageopacity="0"
     inkscape:pageshadow="2"
     inkscape:window-width="640"
     inkscape:window-height="480"
     id="namedview13"
     showgrid="false"
     inkscape:zoom="4.72"
     inkscape:cx="14.999625"
     inkscape:cy="25.001"
     inkscape:window-x="0"
     inkscape:window-y="0"
     inkscape:window-maximized="0"
     inkscape:current-layer="FxSymbol0-022" />
  <g
     id="g10"
     transform="translate(-10.000375,-8.7512232e-4)">
    <title
       id="title2" />
    <path
       d="m 39.337,19.525 a 5.688,5.688 0 0 0 0,-8.045 L 29.525,1.667 a 5.69,5.69 0 0 0 -8.046,0 l -9.813,9.813 a 5.69,5.69 0 0 0 0,8.045 l 8.633,8.633 v 16.641 l 5.202,5.202 4.519,-4.519 v -0.033 l 2.652,-2.653 -2.629,-2.629 2.629,-2.629 -2.629,-2.629 2.629,-2.629 -2.652,-2.653 V 28.843 Z M 25.502,4.039 a 3.23,3.23 0 1 1 0,6.459 3.23,3.23 0 0 1 0,-6.459 z"
       class="msportalfx-svg-c11"
       id="path4"
       inkscape:connector-curvature="0"
       style="fill:#fcd116" />
    <path
       d="m 22.728,43.961 2.03,2 V 30.008 l -2.03,-1 z"
       class="msportalfx-svg-c10"
       id="path6"
       inkscape:connector-curvature="0"
       style="opacity:0.4;fill:#ff8c00" />
    <path
       d="m 15.868,13.617 h 18.64 v 2.679 h -18.64 z m 0,4.359 h 18.64 v 2.679 h -18.64 z"
       class="msportalfx-svg-c01"
       id="path8"
       inkscape:connector-curvature="0"
       style="opacity:0.5;fill:#ffffff" />
  </g>
</svg>
