<svg aria-hidden="true" role="presentation">
<defs>
    <style type="text/css">
      <![CDATA[
        .msportalfx-svg-c01{fill:#fff}.msportalfx-svg-c02{fill:#e5e5e5}.msportalfx-svg-c03{fill:#a0a1a2}.msportalfx-svg-c04{fill:#7a7a7a}.msportalfx-svg-c05{fill:#3e3e3e}.msportalfx-svg-c06{fill:#1e1e1e}.msportalfx-svg-c07{fill:#0f0f0f}.msportalfx-svg-c08{fill:#ba141a}.msportalfx-svg-c09{fill:#dd5900}.msportalfx-svg-c10{fill:#ff8c00}.msportalfx-svg-c11{fill:#fcd116}.msportalfx-svg-c12{fill:#fee087}.msportalfx-svg-c13{fill:#b8d432}.msportalfx-svg-c14{fill:#7fba00}.msportalfx-svg-c15{fill:#59b4d9}.msportalfx-svg-c16{fill:#3999c6}.msportalfx-svg-c17{fill:#804998}.msportalfx-svg-c18{fill:#ec008c}.msportalfx-svg-c19{fill:#0072c6}.msportalfx-svg-c20{fill:#68217a}.msportalfx-svg-c21{fill:#00188f}.msportalfx-svg-c22{fill:#e81123}.msportalfx-svg-c23{fill:#cae3f3}.msportalfx-svg-c24{fill:#59aed3}.msportalfx-svg-c25{fill:#4c3b12}.msportalfx-svg-c26{fill:#be9555}.msportalfx-svg-c27{fill:#4f4d52}.msportalfx-svg-c28{fill:#ef6f59}.msportalfx-svg-c29{fill:#f7cb64}.msportalfx-svg-c97{fill:#ffb900}.msportalfx-svg-c98{fill:#00a4ef}.msportalfx-svg-c99{fill:#f25022}
      ]]>
    </style>
  </defs>
<g><title></title><g class="msportalfx-svg-c14"><path d="M39.6 30.5l1-2.5 4.3-1.6-.1-3.6-.5-.2-3.8-1.2-1.2-2.4 1.9-4.2-.1-.1-2.5-2.4-.5.3-3.5 1.9-2.5-1-1.6-4.3-3.6.1-.2.5-1.2 3.8-2.4 1.1L19 13l-2.5 2.6.3.5 1.2 2.2c1.9-1.2 4.1-1.8 6.4-1.8 3.5 0 6.9 1.5 9.4 4.3 0 0 0 .1.1.1l.1.1c2.2 2.7 1.9 6.7-.8 8.9-2.5 2.1-6.2 1.9-8.5-.3h-.2c-.5 0-1 .2-1.4.7l-.1.1c-1.5 1.6-3.2 2.8-5.2 3.5l-.6 1.4 2.4 2.3.2.2.5-.2 3.5-1.9 2.5 1 1.6 4.3 3.6-.1.2-.5 1.2-3.8 2.4-1.1 4.2 1.9 2.5-2.6-.5-.8-1.9-3.5z"></path><path d="M18.4 24.4c0 .1 0 .1 0 0l-.1.1c-2.7 2.9-7 2.9-9.7 0-.3-.4-.9-.4-1.2 0-.2.2-.2.4-.2.7s.1.5.2.7c3.3 3.7 8.7 3.7 12.1 0 0 0 0-.1.1-.1 2.7-2.9 7-2.9 9.7 0 .3.4.9.4 1.2 0 .2-.2.2-.4.2-.7 0-.2-.1-.5-.2-.7-3.4-3.6-8.8-3.6-12.1 0"></path><path d="M24.5 25.6c-1.5 0-2.8.6-3.8 1.8 0 0 0 .1-.1.1l-.1.1c-1.9 2-4.3 3.2-6.9 3.2-2.6 0-5.1-1.1-6.9-3.2-.3-.4-.9-.4-1.2 0-.2.2-.2.4-.2.7 0 .2.1.5.2.7 2.2 2.4 5.1 3.7 8.1 3.7 3.1 0 6-1.3 8.1-3.7 0 0 0-.1.1-.1l.1-.1c.7-.8 1.7-1.2 2.7-1.2 1 0 1.9.4 2.7 1.2.3.4.9.4 1.2 0 .2-.2.2-.4.2-.7s-.1-.5-.2-.7c-1.2-1.2-2.6-1.8-4-1.8m8-4.1c-2.2-2.4-5.1-3.7-8.1-3.7-3.1 0-6 1.3-8.1 3.7 0 0 0 .1-.1.1l-.1.1c-.7.8-1.7 1.2-2.7 1.2-1 0-2-.4-2.7-1.2-.3-.4-.9-.4-1.2 0-.2.2-.2.4-.2.7 0 .2.1.5.2.7 1 1.1 2.4 1.8 3.9 1.8s2.8-.6 3.8-1.8c0 0 0-.1.1-.1l.1-.1c1.9-2 4.3-3.2 6.9-3.2 2.6 0 5.1 1.1 6.9 3.2.3.4.9.4 1.2 0 .2-.2.2-.4.2-.7.2-.3.1-.5-.1-.7"></path></g></g>
</svg>