<svg version="1.1" width="256" height="256" viewBox="0 0 256 256" xmlns="http://www.w3.org/2000/svg" xmlns:xlink="http://www.w3.org/1999/xlink" overflow="hidden"><defs><path d=" M 9.72656 -9.67496e-06 L 0 12.7049 L 0 39.8795 L 9.72656 41.686 L 9.72656 -9.67496e-06 Z" id="path0_fill"/><path d=" M -3.27778e-05 4.28298 L -3.27778e-05 78.4837 L 23.4705 59.132 L 23.4705 -6.25618e-06 L -3.27778e-05 4.28298 Z" id="path1_fill"/><path d=" M 0 35.5653 L 72.5295 21.761 L 42.7189 8.15647e-06 L 42.7189 9.96245 L 9.72656 22.8604 L 0 35.5653 Z" id="path2_fill"/><path d=" M 2.5e-06 5.27567e-06 L 86.2734 12.0637 L 62.803 31.4153 L 26.6239 19.3276 L 26.6239 31.4536 L 2.5e-06 5.27567e-06 Z" id="path3_fill"/></defs><g id="Canvas" transform="matrix(1,0,0,1,-2092,-232)"><g id="VSTS_color_scalable"><g id="layer1"><g id="g14217"><g id="path14209"><use width="100%" height="100%" xlink:href="#path0_fill" fill="#0078D7" transform="matrix(2.66667,0,0,2.66667,2092,292.961)"></use></g><g id="path14211"><use width="100%" height="100%" xlink:href="#path1_fill" fill="#0078D7" transform="matrix(2.66667,0,0,2.66667,2285.41,278.608)"></use></g><g id="path14213"><use width="100%" height="100%" xlink:href="#path2_fill" fill="#0078D7" transform="matrix(2.66667,0,0,2.66667,2092,232)"></use></g><g id="path14215"><use width="100%" height="100%" xlink:href="#path3_fill" fill="#0078D7" transform="matrix(2.66667,0,0,2.66667,2117.94,404.124)"></use></g></g></g></g></g></svg>