<?xml version="1.0" encoding="UTF-8" standalone="no"?>
<svg
   xmlns:dc="http://purl.org/dc/elements/1.1/"
   xmlns:cc="http://creativecommons.org/ns#"
   xmlns:rdf="http://www.w3.org/1999/02/22-rdf-syntax-ns#"
   xmlns:svg="http://www.w3.org/2000/svg"
   xmlns="http://www.w3.org/2000/svg"
   xmlns:sodipodi="http://sodipodi.sourceforge.net/DTD/sodipodi-0.dtd"
   xmlns:inkscape="http://www.inkscape.org/namespaces/inkscape"
   aria-hidden="true"
   role="presentation"
   version="1.1"
   id="svg10"
   sodipodi:docname="Azure Data Box_COLOR.svg"
   width="399.60986"
   height="382.70001"
   inkscape:version="0.92.2 (5c3e80d, 2017-08-06)">
  <metadata
     id="metadata16">
    <rdf:RDF>
      <cc:Work
         rdf:about="">
        <dc:format>image/svg+xml</dc:format>
        <dc:type
           rdf:resource="http://purl.org/dc/dcmitype/StillImage" />
      </cc:Work>
    </rdf:RDF>
  </metadata>
  <defs
     id="defs14" />
  <sodipodi:namedview
     pagecolor="#ffffff"
     bordercolor="#666666"
     borderopacity="1"
     objecttolerance="10"
     gridtolerance="10"
     guidetolerance="10"
     inkscape:pageopacity="0"
     inkscape:pageshadow="2"
     inkscape:window-width="640"
     inkscape:window-height="480"
     id="namedview12"
     showgrid="false"
     inkscape:zoom="2.36"
     inkscape:cx="39.709858"
     inkscape:cy="341.6"
     inkscape:window-x="0"
     inkscape:window-y="0"
     inkscape:window-maximized="0"
     inkscape:current-layer="svg10" />
  <g
     id="g8"
     transform="translate(-10.290142,-8.9)">
    <title
       id="title2" />
    <path
       d="m 205.3,239.6 v -37.5 c 0,-3.8 -3.2,-6.9 -7.1,-6.9 h -30.1 c -1.5,0 -2.7,-0.5 -3.6,-1.4 -0.9,-0.9 -1.4,-2.1 -1.4,-3.6 0,-1.3 0.5,-2.5 1.6,-3.8 l 50,-49.9 c 0.9,-0.9 2,-1.3 3.4,-1.4 C 207.1,90.5 168.3,56.5 120.6,54.3 58.7,51.5 7.6,102.7 10.4,164.5 13,221 60.4,265.1 117,265.1 h 88.4 v -25.5 z"
       id="path4"
       inkscape:connector-curvature="0"
       style="fill:#45add2" />
    <path
       d="m 265.2,287.2 v -22.1 h 40.7 c 57.3,0 104,-44.8 104,-99.8 0,-52.8 -43.5,-96 -97.9,-98.1 -20.4,-36 -59.6,-58.3 -103.1,-58.3 -28.8,0 -55.3,9.9 -75.6,26.8 26,4.1 50.1,16.2 69.1,35.3 22.3,22.3 35.2,51.5 36.7,82.6 l 33,32.9 c 0.9,0.9 1.4,2.1 1.4,3.6 0,1.4 -0.5,2.5 -1.5,3.5 -1,1 -2.2,1.5 -3.5,1.5 h -29.2 v 129.4 c 0,3.9 -3.2,7.1 -7.2,7.1 h 0.2 -30.1 c -1.4,0 -2.5,0.5 -3.5,1.5 -1,1 -1.5,2.2 -1.5,3.5 0,1.5 0.5,2.7 1.4,3.6 l 50.2,50 c 0.9,0.9 2.1,1.4 3.6,1.4 1.5,0 2.7,-0.5 3.6,-1.4 l 50,-49.9 c 1,-1.3 1.6,-2.5 1.6,-3.8 0,-1.5 -0.5,-2.7 -1.4,-3.6 -0.9,-0.9 -2.1,-1.4 -3.6,-1.4 h -30.1 c -3.9,0 -7.1,-3.1 -7.1,-6.9 v -37.4 z"
       id="path6"
       inkscape:connector-curvature="0"
       style="fill:#2272b9" />
  </g>
</svg>
