<?xml version="1.0" encoding="UTF-8" standalone="no"?>
<!-- Generator: Adobe Illustrator 18.1.0, SVG Export Plug-In . SVG Version: 6.00 Build 0)  -->

<svg
   xmlns:dc="http://purl.org/dc/elements/1.1/"
   xmlns:cc="http://creativecommons.org/ns#"
   xmlns:rdf="http://www.w3.org/1999/02/22-rdf-syntax-ns#"
   xmlns:svg="http://www.w3.org/2000/svg"
   xmlns="http://www.w3.org/2000/svg"
   xmlns:sodipodi="http://sodipodi.sourceforge.net/DTD/sodipodi-0.dtd"
   xmlns:inkscape="http://www.inkscape.org/namespaces/inkscape"
   version="1.1"
   id="Layer_1"
   x="0px"
   y="0px"
   viewBox="0 0 201.8 174.60001"
   enable-background="new 0 0 792 612"
   xml:space="preserve"
   sodipodi:docname="Azure Storage - Files.svg"
   width="201.8"
   height="174.60001"
   inkscape:version="0.92.2 (5c3e80d, 2017-08-06)"><metadata
     id="metadata16"><rdf:RDF><cc:Work
         rdf:about=""><dc:format>image/svg+xml</dc:format><dc:type
           rdf:resource="http://purl.org/dc/dcmitype/StillImage" /></cc:Work></rdf:RDF></metadata><defs
     id="defs14" /><sodipodi:namedview
     pagecolor="#ffffff"
     bordercolor="#666666"
     borderopacity="1"
     objecttolerance="10"
     gridtolerance="10"
     guidetolerance="10"
     inkscape:pageopacity="0"
     inkscape:pageshadow="2"
     inkscape:window-width="640"
     inkscape:window-height="480"
     id="namedview12"
     showgrid="false"
     inkscape:zoom="0.35858586"
     inkscape:cx="89.6"
     inkscape:cy="105.9"
     inkscape:window-x="0"
     inkscape:window-y="0"
     inkscape:window-maximized="0"
     inkscape:current-layer="Layer_1" /><g
     id="Layer_1_1_"
     transform="translate(-306.4,-237.3)" /><g
     id="g7"
     transform="translate(-306.4,-237.3)"><path
       d="m 432.6,279.9 h -62.8 c -3.2,0 -5.3,2.7 -5.3,5.3 v 78.2 c 0,3.2 2.7,5.9 5.3,5.9 h 74 c 3.2,0 5.3,-2.7 5.3,-5.9 v -66 h -17 v -17.6 z m -2.1,67.6 h -47.4 v -9 h 47.4 z m 0,-16.5 h -47.4 v -9 h 47.4 z m 0,-17 h -47.4 v -9 h 47.4 z"
       id="path3"
       inkscape:connector-curvature="0"
       style="fill:#0078d7" /><path
       d="M 457.6,237.3 H 357 l -50.6,87.3 50.6,87.3 h 100.6 l 50.6,-87.3 z m -13.3,140.5 h -74 c -8,0 -14.4,-6.4 -14.4,-14.4 v -78.2 c 0,-8 6.4,-14.4 14.4,-14.4 h 67.1 l 21.3,21.3 v 71.3 c 0,8 -6.4,14.4 -14.4,14.4 z"
       id="path5"
       inkscape:connector-curvature="0"
       style="fill:#0078d7" /></g><g
     id="Ibiza_Symbols"
     transform="translate(-306.4,-237.3)"><g
       id="SQL_Database_Premium" /></g></svg>