<?xml version="1.0" encoding="UTF-8" standalone="no"?>
<!-- Generator: Adobe Illustrator 18.1.0, SVG Export Plug-In . SVG Version: 6.00 Build 0)  -->

<svg
   xmlns:dc="http://purl.org/dc/elements/1.1/"
   xmlns:cc="http://creativecommons.org/ns#"
   xmlns:rdf="http://www.w3.org/1999/02/22-rdf-syntax-ns#"
   xmlns:svg="http://www.w3.org/2000/svg"
   xmlns="http://www.w3.org/2000/svg"
   xmlns:sodipodi="http://sodipodi.sourceforge.net/DTD/sodipodi-0.dtd"
   xmlns:inkscape="http://www.inkscape.org/namespaces/inkscape"
   version="1.0"
   x="0px"
   y="0px"
   viewBox="0 0 38.5 33.400002"
   enable-background="new 0 0 152 117.5"
   xml:space="preserve"
   id="svg70"
   sodipodi:docname="Azure Storage - Blob.svg"
   width="38.5"
   height="33.400002"
   inkscape:version="0.92.2 (5c3e80d, 2017-08-06)"><metadata
     id="metadata76"><rdf:RDF><cc:Work
         rdf:about=""><dc:format>image/svg+xml</dc:format><dc:type
           rdf:resource="http://purl.org/dc/dcmitype/StillImage" /></cc:Work></rdf:RDF></metadata><defs
     id="defs74" /><sodipodi:namedview
     pagecolor="#ffffff"
     bordercolor="#666666"
     borderopacity="1"
     objecttolerance="10"
     gridtolerance="10"
     guidetolerance="10"
     inkscape:pageopacity="0"
     inkscape:pageshadow="2"
     inkscape:window-width="640"
     inkscape:window-height="480"
     id="namedview72"
     showgrid="false"
     inkscape:zoom="1.8684211"
     inkscape:cx="19.2"
     inkscape:cy="14.35"
     inkscape:window-x="0"
     inkscape:window-y="0"
     inkscape:window-maximized="0"
     inkscape:current-layer="svg70" /><g
     id="Layer_1"
     transform="translate(-56.8,-39.7)"><g
       id="Azure" /><g
       id="BizTalk_Services"
       transform="translate(37.3575,-2500.2)" /><g
       id="Key_Vault" /><g
       id="Mobile_Engagement" /><g
       id="Office_subscription"><g
         id="Office_subscription_1_" /></g></g><g
     id="paths"
     transform="translate(-56.8,-39.7)"><g
       id="Access_control" /><g
       id="Azure_active_directory" /><g
       id="API_Management" /><g
       id="Azure_automation" /><g
       id="Azure_SQL_database" /><g
       id="Azure_subscription" /><g
       id="Backup_service" /><g
       id="Bitbucket_code_source" /><g
       id="Azure_cache" /><g
       id="Content_delivery_network__x28_CDN_x29_" /><g
       id="Cloud_service" /><g
       id="CodePlex" /><g
       id="Dropbox_code_source" /><g
       id="Express_route" /><g
       id="Git_repository" /><g
       id="GitHub_code" /><g
       id="HD_Insight" /><g
       id="Health_monitoring" /><g
       id="Healthy" /><g
       id="BizTalk_hybrid_connection" /><g
       id="Hybrid_connection_manager_for_BizTalk_hybrid_connection" /><g
       id="Hyper-V_recovery_manager" /><g
       id="Machine_learning" /><g
       id="Media_services" /><g
       id="Microsoft_account" /><g
       id="Mobile_services" /><g
       id="Multi-factor_authentication" /><g
       id="MySQL_database" /><g
       id="Notification_hub" /><g
       id="Notification_topic" /><g
       id="Cloud_Office_365" /><g
       id="Office_365" /><g
       id="OS_image" /><g
       id="Remote_app" /><g
       id="Task_scheduler" /><g
       id="Azure_SDK" /><g
       id="Service_bus" /><g
       id="Service_bus_queue" /><g
       id="Service_bus_relay" /><g
       id="Service_bus_topic" /><g
       id="Service_endpoint" /><g
       id="Custom_create" /><g
       id="SQL_data_sync" /><g
       id="SQL_reporting" /><g
       id="Startup_task" /><g
       id="Windows_Azure_storage" /><g
       id="Storage_blob"><g
         id="g63"><path
           d="M 85.7,39.7 H 66.4 l -9.6,16.7 9.6,16.7 h 19.3 l 9.6,-16.7 z m 0.1,24.2 c 0,1.4 -1.2,2.6 -2.6,2.6 H 69 c -1.4,0 -2.6,-1.2 -2.6,-2.6 V 49 c 0,-1.4 1.2,-2.6 2.6,-2.6 h 10.5 c 1,0 2,0 2,0 h 0.3 l 4,4 v 2.1 z"
           id="path55"
           inkscape:connector-curvature="0"
           style="fill:#0078d7" /><path
           d="m 74.6,59.1 c 0,-0.2 -0.1,-0.3 -0.1,-0.4 0,-0.1 -0.1,-0.2 -0.2,-0.3 -0.1,-0.1 -0.1,-0.1 -0.2,-0.1 -0.1,0 -0.2,0 -0.3,0 -0.2,0 -0.3,0 -0.4,0.1 -0.1,0.1 -0.2,0.2 -0.3,0.4 C 73,59 73,59.2 73,59.4 c 0,0.2 0,0.5 0,0.9 0,0.4 0,0.7 0,1 0,0.3 0.1,0.5 0.2,0.6 0.1,0.2 0.2,0.3 0.3,0.3 0.1,0.1 0.2,0.1 0.4,0.1 0.1,0 0.2,0 0.3,-0.1 0.1,0 0.2,-0.1 0.2,-0.2 0.1,-0.1 0.1,-0.2 0.2,-0.3 0,-0.1 0.1,-0.2 0.1,-0.4 0,-0.1 0,-0.3 0.1,-0.5 0,-0.2 0,-0.4 0,-0.6 0,-0.3 0,-0.5 0,-0.7 -0.2,-0.1 -0.2,-0.2 -0.2,-0.4 z"
           id="path57"
           inkscape:connector-curvature="0"
           style="fill:#0078d7" /><path
           d="M 79.1,51.3 C 79.1,51.1 79,51 79,50.9 c 0,-0.1 -0.1,-0.2 -0.2,-0.3 -0.1,-0.1 -0.1,-0.1 -0.2,-0.1 -0.1,0 -0.2,0 -0.3,0 -0.2,0 -0.3,0 -0.4,0.1 -0.1,0.1 -0.2,0.2 -0.3,0.4 -0.1,0.2 -0.1,0.4 -0.1,0.6 0,0.2 0,0.5 0,0.9 0,0.4 0,0.7 0,1 0,0.3 0.1,0.5 0.2,0.6 0.1,0.2 0.2,0.3 0.3,0.3 0.1,0.1 0.2,0.1 0.4,0.1 0.1,0 0.2,0 0.3,-0.1 0.1,0 0.2,-0.1 0.2,-0.2 0.1,-0.1 0.1,-0.2 0.2,-0.3 0,-0.1 0.1,-0.2 0.1,-0.4 0,-0.1 0,-0.3 0.1,-0.5 0,-0.2 0,-0.4 0,-0.6 0,-0.3 0,-0.5 0,-0.7 -0.1,0 -0.1,-0.2 -0.2,-0.4 z"
           id="path59"
           inkscape:connector-curvature="0"
           style="fill:#0078d7" /><path
           d="m 81.1,47.8 c -0.4,0 -1,0 -1.6,0 H 69 c -0.7,0 -1.2,0.5 -1.2,1.2 v 14.9 c 0,0.7 0.5,1.2 1.2,1.2 h 14.2 c 0.6,0 1.2,-0.5 1.2,-1.2 V 51.1 h -3.2 v -3.3 z m -8.9,3 c 0,0 0,-0.1 0,-0.1 0,0 0,-0.1 0,-0.1 0,0 0,0 0.1,-0.1 l 1.2,-0.8 c 0,0 0,0 0.1,0 0,0 0.1,0 0.1,0 0,0 0.1,0 0.1,0 0.1,0 0.1,0 0.2,0 0.1,0 0.2,0 0.3,0 0.1,0 0.1,0 0.2,0 0,0 0.1,0 0.1,0 0,0 0,0 0,0.1 v 4.7 h 0.9 c 0,0 0.1,0 0.1,0 0,0 0,0 0.1,0.1 0.1,0.1 0,0.1 0,0.1 0,0.1 0,0.1 0,0.2 0,0.1 0,0.2 0,0.2 0,0.1 0,0.1 0,0.1 0,0 0,0.1 -0.1,0.1 0,0 0,0 -0.1,0 h -3.1 c 0,0 0,0 -0.1,0 0,0 0,0 -0.1,-0.1 0,0 0,-0.1 0,-0.1 0,-0.1 0,-0.1 0,-0.2 0,-0.1 0,-0.2 0,-0.2 0,-0.1 0,-0.1 0,-0.1 0,0 0,-0.1 0.1,-0.1 0,0 0,0 0.1,0 h 1.1 v -3.7 l -0.9,0.5 c -0.1,0 -0.1,0.1 -0.2,0.1 0,0 -0.1,0 -0.1,0 0,0 0,-0.1 -0.1,-0.1 0,-0.1 0,-0.1 0,-0.3 0,-0.1 0,-0.2 0,-0.2 z m 3.5,10.7 c -0.1,0.4 -0.2,0.7 -0.4,0.9 -0.2,0.3 -0.4,0.5 -0.6,0.6 -0.3,0.1 -0.6,0.2 -1,0.2 -0.4,0 -0.7,-0.1 -1,-0.2 -0.3,-0.1 -0.5,-0.3 -0.6,-0.6 -0.1,-0.3 -0.3,-0.6 -0.3,-0.9 -0.1,-0.4 -0.1,-0.8 -0.1,-1.2 0,-0.5 0,-0.9 0.1,-1.2 0.1,-0.4 0.2,-0.7 0.4,-0.9 0.2,-0.2 0.4,-0.5 0.6,-0.6 0.3,-0.1 0.6,-0.2 1,-0.2 0.4,0 0.7,0.1 1,0.2 0.3,0.1 0.5,0.3 0.6,0.6 0.1,0.3 0.3,0.6 0.3,0.9 0.1,0.4 0.1,0.8 0.1,1.2 0,0.5 0,0.9 -0.1,1.2 z m 4.5,1.4 c 0,0.1 0,0.1 0,0.1 0,0 0,0.1 -0.1,0.1 0,0 0,0 -0.1,0 h -3.1 c 0,0 0,0 -0.1,0 0,0 0,0 -0.1,-0.1 0,0 0,-0.1 0,-0.1 0,-0.1 0,-0.1 0,-0.2 0,-0.1 0,-0.2 0,-0.2 0,-0.1 0,-0.1 0,-0.1 0,0 0,-0.1 0.1,-0.1 0,0 0,0 0.1,0 H 78 v -3.7 l -0.9,0.5 c -0.1,0 -0.1,0.1 -0.2,0.1 0,0 -0.1,0 -0.1,0 0,0 0,-0.1 -0.1,-0.1 0,-0.1 0,-0.1 0,-0.3 0,-0.1 0,-0.1 0,-0.2 0,0 0,-0.1 0,-0.1 0,0 0,-0.1 0,-0.1 0,0 0,0 0.1,-0.1 L 78,57.5 c 0,0 0,0 0.1,0 0,0 0.1,0 0.1,0 0,0 0.1,0 0.1,0 0.1,0 0.1,0 0.2,0 0.1,0 0.2,0 0.3,0 0.1,0 0.1,0 0.2,0 0,0 0.1,0 0.1,0 0,0 0,0 0,0.1 v 4.7 H 80 c 0,0 0.1,0 0.1,0 0,0 0,0 0.1,0.1 0,0 0,0.1 0,0.1 0,0.1 0,0.1 0,0.2 0,0.1 0,0.2 0,0.2 z m 0.1,-9.2 c -0.1,0.4 -0.2,0.7 -0.4,0.9 -0.2,0.3 -0.4,0.5 -0.6,0.6 -0.3,0.1 -0.6,0.2 -1,0.2 -0.4,0 -0.7,-0.1 -1,-0.2 -0.3,-0.1 -0.5,-0.3 -0.6,-0.6 -0.1,-0.2 -0.3,-0.6 -0.3,-0.9 0,-0.3 -0.1,-0.8 -0.1,-1.2 0,-0.5 0,-0.9 0.1,-1.2 0.1,-0.4 0.2,-0.7 0.4,-0.9 0.2,-0.3 0.4,-0.5 0.6,-0.6 0.3,-0.1 0.6,-0.2 1,-0.2 0.4,0 0.7,0.1 1,0.2 0.3,0.1 0.5,0.3 0.6,0.6 0.1,0.3 0.3,0.6 0.3,0.9 0.1,0.4 0.1,0.8 0.1,1.2 0,0.5 -0.1,0.9 -0.1,1.2 z"
           id="path61"
           inkscape:connector-curvature="0"
           style="fill:#0078d7" /></g></g></g><g
     id="Layer_57"
     transform="translate(-56.8,-39.7)" /><g
     id="Ibiza_Symbols"
     transform="translate(-56.8,-39.7)"><g
       id="SQL_Database_Premium" /></g></svg>