<?xml version="1.0" encoding="UTF-8"?>
<svg xmlns="http://www.w3.org/2000/svg" xmlns:xlink="http://www.w3.org/1999/xlink" width="70pt" height="58pt" viewBox="0 0 70 58" version="1.1">
<g id="surface1">
<path style=" stroke:none;fill-rule:nonzero;fill:rgb(0%,44.705882%,77.647059%);fill-opacity:1;" d="M 63.117188 16.066406 C 63.164063 15.582031 63.1875 15.074219 63.1875 14.570313 C 63.1875 6.535156 56.488281 0 48.277344 0 C 43.398438 0 38.921875 2.300781 36.167969 6.074219 C 34.394531 4.992188 32.339844 4.394531 30.195313 4.394531 C 24.335938 4.394531 19.507813 8.792969 18.96875 14.382813 C 19.878906 14.269531 20.789063 14.175781 21.722656 14.175781 C 26.039063 14.175781 30.195313 15.558594 33.578125 17.996094 C 36.121094 12.21875 42.582031 8.515625 49.746094 8.308594 L 49.746094 3.359375 L 58.496094 10.746094 L 49.746094 18.089844 L 49.746094 13.257813 C 45.640625 13.417969 41.648438 14.9375 39.339844 18.621094 L 39.804688 18.574219 C 48.160156 18.574219 55.066406 24.742188 56.046875 32.636719 C 58.03125 34.109375 59.59375 35.882813 60.710938 37.90625 C 66.125 36.480469 70 31.875 70 26.238281 C 70 21.703125 67.527344 18.089844 63.117188 16.066406 Z M 63.117188 16.066406 "/>
<path style=" stroke:none;fill-rule:nonzero;fill:rgb(34.901961%,70.588235%,85.098039%);fill-opacity:1;" d="M 6.882813 35.214844 C 6.835938 34.707031 6.8125 34.199219 6.8125 33.695313 C 6.8125 25.660156 13.511719 19.148438 21.722656 19.148438 C 26.601563 19.148438 31.078125 21.449219 33.832031 25.199219 C 35.609375 24.121094 37.660156 23.542969 39.808594 23.542969 C 46.015625 23.542969 51.078125 28.492188 51.078125 34.566406 L 51.054688 35.445313 C 55.253906 37.539063 57.519531 41.011719 57.519531 45.363281 C 57.519531 52.199219 51.871094 57.539063 44.660156 57.539063 L 12.855469 57.539063 C 5.644531 57.539063 0 52.199219 0 45.363281 C 0 40.851563 2.472656 37.238281 6.882813 35.214844 Z M 6.882813 35.214844 "/>
</g>
</svg>
