<?xml version="1.0" encoding="UTF-8" standalone="no"?>
<svg
   xmlns:dc="http://purl.org/dc/elements/1.1/"
   xmlns:cc="http://creativecommons.org/ns#"
   xmlns:rdf="http://www.w3.org/1999/02/22-rdf-syntax-ns#"
   xmlns:svg="http://www.w3.org/2000/svg"
   xmlns="http://www.w3.org/2000/svg"
   xmlns:sodipodi="http://sodipodi.sourceforge.net/DTD/sodipodi-0.dtd"
   xmlns:inkscape="http://www.inkscape.org/namespaces/inkscape"
   viewBox="0 0 84.1 111.4"
   class=""
   role="presentation"
   focusable="false"
   id="FxSymbol0-074"
   version="1.1"
   sodipodi:docname="Azure Database MariaDB_COLOR.svg"
   width="84.099998"
   height="111.4"
   inkscape:version="0.92.2 (5c3e80d, 2017-08-06)">
  <metadata
     id="metadata29">
    <rdf:RDF>
      <cc:Work
         rdf:about="">
        <dc:format>image/svg+xml</dc:format>
        <dc:type
           rdf:resource="http://purl.org/dc/dcmitype/StillImage" />
      </cc:Work>
    </rdf:RDF>
  </metadata>
  <defs
     id="defs27" />
  <sodipodi:namedview
     pagecolor="#ffffff"
     bordercolor="#666666"
     borderopacity="1"
     objecttolerance="10"
     gridtolerance="10"
     guidetolerance="10"
     inkscape:pageopacity="0"
     inkscape:pageshadow="2"
     inkscape:window-width="640"
     inkscape:window-height="480"
     id="namedview25"
     showgrid="false"
     inkscape:zoom="2.1184919"
     inkscape:cx="42.049999"
     inkscape:cy="55.699999"
     inkscape:window-x="0"
     inkscape:window-y="0"
     inkscape:window-maximized="0"
     inkscape:current-layer="FxSymbol0-074" />
  <g
     id="g22">
    <title
       id="title2" />
    <path
       d="m 0,15.2 v 80.9 c 0,8.5 18.8,15.2 41.9,15.2 V 15.2 Z"
       id="path4"
       inkscape:connector-curvature="0"
       style="fill:#1b3662" />
    <path
       d="m 41.5,111.4 h 0.7 c 23.3,0 41.9,-6.7 41.9,-15.2 v -81 H 41.5 Z"
       id="path6"
       inkscape:connector-curvature="0"
       style="fill:#2f4c77" />
    <path
       d="M 84.1,15.2 C 84.1,23.5 65.3,30.4 42.2,30.4 19.1,30.4 0,23.5 0,15.2 0,6.9 18.8,0 41.9,0 65,0 84.1,7 84.1,15.2"
       class="msportalfx-svg-c01"
       id="path8"
       inkscape:connector-curvature="0"
       style="fill:#ffffff" />
    <path
       d="m 75.6,14.3 c 0,5.6 -15,10.1 -33.4,10.1 C 23.8,24.4 8.5,20 8.5,14.3 8.5,8.6 23.5,4.2 41.9,4.2 c 18.4,0 33.7,4.5 33.7,10.1"
       id="path10"
       inkscape:connector-curvature="0"
       style="fill:#7fb900" />
    <path
       d="m 68.4,20.4 c 4.5,-1.8 7,-3.8 7,-6.1 C 75.4,8.7 60.4,4.2 42,4.2 23.6,4.2 8.5,8.7 8.5,14.3 c 0,2.2 2.7,4.5 7,6.1 6.1,-2.5 15.7,-3.8 26.5,-3.8 10.8,0 20.3,1.6 26.4,3.8"
       id="path12"
       inkscape:connector-curvature="0"
       style="fill:#b7d332" />
    <path
       d="m 6.5,82.71 c 0,0 3.51,-1.58 4.57,-1.58 0,0 3.86,-0.53 5.62,-0.53 1.76,0 3.31,-1.4 4.57,-3.34 1.26,-1.94 6.32,-7.73 12.12,-9 5.8,-1.27 14.76,-2.64 19.68,-9.14 4.92,-6.5 7.55,-14.23 15.11,-14.58 7.56,-0.35 5.09,-1.93 7.2,-1.93 2.11,0 0.88,4 0.88,4 0,0 -0.7,0.53 -0.7,0.7 0,0.17 -0.55,2.37 -4.4,4.69 -3.85,2.32 -4,7.73 -4.39,10 -0.39,2.27 -3.86,13.35 -7.38,16.34 l -0.88,0.35 c 0,0 -0.35,0.88 -0.7,1.05 -0.35,0.17 -1.23,-0.7 -1.41,-1.05 -0.18,-0.35 -1.76,3 -2.28,3.69 a 13.7,13.7 0 0 1 -10.72,6.5 c 0,0 5.8,-9.66 5.27,-13.18 a 21.6,21.6 0 0 0 -1.58,3.86 c 0,0.7 -1.23,2.11 -3.16,2.28 -1.93,0.17 -14.23,-2.81 -19.32,0 -5.09,2.81 -7.2,5.27 -10,5.45 -2.8,0.18 -5.62,0.18 -6.68,-0.35 0,0 2.28,-2.46 2.46,-2.81 C 10.36,84.12 7,84.82 6.5,82.71 Z"
       class="msportalfx-svg-c01"
       id="path14"
       inkscape:connector-curvature="0"
       style="fill:#ffffff" />
    <path
       d="m 75.72,47.22 0.53,-0.53 c 0,0 -2.46,-0.7 -3.16,-2.46 a 0.85,0.85 0 0 0 0,0.7 10.72,10.72 0 0 0 2.63,2.29 z M 64.82,49 c 0,0 1.05,-2.46 3.34,-1.93 A 1.82,1.82 0 0 1 66.75,49.53 2.54,2.54 0 0 1 64.82,49 Z"
       id="path16"
       inkscape:connector-curvature="0"
       style="fill:#1b3662" />
    <path
       d="m 72.73,46 c 0,0 -1.93,2.64 -2.11,3.69 m 2.46,-3.17 a 23.66,23.66 0 0 0 -1.41,3.34 m 1.59,-3.34 a 10.76,10.76 0 0 0 -0.53,3.34"
       stroke-miterlimit="10"
       class="msportalfx-svg-c01"
       id="path18"
       inkscape:connector-curvature="0"
       style="fill:#ffffff;stroke:#1b3662;stroke-width:0.5;stroke-miterlimit:10" />
    <path
       d="m 62.19,76.21 c 0,0 -3.16,3 -3.34,4 -0.18,1 3.51,2.64 5.8,2.11 0,0.04 -2.46,-5.41 -2.46,-6.11 z"
       class="msportalfx-svg-c01"
       id="path20"
       inkscape:connector-curvature="0"
       style="fill:#ffffff" />
  </g>
</svg>
