<svg viewBox="0 0 16 16" class="" role="presentation" focusable="false" xmlns:svg="http://www.w3.org/2000/svg" xmlns:xlink="http://www.w3.org/1999/xlink" id="FxSymbol0-0b0"><g><title></title><path d="M16 8.806a2.679 2.679 0 0 1-2.655 2.674h-.725L10 7.465V5l.509-.009A.493.493 0 0 0 11 4.5a.493.493 0 0 0-.491-.5H7.491A.493.493 0 0 0 7 4.491a.493.493 0 0 0 .491.491L8 5v2.47l-2.662 4.014H3.155a3.411 3.411 0 0 1 .415-6.809 3.333 3.333 0 0 1 1.489.348 4.1 4.1 0 1 1 8.12 1.132h.188A2.644 2.644 0 0 1 16 8.806z" class="msportalfx-svg-c19" fill="#0072c6"></path><path d="M12.373 14H5.588a.275.275 0 0 1-.231-.426L7.688 10h2.562l2.35 3.573a.275.275 0 0 1-.227.427z" class="msportalfx-svg-c15" fill="#59b4d9"></path></g></svg>