<?xml version="1.0" encoding="UTF-8"?>
<svg xmlns="http://www.w3.org/2000/svg" xmlns:xlink="http://www.w3.org/1999/xlink" width="70pt" height="70pt" viewBox="0 0 70 70" version="1.1">
<g id="surface1">
<path style=" stroke:none;fill-rule:nonzero;fill:rgb(86.666667%,34.901961%,0%);fill-opacity:1;" d="M 67.617188 29.800781 C 65.648438 27.835938 62.828125 27.285156 60.351563 28.089844 L 54.808594 22.550781 C 55.738281 20.359375 55.246094 17.828125 53.5625 16.144531 C 51.882813 14.464844 49.347656 13.972656 47.160156 14.898438 L 41.617188 9.359375 C 42.425781 6.882813 41.875 4.058594 39.90625 2.09375 C 37.117188 -0.699219 32.59375 -0.699219 29.800781 2.09375 C 27.835938 4.058594 27.285156 6.882813 28.089844 9.359375 L 22.550781 14.898438 C 20.359375 13.972656 17.828125 14.464844 16.144531 16.144531 C 14.464844 17.828125 13.972656 20.359375 14.898438 22.550781 L 9.359375 28.089844 C 6.882813 27.285156 4.058594 27.835938 2.09375 29.800781 C -0.699219 32.59375 -0.699219 37.117188 2.09375 39.90625 C 4.058594 41.875 6.882813 42.425781 9.359375 41.617188 L 14.898438 47.160156 C 13.972656 49.347656 14.464844 51.882813 16.144531 53.5625 C 17.828125 55.246094 20.359375 55.738281 22.550781 54.808594 L 28.089844 60.351563 C 27.285156 62.828125 27.835938 65.648438 29.800781 67.617188 C 32.59375 70.40625 37.117188 70.40625 39.90625 67.617188 C 41.875 65.648438 42.425781 62.828125 41.617188 60.351563 L 47.160156 54.808594 C 49.347656 55.738281 51.882813 55.246094 53.5625 53.5625 C 55.246094 51.882813 55.738281 49.347656 54.808594 47.160156 L 60.351563 41.617188 C 62.828125 42.425781 65.648438 41.875 67.617188 39.90625 C 70.40625 37.117188 70.40625 32.59375 67.617188 29.800781 Z M 30.703125 56.773438 L 25.640625 51.714844 C 25.941406 51.015625 26.105469 50.246094 26.105469 49.4375 C 26.105469 48.628906 25.941406 47.859375 25.640625 47.160156 L 34.855469 37.949219 L 44.066406 47.160156 C 43.769531 47.859375 43.605469 48.628906 43.605469 49.4375 C 43.605469 50.246094 43.769531 51.015625 44.066406 51.714844 L 39.007813 56.773438 C 36.527344 54.992188 33.183594 54.992188 30.703125 56.773438 Z M 12.933594 30.703125 L 17.992188 25.640625 C 18.695313 25.941406 19.464844 26.105469 20.269531 26.105469 C 21.078125 26.105469 21.847656 25.941406 22.550781 25.640625 L 31.761719 34.855469 L 22.550781 44.066406 C 21.847656 43.769531 21.078125 43.605469 20.269531 43.605469 C 19.464844 43.605469 18.695313 43.769531 17.992188 44.066406 L 12.933594 39.007813 C 14.714844 36.527344 14.714844 33.183594 12.933594 30.703125 Z M 39.007813 12.933594 L 44.066406 17.992188 C 43.769531 18.695313 43.605469 19.464844 43.605469 20.269531 C 43.605469 21.078125 43.769531 21.847656 44.066406 22.550781 L 34.855469 31.761719 L 25.640625 22.550781 C 25.941406 21.847656 26.105469 21.078125 26.105469 20.269531 C 26.105469 19.464844 25.941406 18.695313 25.640625 17.992188 L 30.703125 12.933594 C 33.183594 14.714844 36.527344 14.714844 39.007813 12.933594 Z M 49.4375 43.605469 C 48.628906 43.605469 47.859375 43.769531 47.160156 44.066406 L 37.949219 34.855469 L 47.160156 25.640625 C 47.859375 25.941406 48.628906 26.105469 49.4375 26.105469 C 50.246094 26.105469 51.015625 25.941406 51.714844 25.640625 L 56.773438 30.703125 C 54.992188 33.183594 54.992188 36.527344 56.773438 39.007813 L 51.714844 44.066406 C 50.996094 43.761719 50.222656 43.605469 49.4375 43.605469 Z M 49.4375 43.605469 "/>
</g>
</svg>
