<?xml version="1.0" encoding="UTF-8" standalone="no"?>
<svg
   xmlns:dc="http://purl.org/dc/elements/1.1/"
   xmlns:cc="http://creativecommons.org/ns#"
   xmlns:rdf="http://www.w3.org/1999/02/22-rdf-syntax-ns#"
   xmlns:svg="http://www.w3.org/2000/svg"
   xmlns="http://www.w3.org/2000/svg"
   xmlns:sodipodi="http://sodipodi.sourceforge.net/DTD/sodipodi-0.dtd"
   xmlns:inkscape="http://www.inkscape.org/namespaces/inkscape"
   version="1.1"
   width="104"
   height="104"
   viewBox="0 0 104 104"
   overflow="hidden"
   id="svg68"
   sodipodi:docname="Azure Repos_COLOR.svg"
   style="overflow:hidden;fill:none"
   inkscape:version="0.92.2 (5c3e80d, 2017-08-06)">
  <metadata
     id="metadata72">
    <rdf:RDF>
      <cc:Work
         rdf:about="">
        <dc:format>image/svg+xml</dc:format>
        <dc:type
           rdf:resource="http://purl.org/dc/dcmitype/StillImage" />
      </cc:Work>
    </rdf:RDF>
  </metadata>
  <sodipodi:namedview
     pagecolor="#ffffff"
     bordercolor="#666666"
     borderopacity="1"
     objecttolerance="10"
     gridtolerance="10"
     guidetolerance="10"
     inkscape:pageopacity="0"
     inkscape:pageshadow="2"
     inkscape:window-width="640"
     inkscape:window-height="480"
     id="namedview70"
     showgrid="false"
     inkscape:zoom="2.4583333"
     inkscape:cx="52"
     inkscape:cy="56"
     inkscape:window-x="0"
     inkscape:window-y="0"
     inkscape:window-maximized="0"
     inkscape:current-layer="svg68" />
  <defs
     id="defs38">
    <filter
       id="filter0_f"
       x="4"
       y="0"
       width="88"
       height="94"
       filterUnits="userSpaceOnUse"
       primitiveUnits="userSpaceOnUse"
       style="color-interpolation-filters:sRGB">
      <feFlood
         flood-opacity="0"
         result="BackgroundImageFix"
         id="feFlood2" />
      <feBlend
         in="SourceGraphic"
         in2="BackgroundImageFix"
         result="shape"
         mode="normal"
         id="feBlend4" />
      <feGaussianBlur
         result="effect1_foregroundBlur"
         stdDeviation="4 4"
         id="feGaussianBlur6" />
    </filter>
    <filter
       id="filter1_f"
       x="-4"
       y="8"
       width="104"
       height="96"
       filterUnits="userSpaceOnUse"
       primitiveUnits="userSpaceOnUse"
       style="color-interpolation-filters:sRGB">
      <feFlood
         flood-opacity="0"
         result="BackgroundImageFix"
         id="feFlood9" />
      <feBlend
         in="SourceGraphic"
         in2="BackgroundImageFix"
         result="shape"
         mode="normal"
         id="feBlend11" />
      <feGaussianBlur
         result="effect1_foregroundBlur"
         stdDeviation="4 4"
         id="feGaussianBlur13" />
    </filter>
    <filter
       id="filter2_f"
       x="13"
       y="14"
       width="71"
       height="84"
       filterUnits="userSpaceOnUse"
       primitiveUnits="userSpaceOnUse"
       style="color-interpolation-filters:sRGB">
      <feFlood
         flood-opacity="0"
         result="BackgroundImageFix"
         id="feFlood16" />
      <feBlend
         in="SourceGraphic"
         in2="BackgroundImageFix"
         result="shape"
         mode="normal"
         id="feBlend18" />
      <feGaussianBlur
         result="effect1_foregroundBlur"
         stdDeviation="4 4"
         id="feGaussianBlur20" />
    </filter>
    <linearGradient
       x2="1"
       gradientUnits="userSpaceOnUse"
       id="paint0_linear"
       gradientTransform="matrix(0,64,-65.8286,0,68.9143,0)">
      <stop
         offset="0"
         stop-color="#C82400"
         id="stop23" />
      <stop
         offset="1"
         stop-color="#D83B01"
         stop-opacity="0"
         id="stop25" />
    </linearGradient>
    <linearGradient
       x2="1"
       gradientUnits="userSpaceOnUse"
       id="paint1_linear"
       gradientTransform="matrix(0,31.5,-7.52212,0,7.76106,3.5)">
      <stop
         offset="0"
         stop-color="#FC9F7C"
         id="stop28" />
      <stop
         offset="1"
         stop-color="#D83B01"
         id="stop30" />
    </linearGradient>
    <linearGradient
       x2="1"
       gradientUnits="userSpaceOnUse"
       id="paint2_linear"
       gradientTransform="matrix(80,0,0,74.1667,5.58874e-8,6.41667)">
      <stop
         offset="0"
         stop-color="#FFD7C1"
         id="stop33" />
      <stop
         offset="1"
         stop-color="#FFC29F"
         stop-opacity="0"
         id="stop35" />
    </linearGradient>
  </defs>
  <g
     id="DevOpsIconRepos96"
     transform="translate(4)">
    <mask
       maskUnits="userSpaceOnUse"
       x="4"
       y="0"
       width="88"
       height="96"
       id="mask0">
      <path
         d="m 68,0 c 2.2091,0 4,1.79102 4,4 v 4 h 4 c 2.2091,0 4,1.79102 4,4 v 4 h 4 c 2.2091,0 4,1.791 4,4 v 72 c 0,2.209 -1.7909,4 -4,4 H 4 C 1.79086,96 0,94.209 0,92 V 20 C 0,17.791 1.79086,16 4,16 H 8 V 12 C 8,9.79102 9.79086,8 12,8 h 4 V 4 c 0,-2.20898 1.7909,-4 4,-4 z"
         id="Union"
         transform="translate(4)"
         inkscape:connector-curvature="0"
         style="fill:#ffffff" />
    </mask>
    <g
       mask="url(#mask0)"
       id="g65">
      <path
         d="M 0,4 C 0,1.79086 1.79086,0 4,0 H 32.9314 39.5 75 c 2.2091,0 4,1.79086 4,4 v 48 c 0,2.2091 -1.7909,4 -4,4 H 4 C 1.79086,56 0,54.2091 0,52 Z"
         id="Rectangle"
         transform="rotate(90,38,38)"
         inkscape:connector-curvature="0"
         style="fill:#c43601" />
      <g
         id="Rectangle_2"
         style="opacity:0.75;filter:url(#filter0_f)">
        <path
           d="M 0,4 C 0,1.79086 1.79086,0 4,0 H 32.5145 39 74 c 2.2091,0 4,1.79086 4,4 v 64 c 0,2.2091 -1.7909,4 -4,4 H 4 C 1.79086,72 0,70.2091 0,68 Z"
           transform="rotate(90,38,46)"
           id="path43"
           inkscape:connector-curvature="0"
           style="fill:#5f1400" />
      </g>
      <path
         d="M 0,4 C 0,1.79086 1.79086,0 4,0 H 32.5145 39 74 c 2.2091,0 4,1.79086 4,4 v 64 c 0,2.2091 -1.7909,4 -4,4 H 4 C 1.79086,72 0,70.2091 0,68 Z"
         id="Rectangle_3"
         transform="rotate(90,38,46)"
         inkscape:connector-curvature="0"
         style="fill:#d83b01" />
      <rect
         x="0"
         y="0"
         width="56"
         height="8"
         id="Rectangle 2"
         transform="translate(20,8)"
         style="fill:#ca3701" />
      <g
         id="Rectangle_4"
         style="opacity:0.6;filter:url(#filter1_f)">
        <path
           d="M 0,4 C 0,1.79086 1.79086,0 4,0 H 33.3482 40 76 c 2.2091,0 4,1.79086 4,4 v 80 c 0,2.2091 -1.7909,4 -4,4 H 4 C 1.79086,88 0,86.2091 0,84 Z"
           transform="rotate(90,38,54)"
           id="path48"
           inkscape:connector-curvature="0"
           style="fill:#7c1a00" />
      </g>
      <path
         d="M 0,4 C 0,1.79086 1.79086,0 4,0 H 33.3482 40 76 c 2.2091,0 4,1.79086 4,4 v 80 c 0,2.2091 -1.7909,4 -4,4 H 4 C 1.79086,88 0,86.2091 0,84 Z"
         id="Rectangle_5"
         transform="rotate(90,38,54)"
         inkscape:connector-curvature="0"
         style="fill:#d83b01" />
      <path
         d="M 72,0 H 0 v 66 c 0,2.209 1.59191,4 3.55556,4 H 68.4444 C 70.4081,70 72,68.209 72,66 Z"
         id="Intersect"
         transform="translate(12,16)"
         inkscape:connector-curvature="0"
         style="fill:url(#paint0_linear)" />
      <g
         id="Group 2">
        <path
           d="M 8,0 V 36 H 0 V 0 Z"
           id="Vector (Stroke)"
           transform="translate(27,38)"
           inkscape:connector-curvature="0"
           style="clip-rule:evenodd;fill:url(#paint1_linear);fill-rule:evenodd" />
        <path
           d="M 20,10 C 20,15.5229 15.5228,20 10,20 4.47717,20 0,15.5229 0,10 0,4.47705 4.47717,0 10,0 15.5228,0 20,4.47705 20,10 Z m -10,6 c 3.3137,0 6,-2.6865 6,-6 0,-3.31348 -2.6863,-6 -6,-6 -3.31372,0 -6,2.68652 -6,6 0,3.3135 2.68628,6 6,6 z"
           id="Subtract"
           transform="translate(21,22)"
           inkscape:connector-curvature="0"
           style="clip-rule:evenodd;fill:#fc9f7c;fill-rule:evenodd" />
      </g>
      <g
         id="Union_2"
         style="filter:url(#filter2_f)">
        <path
           d="M 49,19.168 C 52.5318,17.625 55,14.1006 55,10 55,4.47656 50.5228,0 45,0 39.4772,0 35,4.47656 35,10 c 0,4.1006 2.4682,7.625 6,9.168 v 5.0693 l -35,15 V 48.832 C 2.4682,50.375 0,53.8994 0,58 c 0,5.5234 4.47717,10 10,10 5.5228,0 10,-4.4766 10,-10 0,-4.1006 -2.4682,-7.625 -6,-9.168 v -4.3193 l 35,-15 z M 45,16 c 3.3137,0 6,-2.6865 6,-6 0,-3.31348 -2.6863,-6 -6,-6 -3.3137,0 -6,2.68652 -6,6 0,3.3135 2.6863,6 6,6 z M 4,58 c 0,-3.3135 2.68628,-6 6,-6 3.3137,0 6,2.6865 6,6 0,3.3135 -2.6863,6 -6,6 -3.31372,0 -6,-2.6865 -6,-6 z"
           transform="translate(21,22)"
           id="path56"
           inkscape:connector-curvature="0"
           style="clip-rule:evenodd;fill:#bf2200;fill-rule:evenodd" />
      </g>
      <g
         id="Group">
        <path
           d="M 20,10 C 20,15.5229 15.5228,20 10,20 4.47717,20 0,15.5229 0,10 0,4.47705 4.47717,0 10,0 15.5228,0 20,4.47705 20,10 Z m -10,6 c 3.3137,0 6,-2.6865 6,-6 0,-3.31348 -2.6863,-6 -6,-6 -3.31372,0 -6,2.68652 -6,6 0,3.3135 2.68628,6 6,6 z"
           id="Subtract_2"
           transform="translate(21,70)"
           inkscape:connector-curvature="0"
           style="clip-rule:evenodd;fill:#ffd5c6;fill-rule:evenodd" />
        <path
           d="m 43,0 v 13.5126 l -35,15 V 36 H 0 V 23.2374 L 35,8.23742 V 0 Z"
           id="Vector (Stroke)_2"
           transform="translate(27,38)"
           inkscape:connector-curvature="0"
           style="clip-rule:evenodd;fill:#febca3;fill-rule:evenodd" />
        <path
           d="M 0.00936455,3.43363 0,16.1999 H 7.99999 L 8.01642,0 Z"
           id="Intersect_2"
           transform="translate(27,57.7998)"
           inkscape:connector-curvature="0"
           style="fill:#ffd5c6" />
        <path
           d="M 20,10 C 20,15.5229 15.5228,20 10,20 4.47717,20 0,15.5229 0,10 0,4.47705 4.47717,0 10,0 15.5228,0 20,4.47705 20,10 Z m -10,6 c 3.3137,0 6,-2.6865 6,-6 0,-3.31348 -2.6863,-6 -6,-6 -3.31372,0 -6,2.68652 -6,6 0,3.3135 2.68628,6 6,6 z"
           id="Subtract_3"
           transform="translate(56,22)"
           inkscape:connector-curvature="0"
           style="clip-rule:evenodd;fill:#febca3;fill-rule:evenodd" />
      </g>
      <path
         d="m 0,84 c 0,2.2091 1.79102,4 4,4 h 72 c 2.209,0 4,-1.7909 4,-4 V 4 C 80,1.79086 78.209,0 76,0 H 4 C 1.79102,0 0,1.79086 0,4 v 4 72 z"
         id="Subtract_4"
         transform="rotate(90,38,54)"
         inkscape:connector-curvature="0"
         style="clip-rule:evenodd;opacity:0.2;fill:url(#paint2_linear);fill-rule:evenodd" />
    </g>
  </g>
</svg>
