<?xml version="1.0" encoding="UTF-8" standalone="no"?>
<!-- Generator: Adobe Illustrator 17.0.1, SVG Export Plug-In . SVG Version: 6.00 Build 0)  -->

<svg
   xmlns:dc="http://purl.org/dc/elements/1.1/"
   xmlns:cc="http://creativecommons.org/ns#"
   xmlns:rdf="http://www.w3.org/1999/02/22-rdf-syntax-ns#"
   xmlns:svg="http://www.w3.org/2000/svg"
   xmlns="http://www.w3.org/2000/svg"
   xmlns:sodipodi="http://sodipodi.sourceforge.net/DTD/sodipodi-0.dtd"
   xmlns:inkscape="http://www.inkscape.org/namespaces/inkscape"
   version="1.1"
   id="Layer_1"
   x="0px"
   y="0px"
   width="50.000008"
   height="49.990002"
   viewBox="0 0 50.000008 49.990002"
   enable-background="new 0 0 50 50"
   xml:space="preserve"
   sodipodi:docname="Azure App Service - Web App (was Websites)_COLOR.svg"
   inkscape:version="0.92.2 (5c3e80d, 2017-08-06)"><metadata
     id="metadata11"><rdf:RDF><cc:Work
         rdf:about=""><dc:format>image/svg+xml</dc:format><dc:type
           rdf:resource="http://purl.org/dc/dcmitype/StillImage" /></cc:Work></rdf:RDF></metadata><defs
     id="defs9" /><sodipodi:namedview
     pagecolor="#ffffff"
     bordercolor="#666666"
     borderopacity="1"
     objecttolerance="10"
     gridtolerance="10"
     guidetolerance="10"
     inkscape:pageopacity="0"
     inkscape:pageshadow="2"
     inkscape:window-width="640"
     inkscape:window-height="480"
     id="namedview7"
     showgrid="false"
     inkscape:zoom="4.72"
     inkscape:cx="24.999866"
     inkscape:cy="24.99"
     inkscape:window-x="0"
     inkscape:window-y="0"
     inkscape:window-maximized="0"
     inkscape:current-layer="Layer_1" /><path
     d="m 40.192866,44.839 c -4.53,3.464 -9.867,5.151 -15.167,5.151 -7.52,0 -14.956,-3.376 -19.87,-9.803 -8.396,-10.962 -6.324,-26.639 4.658,-35.039 4.529,-3.485 9.872,-5.148 15.165,-5.148 7.52,0 14.958,3.376 19.87,9.809 8.398,10.959 6.305,26.639 -4.656,35.03"
     id="path2"
     inkscape:connector-curvature="0"
     style="fill:#59b4d9" /><path
     d="m 35.599866,29.378 c 1.816,2.368 5.186,2.796 7.541,1.004 0.123,-0.094 0.218,-0.208 0.33,-0.309 2.409,1.697 4.082,2.817 5.025,3.459 0.279,-0.723 0.472,-1.417 0.67,-2.142 -0.996,-0.741 -2.343,-1.778 -4.29,-3.356 0.639,-1.68 0.437,-3.64 -0.73,-5.171 -1.669,-2.16 -4.626,-2.709 -6.936,-1.377 -2.546,-2.284 -5.343,-4.902 -8.293,-7.833 9.165,-4.929 15.676,-4.207 15.676,-4.207 -1.087,-1.386 -2.305,-2.6 -3.606,-3.697 -3.865,-0.597 -9.869,-0.53 -16.729,3.119 l -0.002,-0.003 h -0.001 c -2.286,-2.393 -4.613,-4.958 -6.983,-7.712 -1.134,0.363 -2.242,0.812 -3.312,1.347 1.749,2.862 4.102,5.749 6.754,8.565 v 0 c 0.005,0.006 0.011,0.011 0.017,0.017 -2.211,1.546 -4.673,3.613 -6.944,6.015 -0.29,0.309 -0.569,0.62 -0.842,0.931 -1.357,-0.284 -2.784,-0.201 -4.117,0.282 -2.264,-4.885 -2.082,-8.809 -1.724,-10.832 -0.983,1.03 -1.901,2.113 -2.692,3.267 -0.591,2.415 -0.759,5.898 0.985,10.095 -2.019,2.642 -2.114,6.389 -0.005,9.153 0.176,0.229 0.364,0.442 0.559,0.645 -0.921,3.137 -1.333,6.163 -1.46,8.761 0.237,0.322 0.237,0.582 0.472,0.896 1.199,1.538 2.705,2.834 4.16,4.008 -0.18,-2.75 0.014,-6.806 1.714,-11.372 1.173,0.089 2.366,-0.096 3.483,-0.566 0.64,0.563 1.31,1.132 2.025,1.711 2.453,1.942 4.9,3.453 7.285,4.643 -0.124,1.213 0.18,2.474 0.968,3.518 1.685,2.176 4.805,2.582 6.983,0.919 0.453,-0.347 0.811,-0.766 1.108,-1.216 3.889,0.866 7.287,1.019 9.806,1.019 0.386,0 2.177,-2.436 3.203,-3.946 -1.534,0.321 -6.083,0.946 -12.3,-0.84 -0.15,-0.698 -0.437,-1.376 -0.898,-1.98 -1.579,-2.07 -4.466,-2.518 -6.618,-1.133 -2.161,-1.172 -4.424,-2.641 -6.758,-4.49 -0.471,-0.373 -0.923,-0.745 -1.359,-1.118 1.426,-2.247 1.578,-5.127 0.318,-7.55 0.286,-0.286 0.567,-0.573 0.871,-0.857 2.311,-2.159 4.485,-3.887 6.519,-5.274 -0.082,-0.076 -0.156,-0.156 -0.236,-0.233 0.081,0.075 0.157,0.152 0.239,0.227 -0.001,0 -0.001,10e-4 -0.002,10e-4 3.121,2.886 6.43,5.621 9.564,8.065 -0.829,1.758 -0.699,3.899 0.562,5.547 z"
     id="path4"
     inkscape:connector-curvature="0"
     style="fill:#ffffff" /></svg>