<?xml version="1.0" encoding="UTF-8" standalone="no"?>
<svg
   xmlns:dc="http://purl.org/dc/elements/1.1/"
   xmlns:cc="http://creativecommons.org/ns#"
   xmlns:rdf="http://www.w3.org/1999/02/22-rdf-syntax-ns#"
   xmlns:svg="http://www.w3.org/2000/svg"
   xmlns="http://www.w3.org/2000/svg"
   xmlns:sodipodi="http://sodipodi.sourceforge.net/DTD/sodipodi-0.dtd"
   xmlns:inkscape="http://www.inkscape.org/namespaces/inkscape"
   aria-hidden="true"
   role="presentation"
   version="1.1"
   id="svg31"
   sodipodi:docname="azure-maps_COLOR.svg"
   inkscape:version="0.92.2 (5c3e80d, 2017-08-06)"
   width="97.401855"
   height="124.224">
  <metadata
     id="metadata37">
    <rdf:RDF>
      <cc:Work
         rdf:about="">
        <dc:format>image/svg+xml</dc:format>
        <dc:type
           rdf:resource="http://purl.org/dc/dcmitype/StillImage" />
      </cc:Work>
    </rdf:RDF>
  </metadata>
  <defs
     id="defs35" />
  <sodipodi:namedview
     pagecolor="#ffffff"
     bordercolor="#666666"
     borderopacity="1"
     objecttolerance="10"
     gridtolerance="10"
     guidetolerance="10"
     inkscape:pageopacity="0"
     inkscape:pageshadow="2"
     inkscape:window-width="2560"
     inkscape:window-height="1377"
     id="namedview33"
     showgrid="false"
     inkscape:zoom="2.36"
     inkscape:cx="49.790503"
     inkscape:cy="63.20745"
     inkscape:window-x="-8"
     inkscape:window-y="-8"
     inkscape:window-maximized="1"
     inkscape:current-layer="g28" />
  <svg
     id="svg-azure-maps"
     version="1.1"
     width="100%"
     height="100%"
     transform="translate(-0.20949656,11.016549)">
    <g
       id="g28"
       transform="translate(-12.711864,-7.2033898)"
       style="fill:none;fill-rule:evenodd;stroke:none;stroke-width:1">
      <polygon
         points="120.8935,23.0518 161.1095,120.7008 161.8345,122.3458 134.5415,1.8748 "
         id="polygon20"
         style="fill:#0babd1"
         transform="translate(-53.389831,-3.8135593)" />
      <polygon
         points="143.3627,77.609 68.3657,106.76 121.0737,22.992 "
         id="polygon22"
         style="fill:#0058a1"
         transform="translate(-53.389831,-3.8135593)" />
      <polygon
         points="161.8368,122.3505 143.3628,77.6115 118.6388,87.2115 "
         id="polygon24"
         style="fill:#1e74bd"
         transform="translate(-53.389831,-3.8135593)" />
      <path
         d="m 81.150669,-3.8131593 c -0.635,0 -1.236,0.323 -1.583,0.873 l -66.356,104.9449993 c -0.433,0.684 -0.377,1.568 0.137,2.193 0.364,0.442 0.899,0.683 1.448,0.683 0.227,0 0.457,-0.041 0.678,-0.127 l 49.451,-19.203 42.340001,34.44 c 0.343,0.279 0.762,0.42 1.183,0.42 0.342,0 0.684,-0.093 0.988,-0.281 0.679,-0.422 1.017,-1.228 0.84,-2.007 L 82.979669,-2.3531593 c -0.168,-0.739 -0.764,-1.304 -1.51,-1.433 -0.107,-0.018 -0.214,-0.027 -0.319,-0.027 m 0,1.874 27.298001,120.4759993 -43.186001,-35.127 -50.283,19.525 66.171,-104.8739993"
         id="path26"
         inkscape:connector-curvature="0"
         style="fill:#ffffff" />
    </g>
  </svg>
</svg>
