<?xml version="1.0" encoding="UTF-8" standalone="no"?>
<!-- Generator: Adobe Illustrator 21.1.0, SVG Export Plug-In . SVG Version: 6.00 Build 0)  -->

<svg
   xmlns:dc="http://purl.org/dc/elements/1.1/"
   xmlns:cc="http://creativecommons.org/ns#"
   xmlns:rdf="http://www.w3.org/1999/02/22-rdf-syntax-ns#"
   xmlns:svg="http://www.w3.org/2000/svg"
   xmlns="http://www.w3.org/2000/svg"
   xmlns:sodipodi="http://sodipodi.sourceforge.net/DTD/sodipodi-0.dtd"
   xmlns:inkscape="http://www.inkscape.org/namespaces/inkscape"
   version="1.1"
   id="Layer_1"
   x="0px"
   y="0px"
   width="50.000156"
   height="50"
   viewBox="0 0 50.000156 50"
   enable-background="new 0 0 50 50"
   xml:space="preserve"
   sodipodi:docname="Azure Event Grid_COLOR.svg"
   inkscape:version="0.92.2 (5c3e80d, 2017-08-06)"><metadata
     id="metadata21"><rdf:RDF><cc:Work
         rdf:about=""><dc:format>image/svg+xml</dc:format><dc:type
           rdf:resource="http://purl.org/dc/dcmitype/StillImage" /></cc:Work></rdf:RDF></metadata><defs
     id="defs19" /><sodipodi:namedview
     pagecolor="#ffffff"
     bordercolor="#666666"
     borderopacity="1"
     objecttolerance="10"
     gridtolerance="10"
     guidetolerance="10"
     inkscape:pageopacity="0"
     inkscape:pageshadow="2"
     inkscape:window-width="640"
     inkscape:window-height="480"
     id="namedview17"
     showgrid="false"
     inkscape:zoom="4.72"
     inkscape:cx="25"
     inkscape:cy="25"
     inkscape:window-x="0"
     inkscape:window-y="0"
     inkscape:window-maximized="0"
     inkscape:current-layer="Layer_1" /><polygon
     points="24.004,20 23.996,19.996 16.991,27 11.82,27 23.82,15 32,15 32,13 23,13 23,13.005 22.992,13 8.991,27 7,27 7,29 13,29 20,35.999 20,35.999 20,36 37,36 37,34 20.828,34 15.829,29 28,29 28,27 19.82,27 24.82,22 39,22 39,20 "
     id="polygon2"
     style="fill:#0072c6" /><circle
     cx="30"
     cy="28"
     r="2.9000001"
     id="circle4"
     style="fill:#59b4d9" /><circle
     transform="rotate(-45)"
     cx="13.434958"
     cy="33.233948"
     id="ellipse6"
     r="2.8999722"
     style="fill:#59b4d9;stroke-width:0.9999904" /><circle
     transform="rotate(-45)"
     cx="13.434888"
     cy="43.133373"
     id="ellipse8"
     r="2.8999722"
     style="fill:#b8d432;stroke-width:0.9999904" /><circle
     transform="rotate(-45)"
     cx="1.4141428"
     cy="50.911476"
     id="ellipse10"
     r="2.8999722"
     style="fill:#b8d432;stroke-width:0.9999904" /><path
     d="M 0.801,0 C 0.3,0 0,0.3 0,0.8 v 10 c 0,0.5 0.3,0.8 0.801,0.8 H 5.809 C 6.31,11.6 6.61,11.3 6.61,10.8 V 6.7 h 36.76 v 4.2 c 0,0.5 0.3,0.8 1.002,0.8 h 4.808 c 0.501,0 0.801,-0.3 0.801,-0.8 v -5 -5 C 50.081,0.3 49.781,0 49.28,0 v 0 z"
     id="path12"
     inkscape:connector-curvature="0"
     style="fill:#0072c6" /><path
     d="m 49.2,50 c 0.5,0 0.8,-0.3 0.8,-0.8 v -9.8 c 0,-0.5 -0.3,-0.8 -0.8,-0.8 h -4.8 c -0.5,0 -0.8,0.3 -0.8,0.8 v 4 H 6.7 v -4.2 c 0,-0.5 -0.3,-0.8 -1,-0.8 H 0.8 c -0.5,0 -0.8,0.3 -0.8,1 v 9.8 C 0,49.7 0.3,50 0.8,50 Z"
     id="path14"
     inkscape:connector-curvature="0"
     style="fill:#0072c6" /></svg>