<svg viewBox="0 0 50 50" class="" role="presentation" focusable="false" xmlns:svg="http://www.w3.org/2000/svg" xmlns:xlink="http://www.w3.org/1999/xlink" id="FxSymbol0-022"><g><title></title><path d="M39.337 19.525a5.688 5.688 0 0 0 0-8.045l-9.812-9.813a5.69 5.69 0 0 0-8.046 0l-9.813 9.813a5.69 5.69 0 0 0 0 8.045l8.633 8.633v16.641l5.202 5.202 4.519-4.519v-.033l2.652-2.653-2.629-2.629 2.629-2.629-2.629-2.629 2.629-2.629-2.652-2.653v-.784l9.317-9.318zM25.502 4.039a3.23 3.23 0 1 1 0 6.459 3.23 3.23 0 0 1 0-6.459z" class="msportalfx-svg-c11" fill="#fcd116"></path><path opacity=".4" d="M22.728 43.961l2.03 2V30.008l-2.03-1z" class="msportalfx-svg-c10" fill="#ff8c00"></path><path opacity=".5" d="M15.868 13.617h18.64v2.679h-18.64zm0 4.359h18.64v2.679h-18.64z" class="msportalfx-svg-c01" fill="#ffffff"></path></g></svg>