<svg aria-hidden="true" role="presentation">
<defs>
    <style type="text/css">
      <![CDATA[
        .msportalfx-svg-c01{fill:#fff}.msportalfx-svg-c02{fill:#e5e5e5}.msportalfx-svg-c03{fill:#a0a1a2}.msportalfx-svg-c04{fill:#7a7a7a}.msportalfx-svg-c05{fill:#3e3e3e}.msportalfx-svg-c06{fill:#1e1e1e}.msportalfx-svg-c07{fill:#0f0f0f}.msportalfx-svg-c08{fill:#ba141a}.msportalfx-svg-c09{fill:#dd5900}.msportalfx-svg-c10{fill:#ff8c00}.msportalfx-svg-c11{fill:#fcd116}.msportalfx-svg-c12{fill:#fee087}.msportalfx-svg-c13{fill:#b8d432}.msportalfx-svg-c14{fill:#7fba00}.msportalfx-svg-c15{fill:#59b4d9}.msportalfx-svg-c16{fill:#3999c6}.msportalfx-svg-c17{fill:#804998}.msportalfx-svg-c18{fill:#ec008c}.msportalfx-svg-c19{fill:#0072c6}.msportalfx-svg-c20{fill:#68217a}.msportalfx-svg-c21{fill:#00188f}.msportalfx-svg-c22{fill:#e81123}.msportalfx-svg-c23{fill:#cae3f3}.msportalfx-svg-c24{fill:#59aed3}.msportalfx-svg-c25{fill:#4c3b12}.msportalfx-svg-c26{fill:#be9555}.msportalfx-svg-c27{fill:#4f4d52}.msportalfx-svg-c28{fill:#ef6f59}.msportalfx-svg-c29{fill:#f7cb64}.msportalfx-svg-c97{fill:#ffb900}.msportalfx-svg-c98{fill:#00a4ef}.msportalfx-svg-c99{fill:#f25022}
      ]]>
    </style>
  </defs>
<g><title></title><path d="M47.465 21.535c-1.349-1.349-3.284-1.726-4.982-1.173l-3.8-3.8a4 4 0 0 0-5.245-5.245l-3.8-3.8c.553-1.698.176-3.633-1.173-4.982a4.9 4.9 0 0 0-6.93 0c-1.349 1.349-1.726 3.284-1.173 4.982l-3.8 3.8a4 4 0 0 0-5.245 5.245l-3.8 3.8c-1.698-.553-3.633-.176-4.982 1.173a4.9 4.9 0 0 0 0 6.93c1.349 1.349 3.284 1.726 4.982 1.173l3.8 3.8a4 4 0 0 0 5.245 5.245l3.8 3.8c-.553 1.698-.176 3.633 1.173 4.982a4.9 4.9 0 0 0 6.93 0c1.349-1.349 1.726-3.284 1.173-4.982l3.8-3.8a4 4 0 0 0 5.245-5.245l3.8-3.8c1.698.553 3.633.176 4.982-1.173a4.901 4.901 0 0 0 0-6.93zM22.152 40.031l-3.469-3.469c.204-.48.317-1.008.317-1.562s-.113-1.082-.317-1.562L25 27.121l6.317 6.317C31.113 33.918 31 34.446 31 35s.113 1.082.317 1.562l-3.469 3.469a4.883 4.883 0 0 0-5.696 0zM9.969 22.152l3.469-3.469c.48.204 1.008.317 1.562.317s1.082-.113 1.562-.317L22.879 25l-6.317 6.317C16.082 31.113 15.554 31 15 31s-1.082.113-1.562.317l-3.469-3.469a4.883 4.883 0 0 0 0-5.696zM27.848 9.969l3.469 3.469C31.113 13.918 31 14.446 31 15s.113 1.082.317 1.562L25 22.879l-6.317-6.317c.204-.48.317-1.008.317-1.562s-.113-1.082-.317-1.562l3.469-3.469a4.883 4.883 0 0 0 5.696 0zM35 31c-.554 0-1.082.113-1.562.317L27.121 25l6.317-6.317c.48.204 1.008.317 1.562.317s1.082-.113 1.562-.317l3.469 3.469a4.88 4.88 0 0 0 0 5.696l-3.469 3.469A3.984 3.984 0 0 0 35 31z" class="msportalfx-svg-c09"></path></g>
</svg>