<svg aria-hidden="true" role="presentation">
<svg id="svg-azure-policy"> <path fill="#0072C6" d="M21.8,18c0.3,0.3,0.8,0.3,1.1,0l0,0c0.3-0.3,0.3-0.8,0-1.1l-3.6-3.6c-0.2-0.2-0.5-0.2-0.7,0l-0.4,0.4 			c-0.2,0.2-0.2,0.5,0,0.7L21.8,18z"></path> <path opacity="0.1" fill="#FFFFFF" d="M18.4,13.4L23,18c0.3-0.3,0.3-0.8,0-1.1l-3.6-3.6c-0.2-0.2-0.5-0.2-0.7,0L18.4,13.4z"></path> <path fill="#FFFFFF" d="M0.3,0.4h15v4.8c0,0-2.5,1.5-2.6,3.7c0,1.9,1,3.6,2.7,4.4V17l-0.1,6.5L0.4,23.3L0.3,0.4z"></path> <polygon fill="#4A4A4A" points="3.9,6.8 13.8,6.8 13.8,5.8 3.9,5.8 3.9,6.8 			"></polygon> <polygon fill="#4A4A4A" points="3.9,10.8 13.8,10.8 13.8,9.8 3.9,9.8 3.9,10.8 			"></polygon> <polygon fill="#4A4A4A" points="3.9,14.8 13.8,14.8 13.8,13.8 3.9,13.8 3.9,14.8 			"></polygon> <polygon fill="#4A4A4A" points="14.9,13.2 14.9,23 1,23 1,14 1,11 1,1 14.9,1 14.9,5.3 15.9,5 15.9,0 0,0 0,11 0,14 0,24 15.9,24  				15.9,13.4 			"></polygon> <circle fill="#EEF7FB" cx="14.2" cy="9.2" r="4.2"></circle> <path fill="#4A4A4A" d="M9.5,9.2c0,2.6,2.1,4.7,4.6,4.7c1.1,0,2.3-0.4,3.1-1.2l0.7,0.7l0,0c-0.2,0.2-0.2,0.6,0,0.8l4,4 			c0.3,0.3,0.9,0.3,1.2,0l0,0c0.3-0.3,0.3-0.9,0-1.2l-4-4c-0.2-0.2-0.6-0.2-0.8,0l0,0l-0.7-0.7c1.7-1.9,1.5-4.9-0.4-6.6 			s-4.9-1.5-6.6,0.4C9.9,6.9,9.5,8,9.5,9.2L9.5,9.2z M18.4,13.8l0.4-0.4l4,4c0.1,0.1,0.1,0.3,0,0.4c-0.1,0.1-0.3,0.1-0.4,0 			L18.4,13.8z M10,9.2c0-2.3,1.8-4.1,4.1-4.1s4.1,1.8,4.1,4.1s-1.8,4.1-4.1,4.1C11.9,13.2,10.1,11.4,10,9.2L10,9.2z"></path> </svg>
</svg>