<?xml version="1.0" encoding="UTF-8" standalone="no"?>
<svg
   xmlns:dc="http://purl.org/dc/elements/1.1/"
   xmlns:cc="http://creativecommons.org/ns#"
   xmlns:rdf="http://www.w3.org/1999/02/22-rdf-syntax-ns#"
   xmlns:svg="http://www.w3.org/2000/svg"
   xmlns="http://www.w3.org/2000/svg"
   xmlns:sodipodi="http://sodipodi.sourceforge.net/DTD/sodipodi-0.dtd"
   xmlns:inkscape="http://www.inkscape.org/namespaces/inkscape"
   aria-hidden="true"
   role="presentation"
   version="1.1"
   id="svg39"
   sodipodi:docname="Azure Batch_COLOR.svg"
   width="50"
   height="46.400002"
   inkscape:version="0.92.2 (5c3e80d, 2017-08-06)">
  <metadata
     id="metadata45">
    <rdf:RDF>
      <cc:Work
         rdf:about="">
        <dc:format>image/svg+xml</dc:format>
        <dc:type
           rdf:resource="http://purl.org/dc/dcmitype/StillImage" />
        <dc:title></dc:title>
      </cc:Work>
    </rdf:RDF>
  </metadata>
  <defs
     id="defs43" />
  <sodipodi:namedview
     pagecolor="#ffffff"
     bordercolor="#666666"
     borderopacity="1"
     objecttolerance="10"
     gridtolerance="10"
     guidetolerance="10"
     inkscape:pageopacity="0"
     inkscape:pageshadow="2"
     inkscape:window-width="690"
     inkscape:window-height="480"
     id="namedview41"
     showgrid="false"
     inkscape:zoom="2.36"
     inkscape:cx="50"
     inkscape:cy="0.39999847"
     inkscape:window-x="0"
     inkscape:window-y="0"
     inkscape:window-maximized="0"
     inkscape:current-layer="svg39"
     fit-margin-top="0"
     fit-margin-left="0"
     fit-margin-right="0"
     fit-margin-bottom="0" />
  <svg
     id="svg-batch"
     version="1.1"
     width="100%"
     height="100%"
     transform="translate(0,-2)">
    <path
       d="m 0,27.2 c 0,0.7 0.5,1.2 1.2,1.2 h 27.6 c 0.7,0 1.2,-0.5 1.2,-1.2 V 7.2 H 0 Z"
       id="path2"
       inkscape:connector-curvature="0"
       style="fill:#0072c6" />
    <path
       d="M 28.8,2 H 1.2 C 0.5,2 0,2.5 0,3.2 V 7.6 H 30 V 3.2 C 30,2.5 29.5,2 28.8,2 Z"
       id="path4"
       inkscape:connector-curvature="0"
       style="fill:#a0a1a2" />
    <path
       d="M 1.2,2 C 0.5,2 0,2.5 0,3.2 v 4.4 2 17.6 c 0,0.7 0.5,1.2 1.2,1.2 H 12.7 L 26.2,2 Z"
       id="path6"
       inkscape:connector-curvature="0"
       style="opacity:0.1;fill:#ffffff" />
    <path
       d="M 5.1,14.6 4.8,14.3 C 4.7,14.2 4.7,14.1 4.8,14 l 0.8,-0.7 c 0,0 0.1,-0.1 0.1,-0.1 0.1,0 0.1,0 0.1,0.1 l 2.2,2.4 3.9,-4.9 c 0,0 0.1,-0.1 0.2,-0.1 0,0 0.1,0 0.1,0 l 0.9,0.7 c 0,0 0.1,0.1 0.1,0.1 0,0.1 0,0.1 0,0.1 l -5,6.3 z"
       id="path8"
       inkscape:connector-curvature="0"
       style="fill:#ffffff" />
    <path
       d="M 5.1,22.4 4.8,22.1 C 4.7,22 4.7,21.9 4.8,21.8 l 0.8,-0.7 c 0,0 0.1,-0.1 0.1,-0.1 0.1,0 0.1,0 0.1,0.1 l 2.2,2.4 3.9,-4.9 c 0,0 0.1,-0.1 0.2,-0.1 0,0 0.1,0 0.1,0 l 0.9,0.7 c 0,0 0.1,0.1 0.1,0.1 0,0.1 0,0.1 0,0.1 l -5,6.3 z"
       id="path10"
       inkscape:connector-curvature="0"
       style="fill:#ffffff" />
    <path
       d="m 10,37.2 c 0,0.7 0.5,1.2 1.2,1.2 h 27.6 c 0.7,0 1.2,-0.5 1.2,-1.2 v -20 H 10 Z"
       id="path12"
       inkscape:connector-curvature="0"
       style="fill:#3999c6" />
    <path
       d="M 38.8,12 H 11.2 C 10.5,12 10,12.5 10,13.2 v 4.4 H 40 V 13.2 C 40,12.5 39.5,12 38.8,12 Z"
       id="path14"
       inkscape:connector-curvature="0"
       style="fill:#a0a1a2" />
    <path
       d="M 11.2,12 C 10.5,12 10,12.5 10,13.2 v 4.4 2 17.6 c 0,0.7 0.5,1.2 1.2,1.2 H 22.7 L 36.2,12 Z"
       id="path16"
       inkscape:connector-curvature="0"
       style="opacity:0.1;fill:#ffffff" />
    <path
       d="m 15.1,24.6 -0.3,-0.3 c -0.1,-0.1 -0.1,-0.2 0,-0.3 l 0.8,-0.7 c 0,0 0.1,-0.1 0.1,-0.1 0.1,0 0.1,0 0.1,0.1 l 2.2,2.4 3.9,-4.9 c 0,0 0.1,-0.1 0.2,-0.1 0,0 0.1,0 0.1,0 l 0.9,0.7 c 0,0 0.1,0.1 0.1,0.1 0,0.1 0,0.1 0,0.1 l -5,6.3 z"
       id="path18"
       inkscape:connector-curvature="0"
       style="fill:#ffffff" />
    <path
       d="m 15.1,32.4 -0.3,-0.3 c -0.1,-0.1 -0.1,-0.2 0,-0.3 l 0.8,-0.7 c 0,0 0.1,-0.1 0.1,-0.1 0.1,0 0.1,0 0.1,0.1 l 2.2,2.4 3.9,-4.9 c 0,0 0.1,-0.1 0.2,-0.1 0,0 0.1,0 0.1,0 l 0.9,0.7 c 0,0 0.1,0.1 0.1,0.1 0,0.1 0,0.1 0,0.1 l -5,6.3 z"
       id="path20"
       inkscape:connector-curvature="0"
       style="fill:#ffffff" />
    <path
       d="m 20,47.2 c 0,0.7 0.5,1.2 1.2,1.2 h 27.6 c 0.7,0 1.2,-0.5 1.2,-1.2 v -20 H 20 Z"
       id="path22"
       inkscape:connector-curvature="0"
       style="fill:#59b4d9" />
    <path
       d="M 48.8,22 H 21.2 C 20.5,22 20,22.5 20,23.2 v 4.4 H 50 V 23.2 C 50,22.5 49.5,22 48.8,22 Z"
       id="path24"
       inkscape:connector-curvature="0"
       style="fill:#a0a1a2" />
    <rect
       x="20"
       y="27.6"
       width="30"
       height="2"
       id="rect26"
       style="opacity:0.15;fill:#ffffff" />
    <path
       d="M 21.2,22 C 20.5,22 20,22.5 20,23.2 v 4.4 2 17.6 c 0,0.7 0.5,1.2 1.2,1.2 H 32.7 L 46.2,22 Z"
       id="path28"
       inkscape:connector-curvature="0"
       style="opacity:0.1;fill:#ffffff" />
    <path
       d="m 25.1,34.6 -0.3,-0.3 c -0.1,-0.1 -0.1,-0.2 0,-0.3 l 0.8,-0.7 c 0,0 0.1,-0.1 0.1,-0.1 0.1,0 0.1,0 0.1,0.1 l 2.2,2.4 3.9,-4.9 c 0,0 0.1,-0.1 0.2,-0.1 0,0 0.1,0 0.1,0 l 0.9,0.7 c 0,0 0.1,0.1 0.1,0.1 0,0.1 0,0.1 0,0.1 l -5,6.3 z"
       id="path30"
       inkscape:connector-curvature="0"
       style="fill:#ffffff" />
    <rect
       x="33.200001"
       y="34.5"
       width="12"
       height="2"
       id="rect32"
       style="opacity:0.6;fill:#ffffff" />
    <path
       d="m 25.1,42.4 -0.3,-0.3 c -0.1,-0.1 -0.1,-0.2 0,-0.3 l 0.8,-0.7 c 0,0 0.1,-0.1 0.1,-0.1 0.1,0 0.1,0 0.1,0.1 l 2.2,2.4 3.9,-4.9 c 0,0 0.1,-0.1 0.2,-0.1 0,0 0.1,0 0.1,0 l 0.9,0.7 c 0,0 0.1,0.1 0.1,0.1 0,0.1 0,0.1 0,0.1 l -5,6.3 z"
       id="path34"
       inkscape:connector-curvature="0"
       style="fill:#ffffff" />
    <rect
       x="33.200001"
       y="42.400002"
       width="12"
       height="2"
       id="rect36"
       style="opacity:0.6;fill:#ffffff" />
  </svg>
</svg>
