<svg version="1.1" width="96" height="96" viewBox="0 0 96 96" xmlns="http://www.w3.org/2000/svg" xmlns:xlink="http://www.w3.org/1999/xlink" fill="none" overflow="hidden"><defs><filter id="filter0_f" color-interpolation-filters="sRGB" x="4" y="0" width="88" height="94" filterUnits="userSpaceOnUse" primitiveUnits="userSpaceOnUse"><feFlood flood-opacity="0" result="BackgroundImageFix"/><feBlend in="SourceGraphic" in2="BackgroundImageFix" result="shape" mode="normal"/><feGaussianBlur result="effect1_foregroundBlur" stdDeviation="4 4"/></filter><filter id="filter1_f" color-interpolation-filters="sRGB" x="-4" y="8" width="104" height="96" filterUnits="userSpaceOnUse" primitiveUnits="userSpaceOnUse"><feFlood flood-opacity="0" result="BackgroundImageFix"/><feBlend in="SourceGraphic" in2="BackgroundImageFix" result="shape" mode="normal"/><feGaussianBlur result="effect1_foregroundBlur" stdDeviation="4 4"/></filter><filter id="filter2_f" color-interpolation-filters="sRGB" x="13" y="14" width="71" height="84" filterUnits="userSpaceOnUse" primitiveUnits="userSpaceOnUse"><feFlood flood-opacity="0" result="BackgroundImageFix"/><feBlend in="SourceGraphic" in2="BackgroundImageFix" result="shape" mode="normal"/><feGaussianBlur result="effect1_foregroundBlur" stdDeviation="4 4"/></filter><linearGradient x2="1" gradientUnits="userSpaceOnUse" id="paint0_linear" gradientTransform="matrix(4.03084e-15,64,-65.8286,3.91887e-15,68.9143,0)"><stop offset="0" stop-color="#C82400"/><stop offset="1" stop-color="#D83B01" stop-opacity="0"/></linearGradient><linearGradient x2="1" gradientUnits="userSpaceOnUse" id="paint1_linear" gradientTransform="matrix(4.60597e-16,31.5,-7.52212,1.92882e-15,7.76106,3.5)"><stop offset="0" stop-color="#FC9F7C"/><stop offset="1" stop-color="#D83B01"/></linearGradient><linearGradient x2="1" gradientUnits="userSpaceOnUse" id="paint2_linear" gradientTransform="matrix(80,0,0,74.1667,5.58874e-08,6.41667)"><stop offset="0" stop-color="#FFD7C1"/><stop offset="1" stop-color="#FFC29F" stop-opacity="0"/></linearGradient></defs><g id="DevOpsIconRepos96"><mask maskUnits="userSpaceOnUse" x="4" y="0" width="88" height="96" id="mask0"><path d=" M 68 0 C 70.2091 0 72 1.79102 72 4 L 72 8 L 76 8 C 78.2091 8 80 9.79102 80 12 L 80 16 L 84 16 C 86.2091 16 88 17.791 88 20 L 88 92 C 88 94.209 86.2091 96 84 96 L 4 96 C 1.79086 96 0 94.209 0 92 L 0 20 C 0 17.791 1.79086 16 4 16 L 8 16 L 8 12 C 8 9.79102 9.79086 8 12 8 L 16 8 L 16 4 C 16 1.79102 17.7909 0 20 0 L 68 0 Z" id="Union" fill="#FFFFFF" transform="matrix(1,0,0,1,4,0)"/></mask><g mask="url(#mask0)"><path d=" M 0 4 C 0 1.79086 1.79086 0 4 0 L 32.9314 0 L 39.5 0 L 75 0 C 77.2091 0 79 1.79086 79 4 L 79 52 C 79 54.2091 77.2091 56 75 56 L 4 56 C 1.79086 56 0 54.2091 0 52 L 0 4 Z" id="Rectangle" fill="#C43601" transform="matrix(6.12323e-17,1,-1,6.12323e-17,76,0)"/><g id="Rectangle_2" filter="url(#filter0_f)" opacity="0.75"><path d=" M 0 4 C 0 1.79086 1.79086 0 4 0 L 32.5145 0 L 39 0 L 74 0 C 76.2091 0 78 1.79086 78 4 L 78 68 C 78 70.2091 76.2091 72 74 72 L 4 72 C 1.79086 72 0 70.2091 0 68 L 0 4 Z" fill="#5F1400" transform="matrix(6.12323e-17,1,-1,6.12323e-17,84,8)"/></g><path d=" M 0 4 C 0 1.79086 1.79086 0 4 0 L 32.5145 0 L 39 0 L 74 0 C 76.2091 0 78 1.79086 78 4 L 78 68 C 78 70.2091 76.2091 72 74 72 L 4 72 C 1.79086 72 0 70.2091 0 68 L 0 4 Z" id="Rectangle_3" fill="#D83B01" transform="matrix(6.12323e-17,1,-1,6.12323e-17,84,8)"/><rect x="0" y="0" width="56" height="8" id="Rectangle 2" fill="#CA3701" transform="matrix(1,0,0,1,20,8)"/><g id="Rectangle_4" filter="url(#filter1_f)" opacity="0.6"><path d=" M 0 4 C 0 1.79086 1.79086 0 4 0 L 33.3482 0 L 40 0 L 76 0 C 78.2091 0 80 1.79086 80 4 L 80 84 C 80 86.2091 78.2091 88 76 88 L 4 88 C 1.79086 88 0 86.2091 0 84 L 0 4 Z" fill="#7C1A00" transform="matrix(6.12323e-17,1,-1,6.12323e-17,92,16)"/></g><path d=" M 0 4 C 0 1.79086 1.79086 0 4 0 L 33.3482 0 L 40 0 L 76 0 C 78.2091 0 80 1.79086 80 4 L 80 84 C 80 86.2091 78.2091 88 76 88 L 4 88 C 1.79086 88 0 86.2091 0 84 L 0 4 Z" id="Rectangle_5" fill="#D83B01" transform="matrix(6.12323e-17,1,-1,6.12323e-17,92,16)"/><path d=" M 72 0 L 0 0 L 0 66 C 0 68.209 1.59191 70 3.55556 70 L 68.4444 70 C 70.4081 70 72 68.209 72 66 L 72 0 Z" id="Intersect" fill="url(#paint0_linear)" transform="matrix(1,0,0,1,12,16)"/><g id="Group 2"><path d=" M 8 0 L 8 36 L 0 36 L 0 0 L 8 0 Z" id="Vector (Stroke)" fill="url(#paint1_linear)" fill-rule="evenodd" clip-rule="evenodd" transform="matrix(1,0,0,1,27,38)"/><path d=" M 20 10 C 20 15.5229 15.5228 20 10 20 C 4.47717 20 0 15.5229 0 10 C 0 4.47705 4.47717 0 10 0 C 15.5228 0 20 4.47705 20 10 Z M 10 16 C 13.3137 16 16 13.3135 16 10 C 16 6.68652 13.3137 4 10 4 C 6.68628 4 4 6.68652 4 10 C 4 13.3135 6.68628 16 10 16 Z" id="Subtract" fill="#FC9F7C" fill-rule="evenodd" clip-rule="evenodd" transform="matrix(1,0,0,1,21,22)"/></g><g id="Union_2" filter="url(#filter2_f)"><path d=" M 49 19.168 C 52.5318 17.625 55 14.1006 55 10 C 55 4.47656 50.5228 0 45 0 C 39.4772 0 35 4.47656 35 10 C 35 14.1006 37.4682 17.625 41 19.168 L 41 24.2373 L 6 39.2373 L 6 48.832 C 2.4682 50.375 0 53.8994 0 58 C 0 63.5234 4.47717 68 10 68 C 15.5228 68 20 63.5234 20 58 C 20 53.8994 17.5318 50.375 14 48.832 L 14 44.5127 L 49 29.5127 L 49 19.168 Z M 45 16 C 48.3137 16 51 13.3135 51 10 C 51 6.68652 48.3137 4 45 4 C 41.6863 4 39 6.68652 39 10 C 39 13.3135 41.6863 16 45 16 Z M 4 58 C 4 54.6865 6.68628 52 10 52 C 13.3137 52 16 54.6865 16 58 C 16 61.3135 13.3137 64 10 64 C 6.68628 64 4 61.3135 4 58 Z" fill="#BF2200" fill-rule="evenodd" clip-rule="evenodd" transform="matrix(1,0,0,1,21,22)"/></g><g id="Group"><path d=" M 20 10 C 20 15.5229 15.5228 20 10 20 C 4.47717 20 0 15.5229 0 10 C 0 4.47705 4.47717 0 10 0 C 15.5228 0 20 4.47705 20 10 Z M 10 16 C 13.3137 16 16 13.3135 16 10 C 16 6.68652 13.3137 4 10 4 C 6.68628 4 4 6.68652 4 10 C 4 13.3135 6.68628 16 10 16 Z" id="Subtract_2" fill="#FFD5C6" fill-rule="evenodd" clip-rule="evenodd" transform="matrix(1,0,0,1,21,70)"/><path d=" M 43 0 L 43 13.5126 L 8 28.5126 L 8 36 L 0 36 L 0 23.2374 L 35 8.23742 L 35 0 L 43 0 Z" id="Vector (Stroke)_2" fill="#FEBCA3" fill-rule="evenodd" clip-rule="evenodd" transform="matrix(1,0,0,1,27,38)"/><path d=" M 0.00936455 3.43363 L 0 16.1999 L 7.99999 16.1999 L 8.01642 0 L 0.00936455 3.43363 Z" id="Intersect_2" fill="#FFD5C6" transform="matrix(1,0,0,1,27,57.7998)"/><path d=" M 20 10 C 20 15.5229 15.5228 20 10 20 C 4.47717 20 0 15.5229 0 10 C 0 4.47705 4.47717 0 10 0 C 15.5228 0 20 4.47705 20 10 Z M 10 16 C 13.3137 16 16 13.3135 16 10 C 16 6.68652 13.3137 4 10 4 C 6.68628 4 4 6.68652 4 10 C 4 13.3135 6.68628 16 10 16 Z" id="Subtract_3" fill="#FEBCA3" fill-rule="evenodd" clip-rule="evenodd" transform="matrix(1,0,0,1,56,22)"/></g><path d=" M 0 84 C 0 86.2091 1.79102 88 4 88 L 76 88 C 78.209 88 80 86.2091 80 84 L 80 4 C 80 1.79086 78.209 0 76 0 L 4 0 C 1.79102 0 0 1.79086 0 4 L 0 8 L 0 80 L 0 84 Z" id="Subtract_4" fill="url(#paint2_linear)" fill-rule="evenodd" clip-rule="evenodd" opacity="0.2" transform="matrix(6.12323e-17,1,-1,6.12323e-17,92,16)"/></g></g></svg>