<svg version="1.1" width="96" height="96" viewBox="0 0 96 96" xmlns="http://www.w3.org/2000/svg" xmlns:xlink="http://www.w3.org/1999/xlink" fill="none" overflow="hidden"><defs><filter id="filter0_f" color-interpolation-filters="sRGB" x="32" y="32" width="72" height="72" filterUnits="userSpaceOnUse" primitiveUnits="userSpaceOnUse"><feFlood flood-opacity="0" result="BackgroundImageFix"/><feBlend in="SourceGraphic" in2="BackgroundImageFix" result="shape" mode="normal"/><feGaussianBlur result="effect1_foregroundBlur" stdDeviation="4 4"/></filter><filter id="filter1_f" color-interpolation-filters="sRGB" x="0" y="18" width="36" height="28" filterUnits="userSpaceOnUse" primitiveUnits="userSpaceOnUse"><feFlood flood-opacity="0" result="BackgroundImageFix"/><feBlend in="SourceGraphic" in2="BackgroundImageFix" result="shape" mode="normal"/><feGaussianBlur result="effect1_foregroundBlur" stdDeviation="4 4"/></filter><linearGradient x2="1" gradientUnits="userSpaceOnUse" id="paint0_linear" gradientTransform="matrix(5.8783e-15,96,-96,5.8783e-15,96,0)"><stop offset="0" stop-color="#FFFFFF"/><stop offset="1" stop-color="#FFFFFF" stop-opacity="0"/></linearGradient></defs><g id="DevOpsIconBoards96"><mask maskUnits="userSpaceOnUse" x="0" y="0" width="96" height="96" id="mask0"><path d=" M 4 0 C 1.79083 0 0 1.79102 0 4 L 0 68 C 0 70.209 1.79083 72 4 72 L 40.2836 72 C 42.2245 85.5693 53.8941 96 68 96 C 83.464 96 96 83.4639 96 68 C 96 60.3711 92.9487 53.4541 88 48.4043 L 88 4 C 88 1.79102 86.2092 0 84 0 L 4 0 Z" id="Union" fill="#FFFFFF"/></mask><g mask="url(#mask0)"><path d=" M 0 4 C 0 1.79086 1.79086 0 4 0 L 84 0 C 86.2091 0 88 1.79086 88 4 L 88 68 C 88 70.2091 86.2091 72 84 72 L 4 72 C 1.79086 72 0 70.2091 0 68 L 0 4 Z" id="Rectangle" fill="#008D75"/><g id="Ellipse" filter="url(#filter0_f)"><circle cx="28" cy="28" r="28" fill="#007D5F" transform="matrix(1,0,0,1,40,40)"/></g><circle cx="28" cy="28" r="28" id="Ellipse_2" fill="#16C8AA" transform="matrix(1,0,0,1,40,40)"/><path d=" M 48 8.4043 L 48 28 C 48 30.2091 46.2091 32 44 32 L 0.283569 32 C 0.0966797 30.6934 0 29.3584 0 28 C 0 12.5361 12.536 0 28 0 C 35.8348 0 42.9179 3.21777 48 8.4043 Z" id="Intersect" fill="#00B294" transform="matrix(1,0,0,1,40,40)"/><g id="Union_2" transform="matrix(1,0,0,1,8,8)"><path d=" M 46 0 L 26 0 L 26 12 L 46 12 L 46 0 Z" fill="#00B294"/><path d=" M 72 0 L 52 0 L 52 12 L 72 12 L 72 0 Z" fill="#00B294"/><path d=" M 46 18 L 26 18 L 26 30 L 46 30 L 46 18 Z" fill="#00B294"/><path d=" M 20 36 L 0 36 L 0 48 L 20 48 L 20 36 Z" fill="#00B294"/><path d=" M 20 0 L 0 0 L 0 12 L 20 12 L 20 0 Z" fill="#00B294"/></g><path d=" M 20 0 L 0 0 L 0 12 L 20 12 L 20 0 Z" id="Union_3" fill="#35D6BB" transform="matrix(1,0,0,1,34,8)"/><g id="Union_4" filter="url(#filter1_f)"><path d=" M 20 0 L 0 0 L 0 12 L 20 12 L 20 0 Z" fill="#00654C" transform="matrix(1,0,0,1,8,26)"/></g><path d=" M 20 0 L 0 0 L 0 12 L 20 12 L 20 0 Z" id="Union_5" fill="#72F8E1" transform="matrix(1,0,0,1,8,26)"/><path d=" M 37.6569 5.65685 L 14.8284 28.4853 L 0 13.6569 L 5.65685 8 L 14.8284 17.1716 L 32 0 L 37.6569 5.65685 Z" id="Vector (Stroke)" fill="#C6FDF4" fill-rule="evenodd" clip-rule="evenodd" transform="matrix(1,0,0,1,50.1714,54.1719)"/><path d=" M 4 0 C 1.79083 0 0 1.79102 0 4 L 0 68 C 0 70.209 1.79083 72 4 72 L 40.2836 72 C 42.2245 85.5693 53.8941 96 68 96 C 83.464 96 96 83.4639 96 68 C 96 60.3711 92.9487 53.4541 88 48.4043 L 88 4 C 88 1.79102 86.2092 0 84 0 L 4 0 Z" id="Union_6" fill="url(#paint0_linear)" opacity="0.2"/></g></g></svg>