<?xml version="1.0" encoding="UTF-8" standalone="no"?>
<svg
   xmlns:dc="http://purl.org/dc/elements/1.1/"
   xmlns:cc="http://creativecommons.org/ns#"
   xmlns:rdf="http://www.w3.org/1999/02/22-rdf-syntax-ns#"
   xmlns:svg="http://www.w3.org/2000/svg"
   xmlns="http://www.w3.org/2000/svg"
   xmlns:sodipodi="http://sodipodi.sourceforge.net/DTD/sodipodi-0.dtd"
   xmlns:inkscape="http://www.inkscape.org/namespaces/inkscape"
   viewBox="0 0 50 40.342018"
   class=""
   role="presentation"
   focusable="false"
   id="FxSymbol0-023"
   version="1.1"
   sodipodi:docname="Azure Resource Groups_COLOR.svg"
   width="50"
   height="40.342018"
   inkscape:version="0.92.2 (5c3e80d, 2017-08-06)">
  <metadata
     id="metadata19">
    <rdf:RDF>
      <cc:Work
         rdf:about="">
        <dc:format>image/svg+xml</dc:format>
        <dc:type
           rdf:resource="http://purl.org/dc/dcmitype/StillImage" />
      </cc:Work>
    </rdf:RDF>
  </metadata>
  <defs
     id="defs17" />
  <sodipodi:namedview
     pagecolor="#ffffff"
     bordercolor="#666666"
     borderopacity="1"
     objecttolerance="10"
     gridtolerance="10"
     guidetolerance="10"
     inkscape:pageopacity="0"
     inkscape:pageshadow="2"
     inkscape:window-width="640"
     inkscape:window-height="480"
     id="namedview15"
     showgrid="false"
     inkscape:zoom="4.72"
     inkscape:cx="25"
     inkscape:cy="20.171009"
     inkscape:window-x="0"
     inkscape:window-y="0"
     inkscape:window-maximized="0"
     inkscape:current-layer="FxSymbol0-023" />
  <g
     id="g12"
     transform="translate(0,-4.8289909)">
    <title
       id="title2" />
    <path
       d="m 25.047,22.647 a 0.428,0.428 0 0 1 -0.22,-0.064 l -14.711,-8.49 a 0.445,0.445 0 0 1 0,-0.771 L 24.732,4.887 a 0.452,0.452 0 0 1 0.442,0 l 14.714,8.495 a 0.447,0.447 0 0 1 0.221,0.382 0.45,0.45 0 0 1 -0.221,0.387 l -14.619,8.433 a 0.438,0.438 0 0 1 -0.222,0.063"
       class="msportalfx-svg-c16"
       id="path4"
       inkscape:connector-curvature="0"
       style="fill:#3999c6" />
    <path
       d="M 22.932,43.284 A 0.444,0.444 0 0 1 22.706,43.225 L 8.042,34.761 A 0.436,0.436 0 0 1 7.816,34.375 V 17.39 a 0.45,0.45 0 0 1 0.226,-0.389 0.463,0.463 0 0 1 0.448,0 l 14.662,8.464 a 0.45,0.45 0 0 1 0.218,0.387 v 16.987 a 0.445,0.445 0 0 1 -0.218,0.386 0.44,0.44 0 0 1 -0.22,0.059 m 4.149,0 A 0.444,0.444 0 0 1 26.635,42.839 V 25.962 c 0,-0.159 0.084,-0.305 0.22,-0.387 l 14.66,-8.461 a 0.458,0.458 0 0 1 0.448,0 c 0.134,0.08 0.22,0.227 0.22,0.385 v 16.877 a 0.446,0.446 0 0 1 -0.22,0.386 l -14.665,8.464 a 0.401,0.401 0 0 1 -0.217,0.058"
       class="msportalfx-svg-c15"
       id="path6"
       inkscape:connector-curvature="0"
       style="fill:#59b4d9" />
    <path
       d="M 27.081,43.284 A 0.444,0.444 0 0 1 26.635,42.839 V 25.962 c 0,-0.159 0.084,-0.305 0.22,-0.387 l 14.66,-8.461 a 0.458,0.458 0 0 1 0.448,0 c 0.134,0.08 0.22,0.227 0.22,0.385 v 16.877 a 0.446,0.446 0 0 1 -0.22,0.386 l -14.665,8.464 a 0.401,0.401 0 0 1 -0.217,0.058"
       class="msportalfx-svg-c01"
       id="path8"
       inkscape:connector-curvature="0"
       style="opacity:0.5;fill:#ffffff" />
    <path
       d="M 9.558,45.171 A 1.45,1.45 0 0 1 8.832,44.976 L 1.987,41.024 C 0.835,40.358 0,38.911 0,37.582 V 12.418 C 0,11.089 0.835,9.641 1.987,8.977 L 8.832,5.025 a 1.455,1.455 0 0 1 1.455,2.519 L 3.442,11.496 C 3.199,11.637 2.91,12.137 2.91,12.418 v 25.164 c 0,0.281 0.289,0.782 0.532,0.922 l 6.845,3.952 A 1.454,1.454 0 0 1 9.558,45.171 Z M 40.442,4.829 c 0.247,0 0.497,0.063 0.726,0.195 l 6.845,3.952 C 49.165,9.642 50,11.089 50,12.418 v 25.164 c 0,1.329 -0.835,2.777 -1.987,3.441 l -6.845,3.952 a 1.455,1.455 0 0 1 -1.455,-2.519 l 6.845,-3.952 c 0.243,-0.141 0.532,-0.641 0.532,-0.922 V 12.418 c 0,-0.281 -0.289,-0.782 -0.532,-0.922 L 39.713,7.544 a 1.454,1.454 0 0 1 0.729,-2.715 z"
       class="msportalfx-svg-c04"
       id="path10"
       inkscape:connector-curvature="0"
       style="fill:#7a7a7a" />
  </g>
</svg>
