<svg aria-hidden="true" role="presentation">
<defs>
    <style type="text/css">
      <![CDATA[
        .msportalfx-svg-c01{fill:#fff}.msportalfx-svg-c02{fill:#e5e5e5}.msportalfx-svg-c03{fill:#a0a1a2}.msportalfx-svg-c04{fill:#7a7a7a}.msportalfx-svg-c05{fill:#3e3e3e}.msportalfx-svg-c06{fill:#1e1e1e}.msportalfx-svg-c07{fill:#0f0f0f}.msportalfx-svg-c08{fill:#ba141a}.msportalfx-svg-c09{fill:#dd5900}.msportalfx-svg-c10{fill:#ff8c00}.msportalfx-svg-c11{fill:#fcd116}.msportalfx-svg-c12{fill:#fee087}.msportalfx-svg-c13{fill:#b8d432}.msportalfx-svg-c14{fill:#7fba00}.msportalfx-svg-c15{fill:#59b4d9}.msportalfx-svg-c16{fill:#3999c6}.msportalfx-svg-c17{fill:#804998}.msportalfx-svg-c18{fill:#ec008c}.msportalfx-svg-c19{fill:#0072c6}.msportalfx-svg-c20{fill:#68217a}.msportalfx-svg-c21{fill:#00188f}.msportalfx-svg-c22{fill:#e81123}.msportalfx-svg-c23{fill:#cae3f3}.msportalfx-svg-c24{fill:#59aed3}.msportalfx-svg-c25{fill:#4c3b12}.msportalfx-svg-c26{fill:#be9555}.msportalfx-svg-c27{fill:#4f4d52}.msportalfx-svg-c28{fill:#ef6f59}.msportalfx-svg-c29{fill:#f7cb64}.msportalfx-svg-c97{fill:#ffb900}.msportalfx-svg-c98{fill:#00a4ef}.msportalfx-svg-c99{fill:#f25022}
      ]]>
    </style>
  </defs>
<g><title></title><path d="M45.139 23.099a10.94 10.94 0 0 0 .777-4.041c0-6.058-4.905-10.969-10.956-10.969-1.682 0-3.27.391-4.694 1.069C27.898 6.087 24.195 4.1 20.02 4.1c-7.151 0-12.948 5.804-12.948 12.964 0 .581.052 1.149.125 1.71C3.053 20.339.1 24.334.1 29.031.1 35.089 5.005 40 11.056 40h29.88c4.951 0 8.964-4.018 8.964-8.975a8.974 8.974 0 0 0-4.761-7.926z" class="msportalfx-svg-c15"></path><path d="M18 20h14v20.05H18z" class="msportalfx-svg-c01"></path><path opacity=".4" d="M34.938 18.847l-9.678-5.689s-.412-.21-.596-.21C23.747 12.947 23 13 23 14.738V20h10v20h3V20.422c0-.7-.424-1.324-1.062-1.575z" class="msportalfx-svg-c01"></path><path d="M34.544 18.767l-9.667-5.684c-.431-.149-.877.184-.877.655v33.57c0 .471.446.804.877.655l9.667-5.684a.687.687 0 0 0 .456-.654V19.422a.69.69 0 0 0-.456-.655z" class="msportalfx-svg-c19"></path></g>
</svg>