<svg version="1.1" width="96" height="96" viewBox="0 0 96 96" xmlns="http://www.w3.org/2000/svg" xmlns:xlink="http://www.w3.org/1999/xlink" fill="none" overflow="hidden"><defs><filter id="filter0_f" color-interpolation-filters="sRGB" x="8" y="-8" width="80" height="64" filterUnits="userSpaceOnUse" primitiveUnits="userSpaceOnUse"><feFlood flood-opacity="0" result="BackgroundImageFix"/><feBlend in="SourceGraphic" in2="BackgroundImageFix" result="shape" mode="normal"/><feGaussianBlur result="effect1_foregroundBlur" stdDeviation="4 4"/></filter><filter id="filter1_f" color-interpolation-filters="sRGB" x="24" y="40" width="80" height="64" filterUnits="userSpaceOnUse" primitiveUnits="userSpaceOnUse"><feFlood flood-opacity="0" result="BackgroundImageFix"/><feBlend in="SourceGraphic" in2="BackgroundImageFix" result="shape" mode="normal"/><feGaussianBlur result="effect1_foregroundBlur" stdDeviation="4 4"/></filter><linearGradient x2="1" gradientUnits="userSpaceOnUse" id="paint0_linear" gradientTransform="matrix(1.95943e-15,48,-32,2.93915e-15,32,0)"><stop offset="0" stop-color="#E66398"/><stop offset="1" stop-color="#EF74A6"/></linearGradient><linearGradient x2="1" gradientUnits="userSpaceOnUse" id="paint1_linear" gradientTransform="matrix(5.8783e-15,96,-96,5.8783e-15,96,0)"><stop offset="0" stop-color="#FFFFFF"/><stop offset="1" stop-color="#FFFFFF" stop-opacity="0"/></linearGradient></defs><g id="DevOpsIconArtifacts96"><mask maskUnits="userSpaceOnUse" x="0" y="0" width="96" height="96" id="mask0"><path d=" M 16 4 C 16 1.79102 17.7909 0 20 0 L 76 0 C 78.2091 0 80 1.79102 80 4 L 80 48 L 92 48 C 94.2091 48 96 49.791 96 52 L 96 92 C 96 94.209 94.2091 96 92 96 L 4 96 C 1.79086 96 0 94.209 0 92 L 0 52 C 0 49.791 1.79086 48 4 48 L 16 48 L 16 4 Z" id="Union" fill="#FFFFFF"/></mask><g mask="url(#mask0)"><g id="Group"><path d=" M 0 4 C 0 1.79086 1.79086 0 4 0 L 44 0 C 46.2091 0 48 1.79086 48 4 L 48 44 C 48 46.2091 46.2091 48 44 48 L 4 48 C 1.79086 48 0 46.2091 0 44 L 0 4 Z" id="Rectangle 2.1" fill="#B21756" transform="matrix(1,0,0,1,0,48)"/><path d=" M 0 0 L 8.8 0 C 11.0091 0 12.8 1.79086 12.8 4 L 12.8 42 C 12.8 44.2091 11.0091 46 8.8 46 L 0 46 L 0 0 Z" id="Rectangle 2.4" fill="#A61550" transform="matrix(1,0,0,1,35.2,48)"/><rect x="0" y="0" rx="3" width="16" height="6" id="Rectangle" fill="#8D0A3F" transform="matrix(1,0,0,1,16,56)"/></g><g id="Rectangle 2.4_2" filter="url(#filter0_f)"><path d=" M 0 4 C 0 1.79086 1.79086 0 4 0 L 60 0 C 62.2091 0 64 1.79086 64 4 L 64 48 L 0 48 L 0 4 Z" fill="#890038" transform="matrix(1,0,0,1,16,0)"/></g><g id="Group 3"><path d=" M 0 4 C 0 1.79086 1.79086 0 4 0 L 60 0 C 62.2091 0 64 1.79086 64 4 L 64 48 L 0 48 L 0 4 Z" id="Rectangle 2.3" fill="#CB2E6D" transform="matrix(1,0,0,1,16,0)"/><rect x="0" y="0" rx="3" width="16" height="6" id="Rectangle_2" fill="#B01C57" transform="matrix(1,0,0,1,32,10)"/><path d=" M 0 0 L 12 0 C 14.2091 0 16 1.79086 16 4 L 16 48 L 0 48 L 0 0 Z" id="Rectangle 2" fill="#BD2461" transform="matrix(1,0,0,1,64,0)"/></g><g id="Rectangle 2_2" filter="url(#filter1_f)" opacity="0.5"><path d=" M 0 0 L 60 0 C 62.2091 0 64 1.79086 64 4 L 64 44 C 64 46.2091 62.2091 48 60 48 L 4 48 C 1.79086 48 0 46.2091 0 44 L 0 0 Z" fill="#780031" transform="matrix(1,0,0,1,32,48)"/></g><g id="Group 2"><path d=" M 0 0 L 60 0 C 62.2091 0 64 1.79086 64 4 L 64 44 C 64 46.2091 62.2091 48 60 48 L 4 48 C 1.79086 48 0 46.2091 0 44 L 0 0 Z" id="Rectangle 2.4_3" fill="#EF74A6" transform="matrix(1,0,0,1,32,48)"/><path d=" M 4.57143 48 L 32 48 L 32 0 L 0 0 L 0 43.8261 C 0 46.1311 2.0467 48 4.57143 48 Z" id="Intersect" fill="url(#paint0_linear)" transform="matrix(1,0,0,1,32,48)"/><rect x="0" y="0" rx="3" width="16" height="6" id="Rectangle_3" fill="#C82F6D" transform="matrix(1,0,0,1,48,56)"/><path d=" M 0 0 L 12 0 C 14.2091 0 16 1.79086 16 4 L 16 44 C 16 46.2091 14.2091 48 12 48 L 0 48 L 0 0 Z" id="Rectangle 2.3_2" fill="#E66398" transform="matrix(1,0,0,1,80,48)"/></g><g id="Union_2" transform="matrix(1,0,0,1,40,76)"><path d=" M 24 0 L 0 0 L 0 4 L 24 4 L 24 0 Z" fill="#FC92BE"/><path d=" M 14 8 L 0 8 L 0 12 L 14 12 L 14 8 Z" fill="#FC92BE"/></g><path d=" M 16 4 C 16 1.79102 17.7909 0 20 0 L 76 0 C 78.2091 0 80 1.79102 80 4 L 80 48 L 92 48 C 94.2091 48 96 49.791 96 52 L 96 92 C 96 94.209 94.2091 96 92 96 L 4 96 C 1.79086 96 0 94.209 0 92 L 0 52 C 0 49.791 1.79086 48 4 48 L 16 48 L 16 4 Z" id="Union_3" fill="url(#paint1_linear)" opacity="0.2"/></g></g></svg>