<?xml version="1.0" encoding="UTF-8" standalone="no"?>
<svg
   xmlns:dc="http://purl.org/dc/elements/1.1/"
   xmlns:cc="http://creativecommons.org/ns#"
   xmlns:rdf="http://www.w3.org/1999/02/22-rdf-syntax-ns#"
   xmlns:svg="http://www.w3.org/2000/svg"
   xmlns="http://www.w3.org/2000/svg"
   xmlns:sodipodi="http://sodipodi.sourceforge.net/DTD/sodipodi-0.dtd"
   xmlns:inkscape="http://www.inkscape.org/namespaces/inkscape"
   viewBox="0 0 18 18"
   class=""
   role="presentation"
   focusable="false"
   id="FxSymbol0-08a"
   version="1.1"
   sodipodi:docname="Azure Machine Learning Studio_COLOR.svg"
   width="18"
   height="18"
   inkscape:version="0.92.2 (5c3e80d, 2017-08-06)">
  <metadata
     id="metadata21">
    <rdf:RDF>
      <cc:Work
         rdf:about="">
        <dc:format>image/svg+xml</dc:format>
        <dc:type
           rdf:resource="http://purl.org/dc/dcmitype/StillImage" />
      </cc:Work>
    </rdf:RDF>
  </metadata>
  <defs
     id="defs19" />
  <sodipodi:namedview
     pagecolor="#ffffff"
     bordercolor="#666666"
     borderopacity="1"
     objecttolerance="10"
     gridtolerance="10"
     guidetolerance="10"
     inkscape:pageopacity="0"
     inkscape:pageshadow="2"
     inkscape:window-width="640"
     inkscape:window-height="480"
     id="namedview17"
     showgrid="false"
     inkscape:zoom="13.111111"
     inkscape:cx="9"
     inkscape:cy="9"
     inkscape:window-x="0"
     inkscape:window-y="0"
     inkscape:window-maximized="0"
     inkscape:current-layer="FxSymbol0-08a" />
  <g
     id="g14">
    <title
       id="title2" />
    <path
       d="m 3.25,2 h 0.3 v 10 h -0.3 z m 11.5,0 h 0.3 v 10 h -0.3 z M 9,2 H 9.3 V 4 H 9 Z m 2.88,0 h 0.3 v 2 h -0.3 z M 6.13,2 h 0.3 v 2 h -0.3 z"
       id="path4"
       inkscape:connector-curvature="0"
       style="fill:#c9c9c9" />
    <path
       d="M 0,0 V 13 H 3.21 L 3.72,12 H 1 V 2 h 16 v 10 h -3.29 l 0.5,1 H 18 V 0 Z"
       class="msportalfx-svg-c03"
       id="path6"
       inkscape:connector-curvature="0"
       style="fill:#a0a1a2" />
    <path
       d="m 11.71,6.94 a 0.78,0.78 0 0 0 1,-0.73 V 5.75 A 0.86,0.86 0 0 0 11.78,5.08 H 6 A 0.83,0.83 0 0 0 5,5.75 V 6.26 A 0.77,0.77 0 0 0 6,6.94 V 10 L 2.78,16.2 4,18 h 9.5 L 14.75,16.2 11.71,10 Z"
       class="msportalfx-svg-c15"
       id="path8"
       inkscape:connector-curvature="0"
       style="fill:#59b4d9" />
    <path
       d="M 12,13.81 H 8.01 L 6.57,16.18 H 4.62 L 8.04,10.07 V 6.95 h 1.98 v 3.12 z"
       id="path10"
       inkscape:connector-curvature="0"
       style="fill:#d5ecf6" />
    <path
       d="m 1,4.01 h 16 v 0.3 H 1 Z M 4.36,7.16 H 1 v -0.3 h 3.07 z m 12.64,0 h -3.74 l 0.32,-0.3 H 17 Z M 1,9.709 5,9.705 v 0.3 l -4,0.004 z m 11.725,0.289 v -0.3 l 4.27,0.005 v 0.3 z"
       id="path12"
       inkscape:connector-curvature="0"
       style="fill:#c9c9c9" />
  </g>
</svg>
