<svg viewBox="0 0 201.78 150" class="" role="presentation" focusable="false" xmlns="http://www.w3.org/2000/svg" xmlns:xlink="http://www.w3.org/1999/xlink" id="FxSymbol0-09b" data-type="1"><g><title></title><path fill="#814b99" d="M86.86 0L0 28.88v71.68l80.47 29.73 6.31 2.36v-.03l87.92-31.91V28.89L86.86 0z"></path><path fill="#453949" d="M6.92 36.07v59.62l2.09.77V38.67l6.2-2.05v-3.68l-8.29 2.75v.38zm11.34-3.48v67.29l2.44.9V34.79l7.3-2.42v-3.68l-9.74 3.24v.66zm13.73-4.95v77.31l2.79 1.04V30.11l8.8-2.92v-3.68l-11.59 3.85v.28zm48.77-12.8v-3.68l-14.29 4.75h-.03v101.78l3.49 1.29V18.43l10.83-3.59zM48.6 22.01v89.08l3.14 1.16V24.48l8.6-2.86v-3.67L48.6 21.84v.17z"></path><path fill="#9369a9" d="M174.68 100.81l-87.81 31.84V.12l87.83 28.92-.02 71.77z"></path><path fill="#5bb4da" d="M199.76 131.68A15.83 15.83 0 00184 115.81h-2.22a46.83 46.83 0 001.72-11.16 42.2 42.2 0 00-82.34-13.29 33.54 33.54 0 00-9.42-1.72 29.17 29.17 0 000 58.33h93.46a16.3 16.3 0 0014.56-16.29"></path><path fill="#7ec0e0" d="M106.5 148a29.16 29.16 0 0114.15-48.89 23.92 23.92 0 019.42-.43 42.53 42.53 0 0123.58-34.3 40.46 40.46 0 00-12.86-2.13 42 42 0 00-39.9 29.16 33.54 33.54 0 00-9.42-1.72 29.16 29.16 0 000 58.31z"></path><circle cx="93.04" cy="8.76" r="2.33" fill="#583e62"></circle><ellipse cx="168.36" cy="32.92" fill="#583e62" rx="2.2" ry="2.33"></ellipse><path d="M91.7 150a31.18 31.18 0 010-62.36 30 30 0 018.15 1.28A43.89 43.89 0 01141 60.18a44.53 44.53 0 0144.49 44.49 42.8 42.8 0 01-1.18 9.15 17.89 17.89 0 0117.46 17.86A18.32 18.32 0 01185.38 150zm0-58.31a27.13 27.13 0 100 54.26h93.51a14.25 14.25 0 0012.56-14.27 13.86 13.86 0 00-13.86-13.84h-4.73l.63-2.52a45.28 45.28 0 001.66-10.67A40.49 40.49 0 00141 64.22 39.9 39.9 0 00103 92l-.61 1.86-1.87-.53a31.43 31.43 0 00-8.82-1.64z" class="msportalfx-svg-c01" fill="#ffffff"></path></g><defs>
</defs>
</svg>