<svg aria-hidden="true" role="presentation">

<svg id="svg-container-instances"> <path d="M114.978,31.772A32.577,32.577,0,0,0,56.009,14.548,25.789,25.789,0,0,0,15.231,41.306,24.494,24.494,0,0,0,25.314,88.116h82.96a28.573,28.573,0,0,0,6.7-56.344Z" transform="translate(-0.834 -1)" fill="#fff"></path> <path d="M114.978,31.772A32.577,32.577,0,0,0,56.009,14.548,25.789,25.789,0,0,0,15.231,41.306,24.494,24.494,0,0,0,25.314,88.116h82.96a28.573,28.573,0,0,0,6.7-56.344Z" transform="translate(-0.834 -1)" fill="#25a8e0 " opacity="0.6" style="isolation:isolate"></path> <path d="M36.063,60.807a2.732,2.732,0,0,0-2.731,2.731v71a2.732,2.732,0,0,0,2.731,2.731H101.6a2.732,2.732,0,0,0,2.731-2.731v-71a2.732,2.732,0,0,0-2.731-2.731Z" transform="translate(-0.834 -1)" fill="#672a7b "></path> <path d="M36.063,60.807a2.732,2.732,0,0,0-2.731,2.731v71a2.732,2.732,0,0,0,2.731,2.731h8.193L93.412,60.807Z" transform="translate(-0.834 -1)" fill="#fff" opacity="0.15" style="isolation:isolate"></path> <path d="M74.159,44.422" transform="translate(-0.834 -1)" fill="none"></path> <path d="M96.006,55.345" transform="translate(-0.834 -1)" fill="none"></path> <polygon points="62.538 59.807 62.538 40.691 54.345 40.691 68 21.574 81.655 40.691 73.462 40.691 73.462 59.807 62.538 59.807" fill="#fff"></polygon> <path d="M74.159,44.422" transform="translate(-0.834 -1)" fill="#804997 "></path> <path d="M90.681,69H41.524v60.08H96.143V69ZM57.91,123.618H46.986V74.462H57.91Zm16.386,0H63.372V74.462H74.3Zm16.386,0H79.757V74.462H90.681Z" transform="translate(-0.834 -1)" fill="#b92025 " opacity="0.3" style="isolation:isolate"></path> <path d="M90.681,69H41.524v60.08H96.143V69ZM57.91,123.618H46.986V74.462H57.91Zm16.386,0H63.372V74.462H74.3Zm16.386,0H79.757V74.462H90.681Z" transform="translate(-0.834 -1)" fill="#fff" style="isolation:isolate"></path> </svg>

</svg>