<?xml version="1.0" encoding="UTF-8" standalone="no"?>
<svg
   xmlns:dc="http://purl.org/dc/elements/1.1/"
   xmlns:cc="http://creativecommons.org/ns#"
   xmlns:rdf="http://www.w3.org/1999/02/22-rdf-syntax-ns#"
   xmlns:svg="http://www.w3.org/2000/svg"
   xmlns="http://www.w3.org/2000/svg"
   xmlns:sodipodi="http://sodipodi.sourceforge.net/DTD/sodipodi-0.dtd"
   xmlns:inkscape="http://www.inkscape.org/namespaces/inkscape"
   aria-hidden="true"
   role="presentation"
   version="1.1"
   id="svg25"
   sodipodi:docname="ddos-protection_COLOR.svg"
   width="154"
   height="210.07001"
   inkscape:version="0.92.2 (5c3e80d, 2017-08-06)">
  <metadata
     id="metadata31">
    <rdf:RDF>
      <cc:Work
         rdf:about="">
        <dc:format>image/svg+xml</dc:format>
        <dc:type
           rdf:resource="http://purl.org/dc/dcmitype/StillImage" />
      </cc:Work>
    </rdf:RDF>
  </metadata>
  <defs
     id="defs29" />
  <sodipodi:namedview
     pagecolor="#ffffff"
     bordercolor="#666666"
     borderopacity="1"
     objecttolerance="10"
     gridtolerance="10"
     guidetolerance="10"
     inkscape:pageopacity="0"
     inkscape:pageshadow="2"
     inkscape:window-width="640"
     inkscape:window-height="480"
     id="namedview27"
     showgrid="false"
     inkscape:zoom="2.36"
     inkscape:cx="50"
     inkscape:cy="160.16"
     inkscape:window-x="0"
     inkscape:window-y="0"
     inkscape:window-maximized="0"
     inkscape:current-layer="svg25" />
  <svg
     id="svg-ddos-protection"
     version="1.1"
     width="100%"
     height="100%"
     transform="translate(0,-0.09)">
    <path
       style="fill:#7fba00"
       d="m 131,25.14 v 0 C 84.74,20 77,0.09 77,0.09 77,0.09 66.58,26.32 0,26.32 v 107.6 c 0,13 7.23,25.2 17.24,35.85 v 0 c 22.7,24.14 59.76,40.39 59.76,40.39 0,0 77,-33.72 77,-76.24 V 26.32 a 208.8,208.8 0 0 1 -23,-1.18 z"
       id="path2"
       inkscape:connector-curvature="0" />
    <path
       style="opacity:0.4;isolation:isolate;fill:#b8d432"
       d="m 96.06,69.6 35,-44.46 C 84.74,20 77,0.09 77,0.09 77,0.09 66.58,26.32 0,26.32 v 107.6 c 0,13 7.23,25.2 17.24,35.85 l 25.84,-32.86 z"
       id="path4"
       inkscape:connector-curvature="0" />
    <path
       style="fill:#3e3e3e"
       d="m 108.95,156.06 a 5.61,5.61 0 0 1 -5.66,5.66 h -55 a 5.61,5.61 0 0 1 -5.66,-5.66 V 54.28 a 5.61,5.61 0 0 1 5.66,-5.66 h 55 a 5.61,5.61 0 0 1 5.66,5.66 z"
       id="path6"
       inkscape:connector-curvature="0" />
    <path
       style="fill:#1e1e1e"
       d="m 52.16,109.69 a 7.14,7.14 0 0 1 7.23,-7.23 h 33 a 7.14,7.14 0 0 1 7.23,7.23 v 0 a 7.14,7.14 0 0 1 -7.23,7.23 h -33 a 7.29,7.29 0 0 1 -7.25,-7.23 z"
       id="path8"
       inkscape:connector-curvature="0" />
    <circle
       style="fill:#b8d432"
       cx="59.860001"
       cy="109.69"
       r="4.7600002"
       id="circle10" />
    <path
       style="fill:#1e1e1e"
       d="M 52.16,88.19 A 7.14,7.14 0 0 1 59.39,81 h 33 a 7.14,7.14 0 0 1 7.23,7.23 v 0 a 7.14,7.14 0 0 1 -7.23,7.23 h -33 a 7.26,7.26 0 0 1 -7.25,-7.23 z"
       id="path12"
       inkscape:connector-curvature="0" />
    <circle
       style="fill:#b8d432"
       cx="59.860001"
       cy="88.190002"
       r="4.7600002"
       id="circle14" />
    <path
       style="fill:#1e1e1e"
       d="m 52.16,66.93 a 7.14,7.14 0 0 1 7.23,-7.23 h 33 a 7.14,7.14 0 0 1 7.23,7.23 v 0 a 7.14,7.14 0 0 1 -7.23,7.23 h -33 a 7.42,7.42 0 0 1 -7.25,-7.23 z"
       id="path16"
       inkscape:connector-curvature="0" />
    <circle
       style="fill:#b8d432"
       cx="59.860001"
       cy="66.93"
       r="4.7600002"
       id="circle18" />
    <line
       style="fill:none"
       x1="43.099998"
       y1="136.91"
       x2="108.95"
       y2="54.279999"
       id="line20" />
    <path
       style="opacity:0.1;isolation:isolate;fill:#ffffff"
       d="M 43.1,136.91 96,69.6 108.8,53.31 a 5.59,5.59 0 0 0 -5.57,-4.69 h -54.9 a 5.61,5.61 0 0 0 -5.66,5.66 v 83.19 z"
       id="path22"
       inkscape:connector-curvature="0" />
  </svg>
</svg>
