<svg viewBox="0 0 18 18" class="" role="presentation" focusable="false" xmlns="http://www.w3.org/2000/svg" xmlns:xlink="http://www.w3.org/1999/xlink" id="FxSymbol0-09d" data-type="26"><g><title>MsPortalFx.base.images-67</title><path fill="url(#f9735c41-4373-4adb-b2b2-792fb469daad)" d="M1 5.977h16V14.9a.535.535 0 0 1-.535.535H1.535A.535.535 0 0 1 1 14.9V5.977z"></path><path fill="#0078d4" d="M1.539 2.568h14.924A.535.535 0 0 1 17 3.1v2.877H1V3.1a.535.535 0 0 1 .539-.532z"></path><rect width="11.499" height="1.35" x="3.252" y="3.58" fill="#f2f2f2" rx=".263"></rect><path fill="#f2f2f2" d="M6.611 13.469l2.055-5.546a.27.27 0 0 0-.253-.363H7.136a.269.269 0 0 0-.252.176l-2.055 5.546a.269.269 0 0 0 .252.362h1.277a.27.27 0 0 0 .253-.175zm4.505 0l2.055-5.546a.269.269 0 0 0-.252-.363h-1.277a.269.269 0 0 0-.253.176l-2.055 5.546a.269.269 0 0 0 .253.362h1.277a.269.269 0 0 0 .252-.175z"></path></g><defs>
<linearGradient id="f9735c41-4373-4adb-b2b2-792fb469daad" x1="9" x2="9" y1="15.432" y2="5.977" gradientUnits="userSpaceOnUse"><stop offset="0" stop-color="#32bedd"></stop><stop offset=".175" stop-color="#32caea"></stop><stop offset=".41" stop-color="#32d2f2"></stop><stop offset=".775" stop-color="#32d4f5"></stop></linearGradient>
</defs>
</svg>