<svg aria-hidden="true" role="presentation">
<svg id="svg-disks" width="100%" height="100%"> <path fill="#7fba00" d="M147.851,98.912c0,14.788-33.1,26.773-73.925,26.773S0,113.7,0,98.912V84.482H147.851Z"></path> <path fill="#b8d432" d="M147.851,84.482c0,14.788-33.1,26.773-73.925,26.773S0,99.27,0,84.482,33.1,57.709,73.925,57.709,147.851,69.7,147.851,84.482"></path> <path fill="#7fba00" d="M97.62,82.941c0,3.933-10.61,7.118-23.7,7.118s-23.7-3.185-23.7-7.118,10.613-7.118,23.7-7.118,23.7,3.188,23.7,7.118"></path> <path fill="#fff" opacity="0.25" isolation="isolate" d="M127.362,66.14C117.006,62.216,103.4,59.43,88.1,58.354L78.5,76.108a54.679,54.679,0,0,1,12.2,1.958Z"></path> <path fill="#fff" opacity="0.25" isolation="isolate" d="M17.452,101.9c10.648,4.563,25.424,7.815,42.25,9L70.918,90.145a60.208,60.208,0,0,1-12.325-1.632Z"></path> <path fill="#0072c6" d="M147.851,41.2c0,14.788-33.1,26.773-73.925,26.773S0,55.988,0,41.2V26.773H147.851Z"></path> <path fill="#59b4d9" d="M147.851,26.773c0,14.788-33.1,26.773-73.925,26.773S0,41.558,0,26.773,33.1,0,73.925,0s73.925,11.985,73.925,26.773"></path> <path fill="#0072c6" d="M97.62,25.232c0,3.933-10.61,7.118-23.7,7.118s-23.7-3.185-23.7-7.118,10.613-7.118,23.7-7.118,23.7,3.185,23.7,7.118"></path> <path fill="#fff" opacity="0.25" isolation="isolate" d="M127.362,8.283C117.006,4.359,103.4,1.573,88.1.5L78.5,18.251a54.679,54.679,0,0,1,12.2,1.958Z"></path> <path fill="#fff" opacity="0.25" isolation="isolate" d="M17.452,44.042c10.648,4.563,25.424,7.815,42.25,9L70.918,32.288a60.208,60.208,0,0,1-12.325-1.632Z"></path> </svg>
</svg>