<?xml version="1.0" encoding="UTF-8" standalone="no"?>
<!-- Generator: Adobe Illustrator 21.0.0, SVG Export Plug-In . SVG Version: 6.00 Build 0)  -->

<svg
   xmlns:dc="http://purl.org/dc/elements/1.1/"
   xmlns:cc="http://creativecommons.org/ns#"
   xmlns:rdf="http://www.w3.org/1999/02/22-rdf-syntax-ns#"
   xmlns:svg="http://www.w3.org/2000/svg"
   xmlns="http://www.w3.org/2000/svg"
   xmlns:sodipodi="http://sodipodi.sourceforge.net/DTD/sodipodi-0.dtd"
   xmlns:inkscape="http://www.inkscape.org/namespaces/inkscape"
   version="1.1"
   id="Layer_1"
   x="0px"
   y="0px"
   width="48"
   height="49.900002"
   viewBox="0 0 48 49.900002"
   enable-background="new 0 0 50 50"
   xml:space="preserve"
   sodipodi:docname="IOT edge_COLOR.svg"
   inkscape:version="0.92.2 (5c3e80d, 2017-08-06)"><metadata
     id="metadata21"><rdf:RDF><cc:Work
         rdf:about=""><dc:format>image/svg+xml</dc:format><dc:type
           rdf:resource="http://purl.org/dc/dcmitype/StillImage" /></cc:Work></rdf:RDF></metadata><defs
     id="defs19" /><sodipodi:namedview
     pagecolor="#ffffff"
     bordercolor="#666666"
     borderopacity="1"
     objecttolerance="10"
     gridtolerance="10"
     guidetolerance="10"
     inkscape:pageopacity="0"
     inkscape:pageshadow="2"
     inkscape:window-width="640"
     inkscape:window-height="480"
     id="namedview17"
     showgrid="false"
     inkscape:zoom="4.72"
     inkscape:cx="24"
     inkscape:cy="25"
     inkscape:window-x="0"
     inkscape:window-y="0"
     inkscape:window-maximized="0"
     inkscape:current-layer="Layer_1" /><path
     d="M 46.677,34.9 H 1.323 C 0.592,34.9 0,35.492 0,36.223 V 48.577 C 0,49.308 0.592,49.9 1.323,49.9 H 46.677 C 47.408,49.9 48,49.308 48,48.577 V 36.223 C 48,35.495 47.405,34.9 46.677,34.9 Z"
     id="path2"
     inkscape:connector-curvature="0"
     style="fill:#7a7a7a" /><rect
     x="41"
     y="37.900002"
     width="3"
     height="3"
     id="rect4"
     style="fill:#b8d432" /><rect
     x="41"
     y="43.900002"
     width="3"
     height="3"
     id="rect6"
     style="fill:#b8d432" /><path
     d="m 41.492,14.737 c 0.372,-1.109 0.581,-2.291 0.581,-3.522 C 42.073,5.021 36.98,0 30.697,0 25.947,0 21.889,2.876 20.186,6.954 18.676,5.359 16.527,4.391 14.139,4.391 c -4.567,0 -8.238,3.619 -8.238,8.123 0,0.8 0.119,1.604 0.337,2.335 -3.56,1.33 -6.138,4.714 -6.138,8.713 0,5.15 4.205,9.338 9.399,9.338 h 29 c 5.208,0 9.402,-4.182 9.402,-9.338 0.011,-4.111 -2.674,-7.59 -6.409,-8.825 z"
     id="path8"
     inkscape:connector-curvature="0"
     style="fill:#59b4d9" /><path
     enable-background="new    "
     d="m 3.325,28.792 c 0,-4.066 2.703,-7.507 6.436,-8.859 -0.229,-0.743 -0.353,-1.56 -0.353,-2.374 0,-4.579 3.849,-8.259 8.639,-8.259 2.503,0 4.758,0.984 6.341,2.606 1.785,-4.146 6.04,-7.07 11.022,-7.07 1.996,0 3.876,0.471 5.529,1.299 C 39.095,2.504 35.202,0 30.697,0 25.947,0 21.889,2.789 20.186,6.742 18.676,5.195 16.527,4.257 14.139,4.257 c -4.567,0 -8.238,3.509 -8.238,7.876 0,0.776 0.119,1.555 0.337,2.264 -3.561,1.29 -6.138,4.571 -6.138,8.449 0,2.741 1.269,5.199 3.271,6.861 -0.03,-0.301 -0.046,-0.606 -0.046,-0.915 z"
     id="path10"
     inkscape:connector-curvature="0"
     style="opacity:0.2;fill:#ffffff" /><path
     enable-background="new    "
     d="m 40.433,24.996 c -0.563,-1.439 -1.927,-2.37 -3.473,-2.37 -0.465,0 -0.922,0.086 -1.357,0.257 -0.12,0.047 -0.224,0.115 -0.337,0.173 L 31.578,19.508 C 31.849,18.858 32,18.147 32,17.4 c 0,-3.033 -2.468,-5.5 -5.5,-5.5 -1.467,0 -2.799,0.581 -3.787,1.521 L 20.711,12.174 C 20.76,11.61 20.695,11.039 20.482,10.497 19.919,9.058 18.556,8.127 17.01,8.127 c -0.465,0 -0.922,0.086 -1.357,0.257 -1.914,0.749 -2.861,2.916 -2.113,4.829 0.563,1.439 1.927,2.37 3.472,2.37 0.001,0 0.001,0 0.001,0 0.465,0 0.922,-0.086 1.357,-0.257 0.298,-0.117 0.566,-0.279 0.818,-0.461 l 1.975,1.23 C 21.06,16.514 21,16.949 21,17.4 c 0,0.597 0.099,1.171 0.276,1.71 l -3.855,2.424 C 16.946,21.257 16.4,21.096 15.82,21.096 c -0.397,0 -0.787,0.074 -1.159,0.22 -1.634,0.64 -2.442,2.489 -1.804,4.123 0.481,1.229 1.645,2.022 2.963,2.022 0,0 0,0 10e-4,0 0.396,0 0.787,-0.074 1.159,-0.22 1.279,-0.501 2.04,-1.744 2.009,-3.044 l 4.038,-2.539 c 0.499,0.408 1.073,0.726 1.695,0.939 L 22.116,38.139 C 20.314,38.729 19,40.405 19,42.4 c 0,2.481 2.019,4.5 4.5,4.5 2.481,0 4.5,-2.019 4.5,-4.5 0,-1.913 -1.205,-3.54 -2.892,-4.19 l 2.596,-15.447 c 0.702,-0.158 1.353,-0.448 1.926,-0.846 l 3.712,3.572 c -0.172,0.716 -0.14,1.488 0.148,2.224 0.563,1.439 1.927,2.369 3.472,2.37 0.465,0 0.922,-0.086 1.357,-0.257 1.914,-0.75 2.862,-2.916 2.114,-4.83 z"
     id="path12"
     inkscape:connector-curvature="0"
     style="opacity:0.2;fill:#00188f" /><path
     d="m 39.501,25.36 c -0.549,-1.403 -2.131,-2.095 -3.534,-1.546 -0.315,0.123 -0.588,0.305 -0.825,0.518 L 30.346,19.704 C 30.752,19.028 31,18.246 31,17.4 c 0,-2.485 -2.015,-4.5 -4.5,-4.5 -1.476,0 -2.775,0.721 -3.595,1.819 l -3.301,-2.055 c 0.179,-0.571 0.183,-1.201 -0.052,-1.802 -0.549,-1.403 -2.131,-2.095 -3.534,-1.546 -1.403,0.549 -2.095,2.131 -1.546,3.534 0.549,1.403 2.131,2.095 3.534,1.546 0.434,-0.17 0.789,-0.446 1.072,-0.777 l 3.274,2.039 C 22.125,16.193 22,16.782 22,17.4 c 0,0.761 0.207,1.468 0.541,2.096 l -5.169,3.25 c -0.594,-0.601 -1.51,-0.827 -2.347,-0.499 -1.123,0.439 -1.676,1.704 -1.237,2.827 0.439,1.123 1.704,1.676 2.827,1.237 1.053,-0.412 1.594,-1.55 1.296,-2.616 l 5.252,-3.302 c 0.688,0.767 1.629,1.289 2.698,1.443 L 23.297,38.92 C 21.46,39.028 20,40.537 20,42.4 c 0,1.933 1.567,3.5 3.5,3.5 1.933,0 3.5,-1.567 3.5,-3.5 0,-1.662 -1.161,-3.046 -2.714,-3.404 l 2.57,-17.132 c 1.101,-0.088 2.096,-0.55 2.831,-1.288 l 4.803,4.635 c -0.301,0.651 -0.35,1.416 -0.068,2.137 0.549,1.403 2.131,2.095 3.534,1.546 1.403,-0.549 2.094,-2.131 1.545,-3.534 z"
     id="path14"
     inkscape:connector-curvature="0"
     style="fill:#ffffff" /></svg>