<?xml version="1.0" encoding="UTF-8" standalone="no"?>
<svg
   xmlns:dc="http://purl.org/dc/elements/1.1/"
   xmlns:cc="http://creativecommons.org/ns#"
   xmlns:rdf="http://www.w3.org/1999/02/22-rdf-syntax-ns#"
   xmlns:svg="http://www.w3.org/2000/svg"
   xmlns="http://www.w3.org/2000/svg"
   xmlns:sodipodi="http://sodipodi.sourceforge.net/DTD/sodipodi-0.dtd"
   xmlns:inkscape="http://www.inkscape.org/namespaces/inkscape"
   aria-hidden="true"
   role="presentation"
   version="1.1"
   id="svg15"
   sodipodi:docname="mysql_COLOR.svg"
   width="84.080002"
   height="111.44"
   inkscape:version="0.92.2 (5c3e80d, 2017-08-06)">
  <metadata
     id="metadata21">
    <rdf:RDF>
      <cc:Work
         rdf:about="">
        <dc:format>image/svg+xml</dc:format>
        <dc:type
           rdf:resource="http://purl.org/dc/dcmitype/StillImage" />
      </cc:Work>
    </rdf:RDF>
  </metadata>
  <defs
     id="defs19" />
  <sodipodi:namedview
     pagecolor="#ffffff"
     bordercolor="#666666"
     borderopacity="1"
     objecttolerance="10"
     gridtolerance="10"
     guidetolerance="10"
     inkscape:pageopacity="0"
     inkscape:pageshadow="2"
     inkscape:window-width="640"
     inkscape:window-height="480"
     id="namedview17"
     showgrid="false"
     inkscape:zoom="2.36"
     inkscape:cx="50"
     inkscape:cy="61.44"
     inkscape:window-x="0"
     inkscape:window-y="0"
     inkscape:window-maximized="0"
     inkscape:current-layer="svg15" />
  <svg
     id="svg-mysql"
     version="1.1"
     width="100%"
     height="100%">
    <path
       d="m 18,19.25 v 80.94 c 0,8.52 18.83,15.25 41.93,15.25 V 19.25 Z"
       transform="translate(-18,-4)"
       id="path2"
       inkscape:connector-curvature="0"
       style="fill:#005f87" />
    <path
       d="m 59.48,115.43 h 0.67 C 83.47,115.43 102,108.52 102,100 V 19 l -42.52,0.25 z"
       transform="translate(-18,-4)"
       id="path4"
       inkscape:connector-curvature="0"
       style="fill:#0f80b0" />
    <path
       d="m 102.08,19.25 c 0,8.3 -18.83,15.25 -41.93,15.25 C 37.05,34.5 18,27.54 18,19.25 18,10.96 36.83,4 59.93,4 c 23.1,0 42.15,7 42.15,15.25"
       transform="translate(-18,-4)"
       id="path6"
       inkscape:connector-curvature="0"
       style="fill:#ffffff" />
    <path
       d="m 93.56,18.35 c 0,5.61 -15,10.09 -33.41,10.09 -18.41,0 -33.63,-4.44 -33.63,-10.09 0,-5.65 15,-10.09 33.41,-10.09 18.41,0 33.63,4.48 33.63,10.09"
       transform="translate(-18,-4)"
       id="path8"
       inkscape:connector-curvature="0"
       style="fill:#7fb900" />
    <path
       d="m 86.38,24.4 c 4.48,-1.79 7,-3.81 7,-6.05 C 93.34,12.74 78.39,8 60,8 41.61,8 26.52,12.74 26.52,18.35 c 0,2.24 2.69,4.48 7,6.05 C 39.53,21.94 49.24,21 60,21 c 10.76,0 20.33,1.16 26.39,3.4"
       transform="translate(-18,-4)"
       id="path10"
       inkscape:connector-curvature="0"
       style="fill:#b7d332" />
    <path
       d="m 93,77.05 c 0,4.78 -3.26,8.87 -8,8.95 H 67 v -7 h 16 c 1,-0.08 1.83,-2.9 1.83,-2.9 L 83,77 H 73 c -4,0 -7,-2.35 -7,-6 v -1 c 0,-6.14 0,-8.93 0,-10 L 63,59 V 78 H 55 V 63.48 L 50.42,73.61 C 49.26,76.3 48.06,78 45,78 A 7.16,7.16 0 0 1 38.26,73.61 L 34,63 V 78 H 26 V 55.76 c 0,-2.58 0.5,-4.16 2.86,-4.9 a 11.71,11.71 0 0 1 3.4,-0.58 6.3,6.3 0 0 1 6.11,3.91 L 45,67 50.34,54.19 a 6.32,6.32 0 0 1 6.1,-3.91 12.7,12.7 0 0 1 3.36,0.54 c 2.37,0.75 3.2,2.6 3.2,5.18 v 2.77 C 63,58.9 62.87,59 63,59 h 12 v 10 a 3,3 0 0 0 2,1 h 7 V 59 h 9 z"
       transform="translate(-18,-4)"
       id="path12"
       inkscape:connector-curvature="0"
       style="fill:#ffffff" />
  </svg>
</svg>
