<svg aria-hidden="true" role="presentation">
<svg id="svg-netapp-color"> <path fill="#A0A1A2" d="M2,46h46c1.105,0,2-0.895,2-2V11H0v33C0,45.105,0.895,46,2,46z"></path> <path fill="#7A7A7A" d="M0,5.988V11h50V5.988C50,4.89,49.105,4,48,4H2C0.895,4,0,4.89,0,5.988z"></path> <rect x="4" y="25" fill="#FFFFFF" width="42" height="7"></rect> <rect x="4" y="15" fill="#FFFFFF" width="42" height="7"></rect> <rect x="4" y="35" fill="#B8D432" width="42" height="7"></rect> <path opacity="0.2" fill="#FFFFFF" d="M43.6,4H1.988C0.89,4,0,4.89,0,5.988V44c0,1.105,0.895,2,2,2h2L43.6,4z"></path> <polygon opacity="0.4" fill="#FFFFFF" points="12,22 12,39 23,39 23,35 27,35 27,39 38,39 38,22 "></polygon> <polygon fill="#0067C5" points="13,19 13,38 22,38 22,26 28,26 28,38 37,38 37,19 "></polygon> </svg>
</svg>