<svg aria-hidden="true" role="presentation">
<svg id="svg-notification-hubs"> <path fill="#0072C6" d="M13.7,27.8v5.4L1,22.4h49l0-16.2C50,2.6,47,0,43.4,0H6.3C2.6,0,0,2.2,0,5.9v5.9h36.6V6.4l12.7,10.8H0v14.9 c0,3.7,2.7,7,6.3,7l13.4,0l11,10.8l0.1-10.8h12.5c3.7,0,6.7-2.9,6.7-6.6l0-4.8H13.7z"></path> <g opacity="0.2"> <path fill="#FFFFFF" d="M6.3,39.2h9.7l5.7-11.3h-8.1v5.4L1,22.4h23.3l2.8-5.2H0v14.9C0,35.8,2.7,39.1,6.3,39.2z"></path> <path fill="#FFFFFF" d="M35.6,0H6.3C2.6,0,0,2.2,0,5.9v5.9h29.7L35.6,0z"></path> </g> </svg>
</svg>