<?xml version="1.0" encoding="iso-8859-1"?>
<!-- Generator: Adobe Illustrator 19.0.0, SVG Export Plug-In . SVG Version: 6.00 Build 0)  -->
<svg version="1.1" id="Layer_1" xmlns="http://www.w3.org/2000/svg" xmlns:xlink="http://www.w3.org/1999/xlink" x="0px" y="0px"
	 viewBox="0 0 512 512" style="enable-background:new 0 0 512 512;" xml:space="preserve">
<g>
	<g>
		<path d="M486.038,102.894h-29.275c-14.316,0-25.962,11.646-25.962,25.962v9.894H81.719v-9.894
			c0-14.316-11.647-25.962-25.963-25.962H25.962C11.646,102.894,0,114.54,0,128.856v254.289c0,14.316,11.646,25.962,25.962,25.962
			h29.794c14.316,0,25.963-11.646,25.963-25.962v-9.894h349.082v9.894c0,14.316,11.646,25.962,25.962,25.962h29.275
			c14.316,0,25.962-11.646,25.962-25.962V128.856C512,114.54,500.354,102.894,486.038,102.894z M61.321,383.144
			c0,3.068-2.496,5.564-5.565,5.564H25.962c-3.068,0-5.564-2.496-5.564-5.564V128.856c0-3.068,2.496-5.564,5.564-5.564h29.794
			c3.069,0,5.565,2.496,5.565,5.564V383.144z M430.801,352.852H81.719V159.148h349.082V352.852z M491.602,383.144
			c0,3.068-2.496,5.564-5.564,5.564h-29.275c-3.068,0-5.564-2.496-5.564-5.564V128.856c0-3.068,2.496-5.564,5.564-5.564h29.275
			c3.068,0,5.564,2.496,5.564,5.564V383.144z"/>
	</g>
</g>
<g>
	<g>
		<path d="M277.306,319.593h-5.196c-5.632,0-10.199,4.567-10.199,10.199c0,5.632,4.567,10.199,10.199,10.199h5.196
			c5.632,0,10.199-4.567,10.199-10.199C287.505,324.16,282.938,319.593,277.306,319.593z"/>
	</g>
</g>
<g>
	<g>
		<path d="M232.615,319.593h-123.68c-5.632,0-10.199,4.567-10.199,10.199c0,5.632,4.567,10.199,10.199,10.199h123.681
			c5.632,0,10.199-4.567,10.199-10.199C242.815,324.16,238.248,319.593,232.615,319.593z"/>
	</g>
</g>
<g>
</g>
<g>
</g>
<g>
</g>
<g>
</g>
<g>
</g>
<g>
</g>
<g>
</g>
<g>
</g>
<g>
</g>
<g>
</g>
<g>
</g>
<g>
</g>
<g>
</g>
<g>
</g>
<g>
</g>
</svg>
