<svg aria-hidden="true" role="presentation">
<svg id="svg-postgresql"> <path d="M0,6.841V43.159C0,46.982,8.451,50,18.813,50V6.841Z" fill="#3998c5"></path> <path d="M18.612,50h.3c10.463,0,18.813-3.018,18.813-6.841V6.841H18.612Z" fill="#59b3d8"></path> <path d="M37.727,6.841c0,3.724-8.451,6.841-18.813,6.841S0,10.563,0,6.841,8.451,0,18.813,0,37.727,3.119,37.727,6.841" fill="#fff"></path> <path d="M33.9,6.438c0,2.515-6.74,4.527-14.99,4.527S3.823,8.954,3.823,6.438s6.74-4.527,14.99-4.527S33.9,3.923,33.9,6.438" fill="#7fb900"></path> <path d="M30.684,9.154c2.012-.8,3.119-1.71,3.119-2.716,0-2.515-6.74-4.527-14.99-4.527S3.823,3.923,3.823,6.438c0,1.006,1.207,2.012,3.119,2.716,2.716-1.107,7.042-1.71,11.871-1.71a36.668,36.668,0,0,1,11.871,1.71" fill="#b7d332"></path> <path d="M29.465,33.817c-2.994.617-3.2-.4-3.2-.4,3.161-4.691,4.483-10.645,3.342-12.1-3.111-3.975-8.5-2.095-8.586-2.046l-.029.005a10.679,10.679,0,0,0-2-.208,4.936,4.936,0,0,0-3.162.946s-9.608-3.958-9.161,4.976c.1,1.9,2.725,14.384,5.861,10.613,1.146-1.379,2.254-2.544,2.254-2.544a2.908,2.908,0,0,0,1.9.485l.054-.045a2.093,2.093,0,0,0,.022.538c-.808.9-.571,1.061-2.186,1.394-1.634.337-.673.936-.048,1.093a3.32,3.32,0,0,0,3.706-1.2l-.048.19a5.4,5.4,0,0,1,.5,2.917,8.044,8.044,0,0,0,.187,2.812c.249.678.5,2.205,2.621,1.75a3.132,3.132,0,0,0,2.821-3.009c.09-1.167.3-1,.309-2.04l.165-.494c.19-1.584.03-2.095,1.122-1.857l.266.023a6.053,6.053,0,0,0,2.476-.417c1.331-.617,2.12-1.649.808-1.378Z" fill="#336790"></path> <path d="M16.826,25.98a1.274,1.274,0,0,0-.433-.135.928.928,0,0,0-.638.09.232.232,0,0,0-.1.155c-.028.2.269.576.641.628a.684.684,0,0,0,.09.006.7.7,0,0,0,.634-.407l.01-.035C17.043,26.218,17.029,26.091,16.826,25.98Z" fill="#fff"></path> <path d="M25.1,25.668a1.189,1.189,0,0,0-.43-.009c-.311.045-.612.184-.587.368l.005.018a.634.634,0,0,0,.578.371.649.649,0,0,0,.082-.005.758.758,0,0,0,.426-.234.487.487,0,0,0,.161-.325C25.32,25.766,25.236,25.7,25.1,25.668Z" fill="#fff"></path> <path d="M30.37,33.778c-.144-.442-.774-.31-.981-.267-2.109.435-2.7.006-2.823-.115a24.589,24.589,0,0,0,3.263-7.336c.583-2.333.572-4.184-.025-4.947a6.82,6.82,0,0,0-5.3-2.62,10.256,10.256,0,0,0-3.545.473l-.025.006-.04.014h0L20.858,19a8.253,8.253,0,0,0-1.877-.244,5.326,5.326,0,0,0-3.174.9,13.884,13.884,0,0,0-3.035-.763,6.277,6.277,0,0,0-4.487.808c-1.391.987-2.036,2.76-1.911,5.268.061,1.183,1.792,10.606,4.509,11.513a1.66,1.66,0,0,0,1.84-.732c.968-1.164,1.872-2.13,2.1-2.37A3.314,3.314,0,0,0,16.4,33.8a1.42,1.42,0,0,0,.013.167c-.1.113-.19.227-.285.348-.363.462-.449.571-1.626.814-.477.1-1.112.284-1.122.757s.654.77,1.046.867a3.574,3.574,0,0,0,3.643-.882,24.271,24.271,0,0,0,.351,5.6A2.607,2.607,0,0,0,20.924,43.4a4.022,4.022,0,0,0,.836-.095,3.167,3.167,0,0,0,2.913-2.961c.173-1,.473-3.431.6-4.654a3.085,3.085,0,0,0,1.122.17,6.206,6.206,0,0,0,2.356-.444C29.5,35.058,30.554,34.336,30.37,33.778Zm-5.588,1.3c-.052.683-.446,3.974-.652,5.167a2.646,2.646,0,0,1-2.487,2.519,2.105,2.105,0,0,1-2.717-1.5,29.554,29.554,0,0,1-.29-6.526.261.261,0,0,0-.028-.122,1.41,1.41,0,0,0-.051-.25,1.375,1.375,0,0,0-.675-.818l-.033-.017a1,1,0,0,0-.871-.052,7.083,7.083,0,0,1,.359-1.142l.056-.15c.064-.172.141-.343.224-.532.441-.98,1.044-2.32.387-5.356a1.847,1.847,0,0,0-2.233-1.5,5.445,5.445,0,0,0-2.112.753,8.094,8.094,0,0,1,1.855-4.94,4.581,4.581,0,0,1,3.455-1.3,7.126,7.126,0,0,1,5.2,2.271,8.431,8.431,0,0,1,1.9,3.12c-1.427-.171-2.386.085-2.858.759-1,1.436.583,4.281,1.346,5.649.13.233.265.474.307.576a5.055,5.055,0,0,0,.805,1.293,2.731,2.731,0,0,1,.269.372l-.065.018C25.469,33.479,24.714,33.691,24.782,35.076Zm-13.725.881c-.91-.3-1.92-2.128-2.844-5.137a32.865,32.865,0,0,1-1.288-5.878c-.115-2.309.449-3.921,1.679-4.792a4.988,4.988,0,0,1,2.906-.782,12.57,12.57,0,0,1,3.792.689h0c-.058.051-.118.1-.175.161-2.113,2.132-2.038,5.794-2.034,5.948v.018a17.6,17.6,0,0,1-.062,3.425,3.766,3.766,0,0,0,.992,3.153,3.283,3.283,0,0,0,.337.3c-.346.368-1.17,1.261-2.06,2.333h0C11.872,35.909,11.464,36.092,11.057,35.957Zm2.519-6.279a18,18,0,0,0,.07-3.455,4.21,4.21,0,0,1,2.8-.873,1.212,1.212,0,0,1,1.019,1.06c.618,2.859.081,4.054-.352,5.015-.083.185-.169.376-.24.565l-.056.15a8.794,8.794,0,0,0-.361,1.109,2.717,2.717,0,0,1-2.041-.868A3.226,3.226,0,0,1,13.576,29.678Zm3.368,4.508a.269.269,0,0,0,.026-.033.459.459,0,0,1,.61-.148l.045.023a.841.841,0,0,1,.365,1.1,3.051,3.051,0,0,1-3.414,1.1h0a1.468,1.468,0,0,1-.639-.314,1.531,1.531,0,0,1,.673-.242c1.314-.269,1.5-.446,1.947-1.012.1-.128.224-.285.39-.47Zm8.43-2.713c-.052-.127-.168-.334-.328-.622l-.007-.012c-.653-1.171-2.182-3.913-1.375-5.067a1.829,1.829,0,0,1,1.585-.575,6.573,6.573,0,0,1,.866.065,7.15,7.15,0,0,1-.109,1.149,9.552,9.552,0,0,0-.13,1.216,9.135,9.135,0,0,0,.1,1.378,4.869,4.869,0,0,1-.309,3.027A3.671,3.671,0,0,1,25.375,31.473Zm3.756-4.986a27.62,27.62,0,0,1-2.865,6.361c-.045-.064-.1-.135-.17-.22l-.064-.082-.018-.022a5.11,5.11,0,0,0,.5-3.595,8.686,8.686,0,0,1-.092-1.287,9.194,9.194,0,0,1,.125-1.154,6.974,6.974,0,0,0,.114-1.407.459.459,0,0,0,.015-.179,8.566,8.566,0,0,0-4.906-5.609c4.478-1.094,6.8,1.136,7.6,2.154.6.763.511,2.553-.239,5.039Zm-3.1,7.4a1.611,1.611,0,0,0,.2-.066,1.354,1.354,0,0,0,.14.107,4.469,4.469,0,0,0,3.136.114,1.71,1.71,0,0,1,.288-.038,3.572,3.572,0,0,1-1.266.9,4.911,4.911,0,0,1-3.123.231c-.054-.032-.066-.055-.067-.061-.056-.972.325-1.079.7-1.183Z" fill="#fff"></path> </svg>
</svg>