<?xml version="1.0" encoding="UTF-8" standalone="no"?>
<svg
   xmlns:dc="http://purl.org/dc/elements/1.1/"
   xmlns:cc="http://creativecommons.org/ns#"
   xmlns:rdf="http://www.w3.org/1999/02/22-rdf-syntax-ns#"
   xmlns:svg="http://www.w3.org/2000/svg"
   xmlns="http://www.w3.org/2000/svg"
   xmlns:sodipodi="http://sodipodi.sourceforge.net/DTD/sodipodi-0.dtd"
   xmlns:inkscape="http://www.inkscape.org/namespaces/inkscape"
   aria-hidden="true"
   role="presentation"
   version="1.1"
   id="svg21"
   sodipodi:docname="postgresql_COLOR.svg"
   width="37.727001"
   height="50"
   inkscape:version="0.92.2 (5c3e80d, 2017-08-06)">
  <metadata
     id="metadata27">
    <rdf:RDF>
      <cc:Work
         rdf:about="">
        <dc:format>image/svg+xml</dc:format>
        <dc:type
           rdf:resource="http://purl.org/dc/dcmitype/StillImage" />
      </cc:Work>
    </rdf:RDF>
  </metadata>
  <defs
     id="defs25" />
  <sodipodi:namedview
     pagecolor="#ffffff"
     bordercolor="#666666"
     borderopacity="1"
     objecttolerance="10"
     gridtolerance="10"
     guidetolerance="10"
     inkscape:pageopacity="0"
     inkscape:pageshadow="2"
     inkscape:window-width="640"
     inkscape:window-height="480"
     id="namedview23"
     showgrid="false"
     inkscape:zoom="2.36"
     inkscape:cx="50"
     inkscape:cy="2.1316282e-014"
     inkscape:window-x="0"
     inkscape:window-y="0"
     inkscape:window-maximized="0"
     inkscape:current-layer="svg21" />
  <svg
     id="svg-postgresql"
     version="1.1"
     width="100%"
     height="100%">
    <path
       d="M 0,6.841 V 43.159 C 0,46.982 8.451,50 18.813,50 V 6.841 Z"
       id="path2"
       inkscape:connector-curvature="0"
       style="fill:#3998c5" />
    <path
       d="m 18.612,50 h 0.3 c 10.463,0 18.813,-3.018 18.813,-6.841 V 6.841 H 18.612 Z"
       id="path4"
       inkscape:connector-curvature="0"
       style="fill:#59b3d8" />
    <path
       d="m 37.727,6.841 c 0,3.724 -8.451,6.841 -18.813,6.841 C 8.552,13.682 0,10.563 0,6.841 0,3.119 8.451,0 18.813,0 29.175,0 37.727,3.119 37.727,6.841"
       id="path6"
       inkscape:connector-curvature="0"
       style="fill:#ffffff" />
    <path
       d="m 33.9,6.438 c 0,2.515 -6.74,4.527 -14.99,4.527 -8.25,0 -15.087,-2.011 -15.087,-4.527 0,-2.516 6.74,-4.527 14.99,-4.527 8.25,0 15.087,2.012 15.087,4.527"
       id="path8"
       inkscape:connector-curvature="0"
       style="fill:#7fb900" />
    <path
       d="m 30.684,9.154 c 2.012,-0.8 3.119,-1.71 3.119,-2.716 0,-2.515 -6.74,-4.527 -14.99,-4.527 -8.25,0 -14.99,2.012 -14.99,4.527 0,1.006 1.207,2.012 3.119,2.716 2.716,-1.107 7.042,-1.71 11.871,-1.71 a 36.668,36.668 0 0 1 11.871,1.71"
       id="path10"
       inkscape:connector-curvature="0"
       style="fill:#b7d332" />
    <path
       d="m 29.465,33.817 c -2.994,0.617 -3.2,-0.4 -3.2,-0.4 3.161,-4.691 4.483,-10.645 3.342,-12.1 -3.111,-3.975 -8.5,-2.095 -8.586,-2.046 l -0.029,0.005 a 10.679,10.679 0 0 0 -2,-0.208 4.936,4.936 0 0 0 -3.162,0.946 c 0,0 -9.608,-3.958 -9.161,4.976 0.1,1.9 2.725,14.384 5.861,10.613 1.146,-1.379 2.254,-2.544 2.254,-2.544 a 2.908,2.908 0 0 0 1.9,0.485 l 0.054,-0.045 a 2.093,2.093 0 0 0 0.022,0.538 c -0.808,0.9 -0.571,1.061 -2.186,1.394 -1.634,0.337 -0.673,0.936 -0.048,1.093 a 3.32,3.32 0 0 0 3.706,-1.2 l -0.048,0.19 a 5.4,5.4 0 0 1 0.5,2.917 8.044,8.044 0 0 0 0.187,2.812 c 0.249,0.678 0.5,2.205 2.621,1.75 a 3.132,3.132 0 0 0 2.821,-3.009 c 0.09,-1.167 0.3,-1 0.309,-2.04 l 0.165,-0.494 c 0.19,-1.584 0.03,-2.095 1.122,-1.857 l 0.266,0.023 a 6.053,6.053 0 0 0 2.476,-0.417 c 1.331,-0.617 2.12,-1.649 0.808,-1.378 z"
       id="path12"
       inkscape:connector-curvature="0"
       style="fill:#336790" />
    <path
       d="m 16.826,25.98 a 1.274,1.274 0 0 0 -0.433,-0.135 0.928,0.928 0 0 0 -0.638,0.09 0.232,0.232 0 0 0 -0.1,0.155 c -0.028,0.2 0.269,0.576 0.641,0.628 a 0.684,0.684 0 0 0 0.09,0.006 0.7,0.7 0 0 0 0.634,-0.407 l 0.01,-0.035 c 0.013,-0.064 -0.001,-0.191 -0.204,-0.302 z"
       id="path14"
       inkscape:connector-curvature="0"
       style="fill:#ffffff" />
    <path
       d="m 25.1,25.668 a 1.189,1.189 0 0 0 -0.43,-0.009 c -0.311,0.045 -0.612,0.184 -0.587,0.368 l 0.005,0.018 a 0.634,0.634 0 0 0 0.578,0.371 0.649,0.649 0 0 0 0.082,-0.005 0.758,0.758 0 0 0 0.426,-0.234 0.487,0.487 0 0 0 0.161,-0.325 C 25.32,25.766 25.236,25.7 25.1,25.668 Z"
       id="path16"
       inkscape:connector-curvature="0"
       style="fill:#ffffff" />
    <path
       d="m 30.37,33.778 c -0.144,-0.442 -0.774,-0.31 -0.981,-0.267 -2.109,0.435 -2.7,0.006 -2.823,-0.115 a 24.589,24.589 0 0 0 3.263,-7.336 c 0.583,-2.333 0.572,-4.184 -0.025,-4.947 a 6.82,6.82 0 0 0 -5.3,-2.62 10.256,10.256 0 0 0 -3.545,0.473 l -0.025,0.006 -0.04,0.014 v 0 L 20.858,19 a 8.253,8.253 0 0 0 -1.877,-0.244 5.326,5.326 0 0 0 -3.174,0.9 13.884,13.884 0 0 0 -3.035,-0.763 6.277,6.277 0 0 0 -4.487,0.808 c -1.391,0.987 -2.036,2.76 -1.911,5.268 0.061,1.183 1.792,10.606 4.509,11.513 a 1.66,1.66 0 0 0 1.84,-0.732 c 0.968,-1.164 1.872,-2.13 2.1,-2.37 a 3.314,3.314 0 0 0 1.577,0.42 1.42,1.42 0 0 0 0.013,0.167 c -0.1,0.113 -0.19,0.227 -0.285,0.348 -0.363,0.462 -0.449,0.571 -1.626,0.814 -0.477,0.1 -1.112,0.284 -1.122,0.757 -0.01,0.473 0.654,0.77 1.046,0.867 a 3.574,3.574 0 0 0 3.643,-0.882 24.271,24.271 0 0 0 0.351,5.6 2.607,2.607 0 0 0 2.504,1.929 4.022,4.022 0 0 0 0.836,-0.095 3.167,3.167 0 0 0 2.913,-2.961 c 0.173,-1 0.473,-3.431 0.6,-4.654 a 3.085,3.085 0 0 0 1.122,0.17 6.206,6.206 0 0 0 2.356,-0.444 c 0.749,-0.358 1.803,-1.08 1.619,-1.638 z m -5.588,1.3 c -0.052,0.683 -0.446,3.974 -0.652,5.167 a 2.646,2.646 0 0 1 -2.487,2.519 2.105,2.105 0 0 1 -2.717,-1.5 29.554,29.554 0 0 1 -0.29,-6.526 0.261,0.261 0 0 0 -0.028,-0.122 1.41,1.41 0 0 0 -0.051,-0.25 1.375,1.375 0 0 0 -0.675,-0.818 l -0.033,-0.017 a 1,1 0 0 0 -0.871,-0.052 7.083,7.083 0 0 1 0.359,-1.142 l 0.056,-0.15 c 0.064,-0.172 0.141,-0.343 0.224,-0.532 0.441,-0.98 1.044,-2.32 0.387,-5.356 a 1.847,1.847 0 0 0 -2.233,-1.5 5.445,5.445 0 0 0 -2.112,0.753 8.094,8.094 0 0 1 1.855,-4.94 4.581,4.581 0 0 1 3.455,-1.3 7.126,7.126 0 0 1 5.2,2.271 8.431,8.431 0 0 1 1.9,3.12 c -1.427,-0.171 -2.386,0.085 -2.858,0.759 -1,1.436 0.583,4.281 1.346,5.649 0.13,0.233 0.265,0.474 0.307,0.576 a 5.055,5.055 0 0 0 0.805,1.293 2.731,2.731 0 0 1 0.269,0.372 l -0.065,0.018 c -0.404,0.109 -1.159,0.321 -1.091,1.706 z m -13.725,0.881 c -0.91,-0.3 -1.92,-2.128 -2.844,-5.137 A 32.865,32.865 0 0 1 6.925,24.944 C 6.81,22.635 7.374,21.023 8.604,20.152 a 4.988,4.988 0 0 1 2.906,-0.782 12.57,12.57 0 0 1 3.792,0.689 v 0 c -0.058,0.051 -0.118,0.1 -0.175,0.161 -2.113,2.132 -2.038,5.794 -2.034,5.948 v 0.018 a 17.6,17.6 0 0 1 -0.062,3.425 3.766,3.766 0 0 0 0.992,3.153 3.283,3.283 0 0 0 0.337,0.3 c -0.346,0.368 -1.17,1.261 -2.06,2.333 v 0 c -0.428,0.512 -0.836,0.695 -1.243,0.56 z m 2.519,-6.279 a 18,18 0 0 0 0.07,-3.455 4.21,4.21 0 0 1 2.8,-0.873 1.212,1.212 0 0 1 1.019,1.06 c 0.618,2.859 0.081,4.054 -0.352,5.015 -0.083,0.185 -0.169,0.376 -0.24,0.565 l -0.056,0.15 a 8.794,8.794 0 0 0 -0.361,1.109 2.717,2.717 0 0 1 -2.041,-0.868 3.226,3.226 0 0 1 -0.839,-2.705 z m 3.368,4.508 a 0.269,0.269 0 0 0 0.026,-0.033 0.459,0.459 0 0 1 0.61,-0.148 l 0.045,0.023 a 0.841,0.841 0 0 1 0.365,1.1 3.051,3.051 0 0 1 -3.414,1.1 v 0 a 1.468,1.468 0 0 1 -0.639,-0.314 1.531,1.531 0 0 1 0.673,-0.242 c 1.314,-0.269 1.5,-0.446 1.947,-1.012 0.1,-0.128 0.224,-0.285 0.39,-0.47 z m 8.43,-2.713 C 25.322,31.348 25.206,31.141 25.046,30.853 L 25.039,30.841 C 24.386,29.67 22.857,26.928 23.664,25.774 a 1.829,1.829 0 0 1 1.585,-0.575 6.573,6.573 0 0 1 0.866,0.065 7.15,7.15 0 0 1 -0.109,1.149 9.552,9.552 0 0 0 -0.13,1.216 9.135,9.135 0 0 0 0.1,1.378 4.869,4.869 0 0 1 -0.309,3.027 3.671,3.671 0 0 1 -0.292,-0.561 z m 3.756,-4.986 a 27.62,27.62 0 0 1 -2.865,6.361 c -0.045,-0.064 -0.1,-0.135 -0.17,-0.22 l -0.064,-0.082 -0.018,-0.022 a 5.11,5.11 0 0 0 0.5,-3.595 8.686,8.686 0 0 1 -0.092,-1.287 9.194,9.194 0 0 1 0.125,-1.154 6.974,6.974 0 0 0 0.114,-1.407 0.459,0.459 0 0 0 0.015,-0.179 8.566,8.566 0 0 0 -4.906,-5.609 c 4.478,-1.094 6.8,1.136 7.6,2.154 0.6,0.763 0.511,2.553 -0.239,5.039 z m -3.1,7.4 a 1.611,1.611 0 0 0 0.2,-0.066 1.354,1.354 0 0 0 0.14,0.107 4.469,4.469 0 0 0 3.136,0.114 1.71,1.71 0 0 1 0.288,-0.038 3.572,3.572 0 0 1 -1.266,0.9 4.911,4.911 0 0 1 -3.123,0.231 c -0.054,-0.032 -0.066,-0.055 -0.067,-0.061 -0.056,-0.972 0.325,-1.079 0.7,-1.183 z"
       id="path18"
       inkscape:connector-curvature="0"
       style="fill:#ffffff" />
  </svg>
</svg>
