<svg viewBox="0 0 50 50" class="" role="presentation" focusable="false" xmlns="http://www.w3.org/2000/svg" xmlns:xlink="http://www.w3.org/1999/xlink" id="FxSymbol0-058" data-type="1"><g><title></title><path d="M.833 0C.333 0 0 .333 0 .833v10c0 .5.333.833.833.833h5c.5 0 .833-.333.833-.833V6.667h36.667v4.167c0 .5.333.833 1 .833h4.833c.5 0 .833-.333.833-.833v-10C50 .333 49.667 0 49.167 0H.833zm48.334 50c.5 0 .833-.333.833-.833v-9.833c0-.5-.333-.833-.833-.833h-4.833c-.5 0-.833.333-.833.833v4H6.667v-4.167c0-.5-.333-.833-1-.833H.833c-.5 0-.833.333-.833 1v9.833c0 .5.333.833.833.833h48.334z" class="msportalfx-svg-c19" fill="#0072c6"></path><path d="M12.324 25.711c-.84.84-1.958 1.303-3.147 1.303s-2.306-.463-3.147-1.303L0 19.681v12.258h18.354V19.681l-6.03 6.03z" class="msportalfx-svg-c15" fill="#59b4d9"></path><path d="M9.177 26.119c.95 0 1.842-.37 2.514-1.041l6.663-6.663v-.353H0v.354l6.663 6.663a3.533 3.533 0 002.514 1.04zm34.793-.408c-.84.84-1.958 1.303-3.147 1.303s-2.306-.463-3.147-1.303l-6.03-6.03v12.258H50V19.681l-6.03 6.03z" class="msportalfx-svg-c15" fill="#59b4d9"></path><path d="M40.823 26.119c.95 0 1.842-.37 2.514-1.041L50 18.415v-.353H31.646v.354l6.663 6.663a3.533 3.533 0 002.514 1.04z" class="msportalfx-svg-c15" fill="#59b4d9"></path><path d="M25.813 23.779h3.084v2.434h-3.084zm-4.771 0h3.262v2.434h-3.262z" class="msportalfx-svg-c13" fill="#b8d432"></path></g><defs>
</defs>
</svg>