<svg viewBox="0 0 18 18" class="" role="presentation" focusable="false" xmlns="http://www.w3.org/2000/svg" xmlns:xlink="http://www.w3.org/1999/xlink" id="FxSymbol0-010" data-type="1"><g><path d="M9 0L1.15 4.49v9L9 18l7.85-4.49v-9zm6.4 12.57L9 16.27l-6.4-3.66V5.38L9 1.68l6.4 3.71z" fill="#0078d4"></path><path fill="url(#7134245962897694)" d="M9 0L1.15 4.49l1.45.89L9 1.68l6.4 3.7 1.45-.89L9 0z"></path><path d="M11.32 11.59a4.32 4.32 0 0 0-5.2-3.19l-.35-1.46a5.82 5.82 0 0 1 7 4.31z" fill="#50e6ff"></path><path d="M12.74 10.47a.74.74 0 0 0-1-.27l-8.13 4.68 1.5.87 7.36-4.25a.76.76 0 0 0 .27-1.03zm.17-8.23L5.53 6.5a.76.76 0 0 0-.27 1 .75.75 0 0 0 .65.37.69.69 0 0 0 .37-.1l8.14-4.7z" fill="#50e6ff"></path><path d="M12.09 9a1.85 1.85 0 1 0 1.85 1.85A1.85 1.85 0 0 0 12.09 9zM5.91 5.27a1.85 1.85 0 1 0 1.85 1.85 1.85 1.85 0 0 0-1.85-1.85z" fill="url(#32821257235536905)"></path></g><defs>
<linearGradient id="7134245962897694" x1="9" y1="5.38" x2="9" gradientUnits="userSpaceOnUse"><stop offset=".2" stop-color="#005ba1"></stop><stop offset="1" stop-color="#0078d4"></stop></linearGradient>
<linearGradient id="32821257235536905" x1="9" y1="12.71" x2="9" y2="5.29" gradientUnits="userSpaceOnUse"><stop offset="0" stop-color="#198ab3"></stop><stop offset=".17" stop-color="#32bedd"></stop><stop offset=".5" stop-color="#50e6ff"></stop><stop offset=".5" stop-color="#4fe4fd"></stop><stop offset=".5" stop-color="#4bddf8"></stop><stop offset=".5" stop-color="#44d2ee"></stop><stop offset=".5" stop-color="#3ac1e0"></stop><stop offset=".5" stop-color="#2dabce"></stop><stop offset=".5" stop-color="#1d90b8"></stop><stop offset=".5" stop-color="#198ab3"></stop><stop offset=".66" stop-color="#32bedd"></stop><stop offset=".98" stop-color="#50e6ff"></stop></linearGradient>
</defs>
</svg>