<?xml version="1.0" encoding="utf-8"?>
<!-- Generator: Adobe Illustrator 21.1.0, SVG Export Plug-In . SVG Version: 6.00 Build 0)  -->
<svg version="1.1" id="Layer_1" xmlns="http://www.w3.org/2000/svg" xmlns:xlink="http://www.w3.org/1999/xlink" x="0px" y="0px"
	 width="24px" height="24px" viewBox="0 0 24 24" enable-background="new 0 0 24 24" xml:space="preserve">
<path fill="#0072C6" d="M12.661,15.093l-2-11L8.15,11H0.025C0.018,11.167,0,11.331,0,11.5s0.018,0.333,0.025,0.5H8.85l1.488-4.093
	l2,11L14.851,12h8.124C22.982,11.833,23,11.669,23,11.5s-0.018-0.333-0.025-0.5h-8.825L12.661,15.093z"/>
<path fill="#59B4D9" d="M1.12,10C1.852,4.92,6.221,1,11.5,1s9.648,3.92,10.38,9h1.011C22.154,4.359,17.342,0,11.5,0
	S0.846,4.359,0.109,10H1.12z"/>
<path fill="#59B4D9" d="M21.88,13c-0.732,5.08-5.101,9-10.38,9s-9.648-3.92-10.38-9H0.109C0.846,18.641,5.658,23,11.5,23
	s10.654-4.359,11.391-10H21.88z"/>
</svg>
