<svg viewBox="0 0 18 18" class="" role="presentation" focusable="false" xmlns="http://www.w3.org/2000/svg" xmlns:xlink="http://www.w3.org/1999/xlink" id="FxSymbol0-169" data-type="1"><g><title>Application group</title><circle cx="9" cy="9" r="8.5" fill="url(#a26c9420-22ea-437d-963a-d91a07052fe8)"></circle><path d="M7.776 10.632h2.448v2.448H7.776zM4.92 7.368h2.448V4.92H5.262a.341.341 0 0 0-.342.342zm.342 5.712h2.106v-2.448H4.92v2.106a.341.341 0 0 0 .342.342zm-.342-2.856h2.448V7.776H4.92zm5.712 2.856h2.106a.341.341 0 0 0 .342-.342v-2.106h-2.448zm-2.856-2.856h2.448V7.776H7.776zm2.856 0h2.448V7.776h-2.448zm0-5.3v2.444h2.448V5.262a.341.341 0 0 0-.342-.342zM7.776 7.368h2.448V4.92H7.776z" class="msportalfx-svg-c01" fill="#ffffff"></path></g><defs>
<linearGradient id="a26c9420-22ea-437d-963a-d91a07052fe8" x1="9" y1="17.5" x2="9" y2=".5" gradientUnits="userSpaceOnUse"><stop offset="0" stop-color="#005ba1"></stop><stop offset=".168" stop-color="#0063ae"></stop><stop offset=".577" stop-color="#0072ca"></stop><stop offset=".815" stop-color="#0078d4"></stop></linearGradient>
</defs>
</svg>