<?xml version="1.0" encoding="utf-8"?><svg version="1.1" xmlns="http://www.w3.org/2000/svg" xmlns:xlink="http://www.w3.org/1999/xlink" xmlns:xml="http://www.w3.org/XML/1998/namespace" width="70" height="70" viewBox="0, 0, 50, 50" id="FxSymbol0-04a" class="" role="presentation" focusable="false" data-type="1"><g><title /><title>Azure_AppConfiguration</title><path d="M40.945 14.52 c0 -0.357 0.089 -0.8 0.089 -1.159 A11.477 11.477 0 0 0 29.44 1.945 a11.255 11.255 0 0 0 -9.364 4.638 a8.3 8.3 0 0 0 -4.638 -1.338 A8.736 8.736 0 0 0 6.7 13.9 v0.713 a8.648 8.648 0 0 0 -5 7.844 A9.659 9.659 0 0 0 11.693 32 h24.614 a9.659 9.659 0 0 0 9.993 -9.543 a8.46 8.46 0 0 0 -5.355 -7.937 Z" class="msportalfx-svg-c15" style="fill:#39ABFF;" /><path d="m22.935 35.09 l0.94 2.232 l-2.114 3.7 l2.32 2.32 L27.9 41.55 l2.232 0.94 l1.168 3.494 l0.118 0.411 h3.292 l1.38 -3.905 l2.232 -0.94 l3.289 1.7 l0.411 0.206 l2.32 -2.32 L42.58 37.5 l0.94 -2.232 l3.494 -1.174 l0.411 -0.118 v-3.291 l-3.9 -1.38 l-0.94 -2.231 l1.7 -3.289 l0.206 -0.411 l-2.232 -2.32 l-3.7 1.791 l-2.232 -0.94 l-1.174 -3.494 l-0.208 -0.411 H31.8 l-1.38 3.905 l-2.231 0.94 l-3.289 -1.7 l-0.411 -0.206 l-2.2 2.643 l1.586 3.377 l-0.94 2.232 l-3.494 1.174 l-0.411 0.206 v3.139 Z m5.756 -2.848 a4.552 4.552 0 1 1 4.551 4.551 a4.5 4.5 0 0 1 -4.551 -4.551 Z" class="msportalfx-svg-c11" style="fill:#93D1FF;" /><path d="m8.769 43.023 l0.868 0.929 l-0.371 2.207 l1.564 0.722 l1.556 -1.575 l1.27 0.058 l1.212 1.508 l0.133 0.182 l1.62 -0.6 l-0.029 -2.174 l0.929 -0.868 l1.93 0.242 l0.239 0.027 l0.722 -1.563 l-1.528 -1.475 l0.058 -1.27 l1.509 -1.212 l0.181 -0.133 l-0.6 -1.62 l-2.174 0.029 l-0.868 -0.929 l0.243 -1.929 l0.026 -0.24 l-1.52 -0.738 l-1.5 1.553 l-1.27 -0.058 l-1.212 -1.508 l-0.176 -0.166 l-1.548 0.57 l0.029 2.175 l-0.929 0.867 l-1.925 -0.234 l-0.239 -0.027 l-0.606 1.7 l1.394 1.376 l-0.057 1.267 l-1.51 1.212 l-0.165 0.176 l0.57 1.548 Z m2.319 -2.447 a2.39 2.39 0 1 1 3.068 1.417 a2.363 2.363 0 0 1 -3.068 -1.417 Z" class="msportalfx-svg-c14" style="fill:#008CF4;" /><path d="M7.947 26.827 c0 -3.656 1.873 -6.51 5.351 -8.294 v-0.713 a9.359 9.359 0 0 1 14.18 -7.848 a12.331 12.331 0 0 1 9.989 -5.084 a12.081 12.081 0 0 0 -8.027 -3.032 a11.573 11.573 0 0 0 -9.364 4.727 a8.3 8.3 0 0 0 -4.638 -1.338 A8.736 8.736 0 0 0 6.7 13.9 v0.713 a8.648 8.648 0 0 0 -5 7.844 a9.457 9.457 0 0 0 7.5 9.275 a10.013 10.013 0 0 1 -1.253 -4.905 Z" opacity="0.2" class="msportalfx-svg-c01" style="fill:white;" /></g><defs /></svg>