<?xml version="1.0" encoding="utf-8"?><svg version="1.1" xmlns="http://www.w3.org/2000/svg" xmlns:xlink="http://www.w3.org/1999/xlink" xmlns:xml="http://www.w3.org/XML/1998/namespace" width="70" height="70" viewBox="0, 0, 18, 18" id="b731f684-7cb9-4db7-b2c1-15068abf133d"><defs><radialGradient cx="7.18" cy="9.5" r="7.38" gradientUnits="userSpaceOnUse" id="f65398a3-df69-4689-8d5a-25969160d437"><stop offset="0%" stop-color="#2FA6FF" /><stop offset="41%" stop-color="#29A4FF" /><stop offset="66%" stop-color="#1D9FFF" /><stop offset="88%" stop-color="#0594FF" /><stop offset="100%" stop-color="#008AF0" /></radialGradient></defs><g><path d="M10 10.24 a1 1 0 0 1 -0.31 0.79 a1.49 1.49 0 0 1 -0.89 0.37 V12 H8.36 v-0.62 a2.36 2.36 0 0 1 -1.1 -0.28 v-0.81 a1.8 1.8 0 0 0 0.5 0.25 a2.49 2.49 0 0 0 0.6 0.14 V9.64 a2.42 2.42 0 0 1 -0.91 -0.53 a1.15 1.15 0 0 1 0.06 -1.55 a1.41 1.41 0 0 1 0.85 -0.38 V6.63 h0.43 v0.54 a2.21 2.21 0 0 1 0.92 0.2 v0.8 a2.28 2.28 0 0 0 -0.92 -0.31 V9 a2.34 2.34 0 0 1 0.92 0.54 A1 1 0 0 1 10 10.24 Z M8.36 8.81 V7.88 A0.4 0.4 0 0 0 8 8.3 c0 0.21 0.13 0.38 0.4 0.51 Z m0.85 1.47 c0 -0.19 -0.14 -0.34 -0.42 -0.47 v0.9 c0.28 -0.05 0.42 -0.19 0.42 -0.43 Z" style="fill:#0073C8;" /><path d="M16.54 9.49 h-3.6 a4.43 4.43 0 0 1 -1.48 3.3 l2.39 2.69 a8 8 0 0 0 2.69 -6" style="fill:#87CCFF;" /><path d="M8.52 13.93 a4.43 4.43 0 0 1 0 -8.86 V1.49 a8 8 0 0 0 -8 8 h0 a8 8 0 0 0 8 8 h0 a8 8 0 0 0 5.34 -2 l-2.4 -2.69 A4.38 4.38 0 0 1 8.52 13.93 Z" style="fill:url(#f65398a3-df69-4689-8d5a-25969160d437);" /><path d="M8.15 0.48 h0 V4.64 h0 a5.09 5.09 0 0 1 5.17 5.18 H17.5 A9.34 9.34 0 0 0 8.15 0.48 Z" style="fill:#99D3FF;" /><path d="M13.34 9.82 A5.13 5.13 0 0 0 8.28 4.64 H8.15 l0.33 0.62 a4.5 4.5 0 0 1 4.23 4.25 Z" style="fill:#33A8FF;" /></g></svg>