<?xml version="1.0" encoding="UTF-8"?>
<svg xmlns="http://www.w3.org/2000/svg" xmlns:xlink="http://www.w3.org/1999/xlink" width="70pt" height="70pt" viewBox="0 0 70 70" version="1.1">
<defs>
<clipPath id="clip1">
  <path d="M 0 0 L 70 0 L 70 69.996094 L 0 69.996094 Z M 0 0 "/>
</clipPath>
<filter id="alpha" filterUnits="objectBoundingBox" x="0%" y="0%" width="100%" height="100%">
  <feColorMatrix type="matrix" in="SourceGraphic" values="0 0 0 0 1 0 0 0 0 1 0 0 0 0 1 0 0 0 1 0"/>
</filter>
<mask id="mask0">
  <g filter="url(#alpha)">
<rect x="0" y="0" width="70" height="70" style="fill:rgb(0%,0%,0%);fill-opacity:0.4;stroke:none;"/>
  </g>
</mask>
<clipPath id="clip2">
  <rect x="0" y="0" width="70" height="70"/>
</clipPath>
<g id="surface5" clip-path="url(#clip2)">
<path style=" stroke:none;fill-rule:nonzero;fill:rgb(49.803922%,72.941176%,0%);fill-opacity:1;" d="M 23.039063 27.261719 L 15.972656 21.539063 C 12.949219 25.863281 11.578125 30.902344 11.785156 35.863281 L 20.820313 34.914063 C 20.820313 32.269531 21.546875 29.613281 23.039063 27.261719 "/>
</g>
<mask id="mask1">
  <g filter="url(#alpha)">
<rect x="0" y="0" width="70" height="70" style="fill:rgb(0%,0%,0%);fill-opacity:0.8;stroke:none;"/>
  </g>
</mask>
<clipPath id="clip3">
  <rect x="0" y="0" width="70" height="70"/>
</clipPath>
<g id="surface8" clip-path="url(#clip3)">
<path style=" stroke:none;fill-rule:nonzero;fill:rgb(49.803922%,72.941176%,0%);fill-opacity:1;" d="M 42.804688 22.789063 L 48.527344 15.722656 C 44.199219 12.703125 39.15625 11.339844 34.195313 11.546875 L 35.144531 20.582031 C 37.792969 20.578125 40.453125 21.304688 42.804688 22.789063 "/>
</g>
<mask id="mask2">
  <g filter="url(#alpha)">
<rect x="0" y="0" width="70" height="70" style="fill:rgb(0%,0%,0%);fill-opacity:0.6;stroke:none;"/>
  </g>
</mask>
<clipPath id="clip4">
  <rect x="0" y="0" width="70" height="70"/>
</clipPath>
<g id="surface11" clip-path="url(#clip4)">
<path style=" stroke:none;fill-rule:nonzero;fill:rgb(49.803922%,72.941176%,0%);fill-opacity:1;" d="M 31.996094 20.9375 L 31.042969 11.894531 C 26.15625 12.765625 21.527344 15.183594 17.953125 19.066406 L 25.015625 24.785156 C 26.984375 22.8125 29.417969 21.519531 31.996094 20.9375 "/>
</g>
<mask id="mask3">
  <g filter="url(#alpha)">
<rect x="0" y="0" width="70" height="70" style="fill:rgb(0%,0%,0%);fill-opacity:0.25098;stroke:none;"/>
  </g>
</mask>
<clipPath id="clip5">
  <rect x="0" y="0" width="70" height="70"/>
</clipPath>
<g id="surface14" clip-path="url(#clip5)">
<path style=" stroke:none;fill-rule:nonzero;fill:rgb(49.803922%,72.941176%,0%);fill-opacity:1;" d="M 21.167969 38.066406 L 12.125 39.019531 C 12.992188 43.90625 15.410156 48.539063 19.292969 52.121094 L 25.011719 45.058594 C 23.035156 43.085938 21.746094 40.648438 21.167969 38.066406 "/>
</g>
<clipPath id="clip6">
  <path d="M 20 4 L 70 4 L 70 69.996094 L 20 69.996094 Z M 20 4 "/>
</clipPath>
<clipPath id="clip7">
  <path d="M 0 0 L 70 0 L 70 69.996094 L 0 69.996094 Z M 0 0 "/>
</clipPath>
<mask id="mask4">
  <g filter="url(#alpha)">
<rect x="0" y="0" width="70" height="70" style="fill:rgb(0%,0%,0%);fill-opacity:0.2;stroke:none;"/>
  </g>
</mask>
<clipPath id="clip8">
  <rect x="0" y="0" width="70" height="70"/>
</clipPath>
<g id="surface17" clip-path="url(#clip8)">
<path style=" stroke:none;fill-rule:nonzero;fill:rgb(100%,100%,100%);fill-opacity:1;" d="M 16.730469 57.574219 C 10.945313 52.890625 6.960938 46.03125 6.117188 38.046875 C 5.28125 30.054688 7.746094 22.515625 12.429688 16.730469 C 17.109375 10.945313 23.972656 6.960938 31.960938 6.121094 C 38.417969 5.441406 44.582031 6.921875 49.730469 9.984375 L 52.480469 4.695313 C 46.296875 1.105469 38.953125 -0.605469 31.332031 0.199219 C 21.730469 1.207031 13.421875 6.03125 7.796875 12.980469 L 7.785156 12.992188 C 2.160156 19.945313 -0.816406 29.070313 0.195313 38.667969 C 1.207031 48.269531 6.023438 56.582031 12.984375 62.207031 C 15.199219 64.003906 17.652344 65.492188 20.253906 66.703125 L 23 61.421875 C 20.757813 60.398438 18.640625 59.121094 16.730469 57.574219 "/>
</g>
</defs>
<g id="surface1">
<path style=" stroke:none;fill-rule:nonzero;fill:rgb(100%,100%,100%);fill-opacity:1;" d="M 31.960938 6.117188 C 23.972656 6.960938 17.109375 10.945313 12.429688 16.730469 C 7.746094 22.515625 5.28125 30.054688 6.117188 38.046875 C 6.960938 46.03125 10.945313 52.890625 16.730469 57.574219 C 22.519531 62.257813 30.058594 64.726563 38.039063 63.886719 C 46.027344 63.046875 52.890625 59.054688 57.578125 53.273438 C 62.253906 47.488281 64.726563 39.949219 63.886719 31.960938 C 63.035156 23.90625 58.945313 17.023438 53.070313 12.269531 C 48.128906 8.265625 41.828125 5.957031 35.074219 5.957031 C 34.046875 5.957031 33.007813 6.007813 31.960938 6.117188 "/>
<g clip-path="url(#clip1)" clip-rule="nonzero">
<use xlink:href="#surface5" mask="url(#mask0)"/>
<use xlink:href="#surface8" mask="url(#mask1)"/>
<use xlink:href="#surface11" mask="url(#mask2)"/>
<use xlink:href="#surface14" mask="url(#mask3)"/>
</g>
<g clip-path="url(#clip6)" clip-rule="nonzero">
<path style=" stroke:none;fill-rule:nonzero;fill:rgb(62.745098%,63.137255%,63.529412%);fill-opacity:1;" d="M 69.800781 31.335938 C 68.785156 21.625 63.824219 13.300781 56.820313 7.636719 C 55.460938 6.535156 53.996094 5.578125 52.480469 4.695313 L 49.730469 9.984375 C 50.894531 10.675781 52.023438 11.417969 53.070313 12.269531 C 58.945313 17.023438 63.035156 23.90625 63.882813 31.957031 C 64.726563 39.945313 62.253906 47.488281 57.578125 53.273438 C 52.890625 59.058594 46.027344 63.046875 38.039063 63.886719 C 32.691406 64.449219 27.554688 63.5 23 61.421875 L 20.253906 66.707031 C 25.820313 69.296875 32.125 70.496094 38.664063 69.804688 C 48.273438 68.796875 56.578125 63.976563 62.203125 57.019531 C 67.835938 50.070313 70.820313 40.9375 69.800781 31.335938 "/>
</g>
<path style=" stroke:none;fill-rule:nonzero;fill:rgb(62.745098%,63.137255%,63.529412%);fill-opacity:1;" d="M 16.730469 57.574219 C 10.945313 52.890625 6.960938 46.03125 6.117188 38.046875 C 5.28125 30.054688 7.746094 22.515625 12.429688 16.730469 C 17.109375 10.945313 23.972656 6.960938 31.960938 6.121094 C 38.417969 5.441406 44.582031 6.921875 49.730469 9.984375 L 52.480469 4.695313 C 46.296875 1.105469 38.953125 -0.605469 31.332031 0.199219 C 21.730469 1.207031 13.421875 6.03125 7.796875 12.980469 L 7.785156 12.992188 C 2.160156 19.945313 -0.816406 29.070313 0.195313 38.667969 C 1.207031 48.269531 6.023438 56.582031 12.984375 62.207031 C 15.199219 64.003906 17.652344 65.492188 20.253906 66.703125 L 23 61.421875 C 20.757813 60.398438 18.640625 59.121094 16.730469 57.574219 "/>
<g clip-path="url(#clip7)" clip-rule="nonzero">
<use xlink:href="#surface17" mask="url(#mask4)"/>
</g>
<path style=" stroke:none;fill-rule:nonzero;fill:rgb(49.803922%,72.941176%,0%);fill-opacity:1;" d="M 51.003906 17.707031 L 45.285156 24.769531 C 46.695313 26.171875 47.746094 27.816406 48.453125 29.582031 L 57.9375 29.582031 C 56.898438 25.140625 54.566406 20.980469 51.003906 17.707031 Z M 51.003906 17.707031 "/>
<path style=" stroke:none;fill-rule:nonzero;fill:rgb(86.666667%,34.901961%,0%);fill-opacity:1;" d="M 32.316406 37.855469 C 30.710938 36.265625 30.699219 33.675781 32.289063 32.074219 C 33.09375 31.265625 34.148438 30.863281 35.199219 30.863281 C 36.242188 30.863281 37.28125 31.207031 38.078125 32 C 38.089844 32.007813 38.09375 31.988281 38.105469 32 L 58.105469 32 L 58.976563 31.992188 L 58.980469 32 C 60.625 32 61.957031 33.320313 61.96875 34.957031 C 61.972656 36.605469 60.648438 37.945313 59 37.949219 L 37.878906 37.949219 C 37.109375 38.625 36.152344 39.039063 35.1875 39.039063 C 34.152344 39.039063 33.113281 38.648438 32.316406 37.855469 "/>
<path style=" stroke:none;fill-rule:nonzero;fill:rgb(100%,54.901961%,0%);fill-opacity:1;" d="M 58.980469 32.023438 L 58.976563 32.019531 L 58.105469 32.023438 L 38.105469 32.023438 C 38.09375 32.015625 38.089844 32.035156 38.078125 32.023438 C 37.28125 31.234375 36.242188 30.886719 35.199219 30.886719 C 34.148438 30.886719 33.09375 31.289063 32.289063 32.097656 C 31.5 32.894531 31.105469 33.9375 31.105469 34.976563 L 61.96875 34.976563 C 61.953125 33.339844 60.621094 32.023438 58.980469 32.023438 Z M 58.980469 32.023438 "/>
</g>
</svg>
