<?xml version="1.0" encoding="UTF-8"?>
<svg xmlns="http://www.w3.org/2000/svg" xmlns:xlink="http://www.w3.org/1999/xlink" width="70pt" height="70pt" viewBox="0 0 70 70" version="1.1">
<g id="surface1">
<path style=" stroke:none;fill-rule:evenodd;fill:rgb(65,174,255);fill-opacity:1;" d="M 0 36.457031 L 14.582031 36.457031 L 14.582031 51.042969 L 0 51.042969 Z M 0 17.5 L 14.582031 17.5 L 14.582031 32.082031 L 0 32.082031 Z M 0 55.417969 L 14.582031 55.417969 L 14.582031 70 L 0 70 Z M 18.957031 55.417969 L 33.542969 55.417969 L 33.542969 70 L 18.957031 70 Z M 37.917969 55.417969 L 52.5 55.417969 L 52.5 70 L 37.917969 70 Z M 37.917969 55.417969 "/>
<path style=" stroke:none;fill-rule:evenodd;fill:rgb(0,102,178);fill-opacity:1;" d="M 44.480469 0 C 30.195313 0 18.957031 11.238281 18.957031 25.519531 L 18.957031 51.042969 L 44.480469 51.042969 C 58.761719 51.042969 70 39.804688 70 25.519531 C 70 11.238281 58.761719 0 44.480469 0 Z M 44.480469 0 "/>
<path style=" stroke:none;fill-rule:evenodd;fill:rgb(255,255,255);fill-opacity:1;" d="M 29.167969 21.875 L 33.542969 21.875 L 33.542969 37.917969 L 29.167969 37.917969 Z M 39.375 26.25 L 43.75 26.25 L 43.75 37.917969 L 39.375 37.917969 Z M 49.582031 16.042969 L 53.957031 16.042969 L 53.957031 37.917969 L 49.582031 37.917969 Z M 49.582031 16.042969 "/>
</g>
</svg>
