<?xml version="1.0" encoding="UTF-8"?>
<svg xmlns="http://www.w3.org/2000/svg" xmlns:xlink="http://www.w3.org/1999/xlink" width="70pt" height="58pt" viewBox="0 0 70 58" version="1.1">
<g id="surface1">
<path style=" stroke:none;fill-rule:evenodd;fill:rgb(0%,44.705882%,77.647059%);fill-opacity:1;" d="M 39.652344 18.960938 C 48.03125 18.960938 54.863281 25.226563 55.851563 33.183594 C 57.804688 34.707031 59.351563 36.527344 60.449219 38.480469 C 65.902344 37.085938 69.664063 32.347656 69.664063 26.621094 C 69.664063 22.027344 67.171875 18.402344 62.832031 16.304688 L 62.832031 14.777344 C 62.832031 6.691406 56.128906 0 48.03125 0 C 43.136719 0 38.667969 2.359375 35.894531 6.132813 C 34.070313 5.019531 32.113281 4.460938 29.878906 4.460938 C 24.015625 4.460938 19.269531 8.921875 18.710938 14.5 C 19.546875 14.351563 20.535156 14.351563 21.503906 14.351563 C 25.839844 14.351563 30.71875 15.058594 34.757813 19.371094 Z M 34.347656 25.375 L 34.347656 25.503906 Z M 34.347656 25.375 C 30.4375 27.882813 29.042969 31.507813 28.894531 35.414063 L 33.789063 35.414063 L 26.398438 44.1875 L 18.859375 35.414063 L 23.867188 35.414063 C 24.015625 30.117188 26.101563 25.097656 29.730469 21.878906 C 27.367188 20.355469 24.574219 19.519531 21.632813 19.519531 C 13.402344 19.519531 6.703125 26.0625 6.703125 34.148438 L 6.703125 35.691406 C 2.511719 37.773438 0 41.398438 0 46.007813 C 0 52.980469 5.585938 58.277344 12.847656 58.277344 L 44.53125 58.277344 C 51.792969 58.277344 57.378906 52.851563 57.378906 46.007813 C 57.378906 41.546875 55.144531 38.054688 50.953125 35.972656 L 50.953125 35.132813 C 50.953125 29 45.929688 23.980469 39.785156 23.980469 C 37.828125 23.980469 36.023438 24.539063 34.347656 25.375 Z M 34.347656 25.375 "/>
</g>
</svg>
