<?xml version="1.0" encoding="utf-8"?><svg version="1.1" xmlns="http://www.w3.org/2000/svg" xmlns:xlink="http://www.w3.org/1999/xlink" xmlns:xml="http://www.w3.org/XML/1998/namespace" width="70" height="70" viewBox="0, 0, 18, 18"><defs><linearGradient x1="-6428.21" y1="9646.124" x2="-6428.21" y2="9617.899" gradientUnits="userSpaceOnUse" gradientTransform="matrix(0.5, 0, 0, -0.5, 3224.856, 4823.856)" id="fb5d9d20-fc2c-4e2c-bffd-dc236176d8b2"><stop offset="0%" stop-color="#29A4FF" /><stop offset="17.8%" stop-color="#23A1FF" /><stop offset="40.6%" stop-color="#119AFF" /><stop offset="66.2%" stop-color="#008BF2" /><stop offset="93.6%" stop-color="#0072C6" /><stop offset="100%" stop-color="#006CBC" /></linearGradient></defs><title>MsPortalFx.base.images-52</title><g id="a05a9809-540f-4ec8-9a73-07896b5e7f5c"><g><path d="M8.438 10.379 h4.234 v4.234 H8.438 Z M3.5 4.734 H7.732 V0.5 H4.086 a0.588 0.588 0 0 0 -0.588 0.588 Z m0.588 9.879 H7.732 V10.379 H3.5 v3.646 A0.588 0.588 0 0 0 4.086 14.613 Z M3.5 9.674 H7.732 V5.44 H3.5 Z m9.88 4.939 h3.646 a0.588 0.588 0 0 0 0.588 -0.588 V10.379 H13.378 Z M8.438 9.674 h4.234 V5.44 H8.438 Z m4.94 0 h4.234 V5.44 H13.378 Z m0 -9.174 V4.734 h4.234 V1.088 A0.588 0.588 0 0 0 17.024 0.5 Z M8.438 4.734 h4.234 V0.5 H8.438 Z" style="fill:url(#fb5d9d20-fc2c-4e2c-bffd-dc236176d8b2);" /><rect x="-0.212" y="14.751" width="5.457" height="1.243" rx="0.581" transform="translate(-10.133, 6.282) rotate(-45, 0, 0)" style="fill:#007CD8;" /><circle cx="5.959" cy="11.709" r="3.744" style="fill:#77C5FF;" /><circle cx="5.952" cy="11.642" r="2.94" style="fill:white;" /></g></g></svg>