<?xml version="1.0" encoding="UTF-8"?>
<svg xmlns="http://www.w3.org/2000/svg" xmlns:xlink="http://www.w3.org/1999/xlink" width="60pt" height="70pt" viewBox="0 0 60 70" version="1.1">
<defs>
<clipPath id="clip1">
  <path d="M 20 8 L 59.433594 8 L 59.433594 50 L 20 50 Z M 20 8 "/>
</clipPath>
<clipPath id="clip2">
  <path d="M 30 8 L 59.433594 8 L 59.433594 54 L 30 54 Z M 30 8 "/>
</clipPath>
<clipPath id="clip3">
  <path d="M 5 0 L 59.433594 0 L 59.433594 70 L 5 70 Z M 5 0 "/>
</clipPath>
<clipPath id="clip4">
  <path d="M 0 0 L 59.433594 0 L 59.433594 70 L 0 70 Z M 0 0 "/>
</clipPath>
<filter id="alpha" filterUnits="objectBoundingBox" x="0%" y="0%" width="100%" height="100%">
  <feColorMatrix type="matrix" in="SourceGraphic" values="0 0 0 0 1 0 0 0 0 1 0 0 0 0 1 0 0 0 1 0"/>
</filter>
<mask id="mask0">
  <g filter="url(#alpha)">
<rect x="0" y="0" width="60" height="70" style="fill:rgb(0%,0%,0%);fill-opacity:0.2;stroke:none;"/>
  </g>
</mask>
<clipPath id="clip5">
  <rect x="0" y="0" width="60" height="70"/>
</clipPath>
<g id="surface5" clip-path="url(#clip5)">
<path style=" stroke:none;fill-rule:nonzero;fill:rgb(11.764706%,11.764706%,11.764706%);fill-opacity:1;" d="M 39.765625 60.761719 C 22.464844 60.058594 8.929688 45.359375 9.628906 28 C 10.046875 17.21875 15.90625 7.839844 24.417969 2.519531 C 13.117188 7.421875 5.164063 18.621094 5.164063 31.78125 C 5.164063 49.28125 19.394531 63.558594 36.835938 63.558594 C 37.535156 63.558594 38.511719 63.558594 39.210938 63.558594 L 39.070313 70 L 47.722656 60.058594 C 45.210938 60.621094 42.558594 60.761719 39.765625 60.761719 Z M 39.765625 60.761719 "/>
</g>
</defs>
<g id="surface1">
<g clip-path="url(#clip1)" clip-rule="nonzero">
<path style=" stroke:none;fill-rule:nonzero;fill:rgb(100%,100%,100%);fill-opacity:1;" d="M 38.929688 8.679688 C 33.347656 9.238281 28.464844 12.039063 25.117188 16.238281 C 21.765625 20.300781 20.09375 25.621094 20.652344 31.359375 C 21.210938 36.960938 24 41.859375 28.1875 45.21875 C 32.234375 48.578125 37.535156 50.261719 43.253906 49.699219 C 48.835938 49.140625 53.722656 46.339844 57.070313 42.140625 C 60.417969 38.078125 62.09375 32.761719 61.535156 27.019531 C 60.976563 21.28125 58.046875 16.378906 53.859375 13.019531 C 50.371094 10.21875 45.90625 8.539063 41.164063 8.539063 C 40.324219 8.679688 39.628906 8.679688 38.929688 8.679688 "/>
</g>
<g clip-path="url(#clip2)" clip-rule="nonzero">
<path style=" stroke:none;fill-rule:nonzero;fill:rgb(22.352941%,60%,77.647059%);fill-opacity:1;" d="M 64.464844 26.738281 C 63.765625 20.019531 60.417969 14.28125 55.535156 10.359375 C 54.558594 9.660156 53.582031 8.960938 52.605469 8.398438 L 50.652344 12.039063 C 51.488281 12.460938 52.1875 13.019531 52.882813 13.578125 C 56.929688 16.800781 59.722656 21.558594 60.277344 27.160156 C 60.835938 32.621094 59.164063 37.800781 55.953125 41.859375 C 52.746094 45.78125 48 48.578125 42.558594 49.140625 C 38.929688 49.558594 35.300781 48.859375 32.234375 47.460938 L 30.277344 51.101563 C 34.046875 52.921875 38.371094 53.761719 42.976563 53.199219 C 49.535156 52.5 55.253906 49.140625 59.164063 44.378906 C 63.070313 39.621094 65.164063 33.320313 64.464844 26.738281 "/>
</g>
<path style=" stroke:none;fill-rule:nonzero;fill:rgb(62.745098%,63.137255%,63.529412%);fill-opacity:1;" d="M 28.046875 44.800781 C 24.140625 41.578125 21.347656 36.820313 20.789063 31.359375 C 20.234375 25.898438 21.90625 20.71875 25.117188 16.660156 C 28.324219 12.738281 33.070313 9.941406 38.511719 9.378906 C 42.976563 8.960938 47.164063 9.941406 50.652344 12.039063 L 52.605469 8.398438 C 48.417969 5.878906 43.253906 4.761719 38.09375 5.320313 C 31.535156 6.019531 25.8125 9.378906 21.90625 14.140625 C 18 18.898438 16.046875 25.199219 16.746094 31.78125 C 17.441406 38.359375 20.789063 44.101563 25.535156 48.019531 C 27.070313 49.28125 28.746094 50.261719 30.558594 51.101563 L 32.511719 47.460938 C 30.835938 46.761719 29.300781 45.78125 28.046875 44.800781 "/>
<path style=" stroke:none;fill-rule:nonzero;fill:rgb(34.901961%,70.588235%,85.098039%);fill-opacity:1;" d="M 28.046875 44.800781 C 24.140625 41.578125 21.347656 36.820313 20.789063 31.359375 C 20.234375 25.898438 21.90625 20.71875 25.117188 16.660156 C 28.324219 12.738281 33.070313 9.941406 38.511719 9.378906 C 42.976563 8.960938 47.164063 9.941406 50.652344 12.039063 L 52.605469 8.398438 C 48.417969 5.878906 43.253906 4.761719 38.09375 5.320313 C 31.535156 6.019531 25.8125 9.378906 21.90625 14.140625 C 18 18.898438 16.046875 25.199219 16.746094 31.78125 C 17.441406 38.359375 20.789063 44.101563 25.535156 48.019531 C 27.070313 49.28125 28.746094 50.261719 30.558594 51.101563 L 32.511719 47.460938 C 30.835938 46.761719 29.300781 45.78125 28.046875 44.800781 "/>
<path style=" stroke:none;fill-rule:nonzero;fill:rgb(47.843137%,47.843137%,47.843137%);fill-opacity:1;" d="M 50.652344 35.558594 L 41.441406 32.199219 C 40.464844 31.78125 39.90625 30.800781 40.324219 29.679688 C 40.746094 28.699219 41.722656 28.140625 42.835938 28.558594 L 52.046875 31.921875 C 53.023438 32.339844 53.582031 33.320313 53.164063 34.441406 C 52.746094 35.421875 51.628906 35.839844 50.652344 35.558594 Z M 50.652344 35.558594 "/>
<path style=" stroke:none;fill-rule:nonzero;fill:rgb(47.843137%,47.843137%,47.843137%);fill-opacity:1;" d="M 40.324219 31.921875 C 39.210938 31.921875 38.371094 31.078125 38.371094 29.960938 L 38.371094 13.578125 C 38.371094 12.460938 39.210938 11.621094 40.324219 11.621094 C 41.441406 11.621094 42.277344 12.460938 42.277344 13.578125 L 42.277344 29.960938 C 42.277344 31.078125 41.441406 31.921875 40.324219 31.921875 Z M 40.324219 31.921875 "/>
<path style=" stroke:none;fill-rule:nonzero;fill:rgb(11.764706%,11.764706%,11.764706%);fill-opacity:1;" d="M 43.117188 29.960938 C 43.117188 31.507813 41.867188 32.761719 40.324219 32.761719 C 38.785156 32.761719 37.535156 31.507813 37.535156 29.960938 C 37.535156 28.414063 38.785156 27.160156 40.324219 27.160156 C 41.867188 27.160156 43.117188 28.414063 43.117188 29.960938 Z M 43.117188 29.960938 "/>
<g clip-path="url(#clip3)" clip-rule="nonzero">
<path style=" stroke:none;fill-rule:nonzero;fill:rgb(72.156863%,83.137255%,19.607843%);fill-opacity:1;" d="M 38.09375 50.820313 L 47.859375 59.921875 L 39.070313 70 L 39.210938 63.421875 C 38.511719 63.421875 37.535156 63.421875 36.835938 63.421875 C 19.394531 63.421875 5.164063 49.140625 5.164063 31.640625 C 5.164063 14.140625 19.394531 0 36.835938 0 C 45.628906 0 53.722656 3.640625 59.441406 9.519531 C 54.417969 4.621094 47.722656 1.679688 40.1875 1.679688 C 24.976563 1.539063 12.835938 13.859375 12.699219 29.121094 C 12.699219 43.679688 24.558594 55.578125 38.789063 56.558594 Z M 38.09375 50.820313 "/>
</g>
<g clip-path="url(#clip4)" clip-rule="nonzero">
<use xlink:href="#surface5" mask="url(#mask0)"/>
</g>
</g>
</svg>
