<?xml version="1.0" encoding="UTF-8"?>
<svg xmlns="http://www.w3.org/2000/svg" xmlns:xlink="http://www.w3.org/1999/xlink" width="70pt" height="70pt" viewBox="0 0 70 70" version="1.1">
<defs>
<linearGradient id="linear0" gradientUnits="userSpaceOnUse" x1="9" y1="17.86" x2="9" y2="4.06" gradientTransform="matrix(3.888889,0,0,3.888889,0,0)">
<stop offset="0" style="stop-color:rgb(0,108,188);stop-opacity:1;"/>
<stop offset="0.16" style="stop-color:rgb(0,120,210);stop-opacity:1;"/>
<stop offset="0.53" style="stop-color:rgb(1,147,255);stop-opacity:1;"/>
<stop offset="0.82" style="stop-color:rgb(31,159,255);stop-opacity:1;"/>
<stop offset="1" style="stop-color:rgb(41,164,255);stop-opacity:1;"/>
</linearGradient>
</defs>
<g id="surface1">
<path style=" stroke:none;fill-rule:nonzero;fill:url(#linear0);" d="M 64.75 66.421875 L 50.789063 30.179688 C 50.628906 29.757813 50.226563 29.480469 49.777344 29.476563 L 39.820313 29.476563 L 39.820313 20.84375 C 39.988281 18.941406 39.066406 17.101563 37.441406 16.097656 C 35.8125 15.09375 33.757813 15.09375 32.132813 16.097656 C 30.503906 17.101563 29.582031 18.941406 29.75 20.84375 L 29.75 29.476563 L 20.765625 29.476563 C 20.308594 29.476563 19.890625 29.753906 19.714844 30.179688 L 5.25 66.421875 C 4.957031 67.054688 4.988281 67.789063 5.335938 68.394531 C 5.683594 68.996094 6.304688 69.394531 7 69.457031 L 63 69.457031 C 63.695313 69.394531 64.316406 68.996094 64.664063 68.394531 C 65.011719 67.789063 65.042969 67.054688 64.75 66.421875 Z M 64.75 66.421875 "/>
<path style=" stroke:none;fill-rule:nonzero;fill:rgb(95,187,255);fill-opacity:1;" d="M 13.105469 46.667969 L 46.667969 29.476563 L 49.582031 29.476563 C 50.058594 29.46875 50.480469 29.769531 50.632813 30.214844 L 53.859375 38.578125 L 7 62.222656 Z M 13.105469 46.667969 "/>
<path style=" stroke:none;fill-rule:nonzero;fill:rgb(95,187,255);fill-opacity:1;" d="M 37.101563 69.378906 L 60.433594 55.378906 L 64.671875 66.421875 C 64.949219 67.0625 64.902344 67.792969 64.550781 68.394531 C 64.195313 68.992188 63.578125 69.386719 62.882813 69.457031 Z M 37.101563 69.378906 "/>
<path style=" stroke:none;fill-rule:nonzero;fill:rgb(0,108,188);fill-opacity:1;" d="M 34.496094 0.621094 L 18.472656 9.917969 C 18.277344 10.027344 18.160156 10.238281 18.160156 10.460938 L 18.160156 11.898438 C 18.160156 12.242188 18.441406 12.523438 18.785156 12.523438 L 21.195313 12.523438 L 21.195313 29.476563 L 24.226563 29.476563 L 24.226563 12.523438 L 45.382813 12.523438 L 45.382813 29.476563 L 48.378906 29.476563 L 48.378906 12.523438 L 50.828125 12.523438 C 51.171875 12.523438 51.449219 12.242188 51.449219 11.898438 L 51.449219 10.460938 C 51.453125 10.238281 51.332031 10.027344 51.140625 9.917969 L 35 0.621094 C 34.835938 0.570313 34.660156 0.570313 34.496094 0.621094 Z M 34.496094 0.621094 "/>
</g>
</svg>
