<?xml version="1.0" encoding="UTF-8"?>
<svg xmlns="http://www.w3.org/2000/svg" xmlns:xlink="http://www.w3.org/1999/xlink" width="62pt" height="70pt" viewBox="0 0 62 70" version="1.1">
<g id="surface1">
<path style=" stroke:none;fill-rule:nonzero;fill:rgb(34.901961%,70.588235%,85.098039%);fill-opacity:1;" d="M 40.6875 35.015625 C 40.6875 40.386719 36.351563 44.738281 31 44.738281 C 25.648438 44.738281 21.3125 40.386719 21.3125 35.015625 C 21.3125 29.644531 25.648438 25.292969 31 25.292969 C 36.351563 25.292969 40.6875 29.644531 40.6875 35.015625 Z M 40.6875 35.015625 "/>
<path style=" stroke:none;fill-rule:nonzero;fill:rgb(34.901961%,70.588235%,85.098039%);fill-opacity:1;" d="M 51.863281 25.914063 C 51.863281 28.542969 49.738281 30.675781 47.121094 30.675781 C 44.5 30.675781 42.378906 28.542969 42.378906 25.914063 C 42.378906 23.285156 44.5 21.15625 47.121094 21.15625 C 49.738281 21.15625 51.863281 23.285156 51.863281 25.914063 Z M 51.863281 25.914063 "/>
<path style=" stroke:none;fill-rule:nonzero;fill:rgb(34.901961%,70.588235%,85.098039%);fill-opacity:1;" d="M 51.863281 44.117188 C 51.863281 46.746094 49.738281 48.875 47.121094 48.875 C 44.5 48.875 42.378906 46.746094 42.378906 44.117188 C 42.378906 41.488281 44.5 39.355469 47.121094 39.355469 C 49.738281 39.355469 51.863281 41.488281 51.863281 44.117188 Z M 51.863281 44.117188 "/>
<path style=" stroke:none;fill-rule:nonzero;fill:rgb(34.901961%,70.588235%,85.098039%);fill-opacity:1;" d="M 62.171875 50.597656 C 62.171875 52.839844 60.359375 54.660156 58.125 54.660156 C 55.890625 54.660156 54.078125 52.839844 54.078125 50.597656 C 54.078125 48.355469 55.890625 46.539063 58.125 46.539063 C 60.359375 46.539063 62.171875 48.355469 62.171875 50.597656 Z M 62.171875 50.597656 "/>
<path style=" stroke:none;fill-rule:nonzero;fill:rgb(34.901961%,70.588235%,85.098039%);fill-opacity:1;" d="M 62 19.488281 C 62 21.636719 60.265625 23.375 58.125 23.375 C 55.984375 23.375 54.25 21.636719 54.25 19.488281 C 54.25 17.339844 55.984375 15.597656 58.125 15.597656 C 60.265625 15.597656 62 17.339844 62 19.488281 Z M 62 19.488281 "/>
<path style=" stroke:none;fill-rule:nonzero;fill:rgb(34.901961%,70.588235%,85.098039%);fill-opacity:1;" d="M 62 35.015625 C 62 37.164063 60.265625 38.90625 58.125 38.90625 C 55.984375 38.90625 54.25 37.164063 54.25 35.015625 C 54.25 32.867188 55.984375 31.125 58.125 31.125 C 60.265625 31.125 62 32.867188 62 35.015625 Z M 62 35.015625 "/>
<path style=" stroke:none;fill-rule:nonzero;fill:rgb(22.352941%,60%,77.647059%);fill-opacity:1;" d="M 48.082031 11.214844 C 48.082031 12.761719 46.832031 14.015625 45.289063 14.015625 C 43.75 14.015625 42.5 12.761719 42.5 11.214844 C 42.5 9.667969 43.75 8.414063 45.289063 8.414063 C 46.832031 8.414063 48.082031 9.667969 48.082031 11.214844 Z M 48.082031 11.214844 "/>
<path style=" stroke:none;fill-rule:nonzero;fill:rgb(22.352941%,60%,77.647059%);fill-opacity:1;" d="M 31.078125 63.558594 L 5.578125 49.242188 L 5.578125 20.757813 L 31.078125 6.441406 L 43.804688 13.585938 L 46.617188 8.75 L 31.078125 0 L 0 17.5 L 0 52.5 L 31.078125 70 L 46.617188 61.25 L 43.804688 56.414063 Z M 31.078125 63.558594 "/>
<path style=" stroke:none;fill-rule:nonzero;fill:rgb(22.352941%,60%,77.647059%);fill-opacity:1;" d="M 48.082031 58.785156 C 48.082031 60.332031 46.832031 61.585938 45.289063 61.585938 C 43.75 61.585938 42.5 60.332031 42.5 58.785156 C 42.5 57.238281 43.75 55.984375 45.289063 55.984375 C 46.832031 55.984375 48.082031 57.238281 48.082031 58.785156 Z M 48.082031 58.785156 "/>
</g>
</svg>
