<?xml version="1.0" encoding="UTF-8"?>
<svg xmlns="http://www.w3.org/2000/svg" xmlns:xlink="http://www.w3.org/1999/xlink" width="70pt" height="70pt" viewBox="0 0 70 70" version="1.1">
<defs>
<linearGradient id="linear0" gradientUnits="userSpaceOnUse" x1="-212.049" y1="722.745" x2="-212.049" y2="734.871" gradientTransform="matrix(2.74986,2.74986,2.74986,-2.74986,-1390.615458,2613.142698)">
<stop offset="0" style="stop-color:rgb(0,108,188);stop-opacity:1;"/>
<stop offset="0.82" style="stop-color:rgb(41,164,255);stop-opacity:1;"/>
</linearGradient>
<clipPath id="clip1">
  <path d="M 7 1 L 30 1 L 30 27 L 7 27 Z M 7 1 "/>
</clipPath>
<clipPath id="clip2">
  <path d="M 54.1875 25.523438 C 54.1875 38.542969 43.632813 49.101563 30.609375 49.101563 C 17.585938 49.101563 7.03125 38.542969 7.03125 25.523438 C 7.03125 12.5 17.585938 1.945313 30.609375 1.945313 C 43.632813 1.945313 54.1875 12.5 54.1875 25.523438 Z M 54.1875 25.523438 "/>
</clipPath>
<clipPath id="clip3">
  <path d="M 38 17 L 55 17 L 55 50 L 38 50 Z M 38 17 "/>
</clipPath>
<clipPath id="clip4">
  <path d="M 54.1875 25.523438 C 54.1875 38.542969 43.632813 49.101563 30.609375 49.101563 C 17.585938 49.101563 7.03125 38.542969 7.03125 25.523438 C 7.03125 12.5 17.585938 1.945313 30.609375 1.945313 C 43.632813 1.945313 54.1875 12.5 54.1875 25.523438 Z M 54.1875 25.523438 "/>
</clipPath>
<clipPath id="clip5">
  <path d="M 20 35 L 55 35 L 55 50 L 20 50 Z M 20 35 "/>
</clipPath>
<clipPath id="clip6">
  <path d="M 54.1875 25.523438 C 54.1875 38.542969 43.632813 49.101563 30.609375 49.101563 C 17.585938 49.101563 7.03125 38.542969 7.03125 25.523438 C 7.03125 12.5 17.585938 1.945313 30.609375 1.945313 C 43.632813 1.945313 54.1875 12.5 54.1875 25.523438 Z M 54.1875 25.523438 "/>
</clipPath>
<clipPath id="clip7">
  <path d="M 36 36 L 48 36 L 48 48 L 36 48 Z M 36 36 "/>
</clipPath>
<clipPath id="clip8">
  <path d="M 54.1875 25.523438 C 54.1875 38.542969 43.632813 49.101563 30.609375 49.101563 C 17.585938 49.101563 7.03125 38.542969 7.03125 25.523438 C 7.03125 12.5 17.585938 1.945313 30.609375 1.945313 C 43.632813 1.945313 54.1875 12.5 54.1875 25.523438 Z M 54.1875 25.523438 "/>
</clipPath>
</defs>
<g id="surface1">
<path style=" stroke:none;fill-rule:nonzero;fill:rgb(21,155,255);fill-opacity:1;" d="M 36.167969 57.367188 C 36.167969 56.769531 33.78125 56.769531 33.78125 57.367188 C 33.9375 59.15625 33.339844 60.929688 32.132813 62.261719 C 30.925781 63.589844 29.214844 64.355469 27.421875 64.367188 L 42.515625 64.367188 C 40.722656 64.351563 39.015625 63.585938 37.8125 62.257813 C 36.605469 60.929688 36.007813 59.15625 36.167969 57.367188 Z M 36.167969 57.367188 "/>
<path style=" stroke:none;fill-rule:nonzero;fill:rgb(65,174,255);fill-opacity:1;" d="M 51.859375 4.277344 C 52.726563 3.410156 54.128906 3.410156 54.996094 4.277344 L 55.097656 4.386719 C 66.128906 17.222656 65.402344 36.394531 53.433594 48.359375 C 41.460938 60.324219 22.289063 61.042969 9.457031 50.003906 C 8.554688 49.195313 8.46875 47.804688 9.265625 46.890625 L 9.363281 46.792969 C 10.1875 45.953125 11.519531 45.898438 12.40625 46.667969 C 23.480469 56.132813 39.972656 55.488281 50.273438 45.1875 C 60.578125 34.886719 61.230469 18.398438 51.769531 7.320313 C 50.996094 6.4375 51.035156 5.109375 51.859375 4.277344 Z M 46.457031 68.054688 L 23.511719 68.054688 C 22.488281 68.054688 21.660156 67.226563 21.660156 66.203125 C 21.660156 65.183594 22.488281 64.351563 23.511719 64.351563 L 46.457031 64.351563 C 47.476563 64.355469 48.304688 65.183594 48.304688 66.203125 C 48.304688 67.226563 47.476563 68.054688 46.457031 68.054688 Z M 46.457031 68.054688 "/>
<path style=" stroke:none;fill-rule:nonzero;fill:url(#linear0);" d="M 54.1875 25.523438 C 54.1875 38.542969 43.632813 49.101563 30.609375 49.101563 C 17.585938 49.101563 7.03125 38.542969 7.03125 25.523438 C 7.03125 12.5 17.585938 1.945313 30.609375 1.945313 C 43.632813 1.945313 54.1875 12.5 54.1875 25.523438 Z M 54.1875 25.523438 "/>
<g clip-path="url(#clip1)" clip-rule="nonzero">
<g clip-path="url(#clip2)" clip-rule="nonzero">
<path style=" stroke:none;fill-rule:nonzero;fill:rgb(101,189,255);fill-opacity:1;" d="M 2.816406 6.90625 L 10.445313 14.535156 C 11.722656 15.8125 11.722656 17.878906 10.445313 19.152344 C 9.171875 20.429688 7.105469 20.429688 5.828125 19.152344 L -1.800781 11.523438 C -3.074219 10.25 -3.074219 8.179688 -1.800781 6.90625 C -0.523438 5.636719 1.539063 5.636719 2.816406 6.90625 Z M 26.054688 20.957031 C 27.332031 22.230469 27.332031 24.300781 26.054688 25.574219 C 24.78125 26.84375 22.714844 26.84375 21.4375 25.574219 C 20.167969 24.296875 20.167969 22.234375 21.4375 20.957031 C 22.714844 19.683594 24.78125 19.683594 26.054688 20.957031 Z M 15.054688 -7.675781 L 27.832031 5.101563 C 29.96875 7.238281 29.96875 10.699219 27.832031 12.835938 C 25.695313 14.972656 22.234375 14.972656 20.097656 12.835938 L 7.320313 0.0585938 C 5.183594 -2.078125 5.183594 -5.539063 7.320313 -7.675781 C 9.457031 -9.8125 12.917969 -9.8125 15.054688 -7.675781 Z M 15.054688 -7.675781 "/>
</g>
</g>
<g clip-path="url(#clip3)" clip-rule="nonzero">
<g clip-path="url(#clip4)" clip-rule="nonzero">
<path style=" stroke:none;fill-rule:nonzero;fill:rgb(101,189,255);fill-opacity:1;" d="M 41.433594 20.617188 L 41.441406 20.613281 C 44.929688 17.125 50.582031 17.125 54.074219 20.613281 L 74.964844 41.503906 C 78.453125 44.992188 78.453125 50.648438 74.964844 54.136719 L 74.957031 54.140625 C 71.46875 57.628906 65.8125 57.628906 62.324219 54.140625 L 41.433594 33.25 C 37.945313 29.761719 37.945313 24.105469 41.433594 20.617188 Z M 41.433594 20.617188 "/>
</g>
</g>
<g clip-path="url(#clip5)" clip-rule="nonzero">
<g clip-path="url(#clip6)" clip-rule="nonzero">
<path style=" stroke:none;fill-rule:nonzero;fill:rgb(101,189,255);fill-opacity:1;" d="M 37.894531 46.082031 L 61.6875 69.878906 C 65.660156 73.855469 65.660156 80.292969 61.6875 84.269531 C 57.714844 88.238281 51.277344 88.238281 47.300781 84.269531 L 23.492188 60.488281 C 19.523438 56.511719 19.523438 50.074219 23.492188 46.097656 C 27.464844 42.121094 33.910156 42.113281 37.894531 46.082031 Z M 40.746094 37.476563 C 41.425781 38.152344 42.519531 38.152344 43.199219 37.476563 C 43.523438 37.152344 43.707031 36.710938 43.707031 36.253906 C 43.707031 35.792969 43.523438 35.351563 43.199219 35.027344 L 62.796875 54.625 L 57.324219 60.136719 "/>
</g>
</g>
<g clip-path="url(#clip7)" clip-rule="nonzero">
<g clip-path="url(#clip8)" clip-rule="nonzero">
<path style=" stroke:none;fill-rule:nonzero;fill:rgb(101,189,255);fill-opacity:1;" d="M 40.78125 37.511719 L 46.492188 43.222656 C 47.410156 44.140625 47.410156 45.628906 46.492188 46.550781 C 45.570313 47.46875 44.082031 47.46875 43.164063 46.550781 L 37.453125 40.832031 C 36.535156 39.914063 36.535156 38.425781 37.453125 37.503906 C 38.375 36.589844 39.863281 36.59375 40.78125 37.511719 Z M 40.78125 37.511719 "/>
</g>
</g>
</g>
</svg>
