<?xml version="1.0" encoding="UTF-8"?>
<svg xmlns="http://www.w3.org/2000/svg" xmlns:xlink="http://www.w3.org/1999/xlink" width="55pt" height="70pt" viewBox="0 0 55 70" version="1.1">
<g id="surface1">
<path style=" stroke:none;fill-rule:nonzero;fill:rgb(0%,47.058824%,84.313725%);fill-opacity:1;" d="M 29.847656 49.558594 L 29.847656 56.058594 C 29.347656 56.058594 27.347656 55.726563 27.015625 55.558594 C 25.683594 55.226563 24.347656 54.890625 23.015625 54.390625 C 22.515625 54.226563 22.183594 54.058594 21.847656 53.890625 L 21.183594 53.726563 L 20.515625 53.390625 L 20.015625 53.058594 L 19.347656 52.726563 C 19.015625 52.558594 18.515625 52.226563 18.183594 52.058594 C 16.683594 51.058594 15.183594 49.890625 13.847656 48.558594 C 12.515625 47.226563 11.347656 45.726563 10.347656 44.058594 C 9.347656 42.390625 8.515625 40.726563 7.683594 38.890625 C 6.347656 35.226563 5.683594 31.390625 6.015625 27.558594 C 6.347656 23.726563 7.347656 19.890625 9.183594 16.726563 C 11.015625 13.390625 13.347656 10.558594 16.183594 8.390625 C 17.515625 7.226563 19.015625 6.390625 20.515625 5.558594 C 22.015625 4.726563 23.515625 4.226563 24.847656 3.726563 C 27.847656 2.726563 30.683594 2.226563 33.183594 2.226563 C 35.683594 2.058594 38.015625 2.390625 39.847656 2.726563 C 41.683594 3.058594 43.015625 3.558594 44.015625 3.890625 C 44.515625 4.058594 44.847656 4.226563 45.183594 4.226563 L 45.515625 4.390625 C 45.683594 4.390625 45.847656 4.390625 46.015625 4.226563 C 46.183594 4.058594 46.015625 3.890625 45.847656 3.726563 L 45.515625 3.558594 C 45.347656 3.390625 44.847656 3.226563 44.515625 3.058594 C 43.515625 2.558594 42.183594 1.890625 40.347656 1.390625 C 38.515625 0.726563 36.183594 0.226563 33.347656 0.0585938 C 30.683594 -0.109375 27.515625 0.0585938 24.015625 0.890625 C 20.683594 1.726563 17.183594 3.226563 13.847656 5.390625 C 10.515625 7.558594 7.515625 10.726563 5.183594 14.390625 C 2.847656 18.058594 1.183594 22.390625 0.347656 27.058594 C 0.015625 29.390625 -0.152344 31.726563 0.183594 34.226563 C 0.347656 36.558594 0.847656 39.058594 1.515625 41.226563 C 2.183594 43.558594 3.183594 45.726563 4.515625 47.890625 C 5.683594 49.890625 7.183594 51.890625 8.847656 53.726563 C 10.515625 55.390625 12.347656 57.058594 14.347656 58.226563 C 14.847656 58.558594 15.347656 58.890625 15.847656 59.226563 L 16.683594 59.726563 L 17.515625 60.226563 L 18.183594 60.558594 L 19.015625 60.890625 C 19.515625 61.058594 20.015625 61.390625 20.515625 61.558594 C 22.683594 62.390625 25.015625 63.058594 27.183594 63.390625 C 28.015625 63.558594 29.183594 63.558594 30.015625 63.726563 L 30.015625 70.726563 L 39.847656 60.390625 Z M 29.847656 49.558594 "/>
<path style=" stroke:none;fill-rule:nonzero;fill:rgb(0%,47.058824%,84.313725%);fill-opacity:1;" d="M 32.847656 6.726563 C 20.683594 6.726563 11.347656 16.558594 11.347656 28.726563 C 11.347656 38.890625 18.015625 47.390625 27.347656 49.890625 L 27.347656 48.058594 C 27.347656 47.226563 28.015625 46.390625 28.847656 46.058594 C 29.183594 45.890625 28.515625 46.058594 28.847656 46.058594 C 29.347656 46.058594 30.015625 46.058594 30.347656 46.558594 L 34.515625 50.726563 C 46.015625 49.890625 55.015625 40.390625 55.015625 28.726563 C 55.015625 16.558594 45.015625 6.726563 32.847656 6.726563 Z M 16.515625 30.558594 C 15.515625 30.558594 14.515625 29.726563 14.515625 28.558594 C 14.515625 27.558594 15.347656 26.558594 16.515625 26.558594 C 17.515625 26.558594 18.515625 27.390625 18.515625 28.558594 C 18.347656 29.726563 17.515625 30.558594 16.515625 30.558594 Z M 32.847656 9.226563 C 33.847656 9.226563 34.847656 10.058594 34.847656 11.226563 C 34.847656 12.226563 34.015625 13.226563 32.847656 13.226563 C 31.847656 13.226563 30.847656 12.390625 30.847656 11.226563 C 31.015625 10.226563 31.847656 9.226563 32.847656 9.226563 Z M 44.347656 39.890625 L 44.183594 40.058594 C 42.847656 41.390625 40.515625 41.390625 39.183594 40.058594 L 30.183594 31.058594 C 29.347656 30.226563 29.847656 29.226563 29.847656 28.226563 L 29.847656 19.890625 C 29.847656 17.890625 31.515625 16.390625 33.347656 16.390625 L 34.015625 16.390625 C 36.015625 16.390625 37.515625 18.058594 37.515625 19.890625 L 37.515625 27.058594 L 45.347656 34.890625 C 46.847656 36.226563 45.847656 38.558594 44.347656 39.890625 Z M 50.347656 30.558594 C 49.347656 30.558594 48.347656 29.726563 48.347656 28.558594 C 48.347656 27.558594 49.183594 26.558594 50.347656 26.558594 C 51.347656 26.558594 52.347656 27.390625 52.347656 28.558594 C 52.347656 29.726563 51.515625 30.558594 50.347656 30.558594 Z M 50.347656 30.558594 "/>
</g>
</svg>
