<?xml version="1.0" encoding="UTF-8"?>
<svg xmlns="http://www.w3.org/2000/svg" xmlns:xlink="http://www.w3.org/1999/xlink" width="70pt" height="70pt" viewBox="0 0 70 70" version="1.1">
<defs>
<filter id="alpha" filterUnits="objectBoundingBox" x="0%" y="0%" width="100%" height="100%">
  <feColorMatrix type="matrix" in="SourceGraphic" values="0 0 0 0 1 0 0 0 0 1 0 0 0 0 1 0 0 0 1 0"/>
</filter>
<mask id="mask0">
  <g filter="url(#alpha)">
<rect x="0" y="0" width="70" height="70" style="fill:rgb(0%,0%,0%);fill-opacity:0.14902;stroke:none;"/>
  </g>
</mask>
<clipPath id="clip1">
  <rect x="0" y="0" width="70" height="70"/>
</clipPath>
<g id="surface5" clip-path="url(#clip1)">
<path style=" stroke:none;fill-rule:nonzero;fill:rgb(38.431373%,6.666667%,47.843137%);fill-opacity:1;" d="M 40.871094 61.601563 C 40.933594 61.601563 40.992188 61.585938 41.046875 61.554688 L 52.359375 55.289063 C 52.46875 55.234375 52.535156 55.125 52.535156 55.003906 L 52.535156 42.429688 C 52.535156 42.308594 52.464844 42.199219 52.359375 42.140625 C 52.25 42.082031 52.121094 42.082031 52.015625 42.140625 L 40.703125 48.40625 C 40.597656 48.464844 40.535156 48.574219 40.535156 48.695313 L 40.535156 61.269531 C 40.535156 61.390625 40.597656 61.496094 40.703125 61.554688 C 40.757813 61.585938 40.8125 61.601563 40.871094 61.601563 M 55.539063 53.320313 C 55.597656 53.320313 55.660156 53.304688 55.714844 53.277344 L 67.027344 47.007813 C 67.132813 46.953125 67.199219 46.84375 67.199219 46.722656 L 67.199219 34.148438 C 67.199219 34.027344 67.132813 33.917969 67.023438 33.859375 C 66.917969 33.804688 66.789063 33.804688 66.679688 33.859375 L 55.367188 40.125 C 55.261719 40.183594 55.199219 40.292969 55.199219 40.414063 L 55.199219 52.988281 C 55.199219 53.109375 55.261719 53.214844 55.367188 53.277344 C 55.417969 53.304688 55.476563 53.320313 55.539063 53.320313 M 40.871094 45.039063 C 40.933594 45.039063 40.992188 45.027344 41.046875 44.996094 L 52.359375 38.730469 C 52.46875 38.675781 52.535156 38.5625 52.535156 38.445313 L 52.535156 25.871094 C 52.535156 25.75 52.464844 25.636719 52.359375 25.582031 C 52.25 25.523438 52.121094 25.523438 52.015625 25.582031 L 40.703125 31.847656 C 40.597656 31.90625 40.535156 32.015625 40.535156 32.132813 L 40.535156 44.710938 C 40.535156 44.832031 40.597656 44.9375 40.703125 44.996094 C 40.757813 45.027344 40.8125 45.039063 40.871094 45.039063 M 55.539063 36.757813 C 55.597656 36.757813 55.660156 36.746094 55.714844 36.714844 L 67.027344 30.449219 C 67.132813 30.394531 67.199219 30.285156 67.199219 30.164063 L 67.199219 17.589844 C 67.199219 17.46875 67.132813 17.355469 67.023438 17.300781 C 66.917969 17.242188 66.789063 17.242188 66.679688 17.300781 L 55.367188 23.566406 C 55.261719 23.625 55.199219 23.734375 55.199219 23.851563 L 55.199219 36.429688 C 55.199219 36.550781 55.261719 36.65625 55.367188 36.714844 C 55.417969 36.742188 55.476563 36.757813 55.539063 36.757813 "/>
</g>
<mask id="mask1">
  <g filter="url(#alpha)">
<rect x="0" y="0" width="70" height="70" style="fill:rgb(0%,0%,0%);fill-opacity:0.2;stroke:none;"/>
  </g>
</mask>
<clipPath id="clip2">
  <rect x="0" y="0" width="70" height="70"/>
</clipPath>
<g id="surface8" clip-path="url(#clip2)">
<path style=" stroke:none;fill-rule:nonzero;fill:rgb(100%,100%,100%);fill-opacity:1;" d="M 27.777344 22.097656 C 27.808594 22.050781 27.851563 22.007813 27.902344 21.980469 L 39.144531 15.871094 C 39.25 15.8125 39.378906 15.808594 39.484375 15.867188 L 50.617188 21.925781 C 50.71875 21.980469 50.78125 22.089844 50.78125 22.207031 C 50.777344 22.320313 50.710938 22.425781 50.609375 22.484375 L 39.367188 28.59375 C 39.261719 28.648438 39.132813 28.648438 39.027344 28.589844 L 27.894531 22.53125 C 27.792969 22.476563 27.730469 22.371094 27.726563 22.257813 C 27.730469 22.203125 27.746094 22.148438 27.777344 22.097656 M 13.117188 14.121094 C 13.148438 14.070313 13.191406 14.027344 13.242188 14 L 24.363281 7.890625 C 24.464844 7.832031 24.59375 7.832031 24.699219 7.890625 L 35.707031 13.945313 C 35.808594 14.003906 35.871094 14.109375 35.871094 14.226563 C 35.867188 14.34375 35.800781 14.449219 35.699219 14.503906 L 24.578125 20.613281 C 24.476563 20.667969 24.347656 20.667969 24.246094 20.609375 L 13.238281 14.550781 C 13.136719 14.496094 13.070313 14.394531 13.070313 14.277344 C 13.070313 14.222656 13.089844 14.167969 13.117188 14.121094 M 42.742188 14.253906 C 42.773438 14.203125 42.816406 14.164063 42.867188 14.136719 L 53.988281 8.027344 C 54.089844 7.964844 54.21875 7.964844 54.324219 8.023438 L 65.332031 14.082031 C 65.433594 14.136719 65.496094 14.246094 65.496094 14.359375 C 65.492188 14.476563 65.425781 14.582031 65.324219 14.640625 L 54.207031 20.746094 C 54.101563 20.804688 53.972656 20.804688 53.871094 20.746094 L 42.863281 14.6875 C 42.761719 14.632813 42.699219 14.527344 42.695313 14.414063 C 42.699219 14.355469 42.714844 14.300781 42.742188 14.253906 M 27.832031 6.382813 C 27.863281 6.332031 27.90625 6.292969 27.957031 6.261719 L 39.203125 0.253906 C 39.308594 0.195313 39.433594 0.195313 39.542969 0.25 L 50.671875 6.210938 C 50.773438 6.261719 50.839844 6.371094 50.839844 6.484375 C 50.832031 6.601563 50.765625 6.703125 50.664063 6.757813 L 39.421875 12.769531 C 39.316406 12.824219 39.191406 12.820313 39.082031 12.765625 L 27.953125 6.804688 C 27.851563 6.753906 27.785156 6.652344 27.785156 6.535156 C 27.785156 6.480469 27.804688 6.429688 27.832031 6.382813 M 11.375 47.007813 L 22.6875 53.277344 C 22.796875 53.335938 22.925781 53.335938 23.03125 53.277344 C 23.136719 53.21875 23.199219 53.109375 23.199219 52.988281 L 23.199219 43.519531 C 22.703125 43.441406 22.203125 43.402344 21.699219 43.398438 C 18.625 43.398438 16.332031 43.898438 14.488281 44.296875 C 13.195313 44.578125 12.171875 44.800781 11.199219 44.800781 L 11.199219 46.722656 C 11.199219 46.84375 11.265625 46.953125 11.375 47.007813 Z M 37.527344 61.601563 C 37.585938 61.601563 37.640625 61.585938 37.699219 61.554688 C 37.800781 61.5 37.867188 61.390625 37.867188 61.269531 L 37.867188 51.160156 C 36.800781 51.179688 35.683594 51.203125 34.710938 51.203125 C 33.40625 51.203125 32.851563 51.164063 32.625 51.140625 C 32.300781 50.90625 31.664063 50.019531 31.234375 49.414063 C 30.125 47.859375 28.496094 45.582031 25.867188 44.324219 L 25.867188 55.007813 C 25.867188 55.125 25.929688 55.234375 26.042969 55.292969 L 37.355469 61.558594 C 37.40625 61.585938 37.46875 61.601563 37.527344 61.601563 Z M 52.535156 55.003906 L 52.535156 53.65625 C 51.183594 54.238281 49.695313 54.875 48.257813 55.484375 C 47.746094 51.335938 43.507813 51.160156 42.097656 51.101563 C 41.894531 51.09375 41.691406 51.089844 41.484375 51.089844 C 41.222656 51.089844 40.894531 51.097656 40.535156 51.101563 L 40.535156 61.269531 C 40.535156 61.390625 40.597656 61.496094 40.703125 61.554688 C 40.808594 61.613281 40.9375 61.613281 41.046875 61.554688 L 52.359375 55.289063 C 52.46875 55.234375 52.535156 55.125 52.535156 55.003906 Z M 56.777344 51.769531 C 56.410156 51.945313 55.859375 52.195313 55.199219 52.488281 L 55.199219 52.992188 C 55.199219 53.113281 55.265625 53.21875 55.367188 53.277344 C 55.476563 53.335938 55.605469 53.335938 55.714844 53.277344 L 60.335938 50.714844 C 59.097656 50.867188 57.898438 51.222656 56.777344 51.769531 Z M 56.777344 51.769531 "/>
</g>
<mask id="mask2">
  <g filter="url(#alpha)">
<rect x="0" y="0" width="70" height="70" style="fill:rgb(0%,0%,0%);fill-opacity:0.2;stroke:none;"/>
  </g>
</mask>
<clipPath id="clip3">
  <rect x="0" y="0" width="70" height="70"/>
</clipPath>
<g id="surface11" clip-path="url(#clip3)">
<path style=" stroke:none;fill-rule:nonzero;fill:rgb(100%,100%,100%);fill-opacity:1;" d="M 47.25 58.953125 C 51.195313 57.285156 56.261719 55.125 57.992188 54.289063 C 59.613281 53.507813 61.320313 53.078125 62.800781 53.078125 C 64.183594 53.078125 65.214844 53.464844 65.5625 54.117188 C 65.59375 54.183594 66.484375 56.160156 62.894531 58.261719 C 60.449219 59.691406 57.992188 61.109375 55.535156 62.519531 C 51.832031 64.644531 48.914063 66.324219 47.558594 67.21875 C 46.472656 67.941406 44.890625 68.03125 43.636719 68.03125 C 42.9375 68.03125 42.222656 68 41.515625 67.96875 C 40.742188 67.921875 39.972656 67.898438 39.203125 67.890625 C 37.386719 67.890625 34.695313 68.09375 31.847656 68.308594 C 30.503906 68.410156 29.203125 68.507813 27.957031 68.589844 L 27.734375 68.601563 C 24.140625 68.601563 19.351563 64.371094 17.96875 63.078125 C 17.4375 62.578125 17.058594 62.230469 16.753906 61.957031 C 13.746094 59.324219 10.648438 58.101563 7 58.101563 C 5 58.101563 3.578125 58.09375 2.800781 58.089844 L 2.800781 47.601563 L 11.199219 47.601563 C 12.472656 47.601563 13.679688 47.335938 15.078125 47.035156 C 16.808594 46.660156 18.933594 46.199219 21.699219 46.199219 C 25.503906 46.199219 27.335938 48.773438 28.960938 51.042969 C 29.972656 52.464844 30.851563 53.695313 32.089844 53.890625 C 32.566406 53.96875 33.367188 54 34.6875 54 C 35.890625 54 37.320313 53.972656 38.554688 53.945313 L 38.992188 53.933594 C 39.828125 53.910156 40.664063 53.898438 41.5 53.890625 C 41.695313 53.890625 41.851563 53.894531 41.972656 53.898438 C 45.113281 54.03125 45.429688 54.949219 45.503906 56.046875 C 45.53125 56.464844 45.484375 56.871094 45.367188 57.25 L 44.4375 59.78125 C 44.4375 59.78125 46.28125 59.363281 47.25 58.953125 "/>
</g>
</defs>
<g id="surface1">
<path style=" stroke:none;fill-rule:nonzero;fill:rgb(22.352941%,60%,77.647059%);fill-opacity:1;" d="M 40.871094 45.039063 C 40.933594 45.039063 40.992188 45.027344 41.046875 44.996094 L 52.359375 38.730469 C 52.46875 38.675781 52.535156 38.5625 52.535156 38.445313 L 52.535156 25.871094 C 52.535156 25.75 52.464844 25.636719 52.359375 25.582031 C 52.25 25.523438 52.121094 25.523438 52.015625 25.582031 L 40.703125 31.847656 C 40.597656 31.90625 40.535156 32.015625 40.535156 32.132813 L 40.535156 44.710938 C 40.535156 44.832031 40.597656 44.9375 40.703125 44.996094 C 40.757813 45.027344 40.8125 45.039063 40.871094 45.039063 M 40.871094 61.601563 C 40.933594 61.601563 40.992188 61.585938 41.046875 61.554688 L 52.359375 55.289063 C 52.46875 55.234375 52.535156 55.125 52.535156 55.003906 L 52.535156 42.429688 C 52.535156 42.308594 52.464844 42.199219 52.359375 42.140625 C 52.25 42.082031 52.121094 42.082031 52.015625 42.140625 L 40.703125 48.40625 C 40.597656 48.464844 40.535156 48.574219 40.535156 48.695313 L 40.535156 61.269531 C 40.535156 61.390625 40.597656 61.496094 40.703125 61.554688 C 40.757813 61.585938 40.8125 61.601563 40.871094 61.601563 M 55.539063 36.757813 C 55.597656 36.757813 55.660156 36.746094 55.714844 36.714844 L 67.027344 30.449219 C 67.132813 30.394531 67.199219 30.285156 67.199219 30.164063 L 67.199219 17.589844 C 67.199219 17.46875 67.132813 17.355469 67.023438 17.300781 C 66.917969 17.242188 66.789063 17.242188 66.679688 17.300781 L 55.367188 23.566406 C 55.261719 23.625 55.199219 23.734375 55.199219 23.851563 L 55.199219 36.429688 C 55.199219 36.550781 55.261719 36.65625 55.367188 36.714844 C 55.417969 36.742188 55.476563 36.757813 55.539063 36.757813 M 55.539063 53.320313 C 55.597656 53.320313 55.660156 53.304688 55.714844 53.277344 L 67.027344 47.007813 C 67.132813 46.953125 67.199219 46.84375 67.199219 46.722656 L 67.199219 34.148438 C 67.199219 34.027344 67.132813 33.917969 67.023438 33.859375 C 66.917969 33.804688 66.789063 33.804688 66.679688 33.859375 L 55.367188 40.125 C 55.261719 40.183594 55.199219 40.292969 55.199219 40.414063 L 55.199219 52.988281 C 55.199219 53.109375 55.261719 53.214844 55.367188 53.277344 C 55.417969 53.304688 55.476563 53.320313 55.539063 53.320313 "/>
<use xlink:href="#surface5" mask="url(#mask0)"/>
<path style=" stroke:none;fill-rule:nonzero;fill:rgb(34.901961%,70.588235%,85.098039%);fill-opacity:1;" d="M 37.527344 45.039063 C 37.46875 45.039063 37.40625 45.023438 37.351563 44.996094 L 26.039063 38.730469 C 25.933594 38.675781 25.867188 38.5625 25.863281 38.445313 L 25.863281 25.871094 C 25.863281 25.75 25.929688 25.644531 26.039063 25.582031 C 26.148438 25.523438 26.277344 25.523438 26.386719 25.582031 L 37.699219 31.847656 C 37.804688 31.90625 37.867188 32.015625 37.867188 32.132813 L 37.867188 44.710938 C 37.867188 44.828125 37.800781 44.9375 37.699219 44.996094 C 37.644531 45.023438 37.585938 45.039063 37.527344 45.039063 M 37.527344 61.601563 C 37.46875 61.601563 37.40625 61.585938 37.351563 61.554688 L 26.039063 55.289063 C 25.933594 55.234375 25.867188 55.125 25.863281 55.003906 L 25.863281 42.429688 C 25.863281 42.3125 25.929688 42.203125 26.039063 42.140625 C 26.148438 42.082031 26.277344 42.082031 26.386719 42.140625 L 37.699219 48.40625 C 37.804688 48.46875 37.867188 48.578125 37.867188 48.695313 L 37.867188 61.269531 C 37.867188 61.390625 37.800781 61.5 37.699219 61.554688 C 37.644531 61.585938 37.585938 61.601563 37.527344 61.601563 M 22.863281 36.757813 C 22.800781 36.757813 22.742188 36.742188 22.6875 36.714844 L 11.375 30.449219 C 11.265625 30.394531 11.199219 30.285156 11.199219 30.164063 L 11.199219 17.589844 C 11.199219 17.46875 11.265625 17.363281 11.375 17.300781 C 11.484375 17.242188 11.613281 17.242188 11.722656 17.300781 L 23.03125 23.566406 C 23.136719 23.625 23.199219 23.734375 23.199219 23.851563 L 23.199219 36.429688 C 23.199219 36.546875 23.136719 36.65625 23.03125 36.714844 C 22.980469 36.742188 22.921875 36.757813 22.863281 36.757813 M 22.863281 53.320313 C 22.800781 53.320313 22.742188 53.304688 22.6875 53.277344 L 11.375 47.007813 C 11.265625 46.953125 11.199219 46.84375 11.199219 46.722656 L 11.199219 34.148438 C 11.199219 34.03125 11.265625 33.921875 11.375 33.859375 C 11.484375 33.804688 11.613281 33.804688 11.722656 33.859375 L 23.03125 40.125 C 23.136719 40.1875 23.199219 40.296875 23.199219 40.414063 L 23.199219 52.988281 C 23.199219 53.109375 23.136719 53.21875 23.03125 53.277344 C 22.980469 53.304688 22.921875 53.320313 22.863281 53.320313 M 27.777344 22.097656 C 27.808594 22.050781 27.851563 22.007813 27.902344 21.980469 L 39.144531 15.871094 C 39.25 15.8125 39.378906 15.808594 39.484375 15.867188 L 50.617188 21.925781 C 50.71875 21.980469 50.78125 22.089844 50.78125 22.207031 C 50.777344 22.320313 50.710938 22.425781 50.609375 22.484375 L 39.367188 28.59375 C 39.261719 28.648438 39.132813 28.648438 39.027344 28.589844 L 27.894531 22.53125 C 27.792969 22.476563 27.730469 22.371094 27.726563 22.257813 C 27.730469 22.203125 27.746094 22.148438 27.777344 22.097656 M 13.117188 14.121094 C 13.148438 14.070313 13.191406 14.027344 13.242188 14 L 24.363281 7.890625 C 24.464844 7.832031 24.59375 7.832031 24.699219 7.890625 L 35.707031 13.945313 C 35.808594 14.003906 35.871094 14.109375 35.871094 14.226563 C 35.867188 14.34375 35.800781 14.449219 35.699219 14.503906 L 24.578125 20.613281 C 24.476563 20.667969 24.347656 20.667969 24.246094 20.609375 L 13.238281 14.550781 C 13.136719 14.496094 13.070313 14.394531 13.070313 14.277344 C 13.070313 14.222656 13.089844 14.167969 13.117188 14.121094 M 42.742188 14.253906 C 42.773438 14.203125 42.816406 14.164063 42.867188 14.136719 L 53.988281 8.027344 C 54.089844 7.964844 54.21875 7.964844 54.324219 8.023438 L 65.332031 14.082031 C 65.433594 14.136719 65.496094 14.246094 65.496094 14.359375 C 65.492188 14.476563 65.425781 14.582031 65.324219 14.640625 L 54.207031 20.746094 C 54.101563 20.804688 53.972656 20.804688 53.871094 20.746094 L 42.863281 14.6875 C 42.761719 14.632813 42.699219 14.527344 42.695313 14.414063 C 42.699219 14.355469 42.714844 14.300781 42.742188 14.253906 M 27.832031 6.382813 C 27.863281 6.332031 27.90625 6.292969 27.957031 6.261719 L 39.203125 0.253906 C 39.308594 0.195313 39.433594 0.195313 39.542969 0.25 L 50.671875 6.210938 C 50.773438 6.261719 50.839844 6.371094 50.839844 6.484375 C 50.832031 6.601563 50.765625 6.703125 50.664063 6.757813 L 39.421875 12.769531 C 39.316406 12.824219 39.191406 12.820313 39.082031 12.765625 L 27.953125 6.804688 C 27.851563 6.753906 27.785156 6.652344 27.785156 6.535156 C 27.785156 6.480469 27.804688 6.429688 27.832031 6.382813 "/>
<use xlink:href="#surface8" mask="url(#mask1)"/>
<path style=" stroke:none;fill-rule:nonzero;fill:rgb(50.196078%,28.627451%,59.607843%);fill-opacity:1;" d="M 27.734375 69.300781 C 23.988281 69.300781 19.324219 65.304688 17.492188 63.589844 C 17.097656 63.214844 16.695313 62.847656 16.292969 62.484375 C 13.421875 59.96875 10.46875 58.800781 7 58.800781 C 3.820313 58.800781 2.101563 58.789063 2.101563 58.789063 L 2.101563 46.898438 L 11.199219 46.898438 C 12.402344 46.898438 13.578125 46.644531 14.9375 46.347656 C 16.679688 45.96875 18.851563 45.5 21.699219 45.5 C 25.863281 45.5 27.894531 48.347656 29.527344 50.636719 C 30.453125 51.929688 31.25 53.046875 32.203125 53.199219 C 32.628906 53.269531 33.417969 53.300781 34.683594 53.300781 C 35.957031 53.300781 37.476563 53.265625 38.757813 53.238281 C 39.671875 53.214844 40.585938 53.199219 41.5 53.191406 C 41.703125 53.191406 41.871094 53.195313 42 53.199219 C 44.894531 53.320313 46.074219 54.105469 46.199219 56 C 46.230469 56.503906 46.175781 56.992188 46.035156 57.457031 L 45.597656 58.886719 L 46.976563 58.304688 C 50.191406 56.949219 55.859375 54.542969 57.6875 53.660156 C 59.402344 52.832031 61.214844 52.375 62.796875 52.375 C 64.464844 52.375 65.699219 52.890625 66.175781 53.789063 C 66.1875 53.816406 67.492188 56.378906 63.246094 58.867188 C 60.792969 60.296875 58.339844 61.71875 55.875 63.128906 C 52.183594 65.25 49.269531 66.921875 47.9375 67.804688 C 46.695313 68.628906 44.984375 68.734375 43.632813 68.734375 C 42.898438 68.734375 42.148438 68.699219 41.40625 68.664063 C 40.671875 68.621094 39.933594 68.597656 39.195313 68.589844 C 37.394531 68.589844 34.6875 68.796875 31.824219 69.011719 C 30.546875 69.109375 29.246094 69.210938 27.996094 69.292969 C 27.910156 69.296875 27.824219 69.300781 27.734375 69.300781 Z M 27.734375 69.300781 "/>
<use xlink:href="#surface11" mask="url(#mask2)"/>
<path style=" stroke:none;fill-rule:nonzero;fill:rgb(40.784314%,12.941176%,47.843137%);fill-opacity:1;" d="M 27.734375 70 C 24.066406 70 19.667969 66.589844 17.011719 64.097656 C 16.550781 63.667969 16.152344 63.292969 15.828125 63.011719 C 13.09375 60.617188 10.289063 59.5 7 59.5 C 3.816406 59.5 2.09375 59.488281 2.09375 59.488281 C 1.710938 59.484375 1.398438 59.171875 1.398438 58.789063 L 1.398438 46.898438 C 1.398438 46.511719 1.714844 46.199219 2.101563 46.199219 L 11.199219 46.199219 C 12.324219 46.199219 13.464844 45.953125 14.789063 45.664063 C 16.566406 45.28125 18.777344 44.800781 21.699219 44.800781 C 26.222656 44.800781 28.464844 47.9375 30.097656 50.230469 C 30.894531 51.347656 31.648438 52.402344 32.3125 52.507813 C 33.269531 52.664063 36.492188 52.589844 38.84375 52.539063 C 40.261719 52.507813 41.488281 52.480469 42.027344 52.5 C 44.328125 52.597656 46.707031 53.082031 46.898438 55.957031 C 46.941406 56.605469 46.855469 57.175781 46.707031 57.664063 C 49.78125 56.363281 55.558594 53.910156 57.386719 53.03125 C 61.371094 51.105469 65.605469 51.222656 66.796875 53.460938 C 67.179688 54.179688 67.824219 57 63.601563 59.472656 C 61.148438 60.902344 58.691406 62.324219 56.226563 63.738281 C 52.546875 65.851563 49.636719 67.523438 48.324219 68.390625 C 46.488281 69.609375 43.867188 69.480469 41.335938 69.363281 C 40.609375 69.328125 39.886719 69.292969 39.199219 69.292969 C 37.425781 69.292969 34.734375 69.496094 31.878906 69.714844 C 30.601563 69.808594 29.296875 69.910156 28.042969 69.992188 C 27.941406 69.996094 27.839844 70 27.734375 70 Z M 2.800781 58.089844 C 3.578125 58.09375 5 58.101563 7 58.101563 C 10.597656 58.101563 13.789063 59.363281 16.75 61.957031 C 17.082031 62.25 17.496094 62.632813 17.96875 63.078125 C 20.367188 65.324219 24.863281 68.84375 27.953125 68.59375 C 29.203125 68.511719 30.5 68.414063 31.777344 68.316406 C 34.65625 68.097656 37.375 67.890625 39.199219 67.890625 C 39.910156 67.890625 40.65625 67.925781 41.40625 67.964844 C 43.710938 68.074219 46.097656 68.1875 47.554688 67.222656 C 48.90625 66.328125 51.828125 64.648438 55.53125 62.519531 C 57.796875 61.21875 60.328125 59.765625 62.894531 58.265625 C 65.015625 57.019531 66.1875 55.296875 65.5625 54.117188 C 64.808594 52.707031 61.503906 52.597656 57.992188 54.289063 C 55.441406 55.523438 45.6875 59.609375 45.273438 59.785156 C 45.0625 59.960938 44.765625 60 44.519531 59.878906 C 44.269531 59.757813 44.117188 59.503906 44.125 59.230469 C 44.128906 58.953125 44.296875 58.710938 44.550781 58.601563 C 44.589844 58.570313 45.609375 57.664063 45.5 56.046875 C 45.417969 54.777344 44.8125 54.019531 41.972656 53.902344 C 41.476563 53.878906 40.269531 53.90625 38.875 53.9375 C 36.203125 54 33.175781 54.066406 32.089844 53.894531 C 30.847656 53.695313 29.972656 52.464844 28.960938 51.046875 C 27.417969 48.886719 25.503906 46.199219 21.699219 46.199219 C 18.925781 46.199219 16.886719 46.640625 15.085938 47.035156 C 13.683594 47.339844 12.472656 47.601563 11.199219 47.601563 L 2.800781 47.601563 Z M 2.800781 58.089844 "/>
<path style=" stroke:none;fill-rule:nonzero;fill:rgb(40.784314%,12.941176%,47.843137%);fill-opacity:1;" d="M 34.5 60.921875 C 31.738281 60.921875 29.765625 60.59375 28.652344 59.617188 L 24.347656 55.84375 L 25.265625 54.792969 L 29.578125 58.566406 C 31.046875 59.855469 37.386719 59.371094 39.773438 59.214844 C 43.574219 58.964844 43.96875 58.773438 46.269531 57.84375 C 46.628906 57.703125 47.035156 57.875 47.179688 58.230469 C 47.324219 58.589844 47.152344 58.996094 46.796875 59.140625 C 44.363281 60.125 43.792969 60.351563 39.867188 60.609375 C 38.394531 60.707031 35.6875 60.921875 34.5 60.921875 Z M 34.5 60.921875 "/>
</g>
</svg>
