<?xml version="1.0" encoding="UTF-8"?>
<svg xmlns="http://www.w3.org/2000/svg" xmlns:xlink="http://www.w3.org/1999/xlink" width="70pt" height="70pt" viewBox="0 0 70 70" version="1.1">
<defs>
<filter id="alpha" filterUnits="objectBoundingBox" x="0%" y="0%" width="100%" height="100%">
  <feColorMatrix type="matrix" in="SourceGraphic" values="0 0 0 0 1 0 0 0 0 1 0 0 0 0 1 0 0 0 1 0"/>
</filter>
<mask id="mask0">
  <g filter="url(#alpha)">
<rect x="0" y="0" width="70" height="70" style="fill:rgb(0,0,0);fill-opacity:0.101961;stroke:none;"/>
  </g>
</mask>
<clipPath id="clip1">
  <rect x="0" y="0" width="70" height="70"/>
</clipPath>
<g id="surface5" clip-path="url(#clip1)">
<path style=" stroke:none;fill-rule:nonzero;fill:rgb(255,255,255);fill-opacity:1;" d="M 35 54.335938 C 24.320313 54.335938 15.664063 45.679688 15.664063 35 C 15.664063 24.324219 24.320313 15.667969 35 15.667969 C 45.675781 15.667969 54.332031 24.320313 54.332031 35 L 70 35 C 70 15.671875 54.328125 0 35 0 C 15.667969 0.00390625 0 15.671875 0 35 C 0 54.332031 15.667969 70 35 70 C 43.949219 70 52.109375 66.636719 58.296875 61.113281 L 47.859375 49.410156 C 44.4375 52.464844 39.941406 54.335938 35 54.335938 Z M 35 54.335938 "/>
</g>
<mask id="mask1">
  <g filter="url(#alpha)">
<rect x="0" y="0" width="70" height="70" style="fill:rgb(0,0,0);fill-opacity:0.901961;stroke:none;"/>
  </g>
</mask>
<clipPath id="clip2">
  <rect x="0" y="0" width="70" height="70"/>
</clipPath>
<g id="surface8" clip-path="url(#clip2)">
<path style=" stroke:none;fill-rule:nonzero;fill:rgb(115,195,255);fill-opacity:1;" d="M 54.332031 35 L 70 35 C 70 15.671875 54.328125 0 35 0 L 35 15.667969 C 45.675781 15.667969 54.332031 24.320313 54.332031 35 "/>
</g>
</defs>
<g id="surface1">
<path style=" stroke:none;fill-rule:nonzero;fill:rgb(0,16,28);fill-opacity:1;" d="M 39.804688 38.585938 C 39.804688 39.722656 39.449219 40.632813 38.734375 41.324219 C 38.015625 42.015625 36.976563 42.4375 35.613281 42.59375 L 35.613281 44.820313 L 34.113281 44.820313 L 34.113281 42.65625 C 32.707031 42.644531 31.414063 42.328125 30.238281 41.714844 L 30.238281 38.875 C 30.609375 39.175781 31.195313 39.464844 32.007813 39.75 C 32.816406 40.03125 33.519531 40.195313 34.113281 40.238281 L 34.113281 36.503906 C 32.605469 35.945313 31.53125 35.332031 30.902344 34.664063 C 30.273438 33.996094 29.960938 33.121094 29.960938 32.035156 C 29.960938 30.949219 30.347656 30.03125 31.121094 29.28125 C 31.894531 28.535156 32.890625 28.097656 34.113281 27.972656 L 34.113281 26.066406 L 35.613281 26.066406 L 35.613281 27.933594 C 37.050781 28 38.128906 28.234375 38.839844 28.628906 L 38.839844 31.398438 C 37.890625 30.824219 36.816406 30.46875 35.613281 30.332031 L 35.613281 34.21875 C 37.121094 34.765625 38.199219 35.378906 38.839844 36.0625 C 39.484375 36.75 39.804688 37.589844 39.804688 38.585938 Z M 34.113281 33.625 L 34.113281 30.371094 C 33.164063 30.542969 32.6875 31.039063 32.6875 31.859375 C 32.6875 32.578125 33.164063 33.164063 34.113281 33.625 Z M 37.078125 38.730469 C 37.078125 38.066406 36.585938 37.519531 35.613281 37.089844 L 35.613281 40.195313 C 36.585938 40.039063 37.078125 39.550781 37.078125 38.730469 Z M 37.078125 38.730469 "/>
<path style=" stroke:none;fill-rule:nonzero;fill:rgb(39,163,255);fill-opacity:1;" d="M 35 54.335938 C 24.320313 54.335938 15.664063 45.679688 15.664063 35 C 15.664063 24.324219 24.320313 15.667969 35 15.667969 C 45.675781 15.667969 54.332031 24.320313 54.332031 35 L 70 35 C 70 15.671875 54.328125 0 35 0 C 15.667969 0.00390625 0 15.671875 0 35 C 0 54.332031 15.667969 70 35 70 C 43.949219 70 52.109375 66.636719 58.296875 61.113281 L 47.859375 49.410156 C 44.4375 52.464844 39.941406 54.335938 35 54.335938 Z M 35 54.335938 "/>
<use xlink:href="#surface5" mask="url(#mask0)"/>
<path style=" stroke:none;fill-rule:nonzero;fill:rgb(147,209,255);fill-opacity:1;" d="M 70 35 L 54.332031 35 C 54.332031 40.734375 51.824219 45.871094 47.859375 49.410156 L 58.296875 61.113281 C 65.476563 54.699219 70 45.382813 70 35 "/>
<use xlink:href="#surface8" mask="url(#mask1)"/>
</g>
</svg>
