<?xml version="1.0" encoding="UTF-8"?>
<svg xmlns="http://www.w3.org/2000/svg" xmlns:xlink="http://www.w3.org/1999/xlink" width="70pt" height="70pt" viewBox="0 0 70 70" version="1.1">
<defs>
<filter id="alpha" filterUnits="objectBoundingBox" x="0%" y="0%" width="100%" height="100%">
  <feColorMatrix type="matrix" in="SourceGraphic" values="0 0 0 0 1 0 0 0 0 1 0 0 0 0 1 0 0 0 1 0"/>
</filter>
<mask id="mask0">
  <g filter="url(#alpha)">
<rect x="0" y="0" width="70" height="70" style="fill:rgb(0%,0%,0%);fill-opacity:0.4;stroke:none;"/>
  </g>
</mask>
<clipPath id="clip1">
  <rect x="0" y="0" width="70" height="70"/>
</clipPath>
<g id="surface5" clip-path="url(#clip1)">
<path style=" stroke:none;fill-rule:nonzero;fill:rgb(100%,54.901961%,0%);fill-opacity:1;" d="M 31.820313 61.546875 L 34.660156 64.34375 L 34.660156 42.011719 L 31.820313 40.609375 Z M 31.820313 61.546875 "/>
</g>
<mask id="mask1">
  <g filter="url(#alpha)">
<rect x="0" y="0" width="70" height="70" style="fill:rgb(0%,0%,0%);fill-opacity:0.501961;stroke:none;"/>
  </g>
</mask>
<clipPath id="clip2">
  <rect x="0" y="0" width="70" height="70"/>
</clipPath>
<g id="surface8" clip-path="url(#clip2)">
<path style=" stroke:none;fill-rule:nonzero;fill:rgb(100%,100%,100%);fill-opacity:1;" d="M 22.214844 19.0625 L 48.3125 19.0625 L 48.3125 22.8125 L 22.214844 22.8125 Z M 22.214844 25.167969 L 48.3125 25.167969 L 48.3125 28.917969 L 22.214844 28.917969 Z M 22.214844 25.167969 "/>
</g>
</defs>
<g id="surface1">
<path style=" stroke:none;fill-rule:nonzero;fill:rgb(98.823529%,81.960784%,8.627451%);fill-opacity:1;" d="M 55.070313 27.335938 C 58.183594 24.226563 58.183594 19.183594 55.070313 16.070313 L 41.335938 2.332031 C 38.222656 -0.777344 33.179688 -0.777344 30.070313 2.332031 L 16.332031 16.070313 C 13.222656 19.183594 13.222656 24.222656 16.332031 27.335938 L 28.417969 39.421875 L 28.417969 62.71875 L 35.703125 70 L 42.027344 63.675781 L 42.027344 63.628906 L 45.742188 59.914063 L 42.058594 56.234375 L 45.742188 52.554688 L 42.058594 48.871094 L 45.742188 45.191406 L 42.027344 41.476563 L 42.027344 40.378906 Z M 35.703125 5.65625 C 37.335938 5.625 38.859375 6.480469 39.683594 7.890625 C 40.511719 9.300781 40.511719 11.050781 39.683594 12.460938 C 38.859375 13.871094 37.335938 14.726563 35.703125 14.695313 C 33.238281 14.652344 31.261719 12.640625 31.261719 10.175781 C 31.261719 7.710938 33.238281 5.699219 35.703125 5.65625 Z M 35.703125 5.65625 "/>
<use xlink:href="#surface5" mask="url(#mask0)"/>
<use xlink:href="#surface8" mask="url(#mask1)"/>
</g>
</svg>
