<?xml version="1.0" encoding="UTF-8"?>
<svg xmlns="http://www.w3.org/2000/svg" xmlns:xlink="http://www.w3.org/1999/xlink" width="70pt" height="70pt" viewBox="0 0 70 70" version="1.1">
<defs>
<radialGradient id="radial0" gradientUnits="userSpaceOnUse" cx="7.18" cy="9.5" fx="7.18" fy="9.5" r="7.38" gradientTransform="matrix(3.888889,0,0,3.888889,0,0)">
<stop offset="0" style="stop-color:rgb(46.27451%,73.72549%,17.647059%);stop-opacity:1;"/>
<stop offset="0.41" style="stop-color:rgb(45.490196%,72.54902%,17.254902%);stop-opacity:1;"/>
<stop offset="0.66" style="stop-color:rgb(43.529412%,69.411765%,16.470588%);stop-opacity:1;"/>
<stop offset="0.88" style="stop-color:rgb(40%,63.529412%,15.294118%);stop-opacity:1;"/>
<stop offset="1" style="stop-color:rgb(36.862745%,58.823529%,14.117647%);stop-opacity:1;"/>
</radialGradient>
</defs>
<g id="surface1">
<path style=" stroke:none;fill-rule:nonzero;fill:rgb(14.509804%,50.980392%,46.666667%);fill-opacity:1;" d="M 38.890625 39.820313 C 38.964844 40.972656 38.519531 42.101563 37.683594 42.894531 C 36.722656 43.746094 35.503906 44.25 34.222656 44.332031 L 34.222656 46.667969 L 32.511719 46.667969 L 32.511719 44.253906 C 31.019531 44.246094 29.550781 43.871094 28.234375 43.167969 L 28.234375 40.015625 C 28.828125 40.441406 29.484375 40.769531 30.179688 40.988281 C 30.929688 41.265625 31.714844 41.449219 32.511719 41.535156 L 32.511719 37.488281 C 31.195313 37.070313 29.984375 36.367188 28.972656 35.429688 C 27.480469 33.660156 27.582031 31.046875 29.207031 29.398438 C 30.109375 28.546875 31.273438 28.027344 32.511719 27.921875 L 32.511719 25.785156 L 34.183594 25.785156 L 34.183594 27.882813 C 35.417969 27.882813 36.636719 28.148438 37.761719 28.660156 L 37.761719 31.773438 C 36.667969 31.117188 35.449219 30.707031 34.183594 30.566406 L 34.183594 35 C 35.523438 35.414063 36.746094 36.132813 37.761719 37.101563 C 38.480469 37.824219 38.882813 38.800781 38.890625 39.820313 Z M 32.511719 34.261719 L 32.511719 30.644531 C 31.683594 30.726563 31.066406 31.445313 31.109375 32.277344 C 31.109375 33.09375 31.617188 33.753906 32.667969 34.261719 Z M 35.816406 39.976563 C 35.816406 39.238281 35.273438 38.65625 34.183594 38.148438 L 34.183594 41.648438 C 35.273438 41.457031 35.816406 40.910156 35.816406 39.976563 Z M 35.816406 39.976563 "/>
<path style=" stroke:none;fill-rule:nonzero;fill:rgb(100%,79.215686%,0%);fill-opacity:1;" d="M 64.320313 36.90625 L 50.320313 36.90625 C 50.316406 41.808594 48.222656 46.476563 44.566406 49.738281 L 53.859375 60.199219 C 60.53125 54.28125 64.339844 45.785156 64.320313 36.867188 "/>
<path style=" stroke:none;fill-rule:nonzero;fill:url(#radial0);" d="M 33.132813 54.171875 C 23.617188 54.171875 15.90625 46.460938 15.90625 36.945313 C 15.90625 27.429688 23.617188 19.714844 33.132813 19.714844 L 33.132813 5.792969 C 15.949219 5.792969 2.023438 19.722656 2.023438 36.90625 C 2.023438 54.085938 15.949219 68.015625 33.132813 68.015625 C 40.777344 68.0625 48.167969 65.292969 53.898438 60.238281 L 44.566406 49.777344 C 41.433594 52.609375 37.359375 54.175781 33.132813 54.171875 Z M 33.132813 54.171875 "/>
<path style=" stroke:none;fill-rule:nonzero;fill:rgb(80%,80%,80%);fill-opacity:1;" d="M 31.695313 1.867188 L 31.695313 18.042969 C 37.058594 17.960938 42.230469 20.054688 46.019531 23.851563 C 49.808594 27.652344 51.894531 32.824219 51.800781 38.1875 L 68.054688 38.1875 C 68.054688 28.550781 64.222656 19.304688 57.402344 12.492188 C 50.582031 5.679688 41.335938 1.855469 31.695313 1.867188 Z M 31.695313 1.867188 "/>
<path style=" stroke:none;fill-rule:nonzero;fill:rgb(60%,60%,60%);fill-opacity:1;" d="M 51.878906 38.1875 C 51.984375 27.199219 43.1875 18.195313 32.199219 18.042969 L 31.695313 18.042969 L 32.976563 20.457031 C 41.867188 20.976563 48.949219 28.089844 49.429688 36.984375 Z M 51.878906 38.1875 "/>
</g>
</svg>
