<?xml version="1.0" encoding="UTF-8"?>
<svg xmlns="http://www.w3.org/2000/svg" xmlns:xlink="http://www.w3.org/1999/xlink" width="70pt" height="70pt" viewBox="0 0 70 70" version="1.1">
<defs>
<linearGradient id="linear0" gradientUnits="userSpaceOnUse" x1="-6941.93" y1="-2082.96" x2="-6941.93" y2="-2101.68" gradientTransform="matrix(1.944444,0,0,-1.944444,13519.333333,-4018.972222)">
<stop offset="0" style="stop-color:rgb(41,164,255);stop-opacity:1;"/>
<stop offset="0.18" style="stop-color:rgb(35,161,255);stop-opacity:1;"/>
<stop offset="0.41" style="stop-color:rgb(17,154,255);stop-opacity:1;"/>
<stop offset="0.66" style="stop-color:rgb(0,139,242);stop-opacity:1;"/>
<stop offset="0.94" style="stop-color:rgb(0,114,198);stop-opacity:1;"/>
<stop offset="1" style="stop-color:rgb(0,108,188);stop-opacity:1;"/>
</linearGradient>
<linearGradient id="linear1" gradientUnits="userSpaceOnUse" x1="11.5" y1="12.45" x2="11.5" y2="0.55" gradientTransform="matrix(3.888889,0,0,3.888889,0,0)">
<stop offset="0" style="stop-color:rgb(0,124,216);stop-opacity:1;"/>
<stop offset="0.24" style="stop-color:rgb(3,148,255);stop-opacity:1;"/>
<stop offset="0.53" style="stop-color:rgb(45,165,255);stop-opacity:1;"/>
<stop offset="0.79" style="stop-color:rgb(69,176,255);stop-opacity:1;"/>
<stop offset="1" style="stop-color:rgb(79,180,255);stop-opacity:1;"/>
</linearGradient>
</defs>
<g id="surface1">
<path style=" stroke:none;fill-rule:nonzero;fill:url(#linear0);" d="M 21.738281 51.0625 L 38.539063 51.0625 L 38.539063 66.109375 C 38.539063 67.183594 37.667969 68.054688 36.59375 68.054688 L 21.738281 68.054688 Z M 4.472656 67.859375 L 18.9375 67.859375 L 18.9375 51.0625 L 2.140625 51.0625 L 2.140625 65.527344 C 2.140625 66.816406 3.183594 67.859375 4.472656 67.859375 Z M 2.140625 48.417969 L 18.9375 48.417969 L 18.9375 31.460938 L 4.082031 31.460938 C 3.007813 31.460938 2.140625 32.332031 2.140625 33.40625 Z M 2.140625 48.417969 "/>
<path style=" stroke:none;fill-rule:evenodd;fill:url(#linear1);" d="M 44.722656 2.140625 C 50.914063 2.074219 56.863281 4.519531 61.222656 8.914063 C 65.582031 13.308594 67.976563 19.28125 67.859375 25.472656 C 67.925781 31.628906 65.507813 37.550781 61.152344 41.902344 C 56.800781 46.257813 50.878906 48.675781 44.722656 48.609375 L 21.582031 48.609375 L 21.582031 25.277344 C 21.519531 19.121094 23.9375 13.199219 28.289063 8.847656 C 32.644531 4.492188 38.566406 2.074219 44.722656 2.140625 Z M 44.722656 2.140625 "/>
<path style=" stroke:none;fill-rule:nonzero;fill:rgb(255,255,255);fill-opacity:1;" d="M 58.957031 12.601563 C 56.808594 12.601563 55.066406 14.339844 55.066406 16.488281 C 55.070313 17.367188 55.375 18.214844 55.921875 18.898438 L 49.429688 30.527344 L 48.921875 30.527344 C 48.191406 30.535156 47.476563 30.753906 46.859375 31.148438 L 41.84375 26.015625 C 42.046875 25.535156 42.15625 25.019531 42.15625 24.5 C 42.15625 22.296875 40.371094 20.515625 38.167969 20.515625 C 35.96875 20.515625 34.183594 22.296875 34.183594 24.5 C 34.191406 25.15625 34.367188 25.796875 34.6875 26.367188 L 30.140625 32.355469 C 29.777344 32.316406 29.410156 32.316406 29.050781 32.355469 C 26.902344 32.355469 25.160156 34.097656 25.160156 36.246094 C 25.160156 38.390625 26.902344 40.132813 29.050781 40.132813 C 31.199219 40.132813 32.9375 38.390625 32.9375 36.246094 C 32.921875 35.601563 32.75 34.976563 32.433594 34.417969 L 37.214844 28.390625 C 37.539063 28.429688 37.867188 28.429688 38.1875 28.390625 C 38.671875 28.367188 39.144531 28.261719 39.589844 28.078125 L 45.070313 33.832031 C 45.054688 34.066406 45.054688 34.300781 45.070313 34.535156 C 45.070313 36.679688 46.8125 38.421875 48.960938 38.421875 C 51.109375 38.421875 52.851563 36.679688 52.851563 34.535156 C 52.824219 33.695313 52.554688 32.886719 52.070313 32.199219 L 58.566406 20.535156 L 58.957031 20.535156 C 61.101563 20.535156 62.84375 18.792969 62.84375 16.644531 C 62.886719 15.585938 62.496094 14.558594 61.761719 13.792969 C 61.027344 13.03125 60.015625 12.597656 58.957031 12.601563 Z M 58.957031 12.601563 "/>
</g>
</svg>
