<?xml version="1.0" encoding="utf-8"?><svg version="1.1" xmlns="http://www.w3.org/2000/svg" xmlns:xlink="http://www.w3.org/1999/xlink" xmlns:xml="http://www.w3.org/XML/1998/namespace" width="70" height="70" viewBox="0, 0, 18, 18" id="a4532404-4c5c-4d46-bcf5-7eb251bd3d88"><defs><linearGradient x1="-6941.93" y1="-2082.96" x2="-6941.93" y2="-2101.68" gradientUnits="userSpaceOnUse" gradientTransform="matrix(0.5, 0, 0, -0.5, 3476.4, -1033.45)" id="beb91629-a2bd-40af-be99-914b769571a4"><stop offset="0%" stop-color="#29A4FF" /><stop offset="18%" stop-color="#23A1FF" /><stop offset="41%" stop-color="#119AFF" /><stop offset="66%" stop-color="#008BF2" /><stop offset="94%" stop-color="#0072C6" /><stop offset="100%" stop-color="#006CBC" /></linearGradient><linearGradient x1="11.5" y1="12.45" x2="11.5" y2="0.55" gradientUnits="userSpaceOnUse" id="b166d928-c1e7-4c12-bb3f-f2e4856c02db"><stop offset="0%" stop-color="#007CD8" /><stop offset="24%" stop-color="#0394FF" /><stop offset="53%" stop-color="#2DA5FF" /><stop offset="79%" stop-color="#45B0FF" /><stop offset="100%" stop-color="#4FB4FF" /></linearGradient></defs><title>Icon-manage-321</title><path d="M5.59 13.13 H9.91 V17 a0.5 0.5 0 0 1 -0.5 0.5 H5.59 Z M1.15 17.45 H4.87 V13.13 H0.55 v3.72 A0.6 0.6 0 0 0 1.15 17.45 Z m-0.6 -5 H4.87 V8.09 H1.05 a0.5 0.5 0 0 0 -0.5 0.5 Z" style="fill:url(#beb91629-a2bd-40af-be99-914b769571a4);" /><path d="M11.5 0.55 a5.89 5.89 0 0 1 5.95 6 a5.89 5.89 0 0 1 -5.95 5.95 H5.55 V6.5 A5.89 5.89 0 0 1 11.5 0.55 Z" fill-rule="evenodd" style="fill:url(#b166d928-c1e7-4c12-bb3f-f2e4856c02db);" /><path d="M15.16 3.24 a1 1 0 0 0 -1 1 a1 1 0 0 0 0.22 0.62 L12.71 7.85 h-0.13 a1 1 0 0 0 -0.53 0.16 L10.76 6.69 a1 1 0 0 0 0.08 -0.39 a1 1 0 1 0 -2.05 0 a1 1 0 0 0 0.13 0.48 L7.75 8.32 a1.26 1.26 0 0 0 -0.28 0 a1 1 0 1 0 1 1 a1 1 0 0 0 -0.13 -0.47 L9.57 7.3 a1 1 0 0 0 0.25 0 a1.05 1.05 0 0 0 0.36 -0.08 L11.59 8.7 a1.1 1.1 0 0 0 0 0.18 a1 1 0 0 0 2 0 a1.1 1.1 0 0 0 -0.2 -0.6 l1.67 -3 h0.1 a1 1 0 0 0 1 -1 A1 1 0 0 0 15.16 3.24 Z" style="fill:white;" /></svg>