<?xml version="1.0" encoding="utf-8"?><svg version="1.1" xmlns="http://www.w3.org/2000/svg" xmlns:xlink="http://www.w3.org/1999/xlink" xmlns:xml="http://www.w3.org/XML/1998/namespace" width="70" height="70" viewBox="0, 0, 18, 18"><defs><linearGradient x1="9" y1="17.86" x2="9" y2="4.06" gradientUnits="userSpaceOnUse" id="b0415b5b-3b98-48a9-9263-d680ffce93e8"><stop offset="0%" stop-color="#0078D4" /><stop offset="16%" stop-color="#1380DA" /><stop offset="53%" stop-color="#3C91E5" /><stop offset="82%" stop-color="#559CEC" /><stop offset="100%" stop-color="#5EA0EF" /></linearGradient></defs><title>Icon471-AzureLighthouse</title><g id="e5b0933f-d08a-4ba0-b46b-ca75717b991a"><path d="M16.65 17.08 L13.06 7.76 a0.28 0.28 0 0 0 -0.26 -0.18 H10.24 V5.36 a1.3 1.3 0 1 0 -2.59 0 V7.58 H5.34 a0.29 0.29 0 0 0 -0.27 0.18 L1.35 17.08 a0.55 0.55 0 0 0 0.45 0.78 H16.2 A0.55 0.55 0 0 0 16.65 17.08 Z" style="fill:url(#b0415b5b-3b98-48a9-9263-d680ffce93e8);" /><path d="M3.37 12 L12 7.58 h0.75 a0.28 0.28 0 0 1 0.27 0.19 l0.83 2.15 L1.8 16 Z" style="fill:#83B9F9;" /><path d="M9.54 17.84 l6 -3.6 l1.09 2.84 a0.56 0.56 0 0 1 -0.46 0.78 Z" style="fill:#83B9F9;" /><path d="M8.87 0.16 L4.75 2.55 a0.16 0.16 0 0 0 -0.08 0.14 v0.37 a0.16 0.16 0 0 0 0.16 0.16 h0.62 V7.58 h0.78 V3.22 h5.44 V7.58 h0.77 V3.22 h0.63 a0.16 0.16 0 0 0 0.16 -0.16 V2.69 a0.16 0.16 0 0 0 -0.08 -0.14 L9 0.16 A0.22 0.22 0 0 0 8.87 0.16 Z" style="fill:#0078D4;" /></g></svg>