<?xml version="1.0" encoding="utf-8"?><svg version="1.1" xmlns="http://www.w3.org/2000/svg" xmlns:xlink="http://www.w3.org/1999/xlink" xmlns:xml="http://www.w3.org/XML/1998/namespace" width="70" height="70" viewBox="0, 0, 18, 18" id="ae4df50d-5710-4260-8ee6-bad0cb48dead"><defs><linearGradient x1="13.31" y1="0.23" x2="6.51" y2="15" gradientUnits="userSpaceOnUse" id="b1a613f6-50f9-42fe-ac44-c79cd2718830"><stop offset="0%" stop-color="#552F99" /><stop offset="7%" stop-color="#643DAA" /><stop offset="20%" stop-color="#7C53C5" /><stop offset="35%" stop-color="#8F64DA" /><stop offset="51%" stop-color="#9C71E9" /><stop offset="70%" stop-color="#A478F1" /><stop offset="100%" stop-color="#A67AF4" /></linearGradient></defs><title>Icon-manage-313</title><g><path d="M9.42 11.66 h0 l2.4 -1.33 a0.07 0.07 0 0 0 0 -0.06 V7.6 a0.07 0.07 0 0 0 0 -0.06 h-0.07 L9.38 8.87 a0.05 0.05 0 0 0 0 0.05 v2.67 a0.07 0.07 0 0 0 0 0.06 h0 m0 3.34 h0 l2.4 -1.33 a0.07 0.07 0 0 0 0 -0.06 V10.94 a0.07 0.07 0 0 0 0 -0.06 a0.09 0.09 0 0 0 -0.07 0 l-2.4 1.33 a0.05 0.05 0 0 0 0 0 v2.67 a0.07 0.07 0 0 0 0 0.06 h0 m3.1 -5 h0 L15 8.65 a0.06 0.06 0 0 0 0 -0.06 V5.93 a0.06 0.06 0 0 0 0 -0.06 h-0.08 L12.49 7.2 a0.05 0.05 0 0 0 0 0 V9.92 a0.06 0.06 0 0 0 0 0.06 h0 m0 3.34 h0 L15 12 a0.06 0.06 0 0 0 0 -0.06 V9.27 a0.06 0.06 0 0 0 0 -0.06 a0.11 0.11 0 0 0 -0.08 0 l-2.39 1.33 a0.05 0.05 0 0 0 0 0.05 v2.67 a0.06 0.06 0 0 0 0 0.06 h0" style="fill:#198AB3;" /><path d="M8.57 11.66 h0 L6.14 10.32 a0.05 0.05 0 0 1 0 -0.06 V7.6 a0.06 0.06 0 0 1 0 -0.06 h0.07 l2.4 1.33 a0.06 0.06 0 0 1 0 0.06 v2.66 a0.07 0.07 0 0 1 0 0.06 h0" style="fill:#32BEDD;" /><path d="M8.57 15 h0 L6.14 13.66 a0.05 0.05 0 0 1 0 -0.06 V10.94 a0.05 0.05 0 0 1 0 -0.06 a0.09 0.09 0 0 1 0.07 0 l2.4 1.33 a0.06 0.06 0 0 1 0 0.06 v2.66 a0.07 0.07 0 0 1 0 0.06 h0" style="fill:#32BEDD;" /><path d="M5.46 10 h0 L3 8.65 a0.07 0.07 0 0 1 0 -0.06 V5.93 a0.08 0.08 0 0 1 0 -0.06 h0.08 L5.5 7.2 a0.07 0.07 0 0 1 0 0.06 V9.92 a0.08 0.08 0 0 1 0 0.06 h0" style="fill:#32BEDD;" /><path d="M5.46 13.33 h0 L3 12 a0.07 0.07 0 0 1 0 -0.06 V9.27 a0.07 0.07 0 0 1 0 -0.06 a0.11 0.11 0 0 1 0.08 0 L5.5 10.54 a0.07 0.07 0 0 1 0 0.06 v2.66 a0.08 0.08 0 0 1 0 0.06 h0" style="fill:#32BEDD;" /><path d="M6.44 6.81 l0 0 L9 5.44 a0.08 0.08 0 0 1 0.08 0 l2.45 1.34 a0.06 0.06 0 0 1 0 0.06 a0.07 0.07 0 0 1 0 0.06 L9 8.24 a0 0 0 0 1 -0.07 0 L6.47 6.91 a0.1 0.1 0 0 1 0 -0.07 s0 0 0 0" style="fill:#50E6FF;" /><path d="M3.21 5.05 l0 0 L5.69 3.67 h0.07 L8.19 5 a0.06 0.06 0 0 1 0 0.06 a0.07 0.07 0 0 1 0 0.06 L5.74 6.48 H5.66 L3.23 5.14 a0.06 0.06 0 0 1 0 -0.06 a0 0 0 0 1 0 0" style="fill:#50E6FF;" /><path d="M9.75 5.08 l0 0 L12.23 3.7 a0.09 0.09 0 0 1 0.07 0 L14.73 5 a0.08 0.08 0 0 1 0 0.06 a0.07 0.07 0 0 1 0 0.06 L12.28 6.51 H12.2 L9.77 5.17 a0.06 0.06 0 0 1 0 -0.06 a0 0 0 0 1 0 0" style="fill:#50E6FF;" /><path d="M6.45 3.34 l0 0 L9 2 A0.11 0.11 0 0 1 9 2 L11.5 3.3 a0.07 0.07 0 0 1 0 0.06 a0.05 0.05 0 0 1 0 0.06 L9 4.75 H8.94 L6.48 3.43 a0.07 0.07 0 0 1 0 -0.05 s0 0 0 0" style="fill:#50E6FF;" /><path d="M17.57 4.48 c-0.66 -1.09 -2.2 -1.52 -4.35 -1.2 l-0.26 0 l1.91 1 a2.07 2.07 0 0 1 1.73 0.75 h0 c0.4 0.67 0.06 1.81 -0.93 3.14 a17.45 17.45 0 0 1 -5 4.23 A17.33 17.33 0 0 1 4.61 14.8 c-1.64 0.25 -2.81 0 -3.21 -0.66 s-0.09 -1.69 0.77 -2.92 V9.39 c-0.27 0.31 -0.5 0.61 -0.75 0.94 c-1.29 1.73 -1.65 3.29 -1 4.39 a3.33 3.33 0 0 0 3 1.3 a8.92 8.92 0 0 0 1.31 -0.1 a18.71 18.71 0 0 0 6.5 -2.52 a18.6 18.6 0 0 0 5.3 -4.53 C17.87 7.14 18.23 5.58 17.57 4.48 Z" style="fill:url(#b1a613f6-50f9-42fe-ac44-c79cd2718830);" /></g></svg>