<?xml version="1.0" encoding="utf-8"?><svg version="1.1" xmlns="http://www.w3.org/2000/svg" xmlns:xlink="http://www.w3.org/1999/xlink" xmlns:xml="http://www.w3.org/XML/1998/namespace" width="70" height="70" viewBox="0, 0, 18, 18"><defs><linearGradient x1="9" y1="19.848" x2="9" y2="-1.014" gradientUnits="userSpaceOnUse" gradientTransform="translate(9, -3.728) rotate(45, 0, 0)" id="a64c437a-1e67-4917-b2c6-ed565684b341"><stop offset="0%" stop-color="#5E9624" /><stop offset="54.6%" stop-color="#6DAD2A" /><stop offset="99.9%" stop-color="#76BC2D" /></linearGradient></defs><title>MsPortalFx.base.images-53</title><g id="abfd8800-7f3b-41a2-9511-cff9e496f906"><g><rect x="2.46" y="2.46" width="13.079" height="13.079" rx="0.6" transform="translate(-3.728, 9) rotate(-45, 0, 0)" style="fill:url(#a64c437a-1e67-4917-b2c6-ed565684b341);" /><path d="M11.839 6.505 V5.853 l-0.091 -0.034 l-0.7 -0.229 l-0.183 -0.446 l0.355 -0.755 l-0.458 -0.458 l-0.092 0.046 l-0.652 0.332 l-0.446 -0.183 l-0.286 -0.79 H8.636 L8.6 3.428 l-0.229 0.7 l-0.446 0.183 l-0.744 -0.355 l-0.458 0.458 l0.046 0.091 l0.332 0.652 L6.92 5.6 l-0.8 0.286 v0.652 l0.092 0.035 l0.7 0.229 l0.184 0.446 L6.737 8 l0.457 0.457 l0.092 -0.045 l0.652 -0.332 l0.446 0.183 l0.286 0.789 h0.652 l0.035 -0.091 l0.229 -0.7 l0.446 -0.183 l0.755 0.355 l0.457 -0.458 L11.2 7.889 l-0.332 -0.652 l0.183 -0.446 Z m-2.86 0.947 A1.256 1.256 0 1 1 10.234 6.2 A1.255 1.255 0 0 1 8.979 7.452 Z" style="fill:white;" /><path d="M10.512 10.914 L9.719 10.9 L9.177 10.9 l-0.39 -0.006 A1.511 1.511 0 0 0 7.337 12.2 l0.542 0.008 a0.949 0.949 0 0 1 0.9 -0.728 l0.39 0.006 l0.542 0.008 l0.794 0.011 a1.041 1.041 0 0 1 -0.03 2.069 l-1.725 -0.025 a0.948 0.948 0 0 1 -0.878 -0.753 l-0.543 -0.008 A1.511 1.511 0 0 0 8.74 14.134 l1.726 0.025 a1.547 1.547 0 0 0 1.478 -1.6 A1.547 1.547 0 0 0 10.512 10.914 Z" style="fill:white;" /><path d="M8.269 12.21 l-0.39 -0.005 L7.337 12.2 l-0.794 -0.012 a1.04 1.04 0 0 1 0.03 -2.068 l1.725 0.025 a0.95 0.95 0 0 1 0.879 0.753 l0.542 0.007 A1.513 1.513 0 0 0 8.307 9.553 L6.581 9.528 A1.548 1.548 0 0 0 5.1 11.13 a1.548 1.548 0 0 0 1.432 1.644 l0.793 0.011 l0.543 0.008 l0.389 0.006 a1.511 1.511 0 0 0 1.45 -1.308 l-0.542 -0.008 A0.948 0.948 0 0 1 8.269 12.21 Z" style="fill:#B4EC36;" /><circle cx="8.979" cy="6.196" r="0.85" style="fill:#B4EC36;" /></g></g></svg>