<?xml version="1.0" encoding="UTF-8"?>
<svg xmlns="http://www.w3.org/2000/svg" xmlns:xlink="http://www.w3.org/1999/xlink" width="70pt" height="70pt" viewBox="0 0 70 70" version="1.1">
<defs>
<linearGradient id="linear0" gradientUnits="userSpaceOnUse" x1="9" y1="19.848" x2="9" y2="-1.014" gradientTransform="matrix(3.888889,-0.000000000000000009,0.000000000000000009,3.888889,-0.000517415,-0.00021432)">
<stop offset="0" style="stop-color:rgb(36.862745%,58.823529%,14.117647%);stop-opacity:1;"/>
<stop offset="0.546" style="stop-color:rgb(42.745098%,67.843137%,16.470588%);stop-opacity:1;"/>
<stop offset="0.999" style="stop-color:rgb(46.27451%,73.72549%,17.647059%);stop-opacity:1;"/>
</linearGradient>
</defs>
<g id="surface1">
<path style=" stroke:none;fill-rule:nonzero;fill:url(#linear0);" d="M 0.679688 33.351563 L 33.347656 0.683594 C 34.257813 -0.226563 35.734375 -0.226563 36.648438 0.683594 L 69.3125 33.351563 C 70.222656 34.261719 70.222656 35.738281 69.3125 36.648438 L 36.648438 69.316406 C 35.734375 70.226563 34.257813 70.226563 33.347656 69.316406 L 0.679688 36.648438 C -0.230469 35.738281 -0.230469 34.261719 0.679688 33.351563 Z M 0.679688 33.351563 "/>
<path style=" stroke:none;fill-rule:nonzero;fill:rgb(100%,100%,100%);fill-opacity:1;" d="M 46.039063 25.296875 L 46.039063 22.761719 L 45.6875 22.628906 L 42.964844 21.738281 L 42.253906 20.003906 L 43.632813 17.066406 L 41.851563 15.289063 L 41.496094 15.464844 L 38.957031 16.757813 L 37.222656 16.046875 L 36.113281 12.972656 L 33.585938 12.972656 L 33.445313 13.332031 L 32.554688 16.054688 L 30.820313 16.765625 L 27.925781 15.382813 L 26.144531 17.164063 L 26.324219 17.519531 L 27.613281 20.054688 L 26.910156 21.777344 L 23.800781 22.890625 L 23.800781 25.425781 L 24.15625 25.5625 L 26.878906 26.453125 L 27.59375 28.1875 L 26.199219 31.109375 L 27.976563 32.886719 L 28.335938 32.714844 L 30.871094 31.421875 L 32.605469 32.132813 L 33.714844 35.203125 L 36.253906 35.203125 L 36.386719 34.847656 L 37.277344 32.125 L 39.011719 31.414063 L 41.949219 32.796875 L 43.726563 31.015625 L 43.554688 30.679688 L 42.265625 28.144531 L 42.976563 26.410156 Z M 34.917969 28.980469 C 32.941406 28.980469 31.15625 27.789063 30.402344 25.964844 C 29.644531 24.136719 30.066406 22.035156 31.464844 20.636719 C 32.863281 19.242188 34.96875 18.828125 36.792969 19.585938 C 38.617188 20.347656 39.804688 22.132813 39.800781 24.109375 C 39.792969 26.800781 37.609375 28.980469 34.917969 28.980469 Z M 34.917969 28.980469 "/>
<path style=" stroke:none;fill-rule:nonzero;fill:rgb(100%,100%,100%);fill-opacity:1;" d="M 40.878906 42.441406 L 37.796875 42.390625 L 35.6875 42.390625 L 34.171875 42.367188 C 31.304688 42.453125 28.921875 44.601563 28.53125 47.445313 L 30.640625 47.476563 C 31.03125 45.847656 32.464844 44.683594 34.140625 44.644531 L 35.65625 44.667969 L 37.765625 44.699219 L 40.851563 44.742188 C 42.898438 45 44.425781 46.753906 44.394531 48.816406 C 44.363281 50.878906 42.789063 52.589844 40.734375 52.789063 L 34.027344 52.691406 C 32.355469 52.601563 30.957031 51.398438 30.613281 49.761719 L 28.5 49.730469 C 28.808594 52.582031 31.128906 54.792969 33.988281 54.964844 L 40.699219 55.0625 C 44 54.917969 46.566406 52.140625 46.449219 48.839844 C 46.667969 45.539063 44.179688 42.683594 40.878906 42.441406 Z M 40.878906 42.441406 "/>
<path style=" stroke:none;fill-rule:nonzero;fill:rgb(70.588235%,92.54902%,21.176471%);fill-opacity:1;" d="M 32.15625 47.484375 L 30.640625 47.464844 L 28.53125 47.445313 L 25.445313 47.398438 C 23.394531 47.148438 21.859375 45.390625 21.890625 43.324219 C 21.917969 41.257813 23.503906 39.546875 25.5625 39.355469 L 32.269531 39.453125 C 33.941406 39.542969 35.34375 40.742188 35.6875 42.382813 L 37.796875 42.410156 C 37.496094 39.550781 35.175781 37.328125 32.304688 37.152344 L 25.59375 37.054688 C 22.289063 37.195313 19.714844 39.976563 19.832031 43.285156 C 19.621094 46.582031 22.105469 49.4375 25.402344 49.675781 L 28.484375 49.71875 L 30.597656 49.75 L 32.109375 49.773438 C 34.980469 49.683594 37.363281 47.53125 37.75 44.6875 L 35.640625 44.65625 C 35.253906 46.277344 33.824219 47.4375 32.15625 47.484375 Z M 32.15625 47.484375 "/>
<path style=" stroke:none;fill-rule:nonzero;fill:rgb(70.588235%,92.54902%,21.176471%);fill-opacity:1;" d="M 38.222656 24.09375 C 38.222656 25.921875 36.742188 27.402344 34.917969 27.402344 C 33.09375 27.402344 31.613281 25.921875 31.613281 24.09375 C 31.613281 22.269531 33.09375 20.789063 34.917969 20.789063 C 36.742188 20.789063 38.222656 22.269531 38.222656 24.09375 Z M 38.222656 24.09375 "/>
</g>
</svg>
