<?xml version="1.0" encoding="utf-8"?><svg version="1.1" xmlns="http://www.w3.org/2000/svg" xmlns:xlink="http://www.w3.org/1999/xlink" xmlns:xml="http://www.w3.org/XML/1998/namespace" width="70" height="70" viewBox="0, 0, 18, 18" id="b0b75603-46b6-4f8f-91b1-0770f4d80bc9"><defs><linearGradient x1="11.176" y1="7.698" x2="11.176" y2="16.95" gradientUnits="userSpaceOnUse" gradientTransform="matrix(1, 0, 0, -1, 0, 18)" id="bf1351b6-2f7f-4ceb-8808-067f2a41a599"><stop offset="0%" stop-color="#0078D4" /><stop offset="14.9%" stop-color="#1882DB" /><stop offset="37.3%" stop-color="#378FE4" /><stop offset="59.4%" stop-color="#4C99EA" /><stop offset="80.6%" stop-color="#5A9EEE" /><stop offset="100%" stop-color="#5EA0EF" /></linearGradient></defs><path d="M17.7 7.405 a2.93 2.93 0 0 0 -2.544 -2.818 A3.7 3.7 0 0 0 11.35 1.052 A3.793 3.793 0 0 0 7.727 3.523 A3.5 3.5 0 0 0 4.651 6.89 A3.551 3.551 0 0 0 8.326 10.3 a2.494 2.494 0 0 0 0.324 -0.014 H14.6 a0.6 0.6 0 0 0 0.157 -0.024 A2.966 2.966 0 0 0 17.7 7.405 Z" style="fill:url(#bf1351b6-2f7f-4ceb-8808-067f2a41a599);" /><g><path d="M10.777 9.965 l0.019 0.431 l0.428 0.057 a2.54 2.54 0 0 1 2.2 2.43 a2.579 2.579 0 0 1 -2.546 2.5 h-0.044 l-0.032 0.006 l-0.035 -0.007 h-6.6 a3.232 3.232 0 0 1 -1.238 -0.168 a3.375 3.375 0 0 1 -1.106 -0.643 a3.324 3.324 0 0 1 -0.741 -1.035 a3.039 3.039 0 0 1 0.559 -3.21 A3.147 3.147 0 0 1 3.6 9.36 l0.313 -0.037 l0.109 -0.295 a3.487 3.487 0 0 1 1.29 -1.662 a3.434 3.434 0 0 1 2 -0.6 h0.025 a3.338 3.338 0 0 1 3.439 3.2 Z" style="fill:white;" /><path d="M10.791 15.9 l-0.085 -0.019 l-6.539 0 a3.738 3.738 0 0 1 -1.4 -0.194 a3.865 3.865 0 0 1 -1.274 -0.741 a3.815 3.815 0 0 1 -0.867 -1.2 a3.56 3.56 0 0 1 0.644 -3.755 A3.65 3.65 0 0 1 3.549 8.863 l0 -0.008 a3.959 3.959 0 0 1 1.475 -1.9 a3.793 3.793 0 0 1 2.293 -0.689 a3.852 3.852 0 0 1 3.954 3.677 l0.014 0.014 a3.033 3.033 0 0 1 2.635 2.909 a3.078 3.078 0 0 1 -3.04 3.017 Z M7.3 7.266 A2.939 2.939 0 0 0 4.491 9.2 l-0.215 0.583 l-0.617 0.072 A2.654 2.654 0 0 0 2 10.67 a2.546 2.546 0 0 0 -0.46 2.675 a2.8 2.8 0 0 0 0.623 0.863 a2.8 2.8 0 0 0 0.927 0.533 a2.723 2.723 0 0 0 1.043 0.142 h6.677 l0.01 0 h0.01 a2.083 2.083 0 0 0 2.09 -2.016 a2.028 2.028 0 0 0 -1.767 -1.919 l-0.843 -0.111 l-0.037 -0.852 A2.842 2.842 0 0 0 7.353 7.266 Z" style="fill:#50E6FF;" /></g><path d="M5.1 12.5 v-0.3 l-0.307 -0.1 l-0.078 -0.21 l0.15 -0.313 v-0.036 l-0.1 -0.1 l-0.114 -0.121 H4.612 l-0.3 0.151 l-0.21 -0.054 l-0.127 -0.337 h-0.3 l-0.1 0.307 l-0.21 0.078 L3.016 11.3 l-0.216 0.217 v0.036 l0.15 0.3 l-0.084 0.21 L2.5 12.19 v0.3 h0.042 l0.319 0.108 l0.09 0.205 l-0.168 0.349 L3 13.369 h0.036 l0.3 -0.156 l0.21 0.084 l0.133 0.367 h0.3 v-0.042 l0.109 -0.325 l0.2 -0.084 l0.355 0.162 l0.21 -0.21 v-0.042 l-0.132 -0.289 l0.06 -0.211 Z m-1.269 0.277 a0.427 0.427 0 1 1 0.155 -0.822 a0.435 0.435 0 0 1 0.193 0.157 a0.427 0.427 0 0 1 0.072 0.238 a0.422 0.422 0 0 1 -0.4 0.427 Z" style="fill:#0078D4;" /><path d="M3.816 15.905 a3.537 3.537 0 1 1 3.558 -3.537 H6.3 a2.462 2.462 0 1 0 -2.464 2.46 H4.62 a0.056 0.056 0 0 0 0.056 -0.016 a0.063 0.063 0 0 0 0.016 -0.026 a0.076 0.076 0 0 0 0 -0.03 v-0.872 a0.087 0.087 0 0 1 0.052 -0.067 a0.1 0.1 0 0 1 0.083 0.018 l1.5 1.5 a0.082 0.082 0 0 1 0 0.049 a0.079 0.079 0 0 1 -0.027 0.042 l-1.5 1.5 a0.083 0.083 0 0 1 -0.042 0.018 a0.075 0.075 0 0 1 -0.044 -0.007 a0.082 0.082 0 0 1 -0.035 -0.029 a0.074 0.074 0 0 1 -0.014 -0.043 v-0.886 a0.075 0.075 0 0 0 -0.022 -0.053 a0.073 0.073 0 0 0 -0.054 -0.022 H3.816 Z" fill-rule="evenodd" style="fill:#0078D4;" /></svg>