<?xml version="1.0" encoding="UTF-8"?>
<svg xmlns="http://www.w3.org/2000/svg" xmlns:xlink="http://www.w3.org/1999/xlink" width="70pt" height="56pt" viewBox="0 0 70 56" version="1.1">
<g id="surface1">
<path style=" stroke:none;fill-rule:nonzero;fill:rgb(49.803922%,72.941176%,0%);fill-opacity:1;" d="M 49.28125 22.960938 L 48.875 23.929688 L 36.28125 8.902344 L 35.199219 9.800781 L 34.121094 8.902344 L 21.523438 23.929688 L 21.121094 22.960938 L 12.78125 42.859375 L 15.382813 43.9375 L 21.121094 30.238281 L 26.859375 43.9375 L 29.460938 42.859375 L 22.746094 26.84375 L 35.199219 11.988281 L 47.65625 26.84375 L 40.941406 42.859375 L 43.542969 43.9375 L 49.28125 30.238281 L 55.019531 43.9375 L 57.621094 42.859375 Z M 49.28125 22.960938 "/>
<path style=" stroke:none;fill-rule:nonzero;fill:rgb(22.352941%,60%,77.647059%);fill-opacity:1;" d="M 60.546875 43.398438 C 60.546875 45.71875 58.65625 47.601563 56.320313 47.601563 C 53.988281 47.601563 52.097656 45.71875 52.097656 43.398438 C 52.097656 41.082031 53.988281 39.199219 56.320313 39.199219 C 58.65625 39.199219 60.546875 41.082031 60.546875 43.398438 Z M 60.546875 43.398438 "/>
<path style=" stroke:none;fill-rule:nonzero;fill:rgb(22.352941%,60%,77.647059%);fill-opacity:1;" d="M 46.464844 43.398438 C 46.464844 45.71875 44.574219 47.601563 42.242188 47.601563 C 39.90625 47.601563 38.019531 45.71875 38.019531 43.398438 C 38.019531 41.082031 39.90625 39.199219 42.242188 39.199219 C 44.574219 39.199219 46.464844 41.082031 46.464844 43.398438 Z M 46.464844 43.398438 "/>
<path style=" stroke:none;fill-rule:nonzero;fill:rgb(50.196078%,28.627451%,59.607843%);fill-opacity:1;" d="M 42.242188 9.800781 C 42.242188 13.664063 39.089844 16.800781 35.199219 16.800781 C 31.3125 16.800781 28.160156 13.664063 28.160156 9.800781 C 28.160156 5.933594 31.3125 2.800781 35.199219 2.800781 C 39.089844 2.800781 42.242188 5.933594 42.242188 9.800781 Z M 42.242188 9.800781 "/>
<path style=" stroke:none;fill-rule:nonzero;fill:rgb(0%,44.705882%,77.647059%);fill-opacity:1;" d="M 26.753906 26.601563 C 26.753906 29.691406 24.230469 32.199219 21.121094 32.199219 C 18.007813 32.199219 15.488281 29.691406 15.488281 26.601563 C 15.488281 23.507813 18.007813 21 21.121094 21 C 24.230469 21 26.753906 23.507813 26.753906 26.601563 Z M 26.753906 26.601563 "/>
<path style=" stroke:none;fill-rule:nonzero;fill:rgb(0%,44.705882%,77.647059%);fill-opacity:1;" d="M 54.914063 26.601563 C 54.914063 29.691406 52.394531 32.199219 49.28125 32.199219 C 46.171875 32.199219 43.648438 29.691406 43.648438 26.601563 C 43.648438 23.507813 46.171875 21 49.28125 21 C 52.394531 21 54.914063 23.507813 54.914063 26.601563 Z M 54.914063 26.601563 "/>
<path style=" stroke:none;fill-rule:nonzero;fill:rgb(22.352941%,60%,77.647059%);fill-opacity:1;" d="M 32.382813 43.398438 C 32.382813 45.71875 30.496094 47.601563 28.160156 47.601563 C 25.828125 47.601563 23.9375 45.71875 23.9375 43.398438 C 23.9375 41.082031 25.828125 39.199219 28.160156 39.199219 C 30.496094 39.199219 32.382813 41.082031 32.382813 43.398438 Z M 32.382813 43.398438 "/>
<path style=" stroke:none;fill-rule:nonzero;fill:rgb(22.352941%,60%,77.647059%);fill-opacity:1;" d="M 18.304688 43.398438 C 18.304688 45.71875 16.414063 47.601563 14.082031 47.601563 C 11.746094 47.601563 9.855469 45.71875 9.855469 43.398438 C 9.855469 41.082031 11.746094 39.199219 14.082031 39.199219 C 16.414063 39.199219 18.304688 41.082031 18.304688 43.398438 Z M 18.304688 43.398438 "/>
<path style=" stroke:none;fill-rule:nonzero;fill:rgb(47.843137%,47.843137%,47.843137%);fill-opacity:1;" d="M 13.378906 56.558594 C 13.03125 56.53125 12.699219 56.4375 12.390625 56.28125 L 2.816406 50.679688 C 1.128906 49.671875 0.0664063 47.878906 0 45.921875 L 0 10.640625 C 0.03125 8.671875 1.101563 6.863281 2.816406 5.878906 L 12.390625 0.28125 C 13.363281 -0.273438 14.597656 0.046875 15.171875 1 C 15.75 1.953125 15.453125 3.191406 14.503906 3.78125 L 4.925781 9.378906 C 4.535156 9.691406 4.28125 10.144531 4.222656 10.640625 L 4.222656 45.921875 C 4.28125 46.417969 4.535156 46.871094 4.925781 47.179688 L 14.503906 52.78125 C 14.96875 53.058594 15.304688 53.507813 15.441406 54.035156 C 15.570313 54.558594 15.488281 55.117188 15.207031 55.578125 C 14.777344 56.164063 14.105469 56.527344 13.378906 56.558594 Z M 57.023438 0 C 57.371094 0.0273438 57.703125 0.121094 58.011719 0.28125 L 67.585938 5.878906 C 69.273438 6.890625 70.335938 8.679688 70.402344 10.640625 L 70.402344 45.921875 C 70.371094 47.890625 69.300781 49.695313 67.585938 50.679688 L 58.011719 56.28125 C 57.039063 56.835938 55.804688 56.515625 55.230469 55.558594 C 54.652344 54.605469 54.949219 53.371094 55.898438 52.78125 L 65.476563 47.179688 C 65.867188 46.871094 66.121094 46.417969 66.179688 45.921875 L 66.179688 10.640625 C 66.121094 10.144531 65.867188 9.691406 65.476563 9.378906 L 55.898438 3.78125 C 55.433594 3.503906 55.097656 3.050781 54.960938 2.523438 C 54.832031 2 54.914063 1.445313 55.195313 0.980469 C 55.644531 0.421875 56.304688 0.0664063 57.023438 0 Z M 57.023438 0 "/>
</g>
</svg>
