<?xml version="1.0" encoding="UTF-8"?>
<svg xmlns="http://www.w3.org/2000/svg" xmlns:xlink="http://www.w3.org/1999/xlink" width="70pt" height="70pt" viewBox="0 0 70 70" version="1.1">
<defs>
<linearGradient id="linear0" gradientUnits="userSpaceOnUse" x1="6050.2" y1="-3638.83" x2="6038.28" y2="-3638.83" gradientTransform="matrix(0.000000000000000238,3.888889,-3.888889,0.000000000000000238,-14116.005556,-23467.927778)">
<stop offset="0" style="stop-color:rgb(9.803922%,54.117647%,70.196078%);stop-opacity:1;"/>
<stop offset="0" style="stop-color:rgb(9.803922%,54.117647%,70.196078%);stop-opacity:1;"/>
<stop offset="0.11" style="stop-color:rgb(13.333333%,64.705882%,79.607843%);stop-opacity:1;"/>
<stop offset="0.23" style="stop-color:rgb(16.078431%,72.941176%,87.058824%);stop-opacity:1;"/>
<stop offset="0.37" style="stop-color:rgb(18.039216%,78.823529%,92.156863%);stop-opacity:1;"/>
<stop offset="0.53" style="stop-color:rgb(19.215686%,81.960784%,95.294118%);stop-opacity:1;"/>
<stop offset="0.78" style="stop-color:rgb(19.607843%,83.137255%,96.078431%);stop-opacity:1;"/>
</linearGradient>
</defs>
<g id="surface1">
<path style=" stroke:none;fill-rule:nonzero;fill:rgb(9.803922%,54.117647%,70.196078%);fill-opacity:1;" d="M 58.957031 52.539063 C 61.34375 52.300781 63.714844 53.136719 65.429688 54.816406 C 67.140625 56.5 68.019531 58.855469 67.820313 61.25 C 67.507813 63.902344 65.777344 66.175781 63.304688 67.183594 C 60.832031 68.195313 58.003906 67.785156 55.921875 66.109375 C 55.273438 65.609375 54.898438 64.832031 54.910156 64.011719 L 54.910156 52.5 Z M 58.957031 52.539063 "/>
<path style=" stroke:none;fill-rule:nonzero;fill:url(#linear0);" d="M 68.015625 52.5 L 68.015625 17.5 C 67.972656 12.613281 64 8.671875 59.109375 8.671875 L 1.984375 8.671875 L 1.984375 43.671875 C 1.984375 48.589844 5.96875 52.578125 10.890625 52.578125 L 49.464844 52.578125 C 53.351563 52.351563 57.246094 52.351563 61.132813 52.578125 C 68.910156 53.820313 67.511719 62.183594 67.511719 62.183594 C 68.042969 58.984375 68.210938 55.738281 68.015625 52.5 Z M 68.015625 52.5 "/>
<path style=" stroke:none;fill-rule:nonzero;fill:rgb(9.803922%,54.117647%,70.196078%);fill-opacity:1;" d="M 1.945313 44.410156 L 1.945313 44.140625 C 2.359375 41.34375 4.382813 39.050781 7.105469 38.296875 C 9.832031 37.539063 12.746094 38.457031 14.542969 40.640625 C 14.789063 40.910156 15.175781 41.003906 15.519531 40.875 C 15.863281 40.746094 16.09375 40.421875 16.101563 40.054688 L 16.101563 9.644531 C 16.140625 9.269531 16.140625 8.890625 16.101563 8.515625 C 15.476563 5.097656 12.496094 2.613281 9.023438 2.613281 C 5.546875 2.613281 2.566406 5.097656 1.945313 8.515625 C 1.886719 8.890625 1.886719 9.269531 1.945313 9.644531 Z M 1.945313 44.410156 "/>
<path style=" stroke:none;fill-rule:nonzero;fill:rgb(100%,100%,100%);fill-opacity:1;" d="M 47.988281 32.976563 C 47.988281 32.375 47.5 31.890625 46.898438 31.890625 L 43.011719 31.890625 C 42.777344 31.34375 42.582031 30.761719 42.351563 30.214844 C 41.496094 28 40.5625 25.785156 39.667969 23.605469 L 39.355469 22.867188 C 41.964844 22.183594 43.664063 19.664063 43.316406 16.988281 C 42.972656 14.3125 40.691406 12.308594 37.996094 12.308594 C 35.296875 12.308594 33.015625 14.3125 32.671875 16.988281 C 32.328125 19.664063 34.023438 22.183594 36.632813 22.867188 L 36.285156 23.644531 C 35.3125 25.820313 34.378906 28.039063 33.445313 30.253906 L 32.746094 31.964844 L 28.855469 31.964844 C 28.253906 31.964844 27.765625 32.453125 27.765625 33.054688 C 27.753906 33.347656 27.867188 33.632813 28.074219 33.835938 C 28.28125 34.042969 28.5625 34.15625 28.855469 34.144531 L 31.964844 34.144531 C 31.578125 35.078125 31.226563 36.011719 30.878906 36.945313 C 30.023438 39.199219 29.207031 41.457031 28.429688 43.75 C 28.222656 44.199219 28.425781 44.730469 28.875 44.9375 C 29.324219 45.140625 29.855469 44.941406 30.0625 44.488281 C 31.265625 42.390625 32.394531 40.25 33.484375 38.148438 C 34.183594 36.828125 34.84375 35.503906 35.503906 34.261719 L 40.40625 34.261719 L 42.273438 38.148438 C 43.359375 40.289063 44.449219 42.429688 45.578125 44.527344 C 45.804688 44.921875 46.289063 45.085938 46.707031 44.90625 C 47.125 44.726563 47.339844 44.261719 47.210938 43.828125 C 46.511719 41.535156 45.734375 39.277344 44.957031 37.023438 L 43.90625 34.183594 L 46.785156 34.183594 C 47.117188 34.238281 47.457031 34.128906 47.695313 33.890625 C 47.933594 33.652344 48.042969 33.3125 47.988281 32.976563 Z M 35 17.65625 C 35 15.914063 36.410156 14.503906 38.148438 14.503906 C 39.890625 14.503906 41.300781 15.914063 41.300781 17.65625 C 41.300781 19.394531 39.890625 20.804688 38.148438 20.804688 C 36.410156 20.804688 35 19.394531 35 17.65625 Z M 36.671875 31.890625 L 36.671875 31.617188 L 37.957031 28.816406 L 39.199219 31.578125 L 39.199219 31.890625 Z M 36.671875 31.890625 "/>
</g>
</svg>
