<?xml version="1.0" encoding="UTF-8"?>
<svg xmlns="http://www.w3.org/2000/svg" xmlns:xlink="http://www.w3.org/1999/xlink" width="70pt" height="70pt" viewBox="0 0 70 70" version="1.1">
<defs>
<linearGradient id="linear0" gradientUnits="userSpaceOnUse" x1="9" y1="1.48" x2="9" y2="17.07" gradientTransform="matrix(3.888889,0,0,3.888889,0,0)">
<stop offset="0" style="stop-color:rgb(46.27451%,73.72549%,17.647059%);stop-opacity:1;"/>
<stop offset="0.32" style="stop-color:rgb(45.098039%,72.156863%,17.254902%);stop-opacity:1;"/>
<stop offset="0.65" style="stop-color:rgb(42.352941%,67.058824%,16.078431%);stop-opacity:1;"/>
<stop offset="0.99" style="stop-color:rgb(36.862745%,59.215686%,14.117647%);stop-opacity:1;"/>
<stop offset="1" style="stop-color:rgb(36.862745%,58.823529%,14.117647%);stop-opacity:1;"/>
</linearGradient>
<filter id="alpha" filterUnits="objectBoundingBox" x="0%" y="0%" width="100%" height="100%">
  <feColorMatrix type="matrix" in="SourceGraphic" values="0 0 0 0 1 0 0 0 0 1 0 0 0 0 1 0 0 0 1 0"/>
</filter>
<mask id="mask0">
  <g filter="url(#alpha)">
<rect x="0" y="0" width="70" height="70" style="fill:rgb(0%,0%,0%);fill-opacity:0.901961;stroke:none;"/>
  </g>
</mask>
<clipPath id="clip1">
  <rect x="0" y="0" width="70" height="70"/>
</clipPath>
<g id="surface5" clip-path="url(#clip1)">
<path style=" stroke:none;fill-rule:nonzero;fill:rgb(100%,100%,100%);fill-opacity:1;" d="M 35.273438 18.707031 C 33.527344 18.707031 32.105469 17.300781 32.082031 15.554688 C 32.082031 13.792969 33.511719 12.367188 35.273438 12.367188 C 37.035156 12.367188 38.460938 13.792969 38.460938 15.554688 C 38.441406 17.300781 37.019531 18.707031 35.273438 18.707031 Z M 32.082031 56.621094 C 32.082031 58.382813 33.511719 59.8125 35.273438 59.8125 C 37.035156 59.8125 38.460938 58.382813 38.460938 56.621094 C 38.460938 54.859375 37.035156 53.433594 35.273438 53.433594 C 33.511719 53.433594 32.082031 54.859375 32.082031 56.621094 Z M 35.351563 46.121094 C 32.878906 46.371094 30.523438 45.027344 29.476563 42.777344 L 23.839844 43.867188 C 25.539063 48.429688 30.171875 51.207031 35 50.554688 C 41.570313 50.554688 46.316406 47.09375 46.316406 42.273438 C 46.5625 39.039063 44.847656 35.972656 41.960938 34.496094 C 39.695313 33.628906 37.367188 32.925781 35 32.394531 C 32.394531 31.773438 30.722656 30.332031 30.722656 28.503906 C 30.984375 26.398438 32.890625 24.894531 35 25.121094 C 37.042969 25.003906 38.980469 26.039063 40.015625 27.804688 L 44.878906 26.25 C 42.917969 22.714844 39.011719 20.71875 35 21.195313 C 30.410156 21.195313 25.082031 23.214844 25.082031 28.972656 C 25.082031 36.011719 29.398438 37.410156 35.542969 38.617188 C 36.984375 38.890625 40.328125 39.859375 40.328125 42.503906 C 40.171875 43.984375 38.890625 46.121094 35.351563 46.121094 Z M 35.351563 46.121094 "/>
</g>
</defs>
<g id="surface1">
<path style=" stroke:none;fill-rule:nonzero;fill:url(#linear0);" d="M 48.027344 5.753906 L 21.972656 5.753906 C 19.195313 5.757813 16.632813 7.242188 15.246094 9.644531 L 2.253906 32.199219 C 0.867188 34.605469 0.867188 37.570313 2.253906 39.976563 L 15.246094 62.496094 C 16.632813 64.898438 19.195313 66.378906 21.972656 66.382813 L 48.027344 66.382813 C 50.804688 66.378906 53.367188 64.898438 54.753906 62.496094 L 67.746094 39.976563 C 69.132813 37.570313 69.132813 34.605469 67.746094 32.199219 L 54.753906 9.644531 C 53.367188 7.242188 50.804688 5.757813 48.027344 5.753906 Z M 48.027344 5.753906 "/>
<use xlink:href="#surface5" mask="url(#mask0)"/>
</g>
</svg>
