<?xml version="1.0" encoding="UTF-8"?>
<svg xmlns="http://www.w3.org/2000/svg" xmlns:xlink="http://www.w3.org/1999/xlink" width="70pt" height="61pt" viewBox="0 0 70 61" version="1.1">
<g id="surface1">
<path style=" stroke:none;fill-rule:nonzero;fill:rgb(0%,47.058824%,84.313725%);fill-opacity:1;" d="M 64.132813 29.59375 C 64.132813 29.113281 64.132813 28.628906 64.132813 28.148438 L 69.34375 25.257813 C 69.019531 23.492188 68.691406 21.886719 68.042969 20.285156 L 62.019531 20.445313 C 61.53125 19.480469 61.042969 18.679688 60.554688 17.875 L 63.644531 12.738281 C 62.507813 11.453125 61.367188 10.171875 60.066406 9.207031 L 56.972656 10.972656 L 55.667969 12.898438 L 52.902344 16.914063 C 56.808594 19.960938 59.25 24.617188 59.25 29.753906 C 59.25 38.742188 51.925781 45.96875 42.808594 45.96875 C 33.691406 45.96875 26.367188 38.742188 26.367188 29.753906 C 26.367188 21.726563 32.226563 14.984375 40.042969 13.703125 L 41.34375 8.726563 L 38.414063 3.589844 C 36.621094 3.910156 34.996094 4.390625 33.367188 4.871094 L 33.53125 10.8125 C 32.554688 11.292969 31.738281 11.777344 30.925781 12.257813 L 25.714844 9.207031 C 24.414063 10.332031 23.109375 11.453125 22.132813 12.738281 L 25.226563 17.714844 C 24.574219 18.515625 24.25 19.480469 23.761719 20.445313 L 17.738281 20.285156 C 17.085938 21.886719 16.761719 23.492188 16.4375 25.257813 L 21.644531 28.148438 C 21.644531 28.628906 21.644531 29.113281 21.644531 29.59375 C 21.644531 30.074219 21.644531 30.558594 21.644531 31.039063 L 16.4375 33.929688 C 16.761719 35.695313 17.25 37.300781 17.738281 38.90625 L 23.761719 38.742188 C 24.25 39.707031 24.738281 40.507813 25.226563 41.472656 L 22.132813 46.609375 C 23.273438 47.894531 24.414063 49.179688 25.714844 50.300781 L 30.925781 47.25 C 31.738281 47.894531 32.714844 48.375 33.53125 48.695313 L 33.367188 54.636719 C 34.996094 55.277344 36.621094 55.597656 38.414063 55.921875 L 41.34375 50.785156 C 41.832031 50.785156 42.320313 50.945313 42.808594 50.945313 C 43.296875 50.945313 43.785156 50.945313 44.273438 50.785156 L 47.203125 55.921875 C 48.996094 55.597656 50.621094 55.117188 52.25 54.636719 L 52.085938 48.695313 C 53.066406 48.214844 53.878906 47.734375 54.691406 47.25 L 59.902344 50.300781 C 61.203125 49.179688 62.507813 48.054688 63.484375 46.609375 L 60.390625 41.472656 C 60.878906 40.671875 61.53125 39.707031 61.855469 38.742188 L 67.878906 38.90625 C 68.53125 37.300781 68.855469 35.695313 69.179688 33.929688 L 63.972656 31.039063 C 64.132813 30.558594 64.132813 30.074219 64.132813 29.59375 Z M 64.132813 29.59375 "/>
<path style=" stroke:none;fill-rule:nonzero;fill:rgb(0%,47.058824%,84.313725%);fill-opacity:1;" d="M 11.394531 54.285156 C 9.441406 54.285156 7.8125 52.679688 7.8125 50.753906 C 7.8125 48.824219 9.441406 47.21875 11.394531 47.21875 C 13.347656 47.21875 14.976563 48.824219 14.976563 50.753906 C 14.976563 52.679688 13.347656 54.285156 11.394531 54.285156 Z M 18.394531 41.761719 L 15.464844 43.207031 L 13.675781 42.40625 L 12.535156 39.355469 L 9.929688 39.355469 L 8.953125 42.40625 L 7.164063 43.207031 L 4.234375 41.761719 L 2.441406 43.527344 L 3.90625 46.417969 L 3.09375 48.183594 L 0 49.308594 L 0 51.875 L 3.09375 52.839844 L 3.90625 54.605469 L 2.441406 57.492188 L 4.234375 59.261719 L 7.164063 57.816406 L 8.953125 58.617188 L 10.09375 61.667969 L 12.699219 61.667969 L 13.675781 58.617188 L 15.464844 57.816406 L 18.394531 59.261719 L 20.1875 57.492188 L 18.722656 54.605469 L 19.535156 52.839844 L 22.628906 51.714844 L 22.628906 49.148438 L 19.535156 48.183594 L 18.722656 46.417969 L 20.1875 43.527344 Z M 18.394531 41.761719 "/>
<path style=" stroke:none;fill-rule:nonzero;fill:rgb(0%,47.058824%,84.313725%);fill-opacity:1;" d="M 46.132813 0 L 45.15625 3.050781 L 41.898438 13.324219 L 36.855469 28.894531 C 36.691406 29.214844 36.855469 29.375 37.179688 29.375 L 41.738281 29.375 C 41.898438 29.375 42.0625 29.375 42.0625 29.535156 C 42.226563 29.699219 42.226563 29.859375 42.226563 30.019531 L 37.503906 41.414063 C 37.34375 41.738281 37.503906 41.738281 37.667969 41.578125 L 52.644531 24.882813 C 52.808594 24.558594 52.808594 24.398438 52.480469 24.398438 L 46.621094 24.398438 C 46.296875 24.398438 46.132813 24.238281 46.296875 23.917969 L 51.015625 15.730469 L 56.0625 6.742188 L 57.691406 4.011719 C 54.273438 1.765625 50.367188 0.480469 46.132813 0 Z M 46.132813 0 "/>
</g>
</svg>
