<?xml version="1.0" encoding="utf-8"?><svg version="1.1" xmlns="http://www.w3.org/2000/svg" xmlns:xlink="http://www.w3.org/1999/xlink" xmlns:xml="http://www.w3.org/XML/1998/namespace" width="70" height="70" viewBox="0, 0, 18, 18" id="bb70dade-293f-45b2-9a10-be6db017cd74"><defs><linearGradient x1="8.11" y1="6.45" x2="8.11" y2="18.2" gradientUnits="userSpaceOnUse" id="a1b98161-c331-4559-9700-7c3dbf716821"><stop offset="22%" stop-color="#4FB4FF" /><stop offset="100%" stop-color="#007CD8" /></linearGradient><linearGradient x1="7.78" y1="0.15" x2="8.64" y2="10.82" gradientUnits="userSpaceOnUse" id="ae2314f4-c766-47db-ad18-ec313459d520"><stop offset="22%" stop-color="#4FB4FF" /><stop offset="100%" stop-color="#007CD8" /></linearGradient><linearGradient x1="13.49" y1="17.15" x2="13.49" y2="9.35" gradientUnits="userSpaceOnUse" id="e2290250-b7a3-47ee-abfe-de7d410961d8"><stop offset="0%" stop-color="#007FDE" /><stop offset="90%" stop-color="#35A9FF" /></linearGradient></defs><title>Icon-manage-303</title><path d="M13.93 16.08 a1.26 1.26 0 0 0 1.26 -1.25 a0.76 0.76 0 0 0 0 -0.15 c-0.49 -4 -2.75 -7.18 -7 -7.18 S1.48 10.23 1 14.69 a1.27 1.27 0 0 0 1.13 1.38 H13.93 Z" style="fill:url(#a1b98161-c331-4559-9700-7c3dbf716821);" /><path d="M8.13 8.44 A3.94 3.94 0 0 1 6 7.8 L8.1 13.36 l2.12 -5.52 A4 4 0 0 1 8.13 8.44 Z" opacity="0.8" style="fill:white;" /><circle cx="8.13" cy="4.47" r="3.97" style="fill:url(#ae2314f4-c766-47db-ad18-ec313459d520);" /><path d="M17 13 c0 2.28 -2.76 4.12 -3.36 4.5 a0.24 0.24 0 0 1 -0.23 0 C12.77 17.09 10 15.25 10 13 V10.22 a0.22 0.22 0 0 1 0.21 -0.22 c2.15 -0.06 1.66 -1 3.27 -1 s1.11 0.94 3.26 1 a0.22 0.22 0 0 1 0.21 0.22 Z" style="fill:#00518E;" /><path d="M16.67 13 c0 2.1 -2.53 3.79 -3.08 4.13 a0.2 0.2 0 0 1 -0.21 0 c-0.55 -0.34 -3.08 -2 -3.08 -4.13 V10.47 a0.19 0.19 0 0 1 0.19 -0.2 c2 0 1.52 -0.92 3 -0.92 s1 0.87 3 0.92 a0.19 0.19 0 0 1 0.19 0.2 Z" style="fill:url(#e2290250-b7a3-47ee-abfe-de7d410961d8);" /></svg>