<?xml version="1.0" encoding="UTF-8"?>
<svg xmlns="http://www.w3.org/2000/svg" xmlns:xlink="http://www.w3.org/1999/xlink" width="70pt" height="70pt" viewBox="0 0 70 70" version="1.1">
<defs>
<linearGradient id="linear0" gradientUnits="userSpaceOnUse" x1="8.45" y1="11.47" x2="8.45" y2="6.24" gradientTransform="matrix(3.888889,0,0,3.888889,0,0)">
<stop offset="0" style="stop-color:rgb(0,124,216);stop-opacity:1;"/>
<stop offset="0.16" style="stop-color:rgb(0,139,242);stop-opacity:1;"/>
<stop offset="0.5" style="stop-color:rgb(37,162,255);stop-opacity:1;"/>
<stop offset="0.8" style="stop-color:rgb(67,175,255);stop-opacity:1;"/>
<stop offset="1" style="stop-color:rgb(79,180,255);stop-opacity:1;"/>
</linearGradient>
</defs>
<g id="surface1">
<path style=" stroke:none;fill-rule:nonzero;fill:url(#linear0);" d="M 42.972656 34.417969 C 42.972656 28.8125 38.445313 24.265625 32.859375 24.265625 C 27.277344 24.265625 22.75 28.8125 22.75 34.417969 C 22.75 40.023438 27.277344 44.566406 32.859375 44.566406 C 38.445313 44.566406 42.972656 40.023438 42.972656 34.417969 Z M 42.972656 34.417969 "/>
<path style=" stroke:none;fill-rule:nonzero;fill:rgb(47,166,255);fill-opacity:1;" d="M 66.109375 18.550781 C 66.109375 15.800781 63.898438 13.570313 61.171875 13.570313 C 58.445313 13.570313 56.234375 15.800781 56.234375 18.550781 C 56.234375 21.300781 58.445313 23.527344 61.171875 23.527344 C 63.898438 23.527344 66.109375 21.300781 66.109375 18.550781 Z M 66.109375 18.550781 "/>
<path style=" stroke:none;fill-rule:nonzero;fill:rgb(47,166,255);fill-opacity:1;" d="M 66.109375 34.804688 C 66.109375 32.054688 63.898438 29.828125 61.171875 29.828125 C 58.445313 29.828125 56.234375 32.054688 56.234375 34.804688 C 56.234375 37.554688 58.445313 39.785156 61.171875 39.785156 C 63.898438 39.785156 66.109375 37.554688 66.109375 34.804688 Z M 66.109375 34.804688 "/>
<path style=" stroke:none;fill-rule:nonzero;fill:rgb(47,166,255);fill-opacity:1;" d="M 66.109375 51.023438 C 66.109375 48.273438 63.898438 46.042969 61.171875 46.042969 C 58.445313 46.042969 56.234375 48.273438 56.234375 51.023438 C 56.234375 53.769531 58.445313 56 61.171875 56 C 63.898438 56 66.109375 53.769531 66.109375 51.023438 Z M 66.109375 51.023438 "/>
<path style=" stroke:none;fill-rule:nonzero;fill:rgb(119,197,255);fill-opacity:1;" d="M 54.832031 26.871094 C 54.832031 24.125 52.621094 21.894531 49.894531 21.894531 C 47.167969 21.894531 44.957031 24.125 44.957031 26.871094 C 44.957031 29.621094 47.167969 31.851563 49.894531 31.851563 C 52.621094 31.851563 54.832031 29.621094 54.832031 26.871094 Z M 54.832031 26.871094 "/>
<path style=" stroke:none;fill-rule:nonzero;fill:rgb(119,197,255);fill-opacity:1;" d="M 54.832031 43.128906 C 54.832031 40.378906 52.621094 38.148438 49.894531 38.148438 C 47.167969 38.148438 44.957031 40.378906 44.957031 43.128906 C 44.957031 45.875 47.167969 48.105469 49.894531 48.105469 C 52.621094 48.105469 54.832031 45.875 54.832031 43.128906 Z M 54.832031 43.128906 "/>
<path style=" stroke:none;fill-rule:nonzero;fill:rgb(41,164,255);fill-opacity:1;" d="M 9.371094 21.699219 C 9.460938 21.566406 9.582031 21.460938 9.722656 21.390625 L 32.355469 8.207031 C 32.667969 8.207031 51.800781 19.015625 51.800781 19.015625 C 52.089844 19.183594 52.449219 19.183594 52.738281 19.015625 C 53.027344 18.847656 53.203125 18.535156 53.199219 18.199219 L 53.199219 13.960938 C 53.203125 13.625 53.023438 13.3125 52.734375 13.144531 C 52.734375 13.144531 32.667969 1.789063 32.394531 1.945313 L 4.316406 18.042969 L 3.890625 18.355469 Z M 9.371094 21.699219 "/>
<path style=" stroke:none;fill-rule:nonzero;fill:rgb(41,164,255);fill-opacity:1;" d="M 51.722656 51.101563 L 33.289063 61.714844 C 33.148438 61.738281 33.003906 61.738281 32.859375 61.714844 L 32.859375 67.9375 C 33 67.980469 33.148438 67.980469 33.289063 67.9375 L 52.734375 56.816406 C 53.011719 56.65625 53.1875 56.363281 53.199219 56.039063 L 53.199219 51.917969 C 53.222656 51.554688 53.035156 51.214844 52.71875 51.039063 C 52.402344 50.863281 52.015625 50.886719 51.722656 51.101563 Z M 51.722656 51.101563 "/>
<path style=" stroke:none;fill-rule:nonzero;fill:rgb(103,190,255);fill-opacity:1;" d="M 32.859375 61.832031 C 32.695313 61.867188 32.523438 61.867188 32.355469 61.832031 L 9.722656 48.496094 C 9.429688 48.347656 9.25 48.042969 9.253906 47.714844 L 9.253906 22.167969 C 9.21875 22.011719 9.21875 21.855469 9.253906 21.699219 L 3.890625 18.355469 C 3.847656 18.523438 3.847656 18.695313 3.890625 18.859375 L 3.890625 51.023438 C 3.878906 51.351563 4.039063 51.660156 4.316406 51.839844 L 32.394531 67.9375 C 32.546875 67.976563 32.707031 67.976563 32.859375 67.9375 Z M 32.859375 61.832031 "/>
</g>
</svg>
