<?xml version="1.0" encoding="UTF-8"?>
<svg xmlns="http://www.w3.org/2000/svg" xmlns:xlink="http://www.w3.org/1999/xlink" width="70pt" height="70pt" viewBox="0 0 70 70" version="1.1">
<defs>
<linearGradient id="linear0" gradientUnits="userSpaceOnUse" x1="13.31" y1="0.23" x2="6.51" y2="15" gradientTransform="matrix(3.888889,0,0,3.888889,0,0)">
<stop offset="0" style="stop-color:rgb(0,80,140);stop-opacity:1;"/>
<stop offset="0.07" style="stop-color:rgb(0,96,168);stop-opacity:1;"/>
<stop offset="0.2" style="stop-color:rgb(0,123,214);stop-opacity:1;"/>
<stop offset="0.35" style="stop-color:rgb(0,143,250);stop-opacity:1;"/>
<stop offset="0.51" style="stop-color:rgb(23,156,255);stop-opacity:1;"/>
<stop offset="0.7" style="stop-color:rgb(37,162,255);stop-opacity:1;"/>
<stop offset="1" style="stop-color:rgb(41,164,255);stop-opacity:1;"/>
</linearGradient>
</defs>
<g id="surface1">
<path style=" stroke:none;fill-rule:nonzero;fill:rgb(0,124,216);fill-opacity:1;" d="M 36.632813 45.34375 L 45.964844 40.171875 C 46 40.097656 46 40.011719 45.964844 39.9375 L 45.964844 29.554688 C 46 29.480469 46 29.394531 45.964844 29.320313 L 45.695313 29.320313 L 36.476563 34.496094 C 36.441406 34.554688 36.441406 34.628906 36.476563 34.6875 L 36.476563 45.070313 C 36.441406 45.144531 36.441406 45.230469 36.476563 45.304688 M 36.476563 58.292969 L 45.8125 53.121094 C 45.847656 53.046875 45.847656 52.960938 45.8125 52.890625 L 45.8125 42.542969 C 45.847656 42.46875 45.847656 42.386719 45.8125 42.3125 C 45.722656 42.273438 45.625 42.273438 45.539063 42.3125 L 36.207031 47.484375 L 36.207031 57.867188 C 36.171875 57.941406 36.171875 58.027344 36.207031 58.101563 M 48.261719 38.65625 L 58.332031 33.640625 C 58.375 33.566406 58.375 33.476563 58.332031 33.40625 L 58.332031 23.0625 C 58.375 22.988281 58.375 22.898438 58.332031 22.828125 L 58.023438 22.828125 L 48.570313 28 L 48.570313 38.578125 C 48.53125 38.648438 48.53125 38.738281 48.570313 38.8125 M 48.570313 51.800781 L 58.332031 46.667969 C 58.375 46.59375 58.375 46.503906 58.332031 46.433594 L 58.332031 36.050781 C 58.375 35.976563 58.375 35.890625 58.332031 35.816406 C 58.234375 35.777344 58.121094 35.777344 58.023438 35.816406 L 48.726563 40.988281 C 48.691406 41.050781 48.691406 41.125 48.726563 41.183594 L 48.726563 51.566406 C 48.6875 51.640625 48.6875 51.726563 48.726563 51.800781 "/>
<path style=" stroke:none;fill-rule:nonzero;fill:rgb(47,166,255);fill-opacity:1;" d="M 33.328125 45.34375 L 23.878906 40.132813 C 23.824219 40.0625 23.824219 39.96875 23.878906 39.898438 L 23.878906 29.554688 C 23.835938 29.484375 23.835938 29.394531 23.878906 29.320313 L 24.148438 29.320313 L 33.484375 34.496094 C 33.523438 34.566406 33.523438 34.65625 33.484375 34.726563 L 33.484375 45.070313 C 33.519531 45.144531 33.519531 45.230469 33.484375 45.304688 "/>
<path style=" stroke:none;fill-rule:nonzero;fill:rgb(47,166,255);fill-opacity:1;" d="M 33.328125 58.332031 L 23.878906 53.121094 C 23.824219 53.054688 23.824219 52.957031 23.878906 52.890625 L 23.878906 42.542969 C 23.824219 42.476563 23.824219 42.378906 23.878906 42.3125 C 23.964844 42.273438 24.0625 42.273438 24.148438 42.3125 L 33.484375 47.484375 C 33.523438 47.554688 33.523438 47.644531 33.484375 47.714844 L 33.484375 58.0625 C 33.519531 58.136719 33.519531 58.21875 33.484375 58.292969 "/>
<path style=" stroke:none;fill-rule:nonzero;fill:rgb(47,166,255);fill-opacity:1;" d="M 21.234375 38.890625 L 11.667969 33.640625 C 11.632813 33.566406 11.632813 33.480469 11.667969 33.40625 L 11.667969 23.0625 C 11.636719 22.984375 11.636719 22.902344 11.667969 22.828125 L 11.976563 22.828125 L 21.390625 28 C 21.425781 28.074219 21.425781 28.160156 21.390625 28.234375 L 21.390625 38.578125 C 21.417969 38.652344 21.417969 38.734375 21.390625 38.8125 "/>
<path style=" stroke:none;fill-rule:nonzero;fill:rgb(47,166,255);fill-opacity:1;" d="M 21.234375 51.839844 L 11.667969 46.667969 C 11.632813 46.59375 11.632813 46.507813 11.667969 46.433594 L 11.667969 36.050781 C 11.632813 35.976563 11.632813 35.890625 11.667969 35.816406 C 11.765625 35.777344 11.878906 35.777344 11.976563 35.816406 L 21.390625 40.988281 C 21.425781 41.0625 21.425781 41.148438 21.390625 41.222656 L 21.390625 51.566406 C 21.417969 51.640625 21.417969 51.726563 21.390625 51.800781 "/>
<path style=" stroke:none;fill-rule:nonzero;fill:rgb(119,197,255);fill-opacity:1;" d="M 25.042969 26.484375 L 35 21.15625 C 35.097656 21.101563 35.214844 21.101563 35.3125 21.15625 L 44.839844 26.367188 C 44.878906 26.4375 44.878906 26.527344 44.839844 26.601563 C 44.875 26.675781 44.875 26.757813 44.839844 26.832031 L 35 32.042969 L 34.726563 32.042969 L 25.160156 26.871094 C 25.128906 26.785156 25.128906 26.6875 25.160156 26.601563 "/>
<path style=" stroke:none;fill-rule:nonzero;fill:rgb(119,197,255);fill-opacity:1;" d="M 12.484375 19.640625 L 22.128906 14.273438 L 22.398438 14.273438 L 31.851563 19.445313 C 31.890625 19.515625 31.890625 19.605469 31.851563 19.679688 C 31.886719 19.75 31.886719 19.835938 31.851563 19.910156 L 22.320313 25.199219 L 22.011719 25.199219 L 12.5625 19.988281 C 12.519531 19.917969 12.519531 19.828125 12.5625 19.753906 "/>
<path style=" stroke:none;fill-rule:nonzero;fill:rgb(119,197,255);fill-opacity:1;" d="M 37.917969 19.753906 L 47.5625 14.390625 C 47.648438 14.351563 47.746094 14.351563 47.832031 14.390625 L 57.285156 19.445313 C 57.3125 19.519531 57.3125 19.601563 57.285156 19.679688 C 57.316406 19.75 57.316406 19.835938 57.285156 19.910156 L 47.753906 25.316406 L 47.445313 25.316406 L 37.996094 20.105469 C 37.953125 20.035156 37.953125 19.945313 37.996094 19.871094 "/>
<path style=" stroke:none;fill-rule:nonzero;fill:rgb(119,197,255);fill-opacity:1;" d="M 25.082031 12.988281 L 35 7.777344 L 44.722656 12.832031 C 44.757813 12.90625 44.757813 12.992188 44.722656 13.066406 C 44.773438 13.136719 44.773438 13.230469 44.722656 13.300781 L 35 18.472656 L 34.765625 18.472656 L 25.199219 13.339844 C 25.175781 13.277344 25.175781 13.207031 25.199219 13.144531 "/>
<path style=" stroke:none;fill-rule:nonzero;fill:url(#linear0);" d="M 68.328125 17.421875 C 65.761719 13.183594 59.773438 11.511719 51.410156 12.753906 L 50.398438 12.753906 L 57.828125 16.644531 C 60.410156 16.480469 62.910156 17.566406 64.554688 19.5625 C 66.109375 22.167969 64.789063 26.601563 60.9375 31.773438 C 55.554688 38.433594 48.957031 44.015625 41.496094 48.222656 C 34.300781 52.796875 26.304688 55.964844 17.929688 57.554688 C 11.550781 58.527344 7 57.554688 5.445313 54.988281 C 3.890625 52.421875 5.09375 48.417969 8.4375 43.632813 L 8.4375 36.515625 C 7.390625 37.722656 6.496094 38.890625 5.523438 40.171875 C 0.503906 46.898438 -0.894531 52.964844 1.632813 57.246094 C 4.371094 60.855469 8.792969 62.769531 13.300781 62.300781 C 15.003906 62.296875 16.707031 62.164063 18.394531 61.910156 C 27.359375 60.257813 35.933594 56.933594 43.671875 52.109375 C 51.589844 47.589844 58.585938 41.613281 64.285156 34.496094 C 69.496094 27.765625 70.894531 21.699219 68.328125 17.421875 Z M 68.328125 17.421875 "/>
</g>
</svg>
