<?xml version="1.0" encoding="utf-8"?><svg version="1.1" xmlns="http://www.w3.org/2000/svg" xmlns:xlink="http://www.w3.org/1999/xlink" xmlns:xml="http://www.w3.org/XML/1998/namespace" width="70" height="70" viewBox="0, 0, 18, 18"><defs><linearGradient x1="5.839" y1="17.068" x2="5.839" gradientUnits="userSpaceOnUse" id="f8977a6e-0ed8-4940-aaa5-7fa249809f51"><stop offset="0%" stop-color="#008AF0" /><stop offset="3.7%" stop-color="#008DF6" /><stop offset="43.9%" stop-color="#2BA5FF" /><stop offset="77.5%" stop-color="#4DB3FF" /><stop offset="100%" stop-color="#59B8FF" /></linearGradient></defs><title>MsPortalFx.base.images-32</title><g id="ad6dac45-d20b-4f6a-9e78-80f4c72c1818"><g><path d="M9.477 8.936 h0 A7.412 7.412 0 0 0 6.7 7.3 V4.244 a6.734 6.734 0 0 1 2.511 0.887 a0.215 0.215 0 0 0 0.327 -0.185 V2.49 a0.218 0.218 0 0 0 -0.11 -0.189 A6.592 6.592 0 0 0 6.7 1.667 V0.216 A0.216 0.216 0 0 0 6.481 0 H5.163 a0.216 0.216 0 0 0 -0.216 0.216 v1.5 a4.5 4.5 0 0 0 -2.565 1.2 A3.511 3.511 0 0 0 1.3 5.51 a3.488 3.488 0 0 0 0.887 2.481 A7.536 7.536 0 0 0 4.947 9.624 v2.92 a7.14 7.14 0 0 1 -1.571 -0.4 A5.118 5.118 0 0 1 1.884 11.4 a0.216 0.216 0 0 0 -0.343 0.174 V14.1 a0.216 0.216 0 0 0 0.116 0.191 a7.588 7.588 0 0 0 3.29 0.859 v1.707 a0.216 0.216 0 0 0 0.216 0.216 H6.481 a0.216 0.216 0 0 0 0.215 -0.216 V15.067 A4.678 4.678 0 0 0 9.375 13.9 a3.457 3.457 0 0 0 1.005 -2.577 A3.363 3.363 0 0 0 9.477 8.936 Z m-1.925 2.5 v0.015 A0.984 0.984 0 0 1 6.7 12.483 V10.34 C7.258 10.65 7.545 11.017 7.552 11.433 Z M4.127 5.355 a1 1 0 0 1 0.821 -1.048 v2.25 A1.413 1.413 0 0 1 4.127 5.355 Z" style="fill:url(#f8977a6e-0ed8-4940-aaa5-7fa249809f51);" /><rect x="11.394" y="14.994" width="5.966" height="1.359" rx="0.635" transform="translate(13.461, 36.923) rotate(-135, 0, 0)" style="fill:#007CD8;" /><circle cx="10.45" cy="11.677" r="4.093" style="fill:#2FA6FF;" /><circle cx="10.458" cy="11.604" r="3.215" style="fill:white;" /></g></g></svg>