<?xml version="1.0" encoding="UTF-8"?>
<svg xmlns="http://www.w3.org/2000/svg" xmlns:xlink="http://www.w3.org/1999/xlink" width="70pt" height="70pt" viewBox="0 0 70 70" version="1.1">
<g id="surface1">
<path style=" stroke:none;fill-rule:nonzero;fill:rgb(0,102,178);fill-opacity:1;" d="M 0 34.625 L 12.296875 34.625 L 12.296875 70 L 0 70 Z M 0 34.625 "/>
<path style=" stroke:none;fill-rule:nonzero;fill:rgb(57,171,255);fill-opacity:1;" d="M 19.234375 24.902344 L 31.53125 24.902344 L 31.53125 70 L 19.234375 70 Z M 19.234375 24.902344 "/>
<path style=" stroke:none;fill-rule:nonzero;fill:rgb(3,148,255);fill-opacity:1;" d="M 38.445313 40.304688 L 50.785156 40.304688 L 50.785156 70 L 38.445313 70 Z M 38.445313 40.304688 "/>
<path style=" stroke:none;fill-rule:nonzero;fill:rgb(0,102,178);fill-opacity:1;" d="M 57.703125 29.6875 L 70 29.6875 L 70 70 L 57.703125 70 Z M 57.703125 29.6875 "/>
<path style=" stroke:none;fill-rule:nonzero;fill:rgb(0,73,128);fill-opacity:1;" d="M 43.488281 28.460938 L 29.820313 8.558594 L 6.183594 25.921875 L 4.332031 23.40625 L 30.570313 4.128906 L 44.078125 23.796875 L 65.15625 5.386719 L 66.488281 6.910156 L 65.3125 7.9375 L 66.035156 8.769531 Z M 43.488281 28.460938 "/>
<path style=" stroke:none;fill-rule:nonzero;fill:rgb(0,112,196);fill-opacity:1;" d="M 9.378906 24.855469 C 9.378906 27.445313 7.277344 29.542969 4.6875 29.542969 C 2.097656 29.542969 0 27.445313 0 24.855469 C 0 22.265625 2.097656 20.167969 4.6875 20.167969 C 7.277344 20.167969 9.378906 22.265625 9.378906 24.855469 Z M 9.378906 24.855469 "/>
<path style=" stroke:none;fill-rule:nonzero;fill:rgb(0,112,196);fill-opacity:1;" d="M 34.792969 6.824219 C 34.792969 9.414063 32.691406 11.511719 30.101563 11.511719 C 27.511719 11.511719 25.414063 9.414063 25.414063 6.824219 C 25.414063 4.234375 27.511719 2.136719 30.101563 2.136719 C 32.691406 2.136719 34.792969 4.234375 34.792969 6.824219 Z M 34.792969 6.824219 "/>
<path style=" stroke:none;fill-rule:nonzero;fill:rgb(0,112,196);fill-opacity:1;" d="M 48.148438 26.128906 C 48.148438 28.71875 46.050781 30.816406 43.460938 30.816406 C 40.871094 30.816406 38.773438 28.71875 38.773438 26.128906 C 38.773438 23.539063 40.871094 21.441406 43.460938 21.441406 C 46.050781 21.441406 48.148438 23.539063 48.148438 26.128906 Z M 48.148438 26.128906 "/>
<path style=" stroke:none;fill-rule:nonzero;fill:rgb(0,112,196);fill-opacity:1;" d="M 70 7.480469 C 70 10.066406 67.902344 12.167969 65.3125 12.167969 C 62.722656 12.167969 60.621094 10.066406 60.621094 7.480469 C 60.621094 4.890625 62.722656 2.789063 65.3125 2.789063 C 67.902344 2.789063 70 4.890625 70 7.480469 Z M 70 7.480469 "/>
</g>
</svg>
