<?xml version="1.0" encoding="utf-8"?><svg version="1.1" xmlns="http://www.w3.org/2000/svg" xmlns:xlink="http://www.w3.org/1999/xlink" xmlns:xml="http://www.w3.org/XML/1998/namespace" xmlns:dc="http://purl.org/dc/elements/1.1/" xmlns:cc="http://creativecommons.org/ns#" xmlns:rdf="http://www.w3.org/1999/02/22-rdf-syntax-ns#" xmlns:sodipodi="http://sodipodi.sourceforge.net/DTD/sodipodi-0.dtd" xmlns:inkscape="http://www.inkscape.org/namespaces/inkscape" width="70" height="70" viewBox="0, 0, 48, 48" id="FxSymbol0-0e3" class="fxs-portal-svg" role="presentation" focusable="false" sodipodi:docname="Azure Log Analytics_COLOR.svg" inkscape:version="0.92.2 (5c3e80d, 2017-08-06)"><metadata id="metadata17" /><defs id="defs15" /><sodipodi:namedview id="namedview13" pagecolor="#ffffff" bordercolor="#666666" borderopacity="1" objecttolerance="10" gridtolerance="10" guidetolerance="10" inkscape:pageopacity="0" inkscape:pageshadow="2" inkscape:window-width="640" inkscape:window-height="480" showgrid="false" inkscape:zoom="4.72" inkscape:cx="24" inkscape:cy="24" inkscape:window-x="0" inkscape:window-y="0" inkscape:window-maximized="0" inkscape:current-layer="FxSymbol0-0e3" /><g transform="translate(-1, -1)" id="g10"><title id="title2" /><path d="M1 26 H11 V36 H1 Z M1 13 H11 V23 H1 Z M1 39 H11 V49 H1 Z m13 0 H24 V49 H14 Z m13 0 H37 V49 H27 Z" clip-rule="evenodd" id="path4" fill-rule="evenodd" class="msportalfx-svg-c03" inkscape:connector-curvature="0" style="fill:#A0A1A2;" /><path d="M31.5 1 C21.705 1 14 8.705 14 18.5 V36 H31.5 C41.295 36 49 28.295 49 18.5 C49 8.705 41.295 1 31.5 1 Z" clip-rule="evenodd" id="path6" fill-rule="evenodd" class="msportalfx-svg-c19" inkscape:connector-curvature="0" style="fill:#0072C6;" /><path d="m21 16 h3 v11 h-3 z m7 3 h3 v8 h-3 z m7 -7 h3 v15 h-3 z" clip-rule="evenodd" id="path8" fill-rule="evenodd" class="msportalfx-svg-c01" inkscape:connector-curvature="0" style="fill:white;" /></g></svg>