<?xml version="1.0" encoding="UTF-8"?>
<svg xmlns="http://www.w3.org/2000/svg" xmlns:xlink="http://www.w3.org/1999/xlink" width="70pt" height="70pt" viewBox="0 0 70 70" version="1.1">
<defs>
<filter id="alpha" filterUnits="objectBoundingBox" x="0%" y="0%" width="100%" height="100%">
  <feColorMatrix type="matrix" in="SourceGraphic" values="0 0 0 0 1 0 0 0 0 1 0 0 0 0 1 0 0 0 1 0"/>
</filter>
<mask id="mask0">
  <g filter="url(#alpha)">
<rect x="0" y="0" width="70" height="70" style="fill:rgb(0,0,0);fill-opacity:0.2;stroke:none;"/>
  </g>
</mask>
<clipPath id="clip1">
  <rect x="0" y="0" width="70" height="70"/>
</clipPath>
<g id="surface5" clip-path="url(#clip1)">
<path style=" stroke:none;fill-rule:nonzero;fill:rgb(0,33,58);fill-opacity:1;" d="M 39.199219 57.261719 C 24.5 56.699219 13.160156 44.378906 13.71875 29.820313 C 14.140625 20.71875 19.039063 12.878906 26.179688 8.398438 C 16.660156 12.460938 9.941406 21.980469 9.941406 33.039063 C 9.941406 47.738281 21.839844 59.78125 36.679688 59.78125 C 37.238281 59.78125 38.078125 59.78125 38.640625 59.78125 L 38.5 65.238281 L 45.78125 56.839844 C 43.679688 57.261719 41.441406 57.398438 39.199219 57.261719 Z M 39.199219 57.261719 "/>
</g>
</defs>
<g id="surface1">
<path style=" stroke:none;fill-rule:nonzero;fill:rgb(255,255,255);fill-opacity:1;" d="M 38.359375 13.71875 C 33.601563 14.28125 29.539063 16.519531 26.738281 20.019531 C 23.941406 23.519531 22.539063 28 22.960938 32.621094 C 23.519531 37.378906 25.761719 41.441406 29.261719 44.238281 C 32.761719 47.039063 37.238281 48.441406 41.859375 48.019531 C 46.621094 47.460938 50.679688 45.078125 53.480469 41.71875 C 56.28125 38.21875 57.679688 33.738281 57.261719 29.121094 C 56.699219 24.359375 54.320313 20.300781 50.820313 17.359375 C 47.878906 14.980469 44.101563 13.578125 40.179688 13.578125 C 39.621094 13.578125 39.058594 13.578125 38.359375 13.71875 "/>
<path style=" stroke:none;fill-rule:nonzero;fill:rgb(3,148,255);fill-opacity:1;" d="M 59.921875 28.699219 C 59.359375 23.101563 56.421875 18.199219 52.359375 14.980469 C 51.519531 14.28125 50.679688 13.71875 49.839844 13.300781 L 48.300781 16.378906 C 49 16.800781 49.558594 17.21875 50.261719 17.640625 C 53.621094 20.441406 56 24.359375 56.558594 28.980469 C 56.980469 33.601563 55.578125 37.941406 52.921875 41.300781 C 50.261719 44.660156 46.199219 46.898438 41.578125 47.460938 C 38.5 47.738281 35.558594 47.179688 32.898438 46.058594 L 31.359375 49.140625 C 34.578125 50.679688 38.21875 51.378906 42 50.960938 C 47.601563 50.398438 52.359375 47.601563 55.578125 43.539063 C 58.800781 39.621094 60.480469 34.300781 59.921875 28.699219 "/>
<path style=" stroke:none;fill-rule:nonzero;fill:rgb(65,174,255);fill-opacity:1;" d="M 29.261719 43.960938 C 25.898438 41.300781 23.660156 37.238281 23.101563 32.621094 C 22.679688 28 24.078125 23.660156 26.738281 20.300781 C 29.398438 16.941406 33.460938 14.699219 38.078125 14.140625 C 41.859375 13.71875 45.359375 14.558594 48.300781 16.378906 L 49.839844 13.300781 C 46.199219 11.199219 42 10.21875 37.660156 10.640625 C 32.058594 11.199219 27.300781 14 24.078125 18.058594 C 20.859375 22.121094 19.039063 27.300781 19.738281 32.898438 C 20.300781 38.5 23.101563 43.261719 27.160156 46.480469 C 28.421875 47.460938 29.820313 48.441406 31.359375 49.140625 L 32.898438 46.058594 C 31.5 45.5 30.378906 44.800781 29.261719 43.960938 "/>
<path style=" stroke:none;fill-rule:nonzero;fill:rgb(57,171,255);fill-opacity:1;" d="M 29.261719 43.960938 C 25.898438 41.300781 23.660156 37.238281 23.101563 32.621094 C 22.679688 28 24.078125 23.660156 26.738281 20.300781 C 29.398438 16.941406 33.460938 14.699219 38.078125 14.140625 C 41.859375 13.71875 45.359375 14.558594 48.300781 16.378906 L 49.839844 13.300781 C 46.199219 11.199219 42 10.21875 37.660156 10.640625 C 32.058594 11.199219 27.300781 14 24.078125 18.058594 C 20.859375 22.121094 19.039063 27.300781 19.738281 32.898438 C 20.300781 38.5 23.101563 43.261719 27.160156 46.480469 C 28.421875 47.460938 29.820313 48.441406 31.359375 49.140625 L 32.898438 46.058594 C 31.5 45.5 30.378906 44.800781 29.261719 43.960938 "/>
<path style=" stroke:none;fill-rule:nonzero;fill:rgb(0,140,244);fill-opacity:1;" d="M 48.300781 36.121094 L 40.460938 33.320313 C 39.621094 33.039063 39.199219 32.058594 39.480469 31.21875 C 39.761719 30.378906 40.738281 29.960938 41.578125 30.238281 L 49.421875 33.039063 C 50.261719 33.320313 50.679688 34.300781 50.398438 35.140625 C 50.121094 35.980469 49.140625 36.539063 48.300781 36.121094 Z M 48.300781 36.121094 "/>
<path style=" stroke:none;fill-rule:nonzero;fill:rgb(0,140,244);fill-opacity:1;" d="M 39.621094 33.039063 C 38.78125 33.039063 37.941406 32.339844 37.941406 31.359375 L 37.941406 17.640625 C 37.941406 16.800781 38.640625 15.960938 39.621094 15.960938 C 40.460938 15.960938 41.300781 16.660156 41.300781 17.640625 L 41.300781 31.359375 C 41.300781 32.339844 40.601563 33.039063 39.621094 33.039063 Z M 39.621094 33.039063 "/>
<path style=" stroke:none;fill-rule:nonzero;fill:rgb(0,33,58);fill-opacity:1;" d="M 42 31.5 C 42 32.8125 40.933594 33.878906 39.621094 33.878906 C 38.304688 33.878906 37.238281 32.8125 37.238281 31.5 C 37.238281 30.1875 38.304688 29.121094 39.621094 29.121094 C 40.933594 29.121094 42 30.1875 42 31.5 Z M 42 31.5 "/>
<path style=" stroke:none;fill-rule:nonzero;fill:rgb(115,195,255);fill-opacity:1;" d="M 37.660156 49 L 45.921875 56.699219 L 38.640625 65.101563 L 38.78125 59.640625 C 38.21875 59.640625 37.378906 59.640625 36.820313 59.640625 C 22.121094 59.640625 10.078125 47.738281 10.078125 32.898438 C 10.078125 18.058594 21.839844 6.300781 36.679688 6.300781 C 44.101563 6.300781 50.820313 9.378906 55.71875 14.28125 C 51.519531 10.21875 45.78125 7.699219 39.480469 7.558594 C 26.738281 7.558594 16.378906 17.921875 16.378906 30.660156 C 16.378906 42.980469 26.320313 52.921875 38.359375 53.761719 Z M 37.660156 49 "/>
<use xlink:href="#surface5" mask="url(#mask0)"/>
<path style=" stroke:none;fill-rule:nonzero;fill:rgb(0,140,244);fill-opacity:1;" d="M 13.441406 61.460938 C 13.160156 61.460938 12.738281 61.320313 12.460938 61.179688 L 2.941406 55.578125 C 1.261719 54.601563 0.140625 52.640625 0.140625 50.820313 L 0.140625 15.539063 C 0.140625 13.71875 1.261719 11.621094 2.941406 10.78125 L 12.460938 5.179688 C 13.441406 4.621094 14.699219 4.898438 15.261719 5.878906 C 15.820313 6.859375 15.539063 8.121094 14.558594 8.679688 L 5.039063 14.28125 C 4.761719 14.421875 4.339844 15.121094 4.339844 15.539063 L 4.339844 50.820313 C 4.339844 51.238281 4.761719 51.941406 5.039063 52.078125 L 14.558594 57.679688 C 15.539063 58.238281 15.820313 59.5 15.261719 60.480469 C 14.839844 61.039063 14.140625 61.460938 13.441406 61.460938 Z M 13.441406 61.460938 "/>
<path style=" stroke:none;fill-rule:nonzero;fill:rgb(0,140,244);fill-opacity:1;" d="M 56.558594 4.898438 C 56.839844 4.898438 57.261719 5.039063 57.539063 5.179688 L 67.058594 10.78125 C 68.738281 11.761719 69.859375 13.71875 69.859375 15.539063 L 69.859375 50.820313 C 69.859375 52.640625 68.738281 54.738281 67.058594 55.578125 L 57.539063 61.179688 C 56.558594 61.738281 55.300781 61.460938 54.738281 60.480469 C 54.179688 59.5 54.460938 58.238281 55.441406 57.679688 L 64.960938 52.078125 C 65.238281 51.941406 65.660156 51.238281 65.660156 50.820313 L 65.660156 15.539063 C 65.660156 15.121094 65.238281 14.421875 64.960938 14.28125 L 55.441406 8.679688 C 54.460938 8.121094 54.179688 6.859375 54.738281 5.878906 C 55.300781 5.320313 55.859375 4.898438 56.558594 4.898438 Z M 56.558594 4.898438 "/>
</g>
</svg>
