<?xml version="1.0" encoding="UTF-8"?>
<svg xmlns="http://www.w3.org/2000/svg" xmlns:xlink="http://www.w3.org/1999/xlink" width="70pt" height="56pt" viewBox="0 0 70 56" version="1.1">
<g id="surface1">
<path style=" stroke:none;fill-rule:nonzero;fill:rgb(49.803922%,72.941176%,0%);fill-opacity:1;" d="M 49 22.960938 L 48.597656 23.929688 L 36.074219 8.902344 L 35 9.800781 L 33.925781 8.902344 L 21.402344 23.929688 L 21 22.960938 L 12.707031 42.859375 L 15.292969 43.9375 L 21 30.238281 L 26.707031 43.9375 L 29.292969 42.859375 L 22.617188 26.84375 L 35 11.988281 L 47.382813 26.84375 L 40.707031 42.859375 L 43.292969 43.9375 L 49 30.238281 L 54.707031 43.9375 L 57.292969 42.859375 Z M 49 22.960938 "/>
<path style=" stroke:none;fill-rule:nonzero;fill:rgb(22.352941%,60%,77.647059%);fill-opacity:1;" d="M 60.199219 43.398438 C 60.199219 45.71875 58.320313 47.601563 56 47.601563 C 53.679688 47.601563 51.800781 45.71875 51.800781 43.398438 C 51.800781 41.082031 53.679688 39.199219 56 39.199219 C 58.320313 39.199219 60.199219 41.082031 60.199219 43.398438 Z M 60.199219 43.398438 "/>
<path style=" stroke:none;fill-rule:nonzero;fill:rgb(22.352941%,60%,77.647059%);fill-opacity:1;" d="M 46.199219 43.398438 C 46.199219 45.71875 44.320313 47.601563 42 47.601563 C 39.679688 47.601563 37.800781 45.71875 37.800781 43.398438 C 37.800781 41.082031 39.679688 39.199219 42 39.199219 C 44.320313 39.199219 46.199219 41.082031 46.199219 43.398438 Z M 46.199219 43.398438 "/>
<path style=" stroke:none;fill-rule:nonzero;fill:rgb(50.196078%,28.627451%,59.607843%);fill-opacity:1;" d="M 42 9.800781 C 42 13.664063 38.867188 16.800781 35 16.800781 C 31.132813 16.800781 28 13.664063 28 9.800781 C 28 5.933594 31.132813 2.800781 35 2.800781 C 38.867188 2.800781 42 5.933594 42 9.800781 Z M 42 9.800781 "/>
<path style=" stroke:none;fill-rule:nonzero;fill:rgb(0%,44.705882%,77.647059%);fill-opacity:1;" d="M 26.601563 26.601563 C 26.601563 29.691406 24.09375 32.199219 21 32.199219 C 17.90625 32.199219 15.398438 29.691406 15.398438 26.601563 C 15.398438 23.507813 17.90625 21 21 21 C 24.09375 21 26.601563 23.507813 26.601563 26.601563 Z M 26.601563 26.601563 "/>
<path style=" stroke:none;fill-rule:nonzero;fill:rgb(0%,44.705882%,77.647059%);fill-opacity:1;" d="M 54.601563 26.601563 C 54.601563 29.691406 52.09375 32.199219 49 32.199219 C 45.90625 32.199219 43.398438 29.691406 43.398438 26.601563 C 43.398438 23.507813 45.90625 21 49 21 C 52.09375 21 54.601563 23.507813 54.601563 26.601563 Z M 54.601563 26.601563 "/>
<path style=" stroke:none;fill-rule:nonzero;fill:rgb(22.352941%,60%,77.647059%);fill-opacity:1;" d="M 32.199219 43.398438 C 32.199219 45.71875 30.320313 47.601563 28 47.601563 C 25.679688 47.601563 23.800781 45.71875 23.800781 43.398438 C 23.800781 41.082031 25.679688 39.199219 28 39.199219 C 30.320313 39.199219 32.199219 41.082031 32.199219 43.398438 Z M 32.199219 43.398438 "/>
<path style=" stroke:none;fill-rule:nonzero;fill:rgb(22.352941%,60%,77.647059%);fill-opacity:1;" d="M 18.199219 43.398438 C 18.199219 45.71875 16.320313 47.601563 14 47.601563 C 11.679688 47.601563 9.800781 45.71875 9.800781 43.398438 C 9.800781 41.082031 11.679688 39.199219 14 39.199219 C 16.320313 39.199219 18.199219 41.082031 18.199219 43.398438 Z M 18.199219 43.398438 "/>
<path style=" stroke:none;fill-rule:nonzero;fill:rgb(47.843137%,47.843137%,47.843137%);fill-opacity:1;" d="M 13.300781 56.558594 C 12.957031 56.53125 12.625 56.4375 12.320313 56.28125 L 2.800781 50.679688 C 1.121094 49.671875 0.0664063 47.878906 0 45.921875 L 0 10.640625 C 0.03125 8.671875 1.09375 6.863281 2.800781 5.878906 L 12.320313 0.28125 C 13.285156 -0.273438 14.515625 0.046875 15.085938 1 C 15.660156 1.953125 15.363281 3.191406 14.421875 3.78125 L 4.898438 9.378906 C 4.507813 9.691406 4.257813 10.144531 4.199219 10.640625 L 4.199219 45.921875 C 4.257813 46.417969 4.507813 46.871094 4.898438 47.179688 L 14.421875 52.78125 C 14.882813 53.058594 15.21875 53.507813 15.351563 54.035156 C 15.480469 54.558594 15.398438 55.117188 15.121094 55.578125 C 14.691406 56.164063 14.023438 56.527344 13.300781 56.558594 Z M 56.699219 0 C 57.042969 0.0273438 57.375 0.121094 57.679688 0.28125 L 67.199219 5.878906 C 68.878906 6.890625 69.933594 8.679688 70 10.640625 L 70 45.921875 C 69.96875 47.890625 68.90625 49.695313 67.199219 50.679688 L 57.679688 56.28125 C 56.714844 56.835938 55.484375 56.515625 54.914063 55.558594 C 54.339844 54.605469 54.636719 53.371094 55.578125 52.78125 L 65.101563 47.179688 C 65.492188 46.871094 65.742188 46.417969 65.800781 45.921875 L 65.800781 10.640625 C 65.742188 10.144531 65.492188 9.691406 65.101563 9.378906 L 55.578125 3.78125 C 55.117188 3.503906 54.78125 3.050781 54.648438 2.523438 C 54.519531 2 54.601563 1.445313 54.878906 0.980469 C 55.328125 0.421875 55.984375 0.0664063 56.699219 0 Z M 56.699219 0 "/>
</g>
</svg>
