<?xml version="1.0" encoding="utf-8"?><svg version="1.1" xmlns="http://www.w3.org/2000/svg" xmlns:xlink="http://www.w3.org/1999/xlink" xmlns:xml="http://www.w3.org/XML/1998/namespace" width="70" height="70" viewBox="0, 0, 18, 18" id="accb8b11-ff75-4ed7-86d0-74f3af9e9fdb"><defs><linearGradient x1="9" y1="17.5" x2="9" y2="0.5" gradientUnits="userSpaceOnUse" id="ec34cf3c-0705-4609-8eda-9dd9d51977d2"><stop offset="0%" stop-color="#0078D4" /><stop offset="82%" stop-color="#5EA0EF" /></linearGradient></defs><g><path d="M10 0.63 H2.73 a0.57 0.57 0 0 0 -0.57 0.57 V16.8 a0.57 0.57 0 0 0 0.57 0.57 H15.27 a0.57 0.57 0 0 0 0.57 -0.57 V6.48 a0.58 0.58 0 0 0 -0.57 -0.58 H11.11 a0.56 0.56 0 0 1 -0.57 -0.57 V1.2 A0.57 0.57 0 0 0 10 0.63 Z" style="fill:white;" /><path d="M9.7 1.36 V5.28 a1.44 1.44 0 0 0 1.44 1.43 h3.95 v9.93 H2.91 V1.36 H9.7 M10 0.5 H2.64 a0.58 0.58 0 0 0 -0.58 0.58 V16.92 a0.58 0.58 0 0 0 0.58 0.58 H15.36 a0.58 0.58 0 0 0 0.58 -0.58 V6.44 a0.58 0.58 0 0 0 -0.58 -0.58 H11.14 a0.58 0.58 0 0 1 -0.58 -0.58 V1.08 A0.58 0.58 0 0 0 10 0.5 Z" style="fill:url(#ec34cf3c-0705-4609-8eda-9dd9d51977d2);" /><path d="M15.72 6 L10.36 0.63 V5 a1 1 0 0 0 1 1 Z" style="fill:#0078D4;" /><path d="M10.41 11.18 a2.21 2.21 0 0 1 -2.93 0 L7.3 14.81 a0.29 0.29 0 0 0 0.5 0.22 l1.12 -1.15 L10.06 15 a0.29 0.29 0 0 0 0.49 -0.22 Z" id="a3a9e1d3-9e08-4e6c-b1f3-95c11e84f06a" style="fill:#B31B1B;" /><ellipse cx="8.98" cy="9.31" rx="2.61" ry="2.62" id="a09a1db5-9087-43a3-902a-422185a7e3a0" style="fill:#E62323;" /><ellipse cx="8.98" cy="9.31" rx="1.98" ry="1.99" id="ac490612-dbc7-498b-b2fc-d820fcb1a7b0" style="fill:#FFD400;" /></g></svg>