<?xml version="1.0" encoding="UTF-8"?>
<svg xmlns="http://www.w3.org/2000/svg" xmlns:xlink="http://www.w3.org/1999/xlink" width="70pt" height="70pt" viewBox="0 0 70 70" version="1.1">
<defs>
<linearGradient id="linear0" gradientUnits="userSpaceOnUse" x1="9.23" y1="0" x2="9.23" y2="18" gradientTransform="matrix(3.888889,0,0,3.888889,0,0)">
<stop offset="0" style="stop-color:rgb(65.098039%,47.843137%,95.686275%);stop-opacity:1;"/>
<stop offset="0.999" style="stop-color:rgb(46.666667%,22.745098%,86.27451%);stop-opacity:1;"/>
</linearGradient>
</defs>
<g id="surface1">
<path style=" stroke:none;fill-rule:nonzero;fill:url(#linear0);" d="M 58.621094 67.628906 C 58.546875 69.003906 57.378906 70.0625 56 70 L 15.796875 70 C 14.417969 70.066406 13.246094 69.007813 13.171875 67.628906 L 13.171875 2.371094 C 13.246094 0.992188 14.417969 -0.0664063 15.796875 0 L 56 0 C 57.378906 -0.0664063 58.550781 0.992188 58.625 2.371094 Z M 58.621094 67.628906 "/>
<path style=" stroke:none;fill-rule:nonzero;fill:rgb(33.333333%,18.431373%,60%);fill-opacity:1;" d="M 52.347656 29.945313 C 52.480469 27.078125 50.273438 24.648438 47.410156 24.5 L 24.792969 24.5 C 21.929688 24.648438 19.71875 27.078125 19.851563 29.945313 C 19.71875 32.808594 21.929688 35.242188 24.792969 35.390625 L 47.410156 35.390625 C 50.273438 35.242188 52.480469 32.808594 52.347656 29.945313 Z M 52.347656 29.945313 "/>
<path style=" stroke:none;fill-rule:nonzero;fill:rgb(33.333333%,18.431373%,60%);fill-opacity:1;" d="M 52.347656 13.753906 C 52.480469 10.890625 50.273438 8.457031 47.410156 8.3125 L 24.792969 8.3125 C 21.929688 8.457031 19.71875 10.890625 19.851563 13.753906 C 19.71875 16.621094 21.929688 19.050781 24.792969 19.199219 L 47.410156 19.199219 C 50.273438 19.050781 52.480469 16.621094 52.347656 13.753906 Z M 52.347656 13.753906 "/>
<path style=" stroke:none;fill-rule:nonzero;fill:rgb(31.372549%,90.196078%,100%);fill-opacity:1;" d="M 49.640625 13.753906 C 49.640625 15.773438 48.007813 17.40625 45.988281 17.40625 C 43.972656 17.40625 42.339844 15.773438 42.339844 13.753906 C 42.339844 11.738281 43.972656 10.101563 45.988281 10.101563 C 48.007813 10.101563 49.640625 11.738281 49.640625 13.753906 Z M 49.640625 13.753906 "/>
<path style=" stroke:none;fill-rule:nonzero;fill:rgb(31.372549%,90.196078%,100%);fill-opacity:1;" d="M 49.640625 29.925781 C 49.640625 31.941406 48.007813 33.578125 45.988281 33.578125 C 43.972656 33.578125 42.339844 31.941406 42.339844 29.925781 C 42.339844 27.910156 43.972656 26.273438 45.988281 26.273438 C 48.007813 26.273438 49.640625 27.910156 49.640625 29.925781 Z M 49.640625 29.925781 "/>
</g>
</svg>
