<?xml version="1.0" encoding="utf-8"?><svg version="1.1" xmlns="http://www.w3.org/2000/svg" xmlns:xlink="http://www.w3.org/1999/xlink" xmlns:xml="http://www.w3.org/XML/1998/namespace" width="70" height="70" viewBox="0, 0, 18, 18" id="bc18bade-5481-447e-a959-659d72346474"><defs><radialGradient cx="-36.63" cy="17.12" r="11.18" gradientUnits="userSpaceOnUse" gradientTransform="translate(41.88, -7.4) scale(0.94)" id="a445c717-9d75-44c7-ba6b-0d8f2383e560"><stop offset="27%" stop-color="#99D3FF" /><stop offset="49%" stop-color="#8DCEFF" /><stop offset="88%" stop-color="#69BFFF" /><stop offset="100%" stop-color="#5DBAFF" /></radialGradient></defs><title>Icon-general-2</title><path d="M13.56 7.19 a2.07 2.07 0 0 0 0 -2.93 h0 L10 0.69 a2.06 2.06 0 0 0 -2.92 0 h0 L3.52 4.26 a2.09 2.09 0 0 0 0 2.93 l3 3 a0.61 0.61 0 0 1 0.17 0.41 v5.52 a0.7 0.7 0 0 0 0.2 0.5 l1.35 1.35 a0.45 0.45 0 0 0 0.66 0 l1.31 -1.31 h0 l0.77 -0.77 a0.26 0.26 0 0 0 0 -0.38 l-0.55 -0.56 a0.29 0.29 0 0 1 0 -0.42 l0.55 -0.56 a0.26 0.26 0 0 0 0 -0.38 L10.4 13 a0.28 0.28 0 0 1 0 -0.41 L11 12 a0.26 0.26 0 0 0 0 -0.38 l-0.77 -0.78 v-0.28 Z m-5 -5.64 A1.18 1.18 0 1 1 7.37 2.73 A1.17 1.17 0 0 1 8.54 1.55 Z" id="e3d1e58c-f78e-4fb5-9857-0c9331da9979" style="fill:url(#a445c717-9d75-44c7-ba6b-0d8f2383e560);" /><path d="M7.62 16.21 h0 A0.25 0.25 0 0 0 8 16 V11.55 a0.27 0.27 0 0 0 -0.11 -0.22 h0 a0.25 0.25 0 0 0 -0.39 0.22 V16 A0.27 0.27 0 0 0 7.62 16.21 Z" id="a21a8f7a-61cc-4035-8449-e5c8fe4d4d5e" opacity="0.75" style="fill:#47B0FF;" /><rect x="5.69" y="5.45" width="5.86" height="0.69" rx="0.32" id="ecd3189c-fb1e-4a0e-a2b6-ba2f11dda484" opacity="0.75" style="fill:#47B0FF;" /><rect x="5.69" y="6.57" width="5.86" height="0.69" rx="0.32" id="a1949a3c-4818-4bd1-b236-0d970b92fc62" opacity="0.75" style="fill:#47B0FF;" /></svg>