<?xml version="1.0" encoding="UTF-8"?>
<svg xmlns="http://www.w3.org/2000/svg" xmlns:xlink="http://www.w3.org/1999/xlink" width="70pt" height="70pt" viewBox="0 0 70 70" version="1.1">
<defs>
<filter id="alpha" filterUnits="objectBoundingBox" x="0%" y="0%" width="100%" height="100%">
  <feColorMatrix type="matrix" in="SourceGraphic" values="0 0 0 0 1 0 0 0 0 1 0 0 0 0 1 0 0 0 1 0"/>
</filter>
<mask id="mask0">
  <g filter="url(#alpha)">
<rect x="0" y="0" width="70" height="70" style="fill:rgb(0,0,0);fill-opacity:0.4;stroke:none;"/>
  </g>
</mask>
<clipPath id="clip1">
  <rect x="0" y="0" width="70" height="70"/>
</clipPath>
<g id="surface5" clip-path="url(#clip1)">
<path style=" stroke:none;fill-rule:nonzero;fill:rgb(39,163,255);fill-opacity:1;" d="M 22.960938 27.300781 L 15.960938 21.558594 C 13.019531 25.761719 11.621094 30.800781 11.761719 35.839844 L 20.71875 34.859375 C 20.859375 32.199219 21.558594 29.539063 22.960938 27.300781 "/>
</g>
<mask id="mask1">
  <g filter="url(#alpha)">
<rect x="0" y="0" width="70" height="70" style="fill:rgb(0,0,0);fill-opacity:0.8;stroke:none;"/>
  </g>
</mask>
<clipPath id="clip2">
  <rect x="0" y="0" width="70" height="70"/>
</clipPath>
<g id="surface8" clip-path="url(#clip2)">
<path style=" stroke:none;fill-rule:nonzero;fill:rgb(39,163,255);fill-opacity:1;" d="M 42.839844 22.820313 L 48.578125 15.820313 C 44.378906 12.878906 39.339844 11.480469 34.300781 11.621094 L 35.28125 20.71875 C 37.800781 20.578125 40.460938 21.28125 42.839844 22.820313 "/>
</g>
<mask id="mask2">
  <g filter="url(#alpha)">
<rect x="0" y="0" width="70" height="70" style="fill:rgb(0,0,0);fill-opacity:0.6;stroke:none;"/>
  </g>
</mask>
<clipPath id="clip3">
  <rect x="0" y="0" width="70" height="70"/>
</clipPath>
<g id="surface11" clip-path="url(#clip3)">
<path style=" stroke:none;fill-rule:nonzero;fill:rgb(39,163,255);fill-opacity:1;" d="M 31.921875 21 L 30.941406 11.898438 C 25.898438 12.738281 21.28125 15.261719 17.921875 19.039063 L 24.921875 24.78125 C 26.878906 22.820313 29.398438 21.558594 31.921875 21 "/>
</g>
<mask id="mask3">
  <g filter="url(#alpha)">
<rect x="0" y="0" width="70" height="70" style="fill:rgb(0,0,0);fill-opacity:0.25098;stroke:none;"/>
  </g>
</mask>
<clipPath id="clip4">
  <rect x="0" y="0" width="70" height="70"/>
</clipPath>
<g id="surface14" clip-path="url(#clip4)">
<path style=" stroke:none;fill-rule:nonzero;fill:rgb(39,163,255);fill-opacity:1;" d="M 21.140625 38.078125 L 12.039063 39.058594 C 12.878906 44.101563 15.398438 48.71875 19.179688 52.21875 L 24.921875 45.21875 C 23.101563 43.121094 21.699219 40.738281 21.140625 38.078125 "/>
</g>
<mask id="mask4">
  <g filter="url(#alpha)">
<rect x="0" y="0" width="70" height="70" style="fill:rgb(0,0,0);fill-opacity:0.2;stroke:none;"/>
  </g>
</mask>
<clipPath id="clip5">
  <rect x="0" y="0" width="70" height="70"/>
</clipPath>
<g id="surface17" clip-path="url(#clip5)">
<path style=" stroke:none;fill-rule:nonzero;fill:rgb(255,255,255);fill-opacity:1;" d="M 16.660156 57.539063 C 4.199219 47.460938 2.378906 29.261719 12.460938 16.800781 C 21.558594 5.601563 37.378906 2.800781 49.699219 10.078125 L 52.5 4.761719 C 37.519531 -3.921875 18.621094 -0.421875 7.839844 13.019531 C -4.339844 28 -2.101563 49.980469 12.878906 62.160156 C 15.121094 63.980469 17.640625 65.519531 20.300781 66.78125 L 23.101563 61.460938 C 20.71875 60.480469 18.621094 59.078125 16.660156 57.539063 "/>
</g>
</defs>
<g id="surface1">
<path style=" stroke:none;fill-rule:nonzero;fill:rgb(255,255,255);fill-opacity:1;" d="M 31.921875 6.160156 C 15.960938 7.839844 4.480469 22.121094 6.160156 38.078125 C 7.839844 54.039063 22.121094 65.660156 38.078125 63.980469 C 54.039063 62.300781 65.660156 48.019531 63.980469 32.058594 C 63.140625 24.359375 59.21875 17.21875 53.199219 12.320313 C 47.878906 8.121094 41.578125 5.878906 35 6.019531 C 34.019531 6.019531 33.039063 6.019531 31.921875 6.160156 "/>
<use xlink:href="#surface5" mask="url(#mask0)"/>
<use xlink:href="#surface8" mask="url(#mask1)"/>
<use xlink:href="#surface11" mask="url(#mask2)"/>
<use xlink:href="#surface14" mask="url(#mask3)"/>
<path style=" stroke:none;fill-rule:nonzero;fill:rgb(65,174,255);fill-opacity:1;" d="M 69.71875 31.359375 C 68.738281 21.980469 64.121094 13.578125 56.699219 7.699219 C 55.300781 6.578125 53.898438 5.601563 52.359375 4.761719 L 49.558594 10.078125 C 50.679688 10.78125 51.800781 11.480469 52.921875 12.320313 C 65.519531 22.261719 67.621094 40.601563 57.539063 53.199219 C 52.640625 59.359375 45.640625 63.140625 37.800781 63.980469 C 32.621094 64.539063 27.441406 63.699219 22.820313 61.460938 L 20.019531 66.78125 C 37.519531 74.898438 58.238281 67.339844 66.5 49.839844 C 69.300781 44.101563 70.421875 37.660156 69.71875 31.359375 "/>
<path style=" stroke:none;fill-rule:nonzero;fill:rgb(65,174,255);fill-opacity:1;" d="M 16.660156 57.539063 C 4.199219 47.460938 2.378906 29.261719 12.460938 16.800781 C 21.558594 5.601563 37.378906 2.800781 49.699219 10.078125 L 52.5 4.761719 C 37.519531 -3.921875 18.621094 -0.421875 7.839844 13.019531 C -4.339844 28 -2.101563 49.980469 12.878906 62.160156 C 15.121094 63.980469 17.640625 65.519531 20.300781 66.78125 L 23.101563 61.460938 C 20.71875 60.480469 18.621094 59.078125 16.660156 57.539063 "/>
<use xlink:href="#surface17" mask="url(#mask4)"/>
<path style=" stroke:none;fill-rule:nonzero;fill:rgb(39,163,255);fill-opacity:1;" d="M 50.960938 17.640625 L 45.21875 24.640625 C 46.621094 26.039063 47.738281 27.71875 48.441406 29.398438 L 57.960938 29.398438 C 56.839844 25.058594 54.460938 20.859375 50.960938 17.640625 Z M 50.960938 17.640625 "/>
<path style=" stroke:none;fill-rule:nonzero;fill:rgb(0,135,236);fill-opacity:1;" d="M 32.339844 37.800781 C 30.800781 36.261719 30.660156 33.601563 32.339844 32.058594 C 33.179688 31.21875 34.160156 30.800781 35.28125 30.800781 C 36.398438 30.800781 37.378906 31.21875 38.21875 31.921875 L 59.078125 31.921875 C 60.761719 31.921875 62.019531 33.179688 62.019531 34.859375 C 62.019531 36.539063 60.761719 37.800781 59.078125 37.800781 L 37.800781 37.800781 C 37.101563 38.5 36.121094 38.921875 35.140625 38.921875 C 34.019531 39.058594 33.039063 38.640625 32.339844 37.800781 "/>
</g>
</svg>
