<?xml version="1.0" encoding="utf-8"?><svg version="1.1" xmlns="http://www.w3.org/2000/svg" xmlns:xlink="http://www.w3.org/1999/xlink" xmlns:xml="http://www.w3.org/XML/1998/namespace" width="70" height="70" viewBox="0, 0, 18, 18" id="b1565e97-e53a-44a5-9479-199d8c3c42d2"><defs><linearGradient x1="9" y1="177.9" x2="9" y2="160.1" gradientUnits="userSpaceOnUse" gradientTransform="translate(0, -160)" id="ec4358fa-c977-42e2-a7ab-994b5de56830"><stop offset="0%" stop-color="#0078D4" /><stop offset="6.4%" stop-color="#0A7CD7" /><stop offset="33.8%" stop-color="#2E8CE1" /><stop offset="59.4%" stop-color="#4897E9" /><stop offset="82.2%" stop-color="#589EED" /><stop offset="100%" stop-color="#5EA0EF" /></linearGradient><linearGradient x1="-26.189" y1="-295.6" x2="-26.189" y2="-311.105" gradientUnits="userSpaceOnUse" gradientTransform="translate(39.425, 321.61) scale(1.156, 1.029)" id="aae9e42c-091e-4dc7-8bec-a93418af93c4"><stop offset="0%" stop-color="#FEA11B" /><stop offset="28.4%" stop-color="#FEA51A" /><stop offset="54.7%" stop-color="#FEB018" /><stop offset="80%" stop-color="#FFC314" /><stop offset="100%" stop-color="#FFD70F" /></linearGradient></defs><title>Icon-322Artboard 1</title><path d="M17.9 10 V8 l-0.3 -0.1 l-2.2 -0.7 l-0.6 -1.4 L16 3.4 L14.5 2 l-0.3 0.1 l-2 1 l-1.4 -0.6 L10 0.1 H8 L7.8 0.4 L7.1 2.6 l-1.4 0.5 L3.4 2 L2 3.5 l0.1 0.3 l1 2 L2.6 7.2 L0.1 8 v2 l0.3 0.1 l2.2 0.7 l0.6 1.4 L2 14.6 L3.5 16 l0.3 -0.1 l2 -1 l1.4 0.6 L8 17.9 h2 l0.1 -0.3 l0.7 -2.2 l1.4 -0.6 l2.3 1.1 l1.4 -1.4 l-0.1 -0.3 l-1 -2 l0.6 -1.4 Z M9 12.9 A3.842 3.842 0 0 1 5.1 9 A3.842 3.842 0 0 1 9 5.1 A3.842 3.842 0 0 1 12.9 9 h0 A3.842 3.842 0 0 1 9 12.9 Z" style="fill:url(#ec4358fa-c977-42e2-a7ab-994b5de56830);" /><path d="M8.5 10.5 H4.9 a0.215 0.215 0 0 1 -0.2 -0.2 v-0.1 L9 1.7 c0 -0.1 0.1 -0.1 0.2 -0.1 h4.2 a0.215 0.215 0 0 1 0.2 0.2 v0.1 L8.5 8.6 h4.9 a0.215 0.215 0 0 1 0.2 0.2 a0.1 0.1 0 0 1 -0.1 0.1 L5.3 17.4 c-0.1 0 -0.6 0.5 -0.4 -0.2 h0 Z" style="fill:url(#aae9e42c-091e-4dc7-8bec-a93418af93c4);" /></svg>