<?xml version="1.0" encoding="utf-8"?><svg version="1.1" xmlns="http://www.w3.org/2000/svg" xmlns:xlink="http://www.w3.org/1999/xlink" xmlns:xml="http://www.w3.org/XML/1998/namespace" width="70" height="70" viewBox="0, 0, 18, 18" id="ff30cf1f-fbde-4896-9279-4e5bbc6f104f"><defs><linearGradient x1="6050.2" y1="-3638.83" x2="6038.28" y2="-3638.83" gradientUnits="userSpaceOnUse" gradientTransform="translate(-3629.83, -6034.61) rotate(90, 0, 0)" id="f5a0c05e-637e-4adf-b38d-bb1a0e612a3a"><stop offset="0%" stop-color="#007CD8" /><stop offset="0%" stop-color="#007CD8" /><stop offset="11%" stop-color="#0394FF" /><stop offset="23%" stop-color="#25A2FF" /><stop offset="37%" stop-color="#3DACFF" /><stop offset="53%" stop-color="#49B1FF" /><stop offset="78%" stop-color="#4FB4FF" /></linearGradient></defs><title>Icon-manage-304</title><path d="M15.16 13.51 a2.08 2.08 0 0 1 2.28 2.24 v0 A1.89 1.89 0 0 1 14.38 17 a0.67 0.67 0 0 1 -0.26 -0.54 V13.5 Z" style="fill:#007CD8;" /><path d="M17.49 13.5 v-9 A2.29 2.29 0 0 0 15.2 2.23 H0.51 a0 0 0 0 0 0 0 v9 a2.29 2.29 0 0 0 2.29 2.29 l2.43 0 h7.49 a25.76 25.76 0 0 1 3 0 c2 0.32 1.64 2.47 1.64 2.47 A11.13 11.13 0 0 0 17.49 13.5 Z" style="fill:url(#f5a0c05e-637e-4adf-b38d-bb1a0e612a3a);" /><path d="M0.5 11.42 l0 -0.07 a1.84 1.84 0 0 1 3.24 -0.9 a0.23 0.23 0 0 0 0.4 -0.15 l0 -7.82 a1.36 1.36 0 0 0 0 -0.29 v0 h0 a1.85 1.85 0 0 0 -3.64 0 h0 v0 a0.92 0.92 0 0 0 0 0.29 Z" style="fill:#007CD8;" /><path d="M12.34 8.48 a0.28 0.28 0 0 0 -0.28 -0.28 h-1 c-0.06 -0.14 -0.11 -0.29 -0.17 -0.43 c-0.22 -0.57 -0.46 -1.14 -0.69 -1.7 l-0.08 -0.19 a1.38 1.38 0 1 0 -0.7 0 l-0.09 0.2 c-0.25 0.56 -0.49 1.13 -0.73 1.7 l-0.18 0.44 h-1 a0.28 0.28 0 0 0 -0.28 0.28 a0.27 0.27 0 0 0 0.28 0.28 h0.8 c-0.1 0.24 -0.19 0.48 -0.28 0.72 c-0.22 0.58 -0.43 1.16 -0.63 1.75 v0 a0.23 0.23 0 0 0 0.42 0.19 v0 c0.31 -0.54 0.6 -1.09 0.88 -1.63 c0.18 -0.34 0.35 -0.68 0.52 -1 h1.26 l0.48 1 c0.28 0.55 0.56 1.1 0.85 1.64 h0 a0.23 0.23 0 0 0 0.42 -0.18 h0 c-0.18 -0.59 -0.38 -1.17 -0.58 -1.75 l-0.27 -0.73 h0.74 A0.27 0.27 0 0 0 12.34 8.48 Z M9 4.54 a0.81 0.81 0 0 1 1.62 0 A0.81 0.81 0 0 1 9 4.54 Z M9.43 8.2 l0 -0.07 l0.33 -0.72 l0.32 0.71 l0 0.08 Z" style="fill:white;" /></svg>