<?xml version="1.0" encoding="UTF-8"?>
<svg xmlns="http://www.w3.org/2000/svg" xmlns:xlink="http://www.w3.org/1999/xlink" width="70pt" height="70pt" viewBox="0 0 70 70" version="1.1">
<defs>
<linearGradient id="linear0" gradientUnits="userSpaceOnUse" x1="9" y1="2.95" x2="9" y2="6.34" gradientTransform="matrix(3.888889,0,0,3.888889,0,0)">
<stop offset="0" style="stop-color:rgb(77.647059%,60.392157%,92.156863%);stop-opacity:1;"/>
<stop offset="1" style="stop-color:rgb(43.529412%,29.411765%,69.803922%);stop-opacity:1;"/>
</linearGradient>
<linearGradient id="linear1" gradientUnits="userSpaceOnUse" x1="8.99" y1="6.76" x2="8.99" y2="9.22" gradientTransform="matrix(3.888889,0,0,3.888889,0,0)">
<stop offset="0" style="stop-color:rgb(32.941176%,68.235294%,94.117647%);stop-opacity:1;"/>
<stop offset="1" style="stop-color:rgb(9.803922%,53.333333%,85.098039%);stop-opacity:1;"/>
</linearGradient>
</defs>
<g id="surface1">
<path style=" stroke:none;fill-rule:nonzero;fill:rgb(58.039216%,58.039216%,58.039216%);fill-opacity:1;" d="M 53.238281 43.632813 L 47.40625 30.800781 L 35 16.332031 L 22.515625 30.761719 L 16.644531 43.554688 L 18.707031 44.527344 L 23.488281 34.105469 L 28.195313 44.527344 L 30.292969 43.59375 L 24.851563 31.578125 L 35 19.832031 L 45.109375 31.617188 L 39.589844 43.59375 L 41.648438 44.566406 L 46.433594 34.183594 L 51.140625 44.605469 Z M 53.238281 43.632813 "/>
<path style=" stroke:none;fill-rule:nonzero;fill:url(#linear0);" d="M 41.570313 18.082031 C 41.570313 21.714844 38.628906 24.65625 35 24.65625 C 31.371094 24.65625 28.429688 21.714844 28.429688 18.082031 C 28.429688 14.453125 31.371094 11.511719 35 11.511719 C 38.628906 11.511719 41.570313 14.453125 41.570313 18.082031 Z M 41.570313 18.082031 "/>
<path style=" stroke:none;fill-rule:nonzero;fill:url(#linear1);" d="M 23.332031 26.289063 C 25.28125 26.210938 27.082031 27.320313 27.882813 29.09375 C 28.6875 30.867188 28.335938 32.953125 26.992188 34.367188 C 25.648438 35.777344 23.585938 36.234375 21.773438 35.519531 C 19.960938 34.800781 18.761719 33.058594 18.746094 31.109375 C 18.722656 28.527344 20.753906 26.394531 23.332031 26.289063 Z M 41.6875 31.109375 C 41.6875 33.730469 43.8125 35.855469 46.433594 35.855469 C 48.375 35.871094 50.132813 34.710938 50.882813 32.921875 C 51.632813 31.128906 51.226563 29.0625 49.855469 27.691406 C 48.480469 26.316406 46.414063 25.910156 44.625 26.660156 C 42.832031 27.410156 41.671875 29.167969 41.6875 31.109375 Z M 41.6875 31.109375 "/>
<path style=" stroke:none;fill-rule:nonzero;fill:rgb(21.568627%,76.078431%,69.411765%);fill-opacity:1;" d="M 21.429688 44.023438 C 21.429688 46.105469 19.738281 47.792969 17.65625 47.792969 C 15.570313 47.792969 13.882813 46.105469 13.882813 44.023438 C 13.882813 41.9375 15.570313 40.25 17.65625 40.25 C 19.738281 40.25 21.429688 41.9375 21.429688 44.023438 Z M 21.429688 44.023438 "/>
<path style=" stroke:none;fill-rule:nonzero;fill:rgb(21.568627%,76.078431%,69.411765%);fill-opacity:1;" d="M 33.015625 44.0625 C 33.015625 46.144531 31.328125 47.832031 29.246094 47.832031 C 27.160156 47.832031 25.472656 46.144531 25.472656 44.0625 C 25.472656 41.976563 27.160156 40.289063 29.246094 40.289063 C 31.328125 40.289063 33.015625 41.976563 33.015625 44.0625 Z M 33.015625 44.0625 "/>
<path style=" stroke:none;fill-rule:nonzero;fill:rgb(21.568627%,76.078431%,69.411765%);fill-opacity:1;" d="M 44.371094 44.101563 C 44.371094 46.183594 42.683594 47.871094 40.601563 47.871094 C 38.515625 47.871094 36.828125 46.183594 36.828125 44.101563 C 36.828125 42.015625 38.515625 40.328125 40.601563 40.328125 C 42.683594 40.328125 44.371094 42.015625 44.371094 44.101563 Z M 44.371094 44.101563 "/>
<path style=" stroke:none;fill-rule:nonzero;fill:rgb(21.568627%,76.078431%,69.411765%);fill-opacity:1;" d="M 55.960938 44.140625 C 55.960938 46.222656 54.273438 47.910156 52.1875 47.910156 C 50.105469 47.910156 48.417969 46.222656 48.417969 44.140625 C 48.417969 42.054688 50.105469 40.367188 52.1875 40.367188 C 54.273438 40.367188 55.960938 42.054688 55.960938 44.140625 Z M 55.960938 44.140625 "/>
<path style=" stroke:none;fill-rule:nonzero;fill:rgb(58.039216%,58.039216%,58.039216%);fill-opacity:1;" d="M 1.945313 59.1875 C 1.941406 59.414063 2.0625 59.621094 2.253906 59.734375 L 6.726563 62.222656 L 14.503906 66.65625 C 14.820313 66.8125 15.203125 66.714844 15.398438 66.421875 L 17.773438 62.222656 C 17.867188 62.082031 17.898438 61.90625 17.851563 61.742188 C 17.808594 61.574219 17.691406 61.441406 17.539063 61.367188 L 8.632813 56.039063 C 8.4375 55.925781 8.320313 55.71875 8.320313 55.496094 L 8.320313 14.503906 C 8.320313 14.28125 8.4375 14.074219 8.632813 13.960938 L 17.539063 8.789063 C 17.75 8.734375 17.914063 8.566406 17.964844 8.355469 C 18.011719 8.140625 17.9375 7.917969 17.773438 7.777344 L 15.246094 3.460938 C 15.046875 3.167969 14.664063 3.070313 14.351563 3.226563 L 6.882813 7.542969 L 2.253906 10.265625 C 2.0625 10.378906 1.941406 10.585938 1.945313 10.8125 Z M 1.945313 59.1875 "/>
<path style=" stroke:none;fill-rule:nonzero;fill:rgb(63.921569%,63.921569%,63.921569%);fill-opacity:1;" d="M 17.773438 7.777344 L 15.246094 3.460938 C 15.101563 3.242188 14.84375 3.121094 14.582031 3.148438 L 14.273438 3.148438 L 6.804688 7.542969 L 2.179688 10.265625 C 2.101563 10.242188 2.019531 10.242188 1.945313 10.265625 C 1.925781 10.371094 1.925781 10.476563 1.945313 10.578125 L 8.320313 14.464844 C 8.320313 14.242188 8.4375 14.035156 8.632813 13.921875 L 17.539063 8.789063 C 17.75 8.734375 17.914063 8.566406 17.964844 8.355469 C 18.011719 8.140625 17.9375 7.917969 17.773438 7.777344 Z M 17.773438 7.777344 "/>
<path style=" stroke:none;fill-rule:nonzero;fill:rgb(63.921569%,63.921569%,63.921569%);fill-opacity:1;" d="M 17.773438 62.222656 L 15.246094 66.695313 C 15.101563 66.914063 14.84375 67.035156 14.582031 67.003906 C 14.484375 67.042969 14.371094 67.042969 14.273438 67.003906 L 6.804688 62.457031 L 2.179688 59.734375 C 2.101563 59.757813 2.019531 59.757813 1.945313 59.734375 C 1.925781 59.628906 1.925781 59.523438 1.945313 59.421875 L 8.320313 55.535156 C 8.320313 55.757813 8.4375 55.964844 8.632813 56.078125 L 17.539063 61.25 C 17.71875 61.328125 17.855469 61.484375 17.898438 61.675781 C 17.945313 61.867188 17.898438 62.070313 17.773438 62.222656 Z M 17.773438 62.222656 "/>
<path style=" stroke:none;fill-rule:nonzero;fill:rgb(58.039216%,58.039216%,58.039216%);fill-opacity:1;" d="M 68.054688 10.8125 C 68.058594 10.585938 67.9375 10.378906 67.746094 10.265625 L 63.273438 7.777344 L 55.496094 3.34375 C 55.179688 3.1875 54.796875 3.285156 54.601563 3.578125 L 52.226563 7.777344 C 52.132813 7.917969 52.101563 8.09375 52.148438 8.257813 C 52.191406 8.425781 52.308594 8.558594 52.460938 8.632813 L 61.367188 13.804688 C 61.5625 13.917969 61.679688 14.125 61.679688 14.351563 L 61.679688 55.496094 C 61.679688 55.71875 61.5625 55.925781 61.367188 56.039063 L 52.460938 61.210938 C 52.308594 61.285156 52.191406 61.421875 52.148438 61.585938 C 52.101563 61.75 52.132813 61.925781 52.226563 62.066406 L 54.753906 66.539063 C 54.953125 66.832031 55.335938 66.929688 55.648438 66.773438 L 63.117188 62.457031 L 67.746094 59.734375 C 67.9375 59.621094 68.058594 59.414063 68.054688 59.1875 Z M 68.054688 10.8125 "/>
<path style=" stroke:none;fill-rule:nonzero;fill:rgb(63.921569%,63.921569%,63.921569%);fill-opacity:1;" d="M 52.226563 62.222656 L 54.753906 66.695313 C 54.898438 66.914063 55.15625 67.035156 55.417969 67.003906 L 55.726563 67.003906 L 63.195313 62.6875 L 67.820313 59.964844 C 67.898438 59.992188 67.980469 59.992188 68.054688 59.964844 C 68.074219 59.863281 68.074219 59.757813 68.054688 59.65625 L 61.679688 55.765625 C 61.679688 55.992188 61.5625 56.199219 61.367188 56.3125 L 52.460938 61.484375 C 52.207031 61.636719 52.105469 61.953125 52.226563 62.222656 Z M 52.226563 62.222656 "/>
<path style=" stroke:none;fill-rule:nonzero;fill:rgb(63.921569%,63.921569%,63.921569%);fill-opacity:1;" d="M 52.226563 7.777344 L 54.753906 3.460938 C 54.898438 3.242188 55.15625 3.121094 55.417969 3.148438 C 55.515625 3.113281 55.628906 3.113281 55.726563 3.148438 L 63.195313 7.464844 L 67.820313 10.1875 C 67.898438 10.164063 67.980469 10.164063 68.054688 10.1875 C 68.074219 10.292969 68.074219 10.398438 68.054688 10.5 L 61.679688 14.390625 C 61.679688 14.164063 61.5625 13.957031 61.367188 13.84375 L 52.460938 8.789063 C 52.265625 8.714844 52.121094 8.550781 52.074219 8.347656 C 52.027344 8.144531 52.085938 7.929688 52.226563 7.777344 Z M 52.226563 7.777344 "/>
</g>
</svg>
