<?xml version="1.0" encoding="utf-8"?><svg version="1.1" xmlns="http://www.w3.org/2000/svg" xmlns:xlink="http://www.w3.org/1999/xlink" xmlns:xml="http://www.w3.org/XML/1998/namespace" xmlns:dc="http://purl.org/dc/elements/1.1/" xmlns:cc="http://creativecommons.org/ns#" xmlns:rdf="http://www.w3.org/1999/02/22-rdf-syntax-ns#" xmlns:sodipodi="http://sodipodi.sourceforge.net/DTD/sodipodi-0.dtd" xmlns:inkscape="http://www.inkscape.org/namespaces/inkscape" x="0" y="0" width="70" height="70" viewBox="0, 0, 49.9, 41.8" id="Layer_1" xml:space="preserve" sodipodi:docname="Azure Site Recovery_COLOR.svg" inkscape:version="0.92.2 (5c3e80d, 2017-08-06)" style="enable-background:new 0 0 50 50;">
  <metadata id="metadata11" />
  <defs id="defs9" />
  <sodipodi:namedview id="namedview7" pagecolor="#ffffff" bordercolor="#666666" borderopacity="1" objecttolerance="10" gridtolerance="10" guidetolerance="10" inkscape:pageopacity="0" inkscape:pageshadow="2" inkscape:window-width="640" inkscape:window-height="480" showgrid="false" inkscape:zoom="4.72" inkscape:cx="25" inkscape:cy="20" inkscape:window-x="0" inkscape:window-y="0" inkscape:window-maximized="0" inkscape:current-layer="Layer_1" />
  <path d="m28.4 13.6 c6 0 10.9 4.5 11.6 10.2 c1.4 1.1 2.5 2.4 3.3 3.8 c3.9 -1 6.6 -4.4 6.6 -8.5 c0 -3.3 -1.8 -5.9 -4.9 -7.4 c0 -0.4 0 -0.7 0 -1.1 C45 4.8 40.2 0 34.4 0 C30.9 0 27.7 1.7 25.7 4.4 C24.4 3.6 23 3.2 21.4 3.2 c-4.2 0 -7.6 3.2 -8 7.2 c0.6 -0.1 1.3 -0.1 2 -0.1 c3.1 0 6.6 0.5 9.5 3.6 z" id="path2" inkscape:connector-curvature="0" style="fill:#59B4D9;" />
  <path d="m36.5 25.8 v-0.6 c0 -4.4 -3.6 -8 -8 -8 c-1.4 0 -2.7 0.4 -3.9 1 v0.1 v-0.1 c-0.1 0.1 -0.3 0.1 -0.4 0.2 c0 0 0 0 -0.1 -0.1 c-2.3 1.7 -3.3 4.3 -3.4 7.1 h3.5 l-5.3 6.3 l-5.4 -6.3 h3.6 C17.2 21.6 18.7 18 21.3 15.7 C19.6 14.6 17.6 14 15.5 14 C9.6 14 4.8 18.7 4.8 24.5 c0 0.4 0 0.7 0 1.1 c-3 1.5 -4.8 4.1 -4.8 7.4 c0 5 4 8.8 9.2 8.8 h22.7 c5.2 0 9.2 -3.9 9.2 -8.8 c0 -3.2 -1.6 -5.7 -4.6 -7.2 z" id="path4" inkscape:connector-curvature="0" style="fill:#0072C6;" />
</svg>