<?xml version="1.0" encoding="utf-8"?><svg version="1.1" xmlns="http://www.w3.org/2000/svg" xmlns:xlink="http://www.w3.org/1999/xlink" xmlns:xml="http://www.w3.org/XML/1998/namespace" width="70" height="70" viewBox="0, 0, 18, 18" id="e0c2a2f0-e647-4f01-b91b-afb7bf15040d"><defs><linearGradient x1="8.45" y1="11.47" x2="8.45" y2="6.24" gradientUnits="userSpaceOnUse" id="a7f731a9-5c58-44f4-8037-3c3627e98008"><stop offset="0%" stop-color="#007CD8" /><stop offset="16%" stop-color="#008BF2" /><stop offset="50%" stop-color="#25A2FF" /><stop offset="80%" stop-color="#43AFFF" /><stop offset="100%" stop-color="#4FB4FF" /></linearGradient></defs><title>Icon-manage-316</title><ellipse cx="8.45" cy="8.85" rx="2.6" ry="2.61" style="fill:url(#a7f731a9-5c58-44f4-8037-3c3627e98008);" /><ellipse cx="15.73" cy="4.77" rx="1.27" ry="1.28" style="fill:#2FA6FF;" /><ellipse cx="15.73" cy="8.95" rx="1.27" ry="1.28" style="fill:#2FA6FF;" /><ellipse cx="15.73" cy="13.12" rx="1.27" ry="1.28" style="fill:#2FA6FF;" /><ellipse cx="12.83" cy="6.91" rx="1.27" ry="1.28" style="fill:#77C5FF;" /><ellipse cx="12.83" cy="11.09" rx="1.27" ry="1.28" style="fill:#77C5FF;" /><path d="M2.41 5.58 A0.24 0.24 0 0 1 2.5 5.5 L8.32 2.11 c0.08 0 5 2.78 5 2.78 a0.24 0.24 0 0 0 0.36 -0.21 V3.59 a0.24 0.24 0 0 0 -0.12 -0.21 S8.4 0.46 8.33 0.5 L1.11 4.64 L1 4.72 Z" style="fill:#29A4FF;" /><path d="M13.3 13.14 L8.56 15.87 a0.35 0.35 0 0 1 -0.11 0 v1.6 a0.2 0.2 0 0 0 0.11 0 l5 -2.86 a0.24 0.24 0 0 0 0.12 -0.2 V13.35 A0.24 0.24 0 0 0 13.3 13.14 Z" style="fill:#29A4FF;" /><path d="M8.45 15.9 a0.31 0.31 0 0 1 -0.13 0 L2.5 12.47 a0.22 0.22 0 0 1 -0.12 -0.2 V5.7 a0.27 0.27 0 0 1 0 -0.12 L1 4.72 a0.28 0.28 0 0 0 0 0.13 v8.27 a0.24 0.24 0 0 0 0.11 0.21 l7.22 4.14 a0.24 0.24 0 0 0 0.12 0 Z" style="fill:#67BEFF;" /></svg>