<?xml version="1.0" encoding="UTF-8"?>
<svg xmlns="http://www.w3.org/2000/svg" xmlns:xlink="http://www.w3.org/1999/xlink" width="70pt" height="63pt" viewBox="0 0 70 63" version="1.1">
<defs>
<filter id="alpha" filterUnits="objectBoundingBox" x="0%" y="0%" width="100%" height="100%">
  <feColorMatrix type="matrix" in="SourceGraphic" values="0 0 0 0 1 0 0 0 0 1 0 0 0 0 1 0 0 0 1 0"/>
</filter>
<mask id="mask0">
  <g filter="url(#alpha)">
<rect x="0" y="0" width="70" height="63" style="fill:rgb(0%,0%,0%);fill-opacity:0.301961;stroke:none;"/>
  </g>
</mask>
<clipPath id="clip1">
  <rect x="0" y="0" width="70" height="63"/>
</clipPath>
<g id="surface5" clip-path="url(#clip1)">
<path style=" stroke:none;fill-rule:nonzero;fill:rgb(100%,54.901961%,0%);fill-opacity:1;" d="M 55.308594 2.351563 L 44.324219 24.847656 L 47.058594 24.847656 C 46.816406 24.796875 46.710938 24.59375 46.863281 24.347656 L 51.589844 15.921875 L 52.703125 13.910156 L 53.996094 11.59375 L 56.75 6.714844 L 58.328125 3.871094 C 57.351563 3.308594 56.34375 2.804688 55.308594 2.351563 Z M 55.308594 2.351563 "/>
</g>
<mask id="mask1">
  <g filter="url(#alpha)">
<rect x="0" y="0" width="70" height="63" style="fill:rgb(0%,0%,0%);fill-opacity:0.301961;stroke:none;"/>
  </g>
</mask>
<clipPath id="clip2">
  <rect x="0" y="0" width="70" height="63"/>
</clipPath>
<g id="surface8" clip-path="url(#clip2)">
<path style=" stroke:none;fill-rule:nonzero;fill:rgb(100%,54.901961%,0%);fill-opacity:1;" d="M 53.089844 24.828125 L 50.023438 24.839844 L 38.691406 41.835938 L 53.285156 25.285156 C 53.503906 25.023438 53.417969 24.828125 53.089844 24.828125 Z M 53.089844 24.828125 "/>
</g>
</defs>
<g id="surface1">
<path style=" stroke:none;fill-rule:nonzero;fill:rgb(62.745098%,63.137255%,63.529412%);fill-opacity:1;" d="M 64.792969 30.320313 C 64.792969 29.792969 64.75 29.289063 64.707031 28.765625 L 70 25.835938 C 69.714844 24.085938 69.257813 22.378906 68.644531 20.757813 L 62.605469 20.867188 C 62.144531 19.925781 61.640625 19.007813 61.074219 18.15625 L 64.179688 12.972656 C 63.0625 11.613281 61.816406 10.367188 60.484375 9.273438 L 57.417969 11.089844 L 56.128906 13.015625 L 53.351563 17.105469 C 57.289063 20.167969 59.828125 24.9375 59.828125 30.320313 C 59.828125 39.550781 52.367188 47.03125 43.136719 47.03125 C 33.925781 47.03125 26.445313 39.550781 26.445313 30.320313 C 26.445313 22.050781 32.4375 15.226563 40.3125 13.867188 L 41.582031 8.726563 L 38.648438 3.433594 C 36.902344 3.71875 35.21875 4.175781 33.601563 4.789063 L 33.6875 10.847656 C 32.769531 11.285156 31.851563 11.789063 30.996094 12.378906 L 25.8125 9.273438 C 24.457031 10.367188 23.230469 11.613281 22.117188 12.972656 L 25.222656 18.15625 C 24.632813 19.007813 24.148438 19.925781 23.691406 20.867188 L 17.632813 20.757813 C 17.039063 22.378906 16.582031 24.085938 16.296875 25.835938 L 21.570313 28.765625 C 21.527344 29.289063 21.503906 29.792969 21.503906 30.320313 C 21.503906 30.84375 21.527344 31.347656 21.570313 31.871094 L 16.296875 34.800781 C 16.582031 36.550781 17.039063 38.257813 17.652344 39.878906 L 23.691406 39.769531 C 24.152344 40.710938 24.632813 41.628906 25.222656 42.480469 L 22.117188 47.664063 C 23.234375 49.023438 24.457031 50.269531 25.816406 51.382813 L 31 48.257813 C 31.851563 48.847656 32.769531 49.351563 33.691406 49.808594 L 33.601563 55.847656 C 35.21875 56.460938 36.902344 56.917969 38.652344 57.203125 L 41.605469 51.910156 C 42.109375 51.953125 42.613281 51.996094 43.136719 51.996094 C 43.660156 51.996094 44.1875 51.953125 44.6875 51.910156 L 47.621094 57.203125 C 49.371094 56.917969 51.078125 56.460938 52.695313 55.847656 L 52.585938 49.808594 C 53.527344 49.347656 54.425781 48.84375 55.300781 48.253906 L 60.484375 51.382813 C 61.820313 50.265625 63.066406 49.019531 64.179688 47.664063 L 61.074219 42.480469 C 61.644531 41.628906 62.148438 40.707031 62.605469 39.765625 L 68.644531 39.875 C 69.257813 38.257813 69.71875 36.550781 70 34.800781 L 64.707031 31.871094 C 64.75 31.347656 64.792969 30.84375 64.792969 30.320313 Z M 64.792969 30.320313 "/>
<path style=" stroke:none;fill-rule:nonzero;fill:rgb(47.843137%,47.843137%,47.843137%);fill-opacity:1;" d="M 22.398438 53.242188 L 22.398438 50.640625 L 22.257813 50.507813 L 19.59375 49.613281 L 18.910156 47.820313 L 20.226563 45.085938 L 20.371094 44.777344 L 19.546875 43.945313 L 18.546875 42.9375 L 18.195313 43.113281 L 15.59375 44.449219 L 13.800781 43.945313 L 12.664063 41.035156 L 10.085938 41.035156 L 9.953125 41.167969 L 9.054688 43.824219 L 7.242188 44.507813 L 4.222656 43.058594 L 2.382813 44.878906 L 2.558594 45.222656 L 3.894531 47.824219 L 3.148438 49.613281 L 0 50.75 L 0 53.351563 L 0.371094 53.460938 L 3.148438 54.378906 L 3.894531 56.171875 L 2.472656 59.191406 L 4.308594 61.050781 L 4.660156 60.875 L 7.261719 59.542969 L 9.054688 60.285156 L 10.195313 63.4375 L 12.796875 63.4375 L 12.90625 63.0625 L 13.824219 60.285156 L 15.597656 59.542969 L 18.636719 60.964844 L 20.476563 59.128906 L 20.300781 58.777344 L 18.964844 56.175781 L 19.480469 54.359375 Z M 11.441406 55.648438 C 9.425781 55.648438 7.789063 54.007813 7.789063 51.996094 C 7.789063 49.984375 9.429688 48.34375 11.441406 48.34375 C 13.453125 48.34375 15.074219 49.984375 15.074219 51.996094 C 15.074219 54.007813 13.453125 55.648438 11.441406 55.648438 Z M 11.441406 55.648438 "/>
<path style=" stroke:none;fill-rule:nonzero;fill:rgb(98.823529%,81.960784%,8.627451%);fill-opacity:1;" d="M 46.617188 0 L 45.609375 3.171875 L 43.882813 8.6875 L 43.050781 11.332031 L 42.328125 13.648438 L 37.296875 29.640625 C 37.1875 29.945313 37.339844 30.1875 37.6875 30.1875 L 42.328125 30.1875 C 42.480469 30.1875 42.589844 30.230469 42.65625 30.320313 C 42.765625 30.425781 42.785156 30.582031 42.722656 30.757813 L 37.929688 42.371094 C 37.796875 42.679688 37.886719 42.746094 38.105469 42.480469 L 53.265625 25.285156 C 53.484375 25.023438 53.398438 24.828125 53.070313 24.828125 L 48.101563 24.851563 L 47.183594 24.871094 C 46.855469 24.871094 46.703125 24.632813 46.878906 24.347656 L 51.601563 15.925781 L 52.71875 13.910156 L 54.007813 11.59375 L 56.765625 6.714844 L 58.339844 3.871094 C 54.820313 1.835938 50.859375 0.480469 46.617188 0 Z M 46.617188 0 "/>
<use xlink:href="#surface5" mask="url(#mask0)"/>
<use xlink:href="#surface8" mask="url(#mask1)"/>
</g>
</svg>
