<?xml version="1.0" encoding="UTF-8"?>
<svg xmlns="http://www.w3.org/2000/svg" xmlns:xlink="http://www.w3.org/1999/xlink" width="70pt" height="70pt" viewBox="0 0 70 70" version="1.1">
<defs>
<linearGradient id="linear0" gradientUnits="userSpaceOnUse" x1="6.57" y1="7.06" x2="6.57" y2="3.76" gradientTransform="matrix(3.888889,0,0,3.888889,0,0)">
<stop offset="0" style="stop-color:rgb(46.666667%,22.745098%,86.27451%);stop-opacity:1;"/>
<stop offset="1" style="stop-color:rgb(71.764706%,47.843137%,95.686275%);stop-opacity:1;"/>
</linearGradient>
<linearGradient id="linear1" gradientUnits="userSpaceOnUse" x1="11.02" y1="11.15" x2="11.02" y2="7.86" gradientTransform="matrix(3.888889,0,0,3.888889,0,0)">
<stop offset="0" style="stop-color:rgb(46.666667%,22.745098%,86.27451%);stop-opacity:1;"/>
<stop offset="1" style="stop-color:rgb(71.764706%,47.843137%,95.686275%);stop-opacity:1;"/>
</linearGradient>
<linearGradient id="linear2" gradientUnits="userSpaceOnUse" x1="15.15" y1="3.79" x2="15.15" y2="0.5" gradientTransform="matrix(3.888889,0,0,3.888889,0,0)">
<stop offset="0" style="stop-color:rgb(46.666667%,22.745098%,86.27451%);stop-opacity:1;"/>
<stop offset="1" style="stop-color:rgb(71.764706%,47.843137%,95.686275%);stop-opacity:1;"/>
</linearGradient>
<linearGradient id="linear3" gradientUnits="userSpaceOnUse" x1="2.85" y1="11.86" x2="2.85" y2="8.57" gradientTransform="matrix(3.888889,0,0,3.888889,0,0)">
<stop offset="0" style="stop-color:rgb(46.666667%,22.745098%,86.27451%);stop-opacity:1;"/>
<stop offset="1" style="stop-color:rgb(71.764706%,47.843137%,95.686275%);stop-opacity:1;"/>
</linearGradient>
</defs>
<g id="surface1">
<path style=" stroke:none;fill-rule:nonzero;fill:rgb(71.764706%,58.823529%,97.647059%);fill-opacity:1;" d="M 57.285156 6.300781 L 41.765625 33.910156 L 25.355469 17.1875 L 8.4375 39.121094 L 12.40625 42.234375 L 25.820313 24.929688 L 42.855469 42.3125 L 61.679688 8.828125 Z M 57.285156 6.300781 "/>
<path style=" stroke:none;fill-rule:nonzero;fill:url(#linear0);" d="M 31.929688 21.039063 C 31.929688 17.496094 29.074219 14.621094 25.550781 14.621094 C 22.027344 14.621094 19.171875 17.496094 19.171875 21.039063 C 19.171875 24.582031 22.027344 27.457031 25.550781 27.457031 C 29.074219 27.457031 31.929688 24.582031 31.929688 21.039063 Z M 31.929688 21.039063 "/>
<path style=" stroke:none;fill-rule:nonzero;fill:url(#linear1);" d="M 49.234375 36.945313 C 49.234375 33.402344 46.378906 30.527344 42.855469 30.527344 C 39.332031 30.527344 36.476563 33.402344 36.476563 36.945313 C 36.476563 40.488281 39.332031 43.359375 42.855469 43.359375 C 46.378906 43.359375 49.234375 40.488281 49.234375 36.945313 Z M 49.234375 36.945313 "/>
<path style=" stroke:none;fill-rule:nonzero;fill:url(#linear2);" d="M 65.292969 8.359375 C 65.292969 4.816406 62.4375 1.945313 58.917969 1.945313 C 55.394531 1.945313 52.539063 4.816406 52.539063 8.359375 C 52.539063 11.90625 55.394531 14.777344 58.917969 14.777344 C 62.4375 14.777344 65.292969 11.90625 65.292969 8.359375 Z M 65.292969 8.359375 "/>
<path style=" stroke:none;fill-rule:nonzero;fill:url(#linear3);" d="M 17.460938 39.746094 C 17.460938 36.199219 14.605469 33.328125 11.082031 33.328125 C 7.5625 33.328125 4.707031 36.199219 4.707031 39.746094 C 4.707031 43.289063 7.5625 46.160156 11.082031 46.160156 C 14.605469 46.160156 17.460938 43.289063 17.460938 39.746094 Z M 17.460938 39.746094 "/>
<path style=" stroke:none;fill-rule:nonzero;fill:rgb(0%,47.058824%,83.137255%);fill-opacity:1;" d="M 23.140625 38.578125 L 30.996094 38.578125 C 31.597656 38.578125 32.082031 39.066406 32.082031 39.667969 L 32.082031 66.964844 C 32.082031 67.566406 31.597656 68.054688 30.996094 68.054688 L 23.140625 68.054688 C 22.539063 68.054688 22.050781 67.566406 22.050781 66.964844 L 22.050781 39.667969 C 22.050781 39.066406 22.539063 38.578125 23.140625 38.578125 Z M 23.140625 38.578125 "/>
<path style=" stroke:none;fill-rule:nonzero;fill:rgb(0%,35.686275%,63.137255%);fill-opacity:1;" d="M 39.121094 48.765625 L 46.976563 48.765625 C 47.578125 48.765625 48.066406 49.253906 48.066406 49.855469 L 48.066406 66.964844 C 48.066406 67.566406 47.578125 68.054688 46.976563 68.054688 L 39.121094 68.054688 C 38.519531 68.054688 38.035156 67.566406 38.035156 66.964844 L 38.035156 49.855469 C 38.035156 49.253906 38.519531 48.765625 39.121094 48.765625 Z M 39.121094 48.765625 "/>
<path style=" stroke:none;fill-rule:nonzero;fill:rgb(0%,35.686275%,63.137255%);fill-opacity:1;" d="M 55.105469 28.699219 L 62.960938 28.699219 C 63.5625 28.699219 64.050781 29.1875 64.050781 29.789063 L 64.050781 66.964844 C 64.050781 67.566406 63.5625 68.054688 62.960938 68.054688 L 55.105469 68.054688 C 54.503906 68.054688 54.015625 67.566406 54.015625 66.964844 L 54.015625 29.789063 C 54.015625 29.1875 54.503906 28.699219 55.105469 28.699219 Z M 55.105469 28.699219 "/>
<path style=" stroke:none;fill-rule:nonzero;fill:rgb(36.862745%,62.745098%,93.72549%);fill-opacity:1;" d="M 7.15625 48.765625 L 15.011719 48.765625 C 15.613281 48.765625 16.101563 49.253906 16.101563 49.855469 L 16.101563 66.964844 C 16.101563 67.566406 15.613281 68.054688 15.011719 68.054688 L 7.15625 68.054688 C 6.554688 68.054688 6.066406 67.566406 6.066406 66.964844 L 6.066406 49.855469 C 6.066406 49.253906 6.554688 48.765625 7.15625 48.765625 Z M 7.15625 48.765625 "/>
</g>
</svg>
