<?xml version="1.0" encoding="utf-8"?><svg version="1.1" xmlns="http://www.w3.org/2000/svg" xmlns:xlink="http://www.w3.org/1999/xlink" xmlns:xml="http://www.w3.org/XML/1998/namespace" width="70" height="70" viewBox="0, 0, 18, 18" id="a400848c-c804-486a-8905-f23f1ce1f264"><defs><linearGradient x1="9" y1="2.95" x2="9" y2="6.34" gradientUnits="userSpaceOnUse" id="fe3a1fdc-489c-4216-9288-95641230895c"><stop offset="0%" stop-color="#C69AEB" /><stop offset="100%" stop-color="#6F4BB2" /></linearGradient><linearGradient x1="8.99" y1="6.76" x2="8.99" y2="9.22" gradientUnits="userSpaceOnUse" id="bef6728f-6d46-4a54-b219-6b3352c89329"><stop offset="0%" stop-color="#54AEF0" /><stop offset="100%" stop-color="#1988D9" /></linearGradient></defs><title>Icon-general-11</title><g><polygon points="13.69,11.22 12.19,7.92 9,4.2 5.79,7.91 4.28,11.2 4.81,11.45 6.04,8.77 7.25,11.45 7.79,11.21 6.39,8.12 9,5.1 11.6,8.13 10.18,11.21 10.71,11.46 11.94,8.79 13.15,11.47 13.69,11.22" style="fill:#949494;" /><circle cx="9" cy="4.65" r="1.69" style="fill:url(#fe3a1fdc-489c-4216-9288-95641230895c);" /><path d="M6 6.76 A1.23 1.23 0 1 1 4.82 8 A1.23 1.23 0 0 1 6 6.76 Z M10.72 8 a1.22 1.22 0 0 0 1.22 1.22 A1.23 1.23 0 1 0 10.72 8 Z" style="fill:url(#bef6728f-6d46-4a54-b219-6b3352c89329);" /><g><g><circle cx="4.54" cy="11.32" r="0.97" style="fill:#37C2B1;" /><circle cx="7.52" cy="11.33" r="0.97" style="fill:#37C2B1;" /></g><g><circle cx="10.44" cy="11.34" r="0.97" style="fill:#37C2B1;" /><circle cx="13.42" cy="11.35" r="0.97" style="fill:#37C2B1;" /></g></g><path d="M0.5 15.22 a0.16 0.16 0 0 0 0.08 0.14 L1.73 16 l2 1.14 a0.18 0.18 0 0 0 0.23 -0.06 L4.57 16 a0.15 0.15 0 0 0 -0.06 -0.22 L2.22 14.41 a0.16 0.16 0 0 1 -0.08 -0.14 V3.73 a0.16 0.16 0 0 1 0.08 -0.14 L4.51 2.26 A0.15 0.15 0 0 0 4.57 2 L3.92 0.89 A0.18 0.18 0 0 0 3.69 0.83 L1.77 1.94 l-1.19 0.7 a0.16 0.16 0 0 0 -0.08 0.14 V15.22 Z" style="fill:#949494;" /><path d="M4.57 2 L3.92 0.89 A0.18 0.18 0 0 0 3.75 0.81 l-0.08 0 L1.75 1.94 l-1.19 0.7 a0.1 0.1 0 0 0 -0.06 0 h0 a0.24 0.24 0 0 0 0 0.08 l1.64 1 a0.16 0.16 0 0 1 0.08 -0.14 L4.51 2.26 A0.15 0.15 0 0 0 4.57 2 Z" style="fill:#A3A3A3;" /><path d="M4.57 16 l-0.65 1.15 a0.18 0.18 0 0 1 -0.17 0.08 a0.12 0.12 0 0 1 -0.08 0 L1.75 16.06 l-1.19 -0.7 a0.1 0.1 0 0 1 -0.06 0 h0 a0.24 0.24 0 0 1 0 -0.08 l1.64 -1 a0.16 0.16 0 0 0 0.08 0.14 l2.29 1.33 A0.16 0.16 0 0 1 4.57 16 Z" style="fill:#A3A3A3;" /><path d="M17.5 2.78 a0.16 0.16 0 0 0 -0.08 -0.14 L16.27 2 l-2 -1.14 a0.18 0.18 0 0 0 -0.23 0.06 L13.43 2 a0.15 0.15 0 0 0 0.06 0.22 l2.29 1.33 a0.16 0.16 0 0 1 0.08 0.14 V14.27 a0.16 0.16 0 0 1 -0.08 0.14 l-2.29 1.33 a0.15 0.15 0 0 0 -0.06 0.22 l0.65 1.15 a0.18 0.18 0 0 0 0.23 0.06 l1.92 -1.11 l1.19 -0.7 a0.16 0.16 0 0 0 0.08 -0.14 V2.78 Z" style="fill:#949494;" /><path d="M13.43 16 l0.65 1.15 a0.18 0.18 0 0 0 0.17 0.08 l0.08 0 l1.92 -1.11 l1.19 -0.7 a0.1 0.1 0 0 0 0.06 0 h0 a0.24 0.24 0 0 0 0 -0.08 l-1.64 -1 a0.16 0.16 0 0 1 -0.08 0.14 l-2.29 1.33 A0.15 0.15 0 0 0 13.43 16 Z" style="fill:#A3A3A3;" /><path d="M13.43 2 L14.08 0.89 a0.18 0.18 0 0 1 0.17 -0.08 a0.12 0.12 0 0 1 0.08 0 l1.92 1.11 l1.19 0.7 a0.1 0.1 0 0 1 0.06 0 h0 a0.24 0.24 0 0 1 0 0.08 l-1.64 1 a0.16 0.16 0 0 0 -0.08 -0.14 L13.49 2.26 A0.16 0.16 0 0 1 13.43 2 Z" style="fill:#A3A3A3;" /></g></svg>