<?xml version="1.0" encoding="UTF-8"?>
<svg xmlns="http://www.w3.org/2000/svg" xmlns:xlink="http://www.w3.org/1999/xlink" width="70pt" height="70pt" viewBox="0 0 70 70" version="1.1">
<defs>
<linearGradient id="linear0" gradientUnits="userSpaceOnUse" x1="9" y1="17.198" x2="9" y2="-3.282" gradientTransform="matrix(3.888889,0,0,3.888889,0,0)">
<stop offset="0" style="stop-color:rgb(0,138,240);stop-opacity:1;"/>
<stop offset="0.183" style="stop-color:rgb(0,143,250);stop-opacity:1;"/>
<stop offset="0.435" style="stop-color:rgb(23,156,255);stop-opacity:1;"/>
<stop offset="0.726" style="stop-color:rgb(71,176,255);stop-opacity:1;"/>
<stop offset="0.822" style="stop-color:rgb(89,184,255);stop-opacity:1;"/>
</linearGradient>
</defs>
<g id="surface1">
<path style=" stroke:none;fill-rule:nonzero;fill:url(#linear0);" d="M 68.054688 9.722656 L 68.054688 51.847656 C 68.050781 53.097656 67.035156 54.109375 65.785156 54.105469 L 48.222656 54.105469 C 47.917969 54.105469 47.671875 54.351563 47.671875 54.65625 L 47.671875 61.445313 C 47.667969 61.863281 47.429688 62.242188 47.050781 62.429688 C 46.675781 62.613281 46.230469 62.570313 45.898438 62.316406 L 35.308594 54.222656 C 35.210938 54.148438 35.089844 54.105469 34.96875 54.105469 L 4.214844 54.105469 C 2.964844 54.109375 1.949219 53.097656 1.945313 51.847656 L 1.945313 9.722656 C 1.949219 8.472656 2.964844 7.457031 4.214844 7.457031 L 65.785156 7.457031 C 67.035156 7.457031 68.050781 8.472656 68.054688 9.722656 Z M 68.054688 9.722656 "/>
<path style=" stroke:none;fill-rule:nonzero;fill:rgb(229,243,255);fill-opacity:1;" d="M 41.890625 30.554688 C 40.304688 29.074219 38.414063 27.960938 36.351563 27.292969 L 36.351563 21.210938 C 38.121094 21.460938 39.820313 22.0625 41.355469 22.980469 C 41.488281 23.058594 41.652344 23.058594 41.785156 22.980469 C 41.925781 22.902344 42.011719 22.75 42.003906 22.589844 L 42.003906 17.71875 C 42.011719 17.558594 41.925781 17.40625 41.785156 17.328125 C 40.082031 16.519531 38.226563 16.089844 36.339844 16.066406 L 36.339844 13.191406 C 36.339844 12.953125 36.148438 12.761719 35.914063 12.761719 L 33.300781 12.761719 C 33.0625 12.761719 32.871094 12.953125 32.871094 13.191406 L 32.871094 16.171875 C 30.957031 16.394531 29.167969 17.230469 27.765625 18.558594 C 26.359375 19.902344 25.574219 21.773438 25.605469 23.722656 C 25.523438 25.539063 26.160156 27.3125 27.371094 28.664063 C 28.949219 30.128906 30.828125 31.238281 32.871094 31.917969 L 32.871094 37.722656 C 31.808594 37.582031 30.765625 37.320313 29.761719 36.945313 C 28.699219 36.617188 27.695313 36.113281 26.792969 35.457031 C 26.664063 35.363281 26.492188 35.351563 26.347656 35.421875 C 26.203125 35.496094 26.113281 35.644531 26.109375 35.804688 L 26.109375 40.832031 C 26.109375 40.996094 26.195313 41.144531 26.339844 41.222656 C 28.367188 42.28125 30.605469 42.863281 32.890625 42.929688 L 32.890625 46.328125 C 32.890625 46.566406 33.082031 46.757813 33.320313 46.761719 L 35.945313 46.761719 C 36.183594 46.757813 36.371094 46.566406 36.371094 46.328125 L 36.371094 42.777344 C 38.347656 42.585938 40.210938 41.769531 41.6875 40.445313 C 43.039063 39.085938 43.765625 37.226563 43.6875 35.316406 C 43.738281 33.554688 43.09375 31.84375 41.890625 30.554688 Z M 38.0625 35.523438 L 38.0625 35.554688 C 38.128906 36.585938 37.382813 37.492188 36.355469 37.617188 L 36.355469 33.339844 C 37.472656 33.964844 38.046875 34.695313 38.0625 35.523438 Z M 31.238281 23.421875 C 31.175781 22.414063 31.878906 21.519531 32.871094 21.339844 L 32.871094 25.816406 C 31.929688 25.382813 31.300781 24.460938 31.238281 23.421875 Z M 31.238281 23.421875 "/>
</g>
</svg>
