<?xml version="1.0" encoding="utf-8"?><svg version="1.1" xmlns="http://www.w3.org/2000/svg" xmlns:xlink="http://www.w3.org/1999/xlink" xmlns:xml="http://www.w3.org/XML/1998/namespace" width="70" height="70" viewBox="0, 0, 18, 18"><defs><linearGradient x1="9" y1="15.427" x2="9" y2="5.973" gradientUnits="userSpaceOnUse" id="a005d9e9-7e29-4ef4-b995-a79dce2e9bf8"><stop offset="0%" stop-color="#32BEDD" /><stop offset="17.5%" stop-color="#32CAEA" /><stop offset="41%" stop-color="#32D2F2" /><stop offset="77.5%" stop-color="#32D4F5" /></linearGradient></defs><title>MsPortalFx.base.images-60</title><g id="f12b48ce-114c-4425-96be-0112b3f7d9c3"><g><path d="M1 5.973 H17 a0 0 0 0 1 0 0 v8.92 a0.535 0.535 0 0 1 -0.535 0.535 H1.535 A0.535 0.535 0 0 1 1 14.893 V5.973 A0 0 0 0 1 1 5.973 Z" style="fill:url(#a005d9e9-7e29-4ef4-b995-a79dce2e9bf8);" /><path d="M1.538 2.563 H16.462 A0.535 0.535 0 0 1 17 3.1 V5.973 a0 0 0 0 1 0 0 H1 a0 0 0 0 1 0 0 V3.1 A0.535 0.535 0 0 1 1.538 2.563 Z" style="fill:#198AB3;" /><path d="M1 5.973 H5.194 a0 0 0 0 1 0 0 v9.455 a0 0 0 0 1 0 0 H1.536 A0.532 0.532 0 0 1 1 14.895 V5.973 A0 0 0 0 1 1 5.973 Z" style="fill:#9CEBFF;" /><path d="M5.194 13.356 H17 a0 0 0 0 1 0 0 V14.9 a0.532 0.532 0 0 1 -0.532 0.532 H5.194 a0 0 0 0 1 0 0 V13.356 a0 0 0 0 1 0 0 Z" style="fill:#32BEDD;" /></g></g></svg>