<?xml version="1.0" encoding="UTF-8"?>
<svg xmlns="http://www.w3.org/2000/svg" xmlns:xlink="http://www.w3.org/1999/xlink" width="70pt" height="70pt" viewBox="0 0 70 70" version="1.1">
<g id="surface1">
<path style=" stroke:none;fill-rule:nonzero;fill:rgb(0%,44.705882%,77.647059%);fill-opacity:1;" d="M 23.039063 27.261719 L 15.972656 21.542969 C 12.949219 25.863281 11.578125 30.90625 11.785156 35.867188 L 20.820313 34.914063 C 20.820313 32.269531 21.546875 29.613281 23.039063 27.261719 "/>
<path style=" stroke:none;fill-rule:nonzero;fill:rgb(0%,44.705882%,77.647059%);fill-opacity:1;" d="M 42.804688 22.789063 L 48.527344 15.722656 C 44.199219 12.703125 39.15625 11.339844 34.195313 11.546875 L 35.144531 20.582031 C 37.792969 20.578125 40.453125 21.304688 42.804688 22.789063 "/>
<path style=" stroke:none;fill-rule:nonzero;fill:rgb(0%,44.705882%,77.647059%);fill-opacity:1;" d="M 31.996094 20.9375 L 31.042969 11.894531 C 26.15625 12.765625 21.527344 15.183594 17.953125 19.066406 L 25.015625 24.785156 C 26.984375 22.8125 29.417969 21.519531 31.996094 20.9375 "/>
<path style=" stroke:none;fill-rule:nonzero;fill:rgb(0%,44.705882%,77.647059%);fill-opacity:1;" d="M 21.167969 38.066406 L 12.125 39.019531 C 12.992188 43.90625 15.410156 48.539063 19.292969 52.121094 L 25.011719 45.058594 C 23.035156 43.085938 21.746094 40.648438 21.167969 38.066406 "/>
<path style=" stroke:none;fill-rule:nonzero;fill:rgb(0%,44.705882%,77.647059%);fill-opacity:1;" d="M 51.003906 17.707031 L 45.285156 24.769531 C 46.695313 26.171875 47.746094 27.816406 48.453125 29.582031 L 57.9375 29.582031 C 56.898438 25.140625 54.566406 20.980469 51.003906 17.707031 Z M 51.003906 17.707031 "/>
<path style=" stroke:none;fill-rule:nonzero;fill:rgb(0%,44.705882%,77.647059%);fill-opacity:1;" d="M 61.964844 34.96875 C 61.964844 34.964844 61.96875 34.960938 61.96875 34.957031 C 61.957031 33.320313 60.625 32 58.980469 32 L 58.976563 31.992188 L 58.105469 32 L 38.105469 32 C 38.09375 31.988281 38.089844 32.007813 38.078125 32 C 37.28125 31.207031 36.242188 30.863281 35.199219 30.863281 C 34.148438 30.863281 33.09375 31.265625 32.289063 32.074219 C 30.699219 33.675781 30.710938 36.265625 32.316406 37.855469 C 33.113281 38.648438 34.152344 39.039063 35.1875 39.039063 C 36.152344 39.039063 37.109375 38.625 37.878906 37.949219 L 59 37.949219 C 60.640625 37.945313 61.957031 36.617188 61.964844 34.976563 L 61.96875 34.976563 C 61.96875 34.972656 61.964844 34.972656 61.964844 34.96875 Z M 61.964844 34.96875 "/>
<path style=" stroke:none;fill-rule:nonzero;fill:rgb(0%,44.705882%,77.647059%);fill-opacity:1;" d="M 35 5.878906 C 51.054688 5.878906 64.121094 18.945313 64.121094 35 C 64.121094 51.054688 51.054688 64.121094 35 64.121094 C 18.945313 64.121094 5.878906 51.054688 5.878906 35 C 5.878906 18.945313 18.945313 5.878906 35 5.878906 M 35 0 C 15.671875 0 0 15.671875 0 35 C 0 54.328125 15.671875 70 35 70 C 54.328125 70 70 54.328125 70 35 C 70 15.671875 54.328125 0 35 0 Z M 35 0 "/>
</g>
</svg>
