<?xml version="1.0" encoding="UTF-8"?>
<svg xmlns="http://www.w3.org/2000/svg" xmlns:xlink="http://www.w3.org/1999/xlink" width="70pt" height="70pt" viewBox="0 0 70 70" version="1.1">
<defs>
<linearGradient id="linear0" gradientUnits="userSpaceOnUse" x1="11.13" y1="10.95" x2="11.13" y2="1.21" gradientTransform="matrix(3.888889,0,0,3.888889,0,0)">
<stop offset="0" style="stop-color:rgb(0%,47.058824%,83.137255%);stop-opacity:1;"/>
<stop offset="0.16" style="stop-color:rgb(7.45098%,50.196078%,85.490196%);stop-opacity:1;"/>
<stop offset="0.53" style="stop-color:rgb(23.529412%,56.862745%,89.803922%);stop-opacity:1;"/>
<stop offset="0.82" style="stop-color:rgb(33.333333%,61.176471%,92.54902%);stop-opacity:1;"/>
<stop offset="1" style="stop-color:rgb(36.862745%,62.745098%,93.72549%);stop-opacity:1;"/>
</linearGradient>
<linearGradient id="linear1" gradientUnits="userSpaceOnUse" x1="7.06" y1="16.79" x2="7.06" y2="6.78" gradientTransform="matrix(3.888889,0,0,3.888889,0,0)">
<stop offset="0" style="stop-color:rgb(9.803922%,54.117647%,70.196078%);stop-opacity:1;"/>
<stop offset="0.13" style="stop-color:rgb(12.941176%,62.745098%,78.039216%);stop-opacity:1;"/>
<stop offset="0.31" style="stop-color:rgb(15.686275%,71.764706%,85.882353%);stop-opacity:1;"/>
<stop offset="0.5" style="stop-color:rgb(18.039216%,78.039216%,91.764706%);stop-opacity:1;"/>
<stop offset="0.72" style="stop-color:rgb(19.215686%,81.960784%,94.901961%);stop-opacity:1;"/>
<stop offset="1" style="stop-color:rgb(19.607843%,83.137255%,96.078431%);stop-opacity:1;"/>
</linearGradient>
</defs>
<g id="surface1">
<path style=" stroke:none;fill-rule:nonzero;fill:url(#linear0);" d="M 70 30.722656 C 69.878906 24.792969 65.453125 19.839844 59.578125 19.054688 C 59.21875 10.792969 52.289063 4.347656 44.023438 4.589844 C 37.398438 4.488281 31.433594 8.589844 29.167969 14.816406 C 22.125 15.660156 16.765625 21.535156 16.566406 28.621094 C 16.667969 32.5 18.316406 36.179688 21.140625 38.835938 C 23.96875 41.496094 27.738281 42.914063 31.617188 42.777344 L 57.945313 42.777344 C 64.574219 42.714844 69.9375 37.355469 70 30.722656 Z M 70 30.722656 "/>
<path style=" stroke:none;fill-rule:nonzero;fill:rgb(100%,100%,100%);fill-opacity:1;" d="M 55.960938 20.300781 L 48.84375 13.378906 C 48.066406 12.601563 47.40625 12.871094 47.40625 14.078125 L 47.40625 17.1875 C 47.40625 17.421875 47.308594 17.644531 47.140625 17.808594 C 46.972656 17.96875 46.746094 18.054688 46.511719 18.042969 C 41.921875 18.042969 29.128906 19.25 28.660156 36.75 C 28.660156 37.242188 29.0625 37.644531 29.554688 37.644531 L 34.105469 37.644531 C 34.355469 37.644531 34.597656 37.539063 34.765625 37.355469 C 34.9375 37.171875 35.023438 36.921875 35 36.671875 C 34.265625 33.296875 35.199219 29.773438 37.511719 27.207031 C 39.824219 24.640625 43.234375 23.34375 46.667969 23.722656 C 47.160156 23.722656 47.5625 24.121094 47.5625 24.617188 L 47.5625 27.496094 C 47.5625 28.933594 48.027344 29.167969 49 28.195313 L 55.960938 21.777344 C 56.207031 21.609375 56.351563 21.335938 56.351563 21.039063 C 56.351563 20.742188 56.207031 20.464844 55.960938 20.300781 Z M 55.960938 20.300781 "/>
<path style=" stroke:none;fill-rule:nonzero;fill:url(#linear1);" d="M 54.910156 53.121094 C 54.734375 47.082031 50.207031 42.058594 44.214844 41.261719 C 43.859375 32.746094 36.714844 26.101563 28.195313 26.367188 C 21.414063 26.246094 15.296875 30.425781 12.949219 36.789063 C 5.726563 37.652344 0.21875 43.671875 0 50.945313 C 0.152344 54.914063 1.878906 58.65625 4.796875 61.351563 C 7.714844 64.042969 11.585938 65.460938 15.554688 65.292969 L 41.921875 65.292969 C 42.140625 65.335938 42.363281 65.335938 42.582031 65.292969 C 49.296875 65.210938 54.746094 59.835938 54.910156 53.121094 Z M 54.910156 53.121094 "/>
</g>
</svg>
