<?xml version="1.0" encoding="utf-8"?><svg xmlns="http://www.w3.org/2000/svg" width="100%" height="70" viewBox="0 0 18 18" preserveAspectRatio="xMidYMid meet"><defs><linearGradient id="fa1955a2-9167-4a48-9f06-e30210fc6ef7" x1="9.23" x2="9.23" y2="18" gradientUnits="userSpaceOnUse"><stop offset="0" stop-color="#29A4FF" /><stop offset="0.999" stop-color="#006CBC" /></linearGradient></defs><g id="e09ece90-33de-4b2f-a5a3-49ac04dc41bb"><path d="M15.074,17.39A.645.645,0,0,1,14.4,18H4.062a.645.645,0,0,1-.675-.61V.61A.645.645,0,0,1,4.062,0H14.4a.645.645,0,0,1,.675.61Z" fill="url(#fa1955a2-9167-4a48-9f06-e30210fc6ef7)" /><path d="M13.461,7.7a1.34,1.34,0,0,0-1.27-1.4H6.375a1.34,1.34,0,0,0-1.27,1.4h0a1.34,1.34,0,0,0,1.27,1.4h5.816a1.34,1.34,0,0,0,1.27-1.4Z" fill="#00508C" /><path d="M13.461,3.537a1.34,1.34,0,0,0-1.27-1.4H6.375a1.34,1.34,0,0,0-1.27,1.4h0a1.34,1.34,0,0,0,1.27,1.4h5.816a1.34,1.34,0,0,0,1.27-1.4Z" fill="#00508C" /><circle cx="11.826" cy="3.537" r="0.939" fill="#77C5FF" /><circle cx="11.826" cy="7.695" r="0.939" fill="#77C5FF" /></g></svg>