<?xml version="1.0" encoding="UTF-8"?>
<svg xmlns="http://www.w3.org/2000/svg" xmlns:xlink="http://www.w3.org/1999/xlink" width="70pt" height="70pt" viewBox="0 0 70 70" version="1.1">
<defs>
<radialGradient id="radial0" gradientUnits="userSpaceOnUse" cx="5.72" cy="7.45" fx="5.72" fy="7.45" r="8.42" gradientTransform="matrix(3.927778,0,0,3.927778,12.561111,5.872222)">
<stop offset="0.18" style="stop-color:rgb(36.862745%,62.745098%,93.72549%);stop-opacity:1;"/>
<stop offset="0.56" style="stop-color:rgb(36.078431%,62.352941%,93.333333%);stop-opacity:1;"/>
<stop offset="0.69" style="stop-color:rgb(33.333333%,61.176471%,92.941176%);stop-opacity:1;"/>
<stop offset="0.78" style="stop-color:rgb(29.019608%,59.215686%,91.372549%);stop-opacity:1;"/>
<stop offset="0.86" style="stop-color:rgb(22.352941%,56.470588%,89.411765%);stop-opacity:1;"/>
<stop offset="0.93" style="stop-color:rgb(13.72549%,52.941176%,87.058824%);stop-opacity:1;"/>
<stop offset="0.99" style="stop-color:rgb(3.137255%,48.235294%,83.921569%);stop-opacity:1;"/>
<stop offset="1" style="stop-color:rgb(0%,47.058824%,83.137255%);stop-opacity:1;"/>
</radialGradient>
<radialGradient id="radial1" gradientUnits="userSpaceOnUse" cx="28.18" cy="202.29" fx="28.18" fy="202.29" r="2.7" gradientTransform="matrix(3.694444,0,0,3.694444,-69.105556,-719.483333)">
<stop offset="0.19" style="stop-color:rgb(54.901961%,55.686275%,56.470588%);stop-opacity:1;"/>
<stop offset="0.35" style="stop-color:rgb(51.764706%,52.54902%,53.333333%);stop-opacity:1;"/>
<stop offset="0.6" style="stop-color:rgb(43.137255%,43.921569%,44.313725%);stop-opacity:1;"/>
<stop offset="0.91" style="stop-color:rgb(29.019608%,29.411765%,29.803922%);stop-opacity:1;"/>
<stop offset="1" style="stop-color:rgb(24.313725%,24.705882%,24.705882%);stop-opacity:1;"/>
</radialGradient>
</defs>
<g id="surface1">
<path style=" stroke:none;fill-rule:nonzero;fill:url(#radial0);" d="M 68.054688 35 C 68.054688 16.808594 53.257813 2.0625 35 2.0625 C 16.742188 2.0625 1.945313 16.808594 1.945313 35 C 1.945313 53.191406 16.742188 67.9375 35 67.9375 C 53.257813 67.9375 68.054688 53.191406 68.054688 35 Z M 68.054688 35 "/>
<path style=" stroke:none;fill-rule:nonzero;fill:rgb(100%,100%,100%);fill-opacity:1;" d="M 63.777344 35 C 63.777344 19.171875 50.894531 6.339844 35 6.339844 C 19.105469 6.339844 6.222656 19.171875 6.222656 35 C 6.222656 50.828125 19.105469 63.660156 35 63.660156 C 50.894531 63.660156 63.777344 50.828125 63.777344 35 Z M 63.777344 35 "/>
<path style=" stroke:none;fill-rule:nonzero;fill:rgb(61.176471%,92.156863%,100%);fill-opacity:1;" d="M 10.578125 36.710938 C 10.972656 42.582031 13.488281 48.109375 17.65625 52.265625 L 25.433594 44.488281 C 23.328125 42.386719 21.964844 39.65625 21.542969 36.710938 Z M 10.578125 36.710938 "/>
<path style=" stroke:none;fill-rule:nonzero;fill:rgb(19.607843%,74.509804%,86.666667%);fill-opacity:1;" d="M 51.0625 16.605469 C 47.058594 13.105469 42.015625 11.015625 36.710938 10.65625 L 36.710938 21.503906 C 39.136719 21.785156 41.4375 22.726563 43.359375 24.226563 Z M 51.0625 16.605469 "/>
<path style=" stroke:none;fill-rule:nonzero;fill:rgb(19.607843%,74.509804%,86.666667%);fill-opacity:1;" d="M 18.9375 16.605469 L 26.714844 24.382813 C 28.640625 22.882813 30.941406 21.9375 33.367188 21.660156 L 33.367188 10.65625 C 28.035156 11 22.964844 13.089844 18.9375 16.605469 Z M 18.9375 16.605469 "/>
<path style=" stroke:none;fill-rule:nonzero;fill:rgb(19.607843%,74.509804%,86.666667%);fill-opacity:1;" d="M 45.8125 26.640625 C 47.296875 28.578125 48.246094 30.871094 48.570313 33.289063 L 59.421875 33.289063 C 59.070313 28.003906 56.980469 22.984375 53.472656 19.015625 Z M 45.8125 26.640625 "/>
<path style=" stroke:none;fill-rule:nonzero;fill:rgb(31.372549%,90.196078%,100%);fill-opacity:1;" d="M 24.1875 26.640625 L 16.410156 18.859375 C 12.914063 22.886719 10.863281 27.964844 10.578125 33.289063 L 21.429688 33.289063 C 21.753906 30.871094 22.703125 28.578125 24.1875 26.640625 Z M 24.1875 26.640625 "/>
<path style=" stroke:none;fill-rule:nonzero;fill:rgb(94.117647%,25.098039%,28.627451%);fill-opacity:1;" d="M 54.988281 27.222656 C 54.628906 26.355469 53.652344 25.929688 52.773438 26.25 L 36.75 32.707031 L 37.996094 35.855469 L 54.015625 29.515625 C 54.460938 29.351563 54.8125 29.015625 55 28.578125 C 55.183594 28.144531 55.179688 27.652344 54.988281 27.222656 Z M 54.988281 27.222656 "/>
<path style=" stroke:none;fill-rule:nonzero;fill:url(#radial1);" d="M 39.667969 35 C 39.667969 32.421875 37.578125 30.332031 35 30.332031 C 32.421875 30.332031 30.332031 32.421875 30.332031 35 C 30.332031 37.578125 32.421875 39.667969 35 39.667969 C 37.578125 39.667969 39.667969 37.578125 39.667969 35 Z M 39.667969 35 "/>
</g>
</svg>
