<?xml version="1.0" encoding="utf-8"?><svg version="1.1" xmlns="http://www.w3.org/2000/svg" xmlns:xlink="http://www.w3.org/1999/xlink" xmlns:xml="http://www.w3.org/XML/1998/namespace" width="70" height="70" viewBox="0, 0, 18, 18" id="e4e764cd-2e73-472f-b88a-bf8bfc2c2994"><defs><radialGradient cx="5.72" cy="7.45" r="8.42" gradientUnits="userSpaceOnUse" gradientTransform="translate(3.23, 1.51) scale(1.01)" id="ac8b32da-30ca-4b92-8d0f-8d2d5ef278a0"><stop offset="18%" stop-color="#29A4FF" /><stop offset="56%" stop-color="#27A3FF" /><stop offset="69%" stop-color="#1F9FFF" /><stop offset="78%" stop-color="#119AFF" /><stop offset="86%" stop-color="#0092FE" /><stop offset="93%" stop-color="#0083E4" /><stop offset="99%" stop-color="#0070C4" /><stop offset="100%" stop-color="#006CBC" /></radialGradient><radialGradient cx="28.18" cy="202.29" r="2.7" gradientUnits="userSpaceOnUse" gradientTransform="translate(-17.77, -185.01) scale(0.95)" id="a9954820-cb38-4943-9842-f0a568d2b015"><stop offset="19%" stop-color="#1B9EFF" /><stop offset="35%" stop-color="#0B97FF" /><stop offset="60%" stop-color="#007FDE" /><stop offset="91%" stop-color="#005594" /><stop offset="100%" stop-color="#00477C" /></radialGradient></defs><title>Icon-manage-317</title><ellipse cx="9" cy="9" rx="8.5" ry="8.47" style="fill:url(#ac8b32da-30ca-4b92-8d0f-8d2d5ef278a0);" /><ellipse cx="9" cy="9" rx="7.4" ry="7.37" style="fill:white;" /><path d="M2.72 9.44 a6.24 6.24 0 0 0 1.82 4 l2 -2 a3.53 3.53 0 0 1 -1 -2 Z" style="fill:#ABDBFF;" /><path d="M13.13 4.27 A6.25 6.25 0 0 0 9.44 2.74 V5.53 a3.41 3.41 0 0 1 1.71 0.7 Z" style="fill:#2FA6FF;" /><path d="M4.87 4.27 l2 2 a3.41 3.41 0 0 1 1.71 -0.7 V2.74 A6.25 6.25 0 0 0 4.87 4.27 Z" style="fill:#2FA6FF;" /><path d="M11.78 6.85 a3.6 3.6 0 0 1 0.71 1.71 h2.79 a6.16 6.16 0 0 0 -1.53 -3.67 Z" style="fill:#2FA6FF;" /><path d="M6.22 6.85 l-2 -2 A6.16 6.16 0 0 0 2.72 8.56 H5.51 A3.6 3.6 0 0 1 6.22 6.85 Z" style="fill:#77C5FF;" /><path d="M14.14 7 a0.45 0.45 0 0 0 -0.57 -0.25 L9.45 8.41 l0.32 0.81 l4.12 -1.63 A0.44 0.44 0 0 0 14.14 7 Z" style="fill:#0086EA;" /><ellipse cx="9" cy="9" rx="1.2" ry="1.2" style="fill:url(#a9954820-cb38-4943-9842-f0a568d2b015);" /></svg>