<?xml version="1.0" encoding="UTF-8"?>
<svg xmlns="http://www.w3.org/2000/svg" xmlns:xlink="http://www.w3.org/1999/xlink" width="70pt" height="67pt" viewBox="0 0 70 67" version="1.1">
<defs>
<filter id="alpha" filterUnits="objectBoundingBox" x="0%" y="0%" width="100%" height="100%">
  <feColorMatrix type="matrix" in="SourceGraphic" values="0 0 0 0 1 0 0 0 0 1 0 0 0 0 1 0 0 0 1 0"/>
</filter>
<mask id="mask0">
  <g filter="url(#alpha)">
<rect x="0" y="0" width="70" height="67" style="fill:rgb(0,0,0);fill-opacity:0.701961;stroke:none;"/>
  </g>
</mask>
<clipPath id="clip1">
  <rect x="0" y="0" width="70" height="67"/>
</clipPath>
<g id="surface5" clip-path="url(#clip1)">
<path style=" stroke:none;fill-rule:nonzero;fill:rgb(255,255,255);fill-opacity:1;" d="M 61.832031 65.476563 C 61.132813 65.476563 61.847656 65.621094 61.25 65.476563 L 61.25 58.242188 L 8.75 58.242188 C 8.453125 58.242188 1.457031 58.171875 1.457031 52.402344 L 1.457031 7.152344 C 1.457031 3.238281 4.859375 1.457031 8.019531 1.457031 C 11.179688 1.457031 14.582031 3.242188 14.582031 7.152344 L 14.582031 8.609375 L 55.5625 8.609375 C 63.449219 8.609375 68.542969 10.992188 68.542969 18.976563 L 68.542969 61.160156 C 68.542969 64.433594 65.59375 65.476563 61.832031 65.476563 Z M 61.832031 65.476563 "/>
</g>
</defs>
<g id="surface1">
<path style=" stroke:none;fill-rule:nonzero;fill:rgb(57,171,255);fill-opacity:1;" d="M 61.832031 65.476563 C 61.132813 65.476563 61.847656 65.621094 61.25 65.476563 L 61.25 58.242188 L 8.75 58.242188 C 8.453125 58.242188 1.457031 58.171875 1.457031 52.402344 L 1.457031 7.152344 C 1.457031 3.238281 4.859375 1.457031 8.019531 1.457031 C 11.179688 1.457031 14.582031 3.242188 14.582031 7.152344 L 14.582031 8.609375 L 55.5625 8.609375 C 63.449219 8.609375 68.542969 10.992188 68.542969 18.976563 L 68.542969 61.160156 C 68.542969 64.433594 65.59375 65.476563 61.832031 65.476563 Z M 61.832031 65.476563 "/>
<use xlink:href="#surface5" mask="url(#mask0)"/>
<path style=" stroke:none;fill-rule:nonzero;fill:rgb(0,102,178);fill-opacity:1;" d="M 55.5625 7.152344 L 16.042969 7.152344 C 16.042969 2.773438 12.394531 0 8.019531 0 C 3.644531 0 0 2.773438 0 7.152344 C 0 7.152344 0 45.105469 0 50.945313 C 0 58.242188 4.375 59.703125 8.75 59.703125 L 59.792969 59.703125 L 59.792969 67 C 59.792969 67 70 67 70 59.703125 L 70 18.976563 C 70 10.21875 65.625 7.152344 55.5625 7.152344 Z M 67.082031 59.992188 C 67.082031 59.992188 64.167969 56.78125 58.480469 56.78125 L 8.75 56.78125 C 5.832031 56.78125 2.917969 56.050781 2.917969 51.671875 C 2.917969 49.191406 4.8125 46.5625 8.75 46.5625 C 13.125 46.5625 15.894531 50.945313 15.894531 50.945313 L 16.042969 50.945313 L 16.042969 10.070313 L 57.019531 10.070313 C 62.855469 10.070313 67.082031 11.675781 67.082031 17.515625 Z M 67.082031 59.992188 "/>
<path style=" stroke:none;fill-rule:nonzero;fill:rgb(0,102,178);fill-opacity:1;" d="M 51.042969 43.574219 L 53.230469 49.410156 L 55.417969 43.574219 Z M 51.042969 43.574219 "/>
<path style=" stroke:none;fill-rule:nonzero;fill:rgb(0,102,178);fill-opacity:1;" d="M 55.417969 23.140625 L 51.042969 23.140625 L 51.042969 40.65625 L 55.417969 40.65625 Z M 55.417969 23.140625 "/>
<path style=" stroke:none;fill-rule:nonzero;fill:rgb(0,102,178);fill-opacity:1;" d="M 53.230469 15.988281 C 54.4375 15.988281 55.417969 16.929688 55.417969 18.097656 L 55.378906 20.21875 L 51.042969 20.183594 L 51.042969 18.097656 C 51.042969 16.929688 52.023438 15.988281 53.230469 15.988281 Z M 53.230469 15.988281 "/>
<path style=" stroke:none;fill-rule:nonzero;fill:rgb(0,102,178);fill-opacity:1;" d="M 33.542969 14.527344 C 34.347656 14.527344 35 15.472656 35 16.636719 L 34.972656 18.761719 L 32.082031 18.722656 L 32.082031 16.636719 C 32.082031 15.472656 32.738281 14.527344 33.542969 14.527344 Z M 33.542969 14.527344 "/>
<path style=" stroke:none;fill-rule:nonzero;fill:rgb(0,102,178);fill-opacity:1;" d="M 33.542969 17.445313 C 30.398438 17.445313 27.855469 19.996094 27.855469 23.140625 C 27.855469 26.28125 30.398438 28.832031 33.542969 28.832031 C 36.683594 28.832031 39.230469 26.28125 39.230469 23.140625 C 39.230469 19.996094 36.683594 17.445313 33.542969 17.445313 Z M 33.542969 27.371094 C 31.210938 27.371094 29.3125 25.472656 29.3125 23.140625 C 29.3125 20.804688 31.210938 18.90625 33.542969 18.90625 C 35.875 18.90625 37.769531 20.804688 37.769531 23.140625 C 37.769531 25.472656 35.875 27.371094 33.542969 27.371094 Z M 33.542969 27.371094 "/>
<path style=" stroke:none;fill-rule:nonzero;fill:rgb(0,102,178);fill-opacity:1;" d="M 33.542969 27.394531 L 33.542969 24.597656 L 30.820313 26.507813 L 24.960938 44.554688 L 24.546875 50.554688 L 27.734375 45.457031 L 33.59375 27.410156 Z M 33.542969 27.394531 "/>
<path style=" stroke:none;fill-rule:nonzero;fill:rgb(0,102,178);fill-opacity:1;" d="M 42.121094 44.554688 L 36.265625 26.507813 L 33.542969 24.597656 L 33.542969 27.394531 L 33.492188 27.410156 L 39.347656 45.457031 L 39.351563 45.457031 L 42.539063 50.554688 Z M 42.121094 44.554688 "/>
<path style=" stroke:none;fill-rule:nonzero;fill:rgb(0,102,178);fill-opacity:1;" d="M 45.207031 37.734375 L 21.875 37.734375 C 21.472656 37.734375 21.144531 37.410156 21.144531 37.007813 C 21.144531 36.601563 21.472656 36.277344 21.875 36.277344 L 45.207031 36.277344 C 45.609375 36.277344 45.9375 36.601563 45.9375 37.007813 C 45.9375 37.410156 45.609375 37.734375 45.207031 37.734375 Z M 45.207031 37.734375 "/>
</g>
</svg>
