<?xml version="1.0" encoding="utf-8"?><svg version="1.1" xmlns="http://www.w3.org/2000/svg" xmlns:xlink="http://www.w3.org/1999/xlink" xmlns:xml="http://www.w3.org/XML/1998/namespace" width="70" height="70" viewBox="0, 0, 18, 18" id="e00fef30-156c-4930-8b65-3a593543aa1d"><defs><linearGradient x1="9" y1="1.48" x2="9" y2="17.07" gradientUnits="userSpaceOnUse" id="a45ba9b5-2e08-4c39-8916-0bab184f06e9"><stop offset="0%" stop-color="#76BC2D" /><stop offset="32%" stop-color="#73B82C" /><stop offset="65%" stop-color="#6CAB29" /><stop offset="99%" stop-color="#5E9724" /><stop offset="100%" stop-color="#5E9624" /></linearGradient><linearGradient x1="6.13" y1="9.28" x2="11.87" y2="9.28" gradientUnits="userSpaceOnUse" id="e74e2f36-f70f-4351-9609-a084522a8ba7"><stop offset="0%" stop-color="white" /><stop offset="100%" stop-color="white" /></linearGradient></defs><title>Icon-general-19</title><path d="M12.35 1.48 H5.65 a2 2 0 0 0 -1.73 1 L0.58 8.28 a2 2 0 0 0 0 2 l3.34 5.79 a2 2 0 0 0 1.73 1 h6.7 a2 2 0 0 0 1.73 -1 l3.34 -5.79 a2 2 0 0 0 0 -2 l-3.34 -5.8 A2 2 0 0 0 12.35 1.48 Z" style="fill:url(#a45ba9b5-2e08-4c39-8916-0bab184f06e9);" /><path d="M9.07 4.81 A0.82 0.82 0 0 1 8.25 4 A0.82 0.82 0 0 1 9.89 4 A0.82 0.82 0 0 1 9.07 4.81 Z m-0.82 9.75 a0.82 0.82 0 1 0 1.64 0 a0.82 0.82 0 0 0 -1.64 0 Z m0.84 -2.7 A1.5 1.5 0 0 1 7.58 11 l-1.45 0.28 A2.68 2.68 0 0 0 9 13 c1.69 0 2.91 -0.89 2.91 -2.13 a2.07 2.07 0 0 0 -1.12 -2 A13 13 0 0 0 9 8.33 c-0.67 -0.16 -1.1 -0.53 -1.1 -1 A1 1 0 0 1 9 6.46 a1.4 1.4 0 0 1 1.29 0.69 l1.25 -0.4 A2.56 2.56 0 0 0 9 5.45 c-1.18 0 -2.55 0.52 -2.55 2 c0 1.81 1.11 2.17 2.69 2.48 c0.37 0.07 1.23 0.32 1.23 1 C10.33 11.31 10 11.86 9.09 11.86 Z" opacity="0.9" style="fill:url(#e74e2f36-f70f-4351-9609-a084522a8ba7);" /></svg>