<?xml version="1.0" encoding="UTF-8"?>
<svg xmlns="http://www.w3.org/2000/svg" xmlns:xlink="http://www.w3.org/1999/xlink" width="70pt" height="70pt" viewBox="0 0 70 70" version="1.1">
<defs>
<filter id="alpha" filterUnits="objectBoundingBox" x="0%" y="0%" width="100%" height="100%">
  <feColorMatrix type="matrix" in="SourceGraphic" values="0 0 0 0 1 0 0 0 0 1 0 0 0 0 1 0 0 0 1 0"/>
</filter>
<mask id="mask0">
  <g filter="url(#alpha)">
<rect x="0" y="0" width="70" height="70" style="fill:rgb(0%,0%,0%);fill-opacity:0.2;stroke:none;"/>
  </g>
</mask>
<clipPath id="clip1">
  <rect x="0" y="0" width="70" height="70"/>
</clipPath>
<g id="surface5" clip-path="url(#clip1)">
<path style=" stroke:none;fill-rule:nonzero;fill:rgb(100%,100%,100%);fill-opacity:1;" d="M 22.382813 43.886719 C 20.40625 41.910156 19.089844 39.5 18.433594 36.644531 C 16.675781 28.527344 21.503906 20.628906 29.625 18.871094 C 31.378906 18.433594 32.914063 18.433594 34.453125 18.652344 C 35.109375 11.191406 39.71875 4.390625 46.519531 1.097656 C 44.398438 0.378906 42.175781 0.0078125 39.9375 0 C 30.5 0 22.382813 6.144531 19.53125 14.921875 C 17.996094 14.484375 16.457031 14.042969 14.703125 14.042969 C 6.582031 14.042969 0 20.628906 0 28.964844 C 0 37.304688 6.582031 43.886719 14.703125 43.886719 Z M 22.382813 43.886719 "/>
</g>
<mask id="mask1">
  <g filter="url(#alpha)">
<rect x="0" y="0" width="70" height="70" style="fill:rgb(0%,0%,0%);fill-opacity:0.14902;stroke:none;"/>
  </g>
</mask>
<clipPath id="clip2">
  <rect x="0" y="0" width="70" height="70"/>
</clipPath>
<g id="surface8" clip-path="url(#clip2)">
<path style=" stroke:none;fill-rule:nonzero;fill:rgb(100%,100%,100%);fill-opacity:1;" d="M 31.226563 47.578125 C 24.890625 41.242188 24.890625 30.882813 31.226563 24.550781 C 37.5625 18.214844 47.917969 18.214844 54.253906 24.550781 Z M 31.226563 47.578125 "/>
</g>
</defs>
<g id="surface1">
<path style=" stroke:none;fill-rule:nonzero;fill:rgb(34.901961%,70.588235%,85.098039%);fill-opacity:1;" d="M 70 35.546875 C 70 30.941406 66.269531 27.429688 61.882813 27.429688 L 60.785156 27.429688 C 61.222656 25.675781 61.660156 23.699219 61.660156 21.726563 C 61.6875 15.957031 59.40625 10.417969 55.324219 6.335938 C 51.246094 2.257813 45.707031 -0.0234375 39.9375 0 C 30.5 0 22.382813 6.144531 19.53125 14.921875 C 17.996094 14.484375 16.457031 14.042969 14.703125 14.042969 C 6.582031 14.042969 0 20.628906 0 28.964844 C 0 37.304688 6.582031 43.886719 14.703125 43.886719 L 62.539063 43.886719 C 66.796875 43.433594 70.019531 39.832031 70 35.546875 "/>
<use xlink:href="#surface5" mask="url(#mask0)"/>
<path style=" stroke:none;fill-rule:nonzero;fill:rgb(72.941176%,7.843137%,10.196078%);fill-opacity:1;" d="M 51.136719 44.761719 C 48.925781 46.769531 46.007813 47.976563 42.789063 47.976563 C 39.574219 47.976563 36.65625 46.769531 34.445313 44.761719 L 33.238281 70 L 42.789063 60.347656 L 52.34375 70 Z M 51.136719 44.761719 "/>
<path style=" stroke:none;fill-rule:nonzero;fill:rgb(86.666667%,34.901961%,0%);fill-opacity:1;" d="M 59.078125 36.011719 C 59.078125 45.007813 51.785156 52.300781 42.789063 52.300781 C 33.792969 52.300781 26.5 45.007813 26.5 36.011719 C 26.5 27.015625 33.792969 19.722656 42.789063 19.722656 C 51.785156 19.722656 59.078125 27.015625 59.078125 36.011719 Z M 59.078125 36.011719 "/>
<path style=" stroke:none;fill-rule:nonzero;fill:rgb(100%,54.901961%,0%);fill-opacity:1;" d="M 55.058594 36.011719 C 55.058594 42.789063 49.566406 48.28125 42.789063 48.28125 C 36.015625 48.28125 30.519531 42.789063 30.519531 36.011719 C 30.519531 29.238281 36.015625 23.742188 42.789063 23.742188 C 49.566406 23.742188 55.058594 29.238281 55.058594 36.011719 Z M 55.058594 36.011719 "/>
<use xlink:href="#surface8" mask="url(#mask1)"/>
</g>
</svg>
