<?xml version="1.0" encoding="UTF-8"?>
<svg xmlns="http://www.w3.org/2000/svg" xmlns:xlink="http://www.w3.org/1999/xlink" width="70pt" height="70pt" viewBox="0 0 70 70" version="1.1">
<defs>
<linearGradient id="linear0" gradientUnits="userSpaceOnUse" x1="8.11" y1="6.45" x2="8.11" y2="18.2" gradientTransform="matrix(3.888889,0,0,3.888889,0,0)">
<stop offset="0.22" style="stop-color:rgb(79,180,255);stop-opacity:1;"/>
<stop offset="1" style="stop-color:rgb(0,124,216);stop-opacity:1;"/>
</linearGradient>
<filter id="alpha" filterUnits="objectBoundingBox" x="0%" y="0%" width="100%" height="100%">
  <feColorMatrix type="matrix" in="SourceGraphic" values="0 0 0 0 1 0 0 0 0 1 0 0 0 0 1 0 0 0 1 0"/>
</filter>
<mask id="mask0">
  <g filter="url(#alpha)">
<rect x="0" y="0" width="70" height="70" style="fill:rgb(0,0,0);fill-opacity:0.8;stroke:none;"/>
  </g>
</mask>
<clipPath id="clip1">
  <rect x="0" y="0" width="70" height="70"/>
</clipPath>
<g id="surface5" clip-path="url(#clip1)">
<path style=" stroke:none;fill-rule:nonzero;fill:rgb(255,255,255);fill-opacity:1;" d="M 31.617188 32.820313 C 28.675781 32.804688 25.796875 31.941406 23.332031 30.332031 L 31.5 51.957031 L 39.746094 30.488281 C 37.300781 32.003906 34.488281 32.808594 31.617188 32.820313 Z M 31.617188 32.820313 "/>
</g>
<linearGradient id="linear1" gradientUnits="userSpaceOnUse" x1="7.78" y1="0.15" x2="8.64" y2="10.82" gradientTransform="matrix(3.888889,0,0,3.888889,0,0)">
<stop offset="0.22" style="stop-color:rgb(79,180,255);stop-opacity:1;"/>
<stop offset="1" style="stop-color:rgb(0,124,216);stop-opacity:1;"/>
</linearGradient>
<linearGradient id="linear2" gradientUnits="userSpaceOnUse" x1="13.49" y1="17.15" x2="13.49" y2="9.35" gradientTransform="matrix(3.888889,0,0,3.888889,0,0)">
<stop offset="0" style="stop-color:rgb(0,127,222);stop-opacity:1;"/>
<stop offset="0.9" style="stop-color:rgb(53,169,255);stop-opacity:1;"/>
</linearGradient>
</defs>
<g id="surface1">
<path style=" stroke:none;fill-rule:nonzero;fill:url(#linear0);" d="M 54.171875 62.535156 C 56.863281 62.535156 59.050781 60.363281 59.070313 57.671875 C 59.089844 57.476563 59.089844 57.28125 59.070313 57.089844 C 57.167969 41.535156 48.378906 29.167969 31.851563 29.167969 C 15.320313 29.167969 5.753906 39.785156 3.890625 57.128906 C 3.640625 59.816406 5.597656 62.207031 8.285156 62.496094 L 54.171875 62.496094 Z M 54.171875 62.535156 "/>
<use xlink:href="#surface5" mask="url(#mask0)"/>
<path style=" stroke:none;fill-rule:nonzero;fill:url(#linear1);" d="M 47.054688 17.382813 C 47.054688 25.910156 40.144531 32.820313 31.617188 32.820313 C 23.089844 32.820313 16.179688 25.910156 16.179688 17.382813 C 16.179688 8.855469 23.089844 1.945313 31.617188 1.945313 C 40.144531 1.945313 47.054688 8.855469 47.054688 17.382813 Z M 47.054688 17.382813 "/>
<path style=" stroke:none;fill-rule:nonzero;fill:rgb(0,81,142);fill-opacity:1;" d="M 66.109375 50.554688 C 66.109375 59.421875 55.378906 66.578125 53.042969 68.054688 C 52.765625 68.207031 52.429688 68.207031 52.148438 68.054688 C 49.660156 66.460938 38.890625 59.304688 38.890625 50.554688 L 38.890625 39.746094 C 38.886719 39.285156 39.25 38.910156 39.707031 38.890625 C 48.066406 38.65625 46.160156 35 52.421875 35 C 58.683594 35 56.738281 38.65625 65.101563 38.890625 C 65.558594 38.910156 65.917969 39.285156 65.917969 39.746094 Z M 66.109375 50.554688 "/>
<path style=" stroke:none;fill-rule:nonzero;fill:url(#linear2);" d="M 64.828125 50.554688 C 64.828125 58.722656 54.988281 65.292969 52.851563 66.617188 C 52.601563 66.769531 52.285156 66.769531 52.035156 66.617188 C 49.894531 65.292969 40.054688 58.839844 40.054688 50.554688 L 40.054688 40.714844 C 40.042969 40.515625 40.117188 40.316406 40.257813 40.167969 C 40.398438 40.023438 40.589844 39.9375 40.792969 39.9375 C 48.570313 39.9375 46.707031 36.359375 52.460938 36.359375 C 58.214844 36.359375 56.351563 39.746094 64.128906 39.9375 C 64.332031 39.9375 64.523438 40.023438 64.664063 40.167969 C 64.804688 40.316406 64.878906 40.515625 64.867188 40.714844 Z M 64.828125 50.554688 "/>
</g>
</svg>
