<?xml version="1.0" encoding="UTF-8"?>
<svg xmlns="http://www.w3.org/2000/svg" xmlns:xlink="http://www.w3.org/1999/xlink" width="70pt" height="70pt" viewBox="0 0 70 70" version="1.1">
<g id="surface1">
<path style=" stroke:none;fill-rule:evenodd;fill:rgb(86.666667%,34.901961%,0%);fill-opacity:1;" d="M 0 25.199219 L 21 25.199219 L 21 46.199219 L 0 46.199219 Z M 0 49 L 21 49 L 21 70 L 0 70 Z M 23.800781 49 L 44.800781 49 L 44.800781 70 L 23.800781 70 Z M 23.800781 49 "/>
<path style=" stroke:none;fill-rule:evenodd;fill:rgb(22.352941%,60%,77.647059%);fill-opacity:1;" d="M 46.898438 0 C 33.972656 0 23.800781 10.171875 23.800781 23.101563 L 23.800781 46.199219 L 46.898438 46.199219 C 59.828125 46.199219 70 36.027344 70 23.101563 C 70 10.171875 59.828125 0 46.898438 0 Z M 46.898438 0 "/>
<path style=" stroke:none;fill-rule:evenodd;fill:rgb(100%,100%,100%);fill-opacity:1;" d="M 36.398438 35 C 36.398438 37.320313 34.519531 39.199219 32.199219 39.199219 C 29.878906 39.199219 28 37.320313 28 35 C 28 32.679688 29.878906 30.800781 32.199219 30.800781 C 34.519531 30.800781 36.398438 32.679688 36.398438 35 Z M 36.398438 35 "/>
<path style=" stroke:none;fill-rule:evenodd;fill:rgb(100%,100%,100%);fill-opacity:1;" d="M 56 30.800781 C 56 33.121094 54.121094 35 51.800781 35 C 49.480469 35 47.601563 33.121094 47.601563 30.800781 C 47.601563 28.480469 49.480469 26.601563 51.800781 26.601563 C 54.121094 26.601563 56 28.480469 56 30.800781 Z M 56 30.800781 "/>
<path style=" stroke:none;fill-rule:evenodd;fill:rgb(100%,100%,100%);fill-opacity:1;" d="M 46.199219 19.601563 C 46.199219 21.917969 44.320313 23.800781 42 23.800781 C 39.679688 23.800781 37.800781 21.917969 37.800781 19.601563 C 37.800781 17.28125 39.679688 15.398438 42 15.398438 C 44.320313 15.398438 46.199219 17.28125 46.199219 19.601563 Z M 46.199219 19.601563 "/>
<path style="fill:none;stroke-width:2;stroke-linecap:butt;stroke-linejoin:miter;stroke:rgb(100%,100%,100%);stroke-opacity:1;stroke-miterlimit:10;" d="M 24.001116 24.001116 L 30 14.001116 " transform="matrix(1.4,0,0,1.4,0,0)"/>
<path style=" stroke:none;fill-rule:evenodd;fill:rgb(100%,100%,100%);fill-opacity:1;" d="M 64.398438 15.398438 C 64.398438 17.71875 62.519531 19.601563 60.199219 19.601563 C 57.878906 19.601563 56 17.71875 56 15.398438 C 56 13.082031 57.878906 11.199219 60.199219 11.199219 C 62.519531 11.199219 64.398438 13.082031 64.398438 15.398438 Z M 64.398438 15.398438 "/>
<path style="fill:none;stroke-width:2;stroke-linecap:butt;stroke-linejoin:miter;stroke:rgb(100%,100%,100%);stroke-opacity:1;stroke-miterlimit:10;" d="M 42.000558 12.000558 L 37.000558 22.000558 M 37.000558 22.000558 L 30 14.001116 " transform="matrix(1.4,0,0,1.4,0,0)"/>
</g>
</svg>
