<?xml version="1.0" encoding="UTF-8"?>
<svg xmlns="http://www.w3.org/2000/svg" xmlns:xlink="http://www.w3.org/1999/xlink" width="70pt" height="58pt" viewBox="0 0 70 58" version="1.1">
<g id="surface1">
<path style=" stroke:none;fill-rule:evenodd;fill:rgb(0%,44.705882%,77.647059%);fill-opacity:1;" d="M 62.949219 16.230469 C 62.984375 15.726563 63.023438 15.226563 63.023438 14.703125 C 63.023438 6.597656 56.339844 0 48.148438 0 C 43.289063 0 38.820313 2.324219 36.066406 6.132813 C 34.296875 5.039063 32.25 4.441406 30.109375 4.441406 C 24.28125 4.441406 19.460938 8.886719 18.917969 14.519531 C 19.832031 14.40625 20.742188 14.3125 21.675781 14.3125 C 25.976563 14.3125 30.109375 15.707031 33.496094 18.179688 C 36.027344 12.34375 42.46875 8.605469 49.617188 8.382813 L 49.617188 3.402344 L 58.332031 10.855469 L 49.617188 18.273438 L 49.617188 13.382813 C 45.523438 13.550781 41.539063 15.078125 39.230469 18.792969 L 39.695313 18.757813 C 48.035156 18.757813 54.925781 24.984375 55.894531 32.960938 C 57.867188 34.445313 59.429688 36.230469 60.546875 38.277344 C 65.945313 36.828125 69.820313 32.179688 69.820313 26.492188 C 69.820313 21.917969 67.34375 18.273438 62.949219 16.230469 Z M 62.949219 16.230469 "/>
<path style=" stroke:none;fill-rule:evenodd;fill:rgb(0%,44.705882%,77.647059%);fill-opacity:1;" d="M 6.871094 35.546875 C 6.8125 35.046875 6.796875 34.523438 6.796875 34.023438 C 6.796875 25.917969 13.480469 19.335938 21.671875 19.335938 C 26.527344 19.335938 30.996094 21.660156 33.753906 25.453125 C 35.519531 24.355469 37.550781 23.78125 39.710938 23.78125 C 45.890625 23.78125 50.9375 28.761719 50.9375 34.898438 L 50.917969 35.789063 C 55.105469 37.90625 57.359375 41.402344 57.359375 45.808594 C 57.359375 52.707031 51.738281 58.097656 44.550781 58.097656 L 12.828125 58.097656 C 5.621094 58.097656 0 52.707031 0 45.808594 C 0 41.253906 2.476563 37.59375 6.871094 35.546875 Z M 6.871094 35.546875 "/>
</g>
</svg>
