<?xml version="1.0" encoding="utf-8"?><svg version="1.1" xmlns="http://www.w3.org/2000/svg" xmlns:xlink="http://www.w3.org/1999/xlink" xmlns:xml="http://www.w3.org/XML/1998/namespace" width="70" height="70" viewBox="0, 0, 18, 18"><defs><linearGradient x1="9.23" x2="9.23" y2="18" gradientUnits="userSpaceOnUse" id="fa1955a2-9167-4a48-9f06-e30210fc6ef7"><stop offset="0%" stop-color="#29A4FF" /><stop offset="99.9%" stop-color="#006CBC" /></linearGradient></defs><g id="e09ece90-33de-4b2f-a5a3-49ac04dc41bb"><path d="M15.074 17.39 A0.645 0.645 0 0 1 14.4 18 H4.062 a0.645 0.645 0 0 1 -0.675 -0.61 V0.61 A0.645 0.645 0 0 1 4.062 0 H14.4 a0.645 0.645 0 0 1 0.675 0.61 Z" style="fill:url(#fa1955a2-9167-4a48-9f06-e30210fc6ef7);" /><path d="M13.461 7.7 a1.34 1.34 0 0 0 -1.27 -1.4 H6.375 a1.34 1.34 0 0 0 -1.27 1.4 h0 a1.34 1.34 0 0 0 1.27 1.4 h5.816 a1.34 1.34 0 0 0 1.27 -1.4 Z" style="fill:#00508C;" /><path d="M13.461 3.537 a1.34 1.34 0 0 0 -1.27 -1.4 H6.375 a1.34 1.34 0 0 0 -1.27 1.4 h0 a1.34 1.34 0 0 0 1.27 1.4 h5.816 a1.34 1.34 0 0 0 1.27 -1.4 Z" style="fill:#00508C;" /><circle cx="11.826" cy="3.537" r="0.939" style="fill:#77C5FF;" /><circle cx="11.826" cy="7.695" r="0.939" style="fill:#77C5FF;" /></g></svg>