<?xml version="1.0" encoding="UTF-8"?>
<svg xmlns="http://www.w3.org/2000/svg" xmlns:xlink="http://www.w3.org/1999/xlink" width="70pt" height="70pt" viewBox="0 0 70 70" version="1.1">
<g id="surface1">
<path style=" stroke:none;fill-rule:nonzero;fill:rgb(58.039216%,58.039216%,58.039216%);fill-opacity:1;" d="M 1.945313 58.644531 C 1.941406 58.867188 2.0625 59.078125 2.253906 59.1875 L 6.765625 61.714844 L 14.390625 66.109375 C 14.699219 66.289063 15.097656 66.1875 15.285156 65.878906 L 17.851563 61.523438 C 18 61.230469 17.898438 60.875 17.617188 60.707031 L 8.671875 55.648438 C 8.484375 55.53125 8.367188 55.328125 8.359375 55.105469 L 8.359375 14.972656 C 8.359375 14.746094 8.476563 14.539063 8.671875 14.429688 L 17.617188 9.371094 C 17.898438 9.203125 18 8.847656 17.851563 8.554688 L 15.285156 4.199219 C 15.207031 4.039063 15.070313 3.914063 14.902344 3.855469 C 14.734375 3.796875 14.546875 3.808594 14.390625 3.890625 L 6.921875 8.207031 L 2.253906 10.8125 C 2.0625 10.921875 1.941406 11.132813 1.945313 11.355469 Z M 1.945313 58.644531 "/>
<path style=" stroke:none;fill-rule:nonzero;fill:rgb(63.921569%,63.921569%,63.921569%);fill-opacity:1;" d="M 8.320313 14.660156 L 8.554688 14.429688 L 17.5 9.371094 C 17.652344 9.308594 17.765625 9.179688 17.8125 9.019531 C 17.859375 8.859375 17.828125 8.691406 17.734375 8.554688 L 15.167969 4.199219 C 15.109375 4.03125 14.980469 3.898438 14.8125 3.839844 C 14.648438 3.777344 14.460938 3.796875 14.3125 3.890625 L 6.804688 8.207031 L 2.179688 10.8125 C 2.179688 10.8125 1.984375 10.8125 1.945313 11.042969 L 5.445313 13.027344 Z M 8.320313 14.660156 "/>
<path style=" stroke:none;fill-rule:nonzero;fill:rgb(63.921569%,63.921569%,63.921569%);fill-opacity:1;" d="M 17.5 60.628906 L 8.554688 55.570313 C 8.4375 55.480469 8.339844 55.359375 8.285156 55.222656 L 1.984375 59.109375 L 2.179688 59.109375 L 6.648438 61.640625 L 14.429688 65.957031 C 14.570313 66.050781 14.746094 66.082031 14.910156 66.035156 C 15.074219 65.992188 15.210938 65.875 15.285156 65.722656 L 17.851563 61.367188 C 17.910156 61.222656 17.910156 61.058594 17.84375 60.917969 C 17.773438 60.777344 17.652344 60.671875 17.5 60.628906 Z M 17.5 60.628906 "/>
<path style=" stroke:none;fill-rule:nonzero;fill:rgb(58.039216%,58.039216%,58.039216%);fill-opacity:1;" d="M 68.054688 58.644531 C 68.058594 58.867188 67.9375 59.078125 67.746094 59.1875 L 63.234375 61.714844 L 55.609375 66.109375 C 55.300781 66.289063 54.902344 66.1875 54.714844 65.878906 L 52.148438 61.523438 C 52 61.230469 52.101563 60.875 52.382813 60.707031 L 61.328125 55.648438 C 61.515625 55.53125 61.632813 55.328125 61.640625 55.105469 L 61.640625 14.972656 C 61.640625 14.746094 61.523438 14.539063 61.328125 14.429688 L 52.382813 9.371094 C 52.101563 9.203125 52 8.847656 52.148438 8.554688 L 54.714844 4.199219 C 54.792969 4.039063 54.929688 3.914063 55.097656 3.855469 C 55.265625 3.796875 55.453125 3.808594 55.609375 3.890625 L 63.078125 8.128906 L 67.746094 10.734375 C 67.9375 10.84375 68.058594 11.054688 68.054688 11.277344 Z M 68.054688 58.644531 "/>
<path style=" stroke:none;fill-rule:nonzero;fill:rgb(63.921569%,63.921569%,63.921569%);fill-opacity:1;" d="M 61.679688 14.660156 L 61.445313 14.429688 L 52.5 9.371094 C 52.347656 9.308594 52.234375 9.179688 52.1875 9.019531 C 52.140625 8.859375 52.171875 8.691406 52.265625 8.554688 L 54.832031 4.199219 C 54.890625 4.03125 55.019531 3.898438 55.1875 3.839844 C 55.351563 3.777344 55.539063 3.796875 55.6875 3.890625 L 63.195313 8.128906 L 67.820313 10.734375 C 67.820313 10.734375 67.820313 10.734375 68.054688 10.964844 L 64.554688 12.949219 Z M 61.679688 14.660156 "/>
<path style=" stroke:none;fill-rule:nonzero;fill:rgb(63.921569%,63.921569%,63.921569%);fill-opacity:1;" d="M 52.5 60.628906 L 61.445313 55.570313 C 61.5625 55.480469 61.660156 55.359375 61.714844 55.222656 L 68.015625 59.109375 L 63.542969 61.640625 L 55.765625 65.957031 C 55.625 66.050781 55.449219 66.082031 55.285156 66.035156 C 55.121094 65.992188 54.984375 65.875 54.910156 65.722656 L 52.34375 61.367188 C 52.1875 61.117188 52.257813 60.792969 52.5 60.628906 Z M 52.5 60.628906 "/>
<path style=" stroke:none;fill-rule:nonzero;fill:rgb(19.607843%,74.509804%,86.666667%);fill-opacity:1;" d="M 55.648438 23.0625 L 55.648438 46.9375 L 34.960938 58.957031 L 34.960938 35.039063 Z M 55.648438 23.0625 "/>
<path style=" stroke:none;fill-rule:nonzero;fill:rgb(61.176471%,92.156863%,100%);fill-opacity:1;" d="M 55.648438 23.0625 L 35 35.078125 L 14.3125 23.0625 L 35 11.042969 Z M 55.648438 23.0625 "/>
<path style=" stroke:none;fill-rule:nonzero;fill:rgb(31.372549%,90.196078%,100%);fill-opacity:1;" d="M 34.960938 35.078125 L 34.960938 58.957031 L 14.3125 46.9375 L 14.3125 23.0625 Z M 34.960938 35.078125 "/>
<path style=" stroke:none;fill-rule:nonzero;fill:rgb(61.176471%,92.156863%,100%);fill-opacity:1;" d="M 14.3125 46.9375 L 34.960938 35.039063 L 34.960938 58.957031 Z M 14.3125 46.9375 "/>
<path style=" stroke:none;fill-rule:nonzero;fill:rgb(31.372549%,90.196078%,100%);fill-opacity:1;" d="M 55.648438 46.9375 L 34.960938 35.039063 L 34.960938 58.957031 Z M 55.648438 46.9375 "/>
</g>
</svg>
