<?xml version="1.0" encoding="UTF-8"?>
<svg xmlns="http://www.w3.org/2000/svg" xmlns:xlink="http://www.w3.org/1999/xlink" width="70pt" height="70pt" viewBox="0 0 70 70" version="1.1">
<defs>
<radialGradient id="radial0" gradientUnits="userSpaceOnUse" cx="-36.63" cy="17.12" fx="-36.63" fy="17.12" r="11.18" gradientTransform="matrix(3.655556,0,0,3.655556,162.866667,-28.777778)">
<stop offset="0.27" style="stop-color:rgb(100%,84.313725%,5.882353%);stop-opacity:1;"/>
<stop offset="0.49" style="stop-color:rgb(100%,79.607843%,7.058824%);stop-opacity:1;"/>
<stop offset="0.88" style="stop-color:rgb(99.607843%,67.45098%,9.803922%);stop-opacity:1;"/>
<stop offset="1" style="stop-color:rgb(99.607843%,63.137255%,10.588235%);stop-opacity:1;"/>
</radialGradient>
<filter id="alpha" filterUnits="objectBoundingBox" x="0%" y="0%" width="100%" height="100%">
  <feColorMatrix type="matrix" in="SourceGraphic" values="0 0 0 0 1 0 0 0 0 1 0 0 0 0 1 0 0 0 1 0"/>
</filter>
<mask id="mask0">
  <g filter="url(#alpha)">
<rect x="0" y="0" width="70" height="70" style="fill:rgb(0%,0%,0%);fill-opacity:0.74902;stroke:none;"/>
  </g>
</mask>
<clipPath id="clip1">
  <rect x="0" y="0" width="70" height="70"/>
</clipPath>
<g id="surface5" clip-path="url(#clip1)">
<path style=" stroke:none;fill-rule:nonzero;fill:rgb(100%,57.647059%,0%);fill-opacity:1;" d="M 29.632813 63.039063 C 29.929688 63.21875 30.304688 63.226563 30.609375 63.058594 C 30.914063 62.890625 31.105469 62.570313 31.109375 62.222656 L 31.109375 44.917969 C 31.113281 44.578125 30.957031 44.261719 30.683594 44.0625 C 30.378906 43.855469 29.980469 43.835938 29.660156 44.019531 C 29.339844 44.199219 29.148438 44.546875 29.167969 44.917969 L 29.167969 62.222656 C 29.183594 62.554688 29.359375 62.855469 29.632813 63.039063 Z M 29.632813 63.039063 "/>
</g>
<mask id="mask1">
  <g filter="url(#alpha)">
<rect x="0" y="0" width="70" height="70" style="fill:rgb(0%,0%,0%);fill-opacity:0.74902;stroke:none;"/>
  </g>
</mask>
<clipPath id="clip2">
  <rect x="0" y="0" width="70" height="70"/>
</clipPath>
<g id="surface8" clip-path="url(#clip2)">
<path style=" stroke:none;fill-rule:nonzero;fill:rgb(100%,57.647059%,0%);fill-opacity:1;" d="M 23.371094 21.195313 L 43.671875 21.195313 C 44.359375 21.195313 44.917969 21.75 44.917969 22.4375 L 44.917969 22.632813 C 44.917969 23.320313 44.359375 23.878906 43.671875 23.878906 L 23.371094 23.878906 C 22.683594 23.878906 22.128906 23.320313 22.128906 22.632813 L 22.128906 22.4375 C 22.128906 21.75 22.683594 21.195313 23.371094 21.195313 Z M 23.371094 21.195313 "/>
</g>
<mask id="mask2">
  <g filter="url(#alpha)">
<rect x="0" y="0" width="70" height="70" style="fill:rgb(0%,0%,0%);fill-opacity:0.74902;stroke:none;"/>
  </g>
</mask>
<clipPath id="clip3">
  <rect x="0" y="0" width="70" height="70"/>
</clipPath>
<g id="surface11" clip-path="url(#clip3)">
<path style=" stroke:none;fill-rule:nonzero;fill:rgb(100%,57.647059%,0%);fill-opacity:1;" d="M 23.371094 25.550781 L 43.671875 25.550781 C 44.359375 25.550781 44.917969 26.105469 44.917969 26.792969 L 44.917969 26.988281 C 44.917969 27.675781 44.359375 28.234375 43.671875 28.234375 L 23.371094 28.234375 C 22.683594 28.234375 22.128906 27.675781 22.128906 26.988281 L 22.128906 26.792969 C 22.128906 26.105469 22.683594 25.550781 23.371094 25.550781 Z M 23.371094 25.550781 "/>
</g>
</defs>
<g id="surface1">
<path style=" stroke:none;fill-rule:nonzero;fill:url(#radial0);" d="M 52.734375 27.960938 C 54.246094 26.449219 55.097656 24.402344 55.097656 22.265625 C 55.097656 20.125 54.246094 18.078125 52.734375 16.566406 L 38.890625 2.683594 C 37.386719 1.171875 35.34375 0.324219 33.210938 0.324219 C 31.078125 0.324219 29.035156 1.171875 27.535156 2.683594 L 13.6875 16.566406 C 10.582031 19.730469 10.582031 24.796875 13.6875 27.960938 L 25.355469 39.628906 C 25.769531 40.058594 26.003906 40.625 26.015625 41.222656 L 26.015625 62.6875 C 26.007813 63.414063 26.285156 64.113281 26.792969 64.632813 L 32.042969 69.882813 C 32.375 70.242188 32.839844 70.445313 33.328125 70.445313 C 33.816406 70.445313 34.28125 70.242188 34.609375 69.882813 L 39.707031 64.789063 L 42.699219 61.792969 C 42.90625 61.601563 43.019531 61.335938 43.019531 61.054688 C 43.019531 60.777344 42.90625 60.507813 42.699219 60.316406 L 40.5625 58.140625 C 40.335938 57.925781 40.210938 57.632813 40.210938 57.320313 C 40.210938 57.011719 40.335938 56.71875 40.5625 56.503906 L 42.699219 54.328125 C 42.90625 54.136719 43.019531 53.867188 43.019531 53.589844 C 43.019531 53.308594 42.90625 53.042969 42.699219 52.851563 L 40.445313 50.554688 C 40.222656 50.347656 40.097656 50.0625 40.097656 49.757813 C 40.097656 49.457031 40.222656 49.167969 40.445313 48.960938 L 42.777344 46.667969 C 42.984375 46.476563 43.097656 46.207031 43.097656 45.929688 C 43.097656 45.648438 42.984375 45.378906 42.777344 45.1875 L 39.785156 42.15625 L 39.785156 41.066406 Z M 33.289063 6.027344 C 35.816406 6.050781 37.851563 8.113281 37.839844 10.640625 C 37.824219 13.171875 35.765625 15.210938 33.238281 15.207031 C 30.707031 15.199219 28.660156 13.144531 28.660156 10.617188 C 28.652344 9.402344 29.125 8.234375 29.980469 7.375 C 30.835938 6.511719 31.996094 6.027344 33.210938 6.027344 Z M 33.289063 6.027344 "/>
<use xlink:href="#surface5" mask="url(#mask0)"/>
<use xlink:href="#surface8" mask="url(#mask1)"/>
<use xlink:href="#surface11" mask="url(#mask2)"/>
</g>
</svg>
