<?xml version="1.0" encoding="UTF-8"?>
<svg xmlns="http://www.w3.org/2000/svg" xmlns:xlink="http://www.w3.org/1999/xlink" width="70pt" height="70pt" viewBox="0 0 70 70" version="1.1">
<g id="surface1">
<path style=" stroke:none;fill-rule:evenodd;fill:rgb(62.745098%,63.137255%,63.529412%);fill-opacity:1;" d="M 1.398438 36.398438 L 15.398438 36.398438 L 15.398438 50.398438 L 1.398438 50.398438 Z M 1.398438 36.398438 "/>
<path style=" stroke:none;fill-rule:evenodd;fill:rgb(62.745098%,63.137255%,63.529412%);fill-opacity:1;" d="M 1.398438 18.199219 L 15.398438 18.199219 L 15.398438 32.199219 L 1.398438 32.199219 Z M 1.398438 18.199219 "/>
<path style=" stroke:none;fill-rule:evenodd;fill:rgb(62.745098%,63.137255%,63.529412%);fill-opacity:1;" d="M 1.398438 54.601563 L 15.398438 54.601563 L 15.398438 68.601563 L 1.398438 68.601563 Z M 1.398438 54.601563 "/>
<path style=" stroke:none;fill-rule:evenodd;fill:rgb(62.745098%,63.137255%,63.529412%);fill-opacity:1;" d="M 19.601563 54.601563 L 33.601563 54.601563 L 33.601563 68.601563 L 19.601563 68.601563 Z M 19.601563 54.601563 "/>
<path style=" stroke:none;fill-rule:evenodd;fill:rgb(62.745098%,63.137255%,63.529412%);fill-opacity:1;" d="M 37.800781 54.601563 L 51.800781 54.601563 L 51.800781 68.601563 L 37.800781 68.601563 Z M 37.800781 54.601563 "/>
<path style=" stroke:none;fill-rule:evenodd;fill:rgb(0%,44.705882%,77.647059%);fill-opacity:1;" d="M 44.101563 1.398438 C 30.386719 1.398438 19.601563 12.1875 19.601563 25.898438 L 19.601563 50.398438 C 19.601563 50.398438 37.792969 50.398438 44.101563 50.398438 C 57.8125 50.398438 68.601563 39.613281 68.601563 25.898438 C 68.601563 12.1875 57.8125 1.398438 44.101563 1.398438 Z M 44.101563 1.398438 "/>
<path style=" stroke:none;fill-rule:evenodd;fill:rgb(100%,100%,100%);fill-opacity:1;" d="M 29.398438 22.398438 L 33.601563 22.398438 L 33.601563 37.800781 L 29.398438 37.800781 Z M 29.398438 22.398438 "/>
<path style=" stroke:none;fill-rule:evenodd;fill:rgb(100%,100%,100%);fill-opacity:1;" d="M 39.199219 26.601563 L 43.398438 26.601563 L 43.398438 37.800781 L 39.199219 37.800781 Z M 39.199219 26.601563 "/>
<path style=" stroke:none;fill-rule:evenodd;fill:rgb(100%,100%,100%);fill-opacity:1;" d="M 49 16.800781 L 53.199219 16.800781 L 53.199219 37.800781 L 49 37.800781 Z M 49 16.800781 "/>
</g>
</svg>
