<?xml version="1.0" encoding="utf-8"?><svg xmlns="http://www.w3.org/2000/svg" width="100%" height="70" viewBox="0 0 18 18" preserveAspectRatio="xMidYMid meet"><defs><linearGradient id="b0415b5b-3b98-48a9-9263-d680ffce93e8" x1="9" y1="17.86" x2="9" y2="4.06" gradientUnits="userSpaceOnUse"><stop offset="0" stop-color="#006CBC" /><stop offset="0.16" stop-color="#0078D2" /><stop offset="0.53" stop-color="#0193FF" /><stop offset="0.82" stop-color="#1F9FFF" /><stop offset="1" stop-color="#29A4FF" /></linearGradient></defs><title>Icon471-AzureLighthouse</title><g id="e5b0933f-d08a-4ba0-b46b-ca75717b991a"><path d="M16.65,17.08,13.06,7.76a.28.28,0,0,0-.26-.18H10.24V5.36a1.3,1.3,0,1,0-2.59,0V7.58H5.34a.29.29,0,0,0-.27.18L1.35,17.08a.55.55,0,0,0,.45.78H16.2A.55.55,0,0,0,16.65,17.08Z" fill="url(#b0415b5b-3b98-48a9-9263-d680ffce93e8)" /><path d="M3.37,12,12,7.58h.75a.28.28,0,0,1,.27.19l.83,2.15L1.8,16Z" fill="#5FBBFF" /><path d="M9.54,17.84l6-3.6,1.09,2.84a.56.56,0,0,1-.46.78Z" fill="#5FBBFF" /><path d="M8.87.16,4.75,2.55a.16.16,0,0,0-.08.14v.37a.16.16,0,0,0,.16.16h.62V7.58h.78V3.22h5.44V7.58h.77V3.22h.63a.16.16,0,0,0,.16-.16V2.69a.16.16,0,0,0-.08-.14L9,.16A.22.22,0,0,0,8.87.16Z" fill="#006CBC" /></g></svg>