<?xml version="1.0" encoding="utf-8"?><svg version="1.1" xmlns="http://www.w3.org/2000/svg" xmlns:xlink="http://www.w3.org/1999/xlink" xmlns:xml="http://www.w3.org/XML/1998/namespace" width="70" height="70" viewBox="0, 0, 18, 18" id="ada44b30-b0e0-4b69-a3b4-281ce9b31578"><defs><linearGradient x1="9" y1="0.31" x2="9" y2="17.69" gradientUnits="userSpaceOnUse" id="bf2c5efd-c986-4496-8dde-2626619483cc"><stop offset="0%" stop-color="#C69AEB" /><stop offset="9%" stop-color="#BB90E4" /><stop offset="49%" stop-color="#926BC9" /><stop offset="81%" stop-color="#7854B8" /><stop offset="100%" stop-color="#6F4BB2" /></linearGradient></defs><g><path d="M17.66 2.86 L15.27 0.49 a0.58 0.58 0 0 0 -0.43 -0.18 L10.41 0.48 A0.52 0.52 0 0 0 10 0.65 L0.34 10.27 a0.59 0.59 0 0 0 0 0.83 l6.44 6.41 a0.6 0.6 0 0 0 0.84 0 l9.69 -9.63 a0.58 0.58 0 0 0 0.17 -0.37 l0.35 -4.19 A0.57 0.57 0 0 0 17.66 2.86 Z M14.78 4.43 a1.08 1.08 0 1 1 1.08 -1.07 A1.07 1.07 0 0 1 14.78 4.43 Z" style="fill:url(#bf2c5efd-c986-4496-8dde-2626619483cc);" /><path d="M14.78 1.44 a1.92 1.92 0 1 0 1.93 1.92 A1.93 1.93 0 0 0 14.78 1.44 Z m1.06 2.13 A1.08 1.08 0 1 1 14.57 2.3 A1.08 1.08 0 0 1 15.84 3.57 Z" style="fill:#552F99;" /></g></svg>