<?xml version="1.0" encoding="utf-8"?><svg version="1.1" xmlns="http://www.w3.org/2000/svg" xmlns:xlink="http://www.w3.org/1999/xlink" xmlns:xml="http://www.w3.org/XML/1998/namespace" width="70" height="70" viewBox="0, 0, 18, 18"><defs><linearGradient x1="9" y1="17.198" x2="9" y2="-3.282" gradientUnits="userSpaceOnUse" id="b69628e4-f1fb-4b63-9c34-e2d84c36afc4"><stop offset="0%" stop-color="#5E9624" /><stop offset="18.3%" stop-color="#629C25" /><stop offset="43.5%" stop-color="#6DAE2A" /><stop offset="72.6%" stop-color="#7FCB30" /><stop offset="82.2%" stop-color="#86D633" /></linearGradient></defs><title>MsPortalFx.base.images-31</title><g id="a0c8ba28-a0da-4e78-8fdc-d8090f0226f2"><g><path d="M17.5 2.5 V13.332 a0.583 0.583 0 0 1 -0.584 0.581 H12.4 a0.142 0.142 0 0 0 -0.142 0.141 V15.8 a0.284 0.284 0 0 1 -0.456 0.224 L9.079 13.943 a0.145 0.145 0 0 0 -0.087 -0.03 H1.084 A0.583 0.583 0 0 1 0.5 13.332 V2.5 a0.584 0.584 0 0 1 0.584 -0.582 H16.916 A0.584 0.584 0 0 1 17.5 2.5 Z" style="fill:url(#b69628e4-f1fb-4b63-9c34-e2d84c36afc4);" /><path d="M10.772 7.857 h0 a3.811 3.811 0 0 0 -1.424 -0.839 V5.454 a3.444 3.444 0 0 1 1.286 0.455 a0.11 0.11 0 0 0 0.111 0 a0.109 0.109 0 0 0 0.056 -0.1 V4.556 a0.11 0.11 0 0 0 -0.056 -0.1 a3.37 3.37 0 0 0 -1.4 -0.325 V3.392 a0.11 0.11 0 0 0 -0.11 -0.11 H8.563 a0.11 0.11 0 0 0 -0.11 0.11 v0.766 a2.3 2.3 0 0 0 -1.313 0.614 A1.8 1.8 0 0 0 6.584 6.1 a1.788 1.788 0 0 0 0.454 1.271 a3.874 3.874 0 0 0 1.415 0.836 V9.7 a3.684 3.684 0 0 1 -0.8 -0.2 a2.6 2.6 0 0 1 -0.763 -0.382 a0.111 0.111 0 0 0 -0.176 0.089 V10.5 a0.112 0.112 0 0 0 0.059 0.1 a3.883 3.883 0 0 0 1.685 0.439 v0.874 a0.111 0.111 0 0 0 0.11 0.111 h0.675 a0.111 0.111 0 0 0 0.11 -0.111 V11 A2.39 2.39 0 0 0 10.72 10.4 a1.77 1.77 0 0 0 0.514 -1.319 A1.721 1.721 0 0 0 10.772 7.857 Z M9.787 9.135 v0.008 a0.5 0.5 0 0 1 -0.438 0.53 v-1.1 C9.636 8.734 9.783 8.922 9.787 9.135 Z M8.033 6.023 a0.512 0.512 0 0 1 0.42 -0.536 V6.639 A0.726 0.726 0 0 1 8.033 6.023 Z" style="fill:#F2F2F2;" /></g></g></svg>