<?xml version="1.0" encoding="UTF-8"?>
<svg xmlns="http://www.w3.org/2000/svg" xmlns:xlink="http://www.w3.org/1999/xlink" width="70pt" height="70pt" viewBox="0 0 70 70" version="1.1">
<defs>
<filter id="alpha" filterUnits="objectBoundingBox" x="0%" y="0%" width="100%" height="100%">
  <feColorMatrix type="matrix" in="SourceGraphic" values="0 0 0 0 1 0 0 0 0 1 0 0 0 0 1 0 0 0 1 0"/>
</filter>
<mask id="mask0">
  <g filter="url(#alpha)">
<rect x="0" y="0" width="70" height="70" style="fill:rgb(0,0,0);fill-opacity:0.2;stroke:none;"/>
  </g>
</mask>
<clipPath id="clip1">
  <rect x="0" y="0" width="70" height="70"/>
</clipPath>
<g id="surface5" clip-path="url(#clip1)">
<path style=" stroke:none;fill-rule:nonzero;fill:rgb(255,255,255);fill-opacity:1;" d="M 63.667969 5.476563 L 6.085938 5.476563 C 4.140625 5.476563 2.554688 7.242188 2.554688 9.191406 L 2.554688 49.304688 C 2.554688 51.253906 4.140625 52.957031 6.085938 52.957031 L 7.425781 52.957031 Z M 63.667969 5.476563 "/>
</g>
<mask id="mask1">
  <g filter="url(#alpha)">
<rect x="0" y="0" width="70" height="70" style="fill:rgb(0,0,0);fill-opacity:0.701961;stroke:none;"/>
  </g>
</mask>
<clipPath id="clip2">
  <rect x="0" y="0" width="70" height="70"/>
</clipPath>
<g id="surface8" clip-path="url(#clip2)">
<path style=" stroke:none;fill-rule:nonzero;fill:rgb(255,255,255);fill-opacity:1;" d="M 33.90625 46.566406 C 33.84375 46.566406 33.84375 46.566406 33.78125 46.503906 L 25.6875 41.816406 C 25.625 41.757813 25.566406 41.695313 25.566406 41.574219 L 25.566406 32.261719 C 25.566406 32.199219 25.625 32.078125 25.6875 32.015625 C 25.746094 31.957031 25.871094 31.957031 25.929688 32.015625 L 34.027344 36.703125 C 34.085938 36.765625 34.148438 36.824219 34.148438 36.949219 L 34.148438 46.320313 C 34.148438 46.382813 34.085938 46.503906 34.027344 46.566406 L 33.90625 46.566406 "/>
</g>
<mask id="mask2">
  <g filter="url(#alpha)">
<rect x="0" y="0" width="70" height="70" style="fill:rgb(0,0,0);fill-opacity:0.4;stroke:none;"/>
  </g>
</mask>
<clipPath id="clip3">
  <rect x="0" y="0" width="70" height="70"/>
</clipPath>
<g id="surface11" clip-path="url(#clip3)">
<path style=" stroke:none;fill-rule:nonzero;fill:rgb(255,255,255);fill-opacity:1;" d="M 36.21875 46.566406 C 36.15625 46.566406 36.15625 46.566406 36.09375 46.503906 C 36.035156 46.445313 35.972656 46.382813 35.972656 46.261719 L 35.972656 37.007813 C 35.972656 36.949219 36.035156 36.824219 36.09375 36.765625 L 44.191406 32.078125 C 44.253906 32.015625 44.375 32.015625 44.433594 32.078125 C 44.496094 32.140625 44.554688 32.199219 44.554688 32.261719 L 44.554688 41.574219 C 44.554688 41.636719 44.496094 41.757813 44.433594 41.816406 L 36.339844 46.503906 C 36.339844 46.566406 36.277344 46.566406 36.21875 46.566406 "/>
</g>
</defs>
<g id="surface1">
<path style=" stroke:none;fill-rule:nonzero;fill:rgb(0,140,244);fill-opacity:1;" d="M 44.738281 52.957031 L 25.746094 52.957031 C 27.878906 60.445313 26.355469 61.539063 13.878906 61.539063 L 13.878906 65.433594 L 56.363281 65.433594 L 56.363281 61.539063 C 43.824219 61.539063 42.609375 60.445313 44.738281 52.957031 "/>
<path style=" stroke:none;fill-rule:nonzero;fill:rgb(65,174,255);fill-opacity:1;" d="M 63.609375 5.476563 L 6.085938 5.476563 C 4.140625 5.476563 2.554688 7.242188 2.554688 9.191406 L 2.554688 49.304688 C 2.554688 51.253906 4.140625 52.957031 6.085938 52.957031 L 63.609375 52.957031 C 65.554688 52.957031 67.503906 51.253906 67.503906 49.304688 L 67.503906 9.191406 C 67.566406 7.242188 65.554688 5.476563 63.609375 5.476563 "/>
<use xlink:href="#surface5" mask="url(#mask0)"/>
<path style=" stroke:none;fill-rule:nonzero;fill:rgb(57,171,255);fill-opacity:1;" d="M 62.511719 10.46875 L 62.511719 47.964844 L 7.488281 47.964844 L 7.488281 10.46875 Z M 62.511719 10.46875 "/>
<path style=" stroke:none;fill-rule:nonzero;fill:rgb(57,171,255);fill-opacity:1;" d="M 7.488281 47.964844 L 7.609375 47.964844 L 7.609375 10.46875 L 57.824219 10.410156 L 7.488281 10.46875 Z M 7.488281 47.964844 "/>
<path style=" stroke:none;fill-rule:nonzero;fill:rgb(65,174,255);fill-opacity:1;" d="M 13.816406 61.539063 L 56.304688 61.539063 L 56.304688 65.433594 L 13.816406 65.433594 Z M 13.816406 61.539063 "/>
<path style=" stroke:none;fill-rule:nonzero;fill:rgb(115,195,255);fill-opacity:1;" d="M 35.730469 8.21875 C 35.730469 8.703125 35.304688 9.128906 34.816406 9.128906 C 34.332031 9.128906 33.90625 8.703125 33.90625 8.21875 C 33.90625 7.730469 34.332031 7.304688 34.816406 7.304688 C 35.304688 7.304688 35.730469 7.730469 35.730469 8.21875 "/>
<path style=" stroke:none;fill-rule:nonzero;fill:rgb(255,255,255);fill-opacity:1;" d="M 35.121094 35.183594 C 35.0625 35.183594 35.0625 35.183594 35 35.121094 L 26.84375 30.433594 C 26.78125 30.375 26.722656 30.3125 26.722656 30.191406 C 26.722656 30.128906 26.78125 30.007813 26.84375 30.007813 L 34.9375 25.320313 C 35 25.261719 35.121094 25.261719 35.183594 25.320313 L 43.339844 30.007813 C 43.398438 30.070313 43.460938 30.128906 43.460938 30.191406 C 43.460938 30.253906 43.398438 30.375 43.339844 30.375 L 35.242188 35.0625 L 35.121094 35.183594 "/>
<use xlink:href="#surface8" mask="url(#mask1)"/>
<use xlink:href="#surface11" mask="url(#mask2)"/>
<path style=" stroke:none;fill-rule:nonzero;fill:rgb(0,80,140);fill-opacity:1;" d="M 24.410156 10.957031 C 35.488281 18.746094 35.183594 28.972656 35.183594 28.972656 C 35.183594 28.972656 32.140625 19.234375 19.175781 15.21875 L 26.113281 15.398438 Z M 43.824219 15.886719 C 35.0625 21.0625 34.511719 29.21875 34.511719 29.21875 C 34.511719 29.21875 37.496094 21.609375 47.476563 19.417969 L 42.242188 19.175781 Z M 35.121094 27.9375 C 35 27.757813 32.503906 23.984375 28.183594 22.21875 C 25.382813 21.121094 23.253906 20.757813 21.792969 21.304688 C 21 21.609375 20.453125 22.09375 20.148438 22.824219 C 19.660156 24.042969 19.722656 26.417969 25.503906 28.730469 C 29.824219 30.496094 34.269531 29.460938 34.453125 29.398438 L 35.730469 28.914063 Z M 27.453125 24.042969 C 29.765625 24.957031 31.53125 26.601563 32.503906 27.757813 C 30.984375 27.878906 28.609375 27.878906 26.296875 26.90625 C 22.949219 25.566406 21.730469 24.164063 21.972656 23.496094 C 22.035156 23.375 22.09375 23.191406 22.460938 23.128906 C 22.886719 22.949219 24.285156 22.765625 27.453125 24.042969 Z M 35.609375 29.21875 C 35.792969 29.277344 40.113281 30.617188 44.617188 29.277344 C 47.476563 28.363281 49.363281 27.269531 50.15625 25.992188 C 50.582031 25.261719 50.703125 24.53125 50.460938 23.800781 C 50.09375 22.523438 48.511719 20.757813 42.546875 22.582031 C 38.105469 23.984375 35.242188 27.574219 35.121094 27.695313 L 34.332031 28.730469 Z M 44.070313 27.390625 C 41.695313 28.121094 39.320313 27.9375 37.800781 27.695313 C 38.894531 26.660156 40.78125 25.140625 43.15625 24.410156 C 46.625 23.3125 48.390625 23.617188 48.636719 24.347656 C 48.695313 24.46875 48.695313 24.652344 48.511719 24.957031 C 48.269531 25.320313 47.355469 26.355469 44.070313 27.390625 Z M 44.070313 27.390625 "/>
</g>
</svg>
