<?xml version="1.0" encoding="utf-8"?><svg version="1.1" xmlns="http://www.w3.org/2000/svg" xmlns:xlink="http://www.w3.org/1999/xlink" xmlns:xml="http://www.w3.org/XML/1998/namespace" xmlns:dc="http://purl.org/dc/elements/1.1/" xmlns:cc="http://creativecommons.org/ns#" xmlns:rdf="http://www.w3.org/1999/02/22-rdf-syntax-ns#" xmlns:sodipodi="http://sodipodi.sourceforge.net/DTD/sodipodi-0.dtd" xmlns:inkscape="http://www.inkscape.org/namespaces/inkscape" width="70" height="70" viewBox="0, 0, 47.000004, 49.85109" id="FxSymbol0-0bb" class="" role="presentation" focusable="false" sodipodi:docname="Azure Managed Applications_COLOR.svg" inkscape:version="0.92.2 (5c3e80d, 2017-08-06)"><metadata id="metadata27" /><defs id="defs25" /><sodipodi:namedview id="namedview23" pagecolor="#ffffff" bordercolor="#0075CC" borderopacity="1" objecttolerance="10" gridtolerance="10" guidetolerance="10" inkscape:pageopacity="0" inkscape:pageshadow="2" inkscape:window-width="640" inkscape:window-height="480" showgrid="false" inkscape:zoom="4.72" inkscape:cx="24" inkscape:cy="25" inkscape:window-x="0" inkscape:window-y="0" inkscape:window-maximized="0" inkscape:current-layer="FxSymbol0-0bb" /><g transform="translate(-1, -0.1489063)" id="g20"><title id="title2" /><path d="m29.194 32.171 c0.044 0 0.087 -0.01 0.125 -0.031 L37.4 27.664 a0.23 0.23 0 0 0 0.125 -0.204 v-8.982 a0.237 0.237 0 0 0 -0.125 -0.206 a0.263 0.263 0 0 0 -0.247 0 l-8.08 4.476 a0.236 0.236 0 0 0 -0.12 0.205 v8.983 c0 0.086 0.046 0.161 0.12 0.204 c0.04 0.021 0.08 0.031 0.121 0.031 m0 11.829 c0.044 0 0.087 -0.01 0.125 -0.031 L37.4 39.493 a0.23 0.23 0 0 0 0.125 -0.204 v-8.982 a0.237 0.237 0 0 0 -0.125 -0.206 a0.263 0.263 0 0 0 -0.247 0 l-8.08 4.476 a0.236 0.236 0 0 0 -0.12 0.205 v8.983 c0 0.086 0.046 0.161 0.12 0.204 c0.04 0.021 0.08 0.031 0.121 0.031 M39.67 26.256 c0.044 0 0.087 -0.01 0.125 -0.031 l8.081 -4.476 A0.229 0.229 0 0 0 48 21.545 v-8.982 a0.237 0.237 0 0 0 -0.125 -0.206 a0.263 0.263 0 0 0 -0.247 0 l-8.08 4.476 a0.236 0.236 0 0 0 -0.12 0.205 v8.983 c0 0.086 0.046 0.161 0.12 0.204 a0.251 0.251 0 0 0 0.122 0.031 m0 11.829 c0.044 0 0.087 -0.01 0.125 -0.031 l8.081 -4.476 A0.228 0.228 0 0 0 48 33.374 v-8.982 a0.237 0.237 0 0 0 -0.125 -0.206 a0.263 0.263 0 0 0 -0.247 0 l-8.08 4.476 a0.236 0.236 0 0 0 -0.12 0.205 v8.983 c0 0.086 0.046 0.161 0.12 0.204 a0.251 0.251 0 0 0 0.122 0.031" id="path4" class="msportalfx-svg-c16" inkscape:connector-curvature="0" style="fill:#0394FF;" /><path d="m29.194 44 c0.044 0 0.087 -0.01 0.125 -0.031 L37.4 39.493 a0.23 0.23 0 0 0 0.125 -0.204 v-8.982 a0.237 0.237 0 0 0 -0.125 -0.206 a0.263 0.263 0 0 0 -0.247 0 l-8.08 4.476 a0.236 0.236 0 0 0 -0.12 0.205 v8.983 c0 0.086 0.046 0.161 0.12 0.204 c0.04 0.021 0.08 0.031 0.121 0.031 M39.67 38.085 c0.044 0 0.087 -0.01 0.125 -0.031 l8.081 -4.476 A0.228 0.228 0 0 0 48 33.374 v-8.982 a0.237 0.237 0 0 0 -0.125 -0.206 a0.263 0.263 0 0 0 -0.247 0 l-8.08 4.476 a0.236 0.236 0 0 0 -0.12 0.205 v8.983 c0 0.086 0.046 0.161 0.12 0.204 a0.251 0.251 0 0 0 0.122 0.031 M29.194 32.171 c0.044 0 0.087 -0.01 0.125 -0.031 L37.4 27.664 a0.23 0.23 0 0 0 0.125 -0.204 v-8.982 a0.237 0.237 0 0 0 -0.125 -0.206 a0.263 0.263 0 0 0 -0.247 0 l-8.08 4.476 a0.236 0.236 0 0 0 -0.12 0.205 v8.983 c0 0.086 0.046 0.161 0.12 0.204 c0.04 0.021 0.08 0.031 0.121 0.031 M39.67 26.256 c0.044 0 0.087 -0.01 0.125 -0.031 l8.081 -4.476 A0.229 0.229 0 0 0 48 21.545 v-8.982 a0.237 0.237 0 0 0 -0.125 -0.206 a0.263 0.263 0 0 0 -0.247 0 l-8.08 4.476 a0.236 0.236 0 0 0 -0.12 0.205 v8.983 c0 0.086 0.046 0.161 0.12 0.204 a0.251 0.251 0 0 0 0.122 0.031" id="path6" opacity="0.15" inkscape:connector-curvature="0" style="fill:#003B68;" /><path d="M26.806 32.171 A0.257 0.257 0 0 1 26.681 32.14 L18.6 27.664 A0.23 0.23 0 0 1 18.475 27.46 v-8.982 c0 -0.084 0.046 -0.161 0.125 -0.206 a0.263 0.263 0 0 1 0.247 0 l8.08 4.476 c0.075 0.043 0.12 0.121 0.12 0.205 v8.983 a0.234 0.234 0 0 1 -0.12 0.204 a0.256 0.256 0 0 1 -0.121 0.031 m0 11.829 A0.257 0.257 0 0 1 26.681 43.969 L18.6 39.493 a0.23 0.23 0 0 1 -0.125 -0.204 v-8.982 c0 -0.084 0.046 -0.161 0.125 -0.206 a0.263 0.263 0 0 1 0.247 0 l8.08 4.476 c0.075 0.043 0.12 0.121 0.12 0.205 v8.983 A0.234 0.234 0 0 1 26.927 43.969 A0.256 0.256 0 0 1 26.806 44 M16.33 26.256 A0.257 0.257 0 0 1 16.205 26.225 L8.124 21.749 A0.229 0.229 0 0 1 8 21.545 v-8.982 c0 -0.084 0.046 -0.161 0.125 -0.206 a0.263 0.263 0 0 1 0.247 0 l8.08 4.476 c0.075 0.043 0.12 0.121 0.12 0.205 v8.983 a0.234 0.234 0 0 1 -0.12 0.204 a0.251 0.251 0 0 1 -0.122 0.031 m0 11.829 A0.257 0.257 0 0 1 16.205 38.054 L8.124 33.578 A0.228 0.228 0 0 1 8 33.374 v-8.982 c0 -0.084 0.046 -0.161 0.125 -0.206 a0.263 0.263 0 0 1 0.247 0 l8.08 4.476 c0.075 0.043 0.12 0.121 0.12 0.205 v8.983 a0.234 0.234 0 0 1 -0.12 0.204 a0.251 0.251 0 0 1 -0.122 0.031 m3.51 -22.3 A0.237 0.237 0 0 1 19.93 15.7 l8.031 -4.364 a0.25 0.25 0 0 1 0.243 -0.002 l7.95 4.327 a0.226 0.226 0 0 1 0.119 0.2 a0.24 0.24 0 0 1 -0.124 0.199 l-8.03 4.363 a0.256 0.256 0 0 1 -0.242 -0.002 l-7.951 -4.328 a0.222 0.222 0 0 1 -0.12 -0.195 a0.234 0.234 0 0 1 0.034 -0.113 M9.37 10.086 a0.234 0.234 0 0 1 0.089 -0.085 l7.942 -4.364 a0.246 0.246 0 0 1 0.241 -0.002 l7.862 4.327 a0.225 0.225 0 0 1 0.118 0.2 a0.238 0.238 0 0 1 -0.123 0.199 l-7.942 4.363 A0.25 0.25 0 0 1 17.318 14.722 L9.455 10.394 A0.225 0.225 0 0 1 9.336 10.199 A0.224 0.224 0 0 1 9.37 10.086 m21.161 0.096 a0.234 0.234 0 0 1 0.089 -0.085 l7.942 -4.364 a0.246 0.246 0 0 1 0.241 -0.002 l7.862 4.327 a0.225 0.225 0 0 1 0.118 0.2 a0.238 0.238 0 0 1 -0.123 0.199 L38.718 14.82 A0.25 0.25 0 0 1 38.479 14.818 L30.616 10.49 a0.225 0.225 0 0 1 -0.119 -0.195 a0.228 0.228 0 0 1 0.034 -0.113 M19.88 4.558 a0.242 0.242 0 0 1 0.09 -0.084 l8.031 -4.293 a0.253 0.253 0 0 1 0.243 -0.002 l7.95 4.257 a0.22 0.22 0 0 1 0.119 0.196 a0.236 0.236 0 0 1 -0.124 0.196 L28.159 9.12 A0.262 0.262 0 0 1 27.917 9.118 L19.966 4.861 A0.218 0.218 0 0 1 19.846 4.669 A0.23 0.23 0 0 1 19.88 4.558" id="path8" class="msportalfx-svg-c15" inkscape:connector-curvature="0" style="fill:#39ABFF;" /><path d="M19.84 15.785 A0.237 0.237 0 0 1 19.93 15.7 l8.031 -4.364 a0.25 0.25 0 0 1 0.243 -0.002 l7.95 4.327 a0.226 0.226 0 0 1 0.119 0.2 a0.24 0.24 0 0 1 -0.124 0.199 l-8.03 4.363 a0.256 0.256 0 0 1 -0.242 -0.002 l-7.951 -4.328 a0.222 0.222 0 0 1 -0.12 -0.195 a0.234 0.234 0 0 1 0.034 -0.113 M9.37 10.086 a0.234 0.234 0 0 1 0.089 -0.085 l7.942 -4.364 a0.246 0.246 0 0 1 0.241 -0.002 l7.862 4.327 a0.225 0.225 0 0 1 0.118 0.2 a0.238 0.238 0 0 1 -0.123 0.199 l-7.942 4.363 A0.25 0.25 0 0 1 17.318 14.722 L9.455 10.394 A0.225 0.225 0 0 1 9.336 10.199 A0.224 0.224 0 0 1 9.37 10.086 m21.161 0.096 a0.234 0.234 0 0 1 0.089 -0.085 l7.942 -4.364 a0.246 0.246 0 0 1 0.241 -0.002 l7.862 4.327 a0.225 0.225 0 0 1 0.118 0.2 a0.238 0.238 0 0 1 -0.123 0.199 L38.718 14.82 A0.25 0.25 0 0 1 38.479 14.818 L30.616 10.49 a0.225 0.225 0 0 1 -0.119 -0.195 a0.228 0.228 0 0 1 0.034 -0.113 M19.88 4.558 a0.242 0.242 0 0 1 0.09 -0.084 l8.031 -4.293 a0.253 0.253 0 0 1 0.243 -0.002 l7.95 4.257 a0.22 0.22 0 0 1 0.119 0.196 a0.236 0.236 0 0 1 -0.124 0.196 L28.159 9.12 A0.262 0.262 0 0 1 27.917 9.118 L19.966 4.861 A0.218 0.218 0 0 1 19.846 4.669 A0.23 0.23 0 0 1 19.88 4.558 m-11.755 29.02 l8.081 4.476 a0.256 0.256 0 0 0 0.246 0 a0.234 0.234 0 0 0 0.12 -0.204 V31.084 A7.336 7.336 0 0 0 15.5 31 c-2.196 0 -3.833 0.355 -5.152 0.642 C9.424 31.842 8.694 32 8 32 v1.374 c0 0.086 0.046 0.163 0.125 0.204 z M26.806 44 c0.041 0 0.081 -0.01 0.121 -0.031 a0.234 0.234 0 0 0 0.12 -0.204 v-7.223 c-0.762 0.016 -1.558 0.031 -2.254 0.031 c-0.932 0 -1.328 -0.026 -1.489 -0.044 c-0.233 -0.168 -0.686 -0.802 -0.994 -1.234 c-0.793 -1.11 -1.956 -2.736 -3.834 -3.635 v7.63 c0 0.086 0.046 0.162 0.125 0.204 l8.081 4.476 c0.037 0.02 0.08 0.03 0.124 0.03 z m10.718 -4.711 v-0.963 c-0.965 0.417 -2.026 0.871 -3.053 1.306 c-0.367 -2.963 -3.394 -3.088 -4.402 -3.13 a10.01 10.01 0 0 0 -0.436 -0.008 c-0.189 0 -0.422 0.003 -0.68 0.007 v7.263 c0 0.086 0.046 0.161 0.12 0.204 a0.257 0.257 0 0 0 0.246 0.001 L37.4 39.493 a0.229 0.229 0 0 0 0.124 -0.204 z m3.031 -2.311 c-0.263 0.126 -0.655 0.305 -1.126 0.515 v0.358 c0 0.086 0.046 0.161 0.12 0.204 a0.257 0.257 0 0 0 0.246 0 l3.302 -1.829 a8.033 8.033 0 0 0 -2.542 0.752 z" id="path10" opacity="0.2" class="msportalfx-svg-c01" inkscape:connector-curvature="0" style="fill:white;" /><path d="m19.811 49.5 c-2.676 0 -6.009 -2.854 -7.317 -4.08 A41.176 41.176 0 0 0 11.637 44.631 C9.586 42.836 7.478 42 5 42 C2.728 42 1.501 41.991 1.5 41.991 V33.5 H8 c0.858 0 1.698 -0.183 2.67 -0.394 c1.245 -0.27 2.795 -0.606 4.83 -0.606 c2.975 0 4.426 2.035 5.592 3.67 c0.659 0.924 1.229 1.722 1.909 1.83 c0.306 0.049 0.87 0.072 1.774 0.072 c0.908 0 1.994 -0.024 2.909 -0.044 a101.43 101.43 0 0 1 1.958 -0.034 c0.146 0 0.266 0.002 0.357 0.006 c2.069 0.087 2.91 0.647 3 2 c0.023 0.36 -0.016 0.71 -0.117 1.04 l-0.313 1.023 l0.985 -0.416 c2.297 -0.97 6.345 -2.689 7.651 -3.319 c1.225 -0.591 2.52 -0.916 3.649 -0.916 c1.193 0 2.073 0.367 2.414 1.008 c0.01 0.019 0.942 1.851 -2.093 3.628 a784.929 784.929 0 0 1 -5.263 3.043 c-2.637 1.515 -4.719 2.711 -5.671 3.341 c-0.887 0.589 -2.109 0.664 -3.076 0.664 c-0.523 0 -1.058 -0.025 -1.588 -0.05 a33.155 33.155 0 0 0 -1.58 -0.052 c-1.288 0 -3.22 0.146 -5.266 0.301 c-0.911 0.069 -1.841 0.14 -2.734 0.199 A2.797 2.797 0 0 1 19.811 49.5 Z" id="path12" class="msportalfx-svg-c17" inkscape:connector-curvature="0" style="fill:#0070C4;" /><path d="m33.75 42.108 c2.818 -1.19 6.437 -2.733 7.674 -3.33 c1.158 -0.559 2.377 -0.866 3.433 -0.866 c0.988 0 1.726 0.277 1.973 0.742 c0.022 0.049 0.66 1.461 -1.904 2.962 a760.073 760.073 0 0 1 -5.259 3.041 c-2.643 1.518 -4.729 2.717 -5.697 3.357 c-0.776 0.515 -1.904 0.581 -2.801 0.581 c-0.5 0 -1.009 -0.023 -1.516 -0.047 a34.347 34.347 0 0 0 -1.652 -0.055 c-1.296 0 -3.218 0.145 -5.253 0.299 c-0.96 0.072 -1.889 0.143 -2.78 0.202 L19.811 49 C17.244 49 13.823 45.98 12.835 45.055 C12.455 44.7 12.186 44.449 11.966 44.255 C9.819 42.375 7.605 41.5 5 41.5 C3.571 41.5 2.557 41.496 2 41.494 V34 H8 C8.91 34 9.772 33.812 10.771 33.596 C12.007 33.328 13.524 33 15.5 33 c2.717 0 4.027 1.838 5.185 3.46 c0.725 1.016 1.351 1.893 2.237 2.034 c0.34 0.054 0.912 0.078 1.854 0.078 c0.86 0 1.88 -0.021 2.764 -0.041 l0.311 -0.007 a92.61 92.61 0 0 1 1.793 -0.03 c0.137 0 0.25 0.002 0.336 0.006 c2.245 0.094 2.471 0.75 2.522 1.533 c0.02 0.3 -0.013 0.589 -0.096 0.859 L31.741 42.7 c0 0 1.318 -0.299 2.009 -0.592" id="path14" opacity="0.2" class="msportalfx-svg-c01" inkscape:connector-curvature="0" style="fill:white;" /><path d="M19.811 50 C17.189 50 14.049 47.564 12.152 45.785 C11.823 45.477 11.537 45.209 11.306 45.007 C9.354 43.297 7.35 42.5 5 42.5 C2.725 42.5 1.496 42.491 1.496 42.491 A0.5 0.5 0 0 1 1 41.991 V33.5 A0.5 0.5 0 0 1 1.5 33 H8 C8.803 33 9.619 32.823 10.563 32.618 C11.832 32.343 13.411 32 15.5 32 c3.231 0 4.831 2.242 5.999 3.88 c0.569 0.798 1.107 1.551 1.58 1.626 c0.686 0.11 2.987 0.058 4.666 0.021 c1.014 -0.022 1.89 -0.042 2.275 -0.026 c1.644 0.069 3.343 0.416 3.479 2.467 c0.03 0.464 -0.031 0.872 -0.138 1.22 c2.198 -0.928 6.323 -2.68 7.629 -3.309 c2.846 -1.374 5.871 -1.291 6.721 0.307 c0.274 0.514 0.734 2.529 -2.281 4.295 a785.507 785.507 0 0 1 -5.267 3.045 c-2.63 1.511 -4.707 2.704 -5.645 3.324 c-1.313 0.871 -3.183 0.779 -4.991 0.695 c-0.521 -0.025 -1.036 -0.05 -1.528 -0.05 c-1.266 0 -3.19 0.146 -5.228 0.3 c-0.913 0.069 -1.844 0.14 -2.739 0.199 A4.048 4.048 0 0 1 19.811 50 Z M2 41.494 c0.557 0.002 1.571 0.006 3 0.006 c2.571 0 4.849 0.901 6.964 2.755 c0.238 0.208 0.532 0.484 0.871 0.801 c1.713 1.605 4.924 4.118 7.132 3.939 c0.893 -0.059 1.82 -0.129 2.73 -0.198 c2.057 -0.155 3.999 -0.303 5.303 -0.303 c0.508 0 1.039 0.025 1.576 0.051 c1.646 0.079 3.351 0.159 4.391 -0.53 c0.965 -0.638 3.054 -1.838 5.699 -3.357 c1.618 -0.93 3.425 -1.968 5.259 -3.041 c1.516 -0.888 2.353 -2.12 1.905 -2.962 c-0.537 -1.006 -2.898 -1.084 -5.406 0.124 c-1.823 0.88 -8.79 3.8 -9.086 3.924 a0.5 0.5 0 1 1 -0.515 -0.844 c0.028 -0.024 0.755 -0.669 0.678 -1.825 c-0.06 -0.907 -0.492 -1.449 -2.521 -1.533 c-0.354 -0.017 -1.216 0.004 -2.213 0.026 c-1.908 0.044 -4.069 0.091 -4.846 -0.032 C22.035 38.353 21.41 37.476 20.686 36.461 C19.585 34.919 18.217 33 15.5 33 C13.519 33 12.062 33.316 10.775 33.596 C9.774 33.813 8.91 34 8 34 H2 Z" id="path16" class="msportalfx-svg-c20" inkscape:connector-curvature="0" style="fill:#004980;" /><path d="m24.644 43.517 c-1.974 0 -3.384 -0.236 -4.177 -0.932 l-3.077 -2.696 l0.658 -0.752 l3.078 2.696 c1.051 0.92 5.578 0.575 7.284 0.463 c2.714 -0.179 2.996 -0.314 4.641 -0.979 a0.5 0.5 0 0 1 0.375 0.927 c-1.739 0.702 -2.145 0.864 -4.949 1.049 c-1.053 0.07 -2.985 0.224 -3.833 0.224 z" id="path18" class="msportalfx-svg-c20" inkscape:connector-curvature="0" style="fill:#004980;" /></g></svg>