<?xml version="1.0" encoding="UTF-8"?>
<svg xmlns="http://www.w3.org/2000/svg" xmlns:xlink="http://www.w3.org/1999/xlink" width="70pt" height="70pt" viewBox="0 0 70 70" version="1.1">
<defs>
<linearGradient id="linear0" gradientUnits="userSpaceOnUse" x1="5.839" y1="17.068" x2="5.839" y2="0" gradientTransform="matrix(3.888889,0,0,3.888889,0,0)">
<stop offset="0" style="stop-color:rgb(36.862745%,58.823529%,14.117647%);stop-opacity:1;"/>
<stop offset="0.037" style="stop-color:rgb(37.647059%,60%,14.509804%);stop-opacity:1;"/>
<stop offset="0.439" style="stop-color:rgb(45.882353%,72.941176%,17.647059%);stop-opacity:1;"/>
<stop offset="0.775" style="stop-color:rgb(50.588235%,81.176471%,19.215686%);stop-opacity:1;"/>
<stop offset="1" style="stop-color:rgb(52.54902%,83.921569%,20%);stop-opacity:1;"/>
</linearGradient>
</defs>
<g id="surface1">
<path style=" stroke:none;fill-rule:nonzero;fill:url(#linear0);" d="M 36.855469 34.75 C 33.765625 31.863281 30.078125 29.691406 26.054688 28.390625 L 26.054688 16.503906 C 29.507813 16.992188 32.828125 18.164063 35.820313 19.953125 C 36.078125 20.113281 36.402344 20.117188 36.667969 19.96875 C 36.933594 19.820313 37.09375 19.539063 37.09375 19.234375 L 37.09375 9.683594 C 37.089844 9.378906 36.929688 9.097656 36.664063 8.949219 C 33.34375 7.375 29.726563 6.535156 26.054688 6.484375 L 26.054688 0.839844 C 26.054688 0.613281 25.964844 0.398438 25.804688 0.242188 C 25.644531 0.0859375 25.429688 -0.00390625 25.203125 0 L 20.078125 0 C 19.613281 0 19.238281 0.375 19.238281 0.839844 L 19.238281 6.671875 C 15.496094 7.113281 12 8.75 9.261719 11.339844 C 6.515625 13.96875 4.992188 17.625 5.054688 21.429688 C 4.898438 24.972656 6.136719 28.433594 8.503906 31.074219 C 11.585938 33.9375 15.246094 36.105469 19.238281 37.425781 L 19.238281 48.78125 C 17.148438 48.496094 15.101563 47.976563 13.128906 47.226563 C 11.050781 46.585938 9.089844 45.609375 7.328125 44.332031 C 7.070313 44.148438 6.734375 44.121094 6.453125 44.265625 C 6.171875 44.40625 5.992188 44.695313 5.992188 45.011719 L 5.992188 54.832031 C 5.992188 55.144531 6.167969 55.429688 6.445313 55.574219 C 10.402344 57.644531 14.777344 58.785156 19.238281 58.917969 L 19.238281 65.554688 C 19.238281 66.019531 19.613281 66.394531 20.078125 66.394531 L 25.203125 66.394531 C 25.667969 66.394531 26.039063 66.015625 26.039063 65.554688 L 26.039063 58.59375 C 29.910156 58.230469 33.558594 56.640625 36.457031 54.054688 C 39.097656 51.40625 40.515625 47.773438 40.367188 44.035156 C 40.460938 40.597656 39.199219 37.265625 36.855469 34.75 Z M 29.367188 44.472656 L 29.367188 44.53125 C 29.484375 46.53125 28.039063 48.28125 26.054688 48.546875 L 26.054688 40.210938 C 28.226563 41.417969 29.339844 42.84375 29.367188 44.460938 Z M 16.050781 20.824219 C 15.921875 18.851563 17.296875 17.097656 19.242188 16.75 L 19.242188 25.5 C 17.394531 24.652344 16.167969 22.855469 16.050781 20.824219 Z M 16.050781 20.824219 "/>
<path style=" stroke:none;fill-rule:nonzero;fill:rgb(9.803922%,54.117647%,70.196078%);fill-opacity:1;" d="M 60.5 69.28125 L 47.589844 56.367188 C 46.625 55.402344 46.625 53.839844 47.589844 52.875 L 47.832031 52.628906 C 48.796875 51.664063 50.359375 51.664063 51.324219 52.628906 L 64.238281 65.542969 C 65.203125 66.507813 65.203125 68.070313 64.238281 69.035156 L 63.992188 69.28125 C 63.03125 70.246094 61.464844 70.246094 60.5 69.28125 Z M 60.5 69.28125 "/>
<path style=" stroke:none;fill-rule:nonzero;fill:rgb(19.607843%,74.509804%,86.666667%);fill-opacity:1;" d="M 56.554688 45.410156 C 56.554688 54.203125 49.429688 61.328125 40.640625 61.328125 C 31.847656 61.328125 24.722656 54.203125 24.722656 45.410156 C 24.722656 36.621094 31.847656 29.492188 40.640625 29.492188 C 49.429688 29.492188 56.554688 36.621094 56.554688 45.410156 Z M 56.554688 45.410156 "/>
<path style=" stroke:none;fill-rule:nonzero;fill:rgb(100%,100%,100%);fill-opacity:1;" d="M 53.171875 45.125 C 53.171875 52.03125 47.574219 57.628906 40.671875 57.628906 C 33.765625 57.628906 28.167969 52.03125 28.167969 45.125 C 28.167969 38.222656 33.765625 32.625 40.671875 32.625 C 47.574219 32.625 53.171875 38.222656 53.171875 45.125 Z M 53.171875 45.125 "/>
</g>
</svg>
