<?xml version="1.0" encoding="UTF-8"?>
<svg xmlns="http://www.w3.org/2000/svg" xmlns:xlink="http://www.w3.org/1999/xlink" width="70pt" height="70pt" viewBox="0 0 70 70" version="1.1">
<defs>
<filter id="alpha" filterUnits="objectBoundingBox" x="0%" y="0%" width="100%" height="100%">
  <feColorMatrix type="matrix" in="SourceGraphic" values="0 0 0 0 1 0 0 0 0 1 0 0 0 0 1 0 0 0 1 0"/>
</filter>
<mask id="mask0">
  <g filter="url(#alpha)">
<rect x="0" y="0" width="70" height="70" style="fill:rgb(0%,0%,0%);fill-opacity:0.701961;stroke:none;"/>
  </g>
</mask>
<clipPath id="clip1">
  <rect x="0" y="0" width="70" height="70"/>
</clipPath>
<g id="surface5" clip-path="url(#clip1)">
<path style=" stroke:none;fill-rule:nonzero;fill:rgb(100%,100%,100%);fill-opacity:1;" d="M 60.761719 65.804688 C 60.089844 65.804688 60.773438 65.941406 60.199219 65.804688 L 60.199219 58.867188 L 9.800781 58.867188 C 9.515625 58.867188 2.800781 58.800781 2.800781 53.265625 L 2.800781 9.867188 C 2.800781 6.113281 6.066406 4.40625 9.101563 4.40625 C 12.132813 4.40625 15.398438 6.113281 15.398438 9.867188 L 15.398438 11.265625 L 54.738281 11.265625 C 62.308594 11.265625 67.199219 13.550781 67.199219 21.207031 L 67.199219 61.664063 C 67.199219 64.808594 64.371094 65.804688 60.761719 65.804688 Z M 60.761719 65.804688 "/>
</g>
</defs>
<g id="surface1">
<path style=" stroke:none;fill-rule:nonzero;fill:rgb(34.901961%,70.588235%,85.098039%);fill-opacity:1;" d="M 60.761719 65.804688 C 60.089844 65.804688 60.773438 65.941406 60.199219 65.804688 L 60.199219 58.867188 L 9.800781 58.867188 C 9.515625 58.867188 2.800781 58.800781 2.800781 53.265625 L 2.800781 9.867188 C 2.800781 6.113281 6.066406 4.40625 9.101563 4.40625 C 12.132813 4.40625 15.398438 6.113281 15.398438 9.867188 L 15.398438 11.265625 L 54.738281 11.265625 C 62.308594 11.265625 67.199219 13.550781 67.199219 21.207031 L 67.199219 61.664063 C 67.199219 64.808594 64.371094 65.804688 60.761719 65.804688 Z M 60.761719 65.804688 "/>
<use xlink:href="#surface5" mask="url(#mask0)"/>
<path style=" stroke:none;fill-rule:nonzero;fill:rgb(0%,44.705882%,77.647059%);fill-opacity:1;" d="M 54.738281 9.867188 L 16.800781 9.867188 C 16.800781 5.667969 13.300781 3.007813 9.101563 3.007813 C 4.898438 3.007813 1.398438 5.667969 1.398438 9.867188 L 1.398438 51.867188 C 1.398438 58.867188 5.601563 60.265625 9.800781 60.265625 L 58.800781 60.265625 L 58.800781 67.265625 C 58.800781 67.265625 68.601563 67.265625 68.601563 60.265625 L 68.601563 21.207031 C 68.601563 12.808594 64.398438 9.867188 54.738281 9.867188 Z M 65.800781 60.546875 C 65.800781 60.546875 63 57.46875 57.539063 57.46875 L 9.800781 57.46875 C 7 57.46875 4.199219 56.765625 4.199219 52.566406 C 4.199219 50.1875 6.019531 47.667969 9.800781 47.667969 C 14 47.667969 16.660156 51.867188 16.660156 51.867188 L 16.800781 51.867188 L 16.800781 12.667969 L 56.140625 12.667969 C 61.738281 12.667969 65.800781 14.207031 65.800781 19.808594 Z M 65.800781 60.546875 "/>
<path style=" stroke:none;fill-rule:nonzero;fill:rgb(0%,44.705882%,77.647059%);fill-opacity:1;" d="M 50.398438 44.796875 L 52.5 50.398438 L 54.601563 44.796875 Z M 50.398438 25.199219 L 54.601563 25.199219 L 54.601563 42 L 50.398438 42 Z M 52.5 18.339844 C 53.660156 18.339844 54.601563 19.246094 54.601563 20.363281 L 54.5625 22.398438 L 50.398438 22.363281 L 50.398438 20.363281 C 50.398438 19.246094 51.339844 18.339844 52.5 18.339844 Z M 33.601563 16.941406 C 34.371094 16.941406 35 17.847656 35 18.964844 L 34.976563 21 L 32.199219 20.964844 L 32.199219 18.964844 C 32.199219 17.847656 32.828125 16.941406 33.601563 16.941406 Z M 33.601563 16.941406 "/>
<path style=" stroke:none;fill-rule:nonzero;fill:rgb(0%,44.705882%,77.647059%);fill-opacity:1;" d="M 33.601563 19.738281 C 30.585938 19.738281 28.140625 22.183594 28.140625 25.199219 C 28.140625 28.214844 30.585938 30.660156 33.601563 30.660156 C 36.617188 30.660156 39.058594 28.214844 39.058594 25.199219 C 39.058594 22.183594 36.617188 19.738281 33.601563 19.738281 Z M 33.601563 29.261719 C 31.363281 29.261719 29.539063 27.4375 29.539063 25.199219 C 29.539063 22.960938 31.363281 21.140625 33.601563 21.140625 C 35.839844 21.140625 37.660156 22.960938 37.660156 25.199219 C 37.660156 27.4375 35.839844 29.261719 33.601563 29.261719 Z M 33.601563 29.261719 "/>
<path style=" stroke:none;fill-rule:nonzero;fill:rgb(0%,44.705882%,77.647059%);fill-opacity:1;" d="M 33.601563 29.28125 L 33.601563 26.601563 L 30.984375 28.429688 L 25.363281 45.738281 L 24.964844 51.496094 L 28.023438 46.605469 L 33.648438 29.296875 Z M 33.601563 29.28125 "/>
<path style=" stroke:none;fill-rule:nonzero;fill:rgb(0%,44.705882%,77.647059%);fill-opacity:1;" d="M 41.835938 45.738281 L 36.214844 28.429688 L 33.601563 26.601563 L 33.601563 29.28125 L 33.550781 29.296875 L 39.175781 46.605469 L 42.238281 51.496094 Z M 41.835938 45.738281 "/>
<path style=" stroke:none;fill-rule:nonzero;fill:rgb(0%,44.705882%,77.647059%);fill-opacity:1;" d="M 44.800781 39.199219 L 22.398438 39.199219 C 22.011719 39.199219 21.699219 38.886719 21.699219 38.5 C 21.699219 38.113281 22.011719 37.800781 22.398438 37.800781 L 44.800781 37.800781 C 45.1875 37.800781 45.5 38.113281 45.5 38.5 C 45.5 38.886719 45.1875 39.199219 44.800781 39.199219 Z M 44.800781 39.199219 "/>
</g>
</svg>
