<?xml version="1.0" encoding="utf-8"?><svg version="1.1" xmlns="http://www.w3.org/2000/svg" xmlns:xlink="http://www.w3.org/1999/xlink" xmlns:xml="http://www.w3.org/XML/1998/namespace" width="70" height="70" viewBox="0, 0, 18, 18" id="FxSymbol0-05e" class="" role="presentation" focusable="false" data-type="140"><g><title>MsPortalFx.base.images-68</title><path d="M9.3 14.752 c0 -0.154 -0.613 -0.154 -0.613 0 a1.656 1.656 0 0 1 -1.636 1.8 h3.882 a1.655 1.655 0 0 1 -1.633 -1.8 z" style="fill:#EF7100;" /><path d="M13.335 1.1 a0.571 0.571 0 0 1 0.807 0 l0.026 0.028 a8.32 8.32 0 0 1 -11.736 11.73 a0.57 0.57 0 0 1 -0.049 -0.8 l0.025 -0.026 A0.571 0.571 0 0 1 3.19 12 A7.178 7.178 0 0 0 13.312 1.882 a0.573 0.573 0 0 1 0.023 -0.782 z m-1.389 16.4 h-5.9 a0.476 0.476 0 0 1 -0.476 -0.476 a0.476 0.476 0 0 1 0.476 -0.476 h5.9 a0.476 0.476 0 0 1 0.475 0.476 a0.476 0.476 0 0 1 -0.475 0.476 z" style="fill:#F78D1E;" /><circle cx="7.871" cy="6.563" r="6.063" style="fill:url(#bc325d07-864b-4946-a0b7-6e17647feb1e);" /><g clip-path="url(#a2d3a9ab-6b81-49cc-a6d0-1eb27e4d8e5e)" style="fill:#42E8CA;"><path d="M0.724 1.776 l1.962 1.962 a0.839 0.839 0 0 1 0 1.187 a0.839 0.839 0 0 1 -1.187 0 L-0.463 2.963 a0.839 0.839 0 0 1 0 -1.187 a0.841 0.841 0 0 1 1.187 0 z M6.7 5.389 a0.839 0.839 0 0 1 0 1.187 a0.841 0.841 0 0 1 -1.187 0 a0.841 0.841 0 0 1 0 -1.187 a0.839 0.839 0 0 1 1.187 0 z M3.871 -1.974 l3.286 3.286 a1.407 1.407 0 0 1 0 1.989 a1.407 1.407 0 0 1 -1.989 0 L1.882 0.015 a1.407 1.407 0 0 1 0 -1.989 a1.407 1.407 0 0 1 1.989 0 z" /><rect x="12.667" y="3.516" width="4.596" height="12.191" rx="2.297" transform="rotate(-45, 14.965, 9.611)" /><path d="M9.744 11.85 l6.119 6.119 a2.618 2.618 0 0 1 0 3.7 a2.618 2.618 0 0 1 -3.7 0 l-6.122 -6.115 a2.619 2.619 0 0 1 0 -3.7 a2.619 2.619 0 0 1 3.703 -0.004 z m0.734 -2.213 a0.446 0.446 0 0 0 0.63 0 a0.445 0.445 0 0 0 0 -0.63 l5.04 5.039 l-1.407 1.418" /><path d="M10.487 9.646 l1.468 1.468 a0.606 0.606 0 0 1 0 0.856 a0.606 0.606 0 0 1 -0.856 0 L9.631 10.5 a0.606 0.606 0 0 1 0 -0.856 a0.606 0.606 0 0 1 0.856 0.002 z" /></g></g><defs><linearGradient x1="-212.049" y1="722.745" x2="-212.049" y2="734.871" gradientUnits="userSpaceOnUse" gradientTransform="scale(1, -1) rotate(-45, -989.91, 95.67)" id="bc325d07-864b-4946-a0b7-6e17647feb1e"><stop offset="0%" stop-color="#0078D4" /><stop offset="82%" stop-color="#5EA0EF" /></linearGradient><clipPath id="a2d3a9ab-6b81-49cc-a6d0-1eb27e4d8e5e"><circle cx="7.871" cy="6.563" r="6.063" style="fill:none;" /></clipPath></defs></svg>