<?xml version="1.0" encoding="UTF-8"?>
<svg xmlns="http://www.w3.org/2000/svg" xmlns:xlink="http://www.w3.org/1999/xlink" width="70pt" height="70pt" viewBox="0 0 70 70" version="1.1">
<defs>
<linearGradient id="linear0" gradientUnits="userSpaceOnUse" x1="-6428.21" y1="9646.124" x2="-6428.21" y2="9617.899" gradientTransform="matrix(1.944444,0,0,-1.944444,12541.106667,18759.44)">
<stop offset="0" style="stop-color:rgb(36.862745%,62.745098%,93.72549%);stop-opacity:1;"/>
<stop offset="0.178" style="stop-color:rgb(34.509804%,61.960784%,92.941176%);stop-opacity:1;"/>
<stop offset="0.406" style="stop-color:rgb(28.235294%,59.215686%,91.372549%);stop-opacity:1;"/>
<stop offset="0.662" style="stop-color:rgb(18.039216%,54.901961%,88.235294%);stop-opacity:1;"/>
<stop offset="0.936" style="stop-color:rgb(3.921569%,48.627451%,84.313725%);stop-opacity:1;"/>
<stop offset="1" style="stop-color:rgb(0%,47.058824%,83.137255%);stop-opacity:1;"/>
</linearGradient>
</defs>
<g id="surface1">
<path style=" stroke:none;fill-rule:nonzero;fill:url(#linear0);" d="M 32.8125 40.363281 L 49.28125 40.363281 L 49.28125 56.828125 L 32.8125 56.828125 Z M 13.609375 18.410156 L 30.070313 18.410156 L 30.070313 1.945313 L 15.890625 1.945313 C 14.628906 1.945313 13.601563 2.96875 13.601563 4.230469 Z M 15.898438 56.828125 L 30.070313 56.828125 L 30.070313 40.363281 L 13.609375 40.363281 L 13.609375 54.542969 C 13.609375 55.800781 14.628906 56.824219 15.890625 56.828125 Z M 13.609375 37.621094 L 30.070313 37.621094 L 30.070313 21.15625 L 13.609375 21.15625 Z M 52.035156 56.828125 L 66.210938 56.828125 C 67.476563 56.828125 68.5 55.804688 68.5 54.542969 L 68.5 40.363281 L 52.027344 40.363281 Z M 32.8125 37.621094 L 49.28125 37.621094 L 49.28125 21.15625 L 32.8125 21.15625 Z M 52.027344 37.621094 L 68.492188 37.621094 L 68.492188 21.15625 L 52.027344 21.15625 Z M 52.027344 1.945313 L 52.027344 18.410156 L 68.492188 18.410156 L 68.492188 4.230469 C 68.492188 2.96875 67.46875 1.945313 66.203125 1.945313 Z M 32.8125 18.410156 L 49.28125 18.410156 L 49.28125 1.945313 L 32.8125 1.945313 Z M 32.8125 18.410156 "/>
<path style=" stroke:none;fill-rule:nonzero;fill:rgb(9.803922%,54.117647%,70.196078%);fill-opacity:1;" d="M 2.171875 63.976563 L 13.980469 52.167969 C 14.863281 51.285156 16.296875 51.285156 17.179688 52.167969 L 17.402344 52.390625 C 18.28125 53.273438 18.28125 54.703125 17.402344 55.585938 L 5.589844 67.398438 C 4.707031 68.277344 3.277344 68.277344 2.394531 67.398438 L 2.171875 67.171875 C 1.289063 66.292969 1.289063 64.859375 2.171875 63.976563 Z M 2.171875 63.976563 "/>
<path style=" stroke:none;fill-rule:nonzero;fill:rgb(31.372549%,90.196078%,100%);fill-opacity:1;" d="M 37.734375 45.535156 C 37.734375 53.578125 31.214844 60.09375 23.175781 60.09375 C 15.132813 60.09375 8.613281 53.578125 8.613281 45.535156 C 8.613281 37.492188 15.132813 30.976563 23.175781 30.976563 C 31.214844 30.976563 37.734375 37.492188 37.734375 45.535156 Z M 37.734375 45.535156 "/>
<path style=" stroke:none;fill-rule:nonzero;fill:rgb(100%,100%,100%);fill-opacity:1;" d="M 34.578125 45.273438 C 34.578125 51.589844 29.460938 56.707031 23.148438 56.707031 C 16.832031 56.707031 11.714844 51.589844 11.714844 45.273438 C 11.714844 38.960938 16.832031 33.839844 23.148438 33.839844 C 29.460938 33.839844 34.578125 38.960938 34.578125 45.273438 Z M 34.578125 45.273438 "/>
</g>
</svg>
