<?xml version="1.0" encoding="UTF-8"?>
<svg xmlns="http://www.w3.org/2000/svg" xmlns:xlink="http://www.w3.org/1999/xlink" width="70pt" height="58pt" viewBox="0 0 70 58" version="1.1">
<g id="surface1">
<path style=" stroke:none;fill-rule:nonzero;fill:rgb(57,171,255);fill-opacity:1;" d="M 39.761719 18.78125 C 48.160156 18.78125 55.019531 24.996094 56 32.867188 C 57.960938 34.386719 59.5 36.179688 60.621094 38.113281 C 66.078125 36.734375 69.859375 32.039063 69.859375 26.375 C 69.859375 21.820313 67.339844 18.230469 63 16.15625 C 63 15.605469 63 15.191406 63 14.636719 C 63 6.628906 56.28125 0 48.160156 0 C 43.261719 0 38.78125 2.347656 35.980469 6.078125 C 34.160156 4.972656 32.199219 4.417969 29.960938 4.417969 C 24.078125 4.417969 19.320313 8.839844 18.761719 14.363281 C 19.601563 14.222656 20.578125 14.222656 21.558594 14.222656 C 25.898438 14.222656 30.800781 14.914063 34.859375 19.195313 Z M 39.761719 18.78125 "/>
<path style=" stroke:none;fill-rule:nonzero;fill:rgb(0,102,178);fill-opacity:1;" d="M 51.101563 35.628906 L 51.101563 34.800781 C 51.101563 28.722656 46.058594 23.753906 39.898438 23.753906 C 37.941406 23.753906 36.121094 24.304688 34.441406 25.132813 L 34.441406 25.269531 L 34.441406 25.132813 C 34.300781 25.269531 34.019531 25.269531 33.878906 25.410156 C 33.878906 25.410156 33.878906 25.410156 33.738281 25.269531 C 30.519531 27.617188 29.121094 31.210938 28.980469 35.078125 L 33.878906 35.078125 L 26.460938 43.777344 L 18.898438 35.078125 L 23.941406 35.078125 C 24.078125 29.828125 26.179688 24.855469 29.820313 21.679688 C 27.441406 20.160156 24.640625 19.332031 21.699219 19.332031 C 13.441406 19.332031 6.71875 25.824219 6.71875 33.832031 C 6.71875 34.386719 6.71875 34.800781 6.71875 35.351563 C 2.519531 37.421875 0 41.015625 0 45.570313 C 0 52.476563 5.601563 57.722656 12.878906 57.722656 L 44.660156 57.722656 C 51.941406 57.722656 57.539063 52.339844 57.539063 45.570313 C 57.539063 41.152344 55.300781 37.699219 51.101563 35.628906 Z M 51.101563 35.628906 "/>
</g>
</svg>
