<?xml version="1.0" encoding="UTF-8"?>
<svg xmlns="http://www.w3.org/2000/svg" xmlns:xlink="http://www.w3.org/1999/xlink" width="65pt" height="70pt" viewBox="0 0 65 70" version="1.1">
<defs>
<filter id="alpha" filterUnits="objectBoundingBox" x="0%" y="0%" width="100%" height="100%">
  <feColorMatrix type="matrix" in="SourceGraphic" values="0 0 0 0 1 0 0 0 0 1 0 0 0 0 1 0 0 0 1 0"/>
</filter>
<mask id="mask0">
  <g filter="url(#alpha)">
<rect x="0" y="0" width="65" height="70" style="fill:rgb(0,0,0);fill-opacity:0.14902;stroke:none;"/>
  </g>
</mask>
<clipPath id="clip1">
  <rect x="0" y="0" width="65" height="70"/>
</clipPath>
<g id="surface5" clip-path="url(#clip1)">
<path style=" stroke:none;fill-rule:nonzero;fill:rgb(0,59,104);fill-opacity:1;" d="M 38.992188 61.390625 C 39.050781 61.390625 39.113281 61.378906 39.164063 61.347656 L 50.339844 55.082031 C 50.445313 55.027344 50.511719 54.917969 50.511719 54.796875 L 50.511719 42.222656 C 50.511719 42.101563 50.445313 41.988281 50.339844 41.933594 C 50.234375 41.875 50.105469 41.875 50 41.933594 L 38.824219 48.199219 C 38.722656 48.257813 38.660156 48.367188 38.660156 48.488281 L 38.660156 61.0625 C 38.660156 61.183594 38.722656 61.289063 38.824219 61.347656 C 38.878906 61.378906 38.933594 61.390625 38.992188 61.390625 M 53.480469 53.109375 C 53.539063 53.109375 53.601563 53.097656 53.652344 53.066406 L 64.828125 46.800781 C 64.933594 46.746094 65 46.636719 65 46.515625 L 65 33.941406 C 65 33.820313 64.933594 33.710938 64.828125 33.652344 C 64.71875 33.59375 64.59375 33.59375 64.484375 33.652344 L 53.3125 39.917969 C 53.207031 39.976563 53.144531 40.085938 53.144531 40.207031 L 53.144531 52.78125 C 53.144531 52.902344 53.207031 53.007813 53.3125 53.066406 C 53.363281 53.097656 53.421875 53.109375 53.480469 53.109375 M 38.992188 44.832031 C 39.050781 44.832031 39.113281 44.816406 39.164063 44.789063 L 50.339844 38.519531 C 50.445313 38.464844 50.511719 38.355469 50.511719 38.234375 L 50.511719 25.660156 C 50.511719 25.539063 50.445313 25.429688 50.339844 25.371094 C 50.234375 25.316406 50.105469 25.316406 50 25.371094 L 38.824219 31.640625 C 38.722656 31.695313 38.660156 31.808594 38.660156 31.925781 L 38.660156 44.5 C 38.660156 44.621094 38.722656 44.726563 38.824219 44.789063 C 38.878906 44.816406 38.933594 44.832031 38.992188 44.832031 M 53.480469 36.550781 C 53.539063 36.550781 53.601563 36.535156 53.652344 36.507813 L 64.828125 30.238281 C 64.933594 30.183594 65 30.074219 65 29.953125 L 65 17.378906 C 65 17.257813 64.933594 17.148438 64.828125 17.089844 C 64.71875 17.035156 64.59375 17.035156 64.484375 17.089844 L 53.3125 23.359375 C 53.207031 23.417969 53.144531 23.527344 53.144531 23.644531 L 53.144531 36.222656 C 53.144531 36.339844 53.207031 36.445313 53.3125 36.507813 C 53.363281 36.535156 53.421875 36.550781 53.480469 36.550781 "/>
</g>
<mask id="mask1">
  <g filter="url(#alpha)">
<rect x="0" y="0" width="65" height="70" style="fill:rgb(0,0,0);fill-opacity:0.2;stroke:none;"/>
  </g>
</mask>
<clipPath id="clip2">
  <rect x="0" y="0" width="65" height="70"/>
</clipPath>
<g id="surface8" clip-path="url(#clip2)">
<path style=" stroke:none;fill-rule:nonzero;fill:rgb(255,255,255);fill-opacity:1;" d="M 26.054688 21.890625 C 26.085938 21.839844 26.128906 21.800781 26.179688 21.773438 L 37.285156 15.660156 C 37.390625 15.601563 37.519531 15.601563 37.621094 15.660156 L 48.617188 21.71875 C 48.71875 21.773438 48.78125 21.878906 48.78125 21.996094 C 48.777344 22.113281 48.710938 22.21875 48.609375 22.277344 L 37.503906 28.382813 C 37.398438 28.441406 37.273438 28.4375 37.171875 28.382813 L 26.175781 22.320313 C 26.074219 22.269531 26.007813 22.164063 26.007813 22.046875 C 26.011719 21.992188 26.027344 21.9375 26.054688 21.890625 M 11.574219 13.910156 C 11.605469 13.863281 11.648438 13.820313 11.699219 13.792969 L 22.683594 7.683594 C 22.785156 7.625 22.910156 7.621094 23.015625 7.679688 L 33.886719 13.738281 C 33.988281 13.792969 34.054688 13.902344 34.050781 14.019531 C 34.046875 14.136719 33.984375 14.242188 33.882813 14.296875 L 22.898438 20.40625 C 22.792969 20.460938 22.671875 20.460938 22.566406 20.402344 L 11.691406 14.34375 C 11.59375 14.289063 11.53125 14.183594 11.527344 14.070313 C 11.53125 14.015625 11.546875 13.960938 11.574219 13.910156 M 40.839844 14.046875 C 40.871094 13.996094 40.914063 13.957031 40.964844 13.925781 L 51.949219 7.816406 C 52.050781 7.757813 52.175781 7.757813 52.28125 7.816406 L 63.152344 13.871094 C 63.253906 13.929688 63.316406 14.035156 63.316406 14.152344 C 63.3125 14.269531 63.246094 14.375 63.148438 14.429688 L 52.164063 20.539063 C 52.058594 20.59375 51.933594 20.59375 51.832031 20.535156 L 40.957031 14.476563 C 40.859375 14.421875 40.796875 14.320313 40.792969 14.203125 C 40.796875 14.148438 40.8125 14.09375 40.839844 14.046875 M 26.109375 6.171875 C 26.140625 6.125 26.183594 6.082031 26.234375 6.054688 L 37.34375 0.046875 C 37.445313 -0.015625 37.574219 -0.015625 37.679688 0.0429688 L 48.671875 6 C 48.773438 6.054688 48.835938 6.160156 48.835938 6.277344 C 48.832031 6.390625 48.765625 6.496094 48.664063 6.550781 L 37.558594 12.558594 C 37.453125 12.613281 37.328125 12.613281 37.226563 12.558594 L 26.230469 6.597656 C 26.128906 6.546875 26.066406 6.441406 26.0625 6.328125 C 26.066406 6.273438 26.082031 6.21875 26.109375 6.171875 M 9.855469 46.800781 L 21.03125 53.066406 C 21.136719 53.125 21.265625 53.125 21.371094 53.066406 C 21.472656 53.007813 21.535156 52.898438 21.535156 52.78125 L 21.535156 43.308594 C 21.046875 43.234375 20.550781 43.195313 20.054688 43.191406 C 17.015625 43.191406 14.753906 43.6875 12.929688 44.089844 C 11.648438 44.371094 10.640625 44.589844 9.679688 44.589844 L 9.679688 46.515625 C 9.679688 46.636719 9.746094 46.742188 9.855469 46.800781 Z M 35.6875 61.390625 C 35.746094 61.390625 35.800781 61.378906 35.855469 61.347656 C 35.957031 61.289063 36.023438 61.179688 36.023438 61.0625 L 36.023438 50.949219 C 34.96875 50.972656 33.867188 50.992188 32.90625 50.992188 C 31.617188 50.992188 31.070313 50.957031 30.847656 50.933594 C 30.523438 50.695313 29.898438 49.808594 29.472656 49.203125 C 28.375 47.652344 26.765625 45.375 24.167969 44.117188 L 24.167969 54.796875 C 24.167969 54.917969 24.234375 55.023438 24.34375 55.082031 L 35.519531 61.347656 C 35.570313 61.378906 35.628906 61.390625 35.6875 61.390625 Z M 50.511719 54.796875 L 50.511719 53.449219 C 49.175781 54.03125 47.710938 54.667969 46.289063 55.277344 C 45.78125 51.128906 41.597656 50.953125 40.203125 50.894531 C 40 50.886719 39.800781 50.882813 39.597656 50.882813 C 39.335938 50.882813 39.015625 50.886719 38.660156 50.894531 L 38.660156 61.0625 C 38.660156 61.179688 38.722656 61.285156 38.824219 61.347656 C 38.929688 61.40625 39.058594 61.40625 39.164063 61.347656 L 50.339844 55.082031 C 50.445313 55.027344 50.511719 54.917969 50.511719 54.796875 Z M 54.703125 51.5625 C 54.339844 51.738281 53.796875 51.988281 53.148438 52.28125 L 53.148438 52.78125 C 53.148438 52.902344 53.210938 53.007813 53.3125 53.070313 C 53.417969 53.128906 53.546875 53.128906 53.652344 53.070313 L 58.21875 50.507813 C 56.996094 50.660156 55.808594 51.015625 54.703125 51.5625 Z M 54.703125 51.5625 "/>
</g>
<mask id="mask2">
  <g filter="url(#alpha)">
<rect x="0" y="0" width="65" height="70" style="fill:rgb(0,0,0);fill-opacity:0.2;stroke:none;"/>
  </g>
</mask>
<clipPath id="clip3">
  <rect x="0" y="0" width="65" height="70"/>
</clipPath>
<g id="surface11" clip-path="url(#clip3)">
<path style=" stroke:none;fill-rule:nonzero;fill:rgb(255,255,255);fill-opacity:1;" d="M 45.292969 58.742188 C 49.191406 57.078125 54.195313 54.917969 55.90625 54.082031 C 57.507813 53.296875 59.191406 52.867188 60.652344 52.867188 C 62.019531 52.867188 63.039063 53.257813 63.382813 53.90625 C 63.414063 53.976563 64.292969 55.953125 60.75 58.054688 C 58.328125 59.484375 55.90625 60.902344 53.476563 62.3125 C 49.820313 64.4375 46.933594 66.113281 45.597656 67.011719 C 44.523438 67.730469 42.964844 67.824219 41.722656 67.824219 C 41.03125 67.824219 40.328125 67.792969 39.625 67.757813 C 38.867188 67.714844 38.105469 67.6875 37.34375 67.683594 C 35.550781 67.683594 32.890625 67.882813 30.078125 68.101563 C 28.75 68.199219 27.464844 68.300781 26.230469 68.382813 L 26.015625 68.390625 C 22.464844 68.390625 17.734375 64.164063 16.367188 62.867188 C 15.84375 62.371094 15.46875 62.019531 15.164063 61.75 C 12.195313 59.117188 9.132813 57.890625 5.53125 57.890625 C 3.554688 57.890625 2.152344 57.886719 1.382813 57.882813 L 1.382813 47.390625 L 9.679688 47.390625 C 10.9375 47.390625 12.132813 47.128906 13.511719 46.824219 C 15.222656 46.449219 17.320313 45.992188 20.054688 45.992188 C 23.8125 45.992188 25.621094 48.566406 27.222656 50.835938 C 28.226563 52.257813 29.09375 53.484375 30.316406 53.683594 C 30.789063 53.757813 31.578125 53.792969 32.882813 53.792969 C 34.070313 53.792969 35.480469 53.761719 36.703125 53.734375 L 37.132813 53.726563 C 37.960938 53.703125 38.789063 53.6875 39.613281 53.683594 C 39.804688 53.683594 39.960938 53.6875 40.078125 53.691406 C 43.183594 53.824219 43.496094 54.742188 43.566406 55.835938 C 43.59375 56.257813 43.546875 56.664063 43.433594 57.039063 L 42.515625 59.570313 C 42.515625 59.570313 44.335938 59.152344 45.292969 58.742188 "/>
</g>
</defs>
<g id="surface1">
<path style=" stroke:none;fill-rule:nonzero;fill:rgb(3,148,255);fill-opacity:1;" d="M 38.992188 44.832031 C 39.050781 44.832031 39.113281 44.816406 39.164063 44.789063 L 50.339844 38.519531 C 50.445313 38.464844 50.511719 38.355469 50.511719 38.234375 L 50.511719 25.660156 C 50.511719 25.539063 50.445313 25.429688 50.339844 25.371094 C 50.234375 25.316406 50.105469 25.316406 50 25.371094 L 38.824219 31.640625 C 38.722656 31.695313 38.660156 31.808594 38.660156 31.925781 L 38.660156 44.5 C 38.660156 44.621094 38.722656 44.726563 38.824219 44.789063 C 38.878906 44.816406 38.933594 44.832031 38.992188 44.832031 M 38.992188 61.390625 C 39.050781 61.390625 39.113281 61.378906 39.164063 61.347656 L 50.339844 55.082031 C 50.445313 55.027344 50.511719 54.917969 50.511719 54.796875 L 50.511719 42.222656 C 50.511719 42.101563 50.445313 41.988281 50.339844 41.933594 C 50.234375 41.875 50.105469 41.875 50 41.933594 L 38.824219 48.199219 C 38.722656 48.257813 38.660156 48.367188 38.660156 48.488281 L 38.660156 61.0625 C 38.660156 61.183594 38.722656 61.289063 38.824219 61.347656 C 38.878906 61.378906 38.933594 61.390625 38.992188 61.390625 M 53.480469 36.550781 C 53.539063 36.550781 53.601563 36.535156 53.652344 36.507813 L 64.828125 30.238281 C 64.933594 30.183594 65 30.074219 65 29.953125 L 65 17.378906 C 65 17.257813 64.933594 17.148438 64.828125 17.089844 C 64.71875 17.035156 64.59375 17.035156 64.484375 17.089844 L 53.3125 23.359375 C 53.207031 23.417969 53.144531 23.527344 53.144531 23.644531 L 53.144531 36.222656 C 53.144531 36.339844 53.207031 36.445313 53.3125 36.507813 C 53.363281 36.535156 53.421875 36.550781 53.480469 36.550781 M 53.480469 53.109375 C 53.539063 53.109375 53.601563 53.097656 53.652344 53.066406 L 64.828125 46.800781 C 64.933594 46.746094 65 46.636719 65 46.515625 L 65 33.941406 C 65 33.820313 64.933594 33.710938 64.828125 33.652344 C 64.71875 33.59375 64.59375 33.59375 64.484375 33.652344 L 53.3125 39.917969 C 53.207031 39.976563 53.144531 40.085938 53.144531 40.207031 L 53.144531 52.78125 C 53.144531 52.902344 53.207031 53.007813 53.3125 53.066406 C 53.363281 53.097656 53.421875 53.109375 53.480469 53.109375 "/>
<use xlink:href="#surface5" mask="url(#mask0)"/>
<path style=" stroke:none;fill-rule:nonzero;fill:rgb(57,171,255);fill-opacity:1;" d="M 35.6875 44.832031 C 35.628906 44.832031 35.570313 44.816406 35.515625 44.789063 L 24.339844 38.519531 C 24.234375 38.464844 24.167969 38.355469 24.167969 38.234375 L 24.167969 25.660156 C 24.167969 25.542969 24.230469 25.433594 24.339844 25.371094 C 24.445313 25.316406 24.574219 25.316406 24.683594 25.371094 L 35.855469 31.640625 C 35.960938 31.699219 36.023438 31.808594 36.023438 31.925781 L 36.023438 44.5 C 36.023438 44.621094 35.957031 44.730469 35.855469 44.789063 C 35.804688 44.816406 35.746094 44.832031 35.6875 44.832031 M 35.6875 61.390625 C 35.628906 61.390625 35.570313 61.378906 35.515625 61.347656 L 24.339844 55.082031 C 24.234375 55.027344 24.167969 54.917969 24.167969 54.796875 L 24.167969 42.222656 C 24.167969 42.105469 24.230469 41.996094 24.339844 41.933594 C 24.445313 41.875 24.574219 41.875 24.683594 41.933594 L 35.855469 48.199219 C 35.960938 48.257813 36.023438 48.367188 36.023438 48.488281 L 36.023438 61.0625 C 36.023438 61.179688 35.957031 61.289063 35.855469 61.347656 C 35.804688 61.375 35.746094 61.390625 35.6875 61.390625 M 21.199219 36.550781 C 21.140625 36.550781 21.082031 36.535156 21.027344 36.507813 L 9.851563 30.238281 C 9.746094 30.183594 9.679688 30.074219 9.679688 29.953125 L 9.679688 17.378906 C 9.679688 17.261719 9.746094 17.15625 9.855469 17.089844 C 9.960938 17.035156 10.089844 17.035156 10.195313 17.089844 L 21.371094 23.359375 C 21.472656 23.417969 21.535156 23.527344 21.535156 23.644531 L 21.535156 36.222656 C 21.535156 36.339844 21.472656 36.449219 21.371094 36.507813 C 21.316406 36.535156 21.261719 36.550781 21.199219 36.550781 M 21.199219 53.109375 C 21.140625 53.109375 21.082031 53.097656 21.027344 53.066406 L 9.851563 46.800781 C 9.746094 46.746094 9.679688 46.636719 9.679688 46.515625 L 9.679688 33.941406 C 9.679688 33.824219 9.746094 33.714844 9.855469 33.652344 C 9.960938 33.59375 10.089844 33.59375 10.195313 33.652344 L 21.371094 39.917969 C 21.472656 39.980469 21.535156 40.085938 21.535156 40.207031 L 21.535156 52.78125 C 21.535156 52.898438 21.472656 53.007813 21.371094 53.066406 C 21.316406 53.097656 21.261719 53.109375 21.199219 53.109375 M 26.054688 21.890625 C 26.085938 21.839844 26.128906 21.800781 26.179688 21.773438 L 37.285156 15.660156 C 37.390625 15.601563 37.519531 15.601563 37.621094 15.660156 L 48.617188 21.71875 C 48.71875 21.773438 48.78125 21.878906 48.78125 21.996094 C 48.777344 22.113281 48.710938 22.21875 48.609375 22.277344 L 37.503906 28.382813 C 37.398438 28.441406 37.273438 28.4375 37.171875 28.382813 L 26.175781 22.320313 C 26.074219 22.269531 26.007813 22.164063 26.007813 22.046875 C 26.011719 21.992188 26.027344 21.9375 26.054688 21.890625 M 11.574219 13.910156 C 11.605469 13.863281 11.648438 13.820313 11.699219 13.792969 L 22.683594 7.683594 C 22.785156 7.625 22.910156 7.621094 23.015625 7.679688 L 33.886719 13.738281 C 33.988281 13.792969 34.054688 13.902344 34.050781 14.019531 C 34.046875 14.136719 33.984375 14.242188 33.882813 14.296875 L 22.898438 20.40625 C 22.792969 20.460938 22.671875 20.460938 22.566406 20.402344 L 11.691406 14.34375 C 11.59375 14.289063 11.53125 14.183594 11.527344 14.070313 C 11.53125 14.015625 11.546875 13.960938 11.574219 13.910156 M 40.839844 14.046875 C 40.871094 13.996094 40.914063 13.957031 40.964844 13.925781 L 51.949219 7.816406 C 52.050781 7.757813 52.175781 7.757813 52.28125 7.816406 L 63.152344 13.871094 C 63.253906 13.929688 63.316406 14.035156 63.316406 14.152344 C 63.3125 14.269531 63.246094 14.375 63.148438 14.429688 L 52.164063 20.539063 C 52.058594 20.59375 51.933594 20.59375 51.832031 20.535156 L 40.957031 14.476563 C 40.859375 14.421875 40.796875 14.320313 40.792969 14.203125 C 40.796875 14.148438 40.8125 14.09375 40.839844 14.046875 M 26.109375 6.171875 C 26.140625 6.125 26.183594 6.082031 26.234375 6.054688 L 37.34375 0.046875 C 37.445313 -0.015625 37.574219 -0.015625 37.679688 0.0429688 L 48.671875 6 C 48.773438 6.054688 48.835938 6.160156 48.835938 6.277344 C 48.832031 6.390625 48.765625 6.496094 48.664063 6.550781 L 37.558594 12.558594 C 37.453125 12.613281 37.328125 12.613281 37.226563 12.558594 L 26.230469 6.597656 C 26.128906 6.546875 26.066406 6.441406 26.0625 6.328125 C 26.066406 6.273438 26.082031 6.21875 26.109375 6.171875 "/>
<use xlink:href="#surface8" mask="url(#mask1)"/>
<path style=" stroke:none;fill-rule:nonzero;fill:rgb(0,112,196);fill-opacity:1;" d="M 26.015625 69.089844 C 22.3125 69.089844 17.703125 65.097656 15.894531 63.378906 C 15.507813 63.003906 15.109375 62.636719 14.710938 62.273438 C 11.875 59.761719 8.957031 58.589844 5.53125 58.589844 C 2.390625 58.589844 0.691406 58.578125 0.691406 58.578125 L 0.691406 46.691406 L 9.679688 46.691406 C 10.867188 46.691406 12.027344 46.433594 13.375 46.140625 C 15.09375 45.761719 17.238281 45.292969 20.054688 45.292969 C 24.167969 45.292969 26.175781 48.140625 27.785156 50.429688 C 28.699219 51.722656 29.488281 52.839844 30.425781 52.992188 C 30.851563 53.058594 31.628906 53.09375 32.878906 53.09375 C 34.136719 53.09375 35.636719 53.058594 36.902344 53.03125 C 37.804688 53.007813 38.707031 52.988281 39.609375 52.984375 C 39.8125 52.984375 39.980469 52.984375 40.105469 52.992188 C 42.964844 53.113281 44.128906 53.898438 44.253906 55.792969 C 44.285156 56.296875 44.230469 56.785156 44.09375 57.246094 L 43.660156 58.679688 L 45.023438 58.097656 C 48.199219 56.738281 53.796875 54.332031 55.601563 53.449219 C 57.296875 52.625 59.085938 52.167969 60.648438 52.167969 C 62.300781 52.167969 63.515625 52.683594 63.988281 53.578125 C 64 53.605469 65.289063 56.171875 61.09375 58.660156 C 58.671875 60.089844 56.246094 61.507813 53.816406 62.917969 C 50.167969 65.039063 47.289063 66.714844 45.972656 67.597656 C 44.746094 68.421875 43.054688 68.527344 41.71875 68.527344 C 40.996094 68.527344 40.253906 68.492188 39.519531 68.457031 C 38.792969 68.414063 38.066406 68.390625 37.335938 68.382813 C 35.554688 68.382813 32.882813 68.585938 30.054688 68.804688 C 28.792969 68.902344 27.507813 69 26.273438 69.082031 C 26.1875 69.089844 26.101563 69.089844 26.015625 69.089844 Z M 26.015625 69.089844 "/>
<use xlink:href="#surface11" mask="url(#mask2)"/>
<path style=" stroke:none;fill-rule:nonzero;fill:rgb(0,73,128);fill-opacity:1;" d="M 26.015625 69.792969 C 22.390625 69.792969 18.046875 66.382813 15.421875 63.890625 C 14.96875 63.460938 14.574219 63.085938 14.253906 62.800781 C 11.554688 60.40625 8.78125 59.292969 5.53125 59.292969 C 2.386719 59.292969 0.6875 59.277344 0.6875 59.277344 C 0.304688 59.277344 0 58.964844 0 58.578125 L 0 46.691406 C 0 46.304688 0.308594 45.992188 0.691406 45.992188 L 9.679688 45.992188 C 10.792969 45.992188 11.917969 45.742188 13.226563 45.457031 C 14.980469 45.070313 17.164063 44.589844 20.054688 44.589844 C 24.523438 44.589844 26.734375 47.730469 28.351563 50.023438 C 29.136719 51.140625 29.878906 52.195313 30.535156 52.300781 C 31.484375 52.453125 34.664063 52.382813 36.988281 52.328125 C 38.390625 52.296875 39.601563 52.269531 40.132813 52.292969 C 42.40625 52.390625 44.757813 52.875 44.945313 55.746094 C 44.988281 56.394531 44.902344 56.96875 44.753906 57.453125 C 47.792969 56.15625 53.5 53.703125 55.304688 52.820313 C 59.242188 50.898438 63.425781 51.015625 64.601563 53.25 C 64.980469 53.972656 65.617188 56.792969 61.445313 59.265625 C 59.023438 60.695313 56.59375 62.117188 54.160156 63.527344 C 50.523438 65.644531 47.652344 67.3125 46.355469 68.179688 C 44.539063 69.402344 41.953125 69.273438 39.453125 69.15625 C 38.730469 69.121094 38.019531 69.085938 37.339844 69.085938 C 35.589844 69.085938 32.925781 69.289063 30.109375 69.503906 C 28.847656 69.601563 27.558594 69.699219 26.320313 69.78125 C 26.21875 69.789063 26.117188 69.792969 26.015625 69.792969 Z M 1.382813 57.882813 C 2.152344 57.886719 3.554688 57.890625 5.53125 57.890625 C 9.085938 57.890625 12.238281 59.152344 15.164063 61.75 C 15.492188 62.039063 15.898438 62.425781 16.367188 62.871094 C 18.738281 65.117188 23.175781 68.636719 26.230469 68.382813 C 27.464844 68.300781 28.746094 68.203125 30.007813 68.105469 C 32.851563 67.890625 35.535156 67.683594 37.339844 67.683594 C 38.042969 67.683594 38.777344 67.71875 39.519531 67.753906 C 41.796875 67.863281 44.15625 67.976563 45.59375 67.011719 C 46.925781 66.121094 49.816406 64.4375 53.472656 62.3125 C 55.710938 61.011719 58.210938 59.558594 60.746094 58.054688 C 62.84375 56.8125 64 55.085938 63.382813 53.910156 C 62.640625 52.5 59.375 52.390625 55.90625 54.082031 C 53.382813 55.3125 43.75 59.402344 43.339844 59.574219 C 43.132813 59.753906 42.839844 59.789063 42.59375 59.671875 C 42.351563 59.550781 42.195313 59.296875 42.203125 59.019531 C 42.210938 58.746094 42.375 58.5 42.628906 58.394531 C 42.667969 58.359375 43.671875 57.457031 43.566406 55.839844 C 43.480469 54.570313 42.886719 53.808594 40.078125 53.691406 C 39.589844 53.667969 38.398438 53.699219 37.019531 53.730469 C 34.378906 53.789063 31.390625 53.855469 30.316406 53.683594 C 29.089844 53.484375 28.226563 52.257813 27.226563 50.835938 C 25.703125 48.679688 23.8125 45.992188 20.054688 45.992188 C 17.3125 45.992188 15.296875 46.433594 13.519531 46.824219 C 12.132813 47.128906 10.9375 47.390625 9.679688 47.390625 L 1.382813 47.390625 Z M 1.382813 57.882813 "/>
<path style=" stroke:none;fill-rule:nonzero;fill:rgb(0,73,128);fill-opacity:1;" d="M 32.699219 60.714844 C 29.96875 60.714844 28.019531 60.386719 26.921875 59.410156 L 22.667969 55.636719 L 23.578125 54.582031 L 27.832031 58.359375 C 29.289063 59.644531 35.546875 59.164063 37.90625 59.007813 C 41.660156 58.753906 42.050781 58.566406 44.324219 57.636719 C 44.679688 57.492188 45.078125 57.667969 45.222656 58.023438 C 45.363281 58.378906 45.195313 58.785156 44.84375 58.933594 C 42.441406 59.914063 41.878906 60.144531 38 60.402344 C 36.542969 60.5 33.871094 60.714844 32.699219 60.714844 Z M 32.699219 60.714844 "/>
</g>
</svg>
