<?xml version="1.0" encoding="UTF-8"?>
<svg xmlns="http://www.w3.org/2000/svg" xmlns:xlink="http://www.w3.org/1999/xlink" width="70pt" height="58pt" viewBox="0 0 70 58" version="1.1">
<g id="surface1">
<path style=" stroke:none;fill-rule:nonzero;fill:rgb(57,171,255);fill-opacity:1;" d="M 39.992188 18.652344 C 48.4375 18.652344 55.335938 24.824219 56.320313 32.640625 C 58.292969 34.152344 59.84375 35.933594 60.96875 37.851563 C 66.457031 36.484375 70.261719 31.820313 70.261719 26.195313 C 70.261719 21.671875 67.726563 18.105469 63.363281 16.046875 C 63.363281 15.5 63.363281 15.085938 63.363281 14.535156 C 63.363281 6.582031 56.605469 0 48.4375 0 C 43.511719 0 39.003906 2.332031 36.1875 6.035156 C 34.355469 4.9375 32.382813 4.386719 30.132813 4.386719 C 24.214844 4.386719 19.429688 8.78125 18.871094 14.265625 C 19.714844 14.125 20.695313 14.125 21.683594 14.125 C 26.046875 14.125 30.976563 14.8125 35.058594 19.0625 Z M 39.992188 18.652344 "/>
<path style=" stroke:none;fill-rule:nonzero;fill:rgb(0,102,178);fill-opacity:1;" d="M 51.394531 35.386719 L 51.394531 34.5625 C 51.394531 28.527344 46.324219 23.589844 40.128906 23.589844 C 38.160156 23.589844 36.328125 24.136719 34.640625 24.960938 L 34.640625 25.097656 L 34.640625 24.960938 C 34.496094 25.097656 34.214844 25.097656 34.074219 25.234375 C 34.074219 25.234375 34.074219 25.234375 33.933594 25.097656 C 30.695313 27.429688 29.289063 30.996094 29.148438 34.835938 L 34.074219 34.835938 L 26.613281 43.476563 L 19.007813 34.835938 L 24.078125 34.835938 C 24.214844 29.625 26.332031 24.683594 29.992188 21.53125 C 27.597656 20.023438 24.78125 19.199219 21.824219 19.199219 C 13.519531 19.199219 6.757813 25.648438 6.757813 33.601563 C 6.757813 34.152344 6.757813 34.5625 6.757813 35.109375 C 2.535156 37.164063 0 40.734375 0 45.257813 C 0 52.117188 5.632813 57.328125 12.953125 57.328125 L 44.917969 57.328125 C 52.238281 57.328125 57.871094 51.980469 57.871094 45.257813 C 57.871094 40.871094 55.617188 37.441406 51.394531 35.386719 Z M 51.394531 35.386719 "/>
</g>
</svg>
