<?xml version="1.0" encoding="UTF-8"?>
<svg xmlns="http://www.w3.org/2000/svg" xmlns:xlink="http://www.w3.org/1999/xlink" width="70pt" height="70pt" viewBox="0 0 70 70" version="1.1">
<g id="surface1">
<path style=" stroke:none;fill-rule:nonzero;fill:rgb(72.156863%,83.137255%,19.607843%);fill-opacity:1;" d="M 60.65625 0 L 8.785156 0 C 3.65625 -0.0273438 0 3.0625 0 8.175781 L 0 44.878906 C 0 50.066406 3.726563 54.660156 8.859375 54.71875 L 27.597656 54.753906 L 42.984375 69.859375 L 43.097656 54.796875 L 60.515625 54.796875 C 65.640625 54.839844 69.84375 50.691406 69.84375 45.566406 L 69.921875 8.722656 C 69.957031 3.625 65.789063 0 60.65625 0 "/>
<path style=" stroke:none;fill-rule:nonzero;fill:rgb(100%,100%,100%);fill-opacity:1;" d="M 40.054688 39.089844 C 40.054688 41.921875 37.757813 44.21875 34.921875 44.21875 C 32.089844 44.21875 29.789063 41.921875 29.789063 39.089844 C 29.789063 36.253906 32.089844 33.957031 34.921875 33.957031 C 37.757813 33.957031 40.054688 36.253906 40.054688 39.089844 M 35.890625 8.828125 L 30.855469 8.828125 L 32.140625 31.132813 L 38.195313 31.132813 L 39.484375 8.828125 Z M 35.890625 8.828125 "/>
</g>
</svg>
