<?xml version="1.0" encoding="UTF-8"?>
<svg xmlns="http://www.w3.org/2000/svg" xmlns:xlink="http://www.w3.org/1999/xlink" width="70pt" height="70pt" viewBox="0 0 70 70" version="1.1">
<defs>
<linearGradient id="linear0" gradientUnits="userSpaceOnUse" x1="9" y1="17.5" x2="9" y2="0.5" gradientTransform="matrix(3.888889,0,0,3.888889,0,0)">
<stop offset="0" style="stop-color:rgb(0,108,188);stop-opacity:1;"/>
<stop offset="0.82" style="stop-color:rgb(41,164,255);stop-opacity:1;"/>
</linearGradient>
</defs>
<g id="surface1">
<path style=" stroke:none;fill-rule:nonzero;fill:rgb(255,255,255);fill-opacity:1;" d="M 38.890625 2.449219 L 10.617188 2.449219 C 9.390625 2.449219 8.398438 3.441406 8.398438 4.667969 L 8.398438 65.332031 C 8.398438 66.558594 9.390625 67.550781 10.617188 67.550781 L 59.382813 67.550781 C 60.609375 67.550781 61.601563 66.558594 61.601563 65.332031 L 61.601563 25.199219 C 61.601563 23.96875 60.613281 22.964844 59.382813 22.945313 L 43.207031 22.945313 C 42.613281 22.957031 42.042969 22.726563 41.625 22.308594 C 41.207031 21.890625 40.976563 21.320313 40.988281 20.726563 L 40.988281 4.667969 C 40.992188 3.488281 40.066406 2.511719 38.890625 2.449219 Z M 38.890625 2.449219 "/>
<path style=" stroke:none;fill-rule:nonzero;fill:url(#linear0);" d="M 37.722656 5.289063 L 37.722656 20.535156 C 37.742188 23.609375 40.246094 26.09375 43.320313 26.09375 L 58.683594 26.09375 L 58.683594 64.710938 L 11.316406 64.710938 L 11.316406 5.289063 L 37.722656 5.289063 M 38.890625 1.945313 L 10.265625 1.945313 C 9.019531 1.945313 8.011719 2.953125 8.011719 4.199219 L 8.011719 65.800781 C 8.011719 67.046875 9.019531 68.054688 10.265625 68.054688 L 59.734375 68.054688 C 60.980469 68.054688 61.988281 67.046875 61.988281 65.800781 L 61.988281 25.042969 C 61.988281 23.796875 60.980469 22.789063 59.734375 22.789063 L 43.320313 22.789063 C 42.078125 22.789063 41.066406 21.777344 41.066406 20.535156 L 41.066406 4.199219 C 41.066406 2.984375 40.105469 1.988281 38.890625 1.945313 Z M 38.890625 1.945313 "/>
<path style=" stroke:none;fill-rule:nonzero;fill:rgb(0,108,188);fill-opacity:1;" d="M 61.132813 23.332031 L 40.289063 2.449219 L 40.289063 19.445313 C 40.289063 21.59375 42.03125 23.332031 44.179688 23.332031 Z M 61.132813 23.332031 "/>
<path style=" stroke:none;fill-rule:nonzero;fill:rgb(0,82,144);fill-opacity:1;" d="M 40.484375 43.476563 C 37.230469 46.355469 32.339844 46.355469 29.089844 43.476563 L 28.390625 57.59375 C 28.355469 58.070313 28.625 58.515625 29.058594 58.707031 C 29.496094 58.898438 30.003906 58.796875 30.332031 58.449219 L 34.6875 53.976563 L 39.121094 58.332031 C 39.453125 58.648438 39.945313 58.734375 40.363281 58.546875 C 40.78125 58.359375 41.042969 57.9375 41.027344 57.476563 Z M 40.484375 43.476563 "/>
<path style=" stroke:none;fill-rule:nonzero;fill:rgb(0,107,186);fill-opacity:1;" d="M 45.070313 36.207031 C 45.070313 30.578125 40.527344 26.015625 34.921875 26.015625 C 29.316406 26.015625 24.773438 30.578125 24.773438 36.207031 C 24.773438 41.832031 29.316406 46.394531 34.921875 46.394531 C 40.527344 46.394531 45.070313 41.832031 45.070313 36.207031 Z M 45.070313 36.207031 "/>
<path style=" stroke:none;fill-rule:nonzero;fill:rgb(147,209,255);fill-opacity:1;" d="M 42.621094 36.207031 C 42.621094 31.929688 39.175781 28.464844 34.921875 28.464844 C 30.667969 28.464844 27.222656 31.929688 27.222656 36.207031 C 27.222656 40.480469 30.667969 43.945313 34.921875 43.945313 C 39.175781 43.945313 42.621094 40.480469 42.621094 36.207031 Z M 42.621094 36.207031 "/>
</g>
</svg>
