<?xml version="1.0" encoding="UTF-8"?>
<svg xmlns="http://www.w3.org/2000/svg" xmlns:xlink="http://www.w3.org/1999/xlink" width="70pt" height="70pt" viewBox="0 0 70 70" version="1.1">
<defs>
<linearGradient id="linear0" gradientUnits="userSpaceOnUse" x1="11.176" y1="7.698" x2="11.176" y2="16.95" gradientTransform="matrix(3.888889,0,0,-3.888889,0,70)">
<stop offset="0" style="stop-color:rgb(0,108,188);stop-opacity:1;"/>
<stop offset="0.149" style="stop-color:rgb(0,123,214);stop-opacity:1;"/>
<stop offset="0.373" style="stop-color:rgb(0,143,250);stop-opacity:1;"/>
<stop offset="0.594" style="stop-color:rgb(21,155,255);stop-opacity:1;"/>
<stop offset="0.806" style="stop-color:rgb(37,162,255);stop-opacity:1;"/>
<stop offset="1" style="stop-color:rgb(41,164,255);stop-opacity:1;"/>
</linearGradient>
</defs>
<g id="surface1">
<path style=" stroke:none;fill-rule:nonzero;fill:url(#linear0);" d="M 68.832031 28.796875 C 68.667969 23.210938 64.476563 18.570313 58.941406 17.839844 C 58.59375 9.980469 52 3.859375 44.140625 4.089844 C 37.878906 3.980469 32.230469 7.832031 30.050781 13.699219 C 23.375 14.511719 18.292969 20.074219 18.085938 26.792969 C 18.382813 34.398438 24.773438 40.328125 32.378906 40.054688 C 32.800781 40.066406 33.21875 40.046875 33.640625 40 L 56.777344 40 C 56.984375 39.996094 57.191406 39.964844 57.386719 39.90625 C 63.5625 39.863281 68.605469 34.96875 68.832031 28.796875 Z M 68.832031 28.796875 "/>
<path style=" stroke:none;fill-rule:nonzero;fill:rgb(255,255,255);fill-opacity:1;" d="M 41.910156 38.753906 L 41.984375 40.429688 L 43.648438 40.652344 C 48.421875 41.292969 52.039063 45.285156 52.203125 50.101563 C 52.039063 55.46875 47.675781 59.757813 42.304688 59.824219 L 42.132813 59.824219 L 42.007813 59.847656 L 41.871094 59.820313 L 16.203125 59.820313 C 14.574219 59.917969 12.9375 59.695313 11.390625 59.164063 C 9.808594 58.613281 8.351563 57.765625 7.089844 56.664063 C 5.878906 55.523438 4.898438 54.15625 4.207031 52.640625 C 2.453125 48.410156 3.300781 43.542969 6.382813 40.15625 C 8.390625 38.035156 11.09375 36.703125 14 36.398438 L 15.21875 36.257813 L 15.640625 35.109375 C 16.609375 32.488281 18.359375 30.230469 20.65625 28.644531 C 22.945313 27.078125 25.664063 26.265625 28.4375 26.3125 L 28.53125 26.3125 C 35.648438 26.089844 41.617188 31.644531 41.90625 38.757813 Z M 41.910156 38.753906 "/>
<path style=" stroke:none;fill-rule:nonzero;fill:rgb(119,197,255);fill-opacity:1;" d="M 41.964844 61.832031 L 41.632813 61.757813 L 16.203125 61.757813 C 14.359375 61.855469 12.511719 61.601563 10.761719 61.003906 C 8.941406 60.371094 7.257813 59.394531 5.804688 58.125 C 4.386719 56.804688 3.242188 55.21875 2.433594 53.457031 C 0.375 48.515625 1.351563 42.828125 4.9375 38.855469 C 7.273438 36.375 10.417969 34.820313 13.800781 34.46875 L 13.800781 34.4375 C 14.902344 31.4375 16.90625 28.855469 19.539063 27.046875 C 22.144531 25.214844 25.269531 24.273438 28.453125 24.367188 C 36.621094 24.144531 43.464844 30.503906 43.832031 38.667969 L 43.886719 38.722656 C 49.609375 39.476563 53.945313 44.265625 54.132813 50.035156 C 54.003906 56.496094 48.773438 61.6875 42.3125 61.765625 Z M 28.390625 28.257813 C 23.515625 28.179688 19.128906 31.199219 17.464844 35.777344 L 16.628906 38.046875 L 14.230469 38.324219 C 11.769531 38.574219 9.480469 39.699219 7.777344 41.496094 C 5.230469 44.328125 4.53125 48.375 5.988281 51.898438 C 6.574219 53.160156 7.398438 54.300781 8.410156 55.253906 C 9.46875 56.167969 10.691406 56.875 12.015625 57.324219 C 13.320313 57.773438 14.699219 57.960938 16.074219 57.878906 L 42.117188 57.878906 C 46.5 57.894531 50.101563 54.421875 50.246094 50.039063 C 50.070313 46.210938 47.171875 43.066406 43.371094 42.574219 L 40.09375 42.144531 L 39.949219 38.832031 C 39.691406 32.792969 34.632813 28.085938 28.59375 28.257813 Z M 28.390625 28.257813 "/>
<path style=" stroke:none;fill-rule:nonzero;fill:rgb(0,108,188);fill-opacity:1;" d="M 19.832031 48.609375 L 19.832031 47.445313 L 18.640625 47.054688 L 18.335938 46.238281 L 18.917969 45.023438 L 18.917969 44.882813 L 18.53125 44.492188 L 18.085938 44.023438 L 17.9375 44.023438 L 16.769531 44.609375 L 15.953125 44.398438 L 15.457031 43.089844 L 14.292969 43.089844 L 13.902344 44.28125 L 13.085938 44.585938 L 11.730469 43.945313 L 10.890625 44.789063 L 10.890625 44.929688 L 11.472656 46.09375 L 11.144531 46.910156 L 9.722656 47.40625 L 9.722656 48.570313 L 9.886719 48.570313 L 11.125 48.992188 L 11.476563 49.789063 L 10.824219 51.148438 L 11.667969 51.992188 L 11.808594 51.992188 L 12.972656 51.382813 L 13.789063 51.710938 L 14.308594 53.136719 L 15.472656 53.136719 L 15.472656 52.972656 L 15.898438 51.710938 L 16.675781 51.382813 L 18.054688 52.015625 L 18.871094 51.195313 L 18.871094 51.035156 L 18.359375 49.910156 L 18.59375 49.089844 Z M 14.898438 49.6875 C 14.222656 49.699219 13.609375 49.300781 13.34375 48.683594 C 13.078125 48.0625 13.214844 47.34375 13.6875 46.863281 C 14.160156 46.382813 14.878906 46.234375 15.5 46.492188 C 15.804688 46.617188 16.066406 46.828125 16.25 47.101563 C 16.433594 47.375 16.53125 47.699219 16.53125 48.027344 C 16.542969 48.910156 15.855469 49.640625 14.976563 49.6875 Z M 14.898438 49.6875 "/>
<path style=" stroke:none;fill-rule:evenodd;fill:rgb(0,108,188);fill-opacity:1;" d="M 14.839844 61.851563 C 7.253906 61.808594 1.136719 55.628906 1.167969 48.042969 C 1.195313 40.457031 7.363281 34.328125 14.949219 34.34375 C 22.535156 34.359375 28.675781 40.511719 28.675781 48.097656 L 24.5 48.097656 C 24.503906 42.808594 20.222656 38.519531 14.933594 38.515625 C 9.644531 38.511719 5.355469 42.792969 5.351563 48.082031 C 5.347656 53.371094 9.628906 57.660156 14.917969 57.664063 L 17.964844 57.664063 C 18.046875 57.6875 18.128906 57.660156 18.183594 57.601563 C 18.214844 57.574219 18.234375 57.539063 18.246094 57.5 C 18.253906 57.460938 18.253906 57.421875 18.246094 57.382813 L 18.246094 53.992188 C 18.265625 53.878906 18.339844 53.777344 18.449219 53.734375 C 18.5625 53.707031 18.679688 53.734375 18.773438 53.804688 L 24.605469 59.636719 C 24.625 59.699219 24.625 59.765625 24.605469 59.828125 C 24.589844 59.890625 24.550781 59.949219 24.5 59.988281 L 18.667969 65.824219 C 18.621094 65.863281 18.5625 65.886719 18.503906 65.894531 C 18.445313 65.902344 18.386719 65.890625 18.332031 65.867188 C 18.277344 65.84375 18.230469 65.804688 18.195313 65.753906 C 18.160156 65.703125 18.140625 65.644531 18.140625 65.585938 L 18.140625 62.140625 C 18.140625 62.0625 18.109375 61.988281 18.054688 61.933594 C 18 61.878906 17.925781 61.847656 17.847656 61.847656 L 14.839844 61.847656 Z M 14.839844 61.851563 "/>
</g>
</svg>
