<?xml version="1.0" encoding="utf-8"?><svg version="1.1" xmlns="http://www.w3.org/2000/svg" xmlns:xlink="http://www.w3.org/1999/xlink" xmlns:xml="http://www.w3.org/XML/1998/namespace" width="70" height="70" viewBox="0, 0, 50, 50" id="FxSymbol0-103" class="" role="presentation" focusable="false" data-type="1"><g><title /><path d="M27.4 9.8 c-3.4 0.4 -6.3 2 -8.3 4.5 c-2 2.5 -3 5.7 -2.7 9 c0.4 3.4 2 6.3 4.5 8.3 c2.5 2 5.7 3 9 2.7 c3.4 -0.4 6.3 -2.1 8.3 -4.5 c2 -2.5 3 -5.7 2.7 -9 c-0.4 -3.4 -2.1 -6.3 -4.6 -8.4 c-2.1 -1.7 -4.8 -2.7 -7.6 -2.7 c-0.4 0 -0.8 0 -1.3 0.1" class="msportalfx-svg-c01" style="fill:white;" /><path d="M42.8 20.5 c-0.4 -4 -2.5 -7.5 -5.4 -9.8 c-0.6 -0.5 -1.2 -0.9 -1.8 -1.2 l-1.1 2.2 c0.5 0.3 0.9 0.6 1.4 0.9 c2.4 2 4.1 4.8 4.5 8.1 c0.3 3.3 -0.7 6.4 -2.6 8.8 c-1.9 2.4 -4.8 4 -8.1 4.4 c-2.2 0.2 -4.3 -0.2 -6.2 -1 l-1.1 2.2 c2.3 1.1 4.9 1.6 7.6 1.3 c4 -0.4 7.4 -2.4 9.7 -5.3 c2.3 -2.8 3.5 -6.6 3.1 -10.6" class="msportalfx-svg-c16" style="fill:#3999C6;" /><path d="M20.9 31.4 c-2.4 -1.9 -4 -4.8 -4.4 -8.1 c-0.3 -3.3 0.7 -6.4 2.6 -8.8 c1.9 -2.4 4.8 -4 8.1 -4.4 c2.7 -0.3 5.2 0.3 7.3 1.6 l1.1 -2.2 C33 8 30 7.3 26.9 7.6 c-4 0.4 -7.4 2.4 -9.7 5.3 c-2.3 2.9 -3.6 6.6 -3.1 10.6 c0.4 4 2.4 7.4 5.3 9.7 c0.9 0.7 1.9 1.4 3 1.9 l1.1 -2.2 c-1 -0.4 -1.8 -0.9 -2.6 -1.5" class="msportalfx-svg-c03" style="fill:#A0A1A2;" /><path d="M20.9 31.4 c-2.4 -1.9 -4 -4.8 -4.4 -8.1 c-0.3 -3.3 0.7 -6.4 2.6 -8.8 c1.9 -2.4 4.8 -4 8.1 -4.4 c2.7 -0.3 5.2 0.3 7.3 1.6 l1.1 -2.2 C33 8 30 7.3 26.9 7.6 c-4 0.4 -7.4 2.4 -9.7 5.3 c-2.3 2.9 -3.6 6.6 -3.1 10.6 c0.4 4 2.4 7.4 5.3 9.7 c0.9 0.7 1.9 1.4 3 1.9 l1.1 -2.2 c-1 -0.4 -1.8 -0.9 -2.6 -1.5" class="msportalfx-svg-c15" style="fill:#59B4D9;" /><path d="m34.5 25.8 l-5.6 -2 c-0.6 -0.2 -0.9 -0.9 -0.7 -1.5 c0.2 -0.6 0.9 -0.9 1.5 -0.7 l5.6 2 c0.6 0.2 0.9 0.9 0.7 1.5 c-0.2 0.6 -0.9 1 -1.5 0.7 z" class="msportalfx-svg-c04" style="fill:#7A7A7A;" /><path d="M28.3 23.6 c-0.6 0 -1.2 -0.5 -1.2 -1.2 v-9.8 c0 -0.6 0.5 -1.2 1.2 -1.2 c0.6 0 1.2 0.5 1.2 1.2 v9.8 c0 0.7 -0.5 1.2 -1.2 1.2 z" class="msportalfx-svg-c04" style="fill:#7A7A7A;" /><circle cx="28.3" cy="22.5" r="1.7" class="msportalfx-svg-c06" style="fill:#1E1E1E;" /><path d="m26.9 35 l5.9 5.5 l-5.2 6 l0.1 -3.9 h-1.4 c-10.5 0 -19.1 -8.5 -19.1 -19.1 s8.4 -19 19 -19 c5.3 0 10.1 2.2 13.6 5.7 c-3 -2.9 -7.1 -4.7 -11.6 -4.8 c-9.1 0 -16.5 7.4 -16.5 16.5 c0 8.8 7.1 15.9 15.7 16.5 l-0.5 -3.4 z" class="msportalfx-svg-c13" style="fill:#B8D432;" /><path d="M28 40.9 c-10.5 -0.4 -18.6 -9.2 -18.2 -19.6 c0.3 -6.5 3.8 -12.1 8.9 -15.3 c-6.8 2.9 -11.6 9.7 -11.6 17.6 c0 10.5 8.5 19.1 19.1 19.1 h1.4 l-0.1 3.9 l5.2 -6 c-1.5 0.3 -3.1 0.4 -4.7 0.3 z" opacity="0.2" class="msportalfx-svg-c06" style="fill:#1E1E1E;" /><path d="M9.6 43.9 c-0.2 0 -0.5 -0.1 -0.7 -0.2 l-6.8 -4 c-1.2 -0.7 -2 -2.1 -2 -3.4 V11.1 c0 -1.3 0.8 -2.8 2 -3.4 l6.8 -4 c0.7 -0.4 1.6 -0.2 2 0.5 c0.4 0.7 0.2 1.6 -0.5 2 l-6.8 4 c-0.2 0.1 -0.5 0.6 -0.5 0.9 v25.2 c0 0.3 0.3 0.8 0.5 0.9 l6.8 4 c0.7 0.4 0.9 1.3 0.5 2 c-0.3 0.4 -0.8 0.7 -1.3 0.7 z M40.4 3.5 c0.2 0 0.5 0.1 0.7 0.2 l6.8 4 c1.2 0.7 2 2.1 2 3.4 v25.2 c0 1.3 -0.8 2.8 -2 3.4 l-6.8 4 c-0.7 0.4 -1.6 0.2 -2 -0.5 c-0.4 -0.7 -0.2 -1.6 0.5 -2 l6.8 -4 c0.2 -0.1 0.5 -0.6 0.5 -0.9 V11.1 c0 -0.3 -0.3 -0.8 -0.5 -0.9 l-6.8 -4 c-0.7 -0.4 -0.9 -1.3 -0.5 -2 c0.4 -0.4 0.8 -0.7 1.3 -0.7 z" class="msportalfx-svg-c04" style="fill:#7A7A7A;" /></g><defs /></svg>