<?xml version="1.0" encoding="UTF-8"?>
<svg xmlns="http://www.w3.org/2000/svg" xmlns:xlink="http://www.w3.org/1999/xlink" width="70pt" height="70pt" viewBox="0 0 70 70" version="1.1">
<g id="surface1">
<path style=" stroke:none;fill-rule:nonzero;fill:rgb(34.901961%,70.588235%,85.098039%);fill-opacity:1;" d="M 44.550781 35.015625 C 44.550781 40.386719 40.199219 44.738281 34.828125 44.738281 C 29.460938 44.738281 25.105469 40.386719 25.105469 35.015625 C 25.105469 29.644531 29.460938 25.292969 34.828125 25.292969 C 40.199219 25.292969 44.550781 29.644531 44.550781 35.015625 Z M 44.550781 35.015625 "/>
<path style=" stroke:none;fill-rule:nonzero;fill:rgb(34.901961%,70.588235%,85.098039%);fill-opacity:1;" d="M 55.765625 25.914063 C 55.765625 28.542969 53.636719 30.675781 51.007813 30.675781 C 48.378906 30.675781 46.246094 28.542969 46.246094 25.914063 C 46.246094 23.285156 48.378906 21.15625 51.007813 21.15625 C 53.636719 21.15625 55.765625 23.285156 55.765625 25.914063 Z M 55.765625 25.914063 "/>
<path style=" stroke:none;fill-rule:nonzero;fill:rgb(34.901961%,70.588235%,85.098039%);fill-opacity:1;" d="M 55.765625 44.117188 C 55.765625 46.746094 53.636719 48.875 51.007813 48.875 C 48.378906 48.875 46.246094 46.746094 46.246094 44.117188 C 46.246094 41.488281 48.378906 39.355469 51.007813 39.355469 C 53.636719 39.355469 55.765625 41.488281 55.765625 44.117188 Z M 55.765625 44.117188 "/>
<path style=" stroke:none;fill-rule:nonzero;fill:rgb(34.901961%,70.588235%,85.098039%);fill-opacity:1;" d="M 66.109375 50.597656 C 66.109375 52.839844 64.292969 54.660156 62.050781 54.660156 C 59.808594 54.660156 57.992188 52.839844 57.992188 50.597656 C 57.992188 48.355469 59.808594 46.539063 62.050781 46.539063 C 64.292969 46.539063 66.109375 48.355469 66.109375 50.597656 Z M 66.109375 50.597656 "/>
<path style=" stroke:none;fill-rule:nonzero;fill:rgb(34.901961%,70.588235%,85.098039%);fill-opacity:1;" d="M 65.941406 19.488281 C 65.941406 21.636719 64.199219 23.375 62.050781 23.375 C 59.902344 23.375 58.164063 21.636719 58.164063 19.488281 C 58.164063 17.339844 59.902344 15.597656 62.050781 15.597656 C 64.199219 15.597656 65.941406 17.339844 65.941406 19.488281 Z M 65.941406 19.488281 "/>
<path style=" stroke:none;fill-rule:nonzero;fill:rgb(34.901961%,70.588235%,85.098039%);fill-opacity:1;" d="M 65.941406 35.015625 C 65.941406 37.164063 64.199219 38.90625 62.050781 38.90625 C 59.902344 38.90625 58.164063 37.164063 58.164063 35.015625 C 58.164063 32.867188 59.902344 31.125 62.050781 31.125 C 64.199219 31.125 65.941406 32.867188 65.941406 35.015625 Z M 65.941406 35.015625 "/>
<path style=" stroke:none;fill-rule:nonzero;fill:rgb(22.352941%,60%,77.647059%);fill-opacity:1;" d="M 51.972656 11.214844 C 51.972656 12.761719 50.71875 14.015625 49.171875 14.015625 C 47.625 14.015625 46.371094 12.761719 46.371094 11.214844 C 46.371094 9.667969 47.625 8.414063 49.171875 8.414063 C 50.71875 8.414063 51.972656 9.667969 51.972656 11.214844 Z M 51.972656 11.214844 "/>
<path style=" stroke:none;fill-rule:nonzero;fill:rgb(22.352941%,60%,77.647059%);fill-opacity:1;" d="M 34.90625 63.558594 L 9.316406 49.242188 L 9.316406 20.757813 L 34.90625 6.441406 L 47.679688 13.585938 L 50.5 8.75 L 34.90625 0 L 3.71875 17.5 L 3.71875 52.5 L 34.90625 70 L 50.5 61.25 L 47.679688 56.414063 Z M 34.90625 63.558594 "/>
<path style=" stroke:none;fill-rule:nonzero;fill:rgb(22.352941%,60%,77.647059%);fill-opacity:1;" d="M 51.972656 58.785156 C 51.972656 60.332031 50.71875 61.585938 49.171875 61.585938 C 47.625 61.585938 46.371094 60.332031 46.371094 58.785156 C 46.371094 57.238281 47.625 55.984375 49.171875 55.984375 C 50.71875 55.984375 51.972656 57.238281 51.972656 58.785156 Z M 51.972656 58.785156 "/>
</g>
</svg>
