<?xml version="1.0" encoding="UTF-8"?>
<svg xmlns="http://www.w3.org/2000/svg" xmlns:xlink="http://www.w3.org/1999/xlink" width="70pt" height="70pt" viewBox="0 0 70 70" version="1.1">
<defs>
<filter id="alpha" filterUnits="objectBoundingBox" x="0%" y="0%" width="100%" height="100%">
  <feColorMatrix type="matrix" in="SourceGraphic" values="0 0 0 0 1 0 0 0 0 1 0 0 0 0 1 0 0 0 1 0"/>
</filter>
<mask id="mask0">
  <g filter="url(#alpha)">
<rect x="0" y="0" width="70" height="70" style="fill:rgb(0,0,0);fill-opacity:0.301961;stroke:none;"/>
  </g>
</mask>
<clipPath id="clip1">
  <rect x="0" y="0" width="70" height="70"/>
</clipPath>
<g id="surface5" clip-path="url(#clip1)">
<path style=" stroke:none;fill-rule:nonzero;fill:rgb(63,173,255);fill-opacity:1;" d="M 55.308594 4.714844 L 44.324219 27.210938 L 47.058594 27.210938 C 46.816406 27.160156 46.710938 26.957031 46.863281 26.710938 L 51.589844 18.285156 L 52.703125 16.273438 L 53.996094 13.957031 L 56.75 9.078125 L 58.328125 6.234375 C 57.347656 5.671875 56.339844 5.164063 55.308594 4.714844 Z M 53.089844 27.191406 L 50.023438 27.203125 L 38.691406 44.199219 L 53.285156 27.648438 C 53.503906 27.386719 53.417969 27.191406 53.089844 27.191406 Z M 53.089844 27.191406 "/>
</g>
</defs>
<g id="surface1">
<path style=" stroke:none;fill-rule:nonzero;fill:rgb(65,174,255);fill-opacity:1;" d="M 64.792969 32.679688 C 64.792969 32.15625 64.75 31.652344 64.707031 31.128906 L 70 28.199219 C 69.71875 26.464844 69.265625 24.765625 68.644531 23.121094 L 62.605469 23.230469 C 62.15625 22.292969 61.644531 21.386719 61.074219 20.519531 L 64.179688 15.335938 C 63.070313 13.984375 61.832031 12.746094 60.484375 11.636719 L 57.417969 13.453125 L 56.128906 15.378906 L 53.351563 19.46875 C 57.289063 22.53125 59.828125 27.300781 59.828125 32.679688 C 59.828125 41.914063 52.367188 49.394531 43.136719 49.394531 C 33.925781 49.394531 26.445313 41.914063 26.445313 32.679688 C 26.445313 24.414063 32.4375 17.589844 40.3125 16.230469 L 41.582031 11.089844 L 38.648438 5.796875 C 36.925781 6.078125 35.234375 6.53125 33.601563 7.152344 L 33.6875 13.210938 C 32.75 13.648438 31.851563 14.160156 30.996094 14.742188 L 25.8125 11.636719 C 24.457031 12.738281 23.21875 13.980469 22.117188 15.335938 L 25.222656 20.519531 C 24.632813 21.371094 24.148438 22.289063 23.691406 23.230469 L 17.632813 23.121094 C 17.027344 24.769531 16.582031 26.46875 16.296875 28.199219 L 21.570313 31.128906 C 21.484375 32.164063 21.484375 33.199219 21.570313 34.234375 L 16.296875 37.164063 C 16.582031 38.914063 17.039063 40.621094 17.652344 42.242188 L 23.691406 42.132813 C 24.152344 43.074219 24.632813 43.992188 25.222656 44.84375 L 22.117188 50.027344 C 23.226563 51.386719 24.464844 52.632813 25.816406 53.746094 L 31 50.621094 C 31.851563 51.210938 32.769531 51.714844 33.691406 52.171875 L 33.601563 58.210938 C 35.21875 58.824219 36.902344 59.28125 38.652344 59.566406 L 41.605469 54.273438 C 42.109375 54.316406 42.613281 54.359375 43.136719 54.359375 C 43.660156 54.359375 44.1875 54.316406 44.6875 54.273438 L 47.621094 59.566406 C 49.355469 59.285156 51.054688 58.832031 52.695313 58.210938 L 52.585938 52.171875 C 53.527344 51.71875 54.433594 51.199219 55.300781 50.617188 L 60.484375 53.746094 C 61.828125 52.625 63.066406 51.378906 64.179688 50.027344 L 61.074219 44.84375 C 61.644531 43.992188 62.148438 43.070313 62.605469 42.128906 L 68.644531 42.238281 C 69.257813 40.621094 69.71875 38.914063 70 37.164063 L 64.707031 34.234375 C 64.75 33.710938 64.792969 33.207031 64.792969 32.679688 Z M 64.792969 32.679688 "/>
<path style=" stroke:none;fill-rule:nonzero;fill:rgb(0,140,244);fill-opacity:1;" d="M 22.398438 55.605469 L 22.398438 53.003906 L 22.257813 52.871094 L 19.59375 51.976563 L 18.910156 50.179688 L 20.226563 47.449219 L 20.371094 47.140625 L 19.546875 46.308594 L 18.546875 45.300781 L 18.195313 45.476563 L 15.59375 46.8125 L 13.800781 46.308594 L 12.664063 43.398438 L 10.085938 43.398438 L 9.953125 43.53125 L 9.054688 46.1875 L 7.242188 46.871094 L 4.222656 45.421875 L 2.382813 47.242188 L 2.558594 47.585938 L 3.894531 50.1875 L 3.148438 51.976563 L 0 53.113281 L 0 55.714844 L 0.371094 55.824219 L 3.148438 56.742188 L 3.894531 58.535156 L 2.472656 61.554688 L 4.308594 63.414063 L 4.660156 63.238281 L 7.261719 61.90625 L 9.054688 62.648438 L 10.195313 65.800781 L 12.796875 65.800781 L 12.90625 65.425781 L 13.824219 62.648438 L 15.597656 61.90625 L 18.636719 63.328125 L 20.476563 61.492188 L 20.300781 61.140625 L 18.964844 58.539063 L 19.480469 56.722656 Z M 11.441406 58.011719 C 9.425781 58.011719 7.789063 56.371094 7.789063 54.359375 C 7.789063 52.347656 9.429688 50.707031 11.441406 50.707031 C 13.453125 50.707031 15.074219 52.347656 15.074219 54.359375 C 15.074219 56.371094 13.453125 58.011719 11.441406 58.011719 Z M 11.441406 58.011719 "/>
<path style=" stroke:none;fill-rule:nonzero;fill:rgb(147,209,255);fill-opacity:1;" d="M 46.617188 2.363281 L 45.609375 5.535156 L 43.882813 11.046875 L 43.050781 13.695313 L 42.328125 16.011719 L 37.296875 32.003906 C 37.1875 32.308594 37.339844 32.550781 37.6875 32.550781 L 42.328125 32.550781 C 42.480469 32.550781 42.589844 32.59375 42.65625 32.679688 C 42.765625 32.789063 42.785156 32.945313 42.722656 33.121094 L 37.929688 44.734375 C 37.796875 45.042969 37.886719 45.109375 38.105469 44.84375 L 53.265625 27.648438 C 53.484375 27.386719 53.398438 27.191406 53.070313 27.191406 L 48.101563 27.214844 L 47.183594 27.234375 C 46.855469 27.234375 46.703125 26.996094 46.878906 26.710938 L 51.601563 18.289063 L 52.71875 16.273438 L 54.007813 13.957031 L 56.765625 9.078125 L 58.339844 6.234375 C 54.742188 4.148438 50.75 2.832031 46.617188 2.363281 Z M 46.617188 2.363281 "/>
<use xlink:href="#surface5" mask="url(#mask0)"/>
</g>
</svg>
