<?xml version="1.0" encoding="utf-8"?><svg version="1.1" xmlns="http://www.w3.org/2000/svg" xmlns:xlink="http://www.w3.org/1999/xlink" xmlns:xml="http://www.w3.org/XML/1998/namespace" width="70" height="70" viewBox="0, 0, 18, 18" id="a685cc8c-32ba-4d54-91da-3a125cb58ded"><title>Icon-general-7</title><g><g><path d="M0.5 15.08 a0.16 0.16 0 0 0 0.08 0.14 l1.16 0.65 L3.7 17 a0.17 0.17 0 0 0 0.23 -0.06 l0.66 -1.12 a0.16 0.16 0 0 0 -0.06 -0.21 l-2.3 -1.3 a0.17 0.17 0 0 1 -0.08 -0.14 V3.85 a0.16 0.16 0 0 1 0.08 -0.14 l2.3 -1.3 a0.16 0.16 0 0 0 0.06 -0.21 L3.93 1.08 A0.17 0.17 0 0 0 3.7 1 L1.78 2.11 l-1.2 0.67 a0.16 0.16 0 0 0 -0.08 0.14 V15.08 Z" style="fill:#29A4FF;" /><path d="M2.14 3.77 l0.06 -0.06 l2.3 -1.3 a0.14 0.14 0 0 0 0.06 -0.21 L3.9 1.08 A0.15 0.15 0 0 0 3.68 1 L1.75 2.11 L0.56 2.78 s-0.05 0 -0.06 0.06 l0.9 0.51 Z" style="fill:#47B0FF;" /><path d="M4.5 15.59 l-2.3 -1.3 a0.22 0.22 0 0 1 -0.07 -0.09 l-1.62 1 l0.05 0 l1.15 0.65 l2 1.11 a0.15 0.15 0 0 0 0.22 -0.06 l0.66 -1.12 A0.14 0.14 0 0 0 4.5 15.59 Z" style="fill:#47B0FF;" /></g><path d="M17.5 15.08 a0.16 0.16 0 0 1 -0.08 0.14 l-1.16 0.65 L14.3 17 a0.17 0.17 0 0 1 -0.23 -0.06 l-0.66 -1.12 a0.16 0.16 0 0 1 0.06 -0.21 l2.3 -1.3 a0.17 0.17 0 0 0 0.08 -0.14 V3.85 a0.16 0.16 0 0 0 -0.08 -0.14 l-2.3 -1.3 a0.16 0.16 0 0 1 -0.06 -0.21 l0.66 -1.12 A0.17 0.17 0 0 1 14.3 1 l1.92 1.09 l1.2 0.67 a0.16 0.16 0 0 1 0.08 0.14 V15.08 Z" style="fill:#29A4FF;" /><path d="M15.86 3.77 l-0.06 -0.06 l-2.3 -1.3 a0.14 0.14 0 0 1 -0.06 -0.21 l0.66 -1.12 A0.15 0.15 0 0 1 14.32 1 l1.93 1.09 l1.19 0.67 s0 0 0.06 0.06 l-0.9 0.51 Z" style="fill:#47B0FF;" /><path d="M13.5 15.59 l2.3 -1.3 a0.22 0.22 0 0 0 0.07 -0.09 l1.62 1 l0 0 l-1.15 0.65 l-2 1.11 a0.15 0.15 0 0 1 -0.22 -0.06 l-0.66 -1.12 A0.14 0.14 0 0 1 13.5 15.59 Z" style="fill:#47B0FF;" /><polygon points="14.31,5.93 14.31,12.07 8.99,15.16 8.99,9.01 14.31,5.93" style="fill:#2FA6FF;" /><polygon points="14.31,5.93 9,9.02 3.68,5.93 9,2.84 14.31,5.93" style="fill:#ABDBFF;" /><polygon points="8.99,9.02 8.99,15.16 3.68,12.07 3.68,5.93 8.99,9.02" style="fill:#77C5FF;" /><polygon points="3.68,12.07 8.99,9.01 8.99,15.16 3.68,12.07" style="fill:#ABDBFF;" /><polygon points="14.31,12.07 8.99,9.01 8.99,15.16 14.31,12.07" style="fill:#77C5FF;" /></g></svg>