<?xml version="1.0" encoding="utf-8"?><svg version="1.1" xmlns="http://www.w3.org/2000/svg" xmlns:xlink="http://www.w3.org/1999/xlink" xmlns:xml="http://www.w3.org/XML/1998/namespace" width="70" height="70" viewBox="0, 0, 18, 18" id="b4d0e6e2-12c1-4275-b717-890060dd1560"><defs><linearGradient x1="11.13" y1="10.95" x2="11.13" y2="1.21" gradientUnits="userSpaceOnUse" id="f1a30f9e-7f48-44e2-9483-6a6db8928977"><stop offset="0%" stop-color="#006CBC" /><stop offset="16%" stop-color="#0078D2" /><stop offset="53%" stop-color="#0193FF" /><stop offset="82%" stop-color="#1F9FFF" /><stop offset="100%" stop-color="#29A4FF" /></linearGradient><linearGradient x1="7.06" y1="16.79" x2="7.06" y2="6.78" gradientUnits="userSpaceOnUse" id="b4a5ed8d-a28d-4d26-9aad-a57e6ad0c0b9"><stop offset="0%" stop-color="#007CD8" /><stop offset="13%" stop-color="#0091FC" /><stop offset="31%" stop-color="#21A0FF" /><stop offset="50%" stop-color="#39ABFF" /><stop offset="72%" stop-color="#49B1FF" /><stop offset="100%" stop-color="#4FB4FF" /></linearGradient></defs><title>Icon-manage-315</title><path d="M18 7.9 a3.09 3.09 0 0 0 -2.68 -3 a3.89 3.89 0 0 0 -4 -3.72 A4 4 0 0 0 7.5 3.81 A3.68 3.68 0 0 0 4.26 7.36 A3.74 3.74 0 0 0 8.13 11 l0.34 0 h6.26 l0.17 0 A3.13 3.13 0 0 0 18 7.9 Z" style="fill:url(#f1a30f9e-7f48-44e2-9483-6a6db8928977);" /><path d="M14.39 5.22 L12.56 3.44 c-0.2 -0.2 -0.37 -0.13 -0.37 0.18 v0.8 a0.22 0.22 0 0 1 -0.23 0.22 c-1.18 0 -4.47 0.31 -4.59 4.81 a0.23 0.23 0 0 0 0.23 0.23 H8.77 A0.23 0.23 0 0 0 9 9.43 A2.76 2.76 0 0 1 12 6.1 a0.23 0.23 0 0 1 0.23 0.23 v0.74 c0 0.37 0.12 0.43 0.37 0.18 L14.39 5.6 A0.23 0.23 0 0 0 14.39 5.22 Z" style="fill:white;" /><path d="M14.12 13.66 a3.17 3.17 0 0 0 -2.75 -3.05 A4 4 0 0 0 7.25 6.78 A4.1 4.1 0 0 0 3.33 9.46 A3.78 3.78 0 0 0 0 13.1 a3.84 3.84 0 0 0 4 3.69 h6.78 a0.47 0.47 0 0 0 0.17 0 A3.21 3.21 0 0 0 14.12 13.66 Z" style="fill:url(#b4a5ed8d-a28d-4d26-9aad-a57e6ad0c0b9);" /></svg>