<?xml version="1.0" encoding="UTF-8"?>
<svg xmlns="http://www.w3.org/2000/svg" xmlns:xlink="http://www.w3.org/1999/xlink" width="70pt" height="58pt" viewBox="0 0 70 58" version="1.1">
<g id="surface1">
<path style=" stroke:none;fill-rule:nonzero;fill:rgb(0%,44.705882%,77.647059%);fill-opacity:1;" d="M 63.480469 15.957031 C 63.527344 15.476563 63.550781 14.972656 63.550781 14.46875 C 63.550781 6.492188 56.8125 0 48.554688 0 C 43.648438 0 39.144531 2.285156 36.375 6.03125 C 34.59375 4.957031 32.527344 4.363281 30.367188 4.363281 C 24.476563 4.363281 19.621094 8.734375 19.078125 14.285156 C 19.992188 14.171875 20.910156 14.078125 21.847656 14.078125 C 26.1875 14.078125 30.367188 15.453125 33.769531 17.871094 C 36.328125 12.136719 42.828125 8.457031 50.03125 8.25 L 50.03125 3.335938 L 58.832031 10.671875 L 50.03125 17.964844 L 50.03125 13.167969 C 45.902344 13.324219 41.886719 14.835938 39.566406 18.492188 L 40.035156 18.445313 C 48.4375 18.445313 55.382813 24.574219 56.367188 32.414063 C 58.363281 33.875 59.9375 35.636719 61.058594 37.648438 C 66.503906 36.230469 70.402344 31.65625 70.402344 26.058594 C 70.402344 21.554688 67.914063 17.964844 63.480469 15.957031 Z M 63.480469 15.957031 "/>
<path style=" stroke:none;fill-rule:nonzero;fill:rgb(34.901961%,70.588235%,85.098039%);fill-opacity:1;" d="M 6.921875 34.972656 C 6.875 34.46875 6.851563 33.964844 6.851563 33.464844 C 6.851563 25.484375 13.589844 19.015625 21.847656 19.015625 C 26.753906 19.015625 31.257813 21.300781 34.027344 25.027344 C 35.8125 23.957031 37.875 23.382813 40.039063 23.382813 C 46.28125 23.382813 51.371094 28.296875 51.371094 34.328125 L 51.347656 35.203125 C 55.570313 37.28125 57.851563 40.730469 57.851563 45.050781 C 57.851563 51.839844 52.167969 57.144531 44.917969 57.144531 L 12.929688 57.144531 C 5.675781 57.144531 0 51.839844 0 45.050781 C 0 40.570313 2.488281 36.984375 6.921875 34.972656 Z M 6.921875 34.972656 "/>
</g>
</svg>
