<?xml version="1.0" encoding="UTF-8"?>
<svg xmlns="http://www.w3.org/2000/svg" xmlns:xlink="http://www.w3.org/1999/xlink" width="70pt" height="70pt" viewBox="0 0 70 70" version="1.1">
<defs>
<linearGradient id="linear0" gradientUnits="userSpaceOnUse" x1="45.706" y1="70.355" x2="44.393" y2="6" gradientTransform="matrix(0.729167,0,0,0.729167,0,0)">
<stop offset="0" style="stop-color:rgb(0,134,234);stop-opacity:1;"/>
<stop offset="1" style="stop-color:rgb(119,197,255);stop-opacity:1;"/>
</linearGradient>
<linearGradient id="linear1" gradientUnits="userSpaceOnUse" x1="75.245" y1="91.845" x2="45.287" y2="39.304" gradientTransform="matrix(0.729167,0,0,0.729167,0,0)">
<stop offset="0" style="stop-color:rgb(91,185,255);stop-opacity:1;"/>
<stop offset="1" style="stop-color:rgb(0,112,196);stop-opacity:1;"/>
</linearGradient>
</defs>
<g id="surface1">
<path style=" stroke:none;fill-rule:nonzero;fill:url(#linear0);" d="M 69.902344 39.984375 C 67.75 47.792969 62.535156 50.371094 56.914063 52.757813 C 56.523438 52.921875 55.605469 53.230469 54.175781 53.230469 L 29.929688 53.230469 C 25.359375 53.230469 18.398438 53.15625 15.152344 53.117188 C 13.367188 53.097656 12.242188 52.597656 11.703125 52.328125 C 4.90625 48.941406 0.886719 43.453125 0.109375 36.515625 C -0.214844 33.621094 -0.910156 21.894531 16.222656 17.375 C 21.933594 6.636719 28.214844 4.941406 36.210938 4.375 C 46.488281 4.375 55.054688 11.722656 56.195313 23.027344 C 61.90625 24.15625 71.042969 29.808594 69.902344 39.984375 Z M 69.902344 39.984375 "/>
<path style=" stroke:none;fill-rule:nonzero;fill:rgb(255,255,255);fill-opacity:1;" d="M 65.621094 48.488281 C 65.621094 60.363281 55.992188 69.996094 44.113281 69.996094 C 32.234375 69.996094 22.605469 60.367188 22.605469 48.488281 C 22.605469 36.609375 32.234375 26.980469 44.113281 26.980469 C 55.988281 26.980469 65.621094 36.609375 65.621094 48.488281 Z M 65.621094 48.488281 "/>
<path style=" stroke:none;fill-rule:evenodd;fill:url(#linear1);" d="M 44.113281 67.164063 C 54.425781 67.164063 62.789063 58.800781 62.789063 48.488281 C 62.789063 38.171875 54.425781 29.808594 44.113281 29.808594 C 33.796875 29.808594 25.433594 38.171875 25.433594 48.488281 C 25.433594 58.800781 33.796875 67.164063 44.113281 67.164063 Z M 44.113281 69.996094 C 55.988281 69.996094 65.621094 60.367188 65.621094 48.488281 C 65.621094 36.609375 55.992188 26.980469 44.113281 26.980469 C 32.234375 26.980469 22.605469 36.609375 22.605469 48.488281 C 22.605469 60.363281 32.234375 69.996094 44.113281 69.996094 Z M 44.113281 69.996094 "/>
<path style=" stroke:none;fill-rule:nonzero;fill:rgb(0,134,234);fill-opacity:1;" d="M 52.085938 44.683594 C 49.636719 44.683594 47.648438 46.675781 47.648438 49.136719 C 47.648438 50.566406 47.332031 51.925781 46.765625 53.144531 C 45.261719 56.367188 42.003906 58.597656 38.226563 58.597656 C 33.023438 58.597656 28.804688 54.359375 28.804688 49.136719 C 28.773438 45.300781 31.066406 41.828125 34.605469 40.347656 C 38.140625 38.867188 42.222656 39.671875 44.933594 42.382813 C 47.644531 45.09375 48.449219 49.175781 46.96875 52.714844 C 45.488281 56.25 42.019531 58.542969 38.183594 58.515625 L 38.183594 60.761719 C 40.304688 62.511719 41.242188 65.316406 40.597656 67.988281 L 47.824219 75.214844 L 47.824219 80.414063 C 48.023438 82.472656 47.703125 85.257813 46.992188 87.652344 C 46.992188 86.148438 47.488281 84.761719 48.324219 83.644531 C 49.429688 73.890625 58.234375 66.882813 67.988281 67.988281 C 77.742188 69.097656 84.75 77.902344 83.644531 87.652344 C 87.128906 87.652344 89.992188 90.347656 90.273438 93.777344 L 88.042969 93.777344 C 87.769531 91.578125 85.90625 89.878906 83.644531 89.878906 Z M 52.085938 44.683594 "/>
<path style=" stroke:none;fill-rule:evenodd;fill:rgb(0,134,234);fill-opacity:1;" d="M 46.738281 53.199219 C 45.222656 56.390625 41.980469 58.597656 38.226563 58.597656 C 33.023438 58.597656 28.804688 54.359375 28.804688 49.136719 C 28.777344 45.300781 31.070313 41.832031 34.605469 40.351563 C 38.144531 38.875 42.222656 39.679688 44.933594 42.390625 C 47.644531 45.101563 48.449219 49.179688 46.972656 52.71875 C 45.492188 56.253906 42.023438 58.546875 38.1875 58.519531 L 38.1875 60.769531 C 40.308594 62.515625 41.246094 65.320313 40.605469 67.992188 L 47.832031 75.222656 L 47.832031 80.421875 C 48.03125 82.476563 47.710938 85.265625 47 87.660156 L 53.671875 87.660156 C 54.375 89.597656 57.664063 91.382813 61.621094 91.976563 C 65.578125 92.570313 69.15625 91.8125 70.269531 90.148438 C 71.378906 88.480469 69.730469 86.347656 66.28125 84.988281 C 69.644531 84.988281 72.425781 87.496094 72.871094 90.746094 C 72.886719 90.867188 72.902344 90.988281 72.910156 91.113281 L 70.683594 91.113281 C 70.410156 88.917969 68.542969 87.214844 66.28125 87.214844 C 63.832031 87.214844 61.847656 89.210938 61.847656 91.667969 C 58.167969 94.175781 53.238281 93.777344 50.007813 90.710938 C 46.78125 87.644531 46.128906 82.738281 48.441406 78.9375 C 50.757813 75.132813 55.414063 73.457031 59.621094 74.917969 C 63.828125 76.375 66.449219 80.570313 65.914063 84.988281 Z M 37.335938 39.464844 C 49.90625 31.574219 66.496094 35.371094 74.386719 47.941406 C 82.277344 60.511719 78.484375 77.097656 65.914063 84.988281 L 65.914063 87.238281 C 67.796875 87.136719 69.40625 88.585938 69.503906 90.46875 C 69.605469 92.351563 68.15625 93.960938 66.273438 94.0625 L 73.132813 100.921875 L 79.996094 100.921875 C 79.269531 104.445313 79.789063 107.773438 81.152344 108.359375 C 82.515625 108.941406 84.207031 106.558594 84.929688 103.035156 C 84.980469 99.308594 88.019531 96.320313 91.746094 96.335938 C 95.472656 96.351563 98.488281 99.367188 98.503906 103.09375 C 98.519531 106.820313 95.53125 109.859375 91.804688 109.910156 C 91.804688 108.324219 92.328125 106.859375 93.210938 105.679688 C 93.152344 102.59375 95.121094 99.835938 98.058594 98.886719 C 100.996094 97.941406 104.207031 99.03125 105.960938 101.570313 C 107.71875 104.105469 107.601563 107.496094 105.679688 109.910156 C 109.359375 109.910156 112.375 112.75 112.671875 116.367188 C 110.890625 116.257813 109.53125 114.722656 109.640625 112.941406 C 109.75 111.15625 111.285156 109.800781 113.066406 109.910156 L 110.839844 109.910156 C 110.992188 109.984375 111.070313 110.152344 111.035156 110.320313 C 110.996094 110.484375 110.847656 110.601563 110.679688 110.601563 C 110.507813 110.601563 110.363281 110.484375 110.324219 110.320313 C 110.285156 110.152344 110.367188 109.984375 110.519531 109.910156 C 110.265625 107.890625 108.554688 106.332031 106.480469 106.332031 C 104.234375 106.332031 102.410156 108.160156 102.410156 110.421875 C 102.410156 111.90625 102.082031 113.320313 101.492188 114.585938 C 99.929688 117.929688 96.546875 120.246094 92.621094 120.246094 C 32.816406 58.960938 28.4375 54.5625 28.4375 49.136719 C 28.4375 46.425781 29.527344 43.976563 31.292969 42.199219 C 27.621094 38.328125 27.742188 32.230469 31.5625 28.511719 C 35.382813 24.789063 41.484375 24.832031 45.253906 28.601563 C 49.023438 32.371094 49.066406 38.472656 45.34375 42.292969 C 41.625 46.109375 35.527344 46.230469 31.65625 42.5625 Z M 37.335938 39.464844 "/>
<path style=" stroke:none;fill-rule:nonzero;fill:rgb(0,87,152);fill-opacity:1;" d="M 52.027344 55.996094 C 36.5625 56.203125 23.859375 43.839844 23.648438 28.378906 C 23.441406 12.914063 35.804688 0.210938 51.269531 0 L 52.402344 -2.03125 C 53.9375 -3.589844 56.390625 -3.773438 58.140625 -2.460938 C 59.894531 -1.148438 60.40625 1.257813 59.339844 3.171875 C 58.273438 5.082031 55.957031 5.910156 53.917969 5.109375 C 51.878906 4.308594 50.746094 2.125 51.269531 0 C 53.375 0 55.144531 -1.492188 55.644531 -3.511719 L 57.953125 -3.511719 C 57.417969 -0.191406 54.628906 2.339844 51.269531 2.339844 Z M 52.027344 55.996094 "/>
<path style=" stroke:none;fill-rule:evenodd;fill:rgb(0,87,152);fill-opacity:1;" d="M 48.609375 55.34375 C 33.328125 68.765625 10.058594 67.257813 -3.367188 51.976563 C -16.789063 36.695313 -15.28125 13.421875 0 0 L 1.132813 -2.03125 C 2.238281 -3.136719 4.035156 -3.136719 5.140625 -2.03125 C 6.25 -0.925781 6.25 0.871094 5.140625 1.976563 C 7.070313 1.976563 8.699219 0.613281 9.164063 -1.257813 C 10.058594 1.621094 8.449219 4.679688 5.570313 5.570313 C 2.695313 6.464844 -0.363281 4.855469 -1.257813 1.976563 L 1.050781 1.976563 C 1.050781 2.613281 0.535156 3.132813 -0.101563 3.132813 C -0.738281 3.132813 -1.257813 2.613281 -1.257813 1.976563 C -1.820313 5.464844 -4.753906 8.136719 -8.304688 8.136719 C -4.808594 6.804688 -0.886719 8.488281 0.558594 11.9375 C 2 15.390625 0.441406 19.363281 -2.960938 20.914063 C -6.367188 22.46875 -10.386719 21.035156 -12.046875 17.683594 C -13.703125 14.328125 -12.402344 10.265625 -9.101563 8.5 Z M 58.644531 50.507813 C 57.96875 53.648438 55.261719 55.996094 52.027344 55.996094 C 38.910156 56.203125 28.109375 45.742188 27.902344 32.628906 C 27.691406 19.511719 38.152344 8.710938 51.269531 8.5 L 52.402344 6.46875 C 53.9375 4.910156 56.390625 4.722656 58.140625 6.035156 C 59.894531 7.347656 60.40625 9.753906 59.339844 11.667969 C 58.277344 13.582031 55.960938 14.410156 53.921875 13.609375 C 51.882813 12.8125 50.75 10.628906 51.269531 8.5 C 53.375 8.5 55.144531 7.007813 55.648438 4.992188 L 57.957031 4.992188 C 58.476563 1.382813 61.605469 -1.273438 65.25 -1.199219 C 68.894531 -1.125 71.914063 1.652344 72.289063 5.277344 C 72.664063 8.902344 70.28125 12.242188 66.730469 13.058594 C 63.175781 13.878906 59.570313 11.925781 58.320313 8.5 Z M 58.644531 50.507813 "/>
<path style=" stroke:none;fill-rule:nonzero;fill:rgb(83,182,255);fill-opacity:1;" d="M 44.058594 44.941406 C 45.046875 47.539063 44.5 50.46875 42.644531 52.535156 L 42.644531 39.738281 C 44.308594 39.828125 45.867188 40.324219 47.207031 41.121094 C 48.199219 41.710938 49.078125 42.46875 49.796875 43.355469 L 48.144531 44.941406 Z M 44.058594 44.941406 "/>
<path style=" stroke:none;fill-rule:evenodd;fill:rgb(83,182,255);fill-opacity:1;" d="M 44.027344 45.304688 C 45.972656 45.34375 47.515625 46.953125 47.476563 48.898438 C 47.4375 50.84375 45.828125 52.386719 43.886719 52.347656 L 51.113281 59.578125 L 51.476563 59.578125 L 51.476563 39.738281 C 56.957031 39.738281 61.398438 44.179688 61.398438 49.65625 C 61.398438 55.136719 56.957031 59.578125 51.476563 59.578125 C 53.207031 59.667969 54.816406 60.183594 56.210938 61.007813 C 57.238281 61.621094 58.148438 62.40625 58.894531 63.324219 C 57.859375 63.191406 57.128906 62.238281 57.265625 61.203125 C 57.402344 60.167969 58.351563 59.441406 59.386719 59.578125 L 57.738281 61.164063 C 57.300781 61.136719 56.96875 60.757813 56.996094 60.320313 C 57.023438 59.882813 57.402344 59.546875 57.839844 59.578125 Z M 43.828125 44.65625 C 43.90625 44.75 43.984375 44.84375 44.058594 44.941406 L 45.707031 43.355469 C 46.894531 46.828125 46.03125 50.671875 43.472656 53.304688 L 43.472656 55.542969 C 45.015625 55.652344 46.429688 56.214844 47.574219 57.089844 C 48.007813 57.425781 48.402344 57.804688 48.746094 58.21875 Z M 43.828125 44.65625 "/>
</g>
</svg>
