<?xml version="1.0" encoding="utf-8"?><svg version="1.1" xmlns="http://www.w3.org/2000/svg" xmlns:xlink="http://www.w3.org/1999/xlink" xmlns:xml="http://www.w3.org/XML/1998/namespace" xmlns:dc="http://purl.org/dc/elements/1.1/" xmlns:cc="http://creativecommons.org/ns#" xmlns:rdf="http://www.w3.org/1999/02/22-rdf-syntax-ns#" xmlns:sodipodi="http://sodipodi.sourceforge.net/DTD/sodipodi-0.dtd" xmlns:inkscape="http://www.inkscape.org/namespaces/inkscape" width="70" height="70" overflow="hidden" viewBox="0, 0, 104, 112" id="svg58" sodipodi:docname="Azure Artifacts_COLOR.svg" inkscape:version="0.92.2 (5c3e80d, 2017-08-06)" style="fill:none;"><metadata id="metadata62" /><sodipodi:namedview id="namedview60" pagecolor="#ffffff" bordercolor="#0075CC" borderopacity="1" objecttolerance="10" gridtolerance="10" guidetolerance="10" inkscape:pageopacity="0" inkscape:pageshadow="2" inkscape:window-width="640" inkscape:window-height="480" showgrid="false" inkscape:zoom="2.4583333" inkscape:cx="48" inkscape:cy="56" inkscape:window-x="0" inkscape:window-y="0" inkscape:window-maximized="0" inkscape:current-layer="svg58" /><defs id="defs26"><filter filterUnits="userSpaceOnUse" primitiveUnits="userSpaceOnUse" x="8" y="-8" width="80" height="64" id="filter0_f" color-interpolation-filters="sRGB"><feFlood flood-opacity="0" result="BackgroundImageFix" id="feFlood2" /><feBlend mode="normal" in2="BackgroundImageFix" in="SourceGraphic" result="shape" id="feBlend4" /><feGaussianBlur stdDeviation="4 4" result="effect1_foregroundBlur" id="feGaussianBlur6" /></filter><filter filterUnits="userSpaceOnUse" primitiveUnits="userSpaceOnUse" x="24" y="40" width="80" height="64" id="filter1_f" color-interpolation-filters="sRGB"><feFlood flood-opacity="0" result="BackgroundImageFix" id="feFlood9" /><feBlend mode="normal" in2="BackgroundImageFix" in="SourceGraphic" result="shape" id="feBlend11" /><feGaussianBlur stdDeviation="4 4" result="effect1_foregroundBlur" id="feGaussianBlur13" /></filter><linearGradient x2="1" gradientUnits="userSpaceOnUse" gradientTransform="matrix(0, 48, -32, 0, 32, 0)" id="paint0_linear"><stop offset="0%" stop-color="#21A0FF" id="stop16" /><stop offset="100%" stop-color="#3DACFF" id="stop18" /></linearGradient><linearGradient x2="1" gradientUnits="userSpaceOnUse" gradientTransform="matrix(0, 96, -96, 0, 96, 0)" id="paint1_linear"><stop offset="0%" stop-color="white" id="stop21" /><stop offset="100%" stop-color="white" stop-opacity="0" id="stop23" /></linearGradient></defs><g transform="translate(0, 8)" id="DevOpsIconArtifacts96"><mask maskUnits="userSpaceOnUse" x="0" y="0" width="96" height="96" id="mask0"><path d="m16 4 c0 -2.20898 1.7909 -4 4 -4 h56 c2.2091 0 4 1.79102 4 4 v44 h12 c2.2091 0 4 1.791 4 4 v40 c0 2.209 -1.7909 4 -4 4 H4 C1.79086 96 0 94.209 0 92 V52 c0 -2.209 1.79086 -4 4 -4 h12 z" id="Union" inkscape:connector-curvature="0" style="fill:white;" /></mask><g id="g55" style="mask:url(#mask0);"><g id="Group"><path d="M0 4 C0 1.79086 1.79086 0 4 0 h40 c2.2091 0 4 1.79086 4 4 v40 c0 2.2091 -1.7909 4 -4 4 H4 C1.79086 48 0 46.2091 0 44 Z" transform="translate(0, 48)" id="Rectangle 2.1" inkscape:connector-curvature="0" style="fill:#005798;" /><path d="m0 0 h8.8 c2.2091 0 4 1.79086 4 4 v38 c0 2.2091 -1.7909 4 -4 4 H0 Z" transform="translate(35.2, 48)" id="Rectangle 2.4" inkscape:connector-curvature="0" style="fill:#00508C;" /><rect x="0" y="0" width="16" height="6" rx="3" transform="translate(16, 56)" id="Rectangle" style="fill:#003F6E;" /></g><g filter="url(#filter0_f)" id="Rectangle 2.4_2"><path d="M0 4 C0 1.79086 1.79086 0 4 0 h56 c2.2091 0 4 1.79086 4 4 V48 H0 Z" transform="translate(16, 0)" id="path34" inkscape:connector-curvature="0" style="fill:#00365E;" /></g><g id="Group 3"><path d="M0 4 C0 1.79086 1.79086 0 4 0 h56 c2.2091 0 4 1.79086 4 4 V48 H0 Z" transform="translate(16, 0)" id="Rectangle 2.3" inkscape:connector-curvature="0" style="fill:#0073C8;" /><rect x="0" y="0" width="16" height="6" rx="3" transform="translate(32, 10)" id="Rectangle_2" style="fill:#00599C;" /><path d="m0 0 h12 c2.2091 0 4 1.79086 4 4 V48 H0 Z" transform="translate(64, 0)" id="Rectangle 2" inkscape:connector-curvature="0" style="fill:#0065B0;" /></g><g filter="url(#filter1_f)" id="Rectangle 2_2" opacity="0.5"><path d="m0 0 h60 c2.2091 0 4 1.79086 4 4 v40 c0 2.2091 -1.7909 4 -4 4 H4 C1.79086 48 0 46.2091 0 44 Z" transform="translate(32, 48)" id="path41" inkscape:connector-curvature="0" style="fill:#002F52;" /></g><g id="Group 2"><path d="m0 0 h60 c2.2091 0 4 1.79086 4 4 v40 c0 2.2091 -1.7909 4 -4 4 H4 C1.79086 48 0 46.2091 0 44 Z" transform="translate(32, 48)" id="Rectangle 2.4_3" inkscape:connector-curvature="0" style="fill:#3DACFF;" /><path d="M4.57143 48 H32 V0 H0 V43.8261 C0 46.1311 2.0467 48 4.57143 48 Z" transform="translate(32, 48)" id="Intersect" inkscape:connector-curvature="0" style="fill:url(#paint0_linear);" /><rect x="0" y="0" width="16" height="6" rx="3" transform="translate(48, 56)" id="Rectangle_3" style="fill:#0072C6;" /><path d="m0 0 h12 c2.2091 0 4 1.79086 4 4 v40 c0 2.2091 -1.7909 4 -4 4 H0 Z" transform="translate(80, 48)" id="Rectangle 2.3_2" inkscape:connector-curvature="0" style="fill:#21A0FF;" /></g><g transform="translate(40, 76)" id="Union_2"><path d="M24 0 H0 v4 h24 z" id="path49" inkscape:connector-curvature="0" style="fill:#6DC1FF;" /><path d="M14 8 H0 v4 h14 z" id="path51" inkscape:connector-curvature="0" style="fill:#6DC1FF;" /></g><path d="m16 4 c0 -2.20898 1.7909 -4 4 -4 h56 c2.2091 0 4 1.79102 4 4 v44 h12 c2.2091 0 4 1.791 4 4 v40 c0 2.209 -1.7909 4 -4 4 H4 C1.79086 96 0 94.209 0 92 V52 c0 -2.209 1.79086 -4 4 -4 h12 z" id="Union_3" opacity="0.2" inkscape:connector-curvature="0" style="fill:url(#paint1_linear);" /></g></g></svg>