<?xml version="1.0" encoding="utf-8" standalone="no"?><svg xmlns:dc="http://purl.org/dc/elements/1.1/" xmlns:cc="http://creativecommons.org/ns#" xmlns:rdf="http://www.w3.org/1999/02/22-rdf-syntax-ns#" xmlns:svg="http://www.w3.org/2000/svg" xmlns="http://www.w3.org/2000/svg" xmlns:sodipodi="http://sodipodi.sourceforge.net/DTD/sodipodi-0.dtd" xmlns:inkscape="http://www.inkscape.org/namespaces/inkscape" version="1.1" width="100%" height="70" viewBox="0 0 104 112" overflow="hidden" id="svg58" sodipodi:docname="Azure Artifacts_COLOR.svg" style="overflow:hidden;fill:none" inkscape:version="0.92.2 (5c3e80d, 2017-08-06)" preserveAspectRatio="xMidYMid meet"><metadata id="metadata62"><rdf:RDF><cc:Work rdf:about=""><dc:format>image/svg+xml</dc:format><dc:type rdf:resource="http://purl.org/dc/dcmitype/StillImage" /></cc:Work></rdf:RDF></metadata><sodipodi:namedview pagecolor="#FFFFFF" bordercolor="#0075CC" borderopacity="1" objecttolerance="10" gridtolerance="10" guidetolerance="10" inkscape:pageopacity="0" inkscape:pageshadow="2" inkscape:window-width="640" inkscape:window-height="480" id="namedview60" showgrid="false" inkscape:zoom="2.4583333" inkscape:cx="48" inkscape:cy="56" inkscape:window-x="0" inkscape:window-y="0" inkscape:window-maximized="0" inkscape:current-layer="svg58" /><defs id="defs26"><filter id="filter0_f" x="8" y="-8" width="80" height="64" filterUnits="userSpaceOnUse" primitiveUnits="userSpaceOnUse" style="color-interpolation-filters:sRGB"><feFlood flood-opacity="0" result="BackgroundImageFix" id="feFlood2" /><feBlend in="SourceGraphic" in2="BackgroundImageFix" result="shape" mode="normal" id="feBlend4" /><feGaussianBlur result="effect1_foregroundBlur" stdDeviation="4 4" id="feGaussianBlur6" /></filter><filter id="filter1_f" x="24" y="40" width="80" height="64" filterUnits="userSpaceOnUse" primitiveUnits="userSpaceOnUse" style="color-interpolation-filters:sRGB"><feFlood flood-opacity="0" result="BackgroundImageFix" id="feFlood9" /><feBlend in="SourceGraphic" in2="BackgroundImageFix" result="shape" mode="normal" id="feBlend11" /><feGaussianBlur result="effect1_foregroundBlur" stdDeviation="4 4" id="feGaussianBlur13" /></filter><linearGradient x2="1" gradientUnits="userSpaceOnUse" id="paint0_linear" gradientTransform="matrix(0,48,-32,0,32,0)"><stop offset="0" stop-color="#21A0FF" id="stop16" /><stop offset="1" stop-color="#3DACFF" id="stop18" /></linearGradient><linearGradient x2="1" gradientUnits="userSpaceOnUse" id="paint1_linear" gradientTransform="matrix(0,96,-96,0,96,0)"><stop offset="0" stop-color="#FFFFFF" id="stop21" /><stop offset="1" stop-color="#FFFFFF" stop-opacity="0" id="stop23" /></linearGradient></defs><g id="DevOpsIconArtifacts96" transform="translate(0,8)"><mask maskUnits="userSpaceOnUse" x="0" y="0" width="96" height="96" id="mask0"><path d="m 16,4 c 0,-2.20898 1.7909,-4 4,-4 h 56 c 2.2091,0 4,1.79102 4,4 v 44 h 12 c 2.2091,0 4,1.791 4,4 v 40 c 0,2.209 -1.7909,4 -4,4 H 4 C 1.79086,96 0,94.209 0,92 V 52 c 0,-2.209 1.79086,-4 4,-4 h 12 z" id="Union" inkscape:connector-curvature="0" style="fill:#FFFFFF" /></mask><g mask="url(#mask0)" id="g55"><g id="Group"><path d="M 0,4 C 0,1.79086 1.79086,0 4,0 h 40 c 2.2091,0 4,1.79086 4,4 v 40 c 0,2.2091 -1.7909,4 -4,4 H 4 C 1.79086,48 0,46.2091 0,44 Z" id="Rectangle 2.1" transform="translate(0,48)" inkscape:connector-curvature="0" style="fill:#005798" /><path d="m 0,0 h 8.8 c 2.2091,0 4,1.79086 4,4 v 38 c 0,2.2091 -1.7909,4 -4,4 H 0 Z" id="Rectangle 2.4" transform="translate(35.2,48)" inkscape:connector-curvature="0" style="fill:#00508C" /><rect x="0" y="0" rx="3" width="16" height="6" id="Rectangle" transform="translate(16,56)" style="fill:#003F6E" /></g><g id="Rectangle 2.4_2" style="filter:url(#filter0_f)"><path d="M 0,4 C 0,1.79086 1.79086,0 4,0 h 56 c 2.2091,0 4,1.79086 4,4 V 48 H 0 Z" transform="translate(16)" id="path34" inkscape:connector-curvature="0" style="fill:#00365E" /></g><g id="Group 3"><path d="M 0,4 C 0,1.79086 1.79086,0 4,0 h 56 c 2.2091,0 4,1.79086 4,4 V 48 H 0 Z" id="Rectangle 2.3" transform="translate(16)" inkscape:connector-curvature="0" style="fill:#0073C8" /><rect x="0" y="0" rx="3" width="16" height="6" id="Rectangle_2" transform="translate(32,10)" style="fill:#00599C" /><path d="m 0,0 h 12 c 2.2091,0 4,1.79086 4,4 V 48 H 0 Z" id="Rectangle 2" transform="translate(64)" inkscape:connector-curvature="0" style="fill:#0065B0" /></g><g id="Rectangle 2_2" style="opacity:0.5;filter:url(#filter1_f)"><path d="m 0,0 h 60 c 2.2091,0 4,1.79086 4,4 v 40 c 0,2.2091 -1.7909,4 -4,4 H 4 C 1.79086,48 0,46.2091 0,44 Z" transform="translate(32,48)" id="path41" inkscape:connector-curvature="0" style="fill:#002F52" /></g><g id="Group 2"><path d="m 0,0 h 60 c 2.2091,0 4,1.79086 4,4 v 40 c 0,2.2091 -1.7909,4 -4,4 H 4 C 1.79086,48 0,46.2091 0,44 Z" id="Rectangle 2.4_3" transform="translate(32,48)" inkscape:connector-curvature="0" style="fill:#3DACFF" /><path d="M 4.57143,48 H 32 V 0 H 0 V 43.8261 C 0,46.1311 2.0467,48 4.57143,48 Z" id="Intersect" transform="translate(32,48)" inkscape:connector-curvature="0" style="fill:url(#paint0_linear)" /><rect x="0" y="0" rx="3" width="16" height="6" id="Rectangle_3" transform="translate(48,56)" style="fill:#0072C6" /><path d="m 0,0 h 12 c 2.2091,0 4,1.79086 4,4 v 40 c 0,2.2091 -1.7909,4 -4,4 H 0 Z" id="Rectangle 2.3_2" transform="translate(80,48)" inkscape:connector-curvature="0" style="fill:#21A0FF" /></g><g id="Union_2" transform="translate(40,76)"><path d="M 24,0 H 0 v 4 h 24 z" id="path49" inkscape:connector-curvature="0" style="fill:#6DC1FF" /><path d="M 14,8 H 0 v 4 h 14 z" id="path51" inkscape:connector-curvature="0" style="fill:#6DC1FF" /></g><path d="m 16,4 c 0,-2.20898 1.7909,-4 4,-4 h 56 c 2.2091,0 4,1.79102 4,4 v 44 h 12 c 2.2091,0 4,1.791 4,4 v 40 c 0,2.209 -1.7909,4 -4,4 H 4 C 1.79086,96 0,94.209 0,92 V 52 c 0,-2.209 1.79086,-4 4,-4 h 12 z" id="Union_3" inkscape:connector-curvature="0" style="opacity:0.2;fill:url(#paint1_linear)" /></g></g></svg>