<?xml version="1.0" encoding="utf-8"?><svg version="1.1" xmlns="http://www.w3.org/2000/svg" xmlns:xlink="http://www.w3.org/1999/xlink" xmlns:xml="http://www.w3.org/XML/1998/namespace" width="70" height="70" viewBox="0, 0, 96, 96" id="FxSymbol0-013" class="" role="presentation" focusable="false" data-type="1"><g><title /><path d="M95.866 54.836 c-2.95 10.706 -10.103 14.247 -17.814 17.517 c-0.533 0.225 -1.795 0.647 -3.753 0.647 H41.044 c-6.266 0 -15.81 -0.102 -20.263 -0.153 c-2.448 -0.029 -3.994 -0.715 -4.732 -1.082 C6.727 67.117 1.214 59.594 0.15 50.078 c-0.444 -3.967 -1.397 -20.049 22.098 -26.25 C30.08 9.1 38.695 6.775 49.66 6 c14.096 0 25.844 10.077 27.41 25.58 c7.832 1.551 20.362 9.303 18.796 23.256 z" style="fill:url(#40fd3475-21aa-4a8a-956c-13a617e35008);" /><path d="M89.993 66.496 c0 16.29 -13.206 29.497 -29.497 29.497 C44.206 95.993 31 82.787 31 66.496 C31 50.206 44.206 37 60.496 37 s29.497 13.206 29.497 29.496 z" class="msportalfx-svg-c01" style="fill:white;" /><path d="M60.496 92.112 c14.147 0 25.616 -11.469 25.616 -25.616 S74.643 40.881 60.496 40.881 S34.881 52.35 34.881 66.496 c0 14.147 11.468 25.616 25.615 25.616 z m0 3.88 c16.29 0 29.497 -13.205 29.497 -29.496 C89.993 50.206 76.787 37 60.496 37 C44.206 37 31 50.206 31 66.496 s13.206 29.497 29.496 29.497 z" clip-rule="evenodd" fill-rule="evenodd" style="fill:url(#40fd3475-21aa-4a8a-956c-13a617e35009);" /><path d="M71.43 61.278 c-3.359 0 -6.082 2.734 -6.082 6.107 c0 1.965 -0.435 3.83 -1.214 5.499 c-2.062 4.418 -6.53 7.477 -11.71 7.477 c-7.137 0 -12.923 -5.81 -12.923 -12.976 a12.96 12.96 0 0 1 3.77 -9.16 a12.865 12.865 0 0 1 7.602 -3.724 v3.082 a9.859 9.859 0 0 0 -5.926 3.313 a9.909 9.909 0 0 0 -2.405 6.489 a9.911 9.911 0 0 0 2.75 6.87 a9.835 9.835 0 0 0 7.132 3.053 a9.808 9.808 0 0 0 4.613 -1.145 a9.927 9.927 0 0 0 5.27 -8.778 c0 -2.064 0.68 -3.968 1.827 -5.5 a9.096 9.096 0 0 1 7.296 -3.66 c4.782 0 8.705 3.694 9.091 8.396 h-3.056 c-0.375 -3.012 -2.934 -5.343 -6.035 -5.343 z" style="fill:#417BE9;" /><path d="M64.098 72.96 c-2.077 4.377 -6.523 7.402 -11.674 7.402 c-7.137 0 -12.923 -5.81 -12.923 -12.977 a12.96 12.96 0 0 1 3.77 -9.16 a12.873 12.873 0 0 1 7.602 -3.724 v3.082 a9.859 9.859 0 0 0 -5.927 3.314 a9.908 9.908 0 0 0 -2.405 6.488 a9.912 9.912 0 0 0 2.752 6.87 a9.835 9.835 0 0 0 7.131 3.053 a9.808 9.808 0 0 0 4.613 -1.145 a9.927 9.927 0 0 0 5.27 -8.778 a9.15 9.15 0 0 1 1.826 -5.5 a9.096 9.096 0 0 1 7.297 -3.66 c4.61 0 8.423 3.435 9.036 7.896 c0.023 0.165 0.041 0.332 0.055 0.5 h-3.057 c-0.374 -3.012 -2.933 -5.343 -6.034 -5.343 c-3.36 0 -6.082 2.734 -6.082 6.107 a12.971 12.971 0 0 1 -1.25 5.574 z M51.205 54.125 a0.5 0.5 0 0 1 0.168 0.375 v3.082 a0.5 0.5 0 0 1 -0.422 0.495 a9.358 9.358 0 0 0 -5.625 3.145 a9.408 9.408 0 0 0 -2.284 6.162 a9.41 9.41 0 0 0 2.613 6.524 a9.335 9.335 0 0 0 6.77 2.899 a9.307 9.307 0 0 0 4.377 -1.087 a9.427 9.427 0 0 0 5.005 -8.336 c0 -2.175 0.716 -4.184 1.926 -5.8 a9.597 9.597 0 0 1 7.697 -3.86 c5.046 0 9.182 3.898 9.59 8.855 a0.5 0.5 0 0 1 -0.499 0.542 h-3.057 a0.5 0.5 0 0 1 -0.496 -0.439 c-0.344 -2.766 -2.694 -4.904 -5.538 -4.904 c-3.08 0 -5.582 2.508 -5.582 5.606 c0 2.04 -0.452 3.976 -1.261 5.71 c-2.14 4.587 -6.78 7.767 -12.163 7.767 C45.008 80.862 39 74.826 39 67.385 c0 -3.713 1.496 -7.076 3.915 -9.513 a13.365 13.365 0 0 1 7.898 -3.868 a0.5 0.5 0 0 1 0.392 0.122 z" clip-rule="evenodd" fill-rule="evenodd" style="fill:#417BE9;" /><path d="M71.35 76.794 a9.001 9.001 0 0 1 -4.206 -1.04 l1.554 -2.786 a6 6 0 0 0 2.652 0.616 c2.889 0 5.316 -2.046 6.004 -4.816 h3.166 c-0.737 4.555 -4.562 8.026 -9.17 8.026 z" style="fill:#1453C8;" /><path d="M66.665 75.898 a0.5 0.5 0 0 1 0.042 -0.387 l1.554 -2.786 a0.5 0.5 0 0 1 0.658 -0.206 a5.498 5.498 0 0 0 2.432 0.564 c2.642 0 4.881 -1.873 5.518 -4.435 a0.5 0.5 0 0 1 0.486 -0.38 h3.166 a0.5 0.5 0 0 1 0.494 0.58 c-0.775 4.781 -4.795 8.447 -9.664 8.447 a9.502 9.502 0 0 1 -4.44 -1.097 a0.5 0.5 0 0 1 -0.246 -0.3 z m13.761 -6.629 c-0.927 4.306 -4.638 7.525 -9.075 7.525 a8.995 8.995 0 0 1 -4.206 -1.039 l1.553 -2.787 a6 6 0 0 0 2.653 0.616 c2.888 0 5.315 -2.046 6.004 -4.815 h3.166 a9.906 9.906 0 0 1 -0.095 0.5 z" clip-rule="evenodd" fill-rule="evenodd" style="fill:#1453C8;" /><path d="M60.422 61.635 a10.164 10.164 0 0 0 -1.924 -1.94 a10.414 10.414 0 0 0 -5.621 -2.125 V54.5 c2.285 0.124 4.419 0.8 6.259 1.895 c1.363 0.81 2.565 1.85 3.55 3.063 l-2.264 2.177 z" style="fill:#88AEF1;" /><path d="M60.382 62.133 a0.5 0.5 0 0 1 -0.36 -0.197 a9.658 9.658 0 0 0 -1.83 -1.845 a9.914 9.914 0 0 0 -5.351 -2.022 a0.5 0.5 0 0 1 -0.465 -0.499 V54.5 a0.5 0.5 0 0 1 0.527 -0.5 c2.368 0.128 4.58 0.83 6.488 1.965 c1.413 0.84 2.66 1.918 3.683 3.177 a0.5 0.5 0 0 1 -0.042 0.677 l-2.264 2.176 a0.5 0.5 0 0 1 -0.386 0.139 z m-0.273 -0.892 c0.107 0.128 0.212 0.26 0.313 0.394 l2.263 -2.177 a13.374 13.374 0 0 0 -3.55 -3.063 a13.645 13.645 0 0 0 -6.259 -1.895 v3.07 c2.116 0.15 4.054 0.92 5.622 2.124 c0.594 0.457 1.134 0.976 1.61 1.547 z" clip-rule="evenodd" fill-rule="evenodd" style="fill:#88AEF1;" /><defs /></g><defs><linearGradient x1="45.706" y1="70.355" x2="44.393" y2="6" gradientUnits="userSpaceOnUse" id="40fd3475-21aa-4a8a-956c-13a617e35008"><stop stop-color="#2889E0" /><stop offset="100%" stop-color="#50E6FF" /></linearGradient><linearGradient x1="75.245" y1="91.845" x2="45.287" y2="39.304" gradientUnits="userSpaceOnUse" id="40fd3475-21aa-4a8a-956c-13a617e35009"><stop stop-color="#C398E9" /><stop offset="100%" stop-color="#704CB3" /></linearGradient></defs></svg>