<?xml version="1.0" encoding="UTF-8"?>
<svg xmlns="http://www.w3.org/2000/svg" xmlns:xlink="http://www.w3.org/1999/xlink" width="70pt" height="70pt" viewBox="0 0 70 70" version="1.1">
<g id="surface1">
<path style=" stroke:none;fill-rule:nonzero;fill:rgb(0,116,202);fill-opacity:1;" d="M 49.003906 29.78125 C 54.085938 29.78125 58.707031 31.691406 62.222656 34.828125 L 62.222656 4.003906 C 62.222656 2.445313 60.964844 1.1875 59.410156 1.1875 L 3.527344 1.1875 C 1.96875 1.1875 0.714844 2.445313 0.714844 4.003906 L 0.714844 49.824219 C 0.714844 51.382813 1.96875 52.640625 3.527344 52.640625 L 29.40625 52.640625 C 29.257813 51.667969 29.179688 50.664063 29.179688 49.640625 C 29.171875 38.675781 38.058594 29.78125 49.003906 29.78125 Z M 49.003906 29.78125 "/>
<path style=" stroke:none;fill-rule:nonzero;fill:rgb(27,158,255);fill-opacity:1;" d="M 19.460938 6.351563 L 5.777344 6.351563 L 5.777344 15.023438 L 19.460938 15.023438 Z M 19.460938 6.351563 "/>
<path style=" stroke:none;fill-rule:nonzero;fill:rgb(107,192,255);fill-opacity:1;" d="M 38.269531 6.351563 L 24.585938 6.351563 L 24.585938 15.023438 L 38.269531 15.023438 Z M 38.269531 6.351563 "/>
<path style=" stroke:none;fill-rule:nonzero;fill:rgb(187,226,255);fill-opacity:1;" d="M 19.460938 20.09375 L 5.777344 20.09375 L 5.777344 28.765625 L 19.460938 28.765625 Z M 19.460938 20.09375 "/>
<path style=" stroke:none;fill-rule:nonzero;fill:rgb(0,145,252);fill-opacity:1;" d="M 19.460938 33.832031 L 5.777344 33.832031 L 5.777344 42.378906 L 19.460938 42.378906 Z M 19.460938 33.832031 "/>
<path style=" stroke:none;fill-rule:nonzero;fill:rgb(3,148,255);fill-opacity:1;" d="M 38.269531 20.09375 L 24.585938 20.09375 L 24.585938 28.765625 L 38.269531 28.765625 Z M 38.269531 20.09375 "/>
<path style=" stroke:none;fill-rule:nonzero;fill:rgb(25,157,255);fill-opacity:1;" d="M 57.121094 6.351563 L 43.4375 6.351563 L 43.4375 15.023438 L 57.121094 15.023438 Z M 57.121094 6.351563 "/>
<path style=" stroke:none;fill-rule:nonzero;fill:rgb(0,146,254);fill-opacity:1;" d="M 62.21875 49.824219 L 62.21875 34.835938 C 58.714844 31.699219 54.082031 29.789063 49.003906 29.789063 C 38.054688 29.789063 29.167969 38.675781 29.167969 49.648438 C 29.167969 50.671875 29.246094 51.664063 29.390625 52.648438 L 59.40625 52.648438 C 60.964844 52.640625 62.21875 51.382813 62.21875 49.824219 Z M 62.21875 49.824219 "/>
<path style=" stroke:none;fill-rule:nonzero;fill:rgb(51,168,255);fill-opacity:1;" d="M 62.222656 34.835938 L 62.222656 49.832031 C 62.222656 51.382813 60.96875 52.648438 59.410156 52.648438 L 29.398438 52.648438 C 30.835938 62.1875 39.070313 69.507813 49.007813 69.507813 C 59.964844 69.496094 68.84375 60.609375 68.84375 49.636719 C 68.84375 43.753906 66.28125 38.46875 62.222656 34.835938 Z M 62.222656 34.835938 "/>
<path style=" stroke:none;fill-rule:nonzero;fill:rgb(215,238,255);fill-opacity:1;" d="M 59.195313 39.867188 L 46.765625 52.300781 L 40.382813 45.90625 L 36.566406 49.738281 L 42.953125 56.128906 L 47.011719 60.195313 L 50.824219 56.363281 L 63.253906 43.929688 Z M 59.195313 39.867188 "/>
</g>
</svg>
