<?xml version="1.0" encoding="UTF-8"?>
<svg xmlns="http://www.w3.org/2000/svg" xmlns:xlink="http://www.w3.org/1999/xlink" width="70pt" height="56pt" viewBox="0 0 70 56" version="1.1">
<g id="surface1">
<path style=" stroke:none;fill-rule:nonzero;fill:rgb(0%,44.705882%,77.647059%);fill-opacity:1;" d="M 70.058594 31.851563 C 70.046875 38.175781 64.867188 43.3125 58.441406 43.371094 L 55.269531 43.371094 L 43.808594 26.074219 L 43.808594 15.457031 L 46.035156 15.417969 C 47.21875 15.414063 48.179688 14.46875 48.183594 13.300781 C 48.191406 12.734375 47.96875 12.1875 47.566406 11.785156 C 47.160156 11.378906 46.609375 11.152344 46.035156 11.148438 L 32.832031 11.148438 C 31.648438 11.152344 30.6875 12.097656 30.683594 13.261719 C 30.6875 14.429688 31.648438 15.375 32.832031 15.378906 L 35.058594 15.457031 L 35.058594 26.097656 L 23.410156 43.386719 L 13.859375 43.386719 C 5.699219 42.8125 -0.46875 35.878906 0.0273438 27.835938 C 0.523438 19.796875 7.503906 13.648438 15.675781 14.054688 C 17.9375 14.050781 20.167969 14.566406 22.191406 15.554688 C 22.964844 9.210938 27.160156 3.773438 33.15625 1.335938 C 39.15625 -1.101563 46.023438 -0.160156 51.117188 3.800781 C 56.210938 7.761719 58.734375 14.121094 57.714844 20.429688 L 58.539063 20.429688 C 64.921875 20.457031 70.074219 25.566406 70.058594 31.851563 Z M 70.058594 31.851563 "/>
<path style=" stroke:none;fill-rule:nonzero;fill:rgb(34.901961%,70.588235%,85.098039%);fill-opacity:1;" d="M 54.191406 54.226563 L 24.503906 54.226563 C 24.0625 54.226563 23.652344 53.988281 23.441406 53.605469 C 23.230469 53.222656 23.25 52.753906 23.496094 52.390625 L 33.691406 36.996094 L 44.902344 36.996094 L 55.183594 52.386719 C 55.425781 52.75 55.449219 53.210938 55.242188 53.597656 C 55.035156 53.980469 54.632813 54.222656 54.191406 54.226563 Z M 54.191406 54.226563 "/>
</g>
</svg>
