<?xml version="1.0" encoding="UTF-8"?>
<svg xmlns="http://www.w3.org/2000/svg" xmlns:xlink="http://www.w3.org/1999/xlink" width="70pt" height="70pt" viewBox="0 0 70 70" version="1.1">
<g id="surface1">
<path style=" stroke:none;fill-rule:nonzero;fill:rgb(12.54902%,44.705882%,72.156863%);fill-opacity:1;" d="M 14.742188 43.910156 L 26.835938 43.910156 L 30.863281 37.015625 L 30.863281 29.804688 C 28.742188 28.636719 27.257813 26.410156 27.257813 23.863281 C 27.257813 20.152344 30.335938 17.074219 34.046875 17.074219 L 50.910156 17.074219 C 54.621094 17.074219 57.699219 20.152344 57.699219 23.863281 C 57.699219 26.410156 56.214844 28.742188 54.09375 29.804688 L 54.09375 37.015625 L 58.121094 43.910156 L 62.789063 43.910156 C 66.925781 43.589844 70.320313 40.089844 70.320313 35.742188 C 70.320313 31.183594 66.714844 27.574219 62.152344 27.574219 C 61.835938 27.574219 61.515625 27.574219 61.199219 27.683594 C 61.730469 25.878906 61.941406 23.863281 61.941406 21.847656 C 61.941406 9.757813 52.183594 0 40.304688 0 C 30.757813 0 22.59375 6.257813 19.730469 14.953125 C 18.242188 14.425781 16.546875 14.105469 14.851563 14.105469 C 6.683594 14.105469 0 20.789063 0 29.0625 C -0.105469 37.226563 6.472656 43.910156 14.742188 43.910156 Z M 14.742188 43.910156 "/>
<path style=" stroke:none;fill-rule:nonzero;fill:rgb(12.54902%,44.705882%,72.156863%);fill-opacity:1;" d="M 48.578125 59.925781 C 48.578125 60.746094 47.914063 61.410156 47.09375 61.410156 C 46.273438 61.410156 45.605469 60.746094 45.605469 59.925781 C 45.605469 59.105469 46.273438 58.4375 47.09375 58.4375 C 47.914063 58.4375 48.578125 59.105469 48.578125 59.925781 Z M 48.578125 59.925781 "/>
<path style=" stroke:none;fill-rule:nonzero;fill:rgb(12.54902%,44.705882%,72.156863%);fill-opacity:1;" d="M 65.972656 64.589844 L 50.59375 37.863281 L 50.59375 27.046875 L 50.910156 27.046875 C 52.714844 27.046875 54.199219 25.5625 54.199219 23.757813 C 54.199219 21.953125 52.714844 20.46875 50.910156 20.46875 L 34.046875 20.46875 C 32.242188 20.46875 30.757813 21.953125 30.757813 23.757813 C 30.757813 25.5625 32.242188 27.046875 34.046875 27.046875 L 34.363281 27.046875 L 34.363281 37.863281 L 18.878906 64.589844 C 17.183594 67.5625 18.5625 69.894531 21.957031 69.894531 L 62.894531 69.894531 C 66.289063 69.894531 67.667969 67.453125 65.972656 64.589844 Z M 25.136719 64.0625 L 31.5 53.03125 L 40.410156 53.03125 C 40.199219 53.453125 40.09375 53.878906 40.09375 54.410156 C 40.09375 56.105469 41.472656 57.484375 43.167969 57.484375 C 44.863281 57.484375 46.242188 56.105469 46.242188 54.410156 C 46.242188 53.878906 46.136719 53.453125 45.925781 53.03125 L 53.136719 53.03125 L 59.5 64.0625 Z M 25.136719 64.0625 "/>
</g>
</svg>
