<?xml version="1.0" encoding="utf-8"?><svg version="1.1" xmlns="http://www.w3.org/2000/svg" xmlns:xlink="http://www.w3.org/1999/xlink" xmlns:xml="http://www.w3.org/XML/1998/namespace" xmlns:dc="http://purl.org/dc/elements/1.1/" xmlns:cc="http://creativecommons.org/ns#" xmlns:rdf="http://www.w3.org/1999/02/22-rdf-syntax-ns#" xmlns:sodipodi="http://sodipodi.sourceforge.net/DTD/sodipodi-0.dtd" xmlns:inkscape="http://www.inkscape.org/namespaces/inkscape" width="70" height="70" overflow="hidden" viewBox="0, 0, 103.9999, 104" id="svg64" sodipodi:docname="Azure Pipelines_COLOR.svg" inkscape:version="0.92.2 (5c3e80d, 2017-08-06)" style="fill:none;"><metadata id="metadata68" /><sodipodi:namedview id="namedview66" pagecolor="#ffffff" bordercolor="#666666" borderopacity="1" objecttolerance="10" gridtolerance="10" guidetolerance="10" inkscape:pageopacity="0" inkscape:pageshadow="2" inkscape:window-width="640" inkscape:window-height="480" showgrid="false" inkscape:zoom="2.4583333" inkscape:cx="48" inkscape:cy="48" inkscape:window-x="0" inkscape:window-y="0" inkscape:window-maximized="0" inkscape:current-layer="svg64" /><defs id="defs33"><filter filterUnits="userSpaceOnUse" primitiveUnits="userSpaceOnUse" x="7" y="-8" width="96.9999" height="97" id="filter0_f" color-interpolation-filters="sRGB"><feFlood flood-opacity="0" result="BackgroundImageFix" id="feFlood2" /><feBlend mode="normal" in2="BackgroundImageFix" in="SourceGraphic" result="shape" id="feBlend4" /><feGaussianBlur stdDeviation="4 4" result="effect1_foregroundBlur" id="feGaussianBlur6" /></filter><filter filterUnits="userSpaceOnUse" primitiveUnits="userSpaceOnUse" x="6.29504" y="25.9365" width="63.7677" height="63.7678" id="filter1_f" color-interpolation-filters="sRGB"><feFlood flood-opacity="0" result="BackgroundImageFix" id="feFlood9" /><feBlend mode="normal" in2="BackgroundImageFix" in="SourceGraphic" result="shape" id="feBlend11" /><feGaussianBlur stdDeviation="4 4" result="effect1_foregroundBlur" id="feGaussianBlur13" /></filter><filter filterUnits="userSpaceOnUse" primitiveUnits="userSpaceOnUse" x="50" y="6" width="40" height="40" id="filter2_f" color-interpolation-filters="sRGB"><feFlood flood-opacity="0" result="BackgroundImageFix" id="feFlood16" /><feBlend mode="normal" in2="BackgroundImageFix" in="SourceGraphic" result="shape" id="feBlend18" /><feGaussianBlur stdDeviation="4 4" result="effect1_foregroundBlur" id="feGaussianBlur20" /></filter><linearGradient x2="1" gradientUnits="userSpaceOnUse" gradientTransform="matrix(0, 95.9999, -95.9999, 0, 95.9999, 0)" id="paint0_linear"><stop offset="0%" stop-color="white" id="stop23" /><stop offset="100%" stop-color="white" stop-opacity="0" id="stop25" /></linearGradient><linearGradient x2="1" gradientUnits="userSpaceOnUse" gradientTransform="matrix(0, 95.9999, -95.9999, 0, 95.9999, 0)" id="paint1_linear"><stop offset="0%" stop-color="white" id="stop28" /><stop offset="100%" stop-color="white" stop-opacity="0" id="stop30" /></linearGradient></defs><g transform="translate(0, 8)" id="DevOpsIconPipelines96"><mask maskUnits="userSpaceOnUse" x="0" y="0" width="96" height="96" id="mask0"><g id="Union"><path d="m14 64.416 l4.8301 -5.165 l6.0022 6.0019 l-4.8804 4.8809 l5.914 5.9141 l4.8803 -4.8799 l6.0433 6.0429 L32 82 L46 96 h22 c2.2091 0 4 -1.791 4 -4 V60.0225 L92.442 46.375 c2.223 -1.4834 3.5579 -3.9805 3.5579 -6.6533 V4 c0 -2.20898 -1.7908 -4 -4 -4 H56.2781 C53.6052 0 51.1088 1.33496 49.6246 3.55762 L35.9772 24 H4 c-2.20917 0 -4 1.791 -4 4 v22 z" id="path35" inkscape:connector-curvature="0" style="fill:white;" /><path d="M8 88 V72 H0 v24 h24 v-8 z" id="path37" inkscape:connector-curvature="0" style="fill:white;" /></g></mask><g id="g61" style="mask:url(#mask0);"><path d="M0 0 L7.99999 2.97878E-08 V16.0001 H24 V24 H0 Z" clip-rule="evenodd" transform="translate(0, 72)" id="Flame" fill-rule="evenodd" inkscape:connector-curvature="0" style="fill:#91B0F2;" /><path d="M0 4 V26 L14 40.4156 L20 34 L38 52 L32 58 L46 72 h22 c2.2091 0 4 -1.7909 4 -4 V36 L36 0 H4 C1.79086 0 0 1.79086 0 4 Z" transform="translate(0, 24)" id="Wings" inkscape:connector-curvature="0" style="fill:#0F46BD;" /><g filter="url(#filter0_f)" id="Body"><path d="M0 55.4213 L37 0 h43.9999 v44.0002 l-55.421 37.0002 z" clip-rule="evenodd" transform="translate(15, 0)" id="path43" fill-rule="evenodd" inkscape:connector-curvature="0" style="fill:#062AA9;" /></g><path d="M2.32029 57.7416 C0.971342 56.3927 0.762734 54.2789 1.82198 52.6922 L34.6246 3.55804 C36.1087 1.33497 38.6051 0 41.2781 0 h35.7218 c2.2091 0 4 1.79086 4 4 v35.7222 c0 2.6729 -1.335 5.1693 -3.558 6.6534 L28.308 79.1784 c-1.5866 1.0593 -3.7004 0.8507 -5.0494 -0.4983 z" clip-rule="evenodd" transform="translate(15, 0)" id="Body_2" fill-rule="evenodd" inkscape:connector-curvature="0" style="fill:#2560E0;" /><g filter="url(#filter1_f)" id="Wing shadow"><path d="M0 30.5401 L30.54 0 L36.454 5.91397 L5.91399 36.4541 Z" clip-rule="evenodd" transform="translate(19.9519, 39.5938)" id="path47" fill-rule="evenodd" inkscape:connector-curvature="0" style="fill:#0A44C2;" /></g><path d="M0 30.5401 L30.54 0 L36.454 5.91397 L5.91399 36.4541 Z" clip-rule="evenodd" transform="translate(19.9519, 39.5938)" id="Wing" fill-rule="evenodd" inkscape:connector-curvature="0" style="fill:#729AF2;" /><path d="M5.914 31.5732 L0 25.6592 L25.6595 0 L31.5734 5.91406 Z" transform="translate(24.8325, 39.5938)" id="Intersect" inkscape:connector-curvature="0" style="fill:#4C80F0;" /><g filter="url(#filter2_f)" id="Window shadow"><path d="m12 24.0001 c6.6274 0 12 -5.3726 12 -12 C24 5.37261 18.6274 0 12 0 C5.37258 0 0 5.37261 0 12.0001 c0 6.6274 5.37258 12 12 12 z" transform="translate(58, 14)" id="path52" inkscape:connector-curvature="0" style="fill:#0A44C2;" /></g><path d="m12 24.0001 c6.6274 0 12 -5.3726 12 -12 C24 5.37261 18.6274 0 12 0 C5.37258 0 0 5.37261 0 12.0001 c0 6.6274 5.37258 12 12 12 z" transform="translate(58, 14)" id="Window" inkscape:connector-curvature="0" style="fill:#91B0F2;" /><g id="Union_2" opacity="0.2"><path d="m14 64.416 l4.8301 -5.165 l6.0022 6.0019 l-4.8804 4.8809 l5.914 5.9141 l4.8803 -4.8799 l6.0433 6.0429 L32 82 L46 96 h22 c2.2091 0 4 -1.791 4 -4 V60.0225 L92.442 46.375 c2.223 -1.4834 3.5579 -3.9805 3.5579 -6.6533 V4 c0 -2.20898 -1.7908 -4 -4 -4 H56.2781 C53.6052 0 51.1088 1.33496 49.6246 3.55762 L35.9772 24 H4 c-2.20917 0 -4 1.791 -4 4 v22 z" id="path56" inkscape:connector-curvature="0" style="fill:url(#paint0_linear);" /><path d="M8 88 V72 H0 v24 h24 v-8 z" id="path58" inkscape:connector-curvature="0" style="fill:url(#paint1_linear);" /></g></g></g></svg>