<?xml version="1.0" encoding="UTF-8"?>
<svg xmlns="http://www.w3.org/2000/svg" xmlns:xlink="http://www.w3.org/1999/xlink" width="70pt" height="70pt" viewBox="0 0 70 70" version="1.1">
<g id="surface1">
<path style=" stroke:none;fill-rule:nonzero;fill:rgb(0,137,238);fill-opacity:1;" d="M 46.230469 8.988281 L 24.320313 8.988281 L 24.320313 20.085938 L 46.230469 20.085938 Z M 46.230469 8.988281 "/>
<path style=" stroke:none;fill-rule:nonzero;fill:rgb(0,77,134);fill-opacity:1;" d="M 67.121094 56.433594 L 62.53125 48.539063 L 42.914063 48.539063 C 42.914063 48.585938 42.914063 48.628906 42.914063 48.675781 C 42.914063 55.175781 37.582031 60.449219 31.003906 60.449219 C 24.429688 60.449219 19.097656 55.175781 19.097656 48.675781 C 19.097656 48.628906 19.097656 48.585938 19.097656 48.539063 L 8.242188 48.539063 L 3.683594 56.480469 C 0.445313 62.136719 4.566406 69.140625 11.144531 69.140625 L 59.691406 69.140625 C 66.28125 69.140625 70.40625 62.089844 67.121094 56.433594 Z M 67.121094 56.433594 "/>
<path style=" stroke:none;fill-rule:nonzero;fill:rgb(5,148,255);fill-opacity:1;" d="M 19.113281 48.691406 C 19.113281 55.191406 24.445313 60.460938 31.019531 60.460938 C 37.597656 60.460938 42.929688 55.191406 42.929688 48.691406 C 42.929688 48.644531 42.929688 48.597656 42.929688 48.550781 L 19.113281 48.550781 C 19.113281 48.597656 19.113281 48.644531 19.113281 48.691406 Z M 19.113281 48.691406 "/>
<path style=" stroke:none;fill-rule:nonzero;fill:rgb(0,139,242);fill-opacity:1;" d="M 31.003906 36.917969 C 31.625 36.917969 32.230469 36.964844 32.820313 37.054688 C 33.5 34.082031 36.199219 31.859375 39.410156 31.859375 C 43.144531 31.859375 46.167969 34.847656 46.167969 38.542969 C 46.167969 41.257813 44.527344 43.585938 42.183594 44.644531 C 42.632813 45.871094 42.882813 47.171875 42.898438 48.554688 L 62.511719 48.554688 L 46.230469 20.546875 L 46.230469 20.085938 L 24.320313 20.085938 L 24.320313 20.546875 L 8.242188 48.539063 L 19.113281 48.539063 C 19.1875 42.113281 24.476563 36.917969 31.003906 36.917969 Z M 31.003906 36.917969 "/>
<path style=" stroke:none;fill-rule:nonzero;fill:rgb(119,197,255);fill-opacity:1;" d="M 39.410156 45.226563 C 35.671875 45.226563 32.648438 42.234375 32.648438 38.542969 C 32.648438 38.035156 32.710938 37.53125 32.820313 37.054688 C 32.230469 36.960938 31.625 36.917969 31.003906 36.917969 C 24.476563 36.917969 19.191406 42.113281 19.113281 48.535156 L 42.914063 48.535156 C 42.898438 47.171875 42.652344 45.855469 42.199219 44.628906 C 41.347656 45.011719 40.402344 45.226563 39.410156 45.226563 Z M 39.410156 45.226563 "/>
<path style=" stroke:none;fill-rule:nonzero;fill:rgb(85,182,255);fill-opacity:1;" d="M 42.183594 44.628906 C 44.539063 43.585938 46.167969 41.242188 46.167969 38.527344 C 46.167969 34.832031 43.144531 31.84375 39.40625 31.84375 C 36.183594 31.84375 33.5 34.066406 32.816406 37.039063 C 37.144531 37.699219 40.710938 40.675781 42.183594 44.628906 Z M 42.183594 44.628906 "/>
<path style=" stroke:none;fill-rule:nonzero;fill:rgb(181,223,255);fill-opacity:1;" d="M 39.40625 45.226563 C 40.398438 45.226563 41.328125 45.011719 42.179688 44.628906 C 40.707031 40.65625 37.140625 37.699219 32.816406 37.039063 C 32.707031 37.515625 32.644531 38.019531 32.644531 38.527344 C 32.644531 42.234375 35.667969 45.226563 39.40625 45.226563 Z M 39.40625 45.226563 "/>
<path style=" stroke:none;fill-rule:nonzero;fill:rgb(73,177,255);fill-opacity:1;" d="M 24.320313 1.996094 L 22.753906 1.996094 C 21.714844 1.996094 20.875 2.824219 20.875 3.851563 L 20.875 5.046875 C 20.875 6.074219 21.714844 6.902344 22.753906 6.902344 L 24.320313 6.902344 Z M 24.320313 1.996094 "/>
<path style=" stroke:none;fill-rule:nonzero;fill:rgb(73,177,255);fill-opacity:1;" d="M 49.484375 5.046875 L 49.484375 3.851563 C 49.484375 2.824219 48.648438 1.996094 47.609375 1.996094 L 46.226563 1.996094 L 46.226563 6.902344 L 47.609375 6.902344 C 48.648438 6.902344 49.484375 6.074219 49.484375 5.046875 Z M 49.484375 5.046875 "/>
<path style=" stroke:none;fill-rule:nonzero;fill:rgb(11,151,255);fill-opacity:1;" d="M 46.230469 1.996094 L 24.320313 1.996094 L 24.320313 6.902344 L 46.230469 6.902344 Z M 46.230469 1.996094 "/>
<path style=" stroke:none;fill-rule:nonzero;fill:rgb(0,123,214);fill-opacity:1;" d="M 46.230469 6.902344 L 24.320313 6.902344 L 24.320313 8.988281 L 46.230469 8.988281 Z M 46.230469 6.902344 "/>
</g>
</svg>
