<?xml version="1.0" encoding="UTF-8"?>
<svg xmlns="http://www.w3.org/2000/svg" xmlns:xlink="http://www.w3.org/1999/xlink" width="46pt" height="70pt" viewBox="0 0 46 70" version="1.1">
<defs>
<filter id="alpha" filterUnits="objectBoundingBox" x="0%" y="0%" width="100%" height="100%">
  <feColorMatrix type="matrix" in="SourceGraphic" values="0 0 0 0 1 0 0 0 0 1 0 0 0 0 1 0 0 0 1 0"/>
</filter>
<mask id="mask0">
  <g filter="url(#alpha)">
<rect x="0" y="0" width="46" height="70" style="fill:rgb(0%,0%,0%);fill-opacity:0.65098;stroke:none;"/>
  </g>
</mask>
<clipPath id="clip1">
  <rect x="0" y="0" width="46" height="70"/>
</clipPath>
<g id="surface5" clip-path="url(#clip1)">
<path style=" stroke:none;fill-rule:nonzero;fill:rgb(100%,100%,100%);fill-opacity:1;" d="M 26.539063 49.296875 L 23.75 49.296875 L 23.75 31.515625 L 21.378906 31.515625 L 21.378906 49.15625 L 18.59375 49.15625 L 18.59375 31.515625 L 16.222656 31.515625 C 13.433594 31.515625 11.066406 29.136719 11.066406 26.335938 C 11.066406 23.535156 13.296875 21.15625 16.222656 21.15625 C 19.152344 21.15625 21.378906 23.535156 21.378906 26.335938 L 21.378906 28.714844 L 23.75 28.714844 L 23.75 26.335938 C 23.75 23.535156 26.121094 21.15625 28.90625 21.15625 C 31.695313 21.15625 34.066406 23.535156 34.066406 26.335938 C 34.066406 29.136719 31.695313 31.515625 28.90625 31.515625 L 26.539063 31.515625 Z M 16.222656 23.957031 C 14.96875 23.957031 13.855469 24.9375 13.855469 26.335938 C 13.855469 27.597656 14.96875 28.714844 16.222656 28.714844 L 18.59375 28.714844 L 18.59375 26.335938 C 18.453125 25.078125 17.476563 23.957031 16.222656 23.957031 Z M 28.90625 23.957031 C 27.652344 23.957031 26.539063 25.078125 26.539063 26.335938 L 26.539063 28.714844 L 28.90625 28.714844 C 30.164063 28.714844 31.277344 27.597656 31.277344 26.335938 C 31.277344 25.078125 30.300781 23.957031 28.90625 23.957031 Z M 28.90625 23.957031 "/>
</g>
<mask id="mask1">
  <g filter="url(#alpha)">
<rect x="0" y="0" width="46" height="70" style="fill:rgb(0%,0%,0%);fill-opacity:0.14902;stroke:none;"/>
  </g>
</mask>
<clipPath id="clip2">
  <rect x="0" y="0" width="46" height="70"/>
</clipPath>
<g id="surface8" clip-path="url(#clip2)">
<path style=" stroke:none;fill-rule:nonzero;fill:rgb(100%,100%,100%);fill-opacity:1;" d="M 24.867188 0.15625 C 24.585938 -0.265625 18.175781 0.296875 18.175781 0.296875 C 8 1.554688 0.0546875 10.097656 0.0546875 20.035156 C 0.0546875 20.316406 -0.921875 27.175781 5.488281 33.476563 L 35.597656 3.234375 C 32.394531 1.277344 28.769531 0.15625 24.867188 0.15625 Z M 24.867188 0.15625 "/>
</g>
</defs>
<g id="surface1">
<path style=" stroke:none;fill-rule:nonzero;fill:rgb(40.784314%,12.941176%,47.843137%);fill-opacity:1;" d="M 45.355469 20.457031 L 45.355469 20.035156 C 45.355469 9.257813 36.15625 0.296875 24.867188 0.15625 C 24.585938 -0.265625 18.175781 0.296875 18.175781 0.296875 C 8 1.554688 0.0546875 10.097656 0.0546875 20.035156 C 0.0546875 20.316406 -1.0625 28.15625 6.882813 34.734375 C 10.507813 37.957031 14.273438 46.636719 14.828125 49.15625 L 15.246094 49.996094 L 30.023438 49.996094 L 30.441406 49.15625 C 31 46.636719 34.902344 37.957031 38.386719 34.875 C 46.332031 28.15625 45.355469 20.734375 45.355469 20.457031 Z M 45.355469 20.457031 "/>
<path style=" stroke:none;fill-rule:nonzero;fill:rgb(47.843137%,47.843137%,47.843137%);fill-opacity:1;" d="M 15.527344 55.035156 L 30.300781 55.035156 L 30.300781 59.796875 L 15.527344 59.796875 Z M 15.527344 55.035156 "/>
<path style=" stroke:none;fill-rule:nonzero;fill:rgb(47.843137%,47.843137%,47.843137%);fill-opacity:1;" d="M 30.164063 64.976563 L 15.527344 64.976563 L 20.125 69.875 L 25.5625 69.875 Z M 30.164063 64.976563 "/>
<use xlink:href="#surface5" mask="url(#mask0)"/>
<use xlink:href="#surface8" mask="url(#mask1)"/>
</g>
</svg>
