<?xml version="1.0" encoding="utf-8"?><svg version="1.1" xmlns="http://www.w3.org/2000/svg" xmlns:xlink="http://www.w3.org/1999/xlink" xmlns:xml="http://www.w3.org/XML/1998/namespace" xmlns:dc="http://purl.org/dc/elements/1.1/" xmlns:cc="http://creativecommons.org/ns#" xmlns:rdf="http://www.w3.org/1999/02/22-rdf-syntax-ns#" xmlns:sodipodi="http://sodipodi.sourceforge.net/DTD/sodipodi-0.dtd" xmlns:inkscape="http://www.inkscape.org/namespaces/inkscape" width="70" height="70" overflow="hidden" viewBox="0, 0, 104.526, 116.1163" id="svg41" sodipodi:docname="Azure Test Plans_COLOR.svg" inkscape:version="0.92.2 (5c3e80d, 2017-08-06)" style="fill:none;"><metadata id="metadata45" /><sodipodi:namedview id="namedview43" pagecolor="#ffffff" bordercolor="#666666" borderopacity="1" objecttolerance="10" gridtolerance="10" guidetolerance="10" inkscape:pageopacity="0" inkscape:pageshadow="2" inkscape:window-width="640" inkscape:window-height="480" showgrid="false" inkscape:zoom="2.4583333" inkscape:cx="56.29289" inkscape:cy="68.116302" inkscape:window-x="0" inkscape:window-y="0" inkscape:window-maximized="0" inkscape:current-layer="svg41" /><defs id="defs19"><filter filterUnits="userSpaceOnUse" primitiveUnits="userSpaceOnUse" x="-8.29289" y="11.8833" width="104.526" height="104.233" id="filter0_f" color-interpolation-filters="sRGB"><feFlood flood-opacity="0" result="BackgroundImageFix" id="feFlood2" /><feBlend mode="normal" in2="BackgroundImageFix" in="SourceGraphic" result="shape" id="feBlend4" /><feGaussianBlur stdDeviation="16.0584 16.0584" result="effect1_foregroundBlur" id="feGaussianBlur6" /></filter><linearGradient x2="1" gradientUnits="userSpaceOnUse" gradientTransform="matrix(0.000253165, -8, 16.117, 0.000125664, 2.01437, 7.99976)" id="paint0_linear"><stop offset="0%" stop-color="#7B3FC0" id="stop9" /><stop offset="100%" stop-color="#6724B4" id="stop11" /></linearGradient><linearGradient x2="1" gradientUnits="userSpaceOnUse" gradientTransform="matrix(0, 96, -94, 0, 94, 0)" id="paint1_linear"><stop offset="0%" stop-color="white" id="stop14" /><stop offset="100%" stop-color="white" stop-opacity="0" id="stop16" /></linearGradient></defs><g transform="translate(8.29289, 0)" id="DevOpsIconTestPlans96"><mask maskUnits="userSpaceOnUse" x="1" y="0" width="94" height="96" id="mask0"><path d="m26.8538 2 c0 -1.105469 0.9021 -2 2.0147 -2 h36.2631 c1.1126 0 2.0146 0.894531 2.0146 2 v4 c0 1.10547 -0.902 2 -2.0146 2 H63.117 V27.7109 L92.3624 78 c4.6527 8 -1.163 18 -10.468 18 H12.1057 C2.80063 96 -3.01501 86 1.63741 78 L30.8831 27.7109 V8 H28.8685 C27.7559 8 26.8538 7.10547 26.8538 6 Z" transform="translate(1, 0)" id="Mask" inkscape:connector-curvature="0" style="fill:white;" /></mask><g id="g38" style="mask:url(#mask0);"><g id="Beaker"><path d="m36.5317 6 c4.6526 -8 16.284 -8 20.9366 0 l34.8942 60 c4.6526 8 -1.1632 18 -10.4683 18 H12.1058 C2.80062 84 -3.01508 74 1.63748 66 Z" transform="translate(1, 12)" id="Polygon" inkscape:connector-curvature="0" style="fill:#854CC7;" /><path d="M32.2339 20 V0 H0 v20 z" transform="translate(31.8831, 8)" id="Vector" inkscape:connector-curvature="0" style="fill:url(#paint0_linear);" /><path d="M0 2.0073 C0 0.898697 0.898697 0 2.0073 0 h36.2778 c1.1086 0 2.0073 0.898697 2.0073 2.0073 V5.9927 C40.2924 7.1013 39.3937 8 38.2851 8 H2.0073 C0.898699 8 0 7.1013 0 5.9927 Z" transform="translate(27.8538, 0)" id="Rectangle 2.1" inkscape:connector-curvature="0" style="fill:#A676DF;" /><path d="M32.2339 8 H0 V0 h32.2339 z" clip-rule="evenodd" transform="translate(31.8831, 0)" id="Vector 2 (Stroke).1" fill-rule="evenodd" inkscape:connector-curvature="0" style="fill:#854CC7;" /></g><path d="m86.5468 0 l5.8157 10 c4.6526 8 -1.1631 18 -10.4683 18 H12.1058 C2.80061 28 -3.01506 18 1.63746 10 L7.4532 0 Z" clip-rule="evenodd" transform="translate(0.999756, 68)" id="Liquid" fill-rule="evenodd" inkscape:connector-curvature="0" style="fill:#5F1FAA;" /><g filter="url(#filter0_f)" id="Union" opacity="0.5"><path d="M31.698 19.8945 C36.5605 19.1836 40.2929 15.0234 40.2929 10 C40.2929 4.47656 35.7831 0 30.2198 0 C25.1586 0 20.9696 3.70312 20.2544 8.53125 C18.934 8.18359 17.5473 8 16.117 8 C7.21569 8 0 15.1641 0 24 c0 8.8359 7.21569 16 16.117 16 c8.9012 0 16.1169 -7.1641 16.1169 -16 c0 -1.418 -0.1862 -2.793 -0.5359 -4.1055 z" transform="translate(23.8239, 44)" id="path29" inkscape:connector-curvature="0" style="fill:#4D008A;" /></g><g id="Bubbles"><path d="M10.0731 20 C15.6363 20 20.1462 15.5228 20.1462 10 C20.1462 4.47715 15.6363 0 10.0731 0 C4.50988 0 0 4.47715 0 10 C0 15.5228 4.50988 20 10.0731 20 Z" transform="translate(43.9705, 44)" id="Vector_2" inkscape:connector-curvature="0" style="fill:#B68CE6;" /><path d="M20.1462 40 C31.2726 40 40.2924 31.0457 40.2924 20 C40.2924 8.9543 31.2726 0 20.1462 0 C9.01976 0 0 8.9543 0 20 C0 31.0457 9.01976 40 20.1462 40 Z" transform="matrix(0.8, 0, 0, 0.8, 23.8239, 52)" id="Vector_3" inkscape:connector-curvature="0" style="fill:#C9A4F3;" /><path d="m32.2339 0 c0 8.83691 -7.2158 16 -16.117 16 C7.21582 16 0 8.83691 0 0 Z" transform="translate(23.8239, 68)" id="Intersect" inkscape:connector-curvature="0" style="fill:#9B60DB;" /><path d="m11.5514 11.3613 c-0.4825 0.0703 -0.9761 0.1065 -1.4783 0.1065 C4.50989 11.4678 0 6.99023 0 1.46777 C0 0.96875 0.0368042 0.479492 0.107788 0 C5.68402 1.46582 10.0748 5.82519 11.5514 11.3613 Z" clip-rule="evenodd" transform="translate(43.9705, 52.5322)" id="Intersect_2" fill-rule="evenodd" inkscape:connector-curvature="0" style="fill:#E3CCFE;" /></g><path d="m26.8538 2 c0 -1.104614 0.9021 -2 2.0146 -2 h36.2632 c1.1125 0 2.0146 0.895386 2.0146 2 v4 c0 1.10461 -0.9021 2 -2.0146 2 H63.117 V27.7131 L92.3624 78 c4.6529 8 -1.1632 18 -10.4681 18 H12.1057 C2.80084 96 -3.01529 86 1.63761 78 L30.883 27.7131 V8 H28.8684 C27.7559 8 26.8538 7.10461 26.8538 6 Z" transform="translate(1, 0)" id="Overlay gradient" opacity="0.2" inkscape:connector-curvature="0" style="fill:url(#paint1_linear);" /></g></g></svg>