<?xml version="1.0" encoding="UTF-8"?>
<svg xmlns="http://www.w3.org/2000/svg" xmlns:xlink="http://www.w3.org/1999/xlink" width="70pt" height="70pt" viewBox="0 0 70 70" version="1.1">
<g id="surface1">
<path style=" stroke:none;fill-rule:nonzero;fill:rgb(70.588235%,6.27451%,33.333333%);fill-opacity:1;" d="M 26.378906 69.507813 L 3.429688 69.507813 C 1.789063 69.507813 0.441406 68.160156 0.441406 66.503906 L 0.441406 38.214844 C 0.441406 36.554688 1.789063 35.222656 3.429688 35.222656 L 26.378906 35.222656 Z M 26.378906 69.507813 "/>
<path style=" stroke:none;fill-rule:nonzero;fill:rgb(90.980392%,38.431373%,60%);fill-opacity:1;" d="M 66.078125 69.507813 L 56.355469 69.507813 L 56.355469 35.222656 L 66.078125 35.222656 C 67.695313 35.222656 69.011719 36.542969 69.011719 38.160156 L 69.011719 66.574219 C 69.011719 68.191406 67.695313 69.507813 66.078125 69.507813 Z M 66.078125 69.507813 "/>
<path style=" stroke:none;fill-rule:nonzero;fill:rgb(94.509804%,45.098039%,65.490196%);fill-opacity:1;" d="M 26.589844 69.507813 L 57.6875 69.507813 L 57.6875 35.222656 L 23.414063 35.222656 L 23.414063 66.332031 C 23.414063 68.078125 24.832031 69.507813 26.589844 69.507813 Z M 26.589844 69.507813 "/>
<path style=" stroke:none;fill-rule:nonzero;fill:rgb(75.686275%,14.901961%,39.215686%);fill-opacity:1;" d="M 54.570313 0.9375 L 15.222656 0.9375 C 13.523438 0.9375 12.148438 2.3125 12.148438 4.015625 L 12.148438 35.222656 L 57.644531 35.222656 L 57.644531 4.015625 C 57.644531 2.3125 56.269531 0.9375 54.570313 0.9375 Z M 54.570313 0.9375 "/>
<path style=" stroke:none;fill-rule:nonzero;fill:rgb(81.176471%,18.823529%,44.313725%);fill-opacity:1;" d="M 46.234375 0.9375 L 15.222656 0.9375 C 13.523438 0.9375 12.148438 2.3125 12.148438 4.015625 L 12.148438 35.222656 L 46.234375 35.222656 Z M 46.234375 0.9375 "/>
<path style=" stroke:none;fill-rule:nonzero;fill:rgb(70.980392%,12.54902%,36.078431%);fill-opacity:1;" d="M 32.175781 12.28125 L 26.222656 12.28125 C 24.664063 12.28125 23.386719 11.003906 23.386719 9.445313 C 23.386719 7.886719 24.664063 6.609375 26.222656 6.609375 L 32.175781 6.609375 C 33.734375 6.609375 35.007813 7.886719 35.007813 9.445313 C 35.007813 11.003906 33.75 12.28125 32.175781 12.28125 Z M 32.175781 12.28125 "/>
<path style=" stroke:none;fill-rule:nonzero;fill:rgb(99.607843%,56.470588%,74.509804%);fill-opacity:1;" d="M 46.164063 55.199219 L 29.195313 55.199219 L 29.195313 58.109375 L 46.164063 58.109375 Z M 46.164063 55.199219 "/>
<path style=" stroke:none;fill-rule:nonzero;fill:rgb(99.607843%,56.470588%,74.509804%);fill-opacity:1;" d="M 38.847656 60.972656 L 29.195313 60.972656 L 29.195313 63.878906 L 38.847656 63.878906 Z M 38.847656 60.972656 "/>
<path style=" stroke:none;fill-rule:nonzero;fill:rgb(79.607843%,18.039216%,43.529412%);fill-opacity:1;" d="M 43.402344 46.734375 L 37.746094 46.734375 C 36.117188 46.734375 34.800781 45.417969 34.800781 43.785156 C 34.800781 42.15625 36.117188 40.835938 37.746094 40.835938 L 43.402344 40.835938 C 45.03125 40.835938 46.351563 42.15625 46.351563 43.785156 C 46.351563 45.417969 45.03125 46.734375 43.402344 46.734375 Z M 43.402344 46.734375 "/>
<path style=" stroke:none;fill-rule:nonzero;fill:rgb(56.470588%,2.745098%,25.098039%);fill-opacity:1;" d="M 20.394531 46.734375 L 14.738281 46.734375 C 13.109375 46.734375 11.792969 45.417969 11.792969 43.785156 C 11.792969 42.15625 13.109375 40.835938 14.738281 40.835938 L 20.394531 40.835938 C 22.023438 40.835938 23.34375 42.15625 23.34375 43.785156 C 23.34375 45.417969 22.023438 46.734375 20.394531 46.734375 Z M 20.394531 46.734375 "/>
</g>
</svg>
