<?xml version="1.0" encoding="UTF-8"?>
<svg xmlns="http://www.w3.org/2000/svg" xmlns:xlink="http://www.w3.org/1999/xlink" width="70pt" height="70pt" viewBox="0 0 70 70" version="1.1">
<defs>
<filter id="alpha" filterUnits="objectBoundingBox" x="0%" y="0%" width="100%" height="100%">
  <feColorMatrix type="matrix" in="SourceGraphic" values="0 0 0 0 1 0 0 0 0 1 0 0 0 0 1 0 0 0 1 0"/>
</filter>
<mask id="mask0">
  <g filter="url(#alpha)">
<rect x="0" y="0" width="70" height="70" style="fill:rgb(0,0,0);fill-opacity:0.14902;stroke:none;"/>
  </g>
</mask>
<clipPath id="clip1">
  <rect x="0" y="0" width="70" height="70"/>
</clipPath>
<g id="surface5" clip-path="url(#clip1)">
<path style=" stroke:none;fill-rule:nonzero;fill:rgb(255,255,255);fill-opacity:1;" d="M 57.679688 22.960938 C 57.820313 21.558594 57.679688 20.578125 57.679688 20.441406 L 57.679688 20.019531 C 57.679688 9.238281 48.441406 0.28125 37.101563 0.140625 C 36.820313 -0.28125 30.378906 0.28125 30.378906 0.28125 C 20.160156 1.539063 12.179688 10.078125 12.179688 20.019531 C 12.179688 20.160156 12.039063 21.28125 12.179688 22.960938 Z M 57.679688 22.960938 "/>
</g>
</defs>
<g id="surface1">
<path style=" stroke:none;fill-rule:nonzero;fill:rgb(0,140,244);fill-opacity:1;" d="M 27.71875 55.160156 L 42.558594 55.160156 L 42.558594 59.921875 L 27.71875 59.921875 Z M 32.339844 70 L 37.800781 70 L 42.421875 65.101563 L 27.71875 65.101563 Z M 32.339844 70 "/>
<path style=" stroke:none;fill-rule:nonzero;fill:rgb(0,73,128);fill-opacity:1;" d="M 57.679688 20.578125 L 57.679688 20.160156 C 57.679688 9.378906 48.441406 0.421875 37.101563 0.28125 C 36.820313 -0.140625 30.378906 0.421875 30.378906 0.421875 C 20.160156 1.679688 12.179688 10.21875 12.179688 20.160156 C 12.179688 20.441406 11.058594 28.28125 19.039063 34.859375 C 22.679688 38.078125 26.460938 46.761719 27.019531 49.28125 L 27.441406 50.121094 L 42.28125 50.121094 L 42.699219 49.28125 C 43.261719 46.761719 47.179688 38.078125 50.679688 35 C 58.660156 28.28125 57.679688 20.859375 57.679688 20.578125 Z M 57.679688 20.578125 "/>
<path style=" stroke:none;fill-rule:nonzero;fill:rgb(255,255,255);fill-opacity:1;" d="M 42.558594 25.339844 L 40.179688 40.179688 L 37.378906 40.179688 L 37.378906 25.480469 L 37.519531 25.199219 C 42.839844 25.199219 42.140625 20.300781 42.140625 20.300781 L 27.71875 20.300781 L 27.71875 20.71875 C 27.71875 21.839844 28.140625 25.339844 32.621094 25.339844 L 32.621094 40.179688 L 29.820313 40.179688 L 29.121094 36.679688 L 27.300781 25.339844 C 24.078125 25.339844 23.101563 23.238281 22.679688 21.699219 L 22.679688 19.738281 C 22.679688 15.820313 27.160156 15.398438 27.160156 15.398438 L 42.558594 15.398438 C 42.558594 15.398438 47.460938 15.960938 47.460938 20.300781 C 47.320313 20.300781 47.460938 25.339844 42.558594 25.339844 Z M 42.558594 25.339844 "/>
<use xlink:href="#surface5" mask="url(#mask0)"/>
</g>
</svg>
