<?xml version="1.0" encoding="utf-8" standalone="no"?><svg xmlns:dc="http://purl.org/dc/elements/1.1/" xmlns:cc="http://creativecommons.org/ns#" xmlns:rdf="http://www.w3.org/1999/02/22-rdf-syntax-ns#" xmlns:svg="http://www.w3.org/2000/svg" xmlns="http://www.w3.org/2000/svg" xmlns:sodipodi="http://sodipodi.sourceforge.net/DTD/sodipodi-0.dtd" xmlns:inkscape="http://www.inkscape.org/namespaces/inkscape" version="1.1" width="100%" height="70" viewBox="0 0 104 104" overflow="hidden" id="svg52" sodipodi:docname="Azure Boards_COLOR.svg" style="overflow:hidden;fill:none" inkscape:version="0.92.2 (5c3e80d, 2017-08-06)" preserveAspectRatio="xMidYMid meet"><metadata id="metadata56"><rdf:RDF><cc:Work rdf:about=""><dc:format>image/svg+xml</dc:format><dc:type rdf:resource="http://purl.org/dc/dcmitype/StillImage" /></cc:Work></rdf:RDF></metadata><sodipodi:namedview pagecolor="#ffffff" bordercolor="#666666" borderopacity="1" objecttolerance="10" gridtolerance="10" guidetolerance="10" inkscape:pageopacity="0" inkscape:pageshadow="2" inkscape:window-width="640" inkscape:window-height="480" id="namedview54" showgrid="false" inkscape:zoom="2.4583333" inkscape:cx="48" inkscape:cy="56" inkscape:window-x="0" inkscape:window-y="0" inkscape:window-maximized="0" inkscape:current-layer="svg52" /><defs id="defs21"><filter id="filter0_f" x="32" y="32" width="72" height="72" filterUnits="userSpaceOnUse" primitiveUnits="userSpaceOnUse" style="color-interpolation-filters:sRGB"><feFlood flood-opacity="0" result="BackgroundImageFix" id="feFlood2" /><feBlend in="SourceGraphic" in2="BackgroundImageFix" result="shape" mode="normal" id="feBlend4" /><feGaussianBlur result="effect1_foregroundBlur" stdDeviation="4 4" id="feGaussianBlur6" /></filter><filter id="filter1_f" x="0" y="18" width="36" height="28" filterUnits="userSpaceOnUse" primitiveUnits="userSpaceOnUse" style="color-interpolation-filters:sRGB"><feFlood flood-opacity="0" result="BackgroundImageFix" id="feFlood9" /><feBlend in="SourceGraphic" in2="BackgroundImageFix" result="shape" mode="normal" id="feBlend11" /><feGaussianBlur result="effect1_foregroundBlur" stdDeviation="4 4" id="feGaussianBlur13" /></filter><linearGradient x2="1" gradientUnits="userSpaceOnUse" id="paint0_linear" gradientTransform="matrix(0,96,-96,0,96,0)"><stop offset="0" stop-color="#FFFFFF" id="stop16" /><stop offset="1" stop-color="#FFFFFF" stop-opacity="0" id="stop18" /></linearGradient></defs><g id="DevOpsIconBoards96"><mask maskUnits="userSpaceOnUse" x="0" y="0" width="96" height="96" id="mask0"><path d="M 4,0 C 1.79083,0 0,1.79102 0,4 v 64 c 0,2.209 1.79083,4 4,4 H 40.2836 C 42.2245,85.5693 53.8941,96 68,96 83.464,96 96,83.4639 96,68 96,60.3711 92.9487,53.4541 88,48.4043 V 4 C 88,1.79102 86.2092,0 84,0 Z" id="Union" inkscape:connector-curvature="0" style="fill:#ffffff" /></mask><g mask="url(#mask0)" id="g49"><path d="M 0,4 C 0,1.79086 1.79086,0 4,0 h 80 c 2.2091,0 4,1.79086 4,4 v 64 c 0,2.2091 -1.7909,4 -4,4 H 4 C 1.79086,72 0,70.2091 0,68 Z" id="Rectangle" inkscape:connector-curvature="0" style="fill:#008d75" /><g id="Ellipse" style="filter:url(#filter0_f)"><circle cx="28" cy="28" r="28" transform="translate(40,40)" id="circle26" style="fill:#007d5f" /></g><circle cx="28" cy="28" r="28" id="Ellipse_2" transform="translate(40,40)" style="fill:#16c8aa" /><path d="M 48,8.4043 V 28 c 0,2.2091 -1.7909,4 -4,4 H 0.283569 C 0.0966797,30.6934 0,29.3584 0,28 0,12.5361 12.536,0 28,0 35.8348,0 42.9179,3.21777 48,8.4043 Z" id="Intersect" transform="translate(40,40)" inkscape:connector-curvature="0" style="fill:#00b294" /><g id="Union_2" transform="translate(8,8)"><path d="M 46,0 H 26 v 12 h 20 z" id="path31" inkscape:connector-curvature="0" style="fill:#00b294" /><path d="M 72,0 H 52 v 12 h 20 z" id="path33" inkscape:connector-curvature="0" style="fill:#00b294" /><path d="M 46,18 H 26 v 12 h 20 z" id="path35" inkscape:connector-curvature="0" style="fill:#00b294" /><path d="M 20,36 H 0 v 12 h 20 z" id="path37" inkscape:connector-curvature="0" style="fill:#00b294" /><path d="M 20,0 H 0 v 12 h 20 z" id="path39" inkscape:connector-curvature="0" style="fill:#00b294" /></g><path d="M 20,0 H 0 v 12 h 20 z" id="Union_3" transform="translate(34,8)" inkscape:connector-curvature="0" style="fill:#35d6bb" /><g id="Union_4" style="filter:url(#filter1_f)"><path d="M 20,0 H 0 v 12 h 20 z" transform="translate(8,26)" id="path43" inkscape:connector-curvature="0" style="fill:#00654c" /></g><path d="M 20,0 H 0 v 12 h 20 z" id="Union_5" transform="translate(8,26)" inkscape:connector-curvature="0" style="fill:#72f8e1" /><path d="M 37.6569,5.65685 14.8284,28.4853 0,13.6569 5.65685,8 14.8284,17.1716 32,0 Z" id="Vector (Stroke)" transform="translate(50.1714,54.1719)" inkscape:connector-curvature="0" style="clip-rule:evenodd;fill:#c6fdf4;fill-rule:evenodd" /><path d="M 4,0 C 1.79083,0 0,1.79102 0,4 v 64 c 0,2.209 1.79083,4 4,4 H 40.2836 C 42.2245,85.5693 53.8941,96 68,96 83.464,96 96,83.4639 96,68 96,60.3711 92.9487,53.4541 88,48.4043 V 4 C 88,1.79102 86.2092,0 84,0 Z" id="Union_6" inkscape:connector-curvature="0" style="opacity:0.2;fill:url(#paint0_linear)" /></g></g></svg>