<?xml version="1.0" encoding="utf-8"?><svg version="1.1" xmlns="http://www.w3.org/2000/svg" xmlns:xlink="http://www.w3.org/1999/xlink" xmlns:xml="http://www.w3.org/XML/1998/namespace" xmlns:dc="http://purl.org/dc/elements/1.1/" xmlns:cc="http://creativecommons.org/ns#" xmlns:rdf="http://www.w3.org/1999/02/22-rdf-syntax-ns#" xmlns:sodipodi="http://sodipodi.sourceforge.net/DTD/sodipodi-0.dtd" xmlns:inkscape="http://www.inkscape.org/namespaces/inkscape" width="70" height="70" overflow="hidden" viewBox="0, 0, 104, 104" id="svg68" sodipodi:docname="Azure Repos_COLOR.svg" inkscape:version="0.92.2 (5c3e80d, 2017-08-06)" style="fill:none;"><metadata id="metadata72" /><sodipodi:namedview id="namedview70" pagecolor="#ffffff" bordercolor="#666666" borderopacity="1" objecttolerance="10" gridtolerance="10" guidetolerance="10" inkscape:pageopacity="0" inkscape:pageshadow="2" inkscape:window-width="640" inkscape:window-height="480" showgrid="false" inkscape:zoom="2.4583333" inkscape:cx="52" inkscape:cy="56" inkscape:window-x="0" inkscape:window-y="0" inkscape:window-maximized="0" inkscape:current-layer="svg68" /><defs id="defs38"><filter filterUnits="userSpaceOnUse" primitiveUnits="userSpaceOnUse" x="4" y="0" width="88" height="94" id="filter0_f" color-interpolation-filters="sRGB"><feFlood flood-opacity="0" result="BackgroundImageFix" id="feFlood2" /><feBlend mode="normal" in2="BackgroundImageFix" in="SourceGraphic" result="shape" id="feBlend4" /><feGaussianBlur stdDeviation="4 4" result="effect1_foregroundBlur" id="feGaussianBlur6" /></filter><filter filterUnits="userSpaceOnUse" primitiveUnits="userSpaceOnUse" x="-4" y="8" width="104" height="96" id="filter1_f" color-interpolation-filters="sRGB"><feFlood flood-opacity="0" result="BackgroundImageFix" id="feFlood9" /><feBlend mode="normal" in2="BackgroundImageFix" in="SourceGraphic" result="shape" id="feBlend11" /><feGaussianBlur stdDeviation="4 4" result="effect1_foregroundBlur" id="feGaussianBlur13" /></filter><filter filterUnits="userSpaceOnUse" primitiveUnits="userSpaceOnUse" x="13" y="14" width="71" height="84" id="filter2_f" color-interpolation-filters="sRGB"><feFlood flood-opacity="0" result="BackgroundImageFix" id="feFlood16" /><feBlend mode="normal" in2="BackgroundImageFix" in="SourceGraphic" result="shape" id="feBlend18" /><feGaussianBlur stdDeviation="4 4" result="effect1_foregroundBlur" id="feGaussianBlur20" /></filter><linearGradient x2="1" gradientUnits="userSpaceOnUse" gradientTransform="matrix(0, 64, -65.8286, 0, 68.9143, 0)" id="paint0_linear"><stop offset="0%" stop-color="#C82400" id="stop23" /><stop offset="100%" stop-color="#D83B01" stop-opacity="0" id="stop25" /></linearGradient><linearGradient x2="1" gradientUnits="userSpaceOnUse" gradientTransform="matrix(0, 31.5, -7.52212, 0, 7.76106, 3.5)" id="paint1_linear"><stop offset="0%" stop-color="#FC9F7C" id="stop28" /><stop offset="100%" stop-color="#D83B01" id="stop30" /></linearGradient><linearGradient x2="1" gradientUnits="userSpaceOnUse" gradientTransform="matrix(80, 0, 0, 74.1667, 5.58874E-08, 6.41667)" id="paint2_linear"><stop offset="0%" stop-color="#FFD7C1" id="stop33" /><stop offset="100%" stop-color="#FFC29F" stop-opacity="0" id="stop35" /></linearGradient></defs><g transform="translate(4, 0)" id="DevOpsIconRepos96"><mask maskUnits="userSpaceOnUse" x="4" y="0" width="88" height="96" id="mask0"><path d="m68 0 c2.2091 0 4 1.79102 4 4 v4 h4 c2.2091 0 4 1.79102 4 4 v4 h4 c2.2091 0 4 1.791 4 4 v72 c0 2.209 -1.7909 4 -4 4 H4 C1.79086 96 0 94.209 0 92 V20 C0 17.791 1.79086 16 4 16 H8 V12 C8 9.79102 9.79086 8 12 8 h4 V4 c0 -2.20898 1.7909 -4 4 -4 z" transform="translate(4, 0)" id="Union" inkscape:connector-curvature="0" style="fill:white;" /></mask><g id="g65" style="mask:url(#mask0);"><path d="M0 4 C0 1.79086 1.79086 0 4 0 H32.9314 H39.5 H75 c2.2091 0 4 1.79086 4 4 v48 c0 2.2091 -1.7909 4 -4 4 H4 C1.79086 56 0 54.2091 0 52 Z" transform="rotate(90, 38, 38)" id="Rectangle" inkscape:connector-curvature="0" style="fill:#C43601;" /><g filter="url(#filter0_f)" id="Rectangle_2" opacity="0.75"><path d="M0 4 C0 1.79086 1.79086 0 4 0 H32.5145 H39 H74 c2.2091 0 4 1.79086 4 4 v64 c0 2.2091 -1.7909 4 -4 4 H4 C1.79086 72 0 70.2091 0 68 Z" transform="rotate(90, 38, 46)" id="path43" inkscape:connector-curvature="0" style="fill:#5F1400;" /></g><path d="M0 4 C0 1.79086 1.79086 0 4 0 H32.5145 H39 H74 c2.2091 0 4 1.79086 4 4 v64 c0 2.2091 -1.7909 4 -4 4 H4 C1.79086 72 0 70.2091 0 68 Z" transform="rotate(90, 38, 46)" id="Rectangle_3" inkscape:connector-curvature="0" style="fill:#D83B01;" /><rect x="0" y="0" width="56" height="8" transform="translate(20, 8)" id="Rectangle 2" style="fill:#CA3701;" /><g filter="url(#filter1_f)" id="Rectangle_4" opacity="0.6"><path d="M0 4 C0 1.79086 1.79086 0 4 0 H33.3482 H40 H76 c2.2091 0 4 1.79086 4 4 v80 c0 2.2091 -1.7909 4 -4 4 H4 C1.79086 88 0 86.2091 0 84 Z" transform="rotate(90, 38, 54)" id="path48" inkscape:connector-curvature="0" style="fill:#7C1A00;" /></g><path d="M0 4 C0 1.79086 1.79086 0 4 0 H33.3482 H40 H76 c2.2091 0 4 1.79086 4 4 v80 c0 2.2091 -1.7909 4 -4 4 H4 C1.79086 88 0 86.2091 0 84 Z" transform="rotate(90, 38, 54)" id="Rectangle_5" inkscape:connector-curvature="0" style="fill:#D83B01;" /><path d="M72 0 H0 v66 c0 2.209 1.59191 4 3.55556 4 H68.4444 C70.4081 70 72 68.209 72 66 Z" transform="translate(12, 16)" id="Intersect" inkscape:connector-curvature="0" style="fill:url(#paint0_linear);" /><g id="Group 2"><path d="M8 0 V36 H0 V0 Z" clip-rule="evenodd" transform="translate(27, 38)" id="Vector (Stroke)" fill-rule="evenodd" inkscape:connector-curvature="0" style="fill:url(#paint1_linear);" /><path d="M20 10 C20 15.5229 15.5228 20 10 20 C4.47717 20 0 15.5229 0 10 C0 4.47705 4.47717 0 10 0 C15.5228 0 20 4.47705 20 10 Z m-10 6 c3.3137 0 6 -2.6865 6 -6 c0 -3.31348 -2.6863 -6 -6 -6 c-3.31372 0 -6 2.68652 -6 6 c0 3.3135 2.68628 6 6 6 z" clip-rule="evenodd" transform="translate(21, 22)" id="Subtract" fill-rule="evenodd" inkscape:connector-curvature="0" style="fill:#FC9F7C;" /></g><g filter="url(#filter2_f)" id="Union_2"><path d="M49 19.168 C52.5318 17.625 55 14.1006 55 10 C55 4.47656 50.5228 0 45 0 C39.4772 0 35 4.47656 35 10 c0 4.1006 2.4682 7.625 6 9.168 v5.0693 l-35 15 V48.832 C2.4682 50.375 0 53.8994 0 58 c0 5.5234 4.47717 10 10 10 c5.5228 0 10 -4.4766 10 -10 c0 -4.1006 -2.4682 -7.625 -6 -9.168 v-4.3193 l35 -15 z M45 16 c3.3137 0 6 -2.6865 6 -6 c0 -3.31348 -2.6863 -6 -6 -6 c-3.3137 0 -6 2.68652 -6 6 c0 3.3135 2.6863 6 6 6 z M4 58 c0 -3.3135 2.68628 -6 6 -6 c3.3137 0 6 2.6865 6 6 c0 3.3135 -2.6863 6 -6 6 c-3.31372 0 -6 -2.6865 -6 -6 z" clip-rule="evenodd" transform="translate(21, 22)" id="path56" fill-rule="evenodd" inkscape:connector-curvature="0" style="fill:#BF2200;" /></g><g id="Group"><path d="M20 10 C20 15.5229 15.5228 20 10 20 C4.47717 20 0 15.5229 0 10 C0 4.47705 4.47717 0 10 0 C15.5228 0 20 4.47705 20 10 Z m-10 6 c3.3137 0 6 -2.6865 6 -6 c0 -3.31348 -2.6863 -6 -6 -6 c-3.31372 0 -6 2.68652 -6 6 c0 3.3135 2.68628 6 6 6 z" clip-rule="evenodd" transform="translate(21, 70)" id="Subtract_2" fill-rule="evenodd" inkscape:connector-curvature="0" style="fill:#FFD5C6;" /><path d="m43 0 v13.5126 l-35 15 V36 H0 V23.2374 L35 8.23742 V0 Z" clip-rule="evenodd" transform="translate(27, 38)" id="Vector (Stroke)_2" fill-rule="evenodd" inkscape:connector-curvature="0" style="fill:#FEBCA3;" /><path d="M0.00936455 3.43363 L0 16.1999 H7.99999 L8.01642 0 Z" transform="translate(27, 57.7998)" id="Intersect_2" inkscape:connector-curvature="0" style="fill:#FFD5C6;" /><path d="M20 10 C20 15.5229 15.5228 20 10 20 C4.47717 20 0 15.5229 0 10 C0 4.47705 4.47717 0 10 0 C15.5228 0 20 4.47705 20 10 Z m-10 6 c3.3137 0 6 -2.6865 6 -6 c0 -3.31348 -2.6863 -6 -6 -6 c-3.31372 0 -6 2.68652 -6 6 c0 3.3135 2.68628 6 6 6 z" clip-rule="evenodd" transform="translate(56, 22)" id="Subtract_3" fill-rule="evenodd" inkscape:connector-curvature="0" style="fill:#FEBCA3;" /></g><path d="m0 84 c0 2.2091 1.79102 4 4 4 h72 c2.209 0 4 -1.7909 4 -4 V4 C80 1.79086 78.209 0 76 0 H4 C1.79102 0 0 1.79086 0 4 v4 v72 z" clip-rule="evenodd" transform="rotate(90, 38, 54)" id="Subtract_4" fill-rule="evenodd" opacity="0.2" inkscape:connector-curvature="0" style="fill:url(#paint2_linear);" /></g></g></svg>