<?xml version="1.0" encoding="utf-8"?><svg version="1.1" xmlns="http://www.w3.org/2000/svg" xmlns:xlink="http://www.w3.org/1999/xlink" xmlns:xml="http://www.w3.org/XML/1998/namespace" width="70" height="70" viewBox="0, 0, 18, 18" id="a98517fd-0655-40a4-8dda-ae47a1480280"><defs><linearGradient x1="9" y1="16.39" x2="9" y2="-1.94" gradientUnits="userSpaceOnUse" id="b80226ba-6d0d-4956-8f19-ab3101ca010c"><stop offset="0%" stop-color="#0078D4" /><stop offset="16%" stop-color="#1380DA" /><stop offset="53%" stop-color="#3C91E5" /><stop offset="82%" stop-color="#559CEC" /><stop offset="100%" stop-color="#5EA0EF" /></linearGradient><linearGradient x1="9.88" y1="7.11" x2="9.99" y2="17.27" gradientUnits="userSpaceOnUse" id="a4c1ad8b-2628-48af-97c3-ee4a90db0ba3"><stop offset="0%" stop-color="#32D4F5" /><stop offset="32%" stop-color="#31D1F3" /><stop offset="53%" stop-color="#2EC9EB" /><stop offset="70%" stop-color="#29BADE" /><stop offset="86%" stop-color="#22A5CB" /><stop offset="100%" stop-color="#198AB3" /><stop offset="100%" stop-color="#198AB3" /></linearGradient></defs><title>Icon-devops-264</title><path d="M17.5 9.08 a3.82 3.82 0 0 0 -3.32 -3.67 A4.81 4.81 0 0 0 9.23 0.8 A5 5 0 0 0 4.48 4 a4.54 4.54 0 0 0 -4 4.39 a4.62 4.62 0 0 0 4.79 4.44 a3 3 0 0 0 0.42 0 h7.75 a0.64 0.64 0 0 0 0.2 0 A3.86 3.86 0 0 0 17.5 9.08 Z" style="fill:url(#b80226ba-6d0d-4956-8f19-ab3101ca010c);" /><path d="M14.81 17.2 H5.17 c-0.31 0 -0.49 -0.49 -0.32 -0.75 l3.32 -4.84 a0.34 0.34 0 0 0 0.07 -0.22 V8.19 A0.2 0.2 0 0 0 8.05 8 H7.87 a0.38 0.38 0 0 1 -0.38 -0.38 V7.45 a0.38 0.38 0 0 1 0.38 -0.38 H12.1 a0.38 0.38 0 0 1 0.38 0.38 v0.17 A0.38 0.38 0 0 1 12.1 8 h-0.18 a0.19 0.19 0 0 0 -0.19 0.19 V11.4 a0.36 0.36 0 0 0 0.07 0.22 l3.32 4.83 C15.29 16.7 15.11 17.2 14.81 17.2 Z" style="fill:url(#a4c1ad8b-2628-48af-97c3-ee4a90db0ba3);" /><path d="M6.28 15.9 L8.8 12.22 A0.94 0.94 0 0 0 9 11.7 V10.22 a0.29 0.29 0 0 1 0.29 -0.29 h1.44 a0.29 0.29 0 0 1 0.29 0.29 V11.8 a0.61 0.61 0 0 0 0.11 0.35 l2.58 3.75 a0.23 0.23 0 0 1 -0.18 0.35 h-7 A0.22 0.22 0 0 1 6.28 15.9 Z" style="fill:#552F99;" /></svg>