<?xml version="1.0" encoding="UTF-8"?>
<svg xmlns="http://www.w3.org/2000/svg" xmlns:xlink="http://www.w3.org/1999/xlink" width="70pt" height="70pt" viewBox="0 0 70 70" version="1.1">
<g id="surface1">
<path style=" stroke:none;fill-rule:nonzero;fill:rgb(13.72549%,36.470588%,75.686275%);fill-opacity:1;" d="M 24.523438 59.941406 L 33.796875 69.214844 L 48.851563 69.214844 C 50.683594 69.214844 52.160156 67.722656 52.160156 65.90625 L 52.160156 31.140625 L 24.523438 58.792969 C 24.199219 59.101563 24.199219 59.617188 24.523438 59.941406 Z M 24.523438 59.941406 "/>
<path style=" stroke:none;fill-rule:nonzero;fill:rgb(23.137255%,43.137255%,77.647059%);fill-opacity:1;" d="M 0.921875 21.289063 L 0.921875 36.339844 L 10.195313 45.613281 C 10.519531 45.941406 11.035156 45.941406 11.34375 45.613281 L 38.996094 17.964844 L 4.230469 17.964844 C 2.414063 17.964844 0.921875 19.453125 0.921875 21.289063 Z M 0.921875 21.289063 "/>
<path style=" stroke:none;fill-rule:nonzero;fill:rgb(36.470588%,55.294118%,89.411765%);fill-opacity:1;" d="M 35.71875 4.433594 L 13.398438 38.582031 C 12.644531 39.75 12.800781 41.273438 13.777344 42.25 L 28.074219 56.550781 C 29.050781 57.527344 30.59375 57.679688 31.742188 56.925781 L 65.890625 34.589844 C 68.070313 33.164063 69.371094 30.730469 69.371094 28.144531 L 69.371094 4.332031 C 69.371094 2.464844 67.847656 0.9375 65.976563 0.9375 L 42.183594 0.9375 C 39.578125 0.9375 37.160156 2.257813 35.71875 4.433594 Z M 35.71875 4.433594 "/>
<path style=" stroke:none;fill-rule:nonzero;fill:rgb(62.352941%,73.333333%,94.117647%);fill-opacity:1;" d="M 5.945313 64.519531 L 5.945313 52.453125 L 0.921875 52.453125 L 0.921875 69.285156 L 18.011719 69.285156 L 18.011719 64.519531 Z M 5.945313 64.519531 "/>
<path style=" stroke:none;fill-rule:nonzero;fill:rgb(67.843137%,77.254902%,94.901961%);fill-opacity:1;" d="M 52.242188 26.238281 C 56.9375 26.238281 60.746094 22.429688 60.746094 17.734375 C 60.746094 13.039063 56.9375 9.234375 52.242188 9.234375 C 47.546875 9.234375 43.738281 13.039063 43.738281 17.734375 C 43.738281 22.429688 47.546875 26.238281 52.242188 26.238281 Z M 52.242188 26.238281 "/>
<path style=" stroke:none;fill-rule:nonzero;fill:rgb(42.352941%,60.392157%,93.333333%);fill-opacity:1;" d="M 37.023438 29.128906 L 18.839844 47.308594 L 23.035156 51.503906 L 41.214844 33.320313 Z M 37.023438 29.128906 "/>
<path style=" stroke:none;fill-rule:nonzero;fill:rgb(53.333333%,67.45098%,93.72549%);fill-opacity:1;" d="M 19.414063 55.121094 L 23.023438 51.507813 L 18.832031 47.316406 L 15.21875 50.925781 Z M 19.414063 55.121094 "/>
</g>
</svg>
