<?xml version="1.0" encoding="UTF-8"?>
<svg xmlns="http://www.w3.org/2000/svg" xmlns:xlink="http://www.w3.org/1999/xlink" width="70pt" height="70pt" viewBox="0 0 70 70" version="1.1">
<defs>
<filter id="alpha" filterUnits="objectBoundingBox" x="0%" y="0%" width="100%" height="100%">
  <feColorMatrix type="matrix" in="SourceGraphic" values="0 0 0 0 1 0 0 0 0 1 0 0 0 0 1 0 0 0 1 0"/>
</filter>
<mask id="mask0">
  <g filter="url(#alpha)">
<rect x="0" y="0" width="70" height="70" style="fill:rgb(0%,0%,0%);fill-opacity:0.101961;stroke:none;"/>
  </g>
</mask>
<clipPath id="clip1">
  <rect x="0" y="0" width="70" height="70"/>
</clipPath>
<g id="surface5" clip-path="url(#clip1)">
<path style=" stroke:none;fill-rule:nonzero;fill:rgb(100%,100%,100%);fill-opacity:1;" d="M 22.679688 43.820313 C 20.71875 41.859375 19.320313 39.339844 18.621094 36.539063 C 16.800781 28.558594 21.699219 20.578125 29.679688 18.761719 C 31.359375 18.339844 33.039063 18.339844 34.578125 18.480469 C 35.28125 10.921875 39.898438 4.339844 46.621094 0.980469 C 44.519531 0.421875 42.421875 0 40.039063 0 C 30.519531 0 22.398438 6.160156 19.601563 14.839844 C 18.058594 14.28125 16.519531 14 14.839844 14 C 6.578125 14 0 20.71875 0 28.980469 C 0 37.238281 6.578125 43.820313 14.699219 43.820313 Z M 22.679688 43.820313 "/>
</g>
<mask id="mask1">
  <g filter="url(#alpha)">
<rect x="0" y="0" width="70" height="70" style="fill:rgb(0%,0%,0%);fill-opacity:0.25098;stroke:none;"/>
  </g>
</mask>
<clipPath id="clip2">
  <rect x="0" y="0" width="70" height="70"/>
</clipPath>
<g id="surface8" clip-path="url(#clip2)">
<path style=" stroke:none;fill-rule:nonzero;fill:rgb(100%,100%,100%);fill-opacity:1;" d="M 19.601563 64.820313 L 34.441406 39.199219 L 34.441406 28.839844 L 34.160156 28.839844 C 32.339844 28.839844 30.941406 27.441406 30.941406 25.621094 C 30.941406 23.800781 32.339844 22.398438 34.160156 22.398438 L 41.160156 22.398438 L 41.160156 39.199219 L 33.320313 70 L 22.539063 70 C 19.320313 70 18.058594 67.761719 19.601563 64.820313 Z M 19.601563 64.820313 "/>
</g>
</defs>
<g id="surface1">
<path style=" stroke:none;fill-rule:nonzero;fill:rgb(0%,44.705882%,77.647059%);fill-opacity:1;" d="M 70 35.699219 C 70 31.21875 66.359375 27.578125 61.878906 27.578125 C 61.601563 27.578125 61.179688 27.578125 60.898438 27.578125 C 61.460938 25.761719 61.601563 23.800781 61.601563 21.839844 C 61.738281 9.800781 51.941406 0 40.039063 0 C 30.519531 0 22.398438 6.160156 19.601563 14.839844 C 18.058594 14.28125 16.519531 14 14.839844 14 C 6.578125 14 0 20.71875 0 28.980469 C 0 37.238281 6.578125 43.820313 14.699219 43.820313 L 62.441406 43.820313 C 66.78125 43.398438 70 39.898438 70 35.699219 "/>
<use xlink:href="#surface5" mask="url(#mask0)"/>
<path style=" stroke:none;fill-rule:nonzero;fill:rgb(34.901961%,70.588235%,85.098039%);fill-opacity:1;" d="M 64.820313 64.820313 L 50.121094 39.199219 L 50.121094 28.839844 L 50.398438 28.839844 C 52.21875 28.839844 53.621094 27.441406 53.621094 25.621094 C 53.621094 23.800781 52.078125 22.398438 50.398438 22.398438 L 34.160156 22.398438 C 32.339844 22.398438 30.941406 23.800781 30.941406 25.621094 C 30.941406 27.441406 32.339844 28.839844 34.160156 28.839844 L 34.441406 28.839844 L 34.441406 39.199219 L 19.601563 64.820313 C 17.921875 67.621094 19.320313 70 22.539063 70 L 61.878906 70 C 65.238281 70 66.5 67.761719 64.820313 64.820313 Z M 64.820313 64.820313 "/>
<path style=" stroke:none;fill-rule:nonzero;fill:rgb(50.196078%,28.627451%,59.607843%);fill-opacity:1;" d="M 52.640625 53.898438 L 45.640625 53.898438 C 45.78125 54.320313 45.921875 54.738281 45.921875 55.160156 C 45.921875 56.839844 44.519531 58.101563 42.980469 58.101563 C 41.441406 58.101563 40.039063 56.699219 40.039063 55.160156 C 40.039063 54.738281 40.179688 54.179688 40.320313 53.898438 L 31.78125 53.898438 L 25.761719 64.398438 L 58.800781 64.398438 Z M 52.640625 53.898438 "/>
<path style=" stroke:none;fill-rule:nonzero;fill:rgb(40.784314%,12.941176%,47.843137%);fill-opacity:1;" d="M 42.980469 58.101563 C 44.660156 58.101563 45.921875 56.699219 45.921875 55.160156 C 45.921875 54.738281 45.78125 54.179688 45.640625 53.898438 L 40.320313 53.898438 C 40.179688 54.320313 40.039063 54.738281 40.039063 55.160156 C 40.039063 56.839844 41.441406 58.101563 42.980469 58.101563 Z M 42.980469 58.101563 "/>
<path style=" stroke:none;fill-rule:nonzero;fill:rgb(40.784314%,12.941176%,47.843137%);fill-opacity:1;" d="M 48.160156 60.480469 C 48.160156 61.253906 47.53125 61.878906 46.761719 61.878906 C 45.988281 61.878906 45.359375 61.253906 45.359375 60.480469 C 45.359375 59.707031 45.988281 59.078125 46.761719 59.078125 C 47.53125 59.078125 48.160156 59.707031 48.160156 60.480469 Z M 48.160156 60.480469 "/>
<use xlink:href="#surface8" mask="url(#mask1)"/>
</g>
</svg>
