<?xml version="1.0" encoding="utf-8"?><svg version="1.1" xmlns="http://www.w3.org/2000/svg" xmlns:xlink="http://www.w3.org/1999/xlink" xmlns:xml="http://www.w3.org/XML/1998/namespace" width="70" height="70" viewBox="0, 0, 18, 18" id="b6f6d99e-f330-481d-836f-ea58cc42217f"><defs><radialGradient cx="9" cy="7.35" r="6.42" gradientUnits="userSpaceOnUse" id="a7a1c431-6c6d-4a8f-9a69-8da437e5b0c5"><stop offset="0%" stop-color="#B77AF4" /><stop offset="21%" stop-color="#B378F2" /><stop offset="43%" stop-color="#A672ED" /><stop offset="65%" stop-color="#9267E4" /><stop offset="88%" stop-color="#7559D8" /><stop offset="100%" stop-color="#624FD0" /></radialGradient><linearGradient x1="9.02" y1="3.91" x2="9.08" y2="11.49" gradientUnits="userSpaceOnUse" id="ec0c4f0d-5c8e-4882-96a1-89d61808eb49"><stop offset="0%" stop-color="#F2F2F2" /><stop offset="23%" stop-color="#F1F1F2" stop-opacity="0.99" /><stop offset="37%" stop-color="#EDEDF1" stop-opacity="0.95" /><stop offset="48%" stop-color="#E7E5F0" stop-opacity="0.89" /><stop offset="58%" stop-color="#DEDBEE" stop-opacity="0.81" /><stop offset="67%" stop-color="#D3CEEB" stop-opacity="0.7" /><stop offset="76%" stop-color="#C4BEE8" stop-opacity="0.57" /><stop offset="84%" stop-color="#B4ABE5" stop-opacity="0.41" /><stop offset="92%" stop-color="#A095E1" stop-opacity="0.22" /><stop offset="99%" stop-color="#8B7DDC" stop-opacity="0.02" /><stop offset="100%" stop-color="#897BDC" stop-opacity="0" /></linearGradient></defs><title>Icon-manage-310</title><path d="M10.23 17.39 l0.81 -0.87 V14.2 H7 v2.32 l0.81 0.87 A0.32 0.32 0 0 0 8 17.5 h2 A0.32 0.32 0 0 0 10.23 17.39 Z" style="fill:#CECECE;" /><path d="M9 0.5 A5.89 5.89 0 0 0 3.09 7.07 c0.27 2.47 2.62 3.62 3.29 6.75 a0.49 0.49 0 0 0 0.47 0.38 h4.3 a0.49 0.49 0 0 0 0.47 -0.38 c0.67 -3.13 3 -4.28 3.29 -6.75 A5.89 5.89 0 0 0 9 0.5 Z M7 14.2" style="fill:url(#a7a1c431-6c6d-4a8f-9a69-8da437e5b0c5);" /><path d="M11.46 3.79 a1.4 1.4 0 0 0 -1.35 1.44 V6 H8 V5.23 A1.41 1.41 0 0 0 6.59 3.79 A1.4 1.4 0 0 0 5.24 5.23 A1.41 1.41 0 0 0 6.59 6.68 h0.64 v6 a0.36 0.36 0 0 0 0.72 0 v-6 h2.16 v6 a0.36 0.36 0 1 0 0.72 0 v-6 h0.63 a1.4 1.4 0 0 0 1.35 -1.45 A1.4 1.4 0 0 0 11.46 3.79 Z M7.23 6 H6.55 a0.74 0.74 0 0 1 -0.68 -0.77 a0.74 0.74 0 0 1 0.68 -0.77 a0.74 0.74 0 0 1 0.68 0.77 Z m4.28 0 h-0.68 V5.19 a0.68 0.68 0 1 1 1.35 0 A0.73 0.73 0 0 1 11.51 6 Z" style="fill:url(#ec0c4f0d-5c8e-4882-96a1-89d61808eb49);" /><polygon points="6.96,15.8 11.04,15.01 11.04,14.56 6.96,15.36 6.96,15.8" style="fill:#999999;" /><polygon points="11.04,16.11 11.04,15.67 6.96,16.48 6.96,16.52 7.27,16.86 11.04,16.11" style="fill:#999999;" /></svg>