<?xml version="1.0" encoding="UTF-8"?>
<svg xmlns="http://www.w3.org/2000/svg" xmlns:xlink="http://www.w3.org/1999/xlink" width="45pt" height="70pt" viewBox="0 0 45 70" version="1.1">
<g id="surface1">
<path style=" stroke:none;fill-rule:nonzero;fill:rgb(0%,47.058824%,84.313725%);fill-opacity:1;" d="M 15.269531 54.804688 L 29.828125 54.804688 L 29.828125 59.515625 L 15.269531 59.515625 Z M 15.269531 54.804688 "/>
<path style=" stroke:none;fill-rule:nonzero;fill:rgb(0%,47.058824%,84.313725%);fill-opacity:1;" d="M 29.695313 64.632813 L 15.269531 64.632813 L 19.769531 69.613281 L 25.195313 69.613281 Z M 29.695313 64.632813 "/>
<path style=" stroke:none;fill-rule:nonzero;fill:rgb(0%,47.058824%,84.313725%);fill-opacity:1;" d="M 15.929688 23.84375 C 14.738281 23.84375 13.546875 24.917969 13.546875 26.265625 C 13.546875 27.476563 14.605469 28.6875 15.929688 28.6875 L 18.3125 28.6875 L 18.3125 26.265625 C 18.046875 24.917969 17.121094 23.84375 15.929688 23.84375 Z M 15.929688 23.84375 "/>
<path style=" stroke:none;fill-rule:nonzero;fill:rgb(0%,47.058824%,84.313725%);fill-opacity:1;" d="M 28.371094 23.84375 C 27.179688 23.84375 25.988281 24.917969 25.988281 26.265625 L 25.988281 28.6875 L 28.371094 28.6875 C 29.5625 28.6875 30.753906 27.613281 30.753906 26.265625 C 30.753906 25.054688 29.828125 23.84375 28.371094 23.84375 Z M 28.371094 23.84375 "/>
<path style=" stroke:none;fill-rule:nonzero;fill:rgb(0%,47.058824%,84.313725%);fill-opacity:1;" d="M 44.652344 20.34375 L 44.652344 19.9375 C 44.652344 9.167969 35.652344 0.417969 24.535156 0.148438 C 24.269531 -0.253906 17.914063 0.285156 17.914063 0.285156 C 7.855469 1.496094 0.046875 9.976563 0.046875 19.804688 C 0.046875 20.074219 -1.011719 27.882813 6.796875 34.476563 C 10.371094 37.707031 14.078125 46.324219 14.605469 48.746094 L 15.003906 49.554688 L 29.5625 49.554688 L 29.960938 48.746094 C 30.488281 46.1875 34.328125 37.574219 37.769531 34.476563 C 45.578125 28.015625 44.652344 20.613281 44.652344 20.34375 Z M 28.503906 31.382813 L 26.121094 31.382813 L 26.121094 49.015625 L 23.476563 49.015625 L 23.476563 31.382813 L 20.960938 31.382813 L 20.960938 48.882813 L 18.3125 48.882813 L 18.3125 31.382813 L 15.929688 31.382813 C 13.285156 31.382813 10.902344 28.957031 10.902344 26.265625 C 10.902344 23.574219 13.152344 21.148438 15.929688 21.148438 C 18.710938 21.148438 20.960938 23.574219 20.960938 26.265625 L 20.960938 28.6875 L 23.34375 28.6875 L 23.34375 26.265625 C 23.34375 23.574219 25.726563 21.148438 28.371094 21.148438 C 31.019531 21.148438 33.402344 23.574219 33.402344 26.265625 C 33.535156 29.09375 31.152344 31.382813 28.503906 31.382813 Z M 28.503906 31.382813 "/>
</g>
</svg>
