<?xml version="1.0" encoding="UTF-8"?>
<svg xmlns="http://www.w3.org/2000/svg" xmlns:xlink="http://www.w3.org/1999/xlink" width="70pt" height="70pt" viewBox="0 0 70 70" version="1.1">
<defs>
<linearGradient id="linear0" gradientUnits="userSpaceOnUse" x1="9" y1="16.39" x2="9" y2="-1.94" gradientTransform="matrix(3.888889,0,0,3.888889,0,0)">
<stop offset="0" style="stop-color:rgb(0%,47.058824%,83.137255%);stop-opacity:1;"/>
<stop offset="0.16" style="stop-color:rgb(7.45098%,50.196078%,85.490196%);stop-opacity:1;"/>
<stop offset="0.53" style="stop-color:rgb(23.529412%,56.862745%,89.803922%);stop-opacity:1;"/>
<stop offset="0.82" style="stop-color:rgb(33.333333%,61.176471%,92.54902%);stop-opacity:1;"/>
<stop offset="1" style="stop-color:rgb(36.862745%,62.745098%,93.72549%);stop-opacity:1;"/>
</linearGradient>
<linearGradient id="linear1" gradientUnits="userSpaceOnUse" x1="9.88" y1="7.11" x2="9.99" y2="17.27" gradientTransform="matrix(3.888889,0,0,3.888889,0,0)">
<stop offset="0" style="stop-color:rgb(19.607843%,83.137255%,96.078431%);stop-opacity:1;"/>
<stop offset="0.32" style="stop-color:rgb(19.215686%,81.960784%,95.294118%);stop-opacity:1;"/>
<stop offset="0.53" style="stop-color:rgb(18.039216%,78.823529%,92.156863%);stop-opacity:1;"/>
<stop offset="0.7" style="stop-color:rgb(16.078431%,72.941176%,87.058824%);stop-opacity:1;"/>
<stop offset="0.86" style="stop-color:rgb(13.333333%,64.705882%,79.607843%);stop-opacity:1;"/>
<stop offset="1" style="stop-color:rgb(9.803922%,54.117647%,70.196078%);stop-opacity:1;"/>
<stop offset="1" style="stop-color:rgb(9.803922%,54.117647%,70.196078%);stop-opacity:1;"/>
</linearGradient>
</defs>
<g id="surface1">
<path style=" stroke:none;fill-rule:nonzero;fill:url(#linear0);" d="M 68.054688 35.3125 C 67.832031 28.03125 62.363281 21.988281 55.144531 21.039063 C 54.722656 10.796875 46.140625 2.804688 35.894531 3.109375 C 27.734375 2.972656 20.359375 7.941406 17.421875 15.554688 C 8.71875 16.59375 2.09375 23.863281 1.867188 32.628906 C 2.246094 42.539063 10.582031 50.265625 20.496094 49.894531 C 21.039063 49.933594 21.585938 49.933594 22.128906 49.894531 L 52.265625 49.894531 C 52.523438 49.933594 52.785156 49.933594 53.042969 49.894531 C 61.171875 49.898438 67.824219 43.433594 68.054688 35.3125 Z M 68.054688 35.3125 "/>
<path style=" stroke:none;fill-rule:nonzero;fill:url(#linear1);" d="M 57.59375 66.890625 L 20.105469 66.890625 C 18.898438 66.890625 18.199219 64.984375 18.859375 63.972656 L 31.773438 45.148438 C 31.960938 44.90625 32.054688 44.601563 32.042969 44.292969 L 32.042969 31.851563 C 32.023438 31.449219 31.707031 31.128906 31.304688 31.109375 L 30.605469 31.109375 C 29.789063 31.109375 29.128906 30.449219 29.128906 29.632813 L 29.128906 28.972656 C 29.128906 28.15625 29.789063 27.496094 30.605469 27.496094 L 47.054688 27.496094 C 47.871094 27.496094 48.535156 28.15625 48.535156 28.972656 L 48.535156 29.632813 C 48.535156 30.449219 47.871094 31.109375 47.054688 31.109375 L 46.355469 31.109375 C 45.949219 31.109375 45.617188 31.441406 45.617188 31.851563 L 45.617188 44.332031 C 45.609375 44.640625 45.707031 44.941406 45.890625 45.1875 L 58.800781 63.972656 C 59.460938 64.945313 58.761719 66.890625 57.59375 66.890625 Z M 57.59375 66.890625 "/>
<path style=" stroke:none;fill-rule:nonzero;fill:rgb(33.333333%,18.431373%,60%);fill-opacity:1;" d="M 24.421875 61.832031 L 34.222656 47.523438 C 34.679688 46.941406 34.949219 46.238281 35 45.5 L 35 39.746094 C 35 39.121094 35.503906 38.617188 36.128906 38.617188 L 41.726563 38.617188 C 42.351563 38.617188 42.855469 39.121094 42.855469 39.746094 L 42.855469 45.890625 C 42.855469 46.375 43.003906 46.851563 43.285156 47.25 L 53.316406 61.832031 C 53.480469 62.101563 53.492188 62.433594 53.351563 62.710938 C 53.207031 62.988281 52.929688 63.171875 52.617188 63.195313 L 25.394531 63.195313 C 25.023438 63.355469 24.59375 63.234375 24.359375 62.90625 C 24.125 62.578125 24.152344 62.132813 24.421875 61.832031 Z M 24.421875 61.832031 "/>
</g>
</svg>
