<?xml version="1.0" encoding="utf-8"?><svg version="1.1" xmlns="http://www.w3.org/2000/svg" xmlns:xlink="http://www.w3.org/1999/xlink" xmlns:xml="http://www.w3.org/XML/1998/namespace" xmlns:dc="http://purl.org/dc/elements/1.1/" xmlns:cc="http://creativecommons.org/ns#" xmlns:rdf="http://www.w3.org/1999/02/22-rdf-syntax-ns#" xmlns:sodipodi="http://sodipodi.sourceforge.net/DTD/sodipodi-0.dtd" xmlns:inkscape="http://www.inkscape.org/namespaces/inkscape" width="70" height="70" overflow="hidden" viewBox="0, 0, 104, 104" id="svg52" sodipodi:docname="Azure Boards_COLOR.svg" inkscape:version="0.92.2 (5c3e80d, 2017-08-06)" style="fill:none;"><metadata id="metadata56" /><sodipodi:namedview id="namedview54" pagecolor="#ffffff" bordercolor="#0075CC" borderopacity="1" objecttolerance="10" gridtolerance="10" guidetolerance="10" inkscape:pageopacity="0" inkscape:pageshadow="2" inkscape:window-width="640" inkscape:window-height="480" showgrid="false" inkscape:zoom="2.4583333" inkscape:cx="48" inkscape:cy="56" inkscape:window-x="0" inkscape:window-y="0" inkscape:window-maximized="0" inkscape:current-layer="svg52" /><defs id="defs21"><filter filterUnits="userSpaceOnUse" primitiveUnits="userSpaceOnUse" x="32" y="32" width="72" height="72" id="filter0_f" color-interpolation-filters="sRGB"><feFlood flood-opacity="0" result="BackgroundImageFix" id="feFlood2" /><feBlend mode="normal" in2="BackgroundImageFix" in="SourceGraphic" result="shape" id="feBlend4" /><feGaussianBlur stdDeviation="4 4" result="effect1_foregroundBlur" id="feGaussianBlur6" /></filter><filter filterUnits="userSpaceOnUse" primitiveUnits="userSpaceOnUse" x="0" y="18" width="36" height="28" id="filter1_f" color-interpolation-filters="sRGB"><feFlood flood-opacity="0" result="BackgroundImageFix" id="feFlood9" /><feBlend mode="normal" in2="BackgroundImageFix" in="SourceGraphic" result="shape" id="feBlend11" /><feGaussianBlur stdDeviation="4 4" result="effect1_foregroundBlur" id="feGaussianBlur13" /></filter><linearGradient x2="1" gradientUnits="userSpaceOnUse" gradientTransform="matrix(0, 96, -96, 0, 96, 0)" id="paint0_linear"><stop offset="0%" stop-color="white" id="stop16" /><stop offset="100%" stop-color="white" stop-opacity="0" id="stop18" /></linearGradient></defs><g id="DevOpsIconBoards96"><mask maskUnits="userSpaceOnUse" x="0" y="0" width="96" height="96" id="mask0"><path d="M4 0 C1.79083 0 0 1.79102 0 4 v64 c0 2.209 1.79083 4 4 4 H40.2836 C42.2245 85.5693 53.8941 96 68 96 C83.464 96 96 83.4639 96 68 C96 60.3711 92.9487 53.4541 88 48.4043 V4 C88 1.79102 86.2092 0 84 0 Z" id="Union" inkscape:connector-curvature="0" style="fill:white;" /></mask><g id="g49" style="mask:url(#mask0);"><path d="M0 4 C0 1.79086 1.79086 0 4 0 h80 c2.2091 0 4 1.79086 4 4 v64 c0 2.2091 -1.7909 4 -4 4 H4 C1.79086 72 0 70.2091 0 68 Z" id="Rectangle" inkscape:connector-curvature="0" style="fill:#006EC0;" /><g filter="url(#filter0_f)" id="Ellipse"><circle cx="28" cy="28" r="28" transform="translate(40, 40)" id="circle26" style="fill:#0060A8;" /></g><circle cx="28" cy="28" r="28" transform="translate(40, 40)" id="Ellipse_2" style="fill:#1F9FFF;" /><path d="M48 8.4043 V28 c0 2.2091 -1.7909 4 -4 4 H0.283569 C0.0966797 30.6934 0 29.3584 0 28 C0 12.5361 12.536 0 28 0 C35.8348 0 42.9179 3.21777 48 8.4043 Z" transform="translate(40, 40)" id="Intersect" inkscape:connector-curvature="0" style="fill:#008BF2;" /><g transform="translate(8, 8)" id="Union_2"><path d="M46 0 H26 v12 h20 z" id="path31" inkscape:connector-curvature="0" style="fill:#008BF2;" /><path d="M72 0 H52 v12 h20 z" id="path33" inkscape:connector-curvature="0" style="fill:#008BF2;" /><path d="M46 18 H26 v12 h20 z" id="path35" inkscape:connector-curvature="0" style="fill:#008BF2;" /><path d="M20 36 H0 v12 h20 z" id="path37" inkscape:connector-curvature="0" style="fill:#008BF2;" /><path d="M20 0 H0 v12 h20 z" id="path39" inkscape:connector-curvature="0" style="fill:#008BF2;" /></g><path d="M20 0 H0 v12 h20 z" transform="translate(34, 8)" id="Union_3" inkscape:connector-curvature="0" style="fill:#45B0FF;" /><g filter="url(#filter1_f)" id="Union_4"><path d="M20 0 H0 v12 h20 z" transform="translate(8, 26)" id="path43" inkscape:connector-curvature="0" style="fill:#004D86;" /></g><path d="M20 0 H0 v12 h20 z" transform="translate(8, 26)" id="Union_5" inkscape:connector-curvature="0" style="fill:#9BD4FF;" /><path d="M37.6569 5.65685 L14.8284 28.4853 L0 13.6569 L5.65685 8 L14.8284 17.1716 L32 0 Z" clip-rule="evenodd" transform="translate(50.1714, 54.1719)" id="Vector (Stroke)" fill-rule="evenodd" inkscape:connector-curvature="0" style="fill:#D7EEFF;" /><path d="M4 0 C1.79083 0 0 1.79102 0 4 v64 c0 2.209 1.79083 4 4 4 H40.2836 C42.2245 85.5693 53.8941 96 68 96 C83.464 96 96 83.4639 96 68 C96 60.3711 92.9487 53.4541 88 48.4043 V4 C88 1.79102 86.2092 0 84 0 Z" id="Union_6" opacity="0.2" inkscape:connector-curvature="0" style="fill:url(#paint0_linear);" /></g></g></svg>