<?xml version="1.0" encoding="UTF-8"?>
<svg xmlns="http://www.w3.org/2000/svg" xmlns:xlink="http://www.w3.org/1999/xlink" width="70pt" height="70pt" viewBox="0 0 70 70" version="1.1">
<g id="surface1">
<path style=" stroke:none;fill-rule:nonzero;fill:rgb(73.72549%,19.607843%,0%);fill-opacity:1;" d="M 53.199219 0.488281 L 17.609375 0.488281 C 16.238281 0.488281 15.132813 1.59375 15.132813 2.964844 L 15.132813 11.074219 L 55.675781 11.074219 L 55.675781 2.964844 C 55.675781 1.59375 54.570313 0.488281 53.199219 0.488281 Z M 53.199219 0.488281 "/>
<path style=" stroke:none;fill-rule:nonzero;fill:rgb(81.960784%,21.176471%,0%);fill-opacity:1;" d="M 57.390625 5.441406 L 13.425781 5.441406 C 11.441406 5.441406 9.84375 7.039063 9.84375 9.019531 L 9.84375 11.835938 L 60.96875 11.835938 L 60.96875 9.019531 C 60.96875 7.039063 59.371094 5.441406 57.390625 5.441406 Z M 57.390625 5.441406 "/>
<path style=" stroke:none;fill-rule:nonzero;fill:rgb(88.235294%,34.509804%,8.235294%);fill-opacity:1;" d="M 62.542969 10.523438 L 8.273438 10.523438 C 6.292969 10.523438 4.691406 12.121094 4.691406 14.101563 L 4.691406 65.074219 C 4.691406 67.054688 6.304688 68.667969 8.289063 68.667969 L 62.527344 68.667969 C 64.507813 68.667969 66.121094 67.054688 66.121094 65.074219 L 66.121094 14.101563 C 66.121094 12.121094 64.523438 10.523438 62.542969 10.523438 Z M 62.542969 10.523438 "/>
<path style=" stroke:none;fill-rule:nonzero;fill:rgb(100%,69.803922%,56.470588%);fill-opacity:1;" d="M 22.820313 15.769531 C 19.054688 15.769531 16 18.828125 16 22.589844 C 16 26.355469 19.054688 29.410156 22.820313 29.410156 C 26.582031 29.410156 29.640625 26.355469 29.640625 22.589844 C 29.640625 18.828125 26.582031 15.769531 22.820313 15.769531 Z M 22.820313 27.003906 C 20.371094 27.003906 18.390625 25.023438 18.390625 22.578125 C 18.390625 20.128906 20.371094 18.148438 22.820313 18.148438 C 25.269531 18.148438 27.25 20.128906 27.25 22.578125 C 27.25 25.023438 25.269531 27.003906 22.820313 27.003906 Z M 22.820313 27.003906 "/>
<path style=" stroke:none;fill-rule:nonzero;fill:rgb(100%,69.803922%,56.470588%);fill-opacity:1;" d="M 25.382813 28.675781 L 20.328125 28.675781 L 20.328125 42.503906 L 25.382813 42.503906 Z M 25.382813 28.675781 "/>
<path style=" stroke:none;fill-rule:nonzero;fill:rgb(100%,85.882353%,79.215686%);fill-opacity:1;" d="M 55.214844 22.691406 C 55.214844 18.925781 52.15625 15.871094 48.390625 15.871094 C 44.628906 15.871094 41.570313 18.925781 41.570313 22.691406 C 41.570313 25.59375 43.382813 28.070313 45.945313 29.058594 L 45.945313 33.742188 L 20.332031 42.207031 L 20.289063 42.207031 L 20.289063 50.878906 C 17.785156 51.882813 16.015625 54.347656 16.015625 57.203125 C 16.015625 60.96875 19.070313 64.027344 22.835938 64.027344 C 26.601563 64.027344 29.65625 60.96875 29.65625 57.203125 C 29.65625 54.375 27.929688 51.941406 25.484375 50.90625 L 25.484375 45.53125 L 50.953125 37.109375 L 50.898438 37.011719 L 50.953125 37.011719 L 50.953125 29.003906 C 53.445313 27.996094 55.214844 25.550781 55.214844 22.691406 Z M 27.25 57.21875 C 27.25 59.667969 25.269531 61.648438 22.820313 61.648438 C 20.375 61.648438 18.394531 59.667969 18.394531 57.21875 C 18.394531 54.769531 20.375 52.789063 22.820313 52.789063 C 25.269531 52.789063 27.25 54.769531 27.25 57.21875 Z M 48.390625 27.105469 C 45.945313 27.105469 43.964844 25.125 43.964844 22.675781 C 43.964844 20.230469 45.945313 18.246094 48.390625 18.246094 C 50.839844 18.246094 52.820313 20.230469 52.820313 22.675781 C 52.820313 25.125 50.828125 27.105469 48.390625 27.105469 Z M 48.390625 27.105469 "/>
</g>
</svg>
