<?xml version="1.0" encoding="UTF-8"?>
<svg xmlns="http://www.w3.org/2000/svg" xmlns:xlink="http://www.w3.org/1999/xlink" width="70pt" height="70pt" viewBox="0 0 70 70" version="1.1">
<defs>
<filter id="alpha" filterUnits="objectBoundingBox" x="0%" y="0%" width="100%" height="100%">
  <feColorMatrix type="matrix" in="SourceGraphic" values="0 0 0 0 1 0 0 0 0 1 0 0 0 0 1 0 0 0 1 0"/>
</filter>
<mask id="mask0">
  <g filter="url(#alpha)">
<rect x="0" y="0" width="70" height="70" style="fill:rgb(0,0,0);fill-opacity:0.14902;stroke:none;"/>
  </g>
</mask>
<clipPath id="clip1">
  <rect x="0" y="0" width="70" height="70"/>
</clipPath>
<g id="surface5" clip-path="url(#clip1)">
<path style=" stroke:none;fill-rule:nonzero;fill:rgb(255,255,255);fill-opacity:1;" d="M 47.738281 25.898438 L 11.058594 25.898438 C 5.601563 25.898438 3.640625 29.121094 3.640625 33.320313 L 3.640625 62.578125 C 3.640625 66.21875 5.878906 70 10.078125 70 L 19.460938 70 Z M 47.738281 25.898438 "/>
</g>
</defs>
<g id="surface1">
<path style=" stroke:none;fill-rule:nonzero;fill:rgb(0,71,124);fill-opacity:1;" d="M 58.941406 25.898438 L 58.941406 22.820313 C 58.941406 16.660156 56.699219 10.921875 52.78125 6.859375 C 49.140625 2.660156 41.019531 0 35 0 C 28.980469 0 20.859375 2.660156 17.21875 6.859375 C 13.441406 10.921875 11.058594 16.660156 11.058594 22.820313 L 11.058594 25.898438 L 22.121094 27.160156 L 22.121094 24.359375 C 22.121094 20.71875 23.378906 16.101563 25.480469 13.71875 C 27.578125 11.339844 32.058594 10.21875 35 10.078125 C 37.941406 10.078125 42.421875 11.339844 44.519531 13.71875 C 46.621094 16.101563 47.878906 19.179688 47.878906 22.679688 L 47.878906 27.160156 Z M 58.941406 25.898438 "/>
<path style=" stroke:none;fill-rule:nonzero;fill:rgb(57,171,255);fill-opacity:1;" d="M 11.058594 25.898438 C 5.601563 25.898438 3.640625 29.121094 3.640625 33.320313 L 3.640625 62.578125 C 3.640625 66.21875 5.878906 70 10.078125 70 L 59.921875 70 C 64.679688 70 66.359375 66.21875 66.359375 62.578125 L 66.359375 33.320313 C 66.359375 29.539063 64.820313 25.898438 58.941406 25.898438 Z M 11.058594 25.898438 "/>
<path style=" stroke:none;fill-rule:nonzero;fill:rgb(255,255,255);fill-opacity:1;" d="M 29.917969 36.398438 L 45.320313 46.640625 L 29.917969 56.882813 Z M 29.917969 36.398438 "/>
<use xlink:href="#surface5" mask="url(#mask0)"/>
</g>
</svg>
