<?xml version="1.0" encoding="utf-8"?><svg version="1.1" xmlns="http://www.w3.org/2000/svg" xmlns:xlink="http://www.w3.org/1999/xlink" xmlns:xml="http://www.w3.org/XML/1998/namespace" width="70" height="70" viewBox="0, 0, 18, 18"><defs><linearGradient x1="9" y1="17.5" x2="9" y2="0.5" gradientUnits="userSpaceOnUse" id="bcca396e-f939-4355-b7b5-51363d97cee0"><stop offset="0%" stop-color="#0078D4" /><stop offset="81.7%" stop-color="#5EA0EF" /></linearGradient></defs><title>MsPortalFx.base.images-61</title><g id="b5641c8f-5957-4500-9380-ed121d5f3f80"><g><g><path d="M9.966 0.627 H2.731 A0.571 0.571 0 0 0 2.16 1.2 V16.8 a0.571 0.571 0 0 0 0.571 0.572 H15.269 a0.571 0.571 0 0 0 0.571 -0.572 V6.475 a0.571 0.571 0 0 0 -0.571 -0.572 H11.108 a0.571 0.571 0 0 1 -0.571 -0.571 V1.2 A0.572 0.572 0 0 0 9.966 0.627 Z" style="fill:white;" /><path d="M9.7 1.357 V5.276 a1.438 1.438 0 0 0 1.436 1.438 h3.947 v9.929 H2.915 V1.357 H9.7 M9.978 0.5 H2.638 a0.581 0.581 0 0 0 -0.58 0.581 V16.919 a0.581 0.581 0 0 0 0.58 0.581 H15.362 a0.581 0.581 0 0 0 0.58 -0.581 V6.437 a0.58 0.58 0 0 0 -0.58 -0.58 H11.138 a0.58 0.58 0 0 1 -0.58 -0.581 V1.081 A0.581 0.581 0 0 0 9.978 0.5 Z" style="fill:url(#bcca396e-f939-4355-b7b5-51363d97cee0);" /><path d="M15.72 5.972 L10.358 0.627 V4.982 a0.984 0.984 0 0 0 0.978 0.99 Z" style="fill:#0078D4;" /></g><path d="M4.639 5.231 V8.775 a0.285 0.285 0 0 0 0.426 0.247 l3.1 -1.772 a0.284 0.284 0 0 0 0 -0.494 l-3.1 -1.772 A0.285 0.285 0 0 0 4.639 5.231 Z" style="fill:#32BEDD;" /><rect x="4.588" y="10.418" width="7.37" height="0.989" rx="0.444" style="fill:#5EA0EF;" /><rect x="4.588" y="12.189" width="7.37" height="0.989" rx="0.444" style="fill:#5EA0EF;" /><rect x="4.588" y="13.961" width="4.645" height="0.989" rx="0.444" style="fill:#5EA0EF;" /></g></g></svg>