<?xml version="1.0" encoding="UTF-8"?>
<svg xmlns="http://www.w3.org/2000/svg" xmlns:xlink="http://www.w3.org/1999/xlink" width="70pt" height="70pt" viewBox="0 0 70 70" version="1.1">
<g id="surface1">
<path style=" stroke:none;fill-rule:nonzero;fill:rgb(24.313725%,24.313725%,24.313725%);fill-opacity:1;" d="M 48.566406 58.109375 L 22.109375 58.109375 C 19.386719 58.109375 17.179688 55.902344 17.179688 53.179688 C 17.179688 50.457031 19.386719 48.25 22.109375 48.25 L 48.566406 48.25 C 52.070313 48.25 54.921875 45.402344 54.921875 41.894531 L 54.921875 16.214844 C 54.921875 12.710938 52.070313 9.859375 48.566406 9.859375 L 22.109375 9.859375 C 19.386719 9.859375 17.179688 7.652344 17.179688 4.929688 C 17.179688 2.207031 19.386719 0 22.109375 0 L 48.566406 0 C 57.507813 0 64.78125 7.273438 64.78125 16.214844 L 64.78125 41.898438 C 64.78125 50.835938 57.507813 58.109375 48.566406 58.109375 Z M 48.566406 58.109375 "/>
<path style=" stroke:none;fill-rule:nonzero;fill:rgb(24.313725%,24.313725%,24.313725%);fill-opacity:1;" d="M 14.0625 64.078125 L 40.738281 64.078125 L 40.738281 66.542969 L 14.0625 66.542969 Z M 14.0625 64.078125 "/>
<path style=" stroke:none;fill-rule:nonzero;fill:rgb(24.313725%,24.313725%,24.313725%);fill-opacity:1;" d="M 22.472656 66.542969 L 32.332031 66.542969 L 32.332031 70 L 22.472656 70 Z M 22.472656 66.542969 "/>
<path style=" stroke:none;fill-rule:nonzero;fill:rgb(24.313725%,24.313725%,24.313725%);fill-opacity:1;" d="M 26.167969 9.859375 L 28.632813 9.859375 L 28.632813 66.542969 L 26.167969 66.542969 Z M 26.167969 9.859375 "/>
<path style=" stroke:none;fill-rule:nonzero;fill:rgb(35.686275%,55.686275%,84.705882%);fill-opacity:1;" d="M 5.21875 28.507813 L 44.652344 28.507813 L 44.652344 39.601563 L 5.21875 39.601563 Z M 5.21875 28.507813 "/>
<path style=" stroke:none;fill-rule:nonzero;fill:rgb(34.901961%,70.588235%,85.098039%);fill-opacity:1;" d="M 12.613281 17.421875 L 39.722656 17.421875 L 39.722656 28.511719 L 12.613281 28.511719 Z M 12.613281 17.421875 "/>
<path style=" stroke:none;fill-rule:nonzero;fill:rgb(40%,40%,40%);fill-opacity:1;" d="M 22.472656 13.722656 L 32.332031 13.722656 L 32.332031 17.421875 L 22.472656 17.421875 Z M 22.472656 13.722656 "/>
<path style=" stroke:none;fill-rule:nonzero;fill:rgb(40%,40%,40%);fill-opacity:1;" d="M 22.472656 39.601563 L 32.332031 39.601563 L 32.332031 43.058594 L 22.472656 43.058594 Z M 22.472656 39.601563 "/>
</g>
</svg>
