<?xml version="1.0" encoding="UTF-8"?>
<svg xmlns="http://www.w3.org/2000/svg" xmlns:xlink="http://www.w3.org/1999/xlink" width="70pt" height="70pt" viewBox="0 0 70 70" version="1.1">
<defs>
<linearGradient id="linear0" gradientUnits="userSpaceOnUse" x1="9" y1="17.5" x2="9" y2="0.5" gradientTransform="matrix(3.888889,0,0,3.888889,0,0)">
<stop offset="0" style="stop-color:rgb(0%,47.058824%,83.137255%);stop-opacity:1;"/>
<stop offset="0.817" style="stop-color:rgb(36.862745%,62.745098%,93.72549%);stop-opacity:1;"/>
</linearGradient>
</defs>
<g id="surface1">
<path style=" stroke:none;fill-rule:nonzero;fill:rgb(100%,100%,100%);fill-opacity:1;" d="M 38.757813 2.4375 L 10.621094 2.4375 C 10.03125 2.4375 9.464844 2.671875 9.046875 3.089844 C 8.632813 3.507813 8.398438 4.078125 8.398438 4.667969 L 8.398438 65.332031 C 8.398438 65.921875 8.632813 66.488281 9.050781 66.90625 C 9.464844 67.324219 10.03125 67.558594 10.621094 67.558594 L 59.378906 67.558594 C 59.96875 67.558594 60.535156 67.324219 60.949219 66.90625 C 61.367188 66.488281 61.601563 65.921875 61.601563 65.332031 L 61.601563 25.179688 C 61.601563 24.589844 61.367188 24.023438 60.949219 23.609375 C 60.535156 23.191406 59.96875 22.957031 59.378906 22.957031 L 43.199219 22.957031 C 41.972656 22.957031 40.976563 21.960938 40.976563 20.734375 L 40.976563 4.667969 C 40.980469 3.4375 39.984375 2.441406 38.757813 2.4375 Z M 38.757813 2.4375 "/>
<path style=" stroke:none;fill-rule:nonzero;fill:url(#linear0);" d="M 37.722656 5.277344 L 37.722656 20.519531 C 37.722656 23.601563 40.222656 26.105469 43.308594 26.109375 L 58.65625 26.109375 L 58.65625 64.722656 L 11.335938 64.722656 L 11.335938 5.277344 L 37.722656 5.277344 M 38.804688 1.945313 L 10.257813 1.945313 C 9.011719 1.945313 8.003906 2.957031 8.003906 4.203125 L 8.003906 65.796875 C 8.003906 67.042969 9.011719 68.054688 10.257813 68.054688 L 59.742188 68.054688 C 60.988281 68.054688 61.996094 67.042969 61.996094 65.796875 L 61.996094 25.03125 C 61.996094 23.785156 60.988281 22.777344 59.742188 22.777344 L 43.3125 22.777344 C 42.714844 22.777344 42.140625 22.539063 41.71875 22.113281 C 41.296875 21.691406 41.058594 21.117188 41.058594 20.519531 L 41.058594 4.203125 C 41.058594 2.957031 40.050781 1.945313 38.804688 1.945313 Z M 38.804688 1.945313 "/>
<path style=" stroke:none;fill-rule:nonzero;fill:rgb(0%,47.058824%,83.137255%);fill-opacity:1;" d="M 61.132813 23.222656 L 40.28125 2.4375 L 40.28125 19.375 C 40.269531 21.488281 41.972656 23.210938 44.085938 23.222656 Z M 61.132813 23.222656 "/>
<path style=" stroke:none;fill-rule:nonzero;fill:rgb(19.607843%,74.509804%,86.666667%);fill-opacity:1;" d="M 18.039063 20.34375 L 18.039063 34.125 C 18.042969 34.519531 18.25 34.882813 18.59375 35.082031 C 18.933594 35.277344 19.355469 35.28125 19.695313 35.085938 L 31.753906 28.195313 C 32.097656 28 32.3125 27.632813 32.3125 27.234375 C 32.3125 26.835938 32.097656 26.46875 31.753906 26.273438 L 19.695313 19.382813 C 19.355469 19.1875 18.933594 19.1875 18.59375 19.386719 C 18.25 19.585938 18.042969 19.949219 18.039063 20.34375 Z M 18.039063 20.34375 "/>
<path style=" stroke:none;fill-rule:nonzero;fill:rgb(36.862745%,62.745098%,93.72549%);fill-opacity:1;" d="M 19.570313 40.515625 L 44.777344 40.515625 C 45.730469 40.515625 46.503906 41.289063 46.503906 42.242188 L 46.503906 42.632813 C 46.503906 43.585938 45.730469 44.359375 44.777344 44.359375 L 19.570313 44.359375 C 18.617188 44.359375 17.84375 43.585938 17.84375 42.632813 L 17.84375 42.242188 C 17.84375 41.289063 18.617188 40.515625 19.570313 40.515625 Z M 19.570313 40.515625 "/>
<path style=" stroke:none;fill-rule:nonzero;fill:rgb(36.862745%,62.745098%,93.72549%);fill-opacity:1;" d="M 19.570313 47.402344 L 44.777344 47.402344 C 45.730469 47.402344 46.503906 48.175781 46.503906 49.128906 L 46.503906 49.519531 C 46.503906 50.476563 45.730469 51.246094 44.777344 51.246094 L 19.570313 51.246094 C 18.617188 51.246094 17.84375 50.476563 17.84375 49.519531 L 17.84375 49.128906 C 17.84375 48.175781 18.617188 47.402344 19.570313 47.402344 Z M 19.570313 47.402344 "/>
<path style=" stroke:none;fill-rule:nonzero;fill:rgb(36.862745%,62.745098%,93.72549%);fill-opacity:1;" d="M 19.570313 54.292969 L 34.179688 54.292969 C 35.132813 54.292969 35.90625 55.066406 35.90625 56.019531 L 35.90625 56.414063 C 35.90625 57.367188 35.132813 58.140625 34.179688 58.140625 L 19.570313 58.140625 C 18.617188 58.140625 17.84375 57.367188 17.84375 56.414063 L 17.84375 56.019531 C 17.84375 55.066406 18.617188 54.292969 19.570313 54.292969 Z M 19.570313 54.292969 "/>
</g>
</svg>
