<?xml version="1.0" encoding="UTF-8"?>
<svg xmlns="http://www.w3.org/2000/svg" xmlns:xlink="http://www.w3.org/1999/xlink" width="61pt" height="70pt" viewBox="0 0 61 70" version="1.1">
<g id="surface1">
<path style=" stroke:none;fill-rule:nonzero;fill:rgb(0%,47.058824%,84.313725%);fill-opacity:1;" d="M 61.695313 17.324219 L 30.847656 0 L 0 17.851563 L 0 31.851563 C 0.175781 31.851563 0 31.851563 0 31.851563 C 4.707031 31.851563 6.621094 32.023438 8.015625 28.175781 C 11.328125 18.898438 19.519531 11.023438 30.5 11.023438 C 41.652344 11.023438 49.671875 18.898438 52.984375 28.175781 C 54.378906 32.199219 56.292969 31.851563 61.347656 31.851563 L 61.347656 17.324219 Z M 61.695313 17.324219 "/>
<path style=" stroke:none;fill-rule:nonzero;fill:rgb(0%,47.058824%,84.313725%);fill-opacity:1;" d="M 61.695313 40.25 L 58.386719 40.25 C 55.421875 40.425781 54.203125 41.125 53.332031 43.226563 C 50.019531 52.5 41.828125 59.324219 30.847656 59.324219 C 19.695313 59.324219 11.675781 52.324219 8.191406 43.226563 C 7.320313 40.949219 6.101563 40.425781 3.136719 40.25 L 0.175781 40.25 C 0.175781 40.25 0.695313 40.25 0.175781 40.25 L 0.175781 52.5 L 31.195313 69.824219 L 61.695313 51.976563 Z M 61.695313 40.25 "/>
<path style=" stroke:none;fill-rule:nonzero;fill:rgb(0%,47.058824%,84.313725%);fill-opacity:1;" d="M 26.664063 45.851563 L 26.664063 25.726563 L 41.828125 35.699219 Z M 42.003906 24.148438 C 35.730469 17.851563 25.792969 17.851563 19.519531 24.148438 C 13.246094 30.449219 13.246094 40.425781 19.519531 46.726563 C 25.792969 52.851563 35.730469 52.851563 42.003906 46.726563 C 48.277344 40.601563 48.277344 30.449219 42.003906 24.148438 Z M 42.003906 24.148438 "/>
</g>
</svg>
