<?xml version="1.0" encoding="utf-8"?><svg xmlns="http://www.w3.org/2000/svg" width="100%" height="70" viewBox="0 0 18 18" preserveAspectRatio="xMidYMid meet"><defs><linearGradient id="b122302a-f09e-4194-83f1-be587a2d78bd" x1="-655.236" y1="2848.852" x2="-637.632" y2="2879.398" gradientTransform="matrix(0.5, 0.866, 0.866, -0.5, -2152.371, 1995.2)" gradientUnits="userSpaceOnUse"><stop offset="0" stop-color="#00518E" /><stop offset="0.366" stop-color="#00467A" /><stop offset="1" stop-color="#002C4E" /></linearGradient><linearGradient id="a0826712-a32a-4db2-8ce4-ce349db35558" x1="-4132.03" y1="-451.06" x2="-4110.646" y2="-413.559" gradientTransform="matrix(-0.5, -0.866, -0.866, 0.5, -2426.789, -3338.209)" gradientUnits="userSpaceOnUse"><stop offset="0" stop-color="#00518E" /><stop offset="0.451" stop-color="#003F6E" /><stop offset="1" stop-color="#002C4E" /></linearGradient><linearGradient id="bfb250ff-0c6e-4198-b82c-2afbc5fd923a" x1="5.986" y1="506.861" x2="7.43" y2="515.104" gradientTransform="matrix(1, 0, 0, -1, 0, 521.307)" gradientUnits="userSpaceOnUse"><stop offset="0.26" stop-color="#77C5FF" /><stop offset="0.42" stop-color="#95D2FF" /><stop offset="0.58" stop-color="#ABDBFF" /><stop offset="0.733" stop-color="#BBE2FF" /><stop offset="0.876" stop-color="#C7E7FF" /><stop offset="1" stop-color="#C9E8FF" /></linearGradient></defs><g id="b4bf3201-4e06-4d9e-8474-3654b7929c12"><g><g><path d="M9.226,3.927,13.6,6.442l3.048-1.76A8.79,8.79,0,0,0,2.718,2.824,10.022,10.022,0,0,1,9.226,3.927Z" fill="url(#b122302a-f09e-4194-83f1-be587a2d78bd)" /><path d="M13.541,6.442l-.069,6.034,3.168.851A8.793,8.793,0,0,0,11.4.536,10.454,10.454,0,0,1,13.541,6.442Z" fill="#006CBC" /><path d="M13.535,11.646l-4.552,2.63.071,3.5a8.8,8.8,0,0,0,8.764-8.8,8.48,8.48,0,0,0-.288-2.09A9.579,9.579,0,0,1,13.535,11.646Z" fill="#29A4FF" /><path d="M8.983,14.276l-4.555-2.63-3.02,1.812A8.782,8.782,0,0,0,15.08,15.339,9.907,9.907,0,0,1,8.983,14.276Z" fill="url(#a0826712-a32a-4db2-8ce4-ce349db35558)" /><path d="M4.425,11.646l.069-6.237L1.377,4.588A8.727,8.727,0,0,0,.183,9a8.846,8.846,0,0,0,6.535,8.5A10.184,10.184,0,0,1,4.425,11.646Z" fill="#006CBC" /><path d="M4.583,6.3l4.4-2.543A10.573,10.573,0,0,0,3.041,2.512,8.754,8.754,0,0,0,.183,9,8.966,8.966,0,0,0,.5,11.32,10.245,10.245,0,0,1,4.583,6.3Z" fill="#29A4FF" /></g><polygon points="13.535 11.646 13.535 6.386 8.98 3.757 4.425 6.386 4.425 11.646 8.98 14.276 13.535 11.646" fill="#C9E8FF" /><polygon points="8.986 9.071 8.986 14.276 4.425 11.646 4.425 6.404 8.986 9.071" fill="url(#bfb250ff-0c6e-4198-b82c-2afbc5fd923a)" /><polygon points="8.98 9.071 8.98 14.276 13.541 11.646 13.541 6.404 8.98 9.071" fill="#77C5FF" /></g></g></svg>