<?xml version="1.0" encoding="UTF-8"?>
<svg xmlns="http://www.w3.org/2000/svg" xmlns:xlink="http://www.w3.org/1999/xlink" width="70pt" height="70pt" viewBox="0 0 70 70" version="1.1">
<g id="surface1">
<path style=" stroke:none;fill-rule:evenodd;fill:rgb(199,231,255);fill-opacity:1;" d="M 5.382813 2.691406 L 64.617188 2.691406 C 66.101563 2.691406 67.308594 3.898438 67.308594 5.382813 L 67.308594 64.617188 C 67.308594 66.101563 66.101563 67.308594 64.617188 67.308594 L 5.382813 67.308594 C 3.898438 67.308594 2.691406 66.101563 2.691406 64.617188 L 2.691406 5.382813 C 2.691406 3.898438 3.898438 2.691406 5.382813 2.691406 Z M 5.382813 2.691406 "/>
<path style=" stroke:none;fill-rule:evenodd;fill:rgb(53,169,255);fill-opacity:1;" d="M 38.234375 49.425781 C 37.878906 49.679688 37.375 49.996094 36.710938 50.367188 C 36.050781 50.738281 35.222656 51.101563 34.222656 51.453125 C 33.222656 51.808594 32.046875 52.113281 30.695313 52.371094 C 29.339844 52.628906 27.808594 52.757813 26.101563 52.757813 C 23.683594 52.757813 21.398438 52.394531 19.238281 51.671875 C 17.078125 50.945313 15.183594 49.859375 13.558594 48.410156 C 11.929688 46.957031 10.640625 45.152344 9.691406 42.996094 C 8.738281 40.835938 8.265625 38.324219 8.265625 35.453125 C 8.265625 32.648438 8.722656 30.160156 9.640625 27.984375 C 10.5625 25.808594 11.816406 23.972656 13.410156 22.476563 C 15.007813 20.976563 16.875 19.832031 19.019531 19.042969 C 21.164063 18.253906 23.476563 17.859375 25.957031 17.859375 C 27.277344 17.859375 28.46875 17.9375 29.535156 18.101563 C 30.597656 18.261719 31.539063 18.46875 32.359375 18.730469 C 33.082031 18.945313 33.785156 19.222656 34.464844 19.550781 C 35.042969 19.839844 35.511719 20.097656 35.867188 20.324219 C 36.605469 20.871094 37.140625 21.445313 37.460938 22.039063 C 37.785156 22.636719 37.945313 23.257813 37.945313 23.902344 C 37.945313 24.511719 37.824219 25.09375 37.582031 25.640625 C 37.355469 26.167969 37.0625 26.660156 36.710938 27.117188 C 36.40625 27.515625 36.066406 27.886719 35.699219 28.226563 C 35.4375 28.472656 35.15625 28.691406 34.851563 28.878906 C 34.527344 28.558594 34.117188 28.179688 33.617188 27.746094 C 33.066406 27.273438 32.457031 26.875 31.804688 26.558594 C 31.023438 26.175781 30.203125 25.871094 29.363281 25.640625 C 28.445313 25.382813 27.421875 25.253906 26.292969 25.253906 C 24.875 25.253906 23.589844 25.488281 22.429688 25.957031 C 21.289063 26.410156 20.257813 27.101563 19.40625 27.984375 C 18.550781 28.871094 17.890625 29.945313 17.425781 31.199219 C 16.957031 32.457031 16.726563 33.875 16.726563 35.453125 C 16.726563 37.066406 16.980469 38.484375 17.496094 39.707031 C 18.011719 40.933594 18.722656 41.957031 19.625 42.777344 C 20.554688 43.613281 21.648438 44.25 22.839844 44.636719 C 24.078125 45.058594 25.421875 45.265625 26.875 45.265625 C 28.679688 45.265625 30.234375 45.039063 31.539063 44.589844 C 32.84375 44.140625 33.835938 43.671875 34.511719 43.1875 L 38.136719 49.425781 Z M 38.234375 49.425781 "/>
<path style=" stroke:none;fill-rule:evenodd;fill:rgb(0,108,188);fill-opacity:1;" d="M 35.347656 42.414063 C 35.539063 42.574219 35.976563 42.824219 36.652344 43.164063 C 37.328125 43.5 38.183594 43.839844 39.214844 44.179688 C 40.246094 44.515625 41.4375 44.824219 42.789063 45.097656 C 44.144531 45.371094 45.609375 45.507813 47.1875 45.507813 C 48.476563 45.507813 49.507813 45.417969 50.28125 45.242188 C 51.058594 45.066406 51.652344 44.832031 52.070313 44.542969 C 52.488281 44.253906 52.765625 43.921875 52.894531 43.550781 C 53.023438 43.179688 53.085938 42.800781 53.085938 42.414063 C 53.085938 41.640625 52.773438 41.003906 52.144531 40.503906 C 51.515625 40.007813 50.347656 39.609375 48.640625 39.320313 L 43.707031 38.449219 C 42.398438 38.21875 41.105469 37.894531 39.84375 37.484375 C 38.605469 37.089844 37.4375 36.503906 36.386719 35.746094 C 35.355469 34.988281 34.507813 34.011719 33.894531 32.890625 C 33.25 31.730469 32.929688 30.296875 32.929688 28.589844 C 32.929688 27.109375 33.203125 25.714844 33.75 24.410156 C 34.308594 23.089844 35.171875 21.921875 36.265625 21 C 37.390625 20.035156 38.820313 19.269531 40.542969 18.703125 C 42.265625 18.140625 44.289063 17.859375 46.609375 17.859375 C 48.285156 17.859375 49.75 17.945313 51.007813 18.125 C 52.265625 18.300781 53.34375 18.519531 54.246094 18.777344 C 55.148438 19.035156 55.882813 19.292969 56.445313 19.550781 C 57.011719 19.808594 57.421875 20.015625 57.679688 20.179688 C 58.226563 20.5 58.75 20.945313 59.25 21.507813 C 59.75 22.074219 60 22.742188 60 23.511719 C 60 24.0625 59.902344 24.585938 59.707031 25.085938 C 59.523438 25.566406 59.289063 26.03125 59.007813 26.460938 C 58.734375 26.882813 58.4375 27.242188 58.113281 27.550781 C 57.855469 27.800781 57.582031 28.035156 57.292969 28.25 C 56.96875 27.929688 56.484375 27.566406 55.84375 27.164063 C 55.109375 26.71875 54.332031 26.355469 53.523438 26.078125 C 52.621094 25.753906 51.589844 25.480469 50.429688 25.253906 C 49.203125 25.023438 47.953125 24.910156 46.707031 24.914063 C 45.449219 24.914063 44.449219 25.019531 43.707031 25.230469 C 42.96875 25.441406 42.410156 25.699219 42.042969 26.003906 C 41.671875 26.308594 41.429688 26.65625 41.316406 27.042969 C 41.210938 27.386719 41.152344 27.746094 41.148438 28.105469 C 41.148438 28.394531 41.1875 28.671875 41.269531 28.925781 C 41.347656 29.1875 41.542969 29.433594 41.847656 29.675781 C 42.152344 29.917969 42.589844 30.144531 43.152344 30.355469 C 43.714844 30.5625 44.480469 30.765625 45.449219 30.957031 L 50.574219 31.972656 C 52.378906 32.328125 53.964844 32.769531 55.332031 33.300781 C 56.703125 33.835938 57.855469 34.488281 58.789063 35.261719 C 59.707031 36.011719 60.429688 36.972656 60.894531 38.0625 C 61.359375 39.160156 61.59375 40.464844 61.59375 41.980469 C 61.59375 45.363281 60.328125 48.003906 57.800781 49.90625 C 55.269531 51.808594 51.703125 52.757813 47.09375 52.757813 C 44.996094 52.757813 43.074219 52.582031 41.316406 52.226563 C 39.558594 51.871094 38.019531 51.460938 36.699219 50.996094 C 35.378906 50.527344 34.308594 50.082031 33.484375 49.664063 C 32.664063 49.246094 32.171875 48.957031 32.011719 48.796875 Z M 35.347656 42.414063 "/>
</g>
</svg>
