<?xml version="1.0" encoding="UTF-8"?>
<svg xmlns="http://www.w3.org/2000/svg" xmlns:xlink="http://www.w3.org/1999/xlink" width="70pt" height="70pt" viewBox="0 0 70 70" version="1.1">
<g id="surface1">
<path style=" stroke:none;fill-rule:nonzero;fill:rgb(57,171,255);fill-opacity:1;" d="M 54.460938 35.699219 L 36.261719 44.101563 C 35.421875 44.519531 34.578125 44.519531 33.738281 44.101563 L 15.398438 35.699219 L 15.398438 53.058594 C 15.398438 58.238281 24.078125 62.300781 34.859375 62.300781 C 45.640625 62.300781 54.320313 58.101563 54.320313 53.058594 L 54.320313 35.699219 Z M 54.460938 35.699219 "/>
<path style=" stroke:none;fill-rule:nonzero;fill:rgb(57,171,255);fill-opacity:1;" d="M 61.460938 37.941406 C 60.761719 34.441406 58.519531 31.640625 55.160156 30.238281 L 38.5 23.238281 C 38.078125 21.140625 31.359375 21.28125 31.359375 23.519531 C 31.359375 24.921875 34.160156 25.621094 36.398438 25.199219 L 54.179688 32.761719 C 56.558594 33.738281 58.238281 35.839844 58.800781 38.359375 C 58.101563 38.78125 57.679688 39.621094 57.679688 40.460938 L 57.679688 47.878906 C 57.679688 49.28125 58.800781 50.539063 60.339844 50.539063 C 61.878906 50.539063 63 49.421875 63 47.878906 L 63 40.460938 C 63 39.339844 62.441406 38.359375 61.460938 37.941406 Z M 61.460938 37.941406 "/>
<path style=" stroke:none;fill-rule:nonzero;fill:rgb(57,171,255);fill-opacity:1;" d="M 68.460938 23.519531 L 36.121094 8.679688 C 35.28125 8.261719 34.441406 8.261719 33.601563 8.679688 L 1.539063 23.519531 C 0.421875 24.078125 0.421875 25.621094 1.539063 26.179688 L 33.878906 41.019531 C 34.71875 41.441406 35.558594 41.441406 36.398438 41.019531 L 52.078125 33.738281 L 36.960938 27.019531 C 36.398438 27.160156 35.699219 27.160156 35 27.160156 C 30.660156 27.160156 27.300781 25.480469 27.300781 23.519531 C 27.300781 21.558594 30.800781 19.878906 35 19.878906 C 39.199219 19.878906 42.839844 21.140625 42.980469 22.960938 L 59.640625 30.101563 L 68.460938 26.039063 C 69.578125 25.621094 69.578125 24.078125 68.460938 23.519531 Z M 68.460938 23.519531 "/>
</g>
</svg>
