<?xml version="1.0" encoding="UTF-8"?>
<svg xmlns="http://www.w3.org/2000/svg" xmlns:xlink="http://www.w3.org/1999/xlink" width="70pt" height="70pt" viewBox="0 0 70 70" version="1.1">
<defs>
<filter id="alpha" filterUnits="objectBoundingBox" x="0%" y="0%" width="100%" height="100%">
  <feColorMatrix type="matrix" in="SourceGraphic" values="0 0 0 0 1 0 0 0 0 1 0 0 0 0 1 0 0 0 1 0"/>
</filter>
<mask id="mask0">
  <g filter="url(#alpha)">
<rect x="0" y="0" width="70" height="70" style="fill:rgb(0,0,0);fill-opacity:0.501961;stroke:none;"/>
  </g>
</mask>
<clipPath id="clip1">
  <rect x="0" y="0" width="70" height="70"/>
</clipPath>
<g id="surface5" clip-path="url(#clip1)">
<path style=" stroke:none;fill-rule:nonzero;fill:rgb(63,173,255);fill-opacity:1;" d="M 38.617188 59.109375 C 38.542969 59.109375 38.464844 59.089844 38.398438 59.050781 C 38.265625 58.972656 38.1875 58.832031 38.1875 58.679688 L 38.1875 42.335938 C 38.1875 42.179688 38.269531 42.039063 38.398438 41.960938 L 52.597656 33.765625 C 52.730469 33.691406 52.894531 33.691406 53.027344 33.765625 C 53.160156 33.84375 53.242188 33.984375 53.242188 34.136719 L 53.242188 50.480469 C 53.242188 50.636719 53.160156 50.777344 53.023438 50.855469 L 38.828125 59.050781 C 38.765625 59.089844 38.691406 59.109375 38.617188 59.109375 "/>
</g>
<mask id="mask1">
  <g filter="url(#alpha)">
<rect x="0" y="0" width="70" height="70" style="fill:rgb(0,0,0);fill-opacity:0.2;stroke:none;"/>
  </g>
</mask>
<clipPath id="clip2">
  <rect x="0" y="0" width="70" height="70"/>
</clipPath>
<g id="surface8" clip-path="url(#clip2)">
<path style=" stroke:none;fill-rule:nonzero;fill:rgb(0,33,58);fill-opacity:1;" d="M 6.640625 16.675781 L 6.640625 63.992188 C 6.675781 65.199219 6.050781 66.332031 5.007813 66.949219 C 3.964844 67.5625 2.671875 67.5625 1.632813 66.949219 C 0.589844 66.332031 -0.0351563 65.199219 0 63.992188 L 0 2.800781 L 22.347656 2.800781 L 30.65625 11.109375 L 67.289063 11.109375 L 67.289063 16.675781 Z M 6.640625 16.675781 "/>
</g>
</defs>
<g id="surface1">
<path style=" stroke:none;fill-rule:nonzero;fill:rgb(191,227,255);fill-opacity:1;" d="M 67.289063 16.675781 L 67.289063 11.109375 L 30.65625 11.109375 L 22.347656 2.800781 L 0 2.800781 L 0 63.992188 C 0 65.824219 1.484375 67.3125 3.316406 67.3125 L 66.679688 67.3125 C 68.511719 67.3125 70 65.824219 70 63.992188 L 70 16.675781 Z M 67.289063 16.675781 "/>
<path style=" stroke:none;fill-rule:nonzero;fill:rgb(0,135,236);fill-opacity:1;" d="M 36.644531 39.121094 C 36.570313 39.121094 36.496094 39.101563 36.429688 39.0625 L 22.183594 30.839844 C 22.050781 30.761719 21.972656 30.621094 21.972656 30.464844 C 21.972656 30.3125 22.050781 30.171875 22.183594 30.09375 L 36.339844 21.925781 C 36.472656 21.851563 36.636719 21.851563 36.769531 21.925781 L 51.019531 30.152344 C 51.152344 30.226563 51.230469 30.367188 51.230469 30.519531 C 51.234375 30.675781 51.152344 30.816406 51.019531 30.894531 L 36.863281 39.0625 C 36.796875 39.101563 36.722656 39.121094 36.644531 39.121094 "/>
<path style=" stroke:none;fill-rule:nonzero;fill:rgb(63,173,255);fill-opacity:1;" d="M 34.597656 59.109375 C 34.523438 59.109375 34.449219 59.089844 34.382813 59.050781 L 20.179688 50.855469 C 20.046875 50.78125 19.960938 50.636719 19.960938 50.480469 L 19.960938 34.03125 C 19.960938 33.878906 20.046875 33.734375 20.179688 33.65625 C 20.316406 33.582031 20.480469 33.582031 20.613281 33.65625 L 34.816406 41.851563 C 34.945313 41.933594 35.023438 42.074219 35.023438 42.226563 L 35.023438 58.679688 C 35.023438 58.835938 34.941406 58.972656 34.816406 59.050781 C 34.75 59.089844 34.675781 59.109375 34.597656 59.109375 "/>
<use xlink:href="#surface5" mask="url(#mask0)"/>
<use xlink:href="#surface8" mask="url(#mask1)"/>
</g>
</svg>
