<?xml version="1.0" encoding="UTF-8"?>
<svg xmlns="http://www.w3.org/2000/svg" xmlns:xlink="http://www.w3.org/1999/xlink" width="70pt" height="70pt" viewBox="0 0 70 70" version="1.1">
<defs>
<filter id="alpha" filterUnits="objectBoundingBox" x="0%" y="0%" width="100%" height="100%">
  <feColorMatrix type="matrix" in="SourceGraphic" values="0 0 0 0 1 0 0 0 0 1 0 0 0 0 1 0 0 0 1 0"/>
</filter>
<mask id="mask0">
  <g filter="url(#alpha)">
<rect x="0" y="0" width="70" height="70" style="fill:rgb(0%,0%,0%);fill-opacity:0.2;stroke:none;"/>
  </g>
</mask>
<clipPath id="clip1">
  <rect x="0" y="0" width="70" height="70"/>
</clipPath>
<g id="surface5" clip-path="url(#clip1)">
<path style=" stroke:none;fill-rule:nonzero;fill:rgb(100%,100%,100%);fill-opacity:1;" d="M 12.742188 12.601563 C 12.742188 19.378906 18.15625 24.882813 24.894531 25.046875 L 28.023438 0.476563 C 27.097656 0.253906 26.152344 0.144531 25.199219 0.140625 C 18.320313 0.140625 12.742188 5.71875 12.742188 12.601563 M 16.03125 28 L 2.800781 28 L 2.800781 60.199219 L 20.367188 60.199219 L 23.136719 38.121094 Z M 16.03125 28 "/>
</g>
<mask id="mask1">
  <g filter="url(#alpha)">
<rect x="0" y="0" width="70" height="70" style="fill:rgb(0%,0%,0%);fill-opacity:0.2;stroke:none;"/>
  </g>
</mask>
<clipPath id="clip2">
  <rect x="0" y="0" width="70" height="70"/>
</clipPath>
<g id="surface8" clip-path="url(#clip2)">
<path style=" stroke:none;fill-rule:nonzero;fill:rgb(100%,100%,100%);fill-opacity:1;" d="M 19.601563 46.199219 C 18.828125 46.199219 18.199219 46.828125 18.199219 47.601563 L 18.199219 65.800781 C 18.199219 66.574219 18.828125 67.199219 19.601563 67.199219 L 42 67.199219 L 42 46.199219 Z M 19.601563 46.199219 "/>
</g>
</defs>
<g id="surface1">
<path style=" stroke:none;fill-rule:nonzero;fill:rgb(50.196078%,28.627451%,59.607843%);fill-opacity:1;" d="M 37.660156 12.601563 C 37.660156 19.480469 32.082031 25.058594 25.199219 25.058594 C 18.320313 25.058594 12.738281 19.480469 12.738281 12.601563 C 12.738281 5.71875 18.320313 0.140625 25.199219 0.140625 C 32.082031 0.140625 37.660156 5.71875 37.660156 12.601563 M 34.371094 28 L 25.199219 41.058594 L 16.03125 28 L 2.800781 28 L 2.800781 60.199219 L 47.601563 60.199219 L 47.601563 28 Z M 34.371094 28 "/>
<use xlink:href="#surface5" mask="url(#mask0)"/>
<path style=" stroke:none;fill-rule:nonzero;fill:rgb(62.745098%,63.137255%,63.529412%);fill-opacity:1;" d="M 64.050781 70 L 19.949219 70 C 17.4375 70 15.402344 67.964844 15.398438 65.453125 L 15.398438 47.949219 C 15.402344 45.4375 17.4375 43.402344 19.949219 43.398438 L 64.050781 43.398438 C 66.5625 43.402344 68.597656 45.4375 68.601563 47.949219 L 68.601563 65.453125 C 68.597656 67.964844 66.5625 70 64.050781 70 Z M 64.050781 70 "/>
<path style=" stroke:none;fill-rule:nonzero;fill:rgb(11.764706%,11.764706%,11.764706%);fill-opacity:1;" d="M 18.199219 65.65625 L 18.199219 47.742188 C 18.199219 46.890625 18.890625 46.199219 19.742188 46.199219 L 64.257813 46.199219 C 65.109375 46.199219 65.800781 46.890625 65.800781 47.742188 L 65.800781 65.65625 C 65.800781 66.511719 65.109375 67.199219 64.257813 67.199219 L 19.742188 67.199219 C 18.890625 67.199219 18.199219 66.507813 18.199219 65.65625 Z M 18.199219 65.65625 "/>
<use xlink:href="#surface8" mask="url(#mask1)"/>
<path style=" stroke:none;fill-rule:nonzero;fill:rgb(100%,100%,100%);fill-opacity:1;" d="M 38.464844 50.785156 C 38.449219 50.660156 38.382813 50.546875 38.28125 50.46875 L 36.511719 49.105469 C 36.300781 48.9375 35.996094 48.976563 35.828125 49.1875 L 28.058594 59.152344 L 23.625 54.398438 C 23.539063 54.300781 23.417969 54.246094 23.289063 54.242188 C 23.160156 54.234375 23.035156 54.28125 22.941406 54.367188 L 21.304688 55.882813 C 21.160156 56.015625 21.109375 56.222656 21.179688 56.410156 C 21.121094 56.574219 21.160156 56.761719 21.277344 56.894531 L 21.84375 57.507813 L 28.273438 64.398438 L 38.355469 51.472656 C 38.441406 51.371094 38.480469 51.238281 38.464844 51.109375 C 38.460938 51.074219 38.445313 51.046875 38.433594 51.015625 C 38.460938 50.941406 38.472656 50.863281 38.464844 50.785156 Z M 61.601563 51.566406 L 59.035156 49 L 53.898438 54.132813 L 48.765625 49 L 46.199219 51.566406 L 51.332031 56.699219 L 46.199219 61.832031 L 48.765625 64.398438 L 53.898438 59.265625 L 59.035156 64.398438 L 61.601563 61.832031 L 56.464844 56.699219 Z M 61.601563 51.566406 "/>
</g>
</svg>
