<?xml version="1.0" encoding="UTF-8"?>
<svg xmlns="http://www.w3.org/2000/svg" xmlns:xlink="http://www.w3.org/1999/xlink" width="70pt" height="70pt" viewBox="0 0 70 70" version="1.1">
<g id="surface1">
<path style=" stroke:none;fill-rule:nonzero;fill:rgb(57,171,255);fill-opacity:1;" d="M 61.128906 40.078125 C 57.09375 43.160156 52.34375 44.664063 47.625 44.664063 C 40.925781 44.664063 34.308594 41.65625 29.933594 35.933594 C 22.457031 26.171875 24.300781 12.210938 34.078125 4.730469 C 38.109375 1.625 42.871094 0.144531 47.582031 0.144531 C 54.277344 0.144531 60.898438 3.152344 65.273438 8.878906 C 72.75 18.640625 70.886719 32.605469 61.128906 40.078125 "/>
<path style=" stroke:none;fill-rule:nonzero;fill:rgb(255,255,255);fill-opacity:1;" d="M 57.039063 26.308594 C 58.65625 28.414063 61.65625 28.796875 63.753906 27.203125 C 63.863281 27.117188 63.949219 27.015625 64.046875 26.925781 C 66.191406 28.4375 67.679688 29.433594 68.523438 30.007813 C 68.769531 29.363281 68.941406 28.746094 69.117188 28.097656 C 68.230469 27.4375 67.03125 26.515625 65.296875 25.109375 C 65.867188 23.613281 65.6875 21.867188 64.648438 20.503906 C 63.164063 18.582031 60.53125 18.09375 58.472656 19.277344 C 56.207031 17.242188 53.714844 14.914063 51.089844 12.300781 C 59.25 7.914063 65.046875 8.554688 65.046875 8.554688 C 64.078125 7.320313 62.992188 6.242188 61.835938 5.265625 C 58.394531 4.730469 53.046875 4.792969 46.9375 8.042969 L 46.9375 8.039063 C 44.902344 5.90625 42.828125 3.625 40.71875 1.171875 C 39.710938 1.492188 38.722656 1.894531 37.769531 2.371094 C 39.328125 4.917969 41.421875 7.488281 43.785156 9.996094 C 43.789063 10.003906 43.792969 10.007813 43.800781 10.011719 C 41.832031 11.390625 39.640625 13.230469 37.617188 15.371094 C 37.359375 15.644531 37.109375 15.921875 36.867188 16.199219 C 35.660156 15.945313 34.386719 16.019531 33.203125 16.449219 C 31.1875 12.097656 31.347656 8.601563 31.667969 6.800781 C 30.792969 7.71875 29.976563 8.683594 29.269531 9.710938 C 28.746094 11.859375 28.59375 14.964844 30.148438 18.703125 C 28.351563 21.054688 28.265625 24.390625 30.144531 26.851563 C 30.300781 27.054688 30.46875 27.246094 30.640625 27.425781 C 29.820313 30.21875 29.453125 32.914063 29.339844 35.226563 C 29.550781 35.515625 29.550781 35.746094 29.761719 36.027344 C 30.828125 37.394531 32.167969 38.550781 33.464844 39.597656 C 33.304688 37.148438 33.476563 33.535156 34.992188 29.46875 C 36.035156 29.546875 37.097656 29.382813 38.09375 28.964844 C 38.664063 29.464844 39.257813 29.972656 39.894531 30.488281 C 42.078125 32.21875 44.257813 33.5625 46.382813 34.625 C 46.269531 35.703125 46.542969 36.828125 47.246094 37.757813 C 48.746094 39.695313 51.523438 40.054688 53.460938 38.574219 C 53.863281 38.265625 54.183594 37.894531 54.449219 37.492188 C 57.910156 38.261719 60.9375 38.398438 63.179688 38.398438 C 63.523438 38.398438 65.121094 36.230469 66.03125 34.886719 C 64.664063 35.171875 60.617188 35.726563 55.082031 34.136719 C 54.945313 33.515625 54.691406 32.914063 54.28125 32.375 C 52.875 30.53125 50.304688 30.128906 48.386719 31.363281 C 46.464844 30.320313 44.449219 29.011719 42.371094 27.367188 C 41.949219 27.035156 41.550781 26.703125 41.160156 26.371094 C 42.429688 24.371094 42.566406 21.804688 41.445313 19.644531 C 41.699219 19.390625 41.949219 19.136719 42.21875 18.882813 C 44.277344 16.960938 46.210938 15.421875 48.023438 14.1875 C 47.953125 14.117188 47.886719 14.046875 47.8125 13.980469 C 47.886719 14.046875 47.953125 14.113281 48.027344 14.179688 C 48.027344 14.179688 48.027344 14.183594 48.027344 14.183594 C 50.804688 16.753906 53.75 19.1875 56.542969 21.363281 C 55.800781 22.933594 55.914063 24.839844 57.039063 26.308594 Z M 57.039063 26.308594 "/>
<path style=" stroke:none;fill-rule:nonzero;fill:rgb(65,174,255);fill-opacity:1;" d="M 58.800781 39.550781 L 58.800781 30.449219 C 58.800781 29.871094 58.328125 29.398438 57.75 29.398438 L 51.449219 29.398438 C 50.871094 29.398438 50.398438 29.871094 50.398438 30.449219 C 50.398438 29.871094 49.929688 29.398438 49.351563 29.398438 L 34.648438 29.398438 C 34.070313 29.398438 33.601563 29.871094 33.601563 30.449219 C 33.601563 29.871094 33.128906 29.398438 32.550781 29.398438 L 17.851563 29.398438 C 17.269531 29.398438 16.800781 29.871094 16.800781 30.449219 C 16.800781 29.871094 16.328125 29.398438 15.75 29.398438 L 1.050781 29.398438 C 0.46875 29.398438 0 29.871094 0 30.449219 L 0 39.550781 C 0 40.128906 0.46875 40.601563 1.050781 40.601563 C 0.46875 40.601563 0 41.070313 0 41.648438 L 0 49.351563 C 0 49.929688 0.46875 50.398438 1.050781 50.398438 C 0.46875 50.398438 0 50.871094 0 51.449219 L 0 59.148438 C 0 59.730469 0.46875 60.199219 1.050781 60.199219 C 0.46875 60.199219 0 60.671875 0 61.25 L 0 68.949219 C 0 69.53125 0.46875 70 1.050781 70 L 7.351563 70 C 7.929688 70 8.398438 69.53125 8.398438 68.949219 C 8.398438 69.53125 8.871094 70 9.449219 70 L 24.148438 70 C 24.730469 70 25.199219 69.53125 25.199219 68.949219 C 25.199219 69.53125 25.671875 70 26.25 70 L 40.949219 70 C 41.53125 70 42 69.53125 42 68.949219 C 42 69.53125 42.46875 70 43.050781 70 L 57.75 70 C 58.328125 70 58.800781 69.53125 58.800781 68.949219 L 58.800781 61.25 C 58.800781 60.671875 58.328125 60.199219 57.75 60.199219 C 58.328125 60.199219 58.800781 59.730469 58.800781 59.148438 L 58.800781 51.449219 C 58.800781 50.871094 58.328125 50.398438 57.75 50.398438 C 58.328125 50.398438 58.800781 49.929688 58.800781 49.351563 L 58.800781 41.648438 C 58.800781 41.070313 58.328125 40.601563 57.75 40.601563 C 58.328125 40.601563 58.800781 40.128906 58.800781 39.550781 Z M 58.800781 39.550781 "/>
<path style=" stroke:none;fill-rule:nonzero;fill:rgb(0,80,140);fill-opacity:1;" d="M 18.199219 32.199219 L 32.199219 32.199219 L 32.199219 39.199219 L 18.199219 39.199219 Z M 18.199219 32.199219 "/>
<path style=" stroke:none;fill-rule:nonzero;fill:rgb(0,80,140);fill-opacity:1;" d="M 35 32.199219 L 49 32.199219 L 49 39.199219 L 35 39.199219 Z M 35 32.199219 "/>
<path style=" stroke:none;fill-rule:nonzero;fill:rgb(0,135,236);fill-opacity:1;" d="M 1.398438 32.199219 L 15.398438 32.199219 L 15.398438 39.199219 L 1.398438 39.199219 Z M 1.398438 32.199219 "/>
<path style=" stroke:none;fill-rule:nonzero;fill:rgb(0,135,236);fill-opacity:1;" d="M 26.601563 42 L 40.601563 42 L 40.601563 49 L 26.601563 49 Z M 26.601563 42 "/>
<path style=" stroke:none;fill-rule:nonzero;fill:rgb(0,80,140);fill-opacity:1;" d="M 43.398438 42 L 57.398438 42 L 57.398438 49 L 43.398438 49 Z M 43.398438 42 "/>
<path style=" stroke:none;fill-rule:nonzero;fill:rgb(0,80,140);fill-opacity:1;" d="M 1.398438 42 L 7 42 L 7 49 L 1.398438 49 Z M 1.398438 42 "/>
<path style=" stroke:none;fill-rule:nonzero;fill:rgb(0,80,140);fill-opacity:1;" d="M 9.800781 42 L 23.800781 42 L 23.800781 49 L 9.800781 49 Z M 9.800781 42 "/>
<path style=" stroke:none;fill-rule:nonzero;fill:rgb(0,80,140);fill-opacity:1;" d="M 18.199219 51.800781 L 32.199219 51.800781 L 32.199219 58.800781 L 18.199219 58.800781 Z M 18.199219 51.800781 "/>
<path style=" stroke:none;fill-rule:nonzero;fill:rgb(0,135,236);fill-opacity:1;" d="M 35 51.800781 L 49 51.800781 L 49 58.800781 L 35 58.800781 Z M 35 51.800781 "/>
<path style=" stroke:none;fill-rule:nonzero;fill:rgb(0,135,236);fill-opacity:1;" d="M 1.398438 51.800781 L 15.398438 51.800781 L 15.398438 58.800781 L 1.398438 58.800781 Z M 1.398438 51.800781 "/>
<path style=" stroke:none;fill-rule:nonzero;fill:rgb(0,80,140);fill-opacity:1;" d="M 43.398438 61.601563 L 57.398438 61.601563 L 57.398438 68.601563 L 43.398438 68.601563 Z M 43.398438 61.601563 "/>
<path style=" stroke:none;fill-rule:nonzero;fill:rgb(0,80,140);fill-opacity:1;" d="M 26.601563 61.601563 L 40.601563 61.601563 L 40.601563 68.601563 L 26.601563 68.601563 Z M 26.601563 61.601563 "/>
<path style=" stroke:none;fill-rule:nonzero;fill:rgb(0,135,236);fill-opacity:1;" d="M 1.398438 61.601563 L 7 61.601563 L 7 68.601563 L 1.398438 68.601563 Z M 1.398438 61.601563 "/>
<path style=" stroke:none;fill-rule:nonzero;fill:rgb(0,135,236);fill-opacity:1;" d="M 51.800781 32.199219 L 57.398438 32.199219 L 57.398438 39.199219 L 51.800781 39.199219 Z M 51.800781 32.199219 "/>
<path style=" stroke:none;fill-rule:nonzero;fill:rgb(0,135,236);fill-opacity:1;" d="M 51.800781 51.800781 L 57.398438 51.800781 L 57.398438 58.800781 L 51.800781 58.800781 Z M 51.800781 51.800781 "/>
<path style=" stroke:none;fill-rule:nonzero;fill:rgb(0,80,140);fill-opacity:1;" d="M 9.800781 61.601563 L 23.800781 61.601563 L 23.800781 68.601563 L 9.800781 68.601563 Z M 9.800781 61.601563 "/>
</g>
</svg>
