<?xml version="1.0" encoding="UTF-8"?>
<svg xmlns="http://www.w3.org/2000/svg" xmlns:xlink="http://www.w3.org/1999/xlink" width="70pt" height="70pt" viewBox="0 0 70 70" version="1.1">
<defs>
<filter id="alpha" filterUnits="objectBoundingBox" x="0%" y="0%" width="100%" height="100%">
  <feColorMatrix type="matrix" in="SourceGraphic" values="0 0 0 0 1 0 0 0 0 1 0 0 0 0 1 0 0 0 1 0"/>
</filter>
<mask id="mask0">
  <g filter="url(#alpha)">
<rect x="0" y="0" width="70" height="70" style="fill:rgb(0,0,0);fill-opacity:0.4;stroke:none;"/>
  </g>
</mask>
<clipPath id="clip1">
  <rect x="0" y="0" width="70" height="70"/>
</clipPath>
<g id="surface5" clip-path="url(#clip1)">
<path style=" stroke:none;fill-rule:nonzero;fill:rgb(255,255,255);fill-opacity:1;" d="M 4.199219 5.640625 L 51.800781 5.640625 L 51.800781 67.15625 L 4.199219 67.15625 Z M 4.199219 5.640625 "/>
</g>
<mask id="mask1">
  <g filter="url(#alpha)">
<rect x="0" y="0" width="70" height="70" style="fill:rgb(0,0,0);fill-opacity:0.501961;stroke:none;"/>
  </g>
</mask>
<clipPath id="clip2">
  <rect x="0" y="0" width="70" height="70"/>
</clipPath>
<g id="surface8" clip-path="url(#clip2)">
<path style=" stroke:none;fill-rule:nonzero;fill:rgb(3,148,255);fill-opacity:1;" d="M 42.734375 22.347656 L 29.527344 14.777344 C 28.554688 14.230469 27.390625 14.226563 26.367188 14.789063 L 13.253906 22.304688 C 12.273438 22.875 9.800781 23.800781 9.800781 28.347656 L 9.800781 43.460938 C 9.800781 44.632813 10.441406 45.707031 11.414063 46.234375 L 24.472656 53.71875 C 24.972656 54.027344 26.601563 54.601563 28 54.601563 C 29.398438 54.601563 31 54.039063 31.484375 53.746094 L 44.554688 46.253906 C 45.570313 45.691406 46.199219 44.621094 46.199219 43.460938 L 46.199219 28.441406 C 46.199219 23.800781 43.71875 22.90625 42.734375 22.347656 Z M 42.734375 22.347656 "/>
</g>
<mask id="mask2">
  <g filter="url(#alpha)">
<rect x="0" y="0" width="70" height="70" style="fill:rgb(0,0,0);fill-opacity:0.8;stroke:none;"/>
  </g>
</mask>
<clipPath id="clip3">
  <rect x="0" y="0" width="70" height="70"/>
</clipPath>
<g id="surface11" clip-path="url(#clip3)">
<path style=" stroke:none;fill-rule:nonzero;fill:rgb(255,255,255);fill-opacity:1;" d="M 26.148438 51.390625 C 26.078125 51.390625 26.007813 51.375 25.949219 51.335938 L 12.804688 43.804688 C 12.679688 43.738281 12.597656 43.605469 12.601563 43.460938 L 12.601563 28.347656 C 12.601563 28.203125 12.675781 28.074219 12.804688 28 C 12.925781 27.929688 13.082031 27.929688 13.203125 28 L 26.34375 35.53125 C 26.464844 35.605469 26.539063 35.738281 26.539063 35.878906 L 26.539063 50.992188 C 26.539063 51.132813 26.464844 51.265625 26.34375 51.339844 C 26.285156 51.371094 26.21875 51.390625 26.148438 51.390625 "/>
</g>
<mask id="mask3">
  <g filter="url(#alpha)">
<rect x="0" y="0" width="70" height="70" style="fill:rgb(0,0,0);fill-opacity:0.6;stroke:none;"/>
  </g>
</mask>
<clipPath id="clip4">
  <rect x="0" y="0" width="70" height="70"/>
</clipPath>
<g id="surface14" clip-path="url(#clip4)">
<path style=" stroke:none;fill-rule:nonzero;fill:rgb(255,255,255);fill-opacity:1;" d="M 29.867188 51.390625 C 29.796875 51.390625 29.726563 51.371094 29.660156 51.335938 C 29.542969 51.265625 29.46875 51.132813 29.46875 50.992188 L 29.46875 35.972656 C 29.46875 35.832031 29.546875 35.703125 29.660156 35.628906 L 42.800781 28.097656 C 42.925781 28.027344 43.074219 28.027344 43.199219 28.097656 C 43.324219 28.167969 43.398438 28.300781 43.398438 28.441406 L 43.398438 43.460938 C 43.402344 43.605469 43.324219 43.738281 43.199219 43.804688 L 30.0625 51.339844 C 30.003906 51.371094 29.9375 51.390625 29.867188 51.390625 "/>
</g>
<mask id="mask4">
  <g filter="url(#alpha)">
<rect x="0" y="0" width="70" height="70" style="fill:rgb(0,0,0);fill-opacity:0.4;stroke:none;"/>
  </g>
</mask>
<clipPath id="clip5">
  <rect x="0" y="0" width="70" height="70"/>
</clipPath>
<g id="surface17" clip-path="url(#clip5)">
<path style=" stroke:none;fill-rule:nonzero;fill:rgb(255,255,255);fill-opacity:1;" d="M 51.800781 57.523438 C 52.722656 57.304688 53.660156 57.132813 54.601563 57.003906 L 54.601563 47.261719 C 53.65625 47.40625 52.722656 47.597656 51.800781 47.839844 Z M 51.800781 57.523438 "/>
</g>
</defs>
<g id="surface1">
<path style=" stroke:none;fill-rule:nonzero;fill:rgb(3,148,255);fill-opacity:1;" d="M 54.601563 70 L 1.398438 70 L 1.398438 2.800781 L 54.601563 2.800781 Z M 4.199219 67.15625 L 51.800781 67.199219 L 51.800781 5.601563 L 4.199219 5.640625 Z M 4.199219 67.15625 "/>
<path style=" stroke:none;fill-rule:nonzero;fill:rgb(57,171,255);fill-opacity:1;" d="M 4.199219 5.640625 L 51.800781 5.640625 L 51.800781 67.15625 L 4.199219 67.15625 Z M 4.199219 5.640625 "/>
<use xlink:href="#surface5" mask="url(#mask0)"/>
<use xlink:href="#surface8" mask="url(#mask1)"/>
<path style=" stroke:none;fill-rule:nonzero;fill:rgb(255,255,255);fill-opacity:1;" d="M 28.042969 33.023438 C 27.972656 33.023438 27.902344 33.003906 27.84375 32.96875 L 14.660156 25.410156 C 14.539063 25.339844 14.460938 25.210938 14.460938 25.070313 C 14.460938 24.925781 14.539063 24.796875 14.660156 24.726563 L 27.761719 17.21875 C 27.882813 17.148438 28.035156 17.148438 28.15625 17.21875 L 41.34375 24.777344 C 41.464844 24.847656 41.539063 24.976563 41.539063 25.117188 C 41.539063 25.257813 41.464844 25.390625 41.34375 25.460938 L 28.246094 32.964844 C 28.183594 33.003906 28.113281 33.023438 28.042969 33.023438 "/>
<path style=" stroke:none;fill-rule:nonzero;fill:rgb(3,148,255);fill-opacity:1;" d="M 26.148438 51.390625 C 26.078125 51.390625 26.007813 51.375 25.949219 51.335938 L 12.804688 43.804688 C 12.679688 43.738281 12.597656 43.605469 12.601563 43.460938 L 12.601563 28.347656 C 12.601563 28.203125 12.675781 28.074219 12.804688 28 C 12.925781 27.929688 13.082031 27.929688 13.203125 28 L 26.34375 35.53125 C 26.464844 35.605469 26.539063 35.738281 26.539063 35.878906 L 26.539063 50.992188 C 26.539063 51.132813 26.464844 51.265625 26.34375 51.339844 C 26.285156 51.371094 26.21875 51.390625 26.148438 51.390625 M 29.867188 51.390625 C 29.796875 51.390625 29.726563 51.371094 29.660156 51.335938 C 29.542969 51.265625 29.46875 51.132813 29.46875 50.992188 L 29.46875 35.972656 C 29.46875 35.832031 29.546875 35.703125 29.660156 35.628906 L 42.800781 28.097656 C 42.925781 28.027344 43.074219 28.027344 43.199219 28.097656 C 43.324219 28.167969 43.398438 28.300781 43.398438 28.441406 L 43.398438 43.460938 C 43.402344 43.605469 43.324219 43.738281 43.199219 43.804688 L 30.0625 51.339844 C 30.003906 51.371094 29.9375 51.390625 29.867188 51.390625 "/>
<use xlink:href="#surface11" mask="url(#mask2)"/>
<use xlink:href="#surface14" mask="url(#mask3)"/>
<path style=" stroke:none;fill-rule:nonzero;fill:rgb(0,112,196);fill-opacity:1;" d="M 58.800781 43.398438 L 70 51.800781 L 58.800781 60.199219 Z M 58.800781 43.398438 "/>
<use xlink:href="#surface17" mask="url(#mask4)"/>
<path style=" stroke:none;fill-rule:nonzero;fill:rgb(0,112,196);fill-opacity:1;" d="M 58.800781 55.308594 C 47.601563 55.308594 40.601563 60.898438 39.199219 63 C 39.199219 53.570313 49 48.335938 58.800781 48.335938 Z M 58.800781 55.308594 "/>
</g>
</svg>
