<?xml version="1.0" encoding="UTF-8"?>
<svg xmlns="http://www.w3.org/2000/svg" xmlns:xlink="http://www.w3.org/1999/xlink" width="70pt" height="70pt" viewBox="0 0 70 70" version="1.1">
<defs>
<filter id="alpha" filterUnits="objectBoundingBox" x="0%" y="0%" width="100%" height="100%">
  <feColorMatrix type="matrix" in="SourceGraphic" values="0 0 0 0 1 0 0 0 0 1 0 0 0 0 1 0 0 0 1 0"/>
</filter>
<mask id="mask0">
  <g filter="url(#alpha)">
<rect x="0" y="0" width="70" height="70" style="fill:rgb(0,0,0);fill-opacity:0.6;stroke:none;"/>
  </g>
</mask>
<clipPath id="clip1">
  <rect x="0" y="0" width="70" height="70"/>
</clipPath>
<g id="surface5" clip-path="url(#clip1)">
<path style=" stroke:none;fill-rule:nonzero;fill:rgb(255,255,255);fill-opacity:1;" d="M 2.800781 60.199219 L 2.800781 5.601563 L 44.800781 5.601563 L 44.800781 60.199219 Z M 2.800781 60.199219 "/>
</g>
<mask id="mask1">
  <g filter="url(#alpha)">
<rect x="0" y="0" width="70" height="70" style="fill:rgb(0,0,0);fill-opacity:0.4;stroke:none;"/>
  </g>
</mask>
<clipPath id="clip2">
  <rect x="0" y="0" width="70" height="70"/>
</clipPath>
<g id="surface8" clip-path="url(#clip2)">
<path style=" stroke:none;fill-rule:nonzero;fill:rgb(255,255,255);fill-opacity:1;" d="M 9.800781 12.601563 L 51.800781 12.601563 L 51.800781 67.199219 L 9.800781 67.199219 Z M 9.800781 12.601563 "/>
</g>
<mask id="mask2">
  <g filter="url(#alpha)">
<rect x="0" y="0" width="70" height="70" style="fill:rgb(0,0,0);fill-opacity:0.501961;stroke:none;"/>
  </g>
</mask>
<clipPath id="clip3">
  <rect x="0" y="0" width="70" height="70"/>
</clipPath>
<g id="surface11" clip-path="url(#clip3)">
<path style=" stroke:none;fill-rule:nonzero;fill:rgb(3,148,255);fill-opacity:1;" d="M 43.265625 27.953125 L 32.09375 21.546875 C 31.261719 21.082031 30.246094 21.085938 29.417969 21.558594 L 18.324219 27.914063 C 17.492188 28.398438 15.398438 29.179688 15.398438 33.027344 L 15.398438 45.820313 C 15.398438 46.808594 15.941406 47.71875 16.765625 48.164063 L 27.816406 54.496094 C 28.238281 54.757813 29.617188 55.242188 30.800781 55.242188 C 31.984375 55.242188 33.339844 54.769531 33.75 54.523438 L 44.808594 48.183594 C 45.667969 47.707031 46.199219 46.800781 46.199219 45.820313 L 46.199219 33.109375 C 46.199219 29.179688 44.101563 28.425781 43.265625 27.953125 Z M 43.265625 27.953125 "/>
</g>
<mask id="mask3">
  <g filter="url(#alpha)">
<rect x="0" y="0" width="70" height="70" style="fill:rgb(0,0,0);fill-opacity:0.8;stroke:none;"/>
  </g>
</mask>
<clipPath id="clip4">
  <rect x="0" y="0" width="70" height="70"/>
</clipPath>
<g id="surface14" clip-path="url(#clip4)">
<path style=" stroke:none;fill-rule:nonzero;fill:rgb(255,255,255);fill-opacity:1;" d="M 29.230469 52.527344 C 29.171875 52.53125 29.113281 52.515625 29.0625 52.484375 L 17.941406 46.109375 C 17.835938 46.054688 17.769531 45.941406 17.769531 45.820313 L 17.769531 33.027344 C 17.769531 32.90625 17.835938 32.796875 17.941406 32.738281 C 18.046875 32.675781 18.175781 32.675781 18.28125 32.738281 L 29.398438 39.109375 C 29.5 39.171875 29.5625 39.285156 29.5625 39.402344 L 29.5625 52.195313 C 29.5625 52.3125 29.5 52.421875 29.398438 52.484375 C 29.347656 52.511719 29.289063 52.527344 29.230469 52.527344 "/>
</g>
<mask id="mask4">
  <g filter="url(#alpha)">
<rect x="0" y="0" width="70" height="70" style="fill:rgb(0,0,0);fill-opacity:0.6;stroke:none;"/>
  </g>
</mask>
<clipPath id="clip5">
  <rect x="0" y="0" width="70" height="70"/>
</clipPath>
<g id="surface17" clip-path="url(#clip5)">
<path style=" stroke:none;fill-rule:nonzero;fill:rgb(255,255,255);fill-opacity:1;" d="M 32.378906 52.527344 C 32.320313 52.527344 32.257813 52.511719 32.207031 52.484375 C 32.105469 52.421875 32.042969 52.3125 32.042969 52.191406 L 32.042969 39.484375 C 32.042969 39.363281 32.105469 39.253906 32.207031 39.191406 L 43.324219 32.820313 C 43.429688 32.761719 43.554688 32.761719 43.660156 32.820313 C 43.765625 32.878906 43.828125 32.992188 43.828125 33.113281 L 43.828125 45.820313 C 43.828125 45.941406 43.765625 46.050781 43.660156 46.109375 L 32.542969 52.484375 C 32.496094 52.511719 32.4375 52.527344 32.378906 52.527344 "/>
</g>
<mask id="mask5">
  <g filter="url(#alpha)">
<rect x="0" y="0" width="70" height="70" style="fill:rgb(0,0,0);fill-opacity:0.4;stroke:none;"/>
  </g>
</mask>
<clipPath id="clip6">
  <rect x="0" y="0" width="70" height="70"/>
</clipPath>
<g id="surface20" clip-path="url(#clip6)">
<path style=" stroke:none;fill-rule:nonzero;fill:rgb(255,255,255);fill-opacity:1;" d="M 51.800781 57.523438 C 52.722656 57.304688 53.660156 57.132813 54.601563 57.003906 L 54.601563 47.261719 C 53.65625 47.40625 52.722656 47.597656 51.800781 47.839844 Z M 51.800781 57.523438 "/>
</g>
</defs>
<g id="surface1">
<path style=" stroke:none;fill-rule:nonzero;fill:rgb(39,163,255);fill-opacity:1;" d="M 47.601563 63 L 0 63 L 0 2.800781 L 47.601563 2.800781 Z M 2.800781 60.199219 L 44.800781 60.238281 "/>
<use xlink:href="#surface5" mask="url(#mask0)"/>
<path style=" stroke:none;fill-rule:nonzero;fill:rgb(3,148,255);fill-opacity:1;" d="M 54.601563 70 L 7 70 L 7 9.800781 L 54.601563 9.800781 Z M 9.800781 67.199219 L 51.800781 67.238281 L 51.800781 12.601563 L 9.800781 12.636719 Z M 9.800781 67.199219 "/>
<path style=" stroke:none;fill-rule:nonzero;fill:rgb(57,171,255);fill-opacity:1;" d="M 9.800781 12.601563 L 51.800781 12.601563 L 51.800781 67.199219 L 9.800781 67.199219 Z M 9.800781 12.601563 "/>
<use xlink:href="#surface8" mask="url(#mask1)"/>
<use xlink:href="#surface11" mask="url(#mask2)"/>
<path style=" stroke:none;fill-rule:nonzero;fill:rgb(255,255,255);fill-opacity:1;" d="M 30.835938 36.988281 C 30.773438 36.988281 30.71875 36.96875 30.664063 36.941406 L 19.511719 30.546875 C 19.410156 30.488281 19.34375 30.375 19.34375 30.257813 C 19.34375 30.136719 19.410156 30.027344 19.511719 29.964844 L 30.597656 23.613281 C 30.703125 23.554688 30.828125 23.554688 30.929688 23.613281 L 42.089844 30.007813 C 42.191406 30.070313 42.257813 30.179688 42.253906 30.296875 C 42.253906 30.417969 42.191406 30.527344 42.089844 30.589844 L 31.007813 36.9375 C 30.953125 36.96875 30.894531 36.988281 30.835938 36.988281 "/>
<path style=" stroke:none;fill-rule:nonzero;fill:rgb(3,148,255);fill-opacity:1;" d="M 29.230469 52.527344 C 29.171875 52.53125 29.113281 52.515625 29.0625 52.484375 L 17.941406 46.109375 C 17.835938 46.054688 17.769531 45.941406 17.769531 45.820313 L 17.769531 33.027344 C 17.769531 32.90625 17.835938 32.796875 17.941406 32.738281 C 18.046875 32.675781 18.175781 32.675781 18.28125 32.738281 L 29.398438 39.109375 C 29.5 39.171875 29.5625 39.285156 29.5625 39.402344 L 29.5625 52.195313 C 29.5625 52.3125 29.5 52.421875 29.398438 52.484375 C 29.347656 52.511719 29.289063 52.527344 29.230469 52.527344 M 32.378906 52.527344 C 32.320313 52.527344 32.257813 52.511719 32.207031 52.484375 C 32.105469 52.421875 32.042969 52.3125 32.042969 52.191406 L 32.042969 39.484375 C 32.042969 39.363281 32.105469 39.253906 32.207031 39.191406 L 43.324219 32.820313 C 43.429688 32.761719 43.554688 32.761719 43.660156 32.820313 C 43.765625 32.878906 43.828125 32.992188 43.828125 33.113281 L 43.828125 45.820313 C 43.828125 45.941406 43.765625 46.050781 43.660156 46.109375 L 32.542969 52.484375 C 32.496094 52.511719 32.4375 52.527344 32.378906 52.527344 "/>
<use xlink:href="#surface14" mask="url(#mask3)"/>
<use xlink:href="#surface17" mask="url(#mask4)"/>
<path style=" stroke:none;fill-rule:nonzero;fill:rgb(0,112,196);fill-opacity:1;" d="M 58.800781 43.398438 L 70 51.800781 L 58.800781 60.199219 Z M 58.800781 43.398438 "/>
<use xlink:href="#surface20" mask="url(#mask5)"/>
<path style=" stroke:none;fill-rule:nonzero;fill:rgb(0,112,196);fill-opacity:1;" d="M 58.800781 55.308594 C 47.601563 55.308594 40.601563 60.898438 39.199219 63 C 39.199219 53.570313 49 48.335938 58.800781 48.335938 Z M 58.800781 55.308594 "/>
</g>
</svg>
