<?xml version="1.0" encoding="UTF-8"?>
<svg xmlns="http://www.w3.org/2000/svg" xmlns:xlink="http://www.w3.org/1999/xlink" width="70pt" height="70pt" viewBox="0 0 70 70" version="1.1">
<defs>
<filter id="alpha" filterUnits="objectBoundingBox" x="0%" y="0%" width="100%" height="100%">
  <feColorMatrix type="matrix" in="SourceGraphic" values="0 0 0 0 1 0 0 0 0 1 0 0 0 0 1 0 0 0 1 0"/>
</filter>
<mask id="mask0">
  <g filter="url(#alpha)">
<rect x="0" y="0" width="70" height="70" style="fill:rgb(0,0,0);fill-opacity:0.2;stroke:none;"/>
  </g>
</mask>
<clipPath id="clip1">
  <rect x="0" y="0" width="70" height="70"/>
</clipPath>
<g id="surface5" clip-path="url(#clip1)">
<path style=" stroke:none;fill-rule:nonzero;fill:rgb(255,255,255);fill-opacity:1;" d="M 65.1875 5.125 L 14.453125 5.125 C 12.730469 5.125 11.339844 6.96875 11.339844 9.027344 L 11.339844 51.363281 C 11.339844 53.410156 12.730469 55.234375 14.453125 55.234375 L 15.660156 55.234375 Z M 65.1875 5.125 "/>
</g>
</defs>
<g id="surface1">
<path style="fill:none;stroke-width:3;stroke-linecap:butt;stroke-linejoin:miter;stroke:rgb(53,169,255);stroke-opacity:1;stroke-miterlimit:4;" d="M 28.977232 45.122768 L 28.977232 40.122991 " transform="matrix(1.346154,0,0,1.346154,0,0)"/>
<path style="fill:none;stroke-width:3;stroke-linecap:round;stroke-linejoin:miter;stroke:rgb(53,169,255);stroke-opacity:1;stroke-miterlimit:4;" d="M 45.372321 47.107589 L 33.202232 47.107589 M 23.733705 47.107589 L 11.563616 47.107589 " transform="matrix(1.346154,0,0,1.346154,0,0)"/>
<path style="fill-rule:evenodd;fill:rgb(255,255,255);fill-opacity:1;stroke-width:2;stroke-linecap:butt;stroke-linejoin:miter;stroke:rgb(53,169,255);stroke-opacity:1;stroke-miterlimit:4;" d="M 24.740625 49.167857 L 33.213839 49.167857 L 33.213839 45.296875 L 24.740625 45.296875 Z M 24.740625 49.167857 " transform="matrix(1.346154,0,0,1.346154,0,0)"/>
<path style="fill-rule:nonzero;fill:rgb(213,237,255);fill-opacity:1;stroke-width:2;stroke-linecap:butt;stroke-linejoin:miter;stroke:rgb(0,108,188);stroke-opacity:1;stroke-miterlimit:4;" d="M 47.003125 29.775223 L 10.971652 29.775223 C 10.127232 29.775223 9.471429 30.317857 9.471429 31.014286 L 9.471429 38.532812 C 9.471429 39.232143 10.127232 39.774777 10.971652 39.774777 L 47.003125 39.774777 C 47.847545 39.774777 48.503348 39.232143 48.503348 38.532812 L 48.503348 31.014286 C 48.503348 30.317857 47.847545 29.775223 47.003125 29.775223 Z M 47.003125 29.775223 " transform="matrix(1.346154,0,0,1.346154,0,0)"/>
<path style="fill:none;stroke-width:1;stroke-linecap:butt;stroke-linejoin:miter;stroke:rgb(0,108,188);stroke-opacity:1;stroke-miterlimit:4;" d="M 14.302902 36.095312 C 13.554241 36.095312 12.895536 35.480134 12.895536 34.775 C 12.895536 34.069866 13.554241 33.454687 14.302902 33.454687 C 15.054464 33.454687 15.710268 34.069866 15.710268 34.775 C 15.710268 35.480134 15.054464 36.095312 14.302902 36.095312 Z M 14.302902 36.095312 " transform="matrix(1.346154,0,0,1.346154,0,0)"/>
<path style=" stroke:none;fill-rule:evenodd;fill:rgb(0,108,188);fill-opacity:1;" d="M 51.234375 48.585938 L 59.3125 48.585938 C 59.757813 48.585938 60.121094 48.949219 60.121094 49.394531 C 60.121094 49.839844 59.757813 50.203125 59.3125 50.203125 L 51.234375 50.203125 C 50.789063 50.203125 50.425781 49.839844 50.425781 49.394531 C 50.425781 48.949219 50.789063 48.585938 51.234375 48.585938 Z M 51.234375 48.585938 "/>
<path style=" stroke:none;fill-rule:evenodd;fill:rgb(0,108,188);fill-opacity:1;" d="M 51.234375 45.84375 L 59.3125 45.84375 C 59.757813 45.84375 60.121094 46.207031 60.121094 46.652344 C 60.121094 47.097656 59.757813 47.460938 59.3125 47.460938 L 51.234375 47.460938 C 50.789063 47.460938 50.425781 47.097656 50.425781 46.652344 C 50.425781 46.207031 50.789063 45.84375 51.234375 45.84375 Z M 51.234375 45.84375 "/>
<path style=" stroke:none;fill-rule:evenodd;fill:rgb(0,108,188);fill-opacity:1;" d="M 51.234375 43.152344 L 59.3125 43.152344 C 59.757813 43.152344 60.121094 43.515625 60.121094 43.960938 C 60.121094 44.40625 59.757813 44.769531 59.3125 44.769531 L 51.234375 44.769531 C 50.789063 44.769531 50.425781 44.40625 50.425781 43.960938 C 50.425781 43.515625 50.789063 43.152344 51.234375 43.152344 Z M 51.234375 43.152344 "/>
<path style="fill-rule:nonzero;fill:rgb(213,237,255);fill-opacity:1;stroke-width:2;stroke-linecap:butt;stroke-linejoin:miter;stroke:rgb(0,108,188);stroke-opacity:1;stroke-miterlimit:4;" d="M 47.003125 17.146652 L 10.971652 17.146652 C 10.127232 17.146652 9.471429 17.689286 9.471429 18.385714 L 9.471429 25.907143 C 9.471429 26.603571 10.127232 27.146205 10.971652 27.146205 L 47.003125 27.146205 C 47.847545 27.146205 48.503348 26.603571 48.503348 25.907143 L 48.503348 18.385714 C 48.503348 17.689286 47.847545 17.146652 47.003125 17.146652 Z M 47.003125 17.146652 " transform="matrix(1.346154,0,0,1.346154,0,0)"/>
<path style="fill:none;stroke-width:1;stroke-linecap:butt;stroke-linejoin:miter;stroke:rgb(0,108,188);stroke-opacity:1;stroke-miterlimit:4;" d="M 14.302902 23.466741 C 13.554241 23.466741 12.895536 22.851562 12.895536 22.14933 C 12.895536 21.444196 13.554241 20.826116 14.302902 20.826116 C 15.054464 20.826116 15.710268 21.444196 15.710268 22.146429 C 15.710268 22.851562 15.054464 23.466741 14.302902 23.466741 Z M 14.302902 23.466741 " transform="matrix(1.346154,0,0,1.346154,0,0)"/>
<path style=" stroke:none;fill-rule:evenodd;fill:rgb(0,108,188);fill-opacity:1;" d="M 51.234375 31.589844 L 59.3125 31.589844 C 59.757813 31.589844 60.121094 31.949219 60.121094 32.398438 C 60.121094 32.84375 59.757813 33.203125 59.3125 33.203125 L 51.234375 33.203125 C 50.789063 33.203125 50.425781 32.84375 50.425781 32.398438 C 50.425781 31.949219 50.789063 31.589844 51.234375 31.589844 Z M 51.234375 31.589844 "/>
<path style=" stroke:none;fill-rule:evenodd;fill:rgb(0,108,188);fill-opacity:1;" d="M 51.234375 28.847656 L 59.3125 28.847656 C 59.757813 28.847656 60.121094 29.207031 60.121094 29.65625 C 60.121094 30.101563 59.757813 30.460938 59.3125 30.460938 L 51.234375 30.460938 C 50.789063 30.460938 50.425781 30.101563 50.425781 29.65625 C 50.425781 29.207031 50.789063 28.847656 51.234375 28.847656 Z M 51.234375 28.847656 "/>
<path style=" stroke:none;fill-rule:evenodd;fill:rgb(0,108,188);fill-opacity:1;" d="M 51.234375 26.15625 L 59.3125 26.15625 C 59.757813 26.15625 60.121094 26.515625 60.121094 26.960938 C 60.121094 27.40625 59.757813 27.769531 59.3125 27.769531 L 51.234375 27.769531 C 50.789063 27.769531 50.425781 27.40625 50.425781 26.960938 C 50.425781 26.515625 50.789063 26.15625 51.234375 26.15625 Z M 51.234375 26.15625 "/>
<path style="fill-rule:nonzero;fill:rgb(213,237,255);fill-opacity:1;stroke-width:2;stroke-linecap:butt;stroke-linejoin:miter;stroke:rgb(0,108,188);stroke-opacity:1;stroke-miterlimit:4;" d="M 47.003125 4.520982 L 10.971652 4.520982 C 10.127232 4.520982 9.471429 5.060714 9.471429 5.760045 L 9.471429 13.278571 C 9.471429 13.977902 10.127232 14.517634 10.971652 14.517634 L 47.003125 14.517634 C 47.847545 14.517634 48.503348 13.977902 48.503348 13.278571 L 48.503348 5.760045 C 48.503348 5.060714 47.847545 4.51808 47.003125 4.51808 Z M 47.003125 4.520982 " transform="matrix(1.346154,0,0,1.346154,0,0)"/>
<path style="fill:none;stroke-width:1;stroke-linecap:butt;stroke-linejoin:miter;stroke:rgb(0,108,188);stroke-opacity:1;stroke-miterlimit:4;" d="M 14.302902 10.841071 C 13.554241 10.841071 12.895536 10.222991 12.895536 9.520759 C 12.895536 8.815625 13.554241 8.200446 14.302902 8.200446 C 15.054464 8.200446 15.710268 8.815625 15.710268 9.517857 C 15.710268 10.222991 15.054464 10.83817 14.302902 10.83817 Z M 14.302902 10.841071 " transform="matrix(1.346154,0,0,1.346154,0,0)"/>
<path style=" stroke:none;fill-rule:evenodd;fill:rgb(0,108,188);fill-opacity:1;" d="M 51.234375 14.589844 L 59.3125 14.589844 C 59.757813 14.589844 60.121094 14.953125 60.121094 15.398438 C 60.121094 15.84375 59.757813 16.203125 59.3125 16.203125 L 51.234375 16.203125 C 50.789063 16.203125 50.425781 15.84375 50.425781 15.398438 C 50.425781 14.953125 50.789063 14.589844 51.234375 14.589844 Z M 51.234375 14.589844 "/>
<path style=" stroke:none;fill-rule:evenodd;fill:rgb(0,108,188);fill-opacity:1;" d="M 51.234375 11.847656 L 59.3125 11.847656 C 59.757813 11.847656 60.121094 12.210938 60.121094 12.65625 C 60.121094 13.101563 59.757813 13.460938 59.3125 13.460938 L 51.234375 13.460938 C 50.789063 13.460938 50.425781 13.101563 50.425781 12.65625 C 50.425781 12.210938 50.789063 11.847656 51.234375 11.847656 Z M 51.234375 11.847656 "/>
<path style=" stroke:none;fill-rule:evenodd;fill:rgb(0,108,188);fill-opacity:1;" d="M 51.234375 9.15625 L 59.3125 9.15625 C 59.757813 9.15625 60.121094 9.515625 60.121094 9.960938 C 60.121094 10.410156 59.757813 10.769531 59.3125 10.769531 L 51.234375 10.769531 C 50.789063 10.769531 50.425781 10.410156 50.425781 9.960938 C 50.425781 9.515625 50.789063 9.15625 51.234375 9.15625 Z M 51.234375 9.15625 "/>
<use xlink:href="#surface5" mask="url(#mask0)"/>
<path style="fill-rule:evenodd;fill:rgb(239,248,255);fill-opacity:1;stroke-width:1.4;stroke-linecap:butt;stroke-linejoin:miter;stroke:rgb(53,169,255);stroke-opacity:1;stroke-miterlimit:4;" d="M 24.854911 12.087054 C 24.854911 18.717634 19.480804 24.091741 12.850223 24.091741 C 6.219643 24.091741 0.845536 18.717634 0.845536 12.087054 C 0.845536 5.456473 6.219643 0.0823661 12.850223 0.0823661 C 19.480804 0.0823661 24.854911 5.456473 24.854911 12.087054 Z M 24.854911 12.087054 " transform="matrix(1.346154,0,0,1.346154,1.346154,1.346154)"/>
<path style=" stroke:none;fill-rule:evenodd;fill:rgb(53,169,255);fill-opacity:1;" d="M 19.246094 23.703125 C 18.695313 24.085938 18.09375 24.390625 17.457031 24.605469 C 16.292969 25.007813 15.066406 25.203125 13.835938 25.1875 C 12.761719 25.1875 11.738281 25.027344 10.777344 24.703125 C 9.84375 24.398438 8.980469 23.902344 8.246094 23.25 C 7.503906 22.578125 6.917969 21.757813 6.523438 20.835938 C 6.097656 19.875 5.886719 18.753906 5.886719 17.476563 C 5.886719 16.226563 6.089844 15.117188 6.5 14.148438 C 6.910156 13.175781 7.46875 12.359375 8.183594 11.691406 C 8.902344 11.015625 9.753906 10.496094 10.679688 10.160156 C 11.671875 9.800781 12.71875 9.621094 13.773438 9.632813 C 14.363281 9.632813 14.894531 9.667969 15.367188 9.738281 C 15.839844 9.8125 16.261719 9.90625 16.628906 10.019531 C 17.179688 10.1875 17.703125 10.425781 18.1875 10.730469 C 18.519531 10.976563 18.757813 11.230469 18.902344 11.496094 C 19.042969 11.761719 19.117188 12.039063 19.117188 12.324219 C 19.117188 12.597656 19.0625 12.855469 18.957031 13.101563 C 18.847656 13.347656 18.71875 13.5625 18.566406 13.757813 C 18.429688 13.9375 18.277344 14.101563 18.113281 14.253906 C 18 14.363281 17.871094 14.460938 17.738281 14.546875 C 17.558594 14.371094 17.375 14.203125 17.1875 14.039063 C 16.941406 13.828125 16.671875 13.652344 16.378906 13.511719 C 16.03125 13.339844 15.667969 13.203125 15.292969 13.101563 C 14.847656 12.980469 14.386719 12.921875 13.921875 12.929688 C 13.289063 12.929688 12.71875 13.035156 12.199219 13.242188 C 11.691406 13.445313 11.234375 13.753906 10.855469 14.148438 C 10.464844 14.558594 10.160156 15.046875 9.96875 15.578125 C 9.753906 16.1875 9.648438 16.828125 9.65625 17.476563 C 9.65625 18.191406 9.773438 18.824219 10 19.371094 C 10.230469 19.917969 10.546875 20.371094 10.949219 20.738281 C 11.363281 21.113281 11.851563 21.394531 12.382813 21.570313 C 12.933594 21.753906 13.535156 21.847656 14.183594 21.847656 C 14.988281 21.847656 15.679688 21.75 16.261719 21.546875 C 16.84375 21.347656 17.285156 21.136719 17.585938 20.921875 L 19.203125 23.703125 Z M 19.246094 23.703125 "/>
<path style=" stroke:none;fill-rule:evenodd;fill:rgb(0,108,188);fill-opacity:1;" d="M 17.957031 20.578125 C 18.042969 20.648438 18.238281 20.761719 18.539063 20.914063 C 18.84375 21.0625 19.222656 21.214844 19.683594 21.363281 C 20.140625 21.515625 20.671875 21.652344 21.277344 21.773438 C 21.878906 21.894531 22.535156 21.957031 23.238281 21.957031 C 23.8125 21.957031 24.269531 21.917969 24.617188 21.839844 C 24.960938 21.757813 25.226563 21.65625 25.414063 21.527344 C 25.582031 21.421875 25.707031 21.265625 25.78125 21.085938 C 25.835938 20.917969 25.867188 20.75 25.867188 20.578125 C 25.871094 20.242188 25.714844 19.925781 25.445313 19.726563 C 25.167969 19.503906 24.644531 19.328125 23.886719 19.199219 L 21.6875 18.8125 C 21.101563 18.707031 20.527344 18.5625 19.960938 18.378906 C 19.410156 18.207031 18.890625 17.945313 18.421875 17.605469 C 17.964844 17.265625 17.582031 16.832031 17.3125 16.332031 C 17.023438 15.816406 16.878906 15.175781 16.878906 14.414063 C 16.878906 13.753906 17 13.132813 17.246094 12.550781 C 17.492188 11.96875 17.867188 11.464844 18.367188 11.03125 C 18.871094 10.601563 19.503906 10.261719 20.273438 10.011719 C 21.042969 9.757813 21.945313 9.632813 22.980469 9.632813 C 23.726563 9.632813 24.378906 9.671875 24.9375 9.75 C 25.425781 9.816406 25.910156 9.910156 26.382813 10.039063 C 26.785156 10.15625 27.113281 10.269531 27.363281 10.386719 C 27.613281 10.5 27.796875 10.59375 27.914063 10.667969 C 28.15625 10.808594 28.390625 11.007813 28.613281 11.257813 C 28.832031 11.503906 28.953125 11.824219 28.949219 12.152344 C 28.949219 12.398438 28.90625 12.632813 28.820313 12.851563 C 28.734375 13.066406 28.628906 13.273438 28.503906 13.46875 C 28.382813 13.65625 28.25 13.816406 28.105469 13.953125 C 27.992188 14.0625 27.867188 14.167969 27.738281 14.265625 C 27.542969 14.082031 27.328125 13.917969 27.09375 13.78125 C 26.769531 13.582031 26.421875 13.421875 26.058594 13.296875 C 25.609375 13.140625 25.148438 13.015625 24.679688 12.929688 C 24.132813 12.824219 23.578125 12.773438 23.023438 12.777344 C 22.460938 12.777344 22.015625 12.824219 21.6875 12.917969 C 21.355469 13.011719 21.109375 13.125 20.941406 13.261719 C 20.789063 13.378906 20.675781 13.542969 20.617188 13.726563 C 20.570313 13.878906 20.546875 14.039063 20.542969 14.199219 C 20.542969 14.328125 20.5625 14.449219 20.597656 14.566406 C 20.632813 14.679688 20.71875 14.792969 20.855469 14.902344 C 20.992188 15.007813 21.1875 15.109375 21.4375 15.203125 C 21.6875 15.296875 22.03125 15.386719 22.460938 15.472656 L 24.746094 15.921875 C 25.46875 16.058594 26.179688 16.257813 26.867188 16.515625 C 27.480469 16.753906 27.992188 17.042969 28.40625 17.390625 C 28.824219 17.734375 29.136719 18.148438 29.347656 18.640625 C 29.554688 19.128906 29.660156 19.710938 29.660156 20.382813 C 29.660156 21.890625 29.09375 23.070313 27.964844 23.917969 C 26.839844 24.765625 25.246094 25.1875 23.195313 25.1875 C 22.332031 25.195313 21.46875 25.117188 20.617188 24.953125 C 19.921875 24.816406 19.234375 24.632813 18.5625 24.402344 C 18.070313 24.234375 17.59375 24.039063 17.128906 23.8125 C 16.761719 23.621094 16.542969 23.496094 16.472656 23.421875 Z M 17.957031 20.578125 "/>
</g>
</svg>
