<?xml version="1.0" encoding="UTF-8"?>
<svg xmlns="http://www.w3.org/2000/svg" xmlns:xlink="http://www.w3.org/1999/xlink" width="70pt" height="70pt" viewBox="0 0 70 70" version="1.1">
<defs>
<filter id="alpha" filterUnits="objectBoundingBox" x="0%" y="0%" width="100%" height="100%">
  <feColorMatrix type="matrix" in="SourceGraphic" values="0 0 0 0 1 0 0 0 0 1 0 0 0 0 1 0 0 0 1 0"/>
</filter>
<mask id="mask0">
  <g filter="url(#alpha)">
<rect x="0" y="0" width="70" height="70" style="fill:rgb(0,0,0);fill-opacity:0.85098;stroke:none;"/>
  </g>
</mask>
<clipPath id="clip1">
  <rect x="0" y="0" width="70" height="70"/>
</clipPath>
<g id="surface5" clip-path="url(#clip1)">
<path style=" stroke:none;fill-rule:nonzero;fill:rgb(255,255,255);fill-opacity:1;" d="M 21 7 L 26.601563 7 L 26.601563 16.800781 L 21 16.800781 Z M 32.199219 7 L 37.800781 7 L 37.800781 16.800781 L 32.199219 16.800781 Z M 43.398438 7 L 49 7 L 49 16.800781 L 43.398438 16.800781 Z M 21 22.398438 L 26.601563 22.398438 L 26.601563 32.199219 L 21 32.199219 Z M 32.199219 22.398438 L 37.800781 22.398438 L 37.800781 32.199219 L 32.199219 32.199219 Z M 43.398438 22.398438 L 49 22.398438 L 49 32.199219 L 43.398438 32.199219 Z M 21 37.800781 L 26.601563 37.800781 L 26.601563 47.601563 L 21 47.601563 Z M 32.199219 37.800781 L 37.800781 37.800781 L 37.800781 47.601563 L 32.199219 47.601563 Z M 30.800781 56 L 39.199219 56 L 39.199219 68.671875 L 30.800781 68.671875 Z M 43.398438 37.800781 L 49 37.800781 L 49 47.601563 L 43.398438 47.601563 Z M 43.398438 37.800781 "/>
</g>
<mask id="mask1">
  <g filter="url(#alpha)">
<rect x="0" y="0" width="70" height="70" style="fill:rgb(0,0,0);fill-opacity:0.2;stroke:none;"/>
  </g>
</mask>
<clipPath id="clip2">
  <rect x="0" y="0" width="70" height="70"/>
</clipPath>
<g id="surface8" clip-path="url(#clip2)">
<path style=" stroke:none;fill-rule:nonzero;fill:rgb(255,255,255);fill-opacity:1;" d="M 50.398438 1.398438 L 16.789063 1.398438 C 16.777344 1.398438 15.878906 1.421875 15.535156 2.171875 C 15.511719 2.226563 15.476563 2.273438 15.457031 2.339844 L 15.453125 2.382813 C 15.421875 2.507813 15.398438 2.640625 15.398438 2.800781 L 15.398438 50.8125 Z M 50.398438 1.398438 "/>
</g>
</defs>
<g id="surface1">
<path style=" stroke:none;fill-rule:nonzero;fill:rgb(0,102,178);fill-opacity:1;" d="M 54.546875 2.382813 C 54.542969 2.371094 54.542969 2.351563 54.539063 2.339844 C 54.523438 2.28125 54.492188 2.238281 54.46875 2.183594 C 54.132813 1.417969 53.207031 1.398438 53.207031 1.398438 L 16.792969 1.398438 C 16.792969 1.398438 15.878906 1.417969 15.539063 2.171875 C 15.511719 2.230469 15.476563 2.277344 15.460938 2.339844 L 15.453125 2.382813 C 15.417969 2.519531 15.398438 2.660156 15.398438 2.800781 L 15.398438 67.199219 C 15.398438 68.539063 16.800781 68.601563 16.800781 68.601563 L 53.199219 68.601563 C 53.199219 68.601563 54.601563 68.539063 54.601563 67.199219 L 54.601563 2.800781 C 54.601563 2.640625 54.578125 2.507813 54.546875 2.382813 Z M 54.546875 2.382813 "/>
<use xlink:href="#surface5" mask="url(#mask0)"/>
<use xlink:href="#surface8" mask="url(#mask1)"/>
</g>
</svg>
