<?xml version="1.0" encoding="UTF-8"?>
<svg xmlns="http://www.w3.org/2000/svg" xmlns:xlink="http://www.w3.org/1999/xlink" width="70pt" height="70pt" viewBox="0 0 70 70" version="1.1">
<g id="surface1">
<path style=" stroke:none;fill-rule:nonzero;fill:rgb(39,163,255);fill-opacity:1;" d="M 13.300781 25.199219 L 7.699219 25.199219 C 7.3125 25.199219 7 24.886719 7 24.5 L 7 20.300781 C 7 19.914063 7.3125 19.601563 7.699219 19.601563 L 13.300781 19.601563 C 13.6875 19.601563 14 19.914063 14 20.300781 L 14 24.5 C 14 24.886719 13.6875 25.199219 13.300781 25.199219 Z M 13.300781 25.199219 "/>
<path style=" stroke:none;fill-rule:nonzero;fill:rgb(39,163,255);fill-opacity:1;" d="M 13.300781 35 L 7.699219 35 C 7.3125 35 7 34.6875 7 34.300781 L 7 30.101563 C 7 29.714844 7.3125 29.398438 7.699219 29.398438 L 13.300781 29.398438 C 13.6875 29.398438 14 29.714844 14 30.101563 L 14 34.300781 C 14 34.6875 13.6875 35 13.300781 35 Z M 13.300781 35 "/>
<path style=" stroke:none;fill-rule:nonzero;fill:rgb(39,163,255);fill-opacity:1;" d="M 13.300781 15.398438 L 7.699219 15.398438 C 7.3125 15.398438 7 15.085938 7 14.699219 L 7 10.5 C 7 10.113281 7.3125 9.800781 7.699219 9.800781 L 13.300781 9.800781 C 13.6875 9.800781 14 10.113281 14 10.5 L 14 14.699219 C 14 15.085938 13.6875 15.398438 13.300781 15.398438 Z M 13.300781 15.398438 "/>
<path style=" stroke:none;fill-rule:nonzero;fill:rgb(0,140,244);fill-opacity:1;" d="M 0 2.101563 L 0 10.5 C 0 10.886719 0.3125 11.199219 0.699219 11.199219 L 3.5 11.199219 C 3.886719 11.199219 4.199219 10.886719 4.199219 10.5 L 4.199219 6.300781 C 4.199219 5.914063 4.511719 5.601563 4.898438 5.601563 L 34.300781 5.601563 C 34.6875 5.601563 35 5.914063 35 6.300781 L 35 10.5 C 35 10.886719 35.3125 11.199219 35.699219 11.199219 L 38.5 11.199219 C 38.886719 11.199219 39.199219 10.886719 39.199219 10.5 L 39.199219 2.101563 C 39.199219 1.714844 38.886719 1.398438 38.5 1.398438 L 0.699219 1.398438 C 0.3125 1.398438 0 1.714844 0 2.101563 Z M 0 2.101563 "/>
<path style=" stroke:none;fill-rule:nonzero;fill:rgb(39,163,255);fill-opacity:1;" d="M 28.699219 37.800781 L 23.101563 37.800781 C 22.714844 37.800781 22.398438 37.488281 22.398438 37.101563 L 22.398438 32.898438 C 22.398438 32.511719 22.714844 32.199219 23.101563 32.199219 L 28.699219 32.199219 C 29.085938 32.199219 29.398438 32.511719 29.398438 32.898438 L 29.398438 37.101563 C 29.398438 37.488281 29.085938 37.800781 28.699219 37.800781 Z M 28.699219 37.800781 "/>
<path style=" stroke:none;fill-rule:nonzero;fill:rgb(39,163,255);fill-opacity:1;" d="M 28.699219 47.601563 L 23.101563 47.601563 C 22.714844 47.601563 22.398438 47.285156 22.398438 46.898438 L 22.398438 42.699219 C 22.398438 42.3125 22.714844 42 23.101563 42 L 28.699219 42 C 29.085938 42 29.398438 42.3125 29.398438 42.699219 L 29.398438 46.898438 C 29.398438 47.285156 29.085938 47.601563 28.699219 47.601563 Z M 28.699219 47.601563 "/>
<path style=" stroke:none;fill-rule:nonzero;fill:rgb(39,163,255);fill-opacity:1;" d="M 28.699219 28 L 23.101563 28 C 22.714844 28 22.398438 27.6875 22.398438 27.300781 L 22.398438 23.101563 C 22.398438 22.714844 22.714844 22.398438 23.101563 22.398438 L 28.699219 22.398438 C 29.085938 22.398438 29.398438 22.714844 29.398438 23.101563 L 29.398438 27.300781 C 29.398438 27.6875 29.085938 28 28.699219 28 Z M 28.699219 28 "/>
<path style=" stroke:none;fill-rule:nonzero;fill:rgb(0,140,244);fill-opacity:1;" d="M 15.398438 14.699219 L 15.398438 23.101563 C 15.398438 23.488281 15.714844 23.800781 16.101563 23.800781 L 18.898438 23.800781 C 19.285156 23.800781 19.601563 23.488281 19.601563 23.101563 L 19.601563 18.898438 C 19.601563 18.511719 19.914063 18.199219 20.300781 18.199219 L 49.699219 18.199219 C 50.085938 18.199219 50.398438 18.511719 50.398438 18.898438 L 50.398438 23.101563 C 50.398438 23.488281 50.714844 23.800781 51.101563 23.800781 L 53.898438 23.800781 C 54.285156 23.800781 54.601563 23.488281 54.601563 23.101563 L 54.601563 14.699219 C 54.601563 14.3125 54.285156 14 53.898438 14 L 16.101563 14 C 15.714844 14 15.398438 14.3125 15.398438 14.699219 Z M 15.398438 14.699219 "/>
<path style=" stroke:none;fill-rule:nonzero;fill:rgb(39,163,255);fill-opacity:1;" d="M 44.101563 50.398438 L 38.5 50.398438 C 38.113281 50.398438 37.800781 50.085938 37.800781 49.699219 L 37.800781 45.5 C 37.800781 45.113281 38.113281 44.800781 38.5 44.800781 L 44.101563 44.800781 C 44.488281 44.800781 44.800781 45.113281 44.800781 45.5 L 44.800781 49.699219 C 44.800781 50.085938 44.488281 50.398438 44.101563 50.398438 Z M 44.101563 50.398438 "/>
<path style=" stroke:none;fill-rule:nonzero;fill:rgb(39,163,255);fill-opacity:1;" d="M 53.898438 44.800781 L 48.300781 44.800781 C 47.914063 44.800781 47.601563 44.488281 47.601563 44.101563 L 47.601563 39.898438 C 47.601563 39.511719 47.914063 39.199219 48.300781 39.199219 L 53.898438 39.199219 C 54.285156 39.199219 54.601563 39.511719 54.601563 39.898438 L 54.601563 44.101563 C 54.601563 44.488281 54.285156 44.800781 53.898438 44.800781 Z M 53.898438 44.800781 "/>
<path style=" stroke:none;fill-rule:nonzero;fill:rgb(39,163,255);fill-opacity:1;" d="M 53.898438 54.601563 L 48.300781 54.601563 C 47.914063 54.601563 47.601563 54.285156 47.601563 53.898438 L 47.601563 49.699219 C 47.601563 49.3125 47.914063 49 48.300781 49 L 53.898438 49 C 54.285156 49 54.601563 49.3125 54.601563 49.699219 L 54.601563 53.898438 C 54.601563 54.285156 54.285156 54.601563 53.898438 54.601563 Z M 53.898438 54.601563 "/>
<path style=" stroke:none;fill-rule:nonzero;fill:rgb(39,163,255);fill-opacity:1;" d="M 63.699219 50.398438 L 58.101563 50.398438 C 57.714844 50.398438 57.398438 50.085938 57.398438 49.699219 L 57.398438 45.5 C 57.398438 45.113281 57.714844 44.800781 58.101563 44.800781 L 63.699219 44.800781 C 64.085938 44.800781 64.398438 45.113281 64.398438 45.5 L 64.398438 49.699219 C 64.398438 50.085938 64.085938 50.398438 63.699219 50.398438 Z M 63.699219 50.398438 "/>
<path style=" stroke:none;fill-rule:nonzero;fill:rgb(39,163,255);fill-opacity:1;" d="M 44.101563 60.199219 L 38.5 60.199219 C 38.113281 60.199219 37.800781 59.886719 37.800781 59.5 L 37.800781 55.300781 C 37.800781 54.914063 38.113281 54.601563 38.5 54.601563 L 44.101563 54.601563 C 44.488281 54.601563 44.800781 54.914063 44.800781 55.300781 L 44.800781 59.5 C 44.800781 59.886719 44.488281 60.199219 44.101563 60.199219 Z M 44.101563 60.199219 "/>
<path style=" stroke:none;fill-rule:nonzero;fill:rgb(39,163,255);fill-opacity:1;" d="M 44.101563 40.601563 L 38.5 40.601563 C 38.113281 40.601563 37.800781 40.285156 37.800781 39.898438 L 37.800781 35.699219 C 37.800781 35.3125 38.113281 35 38.5 35 L 44.101563 35 C 44.488281 35 44.800781 35.3125 44.800781 35.699219 L 44.800781 39.898438 C 44.800781 40.285156 44.488281 40.601563 44.101563 40.601563 Z M 44.101563 40.601563 "/>
<path style=" stroke:none;fill-rule:nonzero;fill:rgb(3,148,255);fill-opacity:1;" d="M 30.800781 27.300781 L 30.800781 35.699219 C 30.800781 36.085938 31.113281 36.398438 31.5 36.398438 L 34.300781 36.398438 C 34.6875 36.398438 35 36.085938 35 35.699219 L 35 31.5 C 35 31.113281 35.3125 30.800781 35.699219 30.800781 L 65.101563 30.800781 C 65.488281 30.800781 65.800781 31.113281 65.800781 31.5 L 65.800781 35.699219 C 65.800781 36.085938 66.113281 36.398438 66.5 36.398438 L 69.300781 36.398438 C 69.6875 36.398438 70 36.085938 70 35.699219 L 70 27.300781 C 70 26.914063 69.6875 26.601563 69.300781 26.601563 L 31.5 26.601563 C 31.113281 26.601563 30.800781 26.914063 30.800781 27.300781 Z M 30.800781 27.300781 "/>
<path style=" stroke:none;fill-rule:nonzero;fill:rgb(3,148,255);fill-opacity:1;" d="M 70 67.898438 L 70 59.5 C 70 59.113281 69.6875 58.800781 69.300781 58.800781 L 66.5 58.800781 C 66.113281 58.800781 65.800781 59.113281 65.800781 59.5 L 65.800781 63.699219 C 65.800781 64.085938 65.488281 64.398438 65.101563 64.398438 L 35.699219 64.398438 C 35.3125 64.398438 35 64.085938 35 63.699219 L 35 59.5 C 35 59.113281 34.6875 58.800781 34.300781 58.800781 L 31.5 58.800781 C 31.113281 58.800781 30.800781 59.113281 30.800781 59.5 L 30.800781 67.898438 C 30.800781 68.285156 31.113281 68.601563 31.5 68.601563 L 69.300781 68.601563 C 69.6875 68.601563 70 68.285156 70 67.898438 Z M 70 67.898438 "/>
<path style=" stroke:none;fill-rule:nonzero;fill:rgb(0,140,244);fill-opacity:1;" d="M 15.398438 39.199219 L 4.898438 39.199219 C 4.511719 39.199219 4.199219 38.886719 4.199219 38.5 L 4.199219 34.300781 C 4.199219 33.914063 3.886719 33.601563 3.5 33.601563 L 0.699219 33.601563 C 0.3125 33.601563 0 33.914063 0 34.300781 L 0 42.699219 C 0 43.085938 0.3125 43.398438 0.699219 43.398438 L 15.398438 43.398438 Z M 15.398438 39.199219 "/>
<path style=" stroke:none;fill-rule:nonzero;fill:rgb(0,140,244);fill-opacity:1;" d="M 30.800781 51.800781 L 20.300781 51.800781 C 19.914063 51.800781 19.601563 51.488281 19.601563 51.101563 L 19.601563 46.898438 C 19.601563 46.511719 19.285156 46.199219 18.898438 46.199219 L 16.101563 46.199219 C 15.714844 46.199219 15.398438 46.511719 15.398438 46.898438 L 15.398438 55.300781 C 15.398438 55.6875 15.714844 56 16.101563 56 L 30.800781 56 Z M 30.800781 51.800781 "/>
</g>
</svg>
