<?xml version="1.0" encoding="utf-8"?><svg version="1.1" xmlns="http://www.w3.org/2000/svg" xmlns:xlink="http://www.w3.org/1999/xlink" xmlns:xml="http://www.w3.org/XML/1998/namespace" width="70" height="70" viewBox="0, 0, 18, 18"><defs><linearGradient x1="11.122" y1="13.92" x2="2.751" y2="-0.562" gradientUnits="userSpaceOnUse" id="b6e62241-55ab-48cf-9a34-9e0759a89dfd"><stop offset="0%" stop-color="#A33A85" /><stop offset="99.8%" stop-color="#DC92BF" /></linearGradient></defs><g id="e89679d5-804c-4336-983f-2cbd0b6387ec"><path d="M12.494 7.023 c0 4.037 -4.969 7.286 -6.049 7.945 a0.4 0.4 0 0 1 -0.412 0 C4.952 14.309 -0.016 11.06 -0.016 7.023 V2.167 a0.389 0.389 0 0 1 0.384 -0.385 C4.232 1.679 3.343 0.013 6.239 0.013 S8.245 1.679 12.11 1.782 a0.39 0.39 0 0 1 0.384 0.385 Z" style="fill:#CE74B6;" /><path d="M11.975 7.065 c0 3.7 -4.556 6.681 -5.547 7.285 a0.362 0.362 0 0 1 -0.378 0 C5.059 13.746 0.5 10.766 0.5 7.065 V2.611 a0.357 0.357 0 0 1 0.352 -0.353 C4.4 2.164 3.583 0.636 6.239 0.636 s1.84 1.528 5.384 1.622 a0.357 0.357 0 0 1 0.352 0.353 Z" style="fill:url(#b6e62241-55ab-48cf-9a34-9e0759a89dfd);" /><path d="M6.05 8.645 H17.468 a0.368 0.368 0 0 1 0.388 0.346 v8.676 a0.368 0.368 0 0 1 -0.388 0.346 H6.05 a0.369 0.369 0 0 1 -0.388 -0.346 V8.991 A0.369 0.369 0 0 1 6.05 8.645 Z" style="fill:#DC92BF;" /><path d="M6.028 8.645 H17.491 a0.347 0.347 0 0 1 0.365 0.326 h0 v1.308 H5.662 V8.971 a0.348 0.348 0 0 1 0.366 -0.326 Z" opacity="0.7" style="fill:white;" /><path d="M16.2 13.686 H8.669 c-0.167 0 -0.3 0.076 -0.3 0.17 v0.42 c0 0.094 0.136 0.17 0.3 0.17 H16.2 c0.168 0 0.3 -0.076 0.3 -0.17 v-0.42 C16.5 13.762 16.363 13.686 16.2 13.686 Z" opacity="0.7" style="fill:white;" /><path d="M16.2 11.773 H8.669 c-0.167 0 -0.3 0.076 -0.3 0.17 v0.42 c0 0.094 0.136 0.17 0.3 0.17 H16.2 c0.168 0 0.3 -0.076 0.3 -0.17 v-0.42 C16.5 11.849 16.363 11.773 16.2 11.773 Z" opacity="0.7" style="fill:white;" /><path d="M16.68 16.286 H8.652 c-0.178 0 -0.323 0.081 -0.323 0.181 v0.448 c0 0.1 0.145 0.182 0.323 0.182 H16.68 c0.179 0 0.324 -0.081 0.324 -0.182 v-0.448 C17 16.367 16.859 16.286 16.68 16.286 Z" opacity="0.7" style="fill:white;" /><circle cx="7.118" cy="12.153" r="0.498" opacity="0.7" style="fill:white;" /><circle cx="7.118" cy="14.066" r="0.498" opacity="0.7" style="fill:white;" /><circle cx="6.998" cy="16.691" r="0.531" opacity="0.7" style="fill:white;" /></g></svg>