<?xml version="1.0" encoding="utf-8"?><svg version="1.1" xmlns="http://www.w3.org/2000/svg" xmlns:xlink="http://www.w3.org/1999/xlink" xmlns:xml="http://www.w3.org/XML/1998/namespace" width="70" height="70" viewBox="0, 0, 18, 18"><defs><linearGradient x1="11.202" y1="13.906" x2="2.831" y2="-0.576" gradientUnits="userSpaceOnUse" id="e1bc122a-5193-4b91-8d10-c94c8a3caf04"><stop offset="0%" stop-color="#008AF0" /><stop offset="100%" stop-color="#8FCFFF" /></linearGradient></defs><g id="f0ccebc5-934d-463a-9e07-8c81671ecf94"><path d="M12.574 7.01 c0 4.036 -4.969 7.286 -6.049 7.945 a0.4 0.4 0 0 1 -0.412 0 C5.032 14.3 0.064 11.046 0.064 7.01 V2.153 a0.39 0.39 0 0 1 0.384 -0.385 C4.312 1.666 3.423 0 6.319 0 S8.325 1.666 12.19 1.768 a0.39 0.39 0 0 1 0.384 0.385 Z" style="fill:#59B8FF;" /><path d="M12.055 7.051 c0 3.7 -4.556 6.682 -5.547 7.286 a0.366 0.366 0 0 1 -0.378 0 c-0.991 -0.6 -5.547 -3.584 -5.547 -7.286 V2.6 a0.357 0.357 0 0 1 0.352 -0.353 C4.479 2.15 3.663 0.623 6.319 0.623 S8.159 2.15 11.7 2.244 a0.357 0.357 0 0 1 0.352 0.353 Z" style="fill:url(#e1bc122a-5193-4b91-8d10-c94c8a3caf04);" /><path d="M6.13 8.631 H17.548 a0.369 0.369 0 0 1 0.388 0.347 v8.675 a0.369 0.369 0 0 1 -0.388 0.347 H6.13 a0.369 0.369 0 0 1 -0.388 -0.347 V8.978 A0.37 0.37 0 0 1 6.13 8.631 Z" style="fill:#8FCFFF;" /><path d="M6.108 8.631 H17.571 a0.348 0.348 0 0 1 0.365 0.327 h0 v1.307 H5.742 V8.958 a0.349 0.349 0 0 1 0.366 -0.327 Z" opacity="0.7" style="fill:white;" /><path d="M16.275 13.673 H8.749 c-0.167 0 -0.3 0.076 -0.3 0.17 v0.42 c0 0.094 0.136 0.17 0.3 0.17 h7.526 c0.168 0 0.3 -0.076 0.3 -0.17 v-0.42 C16.578 13.749 16.443 13.673 16.275 13.673 Z" opacity="0.7" style="fill:white;" /><path d="M16.275 11.759 H8.749 c-0.167 0 -0.3 0.076 -0.3 0.17 v0.42 c0 0.094 0.136 0.17 0.3 0.17 h7.526 c0.168 0 0.3 -0.076 0.3 -0.17 v-0.42 C16.578 11.835 16.443 11.759 16.275 11.759 Z" opacity="0.7" style="fill:white;" /><path d="M16.76 16.272 H8.733 c-0.179 0 -0.324 0.082 -0.324 0.182 V16.9 c0 0.1 0.145 0.181 0.324 0.181 H16.76 c0.179 0 0.324 -0.081 0.324 -0.181 v-0.448 C17.084 16.354 16.939 16.272 16.76 16.272 Z" opacity="0.7" style="fill:white;" /><circle cx="7.198" cy="12.139" r="0.498" opacity="0.7" style="fill:white;" /><circle cx="7.198" cy="14.053" r="0.498" opacity="0.7" style="fill:white;" /><circle cx="7.078" cy="16.678" r="0.531" opacity="0.7" style="fill:white;" /></g></svg>