<?xml version="1.0" encoding="UTF-8"?>
<svg xmlns="http://www.w3.org/2000/svg" xmlns:xlink="http://www.w3.org/1999/xlink" width="70pt" height="70pt" viewBox="0 0 70 70" version="1.1">
<g id="surface1">
<path style=" stroke:none;fill-rule:nonzero;fill:rgb(0,102,178);fill-opacity:1;" d="M 53.199219 50.398438 L 63 44.101563 L 53.199219 36.398438 Z M 27.300781 34.859375 C 23.941406 34.859375 21.140625 32.058594 21.140625 28.699219 C 21.140625 25.339844 23.941406 22.539063 27.300781 22.539063 C 30.660156 22.539063 33.460938 25.339844 33.460938 28.699219 C 33.460938 32.058594 30.660156 34.859375 27.300781 34.859375 Z M 27.300781 34.859375 "/>
<path style=" stroke:none;fill-rule:nonzero;fill:rgb(0,102,178);fill-opacity:1;" d="M 5.601563 40.601563 L 5.601563 15.398438 L 49 15.398438 L 49 23.800781 L 54.601563 23.800781 L 54.601563 12.601563 C 54.601563 11.199219 53.199219 9.800781 51.800781 9.800781 L 2.800781 9.800781 C 1.398438 9.800781 0 11.199219 0 12.601563 L 0 43.398438 C 0 44.800781 1.398438 46.199219 2.800781 46.199219 L 56 46.199219 L 56 40.601563 Z M 5.601563 40.601563 "/>
<path style=" stroke:none;fill-rule:nonzero;fill:rgb(0,102,178);fill-opacity:1;" d="M 67.761719 26.601563 L 28 26.601563 L 28 30.800781 L 65.800781 30.800781 L 65.800781 60.199219 L 50.398438 60.199219 L 50.398438 49 L 46.199219 49 L 46.199219 63.558594 C 46.199219 64.820313 47.179688 65.800781 48.441406 65.800781 L 67.761719 65.800781 C 69.019531 65.800781 70 64.820313 70 63.558594 L 70 28.839844 C 70 27.578125 69.019531 26.601563 67.761719 26.601563 Z M 60.199219 63 L 56 63 L 56 61.601563 L 60.199219 61.601563 Z M 60.199219 63 "/>
<path style=" stroke:none;fill-rule:nonzero;fill:rgb(0,102,178);fill-opacity:1;" d="M 32.199219 44.800781 L 22.398438 44.800781 C 22.398438 51.800781 22.398438 56 11.199219 56 L 11.199219 58.800781 L 43.398438 58.800781 L 43.398438 56 C 32.199219 56 32.199219 51.800781 32.199219 44.800781 Z M 32.199219 44.800781 "/>
</g>
</svg>
