<?xml version="1.0" encoding="UTF-8"?>
<svg xmlns="http://www.w3.org/2000/svg" xmlns:xlink="http://www.w3.org/1999/xlink" width="70pt" height="70pt" viewBox="0 0 70 70" version="1.1">
<g id="surface1">
<path style=" stroke:none;fill-rule:nonzero;fill:rgb(34.901961%,70.588235%,85.098039%);fill-opacity:1;" d="M 57.679688 15.679688 L 58.378906 16.378906 L 61.878906 13.441406 L 67.761719 3.78125 L 66.21875 2.238281 L 56.980469 8.398438 L 54.179688 12.039063 L 54.878906 12.738281 L 36.539063 31.640625 L 32.761719 27.71875 L 28.558594 32.058594 C 28.839844 34.160156 28.140625 36.398438 26.601563 38.078125 C 25.058594 39.761719 22.820313 40.460938 20.859375 40.179688 L 2.238281 59.21875 L 12.601563 70 L 31.078125 50.820313 C 30.800781 48.71875 31.5 46.480469 33.179688 44.800781 C 34.71875 43.121094 36.960938 42.421875 38.921875 42.699219 L 43.121094 38.359375 L 39.339844 34.441406 Z M 57.679688 15.679688 "/>
<path style=" stroke:none;fill-rule:nonzero;fill:rgb(34.901961%,70.588235%,85.098039%);fill-opacity:1;" d="M 56 64.398438 C 58.660156 67.199219 63 67.199219 65.660156 64.398438 C 67.058594 63 67.621094 61.179688 67.621094 59.359375 C 67.621094 57.539063 66.921875 55.71875 65.660156 54.320313 L 44.941406 33.039063 L 42.980469 35.140625 L 46.761719 39.058594 L 45.078125 40.601563 L 40.878906 44.941406 L 40.320313 45.5 L 39.480469 45.359375 C 38.921875 45.359375 38.21875 45.359375 37.660156 45.5 Z M 56 64.398438 "/>
<path style=" stroke:none;fill-rule:nonzero;fill:rgb(34.901961%,70.588235%,85.098039%);fill-opacity:1;" d="M 28.421875 4.339844 C 24.640625 0.421875 19.179688 -0.839844 14.421875 0.421875 L 22.679688 8.820313 L 20.578125 17.078125 L 12.460938 19.320313 L 4.339844 10.921875 C 3.078125 15.960938 4.339844 21.421875 8.121094 25.339844 C 11.898438 29.261719 17.359375 30.519531 22.261719 29.121094 L 22.539063 29.398438 L 26.320313 33.320313 C 26.460938 32.898438 26.460938 32.480469 26.460938 32.058594 C 26.460938 31.78125 26.460938 31.640625 26.460938 31.359375 L 26.179688 30.800781 L 32.480469 24.21875 L 33.601563 25.480469 L 36.121094 28.140625 L 38.078125 26.039063 L 32.058594 19.601563 C 33.601563 14.421875 32.480469 8.539063 28.421875 4.339844 Z M 28.421875 4.339844 "/>
</g>
</svg>
