<?xml version="1.0" encoding="UTF-8"?>
<svg xmlns="http://www.w3.org/2000/svg" xmlns:xlink="http://www.w3.org/1999/xlink" width="70pt" height="70pt" viewBox="0 0 70 70" version="1.1">
<defs>
<filter id="alpha" filterUnits="objectBoundingBox" x="0%" y="0%" width="100%" height="100%">
  <feColorMatrix type="matrix" in="SourceGraphic" values="0 0 0 0 1 0 0 0 0 1 0 0 0 0 1 0 0 0 1 0"/>
</filter>
<mask id="mask0">
  <g filter="url(#alpha)">
<rect x="0" y="0" width="70" height="70" style="fill:rgb(0,0,0);fill-opacity:0.501961;stroke:none;"/>
  </g>
</mask>
<clipPath id="clip1">
  <rect x="0" y="0" width="70" height="70"/>
</clipPath>
<g id="surface5" clip-path="url(#clip1)">
<path style=" stroke:none;fill-rule:evenodd;fill:rgb(203,232,255);fill-opacity:1;" d="M 28 61.601563 L 44.800781 61.601563 L 40.601563 51.800781 L 44.800781 42 L 44.800781 26.601563 L 28 26.601563 Z M 28 61.601563 "/>
</g>
<mask id="mask1">
  <g filter="url(#alpha)">
<rect x="0" y="0" width="70" height="70" style="fill:rgb(0,0,0);fill-opacity:0.14902;stroke:none;"/>
  </g>
</mask>
<clipPath id="clip2">
  <rect x="0" y="0" width="70" height="70"/>
</clipPath>
<g id="surface8" clip-path="url(#clip2)">
<path style=" stroke:none;fill-rule:nonzero;fill:rgb(255,255,255);fill-opacity:1;" d="M 36.429688 0 L 9.800781 0 C 7.480469 0 5.601563 1.878906 5.601563 4.199219 L 5.601563 57.398438 C 5.601563 59.722656 7.480469 61.601563 9.800781 61.601563 L 13.441406 61.601563 Z M 36.429688 0 "/>
</g>
</defs>
<g id="surface1">
<path style=" stroke:none;fill-rule:evenodd;fill:rgb(65,174,255);fill-opacity:1;" d="M 28 61.601563 L 44.800781 61.601563 L 40.601563 51.800781 L 44.800781 42 L 44.800781 26.601563 L 28 26.601563 Z M 28 61.601563 "/>
<use xlink:href="#surface5" mask="url(#mask0)"/>
<path style=" stroke:none;fill-rule:nonzero;fill:rgb(0,71,124);fill-opacity:1;" d="M 35.460938 58.460938 L 34.773438 56.789063 L 30.945313 55.535156 L 29.398438 54.953125 L 29.398438 48.847656 L 34.835938 46.90625 L 35.519531 45.238281 L 33.40625 41.070313 L 32.953125 40.164063 L 37.28125 35.839844 L 42.34375 38.257813 L 44.011719 37.574219 L 44.800781 35.171875 L 44.800781 4.199219 C 44.800781 1.878906 42.949219 0 40.660156 0 L 9.738281 0 C 7.453125 0 5.601563 1.878906 5.601563 4.199219 L 5.601563 57.398438 C 5.601563 59.71875 7.453125 61.601563 9.738281 61.601563 L 33.984375 61.601563 Z M 35.460938 58.460938 "/>
<path style=" stroke:none;fill-rule:nonzero;fill:rgb(57,171,255);fill-opacity:1;" d="M 29.398438 48.847656 L 34.835938 46.90625 L 35.519531 45.238281 L 33.40625 41.070313 L 32.953125 40.164063 L 37.28125 35.839844 L 42 38.09375 L 42 7 L 8.398438 7 L 8.398438 53.199219 L 29.398438 53.199219 Z M 29.398438 48.847656 "/>
<path style=" stroke:none;fill-rule:nonzero;fill:rgb(255,255,255);fill-opacity:1;" d="M 32.199219 3.945313 C 32.199219 4.515625 31.457031 4.976563 30.539063 4.976563 L 19.863281 4.976563 C 18.945313 4.976563 18.199219 4.515625 18.199219 3.945313 C 18.199219 3.371094 18.945313 2.910156 19.863281 2.910156 L 30.539063 2.910156 C 31.457031 2.910156 32.199219 3.371094 32.199219 3.945313 "/>
<use xlink:href="#surface8" mask="url(#mask1)"/>
<path style=" stroke:none;fill-rule:nonzero;fill:rgb(0,140,244);fill-opacity:1;" d="M 67.199219 53.765625 L 67.199219 49.617188 L 66.617188 49.398438 L 62.175781 47.941406 L 61.011719 45.101563 L 63.269531 40.296875 L 60.355469 37.386719 L 59.773438 37.675781 L 55.625 39.789063 L 52.785156 38.625 L 50.964844 33.601563 L 46.816406 33.601563 L 46.597656 34.183594 L 45.140625 38.625 L 42.300781 39.789063 L 37.570313 37.53125 L 34.660156 40.441406 L 34.949219 41.027344 L 37.0625 45.175781 L 35.894531 48.015625 L 30.800781 49.835938 L 30.800781 53.984375 L 31.382813 54.203125 L 35.824219 55.660156 L 36.988281 58.496094 L 34.730469 63.300781 L 37.644531 66.214844 L 38.226563 65.921875 L 42.375 63.8125 L 45.214844 64.976563 L 47.035156 70 L 51.183594 70 L 51.402344 69.417969 L 52.859375 64.976563 L 55.699219 63.8125 L 60.503906 66.070313 L 63.414063 63.15625 L 63.125 62.574219 L 61.011719 58.425781 L 62.175781 55.585938 Z M 49 57.988281 C 45.578125 57.988281 42.8125 55.222656 42.8125 51.800781 C 42.8125 48.378906 45.578125 45.613281 49 45.613281 C 52.421875 45.613281 55.1875 48.378906 55.1875 51.800781 C 55.1875 55.222656 52.421875 57.988281 49 57.988281 Z M 49 57.988281 "/>
</g>
</svg>
