<?xml version="1.0" encoding="UTF-8"?>
<svg xmlns="http://www.w3.org/2000/svg" xmlns:xlink="http://www.w3.org/1999/xlink" width="70pt" height="70pt" viewBox="0 0 70 70" version="1.1">
<g id="surface1">
<path style=" stroke:none;fill-rule:nonzero;fill:rgb(0,102,178);fill-opacity:1;" d="M 0 0 L 20.257813 0 L 20.257813 20.257813 L 0 20.257813 Z M 23.964844 0 L 46.078125 0 L 46.078125 20.257813 L 23.964844 20.257813 Z M 49.742188 0 L 70 0 L 70 20.257813 L 49.742188 20.257813 Z M 0 23.964844 L 20.257813 23.964844 L 20.257813 44.222656 L 0 44.222656 Z M 23.964844 23.964844 L 46.078125 23.964844 L 46.078125 44.222656 L 23.964844 44.222656 Z M 49.742188 23.964844 L 70 23.964844 L 70 44.222656 L 49.742188 44.222656 Z M 0 47.886719 L 20.257813 47.886719 L 20.257813 70 L 0 70 Z M 23.964844 47.886719 L 46.078125 47.886719 L 46.078125 70 L 23.964844 70 Z M 49.742188 47.886719 L 70 47.886719 L 70 70 L 49.742188 70 Z M 49.742188 47.886719 "/>
</g>
</svg>
