<?xml version="1.0" encoding="UTF-8"?>
<svg xmlns="http://www.w3.org/2000/svg" xmlns:xlink="http://www.w3.org/1999/xlink" width="70pt" height="70pt" viewBox="0 0 70 70" version="1.1">
<defs>
<filter id="alpha" filterUnits="objectBoundingBox" x="0%" y="0%" width="100%" height="100%">
  <feColorMatrix type="matrix" in="SourceGraphic" values="0 0 0 0 1 0 0 0 0 1 0 0 0 0 1 0 0 0 1 0"/>
</filter>
<mask id="mask0">
  <g filter="url(#alpha)">
<rect x="0" y="0" width="70" height="70" style="fill:rgb(0,0,0);fill-opacity:0.2;stroke:none;"/>
  </g>
</mask>
<clipPath id="clip1">
  <rect x="0" y="0" width="70" height="70"/>
</clipPath>
<g id="surface5" clip-path="url(#clip1)">
<path style=" stroke:none;fill-rule:nonzero;fill:rgb(255,255,255);fill-opacity:1;" d="M 18.199219 10.179688 C 12.484375 10.976563 8.371094 13.617188 7 14.605469 L 7 51.511719 C 9.308594 51.105469 13.679688 50.425781 18.199219 50.167969 Z M 47.601563 9.953125 C 47.433594 9.949219 47.269531 9.941406 47.097656 9.941406 C 39.519531 9.941406 36.902344 14.488281 36.398438 15.535156 L 36.398438 52.425781 C 38.761719 51.445313 42.847656 50.058594 47 50.058594 C 47.199219 50.058594 47.398438 50.066406 47.601563 50.070313 Z M 47.601563 9.953125 "/>
</g>
<mask id="mask1">
  <g filter="url(#alpha)">
<rect x="0" y="0" width="70" height="70" style="fill:rgb(0,0,0);fill-opacity:0.4;stroke:none;"/>
  </g>
</mask>
<clipPath id="clip2">
  <rect x="0" y="0" width="70" height="70"/>
</clipPath>
<g id="surface8" clip-path="url(#clip2)">
<path style=" stroke:none;fill-rule:nonzero;fill:rgb(0,36,64);fill-opacity:1;" d="M 8.398438 17.117188 C 12.445313 15.046875 16.957031 14.046875 21.5 14.210938 C 25.863281 14.378906 28.832031 15.820313 30.800781 17.410156 L 30.800781 19.289063 C 29.089844 17.597656 26.191406 15.792969 21.5 15.613281 C 15.664063 15.390625 11.019531 17.308594 8.398438 18.742188 Z M 8.398438 22.71875 C 12.445313 20.644531 16.957031 19.644531 21.5 19.8125 C 25.863281 19.980469 28.832031 21.421875 30.800781 23.011719 L 30.800781 24.890625 C 29.089844 23.199219 26.191406 21.390625 21.5 21.210938 C 15.664063 20.988281 11.019531 22.910156 8.398438 24.34375 Z M 8.398438 28.316406 C 12.445313 26.246094 16.957031 25.246094 21.5 25.414063 C 25.863281 25.578125 28.832031 27.019531 30.800781 28.609375 L 30.800781 30.492188 C 29.089844 28.800781 26.191406 26.992188 21.5 26.8125 C 15.664063 26.589844 11.019531 28.507813 8.398438 29.941406 Z M 8.398438 33.917969 C 12.445313 31.847656 16.957031 30.847656 21.5 31.011719 C 25.863281 31.179688 28.832031 32.621094 30.800781 34.210938 L 30.800781 36.089844 C 29.089844 34.398438 26.191406 32.59375 21.5 32.414063 C 15.664063 32.191406 11.019531 34.109375 8.398438 35.542969 Z M 8.398438 39.519531 C 12.445313 37.445313 16.957031 36.445313 21.5 36.613281 C 25.863281 36.78125 28.832031 38.222656 30.800781 39.808594 L 30.800781 41.691406 C 29.089844 40 26.191406 38.191406 21.5 38.011719 C 15.664063 37.789063 11.019531 39.710938 8.398438 41.144531 Z M 8.398438 45.117188 C 12.445313 43.046875 16.957031 42.046875 21.5 42.210938 C 25.863281 42.378906 28.832031 43.820313 30.800781 45.410156 L 30.800781 47.289063 C 29.089844 45.597656 26.191406 43.792969 21.5 43.613281 C 15.664063 43.390625 11.019531 45.308594 8.398438 46.742188 Z M 60.199219 17.117188 C 56.152344 15.046875 51.640625 14.046875 47.097656 14.210938 C 42.738281 14.378906 39.769531 15.820313 37.800781 17.410156 L 37.800781 19.289063 C 39.511719 17.597656 42.410156 15.792969 47.097656 15.613281 C 52.9375 15.390625 57.582031 17.308594 60.199219 18.742188 Z M 60.199219 22.71875 C 56.152344 20.644531 51.640625 19.644531 47.097656 19.8125 C 42.738281 19.980469 39.769531 21.421875 37.800781 23.011719 L 37.800781 24.890625 C 39.511719 23.199219 42.410156 21.390625 47.097656 21.210938 C 52.9375 20.988281 57.582031 22.910156 60.199219 24.34375 Z M 60.199219 28.316406 C 56.152344 26.246094 51.640625 25.246094 47.097656 25.414063 C 42.738281 25.578125 39.769531 27.019531 37.800781 28.609375 L 37.800781 30.492188 C 39.511719 28.800781 42.410156 26.992188 47.097656 26.8125 C 52.9375 26.589844 57.582031 28.507813 60.199219 29.941406 Z M 60.199219 33.917969 C 56.152344 31.847656 51.640625 30.847656 47.097656 31.011719 C 42.738281 31.179688 39.769531 32.621094 37.800781 34.210938 L 37.800781 36.089844 C 39.511719 34.398438 42.410156 32.59375 47.097656 32.414063 C 52.9375 32.191406 57.582031 34.109375 60.199219 35.542969 Z M 56 37.800781 C 53.820313 37.246094 49.898438 36.503906 47.097656 36.613281 C 42.738281 36.78125 39.769531 38.222656 37.800781 39.808594 L 37.800781 41.691406 C 39.511719 40 42.410156 38.191406 47.097656 38.011719 C 49.628906 37.921875 52.160156 38.21875 54.601563 38.894531 Z M 56 37.800781 "/>
</g>
<mask id="mask2">
  <g filter="url(#alpha)">
<rect x="0" y="0" width="70" height="70" style="fill:rgb(0,0,0);fill-opacity:0.2;stroke:none;"/>
  </g>
</mask>
<clipPath id="clip3">
  <rect x="0" y="0" width="70" height="70"/>
</clipPath>
<g id="surface11" clip-path="url(#clip3)">
<path style=" stroke:none;fill-rule:nonzero;fill:rgb(255,255,255);fill-opacity:1;" d="M 18.199219 10.179688 C 12.484375 10.976563 8.371094 13.617188 7 14.605469 L 7 51.511719 C 9.308594 51.105469 13.679688 50.425781 18.199219 50.167969 Z M 47.601563 9.953125 C 47.433594 9.949219 47.269531 9.941406 47.097656 9.941406 C 39.519531 9.941406 36.902344 14.488281 36.398438 15.535156 L 36.398438 52.425781 C 38.761719 51.445313 42.847656 50.058594 47 50.058594 C 47.199219 50.058594 47.398438 50.066406 47.601563 50.070313 Z M 47.601563 9.953125 "/>
</g>
</defs>
<g id="surface1">
<path style=" stroke:none;fill-rule:nonzero;fill:rgb(0,102,178);fill-opacity:1;" d="M 1.398438 11.199219 L 1.398438 57.398438 C 1.398438 58.171875 2.027344 58.800781 2.800781 58.800781 L 21 58.800781 C 26.539063 58.800781 28.464844 60.28125 29.101563 61.085938 C 29.363281 61.417969 29.761719 61.601563 30.179688 61.601563 L 38.421875 61.601563 C 38.839844 61.601563 39.238281 61.417969 39.5 61.085938 C 40.136719 60.28125 42.0625 58.800781 47.601563 58.800781 L 65.800781 58.800781 C 66.574219 58.800781 67.199219 58.171875 67.199219 57.398438 L 67.199219 11.199219 C 67.199219 10.425781 66.574219 9.800781 65.800781 9.800781 L 2.800781 9.800781 C 2.027344 9.800781 1.398438 10.425781 1.398438 11.199219 Z M 1.398438 11.199219 "/>
<path style=" stroke:none;fill-rule:nonzero;fill:rgb(203,232,255);fill-opacity:1;" d="M 7 14 L 61.601563 14 L 61.601563 54.601563 L 7 54.601563 Z M 7 14 "/>
<path style=" stroke:none;fill-rule:nonzero;fill:rgb(0,140,244);fill-opacity:1;" d="M 63.90625 12.847656 C 63.628906 12.613281 57.03125 7.140625 47.097656 7.140625 C 39.140625 7.140625 35.585938 11.414063 34.300781 13.554688 C 33.015625 11.414063 29.460938 7.140625 21.5 7.140625 C 11.570313 7.140625 4.972656 12.613281 4.695313 12.847656 L 4.199219 13.265625 L 4.199219 54.914063 L 64.398438 54.914063 L 64.398438 13.265625 Z M 63.90625 12.847656 "/>
<path style=" stroke:none;fill-rule:nonzero;fill:rgb(203,232,255);fill-opacity:1;" d="M 21.660156 8.539063 C 12.03125 8.539063 5.601563 13.914063 5.601563 13.914063 L 5.601563 53.199219 C 5.601563 53.199219 14.242188 51.457031 21.761719 51.457031 C 27.820313 51.457031 33.878906 54.601563 33.878906 54.601563 L 33.878906 15.242188 C 33.878906 15.242188 31.300781 8.539063 21.660156 8.539063 Z M 46.9375 8.539063 C 56.570313 8.539063 63 13.914063 63 13.914063 L 63 53.199219 C 63 53.199219 54.359375 51.457031 46.839844 51.457031 C 40.78125 51.457031 34.71875 54.601563 34.71875 54.601563 L 34.71875 15.242188 C 34.71875 15.242188 37.300781 8.539063 46.9375 8.539063 Z M 46.9375 8.539063 "/>
<use xlink:href="#surface5" mask="url(#mask0)"/>
<use xlink:href="#surface8" mask="url(#mask1)"/>
<use xlink:href="#surface11" mask="url(#mask2)"/>
</g>
</svg>
