<?xml version="1.0" encoding="UTF-8"?>
<svg xmlns="http://www.w3.org/2000/svg" xmlns:xlink="http://www.w3.org/1999/xlink" width="70pt" height="70pt" viewBox="0 0 70 70" version="1.1">
<defs>
<linearGradient id="linear0" gradientUnits="userSpaceOnUse" x1="8.05" y1="11.32" x2="8.05" y2="1.26" gradientTransform="matrix(3.888889,0,0,3.888889,0,0)">
<stop offset="0" style="stop-color:rgb(0,108,188);stop-opacity:1;"/>
<stop offset="0.82" style="stop-color:rgb(41,164,255);stop-opacity:1;"/>
</linearGradient>
<linearGradient id="linear1" gradientUnits="userSpaceOnUse" x1="8.05" y1="15.21" x2="8.05" y2="11.32" gradientTransform="matrix(3.888889,0,0,3.888889,0,0)">
<stop offset="0" style="stop-color:rgb(0,132,230);stop-opacity:1;"/>
<stop offset="0.98" style="stop-color:rgb(0,88,154);stop-opacity:1;"/>
</linearGradient>
<filter id="alpha" filterUnits="objectBoundingBox" x="0%" y="0%" width="100%" height="100%">
  <feColorMatrix type="matrix" in="SourceGraphic" values="0 0 0 0 1 0 0 0 0 1 0 0 0 0 1 0 0 0 1 0"/>
</filter>
<mask id="mask0">
  <g filter="url(#alpha)">
<rect x="0" y="0" width="70" height="70" style="fill:rgb(0,0,0);fill-opacity:0.901961;stroke:none;"/>
  </g>
</mask>
<linearGradient id="linear2" gradientUnits="userSpaceOnUse" x1="8.05" y1="7.87" x2="8.05" y2="4.94" gradientTransform="matrix(3.888889,0,0,3.888889,0,0)">
<stop offset="0" style="stop-color:rgb(203,232,255);stop-opacity:1;"/>
<stop offset="1" style="stop-color:rgb(245,250,255);stop-opacity:1;"/>
</linearGradient>
<clipPath id="clip1">
  <rect x="0" y="0" width="70" height="70"/>
</clipPath>
<g id="surface5" clip-path="url(#clip1)">
<path style=" stroke:none;fill-rule:nonzero;fill:url(#linear2);" d="M 36.984375 24.929688 C 36.984375 28.0625 34.441406 30.605469 31.304688 30.605469 C 28.167969 30.605469 25.628906 28.0625 25.628906 24.929688 C 25.628906 21.792969 28.167969 19.25 31.304688 19.25 C 34.441406 19.25 36.984375 21.792969 36.984375 24.929688 Z M 36.984375 24.929688 "/>
</g>
</defs>
<g id="surface1">
<path style=" stroke:none;fill-rule:nonzero;fill:url(#linear0);" d="M 3.890625 4.898438 L 58.722656 4.898438 C 59.796875 4.898438 60.667969 5.769531 60.667969 6.84375 L 60.667969 42.078125 C 60.667969 43.152344 59.796875 44.023438 58.722656 44.023438 L 3.890625 44.023438 C 2.816406 44.023438 1.945313 43.152344 1.945313 42.078125 L 1.945313 6.84375 C 1.945313 5.769531 2.816406 4.898438 3.890625 4.898438 Z M 3.890625 4.898438 "/>
<path style=" stroke:none;fill-rule:nonzero;fill:rgb(255,255,255);fill-opacity:1;" d="M 6.300781 8.167969 L 56.3125 8.167969 C 56.914063 8.167969 57.398438 8.652344 57.398438 9.253906 L 57.398438 39.707031 C 57.398438 40.308594 56.914063 40.792969 56.3125 40.792969 L 6.300781 40.792969 C 5.699219 40.792969 5.210938 40.308594 5.210938 39.707031 L 5.210938 9.253906 C 5.210938 8.652344 5.699219 8.167969 6.300781 8.167969 Z M 6.300781 8.167969 "/>
<path style=" stroke:none;fill-rule:nonzero;fill:url(#linear1);" d="M 43.089844 55.882813 C 37.253906 54.988281 37.023438 50.789063 37.0625 44.214844 L 25.394531 44.214844 C 25.394531 50.984375 25.160156 55.183594 19.367188 55.882813 C 17.742188 56.128906 16.527344 57.507813 16.488281 59.148438 L 45.8125 59.148438 C 45.773438 57.5625 44.644531 56.207031 43.089844 55.882813 Z M 43.089844 55.882813 "/>
<path style=" stroke:none;fill-rule:nonzero;fill:rgb(47,166,255);fill-opacity:1;" d="M 66.773438 22.984375 L 40.015625 22.984375 C 39.097656 18.460938 34.90625 15.371094 30.3125 15.832031 C 25.722656 16.296875 22.230469 20.160156 22.230469 24.773438 C 22.230469 29.386719 25.722656 33.25 30.3125 33.710938 C 34.90625 34.171875 39.097656 31.082031 40.015625 26.5625 L 42.777344 26.5625 L 42.777344 63.816406 C 42.777344 64.527344 43.351563 65.101563 44.0625 65.101563 L 66.734375 65.101563 C 67.441406 65.101563 68.015625 64.527344 68.015625 63.816406 L 68.015625 24.265625 C 68.015625 23.574219 67.464844 23.003906 66.773438 22.984375 Z M 66.773438 22.984375 "/>
<path style=" stroke:none;fill-rule:nonzero;fill:rgb(255,255,255);fill-opacity:1;" d="M 45.65625 26.523438 L 65.214844 26.523438 C 65.472656 26.523438 65.683594 26.730469 65.683594 26.988281 L 65.683594 59.890625 C 65.683594 60.148438 65.472656 60.355469 65.214844 60.355469 L 45.65625 60.355469 C 45.398438 60.355469 45.1875 60.148438 45.1875 59.890625 L 45.1875 26.988281 C 45.1875 26.730469 45.398438 26.523438 45.65625 26.523438 Z M 45.65625 26.523438 "/>
<use xlink:href="#surface5" mask="url(#mask0)"/>
<path style=" stroke:none;fill-rule:nonzero;fill:rgb(0,108,188);fill-opacity:1;" d="M 57.867188 42.078125 L 53.511719 37.722656 C 53.441406 37.65625 53.335938 37.644531 53.25 37.6875 C 53.164063 37.730469 53.113281 37.820313 53.121094 37.917969 L 53.121094 40.5625 C 53.121094 40.691406 53.019531 40.792969 52.890625 40.792969 L 42.777344 40.792969 L 42.777344 44.023438 L 52.890625 44.023438 C 53.019531 44.023438 53.121094 44.125 53.121094 44.253906 L 53.121094 46.9375 C 53.164063 47.003906 53.238281 47.042969 53.316406 47.042969 C 53.394531 47.042969 53.46875 47.003906 53.511719 46.9375 L 57.867188 42.777344 C 57.96875 42.6875 58.023438 42.5625 58.023438 42.429688 C 58.023438 42.292969 57.96875 42.167969 57.867188 42.078125 Z M 57.867188 42.078125 "/>
</g>
</svg>
