<?xml version="1.0" encoding="UTF-8"?>
<svg xmlns="http://www.w3.org/2000/svg" xmlns:xlink="http://www.w3.org/1999/xlink" width="70pt" height="70pt" viewBox="0 0 70 70" version="1.1">
<defs>
<linearGradient id="linear0" gradientUnits="userSpaceOnUse" x1="11.202" y1="13.906" x2="2.831" y2="-0.576" gradientTransform="matrix(3.888889,0,0,3.888889,0,0)">
<stop offset="0" style="stop-color:rgb(0%,47.058824%,83.137255%);stop-opacity:1;"/>
<stop offset="0.998" style="stop-color:rgb(51.372549%,72.54902%,97.647059%);stop-opacity:1;"/>
</linearGradient>
<filter id="alpha" filterUnits="objectBoundingBox" x="0%" y="0%" width="100%" height="100%">
  <feColorMatrix type="matrix" in="SourceGraphic" values="0 0 0 0 1 0 0 0 0 1 0 0 0 0 1 0 0 0 1 0"/>
</filter>
<mask id="mask0">
  <g filter="url(#alpha)">
<rect x="0" y="0" width="70" height="70" style="fill:rgb(0%,0%,0%);fill-opacity:0.701961;stroke:none;"/>
  </g>
</mask>
<clipPath id="clip1">
  <rect x="0" y="0" width="70" height="70"/>
</clipPath>
<g id="surface5" clip-path="url(#clip1)">
<path style=" stroke:none;fill-rule:nonzero;fill:rgb(100%,100%,100%);fill-opacity:1;" d="M 23.753906 33.566406 L 68.332031 33.566406 C 69.074219 33.527344 69.707031 34.09375 69.75 34.835938 L 69.75 39.917969 L 22.328125 39.917969 L 22.328125 34.835938 C 22.375 34.09375 23.011719 33.527344 23.753906 33.566406 Z M 23.753906 33.566406 "/>
</g>
<mask id="mask1">
  <g filter="url(#alpha)">
<rect x="0" y="0" width="70" height="70" style="fill:rgb(0%,0%,0%);fill-opacity:0.701961;stroke:none;"/>
  </g>
</mask>
<clipPath id="clip2">
  <rect x="0" y="0" width="70" height="70"/>
</clipPath>
<g id="surface8" clip-path="url(#clip2)">
<path style=" stroke:none;fill-rule:nonzero;fill:rgb(100%,100%,100%);fill-opacity:1;" d="M 63.292969 53.171875 L 34.023438 53.171875 C 33.375 53.171875 32.855469 53.46875 32.855469 53.832031 L 32.855469 55.46875 C 32.855469 55.832031 33.386719 56.128906 34.023438 56.128906 L 63.292969 56.128906 C 63.945313 56.128906 64.457031 55.832031 64.457031 55.46875 L 64.457031 53.832031 C 64.46875 53.46875 63.945313 53.171875 63.292969 53.171875 Z M 63.292969 53.171875 "/>
</g>
<mask id="mask2">
  <g filter="url(#alpha)">
<rect x="0" y="0" width="70" height="70" style="fill:rgb(0%,0%,0%);fill-opacity:0.701961;stroke:none;"/>
  </g>
</mask>
<clipPath id="clip3">
  <rect x="0" y="0" width="70" height="70"/>
</clipPath>
<g id="surface11" clip-path="url(#clip3)">
<path style=" stroke:none;fill-rule:nonzero;fill:rgb(100%,100%,100%);fill-opacity:1;" d="M 63.292969 45.730469 L 34.023438 45.730469 C 33.375 45.730469 32.855469 46.023438 32.855469 46.390625 L 32.855469 48.023438 C 32.855469 48.390625 33.386719 48.683594 34.023438 48.683594 L 63.292969 48.683594 C 63.945313 48.683594 64.457031 48.390625 64.457031 48.023438 L 64.457031 46.390625 C 64.46875 46.023438 63.945313 45.730469 63.292969 45.730469 Z M 63.292969 45.730469 "/>
</g>
<mask id="mask3">
  <g filter="url(#alpha)">
<rect x="0" y="0" width="70" height="70" style="fill:rgb(0%,0%,0%);fill-opacity:0.701961;stroke:none;"/>
  </g>
</mask>
<clipPath id="clip4">
  <rect x="0" y="0" width="70" height="70"/>
</clipPath>
<g id="surface14" clip-path="url(#clip4)">
<path style=" stroke:none;fill-rule:nonzero;fill:rgb(100%,100%,100%);fill-opacity:1;" d="M 65.179688 63.28125 L 33.960938 63.28125 C 33.265625 63.28125 32.703125 63.597656 32.703125 63.988281 L 32.703125 65.722656 C 32.703125 66.109375 33.265625 66.425781 33.960938 66.425781 L 65.179688 66.425781 C 65.875 66.425781 66.4375 66.109375 66.4375 65.722656 L 66.4375 63.980469 C 66.4375 63.597656 65.875 63.28125 65.179688 63.28125 Z M 65.179688 63.28125 "/>
</g>
<mask id="mask4">
  <g filter="url(#alpha)">
<rect x="0" y="0" width="70" height="70" style="fill:rgb(0%,0%,0%);fill-opacity:0.701961;stroke:none;"/>
  </g>
</mask>
<clipPath id="clip5">
  <rect x="0" y="0" width="70" height="70"/>
</clipPath>
<g id="surface17" clip-path="url(#clip5)">
<path style=" stroke:none;fill-rule:nonzero;fill:rgb(100%,100%,100%);fill-opacity:1;" d="M 29.929688 47.207031 C 29.929688 48.277344 29.0625 49.144531 27.992188 49.144531 C 26.921875 49.144531 26.054688 48.277344 26.054688 47.207031 C 26.054688 46.136719 26.921875 45.269531 27.992188 45.269531 C 29.0625 45.269531 29.929688 46.136719 29.929688 47.207031 Z M 29.929688 47.207031 "/>
</g>
<mask id="mask5">
  <g filter="url(#alpha)">
<rect x="0" y="0" width="70" height="70" style="fill:rgb(0%,0%,0%);fill-opacity:0.701961;stroke:none;"/>
  </g>
</mask>
<clipPath id="clip6">
  <rect x="0" y="0" width="70" height="70"/>
</clipPath>
<g id="surface20" clip-path="url(#clip6)">
<path style=" stroke:none;fill-rule:nonzero;fill:rgb(100%,100%,100%);fill-opacity:1;" d="M 29.929688 54.652344 C 29.929688 55.71875 29.0625 56.585938 27.992188 56.585938 C 26.921875 56.585938 26.054688 55.71875 26.054688 54.652344 C 26.054688 53.582031 26.921875 52.714844 27.992188 52.714844 C 29.0625 52.714844 29.929688 53.582031 29.929688 54.652344 Z M 29.929688 54.652344 "/>
</g>
<mask id="mask6">
  <g filter="url(#alpha)">
<rect x="0" y="0" width="70" height="70" style="fill:rgb(0%,0%,0%);fill-opacity:0.701961;stroke:none;"/>
  </g>
</mask>
<clipPath id="clip7">
  <rect x="0" y="0" width="70" height="70"/>
</clipPath>
<g id="surface23" clip-path="url(#clip7)">
<path style=" stroke:none;fill-rule:nonzero;fill:rgb(100%,100%,100%);fill-opacity:1;" d="M 29.589844 64.859375 C 29.589844 66 28.667969 66.925781 27.527344 66.925781 C 26.386719 66.925781 25.460938 66 25.460938 64.859375 C 25.460938 63.71875 26.386719 62.792969 27.527344 62.792969 C 28.667969 62.792969 29.589844 63.71875 29.589844 64.859375 Z M 29.589844 64.859375 "/>
</g>
</defs>
<g id="surface1">
<path style=" stroke:none;fill-rule:nonzero;fill:rgb(36.862745%,62.745098%,93.72549%);fill-opacity:1;" d="M 48.898438 27.261719 C 48.898438 42.957031 29.574219 55.59375 25.375 58.160156 C 24.882813 58.453125 24.265625 58.453125 23.773438 58.160156 C 19.570313 55.609375 0.25 42.957031 0.25 27.261719 L 0.25 8.371094 C 0.257813 7.550781 0.921875 6.886719 1.742188 6.875 C 16.769531 6.480469 13.3125 0 24.574219 0 C 35.835938 0 32.375 6.480469 47.40625 6.875 C 48.226563 6.886719 48.886719 7.550781 48.898438 8.371094 Z M 48.898438 27.261719 "/>
<path style=" stroke:none;fill-rule:nonzero;fill:url(#linear0);" d="M 46.878906 27.421875 C 46.878906 41.808594 29.164063 53.40625 25.308594 55.753906 C 24.855469 56.027344 24.289063 56.027344 23.839844 55.753906 C 19.984375 53.421875 2.265625 41.816406 2.265625 27.421875 L 2.265625 10.109375 C 2.277344 9.359375 2.882813 8.75 3.636719 8.738281 C 17.417969 8.359375 14.246094 2.421875 24.574219 2.421875 C 34.902344 2.421875 31.730469 8.359375 45.5 8.726563 C 46.253906 8.738281 46.859375 9.347656 46.867188 10.097656 Z M 46.878906 27.421875 "/>
<path style=" stroke:none;fill-rule:nonzero;fill:rgb(51.372549%,72.54902%,97.647059%);fill-opacity:1;" d="M 23.839844 33.566406 L 68.242188 33.566406 C 69.03125 33.523438 69.707031 34.125 69.75 34.914063 L 69.75 68.652344 C 69.707031 69.4375 69.03125 70.042969 68.242188 70 L 23.839844 70 C 23.050781 70.042969 22.375 69.4375 22.328125 68.652344 L 22.328125 34.914063 C 22.378906 34.128906 23.050781 33.523438 23.839844 33.566406 Z M 23.839844 33.566406 "/>
<use xlink:href="#surface5" mask="url(#mask0)"/>
<use xlink:href="#surface8" mask="url(#mask1)"/>
<use xlink:href="#surface11" mask="url(#mask2)"/>
<use xlink:href="#surface14" mask="url(#mask3)"/>
<use xlink:href="#surface17" mask="url(#mask4)"/>
<use xlink:href="#surface20" mask="url(#mask5)"/>
<use xlink:href="#surface23" mask="url(#mask6)"/>
</g>
</svg>
