<?xml version="1.0" encoding="utf-8"?><svg version="1.1" xmlns="http://www.w3.org/2000/svg" xmlns:xlink="http://www.w3.org/1999/xlink" xmlns:xml="http://www.w3.org/XML/1998/namespace" width="70" height="70" viewBox="0, 0, 18, 18" id="a9ed4d43-c916-4b9a-b9ca-be76fbdc694c"><defs><linearGradient x1="8.05" y1="11.32" x2="8.05" y2="1.26" gradientUnits="userSpaceOnUse" id="aaede26b-698f-4a65-b6db-859d207e2da6"><stop offset="0%" stop-color="#006CBC" /><stop offset="82%" stop-color="#29A4FF" /></linearGradient><linearGradient x1="8.05" y1="15.21" x2="8.05" y2="11.32" gradientUnits="userSpaceOnUse" id="bc54987f-34ba-4701-8ce4-6eca10aff9e9"><stop offset="0%" stop-color="#0084E6" /><stop offset="98%" stop-color="#00589A" /></linearGradient><linearGradient x1="8.05" y1="7.87" x2="8.05" y2="4.94" gradientUnits="userSpaceOnUse" id="a5434fd8-c18c-472c-be91-f2aa070858b7"><stop offset="0%" stop-color="#CBE8FF" /><stop offset="100%" stop-color="#F5FAFF" /></linearGradient></defs><title>Icon-intune-329</title><rect x="0.5" y="1.26" width="15.1" height="10.06" rx="0.5" style="fill:url(#aaede26b-698f-4a65-b6db-859d207e2da6);" /><rect x="1.34" y="2.1" width="13.42" height="8.39" rx="0.28" style="fill:white;" /><path d="M11.08 14.37 c-1.5 -0.23 -1.56 -1.31 -1.55 -3 h-3 c0 1.74 -0.06 2.82 -1.55 3 a0.87 0.87 0 0 0 -0.74 0.84 h7.54 A0.88 0.88 0 0 0 11.08 14.37 Z" style="fill:url(#bc54987f-34ba-4701-8ce4-6eca10aff9e9);" /><path d="M17.17 5.91 H10.29 a2.31 2.31 0 1 0 0 0.92 H11 v9.58 a0.33 0.33 0 0 0 0.33 0.33 h5.83 a0.33 0.33 0 0 0 0.33 -0.33 V6.24 A0.33 0.33 0 0 0 17.17 5.91 Z" style="fill:#2FA6FF;" /><rect x="11.62" y="6.82" width="5.27" height="8.7" rx="0.12" style="fill:white;" /><circle cx="8.05" cy="6.41" r="1.46" opacity="0.9" style="fill:url(#a5434fd8-c18c-472c-be91-f2aa070858b7);" /><path d="M14.88 10.82 L13.76 9.7 a0.06 0.06 0 0 0 -0.1 0.05 v0.68 a0.06 0.06 0 0 1 -0.06 0.06 H11 v0.83 H13.6 a0.06 0.06 0 0 1 0.06 0.06 v0.69 a0.06 0.06 0 0 0 0.1 0 L14.88 11 A0.12 0.12 0 0 0 14.88 10.82 Z" style="fill:#006CBC;" /></svg>