<?xml version="1.0" encoding="UTF-8"?>
<svg xmlns="http://www.w3.org/2000/svg" xmlns:xlink="http://www.w3.org/1999/xlink" width="70pt" height="70pt" viewBox="0 0 70 70" version="1.1">
<defs>
<filter id="alpha" filterUnits="objectBoundingBox" x="0%" y="0%" width="100%" height="100%">
  <feColorMatrix type="matrix" in="SourceGraphic" values="0 0 0 0 1 0 0 0 0 1 0 0 0 0 1 0 0 0 1 0"/>
</filter>
<mask id="mask0">
  <g filter="url(#alpha)">
<rect x="0" y="0" width="70" height="70" style="fill:rgb(0,0,0);fill-opacity:0.4;stroke:none;"/>
  </g>
</mask>
<clipPath id="clip1">
  <rect x="0" y="0" width="70" height="70"/>
</clipPath>
<g id="surface5" clip-path="url(#clip1)">
<path style=" stroke:none;fill-rule:nonzero;fill:rgb(115,195,255);fill-opacity:1;" d="M 31.660156 18.820313 L 41.597656 6.78125 C 28.449219 5.402344 26.25 0.00390625 26.25 0.00390625 C 26.25 0.00390625 23.289063 7.105469 4.375 7.105469 L 4.375 36.238281 C 4.375 39.761719 6.429688 43.058594 9.273438 45.941406 L 16.621094 37.042969 Z M 31.660156 18.820313 "/>
</g>
</defs>
<g id="surface1">
<path style=" stroke:none;fill-rule:nonzero;fill:rgb(39,163,255);fill-opacity:1;" d="M 41.597656 6.785156 C 28.449219 5.402344 26.25 0.00390625 26.25 0.00390625 C 26.25 0.00390625 23.289063 7.105469 4.375 7.105469 L 4.375 36.238281 C 4.375 39.761719 6.429688 43.058594 9.273438 45.941406 C 15.722656 52.476563 26.25 56.878906 26.25 56.878906 C 26.25 56.878906 48.125 47.75 48.125 36.234375 L 48.125 7.105469 C 45.691406 7.105469 43.527344 6.988281 41.597656 6.785156 Z M 41.597656 6.785156 "/>
<use xlink:href="#surface5" mask="url(#mask0)"/>
<path style=" stroke:none;fill-rule:nonzero;fill:rgb(255,255,255);fill-opacity:1;" d="M 30.625 34.996094 L 61.25 34.996094 L 61.25 65.621094 L 30.71875 65.832031 Z M 30.625 34.996094 "/>
<path style=" stroke:none;fill-rule:nonzero;fill:rgb(1,147,255);fill-opacity:1;" d="M 43.75 39.375 L 56.875 39.375 L 56.875 43.75 L 43.75 43.75 Z M 43.75 48.125 L 56.875 48.125 L 56.875 52.5 L 43.75 52.5 Z M 43.75 56.875 L 56.875 56.875 L 56.875 61.25 L 43.75 61.25 Z M 35 39.375 L 39.375 39.375 L 39.375 43.75 L 35 43.75 Z M 35 48.125 L 39.375 48.125 L 39.375 52.5 L 35 52.5 Z M 35 56.875 L 39.375 56.875 L 39.375 61.25 L 35 61.25 Z M 35 56.875 "/>
<path style=" stroke:none;fill-rule:nonzero;fill:rgb(3,148,255);fill-opacity:1;" d="M 64.105469 26.25 L 27.769531 26.25 C 27.367188 26.246094 26.980469 26.40625 26.695313 26.6875 C 26.410156 26.972656 26.25 27.359375 26.25 27.757813 L 26.25 68.496094 C 26.25 69.328125 26.929688 70 27.769531 70 L 64.101563 70 C 64.503906 70.003906 64.890625 69.84375 65.175781 69.5625 C 65.460938 69.277344 65.625 68.894531 65.625 68.492188 L 65.625 27.757813 C 65.625 27.359375 65.464844 26.972656 65.179688 26.6875 C 64.894531 26.40625 64.507813 26.246094 64.105469 26.25 Z M 30.625 65.625 L 30.625 34.996094 L 61.25 34.996094 L 61.25 65.625 Z M 30.625 65.625 "/>
</g>
</svg>
