<?xml version="1.0" encoding="UTF-8"?>
<svg xmlns="http://www.w3.org/2000/svg" xmlns:xlink="http://www.w3.org/1999/xlink" width="70pt" height="70pt" viewBox="0 0 70 70" version="1.1">
<defs>
<linearGradient id="linear0" gradientUnits="userSpaceOnUse" x1="4589.72" y1="-5180.02" x2="4589.72" y2="-5184.21" gradientTransform="matrix(1.944444,0,0,-1.944444,-8848.427778,-10069.577778)">
<stop offset="0" style="stop-color:rgb(97,187,255);stop-opacity:1;"/>
<stop offset="1" style="stop-color:rgb(0,111,194);stop-opacity:1;"/>
</linearGradient>
<filter id="alpha" filterUnits="objectBoundingBox" x="0%" y="0%" width="100%" height="100%">
  <feColorMatrix type="matrix" in="SourceGraphic" values="0 0 0 0 1 0 0 0 0 1 0 0 0 0 1 0 0 0 1 0"/>
</filter>
<mask id="mask0">
  <g filter="url(#alpha)">
<rect x="0" y="0" width="70" height="70" style="fill:rgb(0,0,0);fill-opacity:0.501961;stroke:none;"/>
  </g>
</mask>
<clipPath id="clip1">
  <rect x="0" y="0" width="70" height="70"/>
</clipPath>
<g id="surface5" clip-path="url(#clip1)">
<path style=" stroke:none;fill-rule:nonzero;fill:rgb(51,168,255);fill-opacity:1;" d="M 4.160156 5.5625 L 9.179688 5.5625 L 9.179688 19.445313 C 9.179688 20.066406 8.671875 20.570313 8.050781 20.570313 L 3.070313 20.570313 C 2.449219 20.570313 1.945313 20.066406 1.945313 19.445313 L 1.945313 7.777344 C 1.945313 6.554688 2.9375 5.5625 4.160156 5.5625 Z M 4.160156 5.5625 "/>
</g>
<mask id="mask1">
  <g filter="url(#alpha)">
<rect x="0" y="0" width="70" height="70" style="fill:rgb(0,0,0);fill-opacity:0.501961;stroke:none;"/>
  </g>
</mask>
<clipPath id="clip2">
  <rect x="0" y="0" width="70" height="70"/>
</clipPath>
<g id="surface8" clip-path="url(#clip2)">
<path style=" stroke:none;fill-rule:nonzero;fill:rgb(51,168,255);fill-opacity:1;" d="M 60.820313 5.5625 L 65.839844 5.5625 C 67.0625 5.5625 68.054688 6.554688 68.054688 7.777344 L 68.054688 19.445313 C 68.054688 20.066406 67.550781 20.570313 66.929688 20.570313 L 61.910156 20.570313 C 61.304688 20.550781 60.820313 20.050781 60.820313 19.445313 Z M 60.820313 5.5625 "/>
</g>
<mask id="mask2">
  <g filter="url(#alpha)">
<rect x="0" y="0" width="70" height="70" style="fill:rgb(0,0,0);fill-opacity:0.501961;stroke:none;"/>
  </g>
</mask>
<clipPath id="clip3">
  <rect x="0" y="0" width="70" height="70"/>
</clipPath>
<g id="surface11" clip-path="url(#clip3)">
<path style=" stroke:none;fill-rule:nonzero;fill:rgb(51,168,255);fill-opacity:1;" d="M 3.070313 49.3125 L 8.089844 49.3125 C 8.710938 49.3125 9.214844 49.816406 9.214844 50.4375 L 9.214844 64.4375 L 4.160156 64.4375 C 2.9375 64.4375 1.945313 63.445313 1.945313 62.222656 L 1.945313 50.554688 C 1.910156 50.238281 2.015625 49.917969 2.230469 49.679688 C 2.445313 49.445313 2.75 49.308594 3.070313 49.3125 Z M 3.070313 49.3125 "/>
</g>
<mask id="mask3">
  <g filter="url(#alpha)">
<rect x="0" y="0" width="70" height="70" style="fill:rgb(0,0,0);fill-opacity:0.501961;stroke:none;"/>
  </g>
</mask>
<clipPath id="clip4">
  <rect x="0" y="0" width="70" height="70"/>
</clipPath>
<g id="surface14" clip-path="url(#clip4)">
<path style=" stroke:none;fill-rule:nonzero;fill:rgb(51,168,255);fill-opacity:1;" d="M 61.910156 49.3125 L 66.929688 49.3125 C 67.550781 49.3125 68.054688 49.816406 68.054688 50.4375 L 68.054688 62.105469 C 68.054688 63.328125 67.0625 64.320313 65.839844 64.320313 L 60.820313 64.320313 L 60.820313 50.554688 C 60.789063 50.242188 60.886719 49.933594 61.09375 49.695313 C 61.300781 49.460938 61.597656 49.320313 61.910156 49.3125 Z M 61.910156 49.3125 "/>
</g>
</defs>
<g id="surface1">
<path style=" stroke:none;fill-rule:nonzero;fill:rgb(47,166,255);fill-opacity:1;" d="M 49.390625 31.695313 L 49.390625 29.359375 L 31.8125 29.359375 L 23.566406 37.566406 L 17.5 37.566406 L 31.578125 23.332031 L 41.183594 23.332031 L 41.183594 21.117188 L 30.605469 21.117188 L 14.195313 37.566406 L 11.859375 37.566406 L 11.859375 39.898438 L 18.898438 39.898438 L 27.222656 48.105469 L 47.054688 48.105469 L 47.054688 45.773438 L 28.078125 45.773438 L 22.207031 39.898438 L 36.476563 39.898438 L 36.476563 37.566406 L 26.910156 37.566406 L 32.746094 31.695313 Z M 49.390625 31.695313 "/>
<path style=" stroke:none;fill-rule:nonzero;fill:rgb(255,255,255);fill-opacity:1;" d="M 42.195313 38.734375 C 42.195313 40.601563 40.679688 42.117188 38.8125 42.117188 C 36.941406 42.117188 35.429688 40.601563 35.429688 38.734375 C 35.429688 36.863281 36.941406 35.351563 38.8125 35.351563 C 40.679688 35.351563 42.195313 36.863281 42.195313 38.734375 Z M 42.195313 38.734375 "/>
<path style=" stroke:none;fill-rule:nonzero;fill:rgb(255,255,255);fill-opacity:1;" d="M 45.734375 22.320313 C 45.734375 24.191406 44.21875 25.707031 42.351563 25.707031 C 40.480469 25.707031 38.964844 24.191406 38.964844 22.320313 C 38.964844 20.453125 40.480469 18.9375 42.351563 18.9375 C 44.21875 18.9375 45.734375 20.453125 45.734375 22.320313 Z M 45.734375 22.320313 "/>
<path style=" stroke:none;fill-rule:nonzero;fill:rgb(255,255,255);fill-opacity:1;" d="M 53.9375 30.527344 C 53.9375 32.394531 52.425781 33.910156 50.554688 33.910156 C 48.6875 33.910156 47.171875 32.394531 47.171875 30.527344 C 47.171875 28.660156 48.6875 27.144531 50.554688 27.144531 C 52.425781 27.144531 53.9375 28.660156 53.9375 30.527344 Z M 53.9375 30.527344 "/>
<path style=" stroke:none;fill-rule:nonzero;fill:rgb(255,255,255);fill-opacity:1;" d="M 50.4375 46.9375 C 50.4375 48.808594 48.925781 50.320313 47.054688 50.320313 C 45.1875 50.320313 43.671875 48.808594 43.671875 46.9375 C 43.671875 45.070313 45.1875 43.554688 47.054688 43.554688 C 48.925781 43.554688 50.4375 45.070313 50.4375 46.9375 Z M 50.4375 46.9375 "/>
<path style=" stroke:none;fill-rule:nonzero;fill:rgb(119,197,255);fill-opacity:1;" d="M 46.316406 22.320313 C 46.316406 24.578125 44.488281 26.40625 42.234375 26.40625 C 39.976563 26.40625 38.148438 24.578125 38.148438 22.320313 C 38.148438 20.066406 39.976563 18.238281 42.234375 18.238281 C 44.488281 18.238281 46.316406 20.066406 46.316406 22.320313 Z M 46.316406 22.320313 "/>
<path style=" stroke:none;fill-rule:nonzero;fill:url(#linear0);" d="M 54.523438 30.527344 C 54.523438 32.78125 52.695313 34.609375 50.4375 34.609375 C 48.183594 34.609375 46.355469 32.78125 46.355469 30.527344 C 46.355469 28.273438 48.183594 26.445313 50.4375 26.445313 C 52.695313 26.445313 54.523438 28.273438 54.523438 30.527344 Z M 54.523438 30.527344 "/>
<path style=" stroke:none;fill-rule:nonzero;fill:rgb(119,197,255);fill-opacity:1;" d="M 42.894531 38.734375 C 42.894531 40.988281 41.066406 42.816406 38.8125 42.816406 C 36.554688 42.816406 34.726563 40.988281 34.726563 38.734375 C 34.726563 36.476563 36.554688 34.648438 38.8125 34.648438 C 41.066406 34.648438 42.894531 36.476563 42.894531 38.734375 Z M 42.894531 38.734375 "/>
<path style=" stroke:none;fill-rule:nonzero;fill:rgb(51,168,255);fill-opacity:1;" d="M 4.160156 5.5625 L 9.179688 5.5625 L 9.179688 19.445313 C 9.179688 20.066406 8.671875 20.570313 8.050781 20.570313 L 3.070313 20.570313 C 2.449219 20.570313 1.945313 20.066406 1.945313 19.445313 L 1.945313 7.777344 C 1.945313 6.554688 2.9375 5.5625 4.160156 5.5625 Z M 4.160156 5.5625 "/>
<use xlink:href="#surface5" mask="url(#mask0)"/>
<path style=" stroke:none;fill-rule:nonzero;fill:rgb(51,168,255);fill-opacity:1;" d="M 60.820313 5.5625 L 65.839844 5.5625 C 67.0625 5.5625 68.054688 6.554688 68.054688 7.777344 L 68.054688 19.445313 C 68.054688 20.066406 67.550781 20.570313 66.929688 20.570313 L 61.910156 20.570313 C 61.304688 20.550781 60.820313 20.050781 60.820313 19.445313 Z M 60.820313 5.5625 "/>
<use xlink:href="#surface8" mask="url(#mask1)"/>
<path style=" stroke:none;fill-rule:nonzero;fill:rgb(41,164,255);fill-opacity:1;" d="M 68.054688 7.777344 L 68.054688 12.640625 L 1.945313 12.640625 L 1.945313 7.777344 C 1.945313 6.554688 2.9375 5.5625 4.160156 5.5625 L 65.878906 5.5625 C 67.085938 5.582031 68.054688 6.570313 68.054688 7.777344 Z M 68.054688 7.777344 "/>
<path style=" stroke:none;fill-rule:nonzero;fill:rgb(51,168,255);fill-opacity:1;" d="M 3.070313 49.3125 L 8.089844 49.3125 C 8.710938 49.3125 9.214844 49.816406 9.214844 50.4375 L 9.214844 64.4375 L 4.160156 64.4375 C 2.9375 64.4375 1.945313 63.445313 1.945313 62.222656 L 1.945313 50.554688 C 1.910156 50.238281 2.015625 49.917969 2.230469 49.679688 C 2.445313 49.445313 2.75 49.308594 3.070313 49.3125 Z M 3.070313 49.3125 "/>
<use xlink:href="#surface11" mask="url(#mask2)"/>
<path style=" stroke:none;fill-rule:nonzero;fill:rgb(51,168,255);fill-opacity:1;" d="M 61.910156 49.3125 L 66.929688 49.3125 C 67.550781 49.3125 68.054688 49.816406 68.054688 50.4375 L 68.054688 62.105469 C 68.054688 63.328125 67.0625 64.320313 65.839844 64.320313 L 60.820313 64.320313 L 60.820313 50.554688 C 60.789063 50.242188 60.886719 49.933594 61.09375 49.695313 C 61.300781 49.460938 61.597656 49.320313 61.910156 49.3125 Z M 61.910156 49.3125 "/>
<use xlink:href="#surface14" mask="url(#mask3)"/>
<path style=" stroke:none;fill-rule:nonzero;fill:rgb(41,164,255);fill-opacity:1;" d="M 1.945313 62.222656 L 1.945313 57.359375 L 68.054688 57.359375 L 68.054688 62.222656 C 68.054688 63.445313 67.0625 64.4375 65.839844 64.4375 L 4.160156 64.4375 C 2.9375 64.4375 1.945313 63.445313 1.945313 62.222656 Z M 1.945313 62.222656 "/>
</g>
</svg>
