<?xml version="1.0" encoding="utf-8"?><svg version="1.1" xmlns="http://www.w3.org/2000/svg" xmlns:xlink="http://www.w3.org/1999/xlink" xmlns:xml="http://www.w3.org/XML/1998/namespace" width="70" height="70" viewBox="0, 0, 18, 18"><defs><linearGradient x1="10.275" y1="11.03" x2="10.275" y2="7.773" gradientUnits="userSpaceOnUse" id="b27e0b88-9d6f-4764-b5a0-04b62ac83910"><stop offset="0%" stop-color="#006CBC" /><stop offset="100%" stop-color="#29A4FF" /></linearGradient></defs><path d="M0.613 0.993 H1.976 V4.775 a0.306 0.306 0 0 1 -0.306 0.306 H0.307 A0.306 0.306 0 0 1 0 4.775 V1.606 A0.6 0.6 0 0 1 0.592 0.993 Z" style="fill:#47B0FF;" /><path d="M0.613 0.993 H1.976 V4.775 a0.306 0.306 0 0 1 -0.306 0.306 H0.307 A0.306 0.306 0 0 1 0 4.775 V1.606 A0.6 0.6 0 0 1 0.592 0.993 Z" opacity="0.5" style="fill:#47B0FF;" /><path d="M16.025 0.993 h1.362 a0.6 0.6 0 0 1 0.6 0.6 v3.18 a0.306 0.306 0 0 1 -0.306 0.306 H16.331 a0.306 0.306 0 0 1 -0.306 -0.306 V0.993 Z" style="fill:#47B0FF;" /><path d="M16.025 0.993 h1.362 a0.6 0.6 0 0 1 0.6 0.6 v3.18 a0.306 0.306 0 0 1 -0.306 0.306 H16.331 a0.306 0.306 0 0 1 -0.306 -0.306 V0.993 Z" opacity="0.5" style="fill:#47B0FF;" /><path d="M17.989 1.585 v1.32 H0.032 V1.585 a0.6 0.6 0 0 1 0.6 -0.6 H17.387 A0.6 0.6 0 0 1 17.989 1.585 Z" style="fill:#29A4FF;" /><path d="M0.307 12.9 H1.67 a0.306 0.306 0 0 1 0.306 0.306 v3.813 H0.613 A0.6 0.6 0 0 1 0 16.426 c0 -0.011 0 -0.021 0 -0.032 V13.225 A0.306 0.306 0 0 1 0.285 12.9 Z" style="fill:#47B0FF;" /><path d="M0.307 12.9 H1.67 a0.306 0.306 0 0 1 0.306 0.306 v3.813 H0.613 A0.6 0.6 0 0 1 0 16.426 c0 -0.011 0 -0.021 0 -0.032 V13.225 A0.306 0.306 0 0 1 0.285 12.9 Z" opacity="0.5" style="fill:#47B0FF;" /><path d="M16.331 12.9 h1.363 A0.306 0.306 0 0 1 18 13.2 h0 v3.169 a0.6 0.6 0 0 1 -0.6 0.6 H16.025 v-3.75 a0.306 0.306 0 0 1 0.284 -0.327 Z" style="fill:#47B0FF;" /><path d="M16.331 12.9 h1.363 A0.306 0.306 0 0 1 18 13.2 h0 v3.169 a0.6 0.6 0 0 1 -0.6 0.6 H16.025 v-3.75 a0.306 0.306 0 0 1 0.284 -0.327 Z" opacity="0.5" style="fill:#47B0FF;" /><path d="M0 16.415 V15.1 H17.958 v1.32 a0.6 0.6 0 0 1 -0.6 0.6 H0.6 A0.6 0.6 0 0 1 0 16.415 Z" style="fill:#29A4FF;" /><path d="M12.919 11.292 h0 a0.105 0.105 0 0 0 0.082 -0.04 l2.14 -2.128 a0.234 0.234 0 0 0 0 -0.318 l-2.14 -2.163 a0.1 0.1 0 0 0 -0.148 -0.02 a0.106 0.106 0 0 0 -0.04 0.1 V8.054 a0.106 0.106 0 0 1 -0.093 0.117 H7.736 a1.235 1.235 0 0 0 -0.976 -0.482 c-0.042 0 -0.083 -0.006 -0.124 -0.006 a1.294 1.294 0 0 0 -0.122 2.582 c0.041 0 0.082 0 0.123 0 s0.082 0 0.123 0 a1.274 1.274 0 0 0 0.988 -0.494 h4.963 a0.106 0.106 0 0 1 0.105 0.094 v1.318 A0.107 0.107 0 0 0 12.919 11.292 Z" style="fill:url(#b27e0b88-9d6f-4764-b5a0-04b62ac83910);" /><path d="M8.886 10.57 a2.747 2.747 0 1 1 -0.01 -3.2 h1.49 a4.04 4.04 0 1 0 0.006 3.2 Z" style="fill:#006CBC;" />​
</svg>