<?xml version="1.0" encoding="utf-8"?><svg version="1.1" xmlns="http://www.w3.org/2000/svg" xmlns:xlink="http://www.w3.org/1999/xlink" xmlns:xml="http://www.w3.org/XML/1998/namespace" width="70" height="70" viewBox="0, 0, 18, 18" id="b5b638e5-1de7-4378-8f50-7c3738e5874c"><defs><linearGradient x1="5.05" y1="10.55" x2="5.05" y2="13.48" gradientUnits="userSpaceOnUse" id="e20ae4ca-8128-4625-bcc6-863bc1bc51d9"><stop offset="0%" stop-color="#76BC2D" /><stop offset="100%" stop-color="#5E9624" /></linearGradient><linearGradient x1="12.84" y1="10.57" x2="12.84" y2="13.5" gradientUnits="userSpaceOnUse" id="b6fa89de-29eb-462e-97de-5bdbdaeb090e"><stop offset="0%" stop-color="#76BC2D" /><stop offset="100%" stop-color="#5E9624" /></linearGradient></defs><title>Icon-integration-204</title><g><path d="M3.19 15.6 a2.49 2.49 0 0 1 -1.53 -0.38 a1.7 1.7 0 0 1 -0.45 -1.36 V10.33 c0 -0.58 -0.23 -0.89 -0.71 -0.89 V8.56 c0.48 0 0.71 -0.31 0.71 -0.92 V4.17 a1.79 1.79 0 0 1 0.45 -1.39 A2.29 2.29 0 0 1 3.19 2.4 v0.89 c-0.51 0 -0.79 0.27 -0.79 0.85 v3.4 c0 0.78 -0.23 1.26 -0.74 1.46 a1.42 1.42 0 0 1 0.74 1.46 v3.37 a1.25 1.25 0 0 0 0.17 0.68 a0.74 0.74 0 0 0 0.58 0.2 l0 0.89 Z" style="fill:#949494;" /><path d="M14.81 2.4 a2.49 2.49 0 0 1 1.53 0.38 a1.7 1.7 0 0 1 0.45 1.36 V7.67 c0 0.58 0.23 0.89 0.71 0.89 v0.88 c-0.48 0 -0.71 0.31 -0.71 0.92 v3.43 a1.8 1.8 0 0 1 -0.45 1.4 a2.28 2.28 0 0 1 -1.53 0.41 v-0.89 c0.51 0 0.79 -0.27 0.79 -0.85 v-3.4 c0 -0.78 0.23 -1.26 0.74 -1.46 a1.42 1.42 0 0 1 -0.74 -1.46 V4.17 a1.25 1.25 0 0 0 -0.17 -0.68 a0.74 0.74 0 0 0 -0.58 -0.2 Z" style="fill:#949494;" /><path d="M9.41 8.35 V7.08 h-0.9 V8.35 a0.18 0.18 0 0 1 -0.18 0.18 H5 a0.36 0.36 0 0 0 -0.36 0.36 v1.65 h0.9 V9.63 a0.18 0.18 0 0 1 0.17 -0.18 h6.54 a0.18 0.18 0 0 1 0.18 0.18 v0.93 h0.89 V8.89 a0.36 0.36 0 0 0 -0.35 -0.36 H9.59 A0.18 0.18 0 0 1 9.41 8.35 Z" style="fill:#005BA1;" /><path d="M10.61 3.21 H7.25 a0.38 0.38 0 0 0 -0.38 0.37 V6.94 a0.37 0.37 0 0 0 0.38 0.37 h3.36 A0.37 0.37 0 0 0 11 6.94 V3.58 A0.38 0.38 0 0 0 10.61 3.21 Z m-0.32 3.17 a0.25 0.25 0 0 1 -0.25 0.24 H7.81 a0.25 0.25 0 0 1 -0.25 -0.24 V4.15 a0.25 0.25 0 0 1 0.25 -0.25 H10 a0.25 0.25 0 0 1 0.25 0.25 Z" style="fill:#0078D4;" /><rect x="3.58" y="10.55" width="2.94" height="2.94" rx="0.27" style="fill:url(#e20ae4ca-8128-4625-bcc6-863bc1bc51d9);" /><rect x="11.38" y="10.57" width="2.94" height="2.94" rx="0.27" style="fill:url(#b6fa89de-29eb-462e-97de-5bdbdaeb090e);" /></g></svg>