<?xml version="1.0" encoding="UTF-8"?>
<svg xmlns="http://www.w3.org/2000/svg" xmlns:xlink="http://www.w3.org/1999/xlink" width="70pt" height="70pt" viewBox="0 0 70 70" version="1.1">
<defs>
<linearGradient id="linear0" gradientUnits="userSpaceOnUse" x1="9" y1="14.071" x2="9" y2="1.313" gradientTransform="matrix(3.888889,0,0,3.888889,0,0)">
<stop offset="0" style="stop-color:rgb(0,108,188);stop-opacity:1;"/>
<stop offset="0.156" style="stop-color:rgb(0,120,210);stop-opacity:1;"/>
<stop offset="0.528" style="stop-color:rgb(1,147,255);stop-opacity:1;"/>
<stop offset="0.822" style="stop-color:rgb(31,159,255);stop-opacity:1;"/>
<stop offset="1" style="stop-color:rgb(41,164,255);stop-opacity:1;"/>
</linearGradient>
</defs>
<g id="surface1">
<path style=" stroke:none;fill-rule:nonzero;fill:url(#linear0);" d="M 70 39.179688 C 69.769531 31.476563 63.988281 25.078125 56.351563 24.0625 C 55.875 13.222656 46.777344 4.777344 35.933594 5.105469 C 27.292969 4.945313 19.496094 10.257813 16.488281 18.359375 C 7.289063 19.480469 0.28125 27.148438 0 36.414063 C 0.40625 46.902344 9.21875 55.089844 19.707031 54.71875 C 20.296875 54.71875 20.875 54.691406 21.445313 54.648438 L 53.363281 54.648438 C 53.648438 54.640625 53.933594 54.597656 54.207031 54.519531 C 62.726563 54.457031 69.691406 47.695313 70 39.179688 Z M 70 39.179688 "/>
<path style=" stroke:none;fill-rule:nonzero;fill:rgb(47,166,255);fill-opacity:1;" d="M 46.925781 45.914063 L 22.195313 45.914063 C 21.601563 45.898438 21.109375 46.371094 21.097656 46.960938 L 21.097656 53.699219 C 21.109375 54.289063 21.597656 54.757813 22.191406 54.746094 L 46.925781 54.746094 C 47.519531 54.757813 48.007813 54.289063 48.019531 53.699219 L 48.019531 46.960938 C 48.003906 46.371094 47.519531 45.902344 46.925781 45.914063 Z M 46.925781 45.914063 "/>
<path style=" stroke:none;fill-rule:nonzero;fill:rgb(0,124,216);fill-opacity:1;" d="M 46.925781 56.058594 L 22.195313 56.058594 C 21.601563 56.046875 21.109375 56.515625 21.097656 57.109375 L 21.097656 63.839844 C 21.109375 64.433594 21.597656 64.90625 22.191406 64.894531 L 46.925781 64.894531 C 47.519531 64.90625 48.007813 64.433594 48.019531 63.839844 L 48.019531 57.109375 C 48.003906 56.519531 47.519531 56.050781 46.925781 56.058594 Z M 46.925781 56.058594 "/>
<path style=" stroke:none;fill-rule:nonzero;fill:rgb(143,207,255);fill-opacity:1;" d="M 43.828125 47.566406 L 45.277344 47.566406 C 45.433594 47.566406 45.558594 47.691406 45.558594 47.84375 L 45.558594 49.230469 C 45.558594 49.378906 45.4375 49.496094 45.289063 49.496094 L 43.816406 49.496094 C 43.667969 49.496094 43.546875 49.378906 43.546875 49.230469 L 43.546875 47.832031 C 43.554688 47.683594 43.675781 47.566406 43.828125 47.566406 Z M 43.828125 47.566406 "/>
<path style=" stroke:none;fill-rule:nonzero;fill:rgb(143,207,255);fill-opacity:1;" d="M 43.820313 50.894531 L 45.28125 50.894531 C 45.4375 50.894531 45.5625 51.019531 45.5625 51.175781 L 45.5625 52.546875 C 45.5625 52.703125 45.4375 52.828125 45.28125 52.828125 L 43.828125 52.828125 C 43.671875 52.828125 43.546875 52.703125 43.546875 52.546875 L 43.546875 51.164063 C 43.546875 51.089844 43.578125 51.023438 43.628906 50.972656 C 43.679688 50.921875 43.75 50.894531 43.820313 50.894531 Z M 43.820313 50.894531 "/>
<path style=" stroke:none;fill-rule:nonzero;fill:rgb(143,207,255);fill-opacity:1;" d="M 43.902344 57.660156 L 45.363281 57.660156 C 45.519531 57.660156 45.644531 57.785156 45.644531 57.941406 L 45.644531 59.324219 C 45.644531 59.472656 45.523438 59.59375 45.375 59.59375 L 43.914063 59.59375 C 43.757813 59.59375 43.632813 59.46875 43.632813 59.3125 L 43.632813 57.945313 C 43.628906 57.871094 43.65625 57.796875 43.707031 57.746094 C 43.757813 57.691406 43.828125 57.660156 43.902344 57.660156 Z M 43.902344 57.660156 "/>
<path style=" stroke:none;fill-rule:nonzero;fill:rgb(143,207,255);fill-opacity:1;" d="M 43.902344 60.988281 L 45.363281 60.988281 C 45.519531 60.988281 45.644531 61.113281 45.644531 61.269531 L 45.644531 62.652344 C 45.644531 62.800781 45.523438 62.921875 45.375 62.921875 L 43.902344 62.921875 C 43.753906 62.921875 43.632813 62.800781 43.632813 62.652344 L 43.632813 61.257813 C 43.632813 61.109375 43.753906 60.988281 43.902344 60.988281 Z M 43.902344 60.988281 "/>
<path style=" stroke:none;fill-rule:nonzero;fill:rgb(119,197,255);fill-opacity:1;" d="M 46.695313 34.972656 L 21.960938 34.972656 C 21.675781 34.964844 21.398438 35.074219 21.191406 35.273438 C 20.988281 35.46875 20.867188 35.742188 20.863281 36.027344 L 20.863281 42.777344 C 20.875 43.371094 21.363281 43.839844 21.957031 43.832031 L 46.695313 43.832031 C 47.285156 43.839844 47.773438 43.371094 47.785156 42.777344 L 47.785156 36.027344 C 47.773438 35.433594 47.285156 34.964844 46.695313 34.972656 Z M 46.695313 34.972656 "/>
<path style=" stroke:none;fill-rule:nonzero;fill:rgb(255,255,255);fill-opacity:1;" d="M 43.585938 36.628906 L 45.050781 36.628906 C 45.203125 36.628906 45.328125 36.753906 45.328125 36.910156 L 45.328125 38.292969 C 45.328125 38.441406 45.207031 38.5625 45.0625 38.5625 L 43.59375 38.5625 C 43.441406 38.5625 43.3125 38.4375 43.3125 38.28125 L 43.3125 36.898438 C 43.3125 36.824219 43.34375 36.757813 43.394531 36.707031 C 43.445313 36.65625 43.515625 36.628906 43.585938 36.628906 Z M 43.585938 36.628906 "/>
<path style=" stroke:none;fill-rule:nonzero;fill:rgb(255,255,255);fill-opacity:1;" d="M 43.585938 39.957031 L 45.050781 39.957031 C 45.203125 39.957031 45.328125 40.082031 45.328125 40.238281 L 45.328125 41.609375 C 45.328125 41.757813 45.207031 41.878906 45.0625 41.878906 L 43.585938 41.878906 C 43.4375 41.878906 43.316406 41.757813 43.316406 41.609375 L 43.316406 40.214844 C 43.324219 40.070313 43.441406 39.957031 43.585938 39.957031 Z M 43.585938 39.957031 "/>
<path style=" stroke:none;fill-rule:nonzero;fill:rgb(255,255,255);fill-opacity:1;" d="M 45.246094 28.777344 L 35.796875 38.226563 C 35.355469 38.667969 34.644531 38.667969 34.203125 38.226563 L 24.753906 28.777344 C 24.609375 28.632813 24.570313 28.417969 24.648438 28.230469 C 24.726563 28.042969 24.90625 27.917969 25.109375 27.917969 L 30.921875 27.917969 C 31.199219 27.917969 31.421875 27.695313 31.421875 27.417969 L 31.421875 15.609375 C 31.421875 15.394531 31.597656 15.222656 31.8125 15.222656 L 38.171875 15.222656 C 38.386719 15.222656 38.5625 15.394531 38.5625 15.609375 L 38.5625 27.421875 C 38.5625 27.699219 38.785156 27.921875 39.0625 27.921875 L 44.875 27.921875 C 45.078125 27.917969 45.265625 28.039063 45.347656 28.226563 C 45.425781 28.414063 45.386719 28.628906 45.246094 28.777344 Z M 45.246094 28.777344 "/>
</g>
</svg>
