<?xml version="1.0" encoding="UTF-8"?>
<svg xmlns="http://www.w3.org/2000/svg" xmlns:xlink="http://www.w3.org/1999/xlink" width="70pt" height="70pt" viewBox="0 0 70 70" version="1.1">
<defs>
<filter id="alpha" filterUnits="objectBoundingBox" x="0%" y="0%" width="100%" height="100%">
  <feColorMatrix type="matrix" in="SourceGraphic" values="0 0 0 0 1 0 0 0 0 1 0 0 0 0 1 0 0 0 1 0"/>
</filter>
<mask id="mask0">
  <g filter="url(#alpha)">
<rect x="0" y="0" width="70" height="70" style="fill:rgb(0%,0%,0%);fill-opacity:0.25098;stroke:none;"/>
  </g>
</mask>
<clipPath id="clip1">
  <rect x="0" y="0" width="70" height="70"/>
</clipPath>
<g id="surface5" clip-path="url(#clip1)">
<path style=" stroke:none;fill-rule:nonzero;fill:rgb(72.941176%,7.843137%,10.196078%);fill-opacity:1;" d="M 35 39.199219 C 20 39.199219 7.125 33.617188 1.550781 25.644531 C 3.882813 53.027344 35 68.601563 35 68.601563 C 35 68.601563 66.117188 53.027344 68.449219 25.644531 C 62.875 33.617188 50 39.199219 35 39.199219 Z M 35 39.199219 "/>
</g>
</defs>
<g id="surface1">
<path style=" stroke:none;fill-rule:nonzero;fill:rgb(100%,54.901961%,0%);fill-opacity:1;" d="M 51.101563 1.398438 C 43.871094 1.398438 37.667969 5.785156 35 12.039063 C 32.332031 5.785156 26.128906 1.398438 18.898438 1.398438 C 7 1.398438 1.398438 12.734375 1.398438 22.398438 C 1.398438 51.800781 35 68.601563 35 68.601563 C 35 68.601563 68.601563 51.800781 68.601563 22.398438 C 68.601563 12.734375 63 1.398438 51.101563 1.398438 Z M 51.101563 1.398438 "/>
<use xlink:href="#surface5" mask="url(#mask0)"/>
<path style=" stroke:none;fill-rule:nonzero;fill:rgb(100%,100%,100%);fill-opacity:1;" d="M 44.660156 51.800781 C 44.660156 54.816406 42.214844 57.261719 39.199219 57.261719 C 36.183594 57.261719 33.738281 54.816406 33.738281 51.800781 C 33.738281 48.785156 36.183594 46.339844 39.199219 46.339844 C 42.214844 46.339844 44.660156 48.785156 44.660156 51.800781 Z M 44.660156 51.800781 "/>
<path style=" stroke:none;fill-rule:nonzero;fill:rgb(100%,100%,100%);fill-opacity:1;" d="M 6.503906 7.140625 C 6.503906 7.140625 4.535156 14.199219 12.710938 21.257813 L 15.296875 17.945313 C 15.25 17.910156 10.839844 14.355469 10.515625 9.175781 C 10.253906 4.953125 12.363281 2.675781 12.363281 2.675781 C 10.019531 3.734375 8.074219 5.195313 6.503906 7.140625 Z M 66.914063 13.1875 C 68.164063 18.640625 67.703125 24.015625 65.503906 28.960938 C 61.554688 37.851563 52.222656 45.0625 38.511719 49.816406 L 39.886719 53.785156 C 51.699219 49.691406 60.6875 43.785156 66.046875 36.511719 C 67.714844 32.199219 68.738281 27.492188 68.738281 22.398438 C 68.738281 19.359375 68.042969 16.15625 66.914063 13.1875 Z M 66.914063 13.1875 "/>
<path style=" stroke:none;fill-rule:nonzero;fill:rgb(100%,100%,100%);fill-opacity:1;" d="M 12.847656 18.445313 C 4.976563 26.316406 14.726563 40.125 22.644531 48.046875 L 24.132813 49.53125 C 24.953125 50.351563 26.28125 50.351563 27.101563 49.53125 L 30.070313 46.5625 C 30.617188 46.035156 30.835938 45.253906 30.644531 44.519531 C 30.449219 43.785156 29.878906 43.210938 29.144531 43.019531 C 28.410156 42.828125 27.628906 43.046875 27.101563 43.59375 L 25.519531 45.175781 C 14.628906 34.289063 11.125 25.710938 15.617188 21.21875 C 20.109375 16.726563 28.6875 20.230469 39.574219 31.121094 L 37.992188 32.703125 C 37.445313 33.230469 37.226563 34.011719 37.417969 34.746094 C 37.609375 35.480469 38.183594 36.050781 38.917969 36.246094 C 39.652344 36.4375 40.433594 36.21875 40.960938 35.671875 L 43.929688 32.703125 C 44.75 31.882813 44.75 30.554688 43.929688 29.734375 L 42.445313 28.246094 C 34.527344 20.328125 20.714844 10.578125 12.847656 18.445313 Z M 12.847656 18.445313 "/>
</g>
</svg>
