<?xml version="1.0" encoding="utf-8"?><svg version="1.1" xmlns="http://www.w3.org/2000/svg" xmlns:xlink="http://www.w3.org/1999/xlink" xmlns:xml="http://www.w3.org/XML/1998/namespace" xmlns:dc="http://purl.org/dc/elements/1.1/" xmlns:cc="http://creativecommons.org/ns#" xmlns:rdf="http://www.w3.org/1999/02/22-rdf-syntax-ns#" xmlns:sodipodi="http://sodipodi.sourceforge.net/DTD/sodipodi-0.dtd" xmlns:inkscape="http://www.inkscape.org/namespaces/inkscape" x="0" y="0" width="70" height="70" viewBox="0, 0, 50.000156, 50" id="Layer_1" xml:space="preserve" sodipodi:docname="Azure Event Grid_COLOR.svg" inkscape:version="0.92.2 (5c3e80d, 2017-08-06)" style="enable-background:new 0 0 50 50;">
  <metadata id="metadata21" />
  <defs id="defs19" />
  <sodipodi:namedview id="namedview17" pagecolor="#ffffff" bordercolor="#666666" borderopacity="1" objecttolerance="10" gridtolerance="10" guidetolerance="10" inkscape:pageopacity="0" inkscape:pageshadow="2" inkscape:window-width="640" inkscape:window-height="480" showgrid="false" inkscape:zoom="4.72" inkscape:cx="25" inkscape:cy="25" inkscape:window-x="0" inkscape:window-y="0" inkscape:window-maximized="0" inkscape:current-layer="Layer_1" />
  <polygon points="24.004,20 23.996,19.996 16.991,27 11.82,27 23.82,15 32,15 32,13 23,13 23,13.005 22.992,13 8.991,27 7,27 7,29 13,29 20,35.999 20,35.999 20,36 37,36 37,34 20.828,34 15.829,29 28,29 28,27 19.82,27 24.82,22 39,22 39,20" id="polygon2" style="fill:#0072C6;" />
  <circle cx="30" cy="28" r="2.9" id="circle4" style="fill:#59B4D9;" />
  <circle cx="13.43496" cy="33.23395" r="2.899972" transform="rotate(-45, 0, 0)" id="ellipse6" stroke-width="0.9999904" style="fill:#59B4D9;" />
  <circle cx="13.43489" cy="43.13337" r="2.899972" transform="rotate(-45, 0, 0)" id="ellipse8" stroke-width="0.9999904" style="fill:#B8D432;" />
  <circle cx="1.414143" cy="50.91148" r="2.899972" transform="rotate(-45, 0, 0)" id="ellipse10" stroke-width="0.9999904" style="fill:#B8D432;" />
  <path d="M0.801 0 C0.3 0 0 0.3 0 0.8 v10 c0 0.5 0.3 0.8 0.801 0.8 H5.809 C6.31 11.6 6.61 11.3 6.61 10.8 V6.7 h36.76 v4.2 c0 0.5 0.3 0.8 1.002 0.8 h4.808 c0.501 0 0.801 -0.3 0.801 -0.8 v-5 v-5 C50.081 0.3 49.781 0 49.28 0 v0 z" id="path12" inkscape:connector-curvature="0" style="fill:#0072C6;" />
  <path d="m49.2 50 c0.5 0 0.8 -0.3 0.8 -0.8 v-9.8 c0 -0.5 -0.3 -0.8 -0.8 -0.8 h-4.8 c-0.5 0 -0.8 0.3 -0.8 0.8 v4 H6.7 v-4.2 c0 -0.5 -0.3 -0.8 -1 -0.8 H0.8 c-0.5 0 -0.8 0.3 -0.8 1 v9.8 C0 49.7 0.3 50 0.8 50 Z" id="path14" inkscape:connector-curvature="0" style="fill:#0072C6;" />
</svg>