<?xml version="1.0" encoding="UTF-8"?>
<svg xmlns="http://www.w3.org/2000/svg" xmlns:xlink="http://www.w3.org/1999/xlink" width="70pt" height="70pt" viewBox="0 0 70 70" version="1.1">
<g id="surface1">
<path style=" stroke:none;fill-rule:nonzero;fill:rgb(0,102,178);fill-opacity:1;" d="M 1.167969 0 C 0.464844 0 0 0.464844 0 1.167969 L 0 15.167969 C 0 15.867188 0.464844 16.332031 1.167969 16.332031 L 8.167969 16.332031 C 8.867188 16.332031 9.332031 15.867188 9.332031 15.167969 L 9.332031 9.332031 L 60.667969 9.332031 L 60.667969 15.167969 C 60.667969 15.867188 61.132813 16.332031 62.066406 16.332031 L 68.832031 16.332031 C 69.53125 16.332031 70 15.867188 70 15.167969 L 70 1.167969 C 70 0.464844 69.535156 0 68.832031 0 Z M 1.167969 0 "/>
<path style=" stroke:none;fill-rule:nonzero;fill:rgb(0,102,178);fill-opacity:1;" d="M 68.832031 70 C 69.535156 70 70 69.535156 70 68.832031 L 70 55.066406 C 70 54.367188 69.535156 53.902344 68.832031 53.902344 L 62.066406 53.902344 C 61.367188 53.902344 60.902344 54.367188 60.902344 55.066406 L 60.902344 60.667969 L 9.332031 60.667969 L 9.332031 54.832031 C 9.332031 54.132813 8.867188 53.667969 7.933594 53.667969 L 1.167969 53.667969 C 0.464844 53.667969 0 54.132813 0 55.066406 L 0 68.832031 C 0 69.535156 0.464844 70 1.167969 70 Z M 68.832031 70 "/>
<path style=" stroke:none;fill-rule:nonzero;fill:rgb(57,171,255);fill-opacity:1;" d="M 41.800781 36.539063 C 39.984375 38.351563 37.570313 39.355469 35 39.355469 C 32.429688 39.355469 30.015625 38.355469 28.199219 36.539063 L 15.167969 23.503906 L 15.167969 49.996094 L 54.832031 49.996094 L 54.832031 23.503906 Z M 41.800781 36.539063 "/>
<path style=" stroke:none;fill-rule:nonzero;fill:rgb(57,171,255);fill-opacity:1;" d="M 35 37.417969 C 37.050781 37.417969 38.980469 36.621094 40.433594 35.167969 L 54.832031 20.769531 L 54.832031 20.007813 L 15.167969 20.007813 L 15.167969 20.769531 L 29.566406 35.167969 C 31.019531 36.621094 32.949219 37.417969 35 37.417969 Z M 35 37.417969 "/>
</g>
</svg>
