<?xml version="1.0" encoding="UTF-8"?>
<svg xmlns="http://www.w3.org/2000/svg" xmlns:xlink="http://www.w3.org/1999/xlink" width="70pt" height="70pt" viewBox="0 0 70 70" version="1.1">
<defs>
<linearGradient id="linear0" gradientUnits="userSpaceOnUse" x1="5.05" y1="10.55" x2="5.05" y2="13.48" gradientTransform="matrix(3.888889,0,0,3.888889,0,0)">
<stop offset="0" style="stop-color:rgb(47,166,255);stop-opacity:1;"/>
<stop offset="1" style="stop-color:rgb(0,138,240);stop-opacity:1;"/>
</linearGradient>
<linearGradient id="linear1" gradientUnits="userSpaceOnUse" x1="12.84" y1="10.57" x2="12.84" y2="13.5" gradientTransform="matrix(3.888889,0,0,3.888889,0,0)">
<stop offset="0" style="stop-color:rgb(47,166,255);stop-opacity:1;"/>
<stop offset="1" style="stop-color:rgb(0,138,240);stop-opacity:1;"/>
</linearGradient>
</defs>
<g id="surface1">
<path style=" stroke:none;fill-rule:nonzero;fill:rgb(41,164,255);fill-opacity:1;" d="M 12.40625 60.667969 C 10.316406 60.832031 8.226563 60.3125 6.457031 59.1875 C 5.121094 57.769531 4.480469 55.835938 4.707031 53.898438 L 4.707031 40.171875 C 4.707031 37.917969 3.8125 36.710938 1.945313 36.710938 L 1.945313 33.289063 C 3.8125 33.289063 4.707031 32.082031 4.707031 29.710938 L 4.707031 16.214844 C 4.492188 14.246094 5.128906 12.28125 6.457031 10.8125 C 8.203125 9.628906 10.308594 9.105469 12.40625 9.332031 L 12.40625 12.792969 C 10.421875 12.792969 9.332031 13.84375 9.332031 16.101563 L 9.332031 29.320313 C 9.332031 32.355469 8.4375 34.222656 6.457031 35 C 8.519531 36.09375 9.671875 38.367188 9.332031 40.679688 L 9.332031 53.785156 C 9.296875 54.710938 9.527344 55.628906 9.996094 56.429688 C 10.597656 57 11.421875 57.285156 12.25 57.207031 L 12.25 60.667969 Z M 12.40625 60.667969 "/>
<path style=" stroke:none;fill-rule:nonzero;fill:rgb(41,164,255);fill-opacity:1;" d="M 57.59375 9.332031 C 59.683594 9.167969 61.773438 9.6875 63.542969 10.8125 C 64.878906 12.230469 65.519531 14.164063 65.292969 16.101563 L 65.292969 29.828125 C 65.292969 32.082031 66.1875 33.289063 68.054688 33.289063 L 68.054688 36.710938 C 66.1875 36.710938 65.292969 37.917969 65.292969 40.289063 L 65.292969 53.628906 C 65.511719 55.609375 64.875 57.589844 63.542969 59.070313 C 61.816406 60.296875 59.703125 60.863281 57.59375 60.667969 L 57.59375 57.207031 C 59.578125 57.207031 60.667969 56.15625 60.667969 53.898438 L 60.667969 40.679688 C 60.667969 37.644531 61.5625 35.777344 63.542969 35 C 61.480469 33.90625 60.328125 31.632813 60.667969 29.320313 L 60.667969 16.214844 C 60.703125 15.289063 60.472656 14.371094 60.003906 13.570313 C 59.402344 13 58.578125 12.714844 57.75 12.792969 Z M 57.59375 9.332031 "/>
<path style=" stroke:none;fill-rule:nonzero;fill:rgb(0,81,142);fill-opacity:1;" d="M 36.59375 32.472656 L 36.59375 27.535156 L 33.09375 27.535156 L 33.09375 32.472656 C 33.09375 32.859375 32.78125 33.171875 32.394531 33.171875 L 19.445313 33.171875 C 18.671875 33.171875 18.042969 33.800781 18.042969 34.570313 L 18.042969 40.988281 L 21.542969 40.988281 L 21.542969 37.449219 C 21.542969 37.078125 21.835938 36.769531 22.207031 36.75 L 47.640625 36.75 C 48.027344 36.75 48.339844 37.0625 48.339844 37.449219 L 48.339844 41.066406 L 51.800781 41.066406 L 51.800781 34.570313 C 51.800781 33.8125 51.195313 33.191406 50.4375 33.171875 L 37.292969 33.171875 C 36.90625 33.171875 36.59375 32.859375 36.59375 32.472656 Z M 36.59375 32.472656 "/>
<path style=" stroke:none;fill-rule:nonzero;fill:rgb(0,108,188);fill-opacity:1;" d="M 41.261719 12.484375 L 28.195313 12.484375 C 27.394531 12.484375 26.738281 13.121094 26.714844 13.921875 L 26.714844 26.988281 C 26.714844 27.378906 26.875 27.75 27.152344 28.019531 C 27.429688 28.292969 27.804688 28.4375 28.195313 28.429688 L 41.261719 28.429688 C 41.65625 28.449219 42.042969 28.308594 42.328125 28.035156 C 42.617188 27.761719 42.777344 27.382813 42.777344 26.988281 L 42.777344 13.921875 C 42.757813 13.105469 42.078125 12.460938 41.261719 12.484375 Z M 40.015625 24.8125 C 39.996094 25.332031 39.566406 25.746094 39.042969 25.746094 L 30.371094 25.746094 C 29.851563 25.746094 29.421875 25.332031 29.398438 24.8125 L 29.398438 16.140625 C 29.398438 15.601563 29.835938 15.167969 30.371094 15.167969 L 38.890625 15.167969 C 39.425781 15.167969 39.859375 15.601563 39.859375 16.140625 Z M 40.015625 24.8125 "/>
<path style=" stroke:none;fill-rule:nonzero;fill:url(#linear0);" d="M 14.972656 41.027344 L 24.304688 41.027344 C 24.886719 41.027344 25.355469 41.496094 25.355469 42.078125 L 25.355469 51.410156 C 25.355469 51.992188 24.886719 52.460938 24.304688 52.460938 L 14.972656 52.460938 C 14.390625 52.460938 13.921875 51.992188 13.921875 51.410156 L 13.921875 42.078125 C 13.921875 41.496094 14.390625 41.027344 14.972656 41.027344 Z M 14.972656 41.027344 "/>
<path style=" stroke:none;fill-rule:nonzero;fill:url(#linear1);" d="M 45.304688 41.105469 L 54.640625 41.105469 C 55.21875 41.105469 55.6875 41.574219 55.6875 42.15625 L 55.6875 51.488281 C 55.6875 52.070313 55.21875 52.539063 54.640625 52.539063 L 45.304688 52.539063 C 44.726563 52.539063 44.253906 52.070313 44.253906 51.488281 L 44.253906 42.15625 C 44.253906 41.574219 44.726563 41.105469 45.304688 41.105469 Z M 45.304688 41.105469 "/>
</g>
</svg>
