<?xml version="1.0" encoding="utf-8"?><svg version="1.1" xmlns="http://www.w3.org/2000/svg" xmlns:xlink="http://www.w3.org/1999/xlink" xmlns:xml="http://www.w3.org/XML/1998/namespace" width="70" height="70" viewBox="0, 0, 18, 18"><defs><linearGradient x1="7.94" y1="7.7" x2="7.94" y2="3.75" gradientUnits="userSpaceOnUse" id="afc27830-8354-4c08-adf9-e299527ebe55"><stop offset="0%" stop-color="#5E9624" /><stop offset="100%" stop-color="#76BC2D" /></linearGradient><linearGradient x1="7.94" y1="14.26" x2="7.94" y2="10.31" gradientUnits="userSpaceOnUse" id="edc561ac-a1d6-439f-a08b-594ef0214ee3"><stop offset="0%" stop-color="#5E9624" /><stop offset="100%" stop-color="#76BC2D" /></linearGradient></defs><title>Icon-integration-206</title><g><g id="aa7ea84e-faaa-4698-89ff-203b553089f2"><g><g><path d="M1.06 1.42 H2.35 a0 0 0 0 1 0 0 V5 a0.29 0.29 0 0 1 -0.29 0.29 H0.77 A0.29 0.29 0 0 1 0.48 5 V2 A0.57 0.57 0 0 1 1.06 1.42 Z" style="fill:#A3A3A3;" /><path d="M1.06 1.42 H2.35 a0 0 0 0 1 0 0 V5 a0.29 0.29 0 0 1 -0.29 0.29 H0.77 A0.29 0.29 0 0 1 0.48 5 V2 A0.57 0.57 0 0 1 1.06 1.42 Z" opacity="0.5" style="fill:#A3A3A3;" /></g><g><path d="M15.65 1.42 h1.29 a0.57 0.57 0 0 1 0.57 0.57 V5 a0.29 0.29 0 0 1 -0.29 0.29 H15.94 A0.29 0.29 0 0 1 15.65 5 V1.42 A0 0 0 0 1 15.65 1.42 Z" style="fill:#A3A3A3;" /><path d="M15.65 1.42 h1.29 a0.57 0.57 0 0 1 0.57 0.57 V5 a0.29 0.29 0 0 1 -0.29 0.29 H15.94 A0.29 0.29 0 0 1 15.65 5 V1.42 A0 0 0 0 1 15.65 1.42 Z" opacity="0.5" style="fill:#A3A3A3;" /></g><path d="M8.66 -6.19 H9.91 a0 0 0 0 1 0 0 v17 a0 0 0 0 1 0 0 H8.66 a0.57 0.57 0 0 1 -0.57 -0.57 V-5.62 A0.57 0.57 0 0 1 8.66 -6.19 Z" transform="translate(11.32, -6.68) rotate(90, 0, 0)" style="fill:#949494;" /><g><path d="M0.77 12.69 H2.06 a0.29 0.29 0 0 1 0.29 0.29 v3.61 a0 0 0 0 1 0 0 H1.06 A0.57 0.57 0 0 1 0.48 16 V13 A0.29 0.29 0 0 1 0.77 12.69 Z" style="fill:#A3A3A3;" /><path d="M0.77 12.69 H2.06 a0.29 0.29 0 0 1 0.29 0.29 v3.61 a0 0 0 0 1 0 0 H1.06 A0.57 0.57 0 0 1 0.48 16 V13 A0.29 0.29 0 0 1 0.77 12.69 Z" opacity="0.5" style="fill:#A3A3A3;" /></g><g><path d="M15.94 12.69 h1.29 a0.29 0.29 0 0 1 0.29 0.29 v3 a0.57 0.57 0 0 1 -0.57 0.57 H15.65 a0 0 0 0 1 0 0 V13 A0.29 0.29 0 0 1 15.94 12.69 Z" style="fill:#A3A3A3;" /><path d="M15.94 12.69 h1.29 a0.29 0.29 0 0 1 0.29 0.29 v3 a0.57 0.57 0 0 1 -0.57 0.57 H15.65 a0 0 0 0 1 0 0 V13 A0.29 0.29 0 0 1 15.94 12.69 Z" opacity="0.5" style="fill:#A3A3A3;" /></g><path d="M8.66 7.16 H9.91 a0 0 0 0 1 0 0 v17 a0 0 0 0 1 0 0 H8.66 a0.57 0.57 0 0 1 -0.57 -0.57 V7.73 A0.57 0.57 0 0 1 8.66 7.16 Z" transform="translate(-6.68, 24.68) rotate(-90, 0, 0)" style="fill:#949494;" /><path d="M14.91 8.84 L13.09 7 a0.09 0.09 0 0 0 -0.16 0.07 V8.2 a0.09 0.09 0 0 1 -0.1 0.1 H7.59 a1.05 1.05 0 0 0 -0.83 -0.41 a1.1 1.1 0 1 0 0 2.19 a1.08 1.08 0 0 0 0.84 -0.42 h5.23 a0.09 0.09 0 0 1 0.1 0.09 v1.11 a0.09 0.09 0 0 0 0.16 0.06 l1.82 -1.81 A0.2 0.2 0 0 0 14.91 8.84 Z" style="fill:#5EA0EF;" /><path d="M11.55 5.59 L9.73 3.78 a0.09 0.09 0 0 0 -0.16 0.07 V5 a0.09 0.09 0 0 1 -0.09 0.1 H6.2 a1.07 1.07 0 0 0 -0.84 -0.41 a1.1 1.1 0 1 0 0.85 1.77 H9.48 a0.09 0.09 0 0 1 0.09 0.09 V7.61 a0.09 0.09 0 0 0 0.16 0.06 l1.82 -1.81 A0.2 0.2 0 0 0 11.55 5.59 Z" style="fill:url(#afc27830-8354-4c08-adf9-e299527ebe55);" /><path d="M11.55 12.15 L9.73 10.34 a0.09 0.09 0 0 0 -0.16 0.07 v1.1 a0.1 0.1 0 0 1 -0.09 0.1 H6.2 a1.07 1.07 0 0 0 -0.84 -0.41 A1.1 1.1 0 1 0 6.21 13 H9.48 a0.09 0.09 0 0 1 0.09 0.09 v1.11 a0.09 0.09 0 0 0 0.16 0.06 l1.82 -1.81 A0.2 0.2 0 0 0 11.55 12.15 Z" style="fill:url(#edc561ac-a1d6-439f-a08b-594ef0214ee3);" /></g></g></g></svg>