<?xml version="1.0" encoding="utf-8"?><svg version="1.1" xmlns="http://www.w3.org/2000/svg" xmlns:xlink="http://www.w3.org/1999/xlink" xmlns:xml="http://www.w3.org/XML/1998/namespace" width="70" height="70" viewBox="0, 0, 18, 18"><defs><linearGradient x1="4589.72" y1="-5180.02" x2="4589.72" y2="-5184.21" gradientUnits="userSpaceOnUse" gradientTransform="matrix(0.5, 0, 0, -0.5, -2275.31, -2589.32)" id="a20547e5-d6af-456b-afbc-05d22ff8cb9d"><stop offset="0%" stop-color="#C69AEB" /><stop offset="100%" stop-color="#6F4BB2" /></linearGradient><linearGradient x1="4587.99" y1="-5188.47" x2="4587.99" y2="-5192.65" xlink:href="#a20547e5-d6af-456b-afbc-05d22ff8cb9d" id="a4745f51-5e75-4126-812d-6bb8a5130e16" /></defs><title>Icon-integration-221</title><g><g id="b30b0bd5-e4d2-456b-8d49-c2df20200912"><path d="M12.7 8.15 v-0.6 H8.18 L6.06 9.66 H4.5 L8.12 6 h2.47 V5.43 H7.87 L3.65 9.66 h-0.6 v0.6 H4.86 L7 12.37 H12.1 v-0.6 H7.22 L5.71 10.26 H9.38 v-0.6 H6.92 l1.5 -1.51 Z" id="b51878b5-8d50-4b8b-bc48-74f5f7315a99" style="fill:#32BEDD;" /><circle cx="9.98" cy="9.96" r="0.87" id="ad0ed4eb-cd5f-4cc0-bd19-2830d27ec806" style="fill:white;" /><circle cx="10.89" cy="5.74" r="0.87" id="a2746b4a-0ae4-4308-876e-5b82657e1872" style="fill:white;" /><circle cx="13" cy="7.85" r="0.87" id="fc3316e0-7094-4ce0-99ed-43f1e6e4350c" style="fill:white;" /><circle cx="12.1" cy="12.07" r="0.87" id="b5d18443-d50e-4590-8e8f-80b6a7f6d348" style="fill:white;" /><circle cx="10.86" cy="5.74" r="1.05" style="fill:#50E6FF;" /><circle cx="12.97" cy="7.85" r="1.05" style="fill:url(#a20547e5-d6af-456b-afbc-05d22ff8cb9d);" /><circle cx="12.1" cy="12.07" r="1.05" style="fill:url(#a4745f51-5e75-4126-812d-6bb8a5130e16);" /><circle cx="9.98" cy="9.96" r="1.05" style="fill:#50E6FF;" /><g><path d="M1.07 1.43 H2.36 a0 0 0 0 1 0 0 V5 a0.29 0.29 0 0 1 -0.29 0.29 H0.79 A0.29 0.29 0 0 1 0.5 5 V2 A0.57 0.57 0 0 1 1.07 1.43 Z" style="fill:#999999;" /><path d="M1.07 1.43 H2.36 a0 0 0 0 1 0 0 V5 a0.29 0.29 0 0 1 -0.29 0.29 H0.79 A0.29 0.29 0 0 1 0.5 5 V2 A0.57 0.57 0 0 1 1.07 1.43 Z" opacity="0.5" style="fill:#999999;" /></g><g><path d="M15.64 1.43 h1.29 A0.57 0.57 0 0 1 17.5 2 V5 a0.29 0.29 0 0 1 -0.29 0.29 H15.92 A0.29 0.29 0 0 1 15.64 5 V1.43 A0 0 0 0 1 15.64 1.43 Z" style="fill:#999999;" /><path d="M15.64 1.43 h1.29 A0.57 0.57 0 0 1 17.5 2 V5 a0.29 0.29 0 0 1 -0.29 0.29 H15.92 A0.29 0.29 0 0 1 15.64 5 V1.43 A0 0 0 0 1 15.64 1.43 Z" opacity="0.5" style="fill:#999999;" /></g><path d="M8.66 -6.16 H9.91 a0 0 0 0 1 0 0 v17 a0 0 0 0 1 0 0 H8.66 a0.57 0.57 0 0 1 -0.57 -0.57 V-5.6 A0.57 0.57 0 0 1 8.66 -6.16 Z" transform="translate(11.34, -6.66) rotate(90, 0, 0)" style="fill:#949494;" /><g><path d="M0.79 12.68 H2.08 a0.29 0.29 0 0 1 0.29 0.29 v3.6 a0 0 0 0 1 0 0 H1.07 A0.57 0.57 0 0 1 0.5 16 V13 A0.29 0.29 0 0 1 0.79 12.68 Z" style="fill:#999999;" /><path d="M0.79 12.68 H2.08 a0.29 0.29 0 0 1 0.29 0.29 v3.6 a0 0 0 0 1 0 0 H1.07 A0.57 0.57 0 0 1 0.5 16 V13 A0.29 0.29 0 0 1 0.79 12.68 Z" opacity="0.5" style="fill:#999999;" /></g><g><path d="M15.92 12.68 h1.29 a0.29 0.29 0 0 1 0.29 0.29 v3 a0.57 0.57 0 0 1 -0.57 0.57 H15.64 a0 0 0 0 1 0 0 V13 A0.29 0.29 0 0 1 15.92 12.68 Z" style="fill:#999999;" /><path d="M15.92 12.68 h1.29 a0.29 0.29 0 0 1 0.29 0.29 v3 a0.57 0.57 0 0 1 -0.57 0.57 H15.64 a0 0 0 0 1 0 0 V13 A0.29 0.29 0 0 1 15.92 12.68 Z" opacity="0.5" style="fill:#999999;" /></g><path d="M8.66 7.16 H9.91 a0 0 0 0 1 0 0 v17 a0 0 0 0 1 0 0 H8.66 a0.57 0.57 0 0 1 -0.57 -0.57 V7.73 A0.57 0.57 0 0 1 8.66 7.16 Z" transform="translate(-6.66, 24.66) rotate(-90, 0, 0)" style="fill:#949494;" /></g></g></svg>