<?xml version="1.0" encoding="utf-8"?><svg version="1.1" xmlns="http://www.w3.org/2000/svg" xmlns:xlink="http://www.w3.org/1999/xlink" xmlns:xml="http://www.w3.org/XML/1998/namespace" width="70" height="70" viewBox="0, 0, 50, 50" id="FxSymbol0-058" class="" role="presentation" focusable="false" data-type="1"><g><title /><path d="M0.833 0 C0.333 0 0 0.333 0 0.833 v10 c0 0.5 0.333 0.833 0.833 0.833 h5 c0.5 0 0.833 -0.333 0.833 -0.833 V6.667 h36.667 v4.167 c0 0.5 0.333 0.833 1 0.833 h4.833 c0.5 0 0.833 -0.333 0.833 -0.833 v-10 C50 0.333 49.667 0 49.167 0 H0.833 z m48.334 50 c0.5 0 0.833 -0.333 0.833 -0.833 v-9.833 c0 -0.5 -0.333 -0.833 -0.833 -0.833 h-4.833 c-0.5 0 -0.833 0.333 -0.833 0.833 v4 H6.667 v-4.167 c0 -0.5 -0.333 -0.833 -1 -0.833 H0.833 c-0.5 0 -0.833 0.333 -0.833 1 v9.833 c0 0.5 0.333 0.833 0.833 0.833 h48.334 z" class="msportalfx-svg-c19" style="fill:#0072C6;" /><path d="M12.324 25.711 c-0.84 0.84 -1.958 1.303 -3.147 1.303 s-2.306 -0.463 -3.147 -1.303 L0 19.681 v12.258 h18.354 V19.681 l-6.03 6.03 z" class="msportalfx-svg-c15" style="fill:#59B4D9;" /><path d="M9.177 26.119 c0.95 0 1.842 -0.37 2.514 -1.041 l6.663 -6.663 v-0.353 H0 v0.354 l6.663 6.663 a3.533 3.533 0 0 0 2.514 1.04 z m34.793 -0.408 c-0.84 0.84 -1.958 1.303 -3.147 1.303 s-2.306 -0.463 -3.147 -1.303 l-6.03 -6.03 v12.258 H50 V19.681 l-6.03 6.03 z" class="msportalfx-svg-c15" style="fill:#59B4D9;" /><path d="M40.823 26.119 c0.95 0 1.842 -0.37 2.514 -1.041 L50 18.415 v-0.353 H31.646 v0.354 l6.663 6.663 a3.533 3.533 0 0 0 2.514 1.04 z" class="msportalfx-svg-c15" style="fill:#59B4D9;" /><path d="M25.813 23.779 h3.084 v2.434 h-3.084 z m-4.771 0 h3.262 v2.434 h-3.262 z" class="msportalfx-svg-c13" style="fill:#B8D432;" /></g><defs /></svg>