<?xml version="1.0" encoding="UTF-8"?>
<svg xmlns="http://www.w3.org/2000/svg" xmlns:xlink="http://www.w3.org/1999/xlink" width="70pt" height="70pt" viewBox="0 0 70 70" version="1.1">
<g id="surface1">
<path style=" stroke:none;fill-rule:nonzero;fill:rgb(0%,44.705882%,77.647059%);fill-opacity:1;" d="M 1.167969 0 C 0.464844 0 0 0.464844 0 1.167969 L 0 15.167969 C 0 15.867188 0.464844 16.332031 1.167969 16.332031 L 8.167969 16.332031 C 8.867188 16.332031 9.332031 15.867188 9.332031 15.167969 L 9.332031 9.332031 L 60.667969 9.332031 L 60.667969 15.167969 C 60.667969 15.867188 61.132813 16.332031 62.066406 16.332031 L 68.832031 16.332031 C 69.53125 16.332031 70 15.867188 70 15.167969 L 70 1.167969 C 70 0.464844 69.535156 0 68.832031 0 Z M 68.832031 70 C 69.535156 70 70 69.535156 70 68.832031 L 70 55.066406 C 70 54.367188 69.535156 53.902344 68.832031 53.902344 L 62.066406 53.902344 C 61.367188 53.902344 60.902344 54.367188 60.902344 55.066406 L 60.902344 60.667969 L 9.332031 60.667969 L 9.332031 54.832031 C 9.332031 54.132813 8.867188 53.667969 7.933594 53.667969 L 1.167969 53.667969 C 0.464844 53.667969 0 54.132813 0 55.066406 L 0 68.832031 C 0 69.535156 0.464844 70 1.167969 70 Z M 68.832031 70 "/>
<path style=" stroke:none;fill-rule:nonzero;fill:rgb(34.901961%,70.588235%,85.098039%);fill-opacity:1;" d="M 17.253906 35.996094 C 16.078125 37.171875 14.511719 37.820313 12.847656 37.820313 C 11.183594 37.820313 9.621094 37.171875 8.441406 35.996094 L 0 27.554688 L 0 44.714844 L 25.695313 44.714844 L 25.695313 27.554688 Z M 17.253906 35.996094 "/>
<path style=" stroke:none;fill-rule:nonzero;fill:rgb(34.901961%,70.588235%,85.098039%);fill-opacity:1;" d="M 12.847656 36.566406 C 14.179688 36.566406 15.425781 36.046875 16.367188 35.109375 L 25.695313 25.78125 L 25.695313 25.285156 L 0 25.285156 L 0 25.78125 L 9.328125 35.109375 C -0.367188 27.992188 -2.457031 14.359375 4.664063 4.664063 C 11.78125 -5.03125 25.414063 -7.121094 35.109375 0 Z M 61.558594 35.996094 C 60.382813 37.171875 58.816406 37.820313 57.152344 37.820313 C 55.488281 37.820313 53.921875 37.171875 52.746094 35.996094 L 44.304688 27.554688 L 44.304688 44.714844 L 70 44.714844 L 70 27.554688 Z M 61.558594 35.996094 "/>
<path style=" stroke:none;fill-rule:nonzero;fill:rgb(34.901961%,70.588235%,85.098039%);fill-opacity:1;" d="M 57.152344 36.566406 C 58.480469 36.566406 59.730469 36.046875 60.671875 35.109375 L 70 25.78125 L 70 25.285156 L 44.304688 25.285156 L 44.304688 25.78125 L 53.632813 35.109375 C 43.9375 40.226563 31.929688 36.511719 26.816406 26.816406 C 21.699219 17.121094 25.414063 5.113281 35.109375 0 Z M 57.152344 36.566406 "/>
<path style=" stroke:none;fill-rule:nonzero;fill:rgb(72.156863%,83.137255%,19.607843%);fill-opacity:1;" d="M 36.136719 33.289063 L 40.457031 33.289063 L 40.457031 36.699219 L 36.136719 36.699219 Z M 29.457031 33.289063 L 34.027344 33.289063 L 34.027344 36.699219 L 29.457031 36.699219 Z M 29.457031 33.289063 "/>
</g>
</svg>
