<?xml version="1.0" encoding="utf-8"?><svg version="1.1" xmlns="http://www.w3.org/2000/svg" xmlns:xlink="http://www.w3.org/1999/xlink" xmlns:xml="http://www.w3.org/XML/1998/namespace" width="70" height="70" viewBox="0, 0, 18, 18"><defs><linearGradient x1="10.467" y1="9.987" x2="10.467" y2="7.506" gradientUnits="userSpaceOnUse" id="bc881cb0-2250-4e99-b6cd-568a96c57a9d"><stop offset="0%" stop-color="#006CBC" /><stop offset="100%" stop-color="#29A4FF" /></linearGradient><linearGradient x1="4.288" y1="13.077" x2="4.58" y2="5.029" gradientUnits="userSpaceOnUse" id="f536bf50-992c-4fa0-bbf6-4d12488616d9"><stop offset="0%" stop-color="#008AF0" /><stop offset="100%" stop-color="#2FA6FF" /></linearGradient><linearGradient x1="8.711" y1="13.237" x2="9.003" y2="5.189" gradientUnits="userSpaceOnUse" id="f6c8ad87-986c-41f6-be34-270b4e00d1b0"><stop offset="0%" stop-color="#008AF0" /><stop offset="100%" stop-color="#2FA6FF" /></linearGradient><linearGradient x1="8.915" y1="13.245" x2="9.207" y2="5.197" gradientUnits="userSpaceOnUse" id="bbbaf763-e5a9-4da8-9d1e-32d9d3fe8ff0"><stop offset="0%" stop-color="#008AF0" /><stop offset="100%" stop-color="#2FA6FF" /></linearGradient><linearGradient x1="4.471" y1="13.083" x2="4.763" y2="5.035" gradientUnits="userSpaceOnUse" id="aa6fdf52-a4ca-43f3-b8a8-2f510d97420f"><stop offset="0%" stop-color="#008AF0" /><stop offset="100%" stop-color="#2FA6FF" /></linearGradient></defs><path d="M0.613 0.993 H1.976 V4.775 a0.306 0.306 0 0 1 -0.306 0.306 H0.307 A0.306 0.306 0 0 1 0 4.775 V1.606 A0.6 0.6 0 0 1 0.592 0.993 Z" style="fill:#47B0FF;" /><path d="M0.613 0.993 H1.976 V4.775 a0.306 0.306 0 0 1 -0.306 0.306 H0.307 A0.306 0.306 0 0 1 0 4.775 V1.606 A0.6 0.6 0 0 1 0.592 0.993 Z" opacity="0.5" style="fill:#47B0FF;" /><path d="M16.025 0.993 h1.362 a0.6 0.6 0 0 1 0.6 0.6 v3.18 a0.306 0.306 0 0 1 -0.306 0.306 H16.331 a0.306 0.306 0 0 1 -0.306 -0.306 V0.993 Z" style="fill:#47B0FF;" /><path d="M16.025 0.993 h1.362 a0.6 0.6 0 0 1 0.6 0.6 v3.18 a0.306 0.306 0 0 1 -0.306 0.306 H16.331 a0.306 0.306 0 0 1 -0.306 -0.306 V0.993 Z" opacity="0.5" style="fill:#47B0FF;" /><path d="M17.989 1.585 v1.32 H0.032 V1.585 a0.6 0.6 0 0 1 0.6 -0.6 H17.387 A0.6 0.6 0 0 1 17.989 1.585 Z" style="fill:#29A4FF;" /><path d="M0.307 12.9 H1.67 a0.306 0.306 0 0 1 0.306 0.306 v3.813 H0.613 A0.6 0.6 0 0 1 0 16.426 c0 -0.011 0 -0.021 0 -0.032 V13.225 A0.306 0.306 0 0 1 0.285 12.9 Z" style="fill:#47B0FF;" /><path d="M0.307 12.9 H1.67 a0.306 0.306 0 0 1 0.306 0.306 v3.813 H0.613 A0.6 0.6 0 0 1 0 16.426 c0 -0.011 0 -0.021 0 -0.032 V13.225 A0.306 0.306 0 0 1 0.285 12.9 Z" opacity="0.5" style="fill:#47B0FF;" /><path d="M16.331 12.9 h1.363 A0.306 0.306 0 0 1 18 13.2 h0 v3.169 a0.6 0.6 0 0 1 -0.6 0.6 H16.025 v-3.75 a0.306 0.306 0 0 1 0.284 -0.327 Z" style="fill:#47B0FF;" /><path d="M16.331 12.9 h1.363 A0.306 0.306 0 0 1 18 13.2 h0 v3.169 a0.6 0.6 0 0 1 -0.6 0.6 H16.025 v-3.75 a0.306 0.306 0 0 1 0.284 -0.327 Z" opacity="0.5" style="fill:#47B0FF;" /><path d="M0 16.415 V15.1 H17.958 v1.32 a0.6 0.6 0 0 1 -0.6 0.6 H0.6 A0.6 0.6 0 0 1 0 16.415 Z" style="fill:#29A4FF;" /><path d="M15.436 8.828 L13.3 6.664 a0.106 0.106 0 0 0 -0.148 -0.019 a0.105 0.105 0 0 0 -0.04 0.1 V8.075 a0.1 0.1 0 0 1 -0.092 0.117 H7.83 a1.237 1.237 0 0 0 -0.976 -0.482 c-0.042 0 -0.084 -0.006 -0.125 -0.006 a1.294 1.294 0 0 0 -0.122 2.582 q0.061 0.006 0.123 0.006 c0.041 0 0.083 0 0.124 -0.006 a1.272 1.272 0 0 0 0.987 -0.494 H13 a0.106 0.106 0 0 1 0.1 0.094 V11.2 a0.107 0.107 0 0 0 0.1 0.11 h0 a0.1 0.1 0 0 0 0.082 -0.039 l2.141 -2.129 A0.235 0.235 0 0 0 15.436 8.828 Z" style="fill:url(#bc881cb0-2250-4e99-b6cd-568a96c57a9d);" /><path d="M2.746 5.448 V8.531 H4.7 A2.073 2.073 0 0 1 6.33 6.943 v-2 H3.246 A0.5 0.5 0 0 0 2.746 5.448 Z" style="fill:url(#f536bf50-992c-4fa0-bbf6-4d12488616d9);" /><path d="M10.259 4.947 H7.175 v2 a2.059 2.059 0 0 1 0.99 0.451 h2.594 V5.447 A0.5 0.5 0 0 0 10.259 4.947 Z" style="fill:url(#f6c8ad87-986c-41f6-be34-270b4e00d1b0);" /><path d="M7.175 11.053 v1.979 h3.084 a0.5 0.5 0 0 0 0.5 -0.5 v-1.94 H8.179 A2.046 2.046 0 0 1 7.175 11.053 Z" style="fill:url(#bbbaf763-e5a9-4da8-9d1e-32d9d3fe8ff0);" /><path d="M4.7 9.448 H2.746 v3.084 a0.5 0.5 0 0 0 0.5 0.5 H6.33 V11.043 A2.036 2.036 0 0 1 4.7 9.448 Z" style="fill:url(#aa6fdf52-a4ca-43f3-b8a8-2f510d97420f);" />​
</svg>