<?xml version="1.0" encoding="UTF-8"?>
<svg xmlns="http://www.w3.org/2000/svg" xmlns:xlink="http://www.w3.org/1999/xlink" width="70pt" height="70pt" viewBox="0 0 70 70" version="1.1">
<defs>
<filter id="alpha" filterUnits="objectBoundingBox" x="0%" y="0%" width="100%" height="100%">
  <feColorMatrix type="matrix" in="SourceGraphic" values="0 0 0 0 1 0 0 0 0 1 0 0 0 0 1 0 0 0 1 0"/>
</filter>
<mask id="mask0">
  <g filter="url(#alpha)">
<rect x="0" y="0" width="70" height="70" style="fill:rgb(0,0,0);fill-opacity:0.4;stroke:none;"/>
  </g>
</mask>
<clipPath id="clip1">
  <rect x="0" y="0" width="70" height="70"/>
</clipPath>
<g id="surface5" clip-path="url(#clip1)">
<path style=" stroke:none;fill-rule:nonzero;fill:rgb(255,255,255);fill-opacity:1;" d="M 21 46.199219 L 21 23.910156 C 21 22.304688 22.304688 21 23.910156 21 L 48.890625 21 C 50.492188 21 51.800781 22.304688 51.800781 23.910156 L 51.800781 46.199219 Z M 21 46.199219 "/>
</g>
<mask id="mask1">
  <g filter="url(#alpha)">
<rect x="0" y="0" width="70" height="70" style="fill:rgb(0,0,0);fill-opacity:0.4;stroke:none;"/>
  </g>
</mask>
<clipPath id="clip2">
  <rect x="0" y="0" width="70" height="70"/>
</clipPath>
<g id="surface8" clip-path="url(#clip2)">
<path style=" stroke:none;fill-rule:nonzero;fill:rgb(0,33,58);fill-opacity:1;" d="M 48.890625 22.398438 L 39.199219 22.398438 L 22.398438 60.199219 L 22.398438 67.089844 C 22.398438 67.921875 23.078125 68.601563 23.910156 68.601563 L 48.890625 68.601563 C 49.722656 68.601563 50.398438 67.921875 50.398438 67.089844 L 50.398438 23.910156 C 50.398438 23.078125 49.722656 22.398438 48.890625 22.398438 Z M 48.890625 22.398438 "/>
</g>
<mask id="mask2">
  <g filter="url(#alpha)">
<rect x="0" y="0" width="70" height="70" style="fill:rgb(0,0,0);fill-opacity:0.14902;stroke:none;"/>
  </g>
</mask>
<clipPath id="clip3">
  <rect x="0" y="0" width="70" height="70"/>
</clipPath>
<g id="surface11" clip-path="url(#clip3)">
<path style=" stroke:none;fill-rule:nonzero;fill:rgb(57,171,255);fill-opacity:1;" d="M 25.199219 26.601563 L 30.800781 26.601563 L 30.800781 33.601563 L 25.199219 33.601563 Z M 33.601563 26.601563 L 39.199219 26.601563 L 39.199219 33.601563 L 33.601563 33.601563 Z M 42 26.601563 L 47.601563 26.601563 L 47.601563 33.601563 L 42 33.601563 Z M 25.199219 37.800781 L 30.800781 37.800781 L 30.800781 44.800781 L 25.199219 44.800781 Z M 33.601563 37.800781 L 39.199219 37.800781 L 39.199219 44.800781 L 33.601563 44.800781 Z M 42 37.800781 L 47.601563 37.800781 L 47.601563 44.800781 L 42 44.800781 Z M 25.199219 49 L 30.800781 49 L 30.800781 56 L 25.199219 56 Z M 33.601563 49 L 39.199219 49 L 39.199219 56 L 33.601563 56 Z M 33.601563 60.199219 L 39.199219 60.199219 L 39.199219 68.601563 L 33.601563 68.601563 Z M 42 49 L 47.601563 49 L 47.601563 56 L 42 56 Z M 42 49 "/>
</g>
</defs>
<g id="surface1">
<path style=" stroke:none;fill-rule:nonzero;fill:rgb(57,171,255);fill-opacity:1;" d="M 57.910156 21.285156 C 57.949219 20.808594 57.984375 20.328125 57.984375 19.835938 C 57.984375 9.695313 49.621094 1.46875 39.304688 1.46875 C 30.976563 1.46875 23.929688 6.832031 21.519531 14.230469 C 20.496094 14.03125 19.453125 13.925781 18.410156 13.917969 C 9.167969 13.917969 1.679688 21.128906 1.679688 30.023438 C 1.679688 38.917969 9.167969 46.128906 18.410156 46.128906 L 55.585938 46.128906 C 62.773438 46.128906 68.597656 40.519531 68.597656 33.601563 C 68.601563 27.449219 63.988281 22.34375 57.910156 21.285156 Z M 57.910156 21.285156 "/>
<use xlink:href="#surface5" mask="url(#mask0)"/>
<path style=" stroke:none;fill-rule:nonzero;fill:rgb(0,140,244);fill-opacity:1;" d="M 48.890625 22.398438 L 23.910156 22.398438 C 23.078125 22.398438 22.398438 23.078125 22.398438 23.910156 L 22.398438 67.089844 C 22.398438 67.921875 23.078125 68.601563 23.910156 68.601563 L 48.890625 68.601563 C 49.722656 68.601563 50.398438 67.921875 50.398438 67.089844 L 50.398438 23.910156 C 50.398438 23.078125 49.722656 22.398438 48.890625 22.398438 Z M 48.890625 22.398438 "/>
<use xlink:href="#surface8" mask="url(#mask1)"/>
<path style=" stroke:none;fill-rule:nonzero;fill:rgb(255,255,255);fill-opacity:1;" d="M 25.199219 26.601563 L 30.800781 26.601563 L 30.800781 33.601563 L 25.199219 33.601563 Z M 33.601563 26.601563 L 39.199219 26.601563 L 39.199219 33.601563 L 33.601563 33.601563 Z M 42 26.601563 L 47.601563 26.601563 L 47.601563 33.601563 L 42 33.601563 Z M 25.199219 37.800781 L 30.800781 37.800781 L 30.800781 44.800781 L 25.199219 44.800781 Z M 33.601563 37.800781 L 39.199219 37.800781 L 39.199219 44.800781 L 33.601563 44.800781 Z M 42 37.800781 L 47.601563 37.800781 L 47.601563 44.800781 L 42 44.800781 Z M 25.199219 49 L 30.800781 49 L 30.800781 56 L 25.199219 56 Z M 33.601563 49 L 39.199219 49 L 39.199219 56 L 33.601563 56 Z M 33.601563 60.199219 L 39.199219 60.199219 L 39.199219 68.601563 L 33.601563 68.601563 Z M 42 49 L 47.601563 49 L 47.601563 56 L 42 56 Z M 42 49 "/>
<use xlink:href="#surface11" mask="url(#mask2)"/>
</g>
</svg>
