<?xml version="1.0" encoding="UTF-8"?>
<svg xmlns="http://www.w3.org/2000/svg" xmlns:xlink="http://www.w3.org/1999/xlink" width="70pt" height="70pt" viewBox="0 0 70 70" version="1.1">
<defs>
<filter id="alpha" filterUnits="objectBoundingBox" x="0%" y="0%" width="100%" height="100%">
  <feColorMatrix type="matrix" in="SourceGraphic" values="0 0 0 0 1 0 0 0 0 1 0 0 0 0 1 0 0 0 1 0"/>
</filter>
<mask id="mask0">
  <g filter="url(#alpha)">
<rect x="0" y="0" width="70" height="70" style="fill:rgb(0,0,0);fill-opacity:0.2;stroke:none;"/>
  </g>
</mask>
<clipPath id="clip1">
  <rect x="0" y="0" width="70" height="70"/>
</clipPath>
<g id="surface5" clip-path="url(#clip1)">
<path style=" stroke:none;fill-rule:nonzero;fill:rgb(255,255,255);fill-opacity:1;" d="M 11.125 37.558594 C 11.125 32.4375 13.746094 28.445313 18.617188 25.945313 L 18.617188 24.949219 C 18.703125 20.269531 21.277344 15.992188 25.371094 13.726563 C 29.46875 11.460938 34.457031 11.550781 38.46875 13.960938 C 41.722656 9.484375 46.921875 6.835938 52.453125 6.84375 C 49.351563 4.101563 45.355469 2.589844 41.214844 2.597656 C 36.039063 2.582031 31.167969 5.042969 28.105469 9.214844 C 26.175781 7.960938 23.914063 7.308594 21.613281 7.34375 C 14.902344 7.339844 9.441406 12.75 9.378906 19.460938 L 9.378906 20.457031 C 5.109375 22.445313 2.378906 26.730469 2.378906 31.441406 C 2.363281 37.707031 6.746094 43.128906 12.878906 44.425781 C 11.714844 42.324219 11.113281 39.960938 11.125 37.558594 Z M 11.125 37.558594 "/>
</g>
</defs>
<g id="surface1">
<path style=" stroke:none;fill-rule:nonzero;fill:rgb(57,171,255);fill-opacity:1;" d="M 57.324219 20.328125 C 57.324219 19.828125 57.449219 19.207031 57.449219 18.707031 C 57.425781 14.429688 55.699219 10.339844 52.652344 7.339844 C 49.605469 4.339844 45.492188 2.679688 41.214844 2.722656 C 36.046875 2.605469 31.144531 5.03125 28.105469 9.214844 C 26.175781 7.960938 23.914063 7.308594 21.613281 7.34375 C 14.902344 7.339844 9.441406 12.75 9.378906 19.460938 L 9.378906 20.457031 C 5.109375 22.445313 2.378906 26.730469 2.378906 31.441406 C 2.421875 35.082031 3.929688 38.550781 6.5625 41.066406 C 9.195313 43.578125 12.730469 44.925781 16.371094 44.800781 L 50.828125 44.800781 C 54.46875 44.925781 58.003906 43.578125 60.636719 41.066406 C 63.269531 38.550781 64.777344 35.082031 64.820313 31.441406 C 64.859375 26.542969 61.878906 22.125 57.324219 20.328125 Z M 57.324219 20.328125 "/>
<path style=" stroke:none;fill-rule:nonzero;fill:rgb(147,209,255);fill-opacity:1;" d="M 32.109375 49.125 L 33.425781 52.25 L 30.464844 57.429688 L 33.714844 60.679688 L 39.058594 58.171875 L 42.183594 59.484375 L 43.820313 64.378906 L 43.984375 64.953125 L 48.59375 64.953125 L 50.527344 59.484375 L 53.652344 58.171875 L 58.253906 60.550781 L 58.832031 60.839844 L 62.078125 57.589844 L 59.613281 52.5 L 60.929688 49.375 L 65.820313 47.730469 L 66.394531 47.566406 L 66.394531 42.960938 L 60.933594 41.027344 L 59.617188 37.902344 L 62 33.300781 L 62.289063 32.722656 L 59.164063 29.476563 L 53.984375 31.984375 L 50.859375 30.667969 L 49.214844 25.777344 L 48.921875 25.199219 L 44.519531 25.199219 L 42.589844 30.667969 L 39.464844 31.984375 L 34.859375 29.601563 L 34.285156 29.316406 L 31.203125 33.015625 L 33.425781 37.742188 L 32.109375 40.867188 L 27.21875 42.511719 L 26.640625 42.800781 L 26.640625 47.195313 Z M 40.167969 45.140625 C 40.167969 41.617188 43.019531 38.765625 46.539063 38.765625 C 50.058594 38.765625 52.914063 41.617188 52.914063 45.136719 C 52.914063 48.65625 50.058594 51.511719 46.539063 51.511719 C 44.84375 51.53125 43.210938 50.863281 42.011719 49.664063 C 40.8125 48.464844 40.148438 46.835938 40.167969 45.140625 Z M 40.167969 45.140625 "/>
<path style=" stroke:none;fill-rule:nonzero;fill:rgb(39,163,255);fill-opacity:1;" d="M 12.277344 60.230469 L 13.492188 61.53125 L 12.972656 64.621094 L 15.160156 65.632813 L 17.339844 63.429688 L 19.117188 63.507813 L 20.816406 65.621094 L 21 65.875 L 23.269531 65.035156 L 23.230469 61.992188 L 24.53125 60.777344 L 27.230469 61.117188 L 27.566406 61.152344 L 28.578125 58.964844 L 26.4375 56.898438 L 26.519531 55.121094 L 28.632813 53.425781 L 28.886719 53.238281 L 28.042969 50.972656 L 25 51.011719 L 23.785156 49.710938 L 24.125 47.011719 L 24.164063 46.675781 L 22.035156 45.640625 L 19.933594 47.816406 L 18.15625 47.734375 L 16.460938 45.625 L 16.214844 45.390625 L 14.046875 46.1875 L 14.085938 49.234375 L 12.785156 50.449219 L 10.089844 50.121094 L 9.757813 50.082031 L 8.90625 52.460938 L 10.859375 54.386719 L 10.78125 56.164063 L 8.664063 57.859375 L 8.433594 58.105469 L 9.234375 60.273438 Z M 15.523438 56.804688 C 14.882813 55.070313 15.773438 53.148438 17.507813 52.511719 C 19.242188 51.871094 21.164063 52.761719 21.804688 54.496094 C 22.441406 56.230469 21.554688 58.152344 19.820313 58.789063 C 18.988281 59.105469 18.0625 59.074219 17.253906 58.703125 C 16.445313 58.328125 15.820313 57.644531 15.523438 56.804688 Z M 15.523438 56.804688 "/>
<use xlink:href="#surface5" mask="url(#mask0)"/>
</g>
</svg>
