<?xml version="1.0" encoding="UTF-8"?>
<svg xmlns="http://www.w3.org/2000/svg" xmlns:xlink="http://www.w3.org/1999/xlink" width="70pt" height="70pt" viewBox="0 0 70 70" version="1.1">
<g id="surface1">
<path style=" stroke:none;fill-rule:nonzero;fill:rgb(0,102,178);fill-opacity:1;" d="M 54.601563 30.800781 L 54.601563 28 L 33.605469 28 L 33.59375 27.996094 L 23.789063 37.800781 L 16.546875 37.800781 L 33.347656 21 L 44.800781 21 L 44.800781 18.199219 L 32.199219 18.199219 L 32.199219 18.207031 L 32.1875 18.199219 L 12.585938 37.800781 L 9.800781 37.800781 L 9.800781 40.601563 L 18.199219 40.601563 L 28 50.398438 L 51.800781 50.398438 L 51.800781 47.601563 L 29.160156 47.601563 L 22.160156 40.601563 L 39.199219 40.601563 L 39.199219 37.800781 L 27.746094 37.800781 L 34.746094 30.800781 Z M 54.601563 30.800781 "/>
<path style=" stroke:none;fill-rule:nonzero;fill:rgb(57,171,255);fill-opacity:1;" d="M 46.058594 39.199219 C 46.058594 41.441406 44.242188 43.261719 42 43.261719 C 39.757813 43.261719 37.941406 41.441406 37.941406 39.199219 C 37.941406 36.957031 39.757813 35.140625 42 35.140625 C 44.242188 35.140625 46.058594 36.957031 46.058594 39.199219 Z M 46.058594 39.199219 "/>
<path style=" stroke:none;fill-rule:nonzero;fill:rgb(57,171,255);fill-opacity:1;" d="M 49.070313 16.730469 C 47.484375 15.144531 44.914063 15.144531 43.328125 16.730469 C 41.742188 18.316406 41.742188 20.886719 43.328125 22.472656 C 44.914063 24.054688 47.484375 24.054688 49.070313 22.472656 C 50.65625 20.886719 50.65625 18.316406 49.070313 16.730469 Z M 49.070313 16.730469 "/>
<path style=" stroke:none;fill-rule:nonzero;fill:rgb(115,195,255);fill-opacity:1;" d="M 58.871094 26.527344 C 57.285156 24.945313 54.714844 24.945313 53.128906 26.527344 C 51.542969 28.113281 51.542969 30.683594 53.128906 32.269531 C 54.714844 33.855469 57.285156 33.855469 58.871094 32.269531 C 60.457031 30.683594 60.457031 28.113281 58.871094 26.527344 Z M 58.871094 26.527344 "/>
<path style=" stroke:none;fill-rule:nonzero;fill:rgb(115,195,255);fill-opacity:1;" d="M 54.671875 46.128906 C 53.085938 44.542969 50.515625 44.542969 48.929688 46.128906 C 47.34375 47.714844 47.34375 50.285156 48.929688 51.871094 C 50.515625 53.457031 53.085938 53.457031 54.671875 51.871094 C 56.257813 50.285156 56.257813 47.714844 54.671875 46.128906 Z M 54.671875 46.128906 "/>
<path style=" stroke:none;fill-rule:nonzero;fill:rgb(0,102,178);fill-opacity:1;" d="M 1.121094 0 C 0.421875 0 0 0.421875 0 1.121094 L 0 15.121094 C 0 15.820313 0.421875 16.238281 1.121094 16.238281 L 8.132813 16.238281 C 8.835938 16.238281 9.253906 15.820313 9.253906 15.121094 L 9.253906 9.378906 L 60.71875 9.378906 L 60.71875 15.261719 C 60.71875 15.960938 61.136719 16.378906 62.121094 16.378906 L 68.851563 16.378906 C 69.554688 16.378906 69.972656 15.960938 69.972656 15.261719 L 69.972656 1.261719 C 70.113281 0.421875 69.695313 0 68.992188 0 Z M 1.121094 0 "/>
<path style=" stroke:none;fill-rule:nonzero;fill:rgb(0,102,178);fill-opacity:1;" d="M 68.878906 70 C 69.578125 70 70 69.578125 70 68.878906 L 70 55.160156 C 70 54.460938 69.578125 54.039063 68.878906 54.039063 L 62.160156 54.039063 C 61.460938 54.039063 61.039063 54.460938 61.039063 55.160156 L 61.039063 60.761719 L 9.378906 60.761719 L 9.378906 54.878906 C 9.378906 54.179688 8.960938 53.761719 7.980469 53.761719 L 1.121094 53.761719 C 0.421875 53.761719 0 54.179688 0 55.160156 L 0 68.878906 C 0 69.578125 0.421875 70 1.121094 70 Z M 68.878906 70 "/>
</g>
</svg>
