<?xml version="1.0" encoding="UTF-8"?>
<svg xmlns="http://www.w3.org/2000/svg" xmlns:xlink="http://www.w3.org/1999/xlink" width="70pt" height="54pt" viewBox="0 0 70 54" version="1.1">
<g id="surface1">
<path style=" stroke:none;fill-rule:nonzero;fill:rgb(34.901961%,70.588235%,85.098039%);fill-opacity:1;" d="M 36.398438 21.738281 L 36.398438 14.816406 L 32.898438 14.816406 L 32.898438 21.738281 C 32.898438 22.984375 31.78125 24.09375 29.960938 24.644531 L 25.199219 25.617188 C 21.980469 26.585938 19.738281 29.078125 19.738281 31.847656 L 19.738281 39.738281 L 23.238281 39.738281 L 23.238281 31.847656 C 23.238281 30.601563 24.359375 29.492188 26.179688 28.9375 L 30.941406 27.832031 C 34.160156 27 36.398438 24.507813 36.398438 21.738281 Z M 36.398438 21.738281 "/>
<path style=" stroke:none;fill-rule:nonzero;fill:rgb(49.803922%,72.941176%,0%);fill-opacity:1;" d="M 27.441406 43.339844 L 27.441406 36.96875 C 27.441406 35.445313 26.179688 34.199219 24.640625 34.199219 L 18.199219 34.199219 C 16.660156 34.199219 15.398438 35.445313 15.398438 36.96875 L 15.398438 43.339844 C 15.398438 44.863281 16.660156 46.109375 18.199219 46.109375 L 24.640625 46.109375 C 26.179688 46.109375 27.441406 44.863281 27.441406 43.339844 Z M 27.441406 43.339844 "/>
<path style=" stroke:none;fill-rule:nonzero;fill:rgb(34.901961%,70.588235%,85.098039%);fill-opacity:1;" d="M 32.480469 21.738281 L 32.480469 14.816406 L 35.980469 14.816406 L 35.980469 21.738281 C 35.980469 22.984375 37.101563 24.09375 38.921875 24.644531 L 44.800781 25.890625 C 48.019531 26.863281 50.261719 29.355469 50.261719 32.125 L 50.261719 40.015625 L 46.761719 40.015625 L 46.761719 32.125 C 46.761719 30.875 45.640625 29.769531 43.820313 29.214844 L 37.941406 27.96875 C 34.71875 27 32.480469 24.507813 32.480469 21.738281 Z M 32.480469 21.738281 "/>
<path style=" stroke:none;fill-rule:nonzero;fill:rgb(49.803922%,72.941176%,0%);fill-opacity:1;" d="M 42.558594 43.617188 L 42.558594 37.246094 C 42.558594 35.722656 43.820313 34.476563 45.359375 34.476563 L 51.800781 34.476563 C 53.339844 34.476563 54.601563 35.722656 54.601563 37.246094 L 54.601563 43.617188 C 54.601563 45.136719 53.339844 46.382813 51.800781 46.382813 L 45.359375 46.382813 C 43.820313 46.382813 42.558594 45.136719 42.558594 43.617188 Z M 42.558594 43.617188 "/>
<path style=" stroke:none;fill-rule:nonzero;fill:rgb(34.901961%,70.588235%,85.098039%);fill-opacity:1;" d="M 32.480469 14.816406 L 36.398438 14.816406 L 36.398438 21.460938 L 32.480469 21.460938 Z M 32.480469 14.816406 "/>
<path style=" stroke:none;fill-rule:nonzero;fill:rgb(0%,44.705882%,77.647059%);fill-opacity:1;" d="M 37.101563 8.445313 L 37.101563 13.570313 L 31.921875 13.570313 L 31.921875 8.445313 L 37.101563 8.445313 M 38.21875 4.570313 L 30.800781 4.570313 C 29.261719 4.570313 28 5.816406 28 7.339844 L 28 14.675781 C 28 16.199219 29.261719 17.445313 30.800781 17.445313 L 38.21875 17.445313 C 39.761719 17.445313 41.019531 16.199219 41.019531 14.675781 L 41.019531 7.339844 C 41.019531 5.816406 39.761719 4.570313 38.21875 4.570313 Z M 38.21875 4.570313 "/>
<path style=" stroke:none;fill-rule:nonzero;fill:rgb(34.901961%,70.588235%,85.098039%);fill-opacity:1;" d="M 11.058594 53.722656 C 8.121094 53.722656 6.019531 53.167969 4.761719 52.199219 C 3.5 51.09375 2.941406 49.292969 2.941406 46.660156 L 2.941406 32.261719 C 2.941406 29.90625 1.960938 28.660156 0 28.660156 L 0 25.0625 C 1.960938 25.0625 2.941406 23.816406 2.941406 21.324219 L 2.941406 7.199219 C 2.941406 4.570313 3.5 2.628906 4.761719 1.523438 C 6.019531 0.414063 8.121094 0 11.058594 0 L 11.058594 3.601563 C 8.960938 3.601563 7.839844 4.707031 7.839844 7.0625 L 7.839844 20.90625 C 7.839844 24.09375 6.859375 26.03125 4.761719 26.863281 C 6.71875 27.691406 7.839844 29.628906 7.839844 32.816406 L 7.839844 46.523438 C 7.839844 47.769531 8.121094 48.738281 8.539063 49.292969 C 9.101563 49.847656 9.800781 50.125 10.921875 50.125 L 11.058594 53.722656 C 10.921875 53.722656 11.058594 53.722656 11.058594 53.722656 Z M 11.058594 53.722656 "/>
<path style=" stroke:none;fill-rule:nonzero;fill:rgb(34.901961%,70.588235%,85.098039%);fill-opacity:1;" d="M 58.941406 0 C 61.878906 0 63.980469 0.554688 65.238281 1.523438 C 66.5 2.628906 67.058594 4.429688 67.058594 7.0625 L 67.058594 21.460938 C 67.058594 23.816406 68.039063 25.0625 70 25.0625 L 70 28.660156 C 68.039063 28.660156 67.058594 29.90625 67.058594 32.398438 L 67.058594 46.382813 C 67.058594 49.015625 66.5 50.953125 65.238281 52.0625 C 63.980469 53.167969 61.878906 53.722656 58.941406 53.722656 L 58.941406 50.125 C 61.039063 50.125 62.160156 49.015625 62.160156 46.660156 L 62.160156 32.816406 C 62.160156 29.628906 63.140625 27.691406 65.238281 26.863281 C 63.28125 26.03125 62.160156 24.09375 62.160156 20.90625 L 62.160156 7.199219 C 62.160156 5.953125 61.878906 4.984375 61.460938 4.429688 C 60.898438 3.875 60.199219 3.601563 59.078125 3.601563 Z M 58.941406 0 "/>
</g>
</svg>
