<?xml version="1.0" encoding="UTF-8"?>
<svg xmlns="http://www.w3.org/2000/svg" xmlns:xlink="http://www.w3.org/1999/xlink" width="70pt" height="70pt" viewBox="0 0 70 70" version="1.1">
<g id="surface1">
<path style=" stroke:none;fill-rule:nonzero;fill:rgb(0%,44.705882%,77.647059%);fill-opacity:1;" d="M 1.121094 0 C 0.421875 0 0 0.421875 0 1.121094 L 0 15.121094 C 0 15.820313 0.421875 16.238281 1.121094 16.238281 L 8.121094 16.238281 C 8.820313 16.238281 9.238281 15.820313 9.238281 15.121094 L 9.238281 9.378906 L 60.621094 9.378906 L 60.621094 15.261719 C 60.621094 15.960938 61.039063 16.378906 62.019531 16.378906 L 68.738281 16.378906 C 69.441406 16.378906 69.859375 15.960938 69.859375 15.261719 L 69.859375 1.261719 C 70 0.421875 69.578125 0 68.878906 0 Z M 1.121094 0 "/>
<path style=" stroke:none;fill-rule:nonzero;fill:rgb(0%,44.705882%,77.647059%);fill-opacity:1;" d="M 68.878906 70 C 69.578125 70 70 69.578125 70 68.878906 L 70 55.160156 C 70 54.460938 69.578125 54.039063 68.878906 54.039063 L 62.160156 54.039063 C 61.460938 54.039063 61.039063 54.460938 61.039063 55.160156 L 61.039063 60.761719 L 9.378906 60.761719 L 9.378906 54.878906 C 9.378906 54.179688 8.960938 53.761719 7.980469 53.761719 L 1.121094 53.761719 C 0.421875 53.761719 0 54.179688 0 55.160156 L 0 68.878906 C 0 69.578125 0.421875 70 1.121094 70 Z M 68.878906 70 "/>
<path style=" stroke:none;fill-rule:nonzero;fill:rgb(0%,44.705882%,77.647059%);fill-opacity:1;" d="M 33.585938 24.261719 L 36.554688 22.40625 L 51.171875 45.796875 L 48.203125 47.648438 Z M 33.585938 24.261719 "/>
<path style=" stroke:none;fill-rule:nonzero;fill:rgb(0%,44.705882%,77.647059%);fill-opacity:1;" d="M 19.320313 45.777344 L 33.933594 22.390625 L 36.902344 24.242188 L 22.289063 47.632813 Z M 19.320313 45.777344 "/>
<path style=" stroke:none;fill-rule:nonzero;fill:rgb(72.156863%,83.137255%,19.607843%);fill-opacity:1;" d="M 42.558594 23.378906 C 42.558594 27.554688 39.175781 30.941406 35 30.941406 C 30.824219 30.941406 27.441406 27.554688 27.441406 23.378906 C 27.441406 19.203125 30.824219 15.820313 35 15.820313 C 39.175781 15.820313 42.558594 19.203125 42.558594 23.378906 Z M 42.558594 23.378906 "/>
<path style=" stroke:none;fill-rule:nonzero;fill:rgb(34.901961%,70.588235%,85.098039%);fill-opacity:1;" d="M 28 46.621094 C 28 50.796875 24.617188 54.179688 20.441406 54.179688 C 16.265625 54.179688 12.878906 50.796875 12.878906 46.621094 C 12.878906 42.445313 16.265625 39.058594 20.441406 39.058594 C 24.617188 39.058594 28 42.445313 28 46.621094 Z M 28 46.621094 "/>
<path style=" stroke:none;fill-rule:nonzero;fill:rgb(34.901961%,70.588235%,85.098039%);fill-opacity:1;" d="M 57.121094 46.621094 C 57.121094 50.796875 53.734375 54.179688 49.558594 54.179688 C 45.382813 54.179688 42 50.796875 42 46.621094 C 42 42.445313 45.382813 39.058594 49.558594 39.058594 C 53.734375 39.058594 57.121094 42.445313 57.121094 46.621094 Z M 57.121094 46.621094 "/>
</g>
</svg>
