<?xml version="1.0" encoding="UTF-8"?>
<svg xmlns="http://www.w3.org/2000/svg" xmlns:xlink="http://www.w3.org/1999/xlink" width="70pt" height="70pt" viewBox="0 0 70 70" version="1.1">
<defs>
<linearGradient id="linear0" gradientUnits="userSpaceOnUse" x1="9" y1="13.343" x2="9" y2="0.586" gradientTransform="matrix(3.888889,0,0,3.888889,0,0)">
<stop offset="0" style="stop-color:rgb(0%,47.058824%,83.137255%);stop-opacity:1;"/>
<stop offset="1" style="stop-color:rgb(36.862745%,62.745098%,93.72549%);stop-opacity:1;"/>
</linearGradient>
<linearGradient id="linear1" gradientUnits="userSpaceOnUse" x1="9.104" y1="10.28" x2="9.104" y2="7.603" gradientTransform="matrix(3.888889,0,0,3.888889,0,0)">
<stop offset="0" style="stop-color:rgb(46.27451%,73.72549%,17.647059%);stop-opacity:1;"/>
<stop offset="0.412" style="stop-color:rgb(47.843137%,76.470588%,18.431373%);stop-opacity:1;"/>
<stop offset="1" style="stop-color:rgb(52.54902%,83.921569%,20%);stop-opacity:1;"/>
</linearGradient>
<linearGradient id="linear2" gradientUnits="userSpaceOnUse" x1="9.119" y1="17.414" x2="9.119" y2="13.924" gradientTransform="matrix(3.888889,0,0,3.888889,0,0)">
<stop offset="0" style="stop-color:rgb(0%,47.058824%,83.137255%);stop-opacity:1;"/>
<stop offset="1" style="stop-color:rgb(36.862745%,62.745098%,93.72549%);stop-opacity:1;"/>
</linearGradient>
</defs>
<g id="surface1">
<path style=" stroke:none;fill-rule:nonzero;fill:url(#linear0);" d="M 70 36.351563 C 69.769531 28.648438 63.988281 22.25 56.351563 21.234375 C 55.875 10.394531 46.777344 1.949219 35.933594 2.277344 C 27.296875 2.113281 19.496094 7.429688 16.488281 15.527344 C 7.289063 16.652344 0.28125 24.324219 0 33.589844 C 0.410156 44.074219 9.21875 52.257813 19.707031 51.890625 C 20.296875 51.890625 20.875 51.863281 21.445313 51.816406 L 53.363281 51.816406 C 53.648438 51.8125 53.933594 51.769531 54.207031 51.691406 C 62.726563 51.628906 69.691406 44.867188 70 36.351563 Z M 70 36.351563 "/>
<path style=" stroke:none;fill-rule:nonzero;fill:rgb(0%,35.686275%,63.137255%);fill-opacity:1;" d="M 32.257813 39.265625 L 38.84375 39.265625 L 38.84375 60.070313 L 32.257813 60.070313 Z M 32.257813 39.265625 "/>
<path style=" stroke:none;fill-rule:nonzero;fill:rgb(100%,100%,100%);fill-opacity:1;" d="M 54.199219 22.554688 C 54.183594 22.121094 53.828125 21.777344 53.394531 21.777344 L 43.886719 21.777344 C 43.738281 21.777344 43.605469 21.863281 43.550781 22 C 43.496094 22.132813 43.527344 22.289063 43.632813 22.390625 L 46.558594 25.316406 C 46.691406 25.457031 46.691406 25.679688 46.558594 25.820313 L 43.652344 28.726563 C 42.222656 26.726563 40.132813 25.296875 37.753906 24.691406 L 37.753906 18.953125 C 37.753906 18.757813 37.914063 18.59375 38.109375 18.59375 L 42.265625 18.59375 C 42.410156 18.59375 42.539063 18.503906 42.597656 18.371094 C 42.652344 18.238281 42.621094 18.082031 42.519531 17.976563 L 35.777344 11.222656 C 35.625 11.070313 35.421875 10.988281 35.207031 10.988281 C 34.996094 10.988281 34.789063 11.070313 34.636719 11.222656 L 27.871094 17.976563 C 27.765625 18.082031 27.734375 18.234375 27.789063 18.371094 C 27.84375 18.507813 27.976563 18.59375 28.125 18.59375 L 32.277344 18.59375 C 32.476563 18.59375 32.640625 18.753906 32.640625 18.953125 L 32.640625 24.691406 C 30.164063 25.316406 28.007813 26.828125 26.574219 28.9375 L 23.441406 25.824219 C 23.308594 25.683594 23.308594 25.460938 23.441406 25.320313 L 23.625 25.136719 L 26.367188 22.414063 C 26.492188 22.316406 26.535156 22.148438 26.476563 22.003906 C 26.421875 21.855469 26.273438 21.765625 26.113281 21.777344 L 16.605469 21.777344 C 16.164063 21.777344 15.800781 22.136719 15.800781 22.578125 L 15.800781 32.078125 C 15.804688 32.222656 15.890625 32.351563 16.023438 32.40625 C 16.15625 32.464844 16.3125 32.433594 16.414063 32.332031 L 19.15625 29.609375 L 19.339844 29.425781 C 19.480469 29.289063 19.707031 29.289063 19.84375 29.425781 L 24.804688 34.371094 C 24.804688 34.503906 24.804688 34.632813 24.804688 34.757813 C 24.804688 40.507813 29.464844 45.167969 35.214844 45.167969 C 40.964844 45.167969 45.625 40.507813 45.625 34.757813 C 45.625 34.5 45.605469 34.242188 45.585938 33.980469 L 50.175781 29.390625 C 50.3125 29.253906 50.539063 29.253906 50.679688 29.390625 L 53.605469 32.316406 C 53.707031 32.417969 53.859375 32.449219 53.996094 32.390625 C 54.128906 32.335938 54.214844 32.207031 54.21875 32.0625 Z M 54.199219 22.554688 "/>
<path style=" stroke:none;fill-rule:nonzero;fill:url(#linear1);" d="M 40.609375 34.769531 C 40.609375 37.644531 38.277344 39.972656 35.40625 39.972656 C 32.53125 39.972656 30.199219 37.644531 30.199219 34.769531 C 30.199219 31.898438 32.53125 29.566406 35.40625 29.566406 C 38.277344 29.566406 40.609375 31.898438 40.609375 34.769531 Z M 40.609375 34.769531 "/>
<path style=" stroke:none;fill-rule:nonzero;fill:url(#linear2);" d="M 42.25 60.933594 C 42.25 64.683594 39.210938 67.722656 35.460938 67.722656 C 31.714844 67.722656 28.675781 64.683594 28.675781 60.933594 C 28.675781 57.1875 31.714844 54.148438 35.460938 54.148438 C 39.210938 54.148438 42.25 57.1875 42.25 60.933594 Z M 42.25 60.933594 "/>
</g>
</svg>
