<?xml version="1.0" encoding="UTF-8"?>
<svg xmlns="http://www.w3.org/2000/svg" xmlns:xlink="http://www.w3.org/1999/xlink" width="70pt" height="70pt" viewBox="0 0 70 70" version="1.1">
<defs>
<filter id="alpha" filterUnits="objectBoundingBox" x="0%" y="0%" width="100%" height="100%">
  <feColorMatrix type="matrix" in="SourceGraphic" values="0 0 0 0 1 0 0 0 0 1 0 0 0 0 1 0 0 0 1 0"/>
</filter>
<mask id="mask0">
  <g filter="url(#alpha)">
<rect x="0" y="0" width="70" height="70" style="fill:rgb(0,0,0);fill-opacity:0.501961;stroke:none;"/>
  </g>
</mask>
<clipPath id="clip1">
  <rect x="0" y="0" width="70" height="70"/>
</clipPath>
<g id="surface5" clip-path="url(#clip1)">
<path style=" stroke:none;fill-rule:nonzero;fill:rgb(0,115,200);fill-opacity:1;" d="M 8.398438 8.398438 L 7 8.398438 C 4.679688 8.398438 2.800781 10.28125 2.800781 12.601563 L 4.199219 12.601563 C 4.199219 11.054688 5.453125 9.800781 7 9.800781 L 8.398438 9.800781 Z M 8.398438 8.398438 "/>
</g>
<mask id="mask1">
  <g filter="url(#alpha)">
<rect x="0" y="0" width="70" height="70" style="fill:rgb(0,0,0);fill-opacity:0.501961;stroke:none;"/>
  </g>
</mask>
<clipPath id="clip2">
  <rect x="0" y="0" width="70" height="70"/>
</clipPath>
<g id="surface8" clip-path="url(#clip2)">
<path style=" stroke:none;fill-rule:nonzero;fill:rgb(0,115,200);fill-opacity:1;" d="M 8.398438 16.800781 L 7 16.800781 C 4.679688 16.800781 2.800781 18.679688 2.800781 21 L 4.199219 21 C 4.199219 19.453125 5.453125 18.199219 7 18.199219 L 8.398438 18.199219 Z M 8.398438 16.800781 "/>
</g>
<mask id="mask2">
  <g filter="url(#alpha)">
<rect x="0" y="0" width="70" height="70" style="fill:rgb(0,0,0);fill-opacity:0.501961;stroke:none;"/>
  </g>
</mask>
<clipPath id="clip3">
  <rect x="0" y="0" width="70" height="70"/>
</clipPath>
<g id="surface11" clip-path="url(#clip3)">
<path style=" stroke:none;fill-rule:nonzero;fill:rgb(0,115,200);fill-opacity:1;" d="M 8.398438 25.199219 L 7 25.199219 C 4.679688 25.199219 2.800781 27.082031 2.800781 29.398438 L 4.199219 29.398438 C 4.199219 27.855469 5.453125 26.601563 7 26.601563 L 8.398438 26.601563 Z M 8.398438 25.199219 "/>
</g>
<mask id="mask3">
  <g filter="url(#alpha)">
<rect x="0" y="0" width="70" height="70" style="fill:rgb(0,0,0);fill-opacity:0.501961;stroke:none;"/>
  </g>
</mask>
<clipPath id="clip4">
  <rect x="0" y="0" width="70" height="70"/>
</clipPath>
<g id="surface14" clip-path="url(#clip4)">
<path style=" stroke:none;fill-rule:nonzero;fill:rgb(0,115,200);fill-opacity:1;" d="M 8.398438 33.601563 L 7 33.601563 C 4.679688 33.601563 2.800781 35.480469 2.800781 37.800781 L 4.199219 37.800781 C 4.199219 36.253906 5.453125 35 7 35 L 8.398438 35 Z M 8.398438 33.601563 "/>
</g>
<mask id="mask4">
  <g filter="url(#alpha)">
<rect x="0" y="0" width="70" height="70" style="fill:rgb(0,0,0);fill-opacity:0.501961;stroke:none;"/>
  </g>
</mask>
<clipPath id="clip5">
  <rect x="0" y="0" width="70" height="70"/>
</clipPath>
<g id="surface17" clip-path="url(#clip5)">
<path style=" stroke:none;fill-rule:nonzero;fill:rgb(0,115,200);fill-opacity:1;" d="M 8.398438 42 L 7 42 C 4.679688 42 2.800781 43.878906 2.800781 46.199219 L 4.199219 46.199219 C 4.199219 44.652344 5.453125 43.398438 7 43.398438 L 8.398438 43.398438 Z M 8.398438 42 "/>
</g>
<mask id="mask5">
  <g filter="url(#alpha)">
<rect x="0" y="0" width="70" height="70" style="fill:rgb(0,0,0);fill-opacity:0.501961;stroke:none;"/>
  </g>
</mask>
<clipPath id="clip6">
  <rect x="0" y="0" width="70" height="70"/>
</clipPath>
<g id="surface20" clip-path="url(#clip6)">
<path style=" stroke:none;fill-rule:nonzero;fill:rgb(0,115,200);fill-opacity:1;" d="M 8.398438 50.398438 L 7 50.398438 C 4.679688 50.398438 2.800781 52.28125 2.800781 54.601563 L 4.199219 54.601563 C 4.199219 53.054688 5.453125 51.800781 7 51.800781 L 8.398438 51.800781 Z M 8.398438 50.398438 "/>
</g>
<mask id="mask6">
  <g filter="url(#alpha)">
<rect x="0" y="0" width="70" height="70" style="fill:rgb(0,0,0);fill-opacity:0.501961;stroke:none;"/>
  </g>
</mask>
<clipPath id="clip7">
  <rect x="0" y="0" width="70" height="70"/>
</clipPath>
<g id="surface23" clip-path="url(#clip7)">
<path style=" stroke:none;fill-rule:nonzero;fill:rgb(0,115,200);fill-opacity:1;" d="M 8.398438 58.800781 L 7 58.800781 C 4.679688 58.800781 2.800781 60.679688 2.800781 63 L 4.199219 63 C 4.199219 61.453125 5.453125 60.199219 7 60.199219 L 8.398438 60.199219 Z M 8.398438 58.800781 "/>
</g>
<mask id="mask7">
  <g filter="url(#alpha)">
<rect x="0" y="0" width="70" height="70" style="fill:rgb(0,0,0);fill-opacity:0.74902;stroke:none;"/>
  </g>
</mask>
<clipPath id="clip8">
  <rect x="0" y="0" width="70" height="70"/>
</clipPath>
<g id="surface26" clip-path="url(#clip8)">
<path style=" stroke:none;fill-rule:nonzero;fill:rgb(255,255,255);fill-opacity:1;" d="M 16.800781 4.199219 L 11.898438 7 L 14 7 L 14 67.199219 L 61.601563 67.199219 L 64.398438 64.398438 L 64.398438 4.199219 Z M 16.800781 4.199219 "/>
</g>
<mask id="mask8">
  <g filter="url(#alpha)">
<rect x="0" y="0" width="70" height="70" style="fill:rgb(0,0,0);fill-opacity:0.8;stroke:none;"/>
  </g>
</mask>
<clipPath id="clip9">
  <rect x="0" y="0" width="70" height="70"/>
</clipPath>
<g id="surface29" clip-path="url(#clip9)">
<path style=" stroke:none;fill-rule:nonzero;fill:rgb(255,255,255);fill-opacity:1;" d="M 17.5 4.199219 L 12.601563 7 L 61.601563 7 L 64.398438 4.199219 Z M 17.5 4.199219 "/>
</g>
</defs>
<g id="surface1">
<path style=" stroke:none;fill-rule:nonzero;fill:rgb(0,115,200);fill-opacity:1;" d="M 2.800781 12.601563 L 10.5 12.601563 L 10.5 14 L 4.199219 14 C 4.199219 14 2.800781 14 2.800781 12.601563 Z M 2.800781 12.601563 "/>
<use xlink:href="#surface5" mask="url(#mask0)"/>
<path style=" stroke:none;fill-rule:nonzero;fill:rgb(0,115,200);fill-opacity:1;" d="M 2.800781 21 L 10.5 21 L 10.5 22.398438 L 4.199219 22.398438 C 4.199219 22.398438 2.800781 22.398438 2.800781 21 Z M 2.800781 21 "/>
<use xlink:href="#surface8" mask="url(#mask1)"/>
<path style=" stroke:none;fill-rule:nonzero;fill:rgb(0,115,200);fill-opacity:1;" d="M 2.800781 29.398438 L 10.5 29.398438 L 10.5 30.800781 L 4.199219 30.800781 C 4.199219 30.800781 2.800781 30.800781 2.800781 29.398438 Z M 2.800781 29.398438 "/>
<use xlink:href="#surface11" mask="url(#mask2)"/>
<path style=" stroke:none;fill-rule:nonzero;fill:rgb(0,115,200);fill-opacity:1;" d="M 2.800781 37.800781 L 10.5 37.800781 L 10.5 39.199219 L 4.199219 39.199219 C 4.199219 39.199219 2.800781 39.199219 2.800781 37.800781 Z M 2.800781 37.800781 "/>
<use xlink:href="#surface14" mask="url(#mask3)"/>
<path style=" stroke:none;fill-rule:nonzero;fill:rgb(0,115,200);fill-opacity:1;" d="M 2.800781 46.199219 L 10.5 46.199219 L 10.5 47.601563 L 4.199219 47.601563 C 4.199219 47.601563 2.800781 47.601563 2.800781 46.199219 Z M 2.800781 46.199219 "/>
<use xlink:href="#surface17" mask="url(#mask4)"/>
<path style=" stroke:none;fill-rule:nonzero;fill:rgb(0,115,200);fill-opacity:1;" d="M 2.800781 54.601563 L 10.5 54.601563 L 10.5 56 L 4.199219 56 C 4.199219 56 2.800781 56 2.800781 54.601563 Z M 2.800781 54.601563 "/>
<use xlink:href="#surface20" mask="url(#mask5)"/>
<path style=" stroke:none;fill-rule:nonzero;fill:rgb(0,115,200);fill-opacity:1;" d="M 2.800781 63 L 10.5 63 L 10.5 64.398438 L 4.199219 64.398438 C 4.199219 64.398438 2.800781 64.398438 2.800781 63 Z M 2.800781 63 "/>
<use xlink:href="#surface23" mask="url(#mask6)"/>
<path style=" stroke:none;fill-rule:nonzero;fill:rgb(0,102,178);fill-opacity:1;" d="M 19.601563 2.800781 C 15.398438 2.800781 9.800781 7 9.800781 7 L 12.601563 7 L 12.601563 65.800781 L 61.601563 65.800781 L 61.601563 68.601563 L 65.800781 64.398438 L 65.800781 2.800781 Z M 19.601563 2.800781 "/>
<use xlink:href="#surface26" mask="url(#mask7)"/>
<use xlink:href="#surface29" mask="url(#mask8)"/>
<path style=" stroke:none;fill-rule:nonzero;fill:rgb(0,102,178);fill-opacity:1;" d="M 8.398438 70 L 8.398438 65.800781 L 11.199219 65.800781 L 12.601563 64.398438 L 12.601563 63 L 11.199219 61.601563 L 8.398438 61.601563 L 8.398438 57.398438 L 11.199219 57.398438 L 12.601563 56 L 12.601563 54.601563 L 11.199219 53.199219 L 8.398438 53.199219 L 8.398438 49 L 11.199219 49 L 12.601563 47.601563 L 12.601563 46.199219 L 11.199219 44.800781 L 8.398438 44.800781 L 8.398438 40.601563 L 11.199219 40.601563 L 12.601563 39.199219 L 12.601563 37.800781 L 11.199219 36.398438 L 8.398438 36.398438 L 8.398438 32.199219 L 11.199219 32.199219 L 12.601563 30.800781 L 12.601563 29.398438 L 11.199219 28 L 8.398438 28 L 8.398438 23.800781 L 11.199219 23.800781 L 12.601563 22.398438 L 12.601563 21 L 11.199219 19.601563 L 8.398438 19.601563 L 8.398438 15.398438 L 11.199219 15.398438 L 12.601563 14 L 12.601563 12.601563 L 11.199219 11.199219 L 8.398438 11.199219 L 8.398438 7 L 61.601563 7 L 61.601563 70 Z M 8.398438 70 "/>
<path style=" stroke:none;fill-rule:nonzero;fill:rgb(255,255,255);fill-opacity:1;" d="M 40.121094 43.472656 C 40.152344 43.472656 40.1875 43.464844 40.214844 43.449219 L 46.4375 40.003906 C 46.496094 39.972656 46.535156 39.914063 46.53125 39.847656 L 46.53125 32.929688 C 46.53125 32.863281 46.496094 32.804688 46.4375 32.773438 C 46.378906 32.742188 46.308594 32.742188 46.246094 32.773438 L 40.027344 36.21875 C 39.96875 36.25 39.933594 36.3125 39.933594 36.375 L 39.933594 43.292969 C 39.933594 43.359375 39.96875 43.417969 40.027344 43.449219 C 40.054688 43.464844 40.085938 43.472656 40.121094 43.472656 M 40.121094 52.582031 C 40.152344 52.582031 40.1875 52.574219 40.214844 52.558594 L 46.4375 49.113281 C 46.496094 49.082031 46.535156 49.019531 46.53125 48.957031 L 46.53125 42.039063 C 46.53125 41.972656 46.496094 41.914063 46.4375 41.882813 C 46.378906 41.851563 46.308594 41.851563 46.246094 41.882813 L 40.027344 45.328125 C 39.96875 45.359375 39.933594 45.421875 39.933594 45.484375 L 39.933594 52.402344 C 39.933594 52.453125 39.953125 52.5 39.988281 52.53125 C 40.023438 52.566406 40.070313 52.585938 40.121094 52.582031 M 48.183594 38.921875 C 48.21875 38.917969 48.253906 38.910156 48.28125 38.894531 L 54.503906 35.449219 C 54.5625 35.417969 54.601563 35.359375 54.601563 35.292969 L 54.601563 28.375 C 54.601563 28.308594 54.5625 28.25 54.503906 28.21875 C 54.445313 28.1875 54.371094 28.1875 54.3125 28.21875 L 48.089844 31.664063 C 48.035156 31.699219 48 31.757813 48 31.824219 L 48 38.742188 C 48 38.804688 48.035156 38.867188 48.089844 38.898438 C 48.121094 38.910156 48.152344 38.917969 48.183594 38.921875 M 48.183594 48.027344 C 48.21875 48.027344 48.253906 48.019531 48.28125 48.003906 L 54.503906 44.558594 C 54.5625 44.527344 54.601563 44.46875 54.601563 44.402344 L 54.601563 37.484375 C 54.601563 37.417969 54.5625 37.359375 54.503906 37.328125 C 54.445313 37.296875 54.371094 37.296875 54.3125 37.328125 L 48.089844 40.773438 C 48.035156 40.804688 48 40.867188 48 40.933594 L 48 47.847656 C 48 47.914063 48.035156 47.972656 48.089844 48.007813 C 48.121094 48.019531 48.152344 48.027344 48.183594 48.027344 M 38.28125 43.472656 C 38.246094 43.472656 38.214844 43.464844 38.183594 43.449219 L 31.960938 40.003906 C 31.902344 39.972656 31.867188 39.914063 31.867188 39.847656 L 31.867188 32.929688 C 31.867188 32.863281 31.902344 32.804688 31.960938 32.773438 C 32.023438 32.742188 32.09375 32.742188 32.152344 32.773438 L 38.375 36.21875 C 38.429688 36.25 38.464844 36.3125 38.464844 36.378906 L 38.464844 43.296875 C 38.46875 43.34375 38.445313 43.390625 38.410156 43.425781 C 38.375 43.457031 38.328125 43.476563 38.28125 43.472656 M 38.28125 52.582031 C 38.246094 52.582031 38.214844 52.574219 38.183594 52.558594 L 31.960938 49.113281 C 31.902344 49.082031 31.867188 49.019531 31.867188 48.957031 L 31.867188 42.039063 C 31.867188 41.972656 31.902344 41.914063 31.960938 41.882813 C 32.023438 41.851563 32.09375 41.851563 32.152344 41.882813 L 38.375 45.328125 C 38.429688 45.359375 38.464844 45.421875 38.464844 45.484375 L 38.464844 52.402344 C 38.46875 52.453125 38.445313 52.5 38.410156 52.53125 C 38.375 52.566406 38.328125 52.585938 38.28125 52.582031 M 30.214844 38.921875 C 30.179688 38.921875 30.148438 38.910156 30.121094 38.894531 L 23.898438 35.449219 C 23.835938 35.417969 23.800781 35.359375 23.800781 35.292969 L 23.800781 28.375 C 23.800781 28.308594 23.835938 28.25 23.894531 28.21875 C 23.953125 28.1875 24.027344 28.1875 24.085938 28.21875 L 30.308594 31.664063 C 30.363281 31.699219 30.398438 31.757813 30.398438 31.824219 L 30.398438 38.742188 C 30.398438 38.789063 30.378906 38.835938 30.34375 38.871094 C 30.3125 38.902344 30.261719 38.921875 30.214844 38.921875 M 30.214844 48.027344 C 30.179688 48.027344 30.148438 48.019531 30.121094 48.003906 L 23.898438 44.558594 C 23.835938 44.527344 23.800781 44.46875 23.800781 44.402344 L 23.800781 37.484375 C 23.800781 37.417969 23.835938 37.359375 23.894531 37.328125 C 23.953125 37.296875 24.027344 37.296875 24.085938 37.328125 L 30.308594 40.773438 C 30.363281 40.804688 30.398438 40.867188 30.398438 40.933594 L 30.398438 47.847656 C 30.398438 47.898438 30.378906 47.945313 30.34375 47.976563 C 30.3125 48.011719 30.261719 48.03125 30.214844 48.027344 M 32.917969 30.855469 C 32.933594 30.828125 32.957031 30.804688 32.988281 30.792969 L 39.171875 27.429688 C 39.230469 27.398438 39.300781 27.398438 39.359375 27.429688 L 45.480469 30.761719 C 45.535156 30.792969 45.570313 30.851563 45.570313 30.917969 C 45.570313 30.980469 45.53125 31.039063 45.476563 31.070313 L 39.292969 34.429688 C 39.234375 34.460938 39.164063 34.460938 39.105469 34.429688 L 32.984375 31.097656 C 32.941406 31.074219 32.910156 31.039063 32.898438 30.992188 C 32.886719 30.945313 32.890625 30.898438 32.917969 30.855469 M 24.855469 26.46875 C 24.871094 26.441406 24.894531 26.417969 24.921875 26.402344 L 31.039063 23.042969 C 31.09375 23.007813 31.164063 23.007813 31.222656 23.042969 L 37.277344 26.375 C 37.332031 26.402344 37.367188 26.460938 37.367188 26.527344 C 37.363281 26.589844 37.328125 26.648438 37.273438 26.679688 L 31.15625 30.042969 C 31.097656 30.070313 31.03125 30.070313 30.972656 30.039063 L 24.917969 26.707031 C 24.863281 26.679688 24.828125 26.621094 24.828125 26.558594 C 24.828125 26.527344 24.839844 26.496094 24.855469 26.46875 M 41.148438 26.542969 C 41.164063 26.515625 41.1875 26.492188 41.21875 26.476563 L 47.332031 23.117188 C 47.390625 23.082031 47.460938 23.082031 47.515625 23.117188 L 53.570313 26.449219 C 53.628906 26.476563 53.660156 26.535156 53.660156 26.601563 C 53.660156 26.664063 53.621094 26.722656 53.566406 26.753906 L 47.453125 30.117188 C 47.394531 30.144531 47.324219 30.144531 47.269531 30.113281 L 41.214844 26.78125 C 41.15625 26.753906 41.121094 26.695313 41.121094 26.632813 C 41.125 26.601563 41.132813 26.570313 41.148438 26.542969 M 32.949219 22.210938 C 32.964844 22.183594 32.988281 22.164063 33.019531 22.148438 L 39.203125 18.84375 C 39.257813 18.8125 39.332031 18.808594 39.390625 18.839844 L 45.511719 22.117188 C 45.566406 22.148438 45.601563 22.207031 45.601563 22.269531 C 45.597656 22.332031 45.5625 22.390625 45.507813 22.421875 L 39.324219 25.726563 C 39.265625 25.757813 39.195313 25.753906 39.136719 25.726563 L 33.015625 22.445313 C 32.957031 22.417969 32.921875 22.359375 32.921875 22.296875 C 32.921875 22.265625 32.933594 22.238281 32.949219 22.210938 "/>
<path style=" stroke:none;fill-rule:nonzero;fill:rgb(0,102,178);fill-opacity:1;" d="M 32.390625 60.433594 C 29.875 60.433594 27.628906 58.359375 25.988281 56.839844 C 25.519531 56.40625 25.074219 55.996094 24.78125 55.792969 C 23.703125 55.023438 21.589844 54.199219 19.511719 54.199219 L 17.589844 54.195313 C 16.433594 54.191406 15.496094 53.253906 15.496094 52.097656 L 15.496094 45.582031 C 15.496094 44.425781 16.4375 43.484375 17.59375 43.484375 L 20.730469 43.484375 L 20.886719 44.886719 L 20.886719 43.484375 C 21.789063 43.484375 23.191406 43.222656 24.433594 42.992188 C 25.429688 42.808594 26.367188 42.632813 27.148438 42.5625 C 27.488281 42.53125 27.835938 42.515625 28.183594 42.515625 C 29.175781 42.515625 32.519531 42.675781 33.96875 44.75 C 34.140625 44.988281 34.929688 45.933594 35.285156 46.226563 C 35.589844 46.46875 36.339844 46.726563 37.546875 46.726563 L 37.765625 46.726563 C 37.859375 46.722656 38.078125 46.703125 38.371094 46.675781 C 39.207031 46.601563 40.472656 46.492188 41.429688 46.492188 C 41.652344 46.492188 41.863281 46.5 42.042969 46.511719 C 43.875 46.648438 44.863281 47.894531 45.035156 49.070313 C 45.101563 49.519531 45.035156 50.132813 44.792969 50.699219 L 45.472656 50.367188 C 47.632813 49.304688 50.589844 47.855469 52.300781 47.277344 C 52.917969 47.066406 53.566406 46.953125 54.21875 46.949219 C 55.605469 46.949219 56.753906 47.523438 57.285156 48.484375 C 57.574219 49 57.925781 50.082031 57.058594 51.476563 C 56.605469 52.199219 55.890625 52.902344 55.089844 53.398438 C 53.566406 54.339844 52.039063 55.277344 50.507813 56.207031 C 49.859375 56.601563 49.191406 57.03125 48.539063 57.457031 C 46.285156 58.917969 44.847656 59.816406 43.765625 59.964844 C 43.273438 60.023438 42.78125 60.046875 42.289063 60.039063 C 41.8125 60.039063 41.277344 60.027344 40.742188 60.015625 C 40.226563 60 39.714844 59.992188 39.199219 59.988281 C 38.828125 59.988281 38.488281 59.996094 38.203125 60.019531 C 37.773438 60.050781 37.292969 60.097656 36.773438 60.152344 C 35.515625 60.277344 33.945313 60.433594 32.390625 60.433594 Z M 32.390625 60.433594 "/>
<path style=" stroke:none;fill-rule:nonzero;fill:rgb(255,255,255);fill-opacity:1;" d="M 52.609375 48.742188 C 50.230469 49.546875 45.019531 52.273438 43.824219 52.78125 C 42.421875 53.378906 39.628906 53.742188 36.515625 53.683594 C 34.792969 53.652344 33.5625 53.464844 32.871094 52.820313 C 32.871094 52.820313 30.40625 50.820313 29.90625 50.328125 C 29.0625 49.496094 30.152344 48.230469 31.003906 48.898438 C 31.628906 49.386719 32.679688 50.441406 33.699219 51.203125 C 34.71875 51.964844 38.3125 51.609375 39.800781 51.507813 C 41.515625 51.386719 42.484375 51.054688 42.867188 50.867188 C 43.421875 50.597656 43.5625 49.761719 43.511719 49.414063 C 43.4375 48.898438 42.964844 48.136719 41.800781 48.050781 C 40.636719 47.960938 38.046875 48.257813 37.664063 48.265625 C 35.871094 48.308594 34.808594 47.890625 34.273438 47.457031 C 33.734375 47.023438 32.8125 45.878906 32.683594 45.695313 C 31.78125 44.402344 29.277344 43.902344 27.136719 44.097656 C 25.355469 44.261719 22.328125 45.074219 20.59375 45.023438 L 17.457031 45.023438 C 17.070313 45.023438 16.757813 45.335938 16.757813 45.722656 L 16.757813 52.238281 C 16.757813 52.625 17.066406 52.9375 17.453125 52.9375 L 19.375 52.941406 C 21.648438 52.941406 24.042969 53.789063 25.453125 54.789063 C 26.863281 55.789063 29.59375 59.175781 32.25 59.175781 C 34.359375 59.175781 36.476563 58.871094 37.957031 58.761719 C 39.441406 58.648438 42.28125 58.878906 43.433594 58.71875 C 44.585938 58.5625 47.316406 56.566406 49.625 55.160156 C 51.035156 54.300781 52.613281 53.339844 54.214844 52.347656 C 54.851563 51.953125 55.40625 51.402344 55.730469 50.875 C 56.871094 49.039063 54.90625 47.964844 52.609375 48.742188 Z M 52.609375 48.742188 "/>
</g>
</svg>
