<?xml version="1.0" encoding="UTF-8"?>
<svg xmlns="http://www.w3.org/2000/svg" xmlns:xlink="http://www.w3.org/1999/xlink" width="70pt" height="70pt" viewBox="0 0 70 70" version="1.1">
<defs>
<filter id="alpha" filterUnits="objectBoundingBox" x="0%" y="0%" width="100%" height="100%">
  <feColorMatrix type="matrix" in="SourceGraphic" values="0 0 0 0 1 0 0 0 0 1 0 0 0 0 1 0 0 0 1 0"/>
</filter>
<mask id="mask0">
  <g filter="url(#alpha)">
<rect x="0" y="0" width="70" height="70" style="fill:rgb(0%,0%,0%);fill-opacity:0.8;stroke:none;"/>
  </g>
</mask>
<clipPath id="clip1">
  <rect x="0" y="0" width="70" height="70"/>
</clipPath>
<g id="surface5" clip-path="url(#clip1)">
<path style=" stroke:none;fill-rule:nonzero;fill:rgb(100%,100%,100%);fill-opacity:1;" d="M 64.398438 35 C 64.398438 51.238281 51.238281 64.398438 35 64.398438 C 18.761719 64.398438 5.601563 51.238281 5.601563 35 C 5.601563 18.761719 18.761719 5.601563 35 5.601563 C 51.238281 5.601563 64.398438 18.761719 64.398438 35 Z M 64.398438 35 "/>
</g>
</defs>
<g id="surface1">
<path style=" stroke:none;fill-rule:nonzero;fill:rgb(0%,44.705882%,77.647059%);fill-opacity:1;" d="M 68.460938 35 C 68.460938 53.480469 53.480469 68.460938 35 68.460938 C 16.519531 68.460938 1.539063 53.480469 1.539063 35 C 1.539063 16.519531 16.519531 1.539063 35 1.539063 C 53.480469 1.539063 68.460938 16.519531 68.460938 35 Z M 68.460938 35 "/>
<use xlink:href="#surface5" mask="url(#mask0)"/>
<path style=" stroke:none;fill-rule:nonzero;fill:rgb(22.352941%,60%,77.647059%);fill-opacity:1;" d="M 36.261719 28.558594 L 36.261719 21.558594 L 32.761719 21.558594 L 32.761719 28.558594 C 32.761719 29.820313 31.640625 30.941406 29.820313 31.5 L 25.058594 32.480469 C 21.839844 33.460938 19.601563 35.980469 19.601563 38.78125 L 19.601563 46.761719 L 23.101563 46.761719 L 23.101563 38.78125 C 23.101563 37.519531 24.21875 36.398438 26.039063 35.839844 L 30.800781 34.71875 C 34.019531 33.878906 36.261719 31.359375 36.261719 28.558594 Z M 36.261719 28.558594 "/>
<path style=" stroke:none;fill-rule:nonzero;fill:rgb(22.352941%,60%,77.647059%);fill-opacity:1;" d="M 33.738281 28.558594 L 33.738281 21.558594 L 37.238281 21.558594 L 37.238281 28.558594 C 37.238281 29.820313 38.359375 30.941406 40.179688 31.5 L 44.941406 32.480469 C 48.160156 33.460938 50.398438 35.980469 50.398438 38.78125 L 50.398438 46.761719 L 46.898438 46.761719 L 46.898438 38.78125 C 46.898438 37.519531 45.78125 36.398438 43.960938 35.839844 L 39.199219 34.71875 C 35.980469 33.878906 33.738281 31.359375 33.738281 28.558594 Z M 33.738281 28.558594 "/>
<path style=" stroke:none;fill-rule:nonzero;fill:rgb(49.803922%,72.941176%,0%);fill-opacity:1;" d="M 27.441406 50.398438 L 27.441406 43.960938 C 27.441406 42.421875 26.179688 41.160156 24.640625 41.160156 L 18.199219 41.160156 C 16.660156 41.160156 15.398438 42.421875 15.398438 43.960938 L 15.398438 50.398438 C 15.398438 51.941406 16.660156 53.199219 18.199219 53.199219 L 24.640625 53.199219 C 26.179688 53.199219 27.441406 51.941406 27.441406 50.398438 Z M 42.558594 50.679688 L 42.558594 44.238281 C 42.558594 42.699219 43.820313 41.441406 45.359375 41.441406 L 51.800781 41.441406 C 53.339844 41.441406 54.601563 42.699219 54.601563 44.238281 L 54.601563 50.679688 C 54.601563 52.21875 53.339844 53.480469 51.800781 53.480469 L 45.359375 53.480469 C 43.820313 53.480469 42.558594 52.21875 42.558594 50.679688 Z M 42.558594 50.679688 "/>
<path style=" stroke:none;fill-rule:nonzero;fill:rgb(50.196078%,28.627451%,59.607843%);fill-opacity:1;" d="M 37.785156 15.414063 L 37.785156 20.984375 L 32.214844 20.984375 L 32.214844 15.414063 L 37.785156 15.414063 M 38.988281 11.199219 L 31.011719 11.199219 C 29.355469 11.199219 28 12.554688 28 14.210938 L 28 22.191406 C 28 23.84375 29.355469 25.199219 31.011719 25.199219 L 38.988281 25.199219 C 40.644531 25.199219 42 23.84375 42 22.1875 L 42 14.210938 C 42 12.554688 40.644531 11.199219 38.988281 11.199219 Z M 38.988281 11.199219 "/>
<path style=" stroke:none;fill-rule:nonzero;fill:rgb(100%,100%,100%);fill-opacity:1;" d="M 32.199219 15.398438 L 37.800781 15.398438 L 37.800781 21 L 32.199219 21 Z M 32.199219 15.398438 "/>
</g>
</svg>
