<?xml version="1.0" encoding="utf-8"?><svg version="1.1" xmlns="http://www.w3.org/2000/svg" xmlns:xlink="http://www.w3.org/1999/xlink" xmlns:xml="http://www.w3.org/XML/1998/namespace" width="70" height="70" viewBox="0, 0, 18, 18" id="eee52b4a-717a-410e-b54d-5e8fdc913b96"><defs><linearGradient x1="5.06" y1="11.62" x2="5.06" y2="14.5" gradientUnits="userSpaceOnUse" id="b6d2ab89-b9ea-48bf-8e7f-c0a0e94aaccb"><stop offset="0%" stop-color="#33A8FF" /><stop offset="100%" stop-color="#006CBC" /></linearGradient><linearGradient x1="13.06" y1="11.62" x2="13.06" y2="14.5" gradientUnits="userSpaceOnUse" id="aa835ab6-90f2-4950-9adc-1bef25952f94"><stop offset="0%" stop-color="#33A8FF" /><stop offset="100%" stop-color="#006CBC" /></linearGradient></defs><title>Icon-integration-218</title><path d="M1.06 1.6 V16.52 a0.54 0.54 0 0 0 0.54 0.54 H16.52 a0.54 0.54 0 0 0 0.54 -0.54 V1.6 a0.54 0.54 0 0 0 -0.54 -0.54 H1.6 A0.54 0.54 0 0 0 1.06 1.6 Z m14.56 14 H3 a0.54 0.54 0 0 1 -0.54 -0.54 V2.5 H15.62 Z" id="a2734abb-83a3-460e-90d8-64455870d970" style="fill:#006CBC;" /><path d="M3.62 3.62 H6.5 V6.5 H3.62 Z" id="ba3f6f82-9a3b-4057-ad2f-e8d6b6ae1b0d" style="fill:#87CCFF;" /><path d="M3.62 7.62 H6.5 V10.5 H3.62 Z" id="f46b9afd-fd39-4ca3-b68e-e5ca657f5953" style="fill:#006BBA;" /><path d="M7.62 7.62 H10.5 V10.5 H7.62 Z" id="e7dd79f4-ae03-42ec-8f08-c2efdcdd3517" style="fill:#29A4FF;" /><path d="M3.62 11.62 H6.5 V14.5 H3.62 Z" id="bdd26cbb-f087-4b40-a809-b68b4e92b643" style="fill:url(#b6d2ab89-b9ea-48bf-8e7f-c0a0e94aaccb);" /><path d="M7.62 11.62 H10.5 V14.5 H7.62 Z" id="b42c6875-f245-4ba4-9264-2088283c3036" style="fill:#006BBA;" /><path d="M11.62 11.62 H14.5 V14.5 H11.62 Z" id="a8d52762-2bc4-48b4-9685-903c7c3b7d84" style="fill:url(#aa835ab6-90f2-4950-9adc-1bef25952f94);" /></svg>