<?xml version="1.0" encoding="UTF-8"?>
<svg xmlns="http://www.w3.org/2000/svg" xmlns:xlink="http://www.w3.org/1999/xlink" width="70pt" height="70pt" viewBox="0 0 70 70" version="1.1">
<defs>
<filter id="alpha" filterUnits="objectBoundingBox" x="0%" y="0%" width="100%" height="100%">
  <feColorMatrix type="matrix" in="SourceGraphic" values="0 0 0 0 1 0 0 0 0 1 0 0 0 0 1 0 0 0 1 0"/>
</filter>
<mask id="mask0">
  <g filter="url(#alpha)">
<rect x="0" y="0" width="70" height="70" style="fill:rgb(0,0,0);fill-opacity:0.501961;stroke:none;"/>
  </g>
</mask>
<clipPath id="clip1">
  <rect x="0" y="0" width="70" height="70"/>
</clipPath>
<g id="surface5" clip-path="url(#clip1)">
<path style=" stroke:none;fill-rule:nonzero;fill:rgb(71,176,255);fill-opacity:1;" d="M 4.121094 5.523438 L 9.140625 5.523438 L 9.140625 19.445313 C 9.140625 20.066406 8.632813 20.570313 8.011719 20.570313 L 2.996094 20.570313 C 2.371094 20.570313 1.867188 20.066406 1.867188 19.445313 L 1.867188 7.777344 C 1.855469 7.175781 2.089844 6.597656 2.515625 6.171875 C 2.941406 5.746094 3.519531 5.511719 4.121094 5.523438 Z M 4.121094 5.523438 "/>
</g>
<mask id="mask1">
  <g filter="url(#alpha)">
<rect x="0" y="0" width="70" height="70" style="fill:rgb(0,0,0);fill-opacity:0.501961;stroke:none;"/>
  </g>
</mask>
<clipPath id="clip2">
  <rect x="0" y="0" width="70" height="70"/>
</clipPath>
<g id="surface8" clip-path="url(#clip2)">
<path style=" stroke:none;fill-rule:nonzero;fill:rgb(71,176,255);fill-opacity:1;" d="M 60.859375 5.523438 L 65.878906 5.523438 C 67.101563 5.523438 68.09375 6.515625 68.09375 7.738281 L 68.09375 19.445313 C 68.09375 20.066406 67.589844 20.570313 66.964844 20.570313 L 61.988281 20.570313 C 61.367188 20.570313 60.859375 20.066406 60.859375 19.445313 Z M 60.859375 5.523438 "/>
</g>
<mask id="mask2">
  <g filter="url(#alpha)">
<rect x="0" y="0" width="70" height="70" style="fill:rgb(0,0,0);fill-opacity:0.501961;stroke:none;"/>
  </g>
</mask>
<clipPath id="clip3">
  <rect x="0" y="0" width="70" height="70"/>
</clipPath>
<g id="surface11" clip-path="url(#clip3)">
<path style=" stroke:none;fill-rule:nonzero;fill:rgb(71,176,255);fill-opacity:1;" d="M 2.996094 49.351563 L 8.011719 49.351563 C 8.632813 49.351563 9.140625 49.855469 9.140625 50.476563 L 9.140625 64.515625 L 4.121094 64.515625 C 3.515625 64.527344 2.929688 64.289063 2.5 63.855469 C 2.074219 63.421875 1.84375 62.832031 1.867188 62.222656 L 1.867188 50.554688 C 1.84375 50.242188 1.953125 49.9375 2.167969 49.707031 C 2.382813 49.480469 2.679688 49.347656 2.996094 49.351563 Z M 2.996094 49.351563 "/>
</g>
<mask id="mask3">
  <g filter="url(#alpha)">
<rect x="0" y="0" width="70" height="70" style="fill:rgb(0,0,0);fill-opacity:0.501961;stroke:none;"/>
  </g>
</mask>
<clipPath id="clip4">
  <rect x="0" y="0" width="70" height="70"/>
</clipPath>
<g id="surface14" clip-path="url(#clip4)">
<path style=" stroke:none;fill-rule:nonzero;fill:rgb(71,176,255);fill-opacity:1;" d="M 61.988281 49.351563 L 67.003906 49.351563 C 67.628906 49.351563 68.132813 49.855469 68.132813 50.476563 L 68.132813 62.144531 C 68.132813 63.367188 67.140625 64.359375 65.917969 64.359375 L 60.859375 64.359375 L 60.859375 50.554688 C 60.839844 50.242188 60.949219 49.9375 61.164063 49.707031 C 61.375 49.480469 61.675781 49.347656 61.988281 49.351563 Z M 61.988281 49.351563 "/>
</g>
<linearGradient id="linear0" gradientUnits="userSpaceOnUse" x1="7.94" y1="7.7" x2="7.94" y2="3.75" gradientTransform="matrix(3.888889,0,0,3.888889,0,0)">
<stop offset="0" style="stop-color:rgb(0,138,240);stop-opacity:1;"/>
<stop offset="1" style="stop-color:rgb(47,166,255);stop-opacity:1;"/>
</linearGradient>
<linearGradient id="linear1" gradientUnits="userSpaceOnUse" x1="7.94" y1="14.26" x2="7.94" y2="10.31" gradientTransform="matrix(3.888889,0,0,3.888889,0,0)">
<stop offset="0" style="stop-color:rgb(0,138,240);stop-opacity:1;"/>
<stop offset="1" style="stop-color:rgb(47,166,255);stop-opacity:1;"/>
</linearGradient>
</defs>
<g id="surface1">
<path style=" stroke:none;fill-rule:nonzero;fill:rgb(71,176,255);fill-opacity:1;" d="M 4.121094 5.523438 L 9.140625 5.523438 L 9.140625 19.445313 C 9.140625 20.066406 8.632813 20.570313 8.011719 20.570313 L 2.996094 20.570313 C 2.371094 20.570313 1.867188 20.066406 1.867188 19.445313 L 1.867188 7.777344 C 1.855469 7.175781 2.089844 6.597656 2.515625 6.171875 C 2.941406 5.746094 3.519531 5.511719 4.121094 5.523438 Z M 4.121094 5.523438 "/>
<use xlink:href="#surface5" mask="url(#mask0)"/>
<path style=" stroke:none;fill-rule:nonzero;fill:rgb(71,176,255);fill-opacity:1;" d="M 60.859375 5.523438 L 65.878906 5.523438 C 67.101563 5.523438 68.09375 6.515625 68.09375 7.738281 L 68.09375 19.445313 C 68.09375 20.066406 67.589844 20.570313 66.964844 20.570313 L 61.988281 20.570313 C 61.367188 20.570313 60.859375 20.066406 60.859375 19.445313 Z M 60.859375 5.523438 "/>
<use xlink:href="#surface8" mask="url(#mask1)"/>
<path style=" stroke:none;fill-rule:nonzero;fill:rgb(41,164,255);fill-opacity:1;" d="M 68.09375 7.699219 L 68.09375 12.5625 L 1.984375 12.5625 L 1.984375 7.699219 C 1.984375 6.476563 2.976563 5.484375 4.199219 5.484375 L 65.878906 5.484375 C 67.101563 5.484375 68.09375 6.476563 68.09375 7.699219 Z M 68.09375 7.699219 "/>
<path style=" stroke:none;fill-rule:nonzero;fill:rgb(71,176,255);fill-opacity:1;" d="M 2.996094 49.351563 L 8.011719 49.351563 C 8.632813 49.351563 9.140625 49.855469 9.140625 50.476563 L 9.140625 64.515625 L 4.121094 64.515625 C 3.515625 64.527344 2.929688 64.289063 2.5 63.855469 C 2.074219 63.421875 1.84375 62.832031 1.867188 62.222656 L 1.867188 50.554688 C 1.84375 50.242188 1.953125 49.9375 2.167969 49.707031 C 2.382813 49.480469 2.679688 49.347656 2.996094 49.351563 Z M 2.996094 49.351563 "/>
<use xlink:href="#surface11" mask="url(#mask2)"/>
<path style=" stroke:none;fill-rule:nonzero;fill:rgb(71,176,255);fill-opacity:1;" d="M 61.988281 49.351563 L 67.003906 49.351563 C 67.628906 49.351563 68.132813 49.855469 68.132813 50.476563 L 68.132813 62.144531 C 68.132813 63.367188 67.140625 64.359375 65.917969 64.359375 L 60.859375 64.359375 L 60.859375 50.554688 C 60.839844 50.242188 60.949219 49.9375 61.164063 49.707031 C 61.375 49.480469 61.675781 49.347656 61.988281 49.351563 Z M 61.988281 49.351563 "/>
<use xlink:href="#surface14" mask="url(#mask3)"/>
<path style=" stroke:none;fill-rule:nonzero;fill:rgb(41,164,255);fill-opacity:1;" d="M 1.867188 62.300781 L 1.867188 57.4375 L 67.976563 57.4375 L 67.976563 62.300781 C 67.976563 63.523438 66.984375 64.515625 65.761719 64.515625 L 4.082031 64.515625 C 2.859375 64.515625 1.867188 63.523438 1.867188 62.300781 Z M 1.867188 62.300781 "/>
<path style=" stroke:none;fill-rule:nonzero;fill:rgb(41,164,255);fill-opacity:1;" d="M 57.984375 34.378906 L 50.90625 27.222656 C 50.808594 27.09375 50.636719 27.050781 50.488281 27.117188 C 50.339844 27.179688 50.257813 27.335938 50.285156 27.496094 L 50.285156 31.890625 C 50.296875 31.996094 50.257813 32.101563 50.183594 32.175781 C 50.105469 32.253906 50 32.289063 49.894531 32.277344 L 29.515625 32.277344 C 28.746094 31.273438 27.554688 30.6875 26.289063 30.683594 C 24.671875 30.527344 23.105469 31.304688 22.246094 32.6875 C 21.390625 34.066406 21.390625 35.816406 22.246094 37.195313 C 23.105469 38.578125 24.671875 39.355469 26.289063 39.199219 C 27.570313 39.183594 28.773438 38.582031 29.554688 37.566406 L 49.894531 37.566406 C 49.992188 37.554688 50.09375 37.585938 50.167969 37.65625 C 50.242188 37.722656 50.285156 37.816406 50.285156 37.917969 L 50.285156 42.234375 C 50.277344 42.382813 50.367188 42.523438 50.511719 42.574219 C 50.652344 42.628906 50.8125 42.585938 50.90625 42.464844 L 57.984375 35.429688 C 58.253906 35.128906 58.253906 34.675781 57.984375 34.378906 Z M 57.984375 34.378906 "/>
<path style=" stroke:none;fill-rule:nonzero;fill:url(#linear0);" d="M 44.917969 21.738281 L 37.839844 14.699219 C 37.742188 14.574219 37.570313 14.527344 37.421875 14.59375 C 37.273438 14.65625 37.191406 14.8125 37.214844 14.972656 L 37.214844 19.445313 C 37.226563 19.542969 37.195313 19.644531 37.128906 19.71875 C 37.0625 19.792969 36.964844 19.832031 36.867188 19.832031 L 24.109375 19.832031 C 23.324219 18.828125 22.121094 18.242188 20.84375 18.238281 C 18.828125 18.199219 17.058594 19.570313 16.59375 21.53125 C 16.132813 23.496094 17.101563 25.515625 18.921875 26.378906 C 20.742188 27.246094 22.921875 26.722656 24.148438 25.121094 L 36.867188 25.121094 C 37.058594 25.121094 37.214844 25.277344 37.214844 25.472656 L 37.214844 29.59375 C 37.210938 29.746094 37.300781 29.882813 37.445313 29.9375 C 37.585938 29.988281 37.746094 29.945313 37.839844 29.828125 L 44.917969 22.789063 C 45.1875 22.492188 45.1875 22.035156 44.917969 21.738281 Z M 44.917969 21.738281 "/>
<path style=" stroke:none;fill-rule:nonzero;fill:url(#linear1);" d="M 44.917969 47.25 L 37.839844 40.210938 C 37.742188 40.082031 37.570313 40.039063 37.421875 40.105469 C 37.273438 40.167969 37.191406 40.324219 37.214844 40.484375 L 37.214844 44.761719 C 37.21875 44.960938 37.066406 45.128906 36.867188 45.148438 L 24.109375 45.148438 C 23.324219 44.144531 22.121094 43.558594 20.84375 43.554688 C 18.859375 43.558594 17.136719 44.925781 16.683594 46.863281 C 16.234375 48.796875 17.171875 50.785156 18.953125 51.667969 C 20.734375 52.546875 22.886719 52.085938 24.148438 50.554688 L 36.867188 50.554688 C 37.058594 50.554688 37.214844 50.710938 37.214844 50.90625 L 37.214844 55.222656 C 37.210938 55.371094 37.300781 55.511719 37.445313 55.5625 C 37.585938 55.617188 37.746094 55.574219 37.839844 55.457031 L 44.917969 48.417969 C 45.085938 48.269531 45.179688 48.054688 45.179688 47.832031 C 45.179688 47.609375 45.085938 47.398438 44.917969 47.25 Z M 44.917969 47.25 "/>
</g>
</svg>
