<?xml version="1.0" encoding="utf-8"?><svg version="1.1" xmlns="http://www.w3.org/2000/svg" xmlns:xlink="http://www.w3.org/1999/xlink" xmlns:xml="http://www.w3.org/XML/1998/namespace" width="70" height="70" viewBox="0, 0, 50, 50" id="FxSymbol0-059" class="" role="presentation" focusable="false" data-type="1"><g><title /><path d="M0.833 0 C0.333 0 0 0.333 0 0.833 v10 c0 0.5 0.333 0.833 0.833 0.833 h5 c0.5 0 0.833 -0.333 0.833 -0.833 V6.667 h36.667 v4.167 c0 0.5 0.333 0.833 1 0.833 h4.833 c0.5 0 0.833 -0.333 0.833 -0.833 v-10 C50 0.333 49.667 0 49.167 0 H0.833 z m48.334 50 c0.5 0 0.833 -0.333 0.833 -0.833 v-9.833 c0 -0.5 -0.333 -0.833 -0.833 -0.833 h-4.833 c-0.5 0 -0.833 0.333 -0.833 0.833 v4 H6.667 v-4.167 c0 -0.5 -0.333 -0.833 -1 -0.833 H0.833 c-0.5 0 -0.833 0.333 -0.833 1 v9.833 c0 0.5 0.333 0.833 0.833 0.833 h48.334 z" class="msportalfx-svg-c19" style="fill:#0066B2;" /><path d="M18.45 22.78 l2.157 -2.158 l1.597 1.597 l-2.157 2.158 z m3.129 -3.13 l2.16 -2.16 l1.6 1.6 l-2.16 2.16 z m4.731 -1.54 l-1.6 -1.59 l2.14 -2.14 l1.6 1.59 z m-1.6 14.702 l1.6 -1.6 l2.14 2.141 l-1.601 1.6 z m-0.97 -0.982 l-2.16 -2.16 l1.6 -1.59 l2.16 2.16 z m-3.13 -3.13 l-2.16 -2.16 l1.6 -1.59 l2.15 2.15 z" class="msportalfx-svg-c13" style="fill:#73C3FF;" /><path d="M36.131 15.247 a2.776 2.776 0 0 1 -1.974 0.818 a2.77 2.77 0 0 1 -1.974 -0.818 L28.4 11.464 v7.691 h11.515 v-7.691 l-3.784 3.783 z" class="msportalfx-svg-c15" style="fill:#39ABFF;" /><path d="M34.156 15.503 c0.596 0 1.156 -0.232 1.577 -0.653 l4.181 -4.181 v-0.222 H28.399 v0.222 l4.181 4.181 c0.42 0.421 0.981 0.653 1.576 0.653 z m1.975 19.468 a2.776 2.776 0 0 1 -1.974 0.818 a2.77 2.77 0 0 1 -1.974 -0.818 L28.4 31.188 v7.691 h11.515 v-7.691 l-3.784 3.783 z" class="msportalfx-svg-c15" style="fill:#39ABFF;" /><path d="M34.156 35.227 c0.596 0 1.156 -0.232 1.577 -0.653 l4.181 -4.181 v-0.222 H28.399 v0.222 l4.181 4.181 c0.42 0.421 0.981 0.653 1.576 0.653 z m-21.832 -9.853 c-0.84 0.84 -1.958 1.303 -3.147 1.303 s-2.306 -0.463 -3.147 -1.303 L0 19.343 v12.258 h18.354 V19.343 l-6.03 6.031 z" class="msportalfx-svg-c15" style="fill:#39ABFF;" /><path d="M9.177 25.782 c0.95 0 1.842 -0.37 2.514 -1.041 l6.663 -6.663 v-0.353 H0 v0.354 l6.663 6.663 a3.537 3.537 0 0 0 2.514 1.04 z" class="msportalfx-svg-c15" style="fill:#39ABFF;" /></g><defs /></svg>