<?xml version="1.0" encoding="UTF-8"?>
<svg xmlns="http://www.w3.org/2000/svg" xmlns:xlink="http://www.w3.org/1999/xlink" width="54pt" height="70pt" viewBox="0 0 54 70" version="1.1">
<g id="surface1">
<path style=" stroke:none;fill-rule:nonzero;fill:rgb(0,102,178);fill-opacity:1;" d="M 35.207031 10.429688 C 40.589844 10.429688 45.96875 10.429688 51.351563 10.421875 C 51.652344 10.421875 51.714844 10.480469 51.714844 10.78125 C 51.707031 16.148438 51.707031 21.503906 51.707031 26.867188 C 46.507813 26.867188 41.3125 26.867188 36.105469 26.859375 C 35.832031 26.859375 35.558594 26.992188 35.292969 26.867188 C 35.269531 26.84375 35.242188 26.808594 35.207031 26.78125 Z M 35.207031 10.429688 "/>
<path style=" stroke:none;fill-rule:nonzero;fill:rgb(57,171,255);fill-opacity:1;" d="M 2.46875 26.867188 L 18.863281 26.867188 L 18.898438 26.859375 C 18.890625 27.054688 18.882813 27.238281 18.882813 27.433594 L 18.882813 43.308594 L 18.890625 43.300781 L 2.480469 43.300781 C 2.46875 37.828125 2.46875 32.347656 2.46875 26.867188 Z M 2.46875 26.867188 "/>
<path style=" stroke:none;fill-rule:nonzero;fill:rgb(0,102,178);fill-opacity:1;" d="M 2.46875 43.308594 L 18.882813 43.308594 L 18.882813 59.746094 C 13.527344 59.746094 8.179688 59.746094 2.824219 59.757813 C 2.523438 59.757813 2.460938 59.695313 2.460938 59.394531 C 2.46875 54.027344 2.46875 48.671875 2.46875 43.308594 Z M 2.46875 43.308594 "/>
<path style=" stroke:none;fill-rule:nonzero;fill:rgb(57,171,255);fill-opacity:1;" d="M 18.882813 59.746094 L 18.882813 43.308594 L 18.875 43.316406 L 34.71875 43.316406 C 34.914063 43.316406 35.101563 43.300781 35.292969 43.300781 L 35.285156 43.335938 L 35.285156 59.757813 C 29.824219 59.746094 24.351563 59.746094 18.882813 59.746094 Z M 18.882813 59.746094 "/>
<path style=" stroke:none;fill-rule:nonzero;fill:rgb(3,148,255);fill-opacity:1;" d="M 51.707031 43.308594 L 35.824219 43.308594 C 35.648438 43.308594 35.46875 43.316406 35.292969 43.324219 L 35.304688 43.289063 C 35.304688 37.820313 35.304688 32.347656 35.292969 26.867188 C 35.566406 27 35.839844 26.859375 36.105469 26.859375 C 41.3125 26.867188 46.507813 26.867188 51.707031 26.867188 Z M 18.863281 26.867188 C 18.875 26.417969 18.882813 25.957031 18.882813 25.507813 L 18.882813 10.429688 L 35.207031 10.429688 L 35.207031 26.78125 C 35.109375 26.902344 34.96875 26.867188 34.835938 26.867188 Z M 18.863281 26.867188 "/>
<path style=" stroke:none;fill-rule:nonzero;fill:rgb(0,102,178);fill-opacity:1;" d="M 18.910156 26.859375 L 34.84375 26.859375 C 34.96875 26.859375 35.109375 26.894531 35.214844 26.769531 C 35.242188 26.796875 35.269531 26.832031 35.304688 26.859375 C 35.304688 32.332031 35.304688 37.800781 35.3125 43.28125 C 35.117188 43.289063 34.933594 43.300781 34.738281 43.300781 L 18.890625 43.300781 L 18.890625 27.425781 C 18.882813 27.238281 18.898438 27.054688 18.910156 26.859375 Z M 18.910156 26.859375 "/>
</g>
</svg>
