<?xml version="1.0" encoding="UTF-8"?>
<svg xmlns="http://www.w3.org/2000/svg" xmlns:xlink="http://www.w3.org/1999/xlink" width="70pt" height="70pt" viewBox="0 0 70 70" version="1.1">
<g id="surface1">
<path style=" stroke:none;fill-rule:nonzero;fill:rgb(0,102,178);fill-opacity:1;" d="M 4.433594 18.199219 L 36.167969 18.199219 L 36.167969 23.800781 L 4.433594 23.800781 Z M 11.433594 32.199219 L 47.367188 32.199219 L 47.367188 37.800781 L 11.433594 37.800781 Z M 4.433594 46.199219 L 36.167969 46.199219 L 36.167969 51.800781 L 4.433594 51.800781 Z M 4.433594 46.199219 "/>
<path style=" stroke:none;fill-rule:nonzero;fill:rgb(115,195,255);fill-opacity:1;" d="M 11.058594 49 C 11.058594 52.015625 8.617188 54.460938 5.601563 54.460938 C 2.585938 54.460938 0.140625 52.015625 0.140625 49 C 0.140625 45.984375 2.585938 43.539063 5.601563 43.539063 C 8.617188 43.539063 11.058594 45.984375 11.058594 49 Z M 11.058594 49 "/>
<path style=" stroke:none;fill-rule:nonzero;fill:rgb(115,195,255);fill-opacity:1;" d="M 9.460938 17.140625 C 7.328125 15.007813 3.871094 15.007813 1.738281 17.140625 C -0.394531 19.273438 -0.394531 22.730469 1.738281 24.859375 C 3.871094 26.992188 7.328125 26.992188 9.460938 24.859375 C 11.59375 22.726563 11.59375 19.269531 9.460938 17.140625 Z M 9.460938 17.140625 "/>
<path style=" stroke:none;fill-rule:nonzero;fill:rgb(57,171,255);fill-opacity:1;" d="M 16.460938 31.140625 C 14.328125 29.007813 10.871094 29.007813 8.738281 31.140625 C 6.605469 33.273438 6.605469 36.730469 8.738281 38.859375 C 10.871094 40.992188 14.328125 40.992188 16.460938 38.859375 C 18.59375 36.726563 18.59375 33.269531 16.460938 31.140625 Z M 16.460938 31.140625 "/>
<path style=" stroke:none;fill-rule:nonzero;fill:rgb(0,102,178);fill-opacity:1;" d="M 33.601563 28 L 33.601563 14 L 44.800781 21 Z M 33.601563 56 L 33.601563 42 L 44.800781 49 Z M 44.800781 42 L 44.800781 28 L 56 35 Z M 68.878906 54.039063 L 62.160156 54.039063 C 61.460938 54.039063 61.039063 54.460938 61.039063 55.160156 L 61.039063 60.761719 L 9.800781 60.761719 L 9.800781 70 L 68.878906 70 C 69.578125 70 70 69.578125 70 68.878906 L 70 55.160156 C 70 54.460938 69.578125 54.039063 68.878906 54.039063 Z M 68.992188 0 L 9.800781 0 L 9.800781 9.378906 L 60.734375 9.378906 L 60.734375 15.261719 C 60.734375 15.960938 61.152344 16.378906 62.132813 16.378906 L 68.851563 16.378906 C 69.554688 16.378906 69.972656 15.960938 69.972656 15.261719 L 69.972656 1.261719 C 70.113281 0.421875 69.695313 0 68.992188 0 Z M 68.992188 0 "/>
</g>
</svg>
