<?xml version="1.0" encoding="UTF-8"?>
<svg xmlns="http://www.w3.org/2000/svg" xmlns:xlink="http://www.w3.org/1999/xlink" width="70pt" height="70pt" viewBox="0 0 70 70" version="1.1">
<g id="surface1">
<path style=" stroke:none;fill-rule:evenodd;fill:rgb(34.901961%,70.588235%,85.098039%);fill-opacity:1;" d="M 36.75 31.675781 L 36.75 25.023438 L 32.898438 25.023438 L 32.898438 31.675781 C 32.898438 37.011719 20.5625 31.675781 20.5625 40.335938 L 20.5625 47.25 L 23.449219 47.25 L 23.449219 40.335938 C 23.449219 35.699219 34.824219 38.542969 34.824219 34.257813 C 34.824219 38.574219 46.199219 35.699219 46.199219 40.335938 L 46.199219 47.25 L 49.085938 47.25 L 49.085938 40.335938 C 49.085938 31.675781 36.75 37.011719 36.75 31.675781 Z M 36.75 31.675781 "/>
<path style=" stroke:none;fill-rule:evenodd;fill:rgb(0%,44.705882%,77.647059%);fill-opacity:1;" d="M 38.132813 15.75 L 31.429688 15.75 C 30.035156 15.75 29.050781 16.796875 29.050781 18.199219 L 29.050781 24.9375 C 29.050781 26.339844 30.035156 27.300781 31.429688 27.300781 L 38.132813 27.300781 C 39.527344 27.300781 40.601563 26.339844 40.601563 24.9375 L 40.601563 18.199219 C 40.601563 16.796875 39.417969 15.75 38.132813 15.75 Z M 32.488281 23.886719 L 37.074219 23.886719 L 37.074219 19.25 L 32.488281 19.25 Z M 32.488281 23.886719 "/>
<path style=" stroke:none;fill-rule:evenodd;fill:rgb(34.901961%,70.588235%,85.098039%);fill-opacity:1;" d="M 14.085938 59.761719 C 9.449219 59.761719 6.914063 57.707031 6.914063 53.289063 L 6.914063 40.335938 C 6.914063 38.179688 6.078125 37.363281 4.375 37.363281 L 4.375 34.125 C 6.078125 34.125 6.914063 33.328125 6.914063 31.0625 L 6.914063 18.199219 C 6.914063 13.476563 9.570313 11.636719 14.085938 11.636719 L 14.085938 14.875 C 12.277344 14.875 11.289063 16.042969 11.289063 18.199219 L 11.289063 31.0625 C 11.289063 33.867188 10.386719 34.945313 8.574219 35.699219 C 10.277344 36.453125 11.289063 37.535156 11.289063 40.335938 L 11.289063 53.289063 C 11.289063 55.132813 12.117188 56.523438 14.085938 56.523438 Z M 14.085938 59.761719 "/>
<path style=" stroke:none;fill-rule:evenodd;fill:rgb(34.901961%,70.588235%,85.098039%);fill-opacity:1;" d="M 55.5625 11.636719 C 59.9375 11.636719 62.738281 13.792969 62.738281 18.199219 L 62.738281 31.0625 C 62.738281 33.21875 63.570313 34.125 65.273438 34.125 L 65.273438 37.363281 C 63.570313 37.363281 62.730469 38.074219 62.730469 40.335938 L 62.730469 53.289063 C 62.730469 57.972656 60.078125 59.761719 55.5625 59.761719 L 55.5625 56.523438 C 57.375 56.523438 58.363281 55.445313 58.363281 53.289063 L 58.363281 40.335938 C 58.363281 37.535156 59.175781 36.453125 60.988281 35.699219 C 59.285156 34.835938 58.363281 33.867188 58.363281 31.0625 L 58.363281 18.199219 C 58.363281 16.351563 57.53125 14.875 55.5625 14.875 Z M 55.5625 11.636719 "/>
<path style=" stroke:none;fill-rule:nonzero;fill:rgb(49.803922%,72.941176%,0%);fill-opacity:1;" d="M 19.25 42.261719 L 24.675781 42.261719 C 26.125 42.261719 27.300781 43.4375 27.300781 44.886719 L 27.300781 50.3125 C 27.300781 51.761719 26.125 52.9375 24.675781 52.9375 L 19.25 52.9375 C 17.800781 52.9375 16.625 51.761719 16.625 50.3125 L 16.625 44.886719 C 16.625 43.4375 17.800781 42.261719 19.25 42.261719 Z M 19.25 42.261719 "/>
<path style=" stroke:none;fill-rule:nonzero;fill:rgb(49.803922%,72.941176%,0%);fill-opacity:1;" d="M 44.800781 42.261719 L 50.226563 42.261719 C 51.675781 42.261719 52.851563 43.4375 52.851563 44.886719 L 52.851563 50.3125 C 52.851563 51.761719 51.675781 52.9375 50.226563 52.9375 L 44.800781 52.9375 C 43.351563 52.9375 42.175781 51.761719 42.175781 50.3125 L 42.175781 44.886719 C 42.175781 43.4375 43.351563 42.261719 44.800781 42.261719 Z M 44.800781 42.261719 "/>
</g>
</svg>
