<?xml version="1.0" encoding="UTF-8"?>
<svg xmlns="http://www.w3.org/2000/svg" xmlns:xlink="http://www.w3.org/1999/xlink" width="70pt" height="53pt" viewBox="0 0 70 53" version="1.1">
<g id="surface1">
<path style=" stroke:none;fill-rule:nonzero;fill:rgb(0%,47.058824%,84.313725%);fill-opacity:1;" d="M 58.15625 0 L 58.300781 3.5625 C 59.40625 3.5625 60.089844 3.839844 60.640625 4.386719 C 61.066406 4.933594 61.34375 5.902344 61.34375 7.128906 L 61.34375 20.707031 C 61.34375 23.851563 62.449219 25.769531 64.382813 26.589844 C 62.300781 27.414063 61.34375 29.332031 61.34375 32.496094 L 61.34375 46.203125 C 61.34375 48.523438 60.238281 49.617188 58.15625 49.617188 L 58.15625 53.183594 C 61.066406 53.183594 63.148438 52.632813 64.382813 51.539063 C 65.617188 50.441406 66.167969 48.523438 66.167969 45.925781 L 66.167969 32.074219 C 66.167969 29.605469 67.144531 28.382813 69.078125 28.382813 L 69.078125 24.820313 C 67.144531 24.820313 66.167969 23.574219 66.167969 21.253906 L 66.167969 7 C 66.167969 4.386719 65.617188 2.613281 64.382813 1.515625 C 63.148438 0.546875 61.066406 0 58.15625 0 Z M 42 43.1875 C 42 44.683594 43.253906 45.925781 44.761719 45.925781 L 51.117188 45.925781 C 52.648438 45.925781 53.882813 44.683594 53.882813 43.1875 L 53.882813 36.878906 C 53.882813 35.363281 52.648438 34.140625 51.117188 34.140625 L 49.609375 34.140625 L 49.609375 31.800781 C 49.609375 29.058594 47.398438 26.589844 44.210938 25.640625 L 38.40625 24.398438 C 37.15625 24.015625 36.253906 23.375 35.808594 22.605469 C 35.882813 22.242188 35.921875 21.894531 35.921875 21.527344 L 35.921875 17.269531 L 37.726563 17.269531 C 39.238281 17.269531 40.488281 16.046875 40.488281 14.53125 L 40.488281 7.273438 C 40.488281 5.757813 39.238281 4.53125 37.726563 4.53125 L 30.394531 4.53125 C 28.882813 4.53125 27.632813 5.757813 27.632813 7.273438 L 27.632813 14.53125 C 27.632813 16.046875 28.882813 17.269531 30.394531 17.269531 L 32.050781 17.269531 L 32.050781 21.527344 C 32.050781 21.894531 32.089844 22.242188 32.164063 22.605469 C 31.722656 23.375 30.820313 24.015625 29.566406 24.398438 L 24.867188 25.367188 C 21.699219 26.316406 19.488281 28.785156 19.488281 31.527344 L 19.488281 33.863281 L 17.960938 33.863281 C 16.449219 33.863281 15.199219 35.089844 15.199219 36.605469 L 15.199219 42.910156 C 15.199219 44.410156 16.449219 45.652344 17.960938 45.652344 L 24.316406 45.652344 C 25.84375 45.652344 27.078125 44.410156 27.078125 42.910156 L 27.078125 36.605469 C 27.078125 35.089844 25.84375 33.863281 24.316406 33.863281 L 22.933594 33.863281 L 22.933594 31.527344 C 22.933594 30.300781 24.039063 29.203125 25.84375 28.65625 L 30.542969 27.558594 C 31.886719 27.195313 33.066406 26.554688 33.96875 25.714844 C 34.890625 26.574219 36.070313 27.269531 37.429688 27.6875 L 43.253906 28.929688 C 45.039063 29.480469 46.144531 30.574219 46.144531 31.800781 L 46.144531 34.140625 L 44.761719 34.140625 C 43.253906 34.140625 42 35.363281 42 36.878906 Z M 36.621094 8.371094 L 36.621094 13.433594 L 31.5 13.433594 L 31.5 8.371094 Z M 10.90625 53.183594 L 10.777344 49.617188 C 9.671875 49.617188 8.972656 49.34375 8.417969 48.796875 C 8.011719 48.25 7.738281 47.296875 7.738281 46.054688 L 7.738281 32.496094 C 7.738281 29.332031 6.632813 27.414063 4.699219 26.589844 C 6.761719 25.769531 7.738281 23.851563 7.738281 20.707031 L 7.738281 7 C 7.738281 4.660156 8.84375 3.5625 10.90625 3.5625 L 10.90625 0 C 8.011719 0 5.929688 0.421875 4.699219 1.515625 C 3.464844 2.613281 2.910156 4.53125 2.910156 7.128906 L 2.910156 21.109375 C 2.910156 23.574219 1.933594 24.820313 0 24.820313 L 0 28.382813 C 1.933594 28.382813 2.910156 29.605469 2.910156 31.945313 L 2.910156 46.203125 C 2.910156 48.796875 3.464844 50.585938 4.699219 51.683594 C 5.929688 52.632813 8.011719 53.183594 10.90625 53.183594 Z M 10.90625 53.183594 "/>
</g>
</svg>
