<?xml version="1.0" encoding="utf-8"?><svg version="1.1" xmlns="http://www.w3.org/2000/svg" xmlns:xlink="http://www.w3.org/1999/xlink" xmlns:xml="http://www.w3.org/XML/1998/namespace" width="70" height="70" viewBox="0, 0, 18, 18"><defs><linearGradient x1="9" y1="14.071" x2="9" y2="1.313" gradientUnits="userSpaceOnUse" id="bfaf9eca-0566-4d05-9aa2-c2ccb9db061f"><stop offset="0%" stop-color="#0078D4" /><stop offset="15.6%" stop-color="#1380DA" /><stop offset="52.8%" stop-color="#3C91E5" /><stop offset="82.2%" stop-color="#559CEC" /><stop offset="100%" stop-color="#5EA0EF" /></linearGradient></defs><title>MsPortalFx.base.images-58</title><g id="b59a3860-e924-4d5f-b847-0f0976124add"><g><path d="M18 10.075 a4.044 4.044 0 0 0 -3.51 -3.887 A5.1 5.1 0 0 0 9.24 1.313 a5.229 5.229 0 0 0 -5 3.408 A4.825 4.825 0 0 0 0 9.364 a4.9 4.9 0 0 0 5.068 4.707 c0.151 0 0.3 -0.007 0.447 -0.019 h8.207 a0.819 0.819 0 0 0 0.217 -0.033 A4.093 4.093 0 0 0 18 10.075 Z" style="fill:url(#bfaf9eca-0566-4d05-9aa2-c2ccb9db061f);" /><path d="M12.067 11.806 H5.707 a0.276 0.276 0 0 0 -0.282 0.27 v1.732 a0.276 0.276 0 0 0 0.281 0.27 h6.361 a0.276 0.276 0 0 0 0.281 -0.27 V12.076 A0.277 0.277 0 0 0 12.067 11.806 Z" style="fill:#32BEDD;" /><path d="M12.067 14.415 H5.707 a0.276 0.276 0 0 0 -0.282 0.27 v1.731 a0.276 0.276 0 0 0 0.281 0.271 h6.361 a0.276 0.276 0 0 0 0.281 -0.271 V14.685 A0.277 0.277 0 0 0 12.067 14.415 Z" style="fill:#198AB3;" /><path d="M11.27 12.231 h0.373 a0.072 0.072 0 0 1 0.072 0.072 v0.356 a0.069 0.069 0 0 1 -0.069 0.069 h-0.379 a0.069 0.069 0 0 1 -0.069 -0.069 V12.3 A0.072 0.072 0 0 1 11.27 12.231 Z" style="fill:#B4EC36;" /><path d="M11.268 13.087 h0.376 a0.072 0.072 0 0 1 0.072 0.072 v0.353 a0.072 0.072 0 0 1 -0.072 0.072 H11.27 a0.072 0.072 0 0 1 -0.072 -0.072 v-0.356 A0.069 0.069 0 0 1 11.268 13.087 Z" style="fill:#B4EC36;" /><path d="M11.289 14.827 h0.376 a0.072 0.072 0 0 1 0.072 0.072 v0.356 a0.069 0.069 0 0 1 -0.069 0.069 h-0.376 a0.072 0.072 0 0 1 -0.072 -0.072 V14.9 A0.069 0.069 0 0 1 11.289 14.827 Z" style="fill:#B4EC36;" /><path d="M11.289 15.683 h0.376 a0.072 0.072 0 0 1 0.072 0.072 v0.356 a0.069 0.069 0 0 1 -0.069 0.069 h-0.379 a0.069 0.069 0 0 1 -0.069 -0.069 v-0.359 a0.069 0.069 0 0 1 0.069 -0.069 Z" style="fill:#B4EC36;" /><path d="M12.007 8.993 H5.647 a0.276 0.276 0 0 0 -0.282 0.271 V11 a0.277 0.277 0 0 0 0.281 0.271 h6.361 A0.277 0.277 0 0 0 12.288 11 V9.264 A0.277 0.277 0 0 0 12.007 8.993 Z" style="fill:#50E6FF;" /><path d="M11.208 9.419 h0.376 a0.072 0.072 0 0 1 0.072 0.072 v0.356 a0.069 0.069 0 0 1 -0.069 0.069 H11.21 a0.072 0.072 0 0 1 -0.072 -0.072 V9.488 A0.069 0.069 0 0 1 11.208 9.419 Z" style="fill:white;" /><path d="M11.208 10.275 h0.376 a0.072 0.072 0 0 1 0.072 0.072 V10.7 a0.069 0.069 0 0 1 -0.069 0.069 h-0.379 a0.069 0.069 0 0 1 -0.069 -0.069 v-0.359 A0.069 0.069 0 0 1 11.208 10.275 Z" style="fill:white;" /><path d="M11.635 7.4 l-2.43 2.43 a0.29 0.29 0 0 1 -0.41 0 L6.365 7.4 a0.13 0.13 0 0 1 0.092 -0.221 H7.951 a0.129 0.129 0 0 0 0.129 -0.129 V4.014 a0.1 0.1 0 0 1 0.1 -0.1 H9.816 a0.1 0.1 0 0 1 0.1 0.1 V7.051 a0.129 0.129 0 0 0 0.129 0.129 h1.494 A0.13 0.13 0 0 1 11.635 7.4 Z" style="fill:white;" /></g></g></svg>