<?xml version="1.0" encoding="UTF-8"?>
<svg xmlns="http://www.w3.org/2000/svg" xmlns:xlink="http://www.w3.org/1999/xlink" width="70pt" height="70pt" viewBox="0 0 70 70" version="1.1">
<defs>
<filter id="alpha" filterUnits="objectBoundingBox" x="0%" y="0%" width="100%" height="100%">
  <feColorMatrix type="matrix" in="SourceGraphic" values="0 0 0 0 1 0 0 0 0 1 0 0 0 0 1 0 0 0 1 0"/>
</filter>
<mask id="mask0">
  <g filter="url(#alpha)">
<rect x="0" y="0" width="70" height="70" style="fill:rgb(0%,0%,0%);fill-opacity:0.501961;stroke:none;"/>
  </g>
</mask>
<clipPath id="clip1">
  <rect x="0" y="0" width="70" height="70"/>
</clipPath>
<g id="surface5" clip-path="url(#clip1)">
<path style=" stroke:none;fill-rule:nonzero;fill:rgb(63.921569%,63.921569%,63.921569%);fill-opacity:1;" d="M 2.382813 3.863281 L 7.683594 3.863281 L 7.683594 18.570313 C 7.683594 19.226563 7.152344 19.757813 6.496094 19.757813 L 1.195313 19.757813 C 0.878906 19.761719 0.574219 19.636719 0.351563 19.414063 C 0.125 19.1875 0 18.886719 0 18.570313 L 0 6.246094 C -0.0117188 5.625 0.222656 5.023438 0.65625 4.574219 C 1.085938 4.125 1.679688 3.871094 2.300781 3.863281 Z M 2.382813 3.863281 "/>
</g>
<mask id="mask1">
  <g filter="url(#alpha)">
<rect x="0" y="0" width="70" height="70" style="fill:rgb(0%,0%,0%);fill-opacity:0.501961;stroke:none;"/>
  </g>
</mask>
<clipPath id="clip2">
  <rect x="0" y="0" width="70" height="70"/>
</clipPath>
<g id="surface8" clip-path="url(#clip2)">
<path style=" stroke:none;fill-rule:nonzero;fill:rgb(63.921569%,63.921569%,63.921569%);fill-opacity:1;" d="M 62.320313 3.863281 L 67.617188 3.863281 C 68.90625 3.863281 69.949219 4.90625 69.949219 6.195313 L 69.949219 18.5625 C 69.949219 19.21875 69.417969 19.75 68.757813 19.75 L 63.507813 19.75 C 62.851563 19.75 62.320313 19.21875 62.320313 18.5625 Z M 62.320313 3.863281 "/>
</g>
<mask id="mask2">
  <g filter="url(#alpha)">
<rect x="0" y="0" width="70" height="70" style="fill:rgb(0%,0%,0%);fill-opacity:0.501961;stroke:none;"/>
  </g>
</mask>
<clipPath id="clip3">
  <rect x="0" y="0" width="70" height="70"/>
</clipPath>
<g id="surface11" clip-path="url(#clip3)">
<path style=" stroke:none;fill-rule:nonzero;fill:rgb(63.921569%,63.921569%,63.921569%);fill-opacity:1;" d="M 1.195313 50.167969 L 6.496094 50.167969 C 7.152344 50.167969 7.683594 50.699219 7.683594 51.355469 L 7.683594 66.183594 L 2.382813 66.183594 C 1.761719 66.199219 1.160156 65.960938 0.710938 65.527344 C 0.261719 65.097656 0.0078125 64.5 0 63.878906 C 0 63.835938 0 63.796875 0 63.753906 L 0 51.429688 C -0.0429688 50.777344 0.453125 50.210938 1.109375 50.167969 Z M 1.195313 50.167969 "/>
</g>
<mask id="mask3">
  <g filter="url(#alpha)">
<rect x="0" y="0" width="70" height="70" style="fill:rgb(0%,0%,0%);fill-opacity:0.501961;stroke:none;"/>
  </g>
</mask>
<clipPath id="clip4">
  <rect x="0" y="0" width="70" height="70"/>
</clipPath>
<g id="surface14" clip-path="url(#clip4)">
<path style=" stroke:none;fill-rule:nonzero;fill:rgb(63.921569%,63.921569%,63.921569%);fill-opacity:1;" d="M 63.507813 50.167969 L 68.808594 50.167969 C 69.457031 50.167969 69.988281 50.683594 70 51.332031 L 70 63.65625 C 70 64.945313 68.957031 65.992188 67.667969 65.992188 L 62.320313 65.992188 L 62.320313 51.40625 C 62.296875 51.09375 62.402344 50.78125 62.609375 50.542969 C 62.816406 50.304688 63.109375 50.15625 63.425781 50.136719 Z M 63.507813 50.167969 "/>
</g>
<linearGradient id="linear0" gradientUnits="userSpaceOnUse" x1="10.275" y1="11.03" x2="10.275" y2="7.773" gradientTransform="matrix(3.888889,0,0,3.888889,0,0)">
<stop offset="0" style="stop-color:rgb(0%,47.058824%,83.137255%);stop-opacity:1;"/>
<stop offset="1" style="stop-color:rgb(36.862745%,62.745098%,93.72549%);stop-opacity:1;"/>
</linearGradient>
</defs>
<g id="surface1">
<path style=" stroke:none;fill-rule:nonzero;fill:rgb(63.921569%,63.921569%,63.921569%);fill-opacity:1;" d="M 2.382813 3.863281 L 7.683594 3.863281 L 7.683594 18.570313 C 7.683594 19.226563 7.152344 19.757813 6.496094 19.757813 L 1.195313 19.757813 C 0.878906 19.761719 0.574219 19.636719 0.351563 19.414063 C 0.125 19.1875 0 18.886719 0 18.570313 L 0 6.246094 C -0.0117188 5.625 0.222656 5.023438 0.65625 4.574219 C 1.085938 4.125 1.679688 3.871094 2.300781 3.863281 Z M 2.382813 3.863281 "/>
<use xlink:href="#surface5" mask="url(#mask0)"/>
<path style=" stroke:none;fill-rule:nonzero;fill:rgb(63.921569%,63.921569%,63.921569%);fill-opacity:1;" d="M 62.320313 3.863281 L 67.617188 3.863281 C 68.90625 3.863281 69.949219 4.90625 69.949219 6.195313 L 69.949219 18.5625 C 69.949219 19.21875 69.417969 19.75 68.757813 19.75 L 63.507813 19.75 C 62.851563 19.75 62.320313 19.21875 62.320313 18.5625 Z M 62.320313 3.863281 "/>
<use xlink:href="#surface8" mask="url(#mask1)"/>
<path style=" stroke:none;fill-rule:nonzero;fill:rgb(58.039216%,58.039216%,58.039216%);fill-opacity:1;" d="M 69.957031 6.164063 L 69.957031 11.296875 L 0.125 11.296875 L 0.125 6.164063 C 0.125 4.875 1.167969 3.832031 2.457031 3.832031 L 67.617188 3.832031 C 68.234375 3.828125 68.832031 4.074219 69.269531 4.511719 C 69.710938 4.949219 69.957031 5.542969 69.957031 6.164063 Z M 69.957031 6.164063 "/>
<path style=" stroke:none;fill-rule:nonzero;fill:rgb(63.921569%,63.921569%,63.921569%);fill-opacity:1;" d="M 1.195313 50.167969 L 6.496094 50.167969 C 7.152344 50.167969 7.683594 50.699219 7.683594 51.355469 L 7.683594 66.183594 L 2.382813 66.183594 C 1.761719 66.199219 1.160156 65.960938 0.710938 65.527344 C 0.261719 65.097656 0.0078125 64.5 0 63.878906 C 0 63.835938 0 63.796875 0 63.753906 L 0 51.429688 C -0.0429688 50.777344 0.453125 50.210938 1.109375 50.167969 Z M 1.195313 50.167969 "/>
<use xlink:href="#surface11" mask="url(#mask2)"/>
<path style=" stroke:none;fill-rule:nonzero;fill:rgb(63.921569%,63.921569%,63.921569%);fill-opacity:1;" d="M 63.507813 50.167969 L 68.808594 50.167969 C 69.457031 50.167969 69.988281 50.683594 70 51.332031 L 70 63.65625 C 70 64.945313 68.957031 65.992188 67.667969 65.992188 L 62.320313 65.992188 L 62.320313 51.40625 C 62.296875 51.09375 62.402344 50.78125 62.609375 50.542969 C 62.816406 50.304688 63.109375 50.15625 63.425781 50.136719 Z M 63.507813 50.167969 "/>
<use xlink:href="#surface14" mask="url(#mask3)"/>
<path style=" stroke:none;fill-rule:nonzero;fill:rgb(58.039216%,58.039216%,58.039216%);fill-opacity:1;" d="M 0 63.835938 L 0 58.722656 L 69.835938 58.722656 L 69.835938 63.855469 C 69.835938 65.144531 68.792969 66.1875 67.503906 66.1875 L 2.332031 66.1875 C 1.710938 66.1875 1.113281 65.941406 0.675781 65.5 C 0.238281 65.058594 -0.00390625 64.457031 0 63.835938 Z M 0 63.835938 "/>
<path style=" stroke:none;fill-rule:nonzero;fill:url(#linear0);" d="M 50.242188 43.914063 C 50.363281 43.914063 50.480469 43.855469 50.558594 43.757813 L 58.882813 35.480469 C 59.203125 35.132813 59.203125 34.59375 58.882813 34.246094 L 50.558594 25.832031 C 50.496094 25.742188 50.398438 25.679688 50.289063 25.664063 C 50.179688 25.652344 50.066406 25.683594 49.984375 25.757813 C 49.863281 25.847656 49.804688 25.996094 49.828125 26.144531 L 49.828125 31.320313 C 49.851563 31.546875 49.691406 31.75 49.464844 31.777344 L 30.085938 31.777344 C 29.175781 30.597656 27.777344 29.90625 26.289063 29.902344 C 26.125 29.902344 25.964844 29.878906 25.808594 29.878906 C 23.125 29.882813 20.917969 31.992188 20.789063 34.671875 C 20.664063 37.351563 22.660156 39.660156 25.332031 39.917969 C 25.492188 39.917969 25.652344 39.917969 25.8125 39.917969 C 25.96875 39.917969 26.128906 39.917969 26.289063 39.917969 C 27.796875 39.894531 29.210938 39.191406 30.132813 38 L 49.433594 38 C 49.640625 38 49.816406 38.15625 49.839844 38.363281 L 49.839844 43.488281 C 49.835938 43.714844 50.015625 43.90625 50.242188 43.914063 Z M 50.242188 43.914063 "/>
<path style=" stroke:none;fill-rule:nonzero;fill:rgb(46.666667%,22.745098%,86.27451%);fill-opacity:1;" d="M 34.558594 41.105469 C 31.867188 44.886719 27.039063 46.496094 22.617188 45.089844 C 18.195313 43.683594 15.183594 39.585938 15.171875 34.945313 C 15.15625 30.304688 18.140625 26.183594 22.554688 24.75 C 26.96875 23.316406 31.804688 24.898438 34.519531 28.660156 L 40.3125 28.660156 C 37.347656 21.824219 29.988281 18.007813 22.691406 19.53125 C 15.394531 21.050781 10.171875 27.488281 10.1875 34.941406 C 10.199219 42.390625 15.449219 48.808594 22.75 50.304688 C 30.050781 51.796875 37.398438 47.953125 40.335938 41.105469 Z M 34.558594 41.105469 "/>
</g>
</svg>
