<?xml version="1.0" encoding="UTF-8"?>
<svg xmlns="http://www.w3.org/2000/svg" xmlns:xlink="http://www.w3.org/1999/xlink" width="70pt" height="70pt" viewBox="0 0 70 70" version="1.1">
<g id="surface1">
<path style=" stroke:none;fill-rule:evenodd;fill:rgb(0%,44.705882%,77.647059%);fill-opacity:1;" d="M 34.90625 37.328125 C 36.953125 37.328125 38.871094 36.527344 40.324219 35.074219 L 54.679688 20.722656 L 54.679688 19.957031 L 15.117188 19.957031 L 15.117188 20.722656 L 29.488281 35.074219 C 30.941406 36.527344 32.859375 37.328125 34.90625 37.328125 Z M 41.683594 36.433594 C 39.878906 38.257813 37.476563 39.246094 34.90625 39.246094 C 32.335938 39.246094 29.9375 38.257813 28.128906 36.433594 L 15.117188 23.4375 L 15.117188 49.855469 L 54.679688 49.855469 L 54.679688 23.4375 Z M 1.152344 0 C 0.464844 0 0 0.464844 0 1.152344 L 0 15.117188 C 0 15.824219 0.464844 16.289063 1.152344 16.289063 L 8.136719 16.289063 C 8.84375 16.289063 9.308594 15.824219 9.308594 15.117188 L 9.308594 9.308594 L 60.503906 9.308594 L 60.503906 15.136719 C 60.503906 15.824219 60.972656 16.289063 61.902344 16.289063 L 68.640625 16.289063 C 69.347656 16.289063 69.8125 15.824219 69.8125 15.136719 L 69.8125 1.171875 C 69.8125 0.464844 69.347656 0 68.660156 0 Z M 68.660156 69.8125 C 69.347656 69.8125 69.8125 69.347656 69.8125 68.660156 L 69.8125 54.921875 C 69.8125 54.230469 69.347656 53.765625 68.660156 53.765625 L 61.902344 53.765625 C 61.210938 53.765625 60.746094 54.230469 60.746094 54.921875 L 60.746094 60.503906 L 9.308594 60.503906 L 9.308594 54.695313 C 9.308594 53.988281 8.84375 53.523438 7.914063 53.523438 L 1.152344 53.523438 C 0.464844 53.523438 0 53.988281 0 54.921875 L 0 68.660156 C 0 69.347656 0.464844 69.8125 1.152344 69.8125 Z M 68.660156 69.8125 "/>
</g>
</svg>
