<?xml version="1.0" encoding="UTF-8"?>
<svg xmlns="http://www.w3.org/2000/svg" xmlns:xlink="http://www.w3.org/1999/xlink" width="70pt" height="70pt" viewBox="0 0 70 70" version="1.1">
<g id="surface1">
<path style=" stroke:none;fill-rule:nonzero;fill:rgb(0,102,178);fill-opacity:1;" d="M 1.167969 0 C 0.464844 0 0 0.464844 0 1.167969 L 0 15.167969 C 0 15.867188 0.464844 16.332031 1.167969 16.332031 L 8.167969 16.332031 C 8.867188 16.332031 9.332031 15.867188 9.332031 15.167969 L 9.332031 9.332031 L 60.667969 9.332031 L 60.667969 15.167969 C 60.667969 15.867188 61.132813 16.332031 62.066406 16.332031 L 68.832031 16.332031 C 69.53125 16.332031 70 15.867188 70 15.167969 L 70 1.167969 C 70 0.464844 69.535156 0 68.832031 0 Z M 68.832031 70 C 69.535156 70 70 69.535156 70 68.832031 L 70 55.066406 C 70 54.367188 69.535156 53.902344 68.832031 53.902344 L 62.066406 53.902344 C 61.367188 53.902344 60.902344 54.367188 60.902344 55.066406 L 60.902344 60.667969 L 9.332031 60.667969 L 9.332031 54.832031 C 9.332031 54.132813 8.867188 53.667969 7.933594 53.667969 L 1.167969 53.667969 C 0.464844 53.667969 0 54.132813 0 55.066406 L 0 68.832031 C 0 69.535156 0.464844 70 1.167969 70 Z M 68.832031 70 "/>
<path style=" stroke:none;fill-rule:nonzero;fill:rgb(115,195,255);fill-opacity:1;" d="M 25.828125 31.890625 L 28.851563 28.871094 L 31.085938 31.105469 L 28.066406 34.128906 Z M 30.210938 27.511719 L 33.234375 24.484375 L 35.472656 26.726563 L 32.449219 29.75 Z M 36.835938 25.355469 L 34.59375 23.128906 L 37.589844 20.132813 L 39.828125 22.359375 Z M 34.59375 45.9375 L 36.835938 43.695313 L 39.828125 46.695313 L 37.589844 48.933594 Z M 33.234375 44.5625 L 30.210938 41.539063 L 32.453125 39.3125 L 35.476563 42.335938 Z M 28.855469 40.179688 L 25.828125 37.15625 L 28.070313 34.929688 L 31.078125 37.941406 Z M 28.855469 40.179688 "/>
<path style=" stroke:none;fill-rule:nonzero;fill:rgb(57,171,255);fill-opacity:1;" d="M 50.582031 21.347656 C 51.03125 19.664063 52.542969 18.480469 54.285156 18.457031 C 56.027344 18.433594 57.574219 19.574219 58.066406 21.242188 C 58.558594 22.914063 57.882813 24.710938 56.40625 25.636719 C 54.929688 26.5625 53.019531 26.394531 51.730469 25.222656 L 39.761719 16.050781 L 39.761719 26.816406 L 55.882813 26.816406 L 55.882813 16.050781 Z M 50.582031 21.347656 "/>
<path style=" stroke:none;fill-rule:nonzero;fill:rgb(57,171,255);fill-opacity:1;" d="M 47.820313 21.703125 C 48.652344 21.703125 49.4375 21.378906 50.027344 20.789063 L 55.878906 14.9375 L 55.878906 14.625 L 39.757813 14.625 L 39.757813 14.9375 L 45.613281 20.789063 C 46.199219 21.378906 46.984375 21.703125 47.820313 21.703125 Z M 50.582031 48.960938 C 51.03125 47.277344 52.542969 46.097656 54.285156 46.074219 C 56.027344 46.046875 57.574219 47.1875 58.066406 48.859375 C 58.558594 50.527344 57.882813 52.324219 56.40625 53.25 C 54.929688 54.175781 53.019531 54.007813 51.730469 52.835938 L 39.761719 43.664063 L 39.761719 54.429688 L 55.882813 54.429688 L 55.882813 43.664063 Z M 50.582031 48.960938 "/>
<path style=" stroke:none;fill-rule:nonzero;fill:rgb(57,171,255);fill-opacity:1;" d="M 47.820313 49.316406 C 48.652344 49.316406 49.4375 48.992188 50.027344 48.402344 L 55.878906 42.550781 L 55.878906 42.238281 L 39.757813 42.238281 L 39.757813 42.550781 L 45.613281 48.402344 C 46.199219 48.992188 46.984375 49.316406 47.820313 49.316406 Z M 17.253906 35.523438 C 16.078125 36.699219 14.511719 37.347656 12.847656 37.347656 C 11.183594 37.347656 9.621094 36.699219 8.441406 35.523438 L 0 27.082031 L 0 44.242188 L 25.695313 44.242188 L 25.695313 27.082031 Z M 17.253906 35.523438 "/>
<path style=" stroke:none;fill-rule:nonzero;fill:rgb(57,171,255);fill-opacity:1;" d="M 12.847656 36.09375 C 14.179688 36.09375 15.425781 35.578125 16.367188 34.636719 L 25.695313 25.308594 L 25.695313 24.816406 L 0 24.816406 L 0 25.3125 L 9.328125 34.640625 C -0.238281 27.648438 -2.324219 14.230469 4.664063 4.664063 C 11.652344 -4.902344 25.070313 -6.988281 34.636719 0 Z M 12.847656 36.09375 "/>
</g>
</svg>
