<?xml version="1.0" encoding="UTF-8"?>
<svg xmlns="http://www.w3.org/2000/svg" xmlns:xlink="http://www.w3.org/1999/xlink" width="70pt" height="70pt" viewBox="0 0 70 70" version="1.1">
<defs>
<filter id="alpha" filterUnits="objectBoundingBox" x="0%" y="0%" width="100%" height="100%">
  <feColorMatrix type="matrix" in="SourceGraphic" values="0 0 0 0 1 0 0 0 0 1 0 0 0 0 1 0 0 0 1 0"/>
</filter>
<mask id="mask0">
  <g filter="url(#alpha)">
<rect x="0" y="0" width="70" height="70" style="fill:rgb(0,0,0);fill-opacity:0.501961;stroke:none;"/>
  </g>
</mask>
<clipPath id="clip1">
  <rect x="0" y="0" width="70" height="70"/>
</clipPath>
<g id="surface5" clip-path="url(#clip1)">
<path style=" stroke:none;fill-rule:nonzero;fill:rgb(71,176,255);fill-opacity:1;" d="M 2.382813 3.863281 L 7.683594 3.863281 L 7.683594 18.570313 C 7.683594 19.226563 7.152344 19.757813 6.496094 19.757813 L 1.195313 19.757813 C 0.878906 19.761719 0.574219 19.636719 0.351563 19.414063 C 0.125 19.1875 0 18.886719 0 18.570313 L 0 6.246094 C -0.0117188 5.625 0.222656 5.023438 0.65625 4.574219 C 1.085938 4.125 1.679688 3.871094 2.300781 3.863281 Z M 2.382813 3.863281 "/>
</g>
<mask id="mask1">
  <g filter="url(#alpha)">
<rect x="0" y="0" width="70" height="70" style="fill:rgb(0,0,0);fill-opacity:0.501961;stroke:none;"/>
  </g>
</mask>
<clipPath id="clip2">
  <rect x="0" y="0" width="70" height="70"/>
</clipPath>
<g id="surface8" clip-path="url(#clip2)">
<path style=" stroke:none;fill-rule:nonzero;fill:rgb(71,176,255);fill-opacity:1;" d="M 62.320313 3.863281 L 67.617188 3.863281 C 68.90625 3.863281 69.949219 4.90625 69.949219 6.195313 L 69.949219 18.5625 C 69.949219 19.21875 69.417969 19.75 68.757813 19.75 L 63.507813 19.75 C 62.851563 19.75 62.320313 19.21875 62.320313 18.5625 Z M 62.320313 3.863281 "/>
</g>
<mask id="mask2">
  <g filter="url(#alpha)">
<rect x="0" y="0" width="70" height="70" style="fill:rgb(0,0,0);fill-opacity:0.501961;stroke:none;"/>
  </g>
</mask>
<clipPath id="clip3">
  <rect x="0" y="0" width="70" height="70"/>
</clipPath>
<g id="surface11" clip-path="url(#clip3)">
<path style=" stroke:none;fill-rule:nonzero;fill:rgb(71,176,255);fill-opacity:1;" d="M 1.195313 50.167969 L 6.496094 50.167969 C 7.152344 50.167969 7.683594 50.699219 7.683594 51.355469 L 7.683594 66.183594 L 2.382813 66.183594 C 1.761719 66.199219 1.160156 65.960938 0.710938 65.527344 C 0.261719 65.097656 0.0078125 64.5 0 63.878906 C 0 63.835938 0 63.796875 0 63.753906 L 0 51.429688 C -0.0429688 50.777344 0.453125 50.210938 1.109375 50.167969 Z M 1.195313 50.167969 "/>
</g>
<mask id="mask3">
  <g filter="url(#alpha)">
<rect x="0" y="0" width="70" height="70" style="fill:rgb(0,0,0);fill-opacity:0.501961;stroke:none;"/>
  </g>
</mask>
<clipPath id="clip4">
  <rect x="0" y="0" width="70" height="70"/>
</clipPath>
<g id="surface14" clip-path="url(#clip4)">
<path style=" stroke:none;fill-rule:nonzero;fill:rgb(71,176,255);fill-opacity:1;" d="M 63.507813 50.167969 L 68.808594 50.167969 C 69.457031 50.167969 69.988281 50.683594 70 51.332031 L 70 63.65625 C 70 64.945313 68.957031 65.992188 67.667969 65.992188 L 62.320313 65.992188 L 62.320313 51.40625 C 62.296875 51.09375 62.402344 50.78125 62.609375 50.542969 C 62.816406 50.304688 63.109375 50.15625 63.425781 50.136719 Z M 63.507813 50.167969 "/>
</g>
<linearGradient id="linear0" gradientUnits="userSpaceOnUse" x1="10.467" y1="9.987" x2="10.467" y2="7.506" gradientTransform="matrix(3.888889,0,0,3.888889,0,0)">
<stop offset="0" style="stop-color:rgb(0,108,188);stop-opacity:1;"/>
<stop offset="1" style="stop-color:rgb(41,164,255);stop-opacity:1;"/>
</linearGradient>
<linearGradient id="linear1" gradientUnits="userSpaceOnUse" x1="4.288" y1="13.077" x2="4.58" y2="5.029" gradientTransform="matrix(3.888889,0,0,3.888889,0,0)">
<stop offset="0" style="stop-color:rgb(0,138,240);stop-opacity:1;"/>
<stop offset="1" style="stop-color:rgb(47,166,255);stop-opacity:1;"/>
</linearGradient>
<linearGradient id="linear2" gradientUnits="userSpaceOnUse" x1="8.711" y1="13.237" x2="9.003" y2="5.189" gradientTransform="matrix(3.888889,0,0,3.888889,0,0)">
<stop offset="0" style="stop-color:rgb(0,138,240);stop-opacity:1;"/>
<stop offset="1" style="stop-color:rgb(47,166,255);stop-opacity:1;"/>
</linearGradient>
<linearGradient id="linear3" gradientUnits="userSpaceOnUse" x1="8.915" y1="13.245" x2="9.207" y2="5.197" gradientTransform="matrix(3.888889,0,0,3.888889,0,0)">
<stop offset="0" style="stop-color:rgb(0,138,240);stop-opacity:1;"/>
<stop offset="1" style="stop-color:rgb(47,166,255);stop-opacity:1;"/>
</linearGradient>
<linearGradient id="linear4" gradientUnits="userSpaceOnUse" x1="4.471" y1="13.083" x2="4.763" y2="5.035" gradientTransform="matrix(3.888889,0,0,3.888889,0,0)">
<stop offset="0" style="stop-color:rgb(0,138,240);stop-opacity:1;"/>
<stop offset="1" style="stop-color:rgb(47,166,255);stop-opacity:1;"/>
</linearGradient>
</defs>
<g id="surface1">
<path style=" stroke:none;fill-rule:nonzero;fill:rgb(71,176,255);fill-opacity:1;" d="M 2.382813 3.863281 L 7.683594 3.863281 L 7.683594 18.570313 C 7.683594 19.226563 7.152344 19.757813 6.496094 19.757813 L 1.195313 19.757813 C 0.878906 19.761719 0.574219 19.636719 0.351563 19.414063 C 0.125 19.1875 0 18.886719 0 18.570313 L 0 6.246094 C -0.0117188 5.625 0.222656 5.023438 0.65625 4.574219 C 1.085938 4.125 1.679688 3.871094 2.300781 3.863281 Z M 2.382813 3.863281 "/>
<use xlink:href="#surface5" mask="url(#mask0)"/>
<path style=" stroke:none;fill-rule:nonzero;fill:rgb(71,176,255);fill-opacity:1;" d="M 62.320313 3.863281 L 67.617188 3.863281 C 68.90625 3.863281 69.949219 4.90625 69.949219 6.195313 L 69.949219 18.5625 C 69.949219 19.21875 69.417969 19.75 68.757813 19.75 L 63.507813 19.75 C 62.851563 19.75 62.320313 19.21875 62.320313 18.5625 Z M 62.320313 3.863281 "/>
<use xlink:href="#surface8" mask="url(#mask1)"/>
<path style=" stroke:none;fill-rule:nonzero;fill:rgb(41,164,255);fill-opacity:1;" d="M 69.957031 6.164063 L 69.957031 11.296875 L 0.125 11.296875 L 0.125 6.164063 C 0.125 4.875 1.167969 3.832031 2.457031 3.832031 L 67.617188 3.832031 C 68.234375 3.828125 68.832031 4.074219 69.269531 4.511719 C 69.710938 4.949219 69.957031 5.542969 69.957031 6.164063 Z M 69.957031 6.164063 "/>
<path style=" stroke:none;fill-rule:nonzero;fill:rgb(71,176,255);fill-opacity:1;" d="M 1.195313 50.167969 L 6.496094 50.167969 C 7.152344 50.167969 7.683594 50.699219 7.683594 51.355469 L 7.683594 66.183594 L 2.382813 66.183594 C 1.761719 66.199219 1.160156 65.960938 0.710938 65.527344 C 0.261719 65.097656 0.0078125 64.5 0 63.878906 C 0 63.835938 0 63.796875 0 63.753906 L 0 51.429688 C -0.0429688 50.777344 0.453125 50.210938 1.109375 50.167969 Z M 1.195313 50.167969 "/>
<use xlink:href="#surface11" mask="url(#mask2)"/>
<path style=" stroke:none;fill-rule:nonzero;fill:rgb(71,176,255);fill-opacity:1;" d="M 63.507813 50.167969 L 68.808594 50.167969 C 69.457031 50.167969 69.988281 50.683594 70 51.332031 L 70 63.65625 C 70 64.945313 68.957031 65.992188 67.667969 65.992188 L 62.320313 65.992188 L 62.320313 51.40625 C 62.296875 51.09375 62.402344 50.78125 62.609375 50.542969 C 62.816406 50.304688 63.109375 50.15625 63.425781 50.136719 Z M 63.507813 50.167969 "/>
<use xlink:href="#surface14" mask="url(#mask3)"/>
<path style=" stroke:none;fill-rule:nonzero;fill:rgb(41,164,255);fill-opacity:1;" d="M 0 63.835938 L 0 58.722656 L 69.835938 58.722656 L 69.835938 63.855469 C 69.835938 65.144531 68.792969 66.1875 67.503906 66.1875 L 2.332031 66.1875 C 1.710938 66.1875 1.113281 65.941406 0.675781 65.5 C 0.238281 65.058594 -0.00390625 64.457031 0 63.835938 Z M 0 63.835938 "/>
<path style=" stroke:none;fill-rule:nonzero;fill:url(#linear0);" d="M 60.027344 34.332031 L 51.722656 25.914063 C 51.582031 25.738281 51.328125 25.703125 51.148438 25.839844 C 51.027344 25.933594 50.96875 26.082031 50.992188 26.230469 L 50.992188 31.402344 C 51.011719 31.511719 50.980469 31.625 50.914063 31.710938 C 50.84375 31.796875 50.742188 31.851563 50.632813 31.859375 L 30.449219 31.859375 C 29.542969 30.679688 28.140625 29.988281 26.65625 29.984375 C 26.492188 29.984375 26.328125 29.960938 26.167969 29.960938 C 23.484375 29.964844 21.277344 32.074219 21.152344 34.753906 C 21.023438 37.433594 23.023438 39.742188 25.695313 40 C 25.851563 40.015625 26.011719 40.023438 26.171875 40.023438 C 26.332031 40.023438 26.496094 40.023438 26.65625 40 C 28.160156 39.976563 29.574219 39.269531 30.492188 38.078125 L 50.554688 38.078125 C 50.757813 38.089844 50.921875 38.246094 50.945313 38.445313 L 50.945313 43.554688 C 50.9375 43.78125 51.109375 43.96875 51.332031 43.984375 C 51.457031 43.988281 51.578125 43.929688 51.652344 43.832031 L 59.976563 35.550781 C 60.304688 35.21875 60.328125 34.691406 60.027344 34.332031 Z M 60.027344 34.332031 "/>
<path style=" stroke:none;fill-rule:nonzero;fill:url(#linear1);" d="M 10.679688 21.1875 L 10.679688 33.175781 L 18.277344 33.175781 C 18.972656 30.039063 21.460938 27.613281 24.617188 27 L 24.617188 19.222656 L 12.625 19.222656 C 12.105469 19.222656 11.605469 19.429688 11.242188 19.800781 C 10.875 20.167969 10.671875 20.667969 10.679688 21.1875 Z M 10.679688 21.1875 "/>
<path style=" stroke:none;fill-rule:nonzero;fill:url(#linear2);" d="M 39.894531 19.238281 L 27.902344 19.238281 L 27.902344 27.015625 C 29.320313 27.246094 30.648438 27.851563 31.753906 28.769531 L 41.839844 28.769531 L 41.839844 21.183594 C 41.839844 20.109375 40.96875 19.238281 39.894531 19.238281 Z M 39.894531 19.238281 "/>
<path style=" stroke:none;fill-rule:nonzero;fill:url(#linear3);" d="M 27.902344 42.984375 L 27.902344 50.679688 L 39.894531 50.679688 C 40.96875 50.679688 41.839844 49.808594 41.839844 48.734375 L 41.839844 41.191406 L 31.808594 41.191406 C 30.695313 42.136719 29.34375 42.753906 27.902344 42.984375 Z M 27.902344 42.984375 "/>
<path style=" stroke:none;fill-rule:nonzero;fill:url(#linear4);" d="M 18.277344 36.742188 L 10.679688 36.742188 L 10.679688 48.734375 C 10.679688 49.808594 11.550781 50.679688 12.625 50.679688 L 24.617188 50.679688 L 24.617188 42.945313 C 21.433594 42.367188 18.925781 39.910156 18.277344 36.742188 Z M 18.277344 36.742188 "/>
</g>
</svg>
