<?xml version="1.0" encoding="utf-8"?><svg version="1.1" xmlns="http://www.w3.org/2000/svg" xmlns:xlink="http://www.w3.org/1999/xlink" xmlns:xml="http://www.w3.org/XML/1998/namespace" width="70" height="70" viewBox="0, 0, 18, 18"><defs><linearGradient x1="9" y1="13.343" x2="9" y2="0.586" gradientUnits="userSpaceOnUse" id="a9fb18f0-3b0f-496b-bdcd-0aa2af06c410"><stop offset="0%" stop-color="#0078D4" /><stop offset="100%" stop-color="#5EA0EF" /></linearGradient><linearGradient x1="9.104" y1="10.28" x2="9.104" y2="7.603" gradientUnits="userSpaceOnUse" id="f9c8631e-1318-46e5-81e7-ddf268fd2ea1"><stop offset="0%" stop-color="#76BC2D" /><stop offset="41.2%" stop-color="#7AC32F" /><stop offset="100%" stop-color="#86D633" /></linearGradient><linearGradient x1="9.119" y1="17.414" x2="9.119" y2="13.924" gradientUnits="userSpaceOnUse" id="f3400587-2bbd-47f6-ac28-e9a941b1f347"><stop offset="0%" stop-color="#0078D4" /><stop offset="100%" stop-color="#5EA0EF" /></linearGradient></defs><title>MsPortalFx.base.images-6</title><g id="b5d6c51f-fecd-4739-b92c-3a3190935499"><g><path d="M18 9.348 A4.045 4.045 0 0 0 14.49 5.46 A5.1 5.1 0 0 0 9.24 0.586 a5.228 5.228 0 0 0 -5 3.407 A4.827 4.827 0 0 0 0 8.637 a4.9 4.9 0 0 0 5.068 4.706 c0.151 0 0.3 -0.007 0.447 -0.019 h8.207 a0.819 0.819 0 0 0 0.217 -0.032 A4.093 4.093 0 0 0 18 9.348 Z" style="fill:url(#a9fb18f0-3b0f-496b-bdcd-0aa2af06c410);" /><rect x="8.295" y="10.097" width="1.693" height="5.35" style="fill:#005BA1;" /><path d="M13.937 5.8 A0.207 0.207 0 0 0 13.73 5.6 H11.285 a0.092 0.092 0 0 0 -0.065 0.158 l0.705 0.705 l0.047 0.047 a0.094 0.094 0 0 1 0 0.13 l-0.747 0.747 A2.677 2.677 0 0 0 9.708 6.349 V4.874 A0.093 0.093 0 0 1 9.8 4.781 h1.068 a0.093 0.093 0 0 0 0.066 -0.158 L9.2 2.886 a0.207 0.207 0 0 0 -0.293 0 L7.167 4.623 a0.092 0.092 0 0 0 0.065 0.158 H8.3 a0.093 0.093 0 0 1 0.093 0.093 V6.349 a2.678 2.678 0 0 0 -1.56 1.092 l-0.805 -0.8 a0.094 0.094 0 0 1 0 -0.13 l0.047 -0.047 l0.705 -0.7 A0.092 0.092 0 0 0 6.715 5.6 H4.27 a0.207 0.207 0 0 0 -0.207 0.206 V8.249 a0.093 0.093 0 0 0 0.158 0.065 l0.705 -0.7 l0.047 -0.047 a0.092 0.092 0 0 1 0.13 0 L6.378 8.838 c0 0.034 0 0.068 0 0.1 a2.677 2.677 0 1 0 5.354 0 c0 -0.067 -0.005 -0.133 -0.01 -0.2 l1.18 -1.18 a0.092 0.092 0 0 1 0.13 0 l0.047 0.047 l0.705 0.705 a0.093 0.093 0 0 0 0.158 -0.065 Z" style="fill:white;" /><circle cx="9.104" cy="8.941" r="1.338" style="fill:url(#f9c8631e-1318-46e5-81e7-ddf268fd2ea1);" /><circle cx="9.119" cy="15.669" r="1.745" style="fill:url(#f3400587-2bbd-47f6-ac28-e9a941b1f347);" /></g></g></svg>