<?xml version="1.0" encoding="utf-8"?><svg viewBox="0 0 50 50" class="" role="presentation" focusable="false" xmlns="http://www.w3.org/2000/svg" xmlns:xlink="http://www.w3.org/1999/xlink" id="FxSymbol0-059" data-type="1" width="100%" height="70" preserveAspectRatio="xMidYMid meet"><g><title></title><path d="M.833 0C.333 0 0 .333 0 .833v10c0 .5.333.833.833.833h5c.5 0 .833-.333.833-.833V6.667h36.667v4.167c0 .5.333.833 1 .833h4.833c.5 0 .833-.333.833-.833v-10C50 .333 49.667 0 49.167 0H.833zm48.334 50c.5 0 .833-.333.833-.833v-9.833c0-.5-.333-.833-.833-.833h-4.833c-.5 0-.833.333-.833.833v4H6.667v-4.167c0-.5-.333-.833-1-.833H.833c-.5 0-.833.333-.833 1v9.833c0 .5.333.833.833.833h48.334z" class="msportalfx-svg-c19" fill="#0072c6"></path><path d="M18.45 22.78l2.157-2.158 1.597 1.597-2.157 2.158zm3.129-3.13l2.16-2.16 1.6 1.6-2.16 2.16zm4.731-1.54l-1.6-1.59 2.14-2.14 1.6 1.59zm-1.6 14.702l1.6-1.6 2.14 2.141-1.601 1.6zm-.97-.982l-2.16-2.16 1.6-1.59 2.16 2.16zm-3.13-3.13l-2.16-2.16 1.6-1.59 2.15 2.15z" class="msportalfx-svg-c13" fill="#b8d432"></path><path d="M36.131 15.247a2.776 2.776 0 01-1.974.818 2.77 2.77 0 01-1.974-.818L28.4 11.464v7.691h11.515v-7.691l-3.784 3.783z" class="msportalfx-svg-c15" fill="#59b4d9"></path><path d="M34.156 15.503c.596 0 1.156-.232 1.577-.653l4.181-4.181v-.222H28.399v.222l4.181 4.181c.42.421.981.653 1.576.653zm1.975 19.468a2.776 2.776 0 01-1.974.818 2.77 2.77 0 01-1.974-.818L28.4 31.188v7.691h11.515v-7.691l-3.784 3.783z" class="msportalfx-svg-c15" fill="#59b4d9"></path><path d="M34.156 35.227c.596 0 1.156-.232 1.577-.653l4.181-4.181v-.222H28.399v.222l4.181 4.181c.42.421.981.653 1.576.653zm-21.832-9.853c-.84.84-1.958 1.303-3.147 1.303s-2.306-.463-3.147-1.303L0 19.343v12.258h18.354V19.343l-6.03 6.031z" class="msportalfx-svg-c15" fill="#59b4d9"></path><path d="M9.177 25.782c.95 0 1.842-.37 2.514-1.041l6.663-6.663v-.353H0v.354l6.663 6.663a3.537 3.537 0 002.514 1.04z" class="msportalfx-svg-c15" fill="#59b4d9"></path></g><defs></defs></svg>