<?xml version="1.0" encoding="utf-8"?><svg version="1.1" xmlns="http://www.w3.org/2000/svg" xmlns:xlink="http://www.w3.org/1999/xlink" xmlns:xml="http://www.w3.org/XML/1998/namespace" width="70" height="70" viewBox="0, 0, 18, 18" id="ab6915f8-be54-4d6f-932a-7f429e75983a"><defs><linearGradient x1="5.71" y1="7.1" x2="5.82" y2="17.48" gradientUnits="userSpaceOnUse" id="b8ef1ebf-419d-4097-a9bc-e2fbb68d9c3b"><stop offset="0%" stop-color="#4FB4FF" /><stop offset="32%" stop-color="#49B1FF" /><stop offset="53%" stop-color="#3DACFF" /><stop offset="70%" stop-color="#25A2FF" /><stop offset="86%" stop-color="#0394FF" /><stop offset="100%" stop-color="#007CD8" /><stop offset="100%" stop-color="#007CD8" /></linearGradient></defs><title>Icon-machinelearning-167</title><path d="M6 0.6 H17.12 a0.37 0.37 0 0 1 0.38 0.34 V9.53 a0.36 0.36 0 0 1 -0.38 0.34 H6 a0.36 0.36 0 0 1 -0.38 -0.34 V0.94 A0.37 0.37 0 0 1 6 0.6 Z" style="fill:#CDE9FF;" /><path d="M5.94 0.6 h11.2 a0.35 0.35 0 0 1 0.36 0.32 h0 v1.3 H5.58 V0.92 A0.35 0.35 0 0 1 5.94 0.6 Z" style="fill:#29A4FF;" /><rect x="5.58" y="2.22" width="3.98" height="3.83" style="fill:#5FBBFF;" /><rect x="9.54" y="2.22" width="3.98" height="3.83" style="fill:#006CBC;" /><rect x="13.52" y="2.22" width="3.98" height="3.83" style="fill:#5FBBFF;" /><path d="M14.09 6 H17.5 a0 0 0 0 1 0 0 V9.87 a0 0 0 0 1 0 0 h-4 a0 0 0 0 1 0 0 V6.61 A0.57 0.57 0 0 1 14.09 6 Z" transform="translate(31.02, 15.91) rotate(-180, 0, 0)" style="fill:#006CBC;" /><rect x="9.56" y="6.04" width="3.98" height="3.83" transform="translate(23.11, 15.91) rotate(-180, 0, 0)" style="fill:#5FBBFF;" /><rect x="5.58" y="6.04" width="3.98" height="3.83" transform="translate(15.15, 15.91) rotate(-180, 0, 0)" style="fill:#006CBC;" /><path d="M10.73 17.4 H0.89 c-0.31 0 -0.5 -0.5 -0.32 -0.76 l3.39 -5 A0.34 0.34 0 0 0 4 11.47 V8.2 A0.2 0.2 0 0 0 3.84 8 H3.65 a0.39 0.39 0 0 1 -0.39 -0.39 V7.44 a0.39 0.39 0 0 1 0.39 -0.38 H8 a0.38 0.38 0 0 1 0.39 0.38 v0.18 A0.38 0.38 0 0 1 8 8 H7.79 a0.2 0.2 0 0 0 -0.2 0.19 v3.28 a0.41 0.41 0 0 0 0.07 0.22 l3.4 4.94 C11.23 16.9 11.05 17.4 10.73 17.4 Z" style="fill:url(#b8ef1ebf-419d-4097-a9bc-e2fbb68d9c3b);" /><path d="M2.19 16 l2.46 -3.59 a0.86 0.86 0 0 0 0.16 -0.51 V10.4 a0.29 0.29 0 0 1 0.29 -0.29 H6.5 a0.28 0.28 0 0 1 0.28 0.29 V12 a0.6 0.6 0 0 0 0.11 0.34 L9.41 16 a0.21 0.21 0 0 1 -0.18 0.34 H2.36 A0.21 0.21 0 0 1 2.19 16 Z" style="fill:white;" /></svg>