<?xml version="1.0" encoding="UTF-8"?>
<svg xmlns="http://www.w3.org/2000/svg" xmlns:xlink="http://www.w3.org/1999/xlink" width="70pt" height="70pt" viewBox="0 0 70 70" version="1.1">
<defs>
<radialGradient id="radial0" gradientUnits="userSpaceOnUse" cx="55.71" cy="71.92" fx="55.71" fy="71.92" r="9" gradientTransform="matrix(3.655556,0,0,3.655556,-169.594444,-229.133333)">
<stop offset="0.67" style="stop-color:rgb(79,180,255);stop-opacity:1;"/>
<stop offset="0.74" style="stop-color:rgb(67,175,255);stop-opacity:1;"/>
<stop offset="0.85" style="stop-color:rgb(37,162,255);stop-opacity:1;"/>
<stop offset="0.99" style="stop-color:rgb(0,139,242);stop-opacity:1;"/>
<stop offset="1" style="stop-color:rgb(0,138,240);stop-opacity:1;"/>
</radialGradient>
</defs>
<g id="surface1">
<path style=" stroke:none;fill-rule:nonzero;fill:url(#radial0);" d="M 35 1.945313 C 16.742188 1.945313 1.945313 16.742188 1.945313 35 C 1.945313 53.257813 16.742188 68.054688 35 68.054688 C 53.257813 68.054688 68.054688 53.257813 68.054688 35 C 68.054688 16.742188 53.257813 1.945313 35 1.945313 Z M 35 1.945313 "/>
<path style=" stroke:none;fill-rule:nonzero;fill:rgb(255,255,255);fill-opacity:1;" d="M 62.339844 35 C 62.339844 50.097656 50.097656 62.339844 35 62.339844 C 19.902344 62.339844 7.660156 50.097656 7.660156 35 C 7.660156 19.902344 19.902344 7.660156 35 7.660156 C 50.097656 7.660156 62.339844 19.902344 62.339844 35 Z M 62.339844 35 "/>
<path style=" stroke:none;fill-rule:nonzero;fill:rgb(47,166,255);fill-opacity:1;" d="M 31.964844 35 C 31.964844 36.652344 30.625 37.996094 28.972656 37.996094 C 27.320313 37.996094 25.976563 36.652344 25.976563 35 C 25.976563 33.347656 27.320313 32.003906 28.972656 32.003906 C 30.625 32.003906 31.964844 33.347656 31.964844 35 Z M 31.964844 35 "/>
<path style=" stroke:none;fill-rule:nonzero;fill:rgb(47,166,255);fill-opacity:1;" d="M 20.457031 26.445313 L 18.976563 26.445313 C 18.355469 26.445313 17.851563 26.949219 17.851563 27.570313 L 17.851563 49.816406 C 17.851563 51.082031 18.878906 52.109375 20.144531 52.109375 L 41.804688 52.109375 C 42.113281 52.109375 42.40625 51.988281 42.617188 51.765625 C 42.828125 51.546875 42.945313 51.25 42.933594 50.945313 L 42.933594 49.464844 C 42.933594 48.84375 42.429688 48.339844 41.804688 48.339844 L 22.359375 48.339844 C 22.210938 48.339844 22.066406 48.277344 21.960938 48.164063 C 21.859375 48.054688 21.804688 47.90625 21.816406 47.753906 L 21.816406 27.570313 C 21.824219 27.226563 21.675781 26.898438 21.410156 26.679688 C 21.144531 26.460938 20.792969 26.375 20.457031 26.445313 Z M 20.457031 26.445313 "/>
<path style=" stroke:none;fill-rule:nonzero;fill:rgb(47,166,255);fill-opacity:1;" d="M 44.023438 35 C 44.023438 36.652344 42.679688 37.996094 41.027344 37.996094 C 39.375 37.996094 38.035156 36.652344 38.035156 35 C 38.035156 33.347656 39.375 32.003906 41.027344 32.003906 C 42.679688 32.003906 44.023438 33.347656 44.023438 35 Z M 44.023438 35 "/>
<path style=" stroke:none;fill-rule:nonzero;fill:rgb(47,166,255);fill-opacity:1;" d="M 48.300781 17.890625 L 28.117188 17.890625 C 27.8125 17.890625 27.519531 18.011719 27.304688 18.234375 C 27.09375 18.453125 26.976563 18.75 26.988281 19.054688 L 26.988281 20.535156 C 26.988281 21.15625 27.492188 21.660156 28.117188 21.660156 L 47.5625 21.660156 C 47.882813 21.660156 48.144531 21.921875 48.144531 22.246094 L 48.144531 42.429688 C 48.144531 43.050781 48.648438 43.554688 49.273438 43.554688 L 50.75 43.554688 C 51.371094 43.554688 51.878906 43.050781 51.878906 42.429688 L 51.878906 20.183594 C 51.878906 18.929688 50.875 17.910156 49.621094 17.890625 Z M 48.300781 17.890625 "/>
</g>
</svg>
