<?xml version="1.0" encoding="UTF-8"?>
<svg xmlns="http://www.w3.org/2000/svg" xmlns:xlink="http://www.w3.org/1999/xlink" width="70pt" height="41pt" viewBox="0 0 70 41" version="1.1">
<g id="surface1">
<path style=" stroke:none;fill-rule:nonzero;fill:rgb(0,119,208);fill-opacity:1;" d="M 69.164063 20.390625 C 67.894531 17.402344 65.265625 14.875 61.863281 13.328125 C 60.296875 8.101563 55.90625 2.871094 49.359375 2.871094 C 49.152344 2.871094 48.941406 2.878906 48.726563 2.886719 C 46 0.945313 43.347656 0 40.644531 0 C 39.015625 0 37.351563 0.355469 35.6875 1.0625 C 34.449219 0.417969 33.035156 0.0859375 31.519531 0.0859375 C 28.167969 0.0859375 24.992188 1.621094 23.03125 3.417969 C 22.398438 3.269531 21.753906 3.199219 21.105469 3.199219 C 16.109375 3.199219 11.15625 7.292969 9.816406 12.257813 C 5.511719 13.808594 2.363281 16.625 0.886719 20.285156 C -0.546875 23.839844 -0.230469 27.8125 1.75 31.1875 C 3.722656 34.539063 7.164063 36.542969 10.96875 36.542969 C 12.425781 36.542969 13.832031 36.246094 15.113281 35.675781 C 17.425781 37.761719 20.398438 39.007813 23.214844 39.007813 C 24.195313 39.007813 25.136719 38.863281 26.023438 38.578125 C 28.304688 40.4375 31.796875 41.132813 34.632813 41.132813 C 37.980469 41.132813 40.886719 40.257813 42.816406 38.726563 C 44.066406 39.300781 45.441406 39.597656 46.875 39.597656 C 50.46875 39.597656 54.175781 37.699219 56.203125 35.0625 C 57.332031 35.523438 58.523438 35.761719 59.726563 35.761719 C 63.648438 35.757813 67.292969 33.21875 69.007813 29.289063 C 70.3125 26.292969 70.371094 23.21875 69.164063 20.390625 Z M 69.164063 20.390625 "/>
<path style=" stroke:none;fill-rule:nonzero;fill:rgb(255,255,255);fill-opacity:1;" d="M 19.730469 24 L 16.199219 24 C 15.757813 22.066406 14.019531 20.621094 11.941406 20.621094 C 9.53125 20.621094 7.570313 22.5625 7.570313 24.953125 C 7.570313 27.34375 9.53125 29.289063 11.941406 29.289063 C 14.007813 29.289063 15.738281 27.855469 16.191406 25.941406 L 19.734375 25.941406 C 20.179688 25.945313 20.546875 26.304688 20.546875 26.75 L 20.546875 38.652344 C 21.1875 38.820313 21.84375 38.929688 22.507813 38.976563 L 22.507813 26.75 C 22.507813 25.234375 21.261719 24 19.730469 24 Z M 11.941406 27.488281 C 10.53125 27.488281 9.382813 26.351563 9.382813 24.953125 C 9.382813 23.554688 10.53125 22.417969 11.941406 22.417969 C 13.351563 22.417969 14.496094 23.554688 14.496094 24.953125 C 14.496094 26.351563 13.351563 27.488281 11.941406 27.488281 Z M 33.808594 24.859375 L 33.808594 20.8125 C 33.808594 19.292969 32.5625 18.058594 31.035156 18.058594 L 24.828125 18.058594 C 24.378906 18.058594 24.015625 17.699219 24.015625 17.253906 L 24.015625 2.617188 C 23.671875 2.867188 23.34375 3.132813 23.03125 3.417969 C 22.707031 3.339844 22.382813 3.285156 22.050781 3.25 L 22.050781 17.253906 C 22.050781 18.769531 23.296875 20.003906 24.828125 20.003906 L 31.035156 20.003906 C 31.484375 20.007813 31.847656 20.367188 31.847656 20.8125 L 31.847656 24.859375 C 29.910156 25.300781 28.457031 27.023438 28.457031 29.078125 C 28.457031 31.46875 30.417969 33.414063 32.828125 33.414063 C 35.238281 33.414063 37.199219 31.46875 37.199219 29.078125 C 37.199219 27.023438 35.746094 25.300781 33.808594 24.859375 Z M 32.828125 31.613281 C 31.417969 31.613281 30.273438 30.476563 30.273438 29.078125 C 30.273438 27.679688 31.417969 26.542969 32.828125 26.542969 C 34.238281 26.542969 35.382813 27.679688 35.382813 29.078125 C 35.382813 30.476563 34.238281 31.613281 32.828125 31.613281 Z M 60.554688 20.816406 C 60.554688 18.429688 58.59375 16.484375 56.183594 16.484375 C 53.773438 16.484375 51.8125 18.429688 51.8125 20.816406 C 51.8125 22.867188 53.257813 24.582031 55.183594 25.035156 L 55.183594 25.835938 C 55.183594 26.28125 54.820313 26.640625 54.375 26.640625 L 46.515625 26.640625 L 46.515625 12.695313 C 46.515625 11.179688 45.269531 9.945313 43.738281 9.945313 L 39.480469 9.945313 C 39.039063 8.015625 37.300781 6.566406 35.222656 6.566406 C 32.8125 6.566406 30.851563 8.511719 30.851563 10.902344 C 30.851563 13.292969 32.8125 15.234375 35.222656 15.234375 C 37.289063 15.234375 39.019531 13.804688 39.472656 11.890625 L 43.742188 11.890625 C 44.1875 11.890625 44.554688 12.25 44.554688 12.695313 L 44.554688 39.320313 C 45.1875 39.472656 45.84375 39.5625 46.515625 39.585938 L 46.515625 28.585938 L 54.375 28.585938 C 55.902344 28.585938 57.148438 27.351563 57.148438 25.835938 L 57.148438 25.042969 C 59.09375 24.605469 60.554688 22.878906 60.554688 20.816406 Z M 35.222656 13.4375 C 33.8125 13.4375 32.664063 12.300781 32.664063 10.902344 C 32.664063 9.503906 33.8125 8.367188 35.222656 8.367188 C 36.632813 8.367188 37.777344 9.503906 37.777344 10.902344 C 37.777344 12.300781 36.632813 13.4375 35.222656 13.4375 Z M 56.183594 23.351563 C 54.773438 23.351563 53.628906 22.214844 53.628906 20.816406 C 53.628906 19.421875 54.773438 18.28125 56.183594 18.28125 C 57.59375 18.28125 58.738281 19.421875 58.738281 20.816406 C 58.738281 22.214844 57.59375 23.351563 56.183594 23.351563 Z M 56.183594 23.351563 "/>
</g>
</svg>
