<?xml version="1.0" encoding="UTF-8"?>
<svg xmlns="http://www.w3.org/2000/svg" xmlns:xlink="http://www.w3.org/1999/xlink" width="70pt" height="41pt" viewBox="0 0 70 41" version="1.1">
<g id="surface1">
<path style=" stroke:none;fill-rule:nonzero;fill:rgb(19.215686%,46.27451%,73.72549%);fill-opacity:1;" d="M 69.027344 20.320313 C 67.757813 17.347656 65.140625 14.828125 61.75 13.285156 C 60.1875 8.078125 55.816406 2.867188 49.292969 2.867188 C 49.085938 2.867188 48.875 2.871094 48.664063 2.882813 C 45.941406 0.949219 43.300781 0.00390625 40.609375 0.00390625 C 38.988281 0.00390625 37.328125 0.359375 35.667969 1.0625 C 34.4375 0.425781 33.027344 0.0898438 31.515625 0.0898438 C 28.179688 0.0898438 25.015625 1.621094 23.058594 3.410156 C 22.429688 3.265625 21.789063 3.191406 21.144531 3.195313 C 16.164063 3.195313 11.230469 7.273438 9.894531 12.21875 C 5.605469 13.761719 2.46875 16.570313 0.996094 20.21875 C -0.429688 23.757813 -0.117188 27.71875 1.859375 31.078125 C 3.820313 34.417969 7.253906 36.414063 11.039063 36.414063 C 12.492188 36.414063 13.894531 36.117188 15.171875 35.550781 C 17.472656 37.628906 20.4375 38.867188 23.242188 38.867188 C 24.21875 38.867188 25.15625 38.726563 26.042969 38.441406 C 28.3125 40.292969 31.796875 40.988281 34.621094 40.988281 C 37.953125 40.988281 40.851563 40.117188 42.773438 38.589844 C 44.015625 39.160156 45.386719 39.457031 46.816406 39.457031 L 46.820313 39.457031 C 50.394531 39.457031 54.089844 37.566406 56.109375 34.941406 C 57.234375 35.398438 58.421875 35.632813 59.621094 35.632813 C 63.527344 35.632813 67.160156 33.101563 68.867188 29.1875 C 70.171875 26.203125 70.226563 23.136719 69.027344 20.320313 Z M 69.027344 20.320313 "/>
<path style=" stroke:none;fill-rule:nonzero;fill:rgb(100%,100%,100%);fill-opacity:1;" d="M 19.773438 23.917969 L 16.253906 23.917969 C 15.816406 21.996094 14.082031 20.550781 12.011719 20.550781 C 9.609375 20.550781 7.65625 22.488281 7.65625 24.871094 C 7.65625 27.25 9.609375 29.1875 12.011719 29.1875 C 14.070313 29.1875 15.792969 27.761719 16.246094 25.855469 L 19.773438 25.855469 C 20.222656 25.855469 20.582031 26.214844 20.585938 26.660156 L 20.585938 38.515625 C 21.222656 38.683594 21.878906 38.792969 22.539063 38.839844 L 22.539063 26.660156 C 22.539063 25.148438 21.296875 23.917969 19.773438 23.917969 Z M 12.011719 27.398438 C 10.605469 27.398438 9.464844 26.261719 9.464844 24.871094 C 9.464844 23.476563 10.605469 22.34375 12.011719 22.34375 C 13.414063 22.34375 14.558594 23.476563 14.558594 24.871094 C 14.558594 26.261719 13.414063 27.398438 12.011719 27.398438 Z M 33.796875 24.777344 L 33.796875 20.742188 C 33.796875 19.230469 32.558594 18 31.035156 18 L 24.851563 18 C 24.402344 18 24.039063 17.640625 24.039063 17.199219 L 24.039063 2.613281 C 23.699219 2.863281 23.371094 3.128906 23.058594 3.410156 C 22.738281 3.335938 22.414063 3.28125 22.085938 3.246094 L 22.085938 17.199219 C 22.085938 18.710938 23.324219 19.941406 24.851563 19.941406 L 31.035156 19.941406 C 31.480469 19.941406 31.84375 20.300781 31.84375 20.742188 L 31.84375 24.777344 C 29.914063 25.21875 28.46875 26.933594 28.46875 28.980469 C 28.46875 31.359375 30.421875 33.296875 32.820313 33.296875 C 35.222656 33.296875 37.175781 31.359375 37.175781 28.980469 C 37.175781 26.933594 35.730469 25.21875 33.796875 24.777344 Z M 32.820313 31.507813 C 31.417969 31.507813 30.273438 30.371094 30.273438 28.980469 C 30.273438 27.585938 31.417969 26.453125 32.820313 26.453125 C 34.226563 26.453125 35.367188 27.585938 35.367188 28.980469 C 35.367188 30.371094 34.226563 31.507813 32.820313 31.507813 Z M 60.445313 20.75 C 60.445313 18.367188 58.492188 16.433594 56.089844 16.433594 C 53.691406 16.433594 51.738281 18.367188 51.738281 20.75 C 51.738281 22.789063 53.175781 24.5 55.097656 24.949219 L 55.097656 25.75 C 55.097656 26.191406 54.734375 26.550781 54.289063 26.550781 L 46.457031 26.550781 L 46.457031 12.65625 C 46.457031 11.148438 45.21875 9.917969 43.691406 9.917969 L 39.449219 9.917969 C 39.011719 7.992188 37.277344 6.550781 35.207031 6.550781 C 32.804688 6.550781 30.851563 8.488281 30.851563 10.871094 C 30.851563 13.25 32.804688 15.1875 35.207031 15.1875 C 37.265625 15.1875 38.988281 13.761719 39.441406 11.855469 L 43.695313 11.855469 C 44.140625 11.855469 44.503906 12.214844 44.503906 12.65625 L 44.503906 39.183594 C 45.136719 39.335938 45.789063 39.425781 46.457031 39.449219 L 46.457031 28.488281 L 54.289063 28.488281 C 55.8125 28.488281 57.050781 27.261719 57.050781 25.75 L 57.050781 24.957031 C 58.992188 24.523438 60.445313 22.800781 60.445313 20.75 Z M 35.207031 13.394531 C 33.800781 13.394531 32.660156 12.261719 32.660156 10.871094 C 32.660156 9.476563 33.800781 8.34375 35.207031 8.34375 C 36.609375 8.34375 37.753906 9.476563 37.753906 10.871094 C 37.753906 12.261719 36.609375 13.394531 35.207031 13.394531 Z M 56.089844 23.273438 C 54.6875 23.273438 53.542969 22.140625 53.542969 20.75 C 53.542969 19.355469 54.6875 18.222656 56.089844 18.222656 C 57.496094 18.222656 58.636719 19.355469 58.636719 20.75 C 58.636719 22.140625 57.496094 23.273438 56.089844 23.273438 Z M 56.089844 23.273438 "/>
</g>
</svg>
