<?xml version="1.0" encoding="utf-8"?><svg version="1.1" xmlns="http://www.w3.org/2000/svg" xmlns:xlink="http://www.w3.org/1999/xlink" xmlns:xml="http://www.w3.org/XML/1998/namespace" width="70" height="70" viewBox="0, 0, 18, 18" id="ef5369a6-4f00-45dd-95b2-21948c5d6d41"><defs><linearGradient x1="9.83" y1="1.59" x2="9.83" y2="8.94" gradientUnits="userSpaceOnUse" id="a2854fe3-9b14-477e-8294-5e6b9a1e1b11"><stop offset="0%" stop-color="white" /><stop offset="56%" stop-color="#FBFBFB" /><stop offset="100%" stop-color="#F2F2F2" /></linearGradient><linearGradient x1="5.71" y1="7.13" x2="5.82" y2="17.51" gradientUnits="userSpaceOnUse" id="b36fdb3b-36cd-4376-b375-7b5dfcc211f3"><stop offset="0%" stop-color="#32D4F5" /><stop offset="32%" stop-color="#31D1F3" /><stop offset="53%" stop-color="#2EC9EB" /><stop offset="70%" stop-color="#29BADE" /><stop offset="86%" stop-color="#22A5CB" /><stop offset="100%" stop-color="#198AB3" /><stop offset="100%" stop-color="#198AB3" /></linearGradient></defs><title>Icon-machinelearning-168</title><path d="M9.83 0.52 C14.45 0.52 17.27 4 17.5 8.65 A1.19 1.19 0 0 1 16.31 9.9 h-13 A1.18 1.18 0 0 1 2.16 8.65 C2.39 4 5.21 0.52 9.83 0.52 Z" style="fill:#0078D4;" /><path d="M3.34 9.11 A0.39 0.39 0 0 1 3 8.69 C3.17 4.2 6.26 1.31 9.83 1.31 s6.66 2.89 6.88 7.38 a0.47 0.47 0 0 1 -0.11 0.3 a0.44 0.44 0 0 1 -0.29 0.12 Z" style="fill:url(#a2854fe3-9b14-477e-8294-5e6b9a1e1b11);" /><path d="M13.55 3.79 a5.62 5.62 0 0 0 -3.33 -1.42 V5 a3.07 3.07 0 0 1 1.55 0.66 Z" style="fill:#5EA0EF;" /><path d="M6.11 3.79 L7.89 5.62 A3 3 0 0 1 9.43 5 V2.37 A5.57 5.57 0 0 0 6.11 3.79 Z" style="fill:#0078D4;" /><path d="M12.33 6.2 A3.28 3.28 0 0 1 13 7.78 h2.52 a5.9 5.9 0 0 0 -1.38 -3.41 Z" style="fill:#5EA0EF;" /><path d="M7.33 6.2 L5.55 4.37 A5.84 5.84 0 0 0 4.17 7.78 H6.68 A3.39 3.39 0 0 1 7.33 6.2 Z" style="fill:#005BA1;" /><path d="M14.46 5.63 a0.42 0.42 0 0 0 -0.52 -0.23 L10.23 6.88 l0.29 0.74 l3.71 -1.48 A0.41 0.41 0 0 0 14.46 5.63 Z" style="fill:#005BA1;" /><circle cx="9.83" cy="7.42" r="1.08" style="fill:#767676;" /><path d="M10.73 17.43 H0.89 c-0.31 0 -0.5 -0.5 -0.32 -0.76 L4 11.73 A0.38 0.38 0 0 0 4 11.51 V8.24 A0.2 0.2 0 0 0 3.84 8 H3.65 a0.39 0.39 0 0 1 -0.39 -0.39 V7.48 a0.39 0.39 0 0 1 0.39 -0.39 H8 a0.38 0.38 0 0 1 0.39 0.39 v0.17 A0.38 0.38 0 0 1 8 8 H7.79 a0.2 0.2 0 0 0 -0.2 0.2 v3.27 a0.41 0.41 0 0 0 0.07 0.22 l3.4 4.94 C11.23 16.93 11.05 17.43 10.73 17.43 Z" style="fill:url(#b36fdb3b-36cd-4376-b375-7b5dfcc211f3);" /><path d="M2.19 16 l2.46 -3.6 a0.86 0.86 0 0 0 0.16 -0.51 V10.43 a0.29 0.29 0 0 1 0.29 -0.29 H6.5 a0.28 0.28 0 0 1 0.28 0.29 V12 a0.6 0.6 0 0 0 0.11 0.34 L9.41 16 a0.21 0.21 0 0 1 -0.18 0.33 H2.36 A0.21 0.21 0 0 1 2.19 16 Z" style="fill:white;" /></svg>