<?xml version="1.0" encoding="utf-8"?><svg version="1.1" xmlns="http://www.w3.org/2000/svg" xmlns:xlink="http://www.w3.org/1999/xlink" xmlns:xml="http://www.w3.org/XML/1998/namespace" width="70" height="70" viewBox="0, 0, 50, 50" id="FxSymbol0-085" class="" role="presentation" focusable="false"><g><title /><path d="M19 42 h12 v3 H19 z m3 8 h5 l3.638 -3 h-11.5 z" class="msportalfx-svg-c04" style="fill:#7A7A7A;" /><path d="M19.175 39.9 a0.41 0.41 0 0 1 -0.419 -0.392 c-0.172 -5.371 -3.152 -8.821 -6.033 -12.158 c-2.868 -3.321 -5.577 -6.458 -5.577 -11.29 C7.145 5.981 13.653 0.2 25 0.2 s17.855 5.781 17.855 15.86 c0 4.832 -2.709 7.969 -5.577 11.29 c-2.881 3.337 -5.861 6.788 -6.033 12.158 a0.41 0.41 0 0 1 -0.419 0.392 H19.175 z" class="msportalfx-svg-c01" style="fill:white;" /><path d="M24 1.187 c0 -0.573 -0.486 -1.041 -1.058 -1.003 C12.645 0.863 7.045 6.695 7.045 16.06 c0 9.825 11.272 12.876 11.61 23.451 a0.513 0.513 0 0 0 0.52 0.489 H23 a1 1 0 0 0 1 -1 V1.187 z" class="msportalfx-svg-c15" style="fill:#59B4D9;" /><path d="M26.045 1.187 c0 -0.573 0.486 -1.041 1.058 -1.003 C37.4 0.863 43 6.695 43 16.06 c0 9.825 -11.272 12.876 -11.61 23.451 a0.513 0.513 0 0 1 -0.52 0.489 h-3.825 a1 1 0 0 1 -1 -1 V1.187 z" class="msportalfx-svg-c16" style="fill:#3999C6;" /><path d="M31.092 15.776 l-0.895 -1.788 L25 16.586 l-5.197 -2.598 l-0.895 1.788 l5.472 2.736 h1.24 z m-0.2 16.1 l-0.895 -1.788 L25 32.586 l-4.997 -2.498 l-0.895 1.788 l5.272 2.636 h1.24 z M19.833 8.397 L19.201 6.5 l-4.34 1.447 l-3.4 -3.4 c-0.488 0.461 -0.931 0.961 -1.34 1.489 l3.325 3.325 L12 13.701 l1.897 0.633 l1.484 -4.452 l4.452 -1.485 z m19.608 -2.924 a13.23 13.23 0 0 0 -1.433 -1.396 l-3.869 3.869 l-4.34 -1.446 l-0.632 1.897 l4.452 1.484 l1.484 4.452 L37 13.701 l-1.447 -4.34 l3.888 -3.888 z m0.629 18.61 l-4.608 -1.769 l-0.393 -4.436 l-1.992 0.177 l0.414 4.674 L30 25.864 l1.337 1.488 l3.494 -3.139 l3.955 1.519 a34.31 34.31 0 0 0 1.284 -1.649 z M20 25.864 l-3.491 -3.136 l0.414 -4.674 l-1.992 -0.177 l-0.393 4.436 l-4.608 1.77 c0.407 0.56 0.838 1.108 1.285 1.649 l3.955 -1.519 l3.494 3.139 L20 25.864 z" class="msportalfx-svg-c01" style="fill:white;" /></g></svg>