<?xml version="1.0" encoding="utf-8"?><svg version="1.1" xmlns="http://www.w3.org/2000/svg" xmlns:xlink="http://www.w3.org/1999/xlink" xmlns:xml="http://www.w3.org/XML/1998/namespace" width="70" height="70" viewBox="0, 0, 18, 18" id="f78f5115-be88-4d44-b34e-3f6ea743125c"><defs><linearGradient x1="9" y1="19.13" x2="9" y2="-0.29" gradientUnits="userSpaceOnUse" id="b6c43bd9-e37f-4191-93c2-d3a7a84c505e"><stop offset="0%" stop-color="#006CBC" /><stop offset="16%" stop-color="#0078D2" /><stop offset="53%" stop-color="#0193FF" /><stop offset="82%" stop-color="#1F9FFF" /><stop offset="100%" stop-color="#29A4FF" /></linearGradient></defs><title>Icon-machinelearning-162</title><path d="M18 11.38 A4 4 0 0 0 14.49 7.5 A5.1 5.1 0 0 0 9.24 2.62 A5.25 5.25 0 0 0 4.22 6 A4.8 4.8 0 0 0 0 10.67 a4.9 4.9 0 0 0 5.07 4.71 l0.44 0 h8.21 a0.78 0.78 0 0 0 0.22 0 A4.1 4.1 0 0 0 18 11.38 Z" style="fill:url(#b6c43bd9-e37f-4191-93c2-d3a7a84c505e);" /><path d="M5.42 10.39 H4.54 a1.09 1.09 0 1 0 0 0.49 h0.88 a0.2 0.2 0 0 1 0.2 0.2 v4.3 h0.49 v-4.3 A0.69 0.69 0 0 0 5.42 10.39 Z m-1.95 0.88 a0.64 0.64 0 1 1 0.64 -0.64 A0.64 0.64 0 0 1 3.47 11.27 Z" style="fill:#ABDBFF;" /><path d="M8.94 10.61 v-1 a0.7 0.7 0 0 0 -0.7 -0.7 H6.69 a0.2 0.2 0 0 1 -0.2 -0.2 V3.4 l-0.23 0.12 L6 3.66 v5 a0.69 0.69 0 0 0 0.69 0.69 H8.24 a0.21 0.21 0 0 1 0.21 0.21 v1 a1.08 1.08 0 0 0 -0.85 1.06 a1.09 1.09 0 1 0 1.34 -1.06 Z m-0.25 1.7 h0 a0.64 0.64 0 1 1 0.64 -0.64 A0.64 0.64 0 0 1 8.69 12.31 Z" style="fill:#E5F3FF;" /><path d="M14.53 8.5 a1.09 1.09 0 0 0 -0.25 2.15 v0.2 a0.21 0.21 0 0 1 -0.21 0.21 h-2 V7.54 a0.69 0.69 0 0 0 -0.69 -0.69 H10.35 A1.08 1.08 0 0 0 9.29 6 a1.09 1.09 0 1 0 1.06 1.34 h1.07 a0.2 0.2 0 0 1 0.2 0.2 v7.84 h0.49 V11.55 h2 a0.7 0.7 0 0 0 0.7 -0.7 v-0.2 a1.09 1.09 0 0 0 0.85 -1.06 h0 A1.09 1.09 0 0 0 14.53 8.5 Z M9.29 7.73 h0 a0.64 0.64 0 1 1 0.64 -0.64 A0.64 0.64 0 0 1 9.29 7.73 Z m5.24 2.5 h0 a0.64 0.64 0 1 1 0.63 -0.64 A0.64 0.64 0 0 1 14.53 10.23 Z" style="fill:#ABDBFF;" /></svg>