<?xml version="1.0" encoding="UTF-8"?>
<svg xmlns="http://www.w3.org/2000/svg" xmlns:xlink="http://www.w3.org/1999/xlink" width="70pt" height="70pt" viewBox="0 0 70 70" version="1.1">
<g id="surface1">
<path style=" stroke:none;fill-rule:nonzero;fill:rgb(147,209,255);fill-opacity:1;" d="M 12.640625 7.777344 L 13.804688 7.777344 L 13.804688 46.667969 L 12.640625 46.667969 Z M 57.359375 7.777344 L 58.527344 7.777344 L 58.527344 46.667969 L 57.359375 46.667969 Z M 35 7.777344 L 36.167969 7.777344 L 36.167969 15.554688 L 35 15.554688 Z M 46.199219 7.777344 L 47.367188 7.777344 L 47.367188 15.554688 L 46.199219 15.554688 Z M 23.839844 7.777344 L 25.003906 7.777344 L 25.003906 15.554688 L 23.839844 15.554688 Z M 23.839844 7.777344 "/>
<path style=" stroke:none;fill-rule:nonzero;fill:rgb(65,174,255);fill-opacity:1;" d="M 0 0 L 0 50.554688 L 12.484375 50.554688 L 14.464844 46.667969 L 3.890625 46.667969 L 3.890625 7.777344 L 66.109375 7.777344 L 66.109375 46.667969 L 53.316406 46.667969 L 55.261719 50.554688 L 70 50.554688 L 70 0 Z M 0 0 "/>
<path style=" stroke:none;fill-rule:nonzero;fill:rgb(57,171,255);fill-opacity:1;" d="M 45.539063 26.988281 C 46.445313 27.253906 47.421875 27.085938 48.183594 26.527344 C 48.945313 25.972656 49.40625 25.09375 49.429688 24.148438 L 49.429688 22.359375 C 49.0625 20.699219 47.503906 19.578125 45.8125 19.753906 L 23.332031 19.753906 C 22.46875 19.5625 21.566406 19.730469 20.828125 20.222656 C 20.09375 20.714844 19.59375 21.488281 19.445313 22.359375 L 19.445313 24.34375 C 19.507813 25.257813 19.988281 26.09375 20.746094 26.609375 C 21.507813 27.125 22.457031 27.265625 23.332031 26.988281 L 23.332031 38.890625 L 10.8125 63 L 15.554688 70 L 52.5 70 L 57.359375 63 L 45.539063 38.890625 Z M 45.539063 26.988281 "/>
<path style=" stroke:none;fill-rule:nonzero;fill:rgb(205,233,255);fill-opacity:1;" d="M 46.667969 53.707031 L 31.148438 53.707031 L 25.550781 62.921875 L 17.964844 62.921875 L 31.265625 39.160156 L 31.265625 27.027344 L 38.964844 27.027344 L 38.964844 39.160156 Z M 46.667969 53.707031 "/>
<path style=" stroke:none;fill-rule:nonzero;fill:rgb(147,209,255);fill-opacity:1;" d="M 3.890625 15.59375 L 66.109375 15.59375 L 66.109375 16.761719 L 3.890625 16.761719 Z M 16.957031 27.84375 L 3.890625 27.84375 L 3.890625 26.679688 L 15.828125 26.679688 Z M 66.109375 27.84375 L 51.566406 27.84375 L 52.8125 26.679688 L 66.109375 26.679688 Z M 3.890625 37.757813 L 19.445313 37.742188 L 19.445313 38.910156 L 3.890625 38.925781 Z M 49.484375 38.882813 L 49.484375 37.714844 L 66.089844 37.734375 L 66.089844 38.902344 Z M 49.484375 38.882813 "/>
</g>
</svg>
