<?xml version="1.0" encoding="UTF-8"?>
<svg xmlns="http://www.w3.org/2000/svg" xmlns:xlink="http://www.w3.org/1999/xlink" width="70pt" height="70pt" viewBox="0 0 70 70" version="1.1">
<defs>
<linearGradient id="linear0" gradientUnits="userSpaceOnUse" x1="9" y1="19.13" x2="9" y2="-0.29" gradientTransform="matrix(3.888889,0,0,3.888889,0,0)">
<stop offset="0" style="stop-color:rgb(0,108,188);stop-opacity:1;"/>
<stop offset="0.16" style="stop-color:rgb(0,120,210);stop-opacity:1;"/>
<stop offset="0.53" style="stop-color:rgb(1,147,255);stop-opacity:1;"/>
<stop offset="0.82" style="stop-color:rgb(31,159,255);stop-opacity:1;"/>
<stop offset="1" style="stop-color:rgb(41,164,255);stop-opacity:1;"/>
</linearGradient>
</defs>
<g id="surface1">
<path style=" stroke:none;fill-rule:nonzero;fill:url(#linear0);" d="M 70 44.253906 C 69.828125 36.535156 64.015625 30.109375 56.351563 29.167969 C 55.886719 18.320313 46.785156 9.859375 35.933594 10.1875 C 27.300781 10 19.484375 15.265625 16.410156 23.332031 C 7.179688 24.453125 0.183594 32.199219 0 41.496094 C 0.402344 51.992188 9.21875 60.183594 19.714844 59.8125 L 53.355469 59.8125 C 53.640625 59.851563 53.925781 59.851563 54.210938 59.8125 C 62.808594 59.730469 69.789063 52.847656 70 44.253906 Z M 70 44.253906 "/>
<path style=" stroke:none;fill-rule:nonzero;fill:rgb(171,219,255);fill-opacity:1;" d="M 21.078125 40.40625 L 17.65625 40.40625 C 17.171875 38.304688 15.1875 36.902344 13.046875 37.148438 C 10.902344 37.390625 9.285156 39.203125 9.285156 41.359375 C 9.285156 43.515625 10.902344 45.328125 13.046875 45.570313 C 15.1875 45.8125 17.171875 44.410156 17.65625 42.3125 L 21.078125 42.3125 C 21.507813 42.3125 21.855469 42.660156 21.855469 43.089844 L 21.855469 59.8125 L 23.761719 59.8125 L 23.761719 43.089844 C 23.761719 41.605469 22.558594 40.40625 21.078125 40.40625 Z M 13.496094 43.828125 C 12.121094 43.828125 11.003906 42.714844 11.003906 41.339844 C 11.003906 39.964844 12.121094 38.851563 13.496094 38.851563 C 14.867188 38.851563 15.984375 39.964844 15.984375 41.339844 C 15.984375 42.714844 14.867188 43.828125 13.496094 43.828125 Z M 13.496094 43.828125 "/>
<path style=" stroke:none;fill-rule:nonzero;fill:rgb(229,243,255);fill-opacity:1;" d="M 34.765625 41.261719 L 34.765625 37.371094 C 34.765625 35.867188 33.546875 34.648438 32.042969 34.648438 L 26.015625 34.648438 C 25.585938 34.648438 25.238281 34.300781 25.238281 33.871094 L 25.238281 13.222656 L 24.34375 13.6875 L 23.332031 14.234375 L 23.332031 33.679688 C 23.332031 35.160156 24.535156 36.359375 26.015625 36.359375 L 32.042969 36.359375 C 32.496094 36.359375 32.859375 36.726563 32.859375 37.179688 L 32.859375 41.066406 C 30.925781 41.488281 29.546875 43.207031 29.554688 45.1875 C 29.554688 47.402344 31.257813 49.246094 33.464844 49.417969 C 35.671875 49.589844 37.640625 48.035156 37.984375 45.84375 C 38.324219 43.65625 36.921875 41.574219 34.765625 41.066406 Z M 33.792969 47.871094 C 32.417969 47.871094 31.304688 46.757813 31.304688 45.382813 C 31.304688 44.007813 32.417969 42.894531 33.792969 42.894531 C 35.167969 42.894531 36.285156 44.007813 36.285156 45.382813 C 36.285156 46.757813 35.167969 47.871094 33.792969 47.871094 Z M 33.792969 47.871094 "/>
<path style=" stroke:none;fill-rule:nonzero;fill:rgb(171,219,255);fill-opacity:1;" d="M 56.503906 33.054688 C 54.359375 33.0625 52.558594 34.671875 52.308594 36.804688 C 52.0625 38.9375 53.445313 40.917969 55.535156 41.417969 L 55.535156 42.195313 C 55.535156 42.644531 55.167969 43.011719 54.714844 43.011719 L 46.9375 43.011719 L 46.9375 29.320313 C 46.9375 27.839844 45.738281 26.640625 44.253906 26.640625 L 40.25 26.640625 C 39.828125 24.703125 38.109375 23.324219 36.128906 23.332031 C 33.914063 23.332031 32.070313 25.035156 31.898438 27.242188 C 31.726563 29.453125 33.28125 31.417969 35.472656 31.761719 C 37.660156 32.101563 39.742188 30.699219 40.25 28.542969 L 44.410156 28.542969 C 44.839844 28.542969 45.1875 28.894531 45.1875 29.320313 L 45.1875 59.8125 L 47.09375 59.8125 L 47.09375 44.917969 L 54.871094 44.917969 C 56.375 44.917969 57.59375 43.699219 57.59375 42.195313 L 57.59375 41.417969 C 59.523438 40.980469 60.894531 39.269531 60.898438 37.292969 C 60.902344 36.144531 60.433594 35.039063 59.605469 34.242188 C 58.773438 33.441406 57.65625 33.011719 56.503906 33.054688 Z M 36.128906 30.0625 C 34.753906 30.0625 33.640625 28.945313 33.640625 27.570313 C 33.640625 26.199219 34.753906 25.082031 36.128906 25.082031 C 37.503906 25.082031 38.617188 26.199219 38.617188 27.570313 C 38.617188 28.945313 37.503906 30.0625 36.128906 30.0625 Z M 56.503906 39.785156 C 55.496094 39.800781 54.574219 39.203125 54.179688 38.273438 C 53.78125 37.34375 53.984375 36.269531 54.691406 35.546875 C 55.402344 34.828125 56.476563 34.609375 57.410156 34.992188 C 58.34375 35.375 58.957031 36.285156 58.957031 37.292969 C 58.957031 38.652344 57.863281 39.761719 56.503906 39.785156 Z M 56.503906 39.785156 "/>
</g>
</svg>
