<?xml version="1.0" encoding="UTF-8"?>
<svg xmlns="http://www.w3.org/2000/svg" xmlns:xlink="http://www.w3.org/1999/xlink" width="70pt" height="70pt" viewBox="0 0 70 70" version="1.1">
<defs>
<linearGradient id="linear0" gradientUnits="userSpaceOnUse" x1="5.71" y1="7.1" x2="5.82" y2="17.48" gradientTransform="matrix(3.888889,0,0,3.888889,0,0)">
<stop offset="0" style="stop-color:rgb(79,180,255);stop-opacity:1;"/>
<stop offset="0.32" style="stop-color:rgb(73,177,255);stop-opacity:1;"/>
<stop offset="0.53" style="stop-color:rgb(61,172,255);stop-opacity:1;"/>
<stop offset="0.7" style="stop-color:rgb(37,162,255);stop-opacity:1;"/>
<stop offset="0.86" style="stop-color:rgb(3,148,255);stop-opacity:1;"/>
<stop offset="1" style="stop-color:rgb(0,124,216);stop-opacity:1;"/>
<stop offset="1" style="stop-color:rgb(0,124,216);stop-opacity:1;"/>
</linearGradient>
</defs>
<g id="surface1">
<path style=" stroke:none;fill-rule:nonzero;fill:rgb(205,233,255);fill-opacity:1;" d="M 23.332031 2.332031 L 66.578125 2.332031 C 67.34375 2.308594 67.992188 2.890625 68.054688 3.65625 L 68.054688 37.0625 C 68.035156 37.433594 67.867188 37.78125 67.589844 38.027344 C 67.3125 38.277344 66.949219 38.40625 66.578125 38.382813 L 23.332031 38.382813 C 22.960938 38.40625 22.597656 38.277344 22.320313 38.027344 C 22.042969 37.78125 21.875 37.433594 21.855469 37.0625 L 21.855469 3.65625 C 21.917969 2.890625 22.566406 2.308594 23.332031 2.332031 Z M 23.332031 2.332031 "/>
<path style=" stroke:none;fill-rule:nonzero;fill:rgb(41,164,255);fill-opacity:1;" d="M 23.101563 2.332031 L 66.65625 2.332031 C 67.378906 2.308594 67.992188 2.855469 68.054688 3.578125 L 68.054688 8.632813 L 21.699219 8.632813 L 21.699219 3.578125 C 21.761719 2.855469 22.375 2.308594 23.101563 2.332031 Z M 23.101563 2.332031 "/>
<path style=" stroke:none;fill-rule:nonzero;fill:rgb(95,187,255);fill-opacity:1;" d="M 21.699219 8.632813 L 37.179688 8.632813 L 37.179688 23.527344 L 21.699219 23.527344 Z M 21.699219 8.632813 "/>
<path style=" stroke:none;fill-rule:nonzero;fill:rgb(0,108,188);fill-opacity:1;" d="M 37.101563 8.632813 L 52.578125 8.632813 L 52.578125 23.527344 L 37.101563 23.527344 Z M 37.101563 8.632813 "/>
<path style=" stroke:none;fill-rule:nonzero;fill:rgb(95,187,255);fill-opacity:1;" d="M 52.578125 8.632813 L 68.054688 8.632813 L 68.054688 23.527344 L 52.578125 23.527344 Z M 52.578125 8.632813 "/>
<path style=" stroke:none;fill-rule:nonzero;fill:rgb(0,108,188);fill-opacity:1;" d="M 65.839844 38.539063 L 52.578125 38.539063 L 52.578125 23.488281 L 68.132813 23.488281 L 68.132813 36.167969 C 68.179688 36.792969 67.953125 37.414063 67.515625 37.863281 C 67.078125 38.316406 66.46875 38.5625 65.839844 38.539063 Z M 65.839844 38.539063 "/>
<path style=" stroke:none;fill-rule:nonzero;fill:rgb(95,187,255);fill-opacity:1;" d="M 52.695313 38.382813 L 37.214844 38.382813 L 37.214844 23.488281 L 52.695313 23.488281 Z M 52.695313 38.382813 "/>
<path style=" stroke:none;fill-rule:nonzero;fill:rgb(0,108,188);fill-opacity:1;" d="M 37.214844 38.382813 L 21.738281 38.382813 L 21.738281 23.488281 L 37.214844 23.488281 Z M 37.214844 38.382813 "/>
<path style=" stroke:none;fill-rule:nonzero;fill:url(#linear0);" d="M 41.726563 67.667969 L 3.460938 67.667969 C 2.253906 67.667969 1.515625 65.722656 2.214844 64.710938 L 15.398438 45.265625 C 15.507813 45.0625 15.5625 44.835938 15.554688 44.605469 L 15.554688 31.890625 C 15.5625 31.511719 15.300781 31.1875 14.933594 31.109375 L 14.195313 31.109375 C 13.355469 31.109375 12.679688 30.433594 12.679688 29.59375 L 12.679688 28.933594 C 12.699219 28.109375 13.371094 27.457031 14.195313 27.457031 L 31.109375 27.457031 C 31.507813 27.445313 31.894531 27.597656 32.179688 27.875 C 32.46875 28.152344 32.628906 28.535156 32.628906 28.933594 L 32.628906 29.632813 C 32.628906 30.03125 32.46875 30.414063 32.179688 30.691406 C 31.894531 30.96875 31.507813 31.121094 31.109375 31.109375 L 30.292969 31.109375 C 29.878906 31.109375 29.539063 31.4375 29.515625 31.851563 L 29.515625 44.605469 C 29.523438 44.910156 29.617188 45.207031 29.789063 45.460938 L 43.011719 64.671875 C 43.671875 65.722656 42.972656 67.667969 41.726563 67.667969 Z M 41.726563 67.667969 "/>
<path style=" stroke:none;fill-rule:nonzero;fill:rgb(255,255,255);fill-opacity:1;" d="M 8.515625 62.222656 L 18.082031 48.261719 C 18.496094 47.683594 18.714844 46.988281 18.707031 46.277344 L 18.707031 40.445313 C 18.707031 39.820313 19.210938 39.316406 19.832031 39.316406 L 25.277344 39.316406 C 25.574219 39.316406 25.855469 39.4375 26.0625 39.648438 C 26.265625 39.863281 26.378906 40.148438 26.367188 40.445313 L 26.367188 46.667969 C 26.371094 47.140625 26.519531 47.601563 26.792969 47.988281 L 36.59375 62.222656 C 36.796875 62.476563 36.828125 62.824219 36.675781 63.113281 C 36.523438 63.398438 36.21875 63.570313 35.894531 63.542969 L 9.179688 63.542969 C 8.863281 63.550781 8.570313 63.375 8.425781 63.09375 C 8.285156 62.808594 8.320313 62.472656 8.515625 62.222656 Z M 8.515625 62.222656 "/>
</g>
</svg>
