<?xml version="1.0" encoding="UTF-8"?>
<svg xmlns="http://www.w3.org/2000/svg" xmlns:xlink="http://www.w3.org/1999/xlink" width="70pt" height="70pt" viewBox="0 0 70 70" version="1.1">
<g id="surface1">
<path style=" stroke:none;fill-rule:nonzero;fill:rgb(62.745098%,63.137255%,63.529412%);fill-opacity:1;" d="M 11.472656 16.351563 L 12.160156 15.664063 L 16.226563 19.734375 L 15.542969 20.425781 Z M 58.527344 37.839844 L 65.023438 37.839844 L 65.023438 39.003906 L 58.527344 39.003906 Z M 58.742188 27.390625 L 63.796875 25.59375 L 64.109375 26.472656 L 59.054688 28.269531 Z M 45.273438 12.765625 L 46.867188 7.320313 L 47.800781 7.589844 L 46.207031 13.039063 Z M 21.039063 9.09375 L 21.820313 8.660156 L 24.09375 12.78125 L 23.308594 13.210938 Z M 33.132813 5.832031 L 34.300781 5.832031 L 34.300781 12.328125 L 33.132813 12.328125 Z M 33.132813 5.832031 "/>
<path style=" stroke:none;fill-rule:nonzero;fill:rgb(62.745098%,63.137255%,63.529412%);fill-opacity:1;" d="M 11.472656 16.351563 L 12.160156 15.664063 L 16.226563 19.734375 L 15.542969 20.425781 Z M 58.527344 37.839844 L 65.023438 37.839844 L 65.023438 39.003906 L 58.527344 39.003906 Z M 58.742188 27.390625 L 63.796875 25.59375 L 64.109375 26.472656 L 59.054688 28.269531 Z M 45.273438 12.765625 L 46.867188 7.320313 L 47.800781 7.589844 L 46.207031 13.039063 Z M 21.039063 9.09375 L 21.820313 8.660156 L 24.09375 12.78125 L 23.308594 13.210938 Z M 41.765625 28 C 40.054688 30.023438 39.277344 30.214844 35.351563 34.765625 C 37.5625 35.746094 39.363281 37.464844 40.445313 39.628906 C 43.515625 36.050781 44.917969 35.078125 46.9375 32.707031 L 58.605469 13.921875 Z M 32.433594 41.261719 L 35.390625 46.160156 C 36.925781 45.339844 37.882813 43.742188 37.878906 42 C 37.808594 40.632813 37.191406 39.351563 36.167969 38.445313 C 35.144531 37.539063 33.796875 37.082031 32.433594 37.179688 Z M 32.433594 41.261719 "/>
<path style=" stroke:none;fill-rule:nonzero;fill:rgb(62.745098%,63.137255%,63.529412%);fill-opacity:1;" d="M 59.460938 10.035156 C 52.851563 3.597656 43.992188 0 34.765625 0 C 15.597656 0 0.0429688 15.519531 0 34.6875 L 0 39.628906 C 0.5 43.160156 3.1875 45.988281 6.6875 46.667969 L 8.554688 43.359375 C 7.152344 43.558594 5.734375 43.121094 4.6875 42.167969 C 3.640625 41.210938 3.078125 39.835938 3.148438 38.421875 L 3.148438 32.199219 C 3.148438 32.199219 3.929688 28.621094 4.277344 27.339844 C 7.398438 12.90625 20.234375 2.652344 35 2.800781 C 52.554688 2.671875 66.894531 16.785156 67.042969 34.339844 L 67.042969 38.460938 C 67.042969 43.476563 63.738281 43.515625 60.472656 43.515625 L 40.5625 43.515625 C 40.132813 46.667969 38.890625 46.667969 38.890625 46.667969 L 62.496094 46.667969 C 64.480469 46.972656 66.496094 46.351563 67.960938 44.976563 C 69.425781 43.601563 70.179688 41.628906 70 39.628906 L 70 34.339844 C 69.945313 25.140625 66.140625 16.359375 59.460938 10.035156 Z M 59.460938 10.035156 "/>
<path style=" stroke:none;fill-rule:nonzero;fill:rgb(34.901961%,70.588235%,85.098039%);fill-opacity:1;" d="M 31.109375 42.777344 L 31.109375 32.277344 L 31.5 32.277344 C 33.132813 32.199219 33.832031 31.109375 33.832031 28.777344 C 33.96875 27.890625 33.660156 26.996094 33.007813 26.382813 C 32.355469 25.769531 31.441406 25.515625 30.566406 25.707031 L 11.121094 25.707031 C 10.359375 25.683594 9.621094 25.980469 9.089844 26.527344 C 8.554688 27.074219 8.277344 27.820313 8.320313 28.582031 L 8.320313 29.59375 C 8.355469 30.398438 8.734375 31.148438 9.359375 31.65625 C 9.984375 32.160156 10.796875 32.375 11.589844 32.238281 L 11.589844 42.777344 L 0.3125 63.777344 L 4.199219 70 L 36.710938 70 L 41.300781 63.777344 Z M 17.851563 55.222656 L 12.949219 63.429688 L 6.261719 63.429688 L 17.929688 42.777344 L 17.929688 32.277344 L 24.578125 32.277344 L 24.578125 42.777344 L 31.5 55.222656 Z M 17.851563 55.222656 "/>
<path style=" stroke:none;fill-rule:nonzero;fill:rgb(83.529412%,92.54902%,96.470588%);fill-opacity:1;" d="M 17.851563 55.222656 L 12.949219 63.429688 L 6.261719 63.429688 L 18.042969 42.777344 L 18.042969 32.277344 L 24.578125 32.277344 L 24.578125 42.777344 L 31.5 55.222656 Z M 17.851563 55.222656 "/>
</g>
</svg>
