<?xml version="1.0" encoding="UTF-8"?>
<svg xmlns="http://www.w3.org/2000/svg" xmlns:xlink="http://www.w3.org/1999/xlink" width="70pt" height="70pt" viewBox="0 0 70 70" version="1.1">
<defs>
<linearGradient id="linear0" gradientUnits="userSpaceOnUse" x1="5.77" y1="7.08" x2="5.88" y2="17.58" gradientTransform="matrix(3.888889,0,0,3.888889,0,0)">
<stop offset="0" style="stop-color:rgb(19.607843%,83.137255%,96.078431%);stop-opacity:1;"/>
<stop offset="0.32" style="stop-color:rgb(19.215686%,81.960784%,95.294118%);stop-opacity:1;"/>
<stop offset="0.53" style="stop-color:rgb(18.039216%,78.823529%,92.156863%);stop-opacity:1;"/>
<stop offset="0.7" style="stop-color:rgb(16.078431%,72.941176%,87.058824%);stop-opacity:1;"/>
<stop offset="0.86" style="stop-color:rgb(13.333333%,64.705882%,79.607843%);stop-opacity:1;"/>
<stop offset="1" style="stop-color:rgb(9.803922%,54.117647%,70.196078%);stop-opacity:1;"/>
<stop offset="1" style="stop-color:rgb(9.803922%,54.117647%,70.196078%);stop-opacity:1;"/>
</linearGradient>
</defs>
<g id="surface1">
<path style=" stroke:none;fill-rule:nonzero;fill:rgb(94.901961%,94.901961%,94.901961%);fill-opacity:1;" d="M 58.644531 45.304688 C 48.035156 53.542969 32.757813 51.617188 24.519531 41.007813 C 16.28125 30.398438 18.207031 15.121094 28.816406 6.882813 L 29.089844 6.6875 C 39.753906 -1.472656 55.011719 0.554688 63.175781 11.21875 C 71.335938 21.882813 69.308594 37.144531 58.644531 45.304688 "/>
<path style=" stroke:none;fill-rule:nonzero;fill:rgb(0%,47.058824%,83.137255%);fill-opacity:1;" d="M 63.15625 11.433594 C 55.0625 0.714844 39.820313 -1.425781 29.089844 6.648438 L 28.816406 6.84375 C 20.472656 13.199219 17.136719 24.179688 20.535156 34.101563 C 23.933594 44.023438 33.300781 50.652344 43.789063 50.554688 C 49.171875 50.574219 54.40625 48.78125 58.644531 45.460938 C 69.210938 37.265625 71.21875 22.097656 63.15625 11.433594 Z M 22.59375 24.539063 C 22.820313 21.644531 23.628906 18.828125 24.964844 16.253906 L 30.839844 16.253906 C 30.1875 18.972656 29.8125 21.746094 29.710938 24.539063 Z M 34.261719 16.253906 L 42.351563 16.253906 L 42.351563 24.539063 L 32.859375 24.539063 C 32.957031 21.738281 33.375 18.960938 34.105469 16.253906 Z M 45.460938 16.253906 L 53.550781 16.253906 C 54.28125 18.960938 54.699219 21.738281 54.792969 24.539063 L 45.460938 24.539063 Z M 42.351563 27.648438 L 42.351563 35.894531 L 34.105469 35.894531 C 33.371094 33.203125 32.953125 30.4375 32.859375 27.648438 Z M 45.460938 27.648438 L 54.792969 27.648438 C 54.699219 30.4375 54.285156 33.203125 53.550781 35.894531 L 45.304688 35.894531 Z M 57.945313 27.648438 L 65.023438 27.648438 C 64.796875 30.523438 64.003906 33.328125 62.6875 35.894531 L 56.621094 35.894531 C 57.304688 33.195313 57.695313 30.433594 57.789063 27.648438 Z M 57.945313 24.539063 C 57.851563 21.746094 57.460938 18.96875 56.777344 16.253906 L 62.6875 16.253906 C 64.027344 18.828125 64.824219 21.648438 65.023438 24.539063 Z M 60.707031 13.144531 L 55.6875 13.144531 C 54.898438 10.824219 53.742188 8.644531 52.265625 6.6875 C 55.53125 8.105469 58.378906 10.324219 60.550781 13.144531 Z M 52.460938 13.144531 L 45.460938 13.144531 L 45.460938 5.367188 C 48.742188 6.871094 51.230469 9.699219 52.304688 13.144531 Z M 42.351563 5.367188 L 42.351563 13.144531 L 35.195313 13.144531 C 36.265625 9.609375 38.820313 6.714844 42.195313 5.210938 Z M 30.761719 9.332031 C 32.082031 8.324219 33.519531 7.476563 35.039063 6.804688 C 33.570313 8.78125 32.414063 10.972656 31.617188 13.300781 L 26.949219 13.300781 C 28.027344 11.804688 29.3125 10.46875 30.761719 9.332031 Z M 22.59375 27.648438 L 29.710938 27.648438 C 29.8125 30.429688 30.191406 33.191406 30.839844 35.894531 L 24.964844 35.894531 C 23.597656 33.347656 22.789063 30.535156 22.59375 27.648438 Z M 26.988281 39.082031 L 31.8125 39.082031 C 32.609375 41.398438 33.765625 43.578125 35.234375 45.539063 C 31.980469 44.125 29.140625 41.902344 26.988281 39.082031 Z M 35.195313 39.082031 L 42.195313 39.082031 L 42.195313 46.859375 C 38.8125 45.351563 36.253906 42.4375 35.195313 38.890625 Z M 45.304688 46.859375 L 45.304688 38.890625 L 52.304688 38.890625 C 51.273438 42.484375 48.714844 45.441406 45.304688 46.976563 Z M 56.738281 42.777344 C 55.359375 43.859375 53.84375 44.746094 52.226563 45.421875 C 53.730469 43.449219 54.902344 41.242188 55.6875 38.890625 L 60.550781 38.890625 C 59.445313 40.335938 58.164063 41.644531 56.738281 42.777344 Z M 56.738281 42.777344 "/>
<path style=" stroke:none;fill-rule:nonzero;fill:url(#linear0);" d="M 42.195313 68.054688 L 3.460938 68.054688 C 2.253906 68.054688 1.515625 66.070313 2.214844 65.0625 L 15.554688 45.617188 C 15.738281 45.355469 15.832031 45.042969 15.828125 44.722656 L 15.828125 31.890625 C 15.828125 31.460938 15.480469 31.109375 15.050781 31.109375 L 14.351563 31.109375 C 13.511719 31.109375 12.832031 30.433594 12.832031 29.59375 L 12.832031 28.894531 C 12.789063 28.464844 12.929688 28.039063 13.21875 27.71875 C 13.507813 27.402344 13.917969 27.21875 14.351563 27.222656 L 31.34375 27.222656 C 32.1875 27.242188 32.863281 27.933594 32.859375 28.777344 L 32.859375 29.476563 C 32.882813 29.898438 32.734375 30.308594 32.449219 30.613281 C 32.160156 30.921875 31.765625 31.101563 31.34375 31.109375 L 30.605469 31.109375 C 30.402344 31.109375 30.207031 31.195313 30.070313 31.339844 C 29.929688 31.488281 29.855469 31.6875 29.867188 31.890625 L 29.867188 44.761719 C 29.855469 45.070313 29.949219 45.371094 30.140625 45.617188 L 43.476563 65.0625 C 44.179688 66.109375 43.4375 68.054688 42.195313 68.054688 Z M 42.195313 68.054688 "/>
<path style=" stroke:none;fill-rule:nonzero;fill:rgb(100%,100%,100%);fill-opacity:1;" d="M 8.710938 62.921875 L 18.316406 48.921875 C 18.734375 48.332031 18.953125 47.625 18.9375 46.898438 L 18.9375 41.261719 C 18.960938 40.652344 19.457031 40.171875 20.066406 40.171875 L 25.511719 40.171875 C 26.117188 40.171875 26.617188 40.652344 26.640625 41.261719 L 26.640625 47.289063 C 26.625 47.773438 26.761719 48.246094 27.027344 48.648438 L 36.867188 62.921875 C 37.035156 63.183594 37.050781 63.515625 36.90625 63.789063 C 36.761719 64.0625 36.476563 64.238281 36.167969 64.246094 L 9.410156 64.246094 C 9.101563 64.238281 8.816406 64.0625 8.671875 63.789063 C 8.527344 63.515625 8.542969 63.183594 8.710938 62.921875 Z M 8.710938 62.921875 "/>
</g>
</svg>
