<?xml version="1.0" encoding="UTF-8"?>
<svg xmlns="http://www.w3.org/2000/svg" xmlns:xlink="http://www.w3.org/1999/xlink" width="70pt" height="70pt" viewBox="0 0 70 70" version="1.1">
<g id="surface1">
<path style=" stroke:none;fill-rule:nonzero;fill:rgb(57,171,255);fill-opacity:1;" d="M 31.816406 35 C 31.816406 36.757813 30.394531 38.183594 28.636719 38.183594 C 26.878906 38.183594 25.453125 36.757813 25.453125 35 C 25.453125 33.242188 26.878906 31.816406 28.636719 31.816406 C 30.394531 31.816406 31.816406 33.242188 31.816406 35 Z M 31.816406 35 "/>
<path style=" stroke:none;fill-rule:nonzero;fill:rgb(57,171,255);fill-opacity:1;" d="M 44.546875 35 C 44.546875 36.757813 43.121094 38.183594 41.363281 38.183594 C 39.605469 38.183594 38.183594 36.757813 38.183594 35 C 38.183594 33.242188 39.605469 31.816406 41.363281 31.816406 C 43.121094 31.816406 44.546875 33.242188 44.546875 35 Z M 44.546875 35 "/>
<path style=" stroke:none;fill-rule:nonzero;fill:rgb(57,171,255);fill-opacity:1;" d="M 15.910156 26.25 L 19.886719 26.25 L 19.886719 54.089844 L 15.910156 54.089844 Z M 15.910156 26.25 "/>
<path style=" stroke:none;fill-rule:nonzero;fill:rgb(57,171,255);fill-opacity:1;" d="M 15.910156 50.113281 L 43.75 50.113281 L 43.75 54.089844 L 15.910156 54.089844 Z M 50.113281 15.910156 L 54.089844 15.910156 L 54.089844 43.75 L 50.113281 43.75 Z M 50.113281 15.910156 "/>
<path style=" stroke:none;fill-rule:nonzero;fill:rgb(57,171,255);fill-opacity:1;" d="M 26.25 15.910156 L 54.089844 15.910156 L 54.089844 19.886719 L 26.25 19.886719 Z M 26.25 15.910156 "/>
<path style=" stroke:none;fill-rule:nonzero;fill:rgb(57,171,255);fill-opacity:1;" d="M 35 0 C 15.671875 0 0 15.671875 0 35 C 0 54.328125 15.671875 70 35 70 C 54.328125 70 70 54.328125 70 35 C 70 15.671875 54.328125 0 35 0 Z M 35 65.226563 C 18.304688 65.226563 4.773438 51.695313 4.773438 35 C 4.773438 18.304688 18.304688 4.773438 35 4.773438 C 51.695313 4.773438 65.226563 18.304688 65.226563 35 C 65.226563 51.695313 51.695313 65.226563 35 65.226563 Z M 35 65.226563 "/>
</g>
</svg>
