<?xml version="1.0" encoding="utf-8"?><svg version="1.1" xmlns="http://www.w3.org/2000/svg" xmlns:xlink="http://www.w3.org/1999/xlink" xmlns:xml="http://www.w3.org/XML/1998/namespace" width="70" height="70" viewBox="0, 0, 18, 18"><defs><linearGradient x1="9" x2="9" y2="18" gradientUnits="userSpaceOnUse" id="bcf06cd3-a4b8-4fd5-87ad-fd0a708c782b"><stop offset="0%" stop-color="#5EA0EF" /><stop offset="100%" stop-color="#0078D4" /></linearGradient><linearGradient x1="-998.057" y1="-213.109" x2="-1002.698" y2="-204.987" gradientUnits="userSpaceOnUse" gradientTransform="translate(-195.271, 1006.992) rotate(90, 0, 0)" id="ab8b109c-2878-45da-89b4-5b7b4d0302fd"><stop offset="0%" stop-color="white" /><stop offset="100%" stop-color="white" stop-opacity="0.3" /></linearGradient><linearGradient x1="-122.365" y1="1106.487" x2="-127.006" y2="1114.61" gradientUnits="userSpaceOnUse" gradientTransform="translate(-1106.024, -112.477) rotate(-90, 0, 0)" id="aa22a732-ecb4-41ce-bd4f-17b24d84fd2f"><stop offset="0%" stop-color="white" /><stop offset="100%" stop-color="white" stop-opacity="0.3" /></linearGradient></defs><rect width="18" height="18" rx="0.6" style="fill:url(#bcf06cd3-a4b8-4fd5-87ad-fd0a708c782b);" /><path d="M13.281 9.822 a3.549 3.549 0 0 0 -1.946 0.537 v0.94 a2.819 2.819 0 0 1 1.868 -0.7 q1.181 0 1.18 1.459 l-1.717 0.241 q-1.89 0.262 -1.89 1.868 a1.568 1.568 0 0 0 0.484 1.2 a1.882 1.882 0 0 0 1.339 0.453 a1.921 1.921 0 0 0 1.762 -1.029 h0.022 v0.895 H15.3 V11.958 Q15.3 9.822 13.281 9.822 Z m1.1 3.534 a1.706 1.706 0 0 1 -0.445 1.211 a1.47 1.47 0 0 1 -1.126 0.478 a1.155 1.155 0 0 1 -0.8 -0.265 a0.874 0.874 0 0 1 -0.3 -0.685 a0.913 0.913 0 0 1 0.324 -0.8 A2.247 2.247 0 0 1 13 12.976 l1.381 -0.19 Z" style="fill:white;" /><path d="M13.782 8.891 l1.537 -1.58 c0.167 -0.166 0.106 -0.311 -0.16 -0.311 h-0.683 a0.2 0.2 0 0 1 -0.2 -0.2 c0.022 -1.019 -0.264 -3.848 -4.129 -3.944 a0.2 0.2 0 0 0 -0.2 0.2 v1 a0.2 0.2 0 0 0 0.216 0.2 A2.373 2.373 0 0 1 13.026 6.8 a0.2 0.2 0 0 1 -0.2 0.2 H12.2 c-0.322 0 -0.376 0.1 -0.161 0.311 l1.425 1.58 A0.2 0.2 0 0 0 13.782 8.891 Z" style="fill:url(#ab8b109c-2878-45da-89b4-5b7b4d0302fd);" /><path d="M4.52 9.932 l-1.538 1.58 c-0.167 0.167 -0.106 0.311 0.161 0.311 h0.682 a0.2 0.2 0 0 1 0.2 0.2 C4 13.042 4.285 15.871 8.15 15.967 a0.2 0.2 0 0 0 0.2 -0.2 v-1 a0.2 0.2 0 0 0 -0.215 -0.2 a2.373 2.373 0 0 1 -2.863 -2.551 a0.2 0.2 0 0 1 0.2 -0.2 h0.632 c0.321 0 0.375 -0.1 0.16 -0.311 L4.841 9.932 A0.2 0.2 0 0 0 4.52 9.932 Z" style="fill:url(#aa22a732-ecb4-41ce-bd4f-17b24d84fd2f);" /><path d="M6.63 4.4 a2.62 2.62 0 0 1 1.416 0.746 a2 2 0 0 1 -0.014 2.9 a3.036 3.036 0 0 1 -1.914 0.742 l-0.285 -0.643 a2.731 2.731 0 0 0 1.6 -0.462 a1.3 1.3 0 0 0 0.565 -1.077 A1.418 1.418 0 0 0 7.56 5.583 A2.046 2.046 0 0 0 6.467 5.01 a6.487 6.487 0 0 1 -1.138 2.3 a2.205 2.205 0 0 0 0.262 0.457 l-0.536 0.372 a2.221 2.221 0 0 1 -0.218 -0.333 a2.313 2.313 0 0 1 -1.444 0.635 a1.139 1.139 0 0 1 -0.821 -0.317 a1.246 1.246 0 0 1 -0.329 -0.937 A2.383 2.383 0 0 1 2.777 5.73 A3.317 3.317 0 0 1 4.143 4.669 q0.024 -0.8 0.052 -1.119 q-0.834 0.032 -1.317 0.032 l-0.107 -0.619 q0.519 0.019 1.471 -0.016 a12.15 12.15 0 0 1 0.21 -1.364 l0.619 0.091 L4.9 2.9 a24.13 24.13 0 0 0 2.59 -0.31 l0.131 0.6 a27.012 27.012 0 0 1 -2.777 0.322 a7.044 7.044 0 0 0 -0.059 0.928 a4.058 4.058 0 0 1 0.936 -0.123 c0.082 0 0.162 0 0.242 0.008 a2.4 2.4 0 0 0 0.115 -0.512 l0.634 0.091 A3.792 3.792 0 0 1 6.63 4.4 Z M4.552 7.172 a6.95 6.95 0 0 1 -0.381 -1.821 a2.468 2.468 0 0 0 -0.913 0.8 a1.761 1.761 0 0 0 -0.337 1 a0.688 0.688 0 0 0 0.143 0.508 a0.434 0.434 0 0 0 0.294 0.13 a1.6 1.6 0 0 0 0.523 -0.138 A1.952 1.952 0 0 0 4.552 7.172 Z m1.241 -2.21 a3.7 3.7 0 0 0 -0.976 0.147 a5.732 5.732 0 0 0 0.23 1.464 A6 6 0 0 0 5.793 4.962 Z" style="fill:white;" />​
</svg>