<?xml version="1.0" encoding="UTF-8"?>
<svg xmlns="http://www.w3.org/2000/svg" xmlns:xlink="http://www.w3.org/1999/xlink" width="70pt" height="70pt" viewBox="0 0 70 70" version="1.1">
<defs>
<linearGradient id="linear0" gradientUnits="userSpaceOnUse" x1="9.83" y1="1.59" x2="9.83" y2="8.94" gradientTransform="matrix(3.888889,0,0,3.888889,0,0)">
<stop offset="0" style="stop-color:rgb(100%,100%,100%);stop-opacity:1;"/>
<stop offset="0.56" style="stop-color:rgb(98.431373%,98.431373%,98.431373%);stop-opacity:1;"/>
<stop offset="1" style="stop-color:rgb(94.901961%,94.901961%,94.901961%);stop-opacity:1;"/>
</linearGradient>
<linearGradient id="linear1" gradientUnits="userSpaceOnUse" x1="5.71" y1="7.13" x2="5.82" y2="17.51" gradientTransform="matrix(3.888889,0,0,3.888889,0,0)">
<stop offset="0" style="stop-color:rgb(19.607843%,83.137255%,96.078431%);stop-opacity:1;"/>
<stop offset="0.32" style="stop-color:rgb(19.215686%,81.960784%,95.294118%);stop-opacity:1;"/>
<stop offset="0.53" style="stop-color:rgb(18.039216%,78.823529%,92.156863%);stop-opacity:1;"/>
<stop offset="0.7" style="stop-color:rgb(16.078431%,72.941176%,87.058824%);stop-opacity:1;"/>
<stop offset="0.86" style="stop-color:rgb(13.333333%,64.705882%,79.607843%);stop-opacity:1;"/>
<stop offset="1" style="stop-color:rgb(9.803922%,54.117647%,70.196078%);stop-opacity:1;"/>
<stop offset="1" style="stop-color:rgb(9.803922%,54.117647%,70.196078%);stop-opacity:1;"/>
</linearGradient>
</defs>
<g id="surface1">
<path style=" stroke:none;fill-rule:nonzero;fill:rgb(0%,47.058824%,83.137255%);fill-opacity:1;" d="M 38.226563 2.023438 C 56.195313 2.023438 67.160156 15.554688 68.054688 33.640625 C 68.121094 34.90625 67.660156 36.144531 66.785156 37.0625 C 65.910156 37.980469 64.695313 38.5 63.429688 38.5 L 12.871094 38.5 C 11.625 38.46875 10.445313 37.9375 9.605469 37.019531 C 8.761719 36.101563 8.324219 34.882813 8.398438 33.640625 C 9.292969 15.554688 20.261719 2.023438 38.226563 2.023438 Z M 38.226563 2.023438 "/>
<path style=" stroke:none;fill-rule:nonzero;fill:url(#linear0);" d="M 12.988281 35.429688 C 12.179688 35.328125 11.597656 34.605469 11.667969 33.792969 C 12.328125 16.332031 24.34375 5.09375 38.226563 5.09375 C 52.109375 5.09375 64.128906 16.332031 64.984375 33.792969 C 64.980469 34.222656 64.828125 34.632813 64.554688 34.960938 C 64.25 35.25 63.847656 35.417969 63.429688 35.429688 Z M 12.988281 35.429688 "/>
<path style=" stroke:none;fill-rule:nonzero;fill:rgb(36.862745%,62.745098%,93.72549%);fill-opacity:1;" d="M 52.695313 14.738281 C 49.105469 11.519531 44.550781 9.578125 39.746094 9.214844 L 39.746094 19.445313 C 41.953125 19.722656 44.042969 20.609375 45.773438 22.011719 Z M 52.695313 14.738281 "/>
<path style=" stroke:none;fill-rule:nonzero;fill:rgb(0%,47.058824%,83.137255%);fill-opacity:1;" d="M 23.761719 14.738281 L 30.683594 21.855469 C 32.414063 20.503906 34.488281 19.667969 36.671875 19.445313 L 36.671875 9.214844 C 31.875 9.574219 27.332031 11.515625 23.761719 14.738281 Z M 23.761719 14.738281 "/>
<path style=" stroke:none;fill-rule:nonzero;fill:rgb(36.862745%,62.745098%,93.72549%);fill-opacity:1;" d="M 47.949219 24.109375 C 49.347656 25.890625 50.246094 28.011719 50.554688 30.253906 L 60.355469 30.253906 C 60.027344 25.375 58.144531 20.730469 54.988281 16.996094 Z M 47.949219 24.109375 "/>
<path style=" stroke:none;fill-rule:nonzero;fill:rgb(0%,35.686275%,63.137255%);fill-opacity:1;" d="M 28.503906 24.109375 L 21.582031 16.996094 C 18.414063 20.722656 16.53125 25.371094 16.214844 30.253906 L 25.976563 30.253906 C 26.28125 28.023438 27.152344 25.910156 28.503906 24.109375 Z M 28.503906 24.109375 "/>
<path style=" stroke:none;fill-rule:nonzero;fill:rgb(0%,35.686275%,63.137255%);fill-opacity:1;" d="M 56.234375 21.894531 C 55.894531 21.117188 55.015625 20.726563 54.210938 21 L 39.785156 26.753906 L 40.910156 29.632813 L 55.339844 23.878906 C 56.113281 23.554688 56.503906 22.6875 56.234375 21.894531 Z M 56.234375 21.894531 "/>
<path style=" stroke:none;fill-rule:nonzero;fill:rgb(46.27451%,46.27451%,46.27451%);fill-opacity:1;" d="M 42.429688 28.855469 C 42.429688 31.175781 40.546875 33.054688 38.226563 33.054688 C 35.90625 33.054688 34.027344 31.175781 34.027344 28.855469 C 34.027344 26.535156 35.90625 24.65625 38.226563 24.65625 C 40.546875 24.65625 42.429688 26.535156 42.429688 28.855469 Z M 42.429688 28.855469 "/>
<path style=" stroke:none;fill-rule:nonzero;fill:url(#linear1);" d="M 41.726563 67.785156 L 3.460938 67.785156 C 2.253906 67.785156 1.515625 65.839844 2.214844 64.828125 L 15.554688 45.617188 C 15.640625 45.335938 15.640625 45.039063 15.554688 44.761719 L 15.554688 32.042969 C 15.601563 31.835938 15.5625 31.621094 15.441406 31.445313 C 15.324219 31.269531 15.140625 31.148438 14.933594 31.109375 L 14.195313 31.109375 C 13.355469 31.109375 12.679688 30.433594 12.679688 29.59375 L 12.679688 29.089844 C 12.679688 28.25 13.355469 27.570313 14.195313 27.570313 L 31.109375 27.570313 C 31.515625 27.5625 31.910156 27.71875 32.195313 28.003906 C 32.480469 28.292969 32.636719 28.683594 32.628906 29.089844 L 32.628906 29.75 C 32.566406 30.535156 31.898438 31.132813 31.109375 31.109375 L 30.292969 31.109375 C 29.863281 31.109375 29.515625 31.460938 29.515625 31.890625 L 29.515625 44.605469 C 29.523438 44.910156 29.617188 45.207031 29.789063 45.460938 L 43.011719 64.671875 C 43.671875 65.839844 42.972656 67.785156 41.726563 67.785156 Z M 41.726563 67.785156 "/>
<path style=" stroke:none;fill-rule:nonzero;fill:rgb(100%,100%,100%);fill-opacity:1;" d="M 8.515625 62.222656 L 18.082031 48.222656 C 18.496094 47.644531 18.714844 46.949219 18.707031 46.238281 L 18.707031 40.5625 C 18.707031 39.9375 19.210938 39.433594 19.832031 39.433594 L 25.277344 39.433594 C 25.574219 39.433594 25.855469 39.554688 26.0625 39.765625 C 26.265625 39.980469 26.378906 40.265625 26.367188 40.5625 L 26.367188 46.667969 C 26.371094 47.140625 26.519531 47.601563 26.792969 47.988281 L 36.59375 62.222656 C 36.773438 62.476563 36.789063 62.808594 36.640625 63.082031 C 36.492188 63.351563 36.203125 63.515625 35.894531 63.503906 L 9.179688 63.503906 C 8.875 63.503906 8.597656 63.332031 8.460938 63.0625 C 8.324219 62.792969 8.34375 62.46875 8.515625 62.222656 Z M 8.515625 62.222656 "/>
</g>
</svg>
