<?xml version="1.0" encoding="utf-8"?><svg version="1.1" xmlns="http://www.w3.org/2000/svg" xmlns:xlink="http://www.w3.org/1999/xlink" xmlns:xml="http://www.w3.org/XML/1998/namespace" xmlns:dc="http://purl.org/dc/elements/1.1/" xmlns:cc="http://creativecommons.org/ns#" xmlns:rdf="http://www.w3.org/1999/02/22-rdf-syntax-ns#" xmlns:sodipodi="http://sodipodi.sourceforge.net/DTD/sodipodi-0.dtd" xmlns:inkscape="http://www.inkscape.org/namespaces/inkscape" width="70" height="70" viewBox="0, 0, 18, 18" id="FxSymbol0-08a" class="" role="presentation" focusable="false" sodipodi:docname="Azure Machine Learning Studio_COLOR.svg" inkscape:version="0.92.2 (5c3e80d, 2017-08-06)"><metadata id="metadata21" /><defs id="defs19" /><sodipodi:namedview id="namedview17" pagecolor="#ffffff" bordercolor="#666666" borderopacity="1" objecttolerance="10" gridtolerance="10" guidetolerance="10" inkscape:pageopacity="0" inkscape:pageshadow="2" inkscape:window-width="640" inkscape:window-height="480" showgrid="false" inkscape:zoom="13.111111" inkscape:cx="9" inkscape:cy="9" inkscape:window-x="0" inkscape:window-y="0" inkscape:window-maximized="0" inkscape:current-layer="FxSymbol0-08a" /><g id="g14"><title id="title2" /><path d="m3.25 2 h0.3 v10 h-0.3 z m11.5 0 h0.3 v10 h-0.3 z M9 2 H9.3 V4 H9 Z m2.88 0 h0.3 v2 h-0.3 z M6.13 2 h0.3 v2 h-0.3 z" id="path4" inkscape:connector-curvature="0" style="fill:#C9C9C9;" /><path d="M0 0 V13 H3.21 L3.72 12 H1 V2 h16 v10 h-3.29 l0.5 1 H18 V0 Z" id="path6" class="msportalfx-svg-c03" inkscape:connector-curvature="0" style="fill:#A0A1A2;" /><path d="m11.71 6.94 a0.78 0.78 0 0 0 1 -0.73 V5.75 A0.86 0.86 0 0 0 11.78 5.08 H6 A0.83 0.83 0 0 0 5 5.75 V6.26 A0.77 0.77 0 0 0 6 6.94 V10 L2.78 16.2 L4 18 h9.5 L14.75 16.2 L11.71 10 Z" id="path8" class="msportalfx-svg-c15" inkscape:connector-curvature="0" style="fill:#59B4D9;" /><path d="M12 13.81 H8.01 L6.57 16.18 H4.62 L8.04 10.07 V6.95 h1.98 v3.12 z" id="path10" inkscape:connector-curvature="0" style="fill:#D5ECF6;" /><path d="m1 4.01 h16 v0.3 H1 Z M4.36 7.16 H1 v-0.3 h3.07 z m12.64 0 h-3.74 l0.32 -0.3 H17 Z M1 9.709 L5 9.705 v0.3 l-4 0.004 z m11.725 0.289 v-0.3 l4.27 0.005 v0.3 z" id="path12" inkscape:connector-curvature="0" style="fill:#C9C9C9;" /></g></svg>