<?xml version="1.0" encoding="utf-8"?><svg version="1.1" xmlns="http://www.w3.org/2000/svg" xmlns:xlink="http://www.w3.org/1999/xlink" xmlns:xml="http://www.w3.org/XML/1998/namespace" width="70" height="70" viewBox="0, 0, 18, 18" id="b97bbf6b-86e6-4ebc-9146-dd962aa81e49"><defs><linearGradient x1="5.77" y1="7.08" x2="5.88" y2="17.58" gradientUnits="userSpaceOnUse" id="aa5994b0-7cc1-426e-80f1-5365573f8425"><stop offset="0%" stop-color="#4FB4FF" /><stop offset="32%" stop-color="#49B1FF" /><stop offset="53%" stop-color="#3DACFF" /><stop offset="70%" stop-color="#25A2FF" /><stop offset="86%" stop-color="#0394FF" /><stop offset="100%" stop-color="#007CD8" /><stop offset="100%" stop-color="#007CD8" /></linearGradient></defs><path d="M15.08 11.65 A6.25 6.25 0 1 1 7.41 1.77 l0.07 -0.05 a6.25 6.25 0 0 1 7.6 9.93" id="b9c253d2-19cf-459c-b9f4-aa31a074509f" style="fill:#E5F3FF;" /><path d="M16.24 2.94 A6.26 6.26 0 0 0 7.48 1.71 l-0.07 0.05 A6.26 6.26 0 0 0 11.26 13 a6.16 6.16 0 0 0 3.82 -1.31 h0 A6.28 6.28 0 0 0 16.24 2.94 Z M5.81 6.31 a5.55 5.55 0 0 1 0.61 -2.13 H7.93 a10.84 10.84 0 0 0 -0.29 2.13 Z m3 -2.13 h2.08 V6.31 H8.45 A9.41 9.41 0 0 1 8.77 4.18 Z m2.88 0 h2.08 a9.41 9.41 0 0 1 0.32 2.13 h-2.4 Z m-0.8 2.93 V9.23 H8.77 a9.24 9.24 0 0 1 -0.32 -2.12 Z m0.8 0 h2.4 a9.24 9.24 0 0 1 -0.32 2.12 H11.65 Z m3.21 0 h1.82 a5.61 5.61 0 0 1 -0.6 2.12 H14.56 A10 10 0 0 0 14.86 7.11 Z m0 -0.8 a10.13 10.13 0 0 0 -0.3 -2.13 h1.52 a5.41 5.41 0 0 1 0.6 2.13 Z m0.71 -2.93 H14.32 a5.92 5.92 0 0 0 -0.88 -1.66 A5.4 5.4 0 0 1 15.57 3.38 Z m-2.12 0 h-1.8 v-2 A3.27 3.27 0 0 1 13.45 3.38 Z m-2.6 -2 v2 H9.05 A3.27 3.27 0 0 1 10.85 1.34 Z M7.91 2.4 l0 0 a5.39 5.39 0 0 1 1.1 -0.65 a6.12 6.12 0 0 0 -0.88 1.67 H6.93 A5.05 5.05 0 0 1 7.91 2.4 Z M5.81 7.11 H7.64 a10.74 10.74 0 0 0 0.29 2.12 H6.42 A5.22 5.22 0 0 1 5.81 7.11 Z m1.13 2.94 H8.18 a6.06 6.06 0 0 0 0.88 1.66 A5.35 5.35 0 0 1 6.94 10.05 Z m2.11 0 h1.8 v2 A3.27 3.27 0 0 1 9.05 10 Z m2.6 2 V10 h1.8 A3.27 3.27 0 0 1 11.65 12.08 Z M14.59 11 h0 a5 5 0 0 1 -1.16 0.68 A5.82 5.82 0 0 0 14.32 10 h1.25 A5.68 5.68 0 0 1 14.59 11 Z" style="fill:#006CBC;" /><path d="M10.85 17.5 H0.89 c-0.31 0 -0.5 -0.51 -0.32 -0.77 l3.43 -5 a0.39 0.39 0 0 0 0.07 -0.23 V8.2 a0.2 0.2 0 0 0 -0.2 -0.2 H3.69 a0.39 0.39 0 0 1 -0.39 -0.39 V7.43 A0.39 0.39 0 0 1 3.69 7 H8.06 a0.4 0.4 0 0 1 0.39 0.4 v0.18 A0.4 0.4 0 0 1 8.06 8 H7.87 a0.19 0.19 0 0 0 -0.19 0.2 v3.31 a0.34 0.34 0 0 0 0.07 0.22 l3.43 5 C11.36 17 11.17 17.5 10.85 17.5 Z" style="fill:url(#aa5994b0-7cc1-426e-80f1-5365573f8425);" /><path d="M2.24 16.18 l2.47 -3.6 a0.87 0.87 0 0 0 0.16 -0.52 V10.61 a0.29 0.29 0 0 1 0.29 -0.28 h1.4 a0.29 0.29 0 0 1 0.29 0.28 v1.55 a0.6 0.6 0 0 0 0.1 0.35 l2.53 3.67 a0.22 0.22 0 0 1 -0.18 0.34 H2.42 A0.22 0.22 0 0 1 2.24 16.18 Z" style="fill:white;" /></svg>