<?xml version="1.0" encoding="utf-8"?><svg version="1.1" xmlns="http://www.w3.org/2000/svg" xmlns:xlink="http://www.w3.org/1999/xlink" xmlns:xml="http://www.w3.org/XML/1998/namespace" width="70" height="70" viewBox="0, 0, 18, 18" id="eccfbced-10ca-487a-a425-bf34f9e15139"><defs><radialGradient cx="55.71" cy="71.92" r="9" gradientUnits="userSpaceOnUse" gradientTransform="translate(-43.61, -58.92) scale(0.94)" id="b915730c-dc69-4cd4-8cf3-619882b8e8ab"><stop offset="67%" stop-color="#4FB4FF" /><stop offset="74%" stop-color="#43AFFF" /><stop offset="85%" stop-color="#25A2FF" /><stop offset="99%" stop-color="#008BF2" /><stop offset="100%" stop-color="#008AF0" /></radialGradient></defs><title>Icon-machinelearning-165</title><path d="M9 0.5 A8.5 8.5 0 1 0 17.5 9 A8.5 8.5 0 0 0 9 0.5 Z" id="f6a29e1b-194b-4d8d-8529-49edea7bbba0" style="fill:url(#b915730c-dc69-4cd4-8cf3-619882b8e8ab);" /><circle cx="9" cy="9" r="7.03" style="fill:white;" /><circle cx="7.45" cy="9" r="0.77" style="fill:#2FA6FF;" /><path d="M5.26 6.8 H4.88 a0.29 0.29 0 0 0 -0.29 0.29 v5.72 a0.59 0.59 0 0 0 0.59 0.59 h5.57 a0.29 0.29 0 0 0 0.29 -0.3 v-0.38 a0.29 0.29 0 0 0 -0.29 -0.29 h-5 a0.14 0.14 0 0 1 -0.14 -0.15 V7.09 A0.29 0.29 0 0 0 5.26 6.8 Z" style="fill:#2FA6FF;" /><circle cx="10.55" cy="9" r="0.77" style="fill:#2FA6FF;" /><path d="M12.42 4.6 H7.23 a0.29 0.29 0 0 0 -0.29 0.3 v0.38 a0.29 0.29 0 0 0 0.29 0.29 h5 a0.15 0.15 0 0 1 0.15 0.15 v5.19 a0.29 0.29 0 0 0 0.29 0.29 h0.38 a0.29 0.29 0 0 0 0.29 -0.29 V5.19 a0.59 0.59 0 0 0 -0.58 -0.59 Z" style="fill:#2FA6FF;" /></svg>