<?xml version="1.0" encoding="UTF-8"?>
<svg xmlns="http://www.w3.org/2000/svg" xmlns:xlink="http://www.w3.org/1999/xlink" width="70pt" height="70pt" viewBox="0 0 70 70" version="1.1">
<defs>
<linearGradient id="linear0" gradientUnits="userSpaceOnUse" x1="9" y1="0" x2="9" y2="18" gradientTransform="matrix(3.888889,0,0,3.888889,0,0)">
<stop offset="0" style="stop-color:rgb(41,164,255);stop-opacity:1;"/>
<stop offset="1" style="stop-color:rgb(0,108,188);stop-opacity:1;"/>
</linearGradient>
<linearGradient id="linear1" gradientUnits="userSpaceOnUse" x1="-998.057" y1="-213.109" x2="-1002.698" y2="-204.987" gradientTransform="matrix(0.000000000000000238,3.888889,-3.888889,0.000000000000000238,-759.387222,3916.08)">
<stop offset="0" style="stop-color:rgb(255,255,255);stop-opacity:1;"/>
<stop offset="1" style="stop-color:rgb(255,255,255);stop-opacity:0.301961;"/>
</linearGradient>
<linearGradient id="linear2" gradientUnits="userSpaceOnUse" x1="-122.365" y1="1106.487" x2="-127.006" y2="1114.61" gradientTransform="matrix(0.000000000000000238,-3.888889,3.888889,0.000000000000000238,-4301.204444,-437.410556)">
<stop offset="0" style="stop-color:rgb(255,255,255);stop-opacity:1;"/>
<stop offset="1" style="stop-color:rgb(255,255,255);stop-opacity:0.301961;"/>
</linearGradient>
</defs>
<g id="surface1">
<path style=" stroke:none;fill-rule:nonzero;fill:url(#linear0);" d="M 2.332031 0 L 67.667969 0 C 68.957031 0 70 1.042969 70 2.332031 L 70 67.667969 C 70 68.957031 68.957031 70 67.667969 70 L 2.332031 70 C 1.042969 70 0 68.957031 0 67.667969 L 0 2.332031 C 0 1.042969 1.042969 0 2.332031 0 Z M 2.332031 0 "/>
<path style=" stroke:none;fill-rule:nonzero;fill:rgb(255,255,255);fill-opacity:1;" d="M 51.648438 38.195313 C 48.976563 38.144531 46.347656 38.871094 44.082031 40.285156 L 44.082031 43.941406 C 46.089844 42.179688 48.671875 41.210938 51.34375 41.21875 C 54.40625 41.21875 55.9375 43.109375 55.933594 46.890625 L 49.257813 47.828125 C 44.355469 48.507813 41.90625 50.929688 41.90625 55.09375 C 41.832031 56.847656 42.519531 58.546875 43.789063 59.761719 C 45.230469 61.003906 47.097656 61.632813 48.996094 61.523438 C 51.859375 61.613281 54.519531 60.058594 55.847656 57.519531 L 55.933594 57.519531 L 55.933594 61 L 59.5 61 L 59.5 46.503906 C 59.5 40.964844 56.882813 38.195313 51.648438 38.195313 Z M 55.925781 51.941406 C 55.988281 53.675781 55.367188 55.367188 54.195313 56.648438 C 53.074219 57.875 51.476563 58.554688 49.816406 58.507813 C 48.6875 58.570313 47.574219 58.199219 46.707031 57.476563 C 45.9375 56.808594 45.507813 55.832031 45.539063 54.8125 C 45.410156 53.632813 45.882813 52.464844 46.800781 51.703125 C 47.941406 51.007813 49.226563 50.582031 50.554688 50.460938 L 55.925781 49.722656 Z M 55.925781 51.941406 "/>
<path style=" stroke:none;fill-rule:nonzero;fill:url(#linear1);" d="M 53.597656 34.574219 L 59.574219 28.433594 C 60.222656 27.785156 59.984375 27.222656 58.953125 27.222656 L 56.296875 27.222656 C 55.867188 27.222656 55.519531 26.875 55.519531 26.445313 C 55.601563 22.480469 54.492188 11.480469 39.460938 11.105469 C 39.03125 11.105469 38.683594 11.453125 38.683594 11.882813 L 38.683594 15.773438 C 38.683594 15.992188 38.773438 16.199219 38.933594 16.347656 C 39.089844 16.496094 39.304688 16.570313 39.523438 16.550781 C 42.398438 15.929688 45.398438 16.71875 47.597656 18.671875 C 49.800781 20.628906 50.933594 23.515625 50.65625 26.445313 C 50.65625 26.875 50.308594 27.222656 49.878906 27.222656 L 47.445313 27.222656 C 46.191406 27.222656 45.980469 27.609375 46.816406 28.433594 L 52.359375 34.574219 C 52.507813 34.769531 52.734375 34.882813 52.976563 34.882813 C 53.222656 34.882813 53.449219 34.769531 53.597656 34.574219 Z M 53.597656 34.574219 "/>
<path style=" stroke:none;fill-rule:nonzero;fill:url(#linear2);" d="M 17.578125 38.625 L 11.597656 44.769531 C 10.945313 45.417969 11.183594 45.976563 12.222656 45.976563 L 14.875 45.976563 C 15.304688 45.976563 15.652344 46.328125 15.652344 46.757813 C 15.554688 50.71875 16.664063 61.71875 31.695313 62.09375 C 32.125 62.09375 32.472656 61.746094 32.472656 61.316406 L 32.472656 57.425781 C 32.472656 57.210938 32.382813 57.003906 32.222656 56.855469 C 32.066406 56.707031 31.851563 56.632813 31.636719 56.648438 C 28.753906 57.273438 25.75 56.480469 23.546875 54.519531 C 21.347656 52.558594 20.214844 49.664063 20.503906 46.730469 C 20.503906 46.300781 20.851563 45.949219 21.28125 45.949219 L 23.738281 45.949219 C 24.984375 45.949219 25.195313 45.5625 24.359375 44.742188 L 18.824219 38.625 C 18.679688 38.425781 18.449219 38.3125 18.203125 38.3125 C 17.957031 38.3125 17.722656 38.425781 17.578125 38.625 Z M 17.578125 38.625 "/>
<path style=" stroke:none;fill-rule:nonzero;fill:rgb(255,255,255);fill-opacity:1;" d="M 25.785156 17.109375 C 27.875 17.480469 29.800781 18.496094 31.289063 20.011719 C 32.828125 21.488281 33.695313 23.53125 33.683594 25.664063 C 33.671875 27.792969 32.789063 29.828125 31.234375 31.289063 C 29.164063 33.085938 26.53125 34.105469 23.792969 34.175781 L 22.683594 31.675781 C 24.894531 31.738281 27.070313 31.109375 28.90625 29.878906 C 30.285156 28.933594 31.109375 27.363281 31.101563 25.691406 C 31.101563 24.1875 30.484375 22.75 29.398438 21.710938 C 28.246094 20.550781 26.761719 19.769531 25.148438 19.484375 C 24.285156 22.730469 22.78125 25.769531 20.722656 28.429688 C 20.992188 29.058594 21.332031 29.65625 21.742188 30.203125 L 19.660156 31.652344 C 19.335938 31.246094 19.054688 30.8125 18.8125 30.355469 C 17.285156 31.8125 15.296875 32.6875 13.195313 32.824219 C 12.007813 32.859375 10.859375 32.414063 10.003906 31.59375 C 9.089844 30.609375 8.625 29.289063 8.722656 27.949219 C 8.761719 25.882813 9.496094 23.886719 10.800781 22.285156 C 12.175781 20.460938 14.007813 19.039063 16.113281 18.15625 C 16.175781 16.082031 16.242188 14.632813 16.3125 13.804688 C 14.152344 13.886719 12.445313 13.929688 11.191406 13.929688 L 10.777344 11.523438 C 12.121094 11.570313 14.027344 11.550781 16.496094 11.460938 C 16.667969 9.679688 16.941406 7.90625 17.3125 6.15625 L 19.71875 6.511719 L 19.054688 11.277344 C 22.433594 11.058594 25.792969 10.65625 29.128906 10.070313 L 29.636719 12.40625 C 26.0625 13.007813 22.457031 13.425781 18.835938 13.65625 C 18.683594 14.855469 18.605469 16.058594 18.609375 17.265625 C 19.800781 16.964844 21.019531 16.804688 22.25 16.789063 C 22.566406 16.789063 22.878906 16.789063 23.1875 16.820313 C 23.410156 16.175781 23.5625 15.507813 23.636719 14.828125 L 26.101563 15.183594 C 26.039063 15.832031 25.933594 16.476563 25.785156 17.109375 Z M 17.703125 27.890625 C 16.894531 25.609375 16.394531 23.226563 16.21875 20.808594 C 14.796875 21.535156 13.574219 22.605469 12.671875 23.921875 C 11.847656 25.050781 11.386719 26.410156 11.359375 27.808594 C 11.273438 28.515625 11.476563 29.226563 11.914063 29.785156 C 12.21875 30.09375 12.628906 30.273438 13.058594 30.289063 C 13.761719 30.226563 14.449219 30.046875 15.09375 29.753906 C 16.085938 29.324219 16.976563 28.691406 17.703125 27.890625 Z M 22.527344 19.296875 C 21.242188 19.316406 19.964844 19.507813 18.734375 19.867188 C 18.785156 21.796875 19.082031 23.710938 19.628906 25.5625 C 20.898438 23.628906 21.878906 21.515625 22.527344 19.296875 Z M 22.527344 19.296875 "/>
</g>
</svg>
