<?xml version="1.0" encoding="UTF-8"?>
<svg xmlns="http://www.w3.org/2000/svg" xmlns:xlink="http://www.w3.org/1999/xlink" width="70pt" height="70pt" viewBox="0 0 70 70" version="1.1">
<g id="surface1">
<path style=" stroke:none;fill-rule:nonzero;fill:rgb(34.901961%,70.588235%,85.098039%);fill-opacity:1;" d="M 34.105469 39.859375 L 34.105469 28.195313 L 34.535156 28.195313 C 36.359375 28.195313 37.101563 26.910156 37.101563 24.304688 C 37.234375 23.332031 36.886719 22.351563 36.167969 21.679688 C 35.449219 21.003906 34.449219 20.722656 33.484375 20.921875 L 11.976563 20.921875 C 10.316406 20.878906 8.929688 22.179688 8.867188 23.839844 L 8.867188 25.238281 C 8.949219 26.941406 10.390625 28.261719 12.09375 28.195313 L 12.484375 28.195313 L 12.484375 39.859375 L 0 63.117188 L 4.316406 70 L 40.328125 70 L 45.421875 63.117188 Z M 19.445313 53.628906 L 14 62.726563 L 6.570313 62.726563 L 19.445313 39.859375 L 19.445313 28.195313 L 26.871094 28.195313 L 26.871094 39.859375 L 34.648438 53.628906 Z M 19.445313 53.628906 "/>
<path style=" stroke:none;fill-rule:nonzero;fill:rgb(89.803922%,89.803922%,89.803922%);fill-opacity:1;" d="M 19.40625 53.628906 L 14 62.726563 L 6.570313 62.726563 L 19.640625 39.859375 L 19.640625 28.234375 L 26.871094 28.234375 L 26.871094 39.859375 L 34.535156 53.628906 Z M 19.40625 53.628906 "/>
<path style=" stroke:none;fill-rule:nonzero;fill:rgb(62.745098%,63.137255%,63.529412%);fill-opacity:1;" d="M 45.734375 0 L 44.722656 0 C 34.808594 0.527344 26.011719 6.523438 21.894531 15.554688 L 21.234375 17.460938 L 25.121094 17.460938 L 25.785156 15.554688 L 31.382813 15.554688 L 31.109375 17.460938 L 35 17.460938 L 35 15.554688 L 42.777344 15.554688 L 42.777344 23.332031 L 40.445313 23.332031 C 40.480469 23.902344 40.480469 24.476563 40.445313 25.042969 C 40.449219 25.773438 40.386719 26.503906 40.25 27.222656 L 42.777344 27.222656 L 42.777344 35 L 38.890625 35 L 38.890625 38.890625 L 42.777344 38.890625 L 42.777344 46.667969 L 41.535156 46.667969 L 43.59375 50.554688 L 45.695313 50.554688 C 59.335938 50.175781 70.152344 38.925781 70 25.277344 C 69.992188 11.710938 59.289063 0.5625 45.734375 0 Z M 27.84375 11.667969 C 30.203125 8.285156 33.425781 5.597656 37.179688 3.890625 C 34.914063 6.03125 33.214844 8.703125 32.238281 11.667969 Z M 42.777344 11.667969 L 35.816406 11.667969 C 36.933594 8.046875 39.4375 5.015625 42.777344 3.226563 Z M 67.003906 23.332031 L 60.160156 23.332031 C 60.238281 20.695313 59.855469 18.0625 59.035156 15.554688 L 64.476563 15.554688 C 65.894531 17.925781 66.773438 20.582031 67.042969 23.332031 Z M 63.117188 11.667969 L 58.0625 11.667969 C 57.210938 8.839844 55.703125 6.257813 53.667969 4.121094 C 57.390625 5.800781 60.628906 8.394531 63.078125 11.667969 Z M 46.667969 3.226563 C 50.367188 4.699219 53.160156 7.824219 54.210938 11.667969 L 46.667969 11.667969 Z M 46.667969 15.554688 L 55.609375 15.554688 C 56.402344 18.074219 56.820313 20.695313 56.855469 23.332031 L 46.667969 23.332031 Z M 46.667969 27.222656 L 56.855469 27.222656 C 56.8125 29.859375 56.394531 32.480469 55.609375 35 L 46.667969 35 Z M 46.667969 46.667969 L 46.667969 38.890625 L 54.445313 38.890625 C 52.976563 42.40625 50.183594 45.199219 46.667969 46.667969 Z M 52.578125 46.667969 C 55.019531 44.503906 56.980469 41.855469 58.332031 38.890625 L 62.84375 38.890625 C 60.136719 42.308594 56.601563 44.984375 52.578125 46.667969 Z M 64.789063 35 L 59.035156 35 C 59.828125 32.480469 60.285156 29.863281 60.394531 27.222656 L 67.042969 27.222656 C 66.757813 29.925781 65.992188 32.558594 64.789063 35 Z M 64.789063 35 "/>
</g>
</svg>
