<?xml version="1.0" encoding="UTF-8"?>
<svg xmlns="http://www.w3.org/2000/svg" xmlns:xlink="http://www.w3.org/1999/xlink" width="36pt" height="70pt" viewBox="0 0 36 70" version="1.1">
<g id="surface1">
<path style=" stroke:none;fill-rule:nonzero;fill:rgb(63,173,255);fill-opacity:1;" d="M 13.929688 45.089844 C 13.648438 44.910156 13.414063 44.789063 13.210938 44.625 C 11.542969 43.304688 9.789063 42.078125 8.242188 40.625 C 5.894531 38.167969 5.3125 34.5 6.792969 31.433594 C 7.796875 29.792969 9.109375 28.363281 10.65625 27.222656 C 14.050781 24.636719 17.703125 22.414063 21.558594 20.59375 C 24.160156 19.410156 26.617188 17.925781 28.875 16.167969 C 32.410156 13.304688 34.839844 9.289063 35.746094 4.816406 C 35.835938 4.339844 35.898438 3.859375 35.9375 3.375 C 36.085938 2.316406 35.65625 1.261719 34.816406 0.613281 C 33.972656 -0.0390625 32.847656 -0.179688 31.871094 0.234375 C 30.890625 0.652344 30.214844 1.566406 30.09375 2.625 C 29.269531 7.691406 26.25 11.160156 22.007813 13.671875 C 19.992188 14.871094 17.84375 15.84375 15.777344 16.953125 C 11.992188 18.863281 8.476563 21.277344 5.328125 24.125 C 3.335938 26.023438 1.457031 28.019531 0.683594 30.78125 C -0.960938 35.789063 0.414063 41.296875 4.214844 44.933594 C 5.277344 46.023438 6.46875 46.988281 7.628906 47.976563 C 7.835938 48.152344 8.113281 48.21875 8.375 48.160156 C 10.210938 47.183594 12.019531 46.15625 13.929688 45.089844 Z M 21.925781 55.742188 C 22.566406 56.148438 23.148438 56.523438 23.738281 56.890625 C 27.046875 58.796875 29.289063 62.140625 29.804688 65.941406 C 29.878906 66.445313 29.910156 66.957031 29.988281 67.457031 C 30.1875 69.03125 31.597656 70.160156 33.167969 70.003906 C 34.695313 69.886719 35.859375 68.578125 35.804688 67.039063 C 35.785156 63.0625 34.363281 59.21875 31.796875 56.1875 C 30.722656 55.042969 29.578125 53.957031 28.375 52.945313 C 28.167969 52.773438 27.890625 52.710938 27.628906 52.777344 C 25.75 53.726563 23.894531 54.710938 21.925781 55.742188 Z M 21.925781 55.742188 "/>
<path style=" stroke:none;fill-rule:nonzero;fill:rgb(57,171,255);fill-opacity:1;" d="M 6.683594 6.273438 C 7.121094 7.644531 7.804688 8.921875 8.703125 10.042969 L 21.402344 10.042969 C 20.722656 10.558594 20.011719 11.035156 19.277344 11.46875 C 18.871094 11.710938 18.453125 11.933594 18.039063 12.167969 L 10.851563 12.167969 C 11.292969 12.519531 11.753906 12.847656 12.234375 13.148438 C 12.820313 13.515625 13.40625 13.890625 14.042969 14.292969 C 12.070313 15.324219 10.21875 16.3125 8.339844 17.253906 C 8.078125 17.320313 7.804688 17.257813 7.59375 17.085938 C 6.390625 16.070313 5.25 14.988281 4.171875 13.839844 C 1.605469 10.8125 0.1875 6.96875 0.167969 2.992188 C 0.113281 1.453125 1.273438 0.148438 2.800781 0.0273438 C 4.371094 -0.125 5.78125 1 5.980469 2.574219 C 6.058594 3.078125 6.097656 3.585938 6.164063 4.089844 C 6.164063 4.113281 6.171875 4.128906 6.175781 4.148438 L 26.214844 4.148438 L 26.214844 4.214844 C 25.886719 4.933594 25.496094 5.621094 25.050781 6.273438 Z M 0.226563 65.210938 C 1.132813 60.742188 3.566406 56.726563 7.101563 53.863281 C 9.359375 52.101563 11.8125 50.617188 14.417969 49.4375 C 18.273438 47.617188 21.925781 45.394531 25.316406 42.804688 C 25.695313 42.496094 26.066406 42.179688 26.433594 41.855469 L 13.855469 41.855469 C 13.410156 41.492188 12.976563 41.113281 12.554688 40.71875 C 12.242188 40.421875 11.960938 40.089844 11.714844 39.734375 L 28.4375 39.734375 C 28.710938 39.375 28.957031 38.996094 29.175781 38.597656 C 29.605469 37.761719 29.867188 36.84375 29.9375 35.90625 L 10.339844 35.90625 C 10.265625 35.199219 10.277344 34.488281 10.378906 33.785156 L 29.886719 33.785156 C 29.6875 32.429688 29.144531 31.152344 28.308594 30.074219 L 12.089844 30.074219 C 12.734375 29.304688 13.441406 28.59375 14.210938 27.953125 L 26 27.953125 C 24.929688 27.09375 23.835938 26.257813 22.757813 25.40625 C 22.554688 25.246094 22.324219 25.121094 22.039063 24.9375 C 23.953125 23.871094 25.757813 22.847656 27.59375 21.867188 C 27.855469 21.808594 28.132813 21.875 28.339844 22.046875 C 29.5 23.039063 30.691406 24.003906 31.757813 25.089844 C 35.558594 28.726563 36.9375 34.234375 35.296875 39.242188 C 34.519531 42.003906 32.640625 44 30.652344 45.898438 C 27.503906 48.75 23.988281 51.160156 20.203125 53.070313 C 18.132813 54.183594 15.988281 55.15625 13.972656 56.351563 C 13.082031 56.882813 12.230469 57.472656 11.421875 58.125 L 19.914063 58.125 L 20.050781 58.210938 C 20.980469 58.792969 21.84375 59.472656 22.625 60.246094 L 9.21875 60.246094 C 8.226563 61.382813 7.417969 62.671875 6.832031 64.066406 L 25.214844 64.066406 C 25.507813 64.75 25.734375 65.460938 25.898438 66.1875 L 6.15625 66.1875 C 6.054688 66.585938 5.949219 66.980469 5.882813 67.40625 C 5.761719 68.464844 5.082031 69.375 4.105469 69.789063 C 3.128906 70.207031 2.003906 70.0625 1.164063 69.414063 C 0.320313 68.765625 -0.109375 67.710938 0.0390625 66.65625 C 0.0742188 66.171875 0.140625 65.691406 0.226563 65.210938 Z M 0.226563 65.210938 "/>
</g>
</svg>
