<?xml version="1.0" encoding="utf-8"?><svg version="1.1" xmlns="http://www.w3.org/2000/svg" xmlns:xlink="http://www.w3.org/1999/xlink" xmlns:xml="http://www.w3.org/XML/1998/namespace" width="70" height="70" viewBox="0, 0, 18, 18" id="FxSymbol0-0b7" class="" role="presentation" focusable="false" data-type="1"><g><title>Icon-machinelearning-164</title><path d="M11.69 9.11 c0 -1.6 -1.57 -2.66 -2.69 -3.22 c-1.12 0.56 -2.69 1.62 -2.69 3.22 c0 0.24 0.14 1.45 2.69 2.67 c2.55 -1.22 2.69 -2.43 2.69 -2.67 Z" style="fill:none;" /><path d="m10 12.23 l-0.25 -0.11 c-0.27 -0.11 -0.51 -0.21 -0.73 -0.32 c-0.22 0.11 -0.46 0.21 -0.73 0.32 l-0.29 0.11 l-0.68 0.3 a10.6 10.6 0 0 0 1.68 0.86 a10.6 10.6 0 0 0 1.69 -0.86 Z" style="fill:url(#41c7f875-9414-4e1b-8a85-066e12e0e108);" /><path d="M10.67 5.15 a5.53 5.53 0 0 1 -0.74 0.36 c-0.35 0.12 -0.93 0.38 -0.93 0.38 l0.43 0.23 l0.82 -0.33 a5.09 5.09 0 0 0 0.75 -0.42 Z" opacity="0.3" style="fill:url(#41c7f875-9414-4e1b-8a85-066e12e0e109);" /><path d="M6.56 15 a2.47 2.47 0 0 0 -0.42 0.91 h6.25 v0.5 H6.05 v0.38 a0.74 0.74 0 0 1 -0.72 0.75 a0.74 0.74 0 0 1 -0.74 -0.72 a4.46 4.46 0 0 1 2.74 -4.25 a10.6 10.6 0 0 0 1.67 0.82 l-0.15 0.07 l-0.28 0.12 a6.11 6.11 0 0 0 -1.57 0.87 h5.35 V15 Z M10 12.23 l-0.25 -0.11 c-0.27 -0.11 -0.51 -0.21 -0.73 -0.32 c-0.22 0.11 -0.46 0.21 -0.73 0.32 l-0.29 0.11 l-0.68 0.3 a10.6 10.6 0 0 0 1.68 0.86 a10.6 10.6 0 0 0 1.69 -0.86 Z m2.76 -10.64 H6.07 a1.78 1.78 0 0 1 0 -0.28 a0.73 0.73 0 1 0 -1.46 -0.14 c0 0.09 -0.19 2.32 2.75 4 A9.82 9.82 0 0 1 9 4.27 L8.37 4 a5.35 5.35 0 0 1 -0.9 -0.54 h4 V3 H6.88 a3.16 3.16 0 0 1 -0.64 -0.9 h6.52 Z m-2.09 3.56 l-0.43 0.23 h-0.11 A8.93 8.93 0 0 0 9 5.89 a6.46 6.46 0 0 1 1.91 1.37 H5.38 v0.5 h5.91 a2.63 2.63 0 0 1 0.35 0.89 H5.38 v0.51 h6.3 a1.8 1.8 0 0 1 -0.38 0.91 H5.38 v0.51 h5.47 A7.47 7.47 0 0 1 9 11.78 c0.22 0.11 0.46 0.21 0.73 0.32 l0.25 0.11 l0.68 0.3 c2.19 -1.36 2.47 -2.79 2.47 -3.42 a4.87 4.87 0 0 0 -2.46 -3.94 Z" style="fill:#0078D4;" /><path d="m8 12.23 l-0.68 0.3 c-2.2 -1.36 -2.48 -2.79 -2.48 -3.42 a4.87 4.87 0 0 1 2.49 -4 l0.43 0.23 h0.11 A8.93 8.93 0 0 1 9 5.89 c-1.12 0.56 -2.69 1.62 -2.69 3.22 c0 0.24 0.14 1.45 2.69 2.67 c-0.22 0.11 -0.46 0.21 -0.73 0.32 Z m5.42 -11.06 a0.74 0.74 0 0 0 -0.8 -0.67 a0.71 0.71 0 0 0 -0.66 0.81 s0.33 1.33 -2.07 2.59 L9 4.27 a9.82 9.82 0 0 1 1.67 0.88 c2.94 -1.66 2.76 -3.89 2.75 -3.98 Z m-2.73 11.36 a10.6 10.6 0 0 1 -1.69 0.86 l0.15 0.07 l0.28 0.12 c1.24 0.54 2.57 1.26 2.53 3.17 a0.74 0.74 0 0 0 0.72 0.75 a0.74 0.74 0 0 0 0.74 -0.72 a4.46 4.46 0 0 0 -2.73 -4.25 Z m-0.25 -7.26 l0.23 -0.12 A9.82 9.82 0 0 0 9 4.27 a9.82 9.82 0 0 0 -1.67 0.88 l0.43 0.23 h0.11 A8.93 8.93 0 0 1 9 5.89 c0.59 -0.23 0.95 -0.38 1.17 -0.48 h0.07 a1.12 1.12 0 0 0 0.2 -0.11 Z" style="fill:#32BEDD;" /></g><defs><linearGradient x1="9" y1="0.5" x2="9" y2="17.5" gradientUnits="userSpaceOnUse" id="41c7f875-9414-4e1b-8a85-066e12e0e108"><stop offset="0%" stop-color="#FAA21D" /><stop offset="28%" stop-color="#F99E1B" /><stop offset="57%" stop-color="#F69113" /><stop offset="87%" stop-color="#F27D07" /><stop offset="100%" stop-color="#EF7100" /></linearGradient><linearGradient x1="9.95" y1="5.55" x2="10.08" y2="5.82" gradientUnits="userSpaceOnUse" id="41c7f875-9414-4e1b-8a85-066e12e0e109"><stop offset="0%" stop-color="#003C90" /><stop offset="15%" stop-color="#194F9B" stop-opacity="0.9" /><stop offset="100%" stop-color="#194F9B" stop-opacity="0" /></linearGradient></defs></svg>