<?xml version="1.0" encoding="UTF-8"?>
<svg xmlns="http://www.w3.org/2000/svg" xmlns:xlink="http://www.w3.org/1999/xlink" width="70pt" height="70pt" viewBox="0 0 70 70" version="1.1">
<g id="surface1">
<path style=" stroke:none;fill-rule:nonzero;fill:rgb(63,173,255);fill-opacity:1;" d="M 30.945313 45.074219 C 30.664063 44.894531 30.429688 44.773438 30.222656 44.609375 C 28.550781 43.285156 26.785156 42.0625 25.234375 40.609375 C 22.871094 38.152344 22.289063 34.484375 23.777344 31.414063 C 24.785156 29.777344 26.105469 28.347656 27.65625 27.207031 C 31.066406 24.621094 34.738281 22.398438 38.609375 20.578125 C 41.222656 19.394531 43.691406 17.910156 45.957031 16.152344 C 49.511719 13.289063 51.953125 9.273438 52.863281 4.800781 C 52.953125 4.324219 53.015625 3.839844 53.054688 3.355469 C 53.207031 2.300781 52.773438 1.246094 51.929688 0.59375 C 51.082031 -0.0546875 49.949219 -0.199219 48.96875 0.21875 C 47.988281 0.636719 47.304688 1.550781 47.183594 2.609375 C 46.355469 7.675781 43.320313 11.144531 39.0625 13.65625 C 37.035156 14.851563 34.878906 15.824219 32.804688 16.9375 C 28.996094 18.847656 25.464844 21.257813 22.304688 24.109375 C 20.300781 26.007813 18.414063 28.003906 17.636719 30.765625 C 15.988281 35.773438 17.367188 41.28125 21.183594 44.917969 C 22.253906 46.007813 23.449219 46.96875 24.617188 47.960938 C 24.824219 48.132813 25.101563 48.199219 25.367188 48.140625 C 27.210938 47.167969 29.027344 46.140625 30.945313 45.074219 Z M 38.980469 55.726563 C 39.621094 56.128906 40.207031 56.503906 40.800781 56.875 C 44.125 58.78125 46.378906 62.125 46.894531 65.925781 C 46.96875 66.429688 47 66.941406 47.078125 67.441406 C 47.28125 69.015625 48.695313 70.140625 50.273438 69.988281 C 51.808594 69.867188 52.976563 68.5625 52.921875 67.023438 C 52.902344 63.042969 51.476563 59.203125 48.894531 56.171875 C 47.816406 55.023438 46.667969 53.941406 45.460938 52.929688 C 45.25 52.757813 44.972656 52.695313 44.710938 52.757813 C 42.824219 53.707031 40.957031 54.695313 38.980469 55.726563 Z M 38.980469 55.726563 "/>
<path style=" stroke:none;fill-rule:nonzero;fill:rgb(57,171,255);fill-opacity:1;" d="M 23.664063 6.257813 C 24.105469 7.628906 24.792969 8.90625 25.695313 10.027344 L 38.453125 10.027344 C 37.769531 10.542969 37.054688 11.019531 36.316406 11.453125 C 35.910156 11.695313 35.492188 11.917969 35.074219 12.152344 L 27.851563 12.152344 C 28.296875 12.503906 28.761719 12.828125 29.242188 13.128906 C 29.832031 13.5 30.417969 13.875 31.0625 14.277344 C 29.078125 15.308594 27.21875 16.292969 25.332031 17.238281 C 25.066406 17.300781 24.789063 17.238281 24.582031 17.066406 C 23.375 16.054688 22.226563 14.972656 21.144531 13.824219 C 18.566406 10.792969 17.140625 6.953125 17.117188 2.972656 C 17.066406 1.4375 18.234375 0.132813 19.765625 0.0117188 C 21.34375 -0.140625 22.757813 0.984375 22.960938 2.558594 C 23.039063 3.0625 23.078125 3.570313 23.144531 4.074219 C 23.144531 4.09375 23.152344 4.113281 23.15625 4.132813 L 43.285156 4.132813 L 43.285156 4.199219 C 42.957031 4.917969 42.566406 5.605469 42.121094 6.257813 Z M 17.179688 65.195313 C 18.089844 60.722656 20.53125 56.710938 24.085938 53.84375 C 26.355469 52.085938 28.820313 50.601563 31.4375 49.421875 C 35.308594 47.597656 38.976563 45.378906 42.386719 42.789063 C 42.765625 42.476563 43.140625 42.164063 43.507813 41.839844 L 30.871094 41.839844 C 30.421875 41.472656 29.988281 41.09375 29.566406 40.703125 C 29.25 40.402344 28.96875 40.074219 28.71875 39.71875 L 45.519531 39.71875 C 45.796875 39.359375 46.042969 38.976563 46.261719 38.582031 C 46.695313 37.742188 46.957031 36.828125 47.027344 35.890625 L 27.339844 35.890625 C 27.261719 35.183594 27.277344 34.46875 27.378906 33.769531 L 46.976563 33.769531 C 46.777344 32.414063 46.230469 31.136719 45.390625 30.058594 L 29.097656 30.058594 C 29.742188 29.289063 30.457031 28.578125 31.230469 27.9375 L 43.070313 27.9375 C 41.996094 27.074219 40.894531 26.242188 39.816406 25.390625 C 39.613281 25.226563 39.378906 25.105469 39.09375 24.921875 C 41.015625 23.855469 42.828125 22.832031 44.671875 21.851563 C 44.9375 21.792969 45.214844 21.859375 45.421875 22.03125 C 46.589844 23.023438 47.785156 23.984375 48.855469 25.074219 C 52.675781 28.707031 54.058594 34.214844 52.414063 39.222656 C 51.632813 41.984375 49.746094 43.984375 47.746094 45.882813 C 44.582031 48.730469 41.050781 51.144531 37.246094 53.054688 C 35.171875 54.167969 33.015625 55.140625 30.988281 56.335938 C 30.09375 56.863281 29.238281 57.457031 28.429688 58.109375 L 36.957031 58.109375 L 37.09375 58.195313 C 38.027344 58.773438 38.894531 59.457031 39.679688 60.230469 L 26.210938 60.230469 C 25.214844 61.367188 24.40625 62.65625 23.816406 64.050781 L 42.285156 64.050781 C 42.574219 64.734375 42.804688 65.445313 42.96875 66.167969 L 23.136719 66.167969 C 23.035156 66.570313 22.929688 66.964844 22.859375 67.386719 C 22.738281 68.445313 22.054688 69.359375 21.074219 69.773438 C 20.09375 70.1875 18.964844 70.046875 18.121094 69.398438 C 17.273438 68.75 16.84375 67.695313 16.988281 66.640625 C 17.027344 66.15625 17.09375 65.671875 17.179688 65.195313 Z M 17.179688 65.195313 "/>
</g>
</svg>
