<?xml version="1.0" encoding="UTF-8"?>
<svg xmlns="http://www.w3.org/2000/svg" xmlns:xlink="http://www.w3.org/1999/xlink" width="52pt" height="70pt" viewBox="0 0 52 70" version="1.1">
<g id="surface1">
<path style=" stroke:none;fill-rule:nonzero;fill:rgb(39,163,255);fill-opacity:1;" d="M 43.4375 8.582031 C 28.222656 6.882813 25.675781 0.269531 25.675781 0.269531 C 25.675781 0.269531 22.25 8.972656 0.367188 8.972656 L 0.367188 44.683594 C 0.367188 49.003906 2.738281 53.054688 6.03125 56.585938 C 13.496094 64.597656 25.675781 69.996094 25.675781 69.996094 C 25.675781 69.996094 50.996094 58.800781 50.996094 44.683594 L 50.996094 8.972656 L 50.746094 8.972656 C 48.199219 8.972656 45.65625 8.832031 43.128906 8.550781 L 43.4375 8.578125 Z M 43.4375 8.582031 "/>
<path style=" stroke:none;fill-rule:nonzero;fill:rgb(69,176,255);fill-opacity:1;" d="M 25.3125 0 C 25.3125 0 21.882813 8.703125 0 8.703125 L 0 44.421875 C 0 48.742188 2.371094 52.785156 5.664063 56.316406 L 43.070313 8.3125 C 27.855469 6.621094 25.3125 0 25.3125 0 Z M 25.3125 0 "/>
<path style=" stroke:none;fill-rule:nonzero;fill:rgb(255,255,255);fill-opacity:1;" d="M 36.210938 47.40625 C 34.851563 47.410156 33.625 46.574219 33.113281 45.300781 C 32.597656 44.027344 32.902344 42.566406 33.878906 41.609375 L 30.3125 35.308594 C 29.410156 35.617188 28.425781 35.589844 27.539063 35.234375 L 27.566406 35.242188 L 24.957031 39.621094 C 25.933594 40.597656 26.09375 42.136719 25.332031 43.296875 C 24.574219 44.453125 23.109375 44.910156 21.835938 44.378906 C 20.5625 43.851563 19.835938 42.488281 20.101563 41.125 C 20.371094 39.761719 21.554688 38.777344 22.933594 38.78125 L 22.9375 38.78125 C 23.0625 38.785156 23.179688 38.796875 23.296875 38.816406 L 23.28125 38.816406 L 26.027344 34.21875 C 25.535156 33.71875 25.175781 33.105469 24.980469 32.429688 L 24.972656 32.398438 L 14.121094 33.308594 C 13.898438 34.71875 12.695313 35.761719 11.28125 35.769531 C 9.867188 35.777344 8.652344 34.75 8.410156 33.34375 C 8.171875 31.933594 8.976563 30.558594 10.3125 30.085938 C 11.648438 29.617188 13.125 30.191406 13.804688 31.441406 L 13.808594 31.457031 L 24.84375 30.535156 C 24.984375 29.699219 25.34375 28.960938 25.863281 28.371094 L 25.855469 28.375 L 22.0625 22.941406 C 20.367188 23.558594 18.484375 22.8125 17.65625 21.195313 C 16.828125 19.578125 17.316406 17.59375 18.796875 16.558594 C 20.277344 15.519531 22.292969 15.753906 23.5 17.101563 C 24.710938 18.449219 24.746094 20.492188 23.578125 21.878906 L 23.582031 21.875 L 27.332031 27.261719 C 29.246094 26.402344 31.496094 27.074219 32.636719 28.847656 C 33.777344 30.621094 33.472656 32.964844 31.917969 34.382813 L 31.914063 34.386719 L 35.507813 40.726563 C 36.765625 40.445313 38.066406 40.917969 38.859375 41.9375 C 39.652344 42.957031 39.796875 44.347656 39.230469 45.511719 C 38.664063 46.675781 37.488281 47.410156 36.203125 47.402344 Z M 36.210938 47.40625 "/>
</g>
</svg>
