<?xml version="1.0" encoding="UTF-8"?>
<svg xmlns="http://www.w3.org/2000/svg" xmlns:xlink="http://www.w3.org/1999/xlink" width="67pt" height="70pt" viewBox="0 0 67 70" version="1.1">
<defs>
<filter id="alpha" filterUnits="objectBoundingBox" x="0%" y="0%" width="100%" height="100%">
  <feColorMatrix type="matrix" in="SourceGraphic" values="0 0 0 0 1 0 0 0 0 1 0 0 0 0 1 0 0 0 1 0"/>
</filter>
<mask id="mask0">
  <g filter="url(#alpha)">
<rect x="0" y="0" width="67" height="70" style="fill:rgb(0,0,0);fill-opacity:0.2;stroke:none;"/>
  </g>
</mask>
<clipPath id="clip1">
  <rect x="0" y="0" width="67" height="70"/>
</clipPath>
<g id="surface5" clip-path="url(#clip1)">
<path style=" stroke:none;fill-rule:nonzero;fill:rgb(255,255,255);fill-opacity:1;" d="M 4.640625 40.308594 C 4.640625 34.617188 8.414063 29.800781 13.625 27.90625 C 13.304688 26.867188 13.132813 25.722656 13.132813 24.582031 C 13.132813 18.171875 18.503906 13.019531 25.191406 13.019531 C 28.683594 13.019531 31.832031 14.398438 34.042969 16.667969 C 36.53125 10.863281 42.472656 6.769531 49.425781 6.769531 C 52.210938 6.769531 54.835938 7.429688 57.144531 8.589844 C 54.570313 3.503906 49.136719 0 42.847656 0 C 36.21875 0 30.554688 3.90625 28.175781 9.4375 C 26.070313 7.273438 23.070313 5.960938 19.734375 5.960938 C 13.359375 5.960938 8.238281 10.871094 8.238281 16.984375 C 8.238281 18.074219 8.402344 19.164063 8.707031 20.15625 C 3.738281 21.960938 0.140625 26.554688 0.140625 31.984375 C 0.140625 35.820313 1.910156 39.261719 4.707031 41.589844 C 4.664063 41.167969 4.640625 40.742188 4.640625 40.308594 Z M 4.640625 40.308594 "/>
</g>
<mask id="mask1">
  <g filter="url(#alpha)">
<rect x="0" y="0" width="67" height="70" style="fill:rgb(0,0,0);fill-opacity:0.2;stroke:none;"/>
  </g>
</mask>
<clipPath id="clip2">
  <rect x="0" y="0" width="67" height="70"/>
</clipPath>
<g id="surface8" clip-path="url(#clip2)">
<path style=" stroke:none;fill-rule:nonzero;fill:rgb(0,33,58);fill-opacity:1;" d="M 56.4375 34.996094 C 55.652344 32.980469 53.746094 31.675781 51.589844 31.675781 C 50.941406 31.675781 50.304688 31.796875 49.695313 32.035156 C 49.527344 32.101563 49.382813 32.195313 49.226563 32.277344 L 44.078125 27.3125 C 44.457031 26.402344 44.667969 25.40625 44.667969 24.359375 C 44.667969 20.113281 41.222656 16.660156 36.988281 16.660156 C 34.941406 16.660156 33.082031 17.472656 31.703125 18.789063 L 28.910156 17.042969 C 28.976563 16.253906 28.886719 15.453125 28.589844 14.695313 C 27.804688 12.679688 25.902344 11.378906 23.742188 11.378906 C 23.09375 11.378906 22.457031 11.5 21.847656 11.738281 C 19.175781 12.785156 17.855469 15.820313 18.898438 18.5 C 19.683594 20.511719 21.589844 21.816406 23.746094 21.816406 C 24.394531 21.816406 25.035156 21.695313 25.640625 21.457031 C 26.058594 21.292969 26.429688 21.066406 26.785156 20.8125 L 29.539063 22.53125 C 29.394531 23.121094 29.3125 23.730469 29.3125 24.359375 C 29.3125 25.195313 29.449219 26 29.699219 26.753906 L 24.316406 30.148438 C 23.652344 29.761719 22.890625 29.535156 22.082031 29.535156 C 21.527344 29.535156 20.984375 29.636719 20.464844 29.84375 C 18.183594 30.738281 17.054688 33.328125 17.945313 35.613281 C 18.617188 37.335938 20.242188 38.445313 22.082031 38.445313 C 22.636719 38.445313 23.183594 38.34375 23.703125 38.136719 C 25.488281 37.4375 26.546875 35.695313 26.503906 33.875 L 32.140625 30.320313 C 32.839844 30.890625 33.640625 31.335938 34.507813 31.636719 L 30.871094 53.394531 C 28.355469 54.21875 26.519531 56.566406 26.519531 59.359375 C 26.519531 62.832031 29.339844 65.660156 32.800781 65.660156 C 36.265625 65.660156 39.082031 62.832031 39.082031 59.359375 C 39.082031 56.683594 37.402344 54.402344 35.046875 53.492188 L 38.671875 31.867188 C 39.648438 31.648438 40.558594 31.242188 41.359375 30.683594 L 46.539063 35.683594 C 46.300781 36.6875 46.34375 37.769531 46.746094 38.796875 C 47.53125 40.8125 49.4375 42.113281 51.59375 42.117188 C 52.242188 42.117188 52.878906 41.996094 53.488281 41.757813 C 56.160156 40.707031 57.480469 37.675781 56.4375 34.996094 Z M 56.4375 34.996094 "/>
</g>
</defs>
<g id="surface1">
<path style=" stroke:none;fill-rule:nonzero;fill:rgb(0,140,244);fill-opacity:1;" d="M 65.152344 48.859375 L 1.847656 48.859375 C 0.828125 48.859375 0 49.6875 0 50.710938 L 0 68.007813 C 0 69.03125 0.828125 69.859375 1.847656 69.859375 L 65.152344 69.859375 C 66.171875 69.859375 67 69.03125 67 68.007813 L 67 50.710938 C 67 49.691406 66.167969 48.859375 65.152344 48.859375 Z M 65.152344 48.859375 "/>
<path style=" stroke:none;fill-rule:nonzero;fill:rgb(115,195,255);fill-opacity:1;" d="M 57.230469 53.058594 L 61.417969 53.058594 L 61.417969 57.261719 L 57.230469 57.261719 Z M 57.230469 53.058594 "/>
<path style=" stroke:none;fill-rule:nonzero;fill:rgb(115,195,255);fill-opacity:1;" d="M 57.230469 61.460938 L 61.417969 61.460938 L 61.417969 65.660156 L 57.230469 65.660156 Z M 57.230469 61.460938 "/>
<path style=" stroke:none;fill-rule:nonzero;fill:rgb(57,171,255);fill-opacity:1;" d="M 57.914063 20.632813 C 58.433594 19.078125 58.726563 17.425781 58.726563 15.699219 C 58.726563 7.03125 51.617188 0 42.847656 0 C 36.21875 0 30.554688 4.027344 28.175781 9.734375 C 26.070313 7.503906 23.070313 6.148438 19.734375 6.148438 C 13.359375 6.148438 8.238281 11.214844 8.238281 17.519531 C 8.238281 18.640625 8.402344 19.765625 8.707031 20.789063 C 3.738281 22.652344 0.140625 27.386719 0.140625 32.988281 C 0.140625 40.195313 6.007813 46.058594 13.257813 46.058594 L 53.738281 46.058594 C 61.007813 46.058594 66.863281 40.207031 66.863281 32.988281 C 66.878906 27.230469 63.128906 22.359375 57.914063 20.632813 Z M 57.914063 20.632813 "/>
<use xlink:href="#surface5" mask="url(#mask0)"/>
<use xlink:href="#surface8" mask="url(#mask1)"/>
<path style=" stroke:none;fill-rule:nonzero;fill:rgb(255,255,255);fill-opacity:1;" d="M 55.136719 35.503906 C 54.371094 33.539063 52.164063 32.570313 50.203125 33.339844 C 49.765625 33.511719 49.382813 33.765625 49.050781 34.066406 L 42.359375 27.585938 C 42.925781 26.640625 43.269531 25.542969 43.269531 24.359375 C 43.269531 20.882813 40.457031 18.058594 36.988281 18.058594 C 34.929688 18.058594 33.117188 19.070313 31.972656 20.605469 L 27.363281 17.730469 C 27.613281 16.929688 27.621094 16.046875 27.292969 15.207031 C 26.523438 13.242188 24.316406 12.273438 22.359375 13.042969 C 20.398438 13.8125 19.433594 16.027344 20.199219 17.988281 C 20.96875 19.953125 23.175781 20.921875 25.132813 20.15625 C 25.738281 19.917969 26.234375 19.53125 26.628906 19.066406 L 31.199219 21.921875 C 30.882813 22.671875 30.707031 23.496094 30.707031 24.359375 C 30.707031 25.425781 30.996094 26.414063 31.464844 27.292969 L 24.25 31.84375 C 23.417969 31.003906 22.140625 30.6875 20.972656 31.144531 C 19.40625 31.761719 18.632813 33.53125 19.246094 35.105469 C 19.859375 36.675781 21.625 37.449219 23.191406 36.835938 C 24.660156 36.257813 25.417969 34.664063 25 33.171875 L 32.332031 28.550781 C 33.292969 29.625 34.605469 30.355469 36.097656 30.570313 L 32.519531 54.488281 C 29.953125 54.640625 27.917969 56.75 27.917969 59.359375 C 27.917969 62.066406 30.105469 64.261719 32.800781 64.261719 C 35.5 64.261719 37.6875 62.066406 37.6875 59.359375 C 37.6875 57.03125 36.066406 55.09375 33.898438 54.59375 L 37.488281 30.609375 C 39.023438 30.488281 40.414063 29.839844 41.4375 28.804688 L 48.140625 35.296875 C 47.722656 36.207031 47.652344 37.277344 48.046875 38.289063 C 48.8125 40.25 51.023438 41.21875 52.980469 40.453125 C 54.9375 39.683594 55.902344 37.46875 55.136719 35.503906 Z M 55.136719 35.503906 "/>
</g>
</svg>
