<?xml version="1.0" encoding="UTF-8"?>
<svg xmlns="http://www.w3.org/2000/svg" xmlns:xlink="http://www.w3.org/1999/xlink" width="63pt" height="70pt" viewBox="0 0 63 70" version="1.1">
<defs>
<filter id="alpha" filterUnits="objectBoundingBox" x="0%" y="0%" width="100%" height="100%">
  <feColorMatrix type="matrix" in="SourceGraphic" values="0 0 0 0 1 0 0 0 0 1 0 0 0 0 1 0 0 0 1 0"/>
</filter>
<mask id="mask0">
  <g filter="url(#alpha)">
<rect x="0" y="0" width="63" height="70" style="fill:rgb(0%,0%,0%);fill-opacity:0.301961;stroke:none;"/>
  </g>
</mask>
<clipPath id="clip1">
  <rect x="0" y="0" width="63" height="70"/>
</clipPath>
<g id="surface5" clip-path="url(#clip1)">
<path style=" stroke:none;fill-rule:nonzero;fill:rgb(100%,100%,100%);fill-opacity:1;" d="M 4.0625 4.058594 L 35.222656 4.058594 L 35.222656 46.058594 L 4.0625 46.058594 Z M 4.0625 4.058594 "/>
</g>
<mask id="mask1">
  <g filter="url(#alpha)">
<rect x="0" y="0" width="63" height="70" style="fill:rgb(0%,0%,0%);fill-opacity:0.6;stroke:none;"/>
  </g>
</mask>
<clipPath id="clip2">
  <rect x="0" y="0" width="63" height="70"/>
</clipPath>
<g id="surface8" clip-path="url(#clip2)">
<path style=" stroke:none;fill-rule:nonzero;fill:rgb(0%,9.411765%,56.078431%);fill-opacity:1;" d="M 27.796875 15.398438 L 39.199219 15.398438 L 39.199219 12.601563 L 27.796875 12.601563 C 27.171875 10.269531 25.0625 8.539063 22.539063 8.539063 C 19.527344 8.539063 17.078125 10.988281 17.078125 14 C 17.078125 16.472656 18.742188 18.542969 21 19.210938 L 21 32.585938 C 18.742188 33.257813 17.078125 35.328125 17.078125 37.800781 C 17.078125 40.273438 18.742188 42.34375 21 43.011719 L 21 50.398438 L 23.78125 50.398438 L 23.78125 43.105469 C 25.734375 42.640625 27.277344 41.140625 27.796875 39.199219 L 39.199219 39.199219 L 39.199219 36.398438 L 27.796875 36.398438 C 27.277344 34.457031 25.734375 32.957031 23.78125 32.496094 L 23.78125 19.304688 C 25.734375 18.839844 27.277344 17.339844 27.796875 15.398438 Z M 27.796875 15.398438 "/>
</g>
</defs>
<g id="surface1">
<path style=" stroke:none;fill-rule:nonzero;fill:rgb(0%,44.705882%,77.647059%);fill-opacity:1;" d="M 39.199219 0 L 0 0 L 0 50.398438 L 39.199219 50.398438 Z M 39.199219 0 "/>
<path style=" stroke:none;fill-rule:nonzero;fill:rgb(0%,44.705882%,77.647059%);fill-opacity:1;" d="M 21 12.601563 L 21 64.398438 L 57.261719 64.398438 L 57.398438 12.601563 Z M 54.480469 15.398438 L 54.480469 36.398438 L 23.78125 36.398438 L 23.78125 15.398438 Z M 23.78125 61.601563 L 23.78125 39.199219 L 54.480469 39.199219 L 54.480469 61.601563 Z M 23.78125 61.601563 "/>
<path style=" stroke:none;fill-rule:nonzero;fill:rgb(49.803922%,72.941176%,0%);fill-opacity:1;" d="M 29.261719 63 C 29.261719 66.789063 26.1875 69.859375 22.398438 69.859375 C 18.609375 69.859375 15.539063 66.789063 15.539063 63 C 15.539063 59.210938 18.609375 56.140625 22.398438 56.140625 C 26.1875 56.140625 29.261719 59.210938 29.261719 63 Z M 29.261719 63 "/>
<path style=" stroke:none;fill-rule:nonzero;fill:rgb(100%,100%,100%);fill-opacity:1;" d="M 22.398438 65.660156 C 20.933594 65.660156 19.738281 64.464844 19.738281 63 C 19.738281 61.535156 20.933594 60.339844 22.398438 60.339844 C 23.867188 60.339844 25.058594 61.53125 25.058594 63 C 25.058594 64.46875 23.867188 65.660156 22.398438 65.660156 Z M 22.398438 65.660156 "/>
<path style=" stroke:none;fill-rule:nonzero;fill:rgb(49.803922%,72.941176%,0%);fill-opacity:1;" d="M 62.859375 63 C 62.859375 66.789063 59.789063 69.859375 56 69.859375 C 52.210938 69.859375 49.140625 66.789063 49.140625 63 C 49.140625 59.210938 52.210938 56.140625 56 56.140625 C 59.789063 56.140625 62.859375 59.210938 62.859375 63 Z M 62.859375 63 "/>
<path style=" stroke:none;fill-rule:nonzero;fill:rgb(100%,100%,100%);fill-opacity:1;" d="M 56 65.660156 C 54.53125 65.660156 53.339844 64.464844 53.339844 63 C 53.339844 61.535156 54.535156 60.339844 56 60.339844 C 57.464844 60.339844 58.660156 61.53125 58.660156 63 C 58.660156 64.46875 57.46875 65.660156 56 65.660156 Z M 56 65.660156 "/>
<path style=" stroke:none;fill-rule:nonzero;fill:rgb(49.803922%,72.941176%,0%);fill-opacity:1;" d="M 62.859375 14 C 62.859375 17.789063 59.789063 20.859375 56 20.859375 C 52.210938 20.859375 49.140625 17.789063 49.140625 14 C 49.140625 10.210938 52.210938 7.140625 56 7.140625 C 59.789063 7.140625 62.859375 10.210938 62.859375 14 Z M 62.859375 14 "/>
<path style=" stroke:none;fill-rule:nonzero;fill:rgb(100%,100%,100%);fill-opacity:1;" d="M 58.660156 14 C 58.660156 15.46875 57.46875 16.660156 56 16.660156 C 54.53125 16.660156 53.339844 15.46875 53.339844 14 C 53.339844 12.53125 54.53125 11.339844 56 11.339844 C 57.46875 11.339844 58.660156 12.53125 58.660156 14 Z M 58.660156 14 "/>
<path style=" stroke:none;fill-rule:nonzero;fill:rgb(49.803922%,72.941176%,0%);fill-opacity:1;" d="M 62.859375 37.800781 C 62.859375 41.589844 59.789063 44.660156 56 44.660156 C 52.210938 44.660156 49.140625 41.589844 49.140625 37.800781 C 49.140625 34.011719 52.210938 30.941406 56 30.941406 C 59.789063 30.941406 62.859375 34.011719 62.859375 37.800781 Z M 62.859375 37.800781 "/>
<path style=" stroke:none;fill-rule:nonzero;fill:rgb(100%,100%,100%);fill-opacity:1;" d="M 58.660156 37.800781 C 58.660156 39.269531 57.46875 40.460938 56 40.460938 C 54.53125 40.460938 53.339844 39.269531 53.339844 37.800781 C 53.339844 36.332031 54.53125 35.140625 56 35.140625 C 57.46875 35.140625 58.660156 36.332031 58.660156 37.800781 Z M 58.660156 37.800781 "/>
<use xlink:href="#surface5" mask="url(#mask0)"/>
<use xlink:href="#surface8" mask="url(#mask1)"/>
</g>
</svg>
