<?xml version="1.0" encoding="utf-8"?><svg version="1.1" xmlns="http://www.w3.org/2000/svg" xmlns:xlink="http://www.w3.org/1999/xlink" xmlns:xml="http://www.w3.org/XML/1998/namespace" width="70" height="70" viewBox="0, 0, 18, 18" id="a978b06d-4c0e-4630-bb2f-1c95b82750dc"><defs><linearGradient x1="9.03" y1="13.38" x2="9.03" y2="4.63" gradientUnits="userSpaceOnUse" id="be18c16e-547a-4c25-9f22-b3a89153c17b"><stop offset="0%" stop-color="#198AB3" /><stop offset="40%" stop-color="#25AED3" /><stop offset="78%" stop-color="#2FCAEC" /><stop offset="100%" stop-color="#32D4F5" /></linearGradient></defs><rect x="4.65" y="4.63" width="8.75" height="8.75" rx="0.41" style="fill:url(#be18c16e-547a-4c25-9f22-b3a89153c17b);" /><path d="M7.31 12.53 Z" style="fill:white;" /><path d="M11.78 12.18 l4.38 -3.07 a0.13 0.13 0 0 0 0 -0.22 L11.78 5.83 a0.13 0.13 0 0 0 -0.21 0.11 V7.7 H4.65 v2.6 h6.92 v1.77 A0.14 0.14 0 0 0 11.78 12.18 Z" style="fill:#C3F1FF;" /><path d="M17 17.6 H1 a0.52 0.52 0 0 1 -0.52 -0.52 V0.92 A0.52 0.52 0 0 1 1 0.4 H17 a0.52 0.52 0 0 1 0.52 0.52 V6 a0.26 0.26 0 0 1 -0.41 0.22 l-1 -0.7 a0.27 0.27 0 0 1 -0.11 -0.22 V2 H2.06 V16 H15.94 V12.8 a0.26 0.26 0 0 1 0.11 -0.21 l1 -0.73 a0.26 0.26 0 0 1 0.41 0.22 v5 A0.52 0.52 0 0 1 17 17.6 Z" style="fill:#949494;" /><path d="M15.94 2 V5.25 a0.27 0.27 0 0 0 0.11 0.22 l1 0.7 A0.26 0.26 0 0 0 17.5 6 V2 Z" style="fill:#767676;" /><path d="M15.94 16 V12.75 a0.25 0.25 0 0 1 0.11 -0.21 l1 -0.71 a0.27 0.27 0 0 1 0.41 0.22 v4 Z" style="fill:#767676;" /></svg>