<?xml version="1.0" encoding="UTF-8"?>
<svg xmlns="http://www.w3.org/2000/svg" xmlns:xlink="http://www.w3.org/1999/xlink" width="70pt" height="70pt" viewBox="0 0 70 70" version="1.1">
<defs>
<filter id="alpha" filterUnits="objectBoundingBox" x="0%" y="0%" width="100%" height="100%">
  <feColorMatrix type="matrix" in="SourceGraphic" values="0 0 0 0 1 0 0 0 0 1 0 0 0 0 1 0 0 0 1 0"/>
</filter>
<mask id="mask0">
  <g filter="url(#alpha)">
<rect x="0" y="0" width="70" height="70" style="fill:rgb(0%,0%,0%);fill-opacity:0.301961;stroke:none;"/>
  </g>
</mask>
<clipPath id="clip1">
  <rect x="0" y="0" width="70" height="70"/>
</clipPath>
<g id="surface5" clip-path="url(#clip1)">
<path style=" stroke:none;fill-rule:nonzero;fill:rgb(100%,100%,100%);fill-opacity:1;" d="M 8.261719 4.058594 L 39.421875 4.058594 L 39.421875 46.058594 L 8.261719 46.058594 Z M 8.261719 4.058594 "/>
</g>
<mask id="mask1">
  <g filter="url(#alpha)">
<rect x="0" y="0" width="70" height="70" style="fill:rgb(0%,0%,0%);fill-opacity:0.6;stroke:none;"/>
  </g>
</mask>
<clipPath id="clip2">
  <rect x="0" y="0" width="70" height="70"/>
</clipPath>
<g id="surface8" clip-path="url(#clip2)">
<path style=" stroke:none;fill-rule:nonzero;fill:rgb(0%,9.411765%,56.078431%);fill-opacity:1;" d="M 31.996094 15.398438 L 43.398438 15.398438 L 43.398438 12.601563 L 31.996094 12.601563 C 31.371094 10.269531 29.265625 8.539063 26.738281 8.539063 C 23.730469 8.539063 21.28125 10.988281 21.28125 14 C 21.28125 16.472656 22.941406 18.542969 25.203125 19.210938 L 25.203125 32.585938 C 22.941406 33.257813 21.28125 35.328125 21.28125 37.800781 C 21.28125 40.273438 22.941406 42.34375 25.203125 43.011719 L 25.199219 50.398438 L 27.980469 50.398438 L 27.980469 43.105469 C 29.9375 42.644531 31.476563 41.136719 31.996094 39.199219 L 43.398438 39.199219 L 43.398438 36.398438 L 31.996094 36.398438 C 31.480469 34.464844 29.9375 32.953125 27.980469 32.496094 L 27.980469 19.304688 C 29.9375 18.84375 31.476563 17.335938 31.996094 15.398438 Z M 31.996094 15.398438 "/>
</g>
</defs>
<g id="surface1">
<path style=" stroke:none;fill-rule:nonzero;fill:rgb(0%,44.705882%,77.647059%);fill-opacity:1;" d="M 43.398438 0 L 4.199219 0 L 4.199219 50.398438 L 43.398438 50.398438 Z M 43.398438 0 "/>
<path style=" stroke:none;fill-rule:nonzero;fill:rgb(0%,44.705882%,77.647059%);fill-opacity:1;" d="M 25.199219 12.601563 L 25.199219 64.398438 L 61.460938 64.398438 L 61.601563 12.601563 Z M 58.679688 15.398438 L 58.679688 36.398438 L 27.980469 36.398438 L 27.980469 15.398438 Z M 27.980469 61.601563 L 27.980469 39.199219 L 58.679688 39.199219 L 58.679688 61.601563 Z M 27.980469 61.601563 "/>
<path style=" stroke:none;fill-rule:nonzero;fill:rgb(49.803922%,72.941176%,0%);fill-opacity:1;" d="M 33.460938 63 C 33.460938 66.789063 30.390625 69.859375 26.601563 69.859375 C 22.8125 69.859375 19.738281 66.789063 19.738281 63 C 19.738281 59.210938 22.8125 56.140625 26.601563 56.140625 C 30.390625 56.140625 33.460938 59.210938 33.460938 63 Z M 33.460938 63 "/>
<path style=" stroke:none;fill-rule:nonzero;fill:rgb(100%,100%,100%);fill-opacity:1;" d="M 26.601563 65.660156 C 25.132813 65.660156 23.941406 64.464844 23.941406 63 C 23.941406 61.535156 25.132813 60.339844 26.601563 60.339844 C 28.066406 60.339844 29.261719 61.53125 29.261719 63 C 29.261719 64.46875 28.066406 65.660156 26.601563 65.660156 Z M 26.601563 65.660156 "/>
<path style=" stroke:none;fill-rule:nonzero;fill:rgb(49.803922%,72.941176%,0%);fill-opacity:1;" d="M 67.058594 63 C 67.058594 66.789063 63.988281 69.859375 60.199219 69.859375 C 56.410156 69.859375 53.339844 66.789063 53.339844 63 C 53.339844 59.210938 56.410156 56.140625 60.199219 56.140625 C 63.988281 56.140625 67.058594 59.210938 67.058594 63 Z M 67.058594 63 "/>
<path style=" stroke:none;fill-rule:nonzero;fill:rgb(100%,100%,100%);fill-opacity:1;" d="M 60.199219 65.660156 C 58.734375 65.660156 57.539063 64.464844 57.539063 63 C 57.539063 61.535156 58.734375 60.339844 60.199219 60.339844 C 61.664063 60.339844 62.859375 61.53125 62.859375 63 C 62.859375 64.46875 61.667969 65.660156 60.199219 65.660156 Z M 60.199219 65.660156 "/>
<path style=" stroke:none;fill-rule:nonzero;fill:rgb(49.803922%,72.941176%,0%);fill-opacity:1;" d="M 67.058594 14 C 67.058594 17.789063 63.988281 20.859375 60.199219 20.859375 C 56.410156 20.859375 53.339844 17.789063 53.339844 14 C 53.339844 10.210938 56.410156 7.140625 60.199219 7.140625 C 63.988281 7.140625 67.058594 10.210938 67.058594 14 Z M 67.058594 14 "/>
<path style=" stroke:none;fill-rule:nonzero;fill:rgb(100%,100%,100%);fill-opacity:1;" d="M 62.859375 14 C 62.859375 15.46875 61.667969 16.660156 60.199219 16.660156 C 58.730469 16.660156 57.539063 15.46875 57.539063 14 C 57.539063 12.53125 58.730469 11.339844 60.199219 11.339844 C 61.667969 11.339844 62.859375 12.53125 62.859375 14 Z M 62.859375 14 "/>
<path style=" stroke:none;fill-rule:nonzero;fill:rgb(49.803922%,72.941176%,0%);fill-opacity:1;" d="M 67.058594 37.800781 C 67.058594 41.589844 63.988281 44.660156 60.199219 44.660156 C 56.410156 44.660156 53.339844 41.589844 53.339844 37.800781 C 53.339844 34.011719 56.410156 30.941406 60.199219 30.941406 C 63.988281 30.941406 67.058594 34.011719 67.058594 37.800781 Z M 67.058594 37.800781 "/>
<path style=" stroke:none;fill-rule:nonzero;fill:rgb(100%,100%,100%);fill-opacity:1;" d="M 62.859375 37.800781 C 62.859375 39.269531 61.667969 40.460938 60.199219 40.460938 C 58.730469 40.460938 57.539063 39.269531 57.539063 37.800781 C 57.539063 36.332031 58.730469 35.140625 60.199219 35.140625 C 61.667969 35.140625 62.859375 36.332031 62.859375 37.800781 Z M 62.859375 37.800781 "/>
<use xlink:href="#surface5" mask="url(#mask0)"/>
<use xlink:href="#surface8" mask="url(#mask1)"/>
</g>
</svg>
