<?xml version="1.0" encoding="utf-8"?><svg version="1.1" xmlns="http://www.w3.org/2000/svg" xmlns:xlink="http://www.w3.org/1999/xlink" xmlns:xml="http://www.w3.org/XML/1998/namespace" width="70" height="70" viewBox="0, 0, 18, 18" id="f94984c6-afd2-49c1-8e91-2e2f964b8124"><defs><linearGradient x1="8.999" y1="-3108.081" x2="8.999" y2="-3125.919" gradientUnits="userSpaceOnUse" gradientTransform="matrix(1, 0, 0, -1, 0, -3108)" id="a318d17a-947d-498f-80c1-0e0bae8f5723"><stop offset="0%" stop-color="#B3B2B3" /><stop offset="21.6%" stop-color="#AFAEAF" /><stop offset="44%" stop-color="#A2A2A2" /><stop offset="57.7%" stop-color="#979797" /></linearGradient></defs><g id="a96c4dc0-0b65-4066-a8fa-5efc74b0b38e"><path d="M0.407 6.621 a8.914 8.914 0 0 1 17.183 0 h-1.7 a7.293 7.293 0 0 0 -13.789 0 Z m15.451 4.863 a7.295 7.295 0 0 1 -13.718 0 H0.437 a8.914 8.914 0 0 0 17.123 0 Z" style="fill:url(#a318d17a-947d-498f-80c1-0e0bae8f5723);" /><path d="M9.64 13.141 L7.5 8.33 L6.6 9.885 H1.093 a0.811 0.811 0 0 1 0 -1.622 H5.666 l2.025 -3.5 l2.332 5.246 L11.4 8.246 l5.51 0.012 a0.811 0.811 0 0 1 0 1.622 h0 l-4.716 -0.011 Z" style="fill:#50E6FF;" /></g></svg>