<?xml version="1.0" encoding="UTF-8"?>
<svg xmlns="http://www.w3.org/2000/svg" xmlns:xlink="http://www.w3.org/1999/xlink" width="70pt" height="70pt" viewBox="0 0 70 70" version="1.1">
<defs>
<linearGradient id="linear0" gradientUnits="userSpaceOnUse" x1="8.992" y1="16.975" x2="8.992" y2="0.242" gradientTransform="matrix(3.888889,0,0,3.888889,0,0)">
<stop offset="0" style="stop-color:rgb(101,189,255);stop-opacity:1;"/>
<stop offset="0.31" style="stop-color:rgb(61,172,255);stop-opacity:1;"/>
<stop offset="0.54" style="stop-color:rgb(41,164,255);stop-opacity:1;"/>
</linearGradient>
</defs>
<g id="surface1">
<path style=" stroke:none;fill-rule:nonzero;fill:rgb(255,255,255);fill-opacity:1;" d="M 44.839844 31.304688 C 44.839844 34.375 42.347656 36.867188 39.277344 36.867188 C 36.207031 36.867188 33.714844 34.375 33.714844 31.304688 C 33.714844 28.234375 36.207031 25.746094 39.277344 25.746094 C 42.347656 25.746094 44.839844 28.234375 44.839844 31.304688 Z M 44.839844 31.304688 "/>
<path style=" stroke:none;fill-rule:nonzero;fill:rgb(255,255,255);fill-opacity:1;" d="M 52.964844 47.871094 C 52.964844 50.277344 51.015625 52.226563 48.609375 52.226563 C 46.207031 52.226563 44.253906 50.277344 44.253906 47.871094 C 44.253906 45.464844 46.207031 43.515625 48.609375 43.515625 C 51.015625 43.515625 52.964844 45.464844 52.964844 47.871094 Z M 52.964844 47.871094 "/>
<path style=" stroke:none;fill-rule:nonzero;fill:rgb(255,255,255);fill-opacity:1;" d="M 35.039063 44.878906 C 35.039063 46.960938 33.351563 48.648438 31.265625 48.648438 C 29.183594 48.648438 27.496094 46.960938 27.496094 44.878906 C 27.496094 42.792969 29.183594 41.105469 31.265625 41.105469 C 33.351563 41.105469 35.039063 42.792969 35.039063 44.878906 Z M 35.039063 44.878906 "/>
<path style=" stroke:none;fill-rule:nonzero;fill:rgb(255,255,255);fill-opacity:1;" d="M 33.25 16.253906 C 33.25 18.832031 31.160156 20.921875 28.582031 20.921875 C 26.007813 20.921875 23.917969 18.832031 23.917969 16.253906 C 23.917969 13.679688 26.007813 11.589844 28.582031 11.589844 C 31.160156 11.589844 33.25 13.679688 33.25 16.253906 Z M 33.25 16.253906 "/>
<path style=" stroke:none;fill-rule:nonzero;fill:rgb(255,255,255);fill-opacity:1;" d="M 19.832031 33.40625 C 19.832031 35.488281 18.144531 37.179688 16.0625 37.179688 C 13.976563 37.179688 12.289063 35.488281 12.289063 33.40625 C 12.289063 31.320313 13.976563 29.632813 16.0625 29.632813 C 18.144531 29.632813 19.832031 31.320313 19.832031 33.40625 Z M 19.832031 33.40625 "/>
<path style=" stroke:none;fill-rule:nonzero;fill:rgb(49,167,255);fill-opacity:1;" d="M 49.621094 46.976563 L 40.210938 30.527344 L 39.277344 31.035156 L 40.054688 30.488281 L 29.398438 15.320313 L 27.457031 16.722656 L 36.90625 30.140625 L 15.984375 31.890625 L 16.179688 34.300781 L 36.90625 32.550781 L 30.023438 43.984375 L 32.082031 45.226563 L 39.160156 33.484375 L 47.5625 48.144531 L 49.660156 46.976563 Z M 49.621094 46.976563 "/>
<path style=" stroke:none;fill-rule:nonzero;fill:rgb(47,166,255);fill-opacity:1;" d="M 44.761719 31.34375 C 44.761719 34.394531 42.289063 36.867188 39.238281 36.867188 C 36.1875 36.867188 33.714844 34.394531 33.714844 31.34375 C 33.714844 28.292969 36.1875 25.820313 39.238281 25.820313 C 42.289063 25.820313 44.761719 28.292969 44.761719 31.34375 Z M 44.761719 31.34375 "/>
<path style=" stroke:none;fill-rule:nonzero;fill:rgb(47,166,255);fill-opacity:1;" d="M 33.25 16.253906 C 33.25 18.832031 31.160156 20.921875 28.582031 20.921875 C 26.007813 20.921875 23.917969 18.832031 23.917969 16.253906 C 23.917969 13.679688 26.007813 11.589844 28.582031 11.589844 C 31.160156 11.589844 33.25 13.679688 33.25 16.253906 Z M 33.25 16.253906 "/>
<path style=" stroke:none;fill-rule:nonzero;fill:rgb(47,166,255);fill-opacity:1;" d="M 19.832031 33.40625 C 19.832031 35.488281 18.144531 37.179688 16.0625 37.179688 C 13.976563 37.179688 12.289063 35.488281 12.289063 33.40625 C 12.289063 31.320313 13.976563 29.632813 16.0625 29.632813 C 18.144531 29.632813 19.832031 31.320313 19.832031 33.40625 Z M 19.832031 33.40625 "/>
<path style=" stroke:none;fill-rule:nonzero;fill:rgb(47,166,255);fill-opacity:1;" d="M 35.039063 44.878906 C 35.039063 46.960938 33.351563 48.648438 31.265625 48.648438 C 29.183594 48.648438 27.496094 46.960938 27.496094 44.878906 C 27.496094 42.792969 29.183594 41.105469 31.265625 41.105469 C 33.351563 41.105469 35.039063 42.792969 35.039063 44.878906 Z M 35.039063 44.878906 "/>
<path style=" stroke:none;fill-rule:nonzero;fill:rgb(47,166,255);fill-opacity:1;" d="M 52.964844 47.871094 C 52.964844 50.277344 51.015625 52.226563 48.609375 52.226563 C 46.207031 52.226563 44.253906 50.277344 44.253906 47.871094 C 44.253906 45.464844 46.207031 43.515625 48.609375 43.515625 C 51.015625 43.515625 52.964844 45.464844 52.964844 47.871094 Z M 52.964844 47.871094 "/>
<path style=" stroke:none;fill-rule:nonzero;fill:rgb(0,124,216);fill-opacity:1;" d="M 64.050781 14.972656 C 64.050781 18.023438 61.578125 20.496094 58.527344 20.496094 C 55.476563 20.496094 53.003906 18.023438 53.003906 14.972656 C 53.003906 11.921875 55.476563 9.449219 58.527344 9.449219 C 61.578125 9.449219 64.050781 11.921875 64.050781 14.972656 Z M 64.050781 14.972656 "/>
<path style=" stroke:none;fill-rule:nonzero;fill:rgb(0,124,216);fill-opacity:1;" d="M 17.851563 14.972656 C 17.851563 18.023438 15.378906 20.496094 12.328125 20.496094 C 9.277344 20.496094 6.804688 18.023438 6.804688 14.972656 C 6.804688 11.921875 9.277344 9.449219 12.328125 9.449219 C 15.378906 9.449219 17.851563 11.921875 17.851563 14.972656 Z M 17.851563 14.972656 "/>
<path style=" stroke:none;fill-rule:nonzero;fill:rgb(0,124,216);fill-opacity:1;" d="M 40.5625 63.503906 C 40.5625 66.554688 38.089844 69.027344 35.039063 69.027344 C 31.988281 69.027344 29.515625 66.554688 29.515625 63.503906 C 29.515625 60.457031 31.988281 57.984375 35.039063 57.984375 C 38.089844 57.984375 40.5625 60.457031 40.5625 63.503906 Z M 40.5625 63.503906 "/>
<path style=" stroke:none;fill-rule:nonzero;fill:url(#linear0);" d="M 19.210938 12.132813 C 28.855469 5.070313 42.015625 5.261719 51.449219 12.601563 C 52.074219 10.636719 53.480469 9.015625 55.339844 8.128906 C 43.527344 -1.320313 26.789063 -1.464844 14.816406 7.777344 C 16.835938 8.535156 18.4375 10.121094 19.210938 12.132813 Z M 64.554688 19.445313 C 63.308594 21.117188 61.417969 22.191406 59.34375 22.398438 C 61.085938 26.039063 61.976563 30.03125 61.949219 34.066406 C 61.9375 46.371094 53.578125 57.097656 41.648438 60.121094 C 42.257813 61.203125 42.578125 62.421875 42.582031 63.660156 C 42.574219 64.527344 42.40625 65.386719 42.078125 66.1875 C 51.980469 64.035156 60.332031 57.433594 64.71875 48.300781 C 69.105469 39.164063 69.027344 28.515625 64.515625 19.445313 Z M 27.609375 63.464844 C 27.621094 62.246094 27.929688 61.042969 28.503906 59.964844 C 20.671875 58.015625 14.128906 52.640625 10.691406 45.335938 C 7.253906 38.03125 7.28125 29.566406 10.773438 22.285156 C 9.304688 21.984375 7.953125 21.269531 6.882813 20.222656 C 6.417969 19.765625 6.027344 19.242188 5.714844 18.667969 C 0.957031 27.789063 0.738281 38.613281 5.117188 47.921875 C 9.496094 57.234375 17.976563 63.960938 28.039063 66.109375 C 27.726563 65.265625 27.566406 64.367188 27.570313 63.464844 Z M 27.609375 63.464844 "/>
</g>
</svg>
