<?xml version="1.0" encoding="UTF-8"?>
<svg xmlns="http://www.w3.org/2000/svg" xmlns:xlink="http://www.w3.org/1999/xlink" width="70pt" height="70pt" viewBox="0 0 70 70" version="1.1">
<defs>
<radialGradient id="radial0" gradientUnits="userSpaceOnUse" cx="125.5" cy="123.98" fx="125.5" fy="123.98" r="11.18" gradientTransform="matrix(3.655556,0,0,3.655556,-429.177778,-421.555556)">
<stop offset="0.27" style="stop-color:rgb(100%,84.313725%,5.882353%);stop-opacity:1;"/>
<stop offset="0.49" style="stop-color:rgb(100%,79.607843%,7.058824%);stop-opacity:1;"/>
<stop offset="0.88" style="stop-color:rgb(99.607843%,67.45098%,9.803922%);stop-opacity:1;"/>
<stop offset="1" style="stop-color:rgb(99.607843%,63.137255%,10.588235%);stop-opacity:1;"/>
</radialGradient>
<filter id="alpha" filterUnits="objectBoundingBox" x="0%" y="0%" width="100%" height="100%">
  <feColorMatrix type="matrix" in="SourceGraphic" values="0 0 0 0 1 0 0 0 0 1 0 0 0 0 1 0 0 0 1 0"/>
</filter>
<mask id="mask0">
  <g filter="url(#alpha)">
<rect x="0" y="0" width="70" height="70" style="fill:rgb(0%,0%,0%);fill-opacity:0.74902;stroke:none;"/>
  </g>
</mask>
<clipPath id="clip1">
  <rect x="0" y="0" width="70" height="70"/>
</clipPath>
<g id="surface5" clip-path="url(#clip1)">
<path style=" stroke:none;fill-rule:nonzero;fill:rgb(100%,57.647059%,0%);fill-opacity:1;" d="M 31.382813 62.726563 C 31.667969 63.023438 32.105469 63.109375 32.480469 62.945313 C 32.851563 62.78125 33.082031 62.398438 33.054688 61.988281 L 33.054688 44.605469 C 33.074219 44.253906 32.894531 43.925781 32.589844 43.75 C 32.285156 43.542969 31.886719 43.527344 31.566406 43.707031 C 31.242188 43.890625 31.054688 44.238281 31.070313 44.605469 L 31.070313 61.988281 C 31.074219 62.265625 31.1875 62.53125 31.382813 62.726563 Z M 31.382813 62.726563 "/>
</g>
<mask id="mask1">
  <g filter="url(#alpha)">
<rect x="0" y="0" width="70" height="70" style="fill:rgb(0%,0%,0%);fill-opacity:0.74902;stroke:none;"/>
  </g>
</mask>
<clipPath id="clip2">
  <rect x="0" y="0" width="70" height="70"/>
</clipPath>
<g id="surface8" clip-path="url(#clip2)">
<path style=" stroke:none;fill-rule:nonzero;fill:rgb(100%,57.647059%,0%);fill-opacity:1;" d="M 25.160156 20.882813 L 45.460938 20.882813 C 46.148438 20.882813 46.707031 21.441406 46.707031 22.128906 L 46.707031 22.320313 C 46.707031 23.007813 46.148438 23.566406 45.460938 23.566406 L 25.160156 23.566406 C 24.472656 23.566406 23.917969 23.007813 23.917969 22.320313 L 23.917969 22.128906 C 23.917969 21.441406 24.472656 20.882813 25.160156 20.882813 Z M 25.160156 20.882813 "/>
</g>
<mask id="mask2">
  <g filter="url(#alpha)">
<rect x="0" y="0" width="70" height="70" style="fill:rgb(0%,0%,0%);fill-opacity:0.74902;stroke:none;"/>
  </g>
</mask>
<clipPath id="clip3">
  <rect x="0" y="0" width="70" height="70"/>
</clipPath>
<g id="surface11" clip-path="url(#clip3)">
<path style=" stroke:none;fill-rule:nonzero;fill:rgb(100%,57.647059%,0%);fill-opacity:1;" d="M 25.160156 25.238281 L 45.460938 25.238281 C 46.148438 25.238281 46.707031 25.796875 46.707031 26.484375 L 46.707031 26.679688 C 46.707031 27.363281 46.148438 27.921875 45.460938 27.921875 L 25.160156 27.921875 C 24.472656 27.921875 23.917969 27.363281 23.917969 26.679688 L 23.917969 26.484375 C 23.917969 25.796875 24.472656 25.238281 25.160156 25.238281 Z M 25.160156 25.238281 "/>
</g>
</defs>
<g id="surface1">
<path style=" stroke:none;fill-rule:nonzero;fill:url(#radial0);" d="M 54.445313 27.609375 C 55.953125 26.109375 56.804688 24.0625 56.804688 21.933594 C 56.804688 19.800781 55.953125 17.757813 54.445313 16.253906 L 40.679688 2.371094 C 39.175781 0.863281 37.132813 0.0117188 35 0.0117188 C 32.867188 0.0117188 30.824219 0.863281 29.320313 2.371094 L 15.554688 16.253906 C 14.046875 17.757813 13.195313 19.800781 13.195313 21.933594 C 13.195313 24.0625 14.046875 26.109375 15.554688 27.609375 L 27.222656 39.277344 C 27.648438 39.699219 27.886719 40.273438 27.882813 40.871094 L 27.882813 62.222656 C 27.886719 62.953125 28.179688 63.652344 28.699219 64.167969 L 33.949219 69.417969 C 34.28125 69.773438 34.746094 69.976563 35.234375 69.976563 C 35.71875 69.976563 36.183594 69.773438 36.515625 69.417969 L 41.609375 64.320313 L 44.605469 61.289063 C 44.808594 61.097656 44.925781 60.832031 44.925781 60.550781 C 44.925781 60.269531 44.808594 60.003906 44.605469 59.8125 L 42.464844 57.671875 C 42.242188 57.460938 42.117188 57.164063 42.117188 56.855469 C 42.117188 56.546875 42.242188 56.25 42.464844 56.039063 L 44.605469 53.859375 C 44.808594 53.667969 44.925781 53.402344 44.925781 53.121094 C 44.925781 52.84375 44.808594 52.574219 44.605469 52.382813 L 42.464844 50.207031 C 42.246094 50 42.121094 49.710938 42.121094 49.410156 C 42.121094 49.105469 42.246094 48.816406 42.464844 48.609375 L 44.605469 46.433594 C 44.808594 46.242188 44.925781 45.972656 44.925781 45.695313 C 44.925781 45.414063 44.808594 45.148438 44.605469 44.957031 L 41.609375 41.921875 L 41.609375 40.832031 Z M 35 5.714844 C 36.863281 5.699219 38.550781 6.8125 39.269531 8.53125 C 39.992188 10.25 39.601563 12.234375 38.285156 13.550781 C 36.964844 14.867188 34.984375 15.257813 33.265625 14.539063 C 31.546875 13.816406 30.433594 12.128906 30.449219 10.265625 C 30.449219 7.753906 32.488281 5.714844 35 5.714844 Z M 35 5.714844 "/>
<use xlink:href="#surface5" mask="url(#mask0)"/>
<use xlink:href="#surface8" mask="url(#mask1)"/>
<use xlink:href="#surface11" mask="url(#mask2)"/>
</g>
</svg>
