<?xml version="1.0" encoding="utf-8"?><svg version="1.1" xmlns="http://www.w3.org/2000/svg" xmlns:xlink="http://www.w3.org/1999/xlink" xmlns:xml="http://www.w3.org/XML/1998/namespace" width="70" height="70" viewBox="0, 0, 18, 18" id="b8a5deb0-257d-4029-9ed0-a02518e9a519"><title>Icon-iot-184</title><path d="M9 0 L1.15 4.49 v3 L4.2 9.34 V7.54 L2.6 6.62 V5.38 L9 1.68 l6.4 3.71 v7.18 L9 16.27 L1.15 11.78 v1.68 L9 18 l7.85 -4.49 v-9 Z" style="fill:#A3A3A3;" /><polygon points="9,0 9,0 1.15,4.49 2.6,5.38 9,1.68 9,1.68 15.4,5.38 16.85,4.49 9,0" style="fill:#949494;" /><polygon points="13.25,6.54 13.25,11.46 9,13.93 9,9.01 13.25,6.54" style="fill:#32BEDD;" /><polygon points="13.25,6.54 9,9.01 4.75,6.54 9,4.07 13.25,6.54" style="fill:#9CEBFF;" /><polygon points="9,9.01 9,13.93 4.75,11.46 4.75,6.54 9,9.01" style="fill:#50E6FF;" /><polygon points="4.75,11.46 9,9.01 9,13.93 4.75,11.46" style="fill:#9CEBFF;" /><polygon points="13.25,11.46 9,9.01 9,13.93 13.25,11.46" style="fill:#50E6FF;" /></svg>