<?xml version="1.0" encoding="UTF-8"?>
<svg xmlns="http://www.w3.org/2000/svg" xmlns:xlink="http://www.w3.org/1999/xlink" width="70pt" height="70pt" viewBox="0 0 70 70" version="1.1">
<defs>
<linearGradient id="linear0" gradientUnits="userSpaceOnUse" x1="9.03" y1="13.38" x2="9.03" y2="4.63" gradientTransform="matrix(3.888889,0,0,3.888889,0,0)">
<stop offset="0" style="stop-color:rgb(0,124,216);stop-opacity:1;"/>
<stop offset="0.4" style="stop-color:rgb(17,154,255);stop-opacity:1;"/>
<stop offset="0.78" style="stop-color:rgb(63,173,255);stop-opacity:1;"/>
<stop offset="1" style="stop-color:rgb(79,180,255);stop-opacity:1;"/>
</linearGradient>
</defs>
<g id="surface1">
<path style=" stroke:none;fill-rule:nonzero;fill:url(#linear0);" d="M 19.679688 18.003906 L 50.515625 18.003906 C 51.398438 18.003906 52.109375 18.71875 52.109375 19.601563 L 52.109375 50.4375 C 52.109375 51.320313 51.398438 52.035156 50.515625 52.035156 L 19.679688 52.035156 C 18.796875 52.035156 18.082031 51.320313 18.082031 50.4375 L 18.082031 19.601563 C 18.082031 18.71875 18.796875 18.003906 19.679688 18.003906 Z M 19.679688 18.003906 "/>
<path style=" stroke:none;fill-rule:nonzero;fill:rgb(201,232,255);fill-opacity:1;" d="M 45.8125 47.367188 L 62.84375 35.429688 C 62.992188 35.335938 63.082031 35.171875 63.082031 35 C 63.082031 34.828125 62.992188 34.664063 62.84375 34.570313 L 45.8125 22.671875 C 45.65625 22.550781 45.441406 22.53125 45.265625 22.621094 C 45.089844 22.714844 44.984375 22.902344 44.996094 23.101563 L 44.996094 29.945313 L 18.082031 29.945313 L 18.082031 40.054688 L 44.996094 40.054688 L 44.996094 46.9375 C 45.007813 47.125 45.117188 47.292969 45.285156 47.378906 C 45.449219 47.464844 45.648438 47.460938 45.8125 47.367188 Z M 45.8125 47.367188 "/>
<path style=" stroke:none;fill-rule:nonzero;fill:rgb(41,164,255);fill-opacity:1;" d="M 66.109375 68.445313 L 3.890625 68.445313 C 2.773438 68.445313 1.867188 67.539063 1.867188 66.421875 L 1.867188 3.578125 C 1.867188 2.460938 2.773438 1.554688 3.890625 1.554688 L 66.109375 1.554688 C 67.226563 1.554688 68.132813 2.460938 68.132813 3.578125 L 68.132813 23.332031 C 68.144531 23.714844 67.9375 24.074219 67.601563 24.253906 C 67.261719 24.433594 66.851563 24.410156 66.539063 24.1875 L 62.648438 21.464844 C 62.378906 21.265625 62.21875 20.949219 62.222656 20.609375 L 62.222656 7.777344 L 8.011719 7.777344 L 8.011719 62.222656 L 61.988281 62.222656 L 61.988281 49.777344 C 61.992188 49.453125 62.152344 49.148438 62.417969 48.960938 L 66.304688 46.121094 C 66.617188 45.902344 67.03125 45.875 67.367188 46.058594 C 67.707031 46.238281 67.910156 46.59375 67.898438 46.976563 L 67.898438 66.421875 C 67.90625 67.453125 67.136719 68.324219 66.109375 68.445313 Z M 66.109375 68.445313 "/>
<path style=" stroke:none;fill-rule:nonzero;fill:rgb(0,135,236);fill-opacity:1;" d="M 61.988281 7.777344 L 61.988281 20.417969 C 61.984375 20.753906 62.144531 21.074219 62.417969 21.273438 L 66.304688 23.996094 C 66.585938 24.292969 67.019531 24.394531 67.402344 24.25 C 67.785156 24.105469 68.042969 23.742188 68.054688 23.332031 L 68.054688 7.777344 Z M 61.988281 7.777344 "/>
<path style=" stroke:none;fill-rule:nonzero;fill:rgb(0,135,236);fill-opacity:1;" d="M 61.988281 62.222656 L 61.988281 49.582031 C 61.984375 49.257813 62.144531 48.949219 62.417969 48.765625 L 66.304688 46.003906 C 66.625 45.8125 67.019531 45.800781 67.347656 45.976563 C 67.675781 46.152344 67.886719 46.488281 67.898438 46.859375 L 67.898438 62.417969 Z M 61.988281 62.222656 "/>
</g>
</svg>
