<?xml version="1.0" encoding="utf-8"?><svg version="1.1" xmlns="http://www.w3.org/2000/svg" xmlns:xlink="http://www.w3.org/1999/xlink" xmlns:xml="http://www.w3.org/XML/1998/namespace" width="70" height="70" viewBox="0, 0, 18, 18" id="e2354665-da3e-47da-bdbf-c0a061b5d0b5" data-name="Layer 1"><defs><linearGradient x1="8.992" y1="16.975" x2="8.992" y2="0.242" gradientUnits="userSpaceOnUse" id="a2ce308d-2865-4d56-bfb4-da21e9e9e552"><stop offset="0%" stop-color="#65BDFF" /><stop offset="31%" stop-color="#3DACFF" /><stop offset="54%" stop-color="#29A4FF" /></linearGradient></defs><g><circle cx="10.1" cy="8.05" r="1.43" style="fill:white;" /><circle cx="12.5" cy="12.31" r="1.12" style="fill:white;" /><circle cx="8.04" cy="11.54" r="0.97" style="fill:white;" /><circle cx="7.35" cy="4.18" r="1.2" style="fill:white;" /><circle cx="4.13" cy="8.59" r="0.97" style="fill:white;" /></g><path d="M12.76 12.08 L10.34 7.85 l-0.24 0.13 l0.2 -0.14 L7.56 3.94 l-0.5 0.36 L9.49 7.75 L4.11 8.2 l0.05 0.62 l5.33 -0.45 L7.72 11.31 l0.53 0.32 l1.82 -3.02 l2.16 3.77 l0.54 -0.3 Z" style="fill:#31A7FF;" /><g><circle cx="10.09" cy="8.06" r="1.42" style="fill:#2FA6FF;" /><circle cx="7.35" cy="4.18" r="1.2" style="fill:#2FA6FF;" /><circle cx="4.13" cy="8.59" r="0.97" style="fill:#2FA6FF;" /><circle cx="8.04" cy="11.54" r="0.97" style="fill:#2FA6FF;" /><circle cx="12.5" cy="12.31" r="1.12" style="fill:#2FA6FF;" /></g><circle cx="15.05" cy="3.85" r="1.42" style="fill:#007CD8;" /><circle cx="3.17" cy="3.85" r="1.42" style="fill:#007CD8;" /><circle cx="9.01" cy="16.33" r="1.42" style="fill:#007CD8;" /><path d="M4.94 3.12 a6.881 6.881 0 0 1 8.29 0.12 a1.918 1.918 0 0 1 1 -1.15 A8.431 8.431 0 0 0 3.81 2 A1.941 1.941 0 0 1 4.94 3.12 Z M16.6 5 a1.91 1.91 0 0 1 -1.34 0.76 a6.842 6.842 0 0 1 0.67 3 a6.92 6.92 0 0 1 -5.22 6.7 a1.871 1.871 0 0 1 0.24 0.91 a1.765 1.765 0 0 1 -0.13 0.65 A8.45 8.45 0 0 0 16.59 5 Z M7.1 16.32 a1.95 1.95 0 0 1 0.23 -0.9 A6.909 6.909 0 0 1 2.77 5.73 a2 2 0 0 1 -1 -0.53 a1.676 1.676 0 0 1 -0.3 -0.4 A8.47 8.47 0 0 0 7.21 17 a1.926 1.926 0 0 1 -0.12 -0.68 Z" style="fill:url(#a2ce308d-2865-4d56-bfb4-da21e9e9e552);" /></svg>