<?xml version="1.0" encoding="utf-8"?><svg version="1.1" xmlns="http://www.w3.org/2000/svg" xmlns:xlink="http://www.w3.org/1999/xlink" xmlns:xml="http://www.w3.org/XML/1998/namespace" width="70" height="70" viewBox="0, 0, 18, 18" id="aa9b6cd1-47ec-44db-bbf1-958203b5601f"><defs><linearGradient x1="9.13" y1="18.81" x2="8.85" y2="-8.1" gradientUnits="userSpaceOnUse" id="faaeb69b-3035-4577-9cb1-ddd3fba791e3"><stop offset="0%" stop-color="#198AB3" /><stop offset="0%" stop-color="#198AB3" /><stop offset="9%" stop-color="#22A5CB" /><stop offset="19%" stop-color="#29BADE" /><stop offset="29%" stop-color="#2EC9EB" /><stop offset="42%" stop-color="#31D1F3" /><stop offset="62%" stop-color="#32D4F5" /></linearGradient></defs><circle cx="11.4" cy="8.44" r="1.97" id="fa3a22e9-e4e8-46a1-bc09-f9532747c739" style="fill:white;" /><circle cx="14.7" cy="14.3" r="1.55" id="eb214416-6791-4934-ac0c-35afaa829f6e" style="fill:white;" /><circle cx="8.57" cy="13.24" r="1.33" id="a4424413-b91f-48da-aedd-39e3a978b430" style="fill:white;" /><circle cx="7.61" cy="3.11" r="1.65" id="f7ecfc1a-3268-471b-9464-57023bfc9cc4" style="fill:white;" /><circle cx="3.19" cy="9.19" r="1.33" id="b4388938-ad80-41b4-b729-5c21e3eab320" style="fill:white;" /><polygon points="15.06,13.99 11.73,8.16 11.4,8.35 11.67,8.15 7.9,2.79 7.21,3.29 10.55,8.04 3.15,8.65 3.22,9.51 10.55,8.9 8.12,12.94 8.85,13.38 11.35,9.22 14.32,14.41 15.06,13.99" style="fill:#949494;" /><g><path d="M17.53 1.23 h0 A0.73 0.73 0 0 0 16.8 0.5 H13 a0.36 0.36 0 0 0 -0.36 0.36 V2.27 a0.36 0.36 0 0 0 0.36 0.36 h2.35 v2.3 a0.38 0.38 0 0 0 0.37 0.37 h1.4 a0.38 0.38 0 0 0 0.37 -0.37 V1.23 Z" style="fill:#949494;" /><path d="M5 15.37 H2.61 v-2.3 a0.38 0.38 0 0 0 -0.37 -0.37 H0.84 a0.38 0.38 0 0 0 -0.37 0.37 v3.7 h0 a0.73 0.73 0 0 0 0.73 0.72 H5 a0.36 0.36 0 0 0 0.36 -0.36 V15.73 A0.36 0.36 0 0 0 5 15.37 Z" style="fill:#949494;" /></g><path d="M11.4 6.49 a2 2 0 1 1 -2 1.95 A2 2 0 0 1 11.4 6.49 Z M6 3.11 A1.66 1.66 0 1 0 7.62 1.46 A1.65 1.65 0 0 0 6 3.11 Z M1.86 9.18 A1.33 1.33 0 1 0 3.19 7.85 A1.33 1.33 0 0 0 1.86 9.18 Z m5.38 4.05 A1.34 1.34 0 1 0 8.58 11.9 A1.33 1.33 0 0 0 7.24 13.23 Z m5.92 1.07 a1.55 1.55 0 1 0 1.55 -1.54 A1.53 1.53 0 0 0 13.16 14.3 Z" style="fill:url(#faaeb69b-3035-4577-9cb1-ddd3fba791e3);" /></svg>