<?xml version="1.0" encoding="utf-8"?><svg version="1.1" xmlns="http://www.w3.org/2000/svg" xmlns:xlink="http://www.w3.org/1999/xlink" xmlns:xml="http://www.w3.org/XML/1998/namespace" xmlns:dc="http://purl.org/dc/elements/1.1/" xmlns:cc="http://creativecommons.org/ns#" xmlns:rdf="http://www.w3.org/1999/02/22-rdf-syntax-ns#" xmlns:sodipodi="http://sodipodi.sourceforge.net/DTD/sodipodi-0.dtd" xmlns:inkscape="http://www.inkscape.org/namespaces/inkscape" width="70" height="70" viewBox="0, 0, 63, 64" id="FxSymbol0-091" class="" role="presentation" focusable="false" sodipodi:docname="Azure Time Series Insights_COLOR.svg" inkscape:version="0.92.2 (5c3e80d, 2017-08-06)"><metadata id="metadata17" /><defs id="defs15" /><sodipodi:namedview id="namedview13" pagecolor="#ffffff" bordercolor="#0075CC" borderopacity="1" objecttolerance="10" gridtolerance="10" guidetolerance="10" inkscape:pageopacity="0" inkscape:pageshadow="2" inkscape:window-width="640" inkscape:window-height="480" showgrid="false" inkscape:zoom="3.6875" inkscape:cx="31.5" inkscape:cy="32" inkscape:window-x="0" inkscape:window-y="0" inkscape:window-maximized="0" inkscape:current-layer="FxSymbol0-091" /><g transform="translate(-0.5, 0)" id="g10"><title id="title2" /><g id="g8" style="fill:#008BF2;"><path d="M63 24.3 C59.5 10 46.7 0 32 0 C17.1 0 4 10.6 0.8 25.1 L0.5 26.4 H6.9 L7.1 25.6 C10 14.2 20.3 6.2 32 6.2 c11.3 0 21.5 7.7 24.7 18.6 l0.2 0.7 h6.4 z M56.4 40 L56.2 40.7 C52.5 50.9 42.8 57.8 32 57.8 C21.4 57.8 12 51.4 8.1 41.5 L7.8 40.8 H1.3 l0.5 1.4 C6.1 55.2 18.3 64 32 64 C46.1 64 58.4 54.9 62.6 41.3 L63 40 Z" id="path4" inkscape:connector-curvature="0" /><path d="m35.1 49 l-7 -20.2 l-4 7.4 H3.3 C1.9 36.2 0.7 35 0.7 33.6 C0.7 32.2 1.9 31 3.3 31 H21 l8.2 -15 l7.3 21.2 l4.5 -7 h19.9 c1.4 0 2.6 1.2 2.6 2.6 c0 1.4 -1.2 2.6 -2.6 2.6 H43.8 Z" id="path6" inkscape:connector-curvature="0" /></g></g></svg>