<?xml version="1.0" encoding="UTF-8"?>
<svg xmlns="http://www.w3.org/2000/svg" xmlns:xlink="http://www.w3.org/1999/xlink" width="70pt" height="70pt" viewBox="0 0 70 70" version="1.1">
<defs>
<linearGradient id="linear0" gradientUnits="userSpaceOnUse" x1="9.261" y1="-0.364" x2="6.218" y2="20.052" gradientTransform="matrix(3.888889,0,0,3.888889,0,0)">
<stop offset="0" style="stop-color:rgb(19.607843%,74.509804%,86.666667%);stop-opacity:1;"/>
<stop offset="1" style="stop-color:rgb(9.803922%,54.117647%,70.196078%);stop-opacity:1;"/>
</linearGradient>
<linearGradient id="linear1" gradientUnits="userSpaceOnUse" x1="10.798" y1="7.388" x2="14.441" y2="19.066" gradientTransform="matrix(3.888889,0,0,3.888889,0,0)">
<stop offset="0" style="stop-color:rgb(31.372549%,90.196078%,100%);stop-opacity:1;"/>
<stop offset="0.997" style="stop-color:rgb(19.607843%,74.509804%,86.666667%);stop-opacity:1;"/>
</linearGradient>
<linearGradient id="linear2" gradientUnits="userSpaceOnUse" x1="-0.168" y1="4.114" x2="12.572" y2="10.895" gradientTransform="matrix(3.888889,0,0,3.888889,0,0)">
<stop offset="0" style="stop-color:rgb(100%,100%,100%);stop-opacity:1;"/>
<stop offset="1" style="stop-color:rgb(61.176471%,92.156863%,100%);stop-opacity:1;"/>
</linearGradient>
</defs>
<g id="surface1">
<path style=" stroke:none;fill-rule:nonzero;fill:url(#linear0);" d="M 56.109375 13.027344 L 35.90625 1.359375 C 32.75 -0.457031 28.863281 -0.457031 25.710938 1.359375 L 5.507813 13.027344 C 2.351563 14.851563 0.410156 18.214844 0.410156 21.859375 L 0.410156 45.191406 C 0.410156 48.835938 2.351563 52.203125 5.507813 54.027344 L 25.730469 65.695313 C 28.882813 67.515625 32.769531 67.515625 35.925781 65.695313 L 56.148438 54.027344 C 59.300781 52.203125 61.246094 48.835938 61.246094 45.191406 L 61.246094 21.859375 C 61.234375 18.207031 59.277344 14.839844 56.109375 13.027344 Z M 56.109375 13.027344 "/>
<path style=" stroke:none;fill-rule:nonzero;fill:url(#linear1);" d="M 65.496094 30.113281 L 51.289063 21.910156 C 48.753906 20.449219 45.632813 20.449219 43.097656 21.910156 L 28.894531 30.113281 C 26.355469 31.570313 24.792969 34.277344 24.800781 37.203125 L 24.800781 53.609375 C 24.800781 56.535156 26.359375 59.238281 28.894531 60.703125 L 43.097656 68.902344 C 45.632813 70.367188 48.753906 70.367188 51.289063 68.902344 L 65.496094 60.703125 C 68.039063 59.242188 69.605469 56.539063 69.609375 53.609375 L 69.609375 37.203125 C 69.605469 34.273438 68.039063 31.570313 65.496094 30.113281 Z M 65.496094 30.113281 "/>
<path style=" stroke:none;fill-rule:nonzero;fill:url(#linear2);" d="M 29.46875 11.523438 L 33.5625 9.257813 L 51.101563 45.609375 L 49.675781 47.164063 L 11.023438 47.164063 L 11.460938 42.507813 L 44.054688 42.507813 Z M 29.46875 11.523438 "/>
<path style=" stroke:none;fill-rule:nonzero;fill:rgb(100%,100%,100%);fill-opacity:1;" d="M 16.457031 45.054688 C 16.457031 48.273438 13.847656 50.886719 10.625 50.886719 C 7.402344 50.886719 4.792969 48.273438 4.792969 45.054688 C 4.792969 41.832031 7.402344 39.21875 10.625 39.21875 C 13.847656 39.21875 16.457031 41.832031 16.457031 45.054688 Z M 16.457031 45.054688 "/>
<path style=" stroke:none;fill-rule:nonzero;fill:rgb(100%,100%,100%);fill-opacity:1;" d="M 56.3125 45.40625 C 56.3125 50.441406 52.230469 54.523438 47.195313 54.523438 C 42.160156 54.523438 38.078125 50.441406 38.078125 45.40625 C 38.078125 40.371094 42.160156 36.292969 47.195313 36.292969 C 52.230469 36.292969 56.3125 40.371094 56.3125 45.40625 Z M 56.3125 45.40625 "/>
<path style=" stroke:none;fill-rule:nonzero;fill:rgb(100%,100%,100%);fill-opacity:1;" d="M 37.105469 9.949219 C 37.105469 13.167969 34.492188 15.78125 31.269531 15.78125 C 28.050781 15.78125 25.4375 13.167969 25.4375 9.949219 C 25.4375 6.726563 28.050781 4.113281 31.269531 4.113281 C 34.492188 4.113281 37.105469 6.726563 37.105469 9.949219 Z M 37.105469 9.949219 "/>
</g>
</svg>
