<?xml version="1.0" encoding="UTF-8"?>
<svg xmlns="http://www.w3.org/2000/svg" xmlns:xlink="http://www.w3.org/1999/xlink" width="70pt" height="70pt" viewBox="0 0 70 70" version="1.1">
<g id="surface1">
<path style=" stroke:none;fill-rule:nonzero;fill:rgb(0%,69.803922%,58.039216%);fill-opacity:1;" d="M 68.90625 26.578125 C 65.078125 10.9375 51.078125 0 35 0 C 18.703125 0 4.375 11.59375 0.875 27.453125 L 0.546875 28.875 L 7.546875 28.875 L 7.765625 28 C 10.9375 15.53125 22.203125 6.78125 35 6.78125 C 47.359375 6.78125 58.515625 15.203125 62.015625 27.125 L 62.234375 27.890625 L 69.234375 27.890625 Z M 61.6875 43.75 L 61.46875 44.515625 C 57.421875 55.671875 46.8125 63.21875 35 63.21875 C 23.40625 63.21875 13.125 56.21875 8.859375 45.390625 L 8.53125 44.625 L 1.421875 44.625 L 1.96875 46.15625 C 6.671875 60.375 20.015625 70 35 70 C 50.421875 70 63.875 60.046875 68.46875 45.171875 L 68.90625 43.75 Z M 61.6875 43.75 "/>
<path style=" stroke:none;fill-rule:nonzero;fill:rgb(0%,69.803922%,58.039216%);fill-opacity:1;" d="M 38.390625 53.59375 L 30.734375 31.5 L 26.359375 39.59375 L 3.609375 39.59375 C 2.078125 39.59375 0.765625 38.28125 0.765625 36.75 C 0.765625 35.21875 2.078125 33.90625 3.609375 33.90625 L 22.96875 33.90625 L 31.9375 17.5 L 39.921875 40.6875 L 44.84375 33.03125 L 66.609375 33.03125 C 68.140625 33.03125 69.453125 34.34375 69.453125 35.875 C 69.453125 37.40625 68.140625 38.71875 66.609375 38.71875 L 47.90625 38.71875 Z M 38.390625 53.59375 "/>
</g>
</svg>
