<?xml version="1.0" encoding="utf-8"?><svg version="1.1" xmlns="http://www.w3.org/2000/svg" xmlns:xlink="http://www.w3.org/1999/xlink" xmlns:xml="http://www.w3.org/XML/1998/namespace" width="70" height="70" viewBox="0, 0, 18, 18"><defs><linearGradient x1="9.261" y1="-0.364" x2="6.218" y2="20.052" gradientUnits="userSpaceOnUse" id="a2543bcd-55aa-4840-a5ac-39d57afd4228"><stop offset="0%" stop-color="#32BEDD" /><stop offset="100%" stop-color="#198AB3" /></linearGradient><linearGradient x1="10.798" y1="7.388" x2="14.441" y2="19.066" gradientUnits="userSpaceOnUse" id="a60145e1-6ccb-441f-b67d-d2694a998ff5"><stop offset="0%" stop-color="#50E6FF" /><stop offset="99.7%" stop-color="#32BEDD" /></linearGradient><linearGradient x1="-0.168" y1="4.114" x2="12.572" y2="10.895" gradientUnits="userSpaceOnUse" id="b456a054-82ca-4a95-919b-f07fd04a13ed"><stop offset="0%" stop-color="white" /><stop offset="100%" stop-color="#9CEBFF" /></linearGradient></defs><path d="M14.428 3.35 l-5.195 -3 a2.624 2.624 0 0 0 -2.622 0 l-5.195 3 A2.625 2.625 0 0 0 0.105 5.621 v6 a2.625 2.625 0 0 0 1.311 2.272 l5.2 3 a2.624 2.624 0 0 0 2.622 0 l5.2 -3 a2.625 2.625 0 0 0 1.311 -2.272 v-6 A2.625 2.625 0 0 0 14.428 3.35 Z" style="fill:url(#a2543bcd-55aa-4840-a5ac-39d57afd4228);" /><path d="M16.842 7.743 L13.189 5.634 a2.109 2.109 0 0 0 -2.107 0 L7.43 7.743 A2.1 2.1 0 0 0 6.377 9.567 v4.218 A2.106 2.106 0 0 0 7.43 15.609 l3.652 2.109 a2.109 2.109 0 0 0 2.107 0 l3.653 -2.109 A2.108 2.108 0 0 0 17.9 13.785 V9.567 A2.107 2.107 0 0 0 16.842 7.743 Z" style="fill:url(#a60145e1-6ccb-441f-b67d-d2694a998ff5);" /><polygon points="7.578,2.963 8.63,2.381 13.14,11.728 12.774,12.128 2.835,12.128 2.947,10.931 11.328,10.931 7.578,2.963" style="fill:url(#b456a054-82ca-4a95-919b-f07fd04a13ed);" /><circle cx="2.732" cy="11.585" r="1.5" style="fill:white;" /><circle cx="12.136" cy="11.676" r="2.344" style="fill:white;" /><circle cx="8.041" cy="2.558" r="1.5" style="fill:white;" />​
</svg>