<?xml version="1.0" encoding="utf-8"?><svg version="1.1" xmlns="http://www.w3.org/2000/svg" xmlns:xlink="http://www.w3.org/1999/xlink" xmlns:xml="http://www.w3.org/XML/1998/namespace" width="70" height="70" viewBox="0, 0, 18, 18"><defs><radialGradient cx="125.5" cy="123.98" r="11.18" gradientUnits="userSpaceOnUse" gradientTransform="translate(-110.36, -108.4) scale(0.94)" id="b17621e4-6399-4962-9fdc-bbf01106b616"><stop offset="27%" stop-color="#FFD70F" /><stop offset="49%" stop-color="#FFCB12" /><stop offset="88%" stop-color="#FEAC19" /><stop offset="100%" stop-color="#FEA11B" /></radialGradient></defs><path d="M14 7.1 a2.06 2.06 0 0 0 0 -2.92 h0 L10.46 0.61 a2.06 2.06 0 0 0 -2.92 0 h0 L4 4.18 A2.06 2.06 0 0 0 4 7.1 l3 3 a0.57 0.57 0 0 1 0.17 0.41 V16 a0.71 0.71 0 0 0 0.21 0.5 l1.35 1.35 a0.45 0.45 0 0 0 0.66 0 l1.31 -1.31 h0 l0.77 -0.78 a0.26 0.26 0 0 0 0 -0.38 l-0.55 -0.55 a0.29 0.29 0 0 1 0 -0.42 l0.55 -0.56 a0.26 0.26 0 0 0 0 -0.38 l-0.55 -0.56 a0.28 0.28 0 0 1 0 -0.41 l0.55 -0.56 a0.26 0.26 0 0 0 0 -0.38 l-0.77 -0.78 V10.5 Z M9 1.47 A1.18 1.18 0 1 1 7.83 2.64 A1.17 1.17 0 0 1 9 1.47 Z" id="bbd54d76-e899-4d26-8609-8a0e8ded9211" style="fill:url(#b17621e4-6399-4962-9fdc-bbf01106b616);" /><path d="M8.07 16.13 h0 a0.25 0.25 0 0 0 0.43 -0.19 V11.47 a0.24 0.24 0 0 0 -0.12 -0.22 h0 a0.25 0.25 0 0 0 -0.39 0.22 v4.47 A0.27 0.27 0 0 0 8.07 16.13 Z" id="b5ac53e1-f5f5-4d33-8596-5914266bdddb" opacity="0.75" style="fill:#FF9300;" /><rect x="6.15" y="5.37" width="5.86" height="0.69" rx="0.32" id="a910bf31-c926-4a28-ae73-c28c8b4a8847" opacity="0.75" style="fill:#FF9300;" /><rect x="6.15" y="6.49" width="5.86" height="0.69" rx="0.32" id="a644da9e-84f7-4645-963a-2de150154184" opacity="0.75" style="fill:#FF9300;" />​    
</svg>