<?xml version="1.0" encoding="UTF-8"?>
<svg xmlns="http://www.w3.org/2000/svg" xmlns:xlink="http://www.w3.org/1999/xlink" width="70pt" height="70pt" viewBox="0 0 70 70" version="1.1">
<defs>
<filter id="alpha" filterUnits="objectBoundingBox" x="0%" y="0%" width="100%" height="100%">
  <feColorMatrix type="matrix" in="SourceGraphic" values="0 0 0 0 1 0 0 0 0 1 0 0 0 0 1 0 0 0 1 0"/>
</filter>
<mask id="mask0">
  <g filter="url(#alpha)">
<rect x="0" y="0" width="70" height="70" style="fill:rgb(0%,0%,0%);fill-opacity:0.6;stroke:none;"/>
  </g>
</mask>
<clipPath id="clip1">
  <rect x="0" y="0" width="70" height="70"/>
</clipPath>
<g id="surface5" clip-path="url(#clip1)">
<path style=" stroke:none;fill-rule:nonzero;fill:rgb(100%,100%,100%);fill-opacity:1;" d="M 64.398438 37.800781 C 64.398438 54.039063 51.238281 67.199219 35 67.199219 C 18.761719 67.199219 5.601563 54.039063 5.601563 37.800781 C 5.601563 21.5625 18.761719 8.398438 35 8.398438 C 51.238281 8.398438 64.398438 21.5625 64.398438 37.800781 Z M 64.398438 37.800781 "/>
</g>
</defs>
<g id="surface1">
<path style="fill-rule:nonzero;fill:rgb(34.901961%,70.588235%,85.098039%);fill-opacity:1;stroke-width:2;stroke-linecap:butt;stroke-linejoin:miter;stroke:rgb(0%,44.705882%,77.647059%);stroke-opacity:1;stroke-miterlimit:10;" d="M 47.000558 27.000558 C 47.000558 39.148996 37.151228 49.001116 25 49.001116 C 12.848772 49.001116 2.999442 39.148996 2.999442 27.000558 C 2.999442 14.84933 12.848772 5 25 5 C 37.151228 5 47.000558 14.84933 47.000558 27.000558 Z M 47.000558 27.000558 " transform="matrix(1.4,0,0,1.4,0,0)"/>
<use xlink:href="#surface5" mask="url(#mask0)"/>
<path style=" stroke:none;fill-rule:nonzero;fill:rgb(0%,44.705882%,77.647059%);fill-opacity:1;" d="M 34.265625 59.992188 C 30.496094 57.675781 18.199219 49.359375 18.199219 39.65625 L 18.199219 27.246094 L 19.511719 27.164063 C 24.773438 26.839844 26.8125 25.484375 28.613281 24.289063 C 30.148438 23.277344 31.472656 22.398438 35 22.398438 C 38.523438 22.398438 39.910156 23.3125 41.378906 24.285156 C 43.183594 25.484375 45.226563 26.839844 50.488281 27.164063 L 51.800781 27.246094 L 51.800781 39.65625 C 51.800781 49.363281 39.503906 57.675781 35.730469 59.992188 L 35 60.445313 Z M 34.265625 59.992188 "/>
<path style=" stroke:none;fill-rule:nonzero;fill:rgb(100%,100%,100%);fill-opacity:1;" d="M 65.800781 56 C 65.800781 59.09375 63.292969 61.601563 60.199219 61.601563 C 57.105469 61.601563 54.601563 59.09375 54.601563 56 C 54.601563 52.90625 57.105469 50.398438 60.199219 50.398438 C 63.292969 50.398438 65.800781 52.90625 65.800781 56 Z M 65.800781 56 "/>
<path style=" stroke:none;fill-rule:nonzero;fill:rgb(0%,44.705882%,77.647059%);fill-opacity:1;" d="M 60.199219 50.398438 C 63.292969 50.398438 65.800781 52.90625 65.800781 56 C 65.800781 59.09375 63.292969 61.601563 60.199219 61.601563 C 57.105469 61.601563 54.601563 59.09375 54.601563 56 C 54.601563 52.90625 57.105469 50.398438 60.199219 50.398438 M 60.199219 47.601563 C 55.570313 47.601563 51.800781 51.367188 51.800781 56 C 51.800781 60.632813 55.570313 64.398438 60.199219 64.398438 C 64.832031 64.398438 68.601563 60.632813 68.601563 56 C 68.601563 51.367188 64.832031 47.601563 60.199219 47.601563 Z M 60.199219 47.601563 "/>
<path style=" stroke:none;fill-rule:nonzero;fill:rgb(100%,100%,100%);fill-opacity:1;" d="M 15.398438 56 C 15.398438 59.09375 12.894531 61.601563 9.800781 61.601563 C 6.707031 61.601563 4.199219 59.09375 4.199219 56 C 4.199219 52.90625 6.707031 50.398438 9.800781 50.398438 C 12.894531 50.398438 15.398438 52.90625 15.398438 56 Z M 15.398438 56 "/>
<path style=" stroke:none;fill-rule:nonzero;fill:rgb(0%,44.705882%,77.647059%);fill-opacity:1;" d="M 9.800781 50.398438 C 12.894531 50.398438 15.398438 52.90625 15.398438 56 C 15.398438 59.09375 12.894531 61.601563 9.800781 61.601563 C 6.707031 61.601563 4.199219 59.09375 4.199219 56 C 4.199219 52.90625 6.707031 50.398438 9.800781 50.398438 M 9.800781 47.601563 C 5.167969 47.601563 1.398438 51.367188 1.398438 56 C 1.398438 60.632813 5.167969 64.398438 9.800781 64.398438 C 14.429688 64.398438 18.199219 60.632813 18.199219 56 C 18.199219 51.367188 14.429688 47.601563 9.800781 47.601563 Z M 9.800781 47.601563 "/>
<path style=" stroke:none;fill-rule:nonzero;fill:rgb(100%,100%,100%);fill-opacity:1;" d="M 40.601563 8.398438 C 40.601563 11.492188 38.09375 14 35 14 C 31.90625 14 29.398438 11.492188 29.398438 8.398438 C 29.398438 5.308594 31.90625 2.800781 35 2.800781 C 38.09375 2.800781 40.601563 5.308594 40.601563 8.398438 Z M 40.601563 8.398438 "/>
<path style=" stroke:none;fill-rule:nonzero;fill:rgb(0%,44.705882%,77.647059%);fill-opacity:1;" d="M 35 2.800781 C 38.09375 2.800781 40.601563 5.308594 40.601563 8.398438 C 40.601563 11.492188 38.09375 14 35 14 C 31.90625 14 29.398438 11.492188 29.398438 8.398438 C 29.398438 5.308594 31.90625 2.800781 35 2.800781 M 35 0 C 30.367188 0 26.601563 3.769531 26.601563 8.398438 C 26.601563 13.03125 30.367188 16.800781 35 16.800781 C 39.632813 16.800781 43.398438 13.03125 43.398438 8.398438 C 43.398438 3.769531 39.632813 0 35 0 Z M 35 0 "/>
</g>
</svg>
