<?xml version="1.0" encoding="UTF-8"?>
<svg xmlns="http://www.w3.org/2000/svg" xmlns:xlink="http://www.w3.org/1999/xlink" width="70pt" height="70pt" viewBox="0 0 70 70" version="1.1">
<g id="surface1">
<path style=" stroke:none;fill-rule:nonzero;fill:rgb(0%,42.745098%,83.921569%);fill-opacity:1;" d="M 36.09375 10.71875 C 36.09375 14.464844 33.058594 17.5 29.3125 17.5 C 25.566406 17.5 22.53125 14.464844 22.53125 10.71875 C 22.53125 6.972656 25.566406 3.9375 29.3125 3.9375 C 33.058594 3.9375 36.09375 6.972656 36.09375 10.71875 Z M 36.09375 10.71875 "/>
<path style=" stroke:none;fill-rule:nonzero;fill:rgb(0%,42.745098%,83.921569%);fill-opacity:1;" d="M 52.9375 32.59375 C 52.9375 37.0625 49.3125 40.6875 44.84375 40.6875 C 40.375 40.6875 36.75 37.0625 36.75 32.59375 C 36.75 28.125 40.375 24.5 44.84375 24.5 C 49.3125 24.5 52.9375 28.125 52.9375 32.59375 Z M 52.9375 32.59375 "/>
<path style=" stroke:none;fill-rule:nonzero;fill:rgb(0%,42.745098%,83.921569%);fill-opacity:1;" d="M 64.75 56.65625 C 64.75 60.160156 61.910156 63 58.40625 63 C 54.902344 63 52.0625 60.160156 52.0625 56.65625 C 52.0625 53.152344 54.902344 50.3125 58.40625 50.3125 C 61.910156 50.3125 64.75 53.152344 64.75 56.65625 Z M 64.75 56.65625 "/>
<path style=" stroke:none;fill-rule:nonzero;fill:rgb(0%,42.745098%,83.921569%);fill-opacity:1;" d="M 38.71875 52.28125 C 38.71875 55.300781 36.269531 57.75 33.25 57.75 C 30.230469 57.75 27.78125 55.300781 27.78125 52.28125 C 27.78125 49.261719 30.230469 46.8125 33.25 46.8125 C 36.269531 46.8125 38.71875 49.261719 38.71875 52.28125 Z M 38.71875 52.28125 "/>
<path style=" stroke:none;fill-rule:nonzero;fill:rgb(0%,42.745098%,83.921569%);fill-opacity:1;" d="M 16.625 35.65625 C 16.625 38.675781 14.175781 41.125 11.15625 41.125 C 8.136719 41.125 5.6875 38.675781 5.6875 35.65625 C 5.6875 32.636719 8.136719 30.1875 11.15625 30.1875 C 14.175781 30.1875 16.625 32.636719 16.625 35.65625 Z M 16.625 35.65625 "/>
<path style=" stroke:none;fill-rule:nonzero;fill:rgb(0%,42.745098%,83.921569%);fill-opacity:1;" d="M 30.496094 9.417969 L 45.972656 31.429688 L 43.109375 33.441406 L 27.632813 11.429688 Z M 30.496094 9.417969 "/>
<path style=" stroke:none;fill-rule:nonzero;fill:rgb(0%,42.745098%,83.921569%);fill-opacity:1;" d="M 46.191406 31.441406 L 59.886719 55.363281 L 56.847656 57.101563 L 43.15625 33.179688 Z M 46.191406 31.441406 "/>
<path style=" stroke:none;fill-rule:nonzero;fill:rgb(0%,42.745098%,83.921569%);fill-opacity:1;" d="M 44.339844 30.710938 L 44.628906 34.199219 L 11.273438 36.96875 L 10.984375 33.480469 Z M 44.339844 30.710938 "/>
<path style=" stroke:none;fill-rule:nonzero;fill:rgb(0%,42.745098%,83.921569%);fill-opacity:1;" d="M 43.117188 31.585938 L 46.113281 33.394531 L 34.371094 52.878906 L 31.375 51.074219 Z M 43.117188 31.585938 "/>
<path style=" stroke:none;fill-rule:nonzero;fill:rgb(0%,42.745098%,83.921569%);fill-opacity:1;" d="M 68.90625 0 L 51.1875 0 C 50.53125 0 50.09375 0.4375 50.09375 1.3125 L 50.09375 7.65625 C 50.09375 8.3125 50.53125 8.75 51.1875 8.75 L 61.25 8.75 L 61.25 18.59375 C 61.25 19.25 61.6875 19.6875 62.5625 19.6875 L 68.90625 19.6875 C 69.5625 19.6875 70 19.25 70 18.59375 L 70 1.09375 C 70 0.4375 69.5625 0 68.90625 0 Z M 68.90625 0 "/>
<path style=" stroke:none;fill-rule:nonzero;fill:rgb(0%,42.745098%,83.921569%);fill-opacity:1;" d="M 1.09375 69.78125 L 18.8125 69.78125 C 19.46875 69.78125 19.90625 69.34375 19.90625 68.46875 L 19.90625 62.125 C 19.90625 61.46875 19.46875 61.03125 18.8125 61.03125 L 8.75 61.03125 L 8.75 51.1875 C 8.75 50.53125 8.3125 50.09375 7.4375 50.09375 L 1.09375 50.09375 C 0.4375 50.09375 0 50.53125 0 51.1875 L 0 68.6875 C 0 69.34375 0.4375 69.78125 1.09375 69.78125 Z M 1.09375 69.78125 "/>
</g>
</svg>
