<?xml version="1.0" encoding="UTF-8"?>
<svg xmlns="http://www.w3.org/2000/svg" xmlns:xlink="http://www.w3.org/1999/xlink" width="70pt" height="70pt" viewBox="0 0 70 70" version="1.1">
<g id="surface1">
<path style=" stroke:none;fill-rule:nonzero;fill:rgb(0,0,0);fill-opacity:1;" d="M 56.074219 7.21875 L 59.171875 1.167969 C 59.273438 0.964844 59.261719 0.71875 59.136719 0.527344 C 59.011719 0.332031 58.792969 0.222656 58.5625 0.234375 L 35.859375 1.382813 C 35.628906 1.398438 35.425781 1.53125 35.320313 1.734375 C 35.21875 1.941406 35.230469 2.183594 35.355469 2.378906 L 47.699219 21.46875 C 47.824219 21.660156 48.042969 21.769531 48.273438 21.757813 C 48.5 21.746094 48.707031 21.613281 48.8125 21.410156 L 51.53125 16.105469 C 51.625 15.925781 51.796875 15.796875 51.996094 15.761719 C 52.195313 15.726563 52.398438 15.789063 52.546875 15.925781 C 56.824219 20.074219 61.335938 26.433594 61.335938 34.828125 C 61.335938 44.214844 56.382813 52.90625 48.308594 57.695313 C 40.238281 62.488281 30.234375 62.664063 21.996094 58.167969 C 21.695313 58.003906 21.316406 58.105469 21.136719 58.398438 L 17.609375 64.511719 C 17.519531 64.664063 17.492188 64.84375 17.539063 65.015625 C 17.585938 65.183594 17.699219 65.328125 17.855469 65.410156 C 28.675781 71.390625 41.855469 71.203125 52.503906 64.921875 C 63.152344 58.636719 69.6875 47.191406 69.6875 34.828125 C 69.6875 24.824219 64.929688 15.441406 56.238281 7.996094 C 56.011719 7.804688 55.945313 7.484375 56.074219 7.21875 Z M 56.074219 7.21875 "/>
<path style=" stroke:none;fill-rule:nonzero;fill:rgb(0,0,0);fill-opacity:1;" d="M 22.289063 66.472656 L 23.910156 63.660156 C 34.703125 67.707031 46.859375 65.277344 55.273438 57.390625 C 63.683594 49.507813 66.890625 37.535156 63.550781 26.5 C 60.207031 15.464844 50.894531 7.285156 39.523438 5.390625 L 39.523438 2.160156 C 39.523438 1.757813 39.109375 2.160156 38.789063 1.964844 L 36.582031 2.035156 C 36.085938 2.035156 36.382813 2.683594 36.65625 3.070313 L 43.652344 15.21875 C 45.949219 16.257813 48.046875 17.679688 49.863281 19.421875 L 51.566406 16.105469 C 51.675781 15.886719 51.902344 15.75 52.144531 15.75 C 52.308594 15.746094 52.464844 15.808594 52.578125 15.925781 C 56.859375 20.074219 61.367188 26.433594 61.367188 34.828125 C 61.375 44.226563 56.417969 52.929688 48.335938 57.71875 C 40.25 62.511719 30.238281 62.679688 21.996094 58.167969 C 21.902344 58.109375 21.796875 58.082031 21.6875 58.082031 C 21.460938 58.085938 21.253906 58.203125 21.136719 58.398438 L 17.609375 64.511719 C 17.527344 64.652344 17.503906 64.816406 17.539063 64.972656 L 20.730469 66.8125 L 20.949219 66.902344 C 21.441406 67.117188 22.015625 66.933594 22.289063 66.472656 Z M 22.289063 66.472656 "/>
<path style=" stroke:none;fill-rule:nonzero;fill:rgb(0,0,0);fill-opacity:1;" d="M 16.585938 63.925781 L 20.136719 57.8125 C 20.460938 57.25 21.058594 56.90625 21.707031 56.90625 C 22.011719 56.90625 22.3125 56.984375 22.578125 57.132813 C 30.453125 61.421875 40.003906 61.246094 47.714844 56.671875 C 55.425781 52.09375 60.15625 43.796875 60.160156 34.828125 C 60.160156 27.023438 55.980469 21.050781 52.25 17.28125 L 50.699219 20.3125 C 58.289063 28.519531 58.566406 41.101563 51.34375 49.636719 C 44.121094 58.167969 31.667969 59.976563 22.316406 53.84375 C 12.96875 47.710938 9.660156 35.570313 14.609375 25.542969 C 19.558594 15.519531 31.207031 10.757813 41.761719 14.449219 L 34.355469 3.019531 C 34 2.472656 33.964844 1.78125 34.257813 1.203125 C 34.285156 1.15625 34.3125 1.113281 34.347656 1.074219 L 30.597656 1.074219 C 30.3125 1.070313 30.039063 1.183594 29.835938 1.386719 C 29.632813 1.585938 29.519531 1.859375 29.519531 2.144531 L 29.519531 5.378906 C 27.605469 5.695313 25.726563 6.199219 23.910156 6.875 L 22.289063 4.085938 C 22.144531 3.835938 21.910156 3.65625 21.636719 3.582031 C 21.359375 3.507813 21.066406 3.546875 20.820313 3.691406 L 14.019531 7.613281 C 13.507813 7.910156 13.328125 8.570313 13.628906 9.085938 L 15.25 11.90625 C 13.753906 13.136719 12.382813 14.511719 11.144531 16.003906 L 8.332031 14.378906 C 7.816406 14.082031 7.160156 14.257813 6.859375 14.773438 L 2.9375 21.574219 C 2.792969 21.820313 2.757813 22.113281 2.832031 22.386719 C 2.902344 22.664063 3.085938 22.898438 3.332031 23.039063 L 6.136719 24.664063 C 5.453125 26.480469 4.945313 28.359375 4.625 30.273438 L 1.394531 30.273438 C 0.796875 30.273438 0.3125 30.753906 0.3125 31.351563 L 0.3125 39.203125 C 0.3125 39.488281 0.425781 39.761719 0.628906 39.964844 C 0.832031 40.167969 1.105469 40.277344 1.394531 40.277344 L 4.625 40.277344 C 4.945313 42.191406 5.453125 44.070313 6.136719 45.886719 L 3.332031 47.507813 C 2.816406 47.808594 2.640625 48.464844 2.9375 48.984375 L 6.859375 55.78125 C 7.160156 56.292969 7.816406 56.46875 8.332031 56.175781 L 11.144531 54.546875 C 12.382813 56.042969 13.753906 57.414063 15.25 58.652344 L 13.628906 61.46875 C 13.484375 61.714844 13.445313 62.007813 13.519531 62.285156 C 13.59375 62.558594 13.773438 62.792969 14.019531 62.9375 L 16.425781 64.324219 C 16.464844 64.1875 16.519531 64.050781 16.585938 63.925781 Z M 16.585938 63.925781 "/>
<path style=" stroke:none;fill-rule:nonzero;fill:rgb(0,0,0);fill-opacity:1;" d="M 47.460938 25.617188 C 47.433594 25.589844 47.390625 25.570313 47.351563 25.574219 L 46.949219 25.574219 C 41.78125 25.574219 37.003906 23.460938 35.128906 20.3125 C 35.101563 20.269531 35.050781 20.242188 35 20.242188 C 34.949219 20.242188 34.898438 20.269531 34.871094 20.3125 C 32.996094 23.460938 28.246094 25.574219 23.050781 25.574219 L 22.648438 25.574219 C 22.609375 25.574219 22.570313 25.589844 22.539063 25.617188 C 22.515625 25.648438 22.5 25.683594 22.5 25.722656 L 22.5 38.003906 C 22.460938 41.539063 24.011719 48.078125 34.941406 52.511719 L 35.058594 52.511719 C 45.972656 48.078125 47.539063 41.523438 47.5 38.035156 L 47.5 25.722656 C 47.5 25.683594 47.484375 25.648438 47.460938 25.617188 Z M 44.953125 28.035156 L 44.953125 38.058594 C 44.953125 40.753906 43.757813 45.816406 35.207031 49.695313 L 35 49.765625 L 34.800781 49.675781 C 26.25 45.839844 25.019531 40.75 25.054688 38.039063 L 25.054688 28.035156 L 25.488281 27.992188 C 28.84375 27.6875 32.039063 26.425781 34.695313 24.351563 L 35.007813 24.09375 L 35.316406 24.351563 C 37.972656 26.421875 41.171875 27.6875 44.527344 27.992188 Z M 44.953125 28.035156 "/>
<path style=" stroke:none;fill-rule:nonzero;fill:rgb(0,0,0);fill-opacity:1;" d="M 31.484375 34.726563 L 32.96875 34.726563 C 33.011719 34.726563 33.050781 34.707031 33.078125 34.679688 C 33.105469 34.648438 33.121094 34.609375 33.121094 34.570313 L 33.121094 32.222656 C 33.121094 31.183594 33.960938 30.34375 35 30.34375 C 36.039063 30.34375 36.878906 31.183594 36.878906 32.222656 L 36.878906 34.570313 C 36.878906 34.609375 36.894531 34.648438 36.921875 34.679688 C 36.949219 34.707031 36.988281 34.726563 37.03125 34.726563 L 38.515625 34.726563 C 38.601563 34.726563 38.671875 34.65625 38.671875 34.570313 L 38.671875 32.222656 C 38.671875 30.195313 37.027344 28.554688 35 28.554688 C 32.972656 28.554688 31.328125 30.195313 31.328125 32.222656 L 31.328125 34.570313 C 31.328125 34.65625 31.398438 34.726563 31.484375 34.726563 Z M 39.917969 35.253906 C 39.917969 35.167969 39.847656 35.101563 39.761719 35.101563 L 30.238281 35.101563 C 30.152344 35.101563 30.082031 35.167969 30.082031 35.253906 L 30.082031 41.867188 C 30.082031 42.867188 32.886719 44.214844 35 44.226563 C 37.113281 44.238281 39.917969 42.867188 39.917969 41.847656 Z M 35.929688 41.226563 C 35.945313 41.269531 35.945313 41.316406 35.929688 41.355469 C 35.898438 41.394531 35.855469 41.414063 35.808594 41.414063 L 34.222656 41.414063 C 34.175781 41.410156 34.132813 41.390625 34.101563 41.355469 C 34.082031 41.316406 34.082031 41.269531 34.101563 41.226563 L 34.484375 39.425781 C 34.015625 39.183594 33.769531 38.65625 33.894531 38.144531 C 34.015625 37.632813 34.472656 37.273438 35 37.273438 C 35.527344 37.273438 35.984375 37.632813 36.105469 38.144531 C 36.230469 38.65625 35.984375 39.183594 35.515625 39.425781 Z M 35.929688 41.226563 "/>
</g>
</svg>
