<?xml version="1.0" encoding="UTF-8"?>
<svg xmlns="http://www.w3.org/2000/svg" xmlns:xlink="http://www.w3.org/1999/xlink" width="54pt" height="70pt" viewBox="0 0 54 70" version="1.1">
<g id="surface1">
<path style=" stroke:none;fill-rule:evenodd;fill:rgb(0,146,254);fill-opacity:1;" d="M 30.503906 6.792969 L 52.890625 61.917969 L 53.292969 62.847656 L 38.101563 -5.160156 Z M 30.503906 6.792969 "/>
<path style=" stroke:none;fill-rule:evenodd;fill:rgb(0,79,138);fill-opacity:1;" d="M 43.011719 37.59375 L 1.261719 54.046875 L 30.601563 6.761719 Z M 43.011719 37.59375 "/>
<path style=" stroke:none;fill-rule:evenodd;fill:rgb(0,112,196);fill-opacity:1;" d="M 53.296875 62.847656 L 43.011719 37.59375 L 29.246094 43.011719 Z M 53.296875 62.847656 "/>
<path style=" stroke:none;fill-rule:evenodd;fill:rgb(255,255,255);fill-opacity:1;" d="M 38.101563 -6.21875 C 37.746094 -6.21875 37.410156 -6.035156 37.21875 -5.726563 L 0.277344 53.515625 C 0.0390625 53.902344 0.0703125 54.402344 0.355469 54.753906 C 0.558594 55.003906 0.855469 55.140625 1.160156 55.140625 C 1.285156 55.140625 1.414063 55.117188 1.539063 55.070313 L 29.066406 44.226563 L 52.636719 63.671875 C 52.828125 63.828125 53.0625 63.90625 53.296875 63.90625 C 53.488281 63.90625 53.675781 63.855469 53.847656 63.75 C 54.226563 63.511719 54.414063 63.054688 54.3125 62.617188 L 39.117188 -5.394531 C 39.023438 -5.8125 38.691406 -6.132813 38.277344 -6.203125 C 38.21875 -6.214844 38.160156 -6.21875 38.101563 -6.21875 M 38.101563 -5.160156 L 53.296875 62.847656 L 29.253906 43.019531 L 1.261719 54.042969 L 38.101563 -5.160156 "/>
</g>
</svg>
