<?xml version="1.0" encoding="UTF-8"?>
<svg xmlns="http://www.w3.org/2000/svg" xmlns:xlink="http://www.w3.org/1999/xlink" width="68pt" height="70pt" viewBox="0 0 68 70" version="1.1">
<g id="surface1">
<path style=" stroke:none;fill-rule:nonzero;fill:rgb(0%,69.803922%,58.039216%);fill-opacity:1;" d="M 67.460938 26.578125 C 63.683594 10.9375 49.867188 0 34 0 C 17.917969 0 3.777344 11.59375 0.324219 27.453125 L 0 28.875 L 6.90625 28.875 L 7.125 28 C 10.253906 15.53125 21.371094 6.78125 34 6.78125 C 46.195313 6.78125 57.207031 15.203125 60.660156 27.125 L 60.875 27.890625 L 67.785156 27.890625 Z M 60.335938 43.75 L 60.121094 44.515625 C 56.128906 55.671875 45.65625 63.21875 34 63.21875 C 22.558594 63.21875 12.414063 56.21875 8.203125 45.390625 L 7.878906 44.625 L 0.863281 44.625 L 1.402344 46.15625 C 6.042969 60.375 19.210938 70 34 70 C 49.21875 70 62.496094 60.046875 67.027344 45.171875 L 67.460938 43.75 Z M 60.335938 43.75 "/>
<path style=" stroke:none;fill-rule:nonzero;fill:rgb(0%,69.803922%,58.039216%);fill-opacity:1;" d="M 37.347656 53.59375 L 29.789063 31.5 L 25.472656 39.59375 L 3.023438 39.59375 C 1.511719 39.59375 0.214844 38.28125 0.214844 36.75 C 0.214844 35.21875 1.511719 33.90625 3.023438 33.90625 L 22.128906 33.90625 L 30.976563 17.5 L 38.855469 40.6875 L 43.714844 33.03125 L 65.195313 33.03125 C 66.703125 33.03125 68 34.34375 68 35.875 C 68 37.40625 66.703125 38.71875 65.195313 38.71875 L 46.738281 38.71875 Z M 37.347656 53.59375 "/>
</g>
</svg>
