<?xml version="1.0" encoding="utf-8"?><svg version="1.1" xmlns="http://www.w3.org/2000/svg" xmlns:xlink="http://www.w3.org/1999/xlink" xmlns:xml="http://www.w3.org/XML/1998/namespace" width="70" height="70" viewBox="0, 0, 18, 18" id="e6e9dc42-aa45-4c25-a153-3c4dea6d1408"><defs><linearGradient x1="9" y1="12.85" x2="9" y2="0.09" gradientUnits="userSpaceOnUse" id="bee47a41-9626-4448-9119-87ad28e72505"><stop offset="0%" stop-color="#198AB3" /><stop offset="44%" stop-color="#28B7DB" /><stop offset="78%" stop-color="#32D4F5" /></linearGradient><linearGradient x1="8.97" y1="17.91" x2="8.97" y2="14.13" xlink:href="#bee47a41-9626-4448-9119-87ad28e72505" id="beb70c0a-9df6-4825-adec-20340c00add6" /></defs><path d="M18 8.85 A4.06 4.06 0 0 0 14.49 5 A5.1 5.1 0 0 0 9.24 0.09 a5.23 5.23 0 0 0 -5 3.41 A4.82 4.82 0 0 0 0 8.14 a4.9 4.9 0 0 0 5.07 4.71 l0.44 0 h8.21 a0.78 0.78 0 0 0 0.22 0 A4.09 4.09 0 0 0 18 8.85 Z" style="fill:url(#bee47a41-9626-4448-9119-87ad28e72505);" /><rect x="8.58" y="8.46" width="0.78" height="6.19" style="fill:#B3B3B3;" /><circle cx="8.97" cy="6.59" r="2.08" style="fill:#F2F2F2;" /><rect x="7.08" y="14.13" width="3.78" height="3.78" rx="0.73" style="fill:url(#beb70c0a-9df6-4825-adec-20340c00add6);" /></svg>