<?xml version="1.0" encoding="utf-8"?><svg version="1.1" xmlns="http://www.w3.org/2000/svg" xmlns:xlink="http://www.w3.org/1999/xlink" xmlns:xml="http://www.w3.org/XML/1998/namespace" width="70" height="70" viewBox="0, 0, 18, 18" id="a7c41816-c460-4394-bf0d-7d5af4f59c5d"><defs><linearGradient x1="2.59" y1="10.16" x2="15.41" y2="10.16" gradientUnits="userSpaceOnUse" id="ab5214c3-3e17-4021-b3c2-de63248529d4"><stop offset="0%" stop-color="#005BA1" /><stop offset="7%" stop-color="#0060A9" /><stop offset="36%" stop-color="#0071C8" /><stop offset="52%" stop-color="#0078D4" /><stop offset="64%" stop-color="#0074CD" /><stop offset="82%" stop-color="#006ABB" /><stop offset="100%" stop-color="#005BA1" /></linearGradient><radialGradient cx="9.36" cy="10.57" r="7.07" gradientUnits="userSpaceOnUse" id="bd8cfab1-5dd6-4d45-ad3d-d0c2bffa7473"><stop offset="0%" stop-color="#F2F2F2" /><stop offset="58%" stop-color="#EEEEEE" /><stop offset="100%" stop-color="#E6E6E6" /></radialGradient></defs><title>Icon-iot-198</title><path d="M9 5.14 c-3.54 0 -6.41 -1 -6.41 -2.32 V15.18 c0 1.27 2.82 2.3 6.32 2.32 H9 c3.54 0 6.41 -1 6.41 -2.32 V2.82 C15.41 4.11 12.54 5.14 9 5.14 Z" style="fill:url(#ab5214c3-3e17-4021-b3c2-de63248529d4);" /><path d="M15.41 2.82 c0 1.29 -2.87 2.32 -6.41 2.32 s-6.41 -1 -6.41 -2.32 S5.46 0.5 9 0.5 s6.41 1 6.41 2.32" style="fill:#E8E8E8;" /><path d="M13.92 2.63 c0 0.82 -2.21 1.48 -4.92 1.48 S4.08 3.45 4.08 2.63 S6.29 1.16 9 1.16 s4.92 0.66 4.92 1.47" style="fill:#50E6FF;" /><path d="M9 3 a11.55 11.55 0 0 0 -3.89 0.57 A11.42 11.42 0 0 0 9 4.11 a11.15 11.15 0 0 0 3.89 -0.58 A11.84 11.84 0 0 0 9 3 Z" style="fill:#198AB3;" /><path d="M12.9 11.4 V8 H12 v4.13 h2.46 V11.4 Z M5.76 9.73 a1.83 1.83 0 0 1 -0.51 -0.31 a0.44 0.44 0 0 1 -0.13 -0.32 a0.35 0.35 0 0 1 0.16 -0.3 a0.68 0.68 0 0 1 0.42 -0.12 a1.67 1.67 0 0 1 1 0.29 V8.11 a2.67 2.67 0 0 0 -1 -0.16 a1.64 1.64 0 0 0 -1.09 0.34 a1.08 1.08 0 0 0 -0.42 0.89 c0 0.51 0.32 0.91 1 1.21 a2.88 2.88 0 0 1 0.62 0.36 a0.42 0.42 0 0 1 0.15 0.32 a0.38 0.38 0 0 1 -0.16 0.31 a0.73 0.73 0 0 1 -0.45 0.11 a1.66 1.66 0 0 1 -1.09 -0.42 V12 a2.17 2.17 0 0 0 1.07 0.24 a1.88 1.88 0 0 0 1.18 -0.33 A1.08 1.08 0 0 0 6.84 11 a1.05 1.05 0 0 0 -0.25 -0.7 A2.42 2.42 0 0 0 5.76 9.73 Z M11 11.32 a2.34 2.34 0 0 0 0.33 -1.26 A2.32 2.32 0 0 0 11 9 a1.81 1.81 0 0 0 -0.7 -0.75 a2 2 0 0 0 -1 -0.26 a2.11 2.11 0 0 0 -1.08 0.27 A1.86 1.86 0 0 0 7.49 9 a2.46 2.46 0 0 0 -0.26 1.14 a2.26 2.26 0 0 0 0.24 1 a1.76 1.76 0 0 0 0.69 0.74 a2.06 2.06 0 0 0 1 0.3 l0.86 1 h1.21 L10 12.08 A1.79 1.79 0 0 0 11 11.32 Z M10 11.07 a0.94 0.94 0 0 1 -0.76 0.35 a0.92 0.92 0 0 1 -0.76 -0.36 a1.52 1.52 0 0 1 -0.29 -1 a1.53 1.53 0 0 1 0.29 -1 a1 1 0 0 1 0.78 -0.37 a0.87 0.87 0 0 1 0.75 0.37 a1.62 1.62 0 0 1 0.27 1 A1.46 1.46 0 0 1 10 11.07 Z" style="fill:url(#bd8cfab1-5dd6-4d45-ad3d-d0c2bffa7473);" /></svg>