<?xml version="1.0" encoding="UTF-8"?>
<svg xmlns="http://www.w3.org/2000/svg" xmlns:xlink="http://www.w3.org/1999/xlink" width="70pt" height="70pt" viewBox="0 0 70 70" version="1.1">
<g id="surface1">
<path style=" stroke:none;fill-rule:evenodd;fill:rgb(72.156863%,83.137255%,19.607843%);fill-opacity:1;" d="M 27.648438 11.378906 L 30.519531 9.359375 L 46.042969 31.441406 L 43.167969 33.460938 Z M 27.648438 11.378906 "/>
<path style=" stroke:none;fill-rule:evenodd;fill:rgb(72.156863%,83.137255%,19.607843%);fill-opacity:1;" d="M 43.183594 33.21875 L 46.230469 31.472656 L 59.964844 55.472656 L 56.917969 57.214844 Z M 43.183594 33.21875 "/>
<path style=" stroke:none;fill-rule:evenodd;fill:rgb(72.156863%,83.137255%,19.607843%);fill-opacity:1;" d="M 10.882813 33.707031 L 44.339844 30.929688 L 44.632813 34.425781 L 11.171875 37.207031 Z M 10.882813 33.707031 "/>
<path style=" stroke:none;fill-rule:evenodd;fill:rgb(72.156863%,83.137255%,19.607843%);fill-opacity:1;" d="M 31.324219 51.191406 L 43.105469 31.644531 L 46.113281 33.457031 L 34.332031 53.003906 Z M 31.324219 51.191406 "/>
<path style=" stroke:none;fill-rule:evenodd;fill:rgb(0%,44.705882%,77.647059%);fill-opacity:1;" d="M 69.121094 0 L 51.347656 0 C 50.691406 0 50.25 0.4375 50.25 1.316406 L 50.25 7.679688 C 50.25 8.335938 50.6875 8.777344 51.347656 8.777344 L 61.441406 8.777344 L 61.441406 18.652344 C 61.441406 19.308594 61.878906 19.75 62.757813 19.75 L 69.121094 19.75 C 69.777344 19.75 70.21875 19.308594 70.21875 18.652344 L 70.21875 1.097656 C 70.21875 0.441406 69.78125 0 69.121094 0 "/>
<path style=" stroke:none;fill-rule:evenodd;fill:rgb(0%,44.705882%,77.647059%);fill-opacity:1;" d="M 1.097656 70 L 18.871094 70 C 19.527344 70 19.96875 69.5625 19.96875 68.683594 L 19.96875 62.320313 C 19.96875 61.664063 19.53125 61.222656 18.871094 61.222656 L 8.777344 61.222656 L 8.777344 51.351563 C 8.777344 50.691406 8.339844 50.253906 7.460938 50.253906 L 1.097656 50.253906 C 0.441406 50.253906 0 50.6875 0 51.351563 L 0 68.90625 C 0 69.5625 0.4375 70 1.097656 70 "/>
<path style=" stroke:none;fill-rule:evenodd;fill:rgb(0%,42.745098%,83.921569%);fill-opacity:1;" d="M 29.40625 3.949219 C 33.160156 3.949219 36.207031 6.996094 36.207031 10.753906 C 36.207031 14.507813 33.160156 17.554688 29.40625 17.554688 C 25.648438 17.554688 22.601563 14.507813 22.601563 10.753906 C 22.601563 6.996094 25.648438 3.949219 29.40625 3.949219 "/>
<path style=" stroke:none;fill-rule:evenodd;fill:rgb(0%,42.745098%,83.921569%);fill-opacity:1;" d="M 44.984375 24.578125 C 49.46875 24.578125 53.101563 28.214844 53.101563 32.695313 C 53.101563 37.179688 49.46875 40.816406 44.984375 40.816406 C 40.5 40.816406 36.863281 37.179688 36.863281 32.695313 C 36.863281 28.214844 40.5 24.578125 44.984375 24.578125 "/>
<path style=" stroke:none;fill-rule:evenodd;fill:rgb(0%,42.745098%,83.921569%);fill-opacity:1;" d="M 58.589844 50.472656 C 62.101563 50.472656 64.953125 53.320313 64.953125 56.835938 C 64.953125 60.347656 62.101563 63.199219 58.589844 63.199219 C 55.074219 63.199219 52.226563 60.347656 52.226563 56.835938 C 52.226563 53.320313 55.074219 50.472656 58.589844 50.472656 "/>
<path style=" stroke:none;fill-rule:evenodd;fill:rgb(0%,42.745098%,83.921569%);fill-opacity:1;" d="M 33.355469 46.960938 C 36.382813 46.960938 38.839844 49.417969 38.839844 52.445313 C 38.839844 55.472656 36.382813 57.929688 33.355469 57.929688 C 30.324219 57.929688 27.867188 55.472656 27.867188 52.445313 C 27.867188 49.417969 30.324219 46.960938 33.355469 46.960938 "/>
<path style=" stroke:none;fill-rule:evenodd;fill:rgb(0%,42.745098%,83.921569%);fill-opacity:1;" d="M 11.191406 30.285156 C 14.21875 30.285156 16.675781 32.738281 16.675781 35.769531 C 16.675781 38.796875 14.21875 41.253906 11.191406 41.253906 C 8.160156 41.253906 5.703125 38.796875 5.703125 35.769531 C 5.703125 32.738281 8.160156 30.285156 11.191406 30.285156 "/>
</g>
</svg>
