<?xml version="1.0" encoding="UTF-8"?>
<svg xmlns="http://www.w3.org/2000/svg" xmlns:xlink="http://www.w3.org/1999/xlink" width="70pt" height="70pt" viewBox="0 0 70 70" version="1.1">
<defs>
<linearGradient id="linear0" gradientUnits="userSpaceOnUse" x1="2.59" y1="10.16" x2="15.41" y2="10.16" gradientTransform="matrix(3.888889,0,0,3.888889,0,0)">
<stop offset="0" style="stop-color:rgb(0,81,142);stop-opacity:1;"/>
<stop offset="0.07" style="stop-color:rgb(0,86,150);stop-opacity:1;"/>
<stop offset="0.36" style="stop-color:rgb(0,101,176);stop-opacity:1;"/>
<stop offset="0.52" style="stop-color:rgb(0,108,188);stop-opacity:1;"/>
<stop offset="0.64" style="stop-color:rgb(0,103,180);stop-opacity:1;"/>
<stop offset="0.82" style="stop-color:rgb(0,95,166);stop-opacity:1;"/>
<stop offset="1" style="stop-color:rgb(0,81,142);stop-opacity:1;"/>
</linearGradient>
<radialGradient id="radial0" gradientUnits="userSpaceOnUse" cx="9.36" cy="10.57" fx="9.36" fy="10.57" r="7.07" gradientTransform="matrix(3.888889,0,0,3.888889,0,0)">
<stop offset="0" style="stop-color:rgb(229,243,255);stop-opacity:1;"/>
<stop offset="0.58" style="stop-color:rgb(221,240,255);stop-opacity:1;"/>
<stop offset="1" style="stop-color:rgb(205,233,255);stop-opacity:1;"/>
</radialGradient>
</defs>
<g id="surface1">
<path style=" stroke:none;fill-rule:nonzero;fill:url(#linear0);" d="M 35 19.988281 C 21.234375 19.988281 10.070313 16.101563 10.070313 10.964844 L 10.070313 59.035156 C 10.070313 63.972656 21.039063 67.976563 34.648438 68.054688 L 35 68.054688 C 48.765625 68.054688 59.929688 64.167969 59.929688 59.035156 L 59.929688 10.964844 C 59.929688 15.984375 48.765625 19.988281 35 19.988281 Z M 35 19.988281 "/>
<path style=" stroke:none;fill-rule:nonzero;fill:rgb(209,235,255);fill-opacity:1;" d="M 59.929688 10.964844 C 59.929688 15.984375 48.765625 19.988281 35 19.988281 C 21.234375 19.988281 10.070313 16.101563 10.070313 10.964844 C 10.070313 5.832031 21.234375 1.945313 35 1.945313 C 48.765625 1.945313 59.929688 5.832031 59.929688 10.964844 "/>
<path style=" stroke:none;fill-rule:nonzero;fill:rgb(119,197,255);fill-opacity:1;" d="M 54.132813 10.226563 C 54.132813 13.417969 45.539063 15.984375 35 15.984375 C 24.460938 15.984375 15.867188 13.417969 15.867188 10.226563 C 15.867188 7.039063 24.460938 4.511719 35 4.511719 C 45.539063 4.511719 54.132813 7.078125 54.132813 10.226563 "/>
<path style=" stroke:none;fill-rule:nonzero;fill:rgb(0,124,216);fill-opacity:1;" d="M 35 11.667969 C 29.867188 11.535156 24.75 12.285156 19.871094 13.882813 C 24.753906 15.453125 29.875 16.164063 35 15.984375 C 40.136719 16.132813 45.257813 15.371094 50.128906 13.726563 C 45.234375 12.203125 40.121094 11.507813 35 11.667969 Z M 35 11.667969 "/>
<path style=" stroke:none;fill-rule:nonzero;fill:url(#radial0);" d="M 50.167969 44.332031 L 50.167969 31.109375 L 46.667969 31.109375 L 46.667969 47.171875 L 56.234375 47.171875 L 56.234375 44.332031 Z M 22.398438 37.839844 C 21.675781 37.546875 21.007813 37.140625 20.417969 36.632813 C 20.085938 36.304688 19.902344 35.855469 19.910156 35.390625 C 19.902344 34.917969 20.136719 34.476563 20.535156 34.222656 C 21.011719 33.890625 21.585938 33.726563 22.167969 33.753906 C 23.550781 33.707031 24.914063 34.101563 26.054688 34.882813 L 26.054688 31.539063 C 24.8125 31.085938 23.492188 30.875 22.167969 30.917969 C 20.640625 30.835938 19.136719 31.304688 17.929688 32.238281 C 16.859375 33.0625 16.25 34.351563 16.292969 35.699219 C 16.292969 37.683594 17.539063 39.238281 20.183594 40.40625 C 21.042969 40.769531 21.851563 41.242188 22.59375 41.804688 C 22.960938 42.113281 23.175781 42.570313 23.179688 43.050781 C 23.179688 43.527344 22.945313 43.976563 22.554688 44.253906 C 22.035156 44.585938 21.417969 44.734375 20.804688 44.683594 C 19.242188 44.671875 17.734375 44.089844 16.566406 43.050781 L 16.566406 46.667969 C 17.851563 47.328125 19.285156 47.648438 20.726563 47.601563 C 22.359375 47.695313 23.972656 47.246094 25.316406 46.316406 C 26.277344 45.40625 26.753906 44.09375 26.601563 42.777344 C 26.617188 41.78125 26.273438 40.8125 25.628906 40.054688 C 24.71875 39.097656 23.621094 38.34375 22.398438 37.839844 Z M 42.777344 44.023438 C 43.660156 42.542969 44.105469 40.84375 44.0625 39.121094 C 43.972656 37.664063 43.53125 36.25 42.777344 35 C 42.171875 33.785156 41.226563 32.773438 40.054688 32.082031 C 38.871094 31.410156 37.527344 31.0625 36.167969 31.070313 C 34.699219 31.039063 33.246094 31.402344 31.964844 32.121094 C 30.765625 32.792969 29.78125 33.789063 29.128906 35 C 28.4375 36.375 28.09375 37.894531 28.117188 39.433594 C 28.125 40.785156 28.445313 42.113281 29.050781 43.320313 C 29.644531 44.523438 30.578125 45.523438 31.734375 46.199219 C 32.90625 46.917969 34.246094 47.316406 35.621094 47.367188 L 38.964844 51.253906 L 43.671875 51.253906 L 38.890625 46.976563 C 40.5 46.496094 41.882813 45.445313 42.777344 44.023438 Z M 38.890625 43.050781 C 38.171875 43.941406 37.078125 44.445313 35.933594 44.410156 C 34.78125 44.449219 33.679688 43.925781 32.976563 43.011719 C 32.15625 41.886719 31.757813 40.511719 31.851563 39.121094 C 31.757813 37.734375 32.160156 36.359375 32.976563 35.234375 C 33.71875 34.320313 34.835938 33.789063 36.011719 33.792969 C 37.164063 33.746094 38.265625 34.289063 38.929688 35.234375 C 39.695313 36.378906 40.0625 37.746094 39.976563 39.121094 C 40.113281 40.519531 39.726563 41.921875 38.890625 43.050781 Z M 38.890625 43.050781 "/>
</g>
</svg>
