<?xml version="1.0" encoding="UTF-8"?>
<svg xmlns="http://www.w3.org/2000/svg" xmlns:xlink="http://www.w3.org/1999/xlink" width="67pt" height="70pt" viewBox="0 0 67 70" version="1.1">
<g id="surface1">
<path style=" stroke:none;fill-rule:nonzero;fill:rgb(0,102,178);fill-opacity:1;" d="M 31.679688 14.113281 C 31.679688 16.914063 29.414063 19.183594 26.617188 19.183594 C 23.824219 19.183594 21.558594 16.914063 21.558594 14.113281 C 21.558594 11.308594 23.824219 9.039063 26.617188 9.039063 C 29.414063 9.039063 31.679688 11.308594 31.679688 14.113281 Z M 31.679688 14.113281 "/>
<path style=" stroke:none;fill-rule:nonzero;fill:rgb(0,102,178);fill-opacity:1;" d="M 44.207031 30.445313 C 44.207031 33.785156 41.507813 36.492188 38.175781 36.492188 C 34.84375 36.492188 32.144531 33.785156 32.144531 30.445313 C 32.144531 27.105469 34.84375 24.398438 38.175781 24.398438 C 41.507813 24.398438 44.207031 27.105469 44.207031 30.445313 Z M 44.207031 30.445313 "/>
<path style=" stroke:none;fill-rule:nonzero;fill:rgb(0,102,178);fill-opacity:1;" d="M 52.992188 48.421875 C 52.992188 51.03125 50.882813 53.148438 48.277344 53.148438 C 45.671875 53.148438 43.558594 51.03125 43.558594 48.421875 C 43.558594 45.8125 45.671875 43.695313 48.277344 43.695313 C 50.882813 43.695313 52.992188 45.8125 52.992188 48.421875 Z M 52.992188 48.421875 "/>
<path style=" stroke:none;fill-rule:nonzero;fill:rgb(0,102,178);fill-opacity:1;" d="M 33.621094 45.15625 C 33.621094 47.40625 31.800781 49.234375 29.554688 49.234375 C 27.304688 49.234375 25.484375 47.40625 25.484375 45.15625 C 25.484375 42.902344 27.304688 41.078125 29.554688 41.078125 C 31.800781 41.078125 33.621094 42.902344 33.621094 45.15625 Z M 33.621094 45.15625 "/>
<path style=" stroke:none;fill-rule:nonzero;fill:rgb(0,102,178);fill-opacity:1;" d="M 17.144531 32.738281 C 17.144531 34.988281 15.324219 36.816406 13.074219 36.816406 C 10.828125 36.816406 9.007813 34.988281 9.007813 32.738281 C 9.007813 30.484375 10.828125 28.660156 13.074219 28.660156 C 15.324219 28.660156 17.144531 30.484375 17.144531 32.738281 Z M 17.144531 32.738281 "/>
<path style=" stroke:none;fill-rule:nonzero;fill:rgb(0,102,178);fill-opacity:1;" d="M 24.632813 14.511719 L 27.628906 12.398438 L 39.757813 29.695313 L 36.761719 31.804688 Z M 24.632813 14.511719 "/>
<path style=" stroke:none;fill-rule:nonzero;fill:rgb(0,102,178);fill-opacity:1;" d="M 36.21875 30.695313 L 39.398438 28.871094 L 50.121094 47.640625 L 46.941406 49.464844 Z M 36.21875 30.695313 "/>
<path style=" stroke:none;fill-rule:nonzero;fill:rgb(0,102,178);fill-opacity:1;" d="M 12.382813 30.636719 L 38.285156 28.480469 L 38.585938 32.140625 L 12.683594 34.296875 Z M 12.382813 30.636719 "/>
<path style=" stroke:none;fill-rule:nonzero;fill:rgb(0,102,178);fill-opacity:1;" d="M 27.421875 44.441406 L 36.710938 28.992188 L 39.847656 30.890625 L 30.558594 46.339844 Z M 27.421875 44.441406 "/>
<path style=" stroke:none;fill-rule:nonzero;fill:rgb(0,102,178);fill-opacity:1;" d="M 12.386719 17.90625 C 12.386719 20.59375 10.214844 22.773438 7.53125 22.773438 C 4.847656 22.773438 2.671875 20.59375 2.671875 17.90625 C 2.671875 15.214844 4.847656 13.035156 7.53125 13.035156 C 10.214844 13.035156 12.386719 15.214844 12.386719 17.90625 Z M 12.386719 17.90625 "/>
<path style=" stroke:none;fill-rule:nonzero;fill:rgb(0,102,178);fill-opacity:1;" d="M 64.207031 17.90625 C 64.207031 20.59375 62.03125 22.773438 59.347656 22.773438 C 56.664063 22.773438 54.492188 20.59375 54.492188 17.90625 C 54.492188 15.214844 56.664063 13.035156 59.347656 13.035156 C 62.03125 13.035156 64.207031 15.214844 64.207031 17.90625 Z M 64.207031 17.90625 "/>
<path style=" stroke:none;fill-rule:nonzero;fill:rgb(0,102,178);fill-opacity:1;" d="M 39.59375 64.167969 C 39.59375 66.855469 37.417969 69.035156 34.734375 69.035156 C 32.050781 69.035156 29.875 66.855469 29.875 64.167969 C 29.875 61.476563 32.050781 59.296875 34.734375 59.296875 C 37.417969 59.296875 39.59375 61.476563 39.59375 64.167969 Z M 39.59375 64.167969 "/>
<path style=" stroke:none;fill-rule:nonzero;fill:rgb(0,102,178);fill-opacity:1;" d="M 12.851563 13.625 C 18.054688 8.167969 25.382813 4.777344 33.5 4.777344 C 41.578125 4.777344 48.882813 8.144531 54.085938 13.5625 C 54.996094 12.449219 56.273438 11.617188 57.710938 11.25 C 57.386719 10.886719 57.042969 10.519531 56.675781 10.175781 C 53.660156 7.152344 50.160156 4.796875 46.253906 3.136719 C 42.203125 1.410156 37.914063 0.558594 33.480469 0.558594 C 29.046875 0.558594 24.753906 1.429688 20.707031 3.136719 C 16.800781 4.796875 13.296875 7.152344 10.28125 10.175781 C 9.917969 10.539063 9.574219 10.90625 9.230469 11.269531 C 10.707031 11.65625 11.941406 12.488281 12.851563 13.625 Z M 64.429688 22.492188 C 63.457031 23.566406 62.164063 24.316406 60.683594 24.621094 C 61.574219 27.402344 62.0625 30.34375 62.0625 33.425781 C 62.0625 46.695313 53.054688 57.855469 40.828125 61.101563 C 41.292969 62.035156 41.554688 63.070313 41.554688 64.1875 C 41.554688 64.574219 41.515625 64.957031 41.453125 65.324219 C 43.09375 64.917969 44.695313 64.371094 46.253906 63.71875 C 50.160156 62.054688 53.660156 59.703125 56.675781 56.679688 C 59.691406 53.65625 62.039063 50.144531 63.699219 46.230469 C 65.421875 42.171875 66.269531 37.871094 66.269531 33.425781 C 66.269531 29.652344 65.664063 25.980469 64.429688 22.492188 Z M 28.398438 61.589844 C 15.058594 59.175781 4.9375 47.488281 4.9375 33.40625 C 4.9375 30.34375 5.425781 27.402344 6.316406 24.621094 C 4.835938 24.359375 3.542969 23.605469 2.550781 22.574219 C 1.335938 26.042969 0.730469 29.675781 0.730469 33.40625 C 0.730469 37.851563 1.597656 42.152344 3.300781 46.210938 C 4.960938 50.125 7.308594 53.636719 10.324219 56.660156 C 13.339844 59.683594 16.839844 62.035156 20.746094 63.699219 C 23.117188 64.714844 25.585938 65.425781 28.117188 65.832031 C 27.972656 65.304688 27.914063 64.734375 27.914063 64.167969 C 27.894531 63.253906 28.074219 62.382813 28.398438 61.589844 Z M 28.398438 61.589844 "/>
</g>
</svg>
