<?xml version="1.0" encoding="utf-8"?><svg version="1.1" xmlns="http://www.w3.org/2000/svg" xmlns:xlink="http://www.w3.org/1999/xlink" xmlns:xml="http://www.w3.org/XML/1998/namespace" width="70" height="70" viewBox="0, 0, 18, 18" id="FxSymbol0-067" class="" role="presentation" focusable="false" data-type="1"><g><circle cx="9" cy="9" r="8.5" style="fill:url(#86d812fa-1267-4cea-b2d9-9d1d8ac5d08f);" /><circle cx="9" cy="9" r="7.321" style="fill:#00518E;" /><path d="M9.1 9.937 L6.266 7.125 a0.507 0.507 0 0 0 -0.709 0 L5.2 7.48 a0.469 0.469 0 0 0 -0.143 0.337 a0.476 0.476 0 0 0 0.141 0.339 l2.132 2.122 l-2.178 2.163 a0.473 0.473 0 0 0 0 0.676 l0.36 0.355 a0.507 0.507 0 0 0 0.709 0 l2.878 -2.86 a0.475 0.475 0 0 0 0.141 -0.338 a0.468 0.468 0 0 0 -0.141 -0.337 z m-0.345 -2.26 a0.475 0.475 0 0 0 0.141 0.338 l2.88 2.86 a0.507 0.507 0 0 0 0.709 0 l0.36 -0.356 a0.469 0.469 0 0 0 0.143 -0.337 a0.475 0.475 0 0 0 -0.141 -0.338 l-2.174 -2.162 l2.132 -2.123 a0.475 0.475 0 0 0 0.141 -0.338 a0.469 0.469 0 0 0 -0.143 -0.337 l-0.36 -0.356 a0.507 0.507 0 0 0 -0.709 0 L8.9 7.34 a0.472 0.472 0 0 0 -0.145 0.338 z" style="fill:#E5F3FF;" /></g><defs><radialGradient cx="9" cy="9" r="8.5" gradientUnits="userSpaceOnUse" id="86d812fa-1267-4cea-b2d9-9d1d8ac5d08f"><stop offset="0%" stop-color="#007CD8" /><stop offset="38.2%" stop-color="#007EDC" /><stop offset="57.6%" stop-color="#0085E8" /><stop offset="72.7%" stop-color="#0091FC" /><stop offset="85.6%" stop-color="#1B9EFF" /><stop offset="97%" stop-color="#41AEFF" /><stop offset="100%" stop-color="#4FB4FF" /></radialGradient></defs></svg>