<?xml version="1.0" encoding="UTF-8"?>
<svg xmlns="http://www.w3.org/2000/svg" xmlns:xlink="http://www.w3.org/1999/xlink" width="70pt" height="70pt" viewBox="0 0 70 70" version="1.1">
<g id="surface1">
<path style=" stroke:none;fill-rule:nonzero;fill:rgb(0,135,236);fill-opacity:1;" d="M 66.449219 30.148438 C 64.5625 28.261719 61.851563 27.734375 59.476563 28.507813 L 54.15625 23.1875 C 55.046875 21.085938 54.574219 18.652344 52.960938 17.039063 C 51.347656 15.425781 48.914063 14.953125 46.8125 15.84375 L 41.492188 10.523438 C 42.265625 8.148438 41.738281 5.4375 39.851563 3.550781 C 37.171875 0.871094 32.828125 0.871094 30.148438 3.550781 C 28.261719 5.4375 27.734375 8.148438 28.507813 10.523438 L 23.1875 15.84375 C 21.085938 14.953125 18.652344 15.425781 17.039063 17.039063 C 15.425781 18.652344 14.953125 21.085938 15.84375 23.1875 L 10.523438 28.507813 C 8.148438 27.734375 5.4375 28.261719 3.550781 30.148438 C 0.871094 32.828125 0.871094 37.171875 3.550781 39.851563 C 5.4375 41.738281 8.148438 42.265625 10.523438 41.492188 L 15.84375 46.8125 C 14.953125 48.914063 15.425781 51.347656 17.039063 52.960938 C 18.652344 54.574219 21.085938 55.046875 23.1875 54.15625 L 28.507813 59.476563 C 27.734375 61.851563 28.261719 64.5625 30.148438 66.449219 C 32.828125 69.128906 37.171875 69.128906 39.851563 66.449219 C 41.738281 64.5625 42.265625 61.851563 41.492188 59.476563 L 46.8125 54.15625 C 48.914063 55.046875 51.347656 54.574219 52.960938 52.960938 C 54.574219 51.347656 55.046875 48.914063 54.15625 46.8125 L 59.476563 41.492188 C 61.851563 42.265625 64.5625 41.738281 66.449219 39.851563 C 69.128906 37.171875 69.128906 32.828125 66.449219 30.148438 Z M 31.011719 56.042969 L 26.15625 51.1875 C 26.441406 50.515625 26.601563 49.777344 26.601563 49 C 26.601563 48.222656 26.441406 47.484375 26.15625 46.8125 L 35 37.96875 L 43.84375 46.8125 C 43.558594 47.484375 43.398438 48.222656 43.398438 49 C 43.398438 49.777344 43.558594 50.515625 43.84375 51.1875 L 38.988281 56.042969 C 36.605469 54.332031 33.394531 54.332031 31.011719 56.042969 Z M 13.957031 31.011719 L 18.8125 26.15625 C 19.484375 26.441406 20.222656 26.601563 21 26.601563 C 21.777344 26.601563 22.515625 26.441406 23.1875 26.15625 L 32.03125 35 L 23.1875 43.84375 C 22.515625 43.558594 21.777344 43.398438 21 43.398438 C 20.222656 43.398438 19.484375 43.558594 18.8125 43.84375 L 13.957031 38.988281 C 15.667969 36.605469 15.667969 33.394531 13.957031 31.011719 Z M 38.988281 13.957031 L 43.84375 18.8125 C 43.558594 19.484375 43.398438 20.222656 43.398438 21 C 43.398438 21.777344 43.558594 22.515625 43.84375 23.1875 L 35 32.03125 L 26.15625 23.1875 C 26.441406 22.515625 26.601563 21.777344 26.601563 21 C 26.601563 20.222656 26.441406 19.484375 26.15625 18.8125 L 31.011719 13.957031 C 33.394531 15.667969 36.605469 15.667969 38.988281 13.957031 Z M 49 43.398438 C 48.222656 43.398438 47.484375 43.558594 46.8125 43.84375 L 37.96875 35 L 46.8125 26.15625 C 47.484375 26.441406 48.222656 26.601563 49 26.601563 C 49.777344 26.601563 50.515625 26.441406 51.1875 26.15625 L 56.042969 31.011719 C 54.332031 33.394531 54.332031 36.605469 56.042969 38.988281 L 51.1875 43.84375 C 50.496094 43.550781 49.75 43.398438 49 43.398438 Z M 49 43.398438 "/>
</g>
</svg>
