<?xml version="1.0" encoding="UTF-8"?>
<svg xmlns="http://www.w3.org/2000/svg" xmlns:xlink="http://www.w3.org/1999/xlink" width="70pt" height="70pt" viewBox="0 0 70 70" version="1.1">
<defs>
<linearGradient id="linear0" gradientUnits="userSpaceOnUse" x1="2525.57" y1="-412.026" x2="2525.544" y2="-402.136" gradientTransform="matrix(1.944444,0.00388889,0.00388889,-1.944444,-4888.998333,-746.343889)">
<stop offset="0" style="stop-color:rgb(21,155,255);stop-opacity:1;"/>
<stop offset="1" style="stop-color:rgb(91,185,255);stop-opacity:1;"/>
</linearGradient>
<linearGradient id="linear1" gradientUnits="userSpaceOnUse" x1="12.79" y1="17.38" x2="12.79" y2="12.44" gradientTransform="matrix(3.888889,0,0,3.888889,0,0)">
<stop offset="0" style="stop-color:rgb(21,155,255);stop-opacity:1;"/>
<stop offset="1" style="stop-color:rgb(91,185,255);stop-opacity:1;"/>
</linearGradient>
<linearGradient id="linear2" gradientUnits="userSpaceOnUse" x1="15.3" y1="9.98" x2="15.3" y2="5.04" gradientTransform="matrix(3.888889,0,0,3.888889,0,0)">
<stop offset="0" style="stop-color:rgb(21,155,255);stop-opacity:1;"/>
<stop offset="1" style="stop-color:rgb(91,185,255);stop-opacity:1;"/>
</linearGradient>
<linearGradient id="linear3" gradientUnits="userSpaceOnUse" x1="2.7" y1="9.98" x2="2.7" y2="5.04" gradientTransform="matrix(3.888889,0,0,3.888889,0,0)">
<stop offset="0" style="stop-color:rgb(21,155,255);stop-opacity:1;"/>
<stop offset="1" style="stop-color:rgb(91,185,255);stop-opacity:1;"/>
</linearGradient>
<linearGradient id="linear4" gradientUnits="userSpaceOnUse" x1="9" y1="5.56" x2="9" y2="0.62" gradientTransform="matrix(3.888889,0,0,3.888889,0,0)">
<stop offset="0" style="stop-color:rgb(21,155,255);stop-opacity:1;"/>
<stop offset="1" style="stop-color:rgb(91,185,255);stop-opacity:1;"/>
</linearGradient>
</defs>
<g id="surface1">
<path style=" stroke:none;fill-rule:nonzero;fill:rgb(25,157,255);fill-opacity:1;" d="M 62.222656 28 L 39.820313 12.015625 L 35 8.476563 L 30.253906 11.976563 L 7.777344 28 L 16.527344 54.445313 L 18.355469 60.042969 L 51.800781 60.042969 L 53.550781 54.445313 L 62.222656 28.195313 Z M 22.398438 54.445313 L 14.621094 30.253906 L 35 15.554688 L 55.535156 30.292969 L 47.753906 54.484375 Z M 22.398438 54.445313 "/>
<path style=" stroke:none;fill-rule:nonzero;fill:url(#linear0);" d="M 29.320313 57.984375 C 29.320313 63.289063 25.023438 67.589844 19.714844 67.589844 C 14.410156 67.589844 10.109375 63.289063 10.109375 57.984375 C 10.109375 52.679688 14.410156 48.378906 19.714844 48.378906 C 25.023438 48.378906 29.320313 52.679688 29.320313 57.984375 Z M 29.320313 57.984375 "/>
<path style=" stroke:none;fill-rule:nonzero;fill:url(#linear1);" d="M 59.34375 57.984375 C 59.34375 63.289063 55.042969 67.589844 49.738281 67.589844 C 44.433594 67.589844 40.132813 63.289063 40.132813 57.984375 C 40.132813 52.679688 44.433594 48.378906 49.738281 48.378906 C 55.042969 48.378906 59.34375 52.679688 59.34375 57.984375 Z M 59.34375 57.984375 "/>
<path style=" stroke:none;fill-rule:nonzero;fill:url(#linear2);" d="M 69.105469 29.207031 C 69.105469 34.511719 64.804688 38.8125 59.5 38.8125 C 54.195313 38.8125 49.894531 34.511719 49.894531 29.207031 C 49.894531 23.902344 54.195313 19.601563 59.5 19.601563 C 64.804688 19.601563 69.105469 23.902344 69.105469 29.207031 Z M 69.105469 29.207031 "/>
<path style=" stroke:none;fill-rule:nonzero;fill:url(#linear3);" d="M 20.105469 29.207031 C 20.105469 34.511719 15.804688 38.8125 10.5 38.8125 C 5.195313 38.8125 0.894531 34.511719 0.894531 29.207031 C 0.894531 23.902344 5.195313 19.601563 10.5 19.601563 C 15.804688 19.601563 20.105469 23.902344 20.105469 29.207031 Z M 20.105469 29.207031 "/>
<path style=" stroke:none;fill-rule:nonzero;fill:url(#linear4);" d="M 44.605469 12.015625 C 44.605469 17.320313 40.304688 21.621094 35 21.621094 C 29.695313 21.621094 25.394531 17.320313 25.394531 12.015625 C 25.394531 6.710938 29.695313 2.410156 35 2.410156 C 40.304688 2.410156 44.605469 6.710938 44.605469 12.015625 Z M 44.605469 12.015625 "/>
</g>
</svg>
