<?xml version="1.0" encoding="UTF-8"?>
<svg xmlns="http://www.w3.org/2000/svg" xmlns:xlink="http://www.w3.org/1999/xlink" width="70pt" height="70pt" viewBox="0 0 70 70" version="1.1">
<defs>
<filter id="alpha" filterUnits="objectBoundingBox" x="0%" y="0%" width="100%" height="100%">
  <feColorMatrix type="matrix" in="SourceGraphic" values="0 0 0 0 1 0 0 0 0 1 0 0 0 0 1 0 0 0 1 0"/>
</filter>
<mask id="mask0">
  <g filter="url(#alpha)">
<rect x="0" y="0" width="70" height="70" style="fill:rgb(0%,0%,0%);fill-opacity:0.301961;stroke:none;"/>
  </g>
</mask>
<clipPath id="clip1">
  <rect x="0" y="0" width="70" height="70"/>
</clipPath>
<g id="surface5" clip-path="url(#clip1)">
<path style=" stroke:none;fill-rule:nonzero;fill:rgb(100%,54.901961%,0%);fill-opacity:1;" d="M 37.84375 24.5 L 52.0625 2.734375 L 40.90625 2.734375 L 29.09375 29.640625 L 43.09375 29.75 L 22.3125 67.265625 L 52.5 24.5 Z M 37.84375 24.5 "/>
</g>
</defs>
<g id="surface1">
<path style=" stroke:none;fill-rule:nonzero;fill:rgb(22.352941%,60%,77.647059%);fill-opacity:1;" d="M 69.5625 35.4375 C 70.21875 34.78125 70.109375 33.578125 69.5625 32.921875 L 66.171875 29.53125 L 51.078125 14.875 C 50.421875 14.21875 49.4375 14.21875 48.671875 14.875 C 48.015625 15.53125 47.796875 16.734375 48.671875 17.390625 L 64.53125 32.921875 C 65.1875 33.578125 65.1875 34.78125 64.53125 35.4375 L 48.34375 51.515625 C 47.6875 52.171875 47.6875 53.375 48.34375 54.03125 C 49 54.6875 50.203125 54.578125 50.75 54.03125 L 65.734375 39.15625 C 65.734375 39.15625 65.734375 39.15625 65.84375 39.046875 Z M 69.5625 35.4375 "/>
<path style=" stroke:none;fill-rule:nonzero;fill:rgb(22.352941%,60%,77.647059%);fill-opacity:1;" d="M 0.4375 35.4375 C -0.21875 34.78125 -0.109375 33.578125 0.4375 32.921875 L 3.828125 29.53125 L 18.921875 14.875 C 19.578125 14.21875 20.5625 14.21875 21.328125 14.875 C 21.984375 15.53125 22.203125 16.734375 21.328125 17.390625 L 5.796875 32.921875 C 5.140625 33.578125 5.140625 34.78125 5.796875 35.4375 L 21.65625 51.515625 C 22.3125 52.171875 22.3125 53.375 21.65625 54.03125 C 21 54.6875 19.796875 54.578125 19.25 54.03125 L 3.9375 39.375 C 3.9375 39.375 3.9375 39.375 3.828125 39.265625 Z M 0.4375 35.4375 "/>
<path style=" stroke:none;fill-rule:nonzero;fill:rgb(98.823529%,81.960784%,8.627451%);fill-opacity:1;" d="M 52.0625 2.734375 L 30.734375 2.734375 L 19.25 35.109375 L 33.25 35.21875 L 22.3125 67.265625 L 52.5 24.5 L 37.84375 24.5 Z M 52.0625 2.734375 "/>
<use xlink:href="#surface5" mask="url(#mask0)"/>
</g>
</svg>
