<?xml version="1.0" encoding="utf-8"?><svg version="1.1" xmlns="http://www.w3.org/2000/svg" xmlns:xlink="http://www.w3.org/1999/xlink" xmlns:xml="http://www.w3.org/XML/1998/namespace" width="70" height="70" viewBox="0, 0, 50, 50" id="FxSymbol0-09c" class="" role="presentation" focusable="false" data-type="1"><g><title /><path d="M29.4 47.5 c0 1.4 -1.1 2.5 -2.5 2.5 H2.5 C1.1 50 0 48.9 0 47.5 v-45 C0 1.1 1.1 0 2.5 0 h24.3 c1.4 0 2.5 1.1 2.5 2.5 v45 z" class="msportalfx-svg-c15" style="fill:#59B4D9;" /><path d="M4.3 27 c0 -1.8 1.4 -3.2 3.2 -3.2 h14.6 c1.8 0 3.2 1.4 3.2 3.2 c0 1.8 -1.4 3.2 -3.2 3.2 H7.5 c-1.8 0 -3.2 -1.4 -3.2 -3.2 z" class="msportalfx-svg-c19" style="fill:#0072C6;" /><circle cx="7.6" cy="27" r="2.1" class="msportalfx-svg-c13" style="fill:#B8D432;" /><path d="M4.3 17.5 c0 -1.8 1.4 -3.2 3.2 -3.2 h14.6 c1.8 0 3.2 1.4 3.2 3.2 c0 1.8 -1.4 3.2 -3.2 3.2 H7.5 c-1.8 0 -3.2 -1.4 -3.2 -3.2 z" class="msportalfx-svg-c19" style="fill:#0072C6;" /><circle cx="7.6" cy="17.5" r="2.1" class="msportalfx-svg-c13" style="fill:#B8D432;" /><path d="M4.3 8.1 c0 -1.8 1.4 -3.2 3.2 -3.2 h14.6 c1.8 0 3.2 1.4 3.2 3.2 c0 1.8 -1.4 3.2 -3.2 3.2 H7.5 c-1.8 0 -3.2 -1.5 -3.2 -3.2 z" class="msportalfx-svg-c19" style="fill:#0072C6;" /><circle cx="7.6" cy="8.1" r="2.1" class="msportalfx-svg-c13" style="fill:#B8D432;" /><path d="M39 20.4 l-2.7 0.6 l-3.4 1 l-0.4 1.4 v3.8 l-1.1 4.1 l-2.1 2.3 l-1.4 4.6 s2.2 2.3 2.2 2.8 c0.1 0.4 1.9 5.2 1.9 5.2 l2.1 0.8 h4.3 l4.5 -0.4 l4.1 -4.1 v-4.2 l-2.8 -6.7 l-2.1 -3.3 l-0.8 -2.3 l-0.9 -4.5 l-0.8 -1.2 c0.1 0 -0.6 0 -0.6 0.1 z" class="msportalfx-svg-c01" style="fill:white;" /><path d="M38.9 25.7 c-0.3 -0.1 -0.5 -0.2 -0.7 -0.3 c-0.3 -0.1 -0.5 -0.2 -0.7 -0.3 c-0.6 -0.4 -1.1 -0.6 -1.6 -0.6 h-0.1 c-0.2 0 -0.4 0 -0.7 0.1 c-0.5 0.2 -0.8 0.5 -1.1 0.7 l-0.1 0.1 l-0.1 0.1 l-0.1 0.1 c-0.1 0.1 -0.4 0.3 -0.7 0.5 c-0.3 0.2 -0.4 0.5 -0.3 0.8 c0.1 0.4 0.4 0.7 1 1 c0.2 0.1 0.4 0.3 0.6 0.4 c0.1 0.1 0.2 0.2 0.3 0.2 c0.2 0.2 0.5 0.4 1.1 0.4 h0.1 c0.5 0 0.9 -0.2 1.3 -0.4 c0.1 -0.1 0.2 -0.1 0.4 -0.2 s0.5 -0.3 0.7 -0.4 c0.7 -0.2 1.3 -0.7 1.5 -1.2 c0.1 -0.2 0.1 -0.5 0 -0.7 c-0.2 0.1 -0.5 -0.1 -0.8 -0.3 z m9.9 17.7 c-0.3 -0.3 -0.4 -0.8 -0.5 -1.3 v-0.2 c-0.1 -0.6 -0.3 -1 -0.5 -1.2 c-0.4 -0.3 -0.7 -0.4 -1.2 -0.3 h-0.3 c-0.4 0.5 -1.4 1.1 -2.1 1.1 h-0.3 c-0.7 -0.2 -1.1 -1 -1.2 -1.8 v-0.1 h-0.2 c-0.4 0.2 -0.7 0.7 -0.9 1.4 c-0.2 0.7 -0.2 1.5 -0.3 2.5 c0 0.5 -0.2 1.1 -0.4 1.8 c-0.1 0.3 -0.2 0.5 -0.2 0.8 c-0.3 1.1 -0.3 1.9 -0.1 2.3 c0.4 0.8 1.1 1.3 2 1.3 h0.2 c1 -0.1 2 -0.7 2.8 -1.6 c0.7 -0.8 1.7 -1.3 2.5 -1.7 c0.3 -0.2 0.6 -0.3 0.8 -0.4 c0.5 -0.3 0.7 -0.5 0.7 -0.9 c0 -0.5 -0.2 -1 -0.8 -1.7 z m-16.9 1.1 c-0.4 -0.5 -0.9 -1 -1.1 -1.5 c-0.4 -0.8 -0.8 -1.7 -1.2 -2.3 c-0.5 -0.6 -0.9 -1 -1.4 -1 h-0.3 c-0.4 0 -0.7 0.2 -0.9 0.5 c-0.1 0.2 -0.3 0.3 -0.4 0.5 c-0.1 0.2 -0.3 0.4 -0.5 0.6 c-0.3 0.3 -0.7 0.4 -1 0.5 c-0.1 0 -0.1 0 -0.2 0.1 c-0.4 0.1 -0.7 0.3 -1 0.7 c-0.2 0.3 -0.1 0.8 -0.1 1.3 v0.2 c0.1 0.4 0.1 0.9 0 1.3 c-0.3 0.8 -0.3 1.4 -0.2 1.7 c0.1 0.3 0.5 0.5 1 0.6 c0.3 0.1 0.7 0.1 1 0.1 c0.9 0.1 1.9 0.2 2.8 0.7 c0.9 0.4 1.8 0.7 2.6 0.7 c0.3 0 0.5 0 0.7 -0.1 c1 -0.2 1.5 -0.8 1.6 -1.8 c0.1 -0.5 -0.3 -1.2 -1 -2.2 c-0.1 -0.1 -0.2 -0.3 -0.4 -0.6 z" class="msportalfx-svg-c11" style="fill:#FCD116;" /><path d="M37.3 17.5 h-0.7 c-5.7 0.5 -4.2 6.5 -4.3 8.5 c-0.1 1.5 -0.4 2.6 -1.4 4.1 c-1.2 1.4 -2.9 3.7 -3.7 6.1 c-0.4 1.1 -0.6 2.3 -0.4 3.4 c-0.1 0 -0.1 0.1 -0.1 0.1 c-0.4 0.4 -0.6 0.8 -0.9 1.1 c-0.3 0.3 -0.7 0.4 -1.1 0.5 c-0.4 0.2 -0.9 0.4 -1.2 0.9 c-0.3 0.5 -0.2 1 -0.1 1.5 s0.2 1 0.1 1.3 c-0.3 0.9 -0.4 1.5 -0.1 2 c0.2 0.5 0.7 0.7 1.3 0.8 c1.1 0.2 2.6 0.2 3.8 0.8 l0.1 -0.2 l-0.1 0.2 c1.3 0.7 2.5 0.9 3.5 0.7 c0.7 -0.2 1.3 -0.6 1.6 -1.3 c0.8 0 1.7 -0.3 3.1 -0.4 c0.9 -0.1 2.1 0.3 3.5 0.3 c0 0.1 0.1 0.3 0.2 0.4 c0.5 1.1 1.5 1.5 2.6 1.5 c1 -0.1 2.2 -0.7 3.1 -1.8 l-0.2 -0.1 l0.2 0.1 c0.9 -1 2.3 -1.5 3.2 -2 c0.5 -0.3 0.9 -0.6 0.9 -1.2 c0 -0.5 -0.3 -1.1 -1 -1.9 c-0.2 -0.3 -0.3 -0.7 -0.5 -1.3 c-0.1 -0.5 -0.2 -1.1 -0.7 -1.4 c-0.2 -0.1 -0.3 -0.2 -0.5 -0.3 c0.6 -1.7 0.4 -3.5 -0.2 -5 c-0.7 -1.9 -2 -3.6 -3 -4.7 c-1.1 -1.4 -2.1 -2.7 -2.1 -4.6 c-0.1 -2.6 0.2 -8 -4.9 -8.1 z M38 22 c0.3 0 0.5 0.1 0.8 0.3 c0.3 0.2 0.4 0.4 0.6 0.8 c0.1 0.3 0.2 0.6 0.2 1 s-0.1 0.7 -0.2 1 c-0.1 0.2 -0.2 0.3 -0.3 0.5 c0 0 -0.1 0 -0.1 -0.1 c-0.3 -0.1 -0.5 -0.2 -0.7 -0.3 c0.1 -0.1 0.1 -0.2 0.2 -0.3 c0.1 -0.2 0.1 -0.4 0.1 -0.6 c0 -0.2 0 -0.4 -0.1 -0.5 c-0.1 -0.2 -0.1 -0.3 -0.3 -0.4 s-0.2 -0.2 -0.4 -0.2 c-0.1 0 -0.2 0 -0.4 0.1 c-0.1 0.1 -0.2 0.2 -0.3 0.4 s-0.1 0.4 -0.1 0.6 v0.3 c-0.3 -0.1 -0.5 -0.2 -0.7 -0.3 V24 c0 -0.4 0.1 -0.7 0.2 -1 c0.1 -0.3 0.3 -0.6 0.6 -0.8 s0.6 -0.2 0.9 -0.2 z m-4 0.3 c0.2 0 0.4 0.1 0.5 0.2 c0.2 0.2 0.3 0.4 0.5 0.6 s0.2 0.6 0.2 0.9 v0.4 h-0.1 l-0.6 0.3 v-0.3 c0 -0.2 -0.1 -0.3 -0.1 -0.4 c-0.1 -0.1 -0.1 -0.2 -0.2 -0.3 c-0.1 -0.1 -0.2 -0.1 -0.2 -0.1 c-0.1 0 -0.2 0.1 -0.3 0.1 s-0.1 0.2 -0.2 0.4 s0 0.3 0 0.5 s0 0.3 0.1 0.4 c0.1 0.1 0.1 0.2 0.2 0.3 l-0.2 0.2 s-0.1 0.1 -0.2 0.1 c-0.2 -0.1 -0.3 -0.3 -0.4 -0.6 c-0.1 -0.3 -0.2 -0.6 -0.2 -0.9 c0 -0.3 0 -0.6 0.1 -0.9 c0.1 -0.3 0.2 -0.5 0.4 -0.7 c0.2 -0.1 0.4 -0.1 0.7 -0.2 c0 0.1 0 0 0 0 z m1.8 2.3 c0.4 0 1 0.1 1.6 0.6 c0.4 0.3 0.7 0.3 1.4 0.6 c0.3 0.1 0.5 0.3 0.6 0.5 s0.1 0.4 0 0.6 c-0.2 0.4 -0.7 0.9 -1.4 1.1 c-0.4 0.1 -0.7 0.4 -1.1 0.6 s-0.8 0.4 -1.4 0.4 c-0.5 0 -0.8 -0.2 -1 -0.4 c-0.3 -0.2 -0.5 -0.5 -0.8 -0.7 c-0.5 -0.3 -0.8 -0.7 -0.9 -1 c-0.1 -0.3 0 -0.6 0.3 -0.8 c0.3 -0.2 0.5 -0.4 0.7 -0.5 c0.1 -0.1 0.2 -0.1 0.2 -0.2 c0.2 -0.2 0.6 -0.6 1.1 -0.8 c0.3 0.1 0.5 0 0.7 0 z m3.1 1.9 c-0.2 0 -0.4 0.1 -0.6 0.2 s-0.5 0.3 -0.8 0.5 c-0.6 0.3 -1.2 0.6 -1.9 0.6 s-1.2 -0.3 -1.6 -0.6 c-0.2 -0.2 -0.4 -0.3 -0.5 -0.4 l-0.2 -0.2 c-0.1 -0.1 -0.1 -0.1 -0.2 -0.1 v0.3 s0.1 0.1 0.2 0.1 c0.1 0.1 0.3 0.3 0.5 0.4 c0.4 0.3 1 0.7 1.7 0.7 s1.4 -0.3 2 -0.7 c0.3 -0.2 0.6 -0.3 0.8 -0.5 c0.2 -0.1 0.4 -0.2 0.5 -0.2 l0.1 -0.1 z m0.7 0.9 c0.5 1.9 1.6 4.7 2.4 6.1 c0.4 0.7 1.2 2.3 1.5 4.1 c0.2 0 0.4 0 0.7 0.1 c0.9 -2.3 -0.7 -4.7 -1.5 -5.4 c-0.3 -0.3 -0.3 -0.4 -0.2 -0.4 c0.8 0.7 1.9 2.1 2.2 3.7 c0.2 0.7 0.2 1.5 0 2.3 c0.1 0 0.2 0.1 0.3 0.1 c1.4 0.7 1.9 1.3 1.7 2.1 h-0.2 c0.2 -0.6 -0.2 -1.1 -1.4 -1.7 c-1.2 -0.5 -2.2 -0.5 -2.4 0.6 v0.2 c-0.1 0 -0.2 0.1 -0.3 0.1 c-0.6 0.3 -0.9 0.9 -1.1 1.6 c-0.2 0.7 -0.2 1.6 -0.3 2.5 c0 0.5 -0.2 1.1 -0.4 1.8 c-2 1.5 -4.9 2.1 -7.3 0.4 c-0.2 -0.3 -0.3 -0.5 -0.5 -0.8 c-0.1 -0.2 -0.2 -0.3 -0.4 -0.5 c0.2 0 0.5 0 0.6 -0.1 c0.2 -0.1 0.4 -0.2 0.4 -0.4 c0.1 -0.4 0 -0.9 -0.5 -1.6 c-0.5 -0.6 -1.3 -1.3 -2.4 -2.1 c-0.9 -0.5 -1.3 -1.2 -1.6 -1.9 s-0.2 -1.5 0 -2.2 c0.3 -1.5 1.2 -2.9 1.7 -3.8 c0.1 -0.1 0.1 0.2 -0.5 1.3 c-0.5 1 -1.5 3.4 -0.2 5.2 c0 -1.3 0.4 -2.6 0.9 -3.9 c0.8 -1.7 2.4 -4.7 2.5 -7.1 c0.1 0 0.3 0.2 0.4 0.3 c0.3 0.2 0.5 0.4 0.8 0.7 c0.3 0.2 0.6 0.4 1.2 0.5 c0.6 0 1.1 -0.2 1.5 -0.4 c0.4 -0.2 0.7 -0.5 1 -0.6 c0.6 -0.1 1.1 -0.4 1.4 -0.8 z m4 11 c0.3 0 0.6 0.1 0.9 0.2 c0.9 0.4 1.2 0.8 0.9 1.3 c-0.2 0.4 -1.1 1 -1.7 0.9 c-0.6 -0.2 -0.9 -1.1 -0.8 -1.7 c0 -0.5 0.3 -0.7 0.7 -0.7 z m-1 1.2 c0.1 0.8 0.5 1.7 1.2 1.9 c0.8 0.2 1.9 -0.5 2.4 -1 h0.3 c0.4 0 0.8 0 1.1 0.3 c0.3 0.2 0.4 0.7 0.5 1.2 s0.2 1.1 0.6 1.4 c0.7 0.7 0.9 1.2 0.9 1.6 c0 0.3 -0.2 0.6 -0.7 0.8 c-0.9 0.5 -2.4 1 -3.3 2.1 c-0.8 1 -1.9 1.5 -2.8 1.6 s-1.7 -0.3 -2.1 -1.2 c-0.3 -0.5 -0.2 -1.4 0.1 -2.3 c0.2 -0.9 0.6 -1.8 0.6 -2.6 c0 -1 0.1 -1.8 0.3 -2.5 c0.1 -0.5 0.3 -1 0.9 -1.3 c-0.1 0.1 -0.1 0.1 0 0 z m-14.7 0.1 h0.2 c0.5 0.1 1 0.4 1.4 1 s0.8 1.4 1.2 2.3 c0.3 0.7 1 1.4 1.6 2.2 c0.6 0.8 1 1.5 1 2.1 c-0.1 1 -0.6 1.6 -1.5 1.8 c-0.9 0.2 -2.1 0 -3.2 -0.6 c-1.3 -0.7 -2.9 -0.6 -3.9 -0.8 c-0.5 -0.1 -0.8 -0.3 -1 -0.6 s-0.2 -0.8 0.2 -1.7 c0.2 -0.5 0 -1 0 -1.5 c-0.1 -0.5 -0.1 -1 0.1 -1.3 c0.2 -0.4 0.5 -0.6 0.9 -0.7 c0.4 -0.1 0.9 -0.3 1.2 -0.6 c0.3 -0.4 0.6 -0.8 0.9 -1.1 c0.3 -0.3 0.5 -0.5 0.9 -0.5 z" class="msportalfx-svg-c06" style="fill:#1E1E1E;" /></g><defs /></svg>