<?xml version="1.0" encoding="utf-8"?><svg version="1.1" xmlns="http://www.w3.org/2000/svg" xmlns:xlink="http://www.w3.org/1999/xlink" xmlns:xml="http://www.w3.org/XML/1998/namespace" width="70" height="70" viewBox="0, 0, 18, 18" id="b477a1e6-3b3d-43e7-938b-88464f2dd176"><defs><linearGradient x1="9" y1="17.44" x2="9" y2="11.44" gradientUnits="userSpaceOnUse" id="bc25fd79-1e91-4c2f-8691-1f9665f6d0dc"><stop offset="0%" stop-color="#006CBC" /><stop offset="82%" stop-color="#29A4FF" /></linearGradient></defs><title>Icon-compute-39</title><g><rect x="5.62" y="0.56" width="9.97" height="12.48" rx="0.42" style="fill:#00518E;" /><rect x="4.11" y="1.91" width="9.97" height="12.48" rx="0.42" style="fill:#006CBC;" /><rect x="2.58" y="3.27" width="9.97" height="12.48" rx="0.42" style="fill:#2FA6FF;" /><g><polygon points="10.48,6.99 10.48,10.38 7.57,12.08 7.57,8.69 10.48,6.99" style="fill:#77C5FF;" /><polygon points="10.48,6.99 7.57,8.7 4.66,6.99 7.57,5.29 10.48,6.99" style="fill:#C9E8FF;" /><polygon points="7.57,8.7 7.57,12.08 4.66,10.38 4.66,6.99 7.57,8.7" style="fill:#ABDBFF;" /><polygon points="4.66,10.38 7.57,8.69 7.57,12.08 4.66,10.38" style="fill:#C9E8FF;" /><polygon points="10.48,10.38 7.57,8.69 7.57,12.08 10.48,10.38" style="fill:#ABDBFF;" /></g><rect x="0.56" y="11.44" width="16.87" height="5.99" rx="0.56" style="fill:url(#bc25fd79-1e91-4c2f-8691-1f9665f6d0dc);" /><rect x="6.6" y="12.92" width="4.81" height="0.87" rx="0.43" style="fill:#E5F3FF;" /></g></svg>