<?xml version="1.0" encoding="UTF-8"?>
<svg xmlns="http://www.w3.org/2000/svg" xmlns:xlink="http://www.w3.org/1999/xlink" width="70pt" height="65pt" viewBox="0 0 70 65" version="1.1">
<g id="surface1">
<path style=" stroke:none;fill-rule:nonzero;fill:rgb(0%,44.705882%,77.647059%);fill-opacity:1;" d="M 41.429688 1.695313 C 41.429688 0.707031 40.714844 0 39.714844 0 L 1.714844 0 C 0.714844 0 0 0.707031 0 1.695313 L 0 7.066406 L 41.429688 7.066406 Z M 16.71875 11.648438 C 16.804688 11.5625 17.015625 11.375 17.285156 11.375 L 17.550781 11.375 L 18.933594 12.4375 L 19.214844 12.714844 L 19.214844 12.71875 L 41.429688 12.71875 L 41.429688 8.476563 L 0 8.476563 L 0 35.042969 C 0 36.03125 0.714844 36.738281 1.714844 36.738281 L 12.855469 36.738281 L 12.855469 32.066406 L 11.738281 33.460938 L 7.027344 28.503906 L 6.605469 28.085938 C 6.320313 27.804688 6.320313 27.445313 6.605469 27.164063 L 7.765625 26.160156 L 7.996094 25.929688 L 8.144531 25.929688 C 8.429688 25.929688 8.585938 26.039063 8.628906 26.273438 L 11.410156 29.273438 L 12.855469 27.472656 L 12.855469 21.046875 L 11.738281 22.441406 L 7.027344 17.480469 L 6.605469 17.0625 C 6.320313 16.78125 6.320313 16.421875 6.605469 16.140625 L 7.765625 15.136719 L 7.996094 14.90625 L 8.144531 14.90625 C 8.429688 14.90625 8.585938 15.015625 8.628906 15.25 L 11.410156 18.246094 L 12.855469 16.449219 L 12.855469 15.824219 C 12.855469 14.105469 14.132813 12.804688 15.847656 12.730469 Z M 14.285156 15.824219 L 14.285156 21.195313 L 55.714844 21.195313 L 55.714844 15.824219 C 55.714844 14.835938 55 14.128906 54 14.128906 L 16 14.128906 C 15 14.128906 14.285156 14.835938 14.285156 15.824219 Z M 68.285156 28.261719 L 30.285156 28.261719 C 29.285156 28.261719 28.570313 28.96875 28.570313 29.957031 L 28.570313 35.324219 L 70 35.324219 L 70 29.957031 C 70 28.96875 69.285156 28.261719 68.285156 28.261719 Z M 31.003906 25.78125 C 31.089844 25.691406 31.300781 25.503906 31.570313 25.503906 L 31.835938 25.503906 L 33.21875 26.570313 L 33.5 26.84375 L 33.5 26.847656 L 55.714844 26.847656 L 55.714844 22.609375 L 14.285156 22.609375 L 14.285156 49.175781 C 14.285156 50.164063 15 50.871094 16 50.871094 L 27.144531 50.871094 L 27.144531 46.199219 L 26.023438 47.59375 L 21.3125 42.632813 L 20.890625 42.21875 C 20.605469 41.9375 20.605469 41.574219 20.890625 41.292969 L 22.050781 40.289063 L 22.28125 40.0625 L 22.429688 40.0625 C 22.714844 40.0625 22.871094 40.171875 22.914063 40.40625 L 25.695313 43.402344 L 27.144531 41.601563 L 27.144531 35.175781 L 26.023438 36.570313 L 21.3125 31.609375 L 20.890625 31.195313 C 20.605469 30.914063 20.605469 30.550781 20.890625 30.273438 L 22.050781 29.265625 L 22.28125 29.035156 L 22.429688 29.035156 C 22.714844 29.035156 22.871094 29.148438 22.914063 29.378906 L 25.695313 32.378906 L 27.144531 30.578125 L 27.144531 29.957031 C 27.144531 28.234375 28.421875 26.9375 30.132813 26.863281 Z M 28.570313 63.304688 C 28.570313 64.292969 29.285156 65 30.285156 65 L 68.285156 65 C 69.285156 65 70 64.292969 70 63.304688 L 70 36.738281 L 28.570313 36.738281 Z M 48.570313 45.21875 L 64.285156 45.21875 L 64.285156 48.042969 L 48.570313 48.042969 Z M 48.570313 56.523438 L 64.285156 56.523438 L 64.285156 59.347656 L 48.570313 59.347656 Z M 35.175781 44.402344 L 36.335938 43.398438 L 36.566406 43.167969 L 36.714844 43.167969 C 37 43.167969 37.15625 43.277344 37.203125 43.511719 L 39.980469 46.511719 L 45.292969 39.910156 C 45.378906 39.824219 45.585938 39.636719 45.855469 39.636719 L 46.121094 39.636719 L 47.503906 40.699219 L 47.785156 40.972656 L 47.785156 41.382813 L 40.308594 50.703125 L 35.597656 45.742188 L 35.175781 45.328125 C 34.894531 45.046875 34.894531 44.683594 35.175781 44.402344 Z M 35.175781 55.425781 L 36.335938 54.421875 L 36.566406 54.191406 L 36.714844 54.191406 C 37 54.191406 37.15625 54.304688 37.203125 54.535156 L 39.980469 57.535156 L 45.292969 50.933594 C 45.378906 50.847656 45.585938 50.660156 45.855469 50.660156 L 46.121094 50.660156 L 47.503906 51.722656 L 47.785156 51.996094 C 47.785156 51.996094 47.785156 52.40625 47.785156 52.40625 L 40.308594 61.722656 L 35.597656 56.765625 L 35.175781 56.347656 C 34.894531 56.066406 34.894531 55.707031 35.175781 55.425781 Z M 35.175781 55.425781 "/>
</g>
</svg>
