<?xml version="1.0" encoding="utf-8"?><svg version="1.1" xmlns="http://www.w3.org/2000/svg" xmlns:xlink="http://www.w3.org/1999/xlink" xmlns:xml="http://www.w3.org/XML/1998/namespace" width="70" height="70" viewBox="0, 0, 18, 18" id="a2157f88-f641-4f7d-abc7-f40ccf5cf69a"><defs><linearGradient x1="12.74" y1="15.28" x2="12.74" y2="8.52" gradientUnits="userSpaceOnUse" id="b816c8ea-05a2-41fb-ba99-96d84599c9f4"><stop offset="0%" stop-color="#0078D4" /><stop offset="82%" stop-color="#5EA0EF" /></linearGradient><linearGradient x1="12.74" y1="17.89" x2="12.74" y2="15.28" gradientUnits="userSpaceOnUse" id="ab373d88-41af-4fc3-b172-d4489f9107a0"><stop offset="15%" stop-color="#CCCCCC" /><stop offset="100%" stop-color="#707070" /></linearGradient></defs><title>Icon-compute-34</title><rect x="0.79" y="0.89" width="10.11" height="6.75" rx="0.34" style="fill:#005BA1;" /><polygon points="7.53,3.28 7.53,5.25 5.85,6.23 5.85,4.27 7.53,3.28" style="fill:#50E6FF;" /><polygon points="7.53,3.28 5.85,4.27 4.16,3.28 5.85,2.29 7.53,3.28" style="fill:#C3F1FF;" /><polygon points="5.85,4.27 5.85,6.23 4.16,5.25 4.16,3.28 5.85,4.27" style="fill:#9CEBFF;" /><rect x="4.76" y="4.76" width="10.11" height="6.75" rx="0.34" style="fill:#0078D4;" /><polygon points="11.5,7.16 11.5,9.12 9.82,10.11 9.82,8.14 11.5,7.16" style="fill:#50E6FF;" /><polygon points="11.5,7.16 9.82,8.14 8.13,7.16 9.82,6.17 11.5,7.16" style="fill:#C3F1FF;" /><polygon points="9.82,8.14 9.82,10.11 8.13,9.12 8.13,7.16 9.82,8.14" style="fill:#9CEBFF;" /><rect x="7.68" y="8.52" width="10.11" height="6.75" rx="0.34" style="fill:url(#b816c8ea-05a2-41fb-ba99-96d84599c9f4);" /><polygon points="14.42,10.92 14.42,12.88 12.74,13.87 12.74,11.9 14.42,10.92" style="fill:#50E6FF;" /><polygon points="14.42,10.92 12.74,11.91 11.05,10.92 12.74,9.93 14.42,10.92" style="fill:#C3F1FF;" /><polygon points="12.74,11.91 12.74,13.87 11.05,12.88 11.05,10.92 12.74,11.91" style="fill:#9CEBFF;" /><polygon points="11.05,12.88 12.74,11.9 12.74,13.87 11.05,12.88" style="fill:#C3F1FF;" /><polygon points="14.42,12.88 12.74,11.9 12.74,13.87 14.42,12.88" style="fill:#9CEBFF;" /><path d="M14.76 17.32 c-1 -0.16 -1 -0.88 -1 -2 h-2 c0 1.16 0 1.88 -1 2 a0.59 0.59 0 0 0 -0.5 0.57 h5 A0.59 0.59 0 0 0 14.76 17.32 Z" style="fill:url(#ab373d88-41af-4fc3-b172-d4489f9107a0);" /></svg>