<?xml version="1.0" encoding="utf-8"?><svg version="1.1" xmlns="http://www.w3.org/2000/svg" xmlns:xlink="http://www.w3.org/1999/xlink" xmlns:xml="http://www.w3.org/XML/1998/namespace" width="70" height="70" viewBox="0, 0, 18, 18" id="fca2105f-c039-4f34-bd65-8ab95d4ecdb9"><defs><linearGradient x1="5.57" y1="17.5" x2="5.57" y2="0.5" gradientUnits="userSpaceOnUse" id="a773af38-43e4-4fd2-9485-f8aac63ca91b"><stop offset="5%" stop-color="#949494" /><stop offset="36%" stop-color="#979797" /><stop offset="54%" stop-color="#9F9F9F" /><stop offset="69%" stop-color="#ADADAD" /><stop offset="73%" stop-color="#B3B3B3" /></linearGradient><linearGradient x1="10.56" y1="6.02" x2="10.56" y2="19.71" gradientUnits="userSpaceOnUse" id="b4779ae6-74a5-486d-8aad-cd011859785a"><stop offset="18%" stop-color="#5EA0EF" /><stop offset="100%" stop-color="#0078D4" /></linearGradient></defs><title>Icon-web-46</title><path d="M10.56 16.93 a0.56 0.56 0 0 1 -0.57 0.57 H1.14 a0.56 0.56 0 0 1 -0.56 -0.57 V1.07 A0.56 0.56 0 0 1 1.14 0.5 H10 a0.56 0.56 0 0 1 0.57 0.57 Z" style="fill:url(#a773af38-43e4-4fd2-9485-f8aac63ca91b);" /><path d="M2 6.46 A1.08 1.08 0 0 1 3.13 5.38 h5 A1.08 1.08 0 0 1 9.18 6.46 h0 A1.08 1.08 0 0 1 8.1 7.55 h-5 A1.09 1.09 0 0 1 2 6.46 Z" style="fill:#003067;" /><path d="M2 3.24 A1.09 1.09 0 0 1 3.13 2.15 h5 A1.08 1.08 0 0 1 9.18 3.24 h0 A1.08 1.08 0 0 1 8.1 4.32 h-5 A1.08 1.08 0 0 1 2 3.24 Z" style="fill:#003067;" /><circle cx="3.17" cy="3.24" r="0.73" style="fill:#50E6FF;" /><circle cx="3.17" cy="6.46" r="0.73" style="fill:#50E6FF;" /><path d="M17.42 14.38 a3.12 3.12 0 0 0 -2.67 -3 a3.93 3.93 0 0 0 -4 -3.8 a4 4 0 0 0 -3.83 2.66 A3.7 3.7 0 0 0 3.7 13.83 A3.77 3.77 0 0 0 7.56 17.5 l0.34 0 h6.26 l0.17 0 A3.15 3.15 0 0 0 17.42 14.38 Z" style="fill:url(#b4779ae6-74a5-486d-8aad-cd011859785a);" /><rect width="18" height="18" style="fill:none;" /></svg>