<?xml version="1.0" encoding="UTF-8"?>
<svg xmlns="http://www.w3.org/2000/svg" xmlns:xlink="http://www.w3.org/1999/xlink" width="70pt" height="70pt" viewBox="0 0 70 70" version="1.1">
<g id="surface1">
<path style=" stroke:none;fill-rule:evenodd;fill:rgb(0%,47.058824%,84.313725%);fill-opacity:1;" d="M 70.78125 29.867188 C 70.78125 23.742188 65.8125 18.800781 59.710938 18.800781 C 57.464844 18.800781 55.363281 19.488281 53.613281 20.644531 L 45.949219 14.308594 C 46.28125 13.265625 46.445313 12.179688 46.445313 11.066406 C 46.445313 4.941406 41.503906 0 35.378906 0 C 29.277344 0 24.335938 4.941406 24.335938 11.066406 C 24.335938 12.179688 24.5 13.265625 24.808594 14.285156 L 16.578125 21.117188 C 14.96875 20.335938 13.078125 19.914063 11.066406 19.914063 C 4.941406 19.914063 0 23.742188 0 29.867188 C 0 35.308594 3.925781 39.824219 9.105469 40.722656 L 12.085938 51.386719 C 9.765625 53.421875 8.277344 56.378906 8.277344 59.710938 C 8.277344 65.8125 13.242188 70.78125 19.34375 70.78125 C 24.097656 70.78125 28.117188 67.777344 29.703125 63.566406 L 41.078125 63.566406 C 42.636719 67.777344 46.683594 70.78125 51.414063 70.78125 C 57.539063 70.78125 62.480469 65.8125 62.480469 59.710938 C 62.480469 56.261719 60.894531 53.164063 58.414063 51.152344 L 61.460938 40.769531 C 66.738281 39.917969 70.78125 35.378906 70.78125 29.867188 Z M 51.414063 48.667969 C 46.066406 48.667969 41.621094 52.453125 40.582031 57.488281 L 30.175781 57.488281 C 29.136719 52.453125 24.6875 48.667969 19.34375 48.667969 C 18.777344 48.667969 18.210938 48.714844 17.664063 48.789063 L 15.253906 40.085938 C 19.273438 38.429688 22.113281 34.480469 22.113281 29.867188 C 22.113281 28.164063 21.734375 26.652344 21.046875 25.328125 L 28.164063 19.414063 C 30.105469 21.09375 32.613281 22.113281 35.378906 22.113281 C 38.144531 22.113281 40.675781 21.09375 42.613281 19.414063 L 49.664063 25.28125 C 49.023438 26.675781 48.667969 28.210938 48.667969 29.84375 C 48.667969 34.410156 51.414063 38.3125 55.335938 40.011719 L 52.761719 48.738281 C 52.335938 48.691406 51.886719 48.667969 51.414063 48.667969 Z M 51.414063 48.667969 "/>
</g>
</svg>
