<?xml version="1.0" encoding="UTF-8"?>
<svg xmlns="http://www.w3.org/2000/svg" xmlns:xlink="http://www.w3.org/1999/xlink" width="70pt" height="64pt" viewBox="0 0 70 64" version="1.1">
<g id="surface1">
<path style=" stroke:none;fill-rule:nonzero;fill:rgb(57,171,255);fill-opacity:1;" d="M 65.734375 0 L 3.847656 0 C 1.734375 0.0585938 0.0546875 1.785156 0.0742188 3.886719 L 0.0742188 46.785156 C 0.0546875 48.886719 1.734375 50.617188 3.847656 50.671875 L 26.339844 50.671875 C 28.574219 58.722656 25.5 59.835938 12.089844 59.835938 L 12.089844 64 L 57.628906 64 L 57.628906 59.835938 C 44.21875 59.835938 42.824219 58.722656 45.199219 50.671875 L 65.734375 50.671875 C 67.929688 50.648438 69.746094 48.960938 69.925781 46.785156 L 69.925781 3.886719 C 69.746094 1.710938 67.929688 0.0234375 65.734375 0 Z M 65.734375 0 "/>
<path style=" stroke:none;fill-rule:nonzero;fill:rgb(255,255,255);fill-opacity:1;" d="M 64.476563 5.277344 L 64.476563 45.398438 L 5.382813 45.398438 L 5.382813 5.277344 Z M 64.476563 5.277344 "/>
<path style=" stroke:none;fill-rule:nonzero;fill:rgb(0,102,178);fill-opacity:1;" d="M 35.699219 24.15625 L 35.558594 24.15625 L 23.265625 17.074219 C 23.125 17.074219 23.125 16.9375 23.125 16.796875 C 23.140625 16.691406 23.191406 16.59375 23.265625 16.519531 L 35.558594 9.578125 L 35.976563 9.578125 L 48.269531 16.660156 C 48.410156 16.660156 48.410156 16.796875 48.410156 16.9375 C 48.410156 17.074219 48.410156 17.214844 48.269531 17.214844 L 36.117188 24.15625 L 35.699219 24.15625 M 34.023438 41.230469 L 33.882813 41.230469 L 21.589844 34.152344 C 21.449219 34.152344 21.449219 34.011719 21.449219 33.875 L 21.449219 19.714844 C 21.464844 19.609375 21.511719 19.511719 21.589844 19.4375 L 22.007813 19.4375 L 34.300781 26.515625 C 34.441406 26.515625 34.441406 26.65625 34.441406 26.792969 L 34.441406 40.953125 C 34.425781 41.058594 34.378906 41.15625 34.300781 41.230469 L 34.023438 41.230469 M 37.515625 41.230469 L 37.375 41.230469 C 37.234375 41.230469 37.234375 41.09375 37.234375 40.953125 L 37.234375 26.933594 C 37.25 26.828125 37.300781 26.730469 37.375 26.65625 L 49.667969 19.574219 L 50.085938 19.574219 C 50.226563 19.574219 50.226563 19.714844 50.226563 19.851563 L 50.226563 33.875 C 50.210938 33.980469 50.164063 34.078125 50.085938 34.152344 L 37.792969 41.230469 L 37.515625 41.230469 M 21.03125 8.746094 L 8.457031 8.746094 L 8.457031 21.242188 L 12.648438 21.242188 L 12.648438 12.910156 L 21.03125 12.910156 Z M 8.457031 29.570313 L 8.457031 42.066406 L 21.03125 42.066406 L 21.03125 37.898438 L 12.648438 37.898438 L 12.648438 29.570313 Z M 48.96875 42.066406 L 61.542969 42.066406 L 61.542969 29.570313 L 57.351563 29.570313 L 57.351563 37.898438 L 48.96875 37.898438 Z M 61.542969 21.242188 L 61.542969 8.746094 L 48.96875 8.746094 L 48.96875 12.910156 L 57.351563 12.910156 L 57.351563 21.242188 Z M 61.542969 21.242188 "/>
</g>
</svg>
