<?xml version="1.0" encoding="utf-8"?><svg version="1.1" xmlns="http://www.w3.org/2000/svg" xmlns:xlink="http://www.w3.org/1999/xlink" xmlns:xml="http://www.w3.org/XML/1998/namespace" width="70" height="70" viewBox="0, 0, 18, 18" id="afcc3783-7378-4497-bf15-72c20633bf21"><defs><linearGradient x1="8.99" y1="16.61" x2="8.99" y2="-1.27" gradientUnits="userSpaceOnUse" id="b82da118-993d-4c39-803c-c36675d35ebf"><stop offset="0%" stop-color="#0078D4" /><stop offset="16%" stop-color="#1380DA" /><stop offset="53%" stop-color="#3C91E5" /><stop offset="82%" stop-color="#559CEC" /><stop offset="100%" stop-color="#5EA0EF" /></linearGradient></defs><title>Icon-compute-30</title><path d="M18 10.55 a4.11 4.11 0 0 0 -3.51 -4 a5.14 5.14 0 0 0 -5.25 -5 a5.26 5.26 0 0 0 -5 3.47 A4.87 4.87 0 0 0 0 9.82 a4.94 4.94 0 0 0 5.07 4.8 l0.44 0 h8.21 a1.46 1.46 0 0 0 0.22 0 A4.13 4.13 0 0 0 18 10.55 Z" style="fill:url(#b82da118-993d-4c39-803c-c36675d35ebf);" /><circle cx="5.24" cy="9.65" r="0.71" style="fill:buttonface;" /><path d="M7.74 9.92 V9.35 l-0.08 0 l-0.61 -0.2 l-0.16 -0.39 l0.31 -0.66 l-0.4 -0.4 l-0.08 0 L6.15 8 l-0.39 -0.16 l-0.25 -0.69 H4.94 l0 0.08 l-0.2 0.61 L4.32 8 l-0.65 -0.31 l-0.4 0.4 l0 0.08 l0.29 0.57 l-0.16 0.39 l-0.7 0.25 V10 l0.08 0 l0.61 0.2 l0.16 0.39 l-0.31 0.66 l0.4 0.4 l0.08 0 l0.57 -0.29 l0.39 0.16 l0.25 0.69 h0.57 l0 -0.08 l0.2 -0.61 l0.39 -0.16 l0.66 0.31 l0.4 -0.4 l0 -0.08 l-0.29 -0.57 l0.16 -0.39 Z m-2.5 0.83 a1.1 1.1 0 1 1 1.1 -1.1 A1.09 1.09 0 0 1 5.24 10.75 Z" style="fill:white;" /><circle cx="10" cy="6.59" r="0.84" style="fill:buttonface;" /><path d="M13 6.91 V6.23 l-0.09 0 L12.17 6 L12 5.49 l0.37 -0.8 l-0.48 -0.48 l-0.09 0 l-0.69 0.35 l-0.46 -0.19 l-0.3 -0.83 H9.64 l0 0.1 l-0.24 0.73 l-0.47 0.19 l-0.78 -0.37 l-0.48 0.48 l0.05 0.09 L8 5.5 L7.84 6 L7 6.27 V7 l0.1 0 l0.73 0.24 L8 7.69 l-0.37 0.8 L8.13 9 l0.1 -0.05 l0.68 -0.35 l0.47 0.19 l0.3 0.83 h0.68 l0 -0.1 l0.24 -0.73 l0.47 -0.19 l0.79 0.37 l0.48 -0.48 l-0.05 -0.09 L12 7.68 l0.19 -0.47 Z m-3 1 a1.32 1.32 0 1 1 1.32 -1.32 A1.31 1.31 0 0 1 10 7.91 Z" style="fill:white;" /></svg>