<?xml version="1.0" encoding="utf-8"?><svg version="1.1" xmlns="http://www.w3.org/2000/svg" xmlns:xlink="http://www.w3.org/1999/xlink" xmlns:xml="http://www.w3.org/XML/1998/namespace" width="70" height="70" viewBox="0, 0, 18, 18" id="fd454f1c-5506-44b8-874e-8814b8b2f70b"><defs><linearGradient x1="8.88" y1="12.21" x2="8.88" y2="0.21" gradientUnits="userSpaceOnUse" id="f34d9569-2bd0-4002-8f16-3d01d8106cb5"><stop offset="0%" stop-color="#0078D4" /><stop offset="82%" stop-color="#5EA0EF" /></linearGradient><linearGradient x1="8.88" y1="16.84" x2="8.88" y2="12.21" gradientUnits="userSpaceOnUse" id="bdb45a0b-eb58-4970-a60a-fb2ce314f866"><stop offset="15%" stop-color="#CCCCCC" /><stop offset="100%" stop-color="#707070" /></linearGradient></defs><title>Icon-compute-21</title><rect x="-0.12" y="0.21" width="18" height="12" rx="0.6" style="fill:url(#f34d9569-2bd0-4002-8f16-3d01d8106cb5);" /><polygon points="11.88,4.46 11.88,7.95 8.88,9.71 8.88,6.21 11.88,4.46" style="fill:#50E6FF;" /><polygon points="11.88,4.46 8.88,6.22 5.88,4.46 8.88,2.71 11.88,4.46" style="fill:#C3F1FF;" /><polygon points="8.88,6.22 8.88,9.71 5.88,7.95 5.88,4.46 8.88,6.22" style="fill:#9CEBFF;" /><polygon points="5.88,7.95 8.88,6.21 8.88,9.71 5.88,7.95" style="fill:#C3F1FF;" /><polygon points="11.88,7.95 8.88,6.21 8.88,9.71 11.88,7.95" style="fill:#9CEBFF;" /><path d="M12.49 15.84 c-1.78 -0.28 -1.85 -1.56 -1.85 -3.63 H7.11 c0 2.07 -0.06 3.35 -1.84 3.63 a1 1 0 0 0 -0.89 1 h9 A1 1 0 0 0 12.49 15.84 Z" style="fill:url(#bdb45a0b-eb58-4970-a60a-fb2ce314f866);" /></svg>