<?xml version="1.0" encoding="utf-8"?><svg version="1.1" xmlns="http://www.w3.org/2000/svg" xmlns:xlink="http://www.w3.org/1999/xlink" xmlns:xml="http://www.w3.org/XML/1998/namespace" width="70" height="70" viewBox="0, 0, 18, 18"><defs><radialGradient cx="8.38" cy="445.94" r="4.05" gradientUnits="userSpaceOnUse" gradientTransform="translate(0, -704.99) scale(1, 1.59)" id="548fd318-b3ed-4f2d-8adb-48f6e9685bcf"><stop offset="0%" stop-color="#29A4FF" /><stop offset="11%" stop-color="#1B9EFF" /><stop offset="51%" stop-color="#0084E6" /><stop offset="82%" stop-color="#0072C6" /><stop offset="100%" stop-color="#006CBC" /></radialGradient></defs><path d="M2.12 0.5 H4.1 v0.57 H2.12 z m14.5 0.57 h0.32 v0.3 h0.55 V0.5 h-0.87 v0.57 z M1.4 16.9 h-0.28 v-0.32 H0.5 v0.93 h0.9 v-0.6 z m15.55 -0.3 v0.3 h-0.32 v0.6 h0.87 v-0.9 h-0.55 z M1.13 1.36 v-0.3 h0.28 V0.5 H0.5 v0.86 h0.63 z M5.07 0.5 h1.97 v0.57 H5.07 z M8 0.5 h1.97 v0.57 H8 z m2.96 0 h1.97 v0.57 h-1.97 z m2.94 0 h1.97 v0.57 H13.9 z M2.14 16.9 H4.1 v0.57 H2.14 z m2.94 0 h1.97 v0.57 H5.08 z m2.95 0 H10 v0.57 H8.03 z m2.95 0 h1.97 v0.57 h-1.97 z m2.94 0 h1.97 v0.57 h-1.97 z m3 -14.85 h0.57 v1.97 h-0.57 z m0 2.95 h0.57 v1.97 h-0.57 z m0 2.94 h0.57 V9.9 h-0.57 z m0 2.94 h0.57 v1.97 h-0.57 z m0 2.95 h0.57 v1.97 h-0.57 z M0.5 2.03 h0.57 V4 H0.5 z m0 2.95 h0.57 v1.97 H0.5 z m0 2.94 h0.57 V9.9 H0.5 z m0 2.95 h0.57 v1.97 H0.5 z m0 2.93 h0.57 v1.97 H0.5 z" style="fill:#006CBC;" /><path d="M10.3 11 a1.5 1.5 0 0 1 0 -2.11 l0.76 -0.76 a12.13 12.13 0 0 0 -2.67 -0.29 c-3.07 0 -5.55 1 -5.55 2.28 S5.3 12.4 8.38 12.4 a11.83 11.83 0 0 0 2.93 -0.4 z" style="fill:#2FA6FF;" /><ellipse cx="8.38" cy="5.05" rx="5.54" ry="2.28" style="fill:url(#548fd318-b3ed-4f2d-8adb-48f6e9685bcf);" /><ellipse cx="8.51" cy="5.02" rx="1.84" ry="0.5" style="fill:#00518E;" /><g style="fill:#006CBC;"><path d="M15.58 10.65 a1 1 0 0 0 0 -1.44 l-1.76 -1.77 a1 1 0 0 0 -1.44 0 L10.62 9.2 a1 1 0 0 0 0 1.44 l1.47 1.5 a0.32 0.32 0 0 1 0.08 0.2 v2.73 a0.35 0.35 0 0 0 0.1 0.24 l0.67 0.67 a0.24 0.24 0 0 0 0.33 0 l1.02 -1.02 a0.14 0.14 0 0 0 0 -0.19 l-0.3 -0.28 a0.13 0.13 0 0 1 0 -0.2 l0.27 -0.28 a0.14 0.14 0 0 0 0 -0.19 l-0.27 -0.27 a0.14 0.14 0 0 1 0 -0.21 l0.27 -0.27 a0.14 0.14 0 0 0 0 -0.19 l-0.38 -0.4 v-0.13 z M13.1 7.87 a0.58 0.58 0 1 1 0 1.13 a0.58 0.58 0 0 1 0 -1.16 z" /><path d="M12.05 7.1 a1.49 1.49 0 0 1 1 -0.44 a1.59 1.59 0 0 1 0.65 0.15 a1.2 1.2 0 0 0 0.17 -0.48 V5 c0 1.25 -2.48 2.27 -5.54 2.27 s-5.5 -1 -5.5 -2.27 v1.26 c0 1.26 2.48 2.28 5.55 2.28 a12.65 12.65 0 0 0 2.48 -0.24 z" /></g><g style="fill:#C9E8FF;"><path d="M12.65 15.1 a0.13 0.13 0 0 0 0.18 0 a0.11 0.11 0 0 0 0 -0.08 v-2.25 a0.17 0.17 0 0 0 -0.06 -0.11 a0.13 0.13 0 0 0 -0.17 0 a0.07 0.07 0 0 0 0 0.07 V15 a0.11 0.11 0 0 0 0.05 0.1 z" opacity="0.75" /><rect x="11.7" y="9.79" width="2.89" height="0.34" rx="0.16" opacity="0.75" /><rect x="11.7" y="10.35" width="2.89" height="0.34" rx="0.16" opacity="0.75" /></g><path d="M11.7 12.42 l-0.42 -0.42 a12.21 12.21 0 0 1 -2.9 0.34 c-3.07 0 -5.55 -1 -5.55 -2.28 v1.27 c0 1.26 2.48 2.28 5.55 2.28 a11.72 11.72 0 0 0 3.32 -0.46 z M9.87 9.74 a4.91 4.91 0 0 0 -1.36 -0.17 c-1 0 -1.84 0.23 -1.84 0.5 s0.83 0.5 1.84 0.5 a4.89 4.89 0 0 0 1.43 -0.19 a1.59 1.59 0 0 1 -0.07 -0.65 z" style="fill:#008AF0;" /></svg>