<?xml version="1.0" encoding="UTF-8"?>
<svg xmlns="http://www.w3.org/2000/svg" xmlns:xlink="http://www.w3.org/1999/xlink" width="70pt" height="70pt" viewBox="0 0 70 70" version="1.1">
<g id="surface1">
<path style=" stroke:none;fill-rule:evenodd;fill:rgb(0%,47.058824%,84.313725%);fill-opacity:1;" d="M 43.878906 39.355469 C 43.9375 39.355469 43.972656 39.335938 44.011719 39.320313 L 53.300781 33.957031 C 53.394531 33.921875 53.449219 33.828125 53.449219 33.714844 C 53.449219 33.621094 53.394531 33.527344 53.300781 33.472656 L 43.953125 28.09375 C 43.863281 28.039063 43.769531 28.039063 43.675781 28.09375 L 34.386719 33.4375 C 34.292969 33.492188 34.253906 33.585938 34.253906 33.679688 C 34.253906 33.789063 34.292969 33.882813 34.386719 33.921875 L 43.730469 39.320313 C 43.789063 39.335938 43.824219 39.355469 43.878906 39.355469 Z M 42.539063 52.445313 C 42.578125 52.445313 42.632813 52.445313 42.671875 52.425781 C 42.761719 52.371094 42.820313 52.277344 42.820313 52.164063 L 42.820313 41.386719 C 42.820313 41.292969 42.761719 41.199219 42.671875 41.144531 L 33.363281 35.78125 C 33.269531 35.726563 33.15625 35.726563 33.0625 35.78125 C 32.988281 35.820313 32.933594 35.914063 32.933594 36.023438 L 32.933594 46.804688 C 32.933594 46.894531 32.988281 46.988281 33.0625 47.046875 L 42.390625 52.40625 C 42.429688 52.445313 42.484375 52.445313 42.539063 52.445313 Z M 45.164063 52.445313 C 45.21875 52.445313 45.277344 52.445313 45.3125 52.425781 L 54.621094 47.046875 C 54.714844 46.988281 54.769531 46.894531 54.769531 46.804688 L 54.769531 36.097656 C 54.769531 35.988281 54.714844 35.894531 54.621094 35.835938 C 54.527344 35.800781 54.4375 35.800781 54.34375 35.835938 L 45.035156 41.21875 C 44.941406 41.273438 44.886719 41.367188 44.886719 41.460938 L 44.886719 52.164063 C 44.886719 52.277344 44.941406 52.371094 45.035156 52.40625 C 45.070313 52.445313 45.128906 52.445313 45.164063 52.445313 Z M 41.253906 20.90625 L 35.539063 17.613281 C 35.445313 17.554688 35.335938 17.554688 35.261719 17.613281 L 29.527344 20.90625 L 19.210938 20.90625 C 17.628906 20.90625 16.347656 22.339844 16.347656 23.921875 L 16.347656 45.109375 L 12.363281 45.109375 L 12.363281 14.519531 L 57.378906 14.464844 L 57.378906 20.90625 Z M 50.769531 59.648438 L 66.21875 59.648438 C 67.804688 59.648438 69.421875 58.234375 69.421875 56.652344 L 69.421875 23.921875 C 69.421875 22.339844 67.804688 20.90625 66.21875 20.90625 L 61.417969 20.90625 L 61.417969 13.460938 C 61.417969 11.859375 59.796875 10.445313 58.214844 10.445313 L 53.078125 10.445313 L 53.078125 3.015625 C 53.09375 1.414063 51.476563 0 49.875 0 L 2.886719 0 C 1.285156 0 0 1.433594 0 3.015625 L 0 35.746094 C 0 37.328125 1.285156 38.742188 2.886719 38.742188 L 8.339844 38.742188 L 8.339844 46.1875 C 8.339844 47.769531 9.625 49.1875 11.226563 49.1875 L 16.347656 49.1875 L 16.347656 56.652344 C 16.347656 58.234375 17.628906 59.648438 19.210938 59.648438 L 36.320313 59.648438 C 38.054688 65.773438 35.726563 66.648438 25.523438 66.648438 L 25.523438 69.851563 L 60.226563 69.851563 L 60.226563 66.648438 C 50.023438 66.648438 49.019531 65.773438 50.769531 59.648438 Z M 65.8125 55.570313 L 20.777344 55.570313 L 20.777344 25.003906 L 65.8125 24.929688 Z M 32.878906 10.445313 L 27.199219 7.167969 C 27.105469 7.128906 27.011719 7.128906 26.921875 7.167969 L 21.242188 10.445313 L 11.226563 10.445313 C 9.625 10.445313 8.339844 11.859375 8.339844 13.460938 L 8.339844 34.664063 L 4.019531 34.664063 L 4.019531 4.078125 L 49.054688 4.019531 L 49.054688 10.445313 Z M 32.878906 10.445313 "/>
</g>
</svg>
