<?xml version="1.0" encoding="UTF-8"?>
<svg xmlns="http://www.w3.org/2000/svg" xmlns:xlink="http://www.w3.org/1999/xlink" width="70pt" height="70pt" viewBox="0 0 70 70" version="1.1">
<g id="surface1">
<path style=" stroke:none;fill-rule:nonzero;fill:rgb(51.372549%,73.72549%,25.490196%);fill-opacity:1;" d="M 38.09375 50.695313 C 37.410156 51.136719 36.699219 51.535156 35.964844 51.882813 C 35.03125 52.332031 34.066406 52.722656 33.082031 53.046875 C 31.878906 53.433594 30.648438 53.734375 29.398438 53.941406 C 27.859375 54.199219 26.300781 54.320313 24.738281 54.304688 C 22.160156 54.324219 19.601563 53.90625 17.164063 53.074219 C 14.871094 52.296875 12.761719 51.058594 10.960938 49.433594 C 9.152344 47.773438 7.722656 45.742188 6.761719 43.484375 C 5.683594 40.902344 5.152344 38.121094 5.207031 35.320313 C 5.15625 32.503906 5.671875 29.707031 6.71875 27.089844 C 7.664063 24.789063 9.09375 22.71875 10.921875 21.027344 C 12.742188 19.363281 14.894531 18.09375 17.234375 17.304688 C 19.753906 16.449219 22.398438 16.023438 25.058594 16.042969 C 27.082031 16.011719 29.101563 16.203125 31.078125 16.617188 C 32.484375 16.898438 33.847656 17.367188 35.125 18.019531 C 35.515625 18.242188 35.890625 18.488281 36.246094 18.761719 C 37.917969 19.78125 38.582031 21.878906 37.800781 23.675781 C 37.703125 23.929688 37.566406 24.164063 37.394531 24.375 C 35.992188 26.179688 33.097656 25.128906 31.445313 24.375 C 29.527344 23.574219 27.460938 23.191406 25.382813 23.253906 C 23.828125 23.238281 22.28125 23.480469 20.804688 23.96875 C 19.429688 24.417969 18.171875 25.171875 17.121094 26.164063 C 16.054688 27.207031 15.21875 28.460938 14.671875 29.847656 C 14.035156 31.519531 13.730469 33.296875 13.777344 35.085938 C 13.726563 36.933594 14.046875 38.777344 14.714844 40.503906 C 15.285156 41.914063 16.175781 43.175781 17.316406 44.183594 C 18.433594 45.152344 19.742188 45.875 21.152344 46.3125 C 22.675781 46.773438 24.257813 46.992188 25.84375 46.96875 C 27.828125 47.042969 29.804688 46.710938 31.652344 45.988281 C 32.683594 45.558594 33.683594 45.0625 34.648438 44.507813 Z M 38.09375 50.695313 "/>
<path style=" stroke:none;fill-rule:nonzero;fill:rgb(28.627451%,39.215686%,52.941176%);fill-opacity:1;" d="M 32.578125 44.269531 C 33.148438 44.636719 33.753906 44.949219 34.382813 45.207031 C 35.429688 45.660156 36.5 46.054688 37.589844 46.394531 C 39.019531 46.84375 40.480469 47.195313 41.957031 47.445313 C 43.722656 47.746094 45.515625 47.890625 47.304688 47.878906 C 49.394531 47.949219 51.476563 47.613281 53.4375 46.898438 C 54.894531 46.4375 55.863281 45.066406 55.816406 43.539063 C 55.882813 42.324219 55.308594 41.164063 54.304688 40.472656 C 52.632813 39.578125 50.78125 39.070313 48.886719 38.988281 L 43.289063 38.332031 C 41.496094 38.164063 39.730469 37.8125 38.011719 37.28125 C 36.5 36.84375 35.082031 36.148438 33.808594 35.222656 C 32.671875 34.375 31.746094 33.273438 31.109375 32.003906 C 30.429688 30.574219 30.097656 29.007813 30.140625 27.425781 C 30.132813 25.921875 30.4375 24.433594 31.039063 23.058594 C 31.667969 21.640625 32.628906 20.390625 33.839844 19.417969 C 35.351563 18.253906 37.085938 17.402344 38.933594 16.925781 C 41.417969 16.273438 43.980469 15.96875 46.550781 16.015625 C 50.503906 15.851563 54.457031 16.410156 58.210938 17.667969 C 59.0625 18.011719 59.871094 18.453125 60.621094 18.984375 C 62.253906 19.863281 62.878906 21.890625 62.019531 23.535156 C 60.773438 25.871094 58.140625 24.765625 57.902344 24.640625 C 57.285156 24.324219 56.652344 24.042969 56 23.800781 C 53.015625 22.726563 49.863281 22.203125 46.691406 22.246094 C 41.089844 22.246094 38.289063 23.714844 38.289063 26.65625 C 38.265625 27.808594 38.871094 28.882813 39.871094 29.457031 C 41.28125 30.207031 42.832031 30.65625 44.421875 30.773438 L 51.773438 31.738281 C 55.105469 32.027344 58.3125 33.164063 61.082031 35.042969 C 63.351563 36.792969 64.597656 39.558594 64.398438 42.421875 C 64.492188 45.84375 62.882813 49.089844 60.101563 51.085938 C 57.238281 53.25 53.113281 54.335938 47.726563 54.335938 C 45.335938 54.351563 42.953125 54.15625 40.601563 53.746094 C 38.734375 53.429688 36.890625 52.988281 35.085938 52.429688 C 33.792969 52.023438 32.535156 51.523438 31.316406 50.933594 C 30.660156 50.632813 30.03125 50.273438 29.441406 49.855469 Z M 32.578125 44.269531 "/>
<path style=" stroke:none;fill-rule:nonzero;fill:rgb(51.372549%,73.72549%,25.490196%);fill-opacity:1;" d="M 34.382813 45.191406 L 33.824219 44.953125 C 33.109375 45.332031 32.425781 45.683594 31.625 46.003906 L 30.378906 47.949219 L 29.398438 49.855469 C 29.953125 50.300781 30.558594 50.675781 31.207031 50.972656 C 32.3125 51.699219 33.566406 52.175781 34.875 52.375 L 35.9375 51.898438 C 36.671875 51.550781 37.382813 51.152344 38.066406 50.707031 L 35.167969 45.542969 Z M 34.382813 45.191406 "/>
</g>
</svg>
