<?xml version="1.0" encoding="utf-8"?><svg version="1.1" xmlns="http://www.w3.org/2000/svg" xmlns:xlink="http://www.w3.org/1999/xlink" xmlns:xml="http://www.w3.org/XML/1998/namespace" width="70" height="70" viewBox="0, 0, 18, 18" id="e887b19d-8fdd-48fe-a67e-f86d20cca434"><defs><linearGradient x1="2525.57" y1="-412.026" x2="2525.544" y2="-402.136" gradientUnits="userSpaceOnUse" gradientTransform="matrix(0.5, 0.001, 0.001, -0.5, -1257.171, -191.917)" id="a116d8d6-6f2d-4ed7-b0bf-e3b4f053bb39"><stop offset="0%" stop-color="#EF7100" /><stop offset="100%" stop-color="#FAA21D" /></linearGradient><linearGradient x1="12.79" y1="17.38" x2="12.79" y2="12.44" gradientUnits="userSpaceOnUse" gradientTransform="matrix(1, 0, 0, 1, 0, 0)" id="ba80b0e0-7012-4f27-b08f-9ea64784ace3"><stop offset="0%" stop-color="#EF7100" /><stop offset="100%" stop-color="#FAA21D" /></linearGradient><linearGradient x1="15.3" y1="9.98" x2="15.3" y2="5.04" gradientUnits="userSpaceOnUse" gradientTransform="matrix(1, 0, 0, 1, 0, 0)" id="a946587f-c511-47b7-914a-0a734f8d64d7"><stop offset="0%" stop-color="#EF7100" /><stop offset="100%" stop-color="#FAA21D" /></linearGradient><linearGradient x1="2.7" y1="9.98" x2="2.7" y2="5.04" gradientUnits="userSpaceOnUse" gradientTransform="matrix(1, 0, 0, 1, 0, 0)" id="f2de30ee-07c3-4e10-ac30-e581c2e8ce50"><stop offset="0%" stop-color="#EF7100" /><stop offset="100%" stop-color="#FAA21D" /></linearGradient><linearGradient x1="9" y1="5.56" x2="9" y2="0.62" gradientUnits="userSpaceOnUse" gradientTransform="matrix(1, 0, 0, 1, 0, 0)" id="fddbf243-2b2d-4e50-b263-924d85a1b87c"><stop offset="0%" stop-color="#EF7100" /><stop offset="100%" stop-color="#FAA21D" /></linearGradient></defs><path d="M16 7.2 L10.24 3.09 h0 L9 2.18 H9 l-1.22 0.9 h0 L2 7.2 H2 L4.25 14 h0 l0.47 1.44 h8.6 L13.77 14 h0 L16 7.25 h0 Z M5.76 14 l-2 -6.22 L9 4 l5.28 3.79 l-2 6.22 Z" style="fill:#E27908;" /><circle cx="5.07" cy="14.91" r="2.47" style="fill:url(#a116d8d6-6f2d-4ed7-b0bf-e3b4f053bb39);" /><circle cx="12.79" cy="14.91" r="2.47" style="fill:url(#ba80b0e0-7012-4f27-b08f-9ea64784ace3);" /><circle cx="15.3" cy="7.51" r="2.47" style="fill:url(#a946587f-c511-47b7-914a-0a734f8d64d7);" /><circle cx="2.7" cy="7.51" r="2.47" style="fill:url(#f2de30ee-07c3-4e10-ac30-e581c2e8ce50);" /><circle cx="9" cy="3.09" r="2.47" style="fill:url(#fddbf243-2b2d-4e50-b263-924d85a1b87c);" /></svg>