<?xml version="1.0" encoding="UTF-8"?>
<svg xmlns="http://www.w3.org/2000/svg" xmlns:xlink="http://www.w3.org/1999/xlink" width="70pt" height="70pt" viewBox="0 0 70 70" version="1.1">
<g id="surface1">
<path style=" stroke:none;fill-rule:nonzero;fill:rgb(0,112,196);fill-opacity:1;" d="M 48.125 0 L 21.875 0 C 17.0625 0 13.125 3.9375 13.125 8.75 L 13.125 70 L 56.875 70 L 56.875 8.75 C 56.875 3.9375 52.9375 0 48.125 0 Z M 48.125 0 "/>
<path style=" stroke:none;fill-rule:nonzero;fill:rgb(203,232,255);fill-opacity:1;" d="M 45.9375 17.5 L 24.0625 17.5 C 22.835938 17.5 21.875 16.539063 21.875 15.3125 C 21.875 14.085938 22.835938 13.125 24.0625 13.125 L 45.9375 13.125 C 47.164063 13.125 48.125 14.085938 48.125 15.3125 C 48.125 16.539063 47.164063 17.5 45.9375 17.5 Z M 45.9375 17.5 "/>
<path style=" stroke:none;fill-rule:nonzero;fill:rgb(203,232,255);fill-opacity:1;" d="M 45.9375 35 L 24.0625 35 C 22.835938 35 21.875 34.039063 21.875 32.8125 C 21.875 31.585938 22.835938 30.625 24.0625 30.625 L 45.9375 30.625 C 47.164063 30.625 48.125 31.585938 48.125 32.8125 C 48.125 34.039063 47.164063 35 45.9375 35 Z M 45.9375 35 "/>
<path style=" stroke:none;fill-rule:nonzero;fill:rgb(115,195,255);fill-opacity:1;" d="M 39.375 56.875 C 39.375 59.292969 37.417969 61.25 35 61.25 C 32.582031 61.25 30.625 59.292969 30.625 56.875 C 30.625 54.457031 32.582031 52.5 35 52.5 C 37.417969 52.5 39.375 54.457031 39.375 56.875 Z M 39.375 56.875 "/>
</g>
</svg>
