<?xml version="1.0" encoding="UTF-8"?>
<svg xmlns="http://www.w3.org/2000/svg" xmlns:xlink="http://www.w3.org/1999/xlink" width="70pt" height="70pt" viewBox="0 0 70 70" version="1.1">
<defs>
<linearGradient id="linear0" gradientUnits="userSpaceOnUse" x1="9.01" y1="11.69" x2="9.01" y2="2.48" gradientTransform="matrix(3.888889,0,0,3.888889,0,0)">
<stop offset="0" style="stop-color:rgb(0%,47.058824%,83.137255%);stop-opacity:1;"/>
<stop offset="0.54" style="stop-color:rgb(20.784314%,55.686275%,89.019608%);stop-opacity:1;"/>
<stop offset="1" style="stop-color:rgb(36.862745%,62.745098%,93.72549%);stop-opacity:1;"/>
</linearGradient>
</defs>
<g id="surface1">
<path style=" stroke:none;fill-rule:nonzero;fill:rgb(46.27451%,73.72549%,17.647059%);fill-opacity:1;" d="M 58.644531 43.246094 C 58.644531 37.898438 48.074219 33.5625 35.039063 33.5625 C 22 33.5625 11.433594 37.898438 11.433594 43.246094 C 11.433594 48.59375 22 52.929688 35.039063 52.929688 C 48.074219 52.929688 58.644531 48.59375 58.644531 43.246094 Z M 58.644531 43.246094 "/>
<path style=" stroke:none;fill-rule:nonzero;fill:rgb(36.862745%,58.823529%,14.117647%);fill-opacity:1;" d="M 43.476563 43.167969 C 43.476563 41.984375 39.960938 41.027344 35.621094 41.027344 C 31.285156 41.027344 27.765625 41.984375 27.765625 43.167969 C 27.765625 44.347656 31.285156 45.304688 35.621094 45.304688 C 39.960938 45.304688 43.476563 44.347656 43.476563 43.167969 Z M 43.476563 43.167969 "/>
<path style=" stroke:none;fill-rule:nonzero;fill:url(#linear0);" d="M 58.644531 21.738281 C 58.644531 16.390625 48.074219 12.054688 35.039063 12.054688 C 22 12.054688 11.433594 16.390625 11.433594 21.738281 C 11.433594 27.085938 22 31.421875 35.039063 31.421875 C 48.074219 31.421875 58.644531 27.085938 58.644531 21.738281 Z M 58.644531 21.738281 "/>
<path style=" stroke:none;fill-rule:nonzero;fill:rgb(0%,35.686275%,63.137255%);fill-opacity:1;" d="M 43.476563 21.621094 C 43.476563 20.441406 39.960938 19.484375 35.621094 19.484375 C 31.285156 19.484375 27.765625 20.441406 27.765625 21.621094 C 27.765625 22.804688 31.285156 23.761719 35.621094 23.761719 C 39.960938 23.761719 43.476563 22.804688 43.476563 21.621094 Z M 43.476563 21.621094 "/>
<path style=" stroke:none;fill-rule:nonzero;fill:rgb(58.039216%,58.039216%,58.039216%);fill-opacity:1;" d="M 15.128906 0.464844 L 3.460938 0.464844 C 2.84375 0.445313 2.242188 0.679688 1.800781 1.113281 C 1.359375 1.546875 1.117188 2.140625 1.128906 2.761719 L 1.128906 14.429688 C 1.128906 15.050781 1.632813 15.554688 2.253906 15.554688 L 3.539063 15.554688 C 3.84375 15.566406 4.140625 15.453125 4.363281 15.238281 C 4.582031 15.027344 4.707031 14.734375 4.707031 14.429688 L 4.707031 3.890625 L 15.128906 3.890625 C 15.433594 3.898438 15.730469 3.785156 15.949219 3.574219 C 16.171875 3.359375 16.292969 3.066406 16.292969 2.761719 L 16.292969 1.632813 C 16.304688 1.320313 16.1875 1.015625 15.964844 0.796875 C 15.742188 0.574219 15.441406 0.457031 15.128906 0.464844 Z M 15.128906 0.464844 "/>
<path style=" stroke:none;fill-rule:nonzero;fill:rgb(58.039216%,58.039216%,58.039216%);fill-opacity:1;" d="M 66.109375 0.464844 L 54.445313 0.464844 C 53.800781 0.464844 53.277344 0.988281 53.277344 1.632813 L 53.277344 2.878906 C 53.355469 3.460938 53.855469 3.894531 54.445313 3.890625 L 64.90625 3.890625 L 64.90625 14.390625 C 64.894531 14.707031 65.019531 15.019531 65.25 15.242188 C 65.476563 15.464844 65.792969 15.578125 66.109375 15.554688 L 67.394531 15.554688 C 67.699219 15.566406 67.996094 15.453125 68.21875 15.238281 C 68.4375 15.027344 68.5625 14.734375 68.5625 14.429688 L 68.5625 2.761719 C 68.5625 2.125 68.300781 1.515625 67.835938 1.082031 C 67.371094 0.644531 66.746094 0.421875 66.109375 0.464844 Z M 66.109375 0.464844 "/>
<path style=" stroke:none;fill-rule:nonzero;fill:rgb(58.039216%,58.039216%,58.039216%);fill-opacity:1;" d="M 15.128906 66.929688 L 4.707031 66.929688 L 4.707031 56.429688 C 4.707031 56.121094 4.582031 55.828125 4.363281 55.617188 C 4.140625 55.402344 3.84375 55.289063 3.539063 55.300781 L 2.253906 55.300781 C 1.632813 55.300781 1.128906 55.804688 1.128906 56.429688 L 1.128906 68.09375 C 1.117188 68.699219 1.351563 69.28125 1.773438 69.714844 C 2.199219 70.144531 2.777344 70.390625 3.382813 70.390625 L 15.050781 70.390625 C 15.355469 70.398438 15.652344 70.285156 15.871094 70.074219 C 16.09375 69.859375 16.21875 69.566406 16.214844 69.261719 L 16.214844 68.015625 C 16.179688 67.433594 15.710938 66.964844 15.128906 66.929688 Z M 15.128906 66.929688 "/>
<path style=" stroke:none;fill-rule:nonzero;fill:rgb(58.039216%,58.039216%,58.039216%);fill-opacity:1;" d="M 67.238281 55.300781 L 66.109375 55.300781 C 65.488281 55.300781 64.984375 55.804688 64.984375 56.429688 L 64.984375 66.929688 L 54.445313 66.929688 C 53.808594 66.949219 53.296875 67.457031 53.277344 68.09375 L 53.277344 69.339844 C 53.296875 69.96875 53.816406 70.46875 54.445313 70.464844 L 66.109375 70.464844 C 67.378906 70.464844 68.40625 69.4375 68.40625 68.171875 L 68.40625 56.503906 C 68.429688 56.1875 68.3125 55.871094 68.089844 55.644531 C 67.867188 55.414063 67.558594 55.289063 67.238281 55.300781 Z M 67.238281 55.300781 "/>
<path style=" stroke:none;fill-rule:nonzero;fill:rgb(36.862745%,58.823529%,14.117647%);fill-opacity:1;" d="M 35 52.734375 C 48.027344 52.734375 58.605469 48.417969 58.605469 43.050781 L 58.605469 48.765625 C 58.332031 53.976563 47.792969 58.332031 35 58.332031 C 22.207031 58.332031 11.394531 53.976563 11.394531 48.648438 L 11.394531 43.050781 C 11.433594 48.417969 22.011719 52.734375 35 52.734375 Z M 35 52.734375 "/>
<path style=" stroke:none;fill-rule:nonzero;fill:rgb(0%,47.058824%,83.137255%);fill-opacity:1;" d="M 35 31.109375 C 48.027344 31.109375 58.605469 26.753906 58.605469 21.429688 L 58.605469 27.222656 C 58.332031 32.472656 47.792969 36.632813 35 36.632813 C 22.207031 36.632813 11.433594 32.277344 11.433594 26.910156 L 11.433594 21.542969 C 11.433594 26.871094 22.011719 31.109375 35 31.109375 Z M 35 31.109375 "/>
</g>
</svg>
