<?xml version="1.0" encoding="utf-8"?><svg version="1.1" xmlns="http://www.w3.org/2000/svg" xmlns:xlink="http://www.w3.org/1999/xlink" xmlns:xml="http://www.w3.org/XML/1998/namespace" width="70" height="70" viewBox="0, 0, 18, 18" id="a2c88306-fa03-4e5b-b192-401f0b77808b"><defs><linearGradient x1="-175.993" y1="-343.723" x2="-175.993" y2="-359.232" gradientUnits="userSpaceOnUse" gradientTransform="translate(212.573, 370.548) scale(1.156, 1.029)" id="b403aca7-f387-4434-96b4-ae157edc835f"><stop offset="0%" stop-color="#5DBAFF" /><stop offset="28.4%" stop-color="#61BBFF" /><stop offset="54.7%" stop-color="#6DC1FF" /><stop offset="80%" stop-color="#83CAFF" /><stop offset="100%" stop-color="#99D3FF" /></linearGradient></defs><title>Icon-compute-29</title><g><path d="M2.37 7.475 H3.2 a0.267 0.267 0 0 1 0.267 0.267 v6.148 a0.533 0.533 0 0 1 -0.533 0.533 H2.1 a0 0 0 0 1 0 0 V7.741 a0.267 0.267 0 0 1 0.267 -0.267 Z" transform="translate(12.507, 16.705) rotate(134.919, 0, 0)" style="fill:#77C5FF;" /><path d="M2.325 3.6 h0.833 a0.267 0.267 0 0 1 0.267 0.267 v6.583 a0 0 0 0 1 0 0 H2.591 a0.533 0.533 0 0 1 -0.533 -0.533 V3.865 A0.267 0.267 0 0 1 2.325 3.6 Z" transform="translate(5.759, 0.114) rotate(44.919, 0, 0)" style="fill:#0084E6;" /></g><g><path d="M14.53 7.475 h0.833 a0.533 0.533 0 0 1 0.533 0.533 v6.148 a0.267 0.267 0 0 1 -0.267 0.267 H14.8 a0.267 0.267 0 0 1 -0.267 -0.267 V7.475 a0 0 0 0 1 0 0 Z" transform="translate(12.223, -7.555) rotate(45.081, 0, 0)" style="fill:#77C5FF;" /><path d="M15.108 3.6 h0.833 a0 0 0 0 1 0 0 v6.583 a0.267 0.267 0 0 1 -0.267 0.267 h-0.833 a0.267 0.267 0 0 1 -0.267 -0.267 V4.131 a0.533 0.533 0 0 1 0.533 -0.533 Z" transform="translate(31.022, 1.222) rotate(135.081, 0, 0)" style="fill:#0084E6;" /></g><path d="M8.459 9.9 H4.87 a0.193 0.193 0 0 1 -0.2 -0.181 a0.166 0.166 0 0 1 0.018 -0.075 L8.991 1.13 a0.206 0.206 0 0 1 0.186 -0.106 h4.245 a0.193 0.193 0 0 1 0.2 0.181 a0.165 0.165 0 0 1 -0.035 0.1 L8.534 7.966 h4.928 a0.193 0.193 0 0 1 0.2 0.181 a0.176 0.176 0 0 1 -0.052 0.122 L5.421 16.788 c-0.077 0.046 -0.624 0.5 -0.356 -0.189 h0 Z" style="fill:url(#b403aca7-f387-4434-96b4-ae157edc835f);" /></svg>