<?xml version="1.0" encoding="UTF-8"?>
<svg xmlns="http://www.w3.org/2000/svg" xmlns:xlink="http://www.w3.org/1999/xlink" width="70pt" height="70pt" viewBox="0 0 70 70" version="1.1">
<defs>
<radialGradient id="radial0" gradientUnits="userSpaceOnUse" cx="13428.81" cy="3518.86" fx="13428.81" fy="3518.86" r="56.67" gradientTransform="matrix(0.583333,0,0,0.583333,-7798.505556,-2017.672222)">
<stop offset="0.18" style="stop-color:rgb(41,164,255);stop-opacity:1;"/>
<stop offset="1" style="stop-color:rgb(0,108,188);stop-opacity:1;"/>
</radialGradient>
<filter id="alpha" filterUnits="objectBoundingBox" x="0%" y="0%" width="100%" height="100%">
  <feColorMatrix type="matrix" in="SourceGraphic" values="0 0 0 0 1 0 0 0 0 1 0 0 0 0 1 0 0 0 1 0"/>
</filter>
<mask id="mask0">
  <g filter="url(#alpha)">
<rect x="0" y="0" width="70" height="70" style="fill:rgb(0,0,0);fill-opacity:0.6;stroke:none;"/>
  </g>
</mask>
<clipPath id="clip1">
  <rect x="0" y="0" width="70" height="70"/>
</clipPath>
<g id="surface5" clip-path="url(#clip1)">
<path style=" stroke:none;fill-rule:nonzero;fill:rgb(255,255,255);fill-opacity:1;" d="M 26.015625 28.117188 C 35.367188 19.222656 47.761719 14.242188 60.667969 14.195313 C 58.972656 12.097656 57.027344 10.21875 54.871094 8.59375 C 48.59375 8.980469 42.429688 10.429688 36.632813 12.871094 C 30.667969 15.433594 25.273438 19.164063 20.765625 23.839844 C 22.933594 24.660156 24.773438 26.160156 26.015625 28.117188 Z M 26.015625 28.117188 "/>
</g>
<mask id="mask1">
  <g filter="url(#alpha)">
<rect x="0" y="0" width="70" height="70" style="fill:rgb(0,0,0);fill-opacity:0.6;stroke:none;"/>
  </g>
</mask>
<clipPath id="clip2">
  <rect x="0" y="0" width="70" height="70"/>
</clipPath>
<g id="surface8" clip-path="url(#clip2)">
<path style=" stroke:none;fill-rule:nonzero;fill:rgb(255,255,255);fill-opacity:1;" d="M 9.644531 41.417969 C 8.308594 44.726563 7.230469 48.132813 6.417969 51.605469 C 7.132813 52.855469 7.941406 54.050781 8.828125 55.183594 C 9.527344 56.078125 10.1875 56.894531 10.964844 57.710938 C 11.90625 53.082031 13.3125 48.5625 15.167969 44.214844 C 13.089844 43.847656 11.171875 42.871094 9.644531 41.417969 Z M 9.644531 41.417969 "/>
</g>
<mask id="mask2">
  <g filter="url(#alpha)">
<rect x="0" y="0" width="70" height="70" style="fill:rgb(0,0,0);fill-opacity:0.54902;stroke:none;"/>
  </g>
</mask>
<clipPath id="clip3">
  <rect x="0" y="0" width="70" height="70"/>
</clipPath>
<g id="surface11" clip-path="url(#clip3)">
<path style=" stroke:none;fill-rule:nonzero;fill:rgb(229,243,255);fill-opacity:1;" d="M 13.457031 23.761719 C 12.082031 20.078125 11.179688 16.238281 10.773438 12.328125 C 9.140625 14.042969 7.707031 15.933594 6.496094 17.964844 C 6.933594 21.117188 7.675781 24.214844 8.710938 27.222656 C 9.929688 25.640625 11.574219 24.4375 13.457031 23.761719 Z M 13.457031 23.761719 "/>
</g>
<linearGradient id="linear0" gradientUnits="userSpaceOnUse" x1="4.4" y1="11.48" x2="4.37" y2="7.53" gradientTransform="matrix(3.888889,0,0,3.888889,0,0)">
<stop offset="0" style="stop-color:rgb(153,211,255);stop-opacity:1;"/>
<stop offset="1" style="stop-color:rgb(249,252,255);stop-opacity:1;"/>
</linearGradient>
<mask id="mask3">
  <g filter="url(#alpha)">
<rect x="0" y="0" width="70" height="70" style="fill:rgb(0,0,0);fill-opacity:0.54902;stroke:none;"/>
  </g>
</mask>
<clipPath id="clip4">
  <rect x="0" y="0" width="70" height="70"/>
</clipPath>
<g id="surface14" clip-path="url(#clip4)">
<path style=" stroke:none;fill-rule:nonzero;fill:rgb(229,243,255);fill-opacity:1;" d="M 32.511719 53.160156 C 32.515625 51.296875 33.273438 49.515625 34.609375 48.222656 C 31.027344 46.257813 27.71875 43.824219 24.773438 40.988281 C 23.234375 42.652344 21.203125 43.785156 18.976563 44.214844 C 20.730469 46.011719 22.617188 47.675781 24.617188 49.195313 C 27.105469 51.074219 29.777344 52.703125 32.589844 54.054688 C 32.542969 53.757813 32.519531 53.460938 32.511719 53.160156 Z M 32.511719 53.160156 "/>
</g>
<mask id="mask4">
  <g filter="url(#alpha)">
<rect x="0" y="0" width="70" height="70" style="fill:rgb(0,0,0);fill-opacity:0.54902;stroke:none;"/>
  </g>
</mask>
<clipPath id="clip5">
  <rect x="0" y="0" width="70" height="70"/>
</clipPath>
<g id="surface17" clip-path="url(#clip5)">
<path style=" stroke:none;fill-rule:nonzero;fill:rgb(229,243,255);fill-opacity:1;" d="M 57.011719 53.976563 C 53.398438 53.980469 49.796875 53.5625 46.277344 52.734375 C 46.296875 52.875 46.296875 53.019531 46.277344 53.160156 C 46.28125 54.96875 45.570313 56.703125 44.292969 57.984375 C 48.671875 58.851563 53.140625 59.164063 57.59375 58.917969 C 59.324219 57.355469 60.875 55.605469 62.222656 53.707031 C 60.492188 53.898438 58.753906 53.988281 57.011719 53.976563 Z M 57.011719 53.976563 "/>
</g>
<linearGradient id="linear1" gradientUnits="userSpaceOnUse" x1="10.13" y1="15.45" x2="10.13" y2="11.9" gradientTransform="matrix(3.888889,0,0,3.888889,0,0)">
<stop offset="0" style="stop-color:rgb(153,211,255);stop-opacity:1;"/>
<stop offset="1" style="stop-color:rgb(249,252,255);stop-opacity:1;"/>
</linearGradient>
<mask id="mask5">
  <g filter="url(#alpha)">
<rect x="0" y="0" width="70" height="70" style="fill:rgb(0,0,0);fill-opacity:0.701961;stroke:none;"/>
  </g>
</mask>
<clipPath id="clip6">
  <rect x="0" y="0" width="70" height="70"/>
</clipPath>
<g id="surface20" clip-path="url(#clip6)">
<path style=" stroke:none;fill-rule:nonzero;fill:rgb(229,243,255);fill-opacity:1;" d="M 47.910156 34.726563 C 48.253906 33.207031 49.085938 31.839844 50.285156 30.839844 C 43.878906 26.183594 38.058594 20.777344 32.9375 14.738281 C 29.957031 11.234375 27.347656 7.429688 25.160156 3.382813 C 23.707031 3.820313 22.292969 4.363281 20.921875 5.015625 C 23.265625 9.421875 26.066406 13.570313 29.285156 17.382813 C 34.75 23.914063 41.007813 29.738281 47.910156 34.726563 Z M 47.910156 34.726563 "/>
</g>
<linearGradient id="linear2" gradientUnits="userSpaceOnUse" x1="14.18" y1="11.15" x2="14.18" y2="7.38" gradientTransform="matrix(3.888889,0,0,3.888889,0,0)">
<stop offset="0" style="stop-color:rgb(153,211,255);stop-opacity:1;"/>
<stop offset="1" style="stop-color:rgb(249,252,255);stop-opacity:1;"/>
</linearGradient>
<mask id="mask6">
  <g filter="url(#alpha)">
<rect x="0" y="0" width="70" height="70" style="fill:rgb(0,0,0);fill-opacity:0.54902;stroke:none;"/>
  </g>
</mask>
<clipPath id="clip7">
  <rect x="0" y="0" width="70" height="70"/>
</clipPath>
<g id="surface23" clip-path="url(#clip7)">
<path style=" stroke:none;fill-rule:nonzero;fill:rgb(229,243,255);fill-opacity:1;" d="M 67.472656 40.988281 L 66.109375 40.328125 L 64.945313 39.707031 L 64.710938 39.707031 L 63.699219 38.890625 L 63.429688 38.890625 L 62.222656 38.109375 C 61.804688 39.542969 60.929688 40.800781 59.734375 41.6875 C 60.199219 42 60.707031 42.273438 61.210938 42.542969 L 61.523438 42.738281 L 62.882813 43.476563 L 66.226563 45.226563 C 66.699219 43.816406 67.074219 42.375 67.355469 40.910156 Z M 67.472656 40.988281 "/>
</g>
<linearGradient id="linear3" gradientUnits="userSpaceOnUse" x1="4.4" y1="11.48" x2="4.37" y2="7.53" gradientTransform="matrix(3.888889,0,0,3.888889,0,0)">
<stop offset="0" style="stop-color:rgb(153,211,255);stop-opacity:1;"/>
<stop offset="1" style="stop-color:rgb(249,252,255);stop-opacity:1;"/>
</linearGradient>
<linearGradient id="linear4" gradientUnits="userSpaceOnUse" x1="10.13" y1="15.45" x2="10.13" y2="11.9" gradientTransform="matrix(3.888889,0,0,3.888889,0,0)">
<stop offset="0" style="stop-color:rgb(153,211,255);stop-opacity:1;"/>
<stop offset="1" style="stop-color:rgb(249,252,255);stop-opacity:1;"/>
</linearGradient>
</defs>
<g id="surface1">
<path style=" stroke:none;fill-rule:nonzero;fill:url(#radial0);" d="M 55.261719 61.132813 C 40.828125 72.324219 20.054688 69.695313 8.867188 55.261719 C -2.324219 40.828125 0.304688 20.054688 14.738281 8.867188 L 15.089844 8.632813 C 29.59375 -2.195313 50.113281 0.660156 61.113281 15.035156 C 72.113281 29.410156 69.503906 49.960938 55.261719 61.132813 "/>
<use xlink:href="#surface5" mask="url(#mask0)"/>
<use xlink:href="#surface8" mask="url(#mask1)"/>
<use xlink:href="#surface11" mask="url(#mask2)"/>
<path style=" stroke:none;fill-rule:nonzero;fill:url(#linear0);" d="M 27.648438 33.753906 C 27.648438 39.617188 22.898438 44.371094 17.035156 44.371094 C 11.167969 44.371094 6.417969 39.617188 6.417969 33.753906 C 6.417969 27.890625 11.167969 23.140625 17.035156 23.140625 C 22.898438 23.140625 27.648438 27.890625 27.648438 33.753906 Z M 27.648438 33.753906 "/>
<use xlink:href="#surface14" mask="url(#mask3)"/>
<use xlink:href="#surface17" mask="url(#mask4)"/>
<path style=" stroke:none;fill-rule:nonzero;fill:url(#linear1);" d="M 46.316406 53.160156 C 46.316406 56.984375 43.21875 60.082031 39.394531 60.082031 C 35.570313 60.082031 32.472656 56.984375 32.472656 53.160156 C 32.472656 49.339844 35.570313 46.238281 39.394531 46.238281 C 43.21875 46.238281 46.316406 49.339844 46.316406 53.160156 Z M 46.316406 53.160156 "/>
<use xlink:href="#surface20" mask="url(#mask5)"/>
<path style=" stroke:none;fill-rule:nonzero;fill:url(#linear2);" d="M 62.496094 36.050781 C 62.496094 40.109375 59.203125 43.398438 55.144531 43.398438 C 51.085938 43.398438 47.792969 40.109375 47.792969 36.050781 C 47.792969 31.992188 51.085938 28.699219 55.144531 28.699219 C 59.203125 28.699219 62.496094 31.992188 62.496094 36.050781 Z M 62.496094 36.050781 "/>
<use xlink:href="#surface23" mask="url(#mask6)"/>
<path style=" stroke:none;fill-rule:nonzero;fill:url(#linear3);" d="M 27.648438 33.753906 C 27.648438 39.617188 22.898438 44.371094 17.035156 44.371094 C 11.167969 44.371094 6.417969 39.617188 6.417969 33.753906 C 6.417969 27.890625 11.167969 23.140625 17.035156 23.140625 C 22.898438 23.140625 27.648438 27.890625 27.648438 33.753906 Z M 27.648438 33.753906 "/>
<path style=" stroke:none;fill-rule:nonzero;fill:url(#linear4);" d="M 46.316406 53.160156 C 46.316406 56.984375 43.21875 60.082031 39.394531 60.082031 C 35.570313 60.082031 32.472656 56.984375 32.472656 53.160156 C 32.472656 49.339844 35.570313 46.238281 39.394531 46.238281 C 43.21875 46.238281 46.316406 49.339844 46.316406 53.160156 Z M 46.316406 53.160156 "/>
</g>
</svg>
