<?xml version="1.0" encoding="utf-8"?><svg version="1.1" xmlns="http://www.w3.org/2000/svg" xmlns:xlink="http://www.w3.org/1999/xlink" xmlns:xml="http://www.w3.org/XML/1998/namespace" width="70" height="70" viewBox="0, 0, 18, 18" id="ec6dc5e8-5958-4688-833b-f95ec061a4a8"><defs><linearGradient x1="8.86" y1="13.02" x2="8.86" y2="1.02" gradientUnits="userSpaceOnUse" id="abe3e0fd-f5f5-4d67-8cca-cb6314d5da62"><stop offset="0%" stop-color="#006CBC" /><stop offset="82%" stop-color="#29A4FF" /></linearGradient><linearGradient x1="8.86" y1="17.65" x2="8.86" y2="13.02" gradientUnits="userSpaceOnUse" id="a49c2fd2-7c71-4d63-b68f-ddf5594dd0b8"><stop offset="0%" stop-color="#0084E6" /><stop offset="98%" stop-color="#00589A" /></linearGradient></defs><title>Icon-compute-28</title><rect x="-0.14" y="1.02" width="18" height="12" rx="0.6" style="fill:url(#abe3e0fd-f5f5-4d67-8cca-cb6314d5da62);" /><rect x="0.86" y="2.02" width="16" height="10" rx="0.33" style="fill:white;" /><polygon points="11.86,5.27 11.86,8.76 8.86,10.52 8.86,7.02 11.86,5.27" style="fill:#006CBC;" /><polygon points="11.86,5.27 8.86,7.03 5.86,5.27 8.86,3.52 11.86,5.27" style="fill:#5FBBFF;" /><polygon points="8.86,7.03 8.86,10.52 5.86,8.76 5.86,5.27 8.86,7.03" style="fill:#29A4FF;" /><polygon points="5.86,8.76 8.86,7.02 8.86,10.52 5.86,8.76" opacity="0.2" style="fill:#5FBBFF;" /><polygon points="11.86,8.76 8.86,7.02 8.86,10.52 11.86,8.76" opacity="0.2" style="fill:#29A4FF;" /><path d="M12.46 16.65 c-1.77 -0.28 -1.84 -1.57 -1.84 -3.63 H7.09 c0 2.06 -0.07 3.35 -1.84 3.63 a1 1 0 0 0 -0.89 1 h9 A1 1 0 0 0 12.46 16.65 Z" style="fill:url(#a49c2fd2-7c71-4d63-b68f-ddf5594dd0b8);" /></svg>