<?xml version="1.0" encoding="UTF-8"?>
<svg xmlns="http://www.w3.org/2000/svg" xmlns:xlink="http://www.w3.org/1999/xlink" width="70pt" height="70pt" viewBox="0 0 70 70" version="1.1">
<defs>
<filter id="alpha" filterUnits="objectBoundingBox" x="0%" y="0%" width="100%" height="100%">
  <feColorMatrix type="matrix" in="SourceGraphic" values="0 0 0 0 1 0 0 0 0 1 0 0 0 0 1 0 0 0 1 0"/>
</filter>
<mask id="mask0">
  <g filter="url(#alpha)">
<rect x="0" y="0" width="70" height="70" style="fill:rgb(0,0,0);fill-opacity:0.2;stroke:none;"/>
  </g>
</mask>
<clipPath id="clip1">
  <rect x="0" y="0" width="70" height="70"/>
</clipPath>
<g id="surface5" clip-path="url(#clip1)">
<path style=" stroke:none;fill-rule:nonzero;fill:rgb(255,255,255);fill-opacity:1;" d="M 49.484375 12.546875 C 49.476563 12.546875 49.46875 12.542969 49.460938 12.542969 L 13.929688 12.542969 C 12.71875 12.542969 11.746094 13.621094 11.746094 14.824219 L 11.746094 39.566406 C 11.746094 40.765625 12.71875 41.832031 13.929688 41.832031 L 14.773438 41.832031 Z M 49.484375 12.546875 "/>
</g>
<mask id="mask1">
  <g filter="url(#alpha)">
<rect x="0" y="0" width="70" height="70" style="fill:rgb(0,0,0);fill-opacity:0.2;stroke:none;"/>
  </g>
</mask>
<clipPath id="clip2">
  <rect x="0" y="0" width="70" height="70"/>
</clipPath>
<g id="surface8" clip-path="url(#clip2)">
<path style=" stroke:none;fill-rule:nonzero;fill:rgb(255,255,255);fill-opacity:1;" d="M 55.851563 20.460938 C 55.84375 20.460938 55.835938 20.460938 55.828125 20.460938 L 20.296875 20.460938 C 19.085938 20.460938 18.113281 21.539063 18.113281 22.742188 L 18.113281 47.484375 C 18.113281 48.683594 19.085938 49.75 20.296875 49.75 L 21.140625 49.75 Z M 55.851563 20.460938 "/>
</g>
<mask id="mask2">
  <g filter="url(#alpha)">
<rect x="0" y="0" width="70" height="70" style="fill:rgb(0,0,0);fill-opacity:0.701961;stroke:none;"/>
  </g>
</mask>
<clipPath id="clip3">
  <rect x="0" y="0" width="70" height="70"/>
</clipPath>
<g id="surface11" clip-path="url(#clip3)">
<path style=" stroke:none;fill-rule:nonzero;fill:rgb(255,255,255);fill-opacity:1;" d="M 37.605469 44.308594 C 37.566406 44.308594 37.53125 44.296875 37.496094 44.277344 L 30.453125 40.21875 C 30.382813 40.179688 30.34375 40.113281 30.34375 40.03125 L 30.34375 31.882813 C 30.34375 31.804688 30.382813 31.734375 30.453125 31.699219 C 30.515625 31.65625 30.59375 31.65625 30.667969 31.699219 L 37.714844 35.757813 C 37.773438 35.796875 37.816406 35.867188 37.816406 35.945313 L 37.816406 44.09375 C 37.816406 44.171875 37.777344 44.242188 37.714844 44.277344 C 37.679688 44.296875 37.640625 44.308594 37.605469 44.308594 "/>
</g>
<mask id="mask3">
  <g filter="url(#alpha)">
<rect x="0" y="0" width="70" height="70" style="fill:rgb(0,0,0);fill-opacity:0.4;stroke:none;"/>
  </g>
</mask>
<clipPath id="clip4">
  <rect x="0" y="0" width="70" height="70"/>
</clipPath>
<g id="surface14" clip-path="url(#clip4)">
<path style=" stroke:none;fill-rule:nonzero;fill:rgb(255,255,255);fill-opacity:1;" d="M 39.601563 44.308594 C 39.5625 44.308594 39.527344 44.296875 39.492188 44.277344 C 39.429688 44.242188 39.386719 44.171875 39.386719 44.09375 L 39.386719 35.992188 C 39.386719 35.917969 39.429688 35.847656 39.492188 35.808594 L 46.539063 31.75 C 46.605469 31.710938 46.683594 31.710938 46.75 31.75 C 46.816406 31.789063 46.859375 31.859375 46.859375 31.933594 L 46.859375 40.035156 C 46.859375 40.113281 46.816406 40.183594 46.75 40.21875 L 39.707031 44.28125 C 39.675781 44.296875 39.636719 44.308594 39.601563 44.308594 "/>
</g>
</defs>
<g id="surface1">
<path style=" stroke:none;fill-rule:nonzero;fill:rgb(57,171,255);fill-opacity:1;" d="M 30.332031 0 L 39.667969 0 L 39.667969 7 L 30.332031 7 Z M 30.332031 0 "/>
<path style=" stroke:none;fill-rule:nonzero;fill:rgb(57,171,255);fill-opacity:1;" d="M 16.332031 0 L 25.667969 0 L 25.667969 7 L 16.332031 7 Z M 16.332031 0 "/>
<path style=" stroke:none;fill-rule:nonzero;fill:rgb(57,171,255);fill-opacity:1;" d="M 63 63 L 58.332031 63 L 58.332031 70 L 65.332031 70 C 67.910156 70 70 67.910156 70 65.332031 L 70 58.332031 L 63 58.332031 Z M 63 63 "/>
<path style=" stroke:none;fill-rule:nonzero;fill:rgb(57,171,255);fill-opacity:1;" d="M 0 44.332031 L 7 44.332031 L 7 53.667969 L 0 53.667969 Z M 0 44.332031 "/>
<path style=" stroke:none;fill-rule:nonzero;fill:rgb(57,171,255);fill-opacity:1;" d="M 30.332031 63 L 39.667969 63 L 39.667969 70 L 30.332031 70 Z M 30.332031 63 "/>
<path style=" stroke:none;fill-rule:nonzero;fill:rgb(57,171,255);fill-opacity:1;" d="M 63 44.332031 L 70 44.332031 L 70 53.667969 L 63 53.667969 Z M 63 44.332031 "/>
<path style=" stroke:none;fill-rule:nonzero;fill:rgb(57,171,255);fill-opacity:1;" d="M 44.332031 63 L 53.667969 63 L 53.667969 70 L 44.332031 70 Z M 44.332031 63 "/>
<path style=" stroke:none;fill-rule:nonzero;fill:rgb(57,171,255);fill-opacity:1;" d="M 16.332031 63 L 25.667969 63 L 25.667969 70 L 16.332031 70 Z M 16.332031 63 "/>
<path style=" stroke:none;fill-rule:nonzero;fill:rgb(57,171,255);fill-opacity:1;" d="M 7 63 L 7 58.332031 L 0 58.332031 L 0 65.332031 C 0 67.910156 2.089844 70 4.667969 70 L 11.667969 70 L 11.667969 63 Z M 7 63 "/>
<path style=" stroke:none;fill-rule:nonzero;fill:rgb(57,171,255);fill-opacity:1;" d="M 0 16.332031 L 7 16.332031 L 7 25.667969 L 0 25.667969 Z M 0 16.332031 "/>
<path style=" stroke:none;fill-rule:nonzero;fill:rgb(57,171,255);fill-opacity:1;" d="M 7 7 L 11.667969 7 L 11.667969 0 L 4.667969 0 C 2.089844 0 0 2.089844 0 4.667969 L 0 11.667969 L 7 11.667969 Z M 7 7 "/>
<path style=" stroke:none;fill-rule:nonzero;fill:rgb(57,171,255);fill-opacity:1;" d="M 0 30.332031 L 7 30.332031 L 7 39.667969 L 0 39.667969 Z M 0 30.332031 "/>
<path style=" stroke:none;fill-rule:nonzero;fill:rgb(57,171,255);fill-opacity:1;" d="M 63 30.332031 L 70 30.332031 L 70 39.667969 L 63 39.667969 Z M 63 30.332031 "/>
<path style=" stroke:none;fill-rule:nonzero;fill:rgb(57,171,255);fill-opacity:1;" d="M 63 16.332031 L 70 16.332031 L 70 25.667969 L 63 25.667969 Z M 63 16.332031 "/>
<path style=" stroke:none;fill-rule:nonzero;fill:rgb(57,171,255);fill-opacity:1;" d="M 44.332031 0 L 53.667969 0 L 53.667969 7 L 44.332031 7 Z M 44.332031 0 "/>
<path style=" stroke:none;fill-rule:nonzero;fill:rgb(57,171,255);fill-opacity:1;" d="M 63 7 L 63 11.667969 L 70 11.667969 L 70 4.667969 C 70 2.089844 67.910156 0 65.332031 0 L 58.332031 0 L 58.332031 7 Z M 63 7 "/>
<path style=" stroke:none;fill-rule:nonzero;fill:rgb(65,174,255);fill-opacity:1;" d="M 49.460938 12.542969 L 13.929688 12.542969 C 12.71875 12.542969 11.746094 13.621094 11.746094 14.824219 L 11.746094 39.570313 C 11.746094 40.765625 12.71875 41.832031 13.929688 41.832031 L 49.460938 41.832031 C 50.664063 41.832031 51.882813 40.765625 51.882813 39.570313 L 51.882813 14.824219 C 51.886719 13.617188 50.664063 12.542969 49.460938 12.542969 "/>
<use xlink:href="#surface5" mask="url(#mask0)"/>
<path style=" stroke:none;fill-rule:nonzero;fill:rgb(57,171,255);fill-opacity:1;" d="M 48.832031 38.75 L 14.789063 38.75 L 14.789063 15.628906 L 48.832031 15.578125 Z M 48.832031 38.75 "/>
<path style=" stroke:none;fill-rule:nonzero;fill:rgb(115,195,255);fill-opacity:1;" d="M 32.230469 14.222656 C 32.230469 14.539063 31.976563 14.789063 31.660156 14.789063 C 31.347656 14.789063 31.09375 14.535156 31.09375 14.222656 C 31.09375 13.90625 31.347656 13.652344 31.660156 13.652344 C 31.976563 13.652344 32.230469 13.90625 32.230469 14.222656 "/>
<path style=" stroke:none;fill-rule:nonzero;fill:rgb(255,255,255);fill-opacity:1;" d="M 32.253906 26.488281 C 32.21875 26.488281 32.183594 26.476563 32.148438 26.457031 L 25.078125 22.382813 C 25.015625 22.34375 24.972656 22.273438 24.972656 22.195313 C 24.972656 22.121094 25.015625 22.050781 25.078125 22.011719 L 32.101563 17.964844 C 32.167969 17.929688 32.25 17.929688 32.316406 17.964844 L 39.386719 22.042969 C 39.449219 22.078125 39.488281 22.152344 39.488281 22.226563 C 39.488281 22.304688 39.449219 22.375 39.386719 22.410156 L 32.363281 26.457031 C 32.328125 26.476563 32.292969 26.488281 32.253906 26.488281 "/>
<path style=" stroke:none;fill-rule:nonzero;fill:rgb(0,140,244);fill-opacity:1;" d="M 44.144531 49.75 L 33.230469 49.75 C 34.539063 54.375 32.777344 55.035156 25.0625 55.035156 L 25.0625 57.457031 L 51.304688 57.457031 L 51.304688 55.035156 C 43.585938 55.035156 42.832031 54.375 44.144531 49.75 "/>
<path style=" stroke:none;fill-rule:nonzero;fill:rgb(65,174,255);fill-opacity:1;" d="M 55.828125 20.460938 L 20.296875 20.460938 C 19.089844 20.460938 18.117188 21.539063 18.117188 22.742188 L 18.117188 47.488281 C 18.117188 48.683594 19.089844 49.75 20.296875 49.75 L 55.828125 49.75 C 57.03125 49.75 58.253906 48.683594 58.253906 47.488281 L 58.253906 22.742188 C 58.253906 21.535156 57.03125 20.460938 55.828125 20.460938 "/>
<use xlink:href="#surface8" mask="url(#mask1)"/>
<path style=" stroke:none;fill-rule:nonzero;fill:rgb(57,171,255);fill-opacity:1;" d="M 55.199219 46.667969 L 21.15625 46.667969 L 21.15625 23.546875 L 55.199219 23.496094 Z M 55.199219 46.667969 "/>
<path style=" stroke:none;fill-rule:nonzero;fill:rgb(65,174,255);fill-opacity:1;" d="M 25.0625 55.035156 L 51.304688 55.035156 L 51.304688 57.457031 L 25.0625 57.457031 Z M 25.0625 55.035156 "/>
<path style=" stroke:none;fill-rule:nonzero;fill:rgb(115,195,255);fill-opacity:1;" d="M 38.597656 22.140625 C 38.597656 22.453125 38.34375 22.707031 38.03125 22.707031 C 37.714844 22.707031 37.460938 22.453125 37.460938 22.140625 C 37.460938 21.824219 37.714844 21.570313 38.03125 21.570313 C 38.34375 21.570313 38.597656 21.824219 38.597656 22.140625 "/>
<path style=" stroke:none;fill-rule:nonzero;fill:rgb(255,255,255);fill-opacity:1;" d="M 38.621094 34.40625 C 38.585938 34.40625 38.550781 34.394531 38.515625 34.375 L 31.445313 30.300781 C 31.382813 30.261719 31.339844 30.191406 31.339844 30.117188 C 31.339844 30.039063 31.382813 29.96875 31.445313 29.929688 L 38.46875 25.882813 C 38.535156 25.847656 38.617188 25.847656 38.683594 25.882813 L 45.753906 29.960938 C 45.816406 29.996094 45.855469 30.070313 45.855469 30.144531 C 45.855469 30.222656 45.816406 30.292969 45.753906 30.328125 L 38.730469 34.375 C 38.695313 34.390625 38.660156 34.40625 38.621094 34.40625 "/>
<use xlink:href="#surface11" mask="url(#mask2)"/>
<use xlink:href="#surface14" mask="url(#mask3)"/>
</g>
</svg>
