<?xml version="1.0" encoding="UTF-8"?>
<svg xmlns="http://www.w3.org/2000/svg" xmlns:xlink="http://www.w3.org/1999/xlink" width="70pt" height="70pt" viewBox="0 0 70 70" version="1.1">
<defs>
<linearGradient id="linear0" gradientUnits="userSpaceOnUse" x1="5.57" y1="17.5" x2="5.57" y2="0.5" gradientTransform="matrix(3.888889,0,0,3.888889,0,0)">
<stop offset="0.05" style="stop-color:rgb(41,164,255);stop-opacity:1;"/>
<stop offset="0.36" style="stop-color:rgb(47,166,255);stop-opacity:1;"/>
<stop offset="0.54" style="stop-color:rgb(63,173,255);stop-opacity:1;"/>
<stop offset="0.69" style="stop-color:rgb(91,185,255);stop-opacity:1;"/>
<stop offset="0.73" style="stop-color:rgb(103,190,255);stop-opacity:1;"/>
</linearGradient>
<linearGradient id="linear1" gradientUnits="userSpaceOnUse" x1="10.56" y1="6.02" x2="10.56" y2="19.71" gradientTransform="matrix(3.888889,0,0,3.888889,0,0)">
<stop offset="0.18" style="stop-color:rgb(41,164,255);stop-opacity:1;"/>
<stop offset="1" style="stop-color:rgb(0,108,188);stop-opacity:1;"/>
</linearGradient>
</defs>
<g id="surface1">
<path style=" stroke:none;fill-rule:nonzero;fill:url(#linear0);" d="M 41.066406 65.839844 C 41.078125 66.429688 40.847656 67 40.429688 67.417969 C 40.011719 67.835938 39.441406 68.066406 38.851563 68.054688 L 4.433594 68.054688 C 3.847656 68.054688 3.289063 67.820313 2.878906 67.402344 C 2.46875 66.988281 2.246094 66.421875 2.253906 65.839844 L 2.253906 4.160156 C 2.246094 3.578125 2.46875 3.011719 2.878906 2.597656 C 3.289063 2.179688 3.847656 1.945313 4.433594 1.945313 L 38.890625 1.945313 C 39.480469 1.933594 40.050781 2.164063 40.46875 2.582031 C 40.886719 3 41.117188 3.570313 41.105469 4.160156 Z M 41.066406 65.839844 "/>
<path style=" stroke:none;fill-rule:nonzero;fill:rgb(0,44,78);fill-opacity:1;" d="M 7.777344 25.121094 C 7.777344 23.972656 8.246094 22.875 9.074219 22.082031 C 9.90625 21.289063 11.023438 20.867188 12.171875 20.921875 L 31.617188 20.921875 C 33.890625 20.984375 35.699219 22.847656 35.699219 25.121094 C 35.710938 26.242188 35.273438 27.320313 34.484375 28.117188 C 33.695313 28.914063 32.621094 29.359375 31.5 29.359375 L 12.054688 29.359375 C 10.925781 29.371094 9.835938 28.929688 9.03125 28.132813 C 8.230469 27.335938 7.777344 26.253906 7.777344 25.121094 Z M 7.777344 25.121094 "/>
<path style=" stroke:none;fill-rule:nonzero;fill:rgb(0,44,78);fill-opacity:1;" d="M 7.777344 12.601563 C 7.777344 11.449219 8.246094 10.347656 9.074219 9.546875 C 9.902344 8.746094 11.019531 8.320313 12.171875 8.359375 L 31.617188 8.359375 C 33.90625 8.425781 35.722656 10.308594 35.699219 12.601563 C 35.699219 14.917969 33.820313 16.800781 31.5 16.800781 L 12.054688 16.800781 C 10.929688 16.820313 9.839844 16.386719 9.035156 15.597656 C 8.230469 14.808594 7.777344 13.726563 7.777344 12.601563 Z M 7.777344 12.601563 "/>
<path style=" stroke:none;fill-rule:nonzero;fill:rgb(119,197,255);fill-opacity:1;" d="M 15.167969 12.601563 C 15.167969 14.167969 13.894531 15.4375 12.328125 15.4375 C 10.761719 15.4375 9.488281 14.167969 9.488281 12.601563 C 9.488281 11.03125 10.761719 9.761719 12.328125 9.761719 C 13.894531 9.761719 15.167969 11.03125 15.167969 12.601563 Z M 15.167969 12.601563 "/>
<path style=" stroke:none;fill-rule:nonzero;fill:rgb(119,197,255);fill-opacity:1;" d="M 15.167969 25.121094 C 15.167969 26.691406 13.894531 27.960938 12.328125 27.960938 C 10.761719 27.960938 9.488281 26.691406 9.488281 25.121094 C 9.488281 23.554688 10.761719 22.285156 12.328125 22.285156 C 13.894531 22.285156 15.167969 23.554688 15.167969 25.121094 Z M 15.167969 25.121094 "/>
<path style=" stroke:none;fill-rule:nonzero;fill:url(#linear1);" d="M 67.746094 55.921875 C 67.578125 50.027344 63.199219 45.105469 57.359375 44.253906 C 57.085938 35.90625 50.15625 29.324219 41.804688 29.476563 C 35.136719 29.375 29.144531 33.539063 26.910156 39.820313 C 19.859375 40.742188 14.539063 46.675781 14.390625 53.785156 C 14.601563 61.867188 21.316406 68.25 29.398438 68.054688 L 55.726563 68.054688 C 62.355469 67.929688 67.683594 62.550781 67.746094 55.921875 Z M 67.746094 55.921875 "/>
</g>
</svg>
