<?xml version="1.0" encoding="UTF-8"?>
<svg xmlns="http://www.w3.org/2000/svg" xmlns:xlink="http://www.w3.org/1999/xlink" width="70pt" height="70pt" viewBox="0 0 70 70" version="1.1">
<defs>
<radialGradient id="radial0" gradientUnits="userSpaceOnUse" cx="1848.536" cy="3347.483" fx="1848.536" fy="3347.483" r="50.267" gradientTransform="matrix(0.583333,0,0,0.583333,-1048.996667,-1923.409444)">
<stop offset="0.183" style="stop-color:rgb(36.862745%,62.745098%,93.72549%);stop-opacity:1;"/>
<stop offset="1" style="stop-color:rgb(0%,47.058824%,83.137255%);stop-opacity:1;"/>
</radialGradient>
<filter id="alpha" filterUnits="objectBoundingBox" x="0%" y="0%" width="100%" height="100%">
  <feColorMatrix type="matrix" in="SourceGraphic" values="0 0 0 0 1 0 0 0 0 1 0 0 0 0 1 0 0 0 1 0"/>
</filter>
<mask id="mask0">
  <g filter="url(#alpha)">
<rect x="0" y="0" width="70" height="70" style="fill:rgb(0%,0%,0%);fill-opacity:0.6;stroke:none;"/>
  </g>
</mask>
<clipPath id="clip1">
  <rect x="0" y="0" width="70" height="70"/>
</clipPath>
<g id="surface5" clip-path="url(#clip1)">
<path style=" stroke:none;fill-rule:nonzero;fill:rgb(100%,100%,100%);fill-opacity:1;" d="M 21.355469 23.195313 C 29.652344 15.304688 40.65625 10.882813 52.109375 10.84375 C 50.613281 8.976563 48.890625 7.304688 46.980469 5.859375 C 41.40625 6.214844 35.933594 7.503906 30.789063 9.679688 C 25.492188 11.9375 20.710938 15.238281 16.722656 19.390625 C 18.636719 20.125 20.261719 21.460938 21.355469 23.195313 Z M 21.355469 23.195313 "/>
</g>
<mask id="mask1">
  <g filter="url(#alpha)">
<rect x="0" y="0" width="70" height="70" style="fill:rgb(0%,0%,0%);fill-opacity:0.6;stroke:none;"/>
  </g>
</mask>
<clipPath id="clip2">
  <rect x="0" y="0" width="70" height="70"/>
</clipPath>
<g id="surface8" clip-path="url(#clip2)">
<path style=" stroke:none;fill-rule:nonzero;fill:rgb(100%,100%,100%);fill-opacity:1;" d="M 6.832031 34.976563 C 5.652344 37.917969 4.691406 40.945313 3.949219 44.027344 C 4.601563 45.128906 5.320313 46.191406 6.097656 47.207031 C 6.695313 47.984375 7.332031 48.726563 8.007813 49.4375 C 8.84375 45.335938 10.09375 41.324219 11.746094 37.472656 C 9.894531 37.148438 8.183594 36.28125 6.832031 34.976563 Z M 6.832031 34.976563 "/>
</g>
<mask id="mask2">
  <g filter="url(#alpha)">
<rect x="0" y="0" width="70" height="70" style="fill:rgb(0%,0%,0%);fill-opacity:0.54902;stroke:none;"/>
  </g>
</mask>
<clipPath id="clip3">
  <rect x="0" y="0" width="70" height="70"/>
</clipPath>
<g id="surface11" clip-path="url(#clip3)">
<path style=" stroke:none;fill-rule:nonzero;fill:rgb(94.901961%,94.901961%,94.901961%);fill-opacity:1;" d="M 10.210938 19.328125 C 8.992188 16.054688 8.195313 12.644531 7.835938 9.171875 C 6.390625 10.703125 5.117188 12.390625 4.035156 14.199219 C 4.433594 16.976563 5.082031 19.707031 5.980469 22.363281 C 7.078125 20.976563 8.546875 19.921875 10.210938 19.328125 Z M 10.210938 19.328125 "/>
</g>
<linearGradient id="linear0" gradientUnits="userSpaceOnUse" x1="3.459" y1="9.738" x2="3.431" y2="6.226" gradientTransform="matrix(3.888889,0,0,3.888889,0,0)">
<stop offset="0" style="stop-color:rgb(80%,80%,80%);stop-opacity:1;"/>
<stop offset="0.123" style="stop-color:rgb(84.313725%,84.313725%,84.313725%);stop-opacity:1;"/>
<stop offset="1" style="stop-color:rgb(98.823529%,98.823529%,98.823529%);stop-opacity:1;"/>
</linearGradient>
<mask id="mask3">
  <g filter="url(#alpha)">
<rect x="0" y="0" width="70" height="70" style="fill:rgb(0%,0%,0%);fill-opacity:0.54902;stroke:none;"/>
  </g>
</mask>
<clipPath id="clip4">
  <rect x="0" y="0" width="70" height="70"/>
</clipPath>
<g id="surface14" clip-path="url(#clip4)">
<path style=" stroke:none;fill-rule:nonzero;fill:rgb(94.901961%,94.901961%,94.901961%);fill-opacity:1;" d="M 27.113281 45.410156 C 27.113281 43.761719 27.78125 42.179688 28.964844 41.03125 C 25.792969 39.28125 22.863281 37.121094 20.253906 34.609375 C 18.882813 36.082031 17.078125 37.074219 15.105469 37.441406 C 16.648438 39.054688 18.324219 40.535156 20.109375 41.875 C 22.320313 43.535156 24.683594 44.976563 27.171875 46.179688 C 27.136719 45.925781 27.117188 45.667969 27.113281 45.410156 Z M 27.113281 45.410156 "/>
</g>
<mask id="mask4">
  <g filter="url(#alpha)">
<rect x="0" y="0" width="70" height="70" style="fill:rgb(0%,0%,0%);fill-opacity:0.54902;stroke:none;"/>
  </g>
</mask>
<clipPath id="clip5">
  <rect x="0" y="0" width="70" height="70"/>
</clipPath>
<g id="surface17" clip-path="url(#clip5)">
<path style=" stroke:none;fill-rule:nonzero;fill:rgb(94.901961%,94.901961%,94.901961%);fill-opacity:1;" d="M 48.839844 46.136719 C 45.644531 46.140625 42.457031 45.769531 39.34375 45.035156 C 39.34375 45.15625 39.34375 45.28125 39.34375 45.421875 C 39.347656 47.019531 38.722656 48.558594 37.601563 49.699219 C 41.472656 50.46875 45.425781 50.75 49.371094 50.539063 C 50.859375 49.132813 52.195313 47.574219 53.355469 45.890625 C 51.855469 46.054688 50.347656 46.136719 48.839844 46.136719 Z M 48.839844 46.136719 "/>
</g>
<linearGradient id="linear1" gradientUnits="userSpaceOnUse" x1="8.547" y1="13.251" x2="8.547" y2="10.102" gradientTransform="matrix(3.888889,0,0,3.888889,0,0)">
<stop offset="0" style="stop-color:rgb(80%,80%,80%);stop-opacity:1;"/>
<stop offset="0.123" style="stop-color:rgb(84.313725%,84.313725%,84.313725%);stop-opacity:1;"/>
<stop offset="1" style="stop-color:rgb(98.823529%,98.823529%,98.823529%);stop-opacity:1;"/>
</linearGradient>
<mask id="mask5">
  <g filter="url(#alpha)">
<rect x="0" y="0" width="70" height="70" style="fill:rgb(0%,0%,0%);fill-opacity:0.701961;stroke:none;"/>
  </g>
</mask>
<clipPath id="clip6">
  <rect x="0" y="0" width="70" height="70"/>
</clipPath>
<g id="surface20" clip-path="url(#clip6)">
<path style=" stroke:none;fill-rule:nonzero;fill:rgb(94.901961%,94.901961%,94.901961%);fill-opacity:1;" d="M 40.769531 29.046875 C 41.085938 27.710938 41.828125 26.515625 42.882813 25.640625 C 37.191406 21.507813 32.019531 16.699219 27.488281 11.324219 C 24.863281 8.210938 22.570313 4.835938 20.640625 1.25 C 19.359375 1.640625 18.101563 2.125 16.886719 2.691406 C 18.9375 6.609375 21.40625 10.296875 24.25 13.683594 C 29.101563 19.46875 34.648438 24.628906 40.769531 29.046875 Z M 40.769531 29.046875 "/>
</g>
<mask id="mask6">
  <g filter="url(#alpha)">
<rect x="0" y="0" width="70" height="70" style="fill:rgb(0%,0%,0%);fill-opacity:0.54902;stroke:none;"/>
  </g>
</mask>
<clipPath id="clip7">
  <rect x="0" y="0" width="70" height="70"/>
</clipPath>
<g id="surface23" clip-path="url(#clip7)">
<path style=" stroke:none;fill-rule:nonzero;fill:rgb(94.901961%,94.901961%,94.901961%);fill-opacity:1;" d="M 58.117188 34.609375 L 57.011719 34.027344 L 56.90625 33.96875 L 55.882813 33.417969 L 55.695313 33.3125 C 55.386719 33.144531 55.078125 32.972656 54.773438 32.804688 L 54.550781 32.667969 L 53.460938 32.046875 C 53.089844 33.320313 52.320313 34.4375 51.265625 35.238281 C 51.691406 35.480469 52.121094 35.730469 52.558594 35.976563 L 52.851563 36.140625 L 54.046875 36.804688 L 54.164063 36.871094 C 55.132813 37.398438 56.109375 37.921875 57.140625 38.425781 C 57.554688 37.167969 57.878906 35.886719 58.117188 34.582031 Z M 58.117188 34.609375 "/>
</g>
<linearGradient id="linear2" gradientUnits="userSpaceOnUse" x1="13.196" y1="8.878" x2="13.296" y2="18.078" gradientTransform="matrix(3.888889,0,0,3.888889,0,0)">
<stop offset="0" style="stop-color:rgb(19.607843%,83.137255%,96.078431%);stop-opacity:1;"/>
<stop offset="0.321" style="stop-color:rgb(19.215686%,81.960784%,95.294118%);stop-opacity:1;"/>
<stop offset="1" style="stop-color:rgb(9.803922%,54.117647%,70.196078%);stop-opacity:1;"/>
</linearGradient>
</defs>
<g id="surface1">
<path style=" stroke:none;fill-rule:nonzero;fill:url(#radial0);" d="M 47.292969 52.46875 C 39.023438 59.003906 27.882813 60.597656 18.113281 56.644531 C 8.339844 52.691406 1.445313 43.796875 0.046875 33.351563 C -1.351563 22.90625 2.96875 12.511719 11.355469 6.128906 L 11.667969 5.898438 C 24.53125 -3.820313 42.832031 -1.332031 52.628906 11.472656 C 62.429688 24.277344 60.050781 42.589844 47.308594 52.46875 "/>
<use xlink:href="#surface5" mask="url(#mask0)"/>
<use xlink:href="#surface8" mask="url(#mask1)"/>
<use xlink:href="#surface11" mask="url(#mask2)"/>
<path style=" stroke:none;fill-rule:nonzero;fill:url(#linear0);" d="M 22.800781 28.199219 C 22.800781 33.40625 18.582031 37.625 13.375 37.625 C 8.167969 37.625 3.945313 33.40625 3.945313 28.199219 C 3.945313 22.992188 8.167969 18.773438 13.375 18.773438 C 18.582031 18.773438 22.800781 22.992188 22.800781 28.199219 Z M 22.800781 28.199219 "/>
<use xlink:href="#surface14" mask="url(#mask3)"/>
<use xlink:href="#surface17" mask="url(#mask4)"/>
<path style=" stroke:none;fill-rule:nonzero;fill:url(#linear1);" d="M 39.363281 45.410156 C 39.363281 48.792969 36.621094 51.535156 33.238281 51.535156 C 29.855469 51.535156 27.113281 48.792969 27.113281 45.410156 C 27.113281 42.027344 29.855469 39.285156 33.238281 39.285156 C 36.621094 39.285156 39.363281 42.027344 39.363281 45.410156 Z M 39.363281 45.410156 "/>
<use xlink:href="#surface20" mask="url(#mask5)"/>
<path style=" stroke:none;fill-rule:nonzero;fill:rgb(100%,100%,100%);fill-opacity:1;" d="M 53.699219 30.222656 C 53.699219 33.816406 50.785156 36.726563 47.195313 36.726563 C 43.605469 36.726563 40.691406 33.816406 40.691406 30.222656 C 40.691406 26.632813 43.605469 23.722656 47.195313 23.722656 C 50.785156 23.722656 53.699219 26.632813 53.699219 30.222656 Z M 53.699219 30.222656 "/>
<use xlink:href="#surface23" mask="url(#mask6)"/>
<path style=" stroke:none;fill-rule:nonzero;fill:rgb(100%,100%,100%);fill-opacity:1;" d="M 22.800781 28.199219 C 22.800781 33.40625 18.582031 37.625 13.375 37.625 C 8.167969 37.625 3.945313 33.40625 3.945313 28.199219 C 3.945313 22.992188 8.167969 18.773438 13.375 18.773438 C 18.582031 18.773438 22.800781 22.992188 22.800781 28.199219 Z M 22.800781 28.199219 "/>
<path style=" stroke:none;fill-rule:nonzero;fill:rgb(100%,100%,100%);fill-opacity:1;" d="M 39.363281 45.410156 C 39.363281 48.792969 36.621094 51.535156 33.238281 51.535156 C 29.855469 51.535156 27.113281 48.792969 27.113281 45.410156 C 27.113281 42.027344 29.855469 39.285156 33.238281 39.285156 C 36.621094 39.285156 39.363281 42.027344 39.363281 45.410156 Z M 39.363281 45.410156 "/>
<path style=" stroke:none;fill-rule:nonzero;fill:url(#linear2);" d="M 68.65625 70.023438 L 34.714844 70.023438 C 33.636719 70.023438 32.996094 68.296875 33.609375 67.40625 L 45.304688 50.355469 C 45.460938 50.128906 45.542969 49.855469 45.542969 49.578125 L 45.542969 38.300781 C 45.539063 37.929688 45.238281 37.632813 44.871094 37.632813 L 44.238281 37.632813 C 43.5 37.628906 42.902344 37.03125 42.898438 36.292969 L 42.898438 35.710938 C 42.898438 34.96875 43.5 34.367188 44.238281 34.367188 L 59.109375 34.367188 C 59.851563 34.367188 60.453125 34.96875 60.453125 35.710938 L 60.453125 36.316406 C 60.449219 37.058594 59.851563 37.65625 59.109375 37.660156 L 58.480469 37.660156 C 58.113281 37.660156 57.8125 37.960938 57.8125 38.328125 L 57.8125 49.605469 C 57.808594 49.882813 57.890625 50.15625 58.046875 50.382813 L 69.746094 67.40625 C 70.390625 68.296875 69.734375 70.023438 68.65625 70.023438 Z M 68.65625 70.023438 "/>
<path style=" stroke:none;fill-rule:nonzero;fill:rgb(100%,100%,100%);fill-opacity:1;" d="M 38.625 65.46875 L 47.511719 52.5 C 47.882813 51.960938 48.082031 51.320313 48.082031 50.664063 L 48.082031 45.460938 C 48.082031 44.890625 48.542969 44.429688 49.113281 44.429688 L 54.167969 44.429688 C 54.441406 44.429688 54.703125 44.539063 54.898438 44.730469 C 55.089844 44.925781 55.199219 45.1875 55.199219 45.460938 L 55.199219 51.035156 C 55.199219 51.476563 55.335938 51.90625 55.585938 52.269531 L 64.664063 65.46875 C 64.824219 65.707031 64.84375 66.015625 64.707031 66.269531 C 64.574219 66.523438 64.308594 66.683594 64.023438 66.683594 L 39.277344 66.683594 C 38.988281 66.6875 38.722656 66.527344 38.582031 66.273438 C 38.445313 66.019531 38.460938 65.710938 38.625 65.46875 Z M 38.625 65.46875 "/>
<path style=" stroke:none;fill-rule:nonzero;fill:rgb(23.529412%,83.137255%,76.078431%);fill-opacity:1;" d="M 41.28125 61.597656 C 45.695313 58.695313 51.230469 58.070313 56.183594 59.910156 C 56.183594 59.910156 59.433594 61.726563 60.59375 59.570313 L 64.789063 65.402344 C 65.03125 65.746094 65.066406 66.195313 64.875 66.570313 C 64.683594 66.941406 64.300781 67.179688 63.878906 67.179688 L 39.300781 67.179688 C 38.875 67.179688 38.488281 66.9375 38.296875 66.558594 C 38.109375 66.175781 38.148438 65.71875 38.40625 65.378906 Z M 41.28125 61.597656 "/>
</g>
</svg>
