<?xml version="1.0" encoding="UTF-8"?>
<svg xmlns="http://www.w3.org/2000/svg" xmlns:xlink="http://www.w3.org/1999/xlink" width="70pt" height="70pt" viewBox="0 0 70 70" version="1.1">
<defs>
<linearGradient id="linear0" gradientUnits="userSpaceOnUse" x1="9" y1="17.5" x2="9" y2="0.5" gradientTransform="matrix(3.888889,0,0,3.888889,0,0)">
<stop offset="0" style="stop-color:rgb(0,81,142);stop-opacity:1;"/>
<stop offset="0.168" style="stop-color:rgb(0,88,154);stop-opacity:1;"/>
<stop offset="0.577" style="stop-color:rgb(0,102,178);stop-opacity:1;"/>
<stop offset="0.815" style="stop-color:rgb(0,108,188);stop-opacity:1;"/>
</linearGradient>
</defs>
<g id="surface1">
<path style=" stroke:none;fill-rule:nonzero;fill:url(#linear0);" d="M 68.054688 35 C 68.054688 53.257813 53.257813 68.054688 35 68.054688 C 16.742188 68.054688 1.945313 53.257813 1.945313 35 C 1.945313 16.742188 16.742188 1.945313 35 1.945313 C 53.257813 1.945313 68.054688 16.742188 68.054688 35 Z M 68.054688 35 "/>
<path style=" stroke:none;fill-rule:nonzero;fill:rgb(255,255,255);fill-opacity:1;" d="M 30.238281 41.347656 L 39.761719 41.347656 L 39.761719 50.867188 L 30.238281 50.867188 Z M 19.132813 28.652344 L 28.652344 28.652344 L 28.652344 19.132813 L 20.464844 19.132813 C 20.109375 19.132813 19.769531 19.273438 19.523438 19.523438 C 19.273438 19.769531 19.132813 20.109375 19.132813 20.464844 Z M 20.464844 50.867188 L 28.652344 50.867188 L 28.652344 41.347656 L 19.132813 41.347656 L 19.132813 49.535156 C 19.132813 49.890625 19.273438 50.230469 19.523438 50.476563 C 19.769531 50.726563 20.109375 50.867188 20.464844 50.867188 Z M 19.132813 39.761719 L 28.652344 39.761719 L 28.652344 30.238281 L 19.132813 30.238281 Z M 41.347656 50.867188 L 49.535156 50.867188 C 49.890625 50.867188 50.230469 50.726563 50.476563 50.476563 C 50.726563 50.230469 50.867188 49.890625 50.867188 49.535156 L 50.867188 41.347656 L 41.347656 41.347656 Z M 30.238281 39.761719 L 39.761719 39.761719 L 39.761719 30.238281 L 30.238281 30.238281 Z M 41.347656 39.761719 L 50.867188 39.761719 L 50.867188 30.238281 L 41.347656 30.238281 Z M 41.347656 19.148438 L 41.347656 28.652344 L 50.867188 28.652344 L 50.867188 20.464844 C 50.867188 20.109375 50.726563 19.769531 50.476563 19.523438 C 50.230469 19.273438 49.890625 19.132813 49.535156 19.132813 Z M 30.238281 28.652344 L 39.761719 28.652344 L 39.761719 19.132813 L 30.238281 19.132813 Z M 30.238281 28.652344 "/>
</g>
</svg>
