<?xml version="1.0" encoding="UTF-8"?>
<svg xmlns="http://www.w3.org/2000/svg" xmlns:xlink="http://www.w3.org/1999/xlink" width="70pt" height="70pt" viewBox="0 0 70 70" version="1.1">
<defs>
<filter id="alpha" filterUnits="objectBoundingBox" x="0%" y="0%" width="100%" height="100%">
  <feColorMatrix type="matrix" in="SourceGraphic" values="0 0 0 0 1 0 0 0 0 1 0 0 0 0 1 0 0 0 1 0"/>
</filter>
<mask id="mask0">
  <g filter="url(#alpha)">
<rect x="0" y="0" width="70" height="70" style="fill:rgb(0,0,0);fill-opacity:0.8;stroke:none;"/>
  </g>
</mask>
<clipPath id="clip1">
  <rect x="0" y="0" width="70" height="70"/>
</clipPath>
<g id="surface5" clip-path="url(#clip1)">
<path style=" stroke:none;fill-rule:nonzero;fill:rgb(255,255,255);fill-opacity:1;" d="M 52.695313 35.351563 C 50.816406 35.367188 48.976563 34.824219 47.40625 33.792969 L 52.65625 47.484375 L 57.828125 33.910156 C 56.28125 34.851563 54.503906 35.351563 52.695313 35.351563 Z M 52.695313 35.351563 "/>
</g>
<linearGradient id="linear0" gradientUnits="userSpaceOnUse" x1="6.7" y1="7.26" x2="6.7" y2="18.36" gradientTransform="matrix(3.888889,0,0,3.888889,0,0)">
<stop offset="0.22" style="stop-color:rgb(79,180,255);stop-opacity:1;"/>
<stop offset="1" style="stop-color:rgb(0,124,216);stop-opacity:1;"/>
</linearGradient>
<mask id="mask1">
  <g filter="url(#alpha)">
<rect x="0" y="0" width="70" height="70" style="fill:rgb(0,0,0);fill-opacity:0.8;stroke:none;"/>
  </g>
</mask>
<clipPath id="clip2">
  <rect x="0" y="0" width="70" height="70"/>
</clipPath>
<g id="surface8" clip-path="url(#clip2)">
<path style=" stroke:none;fill-rule:nonzero;fill:rgb(255,255,255);fill-opacity:1;" d="M 26.328125 35.542969 C 23.566406 35.523438 20.867188 34.714844 18.550781 33.210938 L 26.328125 53.628906 L 34.105469 33.367188 C 31.765625 34.800781 29.070313 35.554688 26.328125 35.542969 Z M 26.328125 35.542969 "/>
</g>
<linearGradient id="linear1" gradientUnits="userSpaceOnUse" x1="6.42" y1="1.32" x2="7.23" y2="11.39" gradientTransform="matrix(3.888889,0,0,3.888889,0,0)">
<stop offset="0.22" style="stop-color:rgb(79,180,255);stop-opacity:1;"/>
<stop offset="1" style="stop-color:rgb(0,124,216);stop-opacity:1;"/>
</linearGradient>
</defs>
<g id="surface1">
<path style=" stroke:none;fill-rule:nonzero;fill:rgb(0,108,188);fill-opacity:1;" d="M 66.964844 54.132813 C 67.789063 54.144531 68.578125 53.824219 69.164063 53.246094 C 69.75 52.671875 70.078125 51.882813 70.078125 51.0625 C 70.09375 50.890625 70.066406 50.714844 70 50.554688 C 68.792969 40.832031 63.234375 32.898438 52.65625 32.898438 C 42.078125 32.898438 36.359375 39.746094 35.273438 50.554688 C 35.113281 52.269531 36.359375 53.792969 38.070313 53.976563 L 66.964844 53.976563 Z M 66.964844 54.132813 "/>
<use xlink:href="#surface5" mask="url(#mask0)"/>
<path style=" stroke:none;fill-rule:nonzero;fill:rgb(0,108,188);fill-opacity:1;" d="M 62.457031 25.589844 C 62.457031 30.980469 58.085938 35.351563 52.695313 35.351563 C 47.304688 35.351563 42.933594 30.980469 42.933594 25.589844 C 42.933594 20.199219 47.304688 15.828125 52.695313 15.828125 C 58.085938 15.828125 62.457031 20.199219 62.457031 25.589844 Z M 62.457031 25.589844 "/>
<path style=" stroke:none;fill-rule:nonzero;fill:url(#linear0);" d="M 47.40625 63.621094 C 49.960938 63.621094 52.035156 61.550781 52.035156 58.996094 C 52.050781 58.8125 52.050781 58.632813 52.035156 58.449219 C 50.207031 43.90625 41.921875 32.082031 26.132813 32.082031 C 10.34375 32.082031 1.710938 42.117188 0 58.332031 C -0.25 60.886719 1.609375 63.160156 4.160156 63.429688 L 47.328125 63.429688 Z M 47.40625 63.621094 "/>
<use xlink:href="#surface8" mask="url(#mask1)"/>
<path style=" stroke:none;fill-rule:nonzero;fill:url(#linear1);" d="M 40.792969 20.960938 C 40.792969 29.015625 34.265625 35.542969 26.210938 35.542969 C 18.15625 35.542969 11.628906 29.015625 11.628906 20.960938 C 11.628906 12.90625 18.15625 6.378906 26.210938 6.378906 C 34.265625 6.378906 40.792969 12.90625 40.792969 20.960938 Z M 40.792969 20.960938 "/>
</g>
</svg>
