<?xml version="1.0" encoding="UTF-8"?>
<svg xmlns="http://www.w3.org/2000/svg" xmlns:xlink="http://www.w3.org/1999/xlink" width="70pt" height="70pt" viewBox="0 0 70 70" version="1.1">
<defs>
<radialGradient id="radial0" gradientUnits="userSpaceOnUse" cx="9" cy="9" fx="9" fy="9" r="8.5" gradientTransform="matrix(3.888889,0,0,3.888889,0,0)">
<stop offset="0" style="stop-color:rgb(0,124,216);stop-opacity:1;"/>
<stop offset="0.382" style="stop-color:rgb(0,126,220);stop-opacity:1;"/>
<stop offset="0.576" style="stop-color:rgb(0,133,232);stop-opacity:1;"/>
<stop offset="0.727" style="stop-color:rgb(0,145,252);stop-opacity:1;"/>
<stop offset="0.856" style="stop-color:rgb(27,158,255);stop-opacity:1;"/>
<stop offset="0.97" style="stop-color:rgb(65,174,255);stop-opacity:1;"/>
<stop offset="1" style="stop-color:rgb(79,180,255);stop-opacity:1;"/>
</radialGradient>
</defs>
<g id="surface1">
<path style=" stroke:none;fill-rule:nonzero;fill:url(#radial0);" d="M 68.054688 35 C 68.054688 53.257813 53.257813 68.054688 35 68.054688 C 16.742188 68.054688 1.945313 53.257813 1.945313 35 C 1.945313 16.742188 16.742188 1.945313 35 1.945313 C 53.257813 1.945313 68.054688 16.742188 68.054688 35 Z M 68.054688 35 "/>
<path style=" stroke:none;fill-rule:nonzero;fill:rgb(0,81,142);fill-opacity:1;" d="M 63.46875 35 C 63.46875 50.722656 50.722656 63.46875 35 63.46875 C 19.277344 63.46875 6.53125 50.722656 6.53125 35 C 6.53125 19.277344 19.277344 6.53125 35 6.53125 C 50.722656 6.53125 63.46875 19.277344 63.46875 35 Z M 63.46875 35 "/>
<path style=" stroke:none;fill-rule:nonzero;fill:rgb(229,243,255);fill-opacity:1;" d="M 35.390625 38.644531 L 24.367188 27.707031 C 23.601563 26.957031 22.375 26.957031 21.609375 27.707031 L 20.222656 29.089844 C 19.867188 29.433594 19.667969 29.90625 19.667969 30.398438 C 19.664063 30.894531 19.863281 31.371094 20.214844 31.71875 L 28.503906 39.96875 L 20.035156 48.382813 C 19.683594 48.726563 19.484375 49.203125 19.484375 49.695313 C 19.484375 50.191406 19.683594 50.664063 20.035156 51.011719 L 21.4375 52.390625 C 22.203125 53.140625 23.425781 53.140625 24.191406 52.390625 L 35.386719 41.269531 C 35.734375 40.921875 35.933594 40.449219 35.933594 39.953125 C 35.9375 39.460938 35.738281 38.988281 35.386719 38.644531 Z M 34.046875 29.855469 C 34.046875 30.347656 34.246094 30.820313 34.59375 31.167969 L 45.796875 42.292969 C 46.5625 43.042969 47.785156 43.042969 48.554688 42.292969 L 49.953125 40.90625 C 50.308594 40.5625 50.507813 40.089844 50.507813 39.597656 C 50.507813 39.101563 50.3125 38.628906 49.960938 38.28125 L 41.507813 29.875 L 49.796875 21.617188 C 50.148438 21.269531 50.347656 20.796875 50.34375 20.304688 C 50.34375 19.808594 50.144531 19.335938 49.789063 18.992188 L 48.390625 17.609375 C 47.625 16.859375 46.398438 16.859375 45.632813 17.609375 L 34.609375 28.542969 C 34.253906 28.886719 34.050781 29.363281 34.046875 29.859375 Z M 34.046875 29.855469 "/>
</g>
</svg>
