<?xml version="1.0" encoding="UTF-8"?>
<svg xmlns="http://www.w3.org/2000/svg" xmlns:xlink="http://www.w3.org/1999/xlink" width="70pt" height="70pt" viewBox="0 0 70 70" version="1.1">
<defs>
<linearGradient id="linear0" gradientUnits="userSpaceOnUse" x1="8.83" y1="12.87" x2="8.83" y2="0.87" gradientTransform="matrix(3.888889,0,0,3.888889,0,0)">
<stop offset="0" style="stop-color:rgb(0%,47.058824%,83.137255%);stop-opacity:1;"/>
<stop offset="0.82" style="stop-color:rgb(36.862745%,62.745098%,93.72549%);stop-opacity:1;"/>
</linearGradient>
<filter id="alpha" filterUnits="objectBoundingBox" x="0%" y="0%" width="100%" height="100%">
  <feColorMatrix type="matrix" in="SourceGraphic" values="0 0 0 0 1 0 0 0 0 1 0 0 0 0 1 0 0 0 1 0"/>
</filter>
<mask id="mask0">
  <g filter="url(#alpha)">
<rect x="0" y="0" width="70" height="70" style="fill:rgb(0%,0%,0%);fill-opacity:0.2;stroke:none;"/>
  </g>
</mask>
<clipPath id="clip1">
  <rect x="0" y="0" width="70" height="70"/>
</clipPath>
<g id="surface5" clip-path="url(#clip1)">
<path style=" stroke:none;fill-rule:nonzero;fill:rgb(51.372549%,72.54902%,97.647059%);fill-opacity:1;" d="M 22.671875 33.484375 L 34.339844 26.714844 L 34.339844 40.328125 Z M 22.671875 33.484375 "/>
</g>
<mask id="mask1">
  <g filter="url(#alpha)">
<rect x="0" y="0" width="70" height="70" style="fill:rgb(0%,0%,0%);fill-opacity:0.2;stroke:none;"/>
  </g>
</mask>
<clipPath id="clip2">
  <rect x="0" y="0" width="70" height="70"/>
</clipPath>
<g id="surface8" clip-path="url(#clip2)">
<path style=" stroke:none;fill-rule:nonzero;fill:rgb(36.862745%,62.745098%,93.72549%);fill-opacity:1;" d="M 46.003906 33.484375 L 34.339844 26.714844 L 34.339844 40.328125 Z M 46.003906 33.484375 "/>
</g>
<linearGradient id="linear1" gradientUnits="userSpaceOnUse" x1="8.83" y1="17.5" x2="8.83" y2="12.87" gradientTransform="matrix(3.888889,0,0,3.888889,0,0)">
<stop offset="0" style="stop-color:rgb(7.843137%,56.470588%,87.45098%);stop-opacity:1;"/>
<stop offset="0.98" style="stop-color:rgb(12.156863%,33.72549%,63.921569%);stop-opacity:1;"/>
</linearGradient>
</defs>
<g id="surface1">
<path style=" stroke:none;fill-rule:nonzero;fill:url(#linear0);" d="M 1.671875 3.382813 L 67.003906 3.382813 C 68.292969 3.382813 69.339844 4.429688 69.339844 5.714844 L 69.339844 47.714844 C 69.339844 49.003906 68.292969 50.050781 67.003906 50.050781 L 1.671875 50.050781 C 0.382813 50.050781 -0.660156 49.003906 -0.660156 47.714844 L -0.660156 5.714844 C -0.660156 4.429688 0.382813 3.382813 1.671875 3.382813 Z M 1.671875 3.382813 "/>
<path style=" stroke:none;fill-rule:nonzero;fill:rgb(100%,100%,100%);fill-opacity:1;" d="M 4.511719 7.273438 L 64.167969 7.273438 C 64.875 7.273438 65.449219 7.847656 65.449219 8.554688 L 65.449219 44.878906 C 65.449219 45.585938 64.875 46.160156 64.167969 46.160156 L 4.511719 46.160156 C 3.800781 46.160156 3.226563 45.585938 3.226563 44.878906 L 3.226563 8.554688 C 3.226563 7.847656 3.800781 7.273438 4.511719 7.273438 Z M 4.511719 7.273438 "/>
<path style=" stroke:none;fill-rule:nonzero;fill:rgb(0%,47.058824%,83.137255%);fill-opacity:1;" d="M 46.003906 19.910156 L 46.003906 33.484375 L 34.339844 40.328125 L 34.339844 26.714844 Z M 46.003906 19.910156 "/>
<path style=" stroke:none;fill-rule:nonzero;fill:rgb(51.372549%,72.54902%,97.647059%);fill-opacity:1;" d="M 46.003906 19.910156 L 34.339844 26.753906 L 22.671875 19.910156 L 34.339844 13.105469 Z M 46.003906 19.910156 "/>
<path style=" stroke:none;fill-rule:nonzero;fill:rgb(36.862745%,62.745098%,93.72549%);fill-opacity:1;" d="M 34.339844 26.753906 L 34.339844 40.328125 L 22.671875 33.484375 L 22.671875 19.910156 Z M 34.339844 26.753906 "/>
<use xlink:href="#surface5" mask="url(#mask0)"/>
<use xlink:href="#surface8" mask="url(#mask1)"/>
<path style=" stroke:none;fill-rule:nonzero;fill:url(#linear1);" d="M 48.378906 64.167969 C 41.457031 63.078125 41.183594 58.101563 41.183594 50.050781 L 27.457031 50.050781 C 27.457031 58.101563 27.222656 63.078125 20.300781 64.167969 C 18.320313 64.386719 16.828125 66.0625 16.839844 68.054688 L 51.839844 68.054688 C 51.851563 66.0625 50.355469 64.386719 48.378906 64.167969 Z M 48.378906 64.167969 "/>
<path style=" stroke:none;fill-rule:nonzero;fill:rgb(36.862745%,62.745098%,93.72549%);fill-opacity:1;" d="M 19.832031 9.996094 L 10.1875 9.996094 C 9.574219 9.984375 8.980469 10.222656 8.542969 10.652344 C 8.101563 11.085938 7.855469 11.671875 7.855469 12.289063 L 7.855469 21.933594 C 7.855469 22.578125 8.378906 23.101563 9.023438 23.101563 L 9.800781 23.101563 C 10.445313 23.101563 10.964844 22.578125 10.964844 21.933594 L 10.964844 13.027344 L 19.832031 13.027344 C 20.476563 13.027344 21 12.503906 21 11.859375 L 21 11.121094 C 20.980469 10.492188 20.460938 9.992188 19.832031 9.996094 Z M 19.832031 9.996094 "/>
<path style=" stroke:none;fill-rule:nonzero;fill:rgb(36.862745%,62.745098%,93.72549%);fill-opacity:1;" d="M 19.832031 40.328125 L 10.929688 40.328125 L 10.929688 31.460938 C 10.929688 30.816406 10.40625 30.292969 9.761719 30.292969 L 9.023438 30.292969 C 8.378906 30.292969 7.855469 30.816406 7.855469 31.460938 L 7.855469 41.105469 C 7.855469 41.722656 8.101563 42.308594 8.542969 42.742188 C 8.980469 43.171875 9.574219 43.410156 10.1875 43.398438 L 19.832031 43.398438 C 20.460938 43.398438 20.980469 42.902344 21 42.273438 L 21 41.496094 C 21 40.851563 20.476563 40.328125 19.832031 40.328125 Z M 19.832031 40.328125 "/>
<path style=" stroke:none;fill-rule:nonzero;fill:rgb(36.862745%,62.745098%,93.72549%);fill-opacity:1;" d="M 58.332031 10.070313 L 48.84375 10.070313 C 48.53125 10.0625 48.230469 10.179688 48.007813 10.402344 C 47.785156 10.625 47.667969 10.925781 47.679688 11.238281 L 47.679688 11.976563 C 47.675781 12.285156 47.800781 12.578125 48.023438 12.789063 C 48.242188 13.003906 48.539063 13.117188 48.84375 13.105469 L 57.710938 13.105469 L 57.710938 22.050781 C 57.710938 22.355469 57.835938 22.648438 58.054688 22.863281 C 58.273438 23.074219 58.570313 23.1875 58.878906 23.179688 L 59.65625 23.179688 C 60.277344 23.179688 60.785156 22.671875 60.785156 22.050781 L 60.785156 12.40625 C 60.796875 11.761719 60.539063 11.144531 60.070313 10.699219 C 59.605469 10.257813 58.976563 10.027344 58.332031 10.070313 Z M 58.332031 10.070313 "/>
<path style=" stroke:none;fill-rule:nonzero;fill:rgb(36.862745%,62.745098%,93.72549%);fill-opacity:1;" d="M 59.65625 30.371094 L 58.917969 30.371094 C 58.273438 30.371094 57.75 30.894531 57.75 31.539063 L 57.75 40.40625 L 48.84375 40.40625 C 48.53125 40.394531 48.230469 40.515625 48.007813 40.734375 C 47.785156 40.957031 47.667969 41.257813 47.679688 41.570313 L 47.679688 42.351563 C 47.679688 42.996094 48.199219 43.515625 48.84375 43.515625 L 58.332031 43.515625 C 58.949219 43.515625 59.539063 43.269531 59.96875 42.832031 C 60.402344 42.390625 60.636719 41.796875 60.628906 41.183594 L 60.628906 31.539063 C 60.636719 30.964844 60.222656 30.46875 59.65625 30.371094 Z M 59.65625 30.371094 "/>
</g>
</svg>
