<?xml version="1.0" encoding="utf-8"?><svg version="1.1" xmlns="http://www.w3.org/2000/svg" xmlns:xlink="http://www.w3.org/1999/xlink" xmlns:xml="http://www.w3.org/XML/1998/namespace" width="70" height="70" viewBox="0, 0, 18, 18" id="b70acf0a-34b4-4bdf-9024-7496043ff915"><defs><radialGradient cx="13428.81" cy="3518.86" r="56.67" gradientUnits="userSpaceOnUse" gradientTransform="translate(-2005.33, -518.83) scale(0.15)" id="e2cf8746-c9a8-4eee-86c2-4951983c6032"><stop offset="18%" stop-color="#29A4FF" /><stop offset="100%" stop-color="#006CBC" /></radialGradient><linearGradient x1="4.4" y1="11.48" x2="4.37" y2="7.53" gradientUnits="userSpaceOnUse" id="bdd213dd-d313-473c-8ff4-0133fd3a9033"><stop offset="0%" stop-color="#99D3FF" /><stop offset="100%" stop-color="#F9FCFF" /></linearGradient><linearGradient x1="10.13" y1="15.45" x2="10.13" y2="11.9" gradientUnits="userSpaceOnUse" id="afcc63c5-3649-4476-a742-bcb53a569f3c"><stop offset="0%" stop-color="#99D3FF" /><stop offset="100%" stop-color="#F9FCFF" /></linearGradient><linearGradient x1="14.18" y1="11.15" x2="14.18" y2="7.38" gradientUnits="userSpaceOnUse" id="bd873f0b-9954-4aa5-a3df-9f4c64e8729d"><stop offset="0%" stop-color="#99D3FF" /><stop offset="100%" stop-color="#F9FCFF" /></linearGradient></defs><title>Icon-web-41</title><path d="M14.21 15.72 A8.5 8.5 0 0 1 3.79 2.28 l0.09 -0.06 a8.5 8.5 0 0 1 10.33 13.5" id="ee75dd06-1aca-4f76-9d11-d05a284020ad" style="fill:url(#e2cf8746-c9a8-4eee-86c2-4951983c6032);" /><path d="M6.69 7.23 A13 13 0 0 1 15.6 3.65 a8.47 8.47 0 0 0 -1.49 -1.44 a14.34 14.34 0 0 0 -4.69 1.1 A12.54 12.54 0 0 0 5.34 6.13 A2.76 2.76 0 0 1 6.69 7.23 Z" opacity="0.6" style="fill:white;" /><path d="M2.48 10.65 a17.86 17.86 0 0 0 -0.83 2.62 a7.82 7.82 0 0 0 0.62 0.92 c0.18 0.23 0.35 0.44 0.55 0.65 A17.94 17.94 0 0 1 3.9 11.37 A2.76 2.76 0 0 1 2.48 10.65 Z" opacity="0.6" style="fill:white;" /><path d="M3.46 6.11 a12 12 0 0 1 -0.69 -2.94 a8.15 8.15 0 0 0 -1.1 1.45 A12.69 12.69 0 0 0 2.24 7 A2.69 2.69 0 0 1 3.46 6.11 Z" opacity="0.55" style="fill:#E5F3FF;" /><circle cx="4.38" cy="8.68" r="2.73" style="fill:url(#bdd213dd-d313-473c-8ff4-0133fd3a9033);" /><path d="M8.36 13.67 A1.77 1.77 0 0 1 8.9 12.4 a11.88 11.88 0 0 1 -2.53 -1.86 a2.74 2.74 0 0 1 -1.49 0.83 a13.1 13.1 0 0 0 1.45 1.28 A12.12 12.12 0 0 0 8.38 13.9 A1.79 1.79 0 0 1 8.36 13.67 Z" opacity="0.55" style="fill:#E5F3FF;" /><path d="M14.66 13.88 a12 12 0 0 1 -2.76 -0.32 a0.41 0.41 0 0 1 0 0.11 a1.75 1.75 0 0 1 -0.51 1.24 a13.69 13.69 0 0 0 3.42 0.24 A8.21 8.21 0 0 0 16 13.81 A11.5 11.5 0 0 1 14.66 13.88 Z" opacity="0.55" style="fill:#E5F3FF;" /><circle cx="10.13" cy="13.67" r="1.78" style="fill:url(#afcc63c5-3649-4476-a742-bcb53a569f3c);" /><path d="M12.32 8.93 a1.83 1.83 0 0 1 0.61 -1 A25.5 25.5 0 0 1 8.47 3.79 a16.91 16.91 0 0 1 -2 -2.92 a7.64 7.64 0 0 0 -1.09 0.42 A18.14 18.14 0 0 0 7.53 4.47 A26.44 26.44 0 0 0 12.32 8.93 Z" opacity="0.7" style="fill:#E5F3FF;" /><circle cx="14.18" cy="9.27" r="1.89" style="fill:url(#bd873f0b-9954-4aa5-a3df-9f4c64e8729d);" /><path d="M17.35 10.54 L17 10.37 l0 0 l-0.3 -0.16 l-0.06 0 L16.38 10 l-0.07 0 L16 9.8 a1.76 1.76 0 0 1 -0.64 0.92 c0.12 0.08 0.25 0.15 0.38 0.22 l0.08 0.05 l0.35 0.19 l0 0 l0.86 0.45 h0 a8.63 8.63 0 0 0 0.29 -1.11 Z" opacity="0.55" style="fill:#E5F3FF;" /><circle cx="4.38" cy="8.68" r="2.73" style="fill:url(#bdd213dd-d313-473c-8ff4-0133fd3a9033);" /><circle cx="10.13" cy="13.67" r="1.78" style="fill:url(#afcc63c5-3649-4476-a742-bcb53a569f3c);" /></svg>