<?xml version="1.0" encoding="utf-8"?><svg version="1.1" xmlns="http://www.w3.org/2000/svg" xmlns:xlink="http://www.w3.org/1999/xlink" xmlns:xml="http://www.w3.org/XML/1998/namespace" width="70" height="70" viewBox="0, 0, 18, 18" id="FxSymbol0-054" class="" role="presentation" focusable="false" data-type="1"><g><title>Application group</title><circle cx="9" cy="9" r="8.5" style="fill:url(#86d812fa-1267-4cea-b2d9-9d1d8ac5d060);" /><path d="M7.776 10.632 h2.448 v2.448 H7.776 Z M4.92 7.368 h2.448 V4.92 H5.262 a0.341 0.341 0 0 0 -0.342 0.342 Z m0.342 5.712 h2.106 v-2.448 H4.92 v2.106 a0.341 0.341 0 0 0 0.342 0.342 Z m-0.342 -2.856 h2.448 V7.776 H4.92 Z m5.712 2.856 h2.106 a0.341 0.341 0 0 0 0.342 -0.342 v-2.106 h-2.448 Z m-2.856 -2.856 h2.448 V7.776 H7.776 Z m2.856 0 h2.448 V7.776 h-2.448 Z m0 -5.3 v2.444 h2.448 V5.262 a0.341 0.341 0 0 0 -0.342 -0.342 Z M7.776 7.368 h2.448 V4.92 H7.776 Z" class="msportalfx-svg-c01" style="fill:white;" /></g><defs><linearGradient x1="9" y1="17.5" x2="9" y2="0.5" gradientUnits="userSpaceOnUse" id="86d812fa-1267-4cea-b2d9-9d1d8ac5d060"><stop offset="0%" stop-color="#005BA1" /><stop offset="16.8%" stop-color="#0063AE" /><stop offset="57.7%" stop-color="#0072CA" /><stop offset="81.5%" stop-color="#0078D4" /></linearGradient></defs></svg>