<?xml version="1.0" encoding="UTF-8"?>
<svg xmlns="http://www.w3.org/2000/svg" xmlns:xlink="http://www.w3.org/1999/xlink" width="70pt" height="70pt" viewBox="0 0 70 70" version="1.1">
<defs>
<linearGradient id="linear0" gradientUnits="userSpaceOnUse" x1="9" y1="778.831" x2="9" y2="790.831" gradientTransform="matrix(3.888889,0,0,-3.888889,0,3078.117778)">
<stop offset="0" style="stop-color:rgb(0,108,188);stop-opacity:1;"/>
<stop offset="0.8" style="stop-color:rgb(41,164,255);stop-opacity:1;"/>
</linearGradient>
<linearGradient id="linear1" gradientUnits="userSpaceOnUse" x1="9" y1="774.201" x2="9" y2="778.831" gradientTransform="matrix(3.888889,0,0,-3.888889,0,3078.117778)">
<stop offset="0" style="stop-color:rgb(153,211,255);stop-opacity:1;"/>
<stop offset="1" style="stop-color:rgb(0,127,222);stop-opacity:1;"/>
</linearGradient>
<filter id="alpha" filterUnits="objectBoundingBox" x="0%" y="0%" width="100%" height="100%">
  <feColorMatrix type="matrix" in="SourceGraphic" values="0 0 0 0 1 0 0 0 0 1 0 0 0 0 1 0 0 0 1 0"/>
</filter>
<mask id="mask0">
  <g filter="url(#alpha)">
<rect x="0" y="0" width="70" height="70" style="fill:rgb(0,0,0);fill-opacity:0.8;stroke:none;"/>
  </g>
</mask>
<clipPath id="clip1">
  <rect x="0" y="0" width="70" height="70"/>
</clipPath>
<g id="surface5" clip-path="url(#clip1)">
<path style=" stroke:none;fill-rule:nonzero;fill:rgb(255,255,255);fill-opacity:1;" d="M 39.3125 8.472656 C 38.734375 8.328125 38.148438 8.679688 38.003906 9.257813 C 37.859375 9.835938 38.210938 10.421875 38.789063 10.566406 C 45.496094 12.226563 50.375 18.011719 50.878906 24.90625 C 51.382813 31.796875 47.398438 38.230469 41.003906 40.851563 C 34.609375 43.46875 27.253906 41.679688 22.78125 36.410156 C 18.304688 31.144531 17.726563 23.597656 21.34375 17.710938 L 21.773438 18.007813 L 24.804688 20.121094 C 24.859375 20.125 24.914063 20.101563 24.953125 20.058594 C 24.992188 20.015625 25.007813 19.960938 24.996094 19.902344 L 24.285156 11.644531 C 24.269531 11.542969 24.171875 11.476563 24.070313 11.492188 L 16.332031 14 C 16.277344 14.011719 16.230469 14.046875 16.203125 14.097656 C 16.179688 14.148438 16.175781 14.207031 16.199219 14.261719 L 19.394531 16.363281 L 19.574219 16.484375 C 15.453125 23.132813 16.078125 31.675781 21.121094 37.65625 C 26.164063 43.632813 34.480469 45.691406 41.726563 42.75 C 48.972656 39.8125 53.507813 32.542969 52.960938 24.742188 C 52.414063 16.9375 46.910156 10.375 39.324219 8.472656 Z M 39.3125 8.472656 "/>
</g>
</defs>
<g id="surface1">
<path style=" stroke:none;fill-rule:nonzero;fill:url(#linear0);" d="M 2.332031 2.664063 L 67.667969 2.664063 C 68.957031 2.664063 70 3.707031 70 4.996094 L 70 46.996094 C 70 48.285156 68.957031 49.332031 67.667969 49.332031 L 2.332031 49.332031 C 1.042969 49.332031 0 48.285156 0 46.996094 L 0 4.996094 C 0 3.707031 1.042969 2.664063 2.332031 2.664063 Z M 2.332031 2.664063 "/>
<path style=" stroke:none;fill-rule:nonzero;fill:url(#linear1);" d="M 49.039063 63.445313 C 42.117188 62.359375 41.84375 57.378906 41.84375 49.332031 L 28.117188 49.332031 C 28.117188 57.378906 27.882813 62.359375 20.960938 63.445313 C 18.980469 63.667969 17.488281 65.34375 17.5 67.335938 L 52.5 67.335938 C 52.511719 65.34375 51.019531 63.667969 49.039063 63.445313 Z M 49.039063 63.445313 "/>
<use xlink:href="#surface5" mask="url(#mask0)"/>
<path style=" stroke:none;fill-rule:nonzero;fill:rgb(255,255,255);fill-opacity:1;" d="M 43.488281 22.554688 L 42.191406 20.304688 L 42.894531 16.195313 L 39.59375 14.292969 L 36.386719 16.957031 L 33.789063 16.957031 L 30.585938 14.292969 L 27.285156 16.195313 L 28 20.320313 L 26.6875 22.554688 L 22.78125 24 L 22.78125 27.8125 L 26.6875 29.257813 L 27.988281 31.503906 L 27.285156 35.628906 L 30.585938 37.535156 L 33.789063 34.871094 L 36.386719 34.871094 L 39.59375 37.535156 L 42.894531 35.628906 L 42.191406 31.519531 L 43.488281 29.273438 L 47.398438 27.828125 L 47.398438 24.015625 Z M 35.089844 31.679688 C 31.90625 31.6875 29.320313 29.113281 29.3125 25.929688 C 29.308594 22.746094 31.886719 20.164063 35.070313 20.160156 C 38.25 20.15625 40.832031 22.738281 40.832031 25.917969 C 40.832031 29.09375 38.265625 31.671875 35.089844 31.679688 Z M 35.089844 31.679688 "/>
</g>
</svg>
