<?xml version="1.0" encoding="utf-8"?><svg version="1.1" xmlns="http://www.w3.org/2000/svg" xmlns:xlink="http://www.w3.org/1999/xlink" xmlns:xml="http://www.w3.org/XML/1998/namespace" width="70" height="70" viewBox="0, 0, 18, 18" id="b9f988c7-d095-4215-8b16-8d8cc86b6c65"><defs><linearGradient x1="-0.258" y1="-0.226" x2="8.727" y2="8.72" gradientUnits="userSpaceOnUse" id="b47f94fd-7fe4-4917-bd6e-7d39fdacb02d"><stop offset="5.9%" stop-color="#0086EC" /><stop offset="100%" stop-color="#004DAE" /></linearGradient><linearGradient x1="9.064" y1="8.78" x2="17.493" y2="0.669" gradientUnits="userSpaceOnUse" id="bef9bc5a-934e-44d8-b62b-16ab92305435"><stop offset="0%" stop-color="#004DAE" /><stop offset="94.1%" stop-color="#0086EC" /></linearGradient><linearGradient x1="8.863" y1="8.499" x2="17.77" y2="18.081" gradientUnits="userSpaceOnUse" id="a0c9727a-e709-4755-89bc-774bac323d99"><stop offset="5.9%" stop-color="#0086EC" /><stop offset="100%" stop-color="#004DAE" /></linearGradient><linearGradient x1="8.643" y1="9.163" x2="0.493" y2="17.672" gradientUnits="userSpaceOnUse" id="e54b8060-10bb-4b24-8de8-05d1103aa483"><stop offset="5.9%" stop-color="#0086EC" /><stop offset="100%" stop-color="#004DAE" /></linearGradient></defs><g><path d="M7.335 7.347 H1.93 a0.286 0.286 0 0 1 -0.286 -0.286 V1.942 a0.286 0.286 0 0 1 0.286 -0.286 H7.049 a0.286 0.286 0 0 1 0.286 0.286 V7.347 M8.48 8.491 V0.8 A0.287 0.287 0 0 0 8.194 0.511 H0.786 A0.287 0.287 0 0 0 0.5 0.8 V8.205 a0.286 0.286 0 0 0 0.286 0.286 Z" style="fill:url(#b47f94fd-7fe4-4917-bd6e-7d39fdacb02d);" /><path d="M10.665 7.347 v-5.4 a0.286 0.286 0 0 1 0.286 -0.286 H16.07 a0.286 0.286 0 0 1 0.286 0.286 V7.061 a0.286 0.286 0 0 1 -0.286 0.286 H10.665 M9.52 8.491 h7.694 a0.286 0.286 0 0 0 0.286 -0.286 V0.8 a0.287 0.287 0 0 0 -0.286 -0.287 H9.806 A0.287 0.287 0 0 0 9.52 0.8 V8.491 Z" style="fill:url(#bef9bc5a-934e-44d8-b62b-16ab92305435);" /><path d="M10.665 10.653 H16.07 a0.286 0.286 0 0 1 0.286 0.286 v5.119 a0.286 0.286 0 0 1 -0.286 0.286 H10.951 a0.286 0.286 0 0 1 -0.286 -0.286 v-5.4 M9.52 9.509 V17.2 a0.287 0.287 0 0 0 0.286 0.287 h7.408 A0.287 0.287 0 0 0 17.5 17.2 V9.8 a0.286 0.286 0 0 0 -0.286 -0.286 Z" style="fill:url(#a0c9727a-e709-4755-89bc-774bac323d99);" /><path d="M7.335 10.653 v5.4 a0.286 0.286 0 0 1 -0.286 0.286 H1.93 a0.286 0.286 0 0 1 -0.286 -0.286 V10.939 a0.286 0.286 0 0 1 0.286 -0.286 H7.335 M8.48 9.509 H0.786 A0.286 0.286 0 0 0 0.5 9.8 V17.2 a0.287 0.287 0 0 0 0.286 0.287 H8.194 A0.287 0.287 0 0 0 8.48 17.2 V9.509 Z" style="fill:url(#e54b8060-10bb-4b24-8de8-05d1103aa483);" /><g><path d="M14.9 8.22 a15.94 15.94 0 0 0 -1.033 -4.881 a4.868 4.868 0 0 1 -0.563 0.985 A5.8 5.8 0 0 0 9.268 2.681 A5.633 5.633 0 1 0 14.9 8.314 Z" style="fill:#5FB832;" /><path d="M13.821 10.849 c-1.408 1.83 -4.365 1.22 -6.242 1.314 a5.315 5.315 0 0 0 -0.658 0.047 l0.282 -0.094 a21.8 21.8 0 0 0 2.769 -0.986 a6.39 6.39 0 0 0 3.333 -4.271 a6.617 6.617 0 0 1 -3.943 3.755 a22.549 22.549 0 0 1 -3.1 0.8 l-0.094 -0.047 C4.809 10.708 4.762 7.751 7.2 6.812 c1.08 -0.422 2.112 -0.188 3.286 -0.469 A5.256 5.256 0 0 0 13.775 3.9 C14.479 5.92 15.23 8.971 13.821 10.849 Z m-7.932 1.83 a0.469 0.469 0 1 0 -0.47 -0.469 A0.469 0.469 0 0 0 5.889 12.679 Z" style="fill:white;" /></g></g></svg>