<?xml version="1.0" encoding="UTF-8"?>
<svg xmlns="http://www.w3.org/2000/svg" xmlns:xlink="http://www.w3.org/1999/xlink" width="70pt" height="70pt" viewBox="0 0 70 70" version="1.1">
<defs>
<linearGradient id="linear0" gradientUnits="userSpaceOnUse" x1="8.88" y1="12.21" x2="8.88" y2="0.21" gradientTransform="matrix(3.888889,0,0,3.888889,0,0)">
<stop offset="0" style="stop-color:rgb(0%,47.058824%,83.137255%);stop-opacity:1;"/>
<stop offset="0.82" style="stop-color:rgb(36.862745%,62.745098%,93.72549%);stop-opacity:1;"/>
</linearGradient>
<linearGradient id="linear1" gradientUnits="userSpaceOnUse" x1="8.88" y1="16.84" x2="8.88" y2="12.21" gradientTransform="matrix(3.888889,0,0,3.888889,0,0)">
<stop offset="0.15" style="stop-color:rgb(80%,80%,80%);stop-opacity:1;"/>
<stop offset="1" style="stop-color:rgb(43.921569%,43.921569%,43.921569%);stop-opacity:1;"/>
</linearGradient>
</defs>
<g id="surface1">
<path style=" stroke:none;fill-rule:nonzero;fill:url(#linear0);" d="M 1.867188 0.816406 L 67.199219 0.816406 C 68.488281 0.816406 69.535156 1.863281 69.535156 3.148438 L 69.535156 45.148438 C 69.535156 46.4375 68.488281 47.484375 67.199219 47.484375 L 1.867188 47.484375 C 0.578125 47.484375 -0.464844 46.4375 -0.464844 45.148438 L -0.464844 3.148438 C -0.464844 1.863281 0.578125 0.816406 1.867188 0.816406 Z M 1.867188 0.816406 "/>
<path style=" stroke:none;fill-rule:nonzero;fill:rgb(31.372549%,90.196078%,100%);fill-opacity:1;" d="M 46.199219 17.34375 L 46.199219 30.917969 L 34.535156 37.761719 L 34.535156 24.148438 Z M 46.199219 17.34375 "/>
<path style=" stroke:none;fill-rule:nonzero;fill:rgb(76.470588%,94.509804%,100%);fill-opacity:1;" d="M 46.199219 17.34375 L 34.535156 24.1875 L 22.867188 17.34375 L 34.535156 10.539063 Z M 46.199219 17.34375 "/>
<path style=" stroke:none;fill-rule:nonzero;fill:rgb(61.176471%,92.156863%,100%);fill-opacity:1;" d="M 34.535156 24.1875 L 34.535156 37.761719 L 22.867188 30.917969 L 22.867188 17.34375 Z M 34.535156 24.1875 "/>
<path style=" stroke:none;fill-rule:nonzero;fill:rgb(76.470588%,94.509804%,100%);fill-opacity:1;" d="M 22.867188 30.917969 L 34.535156 24.148438 L 34.535156 37.761719 Z M 22.867188 30.917969 "/>
<path style=" stroke:none;fill-rule:nonzero;fill:rgb(61.176471%,92.156863%,100%);fill-opacity:1;" d="M 46.199219 30.917969 L 34.535156 24.148438 L 34.535156 37.761719 Z M 46.199219 30.917969 "/>
<path style=" stroke:none;fill-rule:nonzero;fill:url(#linear1);" d="M 48.570313 61.601563 C 41.648438 60.511719 41.378906 55.535156 41.378906 47.484375 L 27.648438 47.484375 C 27.648438 55.535156 27.417969 60.511719 20.496094 61.601563 C 18.515625 61.820313 17.019531 63.496094 17.035156 65.488281 L 52.035156 65.488281 C 52.046875 63.496094 50.550781 61.820313 48.570313 61.601563 Z M 48.570313 61.601563 "/>
</g>
</svg>
