<?xml version="1.0" encoding="UTF-8"?>
<svg xmlns="http://www.w3.org/2000/svg" xmlns:xlink="http://www.w3.org/1999/xlink" width="70pt" height="64pt" viewBox="0 0 70 64" version="1.1">
<defs>
<filter id="alpha" filterUnits="objectBoundingBox" x="0%" y="0%" width="100%" height="100%">
  <feColorMatrix type="matrix" in="SourceGraphic" values="0 0 0 0 1 0 0 0 0 1 0 0 0 0 1 0 0 0 1 0"/>
</filter>
<mask id="mask0">
  <g filter="url(#alpha)">
<rect x="0" y="0" width="70" height="64" style="fill:rgb(0%,0%,0%);fill-opacity:0.2;stroke:none;"/>
  </g>
</mask>
<clipPath id="clip1">
  <rect x="0" y="0" width="70" height="64"/>
</clipPath>
<g id="surface5" clip-path="url(#clip1)">
<path style=" stroke:none;fill-rule:nonzero;fill:rgb(100%,100%,100%);fill-opacity:1;" d="M 65.816406 0.00390625 C 65.800781 0.00390625 65.785156 0 65.773438 0 L 3.804688 0 C 1.699219 0 0 1.871094 0 3.960938 L 0 46.90625 C 0 48.984375 1.699219 50.835938 3.804688 50.835938 L 5.277344 50.835938 Z M 65.816406 0.00390625 "/>
</g>
<mask id="mask1">
  <g filter="url(#alpha)">
<rect x="0" y="0" width="70" height="64" style="fill:rgb(0%,0%,0%);fill-opacity:0.701961;stroke:none;"/>
  </g>
</mask>
<clipPath id="clip2">
  <rect x="0" y="0" width="70" height="64"/>
</clipPath>
<g id="surface8" clip-path="url(#clip2)">
<path style=" stroke:none;fill-rule:nonzero;fill:rgb(100%,100%,100%);fill-opacity:1;" d="M 33.992188 41.386719 C 33.921875 41.386719 33.859375 41.367188 33.804688 41.335938 L 21.515625 34.289063 C 21.398438 34.222656 21.328125 34.101563 21.328125 33.964844 L 21.328125 19.820313 C 21.328125 19.6875 21.398438 19.566406 21.515625 19.5 C 21.628906 19.433594 21.769531 19.433594 21.890625 19.5 L 34.179688 26.546875 C 34.289063 26.617188 34.363281 26.738281 34.363281 26.871094 L 34.363281 41.015625 C 34.363281 41.148438 34.289063 41.269531 34.179688 41.335938 C 34.117188 41.367188 34.054688 41.386719 33.992188 41.386719 "/>
</g>
<mask id="mask2">
  <g filter="url(#alpha)">
<rect x="0" y="0" width="70" height="64" style="fill:rgb(0%,0%,0%);fill-opacity:0.4;stroke:none;"/>
  </g>
</mask>
<clipPath id="clip3">
  <rect x="0" y="0" width="70" height="64"/>
</clipPath>
<g id="surface11" clip-path="url(#clip3)">
<path style=" stroke:none;fill-rule:nonzero;fill:rgb(100%,100%,100%);fill-opacity:1;" d="M 37.472656 41.386719 C 37.40625 41.386719 37.34375 41.367188 37.277344 41.335938 C 37.171875 41.269531 37.097656 41.148438 37.097656 41.015625 L 37.097656 26.960938 C 37.097656 26.828125 37.171875 26.707031 37.277344 26.636719 L 49.566406 19.59375 C 49.683594 19.527344 49.820313 19.527344 49.9375 19.59375 C 50.054688 19.65625 50.125 19.78125 50.125 19.914063 L 50.125 33.964844 C 50.125 34.101563 50.054688 34.222656 49.9375 34.289063 L 37.652344 41.335938 C 37.601563 41.367188 37.535156 41.386719 37.472656 41.386719 "/>
</g>
</defs>
<g id="surface1">
<path style=" stroke:none;fill-rule:nonzero;fill:rgb(47.843137%,47.843137%,47.843137%);fill-opacity:1;" d="M 45.394531 50.828125 L 26.363281 50.828125 C 28.648438 58.855469 25.578125 60.003906 12.117188 60.003906 L 12.117188 64.207031 L 57.886719 64.207031 L 57.886719 60.003906 C 44.425781 60.003906 43.105469 58.859375 45.394531 50.828125 "/>
<path style=" stroke:none;fill-rule:nonzero;fill:rgb(62.745098%,63.137255%,63.529412%);fill-opacity:1;" d="M 65.773438 0 L 3.804688 0 C 1.699219 0 0 1.871094 0 3.960938 L 0 46.90625 C 0 48.980469 1.699219 50.832031 3.804688 50.832031 L 65.773438 50.832031 C 67.875 50.832031 70 48.980469 70 46.90625 L 70 3.960938 C 70 1.867188 67.875 0 65.773438 0 "/>
<use xlink:href="#surface5" mask="url(#mask0)"/>
<path style=" stroke:none;fill-rule:nonzero;fill:rgb(34.901961%,70.588235%,85.098039%);fill-opacity:1;" d="M 5.304688 45.480469 L 5.304688 5.355469 L 64.539063 5.355469 L 64.539063 45.480469 Z M 5.304688 45.480469 "/>
<path style=" stroke:none;fill-rule:nonzero;fill:rgb(34.901961%,70.588235%,85.098039%);fill-opacity:1;" d="M 5.386719 5.355469 L 59.539063 5.273438 L 59.542969 5.273438 L 5.304688 5.355469 L 5.304688 45.480469 L 5.386719 45.480469 Z M 5.386719 5.355469 "/>
<path style=" stroke:none;fill-rule:nonzero;fill:rgb(62.745098%,63.137255%,63.529412%);fill-opacity:1;" d="M 12.117188 60.003906 L 57.886719 60.003906 L 57.886719 64.207031 L 12.117188 64.207031 Z M 12.117188 60.003906 "/>
<path style=" stroke:none;fill-rule:nonzero;fill:rgb(72.156863%,83.137255%,19.607843%);fill-opacity:1;" d="M 35.726563 2.914063 C 35.726563 3.460938 35.28125 3.902344 34.730469 3.902344 C 34.179688 3.902344 33.738281 3.460938 33.738281 2.914063 C 33.738281 2.367188 34.179688 1.925781 34.730469 1.925781 C 35.28125 1.925781 35.726563 2.367188 35.726563 2.914063 "/>
<path style=" stroke:none;fill-rule:nonzero;fill:rgb(100%,100%,100%);fill-opacity:1;" d="M 35.765625 24.199219 C 35.703125 24.199219 35.636719 24.179688 35.578125 24.148438 L 23.25 17.078125 C 23.136719 17.011719 23.066406 16.886719 23.066406 16.753906 C 23.066406 16.625 23.136719 16.5 23.25 16.433594 L 35.503906 9.410156 C 35.617188 9.347656 35.757813 9.347656 35.871094 9.410156 L 48.199219 16.484375 C 48.316406 16.550781 48.382813 16.671875 48.382813 16.804688 C 48.382813 16.9375 48.316406 17.058594 48.199219 17.125 L 35.953125 24.148438 C 35.894531 24.179688 35.832031 24.199219 35.765625 24.199219 "/>
<use xlink:href="#surface8" mask="url(#mask1)"/>
<use xlink:href="#surface11" mask="url(#mask2)"/>
</g>
</svg>
