<?xml version="1.0" encoding="utf-8"?><svg version="1.1" xmlns="http://www.w3.org/2000/svg" xmlns:xlink="http://www.w3.org/1999/xlink" xmlns:xml="http://www.w3.org/XML/1998/namespace" width="70" height="70" viewBox="0, 0, 18, 18" id="af6a2c42-bd48-4857-a479-aecf8b3de4f6"><defs><linearGradient x1="2.94" y1="3.74" x2="8.67" y2="3.74" gradientUnits="userSpaceOnUse" id="b70c9cf1-bab8-47e0-bbdb-ce1cd664d268"><stop offset="0%" stop-color="#33A8FF" /><stop offset="100%" stop-color="#006CBC" /></linearGradient><linearGradient x1="9.13" y1="3.79" x2="14.85" y2="3.79" gradientUnits="userSpaceOnUse" id="beb69953-bd96-4515-8843-ac12546af936"><stop offset="0%" stop-color="#33A8FF" /><stop offset="100%" stop-color="#006CBC" /></linearGradient><linearGradient x1="0.01" y1="9.12" x2="5.73" y2="9.12" gradientUnits="userSpaceOnUse" id="a39c76e8-547e-4eb4-bc25-d81c0f8cda62"><stop offset="0%" stop-color="#33A8FF" /><stop offset="100%" stop-color="#006CBC" /></linearGradient><linearGradient x1="6.18" y1="9.08" x2="11.9" y2="9.08" gradientUnits="userSpaceOnUse" id="f0a2a491-17dc-4bb8-bbfc-ee58a5cf47da"><stop offset="0%" stop-color="#33A8FF" /><stop offset="100%" stop-color="#006CBC" /></linearGradient><linearGradient x1="12.35" y1="9.13" x2="18.08" y2="9.13" gradientUnits="userSpaceOnUse" id="efc6a56d-8585-417d-931a-1dac2114ccd0"><stop offset="0%" stop-color="#33A8FF" /><stop offset="100%" stop-color="#006CBC" /></linearGradient><linearGradient x1="2.87" y1="14.56" x2="8.6" y2="14.56" gradientUnits="userSpaceOnUse" id="e399aa93-341f-4df2-9c02-603b82b484c2"><stop offset="0%" stop-color="#33A8FF" /><stop offset="100%" stop-color="#006CBC" /></linearGradient><linearGradient x1="9.05" y1="14.6" x2="14.78" y2="14.6" gradientUnits="userSpaceOnUse" id="a152bba0-ba2b-483a-b8c1-0ae7de355990"><stop offset="0%" stop-color="#33A8FF" /><stop offset="100%" stop-color="#006CBC" /></linearGradient></defs><title>Icon-compute-23</title><polygon points="5.8,1.22 2.94,1.75 2.94,5.65 5.8,6.26 8.67,5.11 8.67,2.2 5.8,1.22" style="fill:url(#b70c9cf1-bab8-47e0-bbdb-ce1cd664d268);" /><path d="M5.91 6.2 L8.53 5.14 A0.2 0.2 0 0 0 8.65 5 V2.36 a0.21 0.21 0 0 0 -0.13 -0.18 l-2.65 -0.9 H5.75 l-2.6 0.48 A0.2 0.2 0 0 0 3 1.94 V5.47 a0.19 0.19 0 0 0 0.15 0.19 l2.63 0.55 A0.32 0.32 0 0 0 5.91 6.2 Z" style="fill:none;" /><path d="M2.94 1.75 v3.9 l2.89 0.61 v-5 Z m1.22 3.6 l-0.81 -0.16 v-3 l0.81 -0.13 Z m1.26 0.23 l-0.93 -0.15 V2 l0.93 -0.16 Z" style="fill:#003156;" /><polygon points="11.99,1.27 9.13,1.8 9.13,5.7 11.99,6.31 14.85,5.15 14.85,2.25 11.99,1.27" style="fill:url(#beb69953-bd96-4515-8843-ac12546af936);" /><path d="M9.13 1.8 V5.7 L12 6.31 v-5 Z m1.21 3.6 l-0.81 -0.16 v-3 l0.81 -0.13 Z m1.26 0.23 l-0.93 -0.15 V2.05 l0.93 -0.17 Z" style="fill:#003156;" /><polygon points="2.87,6.6 0.01,7.13 0.01,11.03 2.87,11.64 5.74,10.49 5.74,7.58 2.87,6.6" style="fill:url(#a39c76e8-547e-4eb4-bc25-d81c0f8cda62);" /><path d="M0 7.13 V11 l2.89 0.61 v-5 Z m1.21 3.61 l-0.81 -0.17 v-3 l0.81 -0.14 Z M2.48 11 l-0.93 -0.15 V7.38 l0.93 -0.16 Z" style="fill:#003156;" /><polygon points="9.04,6.56 6.18,7.09 6.18,10.99 9.04,11.61 11.9,10.45 11.9,7.54 9.04,6.56" style="fill:url(#f0a2a491-17dc-4bb8-bbfc-ee58a5cf47da);" /><path d="M6.18 7.09 V11 l2.88 0.61 v-5 Z M7.39 10.7 l-0.81 -0.17 v-3 l0.81 -0.14 Z m1.26 0.22 l-0.93 -0.15 V7.34 l0.93 -0.16 Z" style="fill:#003156;" /><polygon points="15.21,6.61 12.35,7.14 12.35,11.04 15.21,11.65 18.08,10.5 18.08,7.59 15.21,6.61" style="fill:url(#efc6a56d-8585-417d-931a-1dac2114ccd0);" /><path d="M12.35 7.14 V11 l2.89 0.61 v-5 Z m1.22 3.61 l-0.81 -0.17 v-3 l0.81 -0.14 Z m1.26 0.22 l-0.93 -0.15 V7.39 l0.93 -0.16 Z" style="fill:#003156;" /><polygon points="5.73,12.04 2.87,12.56 2.87,16.46 5.73,17.08 8.6,15.92 8.6,13.02 5.73,12.04" style="fill:url(#e399aa93-341f-4df2-9c02-603b82b484c2);" /><path d="M5.84 17 L8.45 16 a0.18 0.18 0 0 0 0.12 -0.18 v-2.6 A0.2 0.2 0 0 0 8.44 13 L5.8 12.1 a0.17 0.17 0 0 0 -0.12 0 l-2.6 0.47 a0.19 0.19 0 0 0 -0.16 0.19 v3.54 a0.19 0.19 0 0 0 0.15 0.19 L5.7 17 A0.23 0.23 0 0 0 5.84 17 Z" style="fill:none;" /><path d="M2.87 12.56 v3.9 l2.89 0.62 V12 Z m1.22 3.61 L3.28 16 V13 l0.81 -0.14 Z m1.26 0.23 l-0.93 -0.15 V12.81 l0.93 -0.16 Z" style="fill:#003156;" /><polygon points="11.91,12.08 9.05,12.61 9.05,16.51 11.91,17.12 14.78,15.97 14.78,13.06 11.91,12.08" style="fill:url(#a152bba0-ba2b-483a-b8c1-0ae7de355990);" /><path d="M9.05 12.61 v3.9 l2.89 0.61 v-5 Z m1.22 3.61 l-0.81 -0.17 v-3 l0.81 -0.14 Z m1.26 0.22 l-0.93 -0.15 V12.86 l0.93 -0.16 Z" style="fill:#003156;" /></svg>