<?xml version="1.0" encoding="UTF-8"?>
<svg xmlns="http://www.w3.org/2000/svg" xmlns:xlink="http://www.w3.org/1999/xlink" width="70pt" height="70pt" viewBox="0 0 70 70" version="1.1">
<g id="surface1">
<path style=" stroke:none;fill-rule:nonzero;fill:rgb(0,102,178);fill-opacity:1;" d="M 1.285156 51.800781 L 35.246094 51.800781 L 68.484375 18.199219 L 1.285156 18.199219 L 1.285156 51.800781 "/>
<path style=" stroke:none;fill-rule:nonzero;fill:rgb(255,255,255);fill-opacity:1;" d="M 40.066406 25.1875 L 33.75 25.1875 L 33.75 40.210938 L 28.226563 25.183594 L 22.753906 25.183594 L 18.039063 37.757813 C 17.539063 34.589844 14.261719 33.492188 11.679688 32.675781 C 9.980469 32.128906 8.171875 31.324219 8.191406 30.4375 C 8.203125 29.707031 9.160156 29.027344 11.050781 29.132813 C 12.667969 29.179688 14.253906 29.605469 15.675781 30.378906 L 17.871094 26.554688 C 15.636719 25.472656 13.195313 24.890625 10.710938 24.851563 L 10.699219 24.851563 C 8.367188 24.742188 6.085938 25.574219 4.375 27.160156 C 3.414063 28.148438 2.871094 29.46875 2.863281 30.847656 C 2.753906 32.601563 3.578125 34.277344 5.03125 35.261719 C 6.351563 36.144531 7.800781 36.808594 9.328125 37.226563 C 11.082031 37.773438 12.515625 38.242188 12.496094 39.25 C 12.488281 39.621094 12.339844 39.972656 12.085938 40.234375 C 11.515625 40.710938 10.785156 40.941406 10.046875 40.875 C 8.1875 40.945313 6.355469 40.421875 4.816406 39.375 L 2.867188 43.253906 C 5.046875 44.492188 7.511719 45.148438 10.019531 45.160156 L 10.347656 45.160156 C 12.316406 45.1875 14.234375 44.546875 15.785156 43.335938 C 15.867188 43.269531 15.941406 43.203125 16.015625 43.136719 L 15.382813 44.828125 L 21.121094 44.828125 L 22.085938 41.898438 C 23.175781 42.261719 24.3125 42.441406 25.460938 42.433594 C 26.578125 42.441406 27.6875 42.269531 28.753906 41.925781 L 29.679688 44.828125 L 39.042969 44.828125 L 39.042969 38.757813 L 41.085938 38.757813 C 46.019531 38.757813 48.941406 36.246094 48.941406 32.035156 C 48.941406 27.339844 46.105469 25.1875 40.066406 25.1875 Z M 25.464844 38.046875 C 24.773438 38.050781 24.085938 37.933594 23.4375 37.691406 L 25.445313 31.371094 L 25.484375 31.371094 L 27.453125 37.710938 C 26.8125 37.933594 26.140625 38.046875 25.464844 38.046875 Z M 40.441406 34.414063 L 39.046875 34.414063 L 39.046875 29.324219 L 40.4375 29.324219 C 42.292969 29.324219 43.78125 29.9375 43.78125 31.835938 C 43.78125 33.796875 42.300781 34.414063 40.4375 34.414063 "/>
<path style=" stroke:none;fill-rule:nonzero;fill:rgb(0,102,178);fill-opacity:1;" d="M 44.910156 47.425781 C 46.023438 47.425781 46.925781 48.328125 46.925781 49.441406 C 46.925781 50.550781 46.023438 51.457031 44.910156 51.457031 C 43.800781 51.457031 42.894531 50.550781 42.894531 49.441406 C 42.894531 48.328125 43.800781 47.425781 44.910156 47.425781 M 44.910156 47.074219 C 43.605469 47.074219 42.542969 48.132813 42.542969 49.441406 C 42.542969 50.746094 43.605469 51.808594 44.910156 51.808594 C 46.21875 51.808594 47.277344 50.746094 47.277344 49.441406 C 47.277344 48.132813 46.21875 47.074219 44.910156 47.074219 Z M 44.910156 47.074219 "/>
<path style=" stroke:none;fill-rule:nonzero;fill:rgb(0,102,178);fill-opacity:1;" d="M 45.347656 49.585938 C 45.703125 49.589844 45.992188 49.300781 45.996094 48.945313 L 45.992188 48.902344 C 45.992188 48.417969 45.703125 48.203125 45.117188 48.203125 L 44.175781 48.203125 L 44.175781 50.679688 L 44.546875 50.679688 L 44.550781 49.605469 L 44.984375 49.605469 L 45.636719 50.675781 L 46.054688 50.675781 Z M 44.550781 49.285156 L 44.550781 48.515625 L 45.058594 48.515625 C 45.316406 48.515625 45.59375 48.574219 45.59375 48.882813 C 45.59375 49.265625 45.3125 49.285156 44.996094 49.285156 Z M 44.550781 49.285156 "/>
</g>
</svg>
