<?xml version="1.0" encoding="UTF-8"?>
<svg xmlns="http://www.w3.org/2000/svg" xmlns:xlink="http://www.w3.org/1999/xlink" width="70pt" height="70pt" viewBox="0 0 70 70" version="1.1">
<defs>
<filter id="alpha" filterUnits="objectBoundingBox" x="0%" y="0%" width="100%" height="100%">
  <feColorMatrix type="matrix" in="SourceGraphic" values="0 0 0 0 1 0 0 0 0 1 0 0 0 0 1 0 0 0 1 0"/>
</filter>
<mask id="mask0">
  <g filter="url(#alpha)">
<rect x="0" y="0" width="70" height="70" style="fill:rgb(0%,0%,0%);fill-opacity:0.25098;stroke:none;"/>
  </g>
</mask>
<clipPath id="clip1">
  <rect x="0" y="0" width="70" height="70"/>
</clipPath>
<g id="surface5" clip-path="url(#clip1)">
<path style=" stroke:none;fill-rule:nonzero;fill:rgb(0%,9.411765%,56.078431%);fill-opacity:1;" d="M 43.976563 42.613281 C 43.976563 44.101563 39.957031 45.308594 35 45.308594 C 30.042969 45.308594 26.027344 44.101563 26.027344 42.613281 C 26.027344 41.121094 30.046875 39.917969 35 39.917969 C 39.957031 39.917969 43.976563 41.125 43.976563 42.613281 "/>
</g>
<mask id="mask1">
  <g filter="url(#alpha)">
<rect x="0" y="0" width="70" height="70" style="fill:rgb(0%,0%,0%);fill-opacity:0.25098;stroke:none;"/>
  </g>
</mask>
<clipPath id="clip2">
  <rect x="0" y="0" width="70" height="70"/>
</clipPath>
<g id="surface8" clip-path="url(#clip2)">
<path style=" stroke:none;fill-rule:nonzero;fill:rgb(100%,100%,100%);fill-opacity:1;" d="M 55.238281 36.25 C 51.320313 34.761719 46.164063 33.707031 40.367188 33.300781 L 36.734375 40.023438 C 38.523438 40.128906 40.121094 40.394531 41.355469 40.765625 Z M 55.238281 36.25 "/>
</g>
<mask id="mask2">
  <g filter="url(#alpha)">
<rect x="0" y="0" width="70" height="70" style="fill:rgb(0%,0%,0%);fill-opacity:0.25098;stroke:none;"/>
  </g>
</mask>
<clipPath id="clip3">
  <rect x="0" y="0" width="70" height="70"/>
</clipPath>
<g id="surface11" clip-path="url(#clip3)">
<path style=" stroke:none;fill-rule:nonzero;fill:rgb(100%,100%,100%);fill-opacity:1;" d="M 13.613281 49.789063 C 17.648438 51.519531 23.246094 52.75 29.617188 53.203125 L 33.863281 45.339844 C 32.09375 45.273438 30.488281 45.050781 29.195313 44.722656 Z M 13.613281 49.789063 "/>
</g>
<mask id="mask3">
  <g filter="url(#alpha)">
<rect x="0" y="0" width="70" height="70" style="fill:rgb(0%,0%,0%);fill-opacity:0.25098;stroke:none;"/>
  </g>
</mask>
<clipPath id="clip4">
  <rect x="0" y="0" width="70" height="70"/>
</clipPath>
<g id="surface14" clip-path="url(#clip4)">
<path style=" stroke:none;fill-rule:nonzero;fill:rgb(100%,100%,100%);fill-opacity:1;" d="M 55.238281 14.335938 C 51.320313 12.851563 46.164063 11.796875 40.367188 11.390625 L 36.734375 18.113281 C 38.523438 18.21875 40.121094 18.480469 41.355469 18.855469 Z M 55.238281 14.335938 "/>
</g>
<mask id="mask4">
  <g filter="url(#alpha)">
<rect x="0" y="0" width="70" height="70" style="fill:rgb(0%,0%,0%);fill-opacity:0.25098;stroke:none;"/>
  </g>
</mask>
<clipPath id="clip5">
  <rect x="0" y="0" width="70" height="70"/>
</clipPath>
<g id="surface17" clip-path="url(#clip5)">
<path style=" stroke:none;fill-rule:nonzero;fill:rgb(100%,100%,100%);fill-opacity:1;" d="M 13.613281 27.878906 C 17.648438 29.605469 23.246094 30.839844 29.617188 31.289063 L 33.863281 23.429688 C 32.09375 23.363281 30.488281 23.140625 29.195313 22.808594 Z M 13.613281 27.878906 "/>
</g>
</defs>
<g id="surface1">
<path style=" stroke:none;fill-rule:nonzero;fill:rgb(47.843137%,47.843137%,47.843137%);fill-opacity:1;" d="M 14 5.601563 L 0 5.601563 L 0 19.601563 L 4.199219 19.601563 L 4.199219 9.800781 L 14 9.800781 Z M 14 5.601563 "/>
<path style=" stroke:none;fill-rule:nonzero;fill:rgb(47.843137%,47.843137%,47.843137%);fill-opacity:1;" d="M 0 50.398438 L 0 64.398438 L 14 64.398438 L 14 60.199219 L 4.199219 60.199219 L 4.199219 50.398438 Z M 0 50.398438 "/>
<path style=" stroke:none;fill-rule:nonzero;fill:rgb(47.843137%,47.843137%,47.843137%);fill-opacity:1;" d="M 56 64.398438 L 70 64.398438 L 70 50.398438 L 65.800781 50.398438 L 65.800781 60.199219 L 56 60.199219 Z M 56 64.398438 "/>
<path style=" stroke:none;fill-rule:nonzero;fill:rgb(47.843137%,47.843137%,47.843137%);fill-opacity:1;" d="M 70 19.601563 L 70 5.601563 L 56 5.601563 L 56 9.800781 L 65.800781 9.800781 L 65.800781 19.601563 Z M 70 19.601563 "/>
<path style=" stroke:none;fill-rule:nonzero;fill:rgb(49.803922%,72.941176%,0%);fill-opacity:1;" d="M 63 48.660156 C 63 54.261719 50.464844 58.800781 35.003906 58.800781 C 19.542969 58.800781 7.003906 54.261719 7.003906 48.660156 L 7.003906 43.195313 L 63 43.195313 Z M 63 48.660156 "/>
<path style=" stroke:none;fill-rule:nonzero;fill:rgb(72.156863%,83.137255%,19.607843%);fill-opacity:1;" d="M 63 43.195313 C 63 48.796875 50.464844 53.335938 35.003906 53.335938 C 19.542969 53.335938 7.003906 48.796875 7.003906 43.195313 C 7.003906 37.59375 19.542969 33.054688 35.003906 33.054688 C 50.464844 33.054688 63 37.59375 63 43.195313 "/>
<path style=" stroke:none;fill-rule:nonzero;fill:rgb(49.803922%,72.941176%,0%);fill-opacity:1;" d="M 43.976563 42.613281 C 43.976563 44.101563 39.957031 45.308594 35 45.308594 C 30.042969 45.308594 26.027344 44.101563 26.027344 42.613281 C 26.027344 41.121094 30.046875 39.917969 35 39.917969 C 39.957031 39.917969 43.976563 41.125 43.976563 42.613281 "/>
<use xlink:href="#surface5" mask="url(#mask0)"/>
<use xlink:href="#surface8" mask="url(#mask1)"/>
<use xlink:href="#surface11" mask="url(#mask2)"/>
<path style=" stroke:none;fill-rule:nonzero;fill:rgb(0%,44.705882%,77.647059%);fill-opacity:1;" d="M 63 26.804688 C 63 32.40625 50.464844 36.945313 35.003906 36.945313 C 19.542969 36.945313 7.003906 32.40625 7.003906 26.804688 L 7.003906 21.339844 L 63 21.339844 Z M 63 26.804688 "/>
<path style=" stroke:none;fill-rule:nonzero;fill:rgb(34.901961%,70.588235%,85.098039%);fill-opacity:1;" d="M 63 21.339844 C 63 26.941406 50.464844 31.480469 35.003906 31.480469 C 19.542969 31.480469 7.003906 26.9375 7.003906 21.339844 C 7.003906 15.742188 19.539063 11.199219 35.003906 11.199219 C 50.464844 11.199219 63 15.738281 63 21.339844 "/>
<path style=" stroke:none;fill-rule:nonzero;fill:rgb(0%,44.705882%,77.647059%);fill-opacity:1;" d="M 43.976563 20.757813 C 43.976563 22.246094 39.957031 23.453125 35 23.453125 C 30.042969 23.453125 26.027344 22.246094 26.027344 20.757813 C 26.027344 19.269531 30.046875 18.0625 35 18.0625 C 39.957031 18.0625 43.976563 19.265625 43.976563 20.757813 "/>
<use xlink:href="#surface14" mask="url(#mask3)"/>
<use xlink:href="#surface17" mask="url(#mask4)"/>
</g>
</svg>
