<?xml version="1.0" encoding="utf-8"?><svg version="1.1" xmlns="http://www.w3.org/2000/svg" xmlns:xlink="http://www.w3.org/1999/xlink" xmlns:xml="http://www.w3.org/XML/1998/namespace" width="70" height="70" viewBox="0, 0, 18, 18" id="aabde0b6-2289-4d6f-8be8-5bb670bc80c0"><defs><linearGradient x1="10.31" y1="12.7" x2="10.31" y2="6.83" gradientUnits="userSpaceOnUse" id="b020d1a3-604d-4f79-8087-b021d39314c5"><stop offset="0%" stop-color="#0078D4" /><stop offset="82%" stop-color="#5EA0EF" /></linearGradient><linearGradient x1="10.31" y1="14.97" x2="10.31" y2="12.7" gradientUnits="userSpaceOnUse" id="fd885ea0-9b31-4878-9e85-930d64f33955"><stop offset="15%" stop-color="#CCCCCC" /><stop offset="100%" stop-color="#707070" /></linearGradient></defs><title>Icon-compute-25</title><g><rect x="2.12" y="0.5" width="1.97" height="0.57" style="fill:#0078D4;" /><polygon points="16.63,1.07 16.95,1.07 16.95,1.38 17.5,1.38 17.5,0.5 16.63,0.5 16.63,1.07" style="fill:#0078D4;" /><polygon points="1.41,16.89 1.13,16.89 1.13,16.57 0.5,16.57 0.5,17.5 1.41,17.5 1.41,16.89" style="fill:#0078D4;" /><polygon points="16.95,16.6 16.95,16.89 16.63,16.89 16.63,17.5 17.5,17.5 17.5,16.6 16.95,16.6" style="fill:#0078D4;" /><polygon points="1.13,1.36 1.13,1.07 1.41,1.07 1.41,0.5 0.5,0.5 0.5,1.36 1.13,1.36" style="fill:#0078D4;" /><rect x="3.37" y="3.55" width="8.79" height="5.88" rx="0.29" style="fill:#0078D4;" /><g><polygon points="9.23,5.64 9.23,7.35 7.77,8.21 7.77,6.49 9.23,5.64" style="fill:#50E6FF;" /><polygon points="9.23,5.64 7.77,6.5 6.3,5.64 7.77,4.78 9.23,5.64" style="fill:#C3F1FF;" /><polygon points="7.77,6.5 7.77,8.21 6.3,7.35 6.3,5.64 7.77,6.5" style="fill:#9CEBFF;" /></g><g><rect x="5.91" y="6.83" width="8.79" height="5.88" rx="0.29" style="fill:url(#b020d1a3-604d-4f79-8087-b021d39314c5);" /><g><polygon points="11.77,8.91 11.77,10.62 10.31,11.48 10.31,9.77 11.77,8.91" style="fill:#50E6FF;" /><polygon points="11.77,8.91 10.31,9.77 8.84,8.91 10.31,8.05 11.77,8.91" style="fill:#C3F1FF;" /><polygon points="10.31,9.77 10.31,11.48 8.84,10.62 8.84,8.91 10.31,9.77" style="fill:#9CEBFF;" /><polygon points="8.84,10.62 10.31,9.77 10.31,11.48 8.84,10.62" style="fill:#C3F1FF;" /><polygon points="11.77,10.62 10.31,9.77 10.31,11.48 11.77,10.62" style="fill:#9CEBFF;" /></g><path d="M12.07 14.48 c-0.87 -0.14 -0.9 -0.77 -0.9 -1.78 H9.44 c0 1 0 1.64 -0.9 1.78 a0.51 0.51 0 0 0 -0.43 0.49 h4.4 A0.51 0.51 0 0 0 12.07 14.48 Z" style="fill:url(#fd885ea0-9b31-4878-9e85-930d64f33955);" /></g><rect x="5.07" y="0.5" width="1.97" height="0.57" style="fill:#0078D4;" /><rect x="8.01" y="0.5" width="1.97" height="0.57" style="fill:#0078D4;" /><rect x="10.96" y="0.5" width="1.97" height="0.57" style="fill:#0078D4;" /><rect x="13.91" y="0.5" width="1.97" height="0.57" style="fill:#0078D4;" /><rect x="2.14" y="16.89" width="1.97" height="0.57" style="fill:#0078D4;" /><rect x="5.08" y="16.89" width="1.97" height="0.57" style="fill:#0078D4;" /><rect x="8.03" y="16.89" width="1.97" height="0.57" style="fill:#0078D4;" /><rect x="10.98" y="16.89" width="1.97" height="0.57" style="fill:#0078D4;" /><rect x="13.92" y="16.89" width="1.97" height="0.57" style="fill:#0078D4;" /><rect x="16.93" y="2.05" width="0.57" height="1.97" style="fill:#0078D4;" /><rect x="16.93" y="4.99" width="0.57" height="1.97" style="fill:#0078D4;" /><rect x="16.93" y="7.94" width="0.57" height="1.97" style="fill:#0078D4;" /><rect x="16.93" y="10.88" width="0.57" height="1.97" style="fill:#0078D4;" /><rect x="16.93" y="13.83" width="0.57" height="1.97" style="fill:#0078D4;" /><rect x="0.5" y="2.03" width="0.57" height="1.97" style="fill:#0078D4;" /><rect x="0.5" y="4.98" width="0.57" height="1.97" style="fill:#0078D4;" /><rect x="0.5" y="7.92" width="0.57" height="1.97" style="fill:#0078D4;" /><rect x="0.5" y="10.87" width="0.57" height="1.97" style="fill:#0078D4;" /><rect x="0.5" y="13.81" width="0.57" height="1.97" style="fill:#0078D4;" /></g></svg>