<?xml version="1.0" encoding="utf-8"?><svg version="1.1" xmlns="http://www.w3.org/2000/svg" xmlns:xlink="http://www.w3.org/1999/xlink" xmlns:xml="http://www.w3.org/XML/1998/namespace" width="70" height="70" viewBox="0, 0, 18, 18"><defs><linearGradient x1="5.759" y1="0.5" x2="5.759" y2="16.523" gradientUnits="userSpaceOnUse" id="b50cf5f1-c6e1-4f11-b8cc-ac5883e58b03"><stop offset="0%" stop-color="#B3B2B3" /><stop offset="37.5%" stop-color="#AFAEAF" /><stop offset="76.3%" stop-color="#A2A2A2" /><stop offset="100%" stop-color="#979797" /></linearGradient><linearGradient x1="11.676" y1="17.5" x2="11.676" y2="8.901" gradientUnits="userSpaceOnUse" id="e6a4aefe-099f-4820-80ab-37d0a9752ce4"><stop offset="0%" stop-color="#0078D4" /><stop offset="15.6%" stop-color="#1380DA" /><stop offset="52.8%" stop-color="#3C91E5" /><stop offset="82.2%" stop-color="#559CEC" /><stop offset="100%" stop-color="#5EA0EF" /></linearGradient></defs><title>MsPortalFx.base.images-57</title><g id="abb598c4-c86a-468d-9987-3d53df2d9db9"><g><path d="M10.96 15.98 a0.574 0.574 0 0 1 -0.6 0.543 h-9.2 a0.574 0.574 0 0 1 -0.6 -0.543 V1.043 A0.574 0.574 0 0 1 1.158 0.5 h9.2 a0.574 0.574 0 0 1 0.6 0.543 Z" style="fill:url(#b50cf5f1-c6e1-4f11-b8cc-ac5883e58b03);" /><path d="M2.086 7.35 A1.193 1.193 0 0 1 3.217 6.1 H8.394 A1.193 1.193 0 0 1 9.525 7.35 h0 A1.193 1.193 0 0 1 8.394 8.6 H3.217 A1.193 1.193 0 0 1 2.086 7.35 Z" style="fill:#003067;" /><path d="M2.086 3.649 A1.193 1.193 0 0 1 3.217 2.4 H8.394 A1.193 1.193 0 0 1 9.525 3.649 h0 A1.193 1.193 0 0 1 8.394 4.895 H3.217 A1.193 1.193 0 0 1 2.086 3.649 Z" style="fill:#003067;" /><circle cx="3.542" cy="3.649" r="0.836" style="fill:#50E6FF;" /><circle cx="3.542" cy="7.35" r="0.836" style="fill:#50E6FF;" /><path d="M14.849 10.484 L11.676 8.9 L8.388 10.484 l-1.2 2.35 v4.381 a0.286 0.286 0 0 0 0.286 0.285 h8.405 a0.286 0.286 0 0 0 0.286 -0.285 V12.834 Z" style="fill:url(#e6a4aefe-099f-4820-80ab-37d0a9752ce4);" /><path d="M6.481 14.1 a0.438 0.438 0 0 1 -0.4 -0.62 L7.491 10.4 a0.439 0.439 0 0 1 0.191 -0.2 l3.854 -2.073 a0.438 0.438 0 0 1 0.42 0 L15.677 10.2 a0.434 0.434 0 0 1 0.178 0.187 L17.4 13.465 a0.437 0.437 0 1 1 -0.782 0.392 L15.133 10.9 l-3.394 -1.89 L8.226 10.9 L6.879 13.843 A0.438 0.438 0 0 1 6.481 14.1 Z" style="fill:#50E6FF;" /><rect x="10.742" y="11.41" width="1.787" height="1.871" rx="0.285" style="fill:#005BA1;" /><g><path d="M11.635 15.94 l1.728 -1.157 a0.283 0.283 0 0 0 -0.16 -0.049 H10.067 a0.285 0.285 0 0 0 -0.16 0.049 Z" style="fill:#005BA1;" /><polygon points="13.488,17.18 13.488,15.053 11.899,16.117 13.488,17.18" style="fill:#005BA1;" /><polygon points="11.371,16.117 9.782,15.053 9.782,17.18 11.371,16.117" style="fill:#005BA1;" /><polygon points="13.475,17.5 13.488,17.5 13.488,17.479 13.475,17.5" style="fill:#005BA1;" /><polygon points="9.782,17.479 9.782,17.5 9.796,17.5 9.782,17.479" style="fill:#005BA1;" /><polygon points="9.833,17.5 13.437,17.5 11.635,16.294 9.833,17.5" style="fill:#005BA1;" /></g></g></g></svg>