<?xml version="1.0" encoding="UTF-8"?>
<svg xmlns="http://www.w3.org/2000/svg" xmlns:xlink="http://www.w3.org/1999/xlink" width="70pt" height="70pt" viewBox="0 0 70 70" version="1.1">
<g id="surface1">
<path style=" stroke:none;fill-rule:nonzero;fill:rgb(34.901961%,70.588235%,85.098039%);fill-opacity:1;" d="M 60.675781 26.121094 C 60.949219 24.847656 61.082031 23.632813 61.082031 22.421875 C 61.082031 13.144531 53.523438 5.601563 44.234375 5.601563 C 37.796875 5.585938 31.921875 9.25 29.097656 15.03125 C 26.824219 12.765625 23.746094 11.496094 20.539063 11.5 C 13.871094 11.5 8.445313 16.921875 8.445313 23.589844 C 8.445313 24.496094 8.546875 25.40625 8.75 26.34375 C 3.257813 28.582031 0 33.222656 0 38.867188 C 0 46.480469 6.21875 52.441406 14.15625 52.441406 L 15.0625 52.441406 C 15.214844 59.398438 20.914063 65.007813 27.890625 65.007813 C 32.535156 65.015625 36.820313 62.507813 39.085938 58.453125 C 40.78125 59.925781 42.949219 60.734375 45.191406 60.734375 C 49.980469 60.734375 53.9375 57.105469 54.5 52.441406 L 55.847656 52.441406 C 63.785156 52.441406 70 46.480469 70 38.867188 C 70 32.988281 66.4375 28.152344 60.675781 26.121094 "/>
<path style=" stroke:none;fill-rule:nonzero;fill:rgb(100%,100%,100%);fill-opacity:1;" d="M 55.210938 32.46875 L 56.242188 30.027344 L 55.945313 29.769531 L 53.695313 27.816406 L 53.707031 25.839844 L 56.242188 23.574219 L 55.242188 21.117188 L 54.851563 21.144531 L 51.878906 21.359375 L 50.488281 19.949219 L 50.679688 16.550781 L 48.238281 15.523438 L 47.980469 15.820313 L 46.027344 18.070313 L 44.050781 18.058594 L 41.78125 15.523438 L 39.328125 16.519531 L 39.355469 16.910156 L 39.566406 19.886719 L 38.160156 21.273438 L 34.761719 21.085938 L 33.730469 23.523438 L 34.027344 23.78125 L 36.28125 25.738281 L 36.265625 27.714844 L 33.734375 29.984375 L 34.726563 32.4375 L 35.121094 32.40625 L 38.09375 32.199219 L 39.484375 33.605469 L 39.292969 37.003906 L 41.734375 38.03125 L 41.992188 37.734375 L 43.945313 35.484375 L 45.921875 35.496094 L 48.191406 38.035156 L 50.644531 37.035156 L 50.617188 36.640625 L 50.40625 33.667969 L 51.816406 32.28125 Z M 42.878906 31.769531 C 40.121094 30.605469 38.828125 27.425781 39.992188 24.667969 C 41.15625 21.910156 44.335938 20.617188 47.09375 21.78125 C 49.851563 22.945313 51.144531 26.125 49.980469 28.882813 C 48.816406 31.640625 45.636719 32.933594 42.878906 31.769531 M 39.699219 44.726563 L 39.699219 42.078125 L 39.328125 41.957031 L 36.492188 41.027344 L 35.738281 39.203125 L 37.195313 36.125 L 35.324219 34.253906 L 34.972656 34.429688 L 32.3125 35.777344 L 30.488281 35.019531 L 29.339844 31.816406 L 26.695313 31.8125 L 26.570313 32.191406 L 25.644531 35.023438 L 23.816406 35.777344 L 20.742188 34.324219 L 18.871094 36.195313 L 19.046875 36.546875 L 20.394531 39.207031 L 19.636719 41.027344 L 16.433594 42.175781 L 16.429688 44.824219 L 16.804688 44.945313 L 19.640625 45.871094 L 20.394531 47.699219 L 18.9375 50.773438 L 20.808594 52.648438 L 21.160156 52.46875 L 23.820313 51.121094 L 25.644531 51.878906 L 26.789063 55.082031 L 29.4375 55.085938 L 29.558594 54.710938 L 30.488281 51.878906 L 32.316406 51.121094 L 35.390625 52.578125 L 37.265625 50.707031 L 37.085938 50.355469 L 35.738281 47.699219 L 36.496094 45.871094 Z M 28.0625 48.871094 C 25.066406 48.867188 22.640625 46.4375 22.644531 43.445313 C 22.648438 40.449219 25.078125 38.027344 28.070313 38.027344 C 31.066406 38.03125 33.492188 40.460938 33.488281 43.453125 C 33.484375 46.449219 31.054688 48.875 28.0625 48.871094 "/>
<path style=" stroke:none;fill-rule:nonzero;fill:rgb(72.156863%,83.137255%,19.607843%);fill-opacity:1;" d="M 48.230469 28.144531 C 47.757813 29.328125 46.683594 30.160156 45.421875 30.328125 C 44.15625 30.496094 42.902344 29.964844 42.140625 28.945313 C 41.378906 27.925781 41.230469 26.574219 41.746094 25.410156 C 42.527344 23.660156 44.5625 22.855469 46.328125 23.597656 C 48.09375 24.34375 48.9375 26.363281 48.230469 28.144531 M 31.585938 43.453125 C 31.585938 45.394531 30.007813 46.96875 28.066406 46.96875 C 26.121094 46.964844 24.546875 45.390625 24.550781 43.449219 C 24.550781 41.503906 26.125 39.929688 28.070313 39.929688 C 30.011719 39.933594 31.585938 41.507813 31.585938 43.453125 "/>
</g>
</svg>
