<?xml version="1.0" encoding="UTF-8"?>
<svg xmlns="http://www.w3.org/2000/svg" xmlns:xlink="http://www.w3.org/1999/xlink" width="70pt" height="70pt" viewBox="0 0 70 70" version="1.1">
<defs>
<linearGradient id="linear0" gradientUnits="userSpaceOnUse" x1="8.07" y1="17.35" x2="8.07" y2="2.34" gradientTransform="matrix(3.888889,0,0,3.888889,0,0)">
<stop offset="0" style="stop-color:rgb(19.607843%,74.509804%,86.666667%);stop-opacity:1;"/>
<stop offset="0.3" style="stop-color:rgb(21.176471%,76.470588%,88.235294%);stop-opacity:1;"/>
<stop offset="0.67" style="stop-color:rgb(25.490196%,82.352941%,93.333333%);stop-opacity:1;"/>
<stop offset="1" style="stop-color:rgb(31.372549%,90.196078%,100%);stop-opacity:1;"/>
</linearGradient>
</defs>
<g id="surface1">
<path style=" stroke:none;fill-rule:nonzero;fill:rgb(0%,47.058824%,83.137255%);fill-opacity:1;" d="M 3.1875 2.527344 L 45.964844 2.527344 C 47.039063 2.527344 47.910156 3.398438 47.910156 4.472656 L 47.910156 58.957031 C 47.910156 60.03125 47.039063 60.898438 45.964844 60.898438 L 3.1875 60.898438 C 2.113281 60.898438 1.246094 60.03125 1.246094 58.957031 L 1.246094 4.472656 C 1.246094 3.398438 2.113281 2.527344 3.1875 2.527344 Z M 3.1875 2.527344 "/>
<path style=" stroke:none;fill-rule:nonzero;fill:url(#linear0);" d="M 9.996094 9.101563 L 52.773438 9.101563 C 53.847656 9.101563 54.714844 9.96875 54.714844 11.042969 L 54.714844 65.527344 C 54.714844 66.601563 53.847656 67.472656 52.773438 67.472656 L 9.996094 67.472656 C 8.921875 67.472656 8.050781 66.601563 8.050781 65.527344 L 8.050781 11.042969 C 8.050781 9.96875 8.921875 9.101563 9.996094 9.101563 Z M 9.996094 9.101563 "/>
<path style=" stroke:none;fill-rule:nonzero;fill:rgb(46.666667%,22.745098%,86.27451%);fill-opacity:1;" d="M 68.601563 49.738281 L 57.4375 38.617188 C 57.289063 38.425781 57.03125 38.355469 56.804688 38.445313 C 56.582031 38.535156 56.441406 38.761719 56.464844 39.003906 L 56.464844 45.5 C 43.050781 45.5 29.632813 52.65625 29.632813 65.605469 C 31.539063 62.726563 41.300781 55.066406 56.464844 55.066406 L 56.464844 61.289063 C 56.46875 61.519531 56.605469 61.722656 56.816406 61.816406 C 57.023438 61.90625 57.269531 61.871094 57.4375 61.714844 L 68.601563 50.554688 C 68.789063 50.316406 68.789063 49.980469 68.601563 49.738281 Z M 68.601563 49.738281 "/>
<path style=" stroke:none;fill-rule:nonzero;fill:rgb(31.372549%,90.196078%,100%);fill-opacity:1;" d="M 44.996094 26.523438 L 44.996094 42.351563 L 31.382813 50.320313 L 31.382813 34.457031 Z M 44.996094 26.523438 "/>
<path style=" stroke:none;fill-rule:nonzero;fill:rgb(76.470588%,94.509804%,100%);fill-opacity:1;" d="M 44.996094 26.523438 L 31.382813 34.496094 L 17.773438 26.523438 L 31.382813 18.550781 Z M 44.996094 26.523438 "/>
<path style=" stroke:none;fill-rule:nonzero;fill:rgb(61.176471%,92.156863%,100%);fill-opacity:1;" d="M 31.382813 34.496094 L 31.382813 50.320313 L 17.773438 42.351563 L 17.773438 26.523438 Z M 31.382813 34.496094 "/>
<path style=" stroke:none;fill-rule:nonzero;fill:rgb(76.470588%,94.509804%,100%);fill-opacity:1;" d="M 17.773438 42.351563 L 31.382813 34.457031 L 31.382813 50.320313 Z M 17.773438 42.351563 "/>
<path style=" stroke:none;fill-rule:nonzero;fill:rgb(61.176471%,92.156863%,100%);fill-opacity:1;" d="M 44.996094 42.351563 L 31.382813 34.457031 L 31.382813 50.320313 Z M 44.996094 42.351563 "/>
</g>
</svg>
