<?xml version="1.0" encoding="utf-8"?><svg version="1.1" xmlns="http://www.w3.org/2000/svg" xmlns:xlink="http://www.w3.org/1999/xlink" xmlns:xml="http://www.w3.org/XML/1998/namespace" width="70" height="70" viewBox="0, 0, 18, 18" id="f2f92a84-d51d-47e7-aa52-c9dc7cb4f95e"><defs><linearGradient x1="7.05" y1="8.98" x2="7.05" y2="0.34" gradientUnits="userSpaceOnUse" id="bb7358ff-85d0-4bea-a1da-b619fa2b0e5a"><stop offset="0%" stop-color="#0078D4" /><stop offset="100%" stop-color="#5EA0EF" /></linearGradient><linearGradient x1="7.05" y1="3.78" x2="7.05" y2="2.4" gradientUnits="userSpaceOnUse" id="a518fdc9-13d3-4777-830e-8fa6d61499c0"><stop offset="0%" stop-color="#194F9B" stop-opacity="0" /><stop offset="26%" stop-color="#194F9C" stop-opacity="0.01" /><stop offset="41%" stop-color="#18519E" stop-opacity="0.05" /><stop offset="52%" stop-color="#1654A2" stop-opacity="0.11" /><stop offset="62%" stop-color="#1457A7" stop-opacity="0.21" /><stop offset="71%" stop-color="#115CAE" stop-opacity="0.33" /><stop offset="80%" stop-color="#0D62B6" stop-opacity="0.47" /><stop offset="88%" stop-color="#096AC0" stop-opacity="0.65" /><stop offset="95%" stop-color="#0472CB" stop-opacity="0.85" /><stop offset="100%" stop-color="#0078D4" /></linearGradient></defs><path d="M15.78 8.89 L17.65 7 c0.15 -0.16 0.1 -0.29 -0.13 -0.29 h-0.93 a0.23 0.23 0 0 1 -0.23 -0.24 c0 -1.18 -0.3 -4.47 -4.8 -4.58 a0.23 0.23 0 0 0 -0.24 0.23 V3.26 a0.23 0.23 0 0 0 0.25 0.23 a2.75 2.75 0 0 1 3.33 3 a0.23 0.23 0 0 1 -0.23 0.24 H13.8 c-0.23 0 -0.28 0.13 -0.13 0.3 l1.74 1.9 A0.24 0.24 0 0 0 15.78 8.89 Z" style="fill:#949494;" /><g><rect x="0.82" y="0.34" width="12.46" height="8.64" rx="0.57" style="fill:url(#bb7358ff-85d0-4bea-a1da-b619fa2b0e5a);" /><path d="M1.38 0.34 H12.87 a0.41 0.41 0 0 1 0.41 0.41 V2.4 a0 0 0 0 1 0 0 H0.82 a0 0 0 0 1 0 0 V0.91 A0.57 0.57 0 0 1 1.38 0.34 Z" style="fill:#83B9F9;" /><rect x="0.82" y="2.4" width="12.46" height="1.38" style="fill:url(#a518fdc9-13d3-4777-830e-8fa6d61499c0);" /></g><rect x="9.9" y="10.95" width="7.92" height="5.49" rx="0.36" style="fill:#005BA1;" /><path d="M2.61 3.19 h8.87 a0.19 0.19 0 0 1 0.19 0.18 V4.3 a0.19 0.19 0 0 1 -0.19 0.17 H2.61 a0.18 0.18 0 0 1 -0.19 -0.17 V3.37 A0.18 0.18 0 0 1 2.61 3.19 Z" style="fill:white;" /><path d="M2.61 5 h8.88 a0.17 0.17 0 0 1 0.18 0.17 v0.93 a0.18 0.18 0 0 1 -0.18 0.18 H2.61 a0.18 0.18 0 0 1 -0.18 -0.18 V5.21 A0.17 0.17 0 0 1 2.61 5 Z" style="fill:white;" /><path d="M2.61 6.89 h8.88 a0.18 0.18 0 0 1 0.18 0.18 V8 a0.18 0.18 0 0 1 -0.18 0.17 H2.61 A0.18 0.18 0 0 1 2.43 8 V7.07 A0.18 0.18 0 0 1 2.61 6.89 Z" style="fill:white;" /><g><rect x="8.59" y="9.77" width="7.92" height="5.49" rx="0.36" style="fill:#0078D4;" /><path d="M9 9.77 h7.3 a0.26 0.26 0 0 1 0.26 0.26 v1 a0 0 0 0 1 0 0 H8.59 a0 0 0 0 1 0 0 v-0.95 A0.36 0.36 0 0 1 9 9.77 Z" style="fill:#83B9F9;" /></g><path d="M9.73 11.59 h5.64 a0.12 0.12 0 0 1 0.12 0.11 v0.59 a0.12 0.12 0 0 1 -0.12 0.11 H9.73 a0.11 0.11 0 0 1 -0.12 -0.11 V11.7 A0.11 0.11 0 0 1 9.73 11.59 Z" style="fill:white;" /><path d="M9.73 12.76 h5.64 a0.11 0.11 0 0 1 0.12 0.11 v0.59 a0.11 0.11 0 0 1 -0.12 0.11 H9.73 a0.12 0.12 0 0 1 -0.12 -0.11 v-0.59 A0.12 0.12 0 0 1 9.73 12.76 Z" style="fill:white;" /><path d="M9.73 13.94 h5.64 a0.11 0.11 0 0 1 0.12 0.11 v0.59 a0.11 0.11 0 0 1 -0.12 0.11 H9.73 a0.12 0.12 0 0 1 -0.12 -0.11 v-0.59 A0.12 0.12 0 0 1 9.73 13.94 Z" style="fill:white;" /></svg>