<?xml version="1.0" encoding="UTF-8"?>
<svg xmlns="http://www.w3.org/2000/svg" xmlns:xlink="http://www.w3.org/1999/xlink" width="70pt" height="70pt" viewBox="0 0 70 70" version="1.1">
<defs>
<filter id="alpha" filterUnits="objectBoundingBox" x="0%" y="0%" width="100%" height="100%">
  <feColorMatrix type="matrix" in="SourceGraphic" values="0 0 0 0 1 0 0 0 0 1 0 0 0 0 1 0 0 0 1 0"/>
</filter>
<mask id="mask0">
  <g filter="url(#alpha)">
<rect x="0" y="0" width="70" height="70" style="fill:rgb(0%,0%,0%);fill-opacity:0.25098;stroke:none;"/>
  </g>
</mask>
<clipPath id="clip1">
  <rect x="0" y="0" width="70" height="70"/>
</clipPath>
<g id="surface5" clip-path="url(#clip1)">
<path style=" stroke:none;fill-rule:evenodd;fill:rgb(100%,100%,100%);fill-opacity:1;" d="M 21.078125 69.824219 L 25.53125 50.199219 C 23.734375 48.894531 21.519531 48.125 19.125 48.125 C 18.566406 48.125 18.015625 48.167969 17.476563 48.25 L 15.082031 39.65625 C 19.066406 38.023438 21.875 34.105469 21.875 29.53125 C 21.875 27.910156 21.519531 26.371094 20.886719 24.984375 L 27.847656 19.207031 C 29.046875 20.25 30.480469 21.035156 32.054688 21.472656 L 36.894531 0.167969 C 36.277344 0.0585938 35.644531 0 35 0 C 28.960938 0 24.0625 4.898438 24.0625 10.9375 C 24.0625 12.050781 24.230469 13.121094 24.539063 14.132813 L 16.976563 20.410156 C 15.246094 19.265625 13.171875 18.59375 10.941406 18.59375 C 4.898438 18.59375 0 23.492188 0 29.53125 C 0 34.914063 3.890625 39.386719 9.015625 40.296875 L 11.945313 50.816406 C 9.644531 52.820313 8.1875 55.773438 8.1875 59.0625 C 8.1875 65.105469 13.085938 70 19.125 70 C 19.792969 70 20.445313 69.9375 21.078125 69.824219 Z M 21.078125 69.824219 "/>
</g>
</defs>
<g id="surface1">
<path style=" stroke:none;fill-rule:nonzero;fill:rgb(86.666667%,34.901961%,0%);fill-opacity:1;" d="M 34.996094 13.273438 L 57.085938 31.613281 L 49.636719 56.859375 L 19.875 56.859375 L 12.851563 31.652344 L 34.996094 13.273438 M 34.996094 5.453125 L 6.011719 29.515625 L 15.308594 62.875 L 54.136719 62.875 L 63.980469 29.515625 Z M 34.996094 5.453125 "/>
<path style=" stroke:none;fill-rule:evenodd;fill:rgb(100%,54.901961%,0%);fill-opacity:1;" d="M 35 0 C 41.039063 0 45.9375 4.898438 45.9375 10.9375 C 45.9375 16.980469 41.039063 21.875 35 21.875 C 28.960938 21.875 24.0625 16.976563 24.0625 10.9375 C 24.0625 4.898438 28.960938 0 35 0 Z M 35 0 "/>
<path style=" stroke:none;fill-rule:evenodd;fill:rgb(100%,54.901961%,0%);fill-opacity:1;" d="M 59.0625 18.59375 C 65.105469 18.59375 70 23.492188 70 29.53125 C 70 35.570313 65.101563 40.46875 59.0625 40.46875 C 53.023438 40.46875 48.125 35.570313 48.125 29.53125 C 48.125 23.492188 53.023438 18.59375 59.0625 18.59375 Z M 59.0625 18.59375 "/>
<path style=" stroke:none;fill-rule:evenodd;fill:rgb(100%,54.901961%,0%);fill-opacity:1;" d="M 50.859375 48.125 C 56.898438 48.125 61.796875 53.023438 61.796875 59.0625 C 61.796875 65.101563 56.898438 70 50.859375 70 C 44.816406 70 39.921875 65.101563 39.921875 59.0625 C 39.921875 53.023438 44.816406 48.125 50.859375 48.125 Z M 50.859375 48.125 "/>
<path style=" stroke:none;fill-rule:evenodd;fill:rgb(100%,54.901961%,0%);fill-opacity:1;" d="M 19.125 48.125 C 25.167969 48.125 30.066406 53.023438 30.066406 59.0625 C 30.066406 65.101563 25.167969 70 19.125 70 C 13.085938 70 8.1875 65.101563 8.1875 59.0625 C 8.1875 53.023438 13.085938 48.125 19.125 48.125 Z M 19.125 48.125 "/>
<path style=" stroke:none;fill-rule:evenodd;fill:rgb(100%,54.901961%,0%);fill-opacity:1;" d="M 10.9375 18.59375 C 16.980469 18.59375 21.875 23.492188 21.875 29.53125 C 21.875 35.570313 16.976563 40.46875 10.9375 40.46875 C 4.898438 40.46875 0 35.574219 0 29.53125 C 0 23.492188 4.898438 18.59375 10.9375 18.59375 Z M 10.9375 18.59375 "/>
<use xlink:href="#surface5" mask="url(#mask0)"/>
</g>
</svg>
