<?xml version="1.0" encoding="UTF-8"?>
<svg xmlns="http://www.w3.org/2000/svg" xmlns:xlink="http://www.w3.org/1999/xlink" width="70pt" height="55pt" viewBox="0 0 70 55" version="1.1">
<g id="surface1">
<path style=" stroke:none;fill-rule:nonzero;fill:rgb(0%,47.058824%,84.313725%);fill-opacity:1;" d="M 22.75 30.171875 L 48.839844 30.171875 L 48.839844 12.886719 L 22.75 12.886719 Z M 41.523438 25.144531 L 36.589844 27.972656 L 36.589844 22.3125 L 41.523438 19.484375 Z M 36.113281 15.871094 L 41.046875 18.699219 L 36.113281 21.527344 L 31.183594 18.699219 Z M 30.863281 19.484375 L 35.796875 22.3125 L 35.796875 27.972656 L 30.863281 25.144531 Z M 30.863281 19.484375 "/>
<path style=" stroke:none;fill-rule:nonzero;fill:rgb(0%,47.058824%,84.313725%);fill-opacity:1;" d="M 66.183594 0 L 3.023438 0 C 1.273438 0 0 1.414063 0 2.984375 L 0 51.699219 C 0 53.429688 1.433594 54.6875 3.023438 54.6875 L 66.183594 54.6875 C 67.933594 54.6875 69.203125 53.269531 69.203125 51.699219 L 69.203125 2.984375 C 69.203125 1.414063 67.933594 0 66.183594 0 Z M 34.363281 45.257813 L 32.453125 50.914063 C 32.453125 50.914063 32.453125 51.070313 32.453125 51.070313 C 32.453125 51.070313 32.453125 51.070313 32.296875 51.230469 C 32.296875 51.230469 32.136719 51.230469 31.976563 51.230469 C 31.816406 51.230469 31.816406 51.230469 31.5 51.230469 C 31.339844 51.230469 31.183594 51.230469 31.183594 51.230469 C 31.023438 51.230469 31.023438 51.230469 30.863281 51.230469 C 30.863281 51.230469 30.703125 51.230469 30.703125 51.230469 C 30.703125 51.230469 30.703125 51.230469 30.546875 51.230469 C 30.546875 51.230469 30.546875 51.230469 30.546875 51.070313 L 28.636719 45.414063 C 28.636719 45.257813 28.636719 45.257813 28.636719 45.101563 C 28.636719 45.101563 28.636719 44.941406 28.636719 44.941406 C 28.636719 44.941406 28.796875 44.941406 28.796875 44.941406 C 28.953125 44.941406 29.113281 44.941406 29.273438 44.941406 C 29.433594 44.941406 29.589844 44.941406 29.589844 44.941406 C 29.75 44.941406 29.75 44.941406 29.75 44.941406 C 29.75 44.941406 29.75 44.941406 29.910156 44.941406 C 29.910156 44.941406 29.910156 44.941406 29.910156 45.101563 L 31.5 49.972656 L 33.089844 45.101563 C 33.089844 45.101563 33.089844 44.941406 33.089844 44.941406 C 33.089844 44.941406 33.089844 44.941406 33.25 44.785156 C 33.25 44.785156 33.410156 44.785156 33.410156 44.785156 C 33.566406 44.785156 33.566406 44.785156 33.726563 44.785156 C 33.886719 44.785156 34.046875 44.785156 34.046875 44.785156 C 34.203125 44.785156 34.203125 44.785156 34.203125 44.785156 C 34.203125 44.785156 34.203125 44.941406 34.203125 44.941406 C 34.523438 45.101563 34.523438 45.257813 34.363281 45.257813 Z M 42.796875 51.070313 C 42.636719 51.230469 42.476563 51.230469 42.476563 51.230469 C 42.316406 51.230469 42.316406 51.230469 42.160156 51.230469 C 42 51.230469 42 51.230469 41.839844 51.230469 C 41.839844 51.230469 41.683594 51.230469 41.683594 51.230469 C 41.683594 51.230469 41.683594 51.230469 41.523438 51.230469 C 41.523438 51.230469 41.523438 51.230469 41.523438 51.070313 L 41.523438 45.886719 L 39.773438 51.070313 C 39.773438 51.070313 39.773438 51.070313 39.773438 51.230469 C 39.773438 51.230469 39.773438 51.230469 39.613281 51.230469 C 39.613281 51.230469 39.453125 51.230469 39.453125 51.230469 C 39.453125 51.230469 39.296875 51.230469 39.136719 51.230469 C 38.976563 51.230469 38.976563 51.230469 38.816406 51.230469 C 38.816406 51.230469 38.660156 51.230469 38.660156 51.230469 C 38.660156 51.230469 38.5 51.230469 38.5 51.230469 C 38.5 51.230469 38.5 51.230469 38.5 51.070313 L 36.589844 45.886719 L 36.589844 51.070313 C 36.589844 51.070313 36.589844 51.070313 36.589844 51.230469 C 36.589844 51.230469 36.589844 51.230469 36.433594 51.230469 C 36.433594 51.230469 36.273438 51.230469 36.273438 51.230469 C 36.273438 51.230469 36.113281 51.230469 35.953125 51.230469 C 35.796875 51.230469 35.796875 51.230469 35.636719 51.230469 C 35.476563 51.230469 35.476563 51.230469 35.476563 51.230469 C 35.476563 51.230469 35.316406 51.230469 35.316406 51.230469 C 35.316406 51.230469 35.316406 51.230469 35.316406 51.070313 L 35.316406 45.414063 C 35.316406 45.257813 35.316406 45.101563 35.476563 45.101563 C 35.636719 44.941406 35.636719 44.941406 35.796875 44.941406 L 36.589844 44.941406 C 36.75 44.941406 36.910156 44.941406 36.910156 44.941406 C 37.066406 44.941406 37.066406 44.941406 37.226563 45.101563 C 37.226563 45.101563 37.386719 45.257813 37.386719 45.257813 C 37.386719 45.414063 37.546875 45.414063 37.546875 45.570313 L 38.976563 49.34375 L 40.410156 45.570313 C 40.410156 45.414063 40.566406 45.257813 40.566406 45.257813 C 40.566406 45.101563 40.726563 45.101563 40.726563 45.101563 C 40.726563 45.101563 40.886719 44.941406 41.046875 44.941406 C 41.203125 44.941406 41.203125 44.941406 41.363281 44.941406 L 42.316406 44.941406 C 42.476563 44.941406 42.476563 44.941406 42.476563 44.941406 C 42.476563 44.941406 42.636719 44.941406 42.636719 45.101563 C 42.636719 45.101563 42.636719 45.257813 42.796875 45.257813 C 42.796875 45.257813 42.796875 45.414063 42.796875 45.414063 Z M 50.910156 30.644531 C 50.910156 31.585938 50.113281 32.214844 49.316406 32.214844 L 39.773438 32.214844 C 38.816406 35.828125 39.296875 36.300781 45.660156 36.300781 L 45.660156 37.871094 L 25.773438 37.871094 L 25.773438 36.300781 C 31.5 36.300781 32.453125 35.828125 31.660156 32.214844 L 22.273438 32.214844 C 21.316406 32.214844 20.683594 31.429688 20.683594 30.644531 L 20.683594 12.414063 C 20.683594 11.472656 21.476563 10.6875 22.273438 10.6875 L 49.316406 10.6875 C 50.273438 10.6875 50.910156 11.472656 50.910156 12.414063 Z M 50.910156 30.644531 "/>
</g>
</svg>
