<?xml version="1.0" encoding="utf-8"?><svg version="1.1" xmlns="http://www.w3.org/2000/svg" xmlns:xlink="http://www.w3.org/1999/xlink" xmlns:xml="http://www.w3.org/XML/1998/namespace" xmlns:dc="http://purl.org/dc/elements/1.1/" xmlns:cc="http://creativecommons.org/ns#" xmlns:rdf="http://www.w3.org/1999/02/22-rdf-syntax-ns#" xmlns:sodipodi="http://sodipodi.sourceforge.net/DTD/sodipodi-0.dtd" xmlns:inkscape="http://www.inkscape.org/namespaces/inkscape" width="70" height="70" viewBox="0, 0, 70, 70" id="svg39" aria-hidden="true" role="presentation" sodipodi:docname="Azure Batch_COLOR.svg" inkscape:version="0.92.2 (5c3e80d, 2017-08-06)"><metadata id="metadata45" /><defs id="defs43" /><sodipodi:namedview id="namedview41" pagecolor="#ffffff" bordercolor="#666666" borderopacity="1" objecttolerance="10" gridtolerance="10" guidetolerance="10" inkscape:pageopacity="0" inkscape:pageshadow="2" inkscape:window-width="690" inkscape:window-height="480" showgrid="false" inkscape:zoom="2.36" inkscape:cx="50" inkscape:cy="0.39999847" inkscape:window-x="0" inkscape:window-y="0" inkscape:window-maximized="0" inkscape:current-layer="svg39" fit-margin-top="0" fit-margin-left="0" fit-margin-right="0" fit-margin-bottom="0" /><svg width="100%" height="100%" transform="translate(0, -2)" id="svg-batch"><path d="m0 27.2 c0 0.7 0.5 1.2 1.2 1.2 h27.6 c0.7 0 1.2 -0.5 1.2 -1.2 V7.2 H0 Z" id="path2" inkscape:connector-curvature="0" style="fill:#0072C6;" /><path d="M28.8 2 H1.2 C0.5 2 0 2.5 0 3.2 V7.6 H30 V3.2 C30 2.5 29.5 2 28.8 2 Z" id="path4" inkscape:connector-curvature="0" style="fill:#A0A1A2;" /><path d="M1.2 2 C0.5 2 0 2.5 0 3.2 v4.4 v2 v17.6 c0 0.7 0.5 1.2 1.2 1.2 H12.7 L26.2 2 Z" id="path6" opacity="0.1" inkscape:connector-curvature="0" style="fill:white;" /><path d="M5.1 14.6 L4.8 14.3 C4.7 14.2 4.7 14.1 4.8 14 l0.8 -0.7 c0 0 0.1 -0.1 0.1 -0.1 c0.1 0 0.1 0 0.1 0.1 l2.2 2.4 l3.9 -4.9 c0 0 0.1 -0.1 0.2 -0.1 c0 0 0.1 0 0.1 0 l0.9 0.7 c0 0 0.1 0.1 0.1 0.1 c0 0.1 0 0.1 0 0.1 l-5 6.3 z" id="path8" inkscape:connector-curvature="0" style="fill:white;" /><path d="M5.1 22.4 L4.8 22.1 C4.7 22 4.7 21.9 4.8 21.8 l0.8 -0.7 c0 0 0.1 -0.1 0.1 -0.1 c0.1 0 0.1 0 0.1 0.1 l2.2 2.4 l3.9 -4.9 c0 0 0.1 -0.1 0.2 -0.1 c0 0 0.1 0 0.1 0 l0.9 0.7 c0 0 0.1 0.1 0.1 0.1 c0 0.1 0 0.1 0 0.1 l-5 6.3 z" id="path10" inkscape:connector-curvature="0" style="fill:white;" /><path d="m10 37.2 c0 0.7 0.5 1.2 1.2 1.2 h27.6 c0.7 0 1.2 -0.5 1.2 -1.2 v-20 H10 Z" id="path12" inkscape:connector-curvature="0" style="fill:#3999C6;" /><path d="M38.8 12 H11.2 C10.5 12 10 12.5 10 13.2 v4.4 H40 V13.2 C40 12.5 39.5 12 38.8 12 Z" id="path14" inkscape:connector-curvature="0" style="fill:#A0A1A2;" /><path d="M11.2 12 C10.5 12 10 12.5 10 13.2 v4.4 v2 v17.6 c0 0.7 0.5 1.2 1.2 1.2 H22.7 L36.2 12 Z" id="path16" opacity="0.1" inkscape:connector-curvature="0" style="fill:white;" /><path d="m15.1 24.6 l-0.3 -0.3 c-0.1 -0.1 -0.1 -0.2 0 -0.3 l0.8 -0.7 c0 0 0.1 -0.1 0.1 -0.1 c0.1 0 0.1 0 0.1 0.1 l2.2 2.4 l3.9 -4.9 c0 0 0.1 -0.1 0.2 -0.1 c0 0 0.1 0 0.1 0 l0.9 0.7 c0 0 0.1 0.1 0.1 0.1 c0 0.1 0 0.1 0 0.1 l-5 6.3 z" id="path18" inkscape:connector-curvature="0" style="fill:white;" /><path d="m15.1 32.4 l-0.3 -0.3 c-0.1 -0.1 -0.1 -0.2 0 -0.3 l0.8 -0.7 c0 0 0.1 -0.1 0.1 -0.1 c0.1 0 0.1 0 0.1 0.1 l2.2 2.4 l3.9 -4.9 c0 0 0.1 -0.1 0.2 -0.1 c0 0 0.1 0 0.1 0 l0.9 0.7 c0 0 0.1 0.1 0.1 0.1 c0 0.1 0 0.1 0 0.1 l-5 6.3 z" id="path20" inkscape:connector-curvature="0" style="fill:white;" /><path d="m20 47.2 c0 0.7 0.5 1.2 1.2 1.2 h27.6 c0.7 0 1.2 -0.5 1.2 -1.2 v-20 H20 Z" id="path22" inkscape:connector-curvature="0" style="fill:#59B4D9;" /><path d="M48.8 22 H21.2 C20.5 22 20 22.5 20 23.2 v4.4 H50 V23.2 C50 22.5 49.5 22 48.8 22 Z" id="path24" inkscape:connector-curvature="0" style="fill:#A0A1A2;" /><rect x="20" y="27.6" width="30" height="2" id="rect26" opacity="0.15" style="fill:white;" /><path d="M21.2 22 C20.5 22 20 22.5 20 23.2 v4.4 v2 v17.6 c0 0.7 0.5 1.2 1.2 1.2 H32.7 L46.2 22 Z" id="path28" opacity="0.1" inkscape:connector-curvature="0" style="fill:white;" /><path d="m25.1 34.6 l-0.3 -0.3 c-0.1 -0.1 -0.1 -0.2 0 -0.3 l0.8 -0.7 c0 0 0.1 -0.1 0.1 -0.1 c0.1 0 0.1 0 0.1 0.1 l2.2 2.4 l3.9 -4.9 c0 0 0.1 -0.1 0.2 -0.1 c0 0 0.1 0 0.1 0 l0.9 0.7 c0 0 0.1 0.1 0.1 0.1 c0 0.1 0 0.1 0 0.1 l-5 6.3 z" id="path30" inkscape:connector-curvature="0" style="fill:white;" /><rect x="33.2" y="34.5" width="12" height="2" id="rect32" opacity="0.6" style="fill:white;" /><path d="m25.1 42.4 l-0.3 -0.3 c-0.1 -0.1 -0.1 -0.2 0 -0.3 l0.8 -0.7 c0 0 0.1 -0.1 0.1 -0.1 c0.1 0 0.1 0 0.1 0.1 l2.2 2.4 l3.9 -4.9 c0 0 0.1 -0.1 0.2 -0.1 c0 0 0.1 0 0.1 0 l0.9 0.7 c0 0 0.1 0.1 0.1 0.1 c0 0.1 0 0.1 0 0.1 l-5 6.3 z" id="path34" inkscape:connector-curvature="0" style="fill:white;" /><rect x="33.2" y="42.4" width="12" height="2" id="rect36" opacity="0.6" style="fill:white;" /></svg></svg>