<?xml version="1.0" encoding="UTF-8"?>
<svg xmlns="http://www.w3.org/2000/svg" xmlns:xlink="http://www.w3.org/1999/xlink" width="70pt" height="70pt" viewBox="0 0 70 70" version="1.1">
<defs>
<filter id="alpha" filterUnits="objectBoundingBox" x="0%" y="0%" width="100%" height="100%">
  <feColorMatrix type="matrix" in="SourceGraphic" values="0 0 0 0 1 0 0 0 0 1 0 0 0 0 1 0 0 0 1 0"/>
</filter>
<mask id="mask0">
  <g filter="url(#alpha)">
<rect x="0" y="0" width="70" height="70" style="fill:rgb(0,0,0);fill-opacity:0.2;stroke:none;"/>
  </g>
</mask>
<clipPath id="clip1">
  <rect x="0" y="0" width="70" height="70"/>
</clipPath>
<g id="surface5" clip-path="url(#clip1)">
<path style=" stroke:none;fill-rule:nonzero;fill:rgb(255,255,255);fill-opacity:1;" d="M 65.816406 2.804688 C 65.800781 2.804688 65.785156 2.800781 65.773438 2.800781 L 3.804688 2.800781 C 1.699219 2.800781 0 4.683594 0 6.789063 L 0 50.644531 C 0 52.738281 1.699219 54.601563 3.804688 54.601563 L 5.28125 54.601563 Z M 65.816406 2.804688 "/>
</g>
<mask id="mask1">
  <g filter="url(#alpha)">
<rect x="0" y="0" width="70" height="70" style="fill:rgb(0,0,0);fill-opacity:0.85098;stroke:none;"/>
  </g>
</mask>
<mask id="mask2">
  <g filter="url(#alpha)">
<rect x="0" y="0" width="70" height="70" style="fill:rgb(0,0,0);fill-opacity:0.4;stroke:none;"/>
  </g>
</mask>
<clipPath id="clip3">
  <rect x="0" y="0" width="70" height="70"/>
</clipPath>
<g id="surface9" clip-path="url(#clip3)">
<path style=" stroke:none;fill-rule:nonzero;fill:rgb(255,255,255);fill-opacity:1;" d="M 37.386719 19.363281 L 36.671875 19.804688 L 36.050781 18.675781 C 35.8125 18.242188 35.78125 17.878906 35.941406 17.488281 C 36.078125 17.15625 36.363281 16.964844 36.71875 16.964844 L 36.804688 16.96875 C 37.203125 17 37.601563 17.414063 37.71875 17.78125 C 37.847656 18.167969 37.847656 19.082031 37.386719 19.363281 Z M 37.386719 19.363281 "/>
</g>
<clipPath id="clip2">
  <rect x="0" y="0" width="70" height="70"/>
</clipPath>
<g id="surface11" clip-path="url(#clip2)">
<use xlink:href="#surface9" mask="url(#mask2)"/>
<path style=" stroke:none;fill-rule:nonzero;fill:rgb(245,250,255);fill-opacity:1;" d="M 30.421875 41.089844 C 30.421875 41.046875 26.875 35.355469 27.085938 34.367188 C 28.757813 26.425781 30.742188 25.265625 31.472656 23.589844 C 32.199219 21.910156 31.78125 20.363281 32.652344 20.34375 C 33.519531 20.324219 36.070313 20.515625 36.691406 20.722656 C 37.3125 20.925781 38.195313 21.554688 38.683594 22.925781 C 39.347656 24.179688 39.996094 25.433594 40.203125 26.863281 C 40.21875 26.996094 40.28125 27.121094 40.367188 27.21875 C 42.019531 29.042969 42.355469 31.253906 42.234375 33.589844 C 42.203125 34.183594 42.128906 35.054688 42.046875 35.359375 C 41.96875 35.667969 39.734375 42.890625 36.222656 42.800781 C 32.707031 42.710938 30.835938 41.40625 30.421875 41.089844 Z M 30.421875 41.089844 "/>
<path style=" stroke:none;fill-rule:nonzero;fill:rgb(63,173,255);fill-opacity:1;" d="M 49.320313 39.40625 C 48.035156 39.339844 47.355469 38.566406 47.347656 37.828125 C 47.34375 36.960938 47.707031 35.875 46.453125 35.765625 C 45.199219 35.65625 42.636719 35.523438 41.949219 35.394531 C 40.449219 35.121094 40.375 35.730469 40.351563 36.167969 C 40.339844 36.371094 40.527344 38.402344 40.332031 39.195313 C 40.34375 39.539063 40.320313 39.878906 40.265625 40.222656 C 40.125 41.148438 40.015625 42.078125 39.894531 43.003906 C 39.882813 43.457031 39.878906 43.910156 39.871094 44.363281 C 40.960938 45.964844 43.078125 46.027344 44.390625 44.636719 C 45.621094 43.382813 47.105469 42.519531 48.671875 41.761719 C 49.113281 41.546875 49.53125 41.222656 49.765625 40.601563 C 50.003906 39.976563 49.78125 39.425781 49.320313 39.40625 Z M 49.320313 39.40625 "/>
<path style=" stroke:none;fill-rule:nonzero;fill:rgb(0,33,58);fill-opacity:1;" d="M 32.214844 38.628906 C 32.039063 39.496094 31.097656 40.261719 30.613281 40.195313 C 30.3125 40.03125 29.496094 38.949219 29.320313 38.683594 C 28.785156 37.878906 26.457031 34.539063 25.777344 34.792969 C 25.558594 34.820313 25.429688 34.976563 25.316406 35.144531 C 25.269531 35.160156 25.226563 35.179688 25.179688 35.199219 C 24.832031 34.449219 24.859375 33.699219 25.25 32.984375 C 26.105469 31.417969 26.503906 29.804688 26.941406 28.0625 C 27.085938 27.480469 27.445313 26.992188 27.8125 26.523438 C 28.503906 25.648438 28.484375 24.769531 29.1875 23.90625 C 29.636719 23.355469 30.03125 22.753906 29.988281 22.042969 C 29.871094 20.03125 29.613281 18.074219 29.699219 16.058594 C 29.785156 14.082031 31.507813 12.421875 33.445313 11.710938 C 35.453125 10.972656 37.351563 11.335938 38.964844 12.78125 C 40.230469 13.914063 40.785156 15.40625 40.882813 17.078125 C 40.902344 17.386719 40.917969 17.695313 40.902344 18 C 40.757813 21.148438 42.082031 23.707031 44.085938 25.992188 C 46.011719 28.1875 46.765625 30.8125 46.9375 33.652344 C 46.984375 34.394531 46.746094 35.089844 46.441406 35.757813 C 46.019531 36.722656 45.417969 37.324219 44.867188 37.570313 C 44.316406 37.820313 42.140625 37.992188 42.5625 36.5625 C 42.769531 35.859375 42.804688 35.5625 41.9375 35.386719 C 42 34.796875 42.09375 34.207031 42.125 33.617188 C 42.246094 31.277344 41.835938 29.429688 40.0625 27.769531 C 39.515625 27.253906 40.03125 27.171875 40.011719 26.710938 C 39.964844 25.460938 39.238281 24.203125 38.574219 22.953125 C 38.515625 22.71875 38.40625 22.515625 38.253906 22.332031 C 38.304688 22.136719 38.179688 21.996094 38.101563 21.839844 C 38.199219 21.445313 38.371094 21.058594 38.289063 20.636719 C 38.296875 20.273438 34.558594 20.117188 34.089844 20.304688 C 33.894531 20.238281 31.90625 20.152344 31.910156 20.183594 C 31.640625 20.386719 31.453125 20.648438 31.367188 20.96875 C 31.289063 21.273438 31.773438 21.898438 31.828125 22 C 31.804688 22.429688 31.78125 22.855469 31.757813 23.28125 C 31.71875 23.433594 31.675781 23.582031 31.632813 23.730469 C 31.316406 24.222656 30.988281 24.707031 30.683594 25.203125 C 30.40625 25.652344 30.089844 26.085938 30.050781 26.636719 C 29.835938 27.195313 30.609375 27.9375 29.90625 28.589844 C 29.199219 29.242188 28.488281 32.390625 28.480469 33.132813 C 28.464844 33.929688 29.921875 35.753906 30.480469 36.28125 C 31.503906 37.242188 32.421875 37.609375 32.214844 38.628906 Z M 32.214844 38.628906 "/>
<path style=" stroke:none;fill-rule:nonzero;fill:rgb(0,33,58);fill-opacity:1;" d="M 31.507813 41.632813 C 33.015625 42.058594 37.253906 42.1875 39.316406 40.121094 C 39.660156 39.804688 40.003906 39.492188 40.351563 39.175781 C 40.363281 39.519531 40.339844 39.859375 40.285156 40.207031 C 40.144531 41.128906 40.035156 42.058594 39.914063 42.988281 C 39.902344 43.4375 39.898438 43.890625 39.890625 44.34375 C 37.992188 43.820313 35.140625 43.636719 34.289063 43.679688 C 33.441406 43.726563 32.277344 43.9375 31.605469 44.117188 Z M 31.507813 41.632813 "/>
<path style=" stroke:none;fill-rule:nonzero;fill:rgb(77,179,255);fill-opacity:1;" d="M 47.460938 38.058594 C 47.433594 38.011719 47.402344 37.96875 47.367188 37.921875 C 47.398438 37.96875 47.429688 38.011719 47.460938 38.058594 Z M 47.460938 38.058594 "/>
<path style=" stroke:none;fill-rule:nonzero;fill:rgb(77,179,255);fill-opacity:1;" d="M 46.910156 36.097656 C 46.871094 36.058594 46.828125 36.019531 46.789063 35.980469 C 46.828125 36.019531 46.871094 36.058594 46.910156 36.097656 Z M 46.910156 36.097656 "/>
<path style=" stroke:none;fill-rule:nonzero;fill:rgb(0,112,196);fill-opacity:1;" d="M 30.644531 40.371094 C 30.664063 40.402344 30.683594 40.4375 30.703125 40.46875 C 30.6875 40.4375 30.664063 40.402344 30.644531 40.371094 Z M 30.644531 40.371094 "/>
<path style=" stroke:none;fill-rule:nonzero;fill:rgb(63,173,255);fill-opacity:1;" d="M 30.027344 39.464844 C 28.929688 38.324219 28.085938 36.9375 27.308594 35.390625 C 26.902344 34.574219 25.65625 33.925781 25.191406 35.207031 C 24.726563 36.488281 23.988281 37.007813 22.78125 36.847656 C 21.898438 36.730469 21.066406 37.40625 21.4375 38.523438 C 21.835938 39.726563 22.289063 40.671875 21.417969 41.511719 C 20.542969 42.355469 20.898438 43.226563 22.128906 43.394531 C 23.359375 43.5625 26.59375 44.296875 28.460938 45.285156 C 30.328125 46.269531 31.816406 44.40625 32.015625 43.855469 C 32.507813 42.488281 31.128906 40.605469 30.027344 39.464844 Z M 30.027344 39.464844 "/>
<path style=" stroke:none;fill-rule:nonzero;fill:rgb(0,33,58);fill-opacity:1;" d="M 34.191406 26.078125 C 33.140625 26.078125 32.4375 25.082031 31.941406 24.214844 C 31.9375 24.214844 30.316406 21.9375 30.90625 20.683594 C 30.992188 20.503906 31.128906 20.210938 32.800781 19.175781 L 33.109375 18.914063 L 33.40625 18.765625 L 33.597656 18.6875 C 33.828125 18.617188 34.089844 18.542969 34.335938 18.542969 L 34.453125 18.542969 L 34.671875 18.59375 L 35.171875 18.761719 L 39.226563 20.257813 L 39.339844 20.867188 C 39.433594 21.359375 39.308594 21.789063 39.207031 22.132813 L 39.054688 22.730469 L 38.707031 22.855469 C 38.402344 22.96875 37.921875 23.480469 37.535156 23.894531 C 37.15625 24.300781 36.792969 24.6875 36.421875 24.929688 C 36.289063 25.019531 36.144531 25.132813 36.003906 25.234375 C 35.425781 25.667969 34.875 26.078125 34.191406 26.078125 Z M 34.191406 26.078125 "/>
<path style=" stroke:none;fill-rule:nonzero;fill:rgb(63,173,255);fill-opacity:1;" d="M 36.898438 21.097656 C 36.179688 21.71875 35.359375 22.25 34.339844 22.277344 C 34.300781 22.308594 34.300781 22.308594 34.339844 22.277344 C 34.347656 22.046875 34.332031 21.824219 34.136719 21.652344 C 33.972656 21.515625 33.953125 21.304688 34 21.125 C 34.191406 20.390625 34.074219 19.648438 34.101563 18.910156 C 33.910156 18.84375 33.46875 19.007813 33.414063 19.019531 C 33.324219 19.066406 33.234375 19.109375 33.144531 19.15625 C 33.042969 19.238281 32.941406 19.324219 32.839844 19.410156 C 32.710938 19.492188 31.332031 20.332031 31.1875 20.632813 C 30.824219 21.40625 32.023438 23.296875 32.199219 23.519531 C 33.597656 25.976563 34.375 24.910156 35.691406 23.992188 C 36.394531 23.535156 37.3125 22.144531 38.113281 21.851563 C 38.210938 21.453125 38.378906 21.070313 38.300781 20.648438 C 37.796875 20.675781 37.347656 20.707031 36.898438 21.097656 Z M 36.898438 21.097656 "/>
<path style=" stroke:none;fill-rule:nonzero;fill:rgb(81,181,255);fill-opacity:1;" d="M 33.519531 18.921875 C 33.523438 18.925781 33.527344 18.921875 33.53125 18.925781 C 33.527344 18.917969 33.53125 18.917969 33.527344 18.910156 Z M 33.519531 18.921875 "/>
<path style=" stroke:none;fill-rule:nonzero;fill:rgb(147,209,255);fill-opacity:1;" d="M 37.726563 20.089844 C 38.03125 20.242188 38.308594 20.417969 38.300781 20.816406 C 37.75 20.851563 37.257813 20.886719 36.765625 21.3125 C 35.980469 21.988281 34.917969 22.996094 33.800781 23.027344 C 33.84375 22.660156 33.316406 22.132813 33.460938 21.503906 C 33.644531 20.699219 33.675781 19.722656 33.703125 18.914063 C 34.214844 18.710938 34.691406 18.898438 35.167969 19.046875 C 35.367188 19.167969 35.570313 19.289063 35.765625 19.40625 C 36.117188 19.542969 36.464844 19.675781 36.8125 19.808594 C 37.085938 19.996094 37.414063 20.019531 37.726563 20.089844 Z M 37.726563 20.089844 "/>
</g>
<mask id="mask3">
  <g filter="url(#alpha)">
<rect x="0" y="0" width="70" height="70" style="fill:rgb(0,0,0);fill-opacity:0.901961;stroke:none;"/>
  </g>
</mask>
<clipPath id="clip4">
  <rect x="0" y="0" width="70" height="70"/>
</clipPath>
<g id="surface14" clip-path="url(#clip4)">
<path style=" stroke:none;fill-rule:nonzero;fill:rgb(255,255,255);fill-opacity:1;" d="M 32.199219 17.574219 L 33.601563 17.574219 L 33.601563 18.976563 L 32.199219 18.976563 Z M 32.199219 17.574219 "/>
</g>
<mask id="mask4">
  <g filter="url(#alpha)">
<rect x="0" y="0" width="70" height="70" style="fill:rgb(0,0,0);fill-opacity:0.901961;stroke:none;"/>
  </g>
</mask>
<clipPath id="clip5">
  <rect x="0" y="0" width="70" height="70"/>
</clipPath>
<g id="surface17" clip-path="url(#clip5)">
<path style=" stroke:none;fill-rule:nonzero;fill:rgb(255,255,255);fill-opacity:1;" d="M 36.398438 17.574219 L 37.800781 17.574219 L 37.800781 18.976563 L 36.398438 18.976563 Z M 36.398438 17.574219 "/>
</g>
</defs>
<g id="surface1">
<path style=" stroke:none;fill-rule:nonzero;fill:rgb(0,140,244);fill-opacity:1;" d="M 46.199219 53.199219 L 26.980469 53.199219 C 29.289063 61.597656 26.1875 62.800781 12.601563 62.800781 L 12.601563 67.199219 L 58.800781 67.199219 L 58.800781 62.800781 C 45.214844 62.800781 43.882813 61.601563 46.191406 53.199219 "/>
<path style=" stroke:none;fill-rule:nonzero;fill:rgb(65,174,255);fill-opacity:1;" d="M 65.773438 2.800781 L 3.804688 2.800781 C 1.699219 2.800781 0.00390625 4.683594 0.00390625 6.785156 L 0.00390625 50.644531 C 0.00390625 52.738281 1.699219 54.597656 3.804688 54.597656 L 65.773438 54.597656 C 67.875 54.597656 70 52.738281 70 50.644531 L 70 6.785156 C 70 4.675781 67.875 2.800781 65.773438 2.800781 "/>
<use xlink:href="#surface5" mask="url(#mask0)"/>
<path style=" stroke:none;fill-rule:nonzero;fill:rgb(57,171,255);fill-opacity:1;" d="M 64.398438 8.398438 L 64.398438 49 L 5.601563 49 L 5.601563 8.398438 Z M 64.398438 8.398438 "/>
<path style=" stroke:none;fill-rule:nonzero;fill:rgb(65,174,255);fill-opacity:1;" d="M 12.601563 63 L 58.800781 63 L 58.800781 67.199219 L 12.601563 67.199219 Z M 12.601563 63 "/>
<path style=" stroke:none;fill-rule:nonzero;fill:rgb(115,195,255);fill-opacity:1;" d="M 35.726563 5.734375 C 35.726563 6.28125 35.28125 6.726563 34.730469 6.726563 C 34.179688 6.726563 33.738281 6.28125 33.738281 5.734375 C 33.738281 5.183594 34.179688 4.738281 34.730469 4.738281 C 35.28125 4.738281 35.726563 5.183594 35.726563 5.734375 "/>
<use xlink:href="#surface11" mask="url(#mask1)"/>
<use xlink:href="#surface14" mask="url(#mask3)"/>
<use xlink:href="#surface17" mask="url(#mask4)"/>
</g>
</svg>
