<?xml version="1.0" encoding="UTF-8"?>
<svg xmlns="http://www.w3.org/2000/svg" xmlns:xlink="http://www.w3.org/1999/xlink" width="70pt" height="70pt" viewBox="0 0 70 70" version="1.1">
<defs>
<linearGradient id="linear0" gradientUnits="userSpaceOnUse" x1="-0.258" y1="-0.226" x2="8.727" y2="8.72" gradientTransform="matrix(3.888889,0,0,3.888889,0,0)">
<stop offset="0.059" style="stop-color:rgb(0%,52.54902%,92.54902%);stop-opacity:1;"/>
<stop offset="1" style="stop-color:rgb(0%,30.196078%,68.235294%);stop-opacity:1;"/>
</linearGradient>
<linearGradient id="linear1" gradientUnits="userSpaceOnUse" x1="9.064" y1="8.78" x2="17.493" y2="0.669" gradientTransform="matrix(3.888889,0,0,3.888889,0,0)">
<stop offset="0" style="stop-color:rgb(0%,30.196078%,68.235294%);stop-opacity:1;"/>
<stop offset="0.941" style="stop-color:rgb(0%,52.54902%,92.54902%);stop-opacity:1;"/>
</linearGradient>
<linearGradient id="linear2" gradientUnits="userSpaceOnUse" x1="8.863" y1="8.499" x2="17.77" y2="18.081" gradientTransform="matrix(3.888889,0,0,3.888889,0,0)">
<stop offset="0.059" style="stop-color:rgb(0%,52.54902%,92.54902%);stop-opacity:1;"/>
<stop offset="1" style="stop-color:rgb(0%,30.196078%,68.235294%);stop-opacity:1;"/>
</linearGradient>
<linearGradient id="linear3" gradientUnits="userSpaceOnUse" x1="8.643" y1="9.163" x2="0.493" y2="17.672" gradientTransform="matrix(3.888889,0,0,3.888889,0,0)">
<stop offset="0.059" style="stop-color:rgb(0%,52.54902%,92.54902%);stop-opacity:1;"/>
<stop offset="1" style="stop-color:rgb(0%,30.196078%,68.235294%);stop-opacity:1;"/>
</linearGradient>
</defs>
<g id="surface1">
<path style=" stroke:none;fill-rule:nonzero;fill:url(#linear0);" d="M 28.523438 28.570313 L 7.503906 28.570313 C 6.890625 28.570313 6.394531 28.074219 6.394531 27.460938 L 6.394531 7.550781 C 6.394531 6.9375 6.890625 6.441406 7.503906 6.441406 L 27.414063 6.441406 C 28.027344 6.441406 28.523438 6.9375 28.523438 7.550781 L 28.523438 28.570313 M 32.976563 33.019531 L 32.976563 3.109375 C 32.980469 2.8125 32.863281 2.527344 32.65625 2.316406 C 32.445313 2.105469 32.164063 1.988281 31.867188 1.988281 L 3.058594 1.988281 C 2.761719 1.988281 2.476563 2.105469 2.265625 2.316406 C 2.058594 2.527344 1.941406 2.8125 1.945313 3.109375 L 1.945313 31.910156 C 1.945313 32.523438 2.441406 33.019531 3.058594 33.019531 Z M 32.976563 33.019531 "/>
<path style=" stroke:none;fill-rule:nonzero;fill:url(#linear1);" d="M 41.476563 28.570313 L 41.476563 7.570313 C 41.476563 6.957031 41.972656 6.460938 42.585938 6.460938 L 62.496094 6.460938 C 63.109375 6.460938 63.605469 6.957031 63.605469 7.570313 L 63.605469 27.460938 C 63.605469 28.074219 63.109375 28.570313 62.496094 28.570313 L 41.476563 28.570313 M 37.023438 33.019531 L 66.941406 33.019531 C 67.558594 33.019531 68.054688 32.523438 68.054688 31.910156 L 68.054688 3.109375 C 68.054688 2.496094 67.558594 1.996094 66.941406 1.996094 L 38.132813 1.996094 C 37.519531 1.996094 37.023438 2.496094 37.023438 3.109375 Z M 37.023438 33.019531 "/>
<path style=" stroke:none;fill-rule:nonzero;fill:url(#linear2);" d="M 41.476563 41.429688 L 62.496094 41.429688 C 63.109375 41.429688 63.605469 41.925781 63.605469 42.539063 L 63.605469 62.449219 C 63.605469 63.0625 63.109375 63.558594 62.496094 63.558594 L 42.585938 63.558594 C 41.972656 63.558594 41.476563 63.0625 41.476563 62.449219 L 41.476563 41.449219 M 37.023438 36.980469 L 37.023438 66.890625 C 37.023438 67.503906 37.519531 68.003906 38.132813 68.003906 L 66.941406 68.003906 C 67.558594 68.003906 68.054688 67.503906 68.054688 66.890625 L 68.054688 38.109375 C 68.054688 37.496094 67.558594 37 66.941406 37 Z M 37.023438 36.980469 "/>
<path style=" stroke:none;fill-rule:nonzero;fill:url(#linear3);" d="M 28.523438 41.429688 L 28.523438 62.429688 C 28.523438 63.042969 28.027344 63.539063 27.414063 63.539063 L 7.503906 63.539063 C 6.890625 63.539063 6.394531 63.042969 6.394531 62.429688 L 6.394531 42.539063 C 6.394531 41.925781 6.890625 41.429688 7.503906 41.429688 L 28.523438 41.429688 M 32.976563 36.980469 L 3.058594 36.980469 C 2.757813 36.980469 2.472656 37.097656 2.261719 37.3125 C 2.054688 37.523438 1.9375 37.8125 1.945313 38.109375 L 1.945313 66.890625 C 1.945313 67.503906 2.441406 68.003906 3.058594 68.003906 L 31.867188 68.003906 C 32.480469 68.003906 32.976563 67.503906 32.976563 66.890625 Z M 32.976563 36.980469 "/>
<path style=" stroke:none;fill-rule:nonzero;fill:rgb(37.254902%,72.156863%,19.607843%);fill-opacity:1;" d="M 57.945313 31.964844 C 57.609375 25.46875 56.253906 19.0625 53.925781 12.984375 C 53.347656 14.34375 52.613281 15.628906 51.738281 16.816406 C 47.535156 12.726563 41.90625 10.433594 36.042969 10.425781 C 23.941406 10.425781 14.132813 20.230469 14.132813 32.328125 C 14.128906 44.429688 23.9375 54.238281 36.035156 54.238281 C 48.136719 54.238281 57.945313 44.429688 57.945313 32.332031 Z M 57.945313 31.964844 "/>
<path style=" stroke:none;fill-rule:nonzero;fill:rgb(100%,100%,100%);fill-opacity:1;" d="M 53.75 42.191406 C 48.273438 49.308594 36.773438 46.933594 29.472656 47.300781 C 28.617188 47.308594 27.761719 47.371094 26.914063 47.484375 L 28.011719 47.117188 C 31.683594 46.082031 35.28125 44.800781 38.78125 43.285156 C 45.351563 39.941406 50.097656 33.859375 51.742188 26.675781 C 48.960938 33.515625 43.378906 38.835938 36.40625 41.277344 C 32.46875 42.597656 28.4375 43.636719 24.351563 44.386719 L 23.988281 44.203125 C 18.703125 41.640625 18.519531 30.144531 28 26.492188 C 32.199219 24.851563 36.214844 25.761719 40.777344 24.667969 C 46.152344 23.359375 50.765625 19.933594 53.570313 15.167969 C 56.308594 23.023438 59.226563 34.886719 53.75 42.191406 Z M 22.902344 49.308594 C 23.910156 49.304688 24.722656 48.488281 24.722656 47.480469 C 24.71875 46.472656 23.902344 45.660156 22.898438 45.660156 C 21.890625 45.660156 21.074219 46.476563 21.074219 47.484375 C 21.074219 47.96875 21.265625 48.433594 21.609375 48.773438 C 21.953125 49.117188 22.417969 49.308594 22.902344 49.308594 Z M 22.902344 49.308594 "/>
</g>
</svg>
