<?xml version="1.0" encoding="utf-8"?><svg version="1.1" xmlns="http://www.w3.org/2000/svg" xmlns:xlink="http://www.w3.org/1999/xlink" xmlns:xml="http://www.w3.org/XML/1998/namespace" width="70" height="70" viewBox="0, 0, 18, 18"><defs><linearGradient x1="9" y1="778.831" x2="9" y2="790.831" gradientUnits="userSpaceOnUse" gradientTransform="matrix(1, 0, 0, -1, 0, 791.516)" id="afd24f05-59be-4c06-8334-605403fb2b7b"><stop offset="0%" stop-color="#006CBC" /><stop offset="80%" stop-color="#29A4FF" /></linearGradient><linearGradient x1="9" y1="774.201" x2="9" y2="778.831" gradientUnits="userSpaceOnUse" gradientTransform="matrix(1, 0, 0, -1, 0, 791.516)" id="aabc180f-9b9a-4846-a6e7-4110dfc7dad5"><stop offset="0%" stop-color="#99D3FF" /><stop offset="100%" stop-color="#007FDE" /></linearGradient></defs><rect y="0.685" width="18" height="12" rx="0.6" style="fill:url(#afd24f05-59be-4c06-8334-605403fb2b7b);" /><path d="M12.61 16.315 c-1.78 -0.28 -1.85 -1.56 -1.85 -3.63 H7.23 c0 2.07 -0.06 3.35 -1.84 3.63 a1 1 0 0 0 -0.89 1 h9 A1 1 0 0 0 12.61 16.315 Z" style="fill:url(#aabc180f-9b9a-4846-a6e7-4110dfc7dad5);" /><path d="M10.109 2.179 a0.277 0.277 0 0 0 -0.135 0.538 A4.107 4.107 0 1 1 5.488 4.554 l0.111 0.077 l0.779 0.543 a0.048 0.048 0 0 0 0.05 -0.056 L6.245 2.994 a0.048 0.048 0 0 0 -0.055 -0.039 L4.2 3.6 a0.048 0.048 0 0 0 -0.034 0.067 l0.821 0.541 l0.046 0.031 a4.647 4.647 0 1 0 5.079 -2.06 Z" opacity="0.8" style="fill:white;" /><path d="M11.183 5.8 l-0.334 -0.579 l0.181 -1.056 l-0.849 -0.49 l-0.824 0.685 H8.689 l-0.824 -0.685 l-0.849 0.49 L7.2 5.225 L6.863 5.8 l-1.005 0.371 v0.981 l1.005 0.371 l0.334 0.578 L7.016 9.162 l0.849 0.49 l0.824 -0.685 h0.668 l0.824 0.685 l0.849 -0.49 l-0.181 -1.057 l0.334 -0.578 l1.005 -0.371 V6.175 Z M9.023 8.146 A1.481 1.481 0 1 1 10.5 6.665 A1.481 1.481 0 0 1 9.023 8.146 Z" style="fill:white;" />​
</svg>