<?xml version="1.0" encoding="utf-8"?><svg version="1.1" xmlns="http://www.w3.org/2000/svg" xmlns:xlink="http://www.w3.org/1999/xlink" xmlns:xml="http://www.w3.org/XML/1998/namespace" width="70" height="70" viewBox="0, 0, 18, 18" id="FxSymbol0-09c" class="" role="presentation" focusable="false" data-type="1"><g><title>Workspaces</title><circle cx="9" cy="9" r="8.5" style="fill:url(#0b4f8ff2-0e7b-4a25-b98d-91bc176911e1);" /><path d="M8.88 4.69 a0.753 0.753 0 0 0 -0.753 0.752 v3.694 a0.753 0.753 0 0 0 0.753 0.752 h3.693 a0.752 0.752 0 0 0 0.752 -0.752 V5.442 a0.752 0.752 0 0 0 -0.752 -0.752 Z m0.677 0.978 a0.451 0.451 0 0 0 -0.452 0.451 v2.339 a0.452 0.452 0 0 0 0.452 0.452 H11.9 a0.451 0.451 0 0 0 0.451 -0.452 V6.119 a0.451 0.451 0 0 0 -0.451 -0.451 Z" fill-rule="evenodd" style="fill:#7DE2FB;" /><path d="M4.675 7.5 a0.451 0.451 0 0 1 0.451 -0.451 h1.851 a0.451 0.451 0 0 1 0.451 0.451 v1.861 a0.451 0.451 0 0 1 -0.451 0.451 H5.126 a0.451 0.451 0 0 1 -0.451 -0.451 Z m0 3.508 a0.451 0.451 0 0 1 0.451 -0.451 h1.851 a0.451 0.451 0 0 1 0.451 0.451 v1.851 a0.451 0.451 0 0 1 -0.451 0.451 H5.126 a0.451 0.451 0 0 1 -0.451 -0.451 Z m3.452 -0.045 a0.451 0.451 0 0 1 0.452 -0.451 h1.85 a0.452 0.452 0 0 1 0.452 0.451 v1.851 a0.452 0.452 0 0 1 -0.452 0.451 h-1.85 a0.451 0.451 0 0 1 -0.452 -0.451 Z" class="msportalfx-svg-c01" style="fill:white;" /></g><defs><linearGradient x1="9" y1="17.5" x2="9" y2="0.5" gradientUnits="userSpaceOnUse" id="0b4f8ff2-0e7b-4a25-b98d-91bc176911e1"><stop offset="0%" stop-color="#005BA1" /><stop offset="16.8%" stop-color="#0063AE" /><stop offset="57.7%" stop-color="#0072CA" /><stop offset="81.5%" stop-color="#0078D4" /></linearGradient></defs></svg>