<?xml version="1.0" encoding="UTF-8"?>
<svg xmlns="http://www.w3.org/2000/svg" xmlns:xlink="http://www.w3.org/1999/xlink" width="70pt" height="70pt" viewBox="0 0 70 70" version="1.1">
<defs>
<filter id="alpha" filterUnits="objectBoundingBox" x="0%" y="0%" width="100%" height="100%">
  <feColorMatrix type="matrix" in="SourceGraphic" values="0 0 0 0 1 0 0 0 0 1 0 0 0 0 1 0 0 0 1 0"/>
</filter>
<mask id="mask0">
  <g filter="url(#alpha)">
<rect x="0" y="0" width="70" height="70" style="fill:rgb(0%,0%,0%);fill-opacity:0.2;stroke:none;"/>
  </g>
</mask>
<clipPath id="clip1">
  <rect x="0" y="0" width="70" height="70"/>
</clipPath>
<g id="surface5" clip-path="url(#clip1)">
<path style=" stroke:none;fill-rule:nonzero;fill:rgb(100%,100%,100%);fill-opacity:1;" d="M 65.816406 2.804688 C 65.800781 2.804688 65.785156 2.800781 65.773438 2.800781 L 3.804688 2.800781 C 1.699219 2.800781 0 4.683594 0 6.789063 L 0 50.644531 C 0 52.738281 1.699219 54.601563 3.804688 54.601563 L 5.28125 54.601563 Z M 65.816406 2.804688 "/>
</g>
<mask id="mask1">
  <g filter="url(#alpha)">
<rect x="0" y="0" width="70" height="70" style="fill:rgb(0%,0%,0%);fill-opacity:0.2;stroke:none;"/>
  </g>
</mask>
<clipPath id="clip2">
  <rect x="0" y="0" width="70" height="70"/>
</clipPath>
<g id="surface8" clip-path="url(#clip2)">
<path style=" stroke:none;fill-rule:nonzero;fill:rgb(0%,44.705882%,77.647059%);fill-opacity:1;" d="M 49.609375 43.394531 L 22.152344 41.183594 C 21.507813 41.132813 21 40.582031 21 39.933594 L 21 18.863281 C 21 18.210938 21.507813 17.664063 22.15625 17.609375 C 22.15625 17.609375 49.613281 15.398438 49.617188 15.398438 C 50.40625 15.398438 50.964844 15.960938 50.964844 16.652344 L 50.964844 42.144531 C 50.964844 42.484375 50.832031 42.796875 50.59375 43.035156 C 50.355469 43.269531 50.042969 43.398438 49.710938 43.398438 Z M 49.609375 43.394531 "/>
</g>
<mask id="mask2">
  <g filter="url(#alpha)">
<rect x="0" y="0" width="70" height="70" style="fill:rgb(0%,0%,0%);fill-opacity:0.8;stroke:none;"/>
  </g>
</mask>
<clipPath id="clip3">
  <rect x="0" y="0" width="70" height="70"/>
</clipPath>
<g id="surface11" clip-path="url(#clip3)">
<path style=" stroke:none;fill-rule:nonzero;fill:rgb(100%,100%,100%);fill-opacity:1;" d="M 35.980469 17.757813 L 35.980469 28.417969 L 49.707031 28.417969 L 49.707031 16.652344 Z M 35.980469 17.757813 "/>
</g>
<mask id="mask3">
  <g filter="url(#alpha)">
<rect x="0" y="0" width="70" height="70" style="fill:rgb(0%,0%,0%);fill-opacity:0.8;stroke:none;"/>
  </g>
</mask>
<clipPath id="clip4">
  <rect x="0" y="0" width="70" height="70"/>
</clipPath>
<g id="surface14" clip-path="url(#clip4)">
<path style=" stroke:none;fill-rule:nonzero;fill:rgb(100%,100%,100%);fill-opacity:1;" d="M 22.253906 18.863281 L 22.253906 28.417969 L 34.019531 28.417969 L 34.019531 17.914063 Z M 22.253906 18.863281 "/>
</g>
<mask id="mask4">
  <g filter="url(#alpha)">
<rect x="0" y="0" width="70" height="70" style="fill:rgb(0%,0%,0%);fill-opacity:0.8;stroke:none;"/>
  </g>
</mask>
<clipPath id="clip5">
  <rect x="0" y="0" width="70" height="70"/>
</clipPath>
<g id="surface17" clip-path="url(#clip5)">
<path style=" stroke:none;fill-rule:nonzero;fill:rgb(100%,100%,100%);fill-opacity:1;" d="M 35.980469 41.039063 L 35.980469 30.378906 L 49.707031 30.378906 L 49.707031 42.144531 Z M 35.980469 41.039063 "/>
</g>
<mask id="mask5">
  <g filter="url(#alpha)">
<rect x="0" y="0" width="70" height="70" style="fill:rgb(0%,0%,0%);fill-opacity:0.8;stroke:none;"/>
  </g>
</mask>
<clipPath id="clip6">
  <rect x="0" y="0" width="70" height="70"/>
</clipPath>
<g id="surface20" clip-path="url(#clip6)">
<path style=" stroke:none;fill-rule:nonzero;fill:rgb(100%,100%,100%);fill-opacity:1;" d="M 22.253906 39.933594 L 22.253906 30.378906 L 34.019531 30.378906 L 34.019531 40.882813 Z M 22.253906 39.933594 "/>
</g>
</defs>
<g id="surface1">
<path style=" stroke:none;fill-rule:nonzero;fill:rgb(47.843137%,47.843137%,47.843137%);fill-opacity:1;" d="M 46.199219 53.199219 L 26.980469 53.199219 C 29.289063 61.597656 26.1875 62.800781 12.601563 62.800781 L 12.601563 67.199219 L 58.800781 67.199219 L 58.800781 62.800781 C 45.214844 62.800781 43.882813 61.601563 46.191406 53.199219 "/>
<path style=" stroke:none;fill-rule:nonzero;fill:rgb(62.745098%,63.137255%,63.529412%);fill-opacity:1;" d="M 65.773438 2.800781 L 3.804688 2.800781 C 1.699219 2.800781 0.00390625 4.683594 0.00390625 6.785156 L 0.00390625 50.644531 C 0.00390625 52.738281 1.699219 54.597656 3.804688 54.597656 L 65.773438 54.597656 C 67.875 54.597656 70 52.738281 70 50.644531 L 70 6.785156 C 70 4.675781 67.875 2.800781 65.773438 2.800781 "/>
<use xlink:href="#surface5" mask="url(#mask0)"/>
<path style=" stroke:none;fill-rule:nonzero;fill:rgb(34.901961%,70.588235%,85.098039%);fill-opacity:1;" d="M 64.398438 8.398438 L 64.398438 49 L 5.601563 49 L 5.601563 8.398438 Z M 64.398438 8.398438 "/>
<path style=" stroke:none;fill-rule:nonzero;fill:rgb(62.745098%,63.137255%,63.529412%);fill-opacity:1;" d="M 12.601563 63 L 58.800781 63 L 58.800781 67.199219 L 12.601563 67.199219 Z M 12.601563 63 "/>
<path style=" stroke:none;fill-rule:nonzero;fill:rgb(72.156863%,83.137255%,19.607843%);fill-opacity:1;" d="M 35.726563 5.734375 C 35.726563 6.28125 35.28125 6.726563 34.730469 6.726563 C 34.179688 6.726563 33.738281 6.28125 33.738281 5.734375 C 33.738281 5.183594 34.179688 4.738281 34.730469 4.738281 C 35.28125 4.738281 35.726563 5.183594 35.726563 5.734375 "/>
<use xlink:href="#surface8" mask="url(#mask1)"/>
<use xlink:href="#surface11" mask="url(#mask2)"/>
<use xlink:href="#surface14" mask="url(#mask3)"/>
<use xlink:href="#surface17" mask="url(#mask4)"/>
<use xlink:href="#surface20" mask="url(#mask5)"/>
</g>
</svg>
