<?xml version="1.0" encoding="utf-8"?><svg version="1.1" xmlns="http://www.w3.org/2000/svg" xmlns:xlink="http://www.w3.org/1999/xlink" xmlns:xml="http://www.w3.org/XML/1998/namespace" width="70" height="70" viewBox="0, 0, 18, 18"><defs><linearGradient x1="8.995" y1="20.15" x2="8.995" y2="4.41" gradientUnits="userSpaceOnUse" gradientTransform="matrix(1, 0, 0, -1, 0, 20)" id="b69ababe-e937-4f39-8a39-d79eeae889d9"><stop offset="0%" stop-color="#5EA0EF" /><stop offset="100%" stop-color="#0078D4" /></linearGradient></defs><path d="M1 1.65 H17 a0.5 0.5 0 0 1 0.51 0.46 v11.1 a0.49 0.49 0 0 1 -0.51 0.46 H1 a0.5 0.5 0 0 1 -0.52 -0.46 V2.13 A0.5 0.5 0 0 1 1 1.65 Z" style="fill:url(#b69ababe-e937-4f39-8a39-d79eeae889d9);" /><path d="M11.87 8.34 l2.66 1.54 l2.67 1.53 a0.159 0.159 0 0 1 0.049 0.221 a0.153 0.153 0 0 1 -0.049 0.049 l-1.78 1 l1.27 2.18 a0.88 0.88 0 0 1 -0.32 1.19 l-0.26 0.15 a0.87 0.87 0 0 1 -1.19 -0.31 l-1.27 -2.2 l-1.77 1 a0.15 0.15 0 0 1 -0.23 -0.14 V8.48 a0.161 0.161 0 0 1 0.168 -0.152 A0.158 0.158 0 0 1 11.87 8.34 Z" style="fill:#50E6FF;" /><path d="M7.6 3.32 h2.88 a0.14 0.14 0 0 1 0.14 0.14 h0 v3 a0.13 0.13 0 0 1 -0.13 0.13 H7.66 a0.14 0.14 0 0 1 -0.14 -0.14 v-3 a0.129 0.129 0 0 1 0.09 -0.13 Z" style="fill:white;" /><path d="M7.6 8.15 h2.88 a0.151 0.151 0 0 1 0.14 0.14 v3 a0.13 0.13 0 0 1 -0.13 0.13 H7.66 a0.14 0.14 0 0 1 -0.14 -0.14 h0 v-3 a0.129 0.129 0 0 1 0.09 -0.13 Z m5.3 -4.83 h2.88 a0.14 0.14 0 0 1 0.14 0.14 h0 v3 a0.13 0.13 0 0 1 -0.13 0.13 H12.95 a0.14 0.14 0 0 1 -0.14 -0.14 h0 v-3 A0.129 0.129 0 0 1 12.9 3.32 Z" style="fill:#83B9F9;" /><path d="M2.56 8.15 H5.44 a0.151 0.151 0 0 1 0.14 0.14 v3 a0.13 0.13 0 0 1 -0.13 0.13 H2.62 a0.14 0.14 0 0 1 -0.14 -0.14 h0 v-3 a0.129 0.129 0 0 1 0.09 -0.13 Z" style="fill:white;" /><path d="M2.56 3.32 H5.44 a0.151 0.151 0 0 1 0.14 0.14 v3 a0.13 0.13 0 0 1 -0.13 0.13 H2.62 a0.14 0.14 0 0 1 -0.14 -0.14 h0 v-3 a0.129 0.129 0 0 1 0.09 -0.13 Z" style="fill:white;" /></svg>