<?xml version="1.0" encoding="UTF-8"?>
<svg xmlns="http://www.w3.org/2000/svg" xmlns:xlink="http://www.w3.org/1999/xlink" width="70pt" height="70pt" viewBox="0 0 70 70" version="1.1">
<defs>
<linearGradient id="linear0" gradientUnits="userSpaceOnUse" x1="12.74" y1="15.28" x2="12.74" y2="8.52" gradientTransform="matrix(3.888889,0,0,3.888889,0,0)">
<stop offset="0" style="stop-color:rgb(0%,47.058824%,83.137255%);stop-opacity:1;"/>
<stop offset="0.82" style="stop-color:rgb(36.862745%,62.745098%,93.72549%);stop-opacity:1;"/>
</linearGradient>
<linearGradient id="linear1" gradientUnits="userSpaceOnUse" x1="12.74" y1="17.89" x2="12.74" y2="15.28" gradientTransform="matrix(3.888889,0,0,3.888889,0,0)">
<stop offset="0.15" style="stop-color:rgb(80%,80%,80%);stop-opacity:1;"/>
<stop offset="1" style="stop-color:rgb(43.921569%,43.921569%,43.921569%);stop-opacity:1;"/>
</linearGradient>
</defs>
<g id="surface1">
<path style=" stroke:none;fill-rule:nonzero;fill:rgb(0%,35.686275%,63.137255%);fill-opacity:1;" d="M 4.394531 3.460938 L 41.066406 3.460938 C 41.796875 3.460938 42.390625 4.054688 42.390625 4.785156 L 42.390625 28.390625 C 42.390625 29.117188 41.796875 29.710938 41.066406 29.710938 L 4.394531 29.710938 C 3.664063 29.710938 3.070313 29.117188 3.070313 28.390625 L 3.070313 4.785156 C 3.070313 4.054688 3.664063 3.460938 4.394531 3.460938 Z M 4.394531 3.460938 "/>
<path style=" stroke:none;fill-rule:nonzero;fill:rgb(31.372549%,90.196078%,100%);fill-opacity:1;" d="M 29.285156 12.753906 L 29.285156 20.417969 L 22.75 24.226563 L 22.75 16.605469 Z M 29.285156 12.753906 "/>
<path style=" stroke:none;fill-rule:nonzero;fill:rgb(76.470588%,94.509804%,100%);fill-opacity:1;" d="M 29.285156 12.753906 L 22.75 16.605469 L 16.179688 12.753906 L 22.75 8.90625 Z M 29.285156 12.753906 "/>
<path style=" stroke:none;fill-rule:nonzero;fill:rgb(61.176471%,92.156863%,100%);fill-opacity:1;" d="M 22.75 16.605469 L 22.75 24.226563 L 16.179688 20.417969 L 16.179688 12.753906 Z M 22.75 16.605469 "/>
<path style=" stroke:none;fill-rule:nonzero;fill:rgb(0%,47.058824%,83.137255%);fill-opacity:1;" d="M 19.832031 18.511719 L 56.503906 18.511719 C 57.234375 18.511719 57.828125 19.101563 57.828125 19.832031 L 57.828125 43.4375 C 57.828125 44.167969 57.234375 44.761719 56.503906 44.761719 L 19.832031 44.761719 C 19.101563 44.761719 18.511719 44.167969 18.511719 43.4375 L 18.511719 19.832031 C 18.511719 19.101563 19.101563 18.511719 19.832031 18.511719 Z M 19.832031 18.511719 "/>
<path style=" stroke:none;fill-rule:nonzero;fill:rgb(31.372549%,90.196078%,100%);fill-opacity:1;" d="M 44.722656 27.84375 L 44.722656 35.464844 L 38.1875 39.316406 L 38.1875 31.65625 Z M 44.722656 27.84375 "/>
<path style=" stroke:none;fill-rule:nonzero;fill:rgb(76.470588%,94.509804%,100%);fill-opacity:1;" d="M 44.722656 27.84375 L 38.1875 31.65625 L 31.617188 27.84375 L 38.1875 23.996094 Z M 44.722656 27.84375 "/>
<path style=" stroke:none;fill-rule:nonzero;fill:rgb(61.176471%,92.156863%,100%);fill-opacity:1;" d="M 38.1875 31.65625 L 38.1875 39.316406 L 31.617188 35.464844 L 31.617188 27.84375 Z M 38.1875 31.65625 "/>
<path style=" stroke:none;fill-rule:nonzero;fill:url(#linear0);" d="M 31.1875 33.132813 L 67.859375 33.132813 C 68.589844 33.132813 69.183594 33.726563 69.183594 34.457031 L 69.183594 58.0625 C 69.183594 58.792969 68.589844 59.382813 67.859375 59.382813 L 31.1875 59.382813 C 30.457031 59.382813 29.867188 58.792969 29.867188 58.0625 L 29.867188 34.457031 C 29.867188 33.726563 30.457031 33.132813 31.1875 33.132813 Z M 31.1875 33.132813 "/>
<path style=" stroke:none;fill-rule:nonzero;fill:rgb(31.372549%,90.196078%,100%);fill-opacity:1;" d="M 56.078125 42.464844 L 56.078125 50.089844 L 49.542969 53.9375 L 49.542969 46.277344 Z M 56.078125 42.464844 "/>
<path style=" stroke:none;fill-rule:nonzero;fill:rgb(76.470588%,94.509804%,100%);fill-opacity:1;" d="M 56.078125 42.464844 L 49.542969 46.316406 L 42.972656 42.464844 L 49.542969 38.617188 Z M 56.078125 42.464844 "/>
<path style=" stroke:none;fill-rule:nonzero;fill:rgb(61.176471%,92.156863%,100%);fill-opacity:1;" d="M 49.542969 46.316406 L 49.542969 53.9375 L 42.972656 50.089844 L 42.972656 42.464844 Z M 49.542969 46.316406 "/>
<path style=" stroke:none;fill-rule:nonzero;fill:rgb(76.470588%,94.509804%,100%);fill-opacity:1;" d="M 42.972656 50.089844 L 49.542969 46.277344 L 49.542969 53.9375 Z M 42.972656 50.089844 "/>
<path style=" stroke:none;fill-rule:nonzero;fill:rgb(61.176471%,92.156863%,100%);fill-opacity:1;" d="M 56.078125 50.089844 L 49.542969 46.277344 L 49.542969 53.9375 Z M 56.078125 50.089844 "/>
<path style=" stroke:none;fill-rule:nonzero;fill:url(#linear1);" d="M 57.398438 67.355469 C 53.511719 66.734375 53.511719 63.933594 53.511719 59.578125 L 45.734375 59.578125 C 45.734375 64.089844 45.734375 66.890625 41.84375 67.355469 C 40.746094 67.523438 39.925781 68.460938 39.898438 69.570313 L 59.34375 69.570313 C 59.320313 68.460938 58.5 67.523438 57.398438 67.355469 Z M 57.398438 67.355469 "/>
</g>
</svg>
