<?xml version="1.0" encoding="UTF-8"?>
<svg xmlns="http://www.w3.org/2000/svg" xmlns:xlink="http://www.w3.org/1999/xlink" width="70pt" height="70pt" viewBox="0 0 70 70" version="1.1">
<defs>
<linearGradient id="linear0" gradientUnits="userSpaceOnUse" x1="8.929" y1="7.745" x2="8.929" y2="0.5" gradientTransform="matrix(3.888889,0,0,3.888889,0,0)">
<stop offset="0" style="stop-color:rgb(45,165,255);stop-opacity:1;"/>
<stop offset="0.565" style="stop-color:rgb(85,182,255);stop-opacity:1;"/>
<stop offset="0.908" style="stop-color:rgb(101,189,255);stop-opacity:1;"/>
</linearGradient>
</defs>
<g id="surface1">
<path style=" stroke:none;fill-rule:nonzero;fill:rgb(0,135,236);fill-opacity:1;" d="M 59.636719 46.546875 L 64.007813 46.546875 C 64.390625 46.546875 64.703125 46.859375 64.703125 47.242188 L 64.703125 62.253906 L 58.941406 62.253906 L 58.941406 47.242188 C 58.941406 46.859375 59.25 46.546875 59.636719 46.546875 Z M 59.636719 46.546875 "/>
<path style=" stroke:none;fill-rule:nonzero;fill:rgb(0,135,236);fill-opacity:1;" d="M 5.996094 46.921875 L 10.554688 46.921875 C 10.941406 46.921875 11.253906 47.238281 11.253906 47.625 L 11.253906 62.257813 L 5.296875 62.257813 L 5.296875 47.621094 C 5.296875 47.234375 5.613281 46.921875 5.996094 46.921875 Z M 5.996094 46.921875 "/>
<path style=" stroke:none;fill-rule:nonzero;fill:rgb(41,164,255);fill-opacity:1;" d="M 5.296875 66.160156 L 5.296875 62.273438 L 64.703125 62.273438 L 64.703125 66.160156 C 64.703125 67.207031 63.855469 68.054688 62.808594 68.054688 L 7.179688 68.054688 C 6.136719 68.050781 5.296875 67.203125 5.296875 66.160156 Z M 5.296875 66.160156 "/>
<path style=" stroke:none;fill-rule:nonzero;fill:rgb(0,108,188);fill-opacity:1;" d="M 15.878906 28.292969 L 24.15625 28.292969 C 24.964844 28.292969 25.617188 28.945313 25.617188 29.75 L 25.617188 56.988281 C 25.617188 57.792969 24.964844 58.445313 24.15625 58.445313 L 15.878906 58.445313 C 15.074219 58.445313 14.421875 57.792969 14.421875 56.988281 L 14.421875 29.75 C 14.421875 28.945313 15.074219 28.292969 15.878906 28.292969 Z M 15.878906 28.292969 "/>
<path style=" stroke:none;fill-rule:nonzero;fill:rgb(0,108,188);fill-opacity:1;" d="M 30.820313 28.292969 L 39.097656 28.292969 C 39.90625 28.292969 40.558594 28.945313 40.558594 29.75 L 40.558594 56.988281 C 40.558594 57.792969 39.90625 58.445313 39.097656 58.445313 L 30.820313 58.445313 C 30.015625 58.445313 29.359375 57.792969 29.359375 56.988281 L 29.359375 29.75 C 29.359375 28.945313 30.015625 28.292969 30.820313 28.292969 Z M 30.820313 28.292969 "/>
<path style=" stroke:none;fill-rule:nonzero;fill:rgb(45,165,255);fill-opacity:1;" d="M 45.757813 28.292969 L 54.035156 28.292969 C 54.839844 28.292969 55.496094 28.945313 55.496094 29.75 L 55.496094 56.988281 C 55.496094 57.792969 54.839844 58.445313 54.035156 58.445313 L 45.757813 58.445313 C 44.953125 58.445313 44.296875 57.792969 44.296875 56.988281 L 44.296875 29.75 C 44.296875 28.945313 44.953125 28.292969 45.757813 28.292969 Z M 45.757813 28.292969 "/>
<path style=" stroke:none;fill-rule:nonzero;fill:url(#linear0);" d="M 54.832031 13.6875 L 43.28125 2.121094 C 43.109375 1.953125 42.859375 1.902344 42.636719 1.992188 C 42.417969 2.082031 42.273438 2.296875 42.273438 2.535156 L 42.273438 9.277344 C 28.347656 9.277344 14.421875 16.71875 14.421875 30.121094 C 16.410156 27.132813 26.359375 19.1875 42.273438 19.1875 L 42.273438 25.667969 C 42.273438 25.90625 42.417969 26.117188 42.636719 26.210938 C 42.859375 26.300781 43.109375 26.25 43.28125 26.082031 L 54.832031 14.519531 C 54.945313 14.410156 55.007813 14.261719 55.007813 14.105469 C 55.007813 13.949219 54.945313 13.796875 54.832031 13.6875 Z M 54.832031 13.6875 "/>
</g>
</svg>
