<?xml version="1.0" encoding="UTF-8"?>
<svg xmlns="http://www.w3.org/2000/svg" xmlns:xlink="http://www.w3.org/1999/xlink" width="70pt" height="70pt" viewBox="0 0 70 70" version="1.1">
<defs>
<linearGradient id="linear0" gradientUnits="userSpaceOnUse" x1="-175.993" y1="-343.723" x2="-175.993" y2="-359.232" gradientTransform="matrix(4.495556,0,0,4.001667,826.672778,1441.02)">
<stop offset="0" style="stop-color:rgb(93,186,255);stop-opacity:1;"/>
<stop offset="0.284" style="stop-color:rgb(97,187,255);stop-opacity:1;"/>
<stop offset="0.547" style="stop-color:rgb(109,193,255);stop-opacity:1;"/>
<stop offset="0.8" style="stop-color:rgb(131,202,255);stop-opacity:1;"/>
<stop offset="1" style="stop-color:rgb(153,211,255);stop-opacity:1;"/>
</linearGradient>
</defs>
<g id="surface1">
<path style=" stroke:none;fill-rule:nonzero;fill:rgb(119,197,255);fill-opacity:1;" d="M 21.546875 50.964844 L 19.265625 53.25 C 18.863281 53.65625 18.203125 53.65625 17.796875 53.25 L 0.867188 36.371094 C 0.0585938 35.5625 0.0546875 34.25 0.863281 33.4375 L 3.15625 31.140625 L 21.554688 49.488281 C 21.960938 49.894531 21.960938 50.550781 21.558594 50.957031 Z M 21.546875 50.964844 "/>
<path style=" stroke:none;fill-rule:nonzero;fill:rgb(0,132,230);fill-opacity:1;" d="M 18.914063 16.742188 L 21.207031 19.027344 C 21.613281 19.433594 21.613281 20.089844 21.210938 20.496094 L 3.132813 38.625 L 0.835938 36.335938 C 0.0234375 35.527344 0.0234375 34.214844 0.832031 33.402344 L 17.449219 16.738281 C 17.855469 16.335938 18.507813 16.339844 18.914063 16.742188 Z M 18.914063 16.742188 "/>
<path style=" stroke:none;fill-rule:nonzero;fill:rgb(119,197,255);fill-opacity:1;" d="M 66.847656 31.15625 L 69.136719 33.453125 C 69.945313 34.261719 69.941406 35.574219 69.132813 36.382813 L 52.203125 53.265625 C 51.796875 53.667969 51.136719 53.667969 50.734375 53.261719 L 48.457031 50.980469 C 48.050781 50.574219 48.054688 49.917969 48.460938 49.511719 L 66.855469 31.164063 Z M 66.847656 31.15625 "/>
<path style=" stroke:none;fill-rule:nonzero;fill:rgb(0,132,230);fill-opacity:1;" d="M 69.152344 36.324219 L 66.859375 38.613281 L 48.78125 20.484375 C 48.375 20.078125 48.378906 19.421875 48.785156 19.015625 L 51.078125 16.730469 C 51.484375 16.324219 52.140625 16.324219 52.546875 16.730469 L 69.164063 33.394531 C 69.972656 34.207031 69.972656 35.519531 69.160156 36.328125 Z M 69.152344 36.324219 "/>
<path style=" stroke:none;fill-rule:nonzero;fill:url(#linear0);" d="M 32.894531 38.5 L 18.9375 38.5 C 18.53125 38.515625 18.1875 38.203125 18.160156 37.796875 C 18.160156 37.695313 18.183594 37.59375 18.230469 37.503906 L 34.964844 4.394531 C 35.109375 4.132813 35.390625 3.972656 35.6875 3.980469 L 52.195313 3.980469 C 52.605469 3.964844 52.949219 4.277344 52.972656 4.6875 C 52.972656 4.828125 52.925781 4.964844 52.839844 5.074219 L 33.1875 30.980469 L 52.351563 30.980469 C 52.757813 30.964844 53.105469 31.277344 53.128906 31.683594 C 53.128906 31.859375 53.054688 32.03125 52.929688 32.15625 L 21.082031 65.285156 C 20.78125 65.464844 18.65625 67.230469 19.695313 64.550781 Z M 32.894531 38.5 "/>
</g>
</svg>
