<?xml version="1.0" encoding="UTF-8"?>
<svg xmlns="http://www.w3.org/2000/svg" xmlns:xlink="http://www.w3.org/1999/xlink" width="70pt" height="70pt" viewBox="0 0 70 70" version="1.1">
<defs>
<radialGradient id="radial0" gradientUnits="userSpaceOnUse" cx="8.38" cy="445.94" fx="8.38" fy="445.94" r="4.05" gradientTransform="matrix(3.888889,0,0,6.183333,0,-2741.627778)">
<stop offset="0" style="stop-color:rgb(36.862745%,62.745098%,93.72549%);stop-opacity:1;"/>
<stop offset="0.11" style="stop-color:rgb(31.764706%,60.392157%,92.156863%);stop-opacity:1;"/>
<stop offset="0.51" style="stop-color:rgb(14.509804%,53.333333%,87.45098%);stop-opacity:1;"/>
<stop offset="0.82" style="stop-color:rgb(3.921569%,48.627451%,84.313725%);stop-opacity:1;"/>
<stop offset="1" style="stop-color:rgb(0%,47.058824%,83.137255%);stop-opacity:1;"/>
</radialGradient>
<filter id="alpha" filterUnits="objectBoundingBox" x="0%" y="0%" width="100%" height="100%">
  <feColorMatrix type="matrix" in="SourceGraphic" values="0 0 0 0 1 0 0 0 0 1 0 0 0 0 1 0 0 0 1 0"/>
</filter>
<mask id="mask0">
  <g filter="url(#alpha)">
<rect x="0" y="0" width="70" height="70" style="fill:rgb(0%,0%,0%);fill-opacity:0.74902;stroke:none;"/>
  </g>
</mask>
<clipPath id="clip1">
  <rect x="0" y="0" width="70" height="70"/>
</clipPath>
<g id="surface5" clip-path="url(#clip1)">
<path style=" stroke:none;fill-rule:nonzero;fill:rgb(76.470588%,94.509804%,100%);fill-opacity:1;" d="M 49.195313 58.722656 C 49.390625 58.910156 49.699219 58.910156 49.894531 58.722656 C 49.933594 58.621094 49.933594 58.511719 49.894531 58.410156 L 49.894531 49.660156 C 49.875 49.492188 49.789063 49.339844 49.660156 49.234375 C 49.472656 49.070313 49.191406 49.070313 49 49.234375 C 48.953125 49.316406 48.953125 49.421875 49 49.503906 L 49 58.332031 C 48.988281 58.488281 49.0625 58.636719 49.195313 58.722656 Z M 49.195313 58.722656 "/>
</g>
<mask id="mask1">
  <g filter="url(#alpha)">
<rect x="0" y="0" width="70" height="70" style="fill:rgb(0%,0%,0%);fill-opacity:0.74902;stroke:none;"/>
  </g>
</mask>
<clipPath id="clip2">
  <rect x="0" y="0" width="70" height="70"/>
</clipPath>
<g id="surface8" clip-path="url(#clip2)">
<path style=" stroke:none;fill-rule:nonzero;fill:rgb(76.470588%,94.509804%,100%);fill-opacity:1;" d="M 46.121094 38.070313 L 56.117188 38.070313 C 56.460938 38.070313 56.738281 38.351563 56.738281 38.695313 L 56.738281 38.773438 C 56.738281 39.117188 56.460938 39.394531 56.117188 39.394531 L 46.121094 39.394531 C 45.777344 39.394531 45.5 39.117188 45.5 38.773438 L 45.5 38.695313 C 45.5 38.351563 45.777344 38.070313 46.121094 38.070313 Z M 46.121094 38.070313 "/>
</g>
<mask id="mask2">
  <g filter="url(#alpha)">
<rect x="0" y="0" width="70" height="70" style="fill:rgb(0%,0%,0%);fill-opacity:0.74902;stroke:none;"/>
  </g>
</mask>
<clipPath id="clip3">
  <rect x="0" y="0" width="70" height="70"/>
</clipPath>
<g id="surface11" clip-path="url(#clip3)">
<path style=" stroke:none;fill-rule:nonzero;fill:rgb(76.470588%,94.509804%,100%);fill-opacity:1;" d="M 46.121094 40.25 L 56.117188 40.25 C 56.460938 40.25 56.738281 40.527344 56.738281 40.871094 L 56.738281 40.949219 C 56.738281 41.292969 56.460938 41.570313 56.117188 41.570313 L 46.121094 41.570313 C 45.777344 41.570313 45.5 41.292969 45.5 40.949219 L 45.5 40.871094 C 45.5 40.527344 45.777344 40.25 46.121094 40.25 Z M 46.121094 40.25 "/>
</g>
</defs>
<g id="surface1">
<path style=" stroke:none;fill-rule:nonzero;fill:rgb(0%,47.058824%,83.137255%);fill-opacity:1;" d="M 8.246094 1.945313 L 15.945313 1.945313 L 15.945313 4.160156 L 8.246094 4.160156 Z M 64.632813 4.160156 L 65.878906 4.160156 L 65.878906 5.328125 L 68.015625 5.328125 L 68.015625 1.945313 L 64.632813 1.945313 Z M 5.445313 65.722656 L 4.355469 65.722656 L 4.355469 64.476563 L 1.945313 64.476563 L 1.945313 68.09375 L 5.445313 68.09375 Z M 65.917969 64.554688 L 65.917969 65.722656 L 64.671875 65.722656 L 64.671875 68.054688 L 68.054688 68.054688 L 68.054688 64.554688 Z M 4.394531 5.289063 L 4.394531 4.121094 L 5.484375 4.121094 L 5.484375 1.945313 L 1.945313 1.945313 L 1.945313 5.289063 Z M 19.714844 1.945313 L 27.378906 1.945313 L 27.378906 4.160156 L 19.714844 4.160156 Z M 31.109375 1.945313 L 38.773438 1.945313 L 38.773438 4.160156 L 31.109375 4.160156 Z M 42.621094 1.945313 L 50.285156 1.945313 L 50.285156 4.160156 L 42.621094 4.160156 Z M 54.054688 1.945313 L 61.714844 1.945313 L 61.714844 4.160156 L 54.054688 4.160156 Z M 8.320313 65.722656 L 15.945313 65.722656 L 15.945313 67.9375 L 8.320313 67.9375 Z M 19.753906 65.722656 L 27.417969 65.722656 L 27.417969 67.9375 L 19.753906 67.9375 Z M 31.226563 65.722656 L 38.890625 65.722656 L 38.890625 67.9375 L 31.226563 67.9375 Z M 42.699219 65.722656 L 50.359375 65.722656 L 50.359375 67.9375 L 42.699219 67.9375 Z M 54.132813 65.722656 L 61.792969 65.722656 L 61.792969 67.9375 L 54.132813 67.9375 Z M 65.800781 7.972656 L 68.015625 7.972656 L 68.015625 15.632813 L 65.800781 15.632813 Z M 65.800781 19.445313 L 68.015625 19.445313 L 68.015625 27.105469 L 65.800781 27.105469 Z M 65.800781 30.878906 L 68.015625 30.878906 L 68.015625 38.5 L 65.800781 38.5 Z M 65.800781 42.3125 L 68.015625 42.3125 L 68.015625 49.972656 L 65.800781 49.972656 Z M 65.800781 53.785156 L 68.015625 53.785156 L 68.015625 61.445313 L 65.800781 61.445313 Z M 1.945313 7.894531 L 4.160156 7.894531 L 4.160156 15.554688 L 1.945313 15.554688 Z M 1.945313 19.367188 L 4.160156 19.367188 L 4.160156 27.027344 L 1.945313 27.027344 Z M 1.945313 30.800781 L 4.160156 30.800781 L 4.160156 38.5 L 1.945313 38.5 Z M 1.945313 42.273438 L 4.160156 42.273438 L 4.160156 49.933594 L 1.945313 49.933594 Z M 1.945313 53.667969 L 4.160156 53.667969 L 4.160156 61.328125 L 1.945313 61.328125 Z M 1.945313 53.667969 "/>
<path style=" stroke:none;fill-rule:nonzero;fill:rgb(46.27451%,73.72549%,17.647059%);fill-opacity:1;" d="M 40.054688 42.777344 C 37.808594 40.503906 37.808594 36.84375 40.054688 34.570313 L 43.011719 31.617188 C 39.601563 30.859375 36.121094 30.480469 32.628906 30.488281 C 20.6875 30.488281 11.042969 34.378906 11.042969 39.355469 C 11.042969 44.332031 20.609375 48.222656 32.589844 48.222656 C 36.4375 48.183594 40.265625 47.660156 43.984375 46.667969 Z M 40.054688 42.777344 "/>
<path style=" stroke:none;fill-rule:nonzero;fill:url(#radial0);" d="M 54.132813 19.640625 C 54.132813 14.742188 44.488281 10.773438 32.589844 10.773438 C 20.691406 10.773438 11.042969 14.742188 11.042969 19.640625 C 11.042969 24.535156 20.691406 28.503906 32.589844 28.503906 C 44.488281 28.503906 54.132813 24.535156 54.132813 19.640625 Z M 54.132813 19.640625 "/>
<path style=" stroke:none;fill-rule:nonzero;fill:rgb(0%,35.686275%,63.137255%);fill-opacity:1;" d="M 40.25 19.523438 C 40.25 18.449219 37.046875 17.578125 33.09375 17.578125 C 29.140625 17.578125 25.9375 18.449219 25.9375 19.523438 C 25.9375 20.597656 29.140625 21.464844 33.09375 21.464844 C 37.046875 21.464844 40.25 20.597656 40.25 19.523438 Z M 40.25 19.523438 "/>
<path style=" stroke:none;fill-rule:nonzero;fill:rgb(0%,47.058824%,83.137255%);fill-opacity:1;" d="M 60.589844 41.417969 C 61.347656 40.683594 61.777344 39.671875 61.777344 38.617188 C 61.777344 37.558594 61.347656 36.550781 60.589844 35.816406 L 53.746094 28.933594 C 53.011719 28.171875 52 27.742188 50.945313 27.742188 C 49.886719 27.742188 48.878906 28.171875 48.144531 28.933594 L 41.300781 35.777344 C 40.539063 36.511719 40.109375 37.523438 40.109375 38.578125 C 40.109375 39.632813 40.539063 40.644531 41.300781 41.378906 L 47.015625 47.210938 C 47.207031 47.425781 47.316406 47.703125 47.328125 47.988281 L 47.328125 58.605469 C 47.332031 58.953125 47.472656 59.289063 47.714844 59.539063 L 50.320313 62.144531 C 50.683594 62.484375 51.246094 62.484375 51.605469 62.144531 L 55.570313 58.179688 C 55.765625 57.96875 55.765625 57.648438 55.570313 57.4375 L 54.40625 56.351563 C 54.289063 56.253906 54.222656 56.113281 54.222656 55.960938 C 54.222656 55.8125 54.289063 55.667969 54.40625 55.570313 L 55.457031 54.484375 C 55.648438 54.273438 55.648438 53.953125 55.457031 53.746094 L 54.40625 52.695313 C 54.289063 52.589844 54.222656 52.441406 54.222656 52.285156 C 54.222656 52.128906 54.289063 51.980469 54.40625 51.878906 L 55.457031 50.828125 C 55.648438 50.621094 55.648438 50.296875 55.457031 50.089844 L 53.976563 48.535156 L 53.976563 48.027344 Z M 50.945313 30.605469 C 51.851563 30.394531 52.792969 30.761719 53.316406 31.53125 C 53.839844 32.296875 53.839844 33.308594 53.316406 34.074219 C 52.792969 34.84375 51.851563 35.210938 50.945313 35 C 49.699219 35 48.6875 33.988281 48.6875 32.746094 C 48.6875 31.5 49.699219 30.488281 50.945313 30.488281 Z M 50.945313 30.605469 "/>
<path style=" stroke:none;fill-rule:nonzero;fill:rgb(0%,47.058824%,83.137255%);fill-opacity:1;" d="M 46.859375 27.609375 C 47.894531 26.570313 49.285156 25.957031 50.75 25.898438 C 51.625 25.914063 52.484375 26.113281 53.277344 26.484375 C 53.628906 25.914063 53.855469 25.277344 53.9375 24.617188 L 53.9375 19.445313 C 53.9375 24.304688 44.292969 28.273438 32.394531 28.273438 C 20.496094 28.273438 11.003906 24.382813 11.003906 19.445313 L 11.003906 24.34375 C 11.003906 29.246094 20.648438 33.210938 32.589844 33.210938 C 35.828125 33.21875 39.058594 32.90625 42.234375 32.277344 Z M 46.859375 27.609375 "/>
<use xlink:href="#surface5" mask="url(#mask0)"/>
<use xlink:href="#surface8" mask="url(#mask1)"/>
<use xlink:href="#surface11" mask="url(#mask2)"/>
<path style=" stroke:none;fill-rule:nonzero;fill:rgb(36.862745%,58.823529%,14.117647%);fill-opacity:1;" d="M 45.5 48.300781 L 43.867188 46.667969 C 40.171875 47.558594 36.386719 48 32.589844 47.988281 C 20.648438 47.988281 11.003906 44.101563 11.003906 39.121094 L 11.003906 44.0625 C 11.003906 48.960938 20.648438 52.929688 32.589844 52.929688 C 36.957031 52.953125 41.304688 52.351563 45.5 51.140625 Z M 38.382813 37.878906 C 36.660156 37.410156 34.878906 37.1875 33.09375 37.214844 C 29.207031 37.214844 25.9375 38.109375 25.9375 39.160156 C 25.9375 40.210938 29.167969 41.105469 33.09375 41.105469 C 34.972656 41.136719 36.847656 40.886719 38.65625 40.367188 C 38.390625 39.550781 38.296875 38.691406 38.382813 37.839844 Z M 38.382813 37.878906 "/>
</g>
</svg>
