<?xml version="1.0" encoding="utf-8"?><svg version="1.1" xmlns="http://www.w3.org/2000/svg" xmlns:xlink="http://www.w3.org/1999/xlink" xmlns:xml="http://www.w3.org/XML/1998/namespace" width="70" height="70" viewBox="0, 0, 18, 18"><defs><radialGradient cx="1848.536" cy="3347.483" r="50.267" gradientUnits="userSpaceOnUse" gradientTransform="translate(-269.742, -494.591) scale(0.15)" id="a827c3ba-f052-4b7c-a800-1673f7d95a11"><stop offset="18.3%" stop-color="#29A4FF" /><stop offset="100%" stop-color="#006CBC" /></radialGradient><linearGradient x1="3.459" y1="9.738" x2="3.431" y2="6.226" gradientUnits="userSpaceOnUse" id="a36e93a1-a936-4449-a50b-45ff03cebe42"><stop offset="0%" stop-color="#99D3FF" /><stop offset="12.3%" stop-color="#ADDCFF" /><stop offset="100%" stop-color="#F9FCFF" /></linearGradient><linearGradient x1="8.547" y1="13.251" x2="8.547" y2="10.102" gradientUnits="userSpaceOnUse" id="f7a672b0-856f-4d8f-b76e-13076a124f7f"><stop offset="0%" stop-color="#99D3FF" /><stop offset="12.3%" stop-color="#ADDCFF" /><stop offset="100%" stop-color="#F9FCFF" /></linearGradient><linearGradient x1="13.196" y1="8.878" x2="13.296" y2="18.078" gradientUnits="userSpaceOnUse" id="e13ea1c7-f81c-4a74-8128-2b6420d44339"><stop offset="0%" stop-color="#4FB4FF" /><stop offset="32.1%" stop-color="#49B1FF" /><stop offset="100%" stop-color="#007CD8" /></linearGradient></defs><title>MsPortalFx.base.images-44</title><g id="a99e39f9-86cd-4c16-a9e4-92799fe7b8cd"><g><path d="M12.161 13.492 A7.54 7.54 0 1 1 2.92 1.576 L3 1.517 a7.54 7.54 0 0 1 9.165 11.975" id="a5e9263a-0c33-4427-acd3-f8e8fcf2fe7d" style="fill:url(#a827c3ba-f052-4b7c-a800-1673f7d95a11);" /><path d="M5.491 5.965 A11.539 11.539 0 0 1 13.4 2.788 a7.474 7.474 0 0 0 -1.319 -1.281 a12.775 12.775 0 0 0 -4.164 0.982 A11 11 0 0 0 4.3 4.986 A2.435 2.435 0 0 1 5.491 5.965 Z" opacity="0.6" style="fill:white;" /><path d="M1.757 8.994 a16.727 16.727 0 0 0 -0.741 2.327 a8.172 8.172 0 0 0 0.552 0.818 a7.434 7.434 0 0 0 0.491 0.574 A15.853 15.853 0 0 1 3.02 9.636 A2.423 2.423 0 0 1 1.757 8.994 Z" opacity="0.6" style="fill:white;" /><path d="M2.626 4.97 a10.587 10.587 0 0 1 -0.611 -2.612 a7.454 7.454 0 0 0 -0.977 1.293 a11.712 11.712 0 0 0 0.5 2.1 A2.429 2.429 0 0 1 2.626 4.97 Z" opacity="0.55" style="fill:#E5F3FF;" /><circle cx="3.439" cy="7.251" r="2.424" style="fill:url(#a36e93a1-a936-4449-a50b-45ff03cebe42);" /><g><path d="M6.972 11.677 a1.568 1.568 0 0 1 0.476 -1.126 A10.677 10.677 0 0 1 5.208 8.9 a2.413 2.413 0 0 1 -1.324 0.728 a10.513 10.513 0 0 0 1.287 1.14 a10.968 10.968 0 0 0 1.816 1.107 A1.489 1.489 0 0 1 6.972 11.677 Z" opacity="0.55" style="fill:#E5F3FF;" /><path d="M12.559 11.864 a10.583 10.583 0 0 1 -2.442 -0.284 c0 0.032 0 0.064 0 0.1 a1.568 1.568 0 0 1 -0.448 1.1 a12.242 12.242 0 0 0 3.026 0.216 A7.486 7.486 0 0 0 13.72 11.8 A10.711 10.711 0 0 1 12.559 11.864 Z" opacity="0.55" style="fill:#E5F3FF;" /></g><circle cx="8.547" cy="11.677" r="1.575" style="fill:url(#f7a672b0-856f-4d8f-b76e-13076a124f7f);" /><path d="M10.484 7.469 a1.629 1.629 0 0 1 0.543 -0.876 A22.368 22.368 0 0 1 7.068 2.912 A15.137 15.137 0 0 1 5.308 0.321 a7.429 7.429 0 0 0 -0.966 0.371 A15.767 15.767 0 0 0 6.236 3.519 A23.43 23.43 0 0 0 10.484 7.469 Z" opacity="0.7" style="fill:#E5F3FF;" /><circle cx="12.136" cy="7.772" r="1.672" style="fill:white;" /><path d="M14.944 8.9 L14.66 8.75 l-0.027 -0.015 l-0.263 -0.142 l-0.048 -0.027 c-0.08 -0.043 -0.159 -0.087 -0.237 -0.131 L14.027 8.4 l-0.28 -0.159 a1.586 1.586 0 0 1 -0.564 0.82 c0.109 0.063 0.22 0.127 0.332 0.19 l0.075 0.042 l0.308 0.171 l0.03 0.017 c0.249 0.136 0.5 0.27 0.765 0.4 h0 a7.258 7.258 0 0 0 0.251 -0.988 Z" opacity="0.55" style="fill:#E5F3FF;" /><circle cx="3.439" cy="7.251" r="2.424" style="fill:white;" /><circle cx="8.547" cy="11.677" r="1.575" style="fill:white;" /><path d="M17.654 18.006 H8.927 c-0.278 0 -0.442 -0.444 -0.285 -0.673 l3.008 -4.384 a0.351 0.351 0 0 0 0.061 -0.2 v-2.9 a0.173 0.173 0 0 0 -0.173 -0.172 h-0.162 a0.346 0.346 0 0 1 -0.345 -0.345 V9.183 a0.346 0.346 0 0 1 0.345 -0.346 H15.2 a0.346 0.346 0 0 1 0.345 0.346 v0.156 a0.346 0.346 0 0 1 -0.345 0.345 h-0.162 a0.172 0.172 0 0 0 -0.172 0.172 v2.9 a0.345 0.345 0 0 0 0.06 0.2 l3.009 4.377 C18.1 17.562 17.932 18.006 17.654 18.006 Z" style="fill:url(#e13ea1c7-f81c-4a74-8128-2b6420d44339);" /><path d="M9.932 16.835 L12.217 13.5 a0.831 0.831 0 0 0 0.147 -0.472 V11.69 a0.265 0.265 0 0 1 0.265 -0.265 h1.3 a0.264 0.264 0 0 1 0.265 0.265 v1.433 a0.564 0.564 0 0 0 0.1 0.318 l2.334 3.394 a0.2 0.2 0 0 1 -0.165 0.312 H10.1 A0.2 0.2 0 0 1 9.932 16.835 Z" style="fill:white;" /><path d="M10.615 15.839 a4.272 4.272 0 0 1 3.832 -0.434 s0.836 0.468 1.134 -0.087 l1.079 1.5 a0.289 0.289 0 0 1 -0.234 0.457 h-6.32 a0.289 0.289 0 0 1 -0.23 -0.463 Z" style="fill:#49B1FF;" /></g></g></svg>