<?xml version="1.0" encoding="UTF-8"?>
<svg xmlns="http://www.w3.org/2000/svg" xmlns:xlink="http://www.w3.org/1999/xlink" width="70pt" height="64pt" viewBox="0 0 70 64" version="1.1">
<g id="surface1">
<path style=" stroke:none;fill-rule:nonzero;fill:rgb(0%,47.058824%,84.313725%);fill-opacity:1;" d="M 69.578125 29.9375 L 66.1875 26.578125 L 51.09375 12.039063 C 50.4375 11.390625 49.453125 11.390625 48.6875 12.039063 C 48.03125 12.691406 47.8125 13.882813 48.6875 14.535156 L 64.546875 29.9375 C 65.203125 30.589844 65.203125 31.78125 64.546875 32.433594 L 48.359375 48.378906 C 47.703125 49.03125 47.703125 50.222656 48.359375 50.875 C 49.015625 51.527344 50.21875 51.417969 50.765625 50.875 L 65.75 36.121094 C 65.75 36.121094 65.75 36.121094 65.859375 36.011719 L 69.578125 32.433594 C 70.234375 31.78125 70.125 30.589844 69.578125 29.9375 Z M 69.578125 29.9375 "/>
<path style=" stroke:none;fill-rule:nonzero;fill:rgb(0%,47.058824%,84.313725%);fill-opacity:1;" d="M 5.8125 32.433594 C 5.15625 31.78125 5.15625 30.589844 5.8125 29.9375 L 21.34375 14.535156 C 22.21875 13.882813 22 12.691406 21.34375 12.039063 C 20.578125 11.390625 19.59375 11.390625 18.9375 12.039063 L 3.84375 26.578125 L 0.453125 29.9375 C -0.09375 30.589844 -0.203125 31.78125 0.453125 32.433594 L 3.84375 36.230469 C 3.953125 36.339844 3.953125 36.339844 3.953125 36.339844 L 19.265625 50.875 C 19.8125 51.417969 21.015625 51.527344 21.671875 50.875 C 22.328125 50.222656 22.328125 49.03125 21.671875 48.378906 Z M 5.8125 32.433594 "/>
<path style=" stroke:none;fill-rule:nonzero;fill:rgb(0%,47.058824%,84.313725%);fill-opacity:1;" d="M 52.078125 0 L 30.75 0 L 19.265625 32.109375 L 33.265625 32.21875 L 22.328125 64 L 52.515625 21.585938 L 37.859375 21.585938 Z M 52.078125 0 "/>
</g>
</svg>
