<?xml version="1.0" encoding="utf-8"?><svg version="1.1" xmlns="http://www.w3.org/2000/svg" xmlns:xlink="http://www.w3.org/1999/xlink" xmlns:xml="http://www.w3.org/XML/1998/namespace" width="70" height="70" viewBox="0, 0, 18, 18" id="b189dd31-f678-493f-b388-049997db3b0e"><defs><linearGradient x1="8.83" y1="12.87" x2="8.83" y2="0.87" gradientUnits="userSpaceOnUse" id="add877bb-eba5-4f6c-85e2-a20ca8b1f954"><stop offset="0%" stop-color="#006CBC" /><stop offset="82%" stop-color="#29A4FF" /></linearGradient><linearGradient x1="8.83" y1="17.5" x2="8.83" y2="12.87" gradientUnits="userSpaceOnUse" id="abfd55c2-f4e9-4954-8f01-2256c47fcbfe"><stop offset="0%" stop-color="#0084E6" /><stop offset="98%" stop-color="#00589A" /></linearGradient></defs><title>Icon-compute-27</title><rect x="-0.17" y="0.87" width="18" height="12" rx="0.6" style="fill:url(#add877bb-eba5-4f6c-85e2-a20ca8b1f954);" /><rect x="0.83" y="1.87" width="16" height="10" rx="0.33" style="fill:white;" /><polygon points="11.83,5.12 11.83,8.61 8.83,10.37 8.83,6.87 11.83,5.12" style="fill:#006CBC;" /><polygon points="11.83,5.12 8.83,6.88 5.83,5.12 8.83,3.37 11.83,5.12" style="fill:#5FBBFF;" /><polygon points="8.83,6.88 8.83,10.37 5.83,8.61 5.83,5.12 8.83,6.88" style="fill:#29A4FF;" /><polygon points="5.83,8.61 8.83,6.87 8.83,10.37 5.83,8.61" opacity="0.2" style="fill:#5FBBFF;" /><polygon points="11.83,8.61 8.83,6.87 8.83,10.37 11.83,8.61" opacity="0.2" style="fill:#29A4FF;" /><path d="M12.44 16.5 c-1.78 -0.28 -1.85 -1.56 -1.85 -3.63 H7.06 c0 2.07 -0.06 3.35 -1.84 3.63 a1 1 0 0 0 -0.89 1 h9 A1 1 0 0 0 12.44 16.5 Z" style="fill:url(#abfd55c2-f4e9-4954-8f01-2256c47fcbfe);" /><path d="M5.1 2.57 H2.62 a0.59 0.59 0 0 0 -0.6 0.59 V5.64 a0.3 0.3 0 0 0 0.3 0.3 h0.2 a0.3 0.3 0 0 0 0.3 -0.3 V3.35 H5.1 a0.3 0.3 0 0 0 0.3 -0.3 V2.86 A0.3 0.3 0 0 0 5.1 2.57 Z" style="fill:#29A4FF;" /><path d="M5.1 10.37 H2.81 V8.09 a0.3 0.3 0 0 0 -0.3 -0.3 H2.32 a0.3 0.3 0 0 0 -0.3 0.3 v2.48 a0.59 0.59 0 0 0 0.6 0.59 H5.1 a0.3 0.3 0 0 0 0.3 -0.29 v-0.2 A0.3 0.3 0 0 0 5.1 10.37 Z" style="fill:#29A4FF;" /><path d="M15 2.59 H12.56 a0.29 0.29 0 0 0 -0.3 0.3 v0.19 a0.29 0.29 0 0 0 0.3 0.29 h2.28 v2.3 a0.29 0.29 0 0 0 0.3 0.29 h0.2 a0.29 0.29 0 0 0 0.29 -0.29 V3.19 A0.59 0.59 0 0 0 15 2.59 Z" style="fill:#29A4FF;" /><path d="M15.34 7.81 h-0.19 a0.3 0.3 0 0 0 -0.3 0.3 v2.28 H12.56 a0.29 0.29 0 0 0 -0.3 0.3 v0.2 a0.3 0.3 0 0 0 0.3 0.3 H15 a0.59 0.59 0 0 0 0.59 -0.6 V8.11 A0.3 0.3 0 0 0 15.34 7.81 Z" style="fill:#29A4FF;" /></svg>