<?xml version="1.0" encoding="UTF-8"?>
<svg xmlns="http://www.w3.org/2000/svg" xmlns:xlink="http://www.w3.org/1999/xlink" width="70pt" height="70pt" viewBox="0 0 70 70" version="1.1">
<defs>
<linearGradient id="linear0" gradientUnits="userSpaceOnUse" x1="2.94" y1="3.74" x2="8.67" y2="3.74" gradientTransform="matrix(3.888889,0,0,3.888889,0,0)">
<stop offset="0" style="stop-color:rgb(71.764706%,47.843137%,95.686275%);stop-opacity:1;"/>
<stop offset="1" style="stop-color:rgb(46.666667%,22.745098%,86.27451%);stop-opacity:1;"/>
</linearGradient>
<linearGradient id="linear1" gradientUnits="userSpaceOnUse" x1="9.13" y1="3.79" x2="14.85" y2="3.79" gradientTransform="matrix(3.888889,0,0,3.888889,0,0)">
<stop offset="0" style="stop-color:rgb(71.764706%,47.843137%,95.686275%);stop-opacity:1;"/>
<stop offset="1" style="stop-color:rgb(46.666667%,22.745098%,86.27451%);stop-opacity:1;"/>
</linearGradient>
<linearGradient id="linear2" gradientUnits="userSpaceOnUse" x1="0.01" y1="9.12" x2="5.73" y2="9.12" gradientTransform="matrix(3.888889,0,0,3.888889,0,0)">
<stop offset="0" style="stop-color:rgb(71.764706%,47.843137%,95.686275%);stop-opacity:1;"/>
<stop offset="1" style="stop-color:rgb(46.666667%,22.745098%,86.27451%);stop-opacity:1;"/>
</linearGradient>
<linearGradient id="linear3" gradientUnits="userSpaceOnUse" x1="6.18" y1="9.08" x2="11.9" y2="9.08" gradientTransform="matrix(3.888889,0,0,3.888889,0,0)">
<stop offset="0" style="stop-color:rgb(71.764706%,47.843137%,95.686275%);stop-opacity:1;"/>
<stop offset="1" style="stop-color:rgb(46.666667%,22.745098%,86.27451%);stop-opacity:1;"/>
</linearGradient>
<linearGradient id="linear4" gradientUnits="userSpaceOnUse" x1="12.35" y1="9.13" x2="18.08" y2="9.13" gradientTransform="matrix(3.888889,0,0,3.888889,0,0)">
<stop offset="0" style="stop-color:rgb(71.764706%,47.843137%,95.686275%);stop-opacity:1;"/>
<stop offset="1" style="stop-color:rgb(46.666667%,22.745098%,86.27451%);stop-opacity:1;"/>
</linearGradient>
<linearGradient id="linear5" gradientUnits="userSpaceOnUse" x1="2.87" y1="14.56" x2="8.6" y2="14.56" gradientTransform="matrix(3.888889,0,0,3.888889,0,0)">
<stop offset="0" style="stop-color:rgb(71.764706%,47.843137%,95.686275%);stop-opacity:1;"/>
<stop offset="1" style="stop-color:rgb(46.666667%,22.745098%,86.27451%);stop-opacity:1;"/>
</linearGradient>
<linearGradient id="linear6" gradientUnits="userSpaceOnUse" x1="9.05" y1="14.6" x2="14.78" y2="14.6" gradientTransform="matrix(3.888889,0,0,3.888889,0,0)">
<stop offset="0" style="stop-color:rgb(71.764706%,47.843137%,95.686275%);stop-opacity:1;"/>
<stop offset="1" style="stop-color:rgb(46.666667%,22.745098%,86.27451%);stop-opacity:1;"/>
</linearGradient>
</defs>
<g id="surface1">
<path style=" stroke:none;fill-rule:nonzero;fill:url(#linear0);" d="M 22.554688 4.746094 L 11.433594 6.804688 L 11.433594 21.972656 L 22.554688 24.34375 L 33.714844 19.871094 L 33.714844 8.554688 Z M 22.554688 4.746094 "/>
<path style=" stroke:none;fill-rule:nonzero;fill:rgb(20.392157%,10.196078%,43.137255%);fill-opacity:1;" d="M 11.433594 6.804688 L 11.433594 21.972656 L 22.671875 24.34375 L 22.671875 4.898438 Z M 16.179688 20.804688 L 13.027344 20.183594 L 13.027344 8.515625 L 16.179688 8.011719 Z M 21.078125 21.699219 L 17.460938 21.117188 L 17.460938 7.777344 L 21.078125 7.15625 Z M 21.078125 21.699219 "/>
<path style=" stroke:none;fill-rule:nonzero;fill:url(#linear1);" d="M 46.628906 4.9375 L 35.503906 7 L 35.503906 22.167969 L 46.628906 24.539063 L 57.75 20.027344 L 57.75 8.75 Z M 46.628906 4.9375 "/>
<path style=" stroke:none;fill-rule:nonzero;fill:rgb(20.392157%,10.196078%,43.137255%);fill-opacity:1;" d="M 35.503906 7 L 35.503906 22.167969 L 46.667969 24.539063 L 46.667969 5.09375 Z M 40.210938 21 L 37.0625 20.378906 L 37.0625 8.710938 L 40.210938 8.207031 Z M 45.109375 21.894531 L 41.496094 21.3125 L 41.496094 7.972656 L 45.109375 7.3125 Z M 45.109375 21.894531 "/>
<path style=" stroke:none;fill-rule:nonzero;fill:url(#linear2);" d="M 11.160156 25.667969 L 0.0390625 27.726563 L 0.0390625 42.894531 L 11.160156 45.265625 L 22.320313 40.792969 L 22.320313 29.476563 Z M 11.160156 25.667969 "/>
<path style=" stroke:none;fill-rule:nonzero;fill:rgb(20.392157%,10.196078%,43.137255%);fill-opacity:1;" d="M 0 27.726563 L 0 42.777344 L 11.238281 45.148438 L 11.238281 25.707031 Z M 4.707031 41.765625 L 1.554688 41.105469 L 1.554688 29.4375 L 4.707031 28.894531 Z M 9.644531 42.777344 L 6.027344 42.195313 L 6.027344 28.699219 L 9.644531 28.078125 Z M 9.644531 42.777344 "/>
<path style=" stroke:none;fill-rule:nonzero;fill:url(#linear3);" d="M 35.15625 25.511719 L 24.035156 27.570313 L 24.035156 42.738281 L 35.15625 45.148438 L 46.277344 40.640625 L 46.277344 29.320313 Z M 35.15625 25.511719 "/>
<path style=" stroke:none;fill-rule:nonzero;fill:rgb(20.392157%,10.196078%,43.137255%);fill-opacity:1;" d="M 24.035156 27.570313 L 24.035156 42.777344 L 35.234375 45.148438 L 35.234375 25.707031 Z M 28.738281 41.609375 L 25.589844 40.949219 L 25.589844 29.285156 L 28.738281 28.738281 Z M 33.640625 42.464844 L 30.023438 41.882813 L 30.023438 28.542969 L 33.640625 27.921875 Z M 33.640625 42.464844 "/>
<path style=" stroke:none;fill-rule:nonzero;fill:url(#linear4);" d="M 59.148438 25.707031 L 48.027344 27.765625 L 48.027344 42.933594 L 59.148438 45.304688 L 70.3125 40.832031 L 70.3125 29.515625 Z M 59.148438 25.707031 "/>
<path style=" stroke:none;fill-rule:nonzero;fill:rgb(20.392157%,10.196078%,43.137255%);fill-opacity:1;" d="M 48.027344 27.765625 L 48.027344 42.777344 L 59.265625 45.148438 L 59.265625 25.707031 Z M 52.773438 41.804688 L 49.621094 41.144531 L 49.621094 29.476563 L 52.773438 28.933594 Z M 57.671875 42.660156 L 54.054688 42.078125 L 54.054688 28.738281 L 57.671875 28.117188 Z M 57.671875 42.660156 "/>
<path style=" stroke:none;fill-rule:nonzero;fill:url(#linear5);" d="M 22.285156 46.820313 L 11.160156 48.84375 L 11.160156 64.011719 L 22.285156 66.421875 L 33.445313 61.910156 L 33.445313 50.632813 Z M 22.285156 46.820313 "/>
<path style=" stroke:none;fill-rule:nonzero;fill:rgb(20.392157%,10.196078%,43.137255%);fill-opacity:1;" d="M 11.160156 48.84375 L 11.160156 64.011719 L 22.398438 66.421875 L 22.398438 46.667969 Z M 15.90625 62.882813 L 12.753906 62.222656 L 12.753906 50.554688 L 15.90625 50.011719 Z M 20.804688 63.777344 L 17.1875 63.195313 L 17.1875 49.816406 L 20.804688 49.195313 Z M 20.804688 63.777344 "/>
<path style=" stroke:none;fill-rule:nonzero;fill:url(#linear6);" d="M 46.316406 46.976563 L 35.195313 49.039063 L 35.195313 64.207031 L 46.316406 66.578125 L 57.476563 62.105469 L 57.476563 50.789063 Z M 46.316406 46.976563 "/>
<path style=" stroke:none;fill-rule:nonzero;fill:rgb(20.392157%,10.196078%,43.137255%);fill-opacity:1;" d="M 35.195313 49.039063 L 35.195313 64.207031 L 46.433594 66.578125 L 46.433594 47.132813 Z M 39.9375 63.078125 L 36.789063 62.417969 L 36.789063 50.75 L 39.9375 50.207031 Z M 44.839844 63.933594 L 41.222656 63.351563 L 41.222656 50.011719 L 44.839844 49.390625 Z M 44.839844 63.933594 "/>
</g>
</svg>
