<?xml version="1.0" encoding="UTF-8"?>
<svg xmlns="http://www.w3.org/2000/svg" xmlns:xlink="http://www.w3.org/1999/xlink" width="70pt" height="70pt" viewBox="0 0 70 70" version="1.1">
<g id="surface1">
<path style=" stroke:none;fill-rule:nonzero;fill:rgb(34.901961%,70.588235%,85.098039%);fill-opacity:1;" d="M 41.160156 66.5 C 41.160156 68.460938 39.621094 70 37.660156 70 L 3.5 70 C 1.539063 70 0 68.460938 0 66.5 L 0 3.5 C 0 1.539063 1.539063 0 3.5 0 L 37.519531 0 C 39.480469 0 41.019531 1.539063 41.019531 3.5 L 41.019531 66.5 Z M 41.160156 66.5 "/>
<path style=" stroke:none;fill-rule:nonzero;fill:rgb(0%,44.705882%,77.647059%);fill-opacity:1;" d="M 6.019531 37.800781 C 6.019531 35.28125 7.980469 33.320313 10.5 33.320313 L 30.941406 33.320313 C 33.460938 33.320313 35.421875 35.28125 35.421875 37.800781 C 35.421875 40.320313 33.460938 42.28125 30.941406 42.28125 L 10.5 42.28125 C 7.980469 42.28125 6.019531 40.320313 6.019531 37.800781 Z M 6.019531 37.800781 "/>
<path style=" stroke:none;fill-rule:nonzero;fill:rgb(72.156863%,83.137255%,19.607843%);fill-opacity:1;" d="M 13.578125 37.800781 C 13.578125 39.421875 12.265625 40.738281 10.640625 40.738281 C 9.015625 40.738281 7.699219 39.421875 7.699219 37.800781 C 7.699219 36.175781 9.015625 34.859375 10.640625 34.859375 C 12.265625 34.859375 13.578125 36.175781 13.578125 37.800781 Z M 13.578125 37.800781 "/>
<path style=" stroke:none;fill-rule:nonzero;fill:rgb(0%,44.705882%,77.647059%);fill-opacity:1;" d="M 6.019531 24.5 C 6.019531 21.980469 7.980469 20.019531 10.5 20.019531 L 30.941406 20.019531 C 33.460938 20.019531 35.421875 21.980469 35.421875 24.5 C 35.421875 27.019531 33.460938 28.980469 30.941406 28.980469 L 10.5 28.980469 C 7.980469 28.980469 6.019531 27.019531 6.019531 24.5 Z M 6.019531 24.5 "/>
<path style=" stroke:none;fill-rule:nonzero;fill:rgb(72.156863%,83.137255%,19.607843%);fill-opacity:1;" d="M 13.578125 24.5 C 13.578125 26.125 12.265625 27.441406 10.640625 27.441406 C 9.015625 27.441406 7.699219 26.125 7.699219 24.5 C 7.699219 22.875 9.015625 21.558594 10.640625 21.558594 C 12.265625 21.558594 13.578125 22.875 13.578125 24.5 Z M 13.578125 24.5 "/>
<path style=" stroke:none;fill-rule:nonzero;fill:rgb(0%,44.705882%,77.647059%);fill-opacity:1;" d="M 6.019531 11.339844 C 6.019531 8.820313 7.980469 6.859375 10.5 6.859375 L 30.941406 6.859375 C 33.460938 6.859375 35.421875 8.820313 35.421875 11.339844 C 35.421875 13.859375 33.460938 15.820313 30.941406 15.820313 L 10.5 15.820313 C 7.980469 15.820313 6.019531 13.71875 6.019531 11.339844 Z M 6.019531 11.339844 "/>
<path style=" stroke:none;fill-rule:nonzero;fill:rgb(72.156863%,83.137255%,19.607843%);fill-opacity:1;" d="M 13.578125 11.339844 C 13.578125 12.964844 12.265625 14.28125 10.640625 14.28125 C 9.015625 14.28125 7.699219 12.964844 7.699219 11.339844 C 7.699219 9.714844 9.015625 8.398438 10.640625 8.398438 C 12.265625 8.398438 13.578125 9.714844 13.578125 11.339844 Z M 13.578125 11.339844 "/>
<path style=" stroke:none;fill-rule:nonzero;fill:rgb(100%,100%,100%);fill-opacity:1;" d="M 54.601563 28.558594 L 50.820313 29.398438 L 46.058594 30.800781 L 45.5 32.761719 L 45.5 38.078125 L 43.960938 43.820313 L 41.019531 47.039063 L 39.058594 53.480469 C 39.058594 53.480469 42.140625 56.699219 42.140625 57.398438 C 42.28125 57.960938 44.800781 64.679688 44.800781 64.679688 L 47.738281 65.800781 L 53.761719 65.800781 L 60.058594 65.238281 L 65.800781 59.5 L 65.800781 53.621094 L 61.878906 44.238281 L 58.941406 39.621094 L 57.820313 36.398438 L 56.558594 30.101563 L 55.441406 28.421875 C 55.578125 28.421875 54.601563 28.421875 54.601563 28.558594 Z M 54.601563 28.558594 "/>
<path style=" stroke:none;fill-rule:nonzero;fill:rgb(98.823529%,81.960784%,8.627451%);fill-opacity:1;" d="M 54.460938 35.980469 C 54.039063 35.839844 53.761719 35.699219 53.480469 35.558594 C 53.058594 35.421875 52.78125 35.28125 52.5 35.140625 C 51.660156 34.578125 50.960938 34.300781 50.261719 34.300781 L 50.121094 34.300781 C 49.839844 34.300781 49.558594 34.300781 49.140625 34.441406 C 48.441406 34.71875 48.019531 35.140625 47.601563 35.421875 L 47.460938 35.558594 L 47.179688 35.839844 C 47.039063 35.980469 46.621094 36.261719 46.199219 36.539063 C 45.78125 36.820313 45.640625 37.238281 45.78125 37.660156 C 45.921875 38.21875 46.339844 38.640625 47.179688 39.058594 C 47.460938 39.199219 47.738281 39.480469 48.019531 39.621094 C 48.160156 39.761719 48.300781 39.898438 48.441406 39.898438 C 48.71875 40.179688 49.140625 40.460938 49.980469 40.460938 L 50.121094 40.460938 C 50.820313 40.460938 51.378906 40.179688 51.941406 39.898438 C 52.078125 39.761719 52.21875 39.761719 52.5 39.621094 C 52.78125 39.480469 53.199219 39.199219 53.480469 39.058594 C 54.460938 38.78125 55.300781 38.078125 55.578125 37.378906 C 55.71875 37.101563 55.71875 36.679688 55.578125 36.398438 C 55.300781 36.539063 54.878906 36.261719 54.460938 35.980469 Z M 68.320313 60.761719 C 67.898438 60.339844 67.761719 59.640625 67.621094 58.941406 L 67.621094 58.660156 C 67.480469 57.820313 67.199219 57.261719 66.921875 56.980469 C 66.359375 56.558594 65.941406 56.421875 65.238281 56.558594 L 64.820313 56.558594 C 64.261719 57.261719 62.859375 58.101563 61.878906 58.101563 L 61.460938 58.101563 C 60.480469 57.820313 59.921875 56.699219 59.78125 55.578125 L 59.78125 55.441406 L 59.5 55.441406 C 58.941406 55.71875 58.519531 56.421875 58.238281 57.398438 C 57.960938 58.378906 57.960938 59.5 57.820313 60.898438 C 57.820313 61.601563 57.539063 62.441406 57.261719 63.421875 C 57.121094 63.839844 56.980469 64.121094 56.980469 64.539063 C 56.558594 66.078125 56.558594 67.199219 56.839844 67.761719 C 57.398438 68.878906 58.378906 69.578125 59.640625 69.578125 L 59.921875 69.578125 C 61.320313 69.441406 62.71875 68.601563 63.839844 67.339844 C 64.820313 66.21875 66.21875 65.519531 67.339844 64.960938 C 67.761719 64.679688 68.179688 64.539063 68.460938 64.398438 C 69.160156 63.980469 69.441406 63.699219 69.441406 63.140625 C 69.441406 62.441406 69.160156 61.738281 68.320313 60.761719 Z M 44.660156 62.300781 C 44.101563 61.601563 43.398438 60.898438 43.121094 60.199219 C 42.558594 59.078125 42 57.820313 41.441406 56.980469 C 40.738281 56.140625 40.179688 55.578125 39.480469 55.578125 L 39.058594 55.578125 C 38.5 55.578125 38.078125 55.859375 37.800781 56.28125 C 37.660156 56.558594 37.378906 56.699219 37.238281 56.980469 C 37.101563 57.261719 36.820313 57.539063 36.539063 57.820313 C 36.121094 58.238281 35.558594 58.378906 35.140625 58.519531 C 35 58.519531 35 58.519531 34.859375 58.660156 C 34.300781 58.800781 33.878906 59.078125 33.460938 59.640625 C 33.179688 60.058594 33.320313 60.761719 33.320313 61.460938 L 33.320313 61.738281 C 33.460938 62.300781 33.460938 63 33.320313 63.558594 C 32.898438 64.679688 32.898438 65.519531 33.039063 65.941406 C 33.179688 66.359375 33.738281 66.640625 34.441406 66.78125 C 34.859375 66.921875 35.421875 66.921875 35.839844 66.921875 C 37.101563 67.058594 38.5 67.199219 39.761719 67.898438 C 41.019531 68.460938 42.28125 68.878906 43.398438 68.878906 C 43.820313 68.878906 44.101563 68.878906 44.378906 68.738281 C 45.78125 68.460938 46.480469 67.621094 46.621094 66.21875 C 46.761719 65.519531 46.199219 64.539063 45.21875 63.140625 C 45.078125 63 44.941406 62.71875 44.660156 62.300781 Z M 44.660156 62.300781 "/>
<path style=" stroke:none;fill-rule:nonzero;fill:rgb(11.764706%,11.764706%,11.764706%);fill-opacity:1;" d="M 52.21875 24.5 L 51.238281 24.5 C 43.261719 25.199219 45.359375 33.601563 45.21875 36.398438 C 45.078125 38.5 44.660156 40.039063 43.261719 42.140625 C 41.578125 44.101563 39.199219 47.320313 38.078125 50.679688 C 37.519531 52.21875 37.238281 53.898438 37.519531 55.441406 C 37.378906 55.441406 37.378906 55.578125 37.378906 55.578125 C 36.820313 56.140625 36.539063 56.699219 36.121094 57.121094 C 35.699219 57.539063 35.140625 57.679688 34.578125 57.820313 C 34.019531 58.101563 33.320313 58.378906 32.898438 59.078125 C 32.480469 59.78125 32.621094 60.480469 32.761719 61.179688 C 32.898438 61.878906 33.039063 62.578125 32.898438 63 C 32.480469 64.261719 32.339844 65.101563 32.761719 65.800781 C 33.039063 66.5 33.738281 66.78125 34.578125 66.921875 C 36.121094 67.199219 38.21875 67.199219 39.898438 68.039063 L 40.039063 67.761719 L 39.898438 68.039063 C 41.71875 69.019531 43.398438 69.300781 44.800781 69.019531 C 45.78125 68.738281 46.621094 68.179688 47.039063 67.199219 C 48.160156 67.199219 49.421875 66.78125 51.378906 66.640625 C 52.640625 66.5 54.320313 67.058594 56.28125 67.058594 C 56.28125 67.199219 56.421875 67.480469 56.558594 67.621094 C 57.261719 69.160156 58.660156 69.71875 60.199219 69.71875 C 61.601563 69.578125 63.28125 68.738281 64.539063 67.199219 L 64.261719 67.058594 L 64.539063 67.199219 C 65.800781 65.800781 67.761719 65.101563 69.019531 64.398438 C 69.71875 63.980469 70.28125 63.558594 70.28125 62.71875 C 70.28125 62.019531 69.859375 61.179688 68.878906 60.058594 C 68.601563 59.640625 68.460938 59.078125 68.179688 58.238281 C 68.039063 57.539063 67.898438 56.699219 67.199219 56.28125 C 66.921875 56.140625 66.78125 56 66.5 55.859375 C 67.339844 53.480469 67.058594 50.960938 66.21875 48.859375 C 65.238281 46.199219 63.421875 43.820313 62.019531 42.28125 C 60.480469 40.320313 59.078125 38.5 59.078125 35.839844 C 58.941406 32.199219 59.359375 24.640625 52.21875 24.5 Z M 53.199219 30.800781 C 53.621094 30.800781 53.898438 30.941406 54.320313 31.21875 C 54.738281 31.5 54.878906 31.78125 55.160156 32.339844 C 55.300781 32.761719 55.441406 33.179688 55.441406 33.738281 C 55.441406 34.300781 55.300781 34.71875 55.160156 35.140625 C 55.019531 35.421875 54.878906 35.558594 54.738281 35.839844 C 54.738281 35.839844 54.601563 35.839844 54.601563 35.699219 C 54.179688 35.558594 53.898438 35.421875 53.621094 35.28125 C 53.761719 35.140625 53.761719 35 53.898438 34.859375 C 54.039063 34.578125 54.039063 34.300781 54.039063 34.019531 C 54.039063 33.738281 54.039063 33.460938 53.898438 33.320313 C 53.761719 33.039063 53.761719 32.898438 53.480469 32.761719 C 53.199219 32.621094 53.199219 32.480469 52.921875 32.480469 C 52.78125 32.480469 52.640625 32.480469 52.359375 32.621094 C 52.21875 32.761719 52.078125 32.898438 51.941406 33.179688 C 51.800781 33.460938 51.800781 33.738281 51.800781 34.019531 L 51.800781 34.441406 C 51.378906 34.300781 51.101563 34.160156 50.820313 34.019531 L 50.820313 33.601563 C 50.820313 33.039063 50.960938 32.621094 51.101563 32.199219 C 51.238281 31.78125 51.519531 31.359375 51.941406 31.078125 C 52.359375 30.800781 52.78125 30.800781 53.199219 30.800781 Z M 47.601563 31.21875 C 47.878906 31.21875 48.160156 31.359375 48.300781 31.5 C 48.578125 31.78125 48.71875 32.058594 49 32.339844 C 49.28125 32.621094 49.28125 33.179688 49.28125 33.601563 L 49.28125 34.160156 L 49.140625 34.160156 L 48.300781 34.578125 L 48.300781 34.160156 C 48.300781 33.878906 48.160156 33.738281 48.160156 33.601563 C 48.019531 33.460938 48.019531 33.320313 47.878906 33.179688 C 47.738281 33.039063 47.601563 33.039063 47.601563 33.039063 C 47.460938 33.039063 47.320313 33.179688 47.179688 33.179688 C 47.039063 33.179688 47.039063 33.460938 46.898438 33.738281 C 46.761719 34.019531 46.898438 34.160156 46.898438 34.441406 C 46.898438 34.71875 46.898438 34.859375 47.039063 35 C 47.179688 35.140625 47.179688 35.28125 47.320313 35.421875 L 47.039063 35.699219 C 47.039063 35.699219 46.898438 35.839844 46.761719 35.839844 C 46.480469 35.699219 46.339844 35.421875 46.199219 35 C 46.058594 34.578125 45.921875 34.160156 45.921875 33.738281 C 45.921875 33.320313 45.921875 32.898438 46.058594 32.480469 C 46.199219 32.058594 46.339844 31.78125 46.621094 31.5 C 46.898438 31.359375 47.179688 31.359375 47.601563 31.21875 C 47.601563 31.359375 47.601563 31.21875 47.601563 31.21875 Z M 50.121094 34.441406 C 50.679688 34.441406 51.519531 34.578125 52.359375 35.28125 C 52.921875 35.699219 53.339844 35.699219 54.320313 36.121094 C 54.738281 36.261719 55.019531 36.539063 55.160156 36.820313 C 55.300781 37.101563 55.300781 37.378906 55.160156 37.660156 C 54.878906 38.21875 54.179688 38.921875 53.199219 39.199219 C 52.640625 39.339844 52.21875 39.761719 51.660156 40.039063 C 51.101563 40.320313 50.539063 40.601563 49.699219 40.601563 C 49 40.601563 48.578125 40.320313 48.300781 40.039063 C 47.878906 39.761719 47.601563 39.339844 47.179688 39.058594 C 46.480469 38.640625 46.058594 38.078125 45.921875 37.660156 C 45.78125 37.238281 45.921875 36.820313 46.339844 36.539063 C 46.761719 36.261719 47.039063 35.980469 47.320313 35.839844 C 47.460938 35.699219 47.601563 35.699219 47.601563 35.558594 C 47.878906 35.28125 48.441406 34.71875 49.140625 34.441406 C 49.558594 34.578125 49.839844 34.441406 50.121094 34.441406 Z M 54.460938 37.101563 C 54.179688 37.101563 53.898438 37.238281 53.621094 37.378906 C 53.339844 37.519531 52.921875 37.800781 52.5 38.078125 C 51.660156 38.5 50.820313 38.921875 49.839844 38.921875 C 48.859375 38.921875 48.160156 38.5 47.601563 38.078125 C 47.320313 37.800781 47.039063 37.660156 46.898438 37.519531 L 46.621094 37.238281 C 46.480469 37.101563 46.480469 37.101563 46.339844 37.101563 L 46.339844 37.519531 C 46.339844 37.519531 46.480469 37.660156 46.621094 37.660156 C 46.761719 37.800781 47.039063 38.078125 47.320313 38.21875 C 47.878906 38.640625 48.71875 39.199219 49.699219 39.199219 C 50.679688 39.199219 51.660156 38.78125 52.5 38.21875 C 52.921875 37.941406 53.339844 37.800781 53.621094 37.519531 C 53.898438 37.378906 54.179688 37.238281 54.320313 37.238281 Z M 55.441406 38.359375 C 56.140625 41.019531 57.679688 44.941406 58.800781 46.898438 C 59.359375 47.878906 60.480469 50.121094 60.898438 52.640625 C 61.179688 52.640625 61.460938 52.640625 61.878906 52.78125 C 63.140625 49.558594 60.898438 46.199219 59.78125 45.21875 C 59.359375 44.800781 59.359375 44.660156 59.5 44.660156 C 60.621094 45.640625 62.160156 47.601563 62.578125 49.839844 C 62.859375 50.820313 62.859375 51.941406 62.578125 53.058594 C 62.71875 53.058594 62.859375 53.199219 63 53.199219 C 64.960938 54.179688 65.660156 55.019531 65.378906 56.140625 L 65.101563 56.140625 C 65.378906 55.300781 64.820313 54.601563 63.140625 53.761719 C 61.460938 53.058594 60.058594 53.058594 59.78125 54.601563 L 59.78125 54.878906 C 59.640625 54.878906 59.5 55.019531 59.359375 55.019531 C 58.519531 55.441406 58.101563 56.28125 57.820313 57.261719 C 57.539063 58.238281 57.539063 59.5 57.398438 60.761719 C 57.398438 61.460938 57.121094 62.300781 56.839844 63.28125 C 54.039063 65.378906 49.980469 66.21875 46.621094 63.839844 C 46.339844 63.421875 46.199219 63.140625 45.921875 62.71875 C 45.78125 62.441406 45.640625 62.300781 45.359375 62.019531 C 45.640625 62.019531 46.058594 62.019531 46.199219 61.878906 C 46.480469 61.738281 46.761719 61.601563 46.761719 61.320313 C 46.898438 60.761719 46.761719 60.058594 46.058594 59.078125 C 45.359375 58.238281 44.238281 57.261719 42.699219 56.140625 C 41.441406 55.441406 40.878906 54.460938 40.460938 53.480469 C 40.039063 52.5 40.179688 51.378906 40.460938 50.398438 C 40.878906 48.300781 42.140625 46.339844 42.839844 45.078125 C 42.980469 44.941406 42.980469 45.359375 42.140625 46.898438 C 41.441406 48.300781 40.039063 51.660156 41.859375 54.179688 C 41.859375 52.359375 42.421875 50.539063 43.121094 48.71875 C 44.238281 46.339844 46.480469 42.140625 46.621094 38.78125 C 46.761719 38.78125 47.039063 39.058594 47.179688 39.199219 C 47.601563 39.480469 47.878906 39.761719 48.300781 40.179688 C 48.71875 40.460938 49.140625 40.738281 49.980469 40.878906 C 50.820313 40.878906 51.519531 40.601563 52.078125 40.320313 C 52.640625 40.039063 53.058594 39.621094 53.480469 39.480469 C 54.320313 39.339844 55.019531 38.921875 55.441406 38.359375 Z M 61.039063 53.761719 C 61.460938 53.761719 61.878906 53.898438 62.300781 54.039063 C 63.558594 54.601563 63.980469 55.160156 63.558594 55.859375 C 63.28125 56.421875 62.019531 57.261719 61.179688 57.121094 C 60.339844 56.839844 59.921875 55.578125 60.058594 54.738281 C 60.058594 54.039063 60.480469 53.761719 61.039063 53.761719 Z M 59.640625 55.441406 C 59.78125 56.558594 60.339844 57.820313 61.320313 58.101563 C 62.441406 58.378906 63.980469 57.398438 64.679688 56.699219 L 65.101563 56.699219 C 65.660156 56.699219 66.21875 56.699219 66.640625 57.121094 C 67.058594 57.398438 67.199219 58.101563 67.339844 58.800781 C 67.480469 59.5 67.621094 60.339844 68.179688 60.761719 C 69.160156 61.738281 69.441406 62.441406 69.441406 63 C 69.441406 63.421875 69.160156 63.839844 68.460938 64.121094 C 67.199219 64.820313 65.101563 65.519531 63.839844 67.058594 C 62.71875 68.460938 61.179688 69.160156 59.921875 69.300781 C 58.660156 69.441406 57.539063 68.878906 56.980469 67.621094 C 56.558594 66.921875 56.699219 65.660156 57.121094 64.398438 C 57.398438 63.140625 57.960938 61.878906 57.960938 60.761719 C 57.960938 59.359375 58.101563 58.238281 58.378906 57.261719 C 58.519531 56.558594 58.800781 55.859375 59.640625 55.441406 C 59.5 55.578125 59.5 55.578125 59.640625 55.441406 Z M 39.058594 55.578125 L 39.339844 55.578125 C 40.039063 55.71875 40.738281 56.140625 41.300781 56.980469 C 41.859375 57.820313 42.421875 58.941406 42.980469 60.199219 C 43.398438 61.179688 44.378906 62.160156 45.21875 63.28125 C 46.058594 64.398438 46.621094 65.378906 46.621094 66.21875 C 46.480469 67.621094 45.78125 68.460938 44.519531 68.738281 C 43.261719 69.019531 41.578125 68.738281 40.039063 67.898438 C 38.21875 66.921875 35.980469 67.058594 34.578125 66.78125 C 33.878906 66.640625 33.460938 66.359375 33.179688 65.941406 C 32.898438 65.519531 32.898438 64.820313 33.460938 63.558594 C 33.738281 62.859375 33.460938 62.160156 33.460938 61.460938 C 33.320313 60.761719 33.320313 60.058594 33.601563 59.640625 C 33.878906 59.078125 34.300781 58.800781 34.859375 58.660156 C 35.421875 58.519531 36.121094 58.238281 36.539063 57.820313 C 36.960938 57.261719 37.378906 56.699219 37.800781 56.28125 C 38.21875 55.859375 38.5 55.578125 39.058594 55.578125 Z M 39.058594 55.578125 "/>
</g>
</svg>
