<?xml version="1.0" encoding="UTF-8"?>
<svg xmlns="http://www.w3.org/2000/svg" xmlns:xlink="http://www.w3.org/1999/xlink" width="70pt" height="70pt" viewBox="0 0 70 70" version="1.1">
<defs>
<filter id="alpha" filterUnits="objectBoundingBox" x="0%" y="0%" width="100%" height="100%">
  <feColorMatrix type="matrix" in="SourceGraphic" values="0 0 0 0 1 0 0 0 0 1 0 0 0 0 1 0 0 0 1 0"/>
</filter>
<mask id="mask0">
  <g filter="url(#alpha)">
<rect x="0" y="0" width="70" height="70" style="fill:rgb(0%,0%,0%);fill-opacity:0.2;stroke:none;"/>
  </g>
</mask>
<clipPath id="clip1">
  <rect x="0" y="0" width="70" height="70"/>
</clipPath>
<g id="surface5" clip-path="url(#clip1)">
<path style=" stroke:none;fill-rule:nonzero;fill:rgb(100%,100%,100%);fill-opacity:1;" d="M 50.042969 0.00390625 C 50.03125 0.00390625 50.023438 0 50.011719 0 L 2.890625 0 C 1.289063 0 0 1.429688 0 3.027344 L 0 35.839844 C 0 37.429688 1.289063 38.84375 2.890625 38.84375 L 4.015625 38.84375 Z M 50.042969 0.00390625 "/>
</g>
<mask id="mask1">
  <g filter="url(#alpha)">
<rect x="0" y="0" width="70" height="70" style="fill:rgb(0%,0%,0%);fill-opacity:0.2;stroke:none;"/>
  </g>
</mask>
<clipPath id="clip2">
  <rect x="0" y="0" width="70" height="70"/>
</clipPath>
<g id="surface8" clip-path="url(#clip2)">
<path style=" stroke:none;fill-rule:nonzero;fill:rgb(100%,100%,100%);fill-opacity:1;" d="M 58.371094 10.441406 C 58.363281 10.441406 58.351563 10.4375 58.339844 10.4375 L 11.222656 10.4375 C 9.621094 10.4375 8.328125 11.867188 8.328125 13.464844 L 8.328125 46.277344 C 8.328125 47.867188 9.621094 49.28125 11.222656 49.28125 L 12.34375 49.28125 Z M 58.371094 10.441406 "/>
</g>
<mask id="mask2">
  <g filter="url(#alpha)">
<rect x="0" y="0" width="70" height="70" style="fill:rgb(0%,0%,0%);fill-opacity:0.2;stroke:none;"/>
  </g>
</mask>
<clipPath id="clip3">
  <rect x="0" y="0" width="70" height="70"/>
</clipPath>
<g id="surface11" clip-path="url(#clip3)">
<path style=" stroke:none;fill-rule:nonzero;fill:rgb(100%,100%,100%);fill-opacity:1;" d="M 66.816406 20.941406 C 66.804688 20.941406 66.796875 20.9375 66.785156 20.9375 L 19.664063 20.9375 C 18.0625 20.9375 16.773438 22.367188 16.773438 23.964844 L 16.773438 56.777344 C 16.773438 58.367188 18.0625 59.78125 19.664063 59.78125 L 20.785156 59.78125 Z M 66.816406 20.941406 "/>
</g>
<mask id="mask3">
  <g filter="url(#alpha)">
<rect x="0" y="0" width="70" height="70" style="fill:rgb(0%,0%,0%);fill-opacity:0.701961;stroke:none;"/>
  </g>
</mask>
<clipPath id="clip4">
  <rect x="0" y="0" width="70" height="70"/>
</clipPath>
<g id="surface14" clip-path="url(#clip4)">
<path style=" stroke:none;fill-rule:nonzero;fill:rgb(100%,100%,100%);fill-opacity:1;" d="M 42.621094 52.5625 C 42.566406 52.5625 42.519531 52.550781 42.476563 52.523438 L 33.132813 47.136719 C 33.042969 47.085938 32.988281 46.996094 32.988281 46.894531 L 32.988281 36.085938 C 32.988281 35.984375 33.042969 35.890625 33.132813 35.839844 C 33.21875 35.789063 33.324219 35.789063 33.417969 35.839844 L 42.761719 41.222656 C 42.84375 41.277344 42.898438 41.371094 42.898438 41.472656 L 42.898438 52.28125 C 42.898438 52.382813 42.84375 52.476563 42.761719 52.523438 C 42.714844 52.550781 42.667969 52.5625 42.621094 52.5625 "/>
</g>
<mask id="mask4">
  <g filter="url(#alpha)">
<rect x="0" y="0" width="70" height="70" style="fill:rgb(0%,0%,0%);fill-opacity:0.4;stroke:none;"/>
  </g>
</mask>
<clipPath id="clip5">
  <rect x="0" y="0" width="70" height="70"/>
</clipPath>
<g id="surface17" clip-path="url(#clip5)">
<path style=" stroke:none;fill-rule:nonzero;fill:rgb(100%,100%,100%);fill-opacity:1;" d="M 45.265625 52.5625 C 45.214844 52.5625 45.167969 52.550781 45.121094 52.523438 C 45.035156 52.472656 44.980469 52.382813 44.980469 52.277344 L 44.980469 41.539063 C 44.980469 41.4375 45.035156 41.34375 45.121094 41.292969 L 54.460938 35.910156 C 54.550781 35.859375 54.65625 35.859375 54.746094 35.910156 C 54.832031 35.960938 54.886719 36.054688 54.886719 36.15625 L 54.886719 46.894531 C 54.886719 46.996094 54.832031 47.089844 54.746094 47.140625 L 45.402344 52.523438 C 45.363281 52.550781 45.3125 52.5625 45.265625 52.5625 "/>
</g>
</defs>
<g id="surface1">
<path style=" stroke:none;fill-rule:nonzero;fill:rgb(62.745098%,63.137255%,63.529412%);fill-opacity:1;" d="M 50.011719 0 L 2.890625 0 C 1.292969 0 0 1.429688 0 3.027344 L 0 35.839844 C 0 37.429688 1.292969 38.84375 2.894531 38.84375 L 50.011719 38.84375 C 51.609375 38.84375 53.226563 37.429688 53.226563 35.839844 L 53.226563 3.027344 C 53.226563 1.425781 51.609375 0 50.011719 0 "/>
<use xlink:href="#surface5" mask="url(#mask0)"/>
<path style=" stroke:none;fill-rule:nonzero;fill:rgb(34.901961%,70.588235%,85.098039%);fill-opacity:1;" d="M 49.179688 34.753906 L 4.035156 34.753906 L 4.035156 4.089844 L 49.179688 4.023438 Z M 49.179688 34.753906 "/>
<path style=" stroke:none;fill-rule:nonzero;fill:rgb(72.156863%,83.137255%,19.607843%);fill-opacity:1;" d="M 27.164063 2.226563 C 27.164063 2.644531 26.828125 2.980469 26.410156 2.980469 C 25.992188 2.980469 25.65625 2.644531 25.65625 2.226563 C 25.65625 1.808594 25.992188 1.472656 26.410156 1.472656 C 26.828125 1.472656 27.164063 1.808594 27.164063 2.226563 "/>
<path style=" stroke:none;fill-rule:nonzero;fill:rgb(100%,100%,100%);fill-opacity:1;" d="M 27.195313 18.492188 C 27.144531 18.492188 27.097656 18.476563 27.050781 18.453125 L 17.679688 13.050781 C 17.59375 13 17.539063 12.902344 17.539063 12.804688 C 17.539063 12.703125 17.59375 12.609375 17.679688 12.558594 L 26.996094 7.191406 C 27.082031 7.144531 27.1875 7.144531 27.273438 7.191406 L 36.652344 12.597656 C 36.738281 12.648438 36.789063 12.742188 36.789063 12.84375 C 36.789063 12.945313 36.738281 13.035156 36.652344 13.085938 L 27.335938 18.453125 C 27.292969 18.476563 27.246094 18.492188 27.195313 18.492188 "/>
<path style=" stroke:none;fill-rule:nonzero;fill:rgb(62.745098%,63.137255%,63.529412%);fill-opacity:1;" d="M 58.339844 10.4375 L 11.222656 10.4375 C 9.621094 10.4375 8.328125 11.867188 8.328125 13.464844 L 8.328125 46.28125 C 8.328125 47.867188 9.621094 49.28125 11.222656 49.28125 L 58.339844 49.28125 C 59.9375 49.28125 61.554688 47.867188 61.554688 46.28125 L 61.554688 13.464844 C 61.554688 11.863281 59.9375 10.4375 58.339844 10.4375 "/>
<use xlink:href="#surface8" mask="url(#mask1)"/>
<path style=" stroke:none;fill-rule:nonzero;fill:rgb(34.901961%,70.588235%,85.098039%);fill-opacity:1;" d="M 57.507813 45.191406 L 12.363281 45.191406 L 12.363281 14.527344 L 57.507813 14.464844 Z M 57.507813 45.191406 "/>
<path style=" stroke:none;fill-rule:nonzero;fill:rgb(72.156863%,83.137255%,19.607843%);fill-opacity:1;" d="M 35.492188 12.664063 C 35.492188 13.082031 35.152344 13.421875 34.738281 13.421875 C 34.316406 13.421875 33.980469 13.082031 33.980469 12.664063 C 33.980469 12.25 34.316406 11.910156 34.738281 11.910156 C 35.152344 11.910156 35.492188 12.246094 35.492188 12.664063 "/>
<path style=" stroke:none;fill-rule:nonzero;fill:rgb(100%,100%,100%);fill-opacity:1;" d="M 35.523438 28.929688 C 35.472656 28.929688 35.425781 28.914063 35.378906 28.890625 L 26.007813 23.488281 C 25.921875 23.4375 25.867188 23.339844 25.867188 23.242188 C 25.867188 23.140625 25.921875 23.046875 26.007813 22.996094 L 35.324219 17.628906 C 35.410156 17.578125 35.515625 17.578125 35.601563 17.628906 L 44.980469 23.035156 C 45.066406 23.085938 45.121094 23.179688 45.121094 23.277344 C 45.121094 23.382813 45.066406 23.472656 44.980469 23.523438 L 35.667969 28.890625 C 35.621094 28.914063 35.574219 28.929688 35.523438 28.929688 "/>
<path style=" stroke:none;fill-rule:nonzero;fill:rgb(47.843137%,47.843137%,47.843137%);fill-opacity:1;" d="M 51.289063 59.777344 L 36.816406 59.777344 C 38.554688 65.910156 36.21875 66.789063 25.984375 66.789063 L 25.984375 70 L 60.785156 70 L 60.785156 66.789063 C 50.550781 66.789063 49.546875 65.914063 51.289063 59.777344 "/>
<path style=" stroke:none;fill-rule:nonzero;fill:rgb(62.745098%,63.137255%,63.529412%);fill-opacity:1;" d="M 66.785156 20.9375 L 19.664063 20.9375 C 18.0625 20.9375 16.773438 22.367188 16.773438 23.964844 L 16.773438 56.777344 C 16.773438 58.367188 18.0625 59.78125 19.664063 59.78125 L 66.785156 59.78125 C 68.382813 59.78125 70 58.367188 70 56.777344 L 70 23.964844 C 70 22.363281 68.382813 20.9375 66.785156 20.9375 "/>
<use xlink:href="#surface11" mask="url(#mask2)"/>
<path style=" stroke:none;fill-rule:nonzero;fill:rgb(34.901961%,70.588235%,85.098039%);fill-opacity:1;" d="M 65.953125 55.691406 L 20.808594 55.691406 L 20.808594 25.027344 L 65.953125 24.960938 Z M 65.953125 55.691406 "/>
<path style=" stroke:none;fill-rule:nonzero;fill:rgb(62.745098%,63.137255%,63.529412%);fill-opacity:1;" d="M 25.984375 66.789063 L 60.785156 66.789063 L 60.785156 70 L 25.984375 70 Z M 25.984375 66.789063 "/>
<path style=" stroke:none;fill-rule:nonzero;fill:rgb(72.156863%,83.137255%,19.607843%);fill-opacity:1;" d="M 43.9375 23.164063 C 43.9375 23.582031 43.597656 23.917969 43.179688 23.917969 C 42.761719 23.917969 42.425781 23.582031 42.425781 23.164063 C 42.425781 22.746094 42.761719 22.410156 43.179688 22.410156 C 43.597656 22.410156 43.9375 22.746094 43.9375 23.164063 "/>
<path style=" stroke:none;fill-rule:nonzero;fill:rgb(100%,100%,100%);fill-opacity:1;" d="M 43.96875 39.429688 C 43.917969 39.429688 43.871094 39.414063 43.824219 39.390625 L 34.453125 33.988281 C 34.367188 33.9375 34.3125 33.839844 34.3125 33.742188 C 34.3125 33.640625 34.367188 33.546875 34.453125 33.496094 L 43.765625 28.128906 C 43.855469 28.078125 43.960938 28.078125 44.046875 28.128906 L 53.421875 33.535156 C 53.507813 33.585938 53.5625 33.679688 53.5625 33.777344 C 53.5625 33.882813 53.511719 33.972656 53.421875 34.023438 L 44.109375 39.390625 C 44.066406 39.414063 44.019531 39.429688 43.96875 39.429688 "/>
<use xlink:href="#surface14" mask="url(#mask3)"/>
<use xlink:href="#surface17" mask="url(#mask4)"/>
</g>
</svg>
