<?xml version="1.0" encoding="UTF-8"?>
<svg xmlns="http://www.w3.org/2000/svg" xmlns:xlink="http://www.w3.org/1999/xlink" width="70pt" height="66pt" viewBox="0 0 70 66" version="1.1">
<defs>
<filter id="alpha" filterUnits="objectBoundingBox" x="0%" y="0%" width="100%" height="100%">
  <feColorMatrix type="matrix" in="SourceGraphic" values="0 0 0 0 1 0 0 0 0 1 0 0 0 0 1 0 0 0 1 0"/>
</filter>
<mask id="mask0">
  <g filter="url(#alpha)">
<rect x="0" y="0" width="70" height="66" style="fill:rgb(0,0,0);fill-opacity:0.2;stroke:none;"/>
  </g>
</mask>
<clipPath id="clip1">
  <rect x="0" y="0" width="70" height="66"/>
</clipPath>
<g id="surface5" clip-path="url(#clip1)">
<path style=" stroke:none;fill-rule:nonzero;fill:rgb(255,255,255);fill-opacity:1;" d="M 33.351563 9.179688 L 1.179688 9.179688 L 1.179688 35.109375 C 1.179688 35.527344 1.355469 35.957031 1.660156 36.277344 C 1.957031 36.597656 38.003906 9.179688 38.003906 9.179688 Z M 61.261719 43.566406 L 42.925781 43.566406 L 42.925781 56.316406 C 42.925781 56.316406 42.875 56.757813 43.160156 57.042969 Z M 61.261719 43.566406 "/>
</g>
</defs>
<g id="surface1">
<path style=" stroke:none;fill-rule:nonzero;fill:rgb(57,171,255);fill-opacity:1;" d="M 33.328125 9.179688 L 1.15625 9.179688 L 1.15625 35.109375 C 1.15625 35.515625 1.316406 35.921875 1.601563 36.226563 L 1.585938 36.238281 C 1.625 36.277344 1.671875 36.324219 1.722656 36.351563 C 2.019531 36.621094 2.398438 36.792969 2.855469 36.792969 L 36.292969 36.792969 C 37.140625 36.792969 37.992188 36.09375 37.992188 35.097656 L 37.992188 9.179688 Z M 33.328125 9.179688 "/>
<path style=" stroke:none;fill-rule:nonzero;fill:rgb(255,255,255);fill-opacity:1;" d="M 8.222656 14.957031 L 31.210938 14.957031 L 31.210938 17.070313 L 8.222656 17.070313 Z M 8.222656 21.855469 L 31.210938 21.855469 L 31.210938 23.96875 L 8.222656 23.96875 Z M 8.222656 28.765625 L 31.210938 28.765625 L 31.210938 30.878906 L 8.222656 30.878906 Z M 8.222656 28.765625 "/>
<path style=" stroke:none;fill-rule:nonzero;fill:rgb(39,163,255);fill-opacity:1;" d="M 54.765625 27.5 C 54.765625 27.5 56.460938 14.957031 44.894531 12.558594 C 44.894531 12.558594 43.910156 12.425781 42.640625 12.425781 C 41.226563 12.425781 40.671875 12.84375 40.671875 12.84375 L 40.671875 17.921875 C 40.671875 17.921875 41.089844 17.503906 42.925781 17.503906 C 44.058594 17.503906 44.894531 17.636719 45.324219 17.636719 C 48.007813 18.484375 50.542969 20.453125 49.976563 27.363281 L 45.042969 27.363281 L 52.796875 36.941406 L 60.414063 27.363281 L 54.765625 27.363281 Z M 54.765625 27.5 "/>
<path style=" stroke:none;fill-rule:nonzero;fill:rgb(57,171,255);fill-opacity:1;" d="M 64.648438 43.566406 L 63.660156 43.566406 L 63.660156 59.625 L 47.578125 59.625 L 47.578125 60.902344 C 47.578125 61.46875 47.710938 61.886719 48.277344 61.886719 L 64.929688 61.886719 C 65.496094 61.886719 65.914063 61.46875 65.914063 60.902344 L 65.914063 44.550781 C 65.914063 43.984375 65.210938 43.566406 64.648438 43.566406 Z M 64.648438 43.566406 "/>
<path style=" stroke:none;fill-rule:nonzero;fill:rgb(57,171,255);fill-opacity:1;" d="M 68.730469 47.648438 L 67.746094 47.648438 L 67.746094 63.570313 C 67.746094 63.707031 67.613281 63.707031 67.613281 63.707031 L 51.664063 63.707031 L 51.664063 64.972656 C 51.664063 65.539063 51.796875 65.957031 52.363281 65.957031 L 68.730469 65.957031 C 69.433594 65.957031 70 65.390625 70 64.691406 L 70 48.632813 C 70 48.078125 69.296875 47.648438 68.730469 47.648438 Z M 68.730469 47.648438 "/>
<path style=" stroke:none;fill-rule:nonzero;fill:rgb(3,148,255);fill-opacity:1;" d="M 5.820313 9.179688 L 37.976563 9.179688 L 37.976563 1.703125 C 37.976563 0.855469 37.277344 0.0078125 36.28125 0.0078125 L 2.855469 0.0078125 C 2.007813 0.0078125 1.15625 0.707031 1.15625 1.703125 L 1.15625 9.179688 Z M 60.265625 39.054688 L 43.898438 39.054688 C 43.332031 39.054688 42.914063 39.472656 42.914063 40.039063 L 42.914063 43.703125 L 61.238281 43.703125 L 61.238281 40.039063 C 61.261719 39.472656 60.832031 39.054688 60.265625 39.054688 Z M 60.265625 39.054688 "/>
<path style=" stroke:none;fill-rule:nonzero;fill:rgb(57,171,255);fill-opacity:1;" d="M 58.996094 43.566406 L 42.925781 43.566406 L 42.925781 56.390625 C 42.925781 56.957031 43.34375 57.375 43.910156 57.375 L 60.277344 57.375 C 60.84375 57.375 61.261719 56.957031 61.261719 56.390625 L 61.261719 43.566406 Z M 58.996094 43.566406 "/>
<path style=" stroke:none;fill-rule:nonzero;fill:rgb(255,255,255);fill-opacity:1;" d="M 47.148438 45.816406 L 56.316406 45.816406 L 56.316406 48.066406 L 47.148438 48.066406 Z M 47.148438 45.816406 "/>
<use xlink:href="#surface5" mask="url(#mask0)"/>
</g>
</svg>
