<?xml version="1.0" encoding="UTF-8"?>
<svg xmlns="http://www.w3.org/2000/svg" xmlns:xlink="http://www.w3.org/1999/xlink" width="70pt" height="70pt" viewBox="0 0 70 70" version="1.1">
<defs>
<linearGradient id="linear0" gradientUnits="userSpaceOnUse" x1="9" y1="17.44" x2="9" y2="11.44" gradientTransform="matrix(3.888889,0,0,3.888889,0,0)">
<stop offset="0" style="stop-color:rgb(0,108,188);stop-opacity:1;"/>
<stop offset="0.82" style="stop-color:rgb(41,164,255);stop-opacity:1;"/>
</linearGradient>
</defs>
<g id="surface1">
<path style=" stroke:none;fill-rule:nonzero;fill:rgb(0,81,142);fill-opacity:1;" d="M 23.488281 2.179688 L 58.996094 2.179688 C 59.898438 2.179688 60.628906 2.910156 60.628906 3.8125 L 60.628906 49.078125 C 60.628906 49.980469 59.898438 50.710938 58.996094 50.710938 L 23.488281 50.710938 C 22.585938 50.710938 21.855469 49.980469 21.855469 49.078125 L 21.855469 3.8125 C 21.855469 2.910156 22.585938 2.179688 23.488281 2.179688 Z M 23.488281 2.179688 "/>
<path style=" stroke:none;fill-rule:nonzero;fill:rgb(0,108,188);fill-opacity:1;" d="M 17.617188 7.429688 L 53.121094 7.429688 C 54.023438 7.429688 54.753906 8.160156 54.753906 9.0625 L 54.753906 54.328125 C 54.753906 55.230469 54.023438 55.960938 53.121094 55.960938 L 17.617188 55.960938 C 16.714844 55.960938 15.984375 55.230469 15.984375 54.328125 L 15.984375 9.0625 C 15.984375 8.160156 16.714844 7.429688 17.617188 7.429688 Z M 17.617188 7.429688 "/>
<path style=" stroke:none;fill-rule:nonzero;fill:rgb(47,166,255);fill-opacity:1;" d="M 11.667969 12.714844 L 47.171875 12.714844 C 48.074219 12.714844 48.804688 13.449219 48.804688 14.351563 L 48.804688 59.617188 C 48.804688 60.519531 48.074219 61.25 47.171875 61.25 L 11.667969 61.25 C 10.765625 61.25 10.035156 60.519531 10.035156 59.617188 L 10.035156 14.351563 C 10.035156 13.449219 10.765625 12.714844 11.667969 12.714844 Z M 11.667969 12.714844 "/>
<path style=" stroke:none;fill-rule:nonzero;fill:rgb(119,197,255);fill-opacity:1;" d="M 40.753906 27.183594 L 40.753906 40.367188 L 29.4375 46.976563 L 29.4375 33.792969 Z M 40.753906 27.183594 "/>
<path style=" stroke:none;fill-rule:nonzero;fill:rgb(201,232,255);fill-opacity:1;" d="M 40.753906 27.183594 L 29.4375 33.832031 L 18.121094 27.183594 L 29.4375 20.570313 Z M 40.753906 27.183594 "/>
<path style=" stroke:none;fill-rule:nonzero;fill:rgb(171,219,255);fill-opacity:1;" d="M 29.4375 33.832031 L 29.4375 46.976563 L 18.121094 40.367188 L 18.121094 27.183594 Z M 29.4375 33.832031 "/>
<path style=" stroke:none;fill-rule:nonzero;fill:rgb(201,232,255);fill-opacity:1;" d="M 18.121094 40.367188 L 29.4375 33.792969 L 29.4375 46.976563 Z M 18.121094 40.367188 "/>
<path style=" stroke:none;fill-rule:nonzero;fill:rgb(171,219,255);fill-opacity:1;" d="M 40.753906 40.367188 L 29.4375 33.792969 L 29.4375 46.976563 Z M 40.753906 40.367188 "/>
<path style=" stroke:none;fill-rule:nonzero;fill:url(#linear0);" d="M 4.355469 44.488281 L 65.605469 44.488281 C 66.808594 44.488281 67.785156 45.464844 67.785156 46.667969 L 67.785156 65.605469 C 67.785156 66.808594 66.808594 67.785156 65.605469 67.785156 L 4.355469 67.785156 C 3.152344 67.785156 2.179688 66.808594 2.179688 65.605469 L 2.179688 46.667969 C 2.179688 45.464844 3.152344 44.488281 4.355469 44.488281 Z M 4.355469 44.488281 "/>
<path style=" stroke:none;fill-rule:nonzero;fill:rgb(229,243,255);fill-opacity:1;" d="M 27.339844 50.246094 L 42.699219 50.246094 C 43.625 50.246094 44.371094 50.992188 44.371094 51.917969 L 44.371094 51.957031 C 44.371094 52.878906 43.625 53.628906 42.699219 53.628906 L 27.339844 53.628906 C 26.414063 53.628906 25.667969 52.878906 25.667969 51.957031 L 25.667969 51.917969 C 25.667969 50.992188 26.414063 50.246094 27.339844 50.246094 Z M 27.339844 50.246094 "/>
</g>
</svg>
