<?xml version="1.0" encoding="utf-8"?><svg version="1.1" xmlns="http://www.w3.org/2000/svg" xmlns:xlink="http://www.w3.org/1999/xlink" xmlns:xml="http://www.w3.org/XML/1998/namespace" width="70" height="70" viewBox="0, 0, 18, 18" id="adb2f05f-6e82-4a59-b297-bf5df98913c1"><defs><linearGradient x1="9" y1="11.06" x2="9" y2="7.53" gradientUnits="userSpaceOnUse" id="b3b71175-b4b2-4d4c-b282-a1b49585ff21"><stop offset="0%" stop-color="#E26708" /><stop offset="100%" stop-color="#F78D1E" /></linearGradient><linearGradient x1="9" y1="17.7" x2="9" y2="0.3" gradientUnits="userSpaceOnUse" id="e17163ac-c7b0-4b80-8260-a4d7dd5757b8"><stop offset="0%" stop-color="#E26708" /><stop offset="0.5%" stop-color="#E26808" /><stop offset="11.7%" stop-color="#EC7912" /><stop offset="25.7%" stop-color="#F28419" /><stop offset="45.4%" stop-color="#F68B1D" /><stop offset="100%" stop-color="#F78D1E" /></linearGradient></defs><path d="M9 9.7 L6.5 12.2 c0 -0.2 -0.2 -0.4 -0.3 -0.6 s-0.2 -0.2 -0.3 -0.2 L8.3 9 L5.7 6.4 a1.214 1.214 0 0 0 0.7 -0.7 L9 8.3 l2.6 -2.6 c0.1 0.2 0.1 0.3 0.3 0.4 a1.38 1.38 0 0 1 0.4 0.3 L9.7 9 l2.5 2.5 a0.87 0.87 0 0 0 -0.6 0.8 Z" style="fill:#E27908;" /><g><path d="M5.5 13.6 l2.2 2.2 v-0.1 a1.612 1.612 0 0 1 0.5 -1.1 L6.4 12.8 A1.06 1.06 0 0 1 5.5 13.6 Z" style="fill:#E27908;" /><path d="M2.2 10.2 h0 l2.1 2.2 a1 1 0 0 1 0.7 -0.9 L3.3 9.7 A1.612 1.612 0 0 1 2.2 10.2 Z" style="fill:#E27908;" /><path d="M4.3 5.6 L2.5 7.4 a1.451 1.451 0 0 1 1 0.7 L5.2 6.4 l-0.6 -0.3 C4.5 5.9 4.4 5.8 4.3 5.6 Z" style="fill:#E27908;" /><path d="M7.7 2.2 L5.6 4.3 a1.091 1.091 0 0 1 0.8 0.8 L8.2 3.3 A1.43 1.43 0 0 1 7.7 2.2 Z" style="fill:#E27908;" /><path d="M12.5 4.3 l-2 -2 a1.329 1.329 0 0 1 -0.6 1 l1.8 1.8 A1.091 1.091 0 0 1 12.5 4.3 Z" style="fill:#E27908;" /><path d="M15.7 7.5 L13.8 5.6 a1.091 1.091 0 0 1 -0.8 0.8 l1.8 1.8 A1.111 1.111 0 0 1 15.7 7.5 Z" style="fill:#E27908;" /><path d="M14.8 9.8 l-1.7 1.7 c0.2 0.1 0.3 0.1 0.4 0.3 a0.908 0.908 0 0 1 0.3 0.7 l2.1 -2.1 A2 2 0 0 1 14.8 9.8 Z" style="fill:#E27908;" /><path d="M11.7 12.9 L10 14.6 l0.1 0.1 a1.28 1.28 0 0 1 0.4 1 l2.1 -2.1 a0.908 0.908 0 0 1 -0.7 -0.3 A0.762 0.762 0 0 1 11.7 12.9 Z" style="fill:#E27908;" /></g><circle cx="5.4" cy="5.4" r="1.5" style="fill:#F78D1E;" /><circle cx="12.6" cy="5.4" r="1.5" style="fill:#F78D1E;" /><circle cx="5.4" cy="12.6" r="1.5" style="fill:#F78D1E;" /><circle cx="12.6" cy="12.6" r="1.5" style="fill:#F78D1E;" /><path d="M2.2 7.1 A1.9 1.9 0 1 1 0.3 9 A1.9 1.9 0 0 1 2.2 7.1 Z m13.6 0 A1.9 1.9 0 1 1 13.9 9 A1.9 1.9 0 0 1 15.8 7.1 Z" style="fill:url(#b3b71175-b4b2-4d4c-b282-a1b49585ff21);" /><path d="M9 0.3 A1.9 1.9 0 1 1 7.1 2.2 A1.9 1.9 0 0 1 9 0.3 Z M9 13.9 a1.9 1.9 0 1 1 -1.9 1.9 A1.9 1.9 0 0 1 9 13.9 Z" style="fill:url(#e17163ac-c7b0-4b80-8260-a4d7dd5757b8);" /></svg>