<?xml version="1.0" encoding="UTF-8"?>
<svg xmlns="http://www.w3.org/2000/svg" xmlns:xlink="http://www.w3.org/1999/xlink" width="70pt" height="70pt" viewBox="0 0 70 70" version="1.1">
<defs>
<filter id="alpha" filterUnits="objectBoundingBox" x="0%" y="0%" width="100%" height="100%">
  <feColorMatrix type="matrix" in="SourceGraphic" values="0 0 0 0 1 0 0 0 0 1 0 0 0 0 1 0 0 0 1 0"/>
</filter>
<mask id="mask0">
  <g filter="url(#alpha)">
<rect x="0" y="0" width="70" height="70" style="fill:rgb(0%,0%,0%);fill-opacity:0.2;stroke:none;"/>
  </g>
</mask>
<clipPath id="clip1">
  <rect x="0" y="0" width="70" height="70"/>
</clipPath>
<g id="surface5" clip-path="url(#clip1)">
<path style=" stroke:none;fill-rule:nonzero;fill:rgb(100%,100%,100%);fill-opacity:1;" d="M 65.8125 2.804688 L 65.769531 2.800781 L 3.800781 2.800781 C 1.695313 2.800781 0 4.65625 0 6.726563 L 0 49.304688 C 0 51.367188 1.695313 53.199219 3.800781 53.199219 L 5.277344 53.199219 Z M 65.8125 2.804688 "/>
</g>
<mask id="mask1">
  <g filter="url(#alpha)">
<rect x="0" y="0" width="70" height="70" style="fill:rgb(0%,0%,0%);fill-opacity:0.701961;stroke:none;"/>
  </g>
</mask>
<clipPath id="clip2">
  <rect x="0" y="0" width="70" height="70"/>
</clipPath>
<g id="surface8" clip-path="url(#clip2)">
<path style=" stroke:none;fill-rule:nonzero;fill:rgb(100%,100%,100%);fill-opacity:1;" d="M 33.316406 42.851563 C 33.25 42.851563 33.1875 42.835938 33.132813 42.804688 L 21.1875 36.023438 C 21.070313 35.964844 21 35.84375 21 35.714844 L 21 22.113281 C 21 21.984375 21.070313 21.867188 21.183594 21.800781 C 21.296875 21.738281 21.4375 21.738281 21.550781 21.800781 L 33.496094 28.578125 C 33.605469 28.644531 33.671875 28.761719 33.671875 28.890625 L 33.671875 42.496094 C 33.671875 42.621094 33.605469 42.738281 33.496094 42.804688 C 33.441406 42.835938 33.378906 42.851563 33.316406 42.851563 "/>
</g>
<mask id="mask2">
  <g filter="url(#alpha)">
<rect x="0" y="0" width="70" height="70" style="fill:rgb(0%,0%,0%);fill-opacity:0.4;stroke:none;"/>
  </g>
</mask>
<clipPath id="clip3">
  <rect x="0" y="0" width="70" height="70"/>
</clipPath>
<g id="surface11" clip-path="url(#clip3)">
<path style=" stroke:none;fill-rule:nonzero;fill:rgb(100%,100%,100%);fill-opacity:1;" d="M 36.699219 42.851563 C 36.632813 42.851563 36.566406 42.835938 36.511719 42.804688 C 36.402344 42.738281 36.335938 42.621094 36.335938 42.496094 L 36.335938 28.976563 C 36.335938 28.851563 36.40625 28.730469 36.511719 28.667969 L 48.457031 21.890625 C 48.566406 21.824219 48.707031 21.824219 48.816406 21.890625 C 48.929688 21.953125 49 22.070313 49 22.199219 L 49 35.714844 C 49 35.84375 48.929688 35.964844 48.816406 36.023438 L 36.875 42.804688 C 36.820313 42.835938 36.761719 42.851563 36.699219 42.851563 "/>
</g>
</defs>
<g id="surface1">
<path style=" stroke:none;fill-rule:nonzero;fill:rgb(47.843137%,47.843137%,47.843137%);fill-opacity:1;" d="M 43.398438 53.199219 L 26.601563 53.199219 C 28.886719 61.273438 26.058594 63 12.601563 63 L 12.601563 67.199219 L 57.398438 67.199219 L 57.398438 63 C 43.941406 63 41.109375 61.28125 43.398438 53.199219 Z M 43.398438 53.199219 "/>
<path style=" stroke:none;fill-rule:nonzero;fill:rgb(62.745098%,63.137255%,63.529412%);fill-opacity:1;" d="M 65.769531 2.800781 L 3.804688 2.800781 C 1.699219 2.800781 0 4.65625 0 6.726563 L 0 49.304688 C 0 51.363281 1.699219 53.199219 3.804688 53.199219 L 65.769531 53.199219 C 67.871094 53.199219 70 51.363281 70 49.304688 L 70 6.726563 C 70 4.648438 67.871094 2.800781 65.769531 2.800781 "/>
<use xlink:href="#surface5" mask="url(#mask0)"/>
<path style=" stroke:none;fill-rule:nonzero;fill:rgb(34.901961%,70.588235%,85.098039%);fill-opacity:1;" d="M 64.398438 8.398438 L 64.398438 47.601563 L 5.601563 47.601563 L 5.601563 8.398438 Z M 64.398438 8.398438 "/>
<path style=" stroke:none;fill-rule:nonzero;fill:rgb(62.745098%,63.137255%,63.529412%);fill-opacity:1;" d="M 12.601563 62.96875 L 57.398438 63 L 57.398438 67.199219 L 12.601563 67.199219 Z M 12.601563 62.96875 "/>
<path style=" stroke:none;fill-rule:nonzero;fill:rgb(72.156863%,83.137255%,19.607843%);fill-opacity:1;" d="M 35.722656 5.734375 C 35.722656 6.28125 35.277344 6.726563 34.730469 6.726563 C 34.179688 6.726563 33.734375 6.28125 33.734375 5.734375 C 33.734375 5.183594 34.179688 4.738281 34.730469 4.738281 C 35.277344 4.738281 35.722656 5.183594 35.722656 5.734375 "/>
<path style=" stroke:none;fill-rule:nonzero;fill:rgb(100%,100%,100%);fill-opacity:1;" d="M 35.039063 26.324219 C 34.972656 26.320313 34.910156 26.304688 34.855469 26.273438 L 22.871094 19.472656 C 22.761719 19.40625 22.691406 19.289063 22.691406 19.160156 C 22.691406 19.035156 22.761719 18.917969 22.871094 18.855469 L 34.78125 12.097656 C 34.894531 12.035156 35.03125 12.035156 35.140625 12.097656 L 47.128906 18.898438 C 47.242188 18.960938 47.308594 19.082031 47.308594 19.207031 C 47.308594 19.335938 47.242188 19.453125 47.128906 19.515625 L 35.222656 26.269531 C 35.167969 26.304688 35.101563 26.320313 35.039063 26.324219 "/>
<use xlink:href="#surface8" mask="url(#mask1)"/>
<use xlink:href="#surface11" mask="url(#mask2)"/>
<path style=" stroke:none;fill-rule:nonzero;fill:rgb(100%,100%,100%);fill-opacity:1;" d="M 21 11.199219 L 8.398438 11.199219 L 8.398438 23.800781 L 12.601563 23.800781 L 12.601563 15.398438 L 21 15.398438 Z M 8.398438 32.199219 L 8.398438 44.800781 L 21 44.800781 L 21 40.601563 L 12.601563 40.601563 L 12.601563 32.199219 Z M 49 44.800781 L 61.601563 44.800781 L 61.601563 32.199219 L 57.398438 32.199219 L 57.398438 40.601563 L 49 40.601563 Z M 61.601563 23.800781 L 61.601563 11.199219 L 49 11.199219 L 49 15.398438 L 57.398438 15.398438 L 57.398438 23.800781 Z M 61.601563 23.800781 "/>
</g>
</svg>
