<?xml version="1.0" encoding="utf-8"?><svg version="1.1" xmlns="http://www.w3.org/2000/svg" xmlns:xlink="http://www.w3.org/1999/xlink" xmlns:xml="http://www.w3.org/XML/1998/namespace" width="70" height="70" viewBox="0, 0, 18, 18" id="b5aac633-5e4e-4ba3-b79d-874030b01628"><defs><linearGradient x1="14.18" y1="12.41" x2="14.2" y2="12.41" gradientUnits="userSpaceOnUse" id="f5aba28d-a61e-4c5e-a881-77250d6754cf"><stop offset="0%" stop-color="#0078D4" /><stop offset="14%" stop-color="#1782DA" /><stop offset="37%" stop-color="#368FE3" /><stop offset="59%" stop-color="#4C98EA" /><stop offset="80%" stop-color="#599EEE" /><stop offset="99%" stop-color="#5EA0EF" /></linearGradient><linearGradient x1="9.01" y1="11.69" x2="9.01" y2="2.48" gradientUnits="userSpaceOnUse" id="bdc9aa5d-e4d2-4d75-91df-453ede2d7944"><stop offset="0%" stop-color="#0078D4" /><stop offset="54%" stop-color="#358EE3" /><stop offset="100%" stop-color="#5EA0EF" /></linearGradient></defs><title>Icon-compute-26</title><ellipse cx="9.01" cy="11.12" rx="6.07" ry="2.49" style="fill:#76BC2D;" /><ellipse cx="9.16" cy="11.1" rx="2.02" ry="0.55" style="fill:#5E9624;" /><path d="M14.18 12.4 h0 Z" style="fill:url(#f5aba28d-a61e-4c5e-a881-77250d6754cf);" /><ellipse cx="9.01" cy="5.59" rx="6.07" ry="2.49" style="fill:url(#bdc9aa5d-e4d2-4d75-91df-453ede2d7944);" /><ellipse cx="9.16" cy="5.56" rx="2.02" ry="0.55" style="fill:#005BA1;" /><path d="M3.89 0.12 h-3 A0.58 0.58 0 0 0 0.29 0.71 v3 A0.29 0.29 0 0 0 0.58 4 H0.91 a0.29 0.29 0 0 0 0.3 -0.29 V1 H3.89 a0.29 0.29 0 0 0 0.3 -0.29 V0.42 A0.29 0.29 0 0 0 3.89 0.12 Z" style="fill:#949494;" /><path d="M17 0.12 H14 a0.3 0.3 0 0 0 -0.3 0.3 V0.74 A0.3 0.3 0 0 0 14 1 h2.69 v2.7 A0.29 0.29 0 0 0 17 4 h0.33 a0.29 0.29 0 0 0 0.3 -0.29 v-3 h0 A0.59 0.59 0 0 0 17 0.12 Z" style="fill:#949494;" /><path d="M3.89 17.21 H1.21 v-2.7 a0.29 0.29 0 0 0 -0.3 -0.29 H0.58 a0.29 0.29 0 0 0 -0.29 0.29 v3 h0 a0.58 0.58 0 0 0 0.58 0.59 h3 a0.29 0.29 0 0 0 0.3 -0.29 v-0.32 A0.3 0.3 0 0 0 3.89 17.21 Z" style="fill:#949494;" /><path d="M17.29 14.22 H17 a0.29 0.29 0 0 0 -0.29 0.29 v2.7 H14 a0.31 0.31 0 0 0 -0.3 0.3 v0.32 a0.3 0.3 0 0 0 0.3 0.29 h3 a0.59 0.59 0 0 0 0.59 -0.59 v-3 A0.29 0.29 0 0 0 17.29 14.22 Z" style="fill:#949494;" /><path d="M9 13.56 c3.35 0 6.07 -1.11 6.07 -2.49 h0 v1.47 h0 C15 13.88 12.29 15 9 15 s-6.07 -1.12 -6.07 -2.49 V11.07 C2.94 12.45 5.66 13.56 9 13.56 Z" style="fill:#5E9624;" /><path d="M14.18 12.4 h0 Z" style="fill:url(#f5aba28d-a61e-4c5e-a881-77250d6754cf);" /><path d="M9 8 c3.35 0 6.07 -1.12 6.07 -2.49 h0 V7 h0 C15 8.35 12.29 9.42 9 9.42 S2.94 8.3 2.94 6.92 V5.54 C2.94 6.91 5.66 8 9 8 Z" style="fill:#0078D4;" /></svg>