<?xml version="1.0" encoding="UTF-8"?>
<svg xmlns="http://www.w3.org/2000/svg" xmlns:xlink="http://www.w3.org/1999/xlink" width="70pt" height="70pt" viewBox="0 0 70 70" version="1.1">
<defs>
<linearGradient id="linear0" gradientUnits="userSpaceOnUse" x1="8.86" y1="13.02" x2="8.86" y2="1.02" gradientTransform="matrix(3.888889,0,0,3.888889,0,0)">
<stop offset="0" style="stop-color:rgb(0,108,188);stop-opacity:1;"/>
<stop offset="0.82" style="stop-color:rgb(41,164,255);stop-opacity:1;"/>
</linearGradient>
<filter id="alpha" filterUnits="objectBoundingBox" x="0%" y="0%" width="100%" height="100%">
  <feColorMatrix type="matrix" in="SourceGraphic" values="0 0 0 0 1 0 0 0 0 1 0 0 0 0 1 0 0 0 1 0"/>
</filter>
<mask id="mask0">
  <g filter="url(#alpha)">
<rect x="0" y="0" width="70" height="70" style="fill:rgb(0,0,0);fill-opacity:0.2;stroke:none;"/>
  </g>
</mask>
<clipPath id="clip1">
  <rect x="0" y="0" width="70" height="70"/>
</clipPath>
<g id="surface5" clip-path="url(#clip1)">
<path style=" stroke:none;fill-rule:nonzero;fill:rgb(95,187,255);fill-opacity:1;" d="M 22.789063 34.066406 L 34.457031 27.300781 L 34.457031 40.910156 Z M 22.789063 34.066406 "/>
</g>
<mask id="mask1">
  <g filter="url(#alpha)">
<rect x="0" y="0" width="70" height="70" style="fill:rgb(0,0,0);fill-opacity:0.2;stroke:none;"/>
  </g>
</mask>
<clipPath id="clip2">
  <rect x="0" y="0" width="70" height="70"/>
</clipPath>
<g id="surface8" clip-path="url(#clip2)">
<path style=" stroke:none;fill-rule:nonzero;fill:rgb(41,164,255);fill-opacity:1;" d="M 46.121094 34.066406 L 34.457031 27.300781 L 34.457031 40.910156 Z M 46.121094 34.066406 "/>
</g>
<linearGradient id="linear1" gradientUnits="userSpaceOnUse" x1="8.86" y1="17.65" x2="8.86" y2="13.02" gradientTransform="matrix(3.888889,0,0,3.888889,0,0)">
<stop offset="0" style="stop-color:rgb(0,132,230);stop-opacity:1;"/>
<stop offset="0.98" style="stop-color:rgb(0,88,154);stop-opacity:1;"/>
</linearGradient>
</defs>
<g id="surface1">
<path style=" stroke:none;fill-rule:nonzero;fill:url(#linear0);" d="M 1.789063 3.964844 L 67.121094 3.964844 C 68.410156 3.964844 69.457031 5.011719 69.457031 6.300781 L 69.457031 48.300781 C 69.457031 49.589844 68.410156 50.632813 67.121094 50.632813 L 1.789063 50.632813 C 0.5 50.632813 -0.542969 49.589844 -0.542969 48.300781 L -0.542969 6.300781 C -0.542969 5.011719 0.5 3.964844 1.789063 3.964844 Z M 1.789063 3.964844 "/>
<path style=" stroke:none;fill-rule:nonzero;fill:rgb(255,255,255);fill-opacity:1;" d="M 4.628906 7.855469 L 64.285156 7.855469 C 64.992188 7.855469 65.566406 8.429688 65.566406 9.140625 L 65.566406 45.460938 C 65.566406 46.167969 64.992188 46.746094 64.285156 46.746094 L 4.628906 46.746094 C 3.917969 46.746094 3.34375 46.167969 3.34375 45.460938 L 3.34375 9.140625 C 3.34375 8.429688 3.917969 7.855469 4.628906 7.855469 Z M 4.628906 7.855469 "/>
<path style=" stroke:none;fill-rule:nonzero;fill:rgb(0,108,188);fill-opacity:1;" d="M 46.121094 20.496094 L 46.121094 34.066406 L 34.457031 40.910156 L 34.457031 27.300781 Z M 46.121094 20.496094 "/>
<path style=" stroke:none;fill-rule:nonzero;fill:rgb(95,187,255);fill-opacity:1;" d="M 46.121094 20.496094 L 34.457031 27.339844 L 22.789063 20.496094 L 34.457031 13.6875 Z M 46.121094 20.496094 "/>
<path style=" stroke:none;fill-rule:nonzero;fill:rgb(41,164,255);fill-opacity:1;" d="M 34.457031 27.339844 L 34.457031 40.910156 L 22.789063 34.066406 L 22.789063 20.496094 Z M 34.457031 27.339844 "/>
<use xlink:href="#surface5" mask="url(#mask0)"/>
<use xlink:href="#surface8" mask="url(#mask1)"/>
<path style=" stroke:none;fill-rule:nonzero;fill:url(#linear1);" d="M 48.457031 64.75 C 41.570313 63.660156 41.300781 58.644531 41.300781 50.632813 L 27.570313 50.632813 C 27.570313 58.644531 27.300781 63.660156 20.417969 64.75 C 18.4375 64.96875 16.945313 66.648438 16.957031 68.640625 L 51.957031 68.640625 C 51.964844 66.632813 50.449219 64.949219 48.457031 64.75 Z M 48.457031 64.75 "/>
</g>
</svg>
