<?xml version="1.0" encoding="UTF-8"?>
<svg xmlns="http://www.w3.org/2000/svg" xmlns:xlink="http://www.w3.org/1999/xlink" width="70pt" height="70pt" viewBox="0 0 70 70" version="1.1">
<defs>
<linearGradient id="linear0" gradientUnits="userSpaceOnUse" x1="8.99" y1="16.61" x2="8.99" y2="-1.27" gradientTransform="matrix(3.888889,0,0,3.888889,0,0)">
<stop offset="0" style="stop-color:rgb(0,108,188);stop-opacity:1;"/>
<stop offset="0.16" style="stop-color:rgb(0,120,210);stop-opacity:1;"/>
<stop offset="0.53" style="stop-color:rgb(1,147,255);stop-opacity:1;"/>
<stop offset="0.82" style="stop-color:rgb(31,159,255);stop-opacity:1;"/>
<stop offset="1" style="stop-color:rgb(41,164,255);stop-opacity:1;"/>
</linearGradient>
</defs>
<g id="surface1">
<path style=" stroke:none;fill-rule:nonzero;fill:url(#linear0);" d="M 70 41.027344 C 69.875 33.199219 64.097656 26.613281 56.351563 25.472656 C 56.054688 14.476563 46.929688 5.789063 35.933594 6.027344 C 27.242188 5.9375 19.445313 11.351563 16.488281 19.523438 C 7.097656 20.746094 0.0546875 28.71875 0 38.1875 C 0.296875 48.785156 9.121094 57.136719 19.714844 56.855469 L 53.355469 56.855469 C 53.640625 56.878906 53.925781 56.878906 54.210938 56.855469 C 62.886719 56.710938 69.875 49.703125 70 41.027344 Z M 70 41.027344 "/>
<path style=" stroke:none;fill-rule:nonzero;fill:rgb(199,231,255);fill-opacity:1;" d="M 23.140625 37.527344 C 23.140625 39.050781 21.902344 40.289063 20.378906 40.289063 C 18.851563 40.289063 17.617188 39.050781 17.617188 37.527344 C 17.617188 36.003906 18.851563 34.765625 20.378906 34.765625 C 21.902344 34.765625 23.140625 36.003906 23.140625 37.527344 Z M 23.140625 37.527344 "/>
<path style=" stroke:none;fill-rule:nonzero;fill:rgb(255,255,255);fill-opacity:1;" d="M 30.101563 38.578125 L 30.101563 36.359375 L 29.789063 36.359375 L 27.417969 35.582031 L 26.792969 34.066406 L 28 31.5 L 26.445313 29.945313 L 26.132813 29.945313 L 23.917969 31.109375 L 22.398438 30.488281 L 21.429688 27.804688 L 19.210938 27.804688 L 19.210938 28.117188 L 18.433594 30.488281 L 16.800781 31.109375 L 14.273438 29.90625 L 12.714844 31.460938 L 12.714844 31.773438 L 13.84375 33.988281 L 13.222656 35.503906 L 10.5 36.476563 L 10.5 38.890625 L 10.8125 38.890625 L 13.183594 39.667969 L 13.804688 41.183594 L 12.601563 43.75 L 14.15625 45.304688 L 14.464844 45.304688 L 16.683594 44.179688 L 18.199219 44.800781 L 19.171875 47.484375 L 21.390625 47.484375 L 21.390625 47.171875 L 22.167969 44.800781 L 23.683594 44.179688 L 26.25 45.382813 L 27.804688 43.828125 L 27.804688 43.515625 L 26.679688 41.300781 L 27.300781 39.785156 Z M 20.378906 41.804688 C 18.015625 41.804688 16.101563 39.890625 16.101563 37.527344 C 16.101563 35.164063 18.015625 33.25 20.378906 33.25 C 22.742188 33.25 24.65625 35.164063 24.65625 37.527344 C 24.667969 38.664063 24.21875 39.757813 23.414063 40.5625 C 22.609375 41.367188 21.515625 41.816406 20.378906 41.804688 Z M 20.378906 41.804688 "/>
<path style=" stroke:none;fill-rule:nonzero;fill:rgb(199,231,255);fill-opacity:1;" d="M 42.15625 25.628906 C 42.15625 27.433594 40.691406 28.894531 38.890625 28.894531 C 37.085938 28.894531 35.621094 27.433594 35.621094 25.628906 C 35.621094 23.824219 37.085938 22.359375 38.890625 22.359375 C 40.691406 22.359375 42.15625 23.824219 42.15625 25.628906 Z M 42.15625 25.628906 "/>
<path style=" stroke:none;fill-rule:nonzero;fill:rgb(255,255,255);fill-opacity:1;" d="M 50.554688 26.871094 L 50.554688 24.226563 L 50.207031 24.226563 L 47.328125 23.332031 L 46.667969 21.351563 L 48.105469 18.238281 L 46.238281 16.371094 L 45.890625 16.371094 L 43.207031 17.734375 L 41.417969 16.996094 L 40.25 13.765625 L 37.488281 13.765625 L 37.488281 14.15625 L 36.554688 16.996094 L 34.726563 17.734375 L 31.695313 16.292969 L 29.828125 18.160156 L 30.023438 18.511719 L 31.109375 21.390625 L 30.488281 23.332031 L 27.222656 24.382813 L 27.222656 27.222656 L 27.609375 27.222656 L 30.449219 28.15625 L 31.109375 29.90625 L 29.671875 33.015625 L 31.617188 35 L 32.003906 34.804688 L 34.648438 33.445313 L 36.476563 34.183594 L 37.644531 37.410156 L 40.289063 37.410156 L 40.289063 37.023438 L 41.222656 34.183594 L 43.050781 33.445313 L 46.121094 34.882813 L 47.988281 33.015625 L 47.792969 32.667969 L 46.667969 29.867188 L 47.40625 28.039063 Z M 38.890625 30.761719 C 36.054688 30.761719 33.753906 28.460938 33.753906 25.628906 C 33.753906 22.792969 36.054688 20.496094 38.890625 20.496094 C 41.722656 20.496094 44.023438 22.792969 44.023438 25.628906 C 44.03125 26.992188 43.496094 28.304688 42.53125 29.269531 C 41.566406 30.234375 40.253906 30.773438 38.890625 30.761719 Z M 38.890625 30.761719 "/>
</g>
</svg>
