<?xml version="1.0" encoding="UTF-8"?>
<svg xmlns="http://www.w3.org/2000/svg" xmlns:xlink="http://www.w3.org/1999/xlink" width="70pt" height="70pt" viewBox="0 0 70 70" version="1.1">
<defs>
<linearGradient id="linear0" gradientUnits="userSpaceOnUse" x1="9" y1="17.5" x2="9" y2="0.5" gradientTransform="matrix(3.888889,0,0,3.888889,0,0)">
<stop offset="0" style="stop-color:rgb(0,81,142);stop-opacity:1;"/>
<stop offset="0.168" style="stop-color:rgb(0,88,154);stop-opacity:1;"/>
<stop offset="0.577" style="stop-color:rgb(0,102,178);stop-opacity:1;"/>
<stop offset="0.815" style="stop-color:rgb(0,108,188);stop-opacity:1;"/>
</linearGradient>
</defs>
<g id="surface1">
<path style=" stroke:none;fill-rule:nonzero;fill:url(#linear0);" d="M 68.054688 35 C 68.054688 53.257813 53.257813 68.054688 35 68.054688 C 16.742188 68.054688 1.945313 53.257813 1.945313 35 C 1.945313 16.742188 16.742188 1.945313 35 1.945313 C 53.257813 1.945313 68.054688 16.742188 68.054688 35 Z M 68.054688 35 "/>
<path style=" stroke:none;fill-rule:evenodd;fill:rgb(141,206,255);fill-opacity:1;" d="M 34.535156 18.238281 C 32.917969 18.238281 31.605469 19.546875 31.605469 21.164063 L 31.605469 35.527344 C 31.605469 37.144531 32.917969 38.453125 34.535156 38.453125 L 48.894531 38.453125 C 50.511719 38.453125 51.820313 37.144531 51.820313 35.527344 L 51.820313 21.164063 C 51.820313 19.546875 50.511719 18.238281 48.894531 18.238281 Z M 37.167969 22.042969 C 36.699219 22.042969 36.253906 22.226563 35.921875 22.554688 C 35.59375 22.882813 35.410156 23.332031 35.410156 23.796875 L 35.410156 32.890625 C 35.410156 33.863281 36.195313 34.648438 37.167969 34.648438 L 46.277344 34.648438 C 46.742188 34.648438 47.191406 34.464844 47.519531 34.136719 C 47.847656 33.804688 48.03125 33.359375 48.03125 32.890625 L 48.03125 23.796875 C 48.03125 22.828125 47.246094 22.042969 46.277344 22.042969 Z M 37.167969 22.042969 "/>
<path style=" stroke:none;fill-rule:nonzero;fill:rgb(255,255,255);fill-opacity:1;" d="M 18.179688 29.167969 C 18.179688 28.199219 18.964844 27.414063 19.933594 27.414063 L 27.132813 27.414063 C 28.101563 27.414063 28.886719 28.199219 28.886719 29.167969 L 28.886719 36.402344 C 28.886719 37.371094 28.101563 38.15625 27.132813 38.15625 L 19.933594 38.15625 C 18.964844 38.15625 18.179688 37.371094 18.179688 36.402344 Z M 18.179688 42.808594 C 18.179688 41.839844 18.964844 41.054688 19.933594 41.054688 L 27.132813 41.054688 C 28.101563 41.054688 28.886719 41.839844 28.886719 42.808594 L 28.886719 50.007813 C 28.886719 50.976563 28.101563 51.761719 27.132813 51.761719 L 19.933594 51.761719 C 18.964844 51.761719 18.179688 50.976563 18.179688 50.007813 Z M 31.605469 42.632813 C 31.605469 42.167969 31.789063 41.722656 32.121094 41.390625 C 32.449219 41.0625 32.898438 40.878906 33.363281 40.878906 L 40.558594 40.878906 C 41.527344 40.878906 42.3125 41.664063 42.316406 42.632813 L 42.316406 49.832031 C 42.3125 50.800781 41.527344 51.585938 40.558594 51.585938 L 33.363281 51.585938 C 32.898438 51.585938 32.449219 51.402344 32.121094 51.074219 C 31.789063 50.746094 31.605469 50.296875 31.605469 49.832031 Z M 31.605469 42.632813 "/>
</g>
</svg>
