<?xml version="1.0" encoding="UTF-8"?>
<svg xmlns="http://www.w3.org/2000/svg" xmlns:xlink="http://www.w3.org/1999/xlink" width="70pt" height="70pt" viewBox="0 0 70 70" version="1.1">
<defs>
<linearGradient id="linear0" gradientUnits="userSpaceOnUse" x1="5.759" y1="0.5" x2="5.759" y2="16.523" gradientTransform="matrix(3.888889,0,0,3.888889,0,0)">
<stop offset="0" style="stop-color:rgb(70.196078%,69.803922%,70.196078%);stop-opacity:1;"/>
<stop offset="0.375" style="stop-color:rgb(68.627451%,68.235294%,68.627451%);stop-opacity:1;"/>
<stop offset="0.763" style="stop-color:rgb(63.529412%,63.529412%,63.529412%);stop-opacity:1;"/>
<stop offset="1" style="stop-color:rgb(59.215686%,59.215686%,59.215686%);stop-opacity:1;"/>
</linearGradient>
<linearGradient id="linear1" gradientUnits="userSpaceOnUse" x1="11.676" y1="17.5" x2="11.676" y2="8.901" gradientTransform="matrix(3.888889,0,0,3.888889,0,0)">
<stop offset="0" style="stop-color:rgb(0%,47.058824%,83.137255%);stop-opacity:1;"/>
<stop offset="0.156" style="stop-color:rgb(7.45098%,50.196078%,85.490196%);stop-opacity:1;"/>
<stop offset="0.528" style="stop-color:rgb(23.529412%,56.862745%,89.803922%);stop-opacity:1;"/>
<stop offset="0.822" style="stop-color:rgb(33.333333%,61.176471%,92.54902%);stop-opacity:1;"/>
<stop offset="1" style="stop-color:rgb(36.862745%,62.745098%,93.72549%);stop-opacity:1;"/>
</linearGradient>
</defs>
<g id="surface1">
<path style=" stroke:none;fill-rule:nonzero;fill:url(#linear0);" d="M 42.621094 62.144531 C 42.558594 63.371094 41.515625 64.3125 40.289063 64.257813 L 4.511719 64.257813 C 3.285156 64.3125 2.242188 63.371094 2.179688 62.144531 L 2.179688 4.054688 C 2.242188 2.832031 3.28125 1.890625 4.503906 1.945313 L 40.28125 1.945313 C 41.507813 1.886719 42.550781 2.832031 42.613281 4.054688 Z M 42.621094 62.144531 "/>
<path style=" stroke:none;fill-rule:nonzero;fill:rgb(0%,18.823529%,40.392157%);fill-opacity:1;" d="M 8.113281 28.582031 C 7.988281 26.027344 9.953125 23.851563 12.511719 23.722656 L 32.644531 23.722656 C 35.199219 23.851563 37.167969 26.027344 37.042969 28.582031 C 37.167969 31.140625 35.199219 33.316406 32.644531 33.445313 L 12.511719 33.445313 C 9.953125 33.316406 7.988281 31.140625 8.113281 28.582031 Z M 8.113281 28.582031 "/>
<path style=" stroke:none;fill-rule:nonzero;fill:rgb(0%,18.823529%,40.392157%);fill-opacity:1;" d="M 8.113281 14.191406 C 7.988281 11.636719 9.957031 9.464844 12.511719 9.332031 L 32.644531 9.332031 C 35.199219 9.464844 37.164063 11.636719 37.042969 14.191406 C 37.160156 16.742188 35.191406 18.90625 32.644531 19.035156 L 12.511719 19.035156 C 9.960938 18.90625 7.996094 16.742188 8.113281 14.191406 Z M 8.113281 14.191406 "/>
<path style=" stroke:none;fill-rule:nonzero;fill:rgb(31.372549%,90.196078%,100%);fill-opacity:1;" d="M 17.027344 14.191406 C 17.027344 15.984375 15.570313 17.441406 13.773438 17.441406 C 11.980469 17.441406 10.523438 15.984375 10.523438 14.191406 C 10.523438 12.394531 11.980469 10.9375 13.773438 10.9375 C 15.570313 10.9375 17.027344 12.394531 17.027344 14.191406 Z M 17.027344 14.191406 "/>
<path style=" stroke:none;fill-rule:nonzero;fill:rgb(31.372549%,90.196078%,100%);fill-opacity:1;" d="M 17.027344 28.582031 C 17.027344 30.378906 15.570313 31.835938 13.773438 31.835938 C 11.980469 31.835938 10.523438 30.378906 10.523438 28.582031 C 10.523438 26.789063 11.980469 25.332031 13.773438 25.332031 C 15.570313 25.332031 17.027344 26.789063 17.027344 28.582031 Z M 17.027344 28.582031 "/>
<path style=" stroke:none;fill-rule:nonzero;fill:url(#linear1);" d="M 57.746094 40.769531 L 45.40625 34.609375 L 32.621094 40.769531 L 27.953125 49.910156 L 27.953125 66.945313 C 27.957031 67.558594 28.453125 68.054688 29.066406 68.054688 L 61.75 68.054688 C 62.363281 68.054688 62.863281 67.558594 62.863281 66.945313 L 62.863281 49.910156 Z M 57.746094 40.769531 "/>
<path style=" stroke:none;fill-rule:nonzero;fill:rgb(31.372549%,90.196078%,100%);fill-opacity:1;" d="M 25.203125 54.832031 C 24.625 54.835938 24.082031 54.542969 23.765625 54.054688 C 23.453125 53.566406 23.40625 52.949219 23.648438 52.421875 L 29.132813 40.445313 C 29.289063 40.113281 29.550781 39.839844 29.875 39.667969 L 44.863281 31.605469 C 45.371094 31.328125 45.988281 31.328125 46.496094 31.605469 L 60.964844 39.667969 C 61.265625 39.832031 61.507813 40.085938 61.660156 40.394531 L 67.667969 52.363281 C 68.085938 53.203125 67.75 54.226563 66.910156 54.648438 C 66.070313 55.066406 65.046875 54.726563 64.625 53.886719 L 58.851563 42.390625 L 45.652344 35.039063 L 31.988281 42.390625 L 26.75 53.832031 C 26.476563 54.441406 25.871094 54.832031 25.203125 54.832031 Z M 25.203125 54.832031 "/>
<path style=" stroke:none;fill-rule:nonzero;fill:rgb(0%,35.686275%,63.137255%);fill-opacity:1;" d="M 42.882813 44.371094 L 47.617188 44.371094 C 48.226563 44.371094 48.722656 44.867188 48.722656 45.480469 L 48.722656 50.539063 C 48.722656 51.152344 48.226563 51.648438 47.617188 51.648438 L 42.882813 51.648438 C 42.269531 51.648438 41.773438 51.152344 41.773438 50.539063 L 41.773438 45.480469 C 41.773438 44.867188 42.269531 44.371094 42.882813 44.371094 Z M 42.882813 44.371094 "/>
<path style=" stroke:none;fill-rule:nonzero;fill:rgb(0%,35.686275%,63.137255%);fill-opacity:1;" d="M 45.246094 61.988281 L 51.96875 57.488281 C 51.785156 57.363281 51.566406 57.296875 51.34375 57.300781 L 39.148438 57.300781 C 38.925781 57.296875 38.710938 57.363281 38.527344 57.488281 Z M 45.246094 61.988281 "/>
<path style=" stroke:none;fill-rule:nonzero;fill:rgb(0%,35.686275%,63.137255%);fill-opacity:1;" d="M 52.453125 66.8125 L 52.453125 58.539063 L 46.273438 62.675781 Z M 52.453125 66.8125 "/>
<path style=" stroke:none;fill-rule:nonzero;fill:rgb(0%,35.686275%,63.137255%);fill-opacity:1;" d="M 44.21875 62.675781 L 38.042969 58.539063 L 38.042969 66.8125 Z M 44.21875 62.675781 "/>
<path style=" stroke:none;fill-rule:nonzero;fill:rgb(0%,35.686275%,63.137255%);fill-opacity:1;" d="M 52.402344 68.054688 L 52.453125 68.054688 L 52.453125 67.972656 Z M 52.402344 68.054688 "/>
<path style=" stroke:none;fill-rule:nonzero;fill:rgb(0%,35.686275%,63.137255%);fill-opacity:1;" d="M 38.042969 67.972656 L 38.042969 68.054688 L 38.09375 68.054688 Z M 38.042969 67.972656 "/>
<path style=" stroke:none;fill-rule:nonzero;fill:rgb(0%,35.686275%,63.137255%);fill-opacity:1;" d="M 38.238281 68.054688 L 52.253906 68.054688 L 45.246094 63.367188 Z M 38.238281 68.054688 "/>
</g>
</svg>
