<?xml version="1.0" encoding="UTF-8"?>
<svg xmlns="http://www.w3.org/2000/svg" xmlns:xlink="http://www.w3.org/1999/xlink" width="70pt" height="70pt" viewBox="0 0 70 70" version="1.1">
<g id="surface1">
<path style=" stroke:none;fill-rule:nonzero;fill:rgb(19.607843%,46.27451%,73.72549%);fill-opacity:1;" d="M 28.339844 65.21875 L 4.953125 65.21875 L 4.953125 42 L 9.5625 42 C 9.046875 40.632813 8.707031 39.097656 8.707031 37.390625 C 8.707031 37.390625 8.707031 37.21875 8.707031 37.046875 L 0 37.046875 L 0 70 L 33.121094 70 L 33.121094 50.535156 L 28.339844 50.535156 Z M 28.339844 65.21875 "/>
<path style=" stroke:none;fill-rule:nonzero;fill:rgb(19.607843%,46.27451%,73.72549%);fill-opacity:1;" d="M 60.953125 42 L 65.21875 42 L 65.21875 65.21875 L 41.828125 65.21875 L 41.828125 50.535156 L 37.046875 50.535156 L 37.046875 70 L 70.171875 70 L 70.171875 37.046875 L 59.757813 37.046875 C 60.609375 38.414063 60.953125 39.953125 60.953125 41.660156 C 60.953125 41.828125 60.953125 41.828125 60.953125 42 Z M 60.953125 42 "/>
<path style=" stroke:none;fill-rule:nonzero;fill:rgb(19.607843%,46.27451%,73.72549%);fill-opacity:1;" d="M 4.953125 28.171875 L 4.953125 4.953125 L 28.339844 4.953125 L 28.339844 18.4375 C 29.878906 17.414063 31.414063 16.5625 33.121094 16.046875 L 33.121094 0.171875 L 0.171875 0.171875 L 0.171875 33.121094 L 9.730469 33.121094 C 10.414063 31.242188 11.4375 29.707031 12.804688 28.339844 Z M 4.953125 28.171875 "/>
<path style=" stroke:none;fill-rule:nonzero;fill:rgb(19.607843%,46.27451%,73.72549%);fill-opacity:1;" d="M 41.828125 15.707031 L 41.828125 4.953125 L 65.21875 4.953125 L 65.21875 28.171875 L 55.144531 28.171875 C 55.488281 29.707031 55.828125 31.242188 55.828125 32.78125 C 55.828125 32.78125 55.828125 32.953125 55.828125 32.953125 L 70.171875 32.953125 L 70.171875 0 L 37.046875 0 L 37.046875 15.195313 C 37.390625 15.195313 37.902344 15.195313 38.242188 15.195313 C 39.4375 15.195313 40.632813 15.367188 41.828125 15.707031 Z M 41.828125 15.707031 "/>
<path style=" stroke:none;fill-rule:nonzero;fill:rgb(19.607843%,46.27451%,73.72549%);fill-opacity:1;" d="M 57.367188 41.660156 C 57.367188 38.757813 54.976563 36.367188 52.242188 36.367188 C 52.074219 36.367188 51.902344 36.367188 51.5625 36.367188 C 51.902344 35.171875 52.074219 33.976563 52.074219 32.609375 C 52.074219 24.925781 45.925781 18.609375 38.242188 18.609375 C 32.097656 18.609375 26.976563 22.535156 25.097656 28.171875 C 24.074219 27.828125 23.046875 27.660156 22.023438 27.660156 C 16.730469 27.660156 12.632813 31.925781 12.632813 37.21875 C 12.632813 42.511719 16.902344 46.78125 22.023438 46.78125 L 52.757813 46.78125 C 55.316406 46.609375 57.367188 44.390625 57.367188 41.660156 "/>
</g>
</svg>
