<?xml version="1.0" encoding="utf-8"?><svg version="1.1" xmlns="http://www.w3.org/2000/svg" xmlns:xlink="http://www.w3.org/1999/xlink" xmlns:xml="http://www.w3.org/XML/1998/namespace" width="70" height="70" viewBox="0, 0, 18, 18"><defs><linearGradient x1="8.929" y1="7.745" x2="8.929" y2="0.5" gradientUnits="userSpaceOnUse" id="a7378179-50f3-45ab-8197-d359c8bd30ce"><stop offset="0%" stop-color="#37C2B1" /><stop offset="56.5%" stop-color="#3FDDC3" /><stop offset="90.8%" stop-color="#42E8CA" /></linearGradient></defs><title>MsPortalFx.base.images-50</title><g id="bf6945d2-ac27-4d06-8533-06841ee98173"><g><path d="M15.335 11.969 h1.124 a0.179 0.179 0 0 1 0.179 0.179 v3.86 a0 0 0 0 1 0 0 H15.156 a0 0 0 0 1 0 0 v-3.86 a0.179 0.179 0 0 1 0.179 -0.179 Z" style="fill:#767676;" /><path d="M1.542 12.066 H2.714 a0.18 0.18 0 0 1 0.18 0.18 v3.763 a0 0 0 0 1 0 0 H1.362 a0 0 0 0 1 0 0 V12.245 A0.18 0.18 0 0 1 1.542 12.066 Z" style="fill:#767676;" /><path d="M8.741 9.116 h1 a0 0 0 0 1 0 0 V24.392 a0 0 0 0 1 0 0 h-1 a0.487 0.487 0 0 1 -0.487 -0.487 V9.6 A0.487 0.487 0 0 1 8.741 9.116 Z" transform="translate(-7.754, 25.754) rotate(-90, 0, 0)" style="fill:#949494;" /><rect x="3.708" y="7.275" width="2.879" height="7.754" rx="0.375" style="fill:#0078D4;" /><rect x="7.55" y="7.275" width="2.879" height="7.754" rx="0.375" style="fill:#0078D4;" /><rect x="11.391" y="7.275" width="2.879" height="7.754" rx="0.375" style="fill:#37C2B1;" /><path d="M14.1 3.52 L11.129 0.545 a0.152 0.152 0 0 0 -0.259 0.107 V2.386 c-3.581 0 -7.162 1.913 -7.162 5.359 c0.512 -0.768 3.07 -2.811 7.162 -2.811 V6.6 a0.152 0.152 0 0 0 0.259 0.107 L14.1 3.734 A0.15 0.15 0 0 0 14.1 3.52 Z" style="fill:url(#a7378179-50f3-45ab-8197-d359c8bd30ce);" /></g></g></svg>