<?xml version="1.0" encoding="UTF-8"?>
<svg xmlns="http://www.w3.org/2000/svg" xmlns:xlink="http://www.w3.org/1999/xlink" width="70pt" height="70pt" viewBox="0 0 70 70" version="1.1">
<defs>
<linearGradient id="linear0" gradientUnits="userSpaceOnUse" x1="7.05" y1="8.98" x2="7.05" y2="0.34" gradientTransform="matrix(3.888889,0,0,3.888889,0,0)">
<stop offset="0" style="stop-color:rgb(0%,47.058824%,83.137255%);stop-opacity:1;"/>
<stop offset="1" style="stop-color:rgb(36.862745%,62.745098%,93.72549%);stop-opacity:1;"/>
</linearGradient>
<linearGradient id="linear1" gradientUnits="userSpaceOnUse" x1="7.05" y1="3.78" x2="7.05" y2="2.4" gradientTransform="matrix(3.888889,0,0,3.888889,0,0)">
<stop offset="0" style="stop-color:rgb(9.803922%,30.980392%,60.784314%);stop-opacity:0;"/>
<stop offset="0.26" style="stop-color:rgb(9.803922%,30.980392%,61.176471%);stop-opacity:0.0117647;"/>
<stop offset="0.41" style="stop-color:rgb(9.411765%,31.764706%,61.960784%);stop-opacity:0.0509804;"/>
<stop offset="0.52" style="stop-color:rgb(8.627451%,32.941176%,63.529412%);stop-opacity:0.109804;"/>
<stop offset="0.62" style="stop-color:rgb(7.843137%,34.117647%,65.490196%);stop-opacity:0.211765;"/>
<stop offset="0.71" style="stop-color:rgb(6.666667%,36.078431%,68.235294%);stop-opacity:0.329412;"/>
<stop offset="0.8" style="stop-color:rgb(5.098039%,38.431373%,71.372549%);stop-opacity:0.470588;"/>
<stop offset="0.88" style="stop-color:rgb(3.529412%,41.568627%,75.294118%);stop-opacity:0.65098;"/>
<stop offset="0.95" style="stop-color:rgb(1.568627%,44.705882%,79.607843%);stop-opacity:0.85098;"/>
<stop offset="1" style="stop-color:rgb(0%,47.058824%,83.137255%);stop-opacity:1;"/>
</linearGradient>
</defs>
<g id="surface1">
<path style=" stroke:none;fill-rule:nonzero;fill:rgb(58.039216%,58.039216%,58.039216%);fill-opacity:1;" d="M 61.367188 34.570313 L 68.640625 27.222656 C 69.222656 26.601563 69.027344 26.09375 68.132813 26.09375 L 64.515625 26.09375 C 64.273438 26.09375 64.039063 25.996094 63.871094 25.820313 C 63.699219 25.644531 63.613281 25.40625 63.621094 25.160156 C 63.621094 20.570313 62.457031 7.777344 44.957031 7.351563 C 44.710938 7.339844 44.472656 7.429688 44.296875 7.597656 C 44.121094 7.765625 44.023438 8 44.023438 8.246094 L 44.023438 12.679688 C 44.019531 12.929688 44.125 13.167969 44.3125 13.339844 C 44.496094 13.507813 44.742188 13.59375 44.996094 13.570313 C 48.375 12.820313 51.90625 13.75 54.480469 16.066406 C 57.050781 18.382813 58.34375 21.800781 57.945313 25.238281 C 57.953125 25.484375 57.867188 25.71875 57.695313 25.898438 C 57.527344 26.074219 57.292969 26.171875 57.050781 26.171875 L 53.667969 26.171875 C 52.773438 26.171875 52.578125 26.679688 53.160156 27.339844 L 59.929688 34.726563 C 60.128906 34.925781 60.40625 35.023438 60.683594 34.992188 C 60.964844 34.960938 61.214844 34.808594 61.367188 34.570313 Z M 61.367188 34.570313 "/>
<path style=" stroke:none;fill-rule:nonzero;fill:url(#linear0);" d="M 5.40625 1.320313 L 49.429688 1.320313 C 50.652344 1.320313 51.644531 2.316406 51.644531 3.539063 L 51.644531 32.707031 C 51.644531 33.929688 50.652344 34.921875 49.429688 34.921875 L 5.40625 34.921875 C 4.179688 34.921875 3.1875 33.929688 3.1875 32.707031 L 3.1875 3.539063 C 3.1875 2.316406 4.179688 1.320313 5.40625 1.320313 Z M 5.40625 1.320313 "/>
<path style=" stroke:none;fill-rule:nonzero;fill:rgb(51.372549%,72.54902%,97.647059%);fill-opacity:1;" d="M 5.367188 1.320313 L 50.050781 1.320313 C 50.929688 1.320313 51.644531 2.035156 51.644531 2.917969 L 51.644531 9.332031 L 3.1875 9.332031 L 3.1875 3.539063 C 3.1875 2.328125 4.15625 1.34375 5.367188 1.320313 Z M 5.367188 1.320313 "/>
<path style=" stroke:none;fill-rule:nonzero;fill:url(#linear1);" d="M 3.1875 9.332031 L 51.644531 9.332031 L 51.644531 14.699219 L 3.1875 14.699219 Z M 3.1875 9.332031 "/>
<path style=" stroke:none;fill-rule:nonzero;fill:rgb(0%,35.686275%,63.137255%);fill-opacity:1;" d="M 39.898438 42.582031 L 67.898438 42.582031 C 68.671875 42.582031 69.300781 43.210938 69.300781 43.984375 L 69.300781 62.535156 C 69.300781 63.304688 68.671875 63.933594 67.898438 63.933594 L 39.898438 63.933594 C 39.125 63.933594 38.5 63.304688 38.5 62.535156 L 38.5 43.984375 C 38.5 43.210938 39.125 42.582031 39.898438 42.582031 Z M 39.898438 42.582031 "/>
<path style=" stroke:none;fill-rule:nonzero;fill:rgb(100%,100%,100%);fill-opacity:1;" d="M 10.148438 12.40625 L 44.644531 12.40625 C 45.039063 12.40625 45.363281 12.710938 45.382813 13.105469 L 45.382813 16.722656 C 45.34375 17.101563 45.023438 17.386719 44.644531 17.382813 L 10.148438 17.382813 C 9.964844 17.394531 9.78125 17.332031 9.644531 17.207031 C 9.503906 17.082031 9.421875 16.90625 9.410156 16.722656 L 9.410156 13.105469 C 9.410156 12.914063 9.488281 12.730469 9.628906 12.597656 C 9.769531 12.464844 9.957031 12.394531 10.148438 12.40625 Z M 10.148438 12.40625 "/>
<path style=" stroke:none;fill-rule:nonzero;fill:rgb(100%,100%,100%);fill-opacity:1;" d="M 10.148438 19.445313 L 44.683594 19.445313 C 44.867188 19.433594 45.042969 19.5 45.175781 19.625 C 45.308594 19.75 45.382813 19.921875 45.382813 20.105469 L 45.382813 23.722656 C 45.382813 24.109375 45.070313 24.421875 44.683594 24.421875 L 10.148438 24.421875 C 9.761719 24.421875 9.449219 24.109375 9.449219 23.722656 L 9.449219 20.261719 C 9.398438 20.054688 9.449219 19.835938 9.589844 19.671875 C 9.730469 19.511719 9.9375 19.425781 10.148438 19.445313 Z M 10.148438 19.445313 "/>
<path style=" stroke:none;fill-rule:nonzero;fill:rgb(100%,100%,100%);fill-opacity:1;" d="M 10.148438 26.792969 L 44.683594 26.792969 C 45.070313 26.792969 45.382813 27.109375 45.382813 27.496094 L 45.382813 31.109375 C 45.363281 31.484375 45.054688 31.773438 44.683594 31.773438 L 10.148438 31.773438 C 9.777344 31.773438 9.46875 31.484375 9.449219 31.109375 L 9.449219 27.496094 C 9.449219 27.109375 9.761719 26.792969 10.148438 26.792969 Z M 10.148438 26.792969 "/>
<path style=" stroke:none;fill-rule:nonzero;fill:rgb(0%,47.058824%,83.137255%);fill-opacity:1;" d="M 34.804688 37.996094 L 62.804688 37.996094 C 63.578125 37.996094 64.207031 38.621094 64.207031 39.394531 L 64.207031 57.945313 C 64.207031 58.71875 63.578125 59.34375 62.804688 59.34375 L 34.804688 59.34375 C 34.03125 59.34375 33.40625 58.71875 33.40625 57.945313 L 33.40625 39.394531 C 33.40625 38.621094 34.03125 37.996094 34.804688 37.996094 Z M 34.804688 37.996094 "/>
<path style=" stroke:none;fill-rule:nonzero;fill:rgb(51.372549%,72.54902%,97.647059%);fill-opacity:1;" d="M 35 37.996094 L 63.390625 37.996094 C 63.949219 37.996094 64.398438 38.445313 64.398438 39.003906 L 64.398438 42.894531 L 33.40625 42.894531 L 33.40625 39.199219 C 33.453125 38.828125 33.648438 38.488281 33.949219 38.261719 C 34.25 38.035156 34.628906 37.9375 35 37.996094 Z M 35 37.996094 "/>
<path style=" stroke:none;fill-rule:nonzero;fill:rgb(100%,100%,100%);fill-opacity:1;" d="M 37.839844 45.070313 L 59.773438 45.070313 C 60.015625 45.070313 60.21875 45.257813 60.238281 45.5 L 60.238281 47.792969 C 60.21875 48.035156 60.015625 48.222656 59.773438 48.222656 L 37.839844 48.222656 C 37.71875 48.234375 37.601563 48.191406 37.511719 48.113281 C 37.421875 48.03125 37.371094 47.914063 37.371094 47.792969 L 37.371094 45.5 C 37.371094 45.378906 37.421875 45.265625 37.511719 45.183594 C 37.601563 45.101563 37.71875 45.0625 37.839844 45.070313 Z M 37.839844 45.070313 "/>
<path style=" stroke:none;fill-rule:nonzero;fill:rgb(100%,100%,100%);fill-opacity:1;" d="M 37.839844 49.621094 L 59.773438 49.621094 C 59.890625 49.609375 60.011719 49.652344 60.101563 49.734375 C 60.1875 49.8125 60.238281 49.929688 60.238281 50.050781 L 60.238281 52.34375 C 60.238281 52.464844 60.1875 52.582031 60.101563 52.660156 C 60.011719 52.742188 59.890625 52.78125 59.773438 52.773438 L 37.839844 52.773438 C 37.59375 52.773438 37.390625 52.585938 37.371094 52.34375 L 37.371094 50.050781 C 37.390625 49.808594 37.59375 49.621094 37.839844 49.621094 Z M 37.839844 49.621094 "/>
<path style=" stroke:none;fill-rule:nonzero;fill:rgb(100%,100%,100%);fill-opacity:1;" d="M 37.839844 54.210938 L 59.773438 54.210938 C 59.890625 54.199219 60.011719 54.242188 60.101563 54.320313 C 60.1875 54.402344 60.238281 54.519531 60.238281 54.640625 L 60.238281 56.933594 C 60.238281 57.054688 60.1875 57.167969 60.101563 57.25 C 60.011719 57.332031 59.890625 57.371094 59.773438 57.359375 L 37.839844 57.359375 C 37.59375 57.363281 37.390625 57.175781 37.371094 56.933594 L 37.371094 54.640625 C 37.390625 54.394531 37.59375 54.210938 37.839844 54.210938 Z M 37.839844 54.210938 "/>
</g>
</svg>
