<?xml version="1.0" encoding="utf-8"?><svg version="1.1" xmlns="http://www.w3.org/2000/svg" xmlns:xlink="http://www.w3.org/1999/xlink" xmlns:xml="http://www.w3.org/XML/1998/namespace" width="70" height="70" viewBox="0, 0, 18, 18" id="b39a805c-23ec-4c18-b115-22ce85a589f3"><defs><linearGradient x1="7.12" y1="17.44" x2="7.12" y2="0.56" gradientUnits="userSpaceOnUse" id="abcca3e9-b94e-41fe-a92a-6f6cddbb1654"><stop offset="0%" stop-color="#32BEDD" /><stop offset="36%" stop-color="#34C1E0" /><stop offset="63%" stop-color="#3CCBE8" /><stop offset="88%" stop-color="#48DBF6" /><stop offset="100%" stop-color="#50E6FF" /></linearGradient></defs><title>Icon-compute-37</title><g><rect x="0.38" y="0.56" width="13.49" height="16.88" rx="0.56" style="fill:url(#abcca3e9-b94e-41fe-a92a-6f6cddbb1654);" /><path d="M17.58 12.38 L14.71 9.51 a0.15 0.15 0 0 0 -0.25 0.1 v1.68 c-3.45 0 -6.9 1.84 -6.9 5.16 c0.49 -0.74 3 -2.71 6.9 -2.71 v1.61 a0.15 0.15 0 0 0 0.25 0.1 l2.87 -2.87 A0.15 0.15 0 0 0 17.58 12.38 Z" style="fill:#773ADC;" /><g><polygon points="11.06,5.6 11.06,10.18 7.13,12.48 7.13,7.89 11.06,5.6" style="fill:#50E6FF;" /><polygon points="11.06,5.6 7.13,7.9 3.19,5.6 7.13,3.3 11.06,5.6" style="fill:#C3F1FF;" /><polygon points="7.13,7.9 7.13,12.48 3.19,10.18 3.19,5.6 7.13,7.9" style="fill:#9CEBFF;" /><polygon points="3.19,10.18 7.13,7.89 7.13,12.48 3.19,10.18" style="fill:#C3F1FF;" /><polygon points="11.06,10.18 7.13,7.89 7.13,12.48 11.06,10.18" style="fill:#9CEBFF;" /></g></g></svg>