<?xml version="1.0" encoding="UTF-8"?>
<svg xmlns="http://www.w3.org/2000/svg" xmlns:xlink="http://www.w3.org/1999/xlink" width="70pt" height="69pt" viewBox="0 0 70 69" version="1.1">
<g id="surface1">
<path style="fill-rule:nonzero;fill:rgb(0,0,0);fill-opacity:1;stroke-width:1;stroke-linecap:butt;stroke-linejoin:miter;stroke:rgb(11,151,255);stroke-opacity:1;stroke-miterlimit:4;" d="M 131.400335 161.996862 C 120.995491 161.996862 111.197344 156.80431 105.302277 148.10245 C 101.995781 143.103726 96.495067 140.196305 90.6 140.196305 C 84.603817 140.196305 79.295223 143.103726 75.897723 148.10245 C 70.103772 156.80431 60.396629 162.098877 49.799665 162.098877 C 32.397589 162.098877 18.302009 148.000435 18.302009 130.596715 C 18.302009 120.20141 23.499375 110.39779 32.195357 104.501336 C 37.200603 101.196058 40.102634 95.697461 40.102634 89.801007 C 40.102634 83.802539 37.200603 78.497771 32.195357 75.100679 C 23.499375 69.296038 18.200893 59.604635 18.200893 48.995098 C 18.200893 31.601579 32.296473 17.503138 49.698549 17.503138 C 60.103393 17.503138 69.90154 22.69569 75.796607 31.39755 C 79.103103 36.396274 84.603817 39.303695 90.498884 39.303695 C 96.404062 39.303695 101.904777 36.30446 105.201161 31.39755 C 110.995112 22.69569 120.702254 17.401123 131.299219 17.401123 C 148.701295 17.401123 162.796875 31.499565 162.796875 48.903285 C 162.796875 59.29859 157.599509 69.10221 148.903527 74.998664 C 143.898281 78.303942 140.99625 83.802539 140.99625 89.698993 C 140.99625 95.697461 143.898281 101.002229 148.903527 104.399321 C 157.599509 110.203962 162.897991 119.895365 162.897991 130.504902 C 162.897991 147.898421 148.802411 161.996862 131.400335 161.996862 Z M 90.6 131.698475 C 99.295982 131.698475 107.395379 136.003498 112.299509 143.297554 C 116.698058 149.704082 123.796406 153.499032 131.400335 153.499032 C 144.100513 153.499032 154.404241 143.19554 154.404241 130.504902 C 154.404241 122.802786 150.602277 115.702558 144.201629 111.397535 C 136.901049 106.500826 132.5025 98.298838 132.5025 89.596978 C 132.5025 80.895118 136.799933 72.795145 144.100513 67.898436 C 150.501161 63.501599 154.303125 56.401371 154.303125 48.80127 C 154.303125 36.100431 143.999397 25.796939 131.299219 25.796939 C 123.604286 25.796939 116.495826 29.60209 112.198393 35.998416 C 107.304375 43.302674 99.103862 47.699511 90.498884 47.699511 C 81.904018 47.699511 73.703504 43.404689 68.799375 36.100431 C 64.400826 29.704105 57.302478 25.898954 49.698549 25.898954 C 36.998371 25.898954 26.704754 36.202446 26.704754 48.903285 C 26.704754 56.595199 30.496607 63.695427 36.897254 68.00045 C 44.197835 72.89716 48.596384 81.099147 48.596384 89.698993 C 48.596384 98.400853 44.298951 106.500826 36.998371 111.397535 C 30.597723 115.804573 26.795759 122.904801 26.795759 130.504902 C 26.795759 143.19554 37.099487 153.499032 49.799665 153.499032 C 57.50471 153.499032 64.603058 149.704082 68.900491 143.297554 C 73.804621 136.003498 81.904018 131.698475 90.6 131.698475 Z M 90.6 131.698475 " transform="matrix(0.386313,0,0,0.38291,0,0.133807)"/>
<path style="fill-rule:nonzero;fill:rgb(0,0,0);fill-opacity:1;stroke-width:1;stroke-linecap:butt;stroke-linejoin:miter;stroke:rgb(11,151,255);stroke-opacity:1;stroke-miterlimit:4;" d="M 90.6 125.802021 C 84.199353 125.802021 77.798705 123.404674 72.904687 118.599778 L 62.004375 107.796413 C 52.196116 98.002995 52.095 81.996877 61.802143 72.101444 L 72.601339 61.196065 C 82.399487 51.402647 98.396049 51.300632 108.295312 61.002237 L 119.195625 71.7954 C 123.998638 76.498281 126.698438 82.904809 126.698438 89.596978 C 126.698438 96.401363 124.099754 102.695675 119.397857 107.500571 L 108.598661 118.395748 C 103.704643 123.302659 97.202879 125.802021 90.6 125.802021 Z M 90.498884 62.103997 C 86.201451 62.103997 81.802902 63.695427 78.496406 67.000706 L 67.798326 77.997898 C 61.296563 84.598254 61.397679 95.197589 67.899442 101.797945 L 78.799754 112.601309 C 85.402634 119.09965 95.999598 118.997635 102.602478 112.499294 L 113.401674 101.604117 C 116.596942 98.400853 118.295692 94.197844 118.295692 89.698993 C 118.295692 85.200141 116.495826 80.997132 113.300558 77.895883 L 102.400246 67.10272 C 99.103862 63.695427 94.796317 62.103997 90.498884 62.103997 Z M 90.498884 62.103997 " transform="matrix(0.386313,0,0,0.38291,0,0.133807)"/>
</g>
</svg>
