<?xml version="1.0" encoding="UTF-8"?>
<svg xmlns="http://www.w3.org/2000/svg" xmlns:xlink="http://www.w3.org/1999/xlink" width="70pt" height="70pt" viewBox="0 0 70 70" version="1.1">
<defs>
<filter id="alpha" filterUnits="objectBoundingBox" x="0%" y="0%" width="100%" height="100%">
  <feColorMatrix type="matrix" in="SourceGraphic" values="0 0 0 0 1 0 0 0 0 1 0 0 0 0 1 0 0 0 1 0"/>
</filter>
<mask id="mask0">
  <g filter="url(#alpha)">
<rect x="0" y="0" width="70" height="70" style="fill:rgb(0%,0%,0%);fill-opacity:0.2;stroke:none;"/>
  </g>
</mask>
<clipPath id="clip1">
  <rect x="0" y="0" width="70" height="70"/>
</clipPath>
<g id="surface5" clip-path="url(#clip1)">
<path style=" stroke:none;fill-rule:nonzero;fill:rgb(100%,100%,100%);fill-opacity:1;" d="M 65.8125 2.804688 C 65.796875 2.804688 65.785156 2.800781 65.769531 2.800781 L 3.804688 2.800781 C 1.699219 2.800781 0 4.683594 0 6.789063 L 0 50.644531 C 0 52.738281 1.699219 54.601563 3.804688 54.601563 L 5.277344 54.601563 Z M 65.8125 2.804688 "/>
</g>
<mask id="mask1">
  <g filter="url(#alpha)">
<rect x="0" y="0" width="70" height="70" style="fill:rgb(0%,0%,0%);fill-opacity:0.4;stroke:none;"/>
  </g>
</mask>
<clipPath id="clip2">
  <rect x="0" y="0" width="70" height="70"/>
</clipPath>
<g id="surface8" clip-path="url(#clip2)">
<path style=" stroke:none;fill-rule:nonzero;fill:rgb(100%,100%,100%);fill-opacity:1;" d="M 64.398438 8.398438 L 64.398438 49 L 5.597656 49 L 5.597656 8.398438 Z M 64.398438 8.398438 "/>
</g>
<mask id="mask2">
  <g filter="url(#alpha)">
<rect x="0" y="0" width="70" height="70" style="fill:rgb(0%,0%,0%);fill-opacity:0.701961;stroke:none;"/>
  </g>
</mask>
<clipPath id="clip3">
  <rect x="0" y="0" width="70" height="70"/>
</clipPath>
<g id="surface11" clip-path="url(#clip3)">
<path style=" stroke:none;fill-rule:nonzero;fill:rgb(100%,100%,100%);fill-opacity:1;" d="M 33.265625 44.445313 C 33.195313 44.445313 33.132813 44.425781 33.078125 44.394531 L 20.789063 37.300781 C 20.671875 37.234375 20.597656 37.117188 20.597656 36.976563 L 20.597656 22.746094 C 20.597656 22.613281 20.671875 22.488281 20.789063 22.421875 C 20.902344 22.355469 21.042969 22.355469 21.164063 22.421875 L 33.453125 29.511719 C 33.5625 29.582031 33.636719 29.703125 33.636719 29.839844 L 33.636719 44.070313 C 33.636719 44.207031 33.5625 44.328125 33.453125 44.394531 C 33.390625 44.425781 33.328125 44.445313 33.265625 44.445313 "/>
</g>
<mask id="mask3">
  <g filter="url(#alpha)">
<rect x="0" y="0" width="70" height="70" style="fill:rgb(0%,0%,0%);fill-opacity:0.4;stroke:none;"/>
  </g>
</mask>
<clipPath id="clip4">
  <rect x="0" y="0" width="70" height="70"/>
</clipPath>
<g id="surface14" clip-path="url(#clip4)">
<path style=" stroke:none;fill-rule:nonzero;fill:rgb(100%,100%,100%);fill-opacity:1;" d="M 36.746094 44.445313 C 36.679688 44.445313 36.617188 44.425781 36.550781 44.394531 C 36.445313 44.328125 36.371094 44.207031 36.371094 44.070313 L 36.371094 29.929688 C 36.371094 29.796875 36.445313 29.671875 36.550781 29.605469 L 48.839844 22.515625 C 48.957031 22.449219 49.09375 22.449219 49.210938 22.515625 C 49.328125 22.582031 49.398438 22.703125 49.398438 22.835938 L 49.398438 36.976563 C 49.398438 37.117188 49.328125 37.234375 49.210938 37.300781 L 36.925781 44.394531 C 36.875 44.425781 36.808594 44.445313 36.746094 44.445313 "/>
</g>
</defs>
<g id="surface1">
<path style=" stroke:none;fill-rule:nonzero;fill:rgb(50.196078%,28.627451%,59.607843%);fill-opacity:1;" d="M 65.769531 2.800781 L 3.804688 2.800781 C 1.699219 2.800781 0 4.683594 0 6.785156 L 0 50.644531 C 0 52.738281 1.699219 54.597656 3.804688 54.597656 L 65.769531 54.597656 C 67.871094 54.597656 70 52.738281 70 50.644531 L 70 6.785156 C 70 4.675781 67.871094 2.800781 65.769531 2.800781 "/>
<use xlink:href="#surface5" mask="url(#mask0)"/>
<path style=" stroke:none;fill-rule:nonzero;fill:rgb(50.196078%,28.627451%,59.607843%);fill-opacity:1;" d="M 64.398438 8.398438 L 64.398438 49 L 5.597656 49 L 5.597656 8.398438 Z M 64.398438 8.398438 "/>
<use xlink:href="#surface8" mask="url(#mask1)"/>
<path style=" stroke:none;fill-rule:nonzero;fill:rgb(40.784314%,12.941176%,47.843137%);fill-opacity:1;" d="M 29.398438 54.601563 L 40.601563 54.601563 L 40.601563 61.601563 L 29.398438 61.601563 Z M 29.398438 54.601563 "/>
<path style=" stroke:none;fill-rule:nonzero;fill:rgb(100%,100%,100%);fill-opacity:1;" d="M 35.039063 27.152344 C 34.976563 27.152344 34.910156 27.132813 34.851563 27.097656 L 22.523438 19.984375 C 22.410156 19.917969 22.339844 19.792969 22.339844 19.660156 C 22.339844 19.527344 22.410156 19.402344 22.523438 19.339844 L 34.777344 12.269531 C 34.890625 12.207031 35.03125 12.207031 35.144531 12.269531 L 47.472656 19.386719 C 47.589844 19.453125 47.65625 19.578125 47.65625 19.710938 C 47.65625 19.84375 47.589844 19.964844 47.472656 20.03125 L 35.226563 27.097656 C 35.167969 27.132813 35.105469 27.152344 35.039063 27.152344 "/>
<use xlink:href="#surface11" mask="url(#mask2)"/>
<use xlink:href="#surface14" mask="url(#mask3)"/>
<path style=" stroke:none;fill-rule:nonzero;fill:rgb(50.196078%,28.627451%,59.607843%);fill-opacity:1;" d="M 53.199219 67.199219 L 16.800781 67.199219 C 16.800781 64.105469 19.308594 61.601563 22.398438 61.601563 L 47.601563 61.601563 C 50.691406 61.601563 53.199219 64.105469 53.199219 67.199219 Z M 53.199219 67.199219 "/>
<path style=" stroke:none;fill-rule:nonzero;fill:rgb(72.156863%,83.137255%,19.607843%);fill-opacity:1;" d="M 35.722656 5.734375 C 35.722656 6.28125 35.277344 6.726563 34.730469 6.726563 C 34.179688 6.726563 33.738281 6.28125 33.738281 5.734375 C 33.738281 5.183594 34.179688 4.738281 34.730469 4.738281 C 35.277344 4.738281 35.722656 5.183594 35.722656 5.734375 "/>
</g>
</svg>
