<?xml version="1.0" encoding="UTF-8"?>
<svg xmlns="http://www.w3.org/2000/svg" xmlns:xlink="http://www.w3.org/1999/xlink" width="70pt" height="70pt" viewBox="0 0 70 70" version="1.1">
<g id="surface1">
<path style=" stroke:none;fill-rule:nonzero;fill:rgb(34.901961%,70.588235%,85.098039%);fill-opacity:1;" d="M 65.800781 2.800781 L 3.78125 2.800781 C 1.679688 2.800781 0 4.621094 0 6.71875 L 0 49.980469 C 0 52.078125 1.679688 53.898438 3.78125 53.898438 L 26.320313 53.898438 C 28.558594 62.019531 25.480469 63.140625 12.039063 63.140625 L 12.039063 67.339844 L 57.679688 67.339844 L 57.679688 63.140625 C 44.238281 63.140625 42.839844 62.019531 45.21875 53.898438 L 65.800781 53.898438 C 67.898438 53.898438 70 52.078125 70 49.980469 L 70 6.71875 C 70 4.621094 67.898438 2.800781 65.800781 2.800781 Z M 65.800781 2.800781 "/>
<path style=" stroke:none;fill-rule:nonzero;fill:rgb(100%,100%,100%);fill-opacity:1;" d="M 64.539063 8.121094 L 64.539063 48.578125 L 5.320313 48.578125 L 5.320313 8.121094 Z M 64.539063 8.121094 "/>
<path style=" stroke:none;fill-rule:nonzero;fill:rgb(0%,44.705882%,77.647059%);fill-opacity:1;" d="M 35.699219 27.160156 C 35.699219 27.160156 35.558594 27.160156 35.558594 27.160156 L 23.238281 20.019531 C 23.101563 20.019531 23.101563 19.878906 23.101563 19.738281 C 23.101563 19.601563 23.238281 19.460938 23.238281 19.460938 L 35.558594 12.460938 C 35.699219 12.460938 35.839844 12.460938 35.980469 12.460938 L 48.300781 19.601563 C 48.441406 19.601563 48.441406 19.738281 48.441406 19.878906 C 48.441406 20.019531 48.441406 20.160156 48.300781 20.160156 L 36.121094 27.160156 C 35.839844 27.160156 35.839844 27.160156 35.699219 27.160156 "/>
<path style=" stroke:none;fill-rule:nonzero;fill:rgb(0%,44.705882%,77.647059%);fill-opacity:1;" d="M 34.019531 44.378906 C 34.019531 44.378906 33.878906 44.378906 33.878906 44.378906 L 21.558594 37.238281 C 21.421875 37.238281 21.421875 37.101563 21.421875 36.960938 L 21.421875 22.679688 C 21.421875 22.539063 21.558594 22.398438 21.558594 22.398438 C 21.699219 22.398438 21.839844 22.398438 21.980469 22.398438 L 34.300781 29.539063 C 34.441406 29.539063 34.441406 29.679688 34.441406 29.820313 L 34.441406 44.101563 C 34.441406 44.238281 34.300781 44.378906 34.300781 44.378906 C 34.160156 44.378906 34.019531 44.378906 34.019531 44.378906 "/>
<path style=" stroke:none;fill-rule:nonzero;fill:rgb(0%,44.705882%,77.647059%);fill-opacity:1;" d="M 37.519531 44.378906 C 37.519531 44.378906 37.378906 44.378906 37.378906 44.378906 C 37.238281 44.378906 37.238281 44.238281 37.238281 44.101563 L 37.238281 29.960938 C 37.238281 29.820313 37.378906 29.679688 37.378906 29.679688 L 49.699219 22.539063 C 49.839844 22.539063 49.980469 22.539063 50.121094 22.539063 C 50.261719 22.539063 50.261719 22.679688 50.261719 22.820313 L 50.261719 36.960938 C 50.261719 37.101563 50.121094 37.238281 50.121094 37.238281 L 37.800781 44.378906 C 37.660156 44.378906 37.519531 44.378906 37.519531 44.378906 "/>
</g>
</svg>
