<?xml version="1.0" encoding="UTF-8"?>
<svg xmlns="http://www.w3.org/2000/svg" xmlns:xlink="http://www.w3.org/1999/xlink" width="70pt" height="70pt" viewBox="0 0 70 70" version="1.1">
<defs>
<filter id="alpha" filterUnits="objectBoundingBox" x="0%" y="0%" width="100%" height="100%">
  <feColorMatrix type="matrix" in="SourceGraphic" values="0 0 0 0 1 0 0 0 0 1 0 0 0 0 1 0 0 0 1 0"/>
</filter>
<mask id="mask0">
  <g filter="url(#alpha)">
<rect x="0" y="0" width="70" height="70" style="fill:rgb(0%,0%,0%);fill-opacity:0.2;stroke:none;"/>
  </g>
</mask>
<clipPath id="clip1">
  <rect x="0" y="0" width="70" height="70"/>
</clipPath>
<g id="surface5" clip-path="url(#clip1)">
<path style=" stroke:none;fill-rule:nonzero;fill:rgb(100%,100%,100%);fill-opacity:1;" d="M 65.8125 2.804688 C 65.796875 2.804688 65.785156 2.800781 65.769531 2.800781 L 3.804688 2.800781 C 1.699219 2.800781 0 4.683594 0 6.789063 L 0 50.644531 C 0 52.738281 1.699219 54.601563 3.804688 54.601563 L 5.277344 54.601563 Z M 65.8125 2.804688 "/>
</g>
<mask id="mask1">
  <g filter="url(#alpha)">
<rect x="0" y="0" width="70" height="70" style="fill:rgb(0%,0%,0%);fill-opacity:0.4;stroke:none;"/>
  </g>
</mask>
<clipPath id="clip2">
  <rect x="0" y="0" width="70" height="70"/>
</clipPath>
<g id="surface8" clip-path="url(#clip2)">
<path style=" stroke:none;fill-rule:nonzero;fill:rgb(100%,100%,100%);fill-opacity:1;" d="M 64.398438 8.398438 L 64.398438 49 L 5.597656 49 L 5.597656 8.398438 Z M 64.398438 8.398438 "/>
</g>
<mask id="mask2">
  <g filter="url(#alpha)">
<rect x="0" y="0" width="70" height="70" style="fill:rgb(0%,0%,0%);fill-opacity:0.8;stroke:none;"/>
  </g>
</mask>
<mask id="mask3">
  <g filter="url(#alpha)">
<rect x="0" y="0" width="70" height="70" style="fill:rgb(0%,0%,0%);fill-opacity:0.4;stroke:none;"/>
  </g>
</mask>
<clipPath id="clip4">
  <rect x="0" y="0" width="70" height="70"/>
</clipPath>
<g id="surface12" clip-path="url(#clip4)">
<path style=" stroke:none;fill-rule:nonzero;fill:rgb(100%,100%,100%);fill-opacity:1;" d="M 37.386719 19.363281 L 36.667969 19.804688 L 36.046875 18.675781 C 35.8125 18.242188 35.777344 17.878906 35.9375 17.488281 C 36.078125 17.15625 36.363281 16.964844 36.71875 16.964844 L 36.800781 16.96875 C 37.199219 17 37.597656 17.414063 37.71875 17.78125 C 37.847656 18.167969 37.847656 19.082031 37.386719 19.363281 Z M 37.386719 19.363281 "/>
</g>
<clipPath id="clip3">
  <rect x="0" y="0" width="70" height="70"/>
</clipPath>
<g id="surface14" clip-path="url(#clip3)">
<use xlink:href="#surface12" mask="url(#mask3)"/>
<path style=" stroke:none;fill-rule:nonzero;fill:rgb(98.431373%,98.431373%,97.647059%);fill-opacity:1;" d="M 30.421875 41.089844 C 30.421875 41.046875 26.875 35.355469 27.082031 34.367188 C 28.753906 26.425781 30.742188 25.265625 31.46875 23.589844 C 32.199219 21.910156 31.777344 20.363281 32.648438 20.34375 C 33.519531 20.324219 36.070313 20.515625 36.691406 20.722656 C 37.3125 20.925781 38.195313 21.554688 38.683594 22.925781 C 39.34375 24.179688 39.996094 25.433594 40.199219 26.863281 C 40.21875 26.996094 40.277344 27.121094 40.367188 27.21875 C 42.019531 29.042969 42.355469 31.253906 42.234375 33.589844 C 42.203125 34.183594 42.125 35.054688 42.046875 35.359375 C 41.964844 35.667969 39.734375 42.890625 36.222656 42.800781 C 32.707031 42.710938 30.835938 41.40625 30.421875 41.089844 Z M 30.421875 41.089844 "/>
<path style=" stroke:none;fill-rule:nonzero;fill:rgb(100%,54.901961%,0%);fill-opacity:1;" d="M 49.320313 39.40625 C 48.03125 39.339844 47.355469 38.566406 47.347656 37.828125 C 47.339844 36.960938 47.703125 35.875 46.453125 35.765625 C 45.199219 35.65625 42.636719 35.523438 41.949219 35.394531 C 40.449219 35.121094 40.375 35.730469 40.347656 36.167969 C 40.339844 36.371094 40.527344 38.402344 40.328125 39.195313 C 40.34375 39.539063 40.320313 39.878906 40.265625 40.222656 C 40.121094 41.148438 40.011719 42.078125 39.890625 43.003906 C 39.882813 43.457031 39.875 43.910156 39.867188 44.363281 C 40.957031 45.964844 43.078125 46.027344 44.390625 44.636719 C 45.621094 43.382813 47.105469 42.519531 48.667969 41.761719 C 49.113281 41.546875 49.53125 41.222656 49.765625 40.601563 C 50.003906 39.976563 49.78125 39.425781 49.320313 39.40625 Z M 49.320313 39.40625 "/>
<path style=" stroke:none;fill-rule:nonzero;fill:rgb(11.764706%,11.764706%,11.764706%);fill-opacity:1;" d="M 32.210938 38.628906 C 32.035156 39.496094 31.097656 40.261719 30.613281 40.195313 C 30.3125 40.03125 29.492188 38.949219 29.316406 38.683594 C 28.785156 37.878906 26.457031 34.539063 25.777344 34.792969 C 25.554688 34.820313 25.429688 34.976563 25.316406 35.144531 C 25.269531 35.160156 25.222656 35.179688 25.175781 35.199219 C 24.832031 34.449219 24.859375 33.699219 25.246094 32.984375 C 26.105469 31.417969 26.503906 29.804688 26.9375 28.0625 C 27.085938 27.480469 27.441406 26.992188 27.8125 26.523438 C 28.5 25.648438 28.484375 24.769531 29.1875 23.90625 C 29.636719 23.355469 30.03125 22.753906 29.988281 22.042969 C 29.867188 20.03125 29.613281 18.074219 29.699219 16.058594 C 29.78125 14.082031 31.507813 12.421875 33.441406 11.710938 C 35.449219 10.972656 37.351563 11.335938 38.964844 12.78125 C 40.230469 13.914063 40.785156 15.40625 40.882813 17.078125 C 40.898438 17.386719 40.914063 17.695313 40.902344 18 C 40.757813 21.148438 42.082031 23.707031 44.085938 25.992188 C 46.007813 28.1875 46.761719 30.8125 46.9375 33.652344 C 46.980469 34.394531 46.742188 35.089844 46.4375 35.757813 C 46.019531 36.722656 45.414063 37.324219 44.867188 37.570313 C 44.3125 37.820313 42.140625 37.992188 42.5625 36.5625 C 42.769531 35.859375 42.800781 35.5625 41.9375 35.386719 C 42 34.796875 42.09375 34.207031 42.125 33.617188 C 42.246094 31.277344 41.835938 29.429688 40.0625 27.769531 C 39.515625 27.253906 40.027344 27.171875 40.011719 26.710938 C 39.964844 25.460938 39.234375 24.203125 38.574219 22.953125 C 38.515625 22.71875 38.40625 22.515625 38.253906 22.332031 C 38.300781 22.136719 38.179688 21.996094 38.101563 21.839844 C 38.199219 21.445313 38.367188 21.058594 38.289063 20.636719 C 38.292969 20.273438 34.554688 20.117188 34.089844 20.304688 C 33.894531 20.238281 31.902344 20.152344 31.910156 20.183594 C 31.640625 20.386719 31.449219 20.648438 31.367188 20.96875 C 31.289063 21.273438 31.773438 21.898438 31.824219 22 C 31.800781 22.429688 31.78125 22.855469 31.757813 23.28125 C 31.714844 23.433594 31.671875 23.582031 31.632813 23.730469 C 31.3125 24.222656 30.988281 24.707031 30.679688 25.203125 C 30.40625 25.652344 30.089844 26.085938 30.050781 26.636719 C 29.835938 27.195313 30.609375 27.9375 29.902344 28.589844 C 29.199219 29.242188 28.488281 32.390625 28.476563 33.132813 C 28.464844 33.929688 29.921875 35.753906 30.480469 36.28125 C 31.503906 37.242188 32.421875 37.609375 32.210938 38.628906 Z M 32.210938 38.628906 "/>
<path style=" stroke:none;fill-rule:nonzero;fill:rgb(11.764706%,11.764706%,11.764706%);fill-opacity:1;" d="M 31.507813 41.632813 C 33.011719 42.058594 37.253906 42.1875 39.3125 40.121094 C 39.65625 39.804688 40.003906 39.492188 40.347656 39.175781 C 40.363281 39.519531 40.339844 39.859375 40.285156 40.207031 C 40.140625 41.128906 40.03125 42.058594 39.910156 42.988281 C 39.902344 43.4375 39.894531 43.890625 39.886719 44.34375 C 37.988281 43.820313 35.140625 43.636719 34.289063 43.679688 C 33.4375 43.726563 32.277344 43.9375 31.605469 44.117188 Z M 31.507813 41.632813 "/>
<path style=" stroke:none;fill-rule:nonzero;fill:rgb(86.666667%,64.705882%,8.627451%);fill-opacity:1;" d="M 47.460938 38.058594 C 47.429688 38.011719 47.398438 37.96875 47.367188 37.921875 C 47.398438 37.96875 47.429688 38.011719 47.460938 38.058594 Z M 47.460938 38.058594 "/>
<path style=" stroke:none;fill-rule:nonzero;fill:rgb(86.666667%,64.705882%,8.627451%);fill-opacity:1;" d="M 46.910156 36.097656 C 46.867188 36.058594 46.828125 36.019531 46.785156 35.980469 C 46.828125 36.019531 46.867188 36.058594 46.910156 36.097656 Z M 46.910156 36.097656 "/>
<path style=" stroke:none;fill-rule:nonzero;fill:rgb(54.901961%,37.254902%,2.745098%);fill-opacity:1;" d="M 30.644531 40.371094 C 30.664063 40.402344 30.683594 40.4375 30.703125 40.46875 C 30.683594 40.4375 30.664063 40.402344 30.644531 40.371094 Z M 30.644531 40.371094 "/>
<path style=" stroke:none;fill-rule:nonzero;fill:rgb(100%,54.901961%,0%);fill-opacity:1;" d="M 30.027344 39.464844 C 28.925781 38.324219 28.082031 36.9375 27.308594 35.390625 C 26.902344 34.574219 25.65625 33.925781 25.191406 35.207031 C 24.726563 36.488281 23.988281 37.007813 22.777344 36.847656 C 21.894531 36.730469 21.066406 37.40625 21.433594 38.523438 C 21.835938 39.726563 22.289063 40.671875 21.414063 41.511719 C 20.542969 42.355469 20.894531 43.226563 22.128906 43.394531 C 23.359375 43.5625 26.59375 44.296875 28.460938 45.285156 C 30.328125 46.269531 31.816406 44.40625 32.015625 43.855469 C 32.507813 42.488281 31.128906 40.605469 30.027344 39.464844 Z M 30.027344 39.464844 "/>
<path style=" stroke:none;fill-rule:nonzero;fill:rgb(11.764706%,11.764706%,11.764706%);fill-opacity:1;" d="M 34.191406 26.078125 C 33.140625 26.078125 32.4375 25.082031 31.941406 24.214844 C 31.9375 24.214844 30.3125 21.9375 30.90625 20.683594 C 30.988281 20.503906 31.128906 20.210938 32.796875 19.175781 L 33.109375 18.914063 L 33.40625 18.765625 L 33.597656 18.6875 C 33.828125 18.617188 34.089844 18.542969 34.335938 18.542969 L 34.453125 18.542969 L 34.671875 18.59375 L 35.167969 18.761719 L 39.226563 20.257813 L 39.339844 20.867188 C 39.429688 21.359375 39.308594 21.789063 39.207031 22.132813 L 39.054688 22.730469 L 38.707031 22.855469 C 38.398438 22.96875 37.921875 23.480469 37.535156 23.894531 C 37.152344 24.300781 36.792969 24.6875 36.421875 24.929688 C 36.289063 25.019531 36.144531 25.132813 36.003906 25.234375 C 35.421875 25.667969 34.875 26.078125 34.191406 26.078125 Z M 34.191406 26.078125 "/>
<path style=" stroke:none;fill-rule:nonzero;fill:rgb(100%,54.901961%,0%);fill-opacity:1;" d="M 36.898438 21.097656 C 36.179688 21.71875 35.359375 22.25 34.335938 22.277344 C 34.300781 22.308594 34.300781 22.308594 34.335938 22.277344 C 34.34375 22.046875 34.332031 21.824219 34.132813 21.652344 C 33.96875 21.515625 33.949219 21.304688 33.996094 21.125 C 34.1875 20.390625 34.070313 19.648438 34.101563 18.910156 C 33.90625 18.84375 33.46875 19.007813 33.410156 19.019531 C 33.320313 19.066406 33.230469 19.109375 33.144531 19.15625 C 33.042969 19.238281 32.941406 19.324219 32.839844 19.410156 C 32.707031 19.492188 31.328125 20.332031 31.1875 20.632813 C 30.824219 21.40625 32.023438 23.296875 32.195313 23.519531 C 33.597656 25.976563 34.375 24.910156 35.6875 23.992188 C 36.394531 23.535156 37.3125 22.144531 38.109375 21.851563 C 38.207031 21.453125 38.378906 21.070313 38.296875 20.648438 C 37.792969 20.675781 37.347656 20.707031 36.898438 21.097656 Z M 36.898438 21.097656 "/>
<path style=" stroke:none;fill-rule:nonzero;fill:rgb(89.019608%,66.27451%,2.352941%);fill-opacity:1;" d="M 33.519531 18.921875 C 33.523438 18.925781 33.527344 18.921875 33.53125 18.925781 C 33.527344 18.917969 33.53125 18.917969 33.527344 18.910156 Z M 33.519531 18.921875 "/>
<path style=" stroke:none;fill-rule:nonzero;fill:rgb(98.823529%,81.960784%,8.627451%);fill-opacity:1;" d="M 37.722656 20.089844 C 38.027344 20.242188 38.304688 20.417969 38.300781 20.816406 C 37.746094 20.851563 37.253906 20.886719 36.765625 21.3125 C 35.980469 21.988281 34.914063 22.996094 33.796875 23.027344 C 33.84375 22.660156 33.316406 22.132813 33.457031 21.503906 C 33.644531 20.699219 33.671875 19.722656 33.703125 18.914063 C 34.214844 18.710938 34.6875 18.898438 35.167969 19.046875 C 35.367188 19.167969 35.566406 19.289063 35.765625 19.40625 C 36.113281 19.542969 36.464844 19.675781 36.8125 19.808594 C 37.085938 19.996094 37.414063 20.019531 37.722656 20.089844 Z M 37.722656 20.089844 "/>
</g>
<mask id="mask4">
  <g filter="url(#alpha)">
<rect x="0" y="0" width="70" height="70" style="fill:rgb(0%,0%,0%);fill-opacity:0.901961;stroke:none;"/>
  </g>
</mask>
<clipPath id="clip5">
  <rect x="0" y="0" width="70" height="70"/>
</clipPath>
<g id="surface17" clip-path="url(#clip5)">
<path style=" stroke:none;fill-rule:nonzero;fill:rgb(100%,100%,100%);fill-opacity:1;" d="M 32.199219 17.574219 L 33.597656 17.574219 L 33.597656 18.976563 L 32.199219 18.976563 Z M 32.199219 17.574219 "/>
</g>
<mask id="mask5">
  <g filter="url(#alpha)">
<rect x="0" y="0" width="70" height="70" style="fill:rgb(0%,0%,0%);fill-opacity:0.901961;stroke:none;"/>
  </g>
</mask>
<clipPath id="clip6">
  <rect x="0" y="0" width="70" height="70"/>
</clipPath>
<g id="surface20" clip-path="url(#clip6)">
<path style=" stroke:none;fill-rule:nonzero;fill:rgb(100%,100%,100%);fill-opacity:1;" d="M 36.398438 17.574219 L 37.796875 17.574219 L 37.796875 18.976563 L 36.398438 18.976563 Z M 36.398438 17.574219 "/>
</g>
</defs>
<g id="surface1">
<path style=" stroke:none;fill-rule:nonzero;fill:rgb(50.196078%,28.627451%,59.607843%);fill-opacity:1;" d="M 65.769531 2.800781 L 3.804688 2.800781 C 1.699219 2.800781 0 4.683594 0 6.785156 L 0 50.644531 C 0 52.738281 1.699219 54.597656 3.804688 54.597656 L 65.769531 54.597656 C 67.871094 54.597656 70 52.738281 70 50.644531 L 70 6.785156 C 70 4.675781 67.871094 2.800781 65.769531 2.800781 "/>
<use xlink:href="#surface5" mask="url(#mask0)"/>
<path style=" stroke:none;fill-rule:nonzero;fill:rgb(50.196078%,28.627451%,59.607843%);fill-opacity:1;" d="M 64.398438 8.398438 L 64.398438 49 L 5.597656 49 L 5.597656 8.398438 Z M 64.398438 8.398438 "/>
<use xlink:href="#surface8" mask="url(#mask1)"/>
<use xlink:href="#surface14" mask="url(#mask2)"/>
<use xlink:href="#surface17" mask="url(#mask4)"/>
<use xlink:href="#surface20" mask="url(#mask5)"/>
<path style=" stroke:none;fill-rule:nonzero;fill:rgb(40.784314%,12.941176%,47.843137%);fill-opacity:1;" d="M 29.398438 54.601563 L 40.601563 54.601563 L 40.601563 61.601563 L 29.398438 61.601563 Z M 29.398438 54.601563 "/>
<path style=" stroke:none;fill-rule:nonzero;fill:rgb(50.196078%,28.627451%,59.607843%);fill-opacity:1;" d="M 53.199219 67.199219 L 16.800781 67.199219 C 16.800781 64.105469 19.308594 61.601563 22.398438 61.601563 L 47.601563 61.601563 C 50.691406 61.601563 53.199219 64.105469 53.199219 67.199219 Z M 53.199219 67.199219 "/>
<path style=" stroke:none;fill-rule:nonzero;fill:rgb(72.156863%,83.137255%,19.607843%);fill-opacity:1;" d="M 35.722656 5.734375 C 35.722656 6.28125 35.277344 6.726563 34.730469 6.726563 C 34.179688 6.726563 33.738281 6.28125 33.738281 5.734375 C 33.738281 5.183594 34.179688 4.738281 34.730469 4.738281 C 35.277344 4.738281 35.722656 5.183594 35.722656 5.734375 "/>
</g>
</svg>
