<?xml version="1.0" encoding="UTF-8"?>
<svg xmlns="http://www.w3.org/2000/svg" xmlns:xlink="http://www.w3.org/1999/xlink" width="70pt" height="70pt" viewBox="0 0 70 70" version="1.1">
<g id="surface1">
<path style=" stroke:none;fill-rule:nonzero;fill:rgb(0%,44.705882%,77.647059%);fill-opacity:1;" d="M 63.117188 20.953125 C 63.164063 20.464844 63.1875 19.949219 63.1875 19.4375 C 63.1875 11.292969 56.488281 4.667969 48.277344 4.667969 C 43.398438 4.667969 38.921875 7 36.167969 10.828125 C 34.394531 9.730469 32.339844 9.125 30.195313 9.125 C 24.335938 9.125 19.507813 13.578125 18.96875 19.25 C 19.878906 19.132813 20.789063 19.039063 21.722656 19.039063 C 26.039063 19.039063 30.195313 20.441406 33.578125 22.914063 C 36.121094 17.054688 42.582031 13.300781 49.746094 13.089844 L 49.746094 8.074219 L 58.496094 15.5625 L 49.746094 23.007813 L 49.746094 18.109375 C 45.640625 18.269531 41.648438 19.808594 39.339844 23.542969 L 39.804688 23.496094 C 48.160156 23.496094 55.066406 29.75 56.046875 37.753906 C 58.03125 39.246094 59.59375 41.042969 60.710938 43.097656 C 66.125 41.648438 70 36.984375 70 31.265625 C 70 26.671875 67.527344 23.007813 63.117188 20.953125 Z M 63.117188 20.953125 "/>
<path style=" stroke:none;fill-rule:nonzero;fill:rgb(34.901961%,70.588235%,85.098039%);fill-opacity:1;" d="M 6.882813 40.367188 C 6.835938 39.851563 6.8125 39.339844 6.8125 38.828125 C 6.8125 30.683594 13.511719 24.078125 21.722656 24.078125 C 26.601563 24.078125 31.078125 26.414063 33.832031 30.214844 C 35.609375 29.121094 37.660156 28.535156 39.808594 28.535156 C 46.015625 28.535156 51.078125 33.550781 51.078125 39.710938 L 51.054688 40.601563 C 55.253906 42.722656 57.519531 46.246094 57.519531 50.65625 C 57.519531 57.585938 51.871094 63 44.660156 63 L 12.855469 63 C 5.644531 63 0 57.585938 0 50.65625 C 0 46.082031 2.472656 42.421875 6.882813 40.367188 Z M 6.882813 40.367188 "/>
</g>
</svg>
