<?xml version="1.0" encoding="UTF-8"?>
<svg xmlns="http://www.w3.org/2000/svg" xmlns:xlink="http://www.w3.org/1999/xlink" width="70pt" height="70pt" viewBox="0 0 70 70" version="1.1">
<defs>
<filter id="alpha" filterUnits="objectBoundingBox" x="0%" y="0%" width="100%" height="100%">
  <feColorMatrix type="matrix" in="SourceGraphic" values="0 0 0 0 1 0 0 0 0 1 0 0 0 0 1 0 0 0 1 0"/>
</filter>
<mask id="mask0">
  <g filter="url(#alpha)">
<rect x="0" y="0" width="70" height="70" style="fill:rgb(0%,0%,0%);fill-opacity:0.2;stroke:none;"/>
  </g>
</mask>
<clipPath id="clip1">
  <rect x="0" y="0" width="70" height="70"/>
</clipPath>
<g id="surface5" clip-path="url(#clip1)">
<path style=" stroke:none;fill-rule:nonzero;fill:rgb(100%,100%,100%);fill-opacity:1;" d="M 28.980469 17.21875 L 28.839844 17.21875 C 17.359375 17.21875 8.121094 25.898438 8.121094 36.539063 C 8.121094 38.359375 8.539063 40.039063 8.960938 41.578125 L 7.839844 41.578125 C 3.640625 41.578125 0 44.660156 0 48.859375 C 0 52.640625 3.078125 55.859375 7.140625 56.28125 L 8.261719 56.28125 C 4.058594 46.761719 14.421875 44.800781 14.421875 44.800781 C 13.441406 21.421875 35.421875 18.761719 35.980469 18.480469 C 33.878906 17.640625 31.5 17.21875 28.980469 17.21875 Z M 28.980469 17.21875 "/>
</g>
</defs>
<g id="surface1">
<path style=" stroke:none;fill-rule:nonzero;fill:rgb(0%,44.705882%,77.647059%);fill-opacity:1;" d="M 9.378906 40.039063 C 9.378906 43.398438 12.179688 46.339844 15.820313 46.761719 L 57.261719 46.761719 C 64.261719 46.761719 70 41.441406 70 34.859375 C 70 28.140625 64.261719 22.960938 57.261719 22.960938 C 55.71875 22.960938 54.460938 23.378906 53.058594 23.660156 C 50.539063 16.660156 43.539063 11.761719 35.421875 11.761719 L 35.28125 11.761719 C 24.921875 11.761719 16.660156 19.601563 16.660156 29.121094 C 16.660156 30.660156 17.078125 32.339844 17.359375 33.738281 L 16.378906 33.738281 C 12.601563 33.460938 9.378906 36.261719 9.378906 40.039063 "/>
<path style=" stroke:none;fill-rule:nonzero;fill:rgb(34.901961%,70.588235%,85.098039%);fill-opacity:1;" d="M 0 48.859375 C 0 52.640625 3.078125 55.859375 7.140625 56.28125 L 53.199219 56.28125 C 61.039063 56.28125 67.339844 50.398438 67.339844 42.980469 C 67.339844 35.558594 61.039063 29.679688 53.199219 29.679688 C 51.519531 29.679688 49.980469 30.101563 48.578125 30.519531 C 45.78125 22.679688 38.078125 17.21875 28.980469 17.21875 L 28.839844 17.21875 C 17.359375 17.21875 8.121094 25.898438 8.121094 36.539063 C 8.121094 38.359375 8.539063 40.039063 8.960938 41.578125 L 7.839844 41.578125 C 3.640625 41.578125 0 44.660156 0 48.859375 "/>
<use xlink:href="#surface5" mask="url(#mask0)"/>
<path style=" stroke:none;fill-rule:nonzero;fill:rgb(100%,100%,100%);fill-opacity:1;" d="M 22.820313 33.039063 L 29.679688 33.039063 L 39.761719 43.121094 L 26.460938 56.28125 L 19.738281 56.28125 L 32.761719 43.121094 Z M 38.21875 18.058594 L 45.21875 18.058594 L 53.199219 26.179688 L 43.261719 35.839844 L 36.820313 35.839844 L 46.199219 26.039063 Z M 46.339844 36.121094 L 53.199219 36.121094 L 59.921875 42.839844 L 50.679688 51.941406 L 43.960938 51.941406 L 52.921875 42.839844 Z M 46.339844 36.121094 "/>
</g>
</svg>
