<?xml version="1.0" encoding="UTF-8"?>
<svg xmlns="http://www.w3.org/2000/svg" xmlns:xlink="http://www.w3.org/1999/xlink" width="70pt" height="70pt" viewBox="0 0 70 70" version="1.1">
<defs>
<linearGradient id="linear0" gradientUnits="userSpaceOnUse" x1="9.59" y1="17.96" x2="9.59" y2="-0.17" gradientTransform="matrix(3.888889,0,0,3.888889,0,0)">
<stop offset="0" style="stop-color:rgb(0,108,188);stop-opacity:1;"/>
<stop offset="0.82" style="stop-color:rgb(41,164,255);stop-opacity:1;"/>
</linearGradient>
</defs>
<g id="surface1">
<path style=" stroke:none;fill-rule:nonzero;fill:url(#linear0);" d="M 70 41.726563 C 69.792969 34.527344 64.386719 28.542969 57.246094 27.609375 C 56.824219 17.484375 48.320313 9.585938 38.1875 9.917969 C 30.097656 9.738281 22.777344 14.699219 19.949219 22.285156 C 11.359375 23.324219 4.835938 30.511719 4.628906 39.160156 C 5.007813 48.949219 13.234375 56.582031 23.023438 56.234375 L 55.261719 56.234375 C 63.292969 56.191406 69.832031 49.757813 70 41.726563 Z M 70 41.726563 "/>
<path style=" stroke:none;fill-rule:evenodd;fill:rgb(119,197,255);fill-opacity:1;" d="M 0 45.34375 C -0.0429688 41.414063 1.5 37.628906 4.28125 34.847656 C 7.0625 32.066406 10.847656 30.523438 14.777344 30.566406 C 18.707031 30.535156 22.484375 32.082031 25.261719 34.859375 C 28.039063 37.636719 29.585938 41.414063 29.554688 45.34375 L 29.554688 60.082031 L 14.777344 60.082031 C 10.851563 60.125 7.074219 58.585938 4.296875 55.816406 C 1.515625 53.042969 -0.03125 49.269531 0 45.34375 Z M 0 45.34375 "/>
<path style=" stroke:none;fill-rule:nonzero;fill:rgb(255,255,255);fill-opacity:1;" d="M 23.996094 46.316406 L 23.996094 44.140625 L 21.777344 43.359375 L 21.234375 41.882813 L 22.320313 39.589844 L 22.320313 39.355469 L 21.621094 38.65625 L 20.804688 37.722656 L 20.496094 37.722656 L 18.316406 38.890625 L 16.839844 38.460938 L 15.867188 36.011719 L 13.726563 36.011719 L 12.988281 38.226563 L 11.355469 38.890625 L 8.828125 37.683594 L 7.3125 39.199219 L 7.3125 39.472656 L 8.4375 41.648438 L 7.777344 43.285156 L 5.171875 44.253906 L 5.171875 46.433594 L 5.484375 46.433594 L 7.777344 47.210938 L 8.398438 48.6875 L 7.234375 51.214844 L 8.75 52.773438 L 9.0625 52.773438 L 11.199219 51.683594 L 12.714844 52.304688 L 13.648438 54.910156 L 15.828125 54.910156 L 15.828125 54.601563 L 16.566406 52.265625 L 18.042969 51.644531 L 20.609375 52.851563 L 22.128906 51.332031 L 22.128906 51.023438 L 21.039063 48.84375 L 21.464844 47.328125 Z M 14.855469 48.339844 C 13.300781 48.164063 12.128906 46.847656 12.128906 45.285156 C 12.128906 43.722656 13.300781 42.410156 14.855469 42.234375 C 15.667969 42.222656 16.449219 42.539063 17.027344 43.109375 C 17.601563 43.679688 17.929688 44.457031 17.929688 45.265625 C 17.9375 46.085938 17.617188 46.871094 17.039063 47.449219 C 16.460938 48.027344 15.671875 48.347656 14.855469 48.339844 Z M 14.855469 48.339844 "/>
</g>
</svg>
