<?xml version="1.0" encoding="utf-8"?><svg version="1.1" xmlns="http://www.w3.org/2000/svg" xmlns:xlink="http://www.w3.org/1999/xlink" xmlns:xml="http://www.w3.org/XML/1998/namespace" width="70" height="70" viewBox="0, 0, 18, 18" id="a1b7605f-a809-451b-a4b7-0cf3505cf130"><defs><linearGradient x1="9.59" y1="17.96" x2="9.59" y2="-0.17" gradientUnits="userSpaceOnUse" id="e45189b1-c2d3-4f10-b300-1da54b2b00ea"><stop offset="0%" stop-color="#006CBC" /><stop offset="82%" stop-color="#29A4FF" /></linearGradient></defs><title>Icon-storage-95</title><path d="M18 10.73 A3.77 3.77 0 0 0 14.72 7.1 a4.75 4.75 0 0 0 -4.9 -4.55 A4.89 4.89 0 0 0 5.13 5.73 a4.48 4.48 0 0 0 -3.94 4.34 a4.57 4.57 0 0 0 4.73 4.39 l0.42 0 H14 l0.21 0 A3.81 3.81 0 0 0 18 10.73 Z" style="fill:url(#e45189b1-c2d3-4f10-b300-1da54b2b00ea);" /><path d="M0 11.66 a3.76 3.76 0 0 1 3.8 -3.8 a3.77 3.77 0 0 1 3.8 3.8 v3.79 H3.8 A3.76 3.76 0 0 1 0 11.66 Z" fill-rule="evenodd" style="fill:#77C5FF;" /><g id="b33a10b5-62f7-4935-ba61-5887e2c71eb8"><path d="M6.17 11.91 v-0.56 l0 0 l-0.57 -0.2 l-0.14 -0.38 l0.28 -0.59 l0 -0.06 l-0.18 -0.18 L5.35 9.7 l-0.08 0 L4.71 10 l-0.38 -0.11 l-0.25 -0.63 H3.53 l0 0 l-0.19 0.57 L2.92 10 l-0.65 -0.31 l-0.39 0.39 l0 0.07 l0.29 0.56 L2 11.13 l-0.67 0.25 v0.56 l0.08 0 l0.59 0.2 l0.16 0.38 l-0.3 0.65 l0.39 0.4 l0.08 0 l0.55 -0.28 l0.39 0.16 l0.24 0.67 h0.56 l0 -0.08 l0.19 -0.6 l0.38 -0.16 l0.66 0.31 l0.39 -0.39 l0 -0.08 l-0.28 -0.56 l0.11 -0.39 Z m-2.35 0.52 a0.79 0.79 0 0 1 0 -1.57 a0.78 0.78 0 0 1 0.79 0.78 h0 A0.78 0.78 0 0 1 3.82 12.43 Z" style="fill:white;" /></g></svg>