<?xml version="1.0" encoding="UTF-8"?>
<svg xmlns="http://www.w3.org/2000/svg" xmlns:xlink="http://www.w3.org/1999/xlink" width="70pt" height="70pt" viewBox="0 0 70 70" version="1.1">
<defs>
<filter id="alpha" filterUnits="objectBoundingBox" x="0%" y="0%" width="100%" height="100%">
  <feColorMatrix type="matrix" in="SourceGraphic" values="0 0 0 0 1 0 0 0 0 1 0 0 0 0 1 0 0 0 1 0"/>
</filter>
<mask id="mask0">
  <g filter="url(#alpha)">
<rect x="0" y="0" width="70" height="70" style="fill:rgb(0,0,0);fill-opacity:0.2;stroke:none;"/>
  </g>
</mask>
<clipPath id="clip1">
  <rect x="0" y="0" width="70" height="70"/>
</clipPath>
<g id="surface5" clip-path="url(#clip1)">
<path style=" stroke:none;fill-rule:nonzero;fill:rgb(221,240,255);fill-opacity:1;" d="M 5.832031 33.785156 C 5.835938 28.230469 8.753906 23.085938 13.519531 20.234375 C 18.285156 17.382813 24.199219 17.242188 29.097656 19.867188 C 32.96875 13 40.238281 8.75 48.121094 8.75 C 52.1875 8.75 55.980469 9.878906 59.242188 11.816406 C 55.664063 4.808594 48.371094 0 40.039063 0 C 30.734375 -0.0234375 22.476563 5.964844 19.601563 14.816406 C 18.078125 14.257813 16.464844 13.976563 14.839844 13.980469 C 6.578125 13.980469 0 20.691406 0 28.933594 C -0.015625 34.585938 3.207031 39.75 8.292969 42.222656 C 6.6875 39.703125 5.832031 36.777344 5.832031 33.785156 Z M 5.832031 33.785156 "/>
</g>
</defs>
<g id="surface1">
<path style=" stroke:none;fill-rule:nonzero;fill:rgb(0,102,178);fill-opacity:1;" d="M 61.878906 27.535156 L 60.898438 27.535156 C 61.460938 25.71875 61.601563 23.757813 61.601563 21.804688 C 61.738281 9.78125 51.941406 0 40.039063 0 C 30.734375 -0.0234375 22.476563 5.964844 19.601563 14.816406 C 18.078125 14.257813 16.464844 13.976563 14.839844 13.980469 C 6.578125 13.980469 0 20.691406 0 28.933594 C 0 37.140625 6.515625 43.675781 14.582031 43.738281 L 14.582031 36.882813 C 14.582031 30.136719 25.921875 27.058594 36.457031 27.058594 C 46.992188 27.058594 58.332031 30.136719 58.332031 36.882813 L 58.332031 43.75 L 62.441406 43.75 C 66.78125 43.332031 70 39.835938 70 35.644531 C 69.992188 31.164063 66.359375 27.539063 61.878906 27.535156 Z M 61.878906 27.535156 "/>
<path style=" stroke:none;fill-rule:nonzero;fill:rgb(57,171,255);fill-opacity:1;" d="M 17.5 36.882813 L 17.5 63.09375 C 17.5 66.875 25.851563 69.941406 36.199219 69.992188 L 36.199219 70 L 36.457031 70 C 46.929688 70 55.417969 66.90625 55.417969 63.097656 L 55.417969 36.886719 L 17.5 36.886719 Z M 17.5 36.882813 "/>
<path style=" stroke:none;fill-rule:nonzero;fill:rgb(3,148,255);fill-opacity:1;" d="M 36.457031 36.882813 L 36.457031 70 C 46.929688 70 55.417969 66.90625 55.417969 63.097656 L 55.417969 36.886719 L 36.457031 36.886719 Z M 36.457031 36.882813 "/>
<path style=" stroke:none;fill-rule:nonzero;fill:rgb(115,195,255);fill-opacity:1;" d="M 55.417969 36.882813 C 55.417969 40.695313 46.929688 43.789063 36.457031 43.789063 C 25.988281 43.789063 17.5 40.695313 17.5 36.882813 C 17.5 33.066406 25.988281 29.972656 36.457031 29.972656 C 46.929688 29.972656 55.417969 33.070313 55.417969 36.882813 "/>
<use xlink:href="#surface5" mask="url(#mask0)"/>
<path style=" stroke:none;fill-rule:nonzero;fill:rgb(255,255,255);fill-opacity:1;" d="M 36.457031 8.75 L 24.792969 20.417969 L 32.082031 20.417969 L 32.082031 37.917969 L 40.832031 37.917969 L 40.832031 20.417969 L 48.125 20.417969 Z M 36.457031 8.75 "/>
</g>
</svg>
