<?xml version="1.0" encoding="utf-8"?><svg version="1.1" xmlns="http://www.w3.org/2000/svg" xmlns:xlink="http://www.w3.org/1999/xlink" xmlns:xml="http://www.w3.org/XML/1998/namespace" width="70" height="70" viewBox="0, 0, 18, 18" id="a2071c0a-6e62-4699-8e32-285f1bc1e420"><defs><linearGradient x1="10.75" y1="13.54" x2="10.75" y2="2.92" gradientUnits="userSpaceOnUse" id="a89be84a-3752-4123-adee-32901ecefd3d"><stop offset="0%" stop-color="#0078D4" /><stop offset="16%" stop-color="#1380DA" /><stop offset="53%" stop-color="#3C91E5" /><stop offset="82%" stop-color="#559CEC" /><stop offset="100%" stop-color="#5EA0EF" /></linearGradient><linearGradient x1="7.45" y1="17.24" x2="7.45" y2="1.19" gradientUnits="userSpaceOnUse" id="a2f994c2-8580-44cf-92d2-32655328fefe"><stop offset="0%" stop-color="#198AB3" /><stop offset="0%" stop-color="#198AB3" /><stop offset="11%" stop-color="#22A5CB" /><stop offset="23%" stop-color="#29BADE" /><stop offset="37%" stop-color="#2EC9EB" /><stop offset="53%" stop-color="#31D1F3" /><stop offset="78%" stop-color="#32D4F5" /></linearGradient></defs><title>Icon-migrate-281</title><path d="M18 10.53 A3.26 3.26 0 0 0 15.17 7.4 a4.11 4.11 0 0 0 -4.23 -3.93 a4.22 4.22 0 0 0 -4 2.75 A3.89 3.89 0 0 0 3.5 10 a4 4 0 0 0 4.08 3.79 h7 l0.18 0 A3.29 3.29 0 0 0 18 10.53 Z" style="fill:url(#a89be84a-3752-4123-adee-32901ecefd3d);" /><path d="M14.9 11.22 A3.35 3.35 0 0 0 12 8 A4.21 4.21 0 0 0 7.65 4 A4.33 4.33 0 0 0 3.51 6.79 A4 4 0 0 0 0 10.63 a4.06 4.06 0 0 0 4.2 3.9 l0.37 0 h6.79 l0.18 0 A3.38 3.38 0 0 0 14.9 11.22 Z" style="fill:url(#a2f994c2-8580-44cf-92d2-32655328fefe);" /><g id="b1b7ddb8-8ec2-480f-967f-c2bf89d2fe16"><path d="M4.82 9.37 h0.85 a0.23 0.23 0 0 1 0.17 0.07 l2 2 a0.24 0.24 0 0 1 0 0.35 L5.12 14.46 a0.24 0.24 0 0 1 -0.17 0.07 H4.14 A0.25 0.25 0 0 1 4 14.11 l2.31 -2.34 a0.23 0.23 0 0 0 0 -0.34 L4.65 9.78 A0.24 0.24 0 0 1 4.82 9.37 Z M8.25 6 h0.87 a0.25 0.25 0 0 1 0.17 0.08 l1.53 1.55 a0.24 0.24 0 0 1 0 0.34 l-2 1.91 a0.24 0.24 0 0 1 -0.17 0.07 H7.92 a0.25 0.25 0 0 1 -0.18 -0.41 L9.27 8 a0.25 0.25 0 0 0 0 -0.34 L8.08 6.46 A0.24 0.24 0 0 1 8.25 6 Z m1.79 4 h0.85 a0.28 0.28 0 0 1 0.17 0.07 l1.25 1.25 a0.25 0.25 0 0 1 0 0.34 L10.5 13.49 a0.23 0.23 0 0 1 -0.17 0.07 H9.51 a0.24 0.24 0 0 1 -0.17 -0.41 l1.42 -1.44 a0.25 0.25 0 0 0 0 -0.34 l-0.89 -0.91 A0.24 0.24 0 0 1 10 10.05 Z" style="fill:white;" /></g></svg>