<?xml version="1.0" encoding="UTF-8"?>
<svg xmlns="http://www.w3.org/2000/svg" xmlns:xlink="http://www.w3.org/1999/xlink" width="70pt" height="70pt" viewBox="0 0 70 70" version="1.1">
<defs>
<linearGradient id="linear0" gradientUnits="userSpaceOnUse" x1="10.75" y1="13.54" x2="10.75" y2="2.92" gradientTransform="matrix(3.888889,0,0,3.888889,0,0)">
<stop offset="0" style="stop-color:rgb(0,108,188);stop-opacity:1;"/>
<stop offset="0.16" style="stop-color:rgb(0,120,210);stop-opacity:1;"/>
<stop offset="0.53" style="stop-color:rgb(1,147,255);stop-opacity:1;"/>
<stop offset="0.82" style="stop-color:rgb(31,159,255);stop-opacity:1;"/>
<stop offset="1" style="stop-color:rgb(41,164,255);stop-opacity:1;"/>
</linearGradient>
<linearGradient id="linear1" gradientUnits="userSpaceOnUse" x1="7.45" y1="17.24" x2="7.45" y2="1.19" gradientTransform="matrix(3.888889,0,0,3.888889,0,0)">
<stop offset="0" style="stop-color:rgb(0,124,216);stop-opacity:1;"/>
<stop offset="0" style="stop-color:rgb(0,124,216);stop-opacity:1;"/>
<stop offset="0.11" style="stop-color:rgb(3,148,255);stop-opacity:1;"/>
<stop offset="0.23" style="stop-color:rgb(37,162,255);stop-opacity:1;"/>
<stop offset="0.37" style="stop-color:rgb(61,172,255);stop-opacity:1;"/>
<stop offset="0.53" style="stop-color:rgb(73,177,255);stop-opacity:1;"/>
<stop offset="0.78" style="stop-color:rgb(79,180,255);stop-opacity:1;"/>
</linearGradient>
</defs>
<g id="surface1">
<path style=" stroke:none;fill-rule:nonzero;fill:url(#linear0);" d="M 70 40.949219 C 69.804688 34.746094 65.148438 29.59375 58.996094 28.777344 C 58.617188 20.039063 51.285156 13.230469 42.542969 13.496094 C 35.621094 13.421875 29.398438 17.699219 26.988281 24.1875 C 19.484375 25.0625 13.773438 31.335938 13.609375 38.890625 C 14.050781 47.28125 21.074219 53.808594 29.476563 53.628906 L 57.398438 53.628906 C 64.34375 53.523438 69.9375 47.894531 70 40.949219 Z M 70 40.949219 "/>
<path style=" stroke:none;fill-rule:nonzero;fill:url(#linear1);" d="M 57.945313 43.632813 C 57.753906 37.261719 52.984375 31.964844 46.667969 31.109375 C 46.226563 22.175781 38.691406 15.246094 29.75 15.554688 C 22.628906 15.402344 16.183594 19.746094 13.648438 26.40625 C 6.042969 27.339844 0.25 33.679688 0 41.339844 C 0.335938 50.03125 7.640625 56.8125 16.332031 56.503906 L 44.878906 56.503906 C 52.003906 56.464844 57.796875 50.757813 57.945313 43.632813 Z M 57.945313 43.632813 "/>
<path style=" stroke:none;fill-rule:nonzero;fill:rgb(255,255,255);fill-opacity:1;" d="M 18.746094 36.4375 L 22.050781 36.4375 C 22.296875 36.433594 22.539063 36.53125 22.710938 36.710938 L 30.488281 44.488281 C 30.675781 44.664063 30.785156 44.910156 30.785156 45.167969 C 30.785156 45.425781 30.675781 45.671875 30.488281 45.851563 L 19.910156 56.234375 C 19.734375 56.410156 19.496094 56.507813 19.25 56.503906 L 16.101563 56.503906 C 15.742188 56.449219 15.449219 56.195313 15.335938 55.851563 C 15.21875 55.511719 15.304688 55.132813 15.554688 54.871094 L 24.539063 45.773438 C 24.726563 45.601563 24.832031 45.363281 24.832031 45.109375 C 24.832031 44.859375 24.726563 44.621094 24.539063 44.449219 L 18.082031 38.035156 C 17.816406 37.765625 17.734375 37.363281 17.878906 37.015625 C 18.023438 36.664063 18.367188 36.4375 18.746094 36.4375 Z M 32.082031 23.332031 L 35.464844 23.332031 C 35.71875 23.347656 35.957031 23.457031 36.128906 23.644531 L 42.078125 29.671875 C 42.253906 29.847656 42.351563 30.085938 42.351563 30.332031 C 42.351563 30.582031 42.253906 30.820313 42.078125 30.996094 L 34.300781 38.421875 C 34.125 38.597656 33.886719 38.695313 33.640625 38.695313 L 30.800781 38.695313 C 30.429688 38.675781 30.105469 38.453125 29.957031 38.113281 C 29.808594 37.777344 29.863281 37.382813 30.101563 37.101563 L 36.050781 31.109375 C 36.394531 30.738281 36.394531 30.160156 36.050781 29.789063 L 31.421875 25.121094 C 30.929688 24.941406 30.675781 24.390625 30.859375 23.898438 C 31.039063 23.402344 31.589844 23.152344 32.082031 23.332031 Z M 39.042969 38.890625 L 42.351563 38.890625 C 42.59375 38.902344 42.828125 39 43.011719 39.160156 L 47.871094 44.023438 C 48.21875 44.394531 48.21875 44.972656 47.871094 45.34375 L 40.832031 52.460938 C 40.660156 52.640625 40.421875 52.738281 40.171875 52.734375 L 36.984375 52.734375 C 36.605469 52.734375 36.265625 52.507813 36.117188 52.15625 C 35.972656 51.808594 36.054688 51.40625 36.320313 51.140625 L 41.84375 45.539063 C 42.191406 45.164063 42.191406 44.589844 41.84375 44.214844 L 38.382813 40.679688 C 38.128906 40.429688 38.035156 40.0625 38.140625 39.722656 C 38.25 39.386719 38.539063 39.136719 38.890625 39.082031 Z M 39.042969 38.890625 "/>
</g>
</svg>
