<?xml version="1.0" encoding="utf-8"?><svg version="1.1" xmlns="http://www.w3.org/2000/svg" xmlns:xlink="http://www.w3.org/1999/xlink" xmlns:xml="http://www.w3.org/XML/1998/namespace" width="70" height="70" viewBox="0, 0, 18, 18" id="FxSymbol0-058" class="" role="presentation" focusable="false" data-type="1"><g><rect y="2.715" width="18" height="12.57" rx="0.6" style="fill:url(#1fc5c607-605c-43fd-84b2-36aedada409a);" /><path d="M1.529 7.1 a0.368 0.368 0 0 1 -0.369 -0.367 V4.324 a0.367 0.367 0 0 1 0.368 -0.367 h2.255 a0.368 0.368 0 0 1 0 0.736 H1.9 v2.04 a0.367 0.367 0 0 1 -0.37 0.367 Z m14.942 0 a0.367 0.367 0 0 1 -0.367 -0.367 v-2.04 h-1.888 a0.368 0.368 0 0 1 0 -0.736 h2.255 a0.368 0.368 0 0 1 0.369 0.367 v2.409 a0.367 0.367 0 0 1 -0.368 0.367 Z M3.784 14.043 H1.529 a0.368 0.368 0 0 1 -0.369 -0.367 v-2.409 a0.368 0.368 0 0 1 0.736 0 v2.04 h1.888 a0.368 0.368 0 0 1 0 0.736 Z m12.687 0 h-2.254 a0.368 0.368 0 0 1 0 -0.736 H16.1 v-2.04 a0.368 0.368 0 0 1 0.736 0 v2.409 a0.367 0.367 0 0 1 -0.368 0.367 Z" class="msportalfx-svg-c01" style="fill:white;" /><path d="M11.6 5.689 a0.426 0.426 0 0 0 -0.654 -0.034 a2.689 2.689 0 0 1 -2 0.821 a2.692 2.692 0 0 1 -1.987 -0.81 a0.426 0.426 0 0 0 -0.659 0.041 l-2.453 3.4 a0.327 0.327 0 0 0 0 0.381 c0.778 1.087 4.893 6.145 10.293 0 a0.327 0.327 0 0 0 0.014 -0.41 Z" style="fill:url(#1fc5c607-605c-43fd-84b2-36aedada409b);" /></g><defs><linearGradient x1="-278" y1="854.231" x2="-278" y2="866.801" gradientUnits="userSpaceOnUse" gradientTransform="matrix(1, 0, 0, -1, 287, 869.516)" id="1fc5c607-605c-43fd-84b2-36aedada409a"><stop offset="0%" stop-color="#0078D4" /><stop offset="15.6%" stop-color="#1380DA" /><stop offset="52.8%" stop-color="#3C91E5" /><stop offset="82.2%" stop-color="#559CEC" /><stop offset="100%" stop-color="#5EA0EF" /></linearGradient><linearGradient x1="9" y1="12.482" x2="9" y2="5.518" gradientUnits="userSpaceOnUse" id="1fc5c607-605c-43fd-84b2-36aedada409b"><stop offset="0%" stop-color="#EF7100" /><stop offset="100%" stop-color="#FAA21D" /></linearGradient></defs></svg>