<?xml version="1.0" encoding="utf-8"?><svg version="1.1" xmlns="http://www.w3.org/2000/svg" xmlns:xlink="http://www.w3.org/1999/xlink" xmlns:xml="http://www.w3.org/XML/1998/namespace" width="70" height="70" viewBox="0, 0, 18, 18" id="FxSymbol0-057" class="" role="presentation" focusable="false" data-type="1"><g><path d="M13.378 4.4 h-0.9 V2.035 a0.122 0.122 0 0 0 -0.027 0 H5.659 a0.122 0.122 0 0 0 -0.027 0 V4.4 h-0.9 V1.99 a0.9 0.9 0 0 1 0.927 -0.858 h6.792 a0.9 0.9 0 0 1 0.927 0.858 Z" style="fill:#47B0FF;" /><rect y="4.298" width="18" height="12.57" rx="0.6" style="fill:url(#1fc5c607-605c-43fd-84b2-36aedada4098);" /><path d="M11.359 6.235 a2.307 2.307 0 0 0 -2.366 1.55 a2.317 2.317 0 0 0 -2.381 -1.534 c-2.138 0.175 -2.244 2.291 -2.206 3.1 c0.018 0.578 0.137 2.4 4.565 5.56 l0.038 0.027 l0.038 -0.027 c4.428 -3.187 4.536 -5.044 4.55 -5.645 c0.027 -0.787 -0.097 -2.866 -2.238 -3.031 Z" style="fill:url(#1fc5c607-605c-43fd-84b2-36aedada4099);" /><path d="M13.483 8.07 a3.447 3.447 0 0 1 -0.323 1.883 a5.379 5.379 0 0 1 -3.167 2.412 a0.728 0.728 0 0 0 -0.529 -0.264 a0.742 0.742 0 1 0 0.691 0.8 A7.412 7.412 0 0 0 13 11.075 a3.326 3.326 0 0 0 0.592 -1.8 a4.141 4.141 0 0 0 -0.109 -1.205 Z m-6.376 4.402 l0.188 0.216 a0.286 0.286 0 0 0 0.4 0.023 l0.428 -0.382 a0.287 0.287 0 0 0 0.023 -0.4 a0.281 0.281 0 0 0 -0.393 -0.063 a0.3 0.3 0 0 0 -0.027 0.023 l-0.223 0.2 C6.1 10.543 5.7 9.355 6.346 8.785 s1.775 -0.034 3.167 1.515 l-0.223 0.2 a0.282 0.282 0 0 0 -0.025 0.4 a0.276 0.276 0 0 0 0.388 0.033 l0.012 -0.009 l0.422 -0.377 a0.287 0.287 0 0 0 0.023 -0.4 l-0.189 -0.207 c-0.943 -1.062 -2.576 -2.375 -3.7 -1.717 a1.756 1.756 0 0 1 -0.477 -1.112 a1.242 1.242 0 0 1 0.2 -0.726 a1.911 1.911 0 0 0 -0.738 0.437 A1.917 1.917 0 0 0 5.814 8.6 c-0.763 1.044 0.35 2.81 1.293 3.872 Z" opacity="0.9" class="msportalfx-svg-c01" style="fill:white;" /></g><defs><linearGradient x1="-278" y1="852.647" x2="-278" y2="865.218" gradientUnits="userSpaceOnUse" gradientTransform="matrix(1, 0, 0, -1, 287, 869.516)" id="1fc5c607-605c-43fd-84b2-36aedada4098"><stop offset="0%" stop-color="#006CBC" /><stop offset="15.6%" stop-color="#0078D2" /><stop offset="52.8%" stop-color="#0193FF" /><stop offset="82.2%" stop-color="#1F9FFF" /><stop offset="100%" stop-color="#29A4FF" /></linearGradient><linearGradient x1="307" y1="388.577" x2="307" y2="397.288" gradientUnits="userSpaceOnUse" gradientTransform="matrix(1, 0, 0, -1, -298, 403.516)" id="1fc5c607-605c-43fd-84b2-36aedada4099"><stop offset="0%" stop-color="#159BFF" /><stop offset="100%" stop-color="#5BB9FF" /></linearGradient></defs></svg>