<?xml version="1.0" encoding="utf-8"?><svg version="1.1" xmlns="http://www.w3.org/2000/svg" xmlns:xlink="http://www.w3.org/1999/xlink" xmlns:xml="http://www.w3.org/XML/1998/namespace" width="70" height="70" viewBox="0, 0, 50, 50" id="FxSymbol0-040" class="" role="presentation" focusable="false" data-type="1"><g><title /><path d="M36.5 1 C31.337 1 26.906 4.131 25 8.598 C23.094 4.131 18.663 1 13.5 1 C5 1 1 9.096 1 16 c0 21 24 33 24 33 s24 -12 24 -33 c0 -6.904 -4 -15 -12.5 -15 z" class="msportalfx-svg-c10" style="fill:darkorange;" /><path d="M25 28 c-10.713 0 -19.91 -3.988 -23.891 -9.683 C2.774 37.878 25 49 25 49 s22.226 -11.122 23.891 -30.683 C44.91 24.012 35.713 28 25 28 z" opacity="0.25" class="msportalfx-svg-c08" style="fill:#BA141A;" /><circle cx="28" cy="37" r="3.9" class="msportalfx-svg-c01" style="fill:white;" /><path d="M4.645 5.101 s-1.406 5.042 4.434 10.082 l1.846 -2.364 c-0.032 -0.025 -3.181 -2.564 -3.413 -6.265 C7.323 3.538 8.83 1.91 8.83 1.91 c-1.672 0.758 -3.064 1.801 -4.185 3.191 z m43.151 4.32 c0.892 3.894 0.563 7.733 -1.007 11.266 c-2.821 6.349 -9.488 11.5 -19.28 14.896 l0.982 2.834 c8.436 -2.924 14.857 -7.143 18.686 -12.336 C48.368 22.999 49.1 19.638 49.1 16 c0 -2.172 -0.497 -4.46 -1.304 -6.579 z" class="msportalfx-svg-c01" style="fill:white;" /><path d="M9.176 13.176 c-5.621 5.621 1.344 15.486 7 21.143 l1.061 1.061 a1.5 1.5 0 0 0 2.121 0 l2.121 -2.121 a1.5 1.5 0 1 0 -2.121 -2.121 l-1.131 1.131 c-7.778 -7.778 -10.28 -13.903 -7.071 -17.112 s9.334 -0.707 17.112 7.071 l-1.131 1.131 a1.5 1.5 0 1 0 2.121 2.121 l2.121 -2.121 a1.5 1.5 0 0 0 0 -2.121 l-1.061 -1.061 C24.662 14.52 14.797 7.555 9.176 13.176 z" class="msportalfx-svg-c01" style="fill:white;" /></g><defs /></svg>