<?xml version="1.0" encoding="utf-8"?><svg version="1.1" xmlns="http://www.w3.org/2000/svg" xmlns:xlink="http://www.w3.org/1999/xlink" xmlns:xml="http://www.w3.org/XML/1998/namespace" width="70" height="70" viewBox="0, 0, 18, 18" id="FxSymbol0-059" class="" role="presentation" focusable="false" data-type="1"><g><rect x="16.935" y="8.059" width="0.667" height="3.487" rx="0.229" style="fill:#006CBC;" /><rect x="16.935" y="12.204" width="0.667" height="1.254" rx="0.229" style="fill:#006CBC;" /><path d="M10.506 5.668 h5.161 a0.162 0.162 0 0 1 0.162 0.162 v1.2 h-5.485 v-1.2 a0.162 0.162 0 0 1 0.162 -0.162 Z m-0.162 9.687 h5.486 v1.166 a0.16 0.16 0 0 1 -0.16 0.16 H10.5 a0.16 0.16 0 0 1 -0.16 -0.16 v-1.166 h0.004 Z" style="fill:#00518E;" /><rect x="9.016" y="6.643" width="8.151" height="8.712" rx="0.371" style="fill:url(#1fc5c607-605c-43fd-84b2-36aedada409c);" /><rect x="9.732" y="7.363" width="6.797" height="7.271" rx="0.31" style="fill:#00518E;" /><path d="M13.947 7.822 a0.8 0.8 0 0 0 -0.819 0.536 a0.8 0.8 0 0 0 -0.824 -0.531 c-0.74 0.061 -0.777 0.794 -0.764 1.074 c0.007 0.2 0.048 0.831 1.581 1.925 l0.013 0.009 l0.013 -0.01 c1.533 -1.1 1.57 -1.746 1.575 -1.954 c0.009 -0.271 -0.034 -0.994 -0.775 -1.049 Z" style="fill:url(#1fc5c607-605c-43fd-84b2-36aedada409d);" /><path d="M16.518 11.7 h-1.951 a0.061 0.061 0 0 0 -0.048 0.025 l-0.443 0.763 a0.059 0.059 0 0 1 -0.081 0.018 a0.077 0.077 0 0 1 -0.018 -0.018 l-0.634 -1.2 a0.113 0.113 0 0 0 -0.151 -0.053 a0.116 0.116 0 0 0 -0.054 0.053 L12.53 13.1 a0.058 0.058 0 0 1 -0.077 0.029 a0.063 0.063 0 0 1 -0.028 -0.028 l-0.517 -1.208 a0.114 0.114 0 0 0 -0.154 -0.048 a0.117 0.117 0 0 0 -0.048 0.048 l-0.713 1.281 a0.055 0.055 0 0 1 -0.048 0.029 H9.7 v0.447 h1.51 a0.047 0.047 0 0 0 0.048 -0.029 l0.444 -0.817 a0.059 0.059 0 0 1 0.079 -0.023 a0.051 0.051 0 0 1 0.023 0.023 l0.608 1.414 a0.113 0.113 0 0 0 0.145 0.067 a0.111 0.111 0 0 0 0.067 -0.067 l0.642 -1.9 a0.054 0.054 0 0 1 0.069 -0.031 a0.053 0.053 0 0 1 0.031 0.031 l0.535 1.015 a0.112 0.112 0 0 0 0.149 0.046 a0.117 0.117 0 0 0 0.045 -0.046 l0.682 -1.147 a0.056 0.056 0 0 1 0.047 -0.029 h1.691 Z" class="msportalfx-svg-c01" style="fill:white;" /><path d="M8.613 7.063 a0.775 0.775 0 0 1 0.774 -0.774 h0.554 v-0.41 a0.566 0.566 0 0 1 0.565 -0.566 h3.073 a4.647 4.647 0 0 0 -4.732 -3.992 a4.784 4.784 0 0 0 -4.572 3.118 A4.408 4.408 0 0 0 0.4 8.682 a4.48 4.48 0 0 0 4.636 4.307 h3.577 Z" style="fill:url(#1fc5c607-605c-43fd-84b2-36aedada409e);" /></g><defs><linearGradient x1="13.092" y1="15.355" x2="13.092" y2="6.643" gradientUnits="userSpaceOnUse" id="1fc5c607-605c-43fd-84b2-36aedada409c"><stop offset="0%" stop-color="#006CBC" /><stop offset="100%" stop-color="#29A4FF" /></linearGradient><linearGradient x1="311.131" y1="392.681" x2="311.131" y2="395.697" gradientUnits="userSpaceOnUse" gradientTransform="matrix(1, 0, 0, -1, -298, 403.516)" id="1fc5c607-605c-43fd-84b2-36aedada409d"><stop offset="0.1%" stop-color="#41AEFF" /><stop offset="100%" stop-color="#5BB9FF" /></linearGradient><linearGradient x1="6.989" y1="1.319" x2="6.989" y2="12.992" gradientUnits="userSpaceOnUse" id="1fc5c607-605c-43fd-84b2-36aedada409e"><stop offset="22.5%" stop-color="#29A4FF" /><stop offset="100%" stop-color="#006CBC" /></linearGradient></defs></svg>